<?xml version="1.0" encoding="iso-8859-1"?>
<!-- Generator: Adobe Illustrator 16.0.0, SVG Export Plug-In . SVG Version: 6.00 Build 0)  -->
<!DOCTYPE svg PUBLIC "-//W3C//DTD SVG 1.1//EN" "http://www.w3.org/Graphics/SVG/1.1/DTD/svg11.dtd">
<svg version="1.1" id="Layer_1" xmlns="http://www.w3.org/2000/svg" xmlns:xlink="http://www.w3.org/1999/xlink" x="0px" y="0px"
	 width="401.118px" height="156.896px" viewBox="0 0 401.118 156.896" style="enable-background:new 0 0 401.118 156.896;"
	 xml:space="preserve">
<g>
	<g>
		<path style="fill:none;" d="M200.567,156.352c-65.885,0-131.771-0.008-197.655,0.042c-1.811,0.001-2.415-0.242-2.412-2.283
			c0.072-50.479,0.072-100.956,0-151.434C0.497,0.737,1.018,0.5,2.764,0.5C134.619,0.545,266.475,0.544,398.33,0.506
			c1.686,0,2.292,0.15,2.288,2.15c-0.078,50.563-0.074,101.127-0.009,151.689c0.003,1.821-0.46,2.052-2.131,2.051
			C332.508,156.345,266.538,156.352,200.567,156.352z M93.309,61.838c-2.544,0.381-4.745-1.701-7.33-1.016
			c-3.171,0.841-5.321-1.25-7.648-2.729c-1.278-0.812-1.687-2.046-1.75-3.663c-0.062-1.566,0.943-2.623,1.272-3.97
			c0.494-2.021,0.509-4.482,2.834-5.844c1.428-0.835,2.31-2.422,3.466-3.626c2.015-2.098,3.291-4.244,2.782-7.304
			c-0.349-2.1,1.869-6.772,3.22-6.897c2.33-0.216,3.877-1.554,5.459-3.02c2.489-2.307,3.151-5.767,5.415-8.279
			c1.209-1.343-0.21-2.937-2.218-2.751c-2.081,0.192-4.115,0.852-6.242,0.584c-0.41-0.052-0.771,0.093-1.168,0.327
			c-3.777,2.215-6.191,5.751-8.639,9.167c-2.32,3.237-5.771,4.677-9.073,6.243c-2.59,1.23-5.316,2.11-7.708,3.808
			c-1.663,1.18-1.174,2.584-0.771,3.941c0.433,1.453,1.427,1.085,2.575,0.608c1.482-0.616,2.353,0.614,3.096,1.617
			c0.594,0.802-0.074,1.431-0.666,1.931c-2.423,2.05-5.421,3.405-7.029,6.44c-0.692,1.306-2.414,0.822-3.508,0.482
			c-1.029-0.32,0.038-1.246,0.112-1.912c0.141-1.273-0.276-2.347-1.534-2.788c-2.672-0.936-5.469-1.734-8.243-0.873
			c-2.881,0.895-5.605,1.72-8.665,0.69c-1.41-0.475-2.573-1.733-4.131-1.56c-2.065,0.229-2.845-0.791-3.522-2.571
			c-1.057-2.774-4.467-3.981-6.032-2.335c-1.409,1.481-2.779,3.007-4.065,4.595c-1.895,2.337-1.425,5.628,1.304,6.791
			c2.118,0.902,3.355,2.915,5.699,3.619c1.062,0.318,1.782,2.524,3.021,3.702c2.376,2.256,4.23,5.016,6.469,7.439
			c1.474,1.595,2.803,2.917,4.706,3.965c2.225,1.225,5.149,1.173,6.772,3.321c1.211,1.604,2.342,1.733,4.021,0.976
			c2.438-1.099,4.105-0.717,4.725,1.42c0.867,2.995,2.892,3.398,5.46,3.285c2.17-0.096,4.087,0.685,5.631,2.163
			c2.074,1.985,4.499,3.438,7.157,4.302c0.954,0.311,1.773,0.698,2.404,1.294c1.868,1.761,4.839,1.491,6.348-0.299
			c0.853-1.012,2.066-1.24,2.943-0.62c1.909,1.353,3.849,0.775,5.817,0.576c0.4-0.04,0.846-0.329,1.179-0.222
			c3.245,1.052,5.512-0.439,7.833-2.517c1.07-0.959,2.045-2.062,3.232-2.913c1.335-0.957,2.33-1.16,3.854,0.087
			c4.447,3.636,8.665,2.627,11.564-2.358c0.423-0.727,1.116-1.281,2.141-1.629c3.279-1.117,6.577-1.458,9.945-0.912
			c2.369,0.384,4.368-1.236,6.632-1.019c1.667,0.16,2.812-0.524,3.591-1.822c1.002-1.67,2.399-2.356,4.305-2.319
			c0.966,0.019,1.859-0.01,2.875-0.546c3.709-1.957,5.978-5.712,9.832-7.505c1.511-0.703,1.733-2.26,0.271-3.63
			c-2.123-1.988-3.585-5.103-7.372-4.149c-0.302,0.076-0.677-0.024-0.991-0.125c-2.755-0.88-4.901-0.089-6.232,2.417
			c-0.2,0.377-0.203,0.782-0.746,0.781c-2.639-0.004-5.685,0.83-7.819-0.209c-2.97-1.448-4.612,0.496-6.421,1.451
			c-1.271,0.671-1.983,0.705-3.238,0.4c-2.719-0.659-5.29-2.021-8.252-1.671c-1.609,0.19-2.821,0.36-3.331,2.299
			c-0.514,1.957-2.438,2.562-4.223,2.799c-1.601,0.213-2.751-1.421-2.45-3.104c0.088-0.492,0.142-0.992,0.177-1.491
			c0.267-3.778-0.412-7.573,0.442-11.363c0.401-1.779-1.369-2.794-3.145-1.977c-2.035,0.937-3.783,2.118-5.238,4.007
			c-1.121,1.455-1.768,3.471-3.601,4.295c-2.775,1.247-2.617,4.386-4.225,6.39c-0.343,0.426-0.098,1.518,0.16,2.194
			c0.631,1.655,0.005,2.932-1.729,3.128C94.507,61.898,93.904,61.843,93.309,61.838z M380.117,63.63
			c0-0.797,0.045-1.397-0.009-1.988c-0.113-1.242-1.301-1.946-1.998-1.465c-2.781,1.919-6.621,2.82-7.599,6.645
			c-0.366,1.434-1.343,2.118-2.204,2.957c-2.887,2.81-6.929,4.513-8.283,8.783c-0.093,0.291-0.41,0.562-0.688,0.734
			c-3.028,1.876-3.65,4.703-3.231,7.976c0.143,1.109-0.005,1.973-1.215,2.659c-4.03,2.288-7.955,4.764-11.936,7.141
			c-1.817,1.085-2.285,3.059-0.878,4.541c1.231,1.297,2.23,2.715,3.256,4.167c0.975,1.38,0.857,2.549,0.214,3.521
			c-0.762,1.15-2.152,0.761-3.158,0.041c-2.45-1.755-4.68-0.963-6.873,0.457c-1.18,0.766-2.286,1.645-3.467,2.409
			c-2.818,1.826-5.798,2.062-8.84,0.652c-4.154-1.924-6.556-1.223-8.747,2.661c-0.939,1.664,0.13,6.379,1.684,6.463
			c3.689,0.2,6.764,2.68,10.66,2.298c2.786-0.272,5.488,0.811,7.173,3.506c0.623,0.997,1.714,2.081,2.806,1.914
			c4.124-0.631,5.251,2.513,6.677,5.107c1.657,3.014,3.323,3.565,5.964,1.345c1.158-0.974,2.498-1.145,3.48-0.481
			c1.786,1.205,3.498,0.692,5.306,0.488c2.551-0.288,4.689-2.036,7.422-1.812c4.851,0.398,8.182-2.104,9.371-6.758
			c0.13-0.512-0.072-0.975,0.605-1.461c2.472-1.773,4.912-3.393,6.809-6.113c1.325-1.901,2.949-3.843,4.317-5.841
			c1.6-2.335,0.491-4.151-2.194-4.91c-2.082-0.589-3.944-0.018-5.894,0.108c-3.408,0.221-6.787-0.412-10.22-0.11
			c-2.024,0.178-3.765,1.369-5.857,1.151c-1.275-0.133-2.733,0.132-3.242-1.339c-0.443-1.282,0.188-2.364,1.11-3.473
			c1.487-1.788,3.377-3.626,1.863-6.42c-0.389-0.718,0.275-1.546,0.721-2.034c1.734-1.901,3.449-3.884,5.476-5.44
			c2.126-1.635,2.954-3.714,2.272-6.005c-0.782-2.629,0.219-5.273,1.611-6.358c3.884-3.029,4.379-7.7,6.579-11.487
			C379.622,66.719,380.846,65.176,380.117,63.63z M82.771,144.152c2.795-0.54,5.437-0.554,7.526-2.263
			c0.871-0.712,1.472-1.97,2.433-2.314c2.353-0.841,3.772-1.511,2.454-4.579c-1.055-2.455-3.588-4.029-5.764-2.33
			c-2.865,2.237-5.997,2.684-9.544,2.874c-4.626,0.248-9.261-1.065-13.995,1.176c-2.851,1.349-6.71,0.824-10.082-0.64
			c-1.197-0.52-2.973-0.641-4.385,0.328c-1.336,0.916-2.61,0.838-3.902-0.221c-1.671-1.369-3.774-1.926-5.794-1.703
			c-2.003,0.221-3.596-0.185-5.255-1.187c-2.475-1.494-4.816-3.315-7.807-3.755c-1.265-0.186-2.341-0.643-3.229-1.658
			c-0.919-1.053-2.06-0.83-3.186-0.188c-1.289,0.735-2.646,1.356-3.914,2.126c-1.543,0.936-1.76,2.962-0.332,4.033
			c2.291,1.72,3.738,4.211,5.891,6.109c1.636,1.442,2.865,2.056,4.855,1.6c3.647-0.837,6.545,0.346,9.015,3.147
			c3.207,3.638,7.49,5.023,12.037,3.759c3.519-0.979,6.709,0.094,9.913,0.569c2.839,0.421,5.343,1.094,8.182-0.169
			c1.039-0.462,2.002-1.461,3.497-1.264c2.197,0.29,4.131-0.8,6.008-1.881C79.141,144.715,80.503,142.244,82.771,144.152z
			 M76.674,101.117c0.212-2.272-1.372-3.812-2.385-5.541c-0.532-0.908-1.702-0.866-2.399-0.03c-3.082,3.699-5.384,7.93-7.951,11.975
			c-1.923,3.03-3.03,6.521-5.123,9.484c-0.71,1.006-1.93,1.795-2.003,3.091c-0.077,1.384-0.779,1.982-1.849,2.682
			c-2.28,1.49-5.334,2.589-4.366,6.364c0.037,0.144-0.022,0.374-0.124,0.479c-1.304,1.339-1.449,2.821,0.108,3.873
			c1.547,1.045,2.647-0.37,3.55-1.378c3.366-3.759,6.991-7.229,11.175-10.052c1.269-0.855,1.658-1.983,2.29-3.259
			c1.333-2.688,2.385-5.809,6.14-6.492c2.546-0.464,3.573-3.202,2.448-5.753c-0.466-1.058-0.739-2.074,0.038-3.025
			C76.846,102.771,76.603,101.934,76.674,101.117z M263.145,50.512c0,0.948-0.218,1.799,0.051,2.453
			c0.393,0.956,1.133,1.77,1.725,2.644c0.55-0.468,1.561-0.405,1.724-1.285c0.606-3.281,1.909-6.018,4.885-7.927
			c0.832-0.533,1.935-1.953,0.638-3.355c-0.603-0.651-0.608-1.801-0.271-2.132c3.376-3.314,1.646-5.128-1.761-6.549
			c-0.071-0.03-0.128-0.11-0.18-0.177c-0.555-0.718-1.257-1.194-2.177-0.908c-1.083,0.335-0.331,1.3-0.553,1.942
			c-0.133,0.385-0.138,0.849-0.362,1.162c-1.055,1.473-0.976,2.886-0.042,4.395c0.685,1.108-0.253,5.323-1.324,5.709
			C263.411,47.232,262.413,48.443,263.145,50.512z M274.912,64.22c0.466,0.933-0.192,3.035,1.695,3.128
			c1.539,0.076,3.516-0.323,3.395-2.764c-0.03-0.6,0.417-0.935,0.792-1.226c1.894-1.467,1.416-2.837-0.211-4.032
			c-0.934-0.686-0.88-1.714-0.2-1.956c1.588-0.564,1.384-2.203,2.313-3.105c0.703-0.685,0.415-1.371-0.235-1.958
			c-0.752-0.68-1.322-1.688-2.614-1.334c-2.85,0.78-4.496,4.407-2.917,6.925c0.754,1.202,0.442,1.808-0.394,2.56
			C275.503,61.387,274.753,62.458,274.912,64.22z M285.491,92.401c-2.132,0.539-4.694,0.234-6.952,1.599
			c-1.734,1.048-1.185,2.575-1.115,4.075c0.087,1.901,1.589,1.118,2.248,0.99c2.516-0.488,5.039-0.315,7.554-0.481
			c1.354-0.089,2.624-0.705,2.965-2.249c0.325-1.469-0.215-2.633-1.449-3.509C287.8,92.159,286.759,92.687,285.491,92.401z
			 M154.821,122.603c-0.059,1.569,0.79,2.567,1.368,3.641c0.483,0.896,1.418,1.302,2.393,0.904c0.932-0.379,1.317-1.391,1.298-2.264
			c-0.021-0.945-0.239-2.105-0.824-2.776c-1.578-1.809-0.735-2.958,0.683-4.197c1.692-1.477,0.99-3.741,1.614-5.588
			c0.203-0.601-0.98-1.571-1.836-1.89c-1.288-0.479-1.218,1.082-1.92,1.568c-1.082,0.751-1.142,2.164-0.404,2.908
			c1.345,1.356,0.229,1.668-0.62,2.054c-0.9,0.409-2.1,1.213-1.633,1.857C156.052,120.353,155.557,121.518,154.821,122.603z
			 M307.197,82.836c-2.982-0.369-4.804,1.279-5.979,3.605c-0.62,1.227-0.764,2.896,0.144,4.067c1.011,1.303,2.319,0.775,3.771,0.249
			c1.397-0.507,2.221-1.713,3.557-2.16c1.607-0.538,2.48-1.778,1.858-3.276C310,84.002,309.351,82.151,307.197,82.836z
			 M272.291,25.009c-2.792,0.065-4.017,0.952-4.044,3.03c-0.021,1.576-0.976,3.664,1.933,3.854c0.518,0.034,1.195,0.404,1.474,0.831
			c2.23,3.421,3.204,1.439,4.262-0.878c0.544-1.192,1.671-2.29,0.779-3.658C275.491,26.345,273.938,24.901,272.291,25.009z
			 M265.177,96.233c0.038,2.519,2.779,4.166,5.036,3.194c0.46-0.198,0.77-1.085,1.36-0.277c1.234,1.685,3.472-0.066,4.812,1.436
			c0.192,0.215,1.221-0.334,0.647-1.031c-0.848-1.03-1.013-2.244-1.41-3.425c-0.228-0.676-1.101-1.552-2.027-0.938
			c-1.32,0.873-1.796,0.016-2.232-0.886c-0.878-1.812-2.488-1.511-3.841-1.146C266.035,93.56,264.74,94.489,265.177,96.233z
			 M241.156,73.165c-0.097-1.617-4.393-4.688-6.193-4.052c-1.367,0.483-2.944,1.432-2.958,3.31
			c-0.019,2.618,2.598,5.251,5.072,5.256C238.158,77.68,241.224,74.288,241.156,73.165z M242.191,82.754
			c0-3.416-0.831-4.579-3.104-4.563c-2.327,0.017-4.589,2.311-4.557,4.623c0.026,1.899,3.281,4.781,5.736,4.263
			C242.04,86.702,242.46,84.462,242.191,82.754z M264.671,58.633c0.201-2.761-2.061-3.112-3.545-4.129
			c-0.616-0.423-0.791,0.232-1.024,0.633c-1.477,2.55-1.498,5.269-1.087,8.094c0.17,1.165,0.661,2.064,1.72,2.116
			c1.251,0.062,2.004-0.882,1.861-2.163c-0.123-1.109,0.287-1.959,1.106-2.472C264.646,60.12,264.772,59.363,264.671,58.633z
			 M196.321,114.473c-2.132-0.267-3.672,1.008-5.297,1.913c-1.163,0.647-1.981,1.897-1.356,3.175c0.606,1.24,2.017,1.209,3.29,0.894
			c1.19-0.295,2.366-0.711,3.574-0.856c2.014-0.243,2.617-1.797,2.659-3.277C199.237,114.608,197.729,114.331,196.321,114.473z
			 M291.744,93.659c-0.027,2.185,0.731,3.065,3.02,2.883c2.809-0.224,4.876-1.342,4.729-3.739c-0.153-2.49-1.503-2.852-3.418-2.858
			C293.62,89.936,291.772,91.531,291.744,93.659z M254.804,91.987c-1.547-0.156-2.438,0.91-2.815,2.051
			c-0.378,1.144-0.365,2.571,1.011,3.348c1.219,0.688,2.536,1.09,3.891,1.478c1.869,0.535,2.482-0.314,2.657-1.867
			C259.818,94.597,257.382,92.065,254.804,91.987z M133.884,112.81c0.073-1.092-0.157-1.953-1.444-1.911
			c-1.352,0.043-2.328-0.396-3.033-1.639c-0.565-0.995-1.792-1.458-2.569-0.646c-0.894,0.932-2.215,2.042-1.47,3.681
			c0.955,2.1,5.312,3.603,7.313,2.515C133.391,114.423,134.086,113.802,133.884,112.81z M254.466,70.658
			c-0.073,1.831,0.628,2.913,1.732,2.935c1.552,0.031,2.334-0.72,2.346-2.286c0.005-0.792,0.01-1.412,0.811-2.112
			c0.644-0.564,0.93-1.996,0.088-3.088c-0.668-0.866-1.425-1.388-2.565-1.199c-1.066,0.177-1.699,0.971-1.855,1.844
			C254.776,68.122,255.199,69.593,254.466,70.658z M242.702,90.004c0.003,1.827,2.303,4.816,3.52,4.412
			c1.253-0.417,2.879-1.034,2.888-2.877c0.006-1.292-2.848-4.892-3.705-4.568C244.012,87.496,242.22,87.997,242.702,90.004z
			 M267.209,77.169c-2.913,0.005-3.524,0.647-3.558,3.481c-0.018,1.53,0.151,2.806,2.271,2.683c2.266-0.133,3.743-1.646,3.893-3.925
			C269.972,77.015,268.548,77.038,267.209,77.169z M264.522,84.562c-1.645,0.849-3.312,1.653-4.919,2.565
			c-0.675,0.382-0.73,1.076-0.332,1.767c0.493,0.851,0.991,2.299,1.951,1.962c1.83-0.643,3.932-1.044,4.997-3.153
			c0.375-0.742,0.638-1.39,0.382-2.091C266.283,84.736,265.427,84.789,264.522,84.562z M265.7,70.042
			c-1.285-0.034-2.522-0.273-3.293,0.962c-0.485,0.777-0.604,1.871-0.084,2.364c1.158,1.096,1.953,3.492,4.434,1.362
			c0.892-0.766,2.528-1.258,2.333-2.407C268.82,70.732,267.573,69.531,265.7,70.042z M272.332,73.239
			c-0.229,1.1,0.072,2.293,1.299,2.803c1.33,0.553,1.861-0.85,2.61-1.546c0.592-0.551,1.099-1.25,1.463-1.974
			c0.42-0.836,0.517-1.787-0.13-2.597c-0.413-0.517-0.851-1.032-1.675-0.921C273.847,69.279,272.337,70.962,272.332,73.239z
			 M185.996,119.631c0.066-1.096-0.266-2.686-1.58-1.978c-1.675,0.903-4.684-0.004-4.917,2.779
			c-0.086,1.037,0.398,2.997,2.204,3.183C183.48,123.798,186.019,121.368,185.996,119.631z M161.979,105.938
			c0.49,1.076,1.062,2.518,1.793,3.871c0.471,0.87,1.399,1.461,2.346,0.996c0.837-0.411,1.255-1.478,0.919-2.358
			c-0.469-1.229-0.65-2.528-1.166-3.763c-0.47-1.128-0.875-1.676-2.059-1.45C162.554,103.473,161.949,104.26,161.979,105.938z
			 M140.014,117.766c0-0.34,0.101-0.721-0.017-1.015c-0.629-1.563-1.421-3.21-3.315-3.233c-1.436-0.018-2.016,1.442-2.232,2.66
			c-0.33,1.855,1.21,2.398,2.479,3.214c0.778,0.5,1.472,0.916,2.3,0.593C140.228,119.594,140.024,118.607,140.014,117.766z
			 M175.272,89.942c-0.021-1.875-0.812-3.002-1.943-3.063c-1.409-0.075-3.032,1.95-3.204,3.595c-0.231,2.22,1.6,2.407,2.735,2.415
			C174.667,92.902,175.027,91.165,175.272,89.942z M166.053,97.638c-0.049,1.09,2.248,3.633,3.318,3.503
			c1.087-0.132,2.07-0.878,1.746-2.01c-0.417-1.46,0.041-3.806-2.161-3.948C167.835,95.111,166.213,95.879,166.053,97.638z
			 M141.508,120.621c0.246,1.056,0.973,2.506,2.427,3.461c0.534,0.351,1.069-0.075,1.553-0.502c1.644-1.449,0.021-2.53-0.358-3.752
			c-0.074-0.236-0.069-0.565-0.228-0.692c-0.705-0.565-0.793-1.938-2.196-1.607C141.249,117.872,141.611,118.997,141.508,120.621z
			 M168.657,123.603c-0.014-2.075-1.457-2.91-2.744-2.873c-1.182,0.033-2.884,0.652-2.874,2.448
			c0.015,2.555,2.388,1.918,3.755,2.288C167.563,125.674,168.946,124.884,168.657,123.603z M273.375,48.518
			c-0.509,1.523,1.082,2.426,1.854,2.282c1.676-0.312,2.57-1.803,2.732-3.615c0.188-2.085-1.638-1.889-2.562-1.827
			C273.853,45.461,273.16,46.748,273.375,48.518z M152.752,121.335c-0.207-0.953-0.569-2.542-2.202-2.696
			c-1.353-0.128-1.854,1.062-1.868,2.429c-0.018,1.703,0.891,2.841,2.363,3.003C152.18,124.196,152.894,123.105,152.752,121.335z
			 M175.772,122.635c0.215-1.721-0.919-1.966-2.138-2.029c-1.321-0.07-1.761,1.058-1.667,1.92c0.095,0.883,0.152,2.336,1.792,2.148
			C175.002,124.532,176.062,124.192,175.772,122.635z M7.58,133.875c-0.823-0.25-0.949,0.375-0.888,1.151
			c0.048,0.603-0.267,1.31,0.852,1.436c1.371,0.154,1.202-0.89,1.377-1.563C9.143,134.044,8.477,133.879,7.58,133.875z
			 M299.915,56.224c0.161,0.464,0.461,1.035,1.286,1.01c0.786-0.023,1.242-0.469,1.258-1.255c0.02-1.048-0.986-1.067-1.566-1.187
			C300.339,54.678,299.929,55.32,299.915,56.224z M375.579,107.439c-0.139-0.151-0.258-0.28-0.377-0.409
			c-0.059,0.215-0.171,0.435-0.158,0.645c0.01,0.149,0.189,0.287,0.293,0.431C375.413,107.896,375.489,107.686,375.579,107.439z"/>
		<path style="fill-rule:evenodd;clip-rule:evenodd;fill:#7B491E;" d="M93.309,61.84c0.595,0.002,1.198,0.058,1.786-0.009
			c1.734-0.196,2.36-1.473,1.729-3.128c-0.258-0.677-0.503-1.768-0.16-2.194c1.607-2.004,1.45-5.143,4.225-6.39
			c1.833-0.824,2.48-2.84,3.601-4.295c1.456-1.889,3.204-3.07,5.238-4.007c1.776-0.817,3.546,0.198,3.145,1.977
			c-0.854,3.79-0.175,7.584-0.442,11.363c-0.035,0.499-0.089,0.999-0.177,1.491c-0.301,1.683,0.85,3.317,2.45,3.104
			c1.784-0.237,3.708-0.842,4.223-2.799c0.51-1.939,1.722-2.109,3.331-2.299c2.962-0.351,5.534,1.012,8.252,1.671
			c1.255,0.305,1.967,0.271,3.238-0.4c1.809-0.955,3.451-2.898,6.421-1.451c2.134,1.039,5.18,0.205,7.819,0.209
			c0.543,0.001,0.545-0.404,0.746-0.781c1.331-2.506,3.477-3.297,6.232-2.417c0.314,0.101,0.689,0.201,0.991,0.125
			c3.787-0.954,5.249,2.161,7.372,4.149c1.462,1.37,1.24,2.927-0.271,3.63c-3.854,1.792-6.123,5.548-9.832,7.505
			c-1.016,0.536-1.908,0.564-2.875,0.546c-1.906-0.038-3.303,0.649-4.305,2.319c-0.779,1.298-1.924,1.982-3.591,1.822
			c-2.265-0.217-4.263,1.403-6.632,1.019c-3.369-0.546-6.667-0.205-9.945,0.912c-1.025,0.349-1.718,0.902-2.141,1.629
			c-2.899,4.985-7.117,5.994-11.564,2.358c-1.525-1.247-2.52-1.043-3.854-0.087c-1.187,0.851-2.162,1.954-3.232,2.913
			c-2.32,2.077-4.587,3.568-7.833,2.517c-0.333-0.107-0.779,0.182-1.179,0.222c-1.969,0.199-3.909,0.776-5.817-0.576
			c-0.877-0.62-2.09-0.392-2.943,0.62c-1.509,1.79-4.48,2.06-6.348,0.299c-0.631-0.596-1.451-0.983-2.404-1.294
			c-2.658-0.864-5.083-2.317-7.157-4.302c-1.543-1.478-3.46-2.258-5.631-2.163c-2.568,0.113-4.593-0.29-5.46-3.285
			c-0.619-2.137-2.287-2.519-4.725-1.42c-1.679,0.757-2.81,0.627-4.021-0.976c-1.623-2.148-4.547-2.097-6.772-3.321
			c-1.903-1.048-3.232-2.37-4.706-3.965c-2.239-2.423-4.093-5.183-6.469-7.439c-1.24-1.177-1.96-3.383-3.021-3.702
			c-2.344-0.704-3.581-2.716-5.699-3.619c-2.729-1.163-3.199-4.454-1.304-6.791c1.287-1.587,2.657-3.113,4.065-4.595
			c1.565-1.646,4.975-0.438,6.032,2.335c0.678,1.78,1.457,2.8,3.522,2.571c1.559-0.173,2.722,1.085,4.131,1.56
			c3.059,1.03,5.783,0.205,8.665-0.69c2.774-0.861,5.571-0.063,8.243,0.873c1.258,0.441,1.675,1.515,1.534,2.788
			c-0.074,0.667-1.141,1.592-0.112,1.912c1.094,0.34,2.816,0.824,3.508-0.482c1.608-3.035,4.606-4.39,7.029-6.44
			c0.592-0.5,1.26-1.128,0.666-1.931c-0.743-1.003-1.614-2.233-3.096-1.617c-1.147,0.477-2.142,0.844-2.575-0.608
			c-0.404-1.357-0.893-2.761,0.771-3.941c2.392-1.697,5.117-2.578,7.708-3.808c3.302-1.566,6.753-3.006,9.073-6.243
			c2.447-3.415,4.861-6.952,8.639-9.167c0.397-0.233,0.758-0.378,1.168-0.327c2.126,0.268,4.161-0.392,6.242-0.584
			c2.008-0.186,3.428,1.409,2.218,2.751c-2.264,2.512-2.926,5.972-5.415,8.279c-1.582,1.466-3.13,2.804-5.459,3.02
			c-1.351,0.125-3.569,4.797-3.22,6.897c0.509,3.061-0.768,5.207-2.782,7.304c-1.156,1.204-2.038,2.791-3.466,3.626
			c-2.325,1.362-2.34,3.823-2.834,5.844c-0.329,1.347-1.334,2.404-1.272,3.97c0.063,1.617,0.472,2.85,1.75,3.663
			c2.328,1.479,4.478,3.57,7.648,2.729C88.564,60.137,90.765,62.22,93.309,61.84z"/>
		<path style="fill-rule:evenodd;clip-rule:evenodd;fill:#7B491E;" d="M380.117,63.63c0.729,1.545-0.495,3.089-1.157,4.229
			c-2.2,3.787-2.695,8.458-6.579,11.487c-1.393,1.085-2.394,3.729-1.611,6.358c0.682,2.291-0.146,4.37-2.272,6.005
			c-2.026,1.557-3.741,3.539-5.476,5.44c-0.445,0.488-1.109,1.316-0.721,2.034c1.514,2.794-0.376,4.632-1.863,6.42
			c-0.923,1.108-1.554,2.19-1.11,3.473c0.509,1.471,1.967,1.206,3.242,1.339c2.093,0.218,3.833-0.974,5.857-1.151
			c3.433-0.302,6.812,0.331,10.22,0.11c1.949-0.126,3.812-0.697,5.894-0.108c2.686,0.759,3.794,2.575,2.194,4.91
			c-1.368,1.998-2.992,3.939-4.317,5.841c-1.896,2.721-4.337,4.34-6.809,6.113c-0.678,0.486-0.476,0.949-0.605,1.461
			c-1.189,4.654-4.521,7.156-9.371,6.758c-2.732-0.225-4.871,1.523-7.422,1.812c-1.808,0.204-3.52,0.717-5.306-0.488
			c-0.982-0.663-2.322-0.492-3.48,0.481c-2.641,2.221-4.307,1.669-5.964-1.345c-1.426-2.595-2.553-5.738-6.677-5.107
			c-1.092,0.167-2.183-0.917-2.806-1.914c-1.685-2.695-4.387-3.778-7.173-3.506c-3.896,0.382-6.971-2.098-10.66-2.298
			c-1.554-0.084-2.623-4.799-1.684-6.463c2.191-3.884,4.593-4.585,8.747-2.661c3.042,1.409,6.021,1.174,8.84-0.652
			c1.181-0.765,2.287-1.644,3.467-2.409c2.193-1.42,4.423-2.212,6.873-0.457c1.006,0.72,2.396,1.109,3.158-0.041
			c0.644-0.972,0.761-2.141-0.214-3.521c-1.025-1.452-2.024-2.87-3.256-4.167c-1.407-1.482-0.939-3.456,0.878-4.541
			c3.98-2.377,7.905-4.853,11.936-7.141c1.21-0.687,1.357-1.55,1.215-2.659c-0.419-3.272,0.203-6.1,3.231-7.976
			c0.278-0.173,0.596-0.443,0.688-0.734c1.354-4.271,5.396-5.974,8.283-8.783c0.861-0.838,1.838-1.522,2.204-2.957
			c0.978-3.825,4.817-4.726,7.599-6.645c0.697-0.481,1.885,0.223,1.998,1.465C380.162,62.233,380.117,62.833,380.117,63.63z"/>
		<path style="fill-rule:evenodd;clip-rule:evenodd;fill:#7B491E;" d="M82.771,144.152c-2.268-1.908-3.63,0.563-5.379,1.571
			c-1.876,1.081-3.811,2.171-6.008,1.881c-1.495-0.197-2.458,0.802-3.497,1.264c-2.839,1.263-5.343,0.59-8.182,0.169
			c-3.203-0.476-6.394-1.548-9.913-0.569c-4.547,1.265-8.83-0.121-12.037-3.759c-2.47-2.802-5.368-3.984-9.015-3.147
			c-1.99,0.456-3.219-0.157-4.855-1.6c-2.153-1.898-3.6-4.39-5.891-6.109c-1.428-1.071-1.211-3.098,0.332-4.033
			c1.268-0.77,2.625-1.391,3.914-2.126c1.126-0.643,2.267-0.865,3.186,0.188c0.888,1.016,1.964,1.473,3.229,1.658
			c2.991,0.439,5.332,2.261,7.807,3.755c1.66,1.002,3.252,1.407,5.255,1.187c2.02-0.223,4.123,0.334,5.794,1.703
			c1.292,1.059,2.566,1.137,3.902,0.221c1.412-0.969,3.188-0.848,4.385-0.328c3.372,1.464,7.231,1.988,10.082,0.64
			c4.734-2.241,9.369-0.928,13.995-1.176c3.547-0.19,6.679-0.637,9.544-2.874c2.176-1.699,4.708-0.125,5.764,2.33
			c1.319,3.068-0.101,3.738-2.454,4.579c-0.961,0.345-1.562,1.603-2.433,2.314C88.208,143.598,85.566,143.612,82.771,144.152z"/>
		<path style="fill-rule:evenodd;clip-rule:evenodd;fill:#7B491E;" d="M76.677,101.117c-0.074,0.817,0.169,1.654-0.454,2.418
			c-0.777,0.951-0.503,1.968-0.038,3.025c1.125,2.551,0.098,5.289-2.448,5.753c-3.754,0.684-4.807,3.804-6.14,6.492
			c-0.632,1.275-1.021,2.403-2.29,3.259c-4.184,2.823-7.809,6.293-11.175,10.052c-0.903,1.008-2.002,2.423-3.55,1.378
			c-1.557-1.052-1.412-2.534-0.108-3.873c0.102-0.105,0.161-0.336,0.124-0.479c-0.968-3.775,2.086-4.874,4.366-6.364
			c1.07-0.699,1.771-1.298,1.849-2.682c0.073-1.296,1.292-2.085,2.003-3.091c2.093-2.963,3.2-6.454,5.123-9.484
			c2.566-4.045,4.869-8.275,7.951-11.975c0.697-0.836,1.867-0.878,2.399,0.03C75.302,97.305,76.886,98.844,76.677,101.117z"/>
		<path style="fill-rule:evenodd;clip-rule:evenodd;fill:#7B491E;" d="M263.145,50.512c-0.731-2.069,0.267-3.28,2.353-4.029
			c1.071-0.386,2.009-4.601,1.324-5.709c-0.934-1.508-1.013-2.922,0.042-4.395c0.225-0.313,0.229-0.776,0.362-1.162
			c0.222-0.643-0.53-1.607,0.553-1.942c0.92-0.286,1.622,0.19,2.177,0.908c0.052,0.067,0.108,0.147,0.18,0.177
			c3.407,1.421,5.137,3.234,1.761,6.549c-0.338,0.331-0.332,1.481,0.271,2.132c1.297,1.402,0.194,2.822-0.638,3.355
			c-2.976,1.909-4.278,4.646-4.885,7.927c-0.163,0.88-1.174,0.817-1.724,1.285c-0.592-0.874-1.332-1.688-1.725-2.644
			C262.927,52.312,263.145,51.46,263.145,50.512z"/>
		<path style="fill-rule:evenodd;clip-rule:evenodd;fill:#7B491E;" d="M274.912,64.22c-0.159-1.762,0.591-2.833,1.624-3.762
			c0.836-0.752,1.147-1.358,0.394-2.56c-1.579-2.518,0.067-6.146,2.917-6.925c1.292-0.354,1.862,0.654,2.614,1.334
			c0.65,0.587,0.938,1.274,0.235,1.958c-0.93,0.903-0.726,2.542-2.313,3.105c-0.68,0.242-0.733,1.27,0.2,1.956
			c1.627,1.195,2.104,2.565,0.211,4.032c-0.375,0.291-0.822,0.626-0.792,1.226c0.121,2.44-1.855,2.839-3.395,2.764
			C274.72,67.255,275.378,65.153,274.912,64.22z"/>
		<path style="fill-rule:evenodd;clip-rule:evenodd;fill:#7B491E;" d="M285.491,92.401c1.268,0.286,2.309-0.242,3.25,0.425
			c1.234,0.876,1.774,2.04,1.449,3.509c-0.341,1.544-1.61,2.16-2.965,2.249c-2.515,0.166-5.038-0.007-7.554,0.481
			c-0.659,0.128-2.161,0.911-2.248-0.99c-0.069-1.5-0.619-3.027,1.115-4.075C280.797,92.635,283.359,92.94,285.491,92.401z"/>
		<path style="fill-rule:evenodd;clip-rule:evenodd;fill:#7B491E;" d="M154.821,122.603c0.736-1.085,1.231-2.25,0.119-3.782
			c-0.467-0.645,0.733-1.448,1.633-1.857c0.85-0.386,1.965-0.697,0.62-2.054c-0.738-0.744-0.678-2.157,0.404-2.908
			c0.702-0.486,0.632-2.047,1.92-1.568c0.855,0.318,2.039,1.289,1.836,1.89c-0.624,1.847,0.078,4.111-1.614,5.588
			c-1.418,1.239-2.261,2.389-0.683,4.197c0.585,0.671,0.803,1.831,0.824,2.776c0.019,0.873-0.367,1.885-1.298,2.264
			c-0.975,0.397-1.91-0.009-2.393-0.904C155.611,125.17,154.762,124.172,154.821,122.603z"/>
		<path style="fill-rule:evenodd;clip-rule:evenodd;fill:#7B491E;" d="M307.197,82.836c2.153-0.686,2.803,1.166,3.351,2.485
			c0.622,1.498-0.251,2.738-1.858,3.276c-1.336,0.447-2.159,1.653-3.557,2.16c-1.451,0.526-2.76,1.054-3.771-0.249
			c-0.907-1.172-0.764-2.841-0.144-4.067C302.394,84.116,304.215,82.467,307.197,82.836z"/>
		<path style="fill-rule:evenodd;clip-rule:evenodd;fill:#7B491E;" d="M272.291,25.009c1.646-0.108,3.2,1.335,4.403,3.179
			c0.892,1.368-0.235,2.465-0.779,3.658c-1.058,2.317-2.031,4.299-4.262,0.878c-0.278-0.427-0.956-0.797-1.474-0.831
			c-2.908-0.191-1.953-2.278-1.933-3.854C268.274,25.961,269.499,25.075,272.291,25.009z"/>
		<path style="fill-rule:evenodd;clip-rule:evenodd;fill:#7B491E;" d="M265.177,96.233c-0.437-1.744,0.858-2.673,2.346-3.074
			c1.353-0.364,2.963-0.666,3.841,1.146c0.437,0.901,0.912,1.759,2.232,0.886c0.927-0.613,1.8,0.263,2.027,0.938
			c0.397,1.181,0.562,2.395,1.41,3.425c0.573,0.697-0.455,1.246-0.647,1.031c-1.341-1.502-3.578,0.249-4.812-1.436
			c-0.591-0.808-0.9,0.079-1.36,0.277C267.956,100.399,265.215,98.751,265.177,96.233z"/>
		<path style="fill-rule:evenodd;clip-rule:evenodd;fill:#7B491E;" d="M241.156,73.165c0.067,1.123-2.998,4.515-4.079,4.513
			c-2.475-0.004-5.091-2.638-5.072-5.256c0.014-1.877,1.591-2.826,2.958-3.31C236.764,68.478,241.06,71.548,241.156,73.165z"/>
		<path style="fill-rule:evenodd;clip-rule:evenodd;fill:#7B491E;" d="M242.191,82.754c0.269,1.708-0.151,3.947-1.924,4.322
			c-2.455,0.519-5.71-2.363-5.736-4.263c-0.032-2.312,2.229-4.605,4.557-4.623C241.36,78.175,242.191,79.338,242.191,82.754z"/>
		<path style="fill-rule:evenodd;clip-rule:evenodd;fill:#7B491E;" d="M264.671,58.633c0.102,0.73-0.025,1.487-0.969,2.079
			c-0.819,0.513-1.229,1.363-1.106,2.472c0.143,1.28-0.61,2.224-1.861,2.163c-1.059-0.052-1.55-0.951-1.72-2.116
			c-0.411-2.826-0.39-5.544,1.087-8.094c0.233-0.4,0.408-1.056,1.024-0.633C262.61,55.521,264.872,55.872,264.671,58.633z"/>
		<path style="fill-rule:evenodd;clip-rule:evenodd;fill:#7B491E;" d="M196.321,114.473c1.408-0.143,2.917,0.135,2.869,1.848
			c-0.042,1.48-0.645,3.034-2.659,3.277c-1.208,0.146-2.384,0.562-3.574,0.856c-1.273,0.315-2.684,0.347-3.29-0.894
			c-0.625-1.277,0.194-2.527,1.356-3.175C192.649,115.481,194.189,114.207,196.321,114.473z"/>
		<path style="fill-rule:evenodd;clip-rule:evenodd;fill:#7B491E;" d="M291.744,93.659c0.028-2.128,1.876-3.723,4.331-3.715
			c1.915,0.007,3.265,0.368,3.418,2.858c0.146,2.397-1.921,3.516-4.729,3.739C292.476,96.724,291.717,95.843,291.744,93.659z"/>
		<path style="fill-rule:evenodd;clip-rule:evenodd;fill:#7B491E;" d="M254.803,91.986c2.579,0.079,5.016,2.611,4.744,5.01
			c-0.175,1.553-0.788,2.402-2.657,1.867c-1.354-0.388-2.672-0.79-3.891-1.478c-1.376-0.776-1.389-2.204-1.011-3.348
			C252.365,92.897,253.257,91.831,254.803,91.986z"/>
		<path style="fill-rule:evenodd;clip-rule:evenodd;fill:#7B491E;" d="M133.884,112.81c0.202,0.992-0.494,1.613-1.203,1.999
			c-2,1.088-6.358-0.415-7.313-2.515c-0.745-1.639,0.576-2.749,1.47-3.681c0.777-0.812,2.004-0.349,2.569,0.646
			c0.706,1.243,1.681,1.682,3.033,1.639C133.727,110.857,133.958,111.718,133.884,112.81z"/>
		<path style="fill-rule:evenodd;clip-rule:evenodd;fill:#7B491E;" d="M254.466,70.658c0.733-1.064,0.311-2.536,0.556-3.905
			c0.156-0.874,0.789-1.667,1.855-1.844c1.141-0.189,1.897,0.333,2.565,1.199c0.842,1.092,0.556,2.523-0.088,3.088
			c-0.801,0.7-0.806,1.32-0.811,2.112c-0.012,1.566-0.794,2.317-2.346,2.286C255.094,73.571,254.393,72.489,254.466,70.658z"/>
		<path style="fill-rule:evenodd;clip-rule:evenodd;fill:#7B491E;" d="M242.702,90.004c-0.482-2.008,1.31-2.509,2.702-3.033
			c0.857-0.323,3.711,3.276,3.705,4.568c-0.009,1.843-1.635,2.46-2.888,2.877C245.005,94.821,242.705,91.832,242.702,90.004z"/>
		<path style="fill-rule:evenodd;clip-rule:evenodd;fill:#7B491E;" d="M267.209,77.169c1.339-0.131,2.763-0.155,2.605,2.239
			c-0.149,2.278-1.627,3.792-3.893,3.925c-2.119,0.123-2.288-1.152-2.271-2.683C263.685,77.817,264.296,77.174,267.209,77.169z"/>
		<path style="fill-rule:evenodd;clip-rule:evenodd;fill:#7B491E;" d="M264.522,84.562c0.904,0.227,1.761,0.174,2.079,1.05
			c0.256,0.701-0.007,1.349-0.382,2.091c-1.065,2.109-3.167,2.511-4.997,3.153c-0.96,0.337-1.458-1.111-1.951-1.962
			c-0.398-0.69-0.343-1.385,0.332-1.767C261.211,86.215,262.878,85.411,264.522,84.562z"/>
		<path style="fill-rule:evenodd;clip-rule:evenodd;fill:#7B491E;" d="M265.7,70.042c1.873-0.512,3.12,0.69,3.39,2.281
			c0.195,1.149-1.441,1.641-2.333,2.407c-2.48,2.13-3.275-0.266-4.434-1.362c-0.521-0.493-0.401-1.587,0.084-2.364
			C263.178,69.77,264.415,70.008,265.7,70.042z"/>
		<path style="fill-rule:evenodd;clip-rule:evenodd;fill:#7B491E;" d="M272.332,73.239c0.005-2.276,1.515-3.96,3.567-4.235
			c0.824-0.11,1.262,0.404,1.675,0.921c0.646,0.81,0.55,1.761,0.13,2.597c-0.364,0.724-0.871,1.423-1.463,1.974
			c-0.749,0.696-1.28,2.099-2.61,1.546C272.404,75.532,272.104,74.339,272.332,73.239z"/>
		<path style="fill-rule:evenodd;clip-rule:evenodd;fill:#7B491E;" d="M185.996,119.631c0.022,1.736-2.516,4.167-4.294,3.984
			c-1.805-0.186-2.29-2.146-2.204-3.183c0.234-2.783,3.242-1.876,4.917-2.779C185.73,116.946,186.062,118.536,185.996,119.631z"/>
		<path style="fill-rule:evenodd;clip-rule:evenodd;fill:#7B491E;" d="M161.979,105.938c-0.03-1.678,0.575-2.465,1.834-2.704
			c1.184-0.226,1.588,0.322,2.059,1.45c0.515,1.234,0.696,2.534,1.166,3.763c0.336,0.881-0.082,1.947-0.919,2.358
			c-0.946,0.465-1.875-0.126-2.346-0.996C163.041,108.456,162.47,107.014,161.979,105.938z"/>
		<path style="fill-rule:evenodd;clip-rule:evenodd;fill:#7B491E;" d="M140.014,117.765c0.01,0.842,0.214,1.829-0.785,2.22
			c-0.828,0.323-1.521-0.093-2.3-0.593c-1.269-0.815-2.809-1.358-2.479-3.214c0.216-1.218,0.796-2.678,2.232-2.66
			c1.895,0.023,2.687,1.67,3.315,3.233C140.115,117.045,140.014,117.426,140.014,117.765z"/>
		<path style="fill-rule:evenodd;clip-rule:evenodd;fill:#7B491E;" d="M175.272,89.942c-0.245,1.223-0.606,2.96-2.412,2.946
			c-1.135-0.008-2.966-0.195-2.735-2.415c0.171-1.645,1.794-3.67,3.204-3.595C174.46,86.94,175.251,88.067,175.272,89.942z"/>
		<path style="fill-rule:evenodd;clip-rule:evenodd;fill:#7B491E;" d="M166.053,97.638c0.16-1.759,1.782-2.527,2.904-2.455
			c2.201,0.143,1.743,2.488,2.161,3.948c0.324,1.132-0.659,1.878-1.746,2.01C168.301,101.271,166.004,98.728,166.053,97.638z"/>
		<path style="fill-rule:evenodd;clip-rule:evenodd;fill:#7B491E;" d="M141.508,120.621c0.103-1.624-0.259-2.749,1.197-3.093
			c1.403-0.331,1.492,1.042,2.196,1.607c0.159,0.127,0.154,0.456,0.228,0.692c0.379,1.222,2.002,2.303,0.358,3.752
			c-0.484,0.427-1.019,0.853-1.553,0.502C142.481,123.126,141.754,121.676,141.508,120.621z"/>
		<path style="fill-rule:evenodd;clip-rule:evenodd;fill:#7B491E;" d="M168.657,123.603c0.289,1.281-1.094,2.071-1.862,1.863
			c-1.367-0.37-3.74,0.267-3.755-2.288c-0.01-1.796,1.692-2.415,2.874-2.448C167.2,120.693,168.643,121.528,168.657,123.603z"/>
		<path style="fill-rule:evenodd;clip-rule:evenodd;fill:#7B491E;" d="M273.375,48.518c-0.215-1.771,0.478-3.057,2.024-3.16
			c0.924-0.062,2.749-0.258,2.562,1.827c-0.162,1.812-1.057,3.303-2.732,3.615C274.457,50.944,272.866,50.041,273.375,48.518z"/>
		<path style="fill-rule:evenodd;clip-rule:evenodd;fill:#7B491E;" d="M152.752,121.335c0.142,1.77-0.572,2.86-1.707,2.735
			c-1.472-0.162-2.38-1.3-2.363-3.003c0.014-1.367,0.515-2.557,1.868-2.429C152.183,118.793,152.545,120.382,152.752,121.335z"/>
		<path style="fill-rule:evenodd;clip-rule:evenodd;fill:#7B491E;" d="M175.772,122.635c0.29,1.557-0.77,1.896-2.013,2.039
			c-1.64,0.188-1.697-1.266-1.792-2.148c-0.094-0.862,0.347-1.99,1.667-1.92C174.853,120.669,175.987,120.915,175.772,122.635z"/>
		<path style="fill-rule:evenodd;clip-rule:evenodd;fill:#7B491E;" d="M7.58,133.875c0.896,0.004,1.562,0.169,1.341,1.023
			c-0.175,0.674-0.006,1.718-1.377,1.563c-1.119-0.126-0.804-0.833-0.852-1.436C6.631,134.25,6.757,133.625,7.58,133.875z"/>
		<path style="fill-rule:evenodd;clip-rule:evenodd;fill:#7B491E;" d="M299.915,56.224c0.014-0.904,0.424-1.546,0.978-1.432
			c0.58,0.119,1.586,0.138,1.566,1.187c-0.016,0.786-0.472,1.232-1.258,1.255C300.376,57.259,300.076,56.688,299.915,56.224z"/>
		<path style="fill-rule:evenodd;clip-rule:evenodd;fill:#7B491E;" d="M375.579,107.439c-0.09,0.247-0.166,0.457-0.242,0.666
			c-0.104-0.144-0.283-0.281-0.293-0.431c-0.013-0.21,0.1-0.43,0.158-0.645C375.321,107.159,375.44,107.288,375.579,107.439z"/>
	</g>
</g>
</svg>
