<?xml version="1.0" encoding="iso-8859-1"?>
<!-- Generator: Adobe Illustrator 16.0.0, SVG Export Plug-In . SVG Version: 6.00 Build 0)  -->
<!DOCTYPE svg PUBLIC "-//W3C//DTD SVG 1.1//EN" "http://www.w3.org/Graphics/SVG/1.1/DTD/svg11.dtd">
<svg version="1.1" id="Layer_1" xmlns="http://www.w3.org/2000/svg" xmlns:xlink="http://www.w3.org/1999/xlink" x="0px" y="0px"
	 width="401.086px" height="152.532px" viewBox="0 0 401.086 152.532" style="enable-background:new 0 0 401.086 152.532;"
	 xml:space="preserve">
<g>
	<g>
		<path style="fill:none;" d="M200.543,151.99c-65.999,0-131.998-0.008-197.996,0.041c-1.67,0.002-2.048-0.375-2.046-2.046
			c0.052-49.221,0.051-98.441,0-147.662C0.499,0.798,0.799,0.499,2.324,0.5c132.146,0.045,264.291,0.045,396.438,0
			c1.524-0.001,1.825,0.298,1.824,1.823c-0.052,49.295-0.052,98.589,0,147.884c0.001,1.525-0.3,1.825-1.824,1.824
			C332.688,151.983,266.615,151.99,200.543,151.99z M200.517,46.896c0.72,1.425,1.854,2.593,2.355,4.177
			c0.508,1.61,1.512,1.705,2.893,0.629c0.878-0.683,0.983-2.113,2.341-2.424c-0.034,3.336,0.168,6.57,0.969,9.668
			c0.605,2.343,0.966,5.138,3.762,6.136c1.354,0.483,2.637,1.024,3.938,1.636c2.246,1.056,3.833,3.249,6.351,3.691
			c2.453,0.431,4.401,1.709,6.212,3.261c1.942,1.665,3.992,3.163,6.22,4.416c1.621,0.913,2.516,2.636,2.728,4.126
			c0.568,3.988,0.024,8.004-1.034,11.912c-0.231,0.854-0.729,1.296-1.736,1.337c-1.439,0.058-1.311,1.391-0.611,1.767
			c2.351,1.264,1.609,3.332,1.722,5.206c0.19,3.173,0.588,6.233,3.479,8.307c0.853,0.611,1.584,1.428,2.26,2.242
			c1.565,1.889,2.348,4.123,5.629,4.604c2.791,0.408,5.709,2.038,8.076,4.163c2.347,2.106,5.438,3.369,6.202,7.01
			c0.5,2.384,1.152,4.739,1.543,7.156c0.291,1.802,1.255,3.67,0.974,5.35c-0.436,2.607,1.958,2.991,2.635,4.502
			c0.876,1.954,1.632,3.519,4.005,3.547c1.336,0.016,2.673,0.031,4.008-0.005c1.669-0.045,2.632-0.6,2.696-2.606
			c0.054-1.657-0.082-3.586,1.966-4.671c0.828-0.439,1.24-1.466,0.758-2.835c-0.683-1.935-1.756-3.852-1.472-6.055
			c0.231-1.797-0.385-3.199-1.678-4.529c-1.085-1.115-2.006-2.515-2.602-3.953c-1.369-3.309-3.774-5.386-6.863-7.037
			c-2.481-1.326-5.385-2.432-5.554-6.101c-0.052-1.124-1.258-2.435-2.205-2.548c-3.931-0.475-5.929-3.278-8.066-6.007
			c-1.835-2.342-2.941-4.936-2.885-7.971c0.016-0.866,0.15-1.438,1.064-1.912c1.572-0.815,2.144-2.086,1.044-3.8
			c-1.136-1.771-1.395-3.752-1.22-5.838c0.222-2.641-0.025-5.265-0.904-7.77c-0.503-1.431-0.722-3.229-2.798-3.418
			c-3.128-0.284-3.98-1.025-4.745-4.201c-0.229-0.955-0.604-2.035-1.484-2.296c-1.947-0.58-3.671-1.72-5.528-2.274
			c-1.55-0.462-2.575-1.126-3.013-2.44c-0.74-2.227-2.164-3.182-4.417-3.037c-1.041,0.067-1.839-0.078-2.24-1.256
			c-0.172-0.504-0.765-1.171-1.22-1.217c-1.643-0.164-1.244-1.304-1.245-2.247c-0.005-3.378,0.305-6.8-1.782-9.931
			c0.541,0,0.914-0.118,1.101,0.019c1.271,0.927,2.084-0.052,2.838-0.745c0.925-0.851-0.084-1.656-0.495-2.189
			c-0.844-1.094-1.969-1.972-2.987-2.928c-1.513-1.421-3.384-2.471-4.051-4.692c-1.188-3.953-2.061-8.101-5.538-10.896
			c-0.712-0.572-1.281-1.3-1.507-2.114c-0.412-1.49-1.58-2.017-2.664-2.876c-2.227-1.766-5.678-2.284-6.325-5.789
			c-0.05-0.27-0.255-0.522-0.423-0.758c-1.513-2.127-4.306-2.068-5.71,0.063c-0.509,0.772-0.789,1.446-2.298,0.801
			c-1.607-0.687-2.92-1.133-3.6-2.878c-0.279-0.716-1.209-1.122-2.015-1.128c-5.418-0.042-10.839-0.096-16.256,0.014
			c-2.012,0.041-2.613,1.293-1.738,3.095c0.688,1.417,1.49,2.781,2.154,4.209c1.394,2.996,2.573,6.246,6.282,7.067
			c2.602,0.576,5.271,0.979,7.929,1.125c2.407,0.133,4.592,1.071,6.923,1.417c3.203,0.475,5.943,2.305,9.034,3.162
			c1.1,0.305,2.247,0.849,2.917,2.173c1.228,2.422,1.267,5.12,2.147,7.617c1.132,3.208,1.189,6.606,1.388,10.106
			c-0.704-0.36-1.272-0.312-1.402-1.158c-0.453-2.974-1.581-3.57-4.458-2.287c-1.161,0.518-1.539,0.336-1.761-0.872
			c-0.505-2.75-1.082-5.494-3.537-7.418c1.47-0.542,2.871,0.253,4.051-0.526c1.152-0.762,1.871-2.003,2.074-3.232
			c0.262-1.577-2.629-3.349-4.752-3.135c-2.192,0.22-2.541,1.223-1.908,5.677c-0.425-0.191-0.886-0.264-1.138-0.533
			c-4.226-4.516-9.565-6.1-15.571-6.044c-4.679,0.043-9.36-0.06-14.038,0.053c-1.31,0.031-2.194-0.463-2.777-1.406
			c-1.214-1.964-2.362-4.011-2.023-6.466c0.514-3.724-0.921-7.191-1.363-10.788c-0.071-0.58-0.433-0.971-1.029-0.962
			c-1.396,0.021-2.746-0.365-4.108-0.539c-3.541-0.451-7.053,0.38-10.604-0.14c-2.495-0.366-3.843,2.132-2.675,4.388
			c0.157,0.304,0.132,0.708,0.17,1.068c0.185,1.739,0.293,3.49,0.558,5.216c0.7,4.559,2.393,8.866,3.484,13.328
			c0.287,1.172,1.062,2.225,2.464,2.016c1.975-0.294,2.645,0.575,2.952,2.39c0.117,0.693,0.267,1.404,0.352,2.122
			c0.412,3.508,2.311,4.971,5.823,4.425c0.935-0.146,1.29,0.369,1.638,1.032c1.071,2.038,2.141,4.078,3.227,6.108
			c0.744,1.39,1.973,1.821,3.479,1.781c1.453-0.038,1.735-1.073,2.026-2.166c0.482-1.809,0.528-3.658-0.003-5.416
			c-0.295-0.978,0.053-1.705,0.589-2.108c0.58-0.436,1.326-0.034,1.946,0.533c1.858,1.697,3.822,1.613,5.517-0.172
			c0.691-0.728,1.573-0.664,2.25-0.346c1.386,0.652,2.702,1.579,2.824,3.296c0.259,3.674,2.034,6.855,3.337,10.156
			c1.787,4.523,3.924,8.872,4.927,13.713c0.383,1.851,1.187,4.191,2.883,5.201c2.059,1.224,2.871,3.315,4.459,4.823
			c2.221,2.107,4.347,3.984,7.682,4.166c3.049,0.166,5.876,0.915,7.338,4.32c1.179,2.748,2.74,5.433,6.238,6.036
			c0.551,0.095,1.171,0.698,0.792,1.874c-0.571,1.772-1.365,3.475-1.863,5.23c-1.16,4.092-0.407,8.304,0.039,12.44
			c0.131,1.213,0.825,2.291,2.182,3.14c2.001,1.252,3.972,2.846,4.425,5.565c0.208,1.25,0.725,2.495,1.333,3.617
			c0.678,1.249,1.509,3.229,2.468,3.35c2.32,0.292,4.086,1.777,6.276,2.185c1.673,0.311,2.704,1.345,2.774,3.113
			c0.024,0.624,0.144,1.112,0.604,1.578c2.744,2.778,2.396,6.55,2.883,9.95c0.461,3.226,1.2,4.351,4.594,4.346
			c5.388-0.008,10.777,0.164,16.157-0.399c0.941-0.099,1.596-0.449,1.967-1.161c0.438-0.837-0.343-1.327-0.862-1.831
			c-2.456-2.386-5.265-4.354-7.795-6.68c-3.147-2.892-4.626-5.993-4.669-10.174c-0.036-3.546-1.593-6.399-5.132-7.79
			c-1.095-0.431-2.274-0.707-3.039-1.64c1.418-0.407,3.204-0.517,2.841-2.691c-0.282-1.685-1.781-1.755-2.979-1.42
			c-2.133,0.596-1.389,2.31-1.031,4.16c-2.983-2.506-7.84-1.797-8.825-6.65c-0.737-3.633-4.03-6.695-2.319-11.38
			c0.723,1.653,1.982,2.272,2.997,3.179c0.521,0.466,0.997,0.526,1.573,0.104c1.007-0.737,1.531-1.822,1.606-2.953
			c0.034-0.509-0.363-1.677-1.204-1.587c-1.532,0.163-3.402-1.039-4.56,0.988c-0.262,0.459-0.868,0.399-1.138,0.055
			c-0.282-0.363,0.289-0.495,0.442-0.732c0.524-0.816,1.159-1.504,1.3-2.652c0.342-2.779,1.219-5.491,1.574-8.27
			c0.211-1.65,0.964-3.81-0.409-4.981c-2.708-2.312-6.334-3.029-9.513-4.548c-2.126-1.016-4.296-2.045-5.558-4.192
			c-1.109-1.888-2.699-3.021-4.673-3.988c-2.187-1.07-4.728-1.201-6.765-2.702c2.015-0.692,2.384-1.116,2.096-2.35
			c-0.355-1.529-2.434-2.538-3.932-1.902c-0.873,0.371-1.639,0.786-2.604-0.034c-2.46-2.089-3.204-5.938-1.709-8.902
			c1.551-3.078,3.354-6.106,2.934-9.786L200.517,46.896z M51.538,12.088c-1.273-2.509-3.314-3.884-5.915-3.448
			c-2.585,0.434-5.136,0.24-7.699,0.363c-0.788,0.038-1.77-0.25-2.125,0.728c-0.389,1.069,0.365,1.701,1.117,2.395
			c1.819,1.677,4.398,2.624,5.379,5.101c1.184,2.99,2.13,6.073,3.261,9.084c1.457,3.881,2.862,7.783,4.864,11.44
			c1.578,2.883,2.884,5.888,4.091,8.96c1.604,4.083,2.669,8.317,4.032,12.463c0.872,2.652,2.086,5.209,2.885,7.832
			c1.176,3.861,3.103,7.359,4.487,11.104c1.037,2.803,2.623,5.41,3.899,8.118c2.062,4.378,4.441,8.689,7.405,12.307
			c5.423,6.617,11.145,13.309,20.069,15.592c3.181,0.813,6.409,2.146,9.594,2.086c6.04-0.115,11.412,2.452,17.167,3.388
			c3.788,0.615,7.342,2.403,11.184,3.075c2.231,0.39,4.502,0.811,6.401,2.245c6.917,5.229,11.966,11.92,15.359,19.853
			c0.736,1.721,1.265,2.959,3.592,2.904c1.12-0.027,2.427-0.059,3.663,0.215c1.105,0.243,2.551,0.589,3.466-0.717
			c0.845-1.205-0.089-2.226-0.42-3.272c-1.217-3.845-3.118-7.537-2.396-11.78c0.085-0.505,0.12-1.067-0.01-1.552
			c-0.445-1.657-0.286-3.845-3.074-3.59c-0.413,0.037-1.341-0.218-1.305-0.883c0.098-1.777-1.049-3.129-1.427-4.744
			c-0.618-2.643-0.69-5.66-3.859-6.936c-0.525-0.211-0.59-0.785-0.565-1.339c0.04-0.878-0.317-1.751-0.349-2.561
			c-0.096-2.463-1.865-1.841-3.039-1.656c-1.356,0.214-1.623,1.292-1.119,2.653c0.265,0.715,0.046,1.608,0.046,2.417
			c-1.613-0.096-1.541-1.426-1.727-2.366c-0.306-1.54-1.044-2.792-1.936-4.026c-1.251-1.729-2.814-0.957-4.131-0.381
			c-1.202,0.526-1.033,1.641-0.339,2.693c0.262,0.397,0.364,1.111-0.078,1.434c-0.459,0.336-1.122,0.337-1.618-0.121
			c-0.49-0.452-1.155-0.852-1.39-1.42c-1.024-2.479-3.318-4.135-4.178-6.74c-0.465-1.409-1.622-2.477-3.19-2.629
			c-1.291-0.126-2.338-0.897-2.68-1.786c-0.84-2.184-2.523-1.3-3.87-1.32c-0.806-0.013-1.241,0.814-0.904,1.713
			c0.191,0.509,0.457,0.99,0.825,1.772c-0.663-0.289-1.235-0.356-1.336-0.61c-1.375-3.457-4.55-5.562-6.446-8.641
			c-0.779-1.264-2.165-2.232-3.807-0.904c-0.755,0.61-1.187,0.472-1.707-0.376c-0.3-0.488-1.075-1.002-1.606-0.972
			c-1.437,0.081-1.659-0.818-1.979-1.844c-0.828-2.651-1.745-5.275-2.58-7.925c-1.02-3.234-2.699-6.14-4.227-9.144
			c-1.868-3.671-3.151-7.637-4.763-11.443c-1.312-3.098-2.538-3.518-5.552-1.997c-0.761,0.384-1.17,0.044-1.756-0.365
			c-0.749-0.523-1.667-0.591-2.417,0.1c-0.575,0.53-1.633,1.128-1.1,1.942c0.842,1.287,0.689,2.782,1.298,4.097
			c1.349,2.919,2.538,5.911,3.859,8.843c0.723,1.602,1.44,3.058,0.184,4.819c-0.42,0.59-0.206,1.765-0.024,2.617
			c0.208,0.973,0.733,1.856,0.852,2.893c0.538,4.731,1.652,9.34,3.211,13.833c0.299,0.861,0.745,1.948-0.073,2.299
			c-1.176,0.504-1.037-1.033-1.545-1.617c-0.135-0.155-0.187-0.39-0.26-0.593c-1.545-4.271-0.974-9.243-4.302-12.933
			c-0.2-0.223-0.177-0.704-0.155-1.059c0.246-3.983-0.553-7.799-1.793-11.552c-1.236-3.741-2.48-7.495-4.505-10.886
			c-0.746-1.25-1.791-3.091-3.729-1.703c-1.52,1.088-1.686,0.011-1.946-0.917c-0.175-0.622,0.102-1.378-0.1-1.981
			c-0.429-1.286-0.383-3.203-2.494-2.941c-2.558,0.317-3.012-1.021-2.823-3.102c0.093-1.024,0.151-2.056,0.139-3.083
			c-0.015-1.279,0.073-2.905-1.537-3.117c-1.978-0.26-2.064-1.484-2.161-2.923c-0.126-1.881-0.381-3.736-0.841-5.577
			c-0.558-2.235-1.033-4.501-1.361-6.78c-0.615-4.282-2.018-8.362-3.044-12.537c-0.219-0.892-0.765-1.52-1.794-1.695
			c-0.899-0.153-1.531-0.589-1.445-1.749c0.144-1.944-0.957-2.674-2.816-2.692c-3.604-0.036-3.601-0.076-4.477,3.079
			C51.987,11.744,51.814,11.828,51.538,12.088z M146.972,147.535c1.773,0,3.035,0.009,4.297-0.003
			c0.787-0.007,1.68,0.211,2.033-0.85c0.442-1.327-0.743-1.753-1.452-2.069c-2.536-1.132-4.635-2.967-6.632-4.699
			c-4.534-3.933-9.167-7.685-13.986-11.272c-5.588-4.161-11.661-5.821-18.472-5.647c-1.773,0.046-3.495,0.468-5.242,0.466
			c-6.931-0.011-13.842-0.703-20.399-2.892c-4.826-1.61-9.725-3.591-11.933-9.007c-1.259-3.089-2.749-6.094-4.292-9.054
			c-2.057-3.943-3.965-7.935-5.371-12.164c-1.173-3.53-2.318-7.107-3.711-10.514c-1.026-2.509-2.433-5.056-4.086-7.403
			c-1.735-2.463-3.331-5.069-4.472-8.012c-1.058-2.726-2.447-5.441-3.867-8.069c-1.541-2.85-1.76-6.173-3.389-9.002
			c-1.041-1.808-1.63-3.908-1.718-5.942c-0.104-2.371-0.688-4.579-1.401-6.758c-1.1-3.361-3.93-5.608-5.793-8.486
			c-1.585-2.448-4.354-3.729-6.002-6.049c-2.281-3.209-4.997-5.989-7.845-8.658c-1.072-1.005-2.377-1.502-3.933-1.593
			c-3.557-0.207-7.05,0.634-10.589,0.469c-0.784-0.037-1.398,0.293-1.612,0.9c-0.207,0.586,0.137,1.192,0.507,1.812
			c1.186,1.986,3.571,3.658,1.895,6.558c-0.307,0.532-0.091,1.473,0.1,2.166c0.471,1.707,1.166,3.355,1.588,5.073
			c0.43,1.752,1.354,2.856,3.168,3.095c0.464,0.062,0.805,0.048,0.896,0.677c0.327,2.274,1.837,4.31,1.328,6.762
			c-0.348,1.677,0.527,2.732,2.017,3.127c0.908,0.241,1.018,0.608,1.135,1.442c0.509,3.628,0.824,7.259,0.874,10.924
			c0.036,2.64,0.261,5.278,0.442,7.915c0.028,0.41,0.157,0.922,0.432,1.188c1.781,1.726,3.396,4.013,5.308,5.082
			c1.611,0.9,3.964,1.639,6.003,1.956c2.306,0.357,3.35,1.827,3.729,3.417c1.214,5.097,0.945,10.404,1.796,15.588
			c0.425,2.59,1.399,4.848,2.669,6.989c0.589,0.992,1.757,1.795,3.284,1.35c1.06-0.308,1.784-0.8,1.679-1.929
			c-0.116-1.245,0.324-2.108,1.557-2.064c1.273,0.046,2.831-0.214,3.382,1.593c1.002,3.282,1.886,6.617,3.137,9.805
			c1.183,3.016,2.174,6.007,2.766,9.225c0.433,2.351,0.742,5.037,2.99,6.764c1.574,1.209,3.373,0.828,4.016-1.02
			c0.381-1.098,1.026-1.42,1.938-0.609c1.486,1.32,2.601,2.78,3.026,4.891c0.566,2.81,0.89,6.11,4.257,7.14
			c1.874,0.573,3.516,1.522,5.277,2.264c2.758,1.161,5.755,2.462,7.166,5.031c1.324,2.412,2.467,3.949,5.351,3.428
			c0.356-0.064,0.742-0.014,1.108,0.028c1.435,0.165,2.782,0.171,3.679-1.279c0.424-0.686,1.007-0.633,1.723-0.267
			c1.054,0.54,2.445,1.562,3.245,1.246c2.552-1.006,3.4,0.656,4.719,2.114c1.191,1.318,1.811,3.21,3.893,3.768
			c0.99,0.266,1.615-0.105,2.176-0.523c0.424-0.316,0.404-1.067,0.098-1.712c-0.65-1.37-1.269-2.735-2.401-3.808
			c-0.496-0.47,0.128-5.699,0.668-6.07c0.119-0.081,0.277-0.175,0.406-0.161c1.676,0.179,3.568-0.709,4.918,1.082
			c0.909,1.208,2.106,1.094,3.19,0.319c1.249-0.893,2.406-0.918,3.695-0.141c2.817,1.7,5.814,3.152,8.421,5.124
			c1.187,0.898,2.644,1.979,3.062,3.713c0.368,1.527,1.556,2.104,2.941,2.338C140.036,147.256,143.741,147.627,146.972,147.535z
			 M319.019,79.599c2.519,0.679,4.888,1.303,5.513,4.169c0.076,0.348,0.104,0.785,0.326,1.008c0.814,0.813,2.061,2.357,2.493,2.164
			c1.106-0.492,2.405-1.643,1.843-3.188c-0.694-1.906-2.212-3.775-3.948-4.168c-1.811-0.409-2.315-1.474-2.986-2.64
			c-0.676-1.174-1.179-2.449-1.479-3.799c-0.254-1.145-1.019-2.019-2.174-2.162c-0.938-0.116-1.822,0.322-2.271,1.323
			c-0.159,0.354-0.297,0.853-0.925,0.567c-0.477-0.217-0.738-0.416-0.88-1.042c-0.51-2.254-0.601-4.549-0.354-6.786
			c0.517-4.693,1.78-9.123,5.782-12.216c2.294-1.773,4.31-4.008,7.738-3.345c1.329,0.256,2.219,0.498,2.498,1.981
			c0.243,1.289,0.9,2.425,1.892,3.352c0.562,0.524,1.206,0.858,1.703,0.181c1.598-2.179,2.858-1.146,4.144,0.301
			c0.242,0.273,0.522,0.46,0.939,0.483c2.749,0.153,5.42-0.192,7.617-1.939c0.93-0.74,1.502-0.875,2.077,0.104
			c0.521,0.886,1.005,1.231,2.147,1.014c1.061-0.202,1.401-0.921,1.564-1.594c0.243-0.998-0.472-1.911-1.291-2.294
			c-1.872-0.875-1.328-1.728-0.232-2.768c0.399-0.38,0.698-0.867,1.132-1.418c0.499,0.537,0.966,1.12,1.514,1.612
			c1.889,1.694,3.501,1.295,4.354-1.046c0.773-2.121-0.238-4.337-2.52-4.97c-1.322-0.368-1.818-0.711-1.118-2.076
			c1.044-2.036,0.578-4.874,3.614-5.85c1.146-0.368,1.51-1.868,1.393-3.222c-0.098-1.128-0.713-2.013-1.773-1.783
			c-2.226,0.482-3.272-0.521-4.39-2.276c-0.665-1.043-2.252-1.472-3.359-2.266c-2.529-1.812-4.349-4.185-4.699-7.326
			c-0.332-2.983-0.398-6.001-0.461-9.007c-0.035-1.688-0.729-2.409-2.411-2.359c-2.002,0.06-4.008,0.013-6.012,0.014
			c-2.723,0.001-4.336,1.877-3.565,4.536c1.195,4.128,0.065,8.188,0.095,12.271c0.021,2.941-0.857,6.382,2.024,8.805
			c-0.831,0.971-2.013,1.681-1.77,3.313c0.279,1.87-0.398,2.644-2.288,1.525c-0.612-0.363-1.385-0.236-2.086-0.56
			c-2.781-1.285-4.327-0.933-6.112,1.404c-0.626,0.819-1.02,1.172-2.197,0.921c-2.063-0.439-4.225-0.5-5.517,1.808
			c-0.297,0.529-0.985,0.542-1.477,0.794c-1.643,0.845-3.721,1.152-4.725,2.895c-1.391,2.415-2.713,4.897-3.164,7.707
			c-0.073,0.457-0.113,0.866-0.502,1.162c-2.7,2.052-2.324,5.268-3.11,8.065c-0.918,3.262-0.884,6.63-1.183,9.935
			c-0.281,3.103-0.881,6.432,0.386,9.406c1.23,2.89,1.878,5.726,1.794,8.863c-0.041,1.512,0.392,3.139,1.27,4.516
			c0.48,0.753,0.588,1.906,1.932,1.727c1.182-0.158,2.267-0.269,2.583-1.809c0.131-0.638,0.665-1.653,1.708-1.052
			c1.277,0.736,1.722,2.976,1.007,4.292c-3.719,6.846-4.929,14.022-2.805,21.625c0.548,1.961,1.628,3.911-0.396,5.735
			c-0.356,0.322-0.345,1.066-0.474,1.622c-1.303,5.607-1.677,11.293-1.33,17.026c0.312,5.154,0.775,5.562,5.867,5.561
			c4.156-0.002,8.312-0.033,12.469,0.022c1.051,0.014,1.807-0.414,2.074-1.285c0.217-0.706,0.417-1.904-0.557-2.143
			c-1.814-0.443-1.626-1.961-2.028-3.154c-0.922-2.728-0.917-5.575-0.405-8.33c0.574-3.093,0.955-6.471,2.505-9.081
			c3.344-5.633,6.508-11.472,11.287-16.139c1.401-1.368,2.013-4.404,1.226-5.938c-2.461-4.792-5.295-9.257-10.328-11.83
			c-0.772-0.395-1.8-1.044-1.959-1.746c-0.475-2.09-2.144-2.348-3.667-2.674c-0.842-0.181-1.415-0.514-2.091-0.982
			C318.427,83.702,319.156,81.619,319.019,79.599z M333.585,133.428c-0.058,0.86,1.008,1.018,1.055,1.882
			c0.118,2.174,1.275,3.84,2.935,5.142c2.314,1.816,4.07,4.178,6.179,6.192c0.475,0.454,0.862,0.917,1.655,0.91
			c4.974-0.039,9.949,0.063,14.919-0.076c1.294-0.036,2.227-1.161,1.684-2.553c-0.805-2.06-2.049-3.953-2.783-6.032
			c-0.903-2.555-2.688-4.669-3.287-7.382c-0.684-3.09-0.278-6.181-0.395-9.267c-0.048-1.278-0.532-2.975,0.579-3.787
			c2.299-1.681,1.739-3.919,1.935-6.165c0.193-2.211-0.33-4.9,2.525-6.124c0.533-0.229,0.694-0.84,0.82-1.472
			c0.511-2.576,0.715-5.171,0.873-7.79c0.115-1.911-0.105-4.055,1.266-5.604c1.706-1.929,2.874-4.067,3.777-6.459
			c0.96-2.538,1.36-4.733-0.534-7.184c-1.33-1.72-2.624-1.797-4.082-0.907c-1.749,1.068-3.527,2.234-3.771,4.684
			c-0.056,0.565-0.673,1.978-0.803,1.808c-0.799-1.046-2.664-0.189-2.94-1.558c-0.225-1.109-0.967-1.637-1.637-2.255
			c-1.939-1.788-2.209-7.554-0.22-9.319c1.161-1.03,2.281-2.075,3.375-3.177c1.933-1.949,3.838-4.284,5.942-5.617
			c2.812-1.783,2.991-4.27,3.994-6.653c0.057-0.134,0.042-0.305,0.117-0.423c3.473-5.459,6.599-11.034,7.736-17.562
			c0.904-5.184,1.072-10.268-0.546-15.32c-0.709-2.214,0.367-3.727,2.802-3.898c0.988-0.069,1.912,0.101,2.91-0.615
			c3.094-2.22,3.883-5.736,5.192-8.903c0.559-1.35-0.787-2.249-2.197-2.204c-4.702,0.148-9.399,0.407-14.101,0.586
			c-4.04,0.153-8.486,4.76-8.066,8.66c0.387,3.59,1.228,7.131,1.598,10.722c0.296,2.868,1.195,5.726,0.215,8.687
			c-0.448,1.352-0.369,2.88-0.515,4.331c-0.592,5.87-2.41,11.283-6.468,15.667c-3.43,3.707-7.79,6.066-12.574,7.615
			c-2.917,0.943-6.02,1.191-8.997,1.203c-3.423,0.014-7.047,2.637-7.156,6.076c-0.174,5.492,3.236,9.153,6.528,12.883
			c1.608,1.822,3.837,2.947,5.221,5.076c2.548,3.916,4.895,7.921,7.165,12.005c1.352,2.43,1.397,4.63,0.854,6.711
			c-0.564,2.161-1.444,4.336-2.257,6.478c-2.141,5.64-6.102,10.354-8.19,16.03c-0.329,0.896-1.285,1.079-2.161,1.254
			c-1.134,0.227-2.293,0.429-3.051,1.456c-0.842,1.142-0.972,2.41,0.105,3.328C332.038,135.554,332.865,134.663,333.585,133.428z
			 M173.369,22.482c0.065-1.553-1.549-3.549-2.973-3.675c-1.51-0.134-3.678,2.565-3.706,4.614c-0.02,1.444,1.917,2.889,3.921,2.928
			C171.938,26.374,173.285,24.483,173.369,22.482z M254.886,134.78c0.001,2.722,0.982,4.259,2.413,4.287
			c1.25,0.025,3.834-2.547,3.818-3.802c-0.016-1.323-2.258-3.379-3.871-3.282C255.26,132.103,254.971,133.678,254.886,134.78z
			 M359.117,20.216c0.024-1.517-1.861-3.501-3.432-3.611c-1.167-0.081-2.729,1.565-2.802,2.953c-0.071,1.36,2.673,3.868,4.196,3.568
			C358.488,22.849,359.17,21.702,359.117,20.216z M353.781,10.409c0.01-1.515-1.495-3.094-3.009-3.156
			c-1.019-0.042-3.184,1.826-3.229,2.786c-0.06,1.268,2.31,3.54,3.761,3.38C352.983,13.232,353.771,12.08,353.781,10.409z
			 M339.538,114.716c-0.043-1.685-1.66-1.997-2.568-2.936c-0.73-0.755-1.502-0.007-1.673,0.245
			c-0.818,1.213-1.814,2.469-1.482,4.079c0.462,2.229,1.049,2.389,2.934,1.045c0.508-0.362,1.127-0.634,1.734-0.776
			C339.43,116.151,339.567,115.53,339.538,114.716z M231.272,79.022c0.034-1.551-2.189-3.9-3.565-3.827
			c-1.012,0.054-1.681,0.825-1.741,1.802c-0.121,1.947,1.762,4.163,3.35,4.178C230.99,81.189,230.979,79.88,231.272,79.022z
			 M166.682,11.586c0.193-1.955-0.735-2.618-2.601-2.621c-1.611-0.003-3.005,0.063-3.157,2.063
			c-0.085,1.118,2.184,2.966,3.562,2.845C165.802,13.759,166.946,13.272,166.682,11.586z M328.866,124.095
			c-0.225,0.869,0.159,1.816,0.378,2.808c0.205,0.933,0.986,1.231,1.562,1.295c0.684,0.075,0.834-0.897,1.042-1.441
			c0.382-0.999-0.078-2.109,0.485-3.193c0.961-1.85,0.578-2.189-1.489-2.341C328.579,121.056,328.743,122.461,328.866,124.095z
			 M334.941,56.741c-1.814,0.351-2.243,1.123-2.119,2.343c0.126,1.244,1.869,3.244,2.793,2.838c1.122-0.494,2.613-0.735,2.995-2.272
			C338.687,59.34,334.789,56.748,334.941,56.741z M341.531,99.009c0.658,0.052,1.647-0.021,1.56-1.579
			c-0.054-0.963-2.085-2.908-3.217-2.869c-1.122,0.04-1.722,0.759-1.682,1.881C338.258,98.259,339.334,99.002,341.531,99.009z
			 M323.9,55.803c-1.628-0.124-2.582,0.334-2.616,1.731c-0.032,1.344,0.818,2.337,2.109,2.172c1.09-0.14,2.845,0.125,2.775-1.966
			C326.109,55.936,324.723,56.038,323.9,55.803z M331.69,145.991c0.521,0.292-0.211,1.499,0.903,1.516
			c0.521,0.007,1.314,0.384,1.527-0.389c0.398-1.444,0.674-2.926,0.927-4.404c0.126-0.736-0.195-1.307-1.021-1.399
			c-0.798-0.089-1.326,0.112-1.667,1.01C331.916,143.491,332.12,144.751,331.69,145.991z M319.192,62.456
			c-1.465-0.048-2.306,0.458-2.363,1.696c-0.061,1.285,0.887,2.16,1.958,2.215c0.834,0.044,1.946-0.479,2.022-1.754
			C320.891,63.273,320.246,62.571,319.192,62.456z M343.526,106.005c0.157-1.295-0.464-1.725-1.667-1.693
			c-1.025,0.026-2.002,0.035-1.881,1.439c0.082,0.947-0.108,2.132,1.447,2.146C342.751,107.91,343.445,107.296,343.526,106.005z
			 M333.814,86.048c-0.738,0.607-1.722,1.084-1.888,2.38c-0.141,1.104,0.665,1.629,1.331,1.543c1.131-0.146,2.377-0.688,2.45-2.086
			C335.761,86.892,335.068,86.203,333.814,86.048z M270.473,52.688c0.049-0.653-0.168-1.206-0.846-1.311
			c-0.472-0.072-0.967,0.429-0.854,0.774c0.168,0.518,0.105,1.361,1.034,1.396C270.471,53.572,270.483,53.152,270.473,52.688z"/>
		<path style="fill-rule:evenodd;clip-rule:evenodd;fill:#7B491E;" d="M200.567,46.845c0.42,3.68-1.383,6.708-2.934,9.786
			c-1.495,2.965-0.751,6.813,1.709,8.902c0.966,0.82,1.731,0.405,2.604,0.034c1.498-0.636,3.576,0.373,3.932,1.902
			c0.288,1.234-0.081,1.658-2.096,2.35c2.037,1.501,4.578,1.632,6.765,2.702c1.974,0.967,3.563,2.1,4.673,3.988
			c1.262,2.147,3.432,3.177,5.558,4.192c3.179,1.519,6.805,2.236,9.513,4.548c1.373,1.172,0.62,3.331,0.409,4.981
			c-0.355,2.778-1.232,5.49-1.574,8.27c-0.141,1.148-0.775,1.836-1.3,2.652c-0.153,0.237-0.725,0.369-0.442,0.732
			c0.27,0.345,0.876,0.404,1.138-0.055c1.157-2.027,3.027-0.825,4.56-0.988c0.841-0.09,1.238,1.078,1.204,1.587
			c-0.075,1.131-0.6,2.216-1.606,2.953c-0.576,0.423-1.052,0.362-1.573-0.104c-1.015-0.906-2.274-1.525-2.997-3.179
			c-1.711,4.685,1.582,7.747,2.319,11.38c0.985,4.854,5.842,4.145,8.825,6.65c-0.357-1.851-1.102-3.564,1.031-4.16
			c1.198-0.335,2.697-0.265,2.979,1.42c0.363,2.175-1.423,2.284-2.841,2.691c0.765,0.933,1.944,1.209,3.039,1.64
			c3.539,1.391,5.096,4.244,5.132,7.79c0.043,4.181,1.521,7.282,4.669,10.174c2.53,2.325,5.339,4.294,7.795,6.68
			c0.52,0.504,1.3,0.994,0.862,1.831c-0.371,0.712-1.025,1.062-1.967,1.161c-5.38,0.563-10.77,0.392-16.157,0.399
			c-3.394,0.005-4.133-1.12-4.594-4.346c-0.486-3.4-0.139-7.172-2.883-9.95c-0.46-0.466-0.579-0.954-0.604-1.578
			c-0.07-1.769-1.102-2.803-2.774-3.113c-2.19-0.407-3.956-1.893-6.276-2.185c-0.959-0.12-1.79-2.101-2.468-3.35
			c-0.608-1.122-1.125-2.367-1.333-3.617c-0.453-2.72-2.424-4.313-4.425-5.565c-1.356-0.849-2.051-1.927-2.182-3.14
			c-0.446-4.137-1.199-8.349-0.039-12.44c0.498-1.756,1.292-3.458,1.863-5.23c0.379-1.176-0.241-1.779-0.792-1.874
			c-3.498-0.604-5.06-3.288-6.238-6.036c-1.462-3.405-4.289-4.154-7.338-4.32c-3.335-0.182-5.461-2.059-7.682-4.166
			c-1.588-1.508-2.4-3.6-4.459-4.823c-1.697-1.009-2.5-3.35-2.883-5.201c-1.002-4.842-3.14-9.19-4.927-13.713
			c-1.304-3.301-3.078-6.482-3.337-10.156c-0.122-1.717-1.438-2.644-2.824-3.296c-0.677-0.318-1.56-0.382-2.25,0.346
			c-1.695,1.786-3.659,1.869-5.517,0.172c-0.621-0.567-1.367-0.968-1.946-0.533c-0.536,0.403-0.884,1.131-0.589,2.108
			c0.531,1.757,0.485,3.606,0.003,5.416c-0.292,1.093-0.573,2.128-2.026,2.166c-1.507,0.04-2.736-0.392-3.479-1.781
			c-1.086-2.03-2.156-4.07-3.227-6.108c-0.349-0.664-0.704-1.178-1.638-1.032c-3.512,0.545-5.411-0.917-5.823-4.425
			c-0.084-0.718-0.234-1.429-0.352-2.122c-0.307-1.815-0.977-2.685-2.952-2.39c-1.402,0.209-2.178-0.844-2.464-2.016
			c-1.092-4.462-2.785-8.769-3.484-13.328c-0.265-1.727-0.373-3.478-0.558-5.216c-0.038-0.36-0.013-0.764-0.17-1.068
			c-1.168-2.256,0.18-4.754,2.675-4.388c3.552,0.521,7.064-0.311,10.604,0.14c1.362,0.174,2.712,0.561,4.108,0.539
			c0.596-0.009,0.958,0.383,1.029,0.962c0.441,3.597,1.876,7.064,1.363,10.788c-0.338,2.455,0.809,4.502,2.023,6.466
			c0.583,0.943,1.468,1.438,2.777,1.406c4.677-0.112,9.358-0.009,14.038-0.053c6.006-0.056,11.345,1.528,15.571,6.044
			c0.252,0.269,0.712,0.342,1.138,0.533c-0.633-4.455-0.284-5.457,1.908-5.677c2.123-0.213,5.014,1.558,4.752,3.135
			c-0.203,1.229-0.922,2.47-2.074,3.232c-1.18,0.78-2.581-0.016-4.051,0.526c2.455,1.925,3.032,4.668,3.537,7.418
			c0.222,1.208,0.6,1.39,1.761,0.872c2.877-1.283,4.005-0.687,4.458,2.287c0.13,0.847,0.698,0.798,1.402,1.158
			c-0.198-3.5-0.256-6.897-1.388-10.106c-0.881-2.497-0.92-5.194-2.147-7.617c-0.671-1.324-1.817-1.868-2.917-2.173
			c-3.09-0.856-5.831-2.687-9.034-3.162c-2.332-0.347-4.517-1.284-6.923-1.417c-2.658-0.146-5.328-0.549-7.929-1.125
			c-3.709-0.822-4.888-4.072-6.282-7.067c-0.664-1.428-1.466-2.792-2.154-4.209c-0.875-1.802-0.274-3.055,1.738-3.095
			c5.417-0.109,10.837-0.056,16.256-0.014c0.806,0.007,1.736,0.413,2.015,1.128c0.679,1.745,1.992,2.191,3.6,2.878
			c1.51,0.646,1.789-0.028,2.298-0.801c1.405-2.131,4.197-2.191,5.71-0.063c0.168,0.236,0.373,0.488,0.423,0.758
			c0.647,3.504,4.098,4.023,6.325,5.789c1.084,0.86,2.252,1.386,2.664,2.876c0.226,0.814,0.795,1.542,1.507,2.114
			c3.478,2.795,4.351,6.943,5.538,10.896c0.667,2.221,2.538,3.271,4.051,4.692c1.019,0.957,2.144,1.834,2.987,2.928
			c0.411,0.533,1.42,1.338,0.495,2.189c-0.754,0.693-1.567,1.671-2.838,0.745c-0.187-0.137-0.56-0.019-1.101-0.019
			c2.087,3.131,1.777,6.553,1.782,9.931c0.001,0.942-0.397,2.083,1.245,2.247c0.455,0.045,1.048,0.713,1.22,1.217
			c0.401,1.178,1.199,1.323,2.24,1.256c2.253-0.145,3.677,0.81,4.417,3.037c0.438,1.314,1.463,1.978,3.013,2.44
			c1.857,0.554,3.581,1.694,5.528,2.274c0.88,0.261,1.255,1.341,1.484,2.296c0.765,3.176,1.617,3.917,4.745,4.201
			c2.076,0.189,2.295,1.987,2.798,3.418c0.879,2.505,1.126,5.129,0.904,7.77c-0.175,2.086,0.084,4.067,1.22,5.838
			c1.1,1.714,0.528,2.984-1.044,3.8c-0.914,0.474-1.049,1.046-1.064,1.912c-0.057,3.035,1.05,5.629,2.885,7.971
			c2.138,2.729,4.136,5.532,8.066,6.007c0.947,0.113,2.153,1.424,2.205,2.548c0.169,3.669,3.072,4.774,5.554,6.101
			c3.089,1.651,5.494,3.729,6.863,7.037c0.596,1.438,1.517,2.838,2.602,3.953c1.293,1.33,1.909,2.732,1.678,4.529
			c-0.284,2.203,0.789,4.12,1.472,6.055c0.482,1.369,0.07,2.396-0.758,2.835c-2.048,1.085-1.912,3.014-1.966,4.671
			c-0.064,2.007-1.027,2.562-2.696,2.606c-1.335,0.036-2.672,0.021-4.008,0.005c-2.373-0.028-3.129-1.593-4.005-3.547
			c-0.677-1.511-3.07-1.895-2.635-4.502c0.281-1.68-0.683-3.548-0.974-5.35c-0.391-2.417-1.043-4.772-1.543-7.156
			c-0.765-3.641-3.855-4.903-6.202-7.01c-2.367-2.125-5.285-3.755-8.076-4.163c-3.281-0.48-4.063-2.715-5.629-4.604
			c-0.676-0.814-1.407-1.631-2.26-2.242c-2.891-2.073-3.288-5.134-3.479-8.307c-0.112-1.874,0.629-3.942-1.722-5.206
			c-0.699-0.376-0.828-1.709,0.611-1.767c1.008-0.041,1.505-0.483,1.736-1.337c1.059-3.908,1.603-7.924,1.034-11.912
			c-0.212-1.49-1.106-3.213-2.728-4.126c-2.228-1.253-4.277-2.751-6.22-4.416c-1.811-1.552-3.759-2.831-6.212-3.261
			c-2.518-0.442-4.104-2.635-6.351-3.691c-1.301-0.612-2.584-1.153-3.938-1.636c-2.796-0.998-3.156-3.793-3.762-6.136
			c-0.801-3.098-1.003-6.332-0.969-9.668c-1.357,0.311-1.463,1.741-2.341,2.424c-1.381,1.075-2.385,0.981-2.893-0.629
			c-0.501-1.584-1.635-2.752-2.355-4.177c-0.073-0.622,0.325-1.388-0.719-1.995C199.845,45.815,198.863,46.795,200.567,46.845z
			 M220.139,42.488c-0.018-0.337,0.1-0.823-0.317-0.897c-0.65-0.115-0.562,0.453-0.56,0.85c0.002,0.324-0.091,0.774,0.411,0.804
			C220.211,43.276,220.086,42.807,220.139,42.488z M207.309,47.687c-0.207,0.167-0.447,0.266-0.472,0.403
			c-0.027,0.158,0.1,0.462,0.224,0.502c0.268,0.085,0.576-0.003,0.561-0.375C207.613,48.059,207.445,47.909,207.309,47.687z"/>
		<path style="fill-rule:evenodd;clip-rule:evenodd;fill:#7B491E;" d="M51.538,12.088c0.277-0.261,0.45-0.345,0.483-0.467
			c0.876-3.154,0.874-3.115,4.477-3.079c1.859,0.018,2.96,0.748,2.816,2.692c-0.086,1.159,0.546,1.596,1.445,1.749
			c1.029,0.175,1.575,0.803,1.794,1.695c1.026,4.175,2.429,8.255,3.044,12.537c0.328,2.279,0.803,4.545,1.361,6.78
			c0.46,1.841,0.715,3.696,0.841,5.577c0.096,1.438,0.183,2.663,2.161,2.923c1.61,0.212,1.522,1.838,1.537,3.117
			c0.012,1.027-0.045,2.059-0.139,3.083c-0.189,2.081,0.265,3.419,2.823,3.102c2.111-0.262,2.064,1.655,2.494,2.941
			c0.202,0.604-0.075,1.36,0.1,1.981c0.26,0.928,0.426,2.005,1.946,0.917c1.938-1.388,2.982,0.454,3.729,1.703
			c2.025,3.392,3.269,7.146,4.505,10.886c1.24,3.753,2.039,7.569,1.793,11.552c-0.021,0.354-0.044,0.836,0.155,1.059
			c3.328,3.689,2.757,8.662,4.302,12.933c0.073,0.203,0.125,0.438,0.26,0.593c0.508,0.584,0.37,2.121,1.545,1.617
			c0.818-0.351,0.372-1.438,0.073-2.299c-1.559-4.493-2.673-9.102-3.211-13.833c-0.118-1.036-0.644-1.92-0.852-2.893
			c-0.182-0.853-0.396-2.027,0.024-2.617c1.256-1.761,0.539-3.217-0.184-4.819c-1.322-2.932-2.511-5.924-3.859-8.843
			c-0.608-1.315-0.456-2.81-1.298-4.097c-0.533-0.814,0.525-1.413,1.1-1.942c0.75-0.69,1.667-0.623,2.417-0.1
			c0.586,0.409,0.995,0.75,1.756,0.365c3.015-1.521,4.241-1.102,5.552,1.997c1.611,3.806,2.895,7.771,4.763,11.443
			c1.528,3.004,3.207,5.91,4.227,9.144c0.835,2.649,1.752,5.273,2.58,7.925c0.32,1.025,0.542,1.925,1.979,1.844
			c0.531-0.03,1.306,0.483,1.606,0.972c0.521,0.848,0.952,0.986,1.707,0.376c1.642-1.328,3.028-0.359,3.807,0.904
			c1.896,3.079,5.071,5.184,6.446,8.641c0.101,0.254,0.673,0.321,1.336,0.61c-0.368-0.782-0.634-1.264-0.825-1.772
			c-0.337-0.898,0.098-1.726,0.904-1.713c1.347,0.021,3.03-0.863,3.87,1.32c0.341,0.889,1.389,1.66,2.68,1.786
			c1.568,0.152,2.725,1.22,3.19,2.629c0.86,2.605,3.153,4.261,4.178,6.74c0.235,0.568,0.9,0.968,1.39,1.42
			c0.497,0.458,1.159,0.457,1.618,0.121c0.442-0.322,0.339-1.036,0.078-1.434c-0.694-1.053-0.863-2.167,0.339-2.693
			c1.317-0.576,2.88-1.349,4.131,0.381c0.892,1.234,1.63,2.486,1.936,4.026c0.187,0.94,0.114,2.271,1.727,2.366
			c0-0.809,0.218-1.702-0.046-2.417c-0.503-1.361-0.237-2.439,1.119-2.653c1.174-0.185,2.943-0.807,3.039,1.656
			c0.031,0.81,0.388,1.683,0.349,2.561c-0.025,0.554,0.04,1.128,0.565,1.339c3.169,1.275,3.242,4.293,3.859,6.936
			c0.378,1.615,1.525,2.967,1.427,4.744c-0.037,0.665,0.892,0.92,1.305,0.883c2.788-0.255,2.628,1.933,3.074,3.59
			c0.13,0.484,0.095,1.047,0.01,1.552c-0.722,4.243,1.179,7.936,2.396,11.78c0.332,1.047,1.265,2.067,0.42,3.272
			c-0.916,1.306-2.361,0.96-3.466,0.717c-1.236-0.273-2.543-0.242-3.663-0.215c-2.327,0.055-2.856-1.184-3.592-2.904
			c-3.393-7.933-8.442-14.623-15.359-19.853c-1.898-1.435-4.169-1.855-6.401-2.245c-3.842-0.672-7.396-2.46-11.184-3.075
			c-5.755-0.936-11.127-3.503-17.167-3.388c-3.185,0.061-6.413-1.272-9.594-2.086c-8.924-2.283-14.646-8.975-20.069-15.592
			c-2.964-3.617-5.344-7.929-7.405-12.307c-1.276-2.708-2.862-5.315-3.899-8.118c-1.385-3.744-3.311-7.243-4.487-11.104
			c-0.799-2.623-2.014-5.179-2.885-7.832c-1.363-4.146-2.428-8.38-4.032-12.463c-1.207-3.073-2.513-6.077-4.091-8.96
			c-2.002-3.658-3.407-7.559-4.864-11.44c-1.131-3.012-2.077-6.095-3.261-9.084c-0.981-2.478-3.561-3.424-5.379-5.101
			c-0.752-0.694-1.506-1.326-1.117-2.395c0.356-0.979,1.338-0.69,2.125-0.728c2.563-0.123,5.114,0.071,7.699-0.363
			C48.223,8.205,50.264,9.579,51.538,12.088z"/>
		<path style="fill-rule:evenodd;clip-rule:evenodd;fill:#7B491E;" d="M146.972,147.535c-3.23,0.093-6.936-0.278-10.619-0.899
			c-1.385-0.233-2.574-0.811-2.941-2.338c-0.417-1.734-1.875-2.814-3.062-3.713c-2.607-1.972-5.604-3.424-8.421-5.124
			c-1.289-0.777-2.446-0.752-3.695,0.141c-1.084,0.774-2.281,0.889-3.19-0.319c-1.35-1.791-3.242-0.903-4.918-1.082
			c-0.129-0.014-0.287,0.08-0.406,0.161c-0.54,0.371-1.164,5.601-0.668,6.07c1.132,1.072,1.751,2.438,2.401,3.808
			c0.306,0.645,0.326,1.396-0.098,1.712c-0.561,0.418-1.186,0.789-2.176,0.523c-2.082-0.558-2.702-2.449-3.893-3.768
			c-1.319-1.458-2.167-3.12-4.719-2.114c-0.8,0.316-2.191-0.706-3.245-1.246c-0.716-0.366-1.299-0.419-1.723,0.267
			c-0.897,1.45-2.245,1.444-3.679,1.279c-0.367-0.042-0.752-0.093-1.108-0.028c-2.884,0.521-4.027-1.016-5.351-3.428
			c-1.41-2.569-4.407-3.87-7.166-5.031c-1.761-0.741-3.403-1.69-5.277-2.264c-3.367-1.029-3.691-4.33-4.257-7.14
			c-0.425-2.11-1.54-3.57-3.026-4.891c-0.912-0.811-1.557-0.488-1.938,0.609c-0.643,1.848-2.442,2.229-4.016,1.02
			c-2.249-1.727-2.558-4.413-2.99-6.764c-0.592-3.218-1.583-6.209-2.766-9.225c-1.251-3.188-2.135-6.522-3.137-9.805
			c-0.551-1.807-2.109-1.547-3.382-1.593c-1.232-0.044-1.672,0.819-1.557,2.064c0.105,1.129-0.619,1.621-1.679,1.929
			c-1.527,0.445-2.695-0.357-3.284-1.35c-1.271-2.142-2.244-4.399-2.669-6.989c-0.852-5.184-0.582-10.491-1.796-15.588
			c-0.379-1.591-1.422-3.06-3.729-3.417c-2.039-0.316-4.392-1.055-6.003-1.956c-1.911-1.069-3.526-3.356-5.308-5.082
			c-0.275-0.267-0.404-0.778-0.432-1.188c-0.181-2.636-0.407-5.274-0.442-7.915c-0.05-3.666-0.365-7.296-0.874-10.924
			c-0.117-0.834-0.227-1.202-1.135-1.442c-1.49-0.396-2.365-1.45-2.017-3.127c0.509-2.452-1.001-4.488-1.328-6.762
			c-0.09-0.629-0.431-0.616-0.896-0.677c-1.813-0.239-2.738-1.343-3.168-3.095c-0.422-1.717-1.117-3.366-1.588-5.073
			c-0.191-0.692-0.407-1.633-0.1-2.166c1.677-2.9-0.709-4.572-1.895-6.558c-0.37-0.62-0.714-1.225-0.507-1.812
			c0.214-0.607,0.828-0.937,1.612-0.9c3.539,0.166,7.033-0.675,10.589-0.469c1.556,0.091,2.86,0.588,3.933,1.593
			c2.848,2.668,5.564,5.448,7.845,8.658c1.648,2.32,4.417,3.601,6.002,6.049c1.863,2.878,4.693,5.125,5.793,8.486
			c0.714,2.179,1.298,4.387,1.401,6.758c0.088,2.034,0.677,4.134,1.718,5.942c1.629,2.829,1.848,6.152,3.389,9.002
			c1.42,2.627,2.81,5.343,3.867,8.069c1.142,2.943,2.737,5.549,4.472,8.012c1.653,2.347,3.061,4.895,4.086,7.403
			c1.393,3.406,2.538,6.983,3.711,10.514c1.406,4.229,3.314,8.221,5.371,12.164c1.543,2.96,3.033,5.965,4.292,9.054
			c2.208,5.416,7.106,7.396,11.933,9.007c6.558,2.188,13.468,2.881,20.399,2.892c1.747,0.002,3.469-0.42,5.242-0.466
			c6.811-0.174,12.884,1.486,18.472,5.647c4.82,3.588,9.452,7.34,13.986,11.272c1.997,1.732,4.096,3.567,6.632,4.699
			c0.708,0.316,1.894,0.742,1.452,2.069c-0.354,1.061-1.246,0.843-2.033,0.85C150.007,147.543,148.745,147.535,146.972,147.535z
			 M91.766,136.288c0.147-1.025,0.269-1.907-0.974-2.103c-0.29-0.046-0.618,0-0.682,0.345
			C89.884,135.734,90.865,135.897,91.766,136.288z"/>
		<path style="fill-rule:evenodd;clip-rule:evenodd;fill:#7B491E;" d="M319.019,79.599c0.138,2.02-0.592,4.103,1.492,5.548
			c0.676,0.469,1.249,0.802,2.091,0.982c1.523,0.326,3.192,0.584,3.667,2.674c0.159,0.702,1.187,1.352,1.959,1.746
			c5.033,2.573,7.867,7.038,10.328,11.83c0.787,1.533,0.176,4.569-1.226,5.938c-4.779,4.667-7.943,10.506-11.287,16.139
			c-1.55,2.61-1.931,5.988-2.505,9.081c-0.512,2.755-0.517,5.603,0.405,8.33c0.402,1.193,0.214,2.711,2.028,3.154
			c0.974,0.238,0.773,1.437,0.557,2.143c-0.268,0.871-1.023,1.299-2.074,1.285c-4.156-0.056-8.312-0.024-12.469-0.022
			c-5.092,0.002-5.556-0.406-5.867-5.561c-0.347-5.733,0.027-11.419,1.33-17.026c0.129-0.556,0.117-1.3,0.474-1.622
			c2.023-1.824,0.943-3.774,0.396-5.735c-2.124-7.603-0.914-14.779,2.805-21.625c0.715-1.316,0.271-3.556-1.007-4.292
			c-1.043-0.602-1.577,0.414-1.708,1.052c-0.316,1.54-1.401,1.65-2.583,1.809c-1.344,0.18-1.451-0.974-1.932-1.727
			c-0.878-1.377-1.311-3.004-1.27-4.516c0.084-3.138-0.563-5.974-1.794-8.863c-1.267-2.975-0.667-6.304-0.386-9.406
			c0.299-3.305,0.265-6.673,1.183-9.935c0.786-2.798,0.41-6.013,3.11-8.065c0.389-0.295,0.429-0.705,0.502-1.162
			c0.451-2.81,1.773-5.292,3.164-7.707c1.004-1.742,3.082-2.049,4.725-2.895c0.491-0.253,1.18-0.265,1.477-0.794
			c1.292-2.307,3.453-2.247,5.517-1.808c1.178,0.25,1.571-0.103,2.197-0.921c1.785-2.336,3.331-2.689,6.112-1.404
			c0.701,0.324,1.474,0.197,2.086,0.56c1.89,1.119,2.567,0.345,2.288-1.525c-0.243-1.633,0.938-2.343,1.77-3.313
			c-2.882-2.423-2.004-5.864-2.024-8.805c-0.029-4.083,1.101-8.143-0.095-12.271c-0.771-2.659,0.843-4.534,3.565-4.536
			c2.004-0.001,4.01,0.045,6.012-0.014c1.683-0.05,2.376,0.671,2.411,2.359c0.062,3.005,0.129,6.023,0.461,9.007
			c0.351,3.141,2.17,5.513,4.699,7.326c1.107,0.794,2.694,1.222,3.359,2.266c1.117,1.755,2.164,2.758,4.39,2.276
			c1.061-0.23,1.676,0.655,1.773,1.783c0.117,1.354-0.247,2.854-1.393,3.222c-3.036,0.976-2.57,3.814-3.614,5.85
			c-0.7,1.365-0.204,1.708,1.118,2.076c2.281,0.633,3.293,2.849,2.52,4.97c-0.854,2.342-2.466,2.741-4.354,1.046
			c-0.548-0.492-1.015-1.075-1.514-1.612c-0.434,0.551-0.732,1.038-1.132,1.418c-1.096,1.04-1.64,1.894,0.232,2.768
			c0.819,0.383,1.534,1.297,1.291,2.294c-0.163,0.672-0.504,1.392-1.564,1.594c-1.143,0.218-1.627-0.128-2.147-1.014
			c-0.575-0.979-1.147-0.845-2.077-0.104c-2.197,1.748-4.868,2.092-7.617,1.939c-0.417-0.023-0.697-0.21-0.939-0.483
			c-1.285-1.447-2.546-2.48-4.144-0.301c-0.497,0.677-1.142,0.344-1.703-0.181c-0.991-0.927-1.648-2.063-1.892-3.352
			c-0.279-1.483-1.169-1.725-2.498-1.981c-3.429-0.663-5.444,1.572-7.738,3.345c-4.002,3.094-5.266,7.523-5.782,12.216
			c-0.246,2.237-0.155,4.532,0.354,6.786c0.142,0.626,0.403,0.824,0.88,1.042c0.628,0.286,0.766-0.213,0.925-0.567
			c0.448-1.001,1.332-1.439,2.271-1.323c1.155,0.143,1.92,1.017,2.174,2.162c0.3,1.351,0.803,2.625,1.479,3.799
			c0.671,1.166,1.176,2.23,2.986,2.64c1.736,0.393,3.254,2.262,3.948,4.168c0.562,1.546-0.736,2.696-1.843,3.188
			c-0.433,0.193-1.679-1.351-2.493-2.164c-0.223-0.223-0.25-0.66-0.326-1.008C323.906,80.902,321.537,80.278,319.019,79.599z"/>
		<path style="fill-rule:evenodd;clip-rule:evenodd;fill:#7B491E;" d="M333.585,133.428c-0.72,1.234-1.547,2.126-2.774,1.08
			c-1.077-0.918-0.947-2.187-0.105-3.328c0.758-1.027,1.917-1.229,3.051-1.456c0.876-0.175,1.832-0.357,2.161-1.254
			c2.089-5.676,6.05-10.391,8.19-16.03c0.812-2.142,1.692-4.316,2.257-6.478c0.544-2.081,0.498-4.281-0.854-6.711
			c-2.271-4.084-4.617-8.089-7.165-12.005c-1.384-2.129-3.612-3.254-5.221-5.076c-3.292-3.73-6.702-7.391-6.528-12.883
			c0.109-3.439,3.733-6.062,7.156-6.076c2.978-0.012,6.08-0.26,8.997-1.203c4.784-1.548,9.145-3.908,12.574-7.615
			c4.058-4.384,5.876-9.797,6.468-15.667c0.146-1.45,0.066-2.979,0.515-4.331c0.98-2.961,0.081-5.819-0.215-8.687
			c-0.37-3.591-1.211-7.132-1.598-10.722c-0.42-3.899,4.026-8.506,8.066-8.66c4.701-0.179,9.398-0.438,14.101-0.586
			c1.41-0.044,2.756,0.854,2.197,2.204c-1.31,3.167-2.099,6.683-5.192,8.903c-0.998,0.716-1.922,0.546-2.91,0.615
			c-2.435,0.171-3.511,1.684-2.802,3.898c1.618,5.053,1.45,10.137,0.546,15.32c-1.138,6.528-4.264,12.103-7.736,17.562
			c-0.075,0.118-0.061,0.289-0.117,0.423c-1.003,2.383-1.182,4.87-3.994,6.653c-2.104,1.333-4.01,3.668-5.942,5.617
			c-1.094,1.102-2.214,2.147-3.375,3.177c-1.989,1.765-1.72,7.531,0.22,9.319c0.67,0.618,1.412,1.146,1.637,2.255
			c0.276,1.368,2.142,0.512,2.94,1.558c0.13,0.17,0.747-1.242,0.803-1.808c0.243-2.449,2.021-3.615,3.771-4.684
			c1.458-0.89,2.752-0.813,4.082,0.907c1.895,2.45,1.494,4.646,0.534,7.184c-0.903,2.392-2.071,4.53-3.777,6.459
			c-1.371,1.549-1.15,3.692-1.266,5.604c-0.158,2.619-0.362,5.214-0.873,7.79c-0.126,0.632-0.287,1.243-0.82,1.472
			c-2.855,1.224-2.332,3.913-2.525,6.124c-0.195,2.246,0.364,4.484-1.935,6.165c-1.111,0.812-0.627,2.509-0.579,3.787
			c0.116,3.086-0.289,6.177,0.395,9.267c0.6,2.713,2.384,4.827,3.287,7.382c0.734,2.079,1.979,3.973,2.783,6.032
			c0.543,1.392-0.39,2.517-1.684,2.553c-4.97,0.14-9.945,0.037-14.919,0.076c-0.793,0.007-1.181-0.456-1.655-0.91
			c-2.108-2.015-3.864-4.376-6.179-6.192c-1.659-1.302-2.816-2.968-2.935-5.142C334.593,134.446,333.527,134.289,333.585,133.428z"
			/>
		<path style="fill-rule:evenodd;clip-rule:evenodd;fill:#7B491E;" d="M173.369,22.482c-0.084,2.001-1.432,3.892-2.757,3.867
			c-2.005-0.039-3.941-1.484-3.921-2.928c0.028-2.049,2.196-4.749,3.706-4.614C171.82,18.933,173.434,20.929,173.369,22.482z"/>
		<path style="fill-rule:evenodd;clip-rule:evenodd;fill:#7B491E;" d="M254.886,134.78c0.085-1.102,0.374-2.677,2.36-2.797
			c1.613-0.097,3.855,1.959,3.871,3.282c0.016,1.255-2.568,3.827-3.818,3.802C255.868,139.039,254.887,137.501,254.886,134.78z"/>
		<path style="fill-rule:evenodd;clip-rule:evenodd;fill:#7B491E;" d="M359.12,20.218c0.05,1.484-0.632,2.631-2.04,2.908
			c-1.523,0.3-4.268-2.208-4.196-3.568c0.073-1.388,1.635-3.034,2.802-2.953C357.256,16.715,359.142,18.699,359.12,20.218z"/>
		<path style="fill-rule:evenodd;clip-rule:evenodd;fill:#7B491E;" d="M353.781,10.409c-0.011,1.671-0.798,2.823-2.477,3.009
			c-1.451,0.16-3.82-2.112-3.761-3.38c0.045-0.96,2.21-2.828,3.229-2.786C352.286,7.314,353.791,8.894,353.781,10.409z"/>
		<path style="fill-rule:evenodd;clip-rule:evenodd;fill:#7B491E;" d="M339.538,114.716c0.029,0.813-0.108,1.435-1.056,1.657
			c-0.607,0.143-1.227,0.414-1.734,0.776c-1.885,1.344-2.472,1.184-2.934-1.045c-0.332-1.61,0.664-2.866,1.482-4.079
			c0.171-0.252,0.942-1,1.673-0.245C337.878,112.719,339.495,113.032,339.538,114.716z"/>
		<path style="fill-rule:evenodd;clip-rule:evenodd;fill:#7B491E;" d="M231.272,79.022c-0.294,0.858-0.282,2.167-1.957,2.152
			c-1.588-0.015-3.471-2.23-3.35-4.178c0.061-0.977,0.729-1.748,1.741-1.802C229.083,75.122,231.307,77.471,231.272,79.022z"/>
		<path style="fill-rule:evenodd;clip-rule:evenodd;fill:#7B491E;" d="M166.682,11.586c0.264,1.686-0.88,2.173-2.196,2.288
			c-1.378,0.121-3.647-1.728-3.562-2.845c0.152-2,1.546-2.066,3.157-2.063C165.947,8.969,166.875,9.632,166.682,11.586z"/>
		<path style="fill-rule:evenodd;clip-rule:evenodd;fill:#7B491E;" d="M328.866,124.095c-0.123-1.634-0.287-3.039,1.979-2.873
			c2.067,0.151,2.45,0.491,1.489,2.341c-0.563,1.084-0.104,2.194-0.485,3.193c-0.208,0.544-0.358,1.517-1.042,1.441
			c-0.576-0.063-1.357-0.362-1.562-1.295C329.025,125.912,328.642,124.964,328.866,124.095z"/>
		<path style="fill-rule:evenodd;clip-rule:evenodd;fill:#7B491E;" d="M334.941,56.741c-0.152,0.007,3.745,2.599,3.669,2.908
			c-0.382,1.537-1.873,1.778-2.995,2.272c-0.924,0.406-2.667-1.594-2.793-2.838C332.698,57.864,333.127,57.091,334.941,56.741z"/>
		<path style="fill-rule:evenodd;clip-rule:evenodd;fill:#7B491E;" d="M341.531,99.009c-2.197-0.007-3.273-0.75-3.339-2.567
			c-0.04-1.122,0.56-1.841,1.682-1.881c1.132-0.039,3.163,1.906,3.217,2.869C343.179,98.988,342.189,99.061,341.531,99.009z"/>
		<path style="fill-rule:evenodd;clip-rule:evenodd;fill:#7B491E;" d="M323.9,55.803c0.822,0.235,2.209,0.133,2.269,1.937
			c0.069,2.091-1.686,1.826-2.775,1.966c-1.291,0.166-2.142-0.828-2.109-2.172C321.318,56.137,322.272,55.679,323.9,55.803z"/>
		<path style="fill-rule:evenodd;clip-rule:evenodd;fill:#7B491E;" d="M331.69,145.991c0.43-1.239,0.226-2.5,0.669-3.667
			c0.341-0.897,0.869-1.099,1.667-1.01c0.826,0.093,1.147,0.663,1.021,1.399c-0.253,1.479-0.528,2.96-0.927,4.404
			c-0.213,0.772-1.007,0.396-1.527,0.389C331.479,147.49,332.211,146.283,331.69,145.991z"/>
		<path style="fill-rule:evenodd;clip-rule:evenodd;fill:#7B491E;" d="M319.192,62.456c1.054,0.116,1.698,0.818,1.617,2.158
			c-0.076,1.275-1.188,1.798-2.022,1.754c-1.071-0.056-2.019-0.93-1.958-2.215C316.887,62.914,317.728,62.408,319.192,62.456z"/>
		<path style="fill-rule:evenodd;clip-rule:evenodd;fill:#7B491E;" d="M343.526,106.005c-0.081,1.291-0.775,1.904-2.101,1.893
			c-1.556-0.015-1.365-1.199-1.447-2.146c-0.121-1.404,0.855-1.413,1.881-1.439C343.062,104.281,343.684,104.71,343.526,106.005z"/>
		<path style="fill-rule:evenodd;clip-rule:evenodd;fill:#7B491E;" d="M333.814,86.048c1.254,0.154,1.946,0.844,1.894,1.837
			c-0.073,1.397-1.319,1.94-2.45,2.086c-0.666,0.086-1.472-0.438-1.331-1.543C332.093,87.132,333.076,86.656,333.814,86.048z"/>
		<path style="fill-rule:evenodd;clip-rule:evenodd;fill:#7B491E;" d="M270.473,52.687c0.011,0.465-0.002,0.885-0.665,0.86
			c-0.929-0.034-0.866-0.877-1.034-1.396c-0.113-0.346,0.382-0.847,0.854-0.774C270.305,51.481,270.521,52.035,270.473,52.687z"/>
		<path style="fill-rule:evenodd;clip-rule:evenodd;fill:none;" d="M200.567,46.845c-1.705-0.05-0.722-1.03-0.77-1.945
			c1.044,0.607,0.646,1.374,0.719,1.995L200.567,46.845z"/>
		<path style="fill-rule:evenodd;clip-rule:evenodd;fill:none;" d="M220.142,42.49c-0.056,0.317,0.069,0.787-0.469,0.755
			c-0.502-0.03-0.409-0.48-0.411-0.804c-0.002-0.397-0.091-0.965,0.56-0.85C220.238,41.665,220.121,42.151,220.142,42.49z"/>
		<path style="fill-rule:evenodd;clip-rule:evenodd;fill:none;" d="M207.309,47.687c0.137,0.222,0.305,0.372,0.312,0.53
			c0.016,0.372-0.293,0.46-0.561,0.375c-0.124-0.04-0.251-0.345-0.224-0.502C206.861,47.953,207.102,47.854,207.309,47.687z"/>
		<path style="fill-rule:evenodd;clip-rule:evenodd;fill:none;" d="M91.766,136.288c-0.901-0.391-1.881-0.554-1.656-1.758
			c0.064-0.345,0.392-0.391,0.682-0.345C92.035,134.38,91.913,135.262,91.766,136.288z"/>
	</g>
</g>
</svg>
