<?xml version="1.0" encoding="iso-8859-1"?>
<!-- Generator: Adobe Illustrator 16.0.0, SVG Export Plug-In . SVG Version: 6.00 Build 0)  -->
<!DOCTYPE svg PUBLIC "-//W3C//DTD SVG 1.1//EN" "http://www.w3.org/Graphics/SVG/1.1/DTD/svg11.dtd">
<svg version="1.1" id="Layer_1" xmlns="http://www.w3.org/2000/svg" xmlns:xlink="http://www.w3.org/1999/xlink" x="0px" y="0px"
	 width="401.131px" height="199.974px" viewBox="0 0 401.131 199.974" style="enable-background:new 0 0 401.131 199.974;"
	 xml:space="preserve">
<g>
	<g>
		<path style="fill:none;" d="M200.58,199.429c-65.889,0-131.778-0.01-197.667,0.045c-1.835,0.002-2.404-0.204-2.402-2.274
			C0.585,132.358,0.582,67.516,0.52,2.675c-0.002-1.882,0.544-2.141,2.233-2.14C134.626,0.575,266.5,0.579,398.374,0.508
			c2.134-0.001,2.241,0.664,2.239,2.436c-0.049,64.746-0.054,129.493,0.019,194.239c0.002,2.036-0.513,2.296-2.384,2.294
			C332.358,199.419,266.469,199.429,200.58,199.429z M180.605,106.325c-1.354-0.31-2.807-0.402-4.045-0.968
			c-3.763-1.716-6.169-0.746-7.024,3.12c-0.457,2.067,1.474,2.754,2.657,3.394c1.098,0.594,1.3-1.035,1.472-1.815
			c0.336-1.526,1.958-2.493,2.965-1.38c1.173,1.298,2.497,1.387,3.666,0.816c1.478-0.722,0.191-2.133,0.238-3.238
			c2.213,0.564,4.092-0.729,6.139-1.072c1.037-0.174,2.059-0.341,1.826-1.543c-0.209-1.084-0.459-2.453-2.118-2.502
			c-1.894-0.057-3.442,1.092-5.172,1.575C179.885,103.083,180.759,105.066,180.605,106.325z M304.122,21.671
			c-2.048-0.437-3.949,0.427-5.883,0.68c-7.613,0.997-14.641,3.256-18.714,10.556c-0.384,0.687-0.899,1.179-1.339,1.772
			c-3.191,4.309-7.354,8.012-8.473,13.614c-0.871,4.358-3.159,8.635-0.653,13.175c0.274,0.498-0.148,1.055-0.289,1.592
			c-0.768,2.932-2.035,5.769-1.906,8.889c0.037,0.884-0.145,1.589-0.77,2.309c-4.08,4.698-6.015,10.676-9.357,15.842
			c-2.91,4.498-5.977,8.364-11.405,9.979c-3.368,1.004-6.577,2.719-7.511,6.608c-0.581,2.421,0.699,4.784,0.52,7.272
			c-0.223,3.072,1.657,4.571,4.677,4.978c2.154,0.29,3.911-0.681,5.566-1.38c2.372-1.002,4.828-2.122,6.403-4.636
			c2.332-3.724,5.696-6.169,9.829-8.102c3.579-1.675,8.463-1.55,10.459-6.064c0.066-0.152,0.263-0.276,0.427-0.351
			c4.758-2.167,9.768-1.555,14.618-0.824c2.782,0.418,5.39,1.432,8.022-0.196c0.724-0.447,1.321,0.003,1.372,0.392
			c0.206,1.58,1.125,3.319,0.3,4.746c-2.243,3.879-0.109,7.672,0.617,11.146c0.567,2.72,1.682,5.376,1.684,8.296
			c0.001,1.089-0.353,2.211,0.372,3.295c1.448,2.166,2.693,4.47,4.172,6.612c2.238,3.241,2.815,3.207,5.207,1.822
			c2.374-1.373,3.47-5.061,2.936-7.107c-0.754-2.884-2.162-5.504-2.037-8.8c0.17-4.517,1.458-9.315-0.975-13.641
			c-1.242-2.209-0.878-4.097,0.406-5.984c0.677-0.996,0.361-2.929,1.576-3.072c2.721-0.32,4.589-2.502,7.458-2.721
			c1.891-0.144,4.248-1.243,5.436-3.319c2.278-3.985,1.342-7.865-0.603-11.627c-0.819-1.586-1.041-3.038,0.365-4.324
			c2.018-1.846,2.81-4.04,2.551-6.778c-0.22-2.318,0.4-4.72,2.351-5.969c2.06-1.319,3.802-2.978,5.736-4.413
			c2.479-1.839,3.731-6.194-0.329-7.835c-5.281-2.136-7.68-7.199-9.812-11.653c-2.208-4.613-4.344-8.376-9.061-10.848
			C313.592,23.26,308.92,22.394,304.122,21.671z M24.753,87.507c0.32-1.857-0.71-3.123-2.06-3.771
			c-0.807-0.387-2.089,0.574-2.375,1.445c-0.753,2.298-2.321,3.809-4.101,5.248c-0.264,0.213-0.197,0.886-0.209,1.348
			c-0.039,1.495-0.129,2.942-0.481,4.44c-0.398,1.692-0.321,3.892,1.956,4.24c1.294,0.197,2.342,0.675,3.251,1.335
			c1.357,0.985,2.468,1.744,3.9,0.189c0.359-0.39,1.467-0.423,1.431,0.005c-0.178,2.098,1.836,4.264,1.035,5.721
			c-1.08,1.961,0.091,3.111,0.823,3.743c2.185,1.888,1.508,3.228-0.297,4.605c-1.566,1.195-1.424,2.503-0.829,4.201
			c0.62,1.771,1.758,3.048,3.407,3.07c1.983,0.028,3.397,1.338,5.225,1.635c0.691,0.112,1.256,1.125,2.202,0.505
			c1.013-0.664,0.705-1.725,0.623-2.606c-0.166-1.786-1.52-2.798-2.997-3.345c-0.794-0.295-1.657-0.225-1.813-1.264
			c-0.134-0.896,0.689-1.172,1.216-1.621c2.681-2.288,2.491-5.753-0.362-7.791c-1.245-0.89-2.875-1.861-2.795-3.486
			c0.271-5.518-3.871-7.026-7.696-8.725c-1.542-0.684-1.738-1.107-1.036-2.658C23.693,91.934,24.115,89.672,24.753,87.507z
			 M57.262,47.28c-1.463,0.406-2.318,1.005-2.367,2.171c-0.052,1.235-0.422,2.52,1.363,3.26c3.926,1.63,5.319,5.096,5.391,9.018
			c0.046,2.501,0.701,4.031,3.263,4.758c1.632,0.464,2.471,1.528,0.694,3.133c-0.663,0.598-2.18,1.002-1.187,2.645
			c1.576,2.609,0.878,5.113-1.226,7.036c-2.268,2.072-1.959,5.219-0.977,7.813c0.591,1.562,1.811,2.285,3.24,1.825
			c1.247-0.402,2.918-0.754,2.594-2.953c-0.297-2.015-0.205-4.058,1.239-5.826c1.882-2.304,1.163-5.053,0.588-7.495
			c-0.232-0.988-0.406-1.671,0.156-2.361c1.496-1.836,0.665-3.083-0.86-4.307c-0.649-0.521-1.526-1.185-1.633-1.886
			c-0.697-4.548-2.722-8.524-5.343-12.151C60.859,50.109,58.843,48.745,57.262,47.28z M76.634,162.731
			c-0.015-1.353-0.917-2.312-0.653-3.499c0.056-0.252-0.054-0.562-0.147-0.824c-0.868-2.428-2.137-2.785-3.919-0.817
			c-1.383,1.527-2.958,2.896-4.898,2.833c-2.579-0.084-2.998,1.412-3.618,3.268c-1.185,3.553,0.023,7.444-1.655,10.908
			c-0.089,0.186,0.052,0.663,0.228,0.768c1.014,0.603,0.802,2.39,2.508,2.378c1.823-0.014,2.755-1.296,3.271-2.546
			c0.48-1.164,0.851-1.706,2.098-1.453c1.626,0.33,6.57-2.12,7.326-3.441c0.496-0.866,0.14-1.65-0.081-2.322
			C76.499,166.173,75.26,164.488,76.634,162.731z M53.143,50.645c-0.011-2.898-1.822-4.056-4.578-2.906
			c-1.534,0.64-2.915,1.583-4.713,1.484c-2.23-0.123-4.81-1.201-6.122,1.85c-0.101,0.235-0.417,0.213-0.68-0.023
			c-1.714-1.544-3.567-0.167-5.32-0.106c-2.43,0.083-3.338,2.074-3.701,4.196c-0.297,1.739,0.431,3.342,1.914,4.064
			c1.828,0.892,3.132-0.57,4.343-1.773c0.472-0.468,1.141-0.86,1.368-1.428c0.634-1.578,1.628-1.358,2.577-0.554
			c1.599,1.355,2.832,1.347,4.196-0.384c1.125-1.428,3.015-1.762,4.641-2.312c1.296-0.438,1.721,1.177,2.601,1.782
			c0.755,0.519,1.389,0.422,2.014-0.21C52.721,53.273,53.322,52.062,53.143,50.645z M32.545,127.774
			c0.071-1.292,0.093-2.231-1.107-2.613c-1.854-0.589-6.144,1.989-6.268,3.928c-0.283,4.435-0.392,8.89-4.27,12.04
			c-0.517,0.42-0.392,1.076-0.305,1.598c0.221,1.318-0.483,2.123-1.354,2.908c-0.762,0.688-1.525,1.393-1.864,2.412
			c-0.641,1.932,0.771,3.088,1.979,3.825c1.183,0.724,2.753-0.294,2.817-1.517c0.204-3.902,4.272-6.385,3.671-10.54
			c-0.061-0.42,0.801-0.967,1.223-1.465C29.765,135.156,30.845,131.142,32.545,127.774z M71.805,132.698
			c0.749,3.553,2.685,6.097,5.268,8.239c1.34,1.111,2.184,0.93,2.311-0.682c0.155-1.979,0.48-4.132-0.113-5.932
			c-0.587-1.784-0.615-4.381-3.531-4.771c-0.979-0.131-0.859-0.953-0.308-1.946c2.282-4.105,1.158-7.029-1.211-9.639
			c-1.349-1.485-4.218-1.178-4.432,0.373c-0.216,1.574-0.243,3.265,0.095,4.807C70.59,126.376,74.002,129.001,71.805,132.698z
			 M363.553,169.922c-3.072-0.88-3.13,0.655-2.996,2.468c0.113,1.523,0.773,2.759,2.043,3.463c0.891,0.495,1.253,1.305,0.542,1.644
			c-3.328,1.59-3.396,4.619-3.683,7.589c-0.126,1.302,0.63,2.544,1.387,3.208c0.657,0.578,2.319,0.552,3.249,0.142
			c1.064-0.47,0.463-1.889,0.431-2.857c-0.051-1.535-0.302-2.968,0.767-4.374c0.869-1.144,0.701-2.492-0.461-3.517
			c-0.879-0.775-1.242-1.381,0.213-1.936c0.529-0.201,0.729-0.805,0.675-1.439c-0.222-2.577,0.221-4.824,1.953-7.018
			c1.196-1.514,0.226-3.188-1.51-4.349c-1.247-0.834-2.122-0.925-3.219,0.093c-1.358,1.258-1.886,2.613-0.571,4.138
			C362.994,167.897,362.703,168.828,363.553,169.922z M146.162,136c3.873,0.001,5.495-1.66,3.791-3.765
			c-0.949-1.17-0.691-1.768-0.368-2.852c1.121-3.764,0.887-7.63,0.725-11.494c-0.062-1.499-1.058-2.576-1.734-3.654
			c-0.443-0.707-1.734-1.953-3.232-1.134c-1.588,0.869-0.484,1.958-0.485,3.076c-0.001,1.634,1.995,2.598,1.258,4.101
			c-1.333,2.723,0.564,5.726-0.914,8.389c-0.06,0.109,0.264,0.463,0.447,0.669c0.695,0.775,1.094,1.192-0.438,1.619
			c-1.277,0.356-2.574,1.3-2.279,3.096C143.283,136.176,144.774,136.258,146.162,136z M347.808,125.727
			c-0.462,0-0.656-0.025-0.841,0.004c-2.339,0.375-5.146,3.8-5.251,6.395c-0.102,2.521,2.825,6.967,4.964,7.234
			c2.159,0.27,2.479-1.925,3.615-3.044c0.958-0.945,0.433-1.513-0.361-1.99c-1.406-0.845,0.171-1.31,0.326-1.363
			c3.698-1.284,0.479-3.384,0.448-4.972C350.679,126.554,348.911,126.076,347.808,125.727z M199.491,51.973
			c-0.142-1.555-0.497-3.38-2.552-3.888c-0.868-0.215-2.167-0.694-2.859,0.865c-0.938,2.116,0.168,3.471,1.55,4.605
			c1.303,1.072,2.416,1.739,0.174,3.032c-0.851,0.491-0.689,2.096-0.284,2.634c1.418,1.885,0.591,4.717,2.763,6.194
			c0.872,0.593,0.147,1.284-0.094,1.663c-0.702,1.102-0.694,1.935,0.485,2.577c1.086,0.59,2.422,1.18,3.403,0.332
			c0.895-0.773,1.411-2.628,0.571-3.304c-1.444-1.162-1.187-2.562-1.673-3.926C199.746,59.308,198.653,55.964,199.491,51.973z
			 M74.262,146.974c0.202,1.377-0.535,2.954,0.957,3.957c1.275,0.858,1.489,2.072,1.362,3.471c-0.091,0.994,0,2.01,1.271,2.131
			c1.088,0.104,2.009,0.143,2.809-1.188c1.775-2.952,1.82-5.976,0.996-9.076c-0.922-3.464-3.824-4.591-6.415-2.837
			C73.747,144.444,74.535,145.808,74.262,146.974z M366.23,146.857c1.733-0.001,2.197-0.309,2.329-1.419
			c0.11-0.927-0.137-1.62-1.137-2.004c-2.771-1.062-5.191-5.098-5.22-7.999c-0.012-1.283-0.621-2.542-1.783-3.5
			c-1.056-0.868-1.82-0.173-2.502,0.238c-1.32,0.797-0.907,2.275-0.649,3.369c0.216,0.915,0.111,1.885,0.34,2.641
			c0.79,2.618,1.278,5.513,3.327,7.494C362.418,147.112,364.792,145.792,366.23,146.857z M361.378,122.28
			c1.804,0.056,3.585,0.075,4.254-1.69c0.617-1.63-0.312-2.811-1.914-3.498c-0.486-0.209-0.85-0.743-1.225-1.169
			c-0.998-1.134-2.085-1.676-3.363-0.458c-1.346,1.283-1.84-0.197-2.37-0.837c-0.341-0.412-0.183-1.27-0.181-1.928
			c0.002-1.338-0.719-2.125-1.938-2.383c-1.338-0.283-2.103,0.575-2.615,1.665c-0.994,2.11-0.187,3.691,1.335,5.263
			c1.659,1.713,4.52,1.637,5.675,3.964C359.597,122.337,360.52,122.391,361.378,122.28z M196.97,43.168
			c-0.039-0.082-0.073-0.268-0.184-0.363c-1.953-1.672-1.199-5.791-5.133-5.688c-0.246,0.007-0.704-0.181-0.715-0.307
			c-0.319-3.805-3.049-4.128-6.007-4.36c-1.85-0.145-2.712,0.659-2.312,2.482c0.526,2.395,2.052,3.343,4.404,3.382
			c0.875,0.014,2.654-0.312,2.51,0.392c-0.664,3.257,2.323,3.945,3.579,5.814c0.518,0.771,1.287,1.254,1.988,1.043
			C196.108,45.262,196.555,44.182,196.97,43.168z M70.286,95.409c0.069-3.075-1.797-5.138-4.266-4.505
			c-1.594,0.408-2.936,1.561-3.076,3.24c-0.111,1.335,0.907,1.953,2.422,1.914c1.477-0.039,1.011,1,0.533,1.745
			c-1.462,2.274-0.876,4.376,0.428,6.463c0.703,1.125,1.792,0.973,2.796,0.824c1.051-0.155,1.182-1.024,1.172-1.953
			C70.267,100.561,70.285,97.985,70.286,95.409z M172.269,37.715c0.449,1.407,0.799,2.679,2.4,2.859
			c1.525,0.171,2.182-1.047,2.86-1.968c0.432-0.586,0.872-1.178,1.317-1.766c0.497-0.657,1.46-1.277,0.57-2.286
			c-0.672-0.763-1.314-1.068-2.431-0.499c-2.978,1.518-6.043,2.287-9.407,0.881c-0.917-0.384-2.579-0.597-2.979,1.174
			c-0.429,1.896,0.667,3.39,2.19,3.729C168.77,40.281,171.241,40.765,172.269,37.715z M150.465,63.996
			c-1.895,0.061-2.596,1.546-3.372,2.928c-0.813,1.447,0.387,2.237,1.244,2.747c1.529,0.91,2.623,2.222,3.906,3.365
			c1.27,1.132,2.708,1.273,3.748-0.448c0.645-1.067,1.909-2.054,0.8-3.49C155.099,66.907,154.16,63.758,150.465,63.996z
			 M140.683,62.579c-0.291-1.899-1.538-3.289-3.124-3.581c-1.407-0.26-2.395,0.771-2.902,2.621c-0.375,1.368,0.841,2.53-0.266,3.9
			c-1.717,2.122,0.341,3.719,1.385,5.345c0.632,0.985,1.801,0.7,2.613,0.468c0.849-0.242,1.604-0.953,1.615-2.083
			C140.027,67.011,139.741,64.744,140.683,62.579z M141.766,100.97c-0.889,1.975,1.486,3.137,1.132,5.064
			c-0.42,2.287,1.323,3.625,2.941,4.524c1.583,0.88,3.103-0.516,4.12-1.526c1.148-1.141-0.487-1.869-1.071-2.746
			c-0.402-0.603-1.798-0.4-1.418-1.443c0.965-2.651-1.232-3.707-2.447-5.279c-0.703-0.91-1.693-0.822-2.595-0.662
			C141.107,99.136,141.993,100.297,141.766,100.97z M210.122,69.715c1.208,0.267,2.326-0.225,2.895-1.457
			c0.558-1.21-0.184-2.107-1.087-2.919c-1.079-0.969-1.993-2.131-3.116-3.04c-1.094-0.885-2.437-1.847-3.862-1.167
			c-1.689,0.807-1.889,2.556-1.421,4.169C204.259,67.82,207.154,69.7,210.122,69.715z M140.7,83.365
			c-0.424-0.097-1.319,0.014-1.571,1.227c-0.624,2.995-2.445,5.912,0.225,8.989c0.958,1.104,1.885,2.021,3.111,1.705
			c1.283-0.331,1.128-1.77,1.111-2.973c-0.018-1.208-0.79-2.42,0.034-3.643C145.043,86.542,143.775,83.71,140.7,83.365z
			 M364.983,148.001c-2.261-0.028-3.331,2.113-2.074,4.175c0.646,1.059,1.755,1.644,0.161,3.125
			c-0.986,0.917-0.113,2.655,1.278,3.528c1.341,0.841,2.552,0.471,3.404-0.626c1.717-2.206,1.411-6.749-0.495-8.926
			C366.646,148.58,366.055,147.746,364.983,148.001z M173.897,82.288c-1.161,0-2.148-0.17-3.049,0.037
			c-1.656,0.379-3.308,1.042-2.812,3.246c0.631,2.807,3.407,2.661,5.366,3.508c1.559,0.674,2.101-0.669,2.753-1.899
			c0.715-1.347,2.719-2.392,1.957-4.03C177.289,81.379,175.18,82.641,173.897,82.288z M217.953,78.266
			c1.163,0.056,2.523,0.206,1.979-1.434c-0.428-1.289-0.119-2.165,0.427-3.291c1.149-2.377-0.604-3.326-2.327-4.433
			c-1.823-1.171-3.044-0.233-4.194,0.828c-1.517,1.401-0.605,2.941,0.168,4.321c0.493,0.879,1.612,1.569,1.746,2.452
			C215.998,78.32,216.828,78.457,217.953,78.266z M380.097,126.775c-0.686,1.793,0.67,2.483,1.755,3.295
			c0.503,0.376,1.132,0.35,1.553-0.085c1.039-1.074,1.395-2.403,1.099-3.868c-0.089-0.44-0.212-1.037-0.527-1.241
			c-2.04-1.317-1.041-3.259-1.117-4.977c-0.013-0.284,0.047-0.582-0.02-0.851c-0.294-1.182-1.21-2.166-2.183-2.333
			c-1.016-0.175-2.178,0.691-2.695,1.683c-0.459,0.879-0.522,1.945,0.204,2.914c0.836,1.114,2.842,1.064,3.057,2.145
			C381.399,124.349,379.368,125.222,380.097,126.775z M13.669,161.595c-0.289,1.535,0.785,2.973,2.064,3.921
			c1.443,1.07,2.689-0.536,3.616-1.318c1.341-1.131,0.863-2.963,0.645-4.553c-0.237-1.727-0.736-3.465-2.777-3.587
			c-2.034-0.121-2.681,1.74-3.397,3.217C13.556,159.82,13.719,160.573,13.669,161.595z M181.793,57.18
			c-1.545-0.444-2.562,0.917-3.941,1.157c-1.065,0.186-1.747,0.943-1.873,2.167c-0.137,1.321,0.461,2.14,1.458,2.841
			c1.789,1.259,3.303-0.322,4.927-0.386c2.295-0.091,3.227-1.984,3.098-3.174C185.317,58.459,183.914,56.793,181.793,57.18z
			 M159.92,98.587c0.445-2.777-2.071-2.982-3.48-4.053c-1.175-0.892-1.906,0.303-2.556,1.035c-2.002,2.258,0.19,3.069,1.523,4.121
			c0.922,0.728,2.635,0.642,2.329,2.566c-0.241,1.514,0.438,2.626,2.016,2.836c0.619,0.082,1.822,0.528,1.865-0.55
			c0.049-1.233,0.853-2.779-0.896-3.771C160.504,100.65,158.358,99.865,159.92,98.587z M73.783,111.822
			c0.501-1.379-0.695-2.621-1.592-3.85c-1.277-1.751-3.318-1.625-4.761-0.659c-1.504,1.006-1.455,2.824-0.454,4.472
			c0.673,1.105,2.015,1.317,2.789,2.268c0.803,0.986,1.77,1.873,3.111,1.245C74.198,114.68,73.582,113.312,73.783,111.822z
			 M148,143.583c-0.003,0-0.007,0-0.011,0c0-0.761,0.142-1.556-0.035-2.272c-0.24-0.971-0.756-1.869-1.096-2.819
			c-0.58-1.627-1.425-1.806-2.706-0.656c-1.397,1.252-1.969,6.619-0.724,8.126c0.822,0.993,1.834,2.254,3.188,1.844
			c1.445-0.438,1.521-1.981,1.387-3.367C147.977,144.156,148,143.869,148,143.583z M360.513,111.997
			c0.791,0.128,1.443-0.189,1.625-0.87c0.233-0.876,0.424-1.824-0.269-2.68c-0.98-1.211-4.195-1.413-1.923-4.143
			c0.011-0.014-0.116-0.136-0.174-0.211c-0.816-1.077-1.72-1.427-3.167-1.043c-2.137,0.564-2.611,2.133-2.481,3.822
			c0.076,0.978,0.65,2.336,2.4,1.766c0.912-0.297,1.831-0.26,1.81,1.273C358.316,111.195,359.274,111.86,360.513,111.997z
			 M382.858,102.375c-0.014-2.226-3.771-4.777-6.725-4.638c-0.702,0.033-1.56-0.475-1.943,0.937c-0.33,1.21,0.043,2.027,0.831,2.263
			c1.722,0.517,2.525,1.947,3.398,3.159c0.849,1.179,1.989,1.407,2.795,0.914C382.039,104.505,383.367,103.759,382.858,102.375z
			 M237.478,73.145c-1.514-0.276-2.431,0.948-2.519,2.215c-0.1,1.438,0.667,3.005,2.52,2.875c1.618-0.112,2.756,0.716,3.573,1.7
			c0.849,1.021,1.402,0.786,1.997,0.088c0.542-0.637,1.805-0.887,1.334-2.176C243.894,76.507,239.125,73.131,237.478,73.145z
			 M383.424,165.329c0.056,1.754-0.49,3.776,1.766,4.293c1.519,0.348,3.148-2.442,3.441-4.673c0.341-2.589-1.161-4.089-3.079-4.026
			C382.891,161.008,383.533,163.622,383.424,165.329z M368.823,106.251c0.862,0.163,1.492-0.119,2.043-0.98
			c0.638-0.994,0.094-1.525-0.484-2.106c-1.229-1.235-2.512-2.418-3.726-3.669c-0.786-0.809-1.696-0.899-2.559-0.379
			c-0.814,0.49-1.355,1.23-1.269,2.354c0.082,1.058,0.257,1.812,1.506,1.986c1.02,0.143,1.786,0.695,2.316,1.696
			C367.034,105.875,367.735,106.507,368.823,106.251z M160.588,41.437c0.417-2.272-1.198-3.39-2.785-3.545
			c-1.281-0.125-2.917,0.818-2.938,2.741c-0.022,2.115,2.107,5.881,3.262,5.555C160.481,45.526,160.342,43.308,160.588,41.437z
			 M22.87,78.993c-0.245,2.541,1.348,4.381,3.14,4.64c1.676,0.243,2.263-1.912,2.02-3.703c-0.011-0.081,0.062-0.175,0.104-0.26
			c0.851-1.738-0.52-2.754-1.352-3.877c-0.507-0.684-1.496-0.575-2.051-0.146C23.641,76.491,22.405,77.387,22.87,78.993z
			 M204.233,81.085c-0.396-1.907-1.336-2.865-2.57-3.304c-1.2-0.427-1.536,0.776-1.896,1.602c-0.388,0.887-0.709,1.54-1.751,2.093
			c-0.709,0.377-1.88,1.833-0.97,3.56c0.735,1.394,2.16,1.692,2.7,1.148C201.375,84.545,201.808,81.921,204.233,81.085z
			 M23.404,71.145c-0.316,1.743,1.05,3.026,2.681,2.974c1.972-0.063,3.037-1.691,3.077-3.827c0.037-1.907-1.051-3.308-2.636-3.309
			C24.445,66.981,23.425,68.665,23.404,71.145z M148.032,45.108c-0.162-1.406-1.168-2.246-2.374-2.807
			c-1.758-0.817-3.036,0.714-4.49,1.213c-0.875,0.299-1.276,1.75-0.976,2.534c1.249,3.255,4.117-0.152,6.059,1.252
			C146.76,47.669,147.943,46.389,148.032,45.108z M350.305,122.539c-0.325,2.095,1.448,2.857,2.372,4.11
			c0.642,0.87,1.464,1.171,2.391,0.289c0.719-0.685,1.182-1.275,0.678-2.441c-0.407-0.944-1.634-1.462-1.438-2.624
			c0.281-1.668-0.816-2.982-1.955-2.756C351.025,119.38,349.845,120.797,350.305,122.539z M381.125,154.961
			c-0.05,1.551,0.91,2.771,1.748,3.821c1.076,1.35,2.449,1.271,3.42-0.458c1.142-2.031,0.52-3.511-1.978-5.206
			c-0.821-0.558-1.56-0.708-2.348-0.392C380.981,153.122,381.124,154.095,381.125,154.961z M173.968,93.188
			c-1.689-0.34-3.135,0.073-3.048,2.057c0.082,1.86,1.208,2.912,3.282,3.092c2.457,0.213,3.077-1.752,3.192-3.118
			C177.567,93.185,175.722,92.909,173.968,93.188z M205.147,73.845c-0.022-2.25-1.606-3.634-3.191-2.899
			c-1.115,0.518-2.105,1.087-3.38,1.234c-0.869,0.101-0.843,1.078-0.878,1.863c-0.038,0.84,0.161,1.57,0.93,1.889
			c0.644,0.266,1.417,0.075,1.71-0.614c0.672-1.573,1.762-0.461,2.353-0.214C204.614,75.911,205.102,75.077,205.147,73.845z
			 M31.572,63.676c-1.11-0.787-0.826-3.282-3.079-3.01c-1.322,0.159-3.3,0.271-3.342,2.473c-0.052,2.668,2.18,2.732,3.884,3.083
			C30.456,66.516,31.191,65.421,31.572,63.676z M379.674,109.951c0.442,1.605,0.395,3.323,1.793,4.362
			c0.543,0.402,0.901,1.559,1.771,0.897c0.605-0.461,1.402-1.648,1.202-2.019c-0.74-1.366-0.008-3.035-1.07-4.259
			c-0.607-0.698-1.052-1.672-2.206-1.475C379.652,107.719,380.237,109.295,379.674,109.951z M137.143,52.797
			c0,0.376,0.042,0.758-0.007,1.128c-0.217,1.619,1.012,2.348,2.043,3.061c0.561,0.388,1.53,0.43,2.058-0.27
			c0.816-1.083,0.679-2.219-0.035-3.358c-0.23-0.367-0.104-0.958-0.335-1.323c-0.596-0.94-0.83-2.456-2.433-2.142
			C136.755,50.221,137.176,51.647,137.143,52.797z M229.714,74.015c0.021-1.876-2.089-4.417-3.714-4.124
			c-0.926,0.168-2.116,0.652-2.038,2.223c0.085,1.69,2.194,3.861,4.031,3.888C229.383,76.023,229.79,75.24,229.714,74.015z
			 M382.271,134.437c-0.029,2.382,0.989,3.843,3.007,4.139c0.947,0.139,2.146-0.428,2.161-1.918
			c0.018-1.754-1.981-4.756-3.248-4.629C382.615,132.188,381.93,133.123,382.271,134.437z M134.854,79.947
			c0.042,1.838,1.486,3.585,2.792,3.453c1.574-0.159,2.651-1.18,3.315-2.482c0.32-0.627-3.218-3.18-4.22-3.216
			C134.937,77.636,134.758,78.756,134.854,79.947z M373.789,142.291c-1.976-0.133-3.239,0.993-3.396,2.62
			c-0.148,1.535,1.211,3.144,2.656,2.907c1.49-0.243,2.875-1.574,2.965-3.549C376.089,142.568,375.175,142.144,373.789,142.291z
			 M148.948,90.869c-1.622-0.456-2.028,1.135-2.453,1.989c-0.467,0.938,2.332,3.146,3.637,3.158
			c1.427,0.014,2.501-1.344,2.293-1.963C151.926,92.568,151.333,90.627,148.948,90.869z M385.104,148.418
			c0.489-1.988-0.745-3.429-2.203-3.651c-1.258-0.192-2.729,1.644-2.571,2.792c0.248,1.797,2.23,2.687,3.881,2.959
			C385.503,150.731,385,149.207,385.104,148.418z M166.283,107.316c-0.308-2.858-3.022-0.838-4.276-1.927
			c-0.098-0.085-2.319-0.091-2.039,1.818c0.341,2.32,2.469,1.736,3.77,2.315C164.083,109.676,166.592,109.465,166.283,107.316z
			 M192.371,101.102c1.726,0.161,2.569-0.296,2.491-1.846s-0.902-2.486-2.392-2.658c-1.612-0.186-2.581,0.898-2.69,2.284
			C189.624,100.833,191.48,100.706,192.371,101.102z M20.003,169.149c0.554-1.508-1.117-1.988-2.075-2.136
			c-1.121-0.173-1.898,0.883-1.948,2.238c-0.053,1.445,0.556,2.57,1.906,2.663C19.278,172.011,20.035,170.95,20.003,169.149z
			 M198.53,93.71c1.23,0.083,2.236-0.317,1.987-1.68c-0.218-1.189-0.841-2.308-2.397-2.324c-1.14-0.011-2.31,0.171-2.042,1.582
			C196.304,92.48,196.702,93.961,198.53,93.71z M355.417,135.29c0.074-1.697-0.627-2.17-1.894-2.161
			c-1.154,0.008-2.059,0.188-2.097,1.614c-0.036,1.353,0.759,2.232,1.913,2.323C354.581,137.165,355.285,136.194,355.417,135.29z
			 M379.426,142.718c0.112-0.551-0.231-1.449-0.813-1.292c-0.716,0.194-1.551,0.969-1.771,1.67c-0.184,0.583,0.725,1.352,1.41,1.386
			C379.132,144.527,379.458,143.75,379.426,142.718z M293.708,150.578c0.086-0.686-0.424-1.283-0.847-1.285
			s-0.873,0.596-0.874,1.277c-0.002,0.681,0.448,1.279,0.868,1.281C293.281,151.853,293.789,151.255,293.708,150.578z"/>
		<path style="fill-rule:evenodd;clip-rule:evenodd;fill:#7B491E;" d="M304.122,21.671c4.799,0.723,9.471,1.589,13.943,3.933
			c4.717,2.471,6.853,6.235,9.061,10.848c2.133,4.454,4.531,9.517,9.812,11.653c4.061,1.642,2.808,5.997,0.329,7.835
			c-1.935,1.435-3.677,3.094-5.736,4.413c-1.95,1.249-2.57,3.65-2.351,5.969c0.259,2.738-0.533,4.932-2.551,6.778
			c-1.406,1.286-1.185,2.737-0.365,4.324c1.944,3.763,2.881,7.643,0.603,11.627c-1.188,2.077-3.545,3.175-5.436,3.319
			c-2.869,0.218-4.737,2.401-7.458,2.721c-1.215,0.143-0.899,2.076-1.576,3.072c-1.284,1.887-1.648,3.775-0.406,5.984
			c2.433,4.325,1.145,9.124,0.975,13.641c-0.125,3.296,1.283,5.916,2.037,8.8c0.534,2.047-0.562,5.734-2.936,7.107
			c-2.392,1.385-2.969,1.419-5.207-1.822c-1.479-2.143-2.724-4.446-4.172-6.612c-0.725-1.084-0.371-2.206-0.372-3.295
			c-0.002-2.92-1.116-5.576-1.684-8.296c-0.727-3.474-2.86-7.267-0.617-11.146c0.825-1.427-0.094-3.166-0.3-4.746
			c-0.051-0.388-0.648-0.838-1.372-0.392c-2.633,1.627-5.24,0.614-8.022,0.196c-4.851-0.73-9.86-1.343-14.618,0.824
			c-0.164,0.075-0.36,0.199-0.427,0.351c-1.996,4.514-6.88,4.389-10.459,6.064c-4.133,1.933-7.497,4.378-9.829,8.102
			c-1.575,2.514-4.031,3.634-6.403,4.636c-1.655,0.699-3.412,1.67-5.566,1.38c-3.02-0.406-4.899-1.905-4.677-4.978
			c0.18-2.488-1.101-4.852-0.52-7.272c0.934-3.89,4.143-5.604,7.511-6.608c5.429-1.616,8.495-5.482,11.405-9.979
			c3.343-5.166,5.277-11.144,9.357-15.842c0.625-0.719,0.807-1.424,0.77-2.309c-0.129-3.121,1.139-5.957,1.906-8.889
			c0.141-0.538,0.563-1.095,0.289-1.592c-2.506-4.54-0.218-8.817,0.653-13.175c1.119-5.602,5.281-9.306,8.473-13.614
			c0.439-0.594,0.955-1.085,1.339-1.772c4.073-7.3,11.101-9.559,18.714-10.556C300.172,22.098,302.074,21.234,304.122,21.671z
			 M314.834,43.797c0.195-0.918-0.491-0.87-1.191-0.953c-2.111-0.25-3.469,1.024-4.773,2.341c-0.261,0.263-0.363,0.952-0.209,1.297
			c0.275,0.612,1.034,0.485,1.5,0.328c1.292-0.437,2.479-1.119,3.891-1.292C314.741,45.433,314.932,44.621,314.834,43.797z"/>
		<path style="fill-rule:evenodd;clip-rule:evenodd;fill:#7B491E;" d="M24.753,87.507c-0.638,2.165-1.06,4.427-1.983,6.464
			c-0.703,1.551-0.506,1.974,1.036,2.658c3.825,1.698,7.966,3.207,7.696,8.725c-0.08,1.625,1.55,2.597,2.795,3.486
			c2.853,2.038,3.043,5.503,0.362,7.791c-0.527,0.449-1.351,0.725-1.216,1.621c0.156,1.039,1.019,0.969,1.813,1.264
			c1.477,0.547,2.831,1.559,2.997,3.345c0.082,0.882,0.391,1.942-0.623,2.606c-0.945,0.62-1.51-0.393-2.202-0.505
			c-1.828-0.297-3.242-1.606-5.225-1.635c-1.648-0.022-2.787-1.3-3.407-3.07c-0.595-1.698-0.737-3.006,0.829-4.201
			c1.806-1.378,2.482-2.718,0.297-4.605c-0.731-0.632-1.902-1.782-0.823-3.743c0.802-1.457-1.212-3.623-1.035-5.721
			c0.036-0.428-1.072-0.395-1.431-0.005c-1.432,1.555-2.543,0.796-3.9-0.189c-0.909-0.66-1.957-1.138-3.251-1.335
			c-2.277-0.348-2.354-2.548-1.956-4.24c0.352-1.498,0.443-2.945,0.481-4.44c0.012-0.462-0.055-1.135,0.209-1.348
			c1.78-1.439,3.348-2.95,4.101-5.248c0.286-0.871,1.568-1.832,2.375-1.445C24.043,84.384,25.073,85.65,24.753,87.507z"/>
		<path style="fill-rule:evenodd;clip-rule:evenodd;fill:#7B491E;" d="M57.262,47.28c1.581,1.465,3.597,2.829,4.936,4.682
			c2.621,3.627,4.646,7.604,5.343,12.151c0.107,0.701,0.984,1.364,1.633,1.886c1.525,1.224,2.355,2.47,0.86,4.307
			c-0.562,0.69-0.388,1.374-0.156,2.361c0.574,2.442,1.294,5.191-0.588,7.495c-1.444,1.768-1.536,3.811-1.239,5.826
			c0.324,2.199-1.348,2.551-2.594,2.953c-1.429,0.46-2.649-0.263-3.24-1.825c-0.983-2.594-1.292-5.741,0.977-7.813
			c2.104-1.923,2.801-4.427,1.226-7.036c-0.993-1.643,0.524-2.047,1.187-2.645c1.777-1.605,0.938-2.669-0.694-3.133
			c-2.562-0.727-3.217-2.257-3.263-4.758c-0.072-3.922-1.465-7.388-5.391-9.018c-1.785-0.741-1.415-2.025-1.363-3.26
			C54.944,48.285,55.799,47.687,57.262,47.28z"/>
		<path style="fill-rule:evenodd;clip-rule:evenodd;fill:#7B491E;" d="M76.634,162.731c-1.374,1.757-0.135,3.442,0.458,5.251
			c0.22,0.672,0.576,1.456,0.081,2.322c-0.756,1.321-5.7,3.771-7.326,3.441c-1.247-0.253-1.618,0.289-2.098,1.453
			c-0.516,1.25-1.447,2.532-3.271,2.546c-1.706,0.012-1.494-1.775-2.508-2.378c-0.175-0.104-0.317-0.582-0.228-0.768
			c1.679-3.464,0.47-7.355,1.655-10.908c0.62-1.855,1.039-3.352,3.618-3.268c1.94,0.062,3.515-1.306,4.898-2.833
			c1.782-1.968,3.051-1.61,3.919,0.817c0.093,0.262,0.203,0.572,0.147,0.824C75.717,160.418,76.619,161.378,76.634,162.731z"/>
		<path style="fill-rule:evenodd;clip-rule:evenodd;fill:#7B491E;" d="M53.143,50.645c0.179,1.417-0.422,2.628-1.461,3.68
			c-0.625,0.632-1.259,0.729-2.014,0.21c-0.88-0.605-1.305-2.22-2.601-1.782c-1.626,0.55-3.516,0.884-4.641,2.312
			c-1.364,1.731-2.598,1.74-4.196,0.384c-0.949-0.805-1.943-1.024-2.577,0.554c-0.228,0.568-0.896,0.96-1.368,1.428
			c-1.21,1.203-2.515,2.665-4.343,1.773c-1.483-0.723-2.211-2.326-1.914-4.064c0.363-2.122,1.271-4.114,3.701-4.196
			c1.753-0.061,3.606-1.438,5.32,0.106c0.263,0.236,0.579,0.258,0.68,0.023c1.312-3.051,3.892-1.973,6.122-1.85
			c1.798,0.1,3.179-0.844,4.713-1.484C51.321,46.589,53.132,47.747,53.143,50.645z"/>
		<path style="fill-rule:evenodd;clip-rule:evenodd;fill:#7B491E;" d="M32.545,127.774c-1.7,3.368-2.78,7.382-5.478,10.576
			c-0.421,0.498-1.283,1.045-1.223,1.465c0.602,4.155-3.467,6.638-3.671,10.54c-0.064,1.223-1.634,2.24-2.817,1.517
			c-1.208-0.737-2.62-1.894-1.979-3.825c0.338-1.02,1.102-1.725,1.864-2.412c0.871-0.785,1.575-1.59,1.354-2.908
			c-0.087-0.521-0.212-1.178,0.305-1.598c3.878-3.15,3.986-7.605,4.27-12.04c0.124-1.938,4.414-4.517,6.268-3.928
			C32.638,125.542,32.616,126.482,32.545,127.774z"/>
		<path style="fill-rule:evenodd;clip-rule:evenodd;fill:#7B491E;" d="M71.805,132.698c2.197-3.696-1.215-6.321-1.921-9.55
			c-0.337-1.542-0.311-3.232-0.095-4.807c0.213-1.551,3.083-1.858,4.432-0.373c2.37,2.609,3.493,5.533,1.211,9.639
			c-0.552,0.993-0.672,1.815,0.308,1.946c2.916,0.39,2.943,2.986,3.531,4.771c0.593,1.8,0.268,3.952,0.113,5.932
			c-0.126,1.611-0.971,1.793-2.311,0.682C74.49,138.794,72.553,136.25,71.805,132.698z"/>
		<path style="fill-rule:evenodd;clip-rule:evenodd;fill:#7B491E;" d="M363.553,169.922c-0.851-1.095-0.56-2.025-1.181-2.746
			c-1.314-1.524-0.787-2.88,0.571-4.138c1.097-1.018,1.972-0.927,3.219-0.093c1.735,1.16,2.706,2.835,1.51,4.349
			c-1.732,2.193-2.175,4.44-1.953,7.018c0.055,0.635-0.146,1.238-0.675,1.439c-1.455,0.555-1.092,1.16-0.213,1.936
			c1.162,1.024,1.33,2.373,0.461,3.517c-1.068,1.406-0.817,2.839-0.767,4.374c0.032,0.969,0.634,2.388-0.431,2.857
			c-0.93,0.41-2.592,0.437-3.249-0.142c-0.757-0.664-1.513-1.906-1.387-3.208c0.286-2.97,0.354-5.999,3.683-7.589
			c0.711-0.339,0.349-1.148-0.542-1.644c-1.27-0.704-1.93-1.939-2.043-3.463C360.423,170.578,360.481,169.042,363.553,169.922z"/>
		<path style="fill-rule:evenodd;clip-rule:evenodd;fill:#7B491E;" d="M146.162,136c-1.388,0.258-2.879,0.176-3.229-1.949
			c-0.295-1.796,1.002-2.739,2.279-3.096c1.532-0.427,1.133-0.844,0.438-1.619c-0.184-0.206-0.507-0.56-0.447-0.669
			c1.478-2.663-0.419-5.666,0.914-8.389c0.736-1.503-1.26-2.467-1.258-4.101c0.001-1.118-1.103-2.207,0.485-3.076
			c1.498-0.819,2.789,0.427,3.232,1.134c0.676,1.078,1.671,2.155,1.734,3.654c0.162,3.864,0.396,7.73-0.725,11.494
			c-0.323,1.084-0.581,1.682,0.368,2.852C151.657,134.34,150.035,136.001,146.162,136z"/>
		<path style="fill-rule:evenodd;clip-rule:evenodd;fill:#7B491E;" d="M347.808,125.727c1.103,0.349,2.871,0.827,2.9,2.264
			c0.031,1.588,3.25,3.688-0.448,4.972c-0.155,0.054-1.732,0.519-0.326,1.363c0.794,0.478,1.319,1.045,0.361,1.99
			c-1.136,1.119-1.456,3.313-3.615,3.044c-2.139-0.268-5.065-4.714-4.964-7.234c0.104-2.595,2.912-6.02,5.251-6.395
			C347.152,125.702,347.346,125.727,347.808,125.727z M346.116,130.281c0.527,1.136-0.563,2.377,0.952,2.83
			c0.365,0.108,0.832-0.121,1.252-0.194C348.06,131.909,347.633,131.021,346.116,130.281z"/>
		<path style="fill-rule:evenodd;clip-rule:evenodd;fill:#7B491E;" d="M199.491,51.973c-0.838,3.991,0.254,7.335,1.484,10.784
			c0.487,1.364,0.229,2.764,1.673,3.926c0.84,0.675,0.323,2.531-0.571,3.304c-0.981,0.848-2.317,0.258-3.403-0.332
			c-1.179-0.642-1.188-1.475-0.485-2.577c0.241-0.379,0.966-1.069,0.094-1.663c-2.172-1.477-1.344-4.31-2.763-6.194
			c-0.405-0.538-0.567-2.143,0.284-2.634c2.242-1.293,1.128-1.96-0.174-3.032c-1.381-1.135-2.488-2.49-1.55-4.605
			c0.691-1.559,1.991-1.08,2.859-0.865C198.994,48.593,199.349,50.417,199.491,51.973z"/>
		<path style="fill-rule:evenodd;clip-rule:evenodd;fill:#7B491E;" d="M74.262,146.974c0.273-1.166-0.516-2.53,0.979-3.543
			c2.59-1.754,5.493-0.627,6.415,2.837c0.825,3.101,0.78,6.124-0.996,9.076c-0.799,1.331-1.72,1.292-2.809,1.188
			c-1.271-0.121-1.362-1.137-1.271-2.131c0.127-1.398-0.086-2.612-1.362-3.471C73.728,149.928,74.464,148.351,74.262,146.974z"/>
		<path style="fill-rule:evenodd;clip-rule:evenodd;fill:#7B491E;" d="M366.23,146.857c-1.438-1.064-3.812,0.255-5.295-1.18
			c-2.049-1.981-2.537-4.876-3.327-7.494c-0.229-0.756-0.124-1.726-0.34-2.641c-0.258-1.094-0.671-2.572,0.649-3.369
			c0.682-0.411,1.446-1.106,2.502-0.238c1.162,0.958,1.771,2.217,1.783,3.5c0.028,2.901,2.448,6.937,5.22,7.999
			c1,0.384,1.247,1.077,1.137,2.004C368.427,146.548,367.963,146.856,366.23,146.857z"/>
		<path style="fill-rule:evenodd;clip-rule:evenodd;fill:#7B491E;" d="M361.378,122.28c-0.858,0.111-1.781,0.058-2.342-1.071
			c-1.155-2.327-4.016-2.251-5.675-3.964c-1.521-1.571-2.329-3.152-1.335-5.263c0.513-1.09,1.277-1.948,2.615-1.665
			c1.219,0.258,1.939,1.045,1.938,2.383c-0.002,0.658-0.16,1.516,0.181,1.928c0.53,0.64,1.024,2.12,2.37,0.837
			c1.278-1.218,2.365-0.676,3.363,0.458c0.375,0.426,0.738,0.96,1.225,1.169c1.603,0.688,2.531,1.868,1.914,3.498
			C364.963,122.355,363.182,122.335,361.378,122.28z"/>
		<path style="fill-rule:evenodd;clip-rule:evenodd;fill:#7B491E;" d="M196.97,43.168c-0.415,1.014-0.862,2.093-1.869,2.395
			c-0.702,0.211-1.47-0.271-1.988-1.043c-1.255-1.869-4.242-2.557-3.579-5.814c0.144-0.704-1.635-0.377-2.51-0.392
			c-2.353-0.039-3.878-0.987-4.404-3.382c-0.4-1.823,0.462-2.627,2.312-2.482c2.958,0.232,5.688,0.556,6.007,4.36
			c0.011,0.126,0.469,0.313,0.715,0.307c3.934-0.104,3.18,4.015,5.133,5.688C196.897,42.901,196.931,43.087,196.97,43.168z"/>
		<path style="fill-rule:evenodd;clip-rule:evenodd;fill:#7B491E;" d="M70.286,95.409c0,2.576-0.019,5.152,0.009,7.729
			c0.01,0.929-0.121,1.798-1.172,1.953c-1.005,0.148-2.093,0.301-2.796-0.824c-1.304-2.087-1.891-4.189-0.428-6.463
			c0.479-0.745,0.944-1.784-0.533-1.745c-1.515,0.04-2.533-0.578-2.422-1.914c0.14-1.679,1.482-2.832,3.076-3.24
			C68.488,90.271,70.354,92.334,70.286,95.409z"/>
		<path style="fill-rule:evenodd;clip-rule:evenodd;fill:#7B491E;" d="M172.269,37.715c-1.027,3.05-3.499,2.565-5.479,2.125
			c-1.524-0.339-2.62-1.833-2.19-3.729c0.4-1.771,2.062-1.558,2.979-1.174c3.364,1.406,6.429,0.637,9.407-0.881
			c1.117-0.569,1.759-0.264,2.431,0.499c0.89,1.009-0.074,1.628-0.57,2.286c-0.445,0.588-0.885,1.179-1.317,1.766
			c-0.678,0.92-1.335,2.139-2.86,1.968C173.068,40.395,172.718,39.122,172.269,37.715z"/>
		<path style="fill-rule:evenodd;clip-rule:evenodd;fill:#7B491E;" d="M150.465,63.996c3.694-0.237,4.634,2.911,6.325,5.102
			c1.109,1.437-0.155,2.423-0.8,3.49c-1.04,1.721-2.478,1.58-3.748,0.448c-1.283-1.143-2.376-2.455-3.906-3.365
			c-0.857-0.509-2.058-1.299-1.244-2.747C147.87,65.542,148.57,64.057,150.465,63.996z"/>
		<path style="fill-rule:evenodd;clip-rule:evenodd;fill:#7B491E;" d="M140.683,62.579c-0.942,2.166-0.656,4.433-0.679,6.67
			c-0.012,1.13-0.767,1.841-1.615,2.083c-0.812,0.232-1.981,0.518-2.613-0.468c-1.043-1.626-3.102-3.223-1.385-5.345
			c1.107-1.37-0.109-2.532,0.266-3.9c0.508-1.851,1.496-2.881,2.902-2.621C139.146,59.29,140.393,60.68,140.683,62.579z"/>
		<path style="fill-rule:evenodd;clip-rule:evenodd;fill:#7B491E;" d="M141.766,100.97c0.227-0.673-0.659-1.834,0.663-2.068
			c0.901-0.16,1.892-0.248,2.595,0.662c1.215,1.572,3.412,2.628,2.447,5.279c-0.379,1.043,1.016,0.841,1.418,1.443
			c0.584,0.877,2.219,1.605,1.071,2.746c-1.018,1.011-2.537,2.406-4.12,1.526c-1.619-0.899-3.361-2.237-2.941-4.524
			C143.251,104.107,140.876,102.945,141.766,100.97z"/>
		<path style="fill-rule:evenodd;clip-rule:evenodd;fill:#7B491E;" d="M210.122,69.715c-2.968-0.015-5.862-1.895-6.592-4.413
			c-0.468-1.614-0.269-3.362,1.421-4.169c1.426-0.681,2.769,0.281,3.862,1.167c1.123,0.908,2.037,2.07,3.116,3.04
			c0.903,0.812,1.645,1.709,1.087,2.919C212.448,69.49,211.33,69.981,210.122,69.715z"/>
		<path style="fill-rule:evenodd;clip-rule:evenodd;fill:#7B491E;" d="M140.7,83.365c3.075,0.346,4.343,3.178,2.91,5.305
			c-0.823,1.223-0.051,2.435-0.034,3.643c0.017,1.203,0.172,2.642-1.111,2.973c-1.226,0.316-2.152-0.6-3.111-1.705
			c-2.67-3.077-0.849-5.995-0.225-8.989C139.381,83.378,140.276,83.268,140.7,83.365z"/>
		<path style="fill-rule:evenodd;clip-rule:evenodd;fill:#7B491E;" d="M364.983,148.001c1.072-0.256,1.663,0.578,2.274,1.276
			c1.906,2.177,2.212,6.72,0.495,8.926c-0.853,1.097-2.063,1.467-3.404,0.626c-1.392-0.873-2.265-2.611-1.278-3.528
			c1.594-1.481,0.484-2.066-0.161-3.125C361.652,150.115,362.722,147.973,364.983,148.001z"/>
		<path style="fill-rule:evenodd;clip-rule:evenodd;fill:#7B491E;" d="M173.897,82.288c1.282,0.354,3.391-0.908,4.215,0.861
			c0.762,1.639-1.242,2.684-1.957,4.03c-0.652,1.229-1.195,2.573-2.753,1.899c-1.959-0.847-4.735-0.701-5.366-3.508
			c-0.496-2.205,1.157-2.867,2.812-3.246C171.75,82.118,172.736,82.288,173.897,82.288z"/>
		<path style="fill-rule:evenodd;clip-rule:evenodd;fill:#7B491E;" d="M217.953,78.266c-1.125,0.191-1.955,0.055-2.201-1.556
			c-0.134-0.883-1.253-1.573-1.746-2.452c-0.773-1.379-1.685-2.919-0.168-4.321c1.15-1.062,2.371-2,4.194-0.828
			c1.724,1.107,3.477,2.055,2.327,4.433c-0.546,1.126-0.854,2.002-0.427,3.291C220.476,78.471,219.116,78.322,217.953,78.266z"/>
		<path style="fill-rule:evenodd;clip-rule:evenodd;fill:#7B491E;" d="M380.097,126.775c-0.729-1.553,1.302-2.426,1.125-3.318
			c-0.215-1.08-2.221-1.03-3.057-2.145c-0.727-0.969-0.663-2.035-0.204-2.914c0.518-0.991,1.68-1.857,2.695-1.683
			c0.973,0.167,1.889,1.151,2.183,2.333c0.066,0.269,0.007,0.566,0.02,0.851c0.076,1.718-0.923,3.659,1.117,4.977
			c0.315,0.204,0.438,0.801,0.527,1.241c0.296,1.465-0.06,2.794-1.099,3.868c-0.421,0.435-1.05,0.461-1.553,0.085
			C380.767,129.258,379.412,128.568,380.097,126.775z"/>
		<path style="fill-rule:evenodd;clip-rule:evenodd;fill:#7B491E;" d="M13.669,161.595c0.05-1.022-0.113-1.775,0.151-2.32
			c0.716-1.477,1.363-3.338,3.397-3.217c2.042,0.122,2.54,1.86,2.777,3.587c0.218,1.59,0.696,3.422-0.645,4.553
			c-0.927,0.782-2.173,2.389-3.616,1.318C14.455,164.568,13.38,163.13,13.669,161.595z"/>
		<path style="fill-rule:evenodd;clip-rule:evenodd;fill:#7B491E;" d="M180.534,106.253c-0.047,1.105,1.239,2.517-0.238,3.238
			c-1.168,0.57-2.492,0.481-3.666-0.816c-1.007-1.113-2.629-0.146-2.965,1.38c-0.172,0.78-0.374,2.409-1.472,1.815
			c-1.183-0.64-3.114-1.326-2.657-3.394c0.854-3.866,3.261-4.836,7.024-3.12c1.238,0.565,2.691,0.658,4.045,0.968L180.534,106.253z"
			/>
		<path style="fill-rule:evenodd;clip-rule:evenodd;fill:#7B491E;" d="M181.793,57.18c2.121-0.386,3.524,1.28,3.668,2.605
			c0.129,1.19-0.802,3.083-3.098,3.174c-1.624,0.063-3.138,1.645-4.927,0.386c-0.997-0.701-1.595-1.521-1.458-2.841
			c0.126-1.224,0.808-1.98,1.873-2.167C179.23,58.097,180.248,56.735,181.793,57.18z"/>
		<path style="fill-rule:evenodd;clip-rule:evenodd;fill:#7B491E;" d="M159.92,98.587c-1.562,1.277,0.584,2.062,0.8,2.185
			c1.749,0.992,0.945,2.538,0.896,3.771c-0.043,1.078-1.246,0.632-1.865,0.55c-1.578-0.21-2.256-1.322-2.016-2.836
			c0.307-1.925-1.406-1.839-2.329-2.566c-1.333-1.052-3.525-1.863-1.523-4.121c0.65-0.732,1.381-1.927,2.556-1.035
			C157.85,95.605,160.365,95.811,159.92,98.587z"/>
		<path style="fill-rule:evenodd;clip-rule:evenodd;fill:#7B491E;" d="M73.783,111.822c-0.201,1.49,0.415,2.858-0.906,3.476
			c-1.342,0.628-2.309-0.259-3.111-1.245c-0.774-0.95-2.116-1.162-2.789-2.268c-1.001-1.647-1.051-3.466,0.454-4.472
			c1.443-0.966,3.484-1.092,4.761,0.659C73.088,109.201,74.284,110.443,73.783,111.822z"/>
		<path style="fill-rule:evenodd;clip-rule:evenodd;fill:#7B491E;" d="M148,143.583c0,0.285-0.023,0.572,0.004,0.854
			c0.135,1.386,0.059,2.93-1.387,3.367c-1.353,0.41-2.366-0.851-3.188-1.844c-1.246-1.507-0.674-6.874,0.724-8.126
			c1.281-1.149,2.125-0.971,2.706,0.656c0.339,0.95,0.856,1.849,1.096,2.819c0.177,0.717,0.035,1.512,0.035,2.272
			C147.993,143.583,147.997,143.583,148,143.583z"/>
		<path style="fill-rule:evenodd;clip-rule:evenodd;fill:#7B491E;" d="M360.513,111.997c-1.239-0.137-2.197-0.802-2.179-2.085
			c0.021-1.533-0.897-1.57-1.81-1.273c-1.75,0.57-2.324-0.788-2.4-1.766c-0.13-1.689,0.345-3.258,2.481-3.822
			c1.447-0.384,2.351-0.034,3.167,1.043c0.058,0.075,0.185,0.197,0.174,0.211c-2.272,2.729,0.942,2.932,1.923,4.143
			c0.692,0.855,0.502,1.804,0.269,2.68C361.957,111.807,361.304,112.125,360.513,111.997z"/>
		<path style="fill-rule:evenodd;clip-rule:evenodd;fill:#7B491E;" d="M382.858,102.375c0.509,1.385-0.819,2.131-1.644,2.635
			c-0.806,0.493-1.946,0.265-2.795-0.914c-0.873-1.212-1.677-2.643-3.398-3.159c-0.788-0.235-1.161-1.053-0.831-2.263
			c0.384-1.412,1.241-0.904,1.943-0.937C379.086,97.597,382.844,100.149,382.858,102.375z"/>
		<path style="fill-rule:evenodd;clip-rule:evenodd;fill:#7B491E;" d="M237.478,73.145c1.646-0.014,6.416,3.362,6.905,4.702
			c0.471,1.289-0.792,1.54-1.334,2.176c-0.595,0.697-1.148,0.933-1.997-0.088c-0.817-0.984-1.955-1.812-3.573-1.7
			c-1.853,0.13-2.619-1.437-2.52-2.875C235.047,74.093,235.964,72.869,237.478,73.145z"/>
		<path style="fill-rule:evenodd;clip-rule:evenodd;fill:#7B491E;" d="M383.424,165.329c0.108-1.707-0.533-4.32,2.128-4.406
			c1.918-0.062,3.42,1.438,3.079,4.026c-0.293,2.23-1.923,5.021-3.441,4.673C382.934,169.105,383.48,167.083,383.424,165.329z"/>
		<path style="fill-rule:evenodd;clip-rule:evenodd;fill:#7B491E;" d="M368.823,106.251c-1.088,0.256-1.789-0.376-2.172-1.099
			c-0.53-1.001-1.297-1.554-2.316-1.696c-1.249-0.175-1.424-0.929-1.506-1.986c-0.087-1.124,0.454-1.864,1.269-2.354
			c0.862-0.52,1.772-0.43,2.559,0.379c1.214,1.251,2.496,2.434,3.726,3.669c0.578,0.581,1.122,1.112,0.484,2.106
			C370.315,106.132,369.685,106.415,368.823,106.251z"/>
		<path style="fill-rule:evenodd;clip-rule:evenodd;fill:#7B491E;" d="M160.588,41.437c-0.247,1.871-0.107,4.089-2.461,4.751
			c-1.155,0.326-3.284-3.44-3.262-5.555c0.021-1.923,1.656-2.866,2.938-2.741C159.39,38.047,161.005,39.165,160.588,41.437z"/>
		<path style="fill-rule:evenodd;clip-rule:evenodd;fill:#7B491E;" d="M22.87,78.993c-0.465-1.605,0.771-2.502,1.86-3.345
			c0.556-0.429,1.544-0.538,2.051,0.146c0.832,1.124,2.203,2.139,1.352,3.877c-0.042,0.085-0.115,0.179-0.104,0.26
			c0.243,1.791-0.344,3.945-2.02,3.703C24.218,83.374,22.625,81.534,22.87,78.993z"/>
		<path style="fill-rule:evenodd;clip-rule:evenodd;fill:#7B491E;" d="M204.233,81.085c-2.425,0.835-2.858,3.46-4.488,5.099
			c-0.54,0.544-1.965,0.245-2.7-1.148c-0.911-1.727,0.261-3.182,0.97-3.56c1.042-0.553,1.363-1.206,1.751-2.093
			c0.361-0.826,0.697-2.029,1.896-1.602C202.897,78.22,203.836,79.178,204.233,81.085z"/>
		<path style="fill-rule:evenodd;clip-rule:evenodd;fill:#7B491E;" d="M23.404,71.145c0.021-2.48,1.041-4.164,3.122-4.162
			c1.584,0.001,2.672,1.402,2.636,3.309c-0.041,2.136-1.105,3.764-3.077,3.827C24.454,74.171,23.087,72.888,23.404,71.145z"/>
		<path style="fill-rule:evenodd;clip-rule:evenodd;fill:#7B491E;" d="M148.032,45.108c-0.088,1.281-1.271,2.561-1.781,2.192
			c-1.942-1.405-4.81,2.002-6.059-1.252c-0.3-0.783,0.102-2.235,0.976-2.534c1.455-0.499,2.732-2.03,4.49-1.213
			C146.863,42.862,147.87,43.702,148.032,45.108z"/>
		<path style="fill-rule:evenodd;clip-rule:evenodd;fill:#7B491E;" d="M350.305,122.539c-0.46-1.741,0.72-3.158,2.048-3.422
			c1.139-0.227,2.236,1.088,1.955,2.756c-0.196,1.162,1.03,1.68,1.438,2.624c0.504,1.166,0.041,1.757-0.678,2.441
			c-0.927,0.882-1.749,0.581-2.391-0.289C351.753,125.396,349.98,124.633,350.305,122.539z"/>
		<path style="fill-rule:evenodd;clip-rule:evenodd;fill:#7B491E;" d="M180.605,106.325c0.154-1.259-0.72-3.242,0.604-3.613
			c1.73-0.483,3.279-1.632,5.172-1.575c1.659,0.049,1.908,1.418,2.118,2.502c0.233,1.202-0.789,1.369-1.826,1.543
			c-2.047,0.344-3.926,1.637-6.139,1.072L180.605,106.325z"/>
		<path style="fill-rule:evenodd;clip-rule:evenodd;fill:#7B491E;" d="M381.125,154.961c-0.001-0.866-0.144-1.84,0.843-2.234
			c0.788-0.316,1.526-0.166,2.348,0.392c2.497,1.695,3.119,3.175,1.978,5.206c-0.971,1.729-2.344,1.808-3.42,0.458
			C382.035,157.733,381.075,156.512,381.125,154.961z"/>
		<path style="fill-rule:evenodd;clip-rule:evenodd;fill:#7B491E;" d="M173.968,93.188c1.753-0.279,3.599-0.002,3.426,2.031
			c-0.116,1.366-0.736,3.331-3.192,3.118c-2.075-0.18-3.201-1.231-3.282-3.092C170.833,93.261,172.279,92.848,173.968,93.188z"/>
		<path style="fill-rule:evenodd;clip-rule:evenodd;fill:#7B491E;" d="M205.147,73.845c-0.045,1.231-0.533,2.065-2.457,1.259
			c-0.591-0.247-1.681-1.359-2.353,0.214c-0.294,0.688-1.067,0.88-1.71,0.614c-0.769-0.319-0.968-1.049-0.93-1.889
			c0.036-0.785,0.01-1.763,0.878-1.863c1.275-0.147,2.265-0.716,3.38-1.234C203.541,70.211,205.125,71.596,205.147,73.845z"/>
		<path style="fill-rule:evenodd;clip-rule:evenodd;fill:#7B491E;" d="M31.572,63.676c-0.381,1.745-1.116,2.84-2.537,2.547
			c-1.704-0.351-3.936-0.416-3.884-3.083c0.042-2.202,2.02-2.314,3.342-2.473C30.746,60.394,30.462,62.889,31.572,63.676z"/>
		<path style="fill-rule:evenodd;clip-rule:evenodd;fill:#7B491E;" d="M379.674,109.951c0.562-0.655-0.022-2.231,1.489-2.492
			c1.154-0.197,1.599,0.776,2.206,1.475c1.062,1.224,0.33,2.893,1.07,4.259c0.2,0.37-0.597,1.558-1.202,2.019
			c-0.869,0.661-1.228-0.495-1.771-0.897C380.069,113.274,380.117,111.556,379.674,109.951z"/>
		<path style="fill-rule:evenodd;clip-rule:evenodd;fill:#7B491E;" d="M137.143,52.797c0.034-1.149-0.388-2.576,1.291-2.904
			c1.603-0.314,1.837,1.202,2.433,2.142c0.231,0.365,0.105,0.956,0.335,1.323c0.714,1.139,0.852,2.275,0.035,3.358
			c-0.527,0.699-1.497,0.658-2.058,0.27c-1.031-0.712-2.26-1.441-2.043-3.061C137.186,53.555,137.143,53.173,137.143,52.797z"/>
		<path style="fill-rule:evenodd;clip-rule:evenodd;fill:#7B491E;" d="M229.713,74.015c0.076,1.225-0.33,2.008-1.72,1.988
			c-1.837-0.027-3.946-2.198-4.031-3.888c-0.078-1.571,1.112-2.055,2.038-2.223C227.625,69.598,229.735,72.139,229.713,74.015z"/>
		<path style="fill-rule:evenodd;clip-rule:evenodd;fill:#7B491E;" d="M382.271,134.437c-0.341-1.314,0.344-2.249,1.92-2.408
			c1.267-0.127,3.266,2.875,3.248,4.629c-0.016,1.49-1.214,2.057-2.161,1.918C383.26,138.28,382.242,136.819,382.271,134.437z"/>
		<path style="fill-rule:evenodd;clip-rule:evenodd;fill:#7B491E;" d="M134.854,79.947c-0.095-1.191,0.083-2.312,1.888-2.246
			c1.002,0.037,4.541,2.589,4.22,3.216c-0.665,1.302-1.742,2.323-3.315,2.482C136.34,83.533,134.895,81.786,134.854,79.947z"/>
		<path style="fill-rule:evenodd;clip-rule:evenodd;fill:#7B491E;" d="M373.789,142.291c1.387-0.146,2.301,0.277,2.225,1.979
			c-0.09,1.975-1.475,3.306-2.965,3.549c-1.445,0.236-2.805-1.372-2.656-2.907C370.549,143.284,371.813,142.158,373.789,142.291z"/>
		<path style="fill-rule:evenodd;clip-rule:evenodd;fill:#7B491E;" d="M148.948,90.869c2.385-0.241,2.978,1.7,3.477,3.184
			c0.208,0.619-0.866,1.978-2.293,1.963c-1.305-0.013-4.104-2.22-3.637-3.158C146.919,92.003,147.326,90.413,148.948,90.869z"/>
		<path style="fill-rule:evenodd;clip-rule:evenodd;fill:#7B491E;" d="M385.104,148.418c-0.104,0.788,0.399,2.312-0.894,2.1
			c-1.65-0.272-3.633-1.162-3.881-2.959c-0.158-1.148,1.313-2.984,2.571-2.792C384.359,144.99,385.593,146.43,385.104,148.418z"/>
		<path style="fill-rule:evenodd;clip-rule:evenodd;fill:#7B491E;" d="M166.283,107.316c0.309,2.149-2.199,2.36-2.545,2.207
			c-1.301-0.579-3.429,0.005-3.77-2.315c-0.281-1.909,1.941-1.903,2.039-1.818C163.26,106.478,165.975,104.458,166.283,107.316z"/>
		<path style="fill-rule:evenodd;clip-rule:evenodd;fill:#7B491E;" d="M192.371,101.102c-0.891-0.396-2.747-0.269-2.592-2.22
			c0.109-1.386,1.078-2.47,2.69-2.284c1.49,0.172,2.313,1.108,2.392,2.658S194.096,101.263,192.371,101.102z"/>
		<path style="fill-rule:evenodd;clip-rule:evenodd;fill:#7B491E;" d="M20.003,169.149c0.032,1.801-0.725,2.862-2.116,2.766
			c-1.35-0.093-1.959-1.218-1.906-2.663c0.05-1.355,0.827-2.411,1.948-2.238C18.886,167.161,20.557,167.641,20.003,169.149z"/>
		<path style="fill-rule:evenodd;clip-rule:evenodd;fill:#7B491E;" d="M198.53,93.71c-1.828,0.25-2.226-1.23-2.452-2.421
			c-0.268-1.411,0.901-1.593,2.042-1.582c1.556,0.016,2.18,1.135,2.397,2.324C200.766,93.393,199.76,93.793,198.53,93.71z"/>
		<path style="fill-rule:evenodd;clip-rule:evenodd;fill:#7B491E;" d="M355.417,135.29c-0.132,0.904-0.836,1.875-2.077,1.776
			c-1.154-0.091-1.949-0.971-1.913-2.323c0.038-1.427,0.942-1.606,2.097-1.614C354.79,133.12,355.491,133.592,355.417,135.29z"/>
		<path style="fill-rule:evenodd;clip-rule:evenodd;fill:#7B491E;" d="M379.426,142.718c0.031,1.031-0.294,1.809-1.175,1.764
			c-0.686-0.034-1.594-0.803-1.41-1.386c0.221-0.701,1.056-1.476,1.771-1.67C379.195,141.269,379.539,142.167,379.426,142.718z"/>
		<path style="fill-rule:evenodd;clip-rule:evenodd;fill:#7B491E;" d="M293.708,150.575c0.081,0.681-0.427,1.278-0.853,1.276
			c-0.42-0.002-0.87-0.601-0.868-1.281c0.001-0.682,0.451-1.279,0.874-1.277S293.793,149.892,293.708,150.575z"/>
		<path style="fill-rule:evenodd;clip-rule:evenodd;fill:none;" d="M314.834,43.797c0.098,0.824-0.094,1.635-0.783,1.721
			c-1.411,0.173-2.599,0.855-3.891,1.292c-0.466,0.157-1.225,0.284-1.5-0.328c-0.154-0.345-0.052-1.035,0.209-1.297
			c1.305-1.317,2.662-2.592,4.773-2.341C314.343,42.927,315.03,42.879,314.834,43.797z"/>
		<path style="fill-rule:evenodd;clip-rule:evenodd;fill:none;" d="M346.116,130.281c1.518,0.74,1.944,1.628,2.204,2.636
			c-0.42,0.073-0.887,0.303-1.252,0.194C345.552,132.658,346.643,131.417,346.116,130.281z"/>
	</g>
</g>
</svg>
