<?xml version="1.0" encoding="iso-8859-1"?>
<!-- Generator: Adobe Illustrator 16.0.0, SVG Export Plug-In . SVG Version: 6.00 Build 0)  -->
<!DOCTYPE svg PUBLIC "-//W3C//DTD SVG 1.1//EN" "http://www.w3.org/Graphics/SVG/1.1/DTD/svg11.dtd">
<svg version="1.1" id="Layer_1" xmlns="http://www.w3.org/2000/svg" xmlns:xlink="http://www.w3.org/1999/xlink" x="0px" y="0px"
	 width="401.576px" height="218.83px" viewBox="0 0 401.576 218.83" style="enable-background:new 0 0 401.576 218.83;"
	 xml:space="preserve">
<g>
	<g>
		<path style="fill:none;" d="M200.788,218.285c-66.019,0-132.037-0.009-198.055,0.045c-1.823,0.002-2.234-0.41-2.233-2.232
			c0.054-71.121,0.054-142.244,0-213.365C0.499,0.911,0.911,0.5,2.733,0.5c132.037,0.05,264.074,0.05,396.11,0
			c1.822,0,2.234,0.411,2.233,2.233c-0.054,71.121-0.054,142.244,0,213.365c0.001,1.822-0.411,2.234-2.233,2.232
			C332.825,218.276,266.807,218.285,200.788,218.285z M58.877,42.882c-0.578-0.209-1.175-0.376-1.729-0.637
			c-1.989-0.933-2.6-0.546-2.651,1.727c-0.011,0.479-0.012,0.96,0,1.439c0.021,0.775-0.242,1.696,0.643,2.145
			c1.053,0.534,1.465-0.589,2.188-0.951c1.692-0.847,1.637-2.263,1.508-3.769c0.153-0.151,0.236-0.295,0.552-0.18
			c0.938,0.341,1.347-0.212,1.404-1.055c0.043-0.641-0.369-1.196-0.968-1.126c-0.886,0.103-1.081,0.84-0.873,1.633
			C59.026,42.4,59.266,42.655,58.877,42.882z M332.041,107.986c-1.033-0.063-2.05,0.311-3.01,0.348
			c-2.012,0.078-1.253,1.386-1.386,2.327c-0.214,1.504,0.891,1.191,1.707,1.17c0.587-0.016,1.043,0.25,1.559,0.429
			c0.511,0.178,1.071,1.046,1.648,0.216c0.474-0.68,1.236-1.408,0.798-2.318c-0.373-0.772-0.374-1.825-1.371-2.226
			c0.474,0.008,0.95-0.005,1.423,0.029c0.719,0.053,1.294-0.208,1.469-0.9c0.104-0.414,0.092-1.106-0.161-1.31
			c-0.568-0.457-1.379-0.366-2.011-0.075C331.678,106.15,332.073,107.156,332.041,107.986z M34.094,105.505
			c-0.873-2.587-1.776-2.826-4.225-1.402c-1.156,0.673-2.008,1.395-1.583,2.778c0.458,1.493,2.07,1.717,3.195,1.917
			c1,0.177,1.9-0.969,2.105-2.188c0.077-0.458-0.081-0.997,0.565-1.167c0.048,0.833-0.557,2.089,0.321,2.409
			c2.088,0.76,3.738,2.32,5.833,2.971c1.033,0.321,1.734-0.534,1.952-1.358c0.187-0.704,0.574-1.853-0.738-2.125
			C39.02,106.819,36.927,104.661,34.094,105.505z M138.133,195.375c0.997-0.114,2.948,0.384,4.849-0.188
			c4.051-1.219,8.484-1.535,11.64-4.875c0.482-0.51,1.032-0.613,1.688-0.749c1.149-0.237,2.178-0.834,3.122-1.584
			c1.814-1.441,3.744-2.742,5.511-4.236c2.266-1.916,5.073-3.701,5.591-6.748c0.534-3.134,3.585-4.94,3.648-8.151
			c0.003-0.173,0.401-0.309,0.486-0.515c1.189-2.903,3.889-5.049,3.852-8.624c-0.021-1.971,0.983-3.931,1.317-5.931
			c0.343-2.053,2.799-4.334-0.453-6.151c-0.185-0.104-0.331-0.37-0.389-0.589c-0.83-3.115-1.124-6.257,0.103-9.318
			c0.33-0.822,0.231-1.905-0.259-1.779c-3.096,0.801-3.618-0.402-3.165-3.186c0.141-0.86-4.533-2.355-5.699-2.086
			c-1.351,0.311-2.444,1.059-4.146,0.795c-2.234-0.346-4.641-1.172-6.884-0.569c-4.743,1.273-9.12,3.492-14.185,4.151
			c-2.939,0.383-6.136,2.108-9.138,3.436c-1.157,0.511-1.545,0.997-1.409,2.05c0.234,1.81-0.594,2.776-2.319,2.874
			c-0.85,0.047-1.259,0.546-1.819,0.993c-3.966,3.17-4.463,7.673-3.995,12.111c0.285,2.704-0.054,4.781-1.366,7.097
			c-0.717,1.265-2.083,2.939-0.895,4.636c1.135,1.619,0.768,2.889-0.285,4.306c-0.999,1.344-1.646,2.845-1.46,4.613
			c0.455,4.328,1.966,8.477,2.172,12.849c0.024,0.51,0.207,1.189,0.566,1.477c2.061,1.649,3.833,3.86,6.817,3.89
			C133.491,195.391,135.351,195.375,138.133,195.375z M181.347,41.794c0-0.889-0.029-1.536,0.005-2.179
			c0.159-2.994-2.813-3.132-4.269-4.645c-1.072-1.113-1.393,0.461-2.048,0.82c-0.461,0.253-0.909,0.369-1.35,0.064
			c-2.566-1.775-5.292-1.726-8.324-1.391c-4.318,0.478-8.354,1.762-11.768,4.143c-2.323,1.62-5.381,3.706-3.859,7.65
			c0.239,0.62-0.228,1.191-0.526,1.516c-1.194,1.304-1.822,2.932-2.688,4.41c-2.592,4.425-4.056,9.284-3.427,14.366
			c0.302,2.438-0.477,4.087-1.888,5.48c-2.998,2.959-5.864,6.029-8.534,9.272c-0.903,1.098-0.64,2.555,0.086,3.763
			c0.744,1.236,1.627,0.225,2.473,0.055c1.879-0.377,3.183-1.542,4.535-2.823c2.346-2.223,2.642-2.105,4.458,0.426
			c0.231,0.322,0.538,0.648,0.884,0.817c1.92,0.936,2.238,2.074,1.084,4.008c-1.525,2.556-0.133,4.743,2.792,4.881
			c0.599,0.028,1.571-0.529,1.728,0.67c0.263,2.001,0.486,3.976-0.425,5.932c-1.088,2.335-0.459,3.341,2.152,4.087
			c1.923,0.55,3.664,1.77,4.006,3.68c0.338,1.89,1.195,3.524,1.701,5.31c0.375,1.324,1.509,1.753,2.773,2.242
			c1.85,0.718,3.792-0.011,5.604,0.823c2.729,1.256,3.378,0.874,4.179-1.98c0.105-0.375,0.333-0.713,0.483-1.077
			c0.854-2.057,0.509-2.641-1.613-2.695c-0.971-0.025-1.944,0.007-2.916-0.007c-4.144-0.057-6.935-2.568-6.596-6.672
			c0.253-3.068,0.243-6.185,0.872-9.224c0.282-1.362-1.208-2.875-0.812-3.536c1.679-2.799,0.217-5.715,0.788-8.5
			c0.229-1.117-0.039-2.107-0.975-3.039c-1.057-1.051-1.146-2.363-0.549-3.942c0.674-1.785,1.92-3.485,1.557-5.587
			c-0.116-0.671,0.434-0.995,0.818-1.387c2.944-3,4.524-6.771,5.972-10.609c1.062-2.814,1.325-5.856,4.172-7.948
			c3.109-2.285,9.151-3.734,12.37-2.242c0.503,0.233,0.406,0.587,0.481,0.962c0.341,1.717,1.226,2.207,2.308,0.652
			c0.73-1.049,1.818-0.864,2.222-0.478c1.162,1.111,2.367,1.395,3.092,0.017c0.755-1.436-0.528-2.278-1.771-2.853
			c-1.466-0.678-3.49-1.007-4.252-2.161C184.931,40.708,183.486,40.774,181.347,41.794z M89.336,181.987
			c-0.887,1.621-2.25,2.512-3.877,3.447c-1.503,0.863-3.046,0.606-4.494,1.256c-3.35,1.503-7.052,1.934-10.639,1.822
			c-2.456-0.076-4.941-0.348-7.42-0.337c-0.537,0.003-1.397-0.449-1.573,0.553c-0.148,0.849-0.023,1.721,1.049,1.814
			c0.814,0.07,0.857,0.48,0.872,1.107c0.043,1.759,1.627,2.022,2.716,2.185c5.776,0.855,11.376-1.056,17.092-1.335
			c0.275-0.014,0.587-0.238,0.798-0.448c1.829-1.824,4.276-2.429,6.512-3.496c2.442-1.165,4.938-2.553,5.446-5.727
			c0.409-2.557,0.519-5.328,3.842-6.111c0.382-0.09,0.936-0.704,0.915-1.046c-0.12-1.986,1.459-2.862,2.615-3.811
			c2.415-1.981,3.809-4.757,5.811-7.05c0.988-1.132,1.734-2.182,3.232-2.624c1.135-0.335,4.471-5.865,3.912-6.778
			c-1.242-2.029-1.43-4.449-2.533-6.396c-1.15-2.031-1.572-4.211-2.169-6.325c-0.678-2.404-1.777-4.371-4.125-5.012
			c-3.496-0.955-6.403-3.976-10.45-3.026c-0.233,0.055-0.545-0.29-0.837-0.405c-2.523-1-5.342-1.122-7.872-1.275
			c-4.801-0.292-8.964,2.85-13.493,4.264c-1.076,0.335-0.939,1.604-0.638,2.326c0.295,0.705,1.08,1.219,2.116,0.583
			c0.75-0.459,2.128-1.098,2.494-0.789c2.51,2.119,5.252,0.634,7.804,0.601c5.657-0.073,8.712,2.541,8.88,8.209
			c0.099,3.345,1.271,4.812,4.624,5.981c1.322,0.461,2.708,0.652,3.984,1.371c1.526,0.859,1.523,1.84,0.489,2.83
			c-1.365,1.309-2.87,2.501-4.438,3.562c-3.408,2.308-6.041,5.156-6.554,9.392c-0.238,1.966-1.301,2.521-2.93,2.236
			c-1.66-0.291-2.919,0.619-4.229,1.205c-1.48,0.663-2.249,4.044-1.167,4.784C86.438,180.438,87.633,181.679,89.336,181.987z
			 M47.71,69.507c-0.196,1.508,0.547,2.461,1.892,1.916c2.218-0.902,2.735-0.1,3.035,1.946c0.154,1.05,0.634,2.808,2.307,2.193
			c1.105-0.406,1.458-0.249,2.054,0.605c0.838,1.203,1.976,0.733,2.961,0.155c0.877-0.514,1.667-1.493,1.473-2.351
			c-0.222-0.981-1.071-1.849-2.498-1.532c-0.746,0.166-2.257,0.009-2.273-0.133c-0.289-2.537-3.021-2.416-4.201-3.968
			c-0.765-1.005-2.024-1.38-3.367-0.932C48.045,67.755,47.47,68.384,47.71,69.507z M12.752,122.452
			c-0.964,1.562,0.699,2.252,0.991,3.37c0.293,1.126,1.238,2.514,2.538,1.931c1.382-0.619,1.105-2.294,0.374-3.34
			c-0.598-0.854-0.856-1.878-0.489-2.449c1.419-2.204,0.333-5.159,2.46-7.2c0.889-0.854,0.809-2.265-0.849-3.06
			c-1.439-0.69-2.435-0.309-2.983,0.887c-0.414,0.901-0.361,2.075,0.054,3.062c0.198,0.47,0.48,1.144,0.111,1.278
			C12.056,117.982,13.667,120.778,12.752,122.452z M66.431,80.887c2.073,0.001,2.667-1.01,3.493-1.701
			c1.173-0.98,0.557-2.327-0.137-2.606c-1.534-0.616-2.385-1.88-3.59-2.777c-1.472-1.096-2.85,0.098-3.755,0.959
			c-0.746,0.709,0.387,1.888,1.095,1.938c2.796,0.199,1.267,3.206,2.865,4.129c0.354,0.205-0.142,0.288-0.284,0.394
			c-2.341,1.747-1.032,3.376-0.03,5.236c1.031,1.915,1.891,0.862,2.318-0.078C69.298,84.416,70.088,82.252,66.431,80.887z
			 M72.428,83.33c-0.395,0.503-2.005-1.158-2.348,0.695c-0.278,1.504-0.038,2.778,2.061,2.564c1.922-0.196,2.592,0.671,1.965,2.559
			c-0.196,0.59-0.148,1.269-0.166,1.908c-0.053,1.901,1.031,2.372,2.442,1.497c1.133-0.703,2.93-1.332,1.971-3.42
			c-0.258-0.563,0.252-0.997,0.537-1.491c0.778-1.353,1.331-2.742-1.25-2.544c-0.497,0.039-0.95,0.099-1.37-0.594
			C75.551,83.316,74.289,82.857,72.428,83.33z M96.817,92.309c-0.455-0.631-0.841-1.76-1.578-2.08
			c-2.296-0.997-3.478-3.133-5.256-4.638c-0.665-0.562-0.839-2.248-2.284-0.889c-0.964,0.906-1.498,1.542-0.41,2.966
			c1.741,2.282,4.221,3.871,5.684,6.406c0.28,0.486,1.307,1.158,2.099,0.625C95.828,94.193,96.712,93.643,96.817,92.309z
			 M299.937,31.655c0-0.7,0.062-1.271-0.014-1.824c-0.172-1.268-0.868-2.037-2.22-2.066c-1.379-0.03-2.046,0.711-2.135,2.028
			c-0.06,0.881-0.028,1.684,0.705,2.417c0.449,0.448,1.146,1.365-0.089,1.818c-1.664,0.61-1.525,1.921-1.635,3.306
			c-0.136,1.736,0.441,2.98,2.166,2.992c1.931,0.013,1.087-1.718,1.274-2.764c0.175-0.977-0.499-2.632,0.407-2.835
			C300.606,34.234,299.709,32.698,299.937,31.655z M97.727,54.643c0.312-1.621-0.902-2.999-1.87-2.886
			c-1.499,0.174-2.424-0.375-3.577-0.959c-1.243-0.629-2.271,0.142-3.207,0.953c-0.741,0.643-0.822,1.517-0.336,2.167
			c0.643,0.861,1.434,2.039,2.743,1.477c1.12-0.48,1.576,0.285,1.857,0.846c0.705,1.404,1.912,1.394,3.005,1.095
			C97.579,56.997,97.965,55.88,97.727,54.643z M240.177,20.236c-0.061,1.078-0.063,1.872,0.975,2.167
			c1.455,0.415,1.88-0.902,2.213-1.646c1.085-2.426,0.829-5.227,1.916-7.711c0.203-0.465-0.26-1.452-0.986-1.688
			c-2.575-0.836-2.063,3.133-4.415,2.906c-0.492-0.048-1.022,0.957-0.577,1.572C240.347,17.28,241.989,18.534,240.177,20.236z
			 M40.718,121.651c-0.866,1.238-1.169,2.148-0.288,3.13c0.792,0.883,1.704,0.733,2.653,0.561c0.379-0.069,0.73-0.321,1.107-0.359
			c1.472-0.147,2.374-1.001,1.958-2.375c-0.394-1.305-1.499-2.585-3.068-1.868c-1.7,0.776-1.65,0.028-1.745-1.248
			c-0.114-1.547-1.455-1.827-2.63-1.758c-1.161,0.068-1.731,0.933-1.725,2.179c0.007,1.499,1.065,1.529,2.092,1.649
			C39.464,121.606,39.859,121.606,40.718,121.651z M239.52,57.576c0.403-1.229-0.644-1.427-0.862-2.131
			c-0.266-0.856-1.209-1.571-1.892-1.047c-0.827,0.636-2.559,0.236-2.479,2.082c0.049,1.115,0.016,1.928,1.447,2.154
			c0.844,0.133,1.778,0.581,1.056,1.941c-0.623,1.175-0.226,2.124,1.114,2.737c0.966,0.442,1.755,0.732,2.56-0.167
			c0.975-1.089,0.538-2.426-0.092-3.186C239.621,59.051,238.019,58.716,239.52,57.576z M353.427,108.044
			c0.49,0.177,0.781,0.361,1.08,0.376c1.18,0.059,2.336-0.256,2.714-1.433c0.364-1.13-0.801-1.724-1.521-2.223
			c-1.133-0.785-1.817,0.375-2.31,1.072c-1.218,1.725-1.578,0.377-1.9-0.499c-0.362-0.985-0.803-1.7-1.949-1.76
			c-0.742-0.039-1.375,0.237-1.433,0.959c-0.078,0.991-0.435,2.149,0.632,2.885c0.707,0.487,1.24,1.103,1.808,1.729
			c0.439,0.485,0.236,1.688,1.434,1.427C353.271,110.299,353.506,109.358,353.427,108.044z M336.389,61.844
			c0,0.161-0.009,0.323,0.002,0.484c0.062,0.91-0.168,2.559,1.003,2.228c1.715-0.484,3.799,1.064,5.146-0.95
			c0.296-0.443,0.238-0.923-0.084-1.34c-0.865-1.121-1.519-2.375-2.271-3.558c-0.77-1.208-1.875-1.325-3.033-0.006
			C336.269,59.709,336.423,60.748,336.389,61.844z M197.386,148.125c-0.275,0.716,0.324,1.312,0.548,1.943
			c0.304,0.856,1.197,1.568,2.073,1.518c0.783-0.047,0.878-1.021,0.775-1.766c-0.161-1.157,0.838-1.366,1.47-1.456
			c1.504-0.212,1.818-1.207,1.307-2.197c-0.605-1.175-1.26-2.724-2.954-2.64C199.353,143.59,197.386,146.577,197.386,148.125z
			 M98.761,59.961c0.357,1.283,0.452,3.291,2.17,4.093c1.508,0.704,1.994-1.24,3-1.907c0.331-0.219,0.564-0.579,0.873-0.838
			c1.104-0.924,0.988-2.145-0.162-2.476c-1.698-0.488-3.5-1.109-5.332-0.717C98.701,58.247,98.68,58.979,98.761,59.961z
			 M291.692,21.821c-0.705,1.25,1.128,1.896,0.974,3.169c-0.091,0.746,0.358,1.183,1.113,1.31c0.819,0.138,1.514-0.158,1.854-0.84
			c0.549-1.098,1.053-2.247,1.361-3.43c0.69-2.655-1.641-2.586-3.029-2.778C292.64,19.068,291.479,19.946,291.692,21.821z
			 M19.988,107.846c-0.015-1.604-1.793-3.333-3.168-3.285c-1.175,0.042-3.184,2.326-3.145,3.641
			c0.084,2.851,2.439,2.046,3.868,2.046C18.779,110.248,20.583,109.813,19.988,107.846z M378.668,133.249
			c-0.011-1.472,0.238-2.402-0.694-2.81c-0.897-0.393-1.686-0.084-2.321,0.688c-0.575,0.698-1.404,0.942-2.261,1.154
			c-1.489,0.369-1.018,1.617-1.008,2.571c0.01,0.992,0.688,1.592,1.631,1.761C375.692,136.915,378.662,134.299,378.668,133.249z
			 M333.504,67.133c-0.399,0.008-1.445,0.354-1.901,1.33c-0.47,1.006,0.326,1.733,1.014,2.463c1.163,1.233,2.939,1.42,4.123,2.603
			c0.73,0.729,0.884-0.12,1.097-0.546C338.852,70.943,336.467,67.127,333.504,67.133z M263.443,66.106
			c0.039,1.721,0.934,2.685,2.226,2.908c1.707,0.296,4.148-1.983,4.132-3.59c-0.032-3.06-2.727-1.548-4.02-1.984
			C264.35,62.957,263.977,65.085,263.443,66.106z M375.269,55.687c0.008-1.198,0.032-2.308-1.246-2.625
			c-1.459-0.364-2.884,0.247-3.492,1.401c-0.515,0.975-0.373,2.403,1.492,2.558c0.937,0.078,0.406,0.858,0.382,1.433
			c-0.037,0.881,0.354,1.57,1.242,2.053c0.664,0.36,0.978,0.204,1.443-0.216c0.778-0.703,0.946-1.534,0.418-2.371
			C375.002,57.117,375.015,56.357,375.269,55.687z M54.726,61.832c-0.997,0.224-2.518,0.554-4.033,0.91
			c-1.012,0.238-1.215,1.02-1.026,1.867c0.182,0.816,0.772,1.593,1.613,1.49c1.016-0.124,1.926,0.267,2.825,0.263
			c1.339-0.006,2.838-0.391,2.829-2.345C56.929,62.823,56.992,61.652,54.726,61.832z M385.415,79.778
			c0.636,0.03,1.076-0.081,1.223,0.079c1.463,1.587,2.238-0.068,2.557-0.827c0.777-1.858-0.952-2.731-2.123-3.506
			c-0.808-0.535-2.184-0.142-2.091,1.086c0.135,1.813-0.724,3.147-1.406,4.633c-0.36,0.785,0.159,1.583,0.606,2.188
			c0.334,0.453,1.056,0.328,1.564,0.095c0.949-0.434,0.667-1.338,0.699-2.113C386.472,80.754,385.858,80.511,385.415,79.778z
			 M332.022,75.581c-0.196-1.341,0.752-3.587-1.741-3.479c-1.77,0.076-2.686,1.492-2.713,3.559
			c-0.027,2.088,0.769,3.338,2.696,3.381C332.735,79.097,331.882,77.021,332.022,75.581z M292.71,45.497
			c-0.415,1.626,0.659,2.473,1.782,3.056c0.618,0.322,1.921,0.479,2.167-0.357c0.469-1.591,1.017-3.311,0.48-4.981
			c-0.495-1.545-2.315-1.917-3.327-0.641C293.184,43.367,292.158,44.212,292.71,45.497z M247.923,9.927
			c-0.065,2.15,0.728,3.644,1.988,3.74c1.418,0.107,3.83-2.194,3.84-3.755c0.021-2.972-3.242-0.542-3.948-2.359
			C248.728,7.992,247.938,8.656,247.923,9.927z M327.081,100.187c0.901-0.094,2.049,0.367,2.462-0.912
			c0.357-1.105-0.402-1.772-1.126-2.453c-1.33-1.252-5.034-1.306-6.327,0.07c-0.606,0.646-0.466,1.972,0.275,2.023
			C324.062,99.033,325.352,100.415,327.081,100.187z M86.219,52.072c1.54-0.087,4.405-2.791,4.106-4.109
			c-0.157-0.69-0.423-1.792-1.662-1.73c-1.338,0.066-5.304,2.719-4.915,3.364C84.336,50.567,84.508,52.167,86.219,52.072z
			 M382.036,71.492c0.195,1.012-0.367,2.077,0.658,2.777c0.646,0.441,1.259-0.189,1.454-0.419c0.666-0.784,0.563-1.771-0.076-2.585
			c-0.67-0.854,0.112-1.418,0.484-1.785c1.425-1.404,0.244-2.482-0.474-3.378c-0.703-0.876-2.173-0.773-2.839-0.153
			c-0.999,0.928-0.895,2.41,0.04,3.433C381.926,70.084,382.485,70.615,382.036,71.492z M234.558,40.9
			c-2.331-0.056-3.859,1.295-3.515,2.934c0.177,0.843,0.254,2.95,1.681,2.245c1.324-0.654,4.011,1.046,4.045-2.083
			C236.789,42.023,235.773,41.116,234.558,40.9z M348.536,60.28c0-0.572,0.097-1.082-0.019-1.537
			c-0.297-1.167-0.392-2.555-1.991-2.768c-1.564-0.208-2.305,0.875-2.848,2.064c-0.643,1.409,0.482,2.053,1.368,2.756
			c0.242,0.191,0.633,0.262,0.776,0.497c0.449,0.738,0.726,1.794,1.872,1.405C348.924,62.279,348.452,61.1,348.536,60.28z
			 M326.681,128.419c-0.128,1.325,0.05,2.568,1.712,2.84c0.683,0.11,3.607-2.915,3.624-3.611c0.051-2.145-1.933-2.509-3.093-2.53
			C327.28,125.088,326.468,126.601,326.681,128.419z M347.596,144.222c0.173-0.996-0.528-2.119-0.801-3.337
			c-0.445-1.993-1.668-1.587-2.759-0.893c-2.008,1.279-1.851,3.318,0.328,4.366c0.512,0.246,0.678,0.403,0.813,0.923
			c0.217,0.831,1.235,1.391,1.729,1.303C347.877,146.411,347.507,145.304,347.596,144.222z M21.502,136.887
			c-0.35,1.475,0.06,2.585,1.556,3.003c0.662,0.185,4.144-2.484,4.19-3.078c0.034-0.438-3.405-3.097-4.034-2.888
			C21.86,134.374,20.975,135.296,21.502,136.887z M296.037,55.323c0.211-1.491-0.012-2.758-1.709-3.196
			c-1.748-0.451-2.021,1.278-2.441,2.105c-0.855,1.682,0.347,3.321,1.441,4.39c1.024,1,1.736-0.588,2.438-1.23
			C296.37,56.84,295.924,56.007,296.037,55.323z M29.86,136.218c-0.863-0.179-1,0.234-1.25,0.683
			c-0.43,0.769-0.542,1.443-0.054,2.22c1.442,2.292,3.087,1.307,4.909,0.506c1.238-0.545,1.244-1.421,1.052-2.32
			c-0.206-0.964-1.148-1.191-2.027-1.139C31.525,136.226,30.574,137.255,29.86,136.218z M366.669,137.12
			c1.416-0.016,2.763-0.722,3.117-1.649c0.262-0.687,0.287-1.378-0.329-1.992c-0.602-0.6-4.79-0.979-5.422-0.428
			c-0.324,0.283-0.593,0.695-0.396,1.053C364.38,135.441,364.373,137.627,366.669,137.12z M283.426,32.622
			c-1.043,0.307-2.61,0.312-2.436,2.283c0.2,2.252,2.162,2.533,3.735,3.008c1.228,0.371,1.617-0.571,1.619-1.737
			C286.349,34.253,285.182,32.638,283.426,32.622z M379.822,58.712c0.708,0.604-0.196,2.413,1.144,2.47
			c1.505,0.063,2.36-1.438,3.396-2.401c0.584-0.542,0.777-1.06,0.403-1.895c-0.556-1.243-1.523-2.097-2.712-1.812
			C380.399,55.469,380.079,57.151,379.822,58.712z M244.456,37.449c-1.706,0.232-3.045,1.071-3.7,2.702
			c-0.238,0.594,2.149,3.189,2.726,3.153c1.407-0.09,2.522-2.313,2.537-4.672C246.026,37.358,245.322,37.432,244.456,37.449z
			 M13.669,131.019c-0.013,1.245,1.95,3.948,2.592,3.526c1.249-0.821,2.507-1.859,2.732-3.505c0.225-1.651-1.277-2.332-2.229-2.045
			C15.694,129.317,13.486,128.596,13.669,131.019z M188.815,48.979c-1.089,0.84-2.292,1.412-2.12,3.004
			c0.17,1.575,1.259,2.914,2.553,2.723c1.084-0.16,2.96-0.888,2.756-2.773C191.811,50.139,190.003,49.939,188.815,48.979z
			 M381.551,91.137c0.087-1.048,0.062-1.819-0.672-1.981c-0.968-0.213-1.986-0.474-2.938,0.317
			c-0.912,0.757-1.006,1.804-0.592,2.583c0.454,0.855,0.904,1.591,0.872,2.607c-0.029,0.889,0.985,0.877,1.482,1.309
			c0.525,0.455,0.52-0.401,0.573-0.6C380.692,93.827,380.726,92.177,381.551,91.137z M330.555,83.719
			c-0.006-1.14-3.234-3.726-4.262-3.456c-0.076,0.02-0.213-0.016-0.231,0.021c-0.415,0.808-1.312,1.315-1.347,2.373
			c-0.08,2.385,2.603,1.488,3.426,2.872c0.127,0.213,1.433,0.459,1.872-0.325C330.263,84.756,330.737,84.31,330.555,83.719z
			 M240.626,27.2c0.242-1.394,0.052-2.567-1.638-2.701c-1.295-0.102-2.736,1.859-2.723,3.537c0.014,1.692,1,2.125,2.512,2.18
			C241.309,30.308,240.479,28.469,240.626,27.2z M218.471,192.464c1.619,0.58,2.634-0.516,2.582-1.949
			c-0.035-0.989-0.343-2.996-1.968-2.673c-1.218,0.242-3.593-0.399-3.314,2.532C215.951,192.273,216.64,192.761,218.471,192.464z
			 M354.432,123.507c0.404-0.021,3.738-4.449,3.597-4.801c-0.057-0.142-0.211-0.24-0.304-0.37c-1.098-1.543-2.32-0.002-3.476-0.045
			c-0.595-0.022-1.699,0.377-1.832,1.541C352.232,121.444,353.333,123.565,354.432,123.507z M392.276,98.434
			c-0.143-1.049,0.51-2.74-1.439-2.569c-1.587,0.139-2.858,1.32-2.841,2.918c0.016,1.358,0.974,3.05,2.396,3.001
			C392.085,101.726,392.489,100.057,392.276,98.434z M367.944,53.833c0.288-1.178-0.146-2.2-1.173-2.617
			c-0.892-0.362-1.524,0.676-1.786,1.281c-0.7,1.624-0.704,3.387,0.015,5.036c0.307,0.702,1.033,0.964,1.844,0.846
			c1.062-0.155,0.664-1.004,0.614-1.512C367.354,55.784,368.317,54.924,367.944,53.833z M278.011,12.154
			c-1.227-0.147-2.823,0.713-2.676,2.286c0.101,1.065,1.684,2.043,3.388,2.218c2.781,0.286,1.833-2.055,2.109-3.039
			C281.309,11.917,279.588,12.295,278.011,12.154z M362.653,103.895c-1.399-0.453-1.259,2.862-3.102,0.827
			c-0.032-0.036-0.396,0.142-0.522,0.292c-0.538,0.64-1.735,1.171-1.134,2.121c0.462,0.731,0.687,2.083,1.677,2.065
			c1.356-0.025,1.732-1.266,1.705-2.664c0.69,0.883,1.04,2.137,2.213,0.815C365.108,105.527,363.406,104.708,362.653,103.895z
			 M80.277,38.503c0.104-1.205-0.905-2.002-1.862-2.375c-1.272-0.497-1.461,0.72-1.726,1.669c-0.12,0.429-0.65,0.744-0.771,1.174
			c-0.385,1.365,0.384,2.286,1.37,3.079c0.504,0.406,1.27,0.523,1.478-0.001C79.221,40.903,80.287,40.025,80.277,38.503z
			 M275.897,85.039c0.666-1.903-0.559-1.821-1.747-1.881c-1.537-0.078-2.229,1.167-3.291,1.875c-0.99,0.66-0.629,1.489-0.473,2.107
			c0.197,0.78,1.111,0.364,1.702,0.369c0.614,0.006,1.107-0.665,1.803-0.446C276.076,87.749,275.703,86.14,275.897,85.039z
			 M332.2,122.39c1.501-0.255,2.011-1.682,2.104-2.7c0.117-1.282-0.475-2.774-1.972-3.316c-0.821-0.296-2.909,1.831-2.687,2.891
			C329.937,120.647,330.726,121.85,332.2,122.39z M216.635,143.303c-0.175-1.352-0.907-2.601-2.146-2.489
			c-1.505,0.136-2.438,1.685-2.414,3.042c0.028,1.503,1.263,2.51,2.907,2.479C217.246,146.29,215.757,144.072,216.635,143.303z
			 M245.954,70.123c0.061-1.479-0.954-2.584-2.489-2.463c-1.124,0.089-2.812-0.863-3.228,1.027
			c-0.267,1.212,2.172,3.011,3.963,3.211C245.646,72.059,245.376,70.662,245.954,70.123z M236.539,129.695
			c-0.607,0.324-0.269,1.42-0.251,2.306c0.029,1.424-0.009,3.12,2.01,3.129c1.942,0.009,2.131-2.13,2.179-3.116
			C240.559,130.324,238.847,129.716,236.539,129.695z M294.11,66.382c0.018-1.585-1.123-2.13-1.876-1.578
			c-1.059,0.777-2.03,2.066-2.358,3.315c-0.246,0.935,0.887,1.975,1.8,2.614c0.95,0.667,1.763,0.284,1.899-0.829
			C293.729,68.656,293.503,67.359,294.11,66.382z M246.95,193c-1.56,0.369-0.818,2.255-1.73,3.256
			c-0.641,0.703-0.573,2.32,0.65,3.195c0.427,0.305,0.693,1.097,1.341,0.737c0.523-0.289,1.265-0.735,1.16-1.421
			c-0.235-1.544-0.406-3.034-0.005-4.597C248.544,193.481,247.905,193.043,246.95,193z M24.317,111.323
			c2.702-0.352,0.841-2.92,1.862-4.186c0.259-0.322-0.11-1.532-1.191-1.614c-1.051-0.08-3.067,1.745-3.042,2.875
			C21.978,109.922,22.881,110.827,24.317,111.323z M249.73,77.838c-1.822-0.143-3.449,0.535-3.538,2.167
			c-0.115,2.068,2.165,1.799,3.422,2.01c2.114,0.355,1.778-1.813,1.992-2.931C251.799,78.074,250.716,77.586,249.73,77.838z
			 M228.498,134.322c-0.192,1.472,0.487,3.549,1.612,3.469c2.155-0.154,1.758-2.652,2.033-4.222
			c0.158-0.902-0.557-1.854-1.967-1.835C228.241,131.76,228.485,133.018,228.498,134.322z M384.023,130.952
			c0.053-1.074-0.419-1.815-1.53-1.575c-1.579,0.342-3.044,1.225-3.047,2.966c-0.002,0.823,0.534,2.168,1.854,2.321
			C382.417,134.795,384.07,132.473,384.023,130.952z M325.272,88.979c-1.43-0.078-2.45,0.458-2.463,1.957
			c-0.021,2.397,2.519,1.228,3.598,2.329c0.465,0.475,1.757-0.645,1.682-1.735C327.975,89.87,326.889,89.068,325.272,88.979z
			 M255.223,140.509c0-0.401-0.002-0.803,0-1.204c0.005-1.097-0.38-2.075-1.321-2.607c-0.629-0.355-1.2,0.171-1.618,0.706
			c-0.734,0.938-0.76,1.919-0.001,2.807c0.407,0.476,0.485,0.95,0.53,1.521c0.069,0.892,0.695,1.622,1.474,1.599
			c1.057-0.032,0.936-1.067,0.937-1.858C255.224,141.15,255.223,140.83,255.223,140.509z M65.671,58.045
			c0.019-1.141-1.06-2.91-1.744-2.965c-0.736-0.059-3.545,1.91-3.438,2.484c0.374,2.022,2.272,1.834,3.618,2.157
			C64.948,59.923,65.952,59.252,65.671,58.045z M266.884,55.814c-0.179-1.015-0.005-2.553-2.058-2.806
			c-1.44-0.177-1.859,1.021-2.161,1.764c-0.441,1.085,1.711,3.603,2.771,3.609C267.057,58.391,266.892,57.234,266.884,55.814z
			 M35.526,130.505c0.199-0.971-0.119-1.808-1.013-2.402c-0.538-0.358-1.026-0.281-1.514,0.129c-0.914,0.77-1.209,1.638-0.525,2.71
			c0.432,0.677-0.141,1.169-0.297,1.751c-0.19,0.708,0.166,1.292,0.859,1.466c0.363,0.091,1.005,0.834,1.142,0.095
			C34.424,132.925,35.801,132.055,35.526,130.505z M392.275,111.354c0.177-1.971-1.263-2.725-2.626-2.791
			c-1.071-0.052-1.773,1.061-1.779,2.434c-0.008,1.783,1.186,2.172,2.455,2.256C391.494,113.33,392.541,112.859,392.275,111.354z
			 M235.972,53.529c0.777,0.035,1.732,0.005,1.757-1.409c0.025-1.523-1.434-2.961-2.984-2.983c-1.097-0.015-2.066,0.187-1.846,1.529
			C233.152,52.206,233.751,53.596,235.972,53.529z M246.647,129.95c-2.063,2.001-2.172,3.732-0.724,5.651
			c0.478,0.632,0.9,0.524,1.392,0.514c0.634-0.014,1.075-0.436,1.074-1.063C248.388,133.185,249.003,131.099,246.647,129.95z
			 M290.21,18.265c0-0.324,0.067-0.665-0.013-0.967c-0.283-1.077-1.033-1.842-2.047-2.116c-0.715-0.193-1.64-0.313-2.165,0.593
			c-0.646,1.114,0.283,1.654,0.831,2.345c0.195,0.247,0.355,0.536,0.47,0.83c0.352,0.908,0.684,1.841,1.96,1.498
			C290.437,20.126,290.2,19.13,290.21,18.265z M268.366,9.217c-0.155,1.319-0.298,2.872,1.449,2.878
			c1.357,0.005,2.149-1.046,1.967-2.664c-0.159-1.397-0.183-2.902-1.936-3.004C267.661,6.3,268.579,8.15,268.366,9.217z
			 M353.891,139.937c0.017-1.433-0.652-2.399-1.777-2.241c-1.152,0.16-2.264,1.066-2.075,2.477c0.212,1.585,1.183,3.554,2.587,3.379
			C354.13,143.363,353.151,140.968,353.891,139.937z M250.488,36.503c-1.559-0.113-2.084,1.219-1.95,2.294
			c0.115,0.916-0.032,2.646,1.807,2.564c1.46-0.065,2.444-0.876,2.395-2.328C252.697,37.796,252.387,36.428,250.488,36.503z
			 M360.843,116.752c-1.919-0.062-2.427,0.878-1.683,2.669c0.384,0.925,0.944,1.422,1.778,1.129c1.396-0.49,2.669-1.49,3.082-2.856
			c0.565-1.865-0.969-1.536-2.044-1.374C361.595,116.377,361.542,117.436,360.843,116.752z M354.378,61.772
			c0.5-1.661-1.206-1.804-1.752-2.711c-1.04,0.682-2.167,1.26-2.156,2.797c0.009,1.312,0.14,3.125,1.382,3.141
			C353.403,65.018,353.797,63.054,354.378,61.772z M235.317,193.474c0.617-0.284,1.675-1.234,1.33-1.501
			c-1.445-1.116,0.284-3.888-2.169-4.084c-0.503-0.041-2.452-0.34-2.133,1.669C232.627,191.331,234.077,193.585,235.317,193.474z
			 M44.875,112.303c-1.292,0.27-2.909,0.622-2.948,2.348c-0.047,2.047,1.48,1.409,2.671,1.1c0.136-0.035,0.327,0.017,0.454,0.093
			c1.239,0.745,2.004,0.452,2.14-1.022C47.335,113.274,46.661,112.368,44.875,112.303z M285.831,77.411
			c0.458,0.87,0.539,2.579,2.135,2.288c2.684-0.489,0.529-3.022,1.49-4.396c0.239-0.343-0.322-1.931-1.021-1.583
			C287.126,74.373,285.771,75.359,285.831,77.411z M327.639,102.934c-0.388,1.739,0.815,2.439,2.386,2.543
			c0.975,0.065,2.046-0.156,2.009-1.658c-0.053-2.063-1.792-2.6-3.118-3.04C327.63,100.354,327.644,101.772,327.639,102.934z
			 M243.272,73.402c-1.459-0.108-2.176,0.32-2.181,1.88c-0.005,1.629,0.795,2.69,2.19,2.901c0.541,0.082,2.541,0.176,2.114-1.318
			C245.049,75.648,245.108,73.789,243.272,73.402z M387.748,86.834c-0.462-1.099-0.467-2.677-2.017-2.622
			c-0.919,0.033-2.444,0.861-2.062,1.666c0.57,1.202-0.714,3.688,1.994,3.583C387.306,89.397,387.312,87.842,387.748,86.834z
			 M357.775,86.879c0,0.321,0.015,0.642-0.003,0.962c-0.06,1.075,0.367,1.641,1.518,1.656c1.245,0.018,0.883-0.875,0.9-1.509
			c0.02-0.732,0.285-1.15,0.824-1.724c0.554-0.59,0.729-1.868-0.194-2.711c-0.979-0.893-1.558,0.148-2.223,0.524
			C357.472,84.717,357.804,85.869,357.775,86.879z M53.555,52.167c-0.476,1.601,0.995,2.261,1.651,2.125
			c1.258-0.26,2.695-0.898,2.694-2.701c-0.001-1.543-1.375-2.328-2.272-2.285C54.213,49.375,53.902,51.006,53.555,52.167z
			 M208.482,145.312c0.731-1.723-0.77-2.59-1.896-2.683c-1.164-0.096-1.463,1.306-1.457,2.541c0.008,1.473,0.495,3.209,1.668,3.304
			C207.921,148.563,208.928,147.043,208.482,145.312z M208.863,195.007c-1.586-0.536-0.636-3.113-2.673-2.909
			c-2.016,0.202-0.968,2.414-1.738,3.552c-0.184,0.271,0.673,1.987,2.162,1.749C207.959,197.184,207.997,195.953,208.863,195.007z
			 M233.342,34.593c0.214,0.909-0.205,2.475,1.639,2.365c1.11-0.066,2.283-0.616,2.574-1.755c0.317-1.247-1.619-3.132-2.853-3.066
			C233.079,32.224,233.392,33.426,233.342,34.593z M66.277,42.304c1.606,0.104,2.316-0.188,2.314-1.385
			c-0.001-1.063-2.081-3.423-3.103-3.416c-1.254,0.009-1.258,0.918-1.283,1.849C64.156,41.204,65.207,42.03,66.277,42.304z
			 M384.956,121.369c0.147,1.169,0.477,2.486,1.868,2.373c1.267-0.103,2.61-0.619,2.572-2.492c-0.041-1.957-1.8-1.665-2.729-1.942
			C385.651,119.005,384.904,120.099,384.956,121.369z M83.754,82.173c-1.063-0.017-2.234,0.045-1.986,1.425
			c0.25,1.385,0.677,3.07,2.322,3.33c0.761,0.12,2.298-0.446,1.935-1.839C85.713,83.897,85.624,82.24,83.754,82.173z M39.68,131.052
			c-1.888,0.836-1.568,3.072-3.097,4.061c-0.472,0.305,0.242,1.112,0.706,1.579c0.729,0.731,0.883-0.185,1.261-0.419
			c0.529-0.326,0.762-1.044,1.513-1.095c2.466-0.168,1.285-1.575,0.818-2.622C40.632,132,40.105,131.569,39.68,131.052z
			 M240.962,196.411c0.152-1.24,1.371-1.588,1.716-2.654c0.24-0.741,1.438-1.228,0.571-2.225c-0.76-0.873-1.857-0.568-2.715-0.354
			c-0.834,0.208-1.406,0.945-1.37,2.015C239.208,194.499,239.799,195.45,240.962,196.411z M275.629,151.962
			c0.235-0.739-0.226-1.406-0.612-1.931c-0.373-0.506-0.14-1.733-1.386-1.421c-1.135,0.283-1.539,1.004-1.406,2.129
			c0.056,0.477,0.016,0.967,0.009,1.451c-0.017,1.231,1.027,2.217,1.748,2.149C274.724,154.271,275.797,153.309,275.629,151.962z
			 M251.841,82.527c-0.233,1.514,0.358,2.169,1.974,2.129c2.084-0.052,1.689-1.655,1.862-2.812c0.225-1.501-0.857-1.554-2-1.616
			C251.908,80.134,251.687,81.139,251.841,82.527z M268.109,162.882c-0.628-0.068-1.317-0.002-1.58,0.701
			c-0.249,0.668-0.256,1.346,0.343,1.978c0.576,0.607,1.345,1.034,1.521,2.054c0.212,1.212,1.371,0.661,1.961,0.515
			c0.779-0.193,0.577-1.182,0.262-1.607c-0.55-0.742-0.879-1.43-0.84-2.377C269.818,163.099,269.072,162.823,268.109,162.882z
			 M331.101,136.242c-0.62-1.011-0.837-2.558-2.26-2.444c-1.174,0.094-2.222,1.041-2.131,2.415c0.084,1.283,1.02,2.322,2.257,2.271
			C330.052,138.438,330.78,137.39,331.101,136.242z M223.873,136.613c-1.43,0.057-2.169,0.728-2.2,2.223
			c-0.035,1.699,1.131,2.174,2.416,2.334c1.322,0.164,1.974-1.521,1.745-1.882C225.268,138.388,225.796,136.506,223.873,136.613z
			 M332.47,141.592c-0.162,0.963,0.336,2.251,1.533,2.218c1.631-0.046,2.099-1.678,2.359-3.083c0.191-1.034-0.294-1.648-1.453-1.675
			C333.346,139.016,332.519,139.691,332.47,141.592z M84.601,43.792c-0.26-0.848-0.158-2.459-1.924-2.371
			c-1.601,0.081-1.398,1.857-1.783,2.829c-0.286,0.72,0.66,2.316,1.589,2.25C83.473,46.43,84.761,45.673,84.601,43.792z
			 M371.87,84.516c0.4-1.291-0.479-2.199-1.481-3.059c-0.536-0.459-0.855-0.051-1.213,0.263c-1.358,1.193-0.661,2.238,0.224,3.277
			c0.042,0.049,0.038,0.157,0.026,0.233c-0.2,1.286,0.752,1.858,1.632,1.712C372.138,86.762,371.847,85.57,371.87,84.516z
			 M256.073,185.691c0.53-0.081,2.14,0.302,1.902-0.929c-0.281-1.453-1.901-2.182-3.435-2.425c-1.006-0.16-1.805,0.19-1.736,1.402
			C252.912,185.633,254.238,185.811,256.073,185.691z M271.617,52.822c-0.41-0.749-0.517-1.9-1.827-1.718
			c-1.024,0.143-2.331,0.382-2.32,1.559c0.01,1.17,0.495,2.868,1.715,3.058C270.955,55.997,270.861,53.896,271.617,52.822z
			 M262.033,7.675c0.053-1.905-1.484-2.238-2.704-2.553c-0.407-0.105-1.894-0.025-1.729,1.565c0.183,1.762,1.405,2.273,2.669,2.526
			C261.124,9.385,262.166,8.944,262.033,7.675z M225.58,188.858c-0.287,1.817,1.453,2.279,2.35,2.521
			c1.04,0.279,1.428-1.226,1.505-2.236c0.096-1.253-0.719-2.29-1.815-2.323C226.649,186.79,225.354,187.295,225.58,188.858z
			 M357.754,61.654c0.22,0.519-0.427,1.373,0.595,1.565c0.759,0.143,1.343-0.086,1.852-0.763c0.677-0.9,0.779-2.127,1.792-2.85
			c0.364-0.261,0.241-0.913-0.162-1.272c-0.215-0.192-0.697-0.45-0.775-0.376C359.854,59.09,357.706,59.401,357.754,61.654z
			 M262.431,186.896c-0.915-0.435-1.344,0.033-1.835,0.475c-0.452,0.407-1.178,0.57-1.418-0.062
			c-0.468-1.232-1.812-1.521-2.176-0.915c-0.528,0.881-0.882,2.224,0.355,3.37c1.021,0.946,1.429,1.479,1.872-0.319
			c0.099-0.398,0.307-1.672,1.065-1.17C262.21,189.543,261.86,187.607,262.431,186.896z M269.813,159.033
			c-0.097-1.053,0.385-2.442-1.404-2.458c-1.208-0.011-2.083,0.688-1.951,1.864c0.145,1.278,0.649,2.803,2.164,2.901
			C270.174,161.443,269.704,159.958,269.813,159.033z M264.323,87.454c1.221,0.426,1.614-0.042,1.638-1.38
			c0.03-1.712-0.999-2.303-2.301-2.353c-1.191-0.045-1.99,1.289-1.863,2.073C261.946,86.722,262.662,88.065,264.323,87.454z
			 M259.087,158.096c0.317-1.508-0.703-2.546-1.757-2.768c-0.815-0.172-1.69,0.763-1.684,2.136c0.008,1.475,0.866,2.144,1.805,2.893
			C257.996,159.592,259.507,159.533,259.087,158.096z M370.971,114.992c-0.514-1.374-1.602-1.954-2.886-2.151
			c-1.112-0.171-1.813,0.511-1.508,1.551c0.298,1.012,0.516,2.322,2.122,2.332C369.958,116.731,370.55,116.06,370.971,114.992z
			 M202.669,197.354c-1.13,0.104-1.378,0.729-1.412,1.65c-0.053,1.445,0.393,2.747,1.755,3.151c0.819,0.242,1.625-0.686,1.634-1.663
			C204.657,199.046,203.935,197.971,202.669,197.354z M266.033,153.673c2.111-1.974,2.301-3.422,0.837-5.015
			c-0.605-0.658-1.135-0.408-1.633,0.081C263.268,150.673,265.174,151.982,266.033,153.673z M29.069,121.565
			c0.819-0.191,1.793-0.794,1.524-1.83c-0.308-1.19-1.271-2.317-2.601-2.402c-0.667-0.044-1.771,0.852-1.438,1.664
			C26.972,120.018,27.047,121.665,29.069,121.565z M366.036,85.665c0-0.403-0.028-0.809,0.006-1.209
			c0.073-0.855-0.127-1.296-1.154-1.323c-1.15-0.03-1.369,0.462-1.292,1.434c0.057,0.721,0.029,1.451,0.007,2.176
			c-0.028,0.869,0.079,1.691,1.154,1.744c1.072,0.052,1.309-0.708,1.281-1.613C366.025,86.472,366.035,86.068,366.036,85.665z
			 M360.225,137.479c0.095-0.941-0.108-1.844-1.767-1.859c-1.267-0.012-1.623,0.907-1.576,1.618c0.084,1.26,0.623,2.651,2.137,2.735
			C360.454,140.054,360.161,138.747,360.225,137.479z M264.912,176.484c0.286-1.488-0.794-2.097-1.74-2.791
			c-0.449,0.745-1.734,0.671-1.674,2.006c0.065,1.443,0.91,2.352,1.998,2.601C264.306,178.485,265.287,177.738,264.912,176.484z
			 M256.218,153.289c-0.083-1.244,0.269-2.638-1.335-2.484c-0.882,0.084-2.144,0.378-2.08,1.803c0.056,1.23,0.754,2.104,1.944,2.192
			C255.799,154.879,256.526,154.283,256.218,153.289z M367.798,93.376c1.105-0.015,1.443-0.214,1.374-0.952
			c-0.138-1.465-0.626-2.921-2.134-3.301c-0.719-0.181-1.761,0.837-1.402,1.747C366.024,91.857,365.95,93.544,367.798,93.376z
			 M257.315,143.537c-1.622,1.672-1.14,3.186,0.025,4.68c0.313,0.4,0.704,0.643,1.243,0.546c0.713-0.129,0.478-0.7,0.523-1.129
			C259.285,145.962,259.108,144.43,257.315,143.537z M364.001,64.704c0.268-1.704-0.278-2.77-1.563-2.846
			c-1.358-0.081-1.131,1.537-1.128,2.16c0.002,0.79-0.065,2.268,1.71,2.183C364.638,66.124,363.908,65.032,364.001,64.704z
			 M354.858,64.229c-0.122,1.297,0.424,2.214,1.718,2.378c1.166,0.147,1.613-1.217,1.551-1.728
			c-0.147-1.197-0.962-2.302-2.368-2.349C354.59,62.493,354.93,63.533,354.858,64.229z M326.236,102.578
			c-1.692,0.057-2.395,0.711-2.523,2.211c-0.097,1.12,0.812,1.696,1.285,1.585c1.179-0.277,1.979-1.226,2.154-2.532
			C327.273,102.946,326.978,102.437,326.236,102.578z M22.664,119.59c1.463,0.346,1.996-0.924,2.053-1.751
			c0.078-1.124-0.968-1.536-2.151-1.661c-1.495-0.159-0.892,1.237-1.496,1.689C21.644,118.412,21.037,120.029,22.664,119.59z
			 M260.387,190.768c-1.357,0.339-1.931,1.017-1.779,2.283c0.099,0.821,0.372,1.539,1.247,1.37c1.139-0.22,2.097-1.021,2.102-2.221
			C261.96,191.335,260.754,191.285,260.387,190.768z M44.534,130.346c0.552-0.626,1.622-1.563,1.503-1.753
			c-0.556-0.884-0.449-2.462-1.792-2.544c-0.687-0.042-1.327,0.742-1.425,1.673C42.682,129.036,43.855,129.427,44.534,130.346z
			 M260.757,184.255c-0.075-1.337,1.328-1.22,1.226-2.18c-0.109-1.018-0.775-1.722-1.934-1.698
			c-0.686,0.015-1.351-0.201-1.472,0.977C258.417,182.904,259.807,182.971,260.757,184.255z M72.007,40.912
			c0.766-0.507,1.513-0.953,1.447-2.031c-0.062-1.028-0.686-1.847-1.563-1.77c-0.904,0.08-1.214,1.211-1.312,2.044
			C70.47,40.069,71.296,40.478,72.007,40.912z M29.015,130.979c-0.725,0.302-1.57,0.944-1.627,1.687
			c-0.065,0.859,0.754,1.492,1.768,1.537c0.977,0.043,1.458-0.377,1.539-1.392C30.789,131.629,29.933,131.369,29.015,130.979z
			 M370.415,90.995c-0.059,0.743-0.123,1.455,1.155,1.45c1.144-0.005,1.344-0.471,1.285-1.438c-0.054-0.896,0.078-1.919-1.175-1.97
			C370.424,88.986,370.379,89.96,370.415,90.995z M336.707,95.288c0.861,0.252,1.098-0.163,1.179-1.101
			c0.103-1.182-0.658-1.59-1.445-1.687c-0.719-0.088-1.439,0.695-1.404,1.313C335.077,94.535,335.36,95.582,336.707,95.288z
			 M30.677,126.986c-0.009-0.828,0.192-1.616-1.011-1.547c-1.208,0.069-1.391,0.762-1.439,1.771
			c-0.049,1.023,0.425,1.141,1.288,1.188C30.794,128.468,30.732,127.704,30.677,126.986z M258.135,193.249
			c0.132-0.805-0.097-1.339-1.137-1.218c-0.664,0.076-1.553-0.149-1.53,0.89c0.021,1.009,0.621,1.868,1.632,1.955
			C258.001,194.953,258.176,194.108,258.135,193.249z M25.191,130.495c-0.453-0.726-0.562-1.818-1.757-1.614
			c-0.883,0.15-1.059,0.815-1.019,1.603c0.056,1.09,1.147,1.33,1.744,1.547C24.698,132.227,24.876,131.035,25.191,130.495z
			 M18.514,134.434c0.104,0.779,0.5,1.238,1.253,1.209c0.895-0.034,1.201-0.616,1.197-1.455c-0.003-0.713-0.254-1.434-0.97-1.354
			C19.205,132.922,18.652,133.598,18.514,134.434z M256.194,195.835c0.29-1.313-1.049-0.941-1.57-1.1
			c-0.755-0.23-0.853,0.61-0.858,1.25c-0.009,0.847,0.368,1.396,1.243,1.379C255.893,197.347,256.217,196.752,256.194,195.835z
			 M345.579,87.713c-0.495-0.461-0.981-1.257-1.628-1.42c-0.689-0.175-0.927,0.874-0.986,1.358
			c-0.092,0.732,0.281,1.637,1.132,1.763C345.017,89.551,345.033,88.502,345.579,87.713z M336.622,99.706
			c-0.91-0.163-1.3,0.216-1.217,1.182c0.056,0.652-0.071,1.299,0.951,1.25c0.989-0.046,1.446-0.447,1.505-1.457
			C337.919,99.7,337.363,99.645,336.622,99.706z M340.777,88.98c-0.229-0.457-0.515-1.027-1.32-0.934
			c-0.904,0.104-1.114,0.719-1.136,1.537c-0.021,0.821,0.422,0.901,1.063,0.882C340.254,90.439,340.723,90.043,340.777,88.98z
			 M40.173,131.046c0.569-0.343,1.143-0.646,1.193-1.411c0.051-0.77-0.037-1.637-0.926-1.657c-0.976-0.023-0.337,1.201-0.92,1.72
			C39.237,129.948,39.759,130.663,40.173,131.046z M253.451,181.692c0.772-0.15,0.828-0.892,1.041-1.424
			c0.223-0.561-0.344-0.75-0.773-0.845c-0.727-0.158-0.942,0.218-0.941,0.912C252.778,180.935,252.938,181.388,253.451,181.692z
			 M270.271,147.314c-0.166-0.477-0.423-0.96-0.954-0.896c-0.32,0.038-0.595,0.451-0.891,0.696c0.313,0.229,0.597,0.552,0.946,0.657
			C269.705,147.871,270.198,147.914,270.271,147.314z M260.542,176.89c0.094-0.754-0.255-0.92-0.817-0.878
			c-0.346,0.026-0.642,0.146-0.562,0.526c0.1,0.476,0.425,0.823,0.937,0.874C260.555,177.457,260.503,177.062,260.542,176.89z
			 M266.382,171.665c-0.1-0.539-0.426-0.536-0.747-0.512c-0.285,0.022-0.718,0.014-0.389,0.47c0.16,0.222,0.498,0.355,0.781,0.425
			C266.121,172.07,266.294,171.765,266.382,171.665z"/>
		<path style="fill-rule:evenodd;clip-rule:evenodd;fill:#7B491E;" d="M138.133,195.375c-2.782,0-4.642,0.016-6.501-0.004
			c-2.983-0.029-4.756-2.24-6.817-3.89c-0.359-0.287-0.542-0.967-0.566-1.477c-0.207-4.372-1.717-8.521-2.172-12.849
			c-0.186-1.769,0.462-3.27,1.46-4.613c1.053-1.417,1.419-2.687,0.285-4.306c-1.188-1.696,0.178-3.371,0.895-4.636
			c1.312-2.315,1.65-4.393,1.366-7.097c-0.468-4.438,0.029-8.941,3.995-12.111c0.56-0.447,0.97-0.946,1.819-0.993
			c1.726-0.098,2.554-1.064,2.319-2.874c-0.136-1.053,0.252-1.539,1.409-2.05c3.002-1.327,6.199-3.053,9.138-3.436
			c5.065-0.659,9.442-2.878,14.185-4.151c2.243-0.603,4.649,0.224,6.884,0.569c1.701,0.264,2.795-0.484,4.146-0.795
			c1.166-0.27,5.839,1.226,5.699,2.086c-0.453,2.783,0.068,3.986,3.165,3.186c0.49-0.126,0.589,0.957,0.259,1.779
			c-1.227,3.062-0.933,6.203-0.103,9.318c0.058,0.219,0.204,0.485,0.389,0.589c3.252,1.817,0.796,4.099,0.453,6.151
			c-0.334,2-1.338,3.96-1.317,5.931c0.037,3.575-2.663,5.721-3.852,8.624c-0.084,0.206-0.482,0.342-0.486,0.515
			c-0.063,3.211-3.114,5.018-3.648,8.151c-0.519,3.047-3.325,4.832-5.591,6.748c-1.767,1.494-3.697,2.795-5.511,4.236
			c-0.944,0.75-1.973,1.347-3.122,1.584c-0.656,0.136-1.206,0.239-1.688,0.749c-3.156,3.34-7.589,3.656-11.64,4.875
			C141.082,195.759,139.13,195.261,138.133,195.375z M158.298,175.125c-2.636,0.61-5.311,0.399-7.887,1.354
			c-3.151,1.168-6.057,3.063-9.499,3.395c-0.632,0.061-1.211,0.277-1.276,0.838c-0.094,0.819,0.675,1.487,1.273,1.52
			c2.345,0.127,4.884,0.572,6.999-0.144c1.801-0.609,3.977-0.918,5.421-2.571C154.769,177.868,156.047,175.998,158.298,175.125z
			 M142.951,156.122c0.006-2.563-1.778-4.556-3.503-4.097c-1.085,0.289-2.086,0.862-3.174-0.221
			c-0.467-0.466-1.217,0.027-1.519,0.697c-1.037,2.3-0.061,4.265,2.467,5.063c0.442,0.141,0.954,0.324,1.238,0.655
			c1.035,1.207,2.494,1.009,3.569,0.641C143.149,158.479,142.999,157.027,142.951,156.122z M144.3,170.635
			c1.993-1.272,4.719-0.858,6.821-2.145c2.286-1.398,3.756-3.596,4.422-6.208c0.255-1-0.676-1.123-1.192-0.711
			c-1.276,1.022-3.095,1.522-3.524,3.436c-0.168,0.752-0.68,1.031-1.444,1.33c-1.912,0.747-4.102,0.877-5.691,2.379
			c-0.337,0.318-0.881,0.622-0.673,1.164C143.18,170.303,143.556,170.684,144.3,170.635z M163.434,151.27
			c-0.19,1.93,0.103,3.271,1.592,3.203c1.02-0.047,2.147-1.272,1.637-2.377c-0.72-1.557,0.039-2.393,0.879-3.329
			c1.246-1.391,0.785-2.816,0.051-4.165c-0.644-1.183-1.884-0.541-2.865-0.668c-0.812-0.106-0.874,0.439-0.881,1.061
			C163.819,147.3,164.078,149.627,163.434,151.27z"/>
		<path style="fill-rule:evenodd;clip-rule:evenodd;fill:#7B491E;" d="M181.347,41.794c2.14-1.02,3.584-1.086,5.009,1.071
			c0.762,1.154,2.786,1.483,4.252,2.161c1.243,0.575,2.526,1.417,1.771,2.853c-0.725,1.378-1.93,1.094-3.092-0.017
			c-0.404-0.387-1.492-0.572-2.222,0.478c-1.082,1.555-1.967,1.065-2.308-0.652c-0.075-0.375,0.022-0.729-0.481-0.962
			c-3.219-1.493-9.261-0.043-12.37,2.242c-2.847,2.092-3.11,5.134-4.172,7.948c-1.448,3.838-3.028,7.609-5.972,10.609
			c-0.385,0.392-0.934,0.716-0.818,1.387c0.363,2.103-0.883,3.802-1.557,5.587c-0.596,1.579-0.507,2.891,0.549,3.942
			c0.936,0.932,1.204,1.921,0.975,3.039c-0.57,2.785,0.891,5.702-0.788,8.5c-0.396,0.662,1.093,2.174,0.812,3.536
			c-0.629,3.04-0.619,6.156-0.872,9.224c-0.339,4.104,2.452,6.616,6.596,6.672c0.972,0.014,1.944-0.019,2.916,0.007
			c2.122,0.055,2.467,0.639,1.613,2.695c-0.151,0.364-0.378,0.702-0.483,1.077c-0.8,2.854-1.449,3.236-4.179,1.98
			c-1.812-0.834-3.754-0.105-5.604-0.823c-1.264-0.489-2.398-0.918-2.773-2.242c-0.506-1.785-1.362-3.42-1.701-5.31
			c-0.342-1.91-2.083-3.13-4.006-3.68c-2.611-0.746-3.241-1.751-2.152-4.087c0.912-1.956,0.688-3.931,0.425-5.932
			c-0.157-1.199-1.129-0.642-1.728-0.67c-2.925-0.138-4.318-2.325-2.792-4.881c1.154-1.935,0.836-3.073-1.084-4.008
			c-0.347-0.169-0.653-0.496-0.884-0.817c-1.817-2.531-2.113-2.648-4.458-0.426c-1.352,1.281-2.656,2.446-4.535,2.823
			c-0.846,0.17-1.729,1.181-2.473-0.055c-0.727-1.208-0.99-2.666-0.086-3.763c2.67-3.243,5.537-6.313,8.534-9.272
			c1.411-1.393,2.19-3.042,1.888-5.48c-0.629-5.083,0.835-9.941,3.427-14.366c0.865-1.478,1.493-3.105,2.688-4.41
			c0.298-0.325,0.765-0.896,0.526-1.516c-1.522-3.944,1.537-6.03,3.859-7.65c3.414-2.381,7.45-3.665,11.768-4.143
			c3.031-0.335,5.758-0.385,8.324,1.391c0.441,0.305,0.889,0.189,1.35-0.064c0.655-0.359,0.976-1.934,2.048-0.82
			c1.456,1.512,4.427,1.651,4.269,4.645C181.318,40.258,181.347,40.905,181.347,41.794z M151.647,63.939
			c-0.145-0.52,0.46-1.311-0.407-1.616c-0.252-0.088-0.783-0.008-0.872,0.161c-0.693,1.31-1.475,2.653-1.031,4.205
			c0.144,0.502,1.228,0.885,1.269,0.502C150.73,65.994,152.387,65.355,151.647,63.939z"/>
		<path style="fill-rule:evenodd;clip-rule:evenodd;fill:#7B491E;" d="M89.336,181.987c-1.703-0.309-2.898-1.549-4.234-2.463
			c-1.082-0.74-0.314-4.121,1.167-4.784c1.31-0.586,2.569-1.496,4.229-1.205c1.629,0.284,2.691-0.271,2.93-2.236
			c0.513-4.235,3.146-7.084,6.554-9.392c1.568-1.062,3.072-2.254,4.438-3.562c1.034-0.99,1.037-1.971-0.489-2.83
			c-1.277-0.719-2.662-0.91-3.984-1.371c-3.353-1.169-4.525-2.637-4.624-5.981c-0.167-5.668-3.223-8.282-8.88-8.209
			c-2.552,0.033-5.294,1.519-7.804-0.601c-0.365-0.309-1.744,0.33-2.494,0.789c-1.036,0.636-1.82,0.122-2.116-0.583
			c-0.302-0.722-0.438-1.991,0.638-2.326c4.529-1.414,8.692-4.556,13.493-4.264c2.53,0.153,5.349,0.275,7.872,1.275
			c0.292,0.115,0.604,0.46,0.837,0.405c4.047-0.949,6.954,2.071,10.45,3.026c2.348,0.641,3.447,2.607,4.125,5.012
			c0.597,2.114,1.019,4.294,2.169,6.325c1.103,1.947,1.292,4.367,2.533,6.396c0.559,0.913-2.777,6.443-3.912,6.778
			c-1.498,0.442-2.244,1.492-3.232,2.624c-2.001,2.293-3.396,5.068-5.811,7.05c-1.156,0.948-2.735,1.824-2.615,3.811
			c0.021,0.342-0.533,0.956-0.915,1.046c-3.323,0.783-3.433,3.555-3.842,6.111c-0.508,3.174-3.003,4.562-5.446,5.727
			c-2.235,1.067-4.683,1.672-6.512,3.496c-0.211,0.21-0.523,0.435-0.798,0.448c-5.716,0.279-11.316,2.19-17.092,1.335
			c-1.089-0.162-2.673-0.426-2.716-2.185c-0.015-0.627-0.058-1.037-0.872-1.107c-1.072-0.094-1.197-0.966-1.049-1.814
			c0.176-1.002,1.036-0.55,1.573-0.553c2.479-0.011,4.965,0.261,7.42,0.337c3.587,0.111,7.29-0.319,10.639-1.822
			c1.448-0.649,2.991-0.393,4.494-1.256C87.086,184.499,88.449,183.608,89.336,181.987z"/>
		<path style="fill-rule:evenodd;clip-rule:evenodd;fill:#7B491E;" d="M47.71,69.507c-0.241-1.123,0.334-1.752,1.38-2.102
			c1.343-0.448,2.603-0.073,3.367,0.932c1.181,1.553,3.912,1.432,4.201,3.968c0.016,0.142,1.528,0.298,2.273,0.133
			c1.427-0.317,2.276,0.551,2.498,1.532c0.194,0.858-0.596,1.837-1.473,2.351c-0.985,0.578-2.123,1.048-2.961-0.155
			c-0.595-0.854-0.948-1.011-2.054-0.605c-1.672,0.614-2.153-1.143-2.307-2.193c-0.299-2.045-0.817-2.848-3.035-1.946
			C48.258,71.969,47.515,71.015,47.71,69.507z"/>
		<path style="fill-rule:evenodd;clip-rule:evenodd;fill:#7B491E;" d="M12.752,122.452c0.916-1.674-0.696-4.47,2.208-5.521
			c0.369-0.135,0.087-0.809-0.111-1.278c-0.416-0.986-0.468-2.16-0.054-3.062c0.549-1.195,1.544-1.577,2.983-0.887
			c1.657,0.795,1.738,2.206,0.849,3.06c-2.128,2.041-1.041,4.996-2.46,7.2c-0.368,0.571-0.109,1.596,0.489,2.449
			c0.732,1.046,1.009,2.721-0.374,3.34c-1.3,0.583-2.245-0.805-2.538-1.931C13.451,124.704,11.788,124.015,12.752,122.452z"/>
		<path style="fill-rule:evenodd;clip-rule:evenodd;fill:#7B491E;" d="M66.431,80.887c3.657,1.365,2.867,3.529,1.975,5.495
			c-0.427,0.94-1.287,1.993-2.318,0.078c-1.002-1.86-2.312-3.489,0.03-5.236c0.142-0.106,0.639-0.188,0.284-0.394
			c-1.598-0.924-0.068-3.931-2.865-4.129c-0.708-0.05-1.84-1.229-1.095-1.938c0.905-0.862,2.284-2.055,3.755-0.959
			c1.205,0.897,2.057,2.161,3.59,2.777c0.694,0.279,1.31,1.626,0.137,2.606C69.098,79.876,68.504,80.888,66.431,80.887z"/>
		<path style="fill-rule:evenodd;clip-rule:evenodd;fill:#7B491E;" d="M72.428,83.33c1.861-0.473,3.123-0.014,3.843,1.173
			c0.42,0.693,0.873,0.632,1.37,0.594c2.581-0.198,2.028,1.192,1.25,2.544c-0.285,0.495-0.795,0.928-0.537,1.491
			c0.958,2.089-0.838,2.718-1.971,3.42c-1.411,0.875-2.495,0.404-2.442-1.497c0.018-0.639-0.03-1.318,0.166-1.908
			c0.627-1.888-0.042-2.755-1.965-2.559c-2.099,0.214-2.339-1.06-2.061-2.564C70.423,82.172,72.034,83.833,72.428,83.33z"/>
		<path style="fill-rule:evenodd;clip-rule:evenodd;fill:#7B491E;" d="M96.817,92.309c-0.105,1.334-0.989,1.884-1.745,2.392
			c-0.792,0.533-1.819-0.14-2.099-0.625c-1.463-2.535-3.943-4.125-5.684-6.406c-1.087-1.425-0.554-2.06,0.41-2.966
			c1.445-1.359,1.619,0.327,2.284,0.889c1.778,1.505,2.959,3.642,5.256,4.638C95.976,90.549,96.362,91.678,96.817,92.309z"/>
		<path style="fill-rule:evenodd;clip-rule:evenodd;fill:#7B491E;" d="M299.937,31.655c-0.228,1.043,0.67,2.579-1.539,3.072
			c-0.906,0.203-0.232,1.858-0.407,2.835c-0.188,1.046,0.656,2.777-1.274,2.764c-1.725-0.012-2.302-1.256-2.166-2.992
			c0.109-1.385-0.029-2.696,1.635-3.306c1.235-0.454,0.538-1.37,0.089-1.818c-0.733-0.733-0.765-1.537-0.705-2.417
			c0.089-1.316,0.756-2.058,2.135-2.028c1.352,0.029,2.048,0.798,2.22,2.066C299.999,30.383,299.937,30.955,299.937,31.655z"/>
		<path style="fill-rule:evenodd;clip-rule:evenodd;fill:#7B491E;" d="M97.727,54.643c0.238,1.237-0.147,2.354-1.384,2.692
			c-1.093,0.299-2.301,0.309-3.005-1.095c-0.281-0.561-0.738-1.326-1.857-0.846c-1.31,0.562-2.101-0.616-2.743-1.477
			c-0.486-0.65-0.405-1.524,0.336-2.167c0.936-0.811,1.963-1.582,3.207-0.953c1.153,0.583,2.078,1.133,3.577,0.959
			C96.824,51.645,98.038,53.022,97.727,54.643z"/>
		<path style="fill-rule:evenodd;clip-rule:evenodd;fill:#7B491E;" d="M240.177,20.236c1.812-1.702,0.17-2.956-0.875-4.4
			c-0.445-0.616,0.085-1.62,0.577-1.572c2.352,0.228,1.84-3.742,4.415-2.906c0.727,0.236,1.189,1.223,0.986,1.688
			c-1.087,2.484-0.831,5.285-1.916,7.711c-0.333,0.744-0.758,2.061-2.213,1.646C240.113,22.108,240.116,21.314,240.177,20.236z"/>
		<path style="fill-rule:evenodd;clip-rule:evenodd;fill:#7B491E;" d="M40.718,121.651c-0.859-0.045-1.254-0.045-1.645-0.09
			c-1.027-0.12-2.085-0.15-2.092-1.649c-0.006-1.246,0.563-2.11,1.725-2.179c1.175-0.069,2.516,0.211,2.63,1.758
			c0.095,1.276,0.045,2.024,1.745,1.248c1.57-0.717,2.674,0.563,3.068,1.868c0.416,1.374-0.487,2.228-1.958,2.375
			c-0.377,0.038-0.728,0.29-1.107,0.359c-0.949,0.173-1.861,0.322-2.653-0.561C39.549,123.8,39.853,122.89,40.718,121.651z"/>
		<path style="fill-rule:evenodd;clip-rule:evenodd;fill:#7B491E;" d="M239.52,57.576c-1.501,1.141,0.102,1.476,0.853,2.383
			c0.63,0.76,1.066,2.097,0.092,3.186c-0.805,0.9-1.594,0.61-2.56,0.167c-1.34-0.613-1.737-1.562-1.114-2.737
			c0.723-1.361-0.212-1.809-1.056-1.941c-1.432-0.227-1.398-1.039-1.447-2.154c-0.08-1.845,1.651-1.445,2.479-2.082
			c0.683-0.524,1.626,0.19,1.892,1.047C238.876,56.148,239.923,56.346,239.52,57.576z"/>
		<path style="fill-rule:evenodd;clip-rule:evenodd;fill:#7B491E;" d="M353.427,108.044c0.079,1.314-0.155,2.254-1.445,2.536
			c-1.197,0.261-0.994-0.941-1.434-1.427c-0.567-0.626-1.101-1.242-1.808-1.729c-1.066-0.736-0.71-1.894-0.632-2.885
			c0.058-0.722,0.69-0.998,1.433-0.959c1.146,0.06,1.587,0.774,1.949,1.76c0.322,0.876,0.683,2.224,1.9,0.499
			c0.492-0.698,1.177-1.857,2.31-1.072c0.72,0.499,1.885,1.093,1.521,2.223c-0.378,1.177-1.534,1.491-2.714,1.433
			C354.208,108.406,353.917,108.222,353.427,108.044z"/>
		<path style="fill-rule:evenodd;clip-rule:evenodd;fill:#7B491E;" d="M336.392,61.845c0.031-1.097-0.123-2.136,0.761-3.143
			c1.158-1.319,2.264-1.203,3.033,0.006c0.752,1.184,1.405,2.438,2.271,3.558c0.322,0.417,0.38,0.897,0.084,1.34
			c-1.348,2.014-3.432,0.465-5.146,0.95c-1.171,0.331-0.941-1.317-1.003-2.228C336.38,62.167,336.389,62.005,336.392,61.845z"/>
		<path style="fill-rule:evenodd;clip-rule:evenodd;fill:#7B491E;" d="M197.386,148.125c0-1.548,1.966-4.535,3.218-4.598
			c1.694-0.084,2.349,1.465,2.954,2.64c0.512,0.99,0.197,1.985-1.307,2.197c-0.632,0.09-1.631,0.299-1.47,1.456
			c0.104,0.745,0.008,1.719-0.775,1.766c-0.876,0.051-1.769-0.661-2.073-1.518C197.71,149.438,197.111,148.841,197.386,148.125z"/>
		<path style="fill-rule:evenodd;clip-rule:evenodd;fill:#7B491E;" d="M98.761,59.961c-0.082-0.982-0.061-1.714,0.549-1.845
			c1.832-0.392,3.634,0.229,5.332,0.717c1.15,0.331,1.267,1.552,0.162,2.476c-0.309,0.259-0.542,0.619-0.873,0.838
			c-1.006,0.667-1.492,2.611-3,1.907C99.213,63.251,99.118,61.244,98.761,59.961z"/>
		<path style="fill-rule:evenodd;clip-rule:evenodd;fill:#7B491E;" d="M291.692,21.821c-0.214-1.875,0.947-2.752,2.273-2.569
			c1.389,0.191,3.72,0.123,3.029,2.778c-0.309,1.184-0.812,2.333-1.361,3.43c-0.341,0.682-1.035,0.978-1.854,0.84
			c-0.755-0.127-1.204-0.564-1.113-1.31C292.82,23.716,290.987,23.071,291.692,21.821z"/>
		<path style="fill-rule:evenodd;clip-rule:evenodd;fill:#7B491E;" d="M19.988,107.846c0.595,1.968-1.209,2.402-2.445,2.402
			c-1.429,0-3.784,0.805-3.868-2.046c-0.039-1.315,1.97-3.599,3.145-3.641C18.195,104.513,19.973,106.242,19.988,107.846z"/>
		<path style="fill-rule:evenodd;clip-rule:evenodd;fill:#7B491E;" d="M378.668,133.249c-0.006,1.05-2.976,3.666-4.653,3.364
			c-0.942-0.169-1.621-0.769-1.631-1.761c-0.01-0.954-0.481-2.202,1.008-2.571c0.856-0.212,1.686-0.456,2.261-1.154
			c0.636-0.771,1.424-1.08,2.321-0.688C378.906,130.847,378.657,131.777,378.668,133.249z"/>
		<path style="fill-rule:evenodd;clip-rule:evenodd;fill:#7B491E;" d="M333.504,67.133c2.963-0.006,5.348,3.811,4.332,5.85
			c-0.213,0.427-0.366,1.275-1.097,0.546c-1.184-1.183-2.96-1.37-4.123-2.603c-0.688-0.73-1.483-1.458-1.014-2.463
			C332.059,67.486,333.104,67.141,333.504,67.133z"/>
		<path style="fill-rule:evenodd;clip-rule:evenodd;fill:#7B491E;" d="M34.096,105.502c2.831-0.841,4.923,1.317,7.421,1.836
			c1.312,0.272,0.925,1.422,0.738,2.125c-0.218,0.824-0.919,1.68-1.952,1.358c-2.094-0.65-3.744-2.21-5.833-2.971
			c-0.878-0.32-0.273-1.576-0.321-2.409L34.096,105.502z"/>
		<path style="fill-rule:evenodd;clip-rule:evenodd;fill:#7B491E;" d="M263.443,66.106c0.533-1.021,0.906-3.149,2.338-2.666
			c1.293,0.436,3.987-1.076,4.02,1.984c0.017,1.607-2.425,3.886-4.132,3.59C264.377,68.791,263.482,67.827,263.443,66.106z"/>
		<path style="fill-rule:evenodd;clip-rule:evenodd;fill:#7B491E;" d="M375.269,55.687c-0.254,0.67-0.267,1.43,0.239,2.232
			c0.528,0.836,0.36,1.668-0.418,2.371c-0.466,0.42-0.779,0.576-1.443,0.216c-0.889-0.482-1.279-1.172-1.242-2.053
			c0.024-0.575,0.555-1.355-0.382-1.433c-1.865-0.155-2.007-1.583-1.492-2.558c0.608-1.154,2.033-1.765,3.492-1.401
			C375.301,53.379,375.276,54.489,375.269,55.687z"/>
		<path style="fill-rule:evenodd;clip-rule:evenodd;fill:#7B491E;" d="M54.726,61.832c2.266-0.18,2.203,0.991,2.208,2.185
			c0.01,1.954-1.489,2.339-2.829,2.345c-0.899,0.003-1.809-0.387-2.825-0.263c-0.84,0.103-1.431-0.674-1.613-1.49
			c-0.189-0.847,0.014-1.629,1.026-1.867C52.208,62.386,53.729,62.056,54.726,61.832z"/>
		<path style="fill-rule:evenodd;clip-rule:evenodd;fill:#7B491E;" d="M385.415,79.778c0.443,0.732,1.057,0.976,1.029,1.635
			c-0.032,0.775,0.25,1.679-0.699,2.113c-0.509,0.232-1.23,0.357-1.564-0.095c-0.447-0.605-0.967-1.404-0.606-2.188
			c0.683-1.486,1.541-2.819,1.406-4.633c-0.093-1.228,1.283-1.621,2.091-1.086c1.171,0.775,2.9,1.648,2.123,3.506
			c-0.318,0.759-1.094,2.414-2.557,0.827C386.491,79.698,386.051,79.809,385.415,79.778z"/>
		<path style="fill-rule:evenodd;clip-rule:evenodd;fill:#7B491E;" d="M332.022,75.581c-0.141,1.441,0.713,3.516-1.758,3.46
			c-1.928-0.043-2.724-1.293-2.696-3.381c0.027-2.066,0.943-3.483,2.713-3.559C332.774,71.994,331.826,74.239,332.022,75.581z"/>
		<path style="fill-rule:evenodd;clip-rule:evenodd;fill:#7B491E;" d="M292.71,45.497c-0.552-1.285,0.474-2.13,1.103-2.923
			c1.012-1.276,2.832-0.905,3.327,0.641c0.536,1.67-0.012,3.39-0.48,4.981c-0.246,0.836-1.549,0.679-2.167,0.357
			C293.369,47.969,292.295,47.123,292.71,45.497z"/>
		<path style="fill-rule:evenodd;clip-rule:evenodd;fill:#7B491E;" d="M247.923,9.927c0.016-1.271,0.805-1.935,1.88-2.374
			c0.706,1.817,3.97-0.613,3.948,2.359c-0.01,1.561-2.422,3.862-3.84,3.755C248.65,13.571,247.857,12.078,247.923,9.927z"/>
		<path style="fill-rule:evenodd;clip-rule:evenodd;fill:#7B491E;" d="M327.08,100.184c-1.729,0.23-3.019-1.151-4.715-1.27
			c-0.741-0.052-0.882-1.378-0.275-2.023c1.293-1.376,4.997-1.322,6.327-0.07c0.724,0.681,1.483,1.348,1.126,2.453
			C329.13,100.553,327.982,100.092,327.08,100.184z"/>
		<path style="fill-rule:evenodd;clip-rule:evenodd;fill:#7B491E;" d="M86.219,52.072c-1.71,0.095-1.882-1.504-2.47-2.476
			c-0.389-0.645,3.577-3.298,4.915-3.364c1.238-0.061,1.505,1.04,1.662,1.73C90.624,49.281,87.758,51.985,86.219,52.072z"/>
		<path style="fill-rule:evenodd;clip-rule:evenodd;fill:#7B491E;" d="M382.036,71.492c0.449-0.877-0.11-1.408-0.752-2.11
			c-0.935-1.023-1.039-2.505-0.04-3.433c0.666-0.62,2.136-0.723,2.839,0.153c0.718,0.896,1.898,1.974,0.474,3.378
			c-0.372,0.366-1.154,0.931-0.484,1.785c0.64,0.813,0.742,1.801,0.076,2.585c-0.195,0.23-0.809,0.86-1.454,0.419
			C381.669,73.569,382.231,72.504,382.036,71.492z"/>
		<path style="fill-rule:evenodd;clip-rule:evenodd;fill:#7B491E;" d="M234.558,40.9c1.216,0.215,2.231,1.123,2.211,3.096
			c-0.034,3.129-2.721,1.429-4.045,2.083c-1.427,0.705-1.504-1.401-1.681-2.245C230.698,42.196,232.227,40.845,234.558,40.9z"/>
		<path style="fill-rule:evenodd;clip-rule:evenodd;fill:#7B491E;" d="M348.536,60.28c-0.084,0.819,0.388,1.999-0.841,2.416
			c-1.146,0.39-1.423-0.667-1.872-1.405c-0.144-0.235-0.534-0.305-0.776-0.497c-0.886-0.703-2.011-1.347-1.368-2.756
			c0.543-1.189,1.283-2.272,2.848-2.064c1.6,0.213,1.694,1.601,1.991,2.768C348.633,59.199,348.536,59.708,348.536,60.28z"/>
		<path style="fill-rule:evenodd;clip-rule:evenodd;fill:#7B491E;" d="M326.681,128.419c-0.213-1.818,0.6-3.331,2.243-3.302
			c1.16,0.021,3.144,0.386,3.093,2.53c-0.017,0.696-2.941,3.722-3.624,3.611C326.73,130.987,326.553,129.744,326.681,128.419z"/>
		<path style="fill-rule:evenodd;clip-rule:evenodd;fill:#7B491E;" d="M34.15,105.442c-0.646,0.171-0.488,0.71-0.565,1.167
			c-0.205,1.219-1.105,2.366-2.105,2.188c-1.125-0.2-2.736-0.424-3.195-1.917c-0.425-1.383,0.427-2.105,1.583-2.778
			c2.449-1.424,3.353-1.185,4.226,1.401C34.096,105.502,34.15,105.442,34.15,105.442z"/>
		<path style="fill-rule:evenodd;clip-rule:evenodd;fill:#7B491E;" d="M347.596,144.222c-0.089,1.082,0.281,2.189-0.688,2.362
			c-0.494,0.088-1.513-0.472-1.729-1.303c-0.136-0.52-0.302-0.677-0.813-0.923c-2.179-1.048-2.336-3.087-0.328-4.366
			c1.091-0.694,2.313-1.101,2.759,0.893C347.067,142.103,347.769,143.226,347.596,144.222z"/>
		<path style="fill-rule:evenodd;clip-rule:evenodd;fill:#7B491E;" d="M21.502,136.887c-0.527-1.591,0.358-2.513,1.712-2.963
			c0.628-0.209,4.068,2.449,4.034,2.888c-0.046,0.594-3.528,3.263-4.19,3.078C21.562,139.472,21.152,138.361,21.502,136.887z"/>
		<path style="fill-rule:evenodd;clip-rule:evenodd;fill:#7B491E;" d="M296.037,55.323c-0.113,0.684,0.333,1.517-0.271,2.068
			c-0.702,0.642-1.414,2.23-2.438,1.23c-1.095-1.068-2.297-2.708-1.441-4.39c0.42-0.827,0.693-2.556,2.441-2.105
			C296.025,52.565,296.248,53.833,296.037,55.323z"/>
		<path style="fill-rule:evenodd;clip-rule:evenodd;fill:#7B491E;" d="M29.86,136.218c0.714,1.037,1.666,0.008,2.629-0.051
			c0.879-0.053,1.821,0.175,2.027,1.139c0.192,0.899,0.187,1.775-1.052,2.32c-1.822,0.801-3.467,1.786-4.909-0.506
			c-0.488-0.776-0.376-1.451,0.054-2.22C28.86,136.452,28.997,136.039,29.86,136.218z"/>
		<path style="fill-rule:evenodd;clip-rule:evenodd;fill:#7B491E;" d="M366.669,137.12c-2.296,0.507-2.289-1.679-3.029-3.017
			c-0.197-0.357,0.071-0.77,0.396-1.053c0.632-0.552,4.82-0.172,5.422,0.428c0.616,0.614,0.591,1.306,0.329,1.992
			C369.432,136.398,368.085,137.104,366.669,137.12z"/>
		<path style="fill-rule:evenodd;clip-rule:evenodd;fill:#7B491E;" d="M283.426,32.622c1.756,0.016,2.923,1.631,2.919,3.554
			c-0.002,1.166-0.392,2.108-1.619,1.737c-1.573-0.476-3.535-0.756-3.735-3.008C280.815,32.934,282.383,32.929,283.426,32.622z"/>
		<path style="fill-rule:evenodd;clip-rule:evenodd;fill:#7B491E;" d="M379.822,58.712c0.257-1.561,0.577-3.243,2.231-3.639
			c1.188-0.285,2.156,0.57,2.712,1.812c0.374,0.835,0.181,1.353-0.403,1.895c-1.036,0.963-1.892,2.465-3.396,2.401
			C379.626,61.125,380.53,59.316,379.822,58.712z"/>
		<path style="fill-rule:evenodd;clip-rule:evenodd;fill:#7B491E;" d="M244.456,37.449c0.866-0.017,1.57-0.09,1.562,1.183
			c-0.015,2.358-1.13,4.582-2.537,4.672c-0.576,0.036-2.964-2.56-2.726-3.153C241.411,38.52,242.75,37.681,244.456,37.449z"/>
		<path style="fill-rule:evenodd;clip-rule:evenodd;fill:#7B491E;" d="M13.669,131.02c-0.183-2.424,2.025-1.702,3.094-2.024
			c0.952-0.287,2.455,0.394,2.229,2.045c-0.225,1.646-1.483,2.684-2.732,3.505C15.619,134.967,13.656,132.264,13.669,131.02z"/>
		<path style="fill-rule:evenodd;clip-rule:evenodd;fill:#7B491E;" d="M331.986,107.932c0.997,0.4,0.998,1.453,1.371,2.226
			c0.438,0.91-0.324,1.639-0.798,2.318c-0.577,0.83-1.138-0.038-1.648-0.216c-0.516-0.179-0.972-0.444-1.559-0.429
			c-0.816,0.021-1.921,0.334-1.707-1.17c0.133-0.94-0.626-2.249,1.386-2.327c0.96-0.037,1.977-0.412,3.01-0.348L331.986,107.932z"/>
		<path style="fill-rule:evenodd;clip-rule:evenodd;fill:#7B491E;" d="M188.815,48.979c1.188,0.96,2.996,1.159,3.189,2.953
			c0.204,1.885-1.671,2.613-2.756,2.773c-1.294,0.191-2.383-1.148-2.553-2.723C186.523,50.391,187.726,49.82,188.815,48.979z"/>
		<path style="fill-rule:evenodd;clip-rule:evenodd;fill:#7B491E;" d="M381.551,91.137c-0.825,1.04-0.858,2.69-1.274,4.234
			c-0.054,0.199-0.048,1.055-0.573,0.6c-0.497-0.432-1.512-0.42-1.482-1.309c0.032-1.016-0.418-1.751-0.872-2.607
			c-0.414-0.778-0.32-1.826,0.592-2.583c0.952-0.791,1.971-0.53,2.938-0.317C381.612,89.318,381.638,90.089,381.551,91.137z"/>
		<path style="fill-rule:evenodd;clip-rule:evenodd;fill:#7B491E;" d="M330.555,83.719c0.183,0.591-0.292,1.037-0.542,1.485
			c-0.439,0.784-1.745,0.538-1.872,0.325c-0.823-1.384-3.506-0.487-3.426-2.872c0.034-1.058,0.932-1.565,1.347-2.373
			c0.019-0.037,0.155-0.001,0.231-0.021C327.32,79.994,330.549,82.579,330.555,83.719z"/>
		<path style="fill-rule:evenodd;clip-rule:evenodd;fill:#7B491E;" d="M240.626,27.2c-0.146,1.269,0.683,3.108-1.849,3.016
			c-1.512-0.055-2.498-0.488-2.512-2.18c-0.014-1.677,1.428-3.639,2.723-3.537C240.678,24.633,240.868,25.806,240.626,27.2z"/>
		<path style="fill-rule:evenodd;clip-rule:evenodd;fill:#7B491E;" d="M218.471,192.464c-1.831,0.297-2.52-0.19-2.7-2.09
			c-0.278-2.932,2.097-2.29,3.314-2.532c1.625-0.323,1.933,1.684,1.968,2.673C221.104,191.948,220.09,193.044,218.471,192.464z"/>
		<path style="fill-rule:evenodd;clip-rule:evenodd;fill:#7B491E;" d="M354.432,123.507c-1.099,0.059-2.199-2.062-2.015-3.675
			c0.133-1.164,1.237-1.563,1.832-1.541c1.155,0.043,2.378-1.498,3.476,0.045c0.093,0.13,0.247,0.229,0.304,0.37
			C358.17,119.058,354.836,123.485,354.432,123.507z"/>
		<path style="fill-rule:evenodd;clip-rule:evenodd;fill:#7B491E;" d="M58.835,42.838c0.129,1.505,0.185,2.921-1.508,3.768
			c-0.722,0.362-1.135,1.484-2.188,0.951c-0.885-0.449-0.623-1.37-0.643-2.145c-0.012-0.479-0.011-0.959,0-1.439
			c0.051-2.273,0.662-2.66,2.651-1.727c0.554,0.26,1.152,0.427,1.729,0.637L58.835,42.838z"/>
		<path style="fill-rule:evenodd;clip-rule:evenodd;fill:#7B491E;" d="M392.276,98.434c0.213,1.623-0.191,3.292-1.884,3.351
			c-1.423,0.049-2.381-1.643-2.396-3.001c-0.018-1.598,1.254-2.779,2.841-2.918C392.786,95.694,392.134,97.385,392.276,98.434z"/>
		<path style="fill-rule:evenodd;clip-rule:evenodd;fill:#7B491E;" d="M367.944,53.833c0.373,1.091-0.591,1.951-0.486,3.034
			c0.05,0.507,0.447,1.357-0.614,1.512c-0.811,0.118-1.537-0.144-1.844-0.846c-0.719-1.649-0.715-3.412-0.015-5.036
			c0.262-0.605,0.895-1.643,1.786-1.281C367.799,51.633,368.232,52.656,367.944,53.833z"/>
		<path style="fill-rule:evenodd;clip-rule:evenodd;fill:#7B491E;" d="M278.011,12.154c1.577,0.142,3.298-0.237,2.821,1.464
			c-0.276,0.984,0.672,3.325-2.109,3.039c-1.704-0.175-3.287-1.152-3.388-2.218C275.188,12.867,276.784,12.007,278.011,12.154z"/>
		<path style="fill-rule:evenodd;clip-rule:evenodd;fill:#7B491E;" d="M362.653,103.895c0.753,0.814,2.455,1.633,0.837,3.456
			c-1.173,1.322-1.522,0.068-2.213-0.815c0.027,1.398-0.349,2.639-1.705,2.664c-0.99,0.019-1.215-1.334-1.677-2.065
			c-0.602-0.95,0.596-1.481,1.134-2.121c0.126-0.149,0.49-0.328,0.522-0.292C361.395,106.757,361.254,103.442,362.653,103.895z"/>
		<path style="fill-rule:evenodd;clip-rule:evenodd;fill:#7B491E;" d="M80.277,38.503c0.01,1.521-1.056,2.4-1.511,3.545
			c-0.208,0.525-0.974,0.407-1.478,0.001c-0.986-0.792-1.755-1.713-1.37-3.079c0.121-0.43,0.651-0.745,0.771-1.174
			c0.264-0.949,0.453-2.166,1.726-1.669C79.372,36.501,80.381,37.298,80.277,38.503z"/>
		<path style="fill-rule:evenodd;clip-rule:evenodd;fill:#7B491E;" d="M275.897,85.039c-0.194,1.101,0.179,2.71-2.006,2.025
			c-0.695-0.219-1.188,0.453-1.803,0.446c-0.591-0.005-1.505,0.411-1.702-0.369c-0.156-0.618-0.518-1.447,0.473-2.107
			c1.062-0.708,1.754-1.953,3.291-1.875C275.339,83.217,276.563,83.136,275.897,85.039z"/>
		<path style="fill-rule:evenodd;clip-rule:evenodd;fill:#7B491E;" d="M332.2,122.39c-1.475-0.54-2.264-1.742-2.555-3.126
			c-0.223-1.06,1.865-3.187,2.687-2.891c1.497,0.542,2.089,2.034,1.972,3.316C334.211,120.708,333.701,122.135,332.2,122.39z"/>
		<path style="fill-rule:evenodd;clip-rule:evenodd;fill:#7B491E;" d="M216.635,143.303c-0.878,0.77,0.611,2.987-1.652,3.031
			c-1.645,0.031-2.879-0.976-2.907-2.479c-0.024-1.357,0.909-2.906,2.414-3.042C215.728,140.702,216.46,141.951,216.635,143.303z"/>
		<path style="fill-rule:evenodd;clip-rule:evenodd;fill:#7B491E;" d="M245.954,70.123c-0.578,0.54-0.309,1.937-1.754,1.776
			c-1.791-0.2-4.229-2-3.963-3.211c0.416-1.89,2.104-0.938,3.228-1.027C245,67.538,246.015,68.644,245.954,70.123z"/>
		<path style="fill-rule:evenodd;clip-rule:evenodd;fill:#7B491E;" d="M236.539,129.695c2.308,0.021,4.02,0.629,3.938,2.318
			c-0.048,0.986-0.236,3.125-2.179,3.116c-2.019-0.009-1.98-1.705-2.01-3.129C236.271,131.115,235.932,130.02,236.539,129.695z"/>
		<path style="fill-rule:evenodd;clip-rule:evenodd;fill:#7B491E;" d="M294.11,66.382c-0.607,0.978-0.382,2.274-0.535,3.522
			c-0.137,1.113-0.949,1.496-1.899,0.829c-0.913-0.639-2.046-1.679-1.8-2.614c0.328-1.249,1.3-2.538,2.358-3.315
			C292.987,64.252,294.128,64.796,294.11,66.382z"/>
		<path style="fill-rule:evenodd;clip-rule:evenodd;fill:#7B491E;" d="M246.95,193c0.955,0.043,1.594,0.481,1.416,1.171
			c-0.401,1.562-0.23,3.053,0.005,4.597c0.104,0.686-0.637,1.132-1.16,1.421c-0.647,0.359-0.914-0.433-1.341-0.737
			c-1.224-0.875-1.291-2.492-0.65-3.195C246.132,195.255,245.391,193.369,246.95,193z"/>
		<path style="fill-rule:evenodd;clip-rule:evenodd;fill:#7B491E;" d="M24.317,111.323c-1.437-0.496-2.339-1.401-2.372-2.924
			c-0.024-1.13,1.991-2.956,3.042-2.875c1.081,0.083,1.451,1.292,1.191,1.614C25.158,108.403,27.02,110.972,24.317,111.323z"/>
		<path style="fill-rule:evenodd;clip-rule:evenodd;fill:#7B491E;" d="M249.73,77.838c0.985-0.252,2.068,0.236,1.876,1.247
			c-0.214,1.118,0.122,3.286-1.992,2.931c-1.257-0.211-3.537,0.058-3.422-2.01C246.281,78.374,247.908,77.695,249.73,77.838z"/>
		<path style="fill-rule:evenodd;clip-rule:evenodd;fill:#7B491E;" d="M228.498,134.322c-0.013-1.305-0.257-2.562,1.679-2.588
			c1.41-0.019,2.125,0.933,1.967,1.835c-0.275,1.569,0.122,4.067-2.033,4.222C228.985,137.871,228.306,135.794,228.498,134.322z"/>
		<path style="fill-rule:evenodd;clip-rule:evenodd;fill:#7B491E;" d="M384.021,130.954c0.05,1.519-1.604,3.841-2.72,3.71
			c-1.32-0.153-1.856-1.498-1.854-2.321c0.003-1.741,1.468-2.624,3.047-2.966C383.604,129.137,384.076,129.878,384.021,130.954z"/>
		<path style="fill-rule:evenodd;clip-rule:evenodd;fill:#7B491E;" d="M325.272,88.979c1.616,0.089,2.702,0.891,2.816,2.55
			c0.075,1.091-1.217,2.21-1.682,1.735c-1.079-1.101-3.619,0.069-3.598-2.329C322.822,89.437,323.843,88.901,325.272,88.979z"/>
		<path style="fill-rule:evenodd;clip-rule:evenodd;fill:#7B491E;" d="M255.223,140.509c0,0.321,0.001,0.642,0,0.963
			c-0.001,0.791,0.12,1.826-0.937,1.858c-0.778,0.023-1.404-0.707-1.474-1.599c-0.045-0.571-0.123-1.046-0.53-1.521
			c-0.759-0.888-0.733-1.869,0.001-2.807c0.418-0.535,0.989-1.062,1.618-0.706c0.941,0.532,1.326,1.511,1.321,2.607
			C255.221,139.706,255.223,140.107,255.223,140.509z"/>
		<path style="fill-rule:evenodd;clip-rule:evenodd;fill:#7B491E;" d="M65.671,58.045c0.281,1.207-0.723,1.877-1.564,1.676
			c-1.346-0.322-3.244-0.134-3.618-2.157c-0.106-0.574,2.703-2.543,3.438-2.484C64.611,55.136,65.689,56.904,65.671,58.045z"/>
		<path style="fill-rule:evenodd;clip-rule:evenodd;fill:#7B491E;" d="M266.884,55.814c0.008,1.42,0.173,2.576-1.447,2.567
			c-1.061-0.006-3.213-2.524-2.771-3.609c0.302-0.743,0.721-1.941,2.161-1.764C266.879,53.262,266.705,54.8,266.884,55.814z"/>
		<path style="fill-rule:evenodd;clip-rule:evenodd;fill:#7B491E;" d="M35.526,130.505c0.275,1.55-1.102,2.42-1.348,3.748
			c-0.137,0.739-0.779-0.004-1.142-0.095c-0.693-0.174-1.049-0.758-0.859-1.466c0.156-0.582,0.729-1.074,0.297-1.751
			c-0.685-1.072-0.389-1.94,0.525-2.71c0.488-0.41,0.977-0.487,1.514-0.129C35.407,128.697,35.725,129.534,35.526,130.505z"/>
		<path style="fill-rule:evenodd;clip-rule:evenodd;fill:#7B491E;" d="M392.275,111.354c0.266,1.505-0.781,1.976-1.95,1.898
			c-1.27-0.084-2.463-0.473-2.455-2.256c0.006-1.373,0.708-2.485,1.779-2.434C391.013,108.629,392.452,109.384,392.275,111.354z"/>
		<path style="fill-rule:evenodd;clip-rule:evenodd;fill:#7B491E;" d="M235.972,53.529c-2.221,0.067-2.819-1.324-3.073-2.863
			c-0.221-1.343,0.749-1.544,1.846-1.529c1.551,0.021,3.01,1.46,2.984,2.983C237.704,53.535,236.749,53.564,235.972,53.529z"/>
		<path style="fill-rule:evenodd;clip-rule:evenodd;fill:#7B491E;" d="M246.647,129.95c2.355,1.148,1.74,3.234,1.742,5.102
			c0.001,0.628-0.44,1.05-1.074,1.063c-0.491,0.011-0.914,0.118-1.392-0.514C244.476,133.683,244.584,131.951,246.647,129.95z"/>
		<path style="fill-rule:evenodd;clip-rule:evenodd;fill:#7B491E;" d="M290.212,18.265c-0.012,0.865,0.225,1.862-0.966,2.182
			c-1.276,0.343-1.608-0.59-1.96-1.498c-0.114-0.294-0.274-0.583-0.47-0.83c-0.548-0.691-1.478-1.23-0.831-2.345
			c0.525-0.906,1.45-0.786,2.165-0.593c1.014,0.274,1.764,1.039,2.047,2.116C290.277,17.6,290.21,17.941,290.212,18.265z"/>
		<path style="fill-rule:evenodd;clip-rule:evenodd;fill:#7B491E;" d="M268.366,9.217c0.213-1.066-0.705-2.917,1.48-2.79
			c1.753,0.102,1.776,1.607,1.936,3.004c0.183,1.617-0.609,2.668-1.967,2.664C268.068,12.089,268.211,10.536,268.366,9.217z"/>
		<path style="fill-rule:evenodd;clip-rule:evenodd;fill:#7B491E;" d="M353.891,139.937c-0.739,1.031,0.239,3.427-1.266,3.614
			c-1.404,0.175-2.375-1.794-2.587-3.379c-0.188-1.41,0.923-2.316,2.075-2.477C353.238,137.537,353.907,138.504,353.891,139.937z"/>
		<path style="fill-rule:evenodd;clip-rule:evenodd;fill:#7B491E;" d="M250.488,36.503c1.898-0.075,2.209,1.293,2.251,2.53
			c0.05,1.451-0.935,2.263-2.395,2.328c-1.839,0.082-1.691-1.648-1.807-2.564C248.404,37.722,248.93,36.39,250.488,36.503z"/>
		<path style="fill-rule:evenodd;clip-rule:evenodd;fill:#7B491E;" d="M360.843,116.752c0.699,0.684,0.752-0.375,1.134-0.433
			c1.075-0.162,2.609-0.491,2.044,1.374c-0.413,1.366-1.687,2.366-3.082,2.856c-0.834,0.293-1.395-0.204-1.778-1.129
			C358.416,117.63,358.924,116.689,360.843,116.752z"/>
		<path style="fill-rule:evenodd;clip-rule:evenodd;fill:#7B491E;" d="M354.378,61.772c-0.581,1.282-0.975,3.246-2.526,3.226
			c-1.242-0.016-1.373-1.829-1.382-3.141c-0.011-1.537,1.116-2.115,2.156-2.797C353.172,59.968,354.878,60.111,354.378,61.772z"/>
		<path style="fill-rule:evenodd;clip-rule:evenodd;fill:#7B491E;" d="M235.317,193.474c-1.24,0.111-2.69-2.143-2.972-3.916
			c-0.319-2.009,1.63-1.71,2.133-1.669c2.453,0.196,0.724,2.968,2.169,4.084C236.992,192.239,235.935,193.189,235.317,193.474z"/>
		<path style="fill-rule:evenodd;clip-rule:evenodd;fill:#7B491E;" d="M44.875,112.303c1.786,0.065,2.46,0.972,2.318,2.518
			c-0.136,1.475-0.901,1.768-2.14,1.022c-0.127-0.076-0.318-0.128-0.454-0.093c-1.191,0.31-2.718,0.947-2.671-1.1
			C41.966,112.925,43.583,112.572,44.875,112.303z"/>
		<path style="fill-rule:evenodd;clip-rule:evenodd;fill:#7B491E;" d="M285.831,77.411c-0.06-2.052,1.295-3.039,2.604-3.692
			c0.698-0.348,1.26,1.241,1.021,1.583c-0.961,1.374,1.193,3.908-1.49,4.396C286.37,79.99,286.289,78.281,285.831,77.411z"/>
		<path style="fill-rule:evenodd;clip-rule:evenodd;fill:#7B491E;" d="M327.639,102.934c0.005-1.162-0.009-2.581,1.276-2.154
			c1.326,0.439,3.065,0.976,3.118,3.04c0.037,1.502-1.034,1.723-2.009,1.658C328.454,105.373,327.251,104.673,327.639,102.934z"/>
		<path style="fill-rule:evenodd;clip-rule:evenodd;fill:#7B491E;" d="M243.272,73.402c1.836,0.386,1.776,2.246,2.124,3.463
			c0.427,1.495-1.573,1.4-2.114,1.318c-1.396-0.211-2.195-1.272-2.19-2.901C241.097,73.722,241.813,73.294,243.272,73.402z"/>
		<path style="fill-rule:evenodd;clip-rule:evenodd;fill:#7B491E;" d="M387.748,86.834c-0.437,1.008-0.442,2.563-2.084,2.626
			c-2.708,0.105-1.424-2.38-1.994-3.583c-0.383-0.805,1.143-1.633,2.062-1.666C387.281,84.157,387.286,85.735,387.748,86.834z"/>
		<path style="fill-rule:evenodd;clip-rule:evenodd;fill:#7B491E;" d="M357.777,86.879c0.026-1.01-0.306-2.162,0.82-2.801
			c0.665-0.376,1.243-1.417,2.223-0.524c0.924,0.843,0.748,2.121,0.194,2.711c-0.539,0.574-0.805,0.992-0.824,1.724
			c-0.018,0.634,0.345,1.526-0.9,1.509c-1.15-0.016-1.577-0.581-1.518-1.656C357.79,87.521,357.775,87.2,357.777,86.879z"/>
		<path style="fill-rule:evenodd;clip-rule:evenodd;fill:#7B491E;" d="M53.555,52.167c0.347-1.161,0.658-2.792,2.073-2.861
			c0.898-0.043,2.271,0.741,2.272,2.285c0.001,1.803-1.436,2.441-2.694,2.701C54.55,54.428,53.08,53.768,53.555,52.167z"/>
		<path style="fill-rule:evenodd;clip-rule:evenodd;fill:#7B491E;" d="M208.482,145.312c0.445,1.731-0.562,3.252-1.685,3.162
			c-1.173-0.095-1.66-1.831-1.668-3.304c-0.006-1.235,0.293-2.637,1.457-2.541C207.713,142.722,209.214,143.589,208.482,145.312z"/>
		<path style="fill-rule:evenodd;clip-rule:evenodd;fill:#7B491E;" d="M208.863,195.007c-0.866,0.946-0.904,2.177-2.249,2.392
			c-1.489,0.238-2.346-1.479-2.162-1.749c0.771-1.138-0.277-3.35,1.738-3.552C208.228,191.894,207.277,194.471,208.863,195.007z"/>
		<path style="fill-rule:evenodd;clip-rule:evenodd;fill:#7B491E;" d="M233.342,34.593c0.05-1.167-0.263-2.37,1.36-2.457
			c1.233-0.066,3.17,1.819,2.853,3.066c-0.291,1.139-1.464,1.689-2.574,1.755C233.137,37.068,233.556,35.502,233.342,34.593z"/>
		<path style="fill-rule:evenodd;clip-rule:evenodd;fill:#7B491E;" d="M66.277,42.304c-1.07-0.274-2.121-1.1-2.072-2.953
			c0.025-0.931,0.029-1.84,1.283-1.849c1.022-0.007,3.102,2.353,3.103,3.416C68.593,42.116,67.883,42.408,66.277,42.304z"/>
		<path style="fill-rule:evenodd;clip-rule:evenodd;fill:#7B491E;" d="M384.956,121.369c-0.052-1.271,0.695-2.364,1.711-2.062
			c0.93,0.277,2.688-0.015,2.729,1.942c0.038,1.873-1.306,2.39-2.572,2.492C385.433,123.855,385.104,122.538,384.956,121.369z"/>
		<path style="fill-rule:evenodd;clip-rule:evenodd;fill:#7B491E;" d="M83.754,82.173c1.87,0.067,1.959,1.724,2.271,2.917
			c0.364,1.393-1.173,1.958-1.935,1.839c-1.645-0.26-2.072-1.945-2.322-3.33C81.52,82.218,82.691,82.156,83.754,82.173z"/>
		<path style="fill-rule:evenodd;clip-rule:evenodd;fill:#7B491E;" d="M39.68,131.052c0.426,0.518,0.953,0.948,1.201,1.504
			c0.467,1.047,1.648,2.454-0.818,2.622c-0.751,0.051-0.984,0.769-1.513,1.095c-0.378,0.234-0.533,1.15-1.261,0.419
			c-0.464-0.467-1.178-1.274-0.706-1.579C38.111,134.124,37.792,131.888,39.68,131.052z"/>
		<path style="fill-rule:evenodd;clip-rule:evenodd;fill:#7B491E;" d="M240.962,196.411c-1.163-0.961-1.754-1.912-1.798-3.218
			c-0.036-1.069,0.536-1.807,1.37-2.015c0.857-0.215,1.955-0.52,2.715,0.354c0.866,0.997-0.331,1.483-0.571,2.225
			C242.333,194.823,241.114,195.171,240.962,196.411z"/>
		<path style="fill-rule:evenodd;clip-rule:evenodd;fill:#7B491E;" d="M275.629,151.962c0.168,1.347-0.905,2.309-1.647,2.378
			c-0.721,0.067-1.765-0.918-1.748-2.149c0.007-0.484,0.047-0.975-0.009-1.451c-0.133-1.125,0.271-1.846,1.406-2.129
			c1.246-0.312,1.013,0.915,1.386,1.421C275.403,150.556,275.864,151.223,275.629,151.962z"/>
		<path style="fill-rule:evenodd;clip-rule:evenodd;fill:#7B491E;" d="M251.841,82.527c-0.154-1.388,0.067-2.394,1.836-2.298
			c1.143,0.062,2.225,0.115,2,1.616c-0.173,1.157,0.222,2.759-1.862,2.812C252.199,84.697,251.607,84.042,251.841,82.527z"/>
		<path style="fill-rule:evenodd;clip-rule:evenodd;fill:#7B491E;" d="M268.109,162.882c0.963-0.059,1.709,0.217,1.667,1.263
			c-0.039,0.947,0.29,1.635,0.84,2.377c0.315,0.426,0.518,1.414-0.262,1.607c-0.59,0.146-1.749,0.697-1.961-0.515
			c-0.177-1.02-0.945-1.446-1.521-2.054c-0.599-0.632-0.592-1.31-0.343-1.978C266.792,162.88,267.481,162.813,268.109,162.882z"/>
		<path style="fill-rule:evenodd;clip-rule:evenodd;fill:#7B491E;" d="M331.101,136.242c-0.32,1.147-1.049,2.196-2.134,2.241
			c-1.237,0.052-2.173-0.987-2.257-2.271c-0.091-1.374,0.957-2.321,2.131-2.415C330.264,133.685,330.48,135.231,331.101,136.242z"/>
		<path style="fill-rule:evenodd;clip-rule:evenodd;fill:#7B491E;" d="M223.873,136.613c1.923-0.107,1.395,1.774,1.961,2.675
			c0.229,0.361-0.423,2.046-1.745,1.882c-1.285-0.16-2.451-0.635-2.416-2.334C221.704,137.341,222.443,136.67,223.873,136.613z"/>
		<path style="fill-rule:evenodd;clip-rule:evenodd;fill:#7B491E;" d="M332.47,141.592c0.049-1.9,0.876-2.576,2.439-2.54
			c1.159,0.026,1.645,0.641,1.453,1.675c-0.261,1.405-0.729,3.037-2.359,3.083C332.806,143.843,332.308,142.555,332.47,141.592z"/>
		<path style="fill-rule:evenodd;clip-rule:evenodd;fill:#7B491E;" d="M84.601,43.792c0.16,1.881-1.128,2.639-2.118,2.708
			c-0.929,0.065-1.875-1.53-1.589-2.25c0.385-0.971,0.182-2.748,1.783-2.829C84.443,41.333,84.341,42.943,84.601,43.792z"/>
		<path style="fill-rule:evenodd;clip-rule:evenodd;fill:#7B491E;" d="M371.87,84.516c-0.023,1.054,0.268,2.246-0.812,2.426
			c-0.88,0.146-1.832-0.427-1.632-1.712c0.012-0.076,0.016-0.184-0.026-0.233c-0.885-1.039-1.582-2.084-0.224-3.277
			c0.357-0.313,0.677-0.722,1.213-0.263C371.392,82.317,372.271,83.225,371.87,84.516z"/>
		<path style="fill-rule:evenodd;clip-rule:evenodd;fill:#7B491E;" d="M256.073,185.691c-1.835,0.119-3.161-0.059-3.269-1.951
			c-0.068-1.212,0.73-1.562,1.736-1.402c1.533,0.243,3.153,0.972,3.435,2.425C258.213,185.993,256.604,185.61,256.073,185.691z"/>
		<path style="fill-rule:evenodd;clip-rule:evenodd;fill:#7B491E;" d="M271.617,52.822c-0.756,1.074-0.662,3.174-2.433,2.899
			c-1.22-0.189-1.705-1.887-1.715-3.058c-0.011-1.177,1.296-1.416,2.32-1.559C271.101,50.922,271.207,52.073,271.617,52.822z"/>
		<path style="fill-rule:evenodd;clip-rule:evenodd;fill:#7B491E;" d="M262.033,7.675c0.133,1.269-0.909,1.71-1.765,1.539
			c-1.264-0.253-2.486-0.764-2.669-2.526c-0.164-1.59,1.322-1.671,1.729-1.565C260.549,5.437,262.086,5.771,262.033,7.675z"/>
		<path style="fill-rule:evenodd;clip-rule:evenodd;fill:#7B491E;" d="M225.58,188.858c-0.226-1.563,1.069-2.068,2.039-2.039
			c1.097,0.033,1.911,1.07,1.815,2.323c-0.077,1.011-0.465,2.516-1.505,2.236C227.033,191.138,225.293,190.676,225.58,188.858z"/>
		<path style="fill-rule:evenodd;clip-rule:evenodd;fill:#7B491E;" d="M357.754,61.654c-0.048-2.253,2.101-2.564,3.301-3.696
			c0.078-0.073,0.561,0.185,0.775,0.376c0.403,0.359,0.526,1.011,0.162,1.272c-1.013,0.723-1.115,1.95-1.792,2.85
			c-0.509,0.677-1.093,0.906-1.852,0.763C357.327,63.027,357.974,62.173,357.754,61.654z"/>
		<path style="fill-rule:evenodd;clip-rule:evenodd;fill:#7B491E;" d="M262.431,186.896c-0.57,0.711-0.221,2.646-2.136,1.379
			c-0.759-0.502-0.967,0.771-1.065,1.17c-0.443,1.799-0.852,1.266-1.872,0.319c-1.237-1.146-0.884-2.489-0.355-3.37
			c0.363-0.605,1.708-0.317,2.176,0.915c0.24,0.632,0.966,0.469,1.418,0.062C261.087,186.93,261.516,186.462,262.431,186.896z"/>
		<path style="fill-rule:evenodd;clip-rule:evenodd;fill:#7B491E;" d="M269.813,159.033c-0.109,0.925,0.36,2.41-1.191,2.308
			c-1.515-0.099-2.02-1.623-2.164-2.901c-0.132-1.177,0.743-1.875,1.951-1.864C270.198,156.591,269.717,157.98,269.813,159.033z"/>
		<path style="fill-rule:evenodd;clip-rule:evenodd;fill:#7B491E;" d="M264.323,87.454c-1.661,0.611-2.377-0.731-2.526-1.66
			c-0.127-0.784,0.672-2.119,1.863-2.073c1.302,0.05,2.331,0.64,2.301,2.353C265.938,87.412,265.544,87.879,264.323,87.454z"/>
		<path style="fill-rule:evenodd;clip-rule:evenodd;fill:#7B491E;" d="M259.087,158.096c0.42,1.438-1.091,1.496-1.636,2.261
			c-0.938-0.749-1.797-1.418-1.805-2.893c-0.007-1.373,0.868-2.308,1.684-2.136C258.384,155.55,259.404,156.588,259.087,158.096z"/>
		<path style="fill-rule:evenodd;clip-rule:evenodd;fill:#7B491E;" d="M370.971,114.992c-0.421,1.067-1.013,1.739-2.271,1.731
			c-1.606-0.01-1.824-1.32-2.122-2.332c-0.306-1.04,0.396-1.722,1.508-1.551C369.369,113.038,370.457,113.618,370.971,114.992z"/>
		<path style="fill-rule:evenodd;clip-rule:evenodd;fill:#7B491E;" d="M202.669,197.354c1.266,0.616,1.988,1.691,1.978,3.139
			c-0.009,0.978-0.814,1.905-1.634,1.663c-1.362-0.404-1.809-1.706-1.755-3.151C201.291,198.083,201.539,197.459,202.669,197.354z"
			/>
		<path style="fill-rule:evenodd;clip-rule:evenodd;fill:#7B491E;" d="M266.033,153.673c-0.859-1.69-2.766-3-0.796-4.934
			c0.498-0.489,1.027-0.739,1.633-0.081C268.334,150.251,268.145,151.699,266.033,153.673z"/>
		<path style="fill-rule:evenodd;clip-rule:evenodd;fill:#7B491E;" d="M29.069,121.565c-2.022,0.1-2.098-1.548-2.515-2.568
			c-0.332-0.812,0.771-1.708,1.438-1.664c1.331,0.085,2.293,1.212,2.601,2.402C30.862,120.771,29.888,121.374,29.069,121.565z"/>
		<path style="fill-rule:evenodd;clip-rule:evenodd;fill:#7B491E;" d="M366.036,85.665c-0.001,0.403-0.011,0.807,0.002,1.209
			c0.027,0.905-0.209,1.665-1.281,1.613c-1.075-0.053-1.183-0.875-1.154-1.744c0.022-0.725,0.05-1.455-0.007-2.176
			c-0.077-0.972,0.142-1.464,1.292-1.434c1.027,0.027,1.228,0.467,1.154,1.323C366.008,84.856,366.036,85.262,366.036,85.665z"/>
		<path style="fill-rule:evenodd;clip-rule:evenodd;fill:#7B491E;" d="M360.225,137.479c-0.063,1.268,0.229,2.574-1.206,2.494
			c-1.514-0.084-2.053-1.476-2.137-2.735c-0.047-0.711,0.31-1.63,1.576-1.618C360.116,135.636,360.319,136.538,360.225,137.479z"/>
		<path style="fill-rule:evenodd;clip-rule:evenodd;fill:#7B491E;" d="M264.912,176.484c0.375,1.254-0.606,2.001-1.416,1.815
			c-1.088-0.249-1.933-1.157-1.998-2.601c-0.061-1.335,1.225-1.261,1.674-2.006C264.118,174.388,265.198,174.996,264.912,176.484z"
			/>
		<path style="fill-rule:evenodd;clip-rule:evenodd;fill:#7B491E;" d="M256.218,153.289c0.309,0.994-0.419,1.59-1.471,1.511
			c-1.19-0.089-1.889-0.962-1.944-2.192c-0.063-1.425,1.198-1.719,2.08-1.803C256.486,150.651,256.135,152.045,256.218,153.289z"/>
		<path style="fill-rule:evenodd;clip-rule:evenodd;fill:#7B491E;" d="M367.797,93.377c-1.847,0.167-1.772-1.52-2.161-2.507
			c-0.358-0.91,0.684-1.928,1.402-1.747c1.508,0.38,1.996,1.835,2.134,3.301C369.241,93.162,368.903,93.361,367.797,93.377z"/>
		<path style="fill-rule:evenodd;clip-rule:evenodd;fill:#7B491E;" d="M257.315,143.537c1.793,0.893,1.97,2.425,1.792,4.097
			c-0.046,0.429,0.189,1-0.523,1.129c-0.539,0.097-0.93-0.146-1.243-0.546C256.176,146.723,255.693,145.209,257.315,143.537z"/>
		<path style="fill-rule:evenodd;clip-rule:evenodd;fill:#7B491E;" d="M364.001,64.704c-0.093,0.328,0.637,1.419-0.981,1.497
			c-1.775,0.085-1.708-1.393-1.71-2.183c-0.003-0.624-0.23-2.241,1.128-2.16C363.723,61.935,364.269,63,364.001,64.704z"/>
		<path style="fill-rule:evenodd;clip-rule:evenodd;fill:#7B491E;" d="M354.858,64.229c0.071-0.696-0.269-1.736,0.9-1.698
			c1.406,0.046,2.221,1.151,2.368,2.349c0.062,0.511-0.385,1.875-1.551,1.728C355.282,66.443,354.736,65.526,354.858,64.229z"/>
		<path style="fill-rule:evenodd;clip-rule:evenodd;fill:#7B491E;" d="M326.236,102.578c0.741-0.141,1.037,0.368,0.916,1.264
			c-0.176,1.307-0.976,2.255-2.154,2.532c-0.474,0.111-1.382-0.465-1.285-1.585C323.842,103.289,324.544,102.635,326.236,102.578z"
			/>
		<path style="fill-rule:evenodd;clip-rule:evenodd;fill:#7B491E;" d="M22.664,119.59c-1.626,0.439-1.02-1.178-1.594-1.723
			c0.604-0.452,0.001-1.849,1.496-1.689c1.183,0.125,2.229,0.537,2.151,1.661C24.66,118.666,24.127,119.936,22.664,119.59z"/>
		<path style="fill-rule:evenodd;clip-rule:evenodd;fill:#7B491E;" d="M260.387,190.768c0.367,0.518,1.573,0.567,1.569,1.433
			c-0.005,1.199-0.963,2.001-2.102,2.221c-0.875,0.169-1.148-0.549-1.247-1.37C258.456,191.784,259.029,191.106,260.387,190.768z"/>
		<path style="fill-rule:evenodd;clip-rule:evenodd;fill:#7B491E;" d="M44.534,130.346c-0.679-0.919-1.853-1.31-1.714-2.624
			c0.098-0.931,0.739-1.715,1.425-1.673c1.343,0.082,1.236,1.66,1.792,2.544C46.156,128.782,45.086,129.72,44.534,130.346z"/>
		<path style="fill-rule:evenodd;clip-rule:evenodd;fill:#7B491E;" d="M260.757,184.255c-0.95-1.284-2.34-1.351-2.18-2.901
			c0.121-1.178,0.786-0.962,1.472-0.977c1.158-0.023,1.824,0.681,1.934,1.698C262.085,183.035,260.682,182.918,260.757,184.255z"/>
		<path style="fill-rule:evenodd;clip-rule:evenodd;fill:#7B491E;" d="M72.007,40.912c-0.711-0.434-1.537-0.842-1.429-1.756
			c0.098-0.833,0.409-1.964,1.312-2.044c0.877-0.078,1.501,0.742,1.563,1.77C73.52,39.959,72.773,40.405,72.007,40.912z"/>
		<path style="fill-rule:evenodd;clip-rule:evenodd;fill:#7B491E;" d="M29.015,130.979c0.918,0.391,1.774,0.65,1.679,1.832
			c-0.081,1.015-0.562,1.435-1.539,1.392c-1.013-0.045-1.833-0.678-1.768-1.537C27.444,131.923,28.29,131.28,29.015,130.979z"/>
		<path style="fill-rule:evenodd;clip-rule:evenodd;fill:#7B491E;" d="M370.415,90.995c-0.036-1.034,0.009-2.008,1.266-1.958
			c1.253,0.051,1.121,1.074,1.175,1.97c0.059,0.968-0.142,1.434-1.285,1.438C370.292,92.449,370.356,91.738,370.415,90.995z"/>
		<path style="fill-rule:evenodd;clip-rule:evenodd;fill:#7B491E;" d="M336.707,95.288c-1.347,0.293-1.63-0.753-1.671-1.475
			c-0.035-0.618,0.686-1.401,1.404-1.313c0.787,0.097,1.548,0.505,1.445,1.687C337.805,95.125,337.568,95.54,336.707,95.288z"/>
		<path style="fill-rule:evenodd;clip-rule:evenodd;fill:#7B491E;" d="M30.677,126.986c0.055,0.718,0.118,1.481-1.163,1.412
			c-0.863-0.047-1.337-0.164-1.288-1.188c0.048-1.01,0.231-1.702,1.439-1.771C30.869,125.37,30.668,126.158,30.677,126.986z"/>
		<path style="fill-rule:evenodd;clip-rule:evenodd;fill:#7B491E;" d="M258.135,193.249c0.041,0.859-0.134,1.704-1.035,1.627
			c-1.011-0.087-1.611-0.946-1.632-1.955c-0.022-1.039,0.866-0.813,1.53-0.89C258.038,191.91,258.267,192.444,258.135,193.249z"/>
		<path style="fill-rule:evenodd;clip-rule:evenodd;fill:#7B491E;" d="M332.041,107.986c0.032-0.83-0.363-1.836,0.665-2.31
			c0.632-0.291,1.442-0.382,2.011,0.075c0.253,0.203,0.266,0.896,0.161,1.31c-0.175,0.692-0.75,0.953-1.469,0.9
			c-0.473-0.035-0.949-0.021-1.423-0.029L332.041,107.986z"/>
		<path style="fill-rule:evenodd;clip-rule:evenodd;fill:#7B491E;" d="M25.191,130.495c-0.315,0.54-0.493,1.731-1.031,1.535
			c-0.597-0.217-1.688-0.457-1.744-1.547c-0.041-0.787,0.136-1.452,1.019-1.603C24.629,128.677,24.738,129.77,25.191,130.495z"/>
		<path style="fill-rule:evenodd;clip-rule:evenodd;fill:#7B491E;" d="M18.514,134.434c0.138-0.836,0.691-1.512,1.479-1.6
			c0.716-0.08,0.967,0.641,0.97,1.354c0.004,0.839-0.302,1.421-1.197,1.455C19.013,135.672,18.617,135.213,18.514,134.434z"/>
		<path style="fill-rule:evenodd;clip-rule:evenodd;fill:#7B491E;" d="M256.194,195.835c0.022,0.917-0.302,1.512-1.186,1.529
			c-0.875,0.018-1.252-0.532-1.243-1.379c0.006-0.64,0.104-1.48,0.858-1.25C255.146,194.894,256.484,194.521,256.194,195.835z"/>
		<path style="fill-rule:evenodd;clip-rule:evenodd;fill:#7B491E;" d="M345.579,87.713c-0.546,0.789-0.562,1.837-1.482,1.701
			c-0.851-0.126-1.224-1.031-1.132-1.763c0.06-0.484,0.297-1.533,0.986-1.358C344.598,86.457,345.084,87.252,345.579,87.713z"/>
		<path style="fill-rule:evenodd;clip-rule:evenodd;fill:#7B491E;" d="M336.622,99.706c0.741-0.061,1.297-0.005,1.239,0.976
			c-0.059,1.01-0.516,1.411-1.505,1.457c-1.022,0.048-0.896-0.598-0.951-1.25C335.322,99.922,335.712,99.543,336.622,99.706z"/>
		<path style="fill-rule:evenodd;clip-rule:evenodd;fill:#7B491E;" d="M340.777,88.98c-0.055,1.063-0.523,1.459-1.393,1.485
			c-0.642,0.019-1.085-0.062-1.063-0.882c0.021-0.818,0.231-1.433,1.136-1.537C340.263,87.953,340.549,88.523,340.777,88.98z"/>
		<path style="fill-rule:evenodd;clip-rule:evenodd;fill:#7B491E;" d="M40.173,131.046c-0.415-0.383-0.936-1.098-0.653-1.349
			c0.583-0.519-0.055-1.743,0.92-1.72c0.89,0.021,0.977,0.888,0.926,1.657C41.316,130.399,40.742,130.703,40.173,131.046z"/>
		<path style="fill-rule:evenodd;clip-rule:evenodd;fill:#7B491E;" d="M58.877,42.882c0.389-0.227,0.149-0.482,0.073-0.773
			c-0.208-0.793-0.013-1.53,0.873-1.633c0.6-0.07,1.011,0.485,0.968,1.126c-0.057,0.843-0.466,1.396-1.404,1.055
			c-0.316-0.116-0.399,0.029-0.552,0.18C58.835,42.838,58.877,42.882,58.877,42.882z"/>
		<path style="fill-rule:evenodd;clip-rule:evenodd;fill:#7B491E;" d="M253.451,181.692c-0.513-0.305-0.673-0.758-0.674-1.356
			c-0.001-0.694,0.215-1.07,0.941-0.912c0.43,0.095,0.996,0.284,0.773,0.845C254.279,180.801,254.224,181.542,253.451,181.692z"/>
		<path style="fill-rule:evenodd;clip-rule:evenodd;fill:#7B491E;" d="M270.271,147.314c-0.073,0.6-0.566,0.557-0.898,0.457
			c-0.35-0.105-0.633-0.429-0.946-0.657c0.296-0.245,0.57-0.658,0.891-0.696C269.849,146.354,270.105,146.838,270.271,147.314z"/>
		<path style="fill-rule:evenodd;clip-rule:evenodd;fill:#7B491E;" d="M260.542,176.89c-0.039,0.172,0.013,0.567-0.443,0.522
			c-0.512-0.051-0.837-0.398-0.937-0.874c-0.079-0.38,0.217-0.5,0.562-0.526C260.287,175.97,260.636,176.136,260.542,176.89z"/>
		<path style="fill-rule:evenodd;clip-rule:evenodd;fill:#7B491E;" d="M266.382,171.665c-0.088,0.1-0.261,0.405-0.354,0.383
			c-0.283-0.069-0.621-0.203-0.781-0.425c-0.329-0.456,0.104-0.447,0.389-0.47C265.956,171.129,266.282,171.126,266.382,171.665z"/>
		<path style="fill-rule:evenodd;clip-rule:evenodd;fill:none;" d="M158.298,175.125c-2.25,0.873-3.529,2.743-4.969,4.392
			c-1.444,1.653-3.62,1.962-5.421,2.571c-2.114,0.716-4.654,0.271-6.999,0.144c-0.599-0.032-1.368-0.7-1.273-1.52
			c0.064-0.561,0.644-0.777,1.276-0.838c3.441-0.331,6.348-2.227,9.499-3.395C152.987,175.524,155.662,175.735,158.298,175.125z"/>
		<path style="fill-rule:evenodd;clip-rule:evenodd;fill:none;" d="M142.951,156.122c0.048,0.905,0.199,2.357-0.921,2.739
			c-1.076,0.368-2.535,0.566-3.569-0.641c-0.284-0.331-0.795-0.515-1.238-0.655c-2.528-0.799-3.504-2.764-2.467-5.063
			c0.302-0.67,1.052-1.163,1.519-0.697c1.087,1.083,2.089,0.51,3.174,0.221C141.172,151.566,142.957,153.559,142.951,156.122z"/>
		<path style="fill-rule:evenodd;clip-rule:evenodd;fill:none;" d="M144.3,170.635c-0.745,0.049-1.121-0.332-1.283-0.755
			c-0.208-0.542,0.336-0.846,0.673-1.164c1.589-1.502,3.78-1.632,5.691-2.379c0.764-0.299,1.276-0.578,1.444-1.33
			c0.429-1.913,2.248-2.413,3.524-3.436c0.516-0.412,1.447-0.289,1.192,0.711c-0.666,2.612-2.136,4.81-4.422,6.208
			C149.02,169.776,146.293,169.362,144.3,170.635z"/>
		<path style="fill-rule:evenodd;clip-rule:evenodd;fill:none;" d="M163.434,151.27c0.645-1.643,0.385-3.97,0.412-6.275
			c0.008-0.621,0.069-1.167,0.881-1.061c0.981,0.127,2.221-0.515,2.865,0.668c0.734,1.349,1.195,2.774-0.051,4.165
			c-0.84,0.937-1.599,1.772-0.879,3.329c0.511,1.104-0.617,2.33-1.637,2.377C163.536,154.541,163.244,153.199,163.434,151.27z"/>
		<path style="fill-rule:evenodd;clip-rule:evenodd;fill:none;" d="M151.647,63.939c0.739,1.416-0.917,2.055-1.042,3.252
			c-0.041,0.383-1.125,0-1.269-0.502c-0.444-1.552,0.337-2.895,1.031-4.205c0.089-0.169,0.62-0.249,0.872-0.161
			C152.108,62.629,151.503,63.42,151.647,63.939z"/>
	</g>
</g>
</svg>
