<?xml version="1.0" encoding="iso-8859-1"?>
<!-- Generator: Adobe Illustrator 16.0.0, SVG Export Plug-In . SVG Version: 6.00 Build 0)  -->
<!DOCTYPE svg PUBLIC "-//W3C//DTD SVG 1.1//EN" "http://www.w3.org/Graphics/SVG/1.1/DTD/svg11.dtd">
<svg version="1.1" id="Layer_1" xmlns="http://www.w3.org/2000/svg" xmlns:xlink="http://www.w3.org/1999/xlink" x="0px" y="0px"
	 width="401.114px" height="204.674px" viewBox="0 0 401.114 204.674" style="enable-background:new 0 0 401.114 204.674;"
	 xml:space="preserve">
<g>
	<g>
		<path style="fill:none;" d="M200.579,204.125c-65.92,0-131.84-0.007-197.76,0.043c-1.739,0.001-2.32-0.161-2.318-2.172
			C0.572,135.528,0.568,69.059,0.512,2.591C0.51,0.812,0.993,0.521,2.643,0.522C134.574,0.562,266.506,0.566,398.438,0.5
			c2.026-0.001,2.164,0.603,2.163,2.326c-0.049,66.377-0.053,132.754,0.014,199.131c0.003,1.932-0.453,2.219-2.275,2.217
			C332.419,204.117,266.499,204.125,200.579,204.125z M199.212,63.675c0.173,0.172,0.334,0.359,0.522,0.514
			c1.207,0.994,2.435,1.271,4.003,0.645c0.769-0.307,0.812-0.614,0.967-1.258c0.478-1.997-1.035-2.672-2.248-3.458
			c-0.846-0.548-1.929-0.599-2.772,0.073c-1.256,1-0.894,2.291-0.417,3.545c-1.564-0.66-2.136-2.519-3.836-3.088
			c-0.783-0.262-1.34-0.395-1.955,0.213c-0.597,0.591-1.066,1.104-0.739,2.112c0.438,1.349,0.979,2.58,2.475,2.822
			C196.995,66.083,198.298,65.175,199.212,63.675z M192.063,95.542c-0.179-0.181-0.443-0.331-0.522-0.548
			c-0.799-2.166-2.705-2.633-4.605-2.652c-0.672-0.006-2.271,0.482-1.951,1.793c0.429,1.758,1.276,3.394,3.478,3.547
			c0.091,0.006,0.185,0.002,0.274,0.017c0.693,0.116,0.684,0.62,0.348,0.971c-1.036,1.083,0.798,1.072,0.684,1.871
			c-0.04,0.277,0.606,0.569,1.108,0.217c0.731-0.512,0.916-1.43,0.56-1.936c-0.995-1.413-0.099-2.312,0.58-3.332
			c0.622-0.669,1.071,0.159,1.615,0.191c1.151,0.07,2.105-0.106,2.612-1.356c0.318-0.786,0.291-1.468-0.412-1.877
			c-1.093-0.637-1.914-0.081-2.853,0.642C192.045,93.81,192.4,94.75,192.063,95.542z M310.553,39.774
			c3.456-1.769,6.715-3.358,9.153-6.252c0.72-0.854,2.096-1.556,3.206-1.61c6.008-0.288,11.757-0.048,15.809,5.701
			c2.303,3.266,3.608,6.773,4.85,10.459c0.838,2.492,0.622,5.122,1.483,7.556c1.644,4.649,2.159,9.511,2.854,14.349
			c0.666,4.636,0.938,9.401,4.696,13.007c2.394,2.297,6.021,3.232,7.374,6.692c0.092,0.233,0.816,0.21,1.241,0.325
			c3.32,0.898,6.54,1.598,10.149,1.251c4.143-0.398,7.404-2.082,10.635-4.335c1.789-1.249,3.014-3.654,5.832-3.013
			c0.283,0.065,0.875-0.382,1.029-0.724c0.92-2.039-0.818-3.371-1.596-4.845c-0.595-1.127-1.966-1.066-3.296-0.429
			c-4.62,2.212-9.467,3.883-14.37,5.325c-3.817,1.123-7.718,1.576-10.574-2.148c-2.212-2.885-3.062-6.374-3.413-9.872
			c-0.912-9.087-0.695-18.201-2.568-27.304c-2.126-10.33-7.507-17.249-16.82-21.386c-5.016-2.228-10.637-1-15.864-2.21
			c-2.655-0.615-4.489,1.68-6.662,2.019c-4.595,0.715-8.844,2.476-13.308,3.522c-0.979,0.23-2.389,0.875-2.625,1.632
			c-1.12,3.593-4.339,3.108-6.873,3.742c-2.332,0.583-4.066,2.593-6.602,2.541c0.088,0.916-1.448,0.753-1.181,1.88
			c0.258,1.083-0.632,1.888-1.392,2.108c-1.784,0.517-2.391,2.265-2.262,3.301c0.333,2.671-2.923,4.156-1.914,6.917
			c0.14,0.381-0.865,0.664-1.454,0.92c-2.897,1.264-6.898,1.087-7.562,5.471c-0.033,0.219-0.329,0.458-0.56,0.58
			c-4.374,2.306-5.878,7.151-9.179,10.435c-1.482,1.476-2.199,4.034-0.531,5.801c1.495,1.584,3.72,2.087,5.795,0.384
			c0.52-0.426,1.232-0.334,1.823-0.081c0.662,0.284,0.93,0.875,0.76,1.58c-0.149,0.618-0.723,0.548-1.117,0.433
			c-2.551-0.746-4.222,0.643-5.273,2.566c-1.118,2.046,0.069,4.818,2.201,6.28c1.412,0.968,2.651,2.178,4.004,3.193
			c1.663,1.25,2.556,3.67,4.847,3.855c4.624,0.371,7.49,3.008,10.01,6.599c1.215,1.731,0.439,2.354-0.698,3.279
			c-2.285,1.858-5.25,1.457-7.829,2.04c-3.497,0.792-7.308,0.207-10.983,0.21c-2.378,0.002-4.76-0.092-7.131,0.031
			c-1.842,0.095-3.433,1.131-3.799,2.887c-0.345,1.649,1.298,2.409,2.638,2.796c1.383,0.398,1.987,1.092,2.279,2.502
			c0.21,1.014,1.401,2.397,2.176,2.051c3.383-1.512,6.983-0.414,10.369-1.234c2.461-0.597,5.554-1.101,7.329-0.373
			c3.071,1.258,5.594,0.503,8.383,0.139c1.529-0.2,2.701-0.978,3.438-2.214c0.501-0.843,1.069-0.999,1.937-1.125
			c3.952-0.571,5.587-3.618,4.327-7.391c-0.412-1.233-0.928-3.329,0.385-3.945c2.461-1.156,4.299-3.466,7.188-3.794
			c1.2-0.136,2.174-0.494,2.182-2.16c0.008-1.646-1.135-2.052-2.156-2.359c-1.971-0.593-3.722-1.582-5.529-2.491
			c-1.566-0.788-1.72-2.073-0.439-2.853c2.279-1.388,3.216-3.925,5.266-5.475c0.65-0.492,1.316-1.294,0.854-2.511
			c-0.463-1.222-1.308-1.052-2.17-1c-2.002,0.121-3.876-0.719-5.907-0.636c-1.424,0.058-1.133-0.961-0.438-1.793
			c0.862-1.032,1.817-2.008,2.535-3.135c1.875-2.943,4.626-5.14,6.642-7.919c1.015-1.399,2.104-2.681,3.499-3.491
			c1.923-1.116,3.32-3.838,1.663-6.275c-0.733-1.077-0.475-1.779-0.059-2.916c0.776-2.124,2.669-3.016,4.062-4.425
			C312.596,41.12,312.271,40.478,310.553,39.774z M143.921,148.708c0.78-2.543,1.931-4.442,4.724-5.009
			c1.237-0.251,2.449-1.438,2.624-2.527c0.224-1.391,1.138-1.978,1.815-2.904c1.836-2.514,4.896-4.11,5.798-7.257
			c0.377-1.316,0.714-2.655,1.631-3.554c1.779-1.744,3.266-3.766,4.754-5.686c1.453-1.876,2.93-3.845,3.91-6.244
			c1.507-3.691,1.639-7.612,2.902-11.275c0.563-1.63-0.215-1.821-1.369-1.601c-1.299,0.249-3.518,1.009-3.609,1.291
			c-1.216,3.731-4.708,3.675-7.384,5.15c-3.162,1.744-5.454,4.85-7.852,7.623c-2.621,3.031-5.488,2.875-7.38-0.544
			c-0.348-0.628-0.638-1.136-1.345-1.541c-2.233-1.285-3.12-4.163-5.767-5.019c0.042-3.559-2.582-3.532-5.084-4.01
			c-3.792-0.725-7.568-1.261-11.272-2.804c-4.038-1.681-8.389-0.314-12.28,1.696c-1.771,0.915-4.016,1.38-4.995,3.243
			c-2.735,5.206-7.974,8.227-11.098,13.15c-1.548,2.44-3.66,4.303-3.243,7.58c0.285,2.24-1.3,3.757-3.275,3.671
			c-3.05-0.131-5.427,1.471-8.124,2.145c-2.861,0.715-1.999,2.675-2.212,4.254c-0.207,1.531,0.589,2.75,2.134,3.318
			c2.498,0.918,4.977,1.232,7.602,0.326c2.621-0.905,5.385-0.78,8.123-0.615c0.633,0.038,1.329-0.098,1.282,0.909
			c-0.039,0.835-0.652,0.805-1.159,0.725c-1.342-0.21-2.38,0.2-2.611,1.564c-0.241,1.418,0.775,2.187,1.917,2.834
			c2.021,1.147,3.851,2.248,3.594,5.235c-0.229,2.671,2.008,4.01,4.649,2.772c2.245-1.051,4.655-1.023,6.933-1.731
			c0.886-0.274,2.635,0.187,1.882,1.526c-0.981,1.746-2.452,3.411-4.42,4.247c-3.244,1.38-6.788,1.227-10.201,1.623
			c-5.413,0.629-10.872,0.744-16.328,0.61c-2.25-0.055-3.937,1.134-5.33,2.724c-1.514,1.728-0.539,3.444,0.09,5.234
			c0.615,1.751,1.931,1.242,3.123,1.375c1.719,0.189,3.683-0.726,5.046,1.141c0.574,0.784,1.534-0.089,1.565-0.189
			c0.39-1.247,1.406-0.789,2.217-0.992c1.612-0.403,3.224-0.013,4.875-0.296c6.016-1.03,12.001-2.565,18.209-1.892
			c1.074,0.117,2.277,0.21,3.256-0.143c4.695-1.694,9.474-3.255,13.947-5.43c3.64-1.77,7.851-3.015,9.938-7.082
			c0.103-0.2,0.388-0.476,0.547-0.451c2.627,0.409,3.444-1.999,5.04-3.188c0.855-0.637,1.361-2.224,2.883-0.396
			c1.015,1.22,2.202-0.532,3.296-0.958c0.756-0.294,1.073-1.077,0.719-1.826c-0.485-1.024-1.519-0.804-2.418-0.806
			C145.465,148.707,144.742,148.708,143.921,148.708z M76.652,27.012c0.619-2.418-0.668-3.675-1.714-4.984
			c-0.85-1.063-2.134-0.862-2.36,0.254c-0.495,2.448-1.673,1.652-3.324,1.416c-3.127-0.448-6.291-0.128-9.459-1.062
			c-2.244-0.661-3.104,0.926-2.298,3.376c0.881,2.681,3.833,3.586,6.145,1.589c1.122-0.969,1.722-0.995,2.782-0.195
			c0.34,0.256,0.841,0.904,1.416,0.47c1.466-1.107,2.211,0.013,2.818,0.985c0.337,0.542,0.586,0.793,1.2,0.786
			c2.784-0.035,2.883,3.706,5.524,3.984c0.25,0.027,0.701,0.815,0.247,1.624c-0.401,0.712-0.286,1.775-0.229,2.672
			c0.115,1.805,1.649,2.226,2.893,2.034c1.112-0.171,2.901,0.067,3.118-1.876c0.195-1.749-2.074-6.197-3.754-6.728
			C77.13,30.558,77.383,28.366,76.652,27.012z M33.67,55.978c-2.86,0.04-3.41,0.778-2.988,3.6c0.09,0.599,0.017,0.957-0.731,1.422
			c-1.614,1.004-3.064,2.354-4.354,3.769c-0.916,1.005-0.925,2.008-0.041,3.535c2.068,3.568,5.622,4.023,8.88,5.209
			c0.636,0.231,1.288-0.068,1.627-0.705c0.335-0.629,0.16-1.166-0.344-1.701c-1.271-1.349-3.479-2.092-3.021-4.624
			c0.045-0.25-0.589-0.643-0.934-0.941c-1.413-1.223-1.412-2.911,0.137-3.795c0.57-0.325,1.397-0.192,2.104-0.285
			c1.736-0.226,3.903-3.123,3.117-4.233C36.229,55.968,34.544,56.766,33.67,55.978z M86.149,59.253
			c0.867,0.033,5.496-3.181,5.702-3.777c0.028-0.082,0.16-0.205,0.152-0.212c-2.302-2.188,0.715-2.502,1.265-3.696
			c0.42-0.914,1.083-1.018,1.95-1.115c1.07-0.121,2.224-1.068,1.811-1.9c-1.007-2.033-0.701-3.201,1.376-4.055
			c0.571-0.235,0.387-0.975,0.359-1.499c-0.044-0.872,0.153-1.372,1.187-1.305c1.156,0.075,1.801-0.668,1.523-1.71
			c-0.396-1.487-0.197-3.316-1.875-4.223c-0.471-0.255-0.817,0.2-1.145,0.511c-1.449,1.373-1.622,2.863-0.43,4.486
			c-1.432,0.867-3.295,1.368-3.073,3.633c0.009,0.089,0.006,0.194,0.052,0.263c0.415,0.621,0.259,0.727-0.48,0.941
			c-2.296,0.664-3.651,2.658-4.771,4.467c-1.23,1.99-2.405,3.944-4.072,5.602c-0.575,0.571-1.264,1.169-0.748,2.238
			C85.266,58.589,85.529,59.199,86.149,59.253z M340.889,178.11c-0.355,1.666,0.432,2.214,1.122,2.798
			c0.342,0.289,0.785,0.167,0.879-0.196c0.503-1.944,2.781-3.062,2.307-5.523c-0.34-1.766,0.703-3.618-0.02-5.462
			c-0.087-0.224-0.318-0.747,0.356-1.029c4.195-1.757,4.149-1.769,2.372-5.865c-1.058-2.437-2.928-0.941-4.208-0.674
			c-1.215,0.255-1.923,1.727-0.911,3.072c0.536,0.713,1.12,1.365,0.405,2.132C340.117,170.664,342.145,175.032,340.889,178.11z
			 M219.423,157.855c0-0.728,0.243-1.581-0.054-2.154c-0.522-1.006-1.545-2.377-2.644-1.051c-1.021,1.229-2.243,2.838-1.12,4.782
			c0.761,1.318,1.302,2.606-0.661,3.459c-0.371,0.161-0.65,0.628-0.878,1.009c-1.206,2.02-2.588,3.681-5.294,3.493
			c-1.041-0.072-2.267,0.025-2.431,1.459c-0.207,1.813,0.825,3.009,2.311,3.795c1.364,0.721,2.071-0.408,2.539-1.316
			c0.484-0.942,1.146-1.74,1.97-2.165c4.007-2.064,4.758-3.123,4.479-7.16c-0.028-0.397-0.203-0.543,0.308-0.685
			C219.823,160.798,219.435,159.218,219.423,157.855z M42.808,87.654c0.062-2.301-1.599-4.159-3.893-4.218
			c-0.87-0.022-1.541-0.211-2.188-0.824c-0.642-0.608-1.317-0.342-1.887,0.271c-0.485,0.522-1.058,0.854-0.464,1.799
			c1.025,1.628,1.369,3.747,3.684,4.316c0.533,0.131,1.279,0.667,0.696,1.427c-2.288,2.984,0.322,4.915,1.525,7.108
			c0.415,0.755,1.196,1.701,2.183,1.129c1.004-0.582,1.672-1.662,1.29-2.952c-0.224-0.754-0.512-1.611-1.053-2.127
			c-1.495-1.426-1.146-2.905-0.339-4.409C42.633,88.671,42.861,88.222,42.808,87.654z M77.408,63.149
			c0,0.358-0.193,1.08,0.039,1.617c0.551,1.276,0.972,2.922,2.866,2.704c1.692-0.195,2.16-1.431,1.996-2.966
			c-0.084-0.795,0.228-1.364,0.768-1.928c0.609-0.636,0.531-1.476-0.206-1.857c-1.635-0.848-0.883-1.614-0.231-2.675
			c0.763-1.241-0.091-2.161-0.997-3.037c-1.099-1.063-2.399-1.063-3.603-0.612c-1.084,0.407-1.458,2.131-1.098,2.603
			C78.44,58.961,77.229,60.934,77.408,63.149z M234.269,91.524c-0.521-0.698-1.014-1.998-1.924-2.442
			c-1.604-0.784-3.334-1.114-4.951-2.169c-0.994-0.648-2.166-0.996-3.001-2.096c-1.011-1.331-2.627-0.974-3.174,0.556
			c-0.638,1.786,1.917,5.219,3.8,4.75c1.977-0.492,2.78,0.206,3.199,1.887c0.221,0.881,0.96,1.296,1.503,1.886
			c1.502,1.634,2.245-0.896,3.572-0.691C233.854,93.293,234.364,92.598,234.269,91.524z M204.678,84.663
			c-0.032-2.33-1.365-2.979-4.468-2.281c-0.667,0.15-1.673,0.938-1.906,0.233c-0.628-1.907-2.27-1.061-3.364-1.601
			c-0.89-0.439-1.791-0.661-2.481,0.129c-0.794,0.91-0.701,2.259-0.218,3.095c0.883,1.528,2.299,2.764,4.243,1.562
			c1.392-0.862,2.357-1.401,3.292,0.597c0.587,1.255,1.995,1.056,3.146,0.643C204.091,86.617,205.065,85.965,204.678,84.663z
			 M208.907,65.005c0.1-0.008-0.254,0.288-0.377,0.888c-0.282,1.379-0.482,2.764,0.812,3.776c1.191,0.931,2.421,0.708,3.741,0.139
			c1.312-0.564,2.583-2.53,4.141-0.704c0.733,0.86,1.303,1.522,2.451,1.262c0.839-0.19,1.463-0.612,1.47-1.638
			c0.01-1.297-0.824-1.801-1.811-2.377C216.26,64.556,212.82,65.766,208.907,65.005z M302.311,174.734
			c0.221-1.582-0.307-2.764-1.993-2.951c-1.728-0.191-1.67,1.222-1.815,2.361c-0.325,2.557-2.939,2.845-4.366,4.312
			c-0.746,0.767-1.076-0.792-1.757-1.023c-0.796-0.27-1.642-0.471-2.257,0.269c-0.648,0.78-0.753,1.813,0.093,2.407
			c1.027,0.721,2.338,3.233,3.376-0.063c0.047-0.15,0.285-0.389,0.295-0.382c3.02,2.069,4.528-1.323,6.804-1.921
			C302.078,177.378,302.564,176.162,302.311,174.734z M273.056,173.252c-1.03,0.63-0.643,2.431-1.805,1.17
			c-0.479-0.521-1.211-0.909-1.778-0.684c-0.593,0.235-1.508,0.969-1.081,1.642c0.703,1.105-0.194,2.919,1.522,3.46
			c0.948,0.298,2.056-0.003,2.309-0.917c0.423-1.521,1.646-2.105,2.703-2.862c1.718-1.229,2.36-2.39,0.29-3.854
			c-0.185-0.131-0.162-0.535-0.34-0.698c-0.915-0.837-1.554-2.841-3.092-1.755c-1.381,0.977-1.093,2.711,0.05,4.016
			C272.091,173.062,272.641,173.098,273.056,173.252z M44.662,108.761c1.213,0.469,1.458-0.548,1.995-1.163
			c0.838-0.961-0.057-1.369-0.521-1.94c-1.307-1.605-3.708-1.214-5.055-2.806c-0.6-0.71-1.226-1.83-2.433-1.174
			c-1.063,0.579-1.812,1.67-1.801,2.826c0.011,1.257,0.808,2.893,1.969,2.868C40.972,107.327,42.707,108.506,44.662,108.761z
			 M158.091,174.43c1.258,0.973,2.305,1.56,3.045,2.412c0.823,0.948,1.634,1.112,2.48,0.349c0.882-0.797,1.395-1.897,0.821-3.094
			c-1.035-2.157-3.326-1.884-5.125-2.235c-1.294-0.253-1.767,1.295-2.032,2.392c-1.06-0.148-1.273-2.022-2.521-1.072
			c-1.082,0.823-1.044,1.98-0.613,3.284c0.371,1.122,1.011,1.477,1.996,1.296C157.808,177.456,158.137,176.167,158.091,174.43z
			 M33.978,49.417c0.112,1.858,0.468,3.146,1.343,4.38c0.529,0.747,0.928,1.27,1.846,1.061c0.952-0.217,1.692-0.839,1.758-1.8
			c0.129-1.864,0.16-3.661,0.889-5.493c0.542-1.364-1.628-3.427-2.52-2.713C35.703,46.124,34.476,47.753,33.978,49.417z
			 M39.513,31.973c0.092,2.848,1.534,4.003,4.208,4.539c1.555,0.312,2.56-0.177,3.438-0.938c1.203-1.043,0.079-2.054-0.554-2.945
			c-0.48-0.677-1.028-1.319-1.613-1.91c-1.398-1.41-3.075-0.52-4.607-0.392C39.591,30.393,39.434,31.307,39.513,31.973z
			 M165.368,62.562c-1.805,0.035-3.52,1.672-3.489,3.331c0.021,1.128,3.626,4.546,4.757,4.318c2.384-0.482,1.747-3.051,2.765-4.525
			C170.049,64.746,167.121,62.529,165.368,62.562z M52.706,24.702c-0.528,0.213-1.543-0.491-1.652,0.721
			c-0.211,2.353-0.545,4.827,0.834,6.876c0.812,1.206,2.392,1.525,3.902,1.015c0.91-0.308,1.667-0.921,1.256-1.958
			c-0.817-2.068-2.53-3.729-2.591-6.175C54.44,24.562,53.387,24.724,52.706,24.702z M182.185,58.444
			c0.42-0.698-0.202-1.456-0.631-2.045c-0.887-1.217-2.235-1.682-3.732-1.264c-1.043,0.292-1.955,1.486-1.546,2.112
			c1.273,1.951,0.871,4.006,0.965,6.045c0.04,0.852,0.44,1.324,1.291,1.46c0.948,0.152,1.123-0.743,1.177-1.175
			c0.166-1.331,0.726-2.27,1.882-2.931C182.37,60.202,182.153,59.381,182.185,58.444z M200.311,160.689
			c-0.049-1.147-1.059-1.433-1.822-1.489c-1.398-0.104-2.792-0.175-4.229,0.386c-1.375,0.535-2.74,1.276-2.633,2.599
			c0.133,1.64,1.827,2.565,3.135,3.477C195.321,166.05,200.322,161.494,200.311,160.689z M292.586,133.874
			c-2.077-0.102-4.042,0.963-6.151,0.582c-0.778-0.141-1.001,0.268-1.143,1.066c-0.27,1.534,0.565,2.607,1.356,3.62
			c0.411,0.526,1.72,0.519,1.932-0.095c1.001-2.899,3.109-1.677,4.999-1.651c0.752,0.011,2.05,0.377,2.183-1.144
			c0.104-1.205-0.632-1.856-1.558-2.273C293.742,133.771,293.131,133.898,292.586,133.874z M164.837,51.692
			c-0.479,0.452-0.896,0.803-1.261,1.201c-0.442,0.482-1.008,0.265-1.523,0.345c-2.234,0.345-2.844,1.503-1.756,3.506
			c0.353,0.649,1.278,1.36,1.354,1.741c0.448,2.268,2.266,2.54,3.289,1.518c0.929-0.928,2.813-2.788,0.518-4.598
			c-0.689-0.543-1.931-1.211-0.154-2.073c0.688-0.334-0.037-0.718-0.134-1.07C165.114,52.064,164.96,51.896,164.837,51.692z
			 M26.329,118.716c-1.537-0.876-2.748-2.111-4.601-2.497c-1.343-0.279-2.873-1.128-3.429,0.509
			c-0.539,1.586-0.681,3.486,1.512,4.595C23.055,122.962,24.532,120.688,26.329,118.716z M167.169,50.507
			c1.801-0.055,3.486-0.485,3.981-2.459c0.297-1.186-2.939-3.592-4.485-3.604c-2.339-0.018-2.476,1.645-2.586,3.308
			C163.934,49.95,165.201,50.625,167.169,50.507z M277.155,180.001c-1.862-0.334-3.294,0.492-3.832,2.359
			c-0.361,1.253,2.393,4.032,3.611,3.558c1.315-0.513,3.586,0,3.514-2.703C280.387,180.954,279.674,179.755,277.155,180.001z
			 M255.356,131.149c-0.831,0.078-1.438,0.062-2.182,0.983c-1.863,2.307-0.151,5.228,2.383,6.7c1.031,0.601,2.021,0.096,2.06-0.637
			c0.106-2.083,0.269-4.235-0.396-6.269C256.972,131.161,256.136,131.054,255.356,131.149z M179.825,87.812
			c1.996-0.043,4.525-1.919,4.542-3.004c0.018-1.089-3.075-3.569-4.345-3.29c-1.661,0.363-2.81,1.432-2.76,3.262
			C177.314,86.688,178.495,87.617,179.825,87.812z M193.345,46.607c-1.986-0.406-2.849,0.969-2.915,3.064
			c-0.059,1.858,1.373,3.122,2.656,3.796c1.117,0.588,3.421-3.122,3.333-5.366C196.347,46.266,194.889,46.731,193.345,46.607z
			 M166.327,165.682c1.557,0.271,3.159,0.115,3.678-1.476c0.57-1.748-0.785-3.279-2.022-4.041c-3.021-1.86-2.335,2.82-4.578,2.945
			c-0.75,0.042-0.596,1.375-0.11,2.036C164.093,166.231,165.331,165.499,166.327,165.682z M31.709,113.034
			c-1.536-0.118-2.738,0.025-2.645,2.068c0.081,1.776,1.966,4.123,3.597,3.923c1.466-0.18,2.49-0.84,2.538-2.77
			C35.267,113.568,33.732,113.146,31.709,113.034z M36.225,78.401c-0.027-1.914-1.698-3.856-3.318-3.751
			c-1.721,0.112-2.23,1.226-2.179,2.802c0.067,2.044,1.572,3.847,3.327,3.746C35.766,81.098,36.342,79.987,36.225,78.401z
			 M41.473,40.879c-0.631-1.782-1.182-3.423-3.503-3.028c-1.63,0.277-2.843,1.179-2.736,2.731c0.105,1.529,0.857,3.436,2.807,3.189
			C39.577,43.578,40.945,42.403,41.473,40.879z M172.273,78.486c0.125-1.673-2.289-4.22-3.885-4.123
			c-1.347,0.083-2.619,0.77-2.637,2.368c-0.022,1.982,1.192,3.179,3.087,3.337C170.25,80.187,171.419,79.35,172.273,78.486z
			 M239.252,131.066c0,0.148-0.129,0.653,0.023,1.05c0.505,1.309,1.528,2.216,2.736,2.826c0.651,0.328,1.162-0.276,1.597-0.762
			c1.002-1.117,0.738-2.079-0.252-3.064c-0.489-0.488-0.416-1.254-0.17-1.81c0.523-1.185-0.129-1.377-1.036-1.444
			C240.067,127.705,239.13,128.707,239.252,131.066z M279.233,140.181c0.334-1.598-0.144-2.542-2.062-2.471
			c-2.03,0.074-3.146,1.031-3.351,3.013c-0.189,1.847,1.289,2.854,2.548,2.781C277.938,143.413,279.789,142.641,279.233,140.181z
			 M176.707,177.442c0.031-2.145-1.005-3.3-3.022-3.477c-1.542-0.136-2.452,0.711-2.454,2.229c-0.001,2.186,1.428,3.446,3.372,3.698
			C176.108,180.088,176.748,178.835,176.707,177.442z M78.77,43.282c-1.354,0.284-2.084,1.768-1.779,2.326
			c0.88,1.611-0.746,4.694,2.574,4.852c1.856,0.088,2.194-1.588,2.119-2.803C81.567,45.795,80.784,44.061,78.77,43.282z
			 M284.236,143.514c0.014,0.538-0.022,1.047,0.42,1.516c0.928,0.982,2.229,1.631,2.971,0.399c0.987-1.643,3.132-2.86,2.478-5.28
			c-0.027-0.103-0.31-0.14-0.476-0.201C287.627,139.204,284.223,141.455,284.236,143.514z M312.641,166.078
			c0.395,1.525,1.133,2.846,2.917,2.891c1.991,0.05,0.885-1.599,0.982-2.426c0.106-0.893,0.573-1.436,0.967-2.124
			c0.407-0.711,0.419-1.574-0.311-2.209c-0.622-0.542-1.482-0.557-2.016-0.157C313.894,163.016,313.028,164.34,312.641,166.078z
			 M160.24,169.017c1.271,0.327,1.939-0.508,2.154-1.778c0.156-0.922-2.967-4.21-3.843-4.278c-1.365-0.106-1.758,0.988-1.938,1.834
			C156.263,166.436,158.444,168.95,160.24,169.017z M241.996,89.613c0.062-2.104-0.995-3.58-2.718-3.854
			c-1.193-0.189-2.709,0.968-2.503,2.467c0.229,1.661,1.008,3.406,3.179,3.379C241.193,91.591,242.251,91.07,241.996,89.613z
			 M176.754,163.14c0.429-1.609-0.708-2.767-2.513-2.815c-1.409-0.038-2.621,0.729-2.536,2.699c0.105,2.456,2.32,2.655,3.628,3.07
			C176.943,166.605,176.588,164.682,176.754,163.14z M172.303,67.313c0.039,1.465,2.441,4.131,3.649,3.836
			c1.147-0.28,2.092-0.946,1.86-2.492c-0.214-1.433-2.437-3.398-3.962-3.355C172.479,65.34,172.233,66.192,172.303,67.313z
			 M222.226,148.576c0.367-0.872-0.865-1.154-1.021-1.911c-0.19-0.934,0.131-2.127-1.273-2.32c-1.627-0.224-1.684,1.454-2.333,2.259
			c-0.916,1.137,0.104,2.409,0.781,3.347c0.454,0.629,1.462,1.253,2.362,0.865C221.531,150.476,222.305,149.852,222.226,148.576z
			 M231.153,134.494c-1.188-1.845-2.87-0.955-4.26-1.13c-1.122-0.142-2.311,0.37-1.809,1.56c0.543,1.286,0.511,3.474,2.782,3.334
			C230.228,138.113,229.649,135.461,231.153,134.494z M208.464,93.854c-0.529,0.401-1.867,0.842-1.455,1.893
			c0.536,1.364,0.205,3.8,2.755,3.529c1.163-0.124,2.563-0.41,2.587-2.122C212.365,96.051,209.957,93.815,208.464,93.854z
			 M231.062,56.516c-0.937,0.391-2.147,1.737-2.003,1.891c1.162,1.227,0.176,3.79,2.584,4.158c1.873,0.287,2.573-1.128,2.562-2.383
			C234.188,58.367,232.476,57.499,231.062,56.516z M278.843,168.969c0.134-0.084,0.418-0.175,0.564-0.369
			c1.107-1.471,0.43-3.617,1.871-4.97c-0.451-0.426-0.97-1.396-1.396-1.109c-1.332,0.894-3.234,1.176-3.801,2.986
			C275.679,166.796,277.463,169.057,278.843,168.969z M194.799,101.254c-0.179,2.09,1.694,2.461,2.915,2.889
			c1.114,0.389,2.407-0.991,2.235-1.968c-0.281-1.592-1.22-3.312-3.21-3.329C195.461,98.835,194.69,99.837,194.799,101.254z
			 M325.339,161.007c-0.029-0.344,0.291-2.063-1.181-1.705c-1.292,0.314-3.64,0.216-3.606,2.38c0.021,1.313,0.794,2.878,2.564,2.901
			C324.985,164.61,325.504,163.328,325.339,161.007z M268.879,138.836c-1.179-0.068-2.493,0.115-2.122,1.593
			c0.372,1.481,0.724,3.283,3.008,3.374c2.204,0.089,1.809-1.614,2.031-2.755C272.02,139.901,270.465,138.83,268.879,138.836z
			 M210.163,48.895c-0.042-1.37-2.245-3.391-3.452-3.351c-1.426,0.047-1.759,1.141-1.758,2.126c0.004,2.042,1.589,2.973,3.272,3.171
			C208.94,50.926,210.413,50.313,210.163,48.895z M231.561,71.668c0.033,2.717,1.931,3.762,4.479,2.655
			c0.758-0.329,1.237-0.864,1.326-1.484c0.104-0.722-0.61-0.93-1.293-0.966c-0.831-0.045-1.214-0.777-1.672-1.3
			c-0.68-0.776-1.504-1.162-2.407-0.791C231.134,70.134,231.737,71.077,231.561,71.668z M248.767,85.9
			c-0.732-1.26-1.79-2.651-3.509-2.917c-0.812-0.126-1.842,0.521-1.643,1.884c0.255,1.742,1.175,3.13,2.815,3.329
			C247.28,88.298,249.082,88.022,248.767,85.9z M186.103,161.535c-0.207-1.489-0.893-2.393-2.608-2.424
			c-1.703-0.03-1.866,0.938-1.891,2.287c-0.031,1.748,0.98,2.964,2.393,3.108C185.747,164.685,185.756,162.885,186.103,161.535z
			 M283.649,153.491c-0.452-0.753-0.39-2.462-2.409-2.596c-1.273-0.085-2.569,0.766-2.317,1.61c0.387,1.298,0.471,3.335,2.737,3.352
			C282.964,155.867,283.784,155.508,283.649,153.491z M282.565,159.405c-0.308-1.128-1.046-2.424-2.86-2.43
			c-1.209-0.004-2.085,0.804-2.006,2.052c0.125,1.99,1.812,2.495,3.348,2.785C282.394,162.067,282.646,160.984,282.565,159.405z
			 M306.42,174.431c1.564,0.604,2.443-1.054,2.255-1.762c-0.321-1.209-1.253-2.548-2.975-2.565
			c-1.323-0.014-2.241,0.807-2.172,1.909C303.62,173.463,304.285,174.876,306.42,174.431z M222.449,50.578
			c1.514-0.204,3.137,0.287,2.933-1.36c-0.231-1.861-1.876-2.789-3.636-3.022c-0.806-0.107-1.794,0.933-1.58,1.516
			C220.624,48.955,220.679,50.977,222.449,50.578z M342.106,156.429c-1.567-0.106-2.56,0.146-2.42,1.513
			c0.157,1.548,0.681,3.121,2.483,3.313c1.021,0.108,1.81-0.812,1.849-1.925C344.076,157.735,343.075,156.869,342.106,156.429z
			 M303.791,148.014c0.437-0.931,0.779-1.893,1.857-2.406c0.806-0.383,0.608-1.286,0.471-1.974c-0.19-0.942-1.198-1.115-1.876-1.384
			c-0.835-0.33-1.011,0.628-1.439,1.199C301.313,145.435,301.714,146.873,303.791,148.014z M104.449,36.225
			c0.615,0.015,2.097-0.011,1.825-0.949c-0.326-1.125-0.684-2.986-2.601-2.86c-1.018,0.066-2.285,0.19-2.134,1.736
			C101.689,35.686,102.693,36.286,104.449,36.225z M345.677,179.222c0.108,1.403,0.753,2.674,2.124,2.845
			c0.909,0.114,1.796-0.847,1.714-2.04c-0.105-1.547-1.12-2.521-2.513-2.719C345.823,177.141,345.639,178.226,345.677,179.222z
			 M328.132,159.54c-0.123,1.553,0.397,2.673,2.088,2.87c1.074,0.125,1.774-0.356,1.741-1.521c-0.052-1.854-1.453-2.72-2.893-3.08
			C328.002,157.542,328.174,158.789,328.132,159.54z M340.198,191.479c-0.308,1.13,0.258,2.404,1.616,2.642
			c1.119,0.194,1.764-1.671,1.53-2.062c-0.636-1.063,0.319-3.111-1.686-3.245C340.025,188.704,340.214,190.064,340.198,191.479z
			 M310.056,166.245c-1.764,0.028-2.727,0.712-2.704,2.039c0.018,0.998,0.871,1.952,1.943,1.751
			c1.242-0.233,2.288-1.171,2.318-2.541C311.639,166.323,310.603,166.211,310.056,166.245z M352.946,157.474
			c-1.33,0.029-1.851,0.626-1.76,1.722c0.113,1.367,0.896,2.089,2.265,2.124c1.145,0.029,1.627-0.611,1.56-1.7
			C354.924,158.21,354.04,157.625,352.946,157.474z M37.876,113.289c-0.075,0.891,0.05,2.049,1.395,1.872
			c1.027-0.137,2.217-0.674,2.415-1.976c0.186-1.223-0.468-1.786-1.721-1.805C38.718,111.363,37.809,111.617,37.876,113.289z
			 M349.533,158.261c0.038-0.993-0.19-1.904-1.386-1.829c-1.077,0.066-1.902,0.834-1.843,1.906c0.047,0.854,0.255,1.961,1.652,1.902
			C349.305,160.185,349.6,159.394,349.533,158.261z M174.135,78.482c-0.792-0.083-1.377,0.029-1.299,1.108
			c0.092,1.285,0.809,2.04,1.968,2.122c0.977,0.069,1.887-0.813,1.76-1.634C176.4,79.021,175.441,78.3,174.135,78.482z
			 M237.585,131.262c-0.213-1.012-0.908-1.351-1.783-1.185c-0.725,0.137-1.903-0.695-2.056,0.9
			c-0.135,1.406,0.954,1.599,1.817,1.765C236.608,132.945,237.046,131.955,237.585,131.262z M228.835,54.195
			c-0.081-1.094-0.646-1.498-1.603-1.514c-0.927-0.016-1.638,0.286-1.682,1.294c-0.046,1.042,0.752,1.823,1.565,1.884
			C228.001,55.926,228.587,55.029,228.835,54.195z M47.423,29.101c0.987-0.036,1.86-0.92,1.76-1.379
			c-0.148-0.685-0.412-2.087-1.543-1.809c-0.753,0.186-1.611,1.061-1.848,1.809C45.647,28.183,46.553,29.024,47.423,29.101z
			 M304.098,150.95c-1.465-0.189-1.464,0.934-1.685,1.558c-0.379,1.072,0.68,2.054,1.307,2.03c0.818-0.03,1.111-1.29,1.32-2.127
			C305.249,151.575,304.663,151.086,304.098,150.95z M263.954,138.487c-0.047-1.41-0.627-1.896-1.726-1.854
			c-0.733,0.027-1.467,0.161-1.261,1.075c0.221,0.977,0.717,1.773,2.008,1.697C263.891,139.35,263.994,138.894,263.954,138.487z
			 M249.121,130.027c0.419-0.505,1.593-0.155,1.634-1.291c0.052-1.467-1.449-0.555-1.91-1.239c-0.59,0.427-1.836,0.338-1.663,1.293
			C247.293,129.404,248.034,130.174,249.121,130.027z M217.839,72.585c0.05-0.97-0.249-1.7-1.278-1.763
			c-1.022-0.064-1.394,0.576-1.474,1.541c-0.086,1.032,0.421,1.254,1.295,1.178C217.066,73.48,217.953,73.755,217.839,72.585z
			 M168.448,173.898c0.061-1.129-0.707-1.757-1.355-1.947c-0.405-0.117-1.18,0.712-1.347,1.454c-0.18,0.801,0.21,1.224,1.029,1.076
			C167.376,174.374,168.316,174.957,168.448,173.898z M183.823,91.126c-0.224-0.75-0.791-1.386-1.43-1.45
			c-0.335-0.034-1.495,0.157-1.318,1.271c0.131,0.827,0.778,1.486,1.306,1.567C182.974,92.606,183.51,91.812,183.823,91.126z
			 M233.205,80.654c0.874,0.126,1.157-0.268,1.107-1.075c-0.045-0.735-0.088-1.552-1.065-1.323c-0.579,0.135-1.62,0.264-1.422,1.218
			C231.941,80.033,232.179,80.981,233.205,80.654z M272.71,182.567c0.01-0.669-0.198-1.38-0.941-1.182
			c-0.488,0.131-1.066,0.813-1.155,1.326c-0.113,0.651,0.517,1.04,1.22,1.104C272.864,183.911,272.69,183.174,272.71,182.567z
			 M256.152,99.044c-0.31-0.378-0.584-0.861-1.216-0.803c-0.561,0.053-1.354-0.333-1.422,0.733c-0.048,0.754,0.359,0.885,0.996,0.91
			C255.216,99.913,255.758,99.719,256.152,99.044z M185.747,49.956c-0.27,0.284-0.716,0.548-0.712,0.805
			c0.003,0.26,0.453,0.514,0.707,0.77c0.257-0.254,0.709-0.504,0.714-0.765C186.461,50.508,186.016,50.242,185.747,49.956z
			 M144.255,154.281c0.111-0.423-0.125-0.561-0.406-0.591c-0.158-0.016-0.329,0.1-0.494,0.156c0.228,0.253,0.456,0.507,0.684,0.76
			C144.124,154.479,144.208,154.35,144.255,154.281z"/>
		<path style="fill-rule:evenodd;clip-rule:evenodd;fill:#7B491E;" d="M310.553,39.774c1.718,0.704,2.043,1.346,0.769,2.634
			c-1.394,1.409-3.286,2.301-4.062,4.425c-0.416,1.137-0.675,1.839,0.059,2.916c1.657,2.438,0.26,5.159-1.663,6.275
			c-1.396,0.81-2.484,2.092-3.499,3.491c-2.016,2.779-4.767,4.976-6.642,7.919c-0.718,1.126-1.673,2.103-2.535,3.135
			c-0.694,0.833-0.985,1.851,0.438,1.793c2.031-0.083,3.905,0.757,5.907,0.636c0.862-0.052,1.707-0.222,2.17,1
			c0.462,1.217-0.204,2.02-0.854,2.511c-2.05,1.55-2.986,4.087-5.266,5.475c-1.28,0.779-1.127,2.065,0.439,2.853
			c1.808,0.909,3.559,1.898,5.529,2.491c1.021,0.307,2.164,0.713,2.156,2.359c-0.008,1.666-0.981,2.024-2.182,2.16
			c-2.89,0.329-4.728,2.639-7.188,3.794c-1.312,0.616-0.797,2.711-0.385,3.945c1.26,3.772-0.375,6.819-4.327,7.391
			c-0.867,0.126-1.436,0.282-1.937,1.125c-0.736,1.236-1.908,2.014-3.438,2.214c-2.789,0.364-5.312,1.119-8.383-0.139
			c-1.775-0.728-4.868-0.224-7.329,0.373c-3.386,0.82-6.986-0.277-10.369,1.234c-0.774,0.347-1.966-1.037-2.176-2.051
			c-0.292-1.41-0.896-2.104-2.279-2.502c-1.34-0.387-2.982-1.146-2.638-2.796c0.366-1.756,1.957-2.792,3.799-2.887
			c2.371-0.123,4.753-0.029,7.131-0.031c3.676-0.003,7.486,0.582,10.983-0.21c2.579-0.583,5.544-0.182,7.829-2.04
			c1.138-0.925,1.913-1.547,0.698-3.279c-2.52-3.59-5.386-6.228-10.01-6.599c-2.291-0.185-3.184-2.605-4.847-3.855
			c-1.353-1.016-2.592-2.226-4.004-3.193c-2.132-1.462-3.319-4.234-2.201-6.28c1.052-1.923,2.723-3.312,5.273-2.566
			c0.395,0.115,0.968,0.186,1.117-0.433c0.17-0.705-0.098-1.295-0.76-1.58c-0.591-0.253-1.304-0.345-1.823,0.081
			c-2.075,1.704-4.3,1.201-5.795-0.384c-1.668-1.767-0.951-4.325,0.531-5.801c3.301-3.284,4.805-8.129,9.179-10.435
			c0.23-0.122,0.526-0.361,0.56-0.58c0.663-4.384,4.664-4.207,7.562-5.471c0.589-0.257,1.594-0.539,1.454-0.92
			c-1.009-2.762,2.247-4.247,1.914-6.917c-0.129-1.036,0.478-2.784,2.262-3.301c0.76-0.22,1.649-1.025,1.392-2.108
			c-0.268-1.127,1.269-0.964,1.181-1.88c2.535,0.052,4.27-1.958,6.602-2.541c2.534-0.634,5.753-0.149,6.873-3.742
			c0.236-0.758,1.646-1.402,2.625-1.632c4.464-1.046,8.713-2.808,13.308-3.522c2.173-0.338,4.007-2.633,6.662-2.019
			c5.228,1.21,10.849-0.018,15.864,2.21c9.313,4.137,14.694,11.056,16.82,21.386c1.873,9.103,1.656,18.216,2.568,27.304
			c0.351,3.498,1.201,6.987,3.413,9.872c2.856,3.725,6.757,3.271,10.574,2.148c4.903-1.442,9.75-3.113,14.37-5.325
			c1.33-0.637,2.701-0.699,3.296,0.429c0.777,1.474,2.516,2.806,1.596,4.845c-0.154,0.342-0.746,0.789-1.029,0.724
			c-2.818-0.641-4.043,1.764-5.832,3.013c-3.23,2.253-6.492,3.937-10.635,4.335c-3.609,0.347-6.829-0.353-10.149-1.251
			c-0.425-0.115-1.149-0.091-1.241-0.325c-1.354-3.459-4.98-4.395-7.374-6.692c-3.758-3.606-4.03-8.371-4.696-13.007
			c-0.695-4.838-1.211-9.7-2.854-14.349c-0.861-2.435-0.646-5.064-1.483-7.556c-1.241-3.686-2.547-7.193-4.85-10.459
			c-4.052-5.75-9.801-5.989-15.809-5.701c-1.11,0.054-2.486,0.756-3.206,1.61C317.268,36.416,314.009,38.005,310.553,39.774z
			 M304.534,53.875c-0.022-0.415,0.122-1.014-0.393-1.105c-0.8-0.142-0.69,0.558-0.688,1.047c0.002,0.399-0.112,0.954,0.507,0.991
			C304.622,54.847,304.469,54.269,304.534,53.875z"/>
		<path style="fill-rule:evenodd;clip-rule:evenodd;fill:#7B491E;" d="M143.921,148.708c0.821,0,1.544-0.001,2.268,0
			c0.899,0.002,1.933-0.219,2.418,0.806c0.354,0.749,0.037,1.532-0.719,1.826c-1.094,0.426-2.281,2.178-3.296,0.958
			c-1.521-1.828-2.028-0.241-2.883,0.396c-1.596,1.189-2.413,3.598-5.04,3.188c-0.159-0.024-0.444,0.251-0.547,0.451
			c-2.087,4.067-6.298,5.312-9.938,7.082c-4.474,2.175-9.252,3.735-13.947,5.43c-0.979,0.353-2.182,0.26-3.256,0.143
			c-6.208-0.674-12.193,0.861-18.209,1.892c-1.651,0.283-3.263-0.107-4.875,0.296c-0.811,0.203-1.827-0.255-2.217,0.992
			c-0.031,0.101-0.991,0.974-1.565,0.189c-1.363-1.866-3.327-0.951-5.046-1.141c-1.192-0.133-2.508,0.376-3.123-1.375
			c-0.629-1.79-1.604-3.507-0.09-5.234c1.393-1.59,3.08-2.778,5.33-2.724c5.457,0.134,10.916,0.019,16.328-0.61
			c3.413-0.396,6.957-0.243,10.201-1.623c1.968-0.836,3.439-2.501,4.42-4.247c0.752-1.34-0.997-1.801-1.882-1.526
			c-2.278,0.708-4.688,0.681-6.933,1.731c-2.641,1.237-4.878-0.102-4.649-2.772c0.257-2.987-1.572-4.088-3.594-5.235
			c-1.142-0.647-2.157-1.416-1.917-2.834c0.231-1.364,1.269-1.774,2.611-1.564c0.507,0.08,1.121,0.11,1.159-0.725
			c0.047-1.007-0.649-0.871-1.282-0.909c-2.738-0.165-5.501-0.29-8.123,0.615c-2.625,0.906-5.104,0.592-7.602-0.326
			c-1.545-0.568-2.341-1.787-2.134-3.318c0.213-1.579-0.649-3.539,2.212-4.254c2.697-0.674,5.074-2.275,8.124-2.145
			c1.976,0.086,3.561-1.431,3.275-3.671c-0.417-3.277,1.695-5.14,3.243-7.58c3.124-4.924,8.363-7.944,11.098-13.15
			c0.979-1.863,3.224-2.328,4.995-3.243c3.892-2.011,8.243-3.377,12.28-1.696c3.704,1.543,7.479,2.079,11.272,2.804
			c2.502,0.478,5.126,0.451,5.084,4.01c2.646,0.855,3.533,3.733,5.767,5.019c0.707,0.405,0.997,0.913,1.345,1.541
			c1.892,3.419,4.76,3.575,7.38,0.544c2.398-2.773,4.69-5.879,7.852-7.623c2.676-1.476,6.168-1.419,7.384-5.15
			c0.092-0.282,2.311-1.042,3.609-1.291c1.153-0.221,1.932-0.029,1.369,1.601c-1.263,3.663-1.395,7.584-2.902,11.275
			c-0.98,2.399-2.458,4.368-3.91,6.244c-1.488,1.92-2.975,3.941-4.754,5.686c-0.917,0.898-1.253,2.237-1.631,3.554
			c-0.902,3.146-3.962,4.743-5.798,7.257c-0.677,0.927-1.592,1.514-1.815,2.904c-0.175,1.089-1.387,2.276-2.624,2.527
			C145.852,144.265,144.701,146.165,143.921,148.708z M100.586,130.051c0.634,0,1.281,0.082,1.9-0.016
			c2.232-0.352,2.441-2.407,2.763-3.945c0.331-1.582-1.37-1.876-2.556-2.041c-2.438-0.34-4.114,0.871-5.464,2.844
			c-1.161,1.696-0.871,2.745,1.187,3.132C99.115,130.157,99.861,130.045,100.586,130.051z"/>
		<path style="fill-rule:evenodd;clip-rule:evenodd;fill:#7B491E;" d="M76.652,27.012c0.731,1.354,0.479,3.546,3.004,4.345
			c1.68,0.531,3.95,4.979,3.754,6.728c-0.217,1.944-2.006,1.706-3.118,1.876c-1.244,0.191-2.778-0.229-2.893-2.034
			c-0.057-0.897-0.172-1.959,0.229-2.672c0.454-0.808,0.003-1.597-0.247-1.624c-2.641-0.278-2.74-4.019-5.524-3.984
			c-0.614,0.007-0.863-0.245-1.2-0.786c-0.606-0.973-1.352-2.092-2.818-0.985c-0.574,0.434-1.076-0.214-1.416-0.47
			c-1.06-0.8-1.66-0.774-2.782,0.195c-2.312,1.997-5.264,1.091-6.145-1.589c-0.806-2.45,0.054-4.038,2.298-3.376
			c3.169,0.935,6.333,0.614,9.459,1.062c1.651,0.237,2.829,1.032,3.324-1.416c0.226-1.116,1.51-1.317,2.36-0.254
			C75.984,23.337,77.271,24.593,76.652,27.012z"/>
		<path style="fill-rule:evenodd;clip-rule:evenodd;fill:#7B491E;" d="M33.67,55.978c0.874,0.788,2.558-0.01,3.452,1.25
			c0.786,1.11-1.381,4.007-3.117,4.233c-0.708,0.092-1.535-0.041-2.104,0.285c-1.549,0.884-1.549,2.572-0.137,3.795
			c0.344,0.298,0.979,0.69,0.934,0.941c-0.458,2.532,1.75,3.275,3.021,4.624c0.504,0.536,0.68,1.072,0.344,1.701
			c-0.34,0.637-0.991,0.937-1.627,0.705c-3.258-1.186-6.812-1.641-8.88-5.209c-0.884-1.526-0.875-2.53,0.041-3.535
			c1.29-1.415,2.74-2.765,4.354-3.769c0.749-0.465,0.821-0.823,0.731-1.422C30.26,56.756,30.81,56.018,33.67,55.978z"/>
		<path style="fill-rule:evenodd;clip-rule:evenodd;fill:#7B491E;" d="M86.149,59.253c-0.62-0.055-0.883-0.665-1.217-1.354
			c-0.516-1.069,0.173-1.667,0.748-2.238c1.667-1.657,2.841-3.611,4.072-5.602c1.12-1.81,2.474-3.803,4.771-4.467
			c0.739-0.214,0.895-0.32,0.48-0.941c-0.046-0.068-0.043-0.173-0.052-0.263c-0.222-2.265,1.642-2.766,3.073-3.633
			c-1.192-1.623-1.019-3.113,0.43-4.486c0.328-0.311,0.674-0.766,1.145-0.511c1.678,0.907,1.479,2.736,1.875,4.223
			c0.278,1.042-0.367,1.785-1.523,1.71c-1.034-0.066-1.231,0.433-1.187,1.305c0.027,0.524,0.212,1.264-0.359,1.499
			c-2.077,0.854-2.384,2.022-1.376,4.055c0.413,0.833-0.741,1.78-1.811,1.9c-0.867,0.098-1.529,0.201-1.95,1.115
			c-0.549,1.194-3.567,1.509-1.265,3.696c0.008,0.007-0.124,0.13-0.152,0.212C91.645,56.073,87.016,59.286,86.149,59.253z"/>
		<path style="fill-rule:evenodd;clip-rule:evenodd;fill:#7B491E;" d="M340.889,178.11c1.256-3.078-0.771-7.446,2.303-10.748
			c0.715-0.767,0.131-1.419-0.405-2.132c-1.012-1.346-0.304-2.817,0.911-3.072c1.28-0.268,3.15-1.763,4.208,0.674
			c1.777,4.097,1.823,4.108-2.372,5.865c-0.675,0.282-0.443,0.806-0.356,1.029c0.723,1.844-0.32,3.696,0.02,5.462
			c0.475,2.462-1.804,3.579-2.307,5.523c-0.094,0.363-0.537,0.485-0.879,0.196C341.32,180.324,340.533,179.776,340.889,178.11z"/>
		<path style="fill-rule:evenodd;clip-rule:evenodd;fill:#7B491E;" d="M219.423,157.855c0.012,1.363,0.4,2.943-1.476,3.466
			c-0.511,0.142-0.336,0.287-0.308,0.685c0.279,4.037-0.472,5.096-4.479,7.16c-0.824,0.425-1.485,1.223-1.97,2.165
			c-0.468,0.908-1.175,2.037-2.539,1.316c-1.485-0.786-2.518-1.981-2.311-3.795c0.164-1.434,1.39-1.531,2.431-1.459
			c2.706,0.188,4.088-1.474,5.294-3.493c0.228-0.381,0.507-0.848,0.878-1.009c1.963-0.853,1.422-2.141,0.661-3.459
			c-1.123-1.944,0.099-3.553,1.12-4.782c1.099-1.326,2.121,0.045,2.644,1.051C219.666,156.274,219.423,157.127,219.423,157.855z"/>
		<path style="fill-rule:evenodd;clip-rule:evenodd;fill:#7B491E;" d="M42.805,87.653c0.056,0.568-0.172,1.018-0.442,1.521
			c-0.807,1.504-1.156,2.982,0.339,4.409c0.541,0.516,0.829,1.373,1.053,2.127c0.382,1.29-0.286,2.37-1.29,2.952
			c-0.987,0.572-1.769-0.374-2.183-1.129c-1.203-2.194-3.813-4.125-1.525-7.108c0.583-0.76-0.163-1.295-0.696-1.427
			c-2.315-0.569-2.659-2.688-3.684-4.316c-0.594-0.944-0.021-1.277,0.464-1.799c0.57-0.613,1.245-0.879,1.887-0.271
			c0.647,0.613,1.318,0.802,2.188,0.824C41.209,83.495,42.871,85.353,42.805,87.653z"/>
		<path style="fill-rule:evenodd;clip-rule:evenodd;fill:#7B491E;" d="M77.408,63.149c-0.179-2.216,1.032-4.188-0.465-6.152
			c-0.36-0.472,0.014-2.196,1.098-2.603c1.204-0.452,2.504-0.452,3.603,0.612c0.906,0.876,1.76,1.796,0.997,3.037
			c-0.652,1.061-1.404,1.828,0.231,2.675c0.736,0.382,0.814,1.221,0.206,1.857c-0.54,0.564-0.853,1.133-0.768,1.928
			c0.164,1.535-0.304,2.771-1.996,2.966c-1.895,0.218-2.315-1.428-2.866-2.704C77.214,64.229,77.408,63.507,77.408,63.149z
			 M78.927,59.832c0.252,0.21,0.421,0.462,0.593,0.465c0.185,0.002,0.495-0.202,0.534-0.366c0.089-0.384-0.127-0.682-0.556-0.599
			C79.312,59.367,79.166,59.613,78.927,59.832z"/>
		<path style="fill-rule:evenodd;clip-rule:evenodd;fill:#7B491E;" d="M234.269,91.524c0.096,1.074-0.414,1.769-0.976,1.682
			c-1.327-0.206-2.07,2.325-3.572,0.691c-0.543-0.59-1.282-1.005-1.503-1.886c-0.419-1.681-1.223-2.379-3.199-1.887
			c-1.883,0.469-4.438-2.964-3.8-4.75c0.547-1.53,2.163-1.887,3.174-0.556c0.835,1.1,2.007,1.448,3.001,2.096
			c1.617,1.055,3.347,1.385,4.951,2.169C233.255,89.526,233.748,90.826,234.269,91.524z"/>
		<path style="fill-rule:evenodd;clip-rule:evenodd;fill:#7B491E;" d="M204.678,84.663c0.388,1.302-0.587,1.955-1.756,2.375
			c-1.151,0.414-2.559,0.613-3.146-0.643c-0.935-1.998-1.9-1.458-3.292-0.597c-1.943,1.202-3.36-0.034-4.243-1.562
			c-0.483-0.835-0.576-2.185,0.218-3.095c0.69-0.79,1.592-0.568,2.481-0.129c1.094,0.541,2.735-0.306,3.364,1.601
			c0.232,0.706,1.239-0.083,1.906-0.233C203.312,81.683,204.646,82.333,204.678,84.663z"/>
		<path style="fill-rule:evenodd;clip-rule:evenodd;fill:#7B491E;" d="M208.907,65.005c3.913,0.761,7.353-0.449,10.428,1.346
			c0.986,0.576,1.82,1.08,1.811,2.377c-0.007,1.026-0.631,1.448-1.47,1.638c-1.148,0.26-1.718-0.402-2.451-1.262
			c-1.558-1.826-2.828,0.14-4.141,0.704c-1.32,0.568-2.55,0.792-3.741-0.139c-1.295-1.012-1.095-2.397-0.812-3.776
			C208.653,65.292,209.007,64.997,208.907,65.005z"/>
		<path style="fill-rule:evenodd;clip-rule:evenodd;fill:#7B491E;" d="M302.311,174.734c0.254,1.428-0.232,2.645-1.621,3.009
			c-2.275,0.598-3.784,3.99-6.804,1.921c-0.01-0.007-0.248,0.231-0.295,0.382c-1.038,3.297-2.349,0.784-3.376,0.063
			c-0.846-0.594-0.741-1.627-0.093-2.407c0.615-0.739,1.461-0.538,2.257-0.269c0.681,0.231,1.011,1.79,1.757,1.023
			c1.427-1.468,4.041-1.756,4.366-4.312c0.146-1.14,0.088-2.553,1.815-2.361C302.004,171.97,302.531,173.152,302.311,174.734z"/>
		<path style="fill-rule:evenodd;clip-rule:evenodd;fill:#7B491E;" d="M273.056,173.252c-0.415-0.154-0.965-0.19-1.222-0.483
			c-1.143-1.305-1.431-3.039-0.05-4.016c1.538-1.086,2.177,0.918,3.092,1.755c0.178,0.163,0.155,0.567,0.34,0.698
			c2.07,1.465,1.428,2.625-0.29,3.854c-1.058,0.757-2.28,1.342-2.703,2.862c-0.253,0.914-1.36,1.215-2.309,0.917
			c-1.717-0.541-0.819-2.354-1.522-3.46c-0.427-0.673,0.488-1.406,1.081-1.642c0.567-0.226,1.299,0.162,1.778,0.684
			C272.413,175.683,272.025,173.882,273.056,173.252z"/>
		<path style="fill-rule:evenodd;clip-rule:evenodd;fill:#7B491E;" d="M44.662,108.761c-1.956-0.255-3.69-1.435-5.847-1.39
			c-1.161,0.024-1.958-1.611-1.969-2.868c-0.01-1.155,0.738-2.247,1.801-2.826c1.207-0.656,1.833,0.464,2.433,1.174
			c1.346,1.592,3.748,1.2,5.055,2.806c0.464,0.571,1.36,0.979,0.521,1.94C46.121,108.213,45.875,109.23,44.662,108.761z"/>
		<path style="fill-rule:evenodd;clip-rule:evenodd;fill:#7B491E;" d="M158.091,174.43c0.046,1.737-0.284,3.025-1.949,3.331
			c-0.985,0.181-1.625-0.174-1.996-1.296c-0.431-1.304-0.469-2.461,0.613-3.284c1.248-0.95,1.461,0.924,2.521,1.072
			c0.265-1.097,0.738-2.645,2.032-2.392c1.798,0.352,4.089,0.078,5.125,2.235c0.574,1.196,0.062,2.297-0.821,3.094
			c-0.846,0.764-1.657,0.6-2.48-0.349C160.396,175.99,159.35,175.403,158.091,174.43z"/>
		<path style="fill-rule:evenodd;clip-rule:evenodd;fill:#7B491E;" d="M33.978,49.417c0.498-1.664,1.725-3.293,3.316-4.566
			c0.892-0.714,3.062,1.349,2.52,2.713c-0.729,1.833-0.76,3.629-0.889,5.493c-0.066,0.96-0.806,1.583-1.758,1.8
			c-0.918,0.209-1.317-0.314-1.846-1.061C34.446,52.562,34.09,51.275,33.978,49.417z"/>
		<path style="fill-rule:evenodd;clip-rule:evenodd;fill:#7B491E;" d="M39.513,31.973c-0.079-0.666,0.079-1.58,0.871-1.646
			c1.533-0.127,3.209-1.018,4.607,0.392c0.585,0.59,1.133,1.232,1.613,1.91c0.633,0.892,1.757,1.902,0.554,2.945
			c-0.877,0.761-1.882,1.25-3.438,0.938C41.046,35.976,39.605,34.821,39.513,31.973z"/>
		<path style="fill-rule:evenodd;clip-rule:evenodd;fill:#7B491E;" d="M165.368,62.562c1.753-0.034,4.682,2.183,4.033,3.124
			c-1.018,1.475-0.381,4.043-2.765,4.525c-1.131,0.228-4.736-3.19-4.757-4.318C161.848,64.234,163.563,62.598,165.368,62.562z"/>
		<path style="fill-rule:evenodd;clip-rule:evenodd;fill:#7B491E;" d="M52.706,24.702c0.681,0.022,1.734-0.14,1.75,0.479
			c0.061,2.446,1.773,4.107,2.591,6.175c0.411,1.038-0.346,1.651-1.256,1.958c-1.51,0.51-3.089,0.191-3.902-1.015
			c-1.38-2.049-1.045-4.523-0.834-6.876C51.163,24.21,52.178,24.915,52.706,24.702z"/>
		<path style="fill-rule:evenodd;clip-rule:evenodd;fill:#7B491E;" d="M182.185,58.444c-0.032,0.938,0.186,1.758-0.595,2.204
			c-1.156,0.661-1.716,1.6-1.882,2.931c-0.054,0.432-0.229,1.327-1.177,1.175c-0.85-0.137-1.25-0.608-1.291-1.46
			c-0.095-2.04,0.308-4.095-0.965-6.045c-0.409-0.626,0.503-1.821,1.546-2.112c1.497-0.418,2.845,0.047,3.732,1.264
			C181.983,56.988,182.604,57.746,182.185,58.444z"/>
		<path style="fill-rule:evenodd;clip-rule:evenodd;fill:#7B491E;" d="M200.311,160.689c0.012,0.805-4.989,5.361-5.55,4.972
			c-1.308-0.911-3.002-1.837-3.135-3.477c-0.107-1.322,1.258-2.063,2.633-2.599c1.437-0.561,2.832-0.489,4.229-0.386
			C199.251,159.256,200.262,159.542,200.311,160.689z"/>
		<path style="fill-rule:evenodd;clip-rule:evenodd;fill:#7B491E;" d="M292.586,133.874c0.545,0.024,1.156-0.103,1.618,0.105
			c0.926,0.417,1.662,1.068,1.558,2.273c-0.133,1.521-1.431,1.154-2.183,1.144c-1.89-0.025-3.998-1.248-4.999,1.651
			c-0.212,0.613-1.521,0.621-1.932,0.095c-0.791-1.013-1.626-2.086-1.356-3.62c0.142-0.799,0.364-1.207,1.143-1.066
			C288.544,134.836,290.509,133.772,292.586,133.874z"/>
		<path style="fill-rule:evenodd;clip-rule:evenodd;fill:#7B491E;" d="M164.837,51.692c0.123,0.203,0.277,0.372,0.332,0.569
			c0.097,0.352,0.821,0.736,0.134,1.07c-1.776,0.862-0.535,1.53,0.154,2.073c2.295,1.81,0.411,3.67-0.518,4.598
			c-1.023,1.022-2.841,0.75-3.289-1.518c-0.076-0.381-1.001-1.092-1.354-1.741c-1.087-2.003-0.478-3.162,1.756-3.506
			c0.516-0.08,1.082,0.137,1.523-0.345C163.942,52.496,164.359,52.144,164.837,51.692z"/>
		<path style="fill-rule:evenodd;clip-rule:evenodd;fill:#7B491E;" d="M26.329,118.716c-1.797,1.972-3.274,4.246-6.518,2.606
			c-2.193-1.108-2.051-3.009-1.512-4.595c0.556-1.637,2.086-0.788,3.429-0.509C23.581,116.605,24.792,117.84,26.329,118.716z"/>
		<path style="fill-rule:evenodd;clip-rule:evenodd;fill:#7B491E;" d="M192.016,95.493c-0.678,1.018-1.574,1.917-0.58,3.33
			c0.355,0.505,0.171,1.423-0.56,1.936c-0.501,0.352-1.147,0.06-1.108-0.217c0.115-0.799-1.719-0.788-0.684-1.871
			c0.336-0.351,0.345-0.855-0.348-0.971c-0.089-0.015-0.183-0.011-0.274-0.017c-2.202-0.154-3.049-1.79-3.478-3.547
			c-0.32-1.311,1.278-1.799,1.951-1.793c1.9,0.019,3.806,0.487,4.605,2.652c0.08,0.217,0.344,0.367,0.522,0.548L192.016,95.493z"/>
		<path style="fill-rule:evenodd;clip-rule:evenodd;fill:#7B491E;" d="M167.169,50.507c-1.969,0.118-3.235-0.557-3.09-2.756
			c0.11-1.663,0.247-3.325,2.586-3.308c1.546,0.012,4.782,2.418,4.485,3.604C170.655,50.022,168.97,50.452,167.169,50.507z"/>
		<path style="fill-rule:evenodd;clip-rule:evenodd;fill:#7B491E;" d="M277.155,180.001c2.519-0.246,3.231,0.952,3.293,3.214
			c0.072,2.703-2.198,2.19-3.514,2.703c-1.219,0.475-3.973-2.305-3.611-3.558C273.861,180.494,275.293,179.667,277.155,180.001z"/>
		<path style="fill-rule:evenodd;clip-rule:evenodd;fill:#7B491E;" d="M255.356,131.149c0.779-0.095,1.615,0.012,1.865,0.778
			c0.664,2.033,0.502,4.186,0.396,6.269c-0.038,0.732-1.028,1.237-2.06,0.637c-2.534-1.473-4.246-4.394-2.383-6.7
			C253.918,131.211,254.525,131.227,255.356,131.149z"/>
		<path style="fill-rule:evenodd;clip-rule:evenodd;fill:#7B491E;" d="M179.825,87.812c-1.33-0.195-2.51-1.125-2.562-3.033
			c-0.05-1.83,1.099-2.898,2.76-3.262c1.271-0.279,4.363,2.201,4.345,3.29C184.35,85.894,181.82,87.77,179.825,87.812z"/>
		<path style="fill-rule:evenodd;clip-rule:evenodd;fill:#7B491E;" d="M193.345,46.607c1.544,0.125,3.002-0.341,3.074,1.495
			c0.088,2.244-2.216,5.954-3.333,5.366c-1.283-0.675-2.714-1.938-2.656-3.796C190.496,47.576,191.358,46.201,193.345,46.607z"/>
		<path style="fill-rule:evenodd;clip-rule:evenodd;fill:#7B491E;" d="M166.327,165.682c-0.996-0.184-2.234,0.549-3.032-0.535
			c-0.486-0.661-0.641-1.994,0.11-2.036c2.243-0.125,1.556-4.806,4.578-2.945c1.237,0.762,2.592,2.293,2.022,4.041
			C169.486,165.797,167.884,165.954,166.327,165.682z"/>
		<path style="fill-rule:evenodd;clip-rule:evenodd;fill:#7B491E;" d="M31.709,113.034c2.023,0.112,3.557,0.534,3.49,3.222
			c-0.048,1.93-1.071,2.59-2.538,2.77c-1.631,0.2-3.516-2.146-3.597-3.923C28.972,113.059,30.174,112.916,31.709,113.034z"/>
		<path style="fill-rule:evenodd;clip-rule:evenodd;fill:#7B491E;" d="M36.224,78.4c0.118,1.586-0.458,2.698-2.169,2.797
			c-1.755,0.102-3.26-1.701-3.327-3.746c-0.051-1.576,0.458-2.69,2.179-2.802C34.526,74.544,36.197,76.487,36.224,78.4z"/>
		<path style="fill-rule:evenodd;clip-rule:evenodd;fill:#7B491E;" d="M41.473,40.879c-0.528,1.524-1.896,2.699-3.433,2.893
			c-1.949,0.247-2.702-1.66-2.807-3.189c-0.107-1.553,1.106-2.454,2.736-2.731C40.291,37.456,40.841,39.097,41.473,40.879z"/>
		<path style="fill-rule:evenodd;clip-rule:evenodd;fill:#7B491E;" d="M172.273,78.486c-0.854,0.864-2.023,1.701-3.436,1.582
			c-1.895-0.158-3.109-1.354-3.087-3.337c0.018-1.598,1.291-2.284,2.637-2.368C169.984,74.266,172.398,76.813,172.273,78.486z"/>
		<path style="fill-rule:evenodd;clip-rule:evenodd;fill:#7B491E;" d="M239.252,131.066c-0.122-2.359,0.815-3.361,2.898-3.204
			c0.907,0.067,1.56,0.26,1.036,1.444c-0.246,0.556-0.319,1.321,0.17,1.81c0.99,0.985,1.254,1.947,0.252,3.064
			c-0.435,0.485-0.945,1.09-1.597,0.762c-1.208-0.61-2.231-1.518-2.736-2.826C239.123,131.719,239.252,131.214,239.252,131.066z"/>
		<path style="fill-rule:evenodd;clip-rule:evenodd;fill:#7B491E;" d="M279.233,140.181c0.556,2.46-1.295,3.231-2.865,3.323
			c-1.259,0.073-2.737-0.935-2.548-2.781c0.204-1.981,1.32-2.938,3.351-3.013C279.09,137.639,279.567,138.583,279.233,140.181z"/>
		<path style="fill-rule:evenodd;clip-rule:evenodd;fill:#7B491E;" d="M176.707,177.442c0.041,1.394-0.599,2.646-2.104,2.451
			c-1.944-0.252-3.374-1.513-3.372-3.698c0.001-1.519,0.912-2.365,2.454-2.229C175.702,174.142,176.738,175.297,176.707,177.442z"/>
		<path style="fill-rule:evenodd;clip-rule:evenodd;fill:#7B491E;" d="M78.77,43.282c2.015,0.779,2.798,2.513,2.914,4.375
			c0.076,1.215-0.262,2.892-2.119,2.803c-3.32-0.158-1.694-3.241-2.574-4.852C76.686,45.05,77.416,43.566,78.77,43.282z"/>
		<path style="fill-rule:evenodd;clip-rule:evenodd;fill:#7B491E;" d="M284.236,143.514c-0.014-2.06,3.391-4.311,5.393-3.566
			c0.166,0.062,0.448,0.099,0.476,0.201c0.654,2.42-1.49,3.638-2.478,5.28c-0.741,1.231-2.043,0.583-2.971-0.399
			C284.214,144.561,284.25,144.052,284.236,143.514z"/>
		<path style="fill-rule:evenodd;clip-rule:evenodd;fill:#7B491E;" d="M199.271,63.738c-0.48-1.257-0.843-2.548,0.414-3.548
			c0.843-0.671,1.926-0.621,2.772-0.073c1.213,0.787,2.726,1.461,2.248,3.458c-0.154,0.644-0.198,0.951-0.967,1.258
			c-1.568,0.626-2.796,0.349-4.003-0.645c-0.188-0.155-0.35-0.342-0.522-0.514L199.271,63.738z"/>
		<path style="fill-rule:evenodd;clip-rule:evenodd;fill:#7B491E;" d="M312.641,166.078c0.388-1.737,1.253-3.062,2.54-4.025
			c0.533-0.399,1.394-0.385,2.016,0.157c0.729,0.635,0.718,1.498,0.311,2.209c-0.394,0.688-0.86,1.231-0.967,2.124
			c-0.098,0.827,1.009,2.476-0.982,2.426C313.773,168.923,313.035,167.603,312.641,166.078z"/>
		<path style="fill-rule:evenodd;clip-rule:evenodd;fill:#7B491E;" d="M160.24,169.017c-1.796-0.067-3.977-2.581-3.627-4.223
			c0.18-0.846,0.573-1.94,1.938-1.834c0.876,0.068,3.999,3.356,3.843,4.278C162.18,168.509,161.511,169.344,160.24,169.017z"/>
		<path style="fill-rule:evenodd;clip-rule:evenodd;fill:#7B491E;" d="M241.996,89.613c0.255,1.457-0.803,1.978-2.042,1.993
			c-2.171,0.027-2.95-1.718-3.179-3.379c-0.206-1.499,1.31-2.656,2.503-2.467C241.001,86.034,242.058,87.509,241.996,89.613z"/>
		<path style="fill-rule:evenodd;clip-rule:evenodd;fill:#7B491E;" d="M199.212,63.675c-0.914,1.5-2.217,2.408-4,2.119
			c-1.496-0.243-2.037-1.474-2.475-2.822c-0.327-1.009,0.142-1.521,0.739-2.112c0.614-0.607,1.171-0.475,1.955-0.213
			c1.7,0.57,2.272,2.429,3.838,3.09C199.271,63.738,199.212,63.675,199.212,63.675z"/>
		<path style="fill-rule:evenodd;clip-rule:evenodd;fill:#7B491E;" d="M176.754,163.14c-0.166,1.542,0.189,3.465-1.42,2.954
			c-1.309-0.415-3.523-0.614-3.628-3.07c-0.084-1.97,1.127-2.737,2.536-2.699C176.045,160.374,177.183,161.531,176.754,163.14z"/>
		<path style="fill-rule:evenodd;clip-rule:evenodd;fill:#7B491E;" d="M172.304,67.314c-0.071-1.122,0.176-1.974,1.547-2.012
			c1.525-0.042,3.748,1.922,3.962,3.355c0.231,1.546-0.713,2.212-1.86,2.492C174.744,71.444,172.341,68.778,172.304,67.314z"/>
		<path style="fill-rule:evenodd;clip-rule:evenodd;fill:#7B491E;" d="M222.226,148.576c0.079,1.276-0.694,1.9-1.483,2.239
			c-0.9,0.388-1.908-0.236-2.362-0.865c-0.678-0.938-1.697-2.21-0.781-3.347c0.649-0.805,0.706-2.482,2.333-2.259
			c1.404,0.193,1.083,1.387,1.273,2.32C221.36,147.421,222.593,147.704,222.226,148.576z"/>
		<path style="fill-rule:evenodd;clip-rule:evenodd;fill:#7B491E;" d="M231.153,134.494c-1.504,0.968-0.926,3.619-3.286,3.764
			c-2.271,0.14-2.239-2.048-2.782-3.334c-0.502-1.189,0.687-1.701,1.809-1.56C228.283,133.539,229.965,132.649,231.153,134.494z"/>
		<path style="fill-rule:evenodd;clip-rule:evenodd;fill:#7B491E;" d="M208.464,93.854c1.493-0.038,3.901,2.197,3.887,3.3
			c-0.023,1.712-1.424,1.998-2.587,2.122c-2.55,0.271-2.219-2.165-2.755-3.529C206.597,94.696,207.935,94.255,208.464,93.854z"/>
		<path style="fill-rule:evenodd;clip-rule:evenodd;fill:#7B491E;" d="M231.062,56.516c1.414,0.983,3.127,1.851,3.144,3.666
			c0.011,1.255-0.689,2.67-2.562,2.383c-2.408-0.368-1.422-2.931-2.584-4.158C228.914,58.253,230.125,56.906,231.062,56.516z"/>
		<path style="fill-rule:evenodd;clip-rule:evenodd;fill:#7B491E;" d="M278.843,168.969c-1.38,0.088-3.164-2.173-2.761-3.462
			c0.566-1.811,2.469-2.093,3.801-2.986c0.426-0.286,0.944,0.684,1.396,1.109c-1.441,1.353-0.764,3.499-1.871,4.97
			C279.261,168.794,278.977,168.885,278.843,168.969z"/>
		<path style="fill-rule:evenodd;clip-rule:evenodd;fill:#7B491E;" d="M194.8,101.255c-0.11-1.418,0.661-2.419,1.938-2.409
			c1.991,0.017,2.929,1.737,3.21,3.329c0.172,0.977-1.122,2.356-2.235,1.968C196.493,103.715,194.62,103.344,194.8,101.255z"/>
		<path style="fill-rule:evenodd;clip-rule:evenodd;fill:#7B491E;" d="M325.339,161.007c0.165,2.32-0.354,3.603-2.223,3.576
			c-1.771-0.023-2.544-1.588-2.564-2.901c-0.033-2.164,2.314-2.065,3.606-2.38C325.63,158.944,325.31,160.664,325.339,161.007z"/>
		<path style="fill-rule:evenodd;clip-rule:evenodd;fill:#7B491E;" d="M268.877,138.833c1.588-0.004,3.143,1.067,2.919,2.215
			c-0.223,1.141,0.173,2.844-2.031,2.755c-2.284-0.091-2.636-1.893-3.008-3.374C266.386,138.952,267.7,138.768,268.877,138.833z"/>
		<path style="fill-rule:evenodd;clip-rule:evenodd;fill:#7B491E;" d="M210.163,48.895c0.25,1.418-1.223,2.031-1.938,1.947
			c-1.684-0.198-3.269-1.129-3.272-3.171c-0.001-0.985,0.332-2.079,1.758-2.126C207.918,45.504,210.121,47.525,210.163,48.895z"/>
		<path style="fill-rule:evenodd;clip-rule:evenodd;fill:#7B491E;" d="M231.561,71.668c0.177-0.592-0.427-1.534,0.433-1.886
			c0.903-0.371,1.728,0.015,2.407,0.791c0.458,0.523,0.841,1.254,1.672,1.3c0.683,0.037,1.396,0.244,1.293,0.966
			c-0.089,0.621-0.568,1.155-1.326,1.484C233.491,75.43,231.594,74.385,231.561,71.668z"/>
		<path style="fill-rule:evenodd;clip-rule:evenodd;fill:#7B491E;" d="M248.767,85.9c0.315,2.122-1.486,2.398-2.336,2.296
			c-1.641-0.199-2.561-1.587-2.815-3.329c-0.199-1.363,0.83-2.01,1.643-1.884C246.977,83.249,248.034,84.64,248.767,85.9z"/>
		<path style="fill-rule:evenodd;clip-rule:evenodd;fill:#7B491E;" d="M186.103,161.535c-0.347,1.351-0.355,3.15-2.106,2.972
			c-1.413-0.145-2.423-1.36-2.393-3.108c0.024-1.35,0.188-2.317,1.891-2.287C185.21,159.142,185.896,160.045,186.103,161.535z"/>
		<path style="fill-rule:evenodd;clip-rule:evenodd;fill:#7B491E;" d="M283.649,153.491c0.135,2.018-0.686,2.376-1.989,2.366
			c-2.267-0.017-2.351-2.054-2.737-3.352c-0.252-0.845,1.044-1.695,2.317-1.61C283.26,151.029,283.197,152.738,283.649,153.491z"/>
		<path style="fill-rule:evenodd;clip-rule:evenodd;fill:#7B491E;" d="M282.565,159.405c0.08,1.579-0.172,2.662-1.519,2.407
			c-1.535-0.29-3.223-0.795-3.348-2.785c-0.079-1.248,0.797-2.056,2.006-2.052C281.52,156.981,282.258,158.277,282.565,159.405z"/>
		<path style="fill-rule:evenodd;clip-rule:evenodd;fill:#7B491E;" d="M306.42,174.431c-2.135,0.445-2.8-0.968-2.892-2.418
			c-0.069-1.103,0.849-1.923,2.172-1.909c1.722,0.018,2.653,1.356,2.975,2.565C308.863,173.377,307.984,175.036,306.42,174.431z"/>
		<path style="fill-rule:evenodd;clip-rule:evenodd;fill:#7B491E;" d="M222.449,50.578c-1.771,0.399-1.825-1.623-2.283-2.867
			c-0.214-0.583,0.774-1.623,1.58-1.516c1.76,0.234,3.404,1.161,3.636,3.022C225.586,50.864,223.963,50.374,222.449,50.578z"/>
		<path style="fill-rule:evenodd;clip-rule:evenodd;fill:#7B491E;" d="M342.106,156.429c0.969,0.439,1.97,1.306,1.912,2.901
			c-0.039,1.112-0.828,2.033-1.849,1.925c-1.803-0.192-2.326-1.766-2.483-3.313C339.547,156.576,340.539,156.323,342.106,156.429z"
			/>
		<path style="fill-rule:evenodd;clip-rule:evenodd;fill:#7B491E;" d="M303.791,148.014c-2.077-1.142-2.478-2.579-0.987-4.564
			c0.429-0.571,0.604-1.529,1.439-1.199c0.678,0.269,1.686,0.441,1.876,1.384c0.138,0.688,0.335,1.591-0.471,1.974
			C304.57,146.122,304.228,147.083,303.791,148.014z"/>
		<path style="fill-rule:evenodd;clip-rule:evenodd;fill:#7B491E;" d="M104.449,36.225c-1.756,0.061-2.76-0.54-2.91-2.072
			c-0.151-1.546,1.116-1.67,2.134-1.736c1.917-0.126,2.275,1.735,2.601,2.86C106.546,36.214,105.063,36.24,104.449,36.225z"/>
		<path style="fill-rule:evenodd;clip-rule:evenodd;fill:#7B491E;" d="M345.677,179.222c-0.038-0.996,0.146-2.081,1.325-1.914
			c1.393,0.197,2.407,1.172,2.513,2.719c0.082,1.193-0.805,2.154-1.714,2.04C346.43,181.896,345.785,180.625,345.677,179.222z"/>
		<path style="fill-rule:evenodd;clip-rule:evenodd;fill:#7B491E;" d="M328.132,159.539c0.042-0.75-0.13-1.996,0.937-1.729
			c1.439,0.36,2.841,1.227,2.893,3.08c0.033,1.164-0.667,1.646-1.741,1.521C328.529,162.212,328.009,161.092,328.132,159.539z"/>
		<path style="fill-rule:evenodd;clip-rule:evenodd;fill:#7B491E;" d="M340.198,191.479c0.016-1.415-0.173-2.775,1.461-2.666
			c2.005,0.134,1.05,2.182,1.686,3.245c0.233,0.392-0.411,2.257-1.53,2.062C340.456,193.883,339.891,192.609,340.198,191.479z"/>
		<path style="fill-rule:evenodd;clip-rule:evenodd;fill:#7B491E;" d="M310.056,166.245c0.547-0.033,1.583,0.078,1.558,1.249
			c-0.03,1.37-1.076,2.308-2.318,2.541c-1.072,0.201-1.926-0.753-1.943-1.751C307.329,166.957,308.292,166.273,310.056,166.245z"/>
		<path style="fill-rule:evenodd;clip-rule:evenodd;fill:#7B491E;" d="M352.946,157.474c1.094,0.15,1.978,0.736,2.064,2.146
			c0.067,1.089-0.415,1.729-1.56,1.7c-1.368-0.035-2.151-0.757-2.265-2.124C351.096,158.1,351.616,157.503,352.946,157.474z"/>
		<path style="fill-rule:evenodd;clip-rule:evenodd;fill:#7B491E;" d="M37.876,113.289c-0.067-1.672,0.842-1.926,2.089-1.908
			c1.252,0.019,1.907,0.582,1.721,1.805c-0.198,1.302-1.388,1.839-2.415,1.976C37.926,115.337,37.801,114.179,37.876,113.289z"/>
		<path style="fill-rule:evenodd;clip-rule:evenodd;fill:#7B491E;" d="M192.063,95.542c0.337-0.792-0.019-1.733,0.915-2.451
			c0.939-0.723,1.76-1.278,2.853-0.642c0.703,0.409,0.73,1.091,0.412,1.877c-0.506,1.25-1.46,1.426-2.612,1.356
			c-0.543-0.032-0.993-0.861-1.615-0.191C192.016,95.493,192.063,95.542,192.063,95.542z"/>
		<path style="fill-rule:evenodd;clip-rule:evenodd;fill:#7B491E;" d="M349.53,158.261c0.069,1.133-0.226,1.924-1.573,1.979
			c-1.397,0.059-1.605-1.048-1.652-1.902c-0.06-1.072,0.766-1.84,1.843-1.906C349.343,156.357,349.571,157.268,349.53,158.261z"/>
		<path style="fill-rule:evenodd;clip-rule:evenodd;fill:#7B491E;" d="M174.135,78.482c1.306-0.182,2.265,0.539,2.429,1.596
			c0.127,0.821-0.784,1.703-1.76,1.634c-1.159-0.082-1.876-0.837-1.968-2.122C172.758,78.511,173.344,78.399,174.135,78.482z"/>
		<path style="fill-rule:evenodd;clip-rule:evenodd;fill:#7B491E;" d="M237.585,131.262c-0.539,0.692-0.977,1.683-2.021,1.48
			c-0.863-0.166-1.952-0.358-1.817-1.765c0.152-1.596,1.331-0.764,2.056-0.9C236.677,129.912,237.372,130.25,237.585,131.262z"/>
		<path style="fill-rule:evenodd;clip-rule:evenodd;fill:#7B491E;" d="M228.835,54.195c-0.248,0.834-0.834,1.731-1.719,1.664
			c-0.813-0.061-1.611-0.842-1.565-1.884c0.044-1.009,0.755-1.31,1.682-1.294C228.189,52.698,228.754,53.101,228.835,54.195z"/>
		<path style="fill-rule:evenodd;clip-rule:evenodd;fill:#7B491E;" d="M47.423,29.101c-0.871-0.077-1.776-0.918-1.631-1.379
			c0.236-0.748,1.095-1.624,1.848-1.809c1.131-0.278,1.395,1.124,1.543,1.809C49.283,28.181,48.41,29.065,47.423,29.101z"/>
		<path style="fill-rule:evenodd;clip-rule:evenodd;fill:#7B491E;" d="M304.098,150.95c0.565,0.137,1.151,0.625,0.942,1.461
			c-0.209,0.837-0.502,2.097-1.32,2.127c-0.627,0.023-1.686-0.958-1.307-2.03C302.634,151.883,302.633,150.76,304.098,150.95z"/>
		<path style="fill-rule:evenodd;clip-rule:evenodd;fill:#7B491E;" d="M263.954,138.487c0.04,0.407-0.063,0.863-0.979,0.918
			c-1.291,0.076-1.787-0.721-2.008-1.697c-0.206-0.914,0.527-1.048,1.261-1.075C263.327,136.591,263.907,137.077,263.954,138.487z"
			/>
		<path style="fill-rule:evenodd;clip-rule:evenodd;fill:#7B491E;" d="M249.121,130.027c-1.087,0.147-1.828-0.623-1.939-1.237
			c-0.173-0.955,1.073-0.866,1.663-1.293c0.461,0.685,1.962-0.228,1.91,1.239C250.714,129.872,249.54,129.522,249.121,130.027z"/>
		<path style="fill-rule:evenodd;clip-rule:evenodd;fill:#7B491E;" d="M217.839,72.585c0.114,1.17-0.772,0.895-1.457,0.955
			c-0.874,0.077-1.381-0.146-1.295-1.178c0.08-0.964,0.451-1.604,1.474-1.541C217.59,70.885,217.889,71.615,217.839,72.585z"/>
		<path style="fill-rule:evenodd;clip-rule:evenodd;fill:#7B491E;" d="M168.448,173.898c-0.132,1.059-1.071,0.476-1.673,0.583
			c-0.819,0.147-1.209-0.275-1.029-1.076c0.167-0.742,0.942-1.571,1.347-1.454C167.741,172.141,168.508,172.769,168.448,173.898z"/>
		<path style="fill-rule:evenodd;clip-rule:evenodd;fill:#7B491E;" d="M183.823,91.126c-0.313,0.686-0.85,1.48-1.441,1.388
			c-0.528-0.082-1.175-0.741-1.306-1.567c-0.177-1.114,0.983-1.305,1.318-1.271C183.033,89.74,183.599,90.375,183.823,91.126z"/>
		<path style="fill-rule:evenodd;clip-rule:evenodd;fill:#7B491E;" d="M233.205,80.654c-1.026,0.327-1.264-0.621-1.38-1.18
			c-0.198-0.954,0.843-1.083,1.422-1.218c0.978-0.229,1.021,0.588,1.065,1.323C234.362,80.386,234.079,80.78,233.205,80.654z"/>
		<path style="fill-rule:evenodd;clip-rule:evenodd;fill:#7B491E;" d="M272.71,182.567c-0.02,0.607,0.154,1.344-0.877,1.249
			c-0.703-0.064-1.333-0.453-1.22-1.104c0.089-0.513,0.667-1.195,1.155-1.326C272.512,181.187,272.72,181.898,272.71,182.567z"/>
		<path style="fill-rule:evenodd;clip-rule:evenodd;fill:#7B491E;" d="M256.152,99.044c-0.395,0.675-0.937,0.868-1.642,0.84
			c-0.637-0.025-1.044-0.156-0.996-0.91c0.067-1.066,0.861-0.68,1.422-0.733C255.568,98.184,255.843,98.667,256.152,99.044z"/>
		<path style="fill-rule:evenodd;clip-rule:evenodd;fill:#7B491E;" d="M185.747,49.956c0.27,0.286,0.714,0.553,0.709,0.811
			c-0.005,0.26-0.458,0.51-0.714,0.765c-0.254-0.256-0.704-0.51-0.707-0.77C185.03,50.503,185.477,50.24,185.747,49.956z"/>
		<path style="fill-rule:evenodd;clip-rule:evenodd;fill:#7B491E;" d="M144.255,154.281c-0.047,0.069-0.131,0.198-0.217,0.325
			c-0.228-0.253-0.456-0.507-0.684-0.76c0.165-0.057,0.336-0.172,0.494-0.156C144.13,153.72,144.366,153.858,144.255,154.281z"/>
		<path style="fill-rule:evenodd;clip-rule:evenodd;fill:none;" d="M304.537,53.878c-0.068,0.391,0.085,0.969-0.577,0.93
			c-0.619-0.037-0.505-0.592-0.507-0.991c-0.002-0.489-0.111-1.189,0.688-1.047C304.656,52.861,304.512,53.46,304.537,53.878z"/>
		<path style="fill-rule:evenodd;clip-rule:evenodd;fill:none;" d="M100.586,130.048c-0.725-0.003-1.471,0.108-2.171-0.023
			c-2.057-0.387-2.348-1.436-1.187-3.132c1.351-1.973,3.027-3.184,5.464-2.844c1.186,0.165,2.886,0.459,2.556,2.041
			c-0.321,1.538-0.53,3.594-2.763,3.945C101.867,130.133,101.22,130.051,100.586,130.048z"/>
		<path style="fill-rule:evenodd;clip-rule:evenodd;fill:none;" d="M78.927,59.832c0.239-0.219,0.385-0.465,0.571-0.5
			c0.429-0.083,0.645,0.215,0.556,0.599c-0.039,0.165-0.349,0.368-0.534,0.366C79.348,60.294,79.179,60.042,78.927,59.832z"/>
	</g>
</g>
</svg>
