<?xml version="1.0" encoding="iso-8859-1"?>
<!-- Generator: Adobe Illustrator 16.0.0, SVG Export Plug-In . SVG Version: 6.00 Build 0)  -->
<!DOCTYPE svg PUBLIC "-//W3C//DTD SVG 1.1//EN" "http://www.w3.org/Graphics/SVG/1.1/DTD/svg11.dtd">
<svg version="1.1" id="Layer_1" xmlns="http://www.w3.org/2000/svg" xmlns:xlink="http://www.w3.org/1999/xlink" x="0px" y="0px"
	 width="401.119px" height="175.696px" viewBox="0 0 401.119 175.696" style="enable-background:new 0 0 401.119 175.696;"
	 xml:space="preserve">
<g>
	<g>
		<path style="fill:none;" d="M200.565,175.141c-65.913,0-131.827-0.011-197.74,0.055c-1.934,0.001-2.316-0.38-2.314-2.314
			c0.067-56.686,0.067-113.371,0-170.057c-0.002-1.934,0.38-2.314,2.314-2.313C134.651,0.57,266.478,0.57,398.305,0.512
			c1.934-0.001,2.316,0.378,2.314,2.312c-0.066,56.686-0.066,113.371,0,170.056c0.002,1.935-0.379,2.316-2.314,2.315
			C332.392,175.13,266.479,175.141,200.565,175.141z M88.736,104.469c1.916-2.379,3.418-4.156,5.834-5.051
			c4.627-1.714,7.711-5.261,10.32-9.231c0.496-0.754,0.499-1.946-0.342-2.867c-2.615-2.867-7.282-3.782-9.941-1.179
			c-3.082,3.018-7.017,5.4-8.519,9.888c-0.36,1.076-1.382,2.411-2.373,2.704c-2.859,0.849-3.915,3.246-3.839,5.42
			c0.085,2.456,1.431,4.994,5.228,4.441c-1.262,1.915-2.343,3.719-0.769,5.144c1.485,1.343,3.486,2.167,5.693,1.672
			c4.722-1.062,9.373-2.859,14.289-2.358c4.786,0.487,9.039-1.476,13.423-2.605c1.694-0.437,4.212-0.586,5.204-2.674
			c1.073-2.261,1.659-4.662,1.376-7.241c-0.153-1.395-0.902-1.566-2.07-1.69c-3.378-0.359-6.76,0.087-9.67,1.52
			c-2.263,1.114-4.586,0.145-6.713,1.256C100.734,104.296,95.148,104.608,88.736,104.469z M284.284,61.463
			c-0.085-1.212,0.709-1.807,1.398-2.047c4.73-1.649,7.794-5.426,11.312-8.631c0.809-0.737,1.101-1.705,0.559-2.502
			c-0.64-0.943-1.354-2.254-2.826-1.927c-3.786,0.84-7.617,1.58-11.294,2.778c-3.365,1.097-5.835,6.887-4.628,10.635
			c0.562,1.749,0.141,2.601-1.195,3.631c-3.982,3.073-4.611,7.686-5.28,12.23c-0.156,1.064,0.05,1.892,1.28,2.45
			c1.217,0.552,1.369-0.509,1.993-0.855c3.47-1.927,6.546-4.47,11.113-3.973c2.061,0.225,4.896,0.331,6.727-1.598
			c2.726-2.87,4.415-6.581,7.498-9.225c0.595-0.511,0.687-2.398-0.389-3.36c-1.219-1.091-6.905-1.027-8.119,0.291
			C290.091,61.901,287.266,61.705,284.284,61.463z M362.955,115.822c2.928,0.209,4.8-1.715,6.506-3.568
			c2.171-2.359,4.443-4.489,7.166-6.227c2.762-1.764,5.229-4.032,6.844-6.898c1.771-3.143,3.127-6.52,4.654-9.8
			c1.265-2.717-0.099-4.886-3.119-5.164c-3.333-0.306-5.884,0.652-7.605,3.737c-2.11,3.78-5.361,6.199-9.426,7.803
			c-5.542,2.187-9.252,5.017-8.676,12.335c0.071,0.904,0.034,1.814-0.24,2.761C358.122,114.038,359.559,115.805,362.955,115.822z
			 M265.604,60.776c-2.638,0.775-4.719-0.594-6.927-1.253c-2.859-0.854-5.744-0.128-6.72,1.657c-1.581,2.891-1.738,5.895,0.334,6.97
			c2.586,1.342,3.75,3.681,5.352,5.703c1.154,1.457,2.222,2.997,3.385,4.466c1.104,1.395,2.548,1.653,3.995,1.254
			c1.311-0.361,2.191-1.907,2.103-2.97c-0.38-4.553,1.55-9.142-0.294-13.789c2.282,0.258,2.999-1.665,4.304-2.878
			c3.268-3.036,3.617-6.174,1.265-9.929c-1.182-1.887-3.44-1.979-4.726-3.518c-1.824-2.186-4.062-2.241-6.503-1.283
			c-1.601,0.627-5.725,6.277-5.479,7.844c0.123,0.792,0.076,1.961,1.243,2.299c1.131,0.326,2.065,1.032,3.316,1.229
			C262.64,56.952,264.532,58.275,265.604,60.776z M370.264,81.043c-0.745-1.522-1.317-3.503-2.988-4.706
			c-1.271-0.915-3.04-0.682-3.999,0.344c-2.057,2.203-5.018,3.215-6.887,5.609c-0.812,1.038-1.944,1.564-3.248,1.958
			c-1.81,0.546-4.083,0.363-5.354,1.799c-3.099,3.503-5.089,7.723-6.665,12.104c-0.346,0.961,0.142,1.8,0.98,2.634
			c1.148,1.142,2.565,2.295,2.102,4.429c-0.128,0.585,0.452,2.058,1.496,2.044c1.792-0.024,3.532,0.756,5.411-0.823
			c2.202-1.853,3.536-3.841,4.814-6.44c2.352-4.785,6.373-8.478,10.457-11.979C368.352,86.327,369.641,84.083,370.264,81.043z
			 M217.514,124.266c0,1.666-0.017,2.89,0.006,4.112c0.019,1.078-0.335,2.399,1.25,2.7c1.395,0.264,3.169,0.556,3.985-0.614
			c1.291-1.849,2.667-3.706,3.964-5.514c2.767-3.855,3.003-8.819,6.133-12.438c1.165-1.348,0.719-3.329,0.267-4.84
			c-0.488-1.631-2.286-0.835-3.499-0.856c-2.898-0.05-7.161,4.952-6.965,8.408c0.16,2.812-0.713,4.806-3.134,6.019
			c-2.014-3.096-3.304-6.145,0.781-8.779c0.894-0.576,2.429-1.351,1.633-2.709c-0.642-1.095-1.876-1.841-3.428-1.873
			c-5.163-0.108-10.853,5.898-9.888,11.211c0.454,2.499-0.167,4.505-0.868,6.598c-0.314,0.939-0.577,1.879-0.346,2.697
			c0.405,1.434,0.594,3.291,2.333,3.742c1.573,0.408,2.758-0.164,3.973-1.692C215.168,128.604,216.081,126.552,217.514,124.266z
			 M258.773,27.125c-0.847,0-1.733-0.164-2.531,0.032c-1.971,0.485-3.592,1.666-4.188,3.608c-0.384,1.252-0.392,3.154,1.115,3.606
			c2.316,0.696,4.354,3.062,7.267,1.328c0.848-0.505,2.11-0.281,2.984,1.17c1.45,2.405,3.83,4.042,6.771,3.075
			c1.519-0.5,2.197-0.062,3.09,0.827c2.498,2.489,5.67,2.259,8.325,1.007c4.429-2.088,7.794-5.753,11.022-9.375
			c1.484-1.665,0.493-3.953-1.581-4.127c-3.063-0.258-5.906,0.957-8.789,1.704c-2.388,0.619-4.011,2.499-5.418,4.475
			c-0.5,0.702-1.195,1.206-1.999,0.987c-1.188-0.323,0.009-1.371-0.315-1.784c-1.008-1.279,0.41-3.441-1.765-4.288
			C268.247,27.612,263.304,28.671,258.773,27.125z M62.728,116.958c2.397,0.1,4.295-0.478,6.217-0.698
			c3.563-0.408,7.908-5.922,7.872-9.471c-0.015-1.451-0.684-2.288-2.077-1.149c-2.201,1.8-4.464,1.108-6.885,0.646
			c-4.554-0.867-9.075-1.136-13.718,0.175c-2.857,0.807-6.026,1.166-8.949,1.203c-2.5,0.032-4.336,1.818-6.818,1.474
			c-1.045-0.145-1.52,1.391-1.556,2.32c-0.086,2.198,2.327,4.42,4.675,4.337c4.184-0.147,8.363-0.419,12.542-0.678
			c1.251-0.077,2.597-0.115,3.601,0.512C59.379,116.719,61.336,116.469,62.728,116.958z M348.587,119.361
			c0.03-3.568-6.097-7.479-9.367-6.324c-2.379,0.841-3.752,3.342-6.049,3.809c-4.942,1.003-9.812,1.725-14.301,4.493
			c-2.728,1.683-3.686,4.022-4.705,6.579c-0.281,0.705-0.051,1.763,0.793,1.85c3.102,0.322,6.222,1.896,9.288-0.537
			c2.575-2.042,5.355-4.195,8.887-1.618c0.188,0.137,0.557,0.09,0.824,0.039c5.075-0.976,9.43-3.573,13.771-6.181
			C348.526,120.991,348.733,120.162,348.587,119.361z M42.921,73.455c-3.927-0.25-7.732,0.034-11.19,2.225
			c-1.825,1.156-2.762,3.956-1.141,5.053c2.702,1.83,5.3,4.437,9.005,3.974c2.527-0.316,5.011-1.396,7.514-1.393
			c2.905,0.004,5.54-1.974,8.545-0.851c2.295,0.857,3.893-0.082,4.81-2.311c0.969-2.356,0.514-4.456-0.733-6.517
			c-2.133-3.526-3.254-4.26-6.724-2.271C49.721,73.247,46.45,73.581,42.921,73.455z M34.634,51.925
			c-2.591-0.384-4.881,0.948-7.345,1.275c-3.725,0.495-7.321,1.661-10.096,4.461c-1.185,1.196-1.921,2.719-1.156,4.277
			c0.663,1.351,1.96,2.361,3.691,1.888c4.136-1.129,8.41-0.991,12.616-1.465c3.643-0.411,7.327-0.501,10.936,0
			c3.159,0.439,5.873-0.651,7.191-3.481c0.811-1.74,0.564-3.311-1.179-3.971C44.583,53.125,39.552,52.745,34.634,51.925z
			 M307.909,112.736c0.009,2.72,1.294,3.599,3.978,2.812c1.817-0.533,3.279-2.089,5.294-1.972c5.346,0.31,10.294-0.608,15.114-3.243
			c2.083-1.139,3.356-2.652,4.839-4.233c2.16-2.303,0.871-4.094-0.575-5.958c-0.166-0.213-0.343-0.472-0.373-0.726
			c-0.316-2.648-1.916-1.235-2.465-0.503c-0.876,1.171-1.871,1.408-3.166,1.711c-3.537,0.826-7.418-0.024-10.664,2.185
			c-2.067,1.406-4.359,2.208-6.765,2.921C309.945,106.672,307.899,109.758,307.909,112.736z M72.877,85.844
			c1.014,0.291,1.793-0.321,2.625-0.687c4.766-2.093,8.655-5.797,13.676-7.453c0.507-0.168,0.882-0.926,1.189-1.482
			c1.174-2.126,0.819-4.652-0.795-5.78c-1.635-1.143-4.09-2.022-6.401-0.958c-3.783,1.743-7.691,2.984-11.899,2.81
			c-3.173-0.131-5.66,0.601-7.446,3.604c-1.54,2.589-1.214,4.417,1.663,5.473c1.863,0.684,3.822,1.157,4.805,3.258
			C70.73,85.565,71.684,86.155,72.877,85.844z M216.299,135.027c-2.966,0.781-7.196,0.39-9.44,4.646
			c-0.579,1.098-1.959,1.587-3.122,2.136c-2.371,1.117-4.748,2.223-7.09,3.397c-1.919,0.962-2.918,2.749-3.779,4.597
			c-0.566,1.215,0.068,2.683,1.04,2.621c4.015-0.258,8.104,1.567,12.084-0.911c4.07-2.534,7.796-5.611,12.271-7.584
			c1.262-0.557,3.496-0.904,3.789-3.156C222.518,137.174,220.717,135.034,216.299,135.027z M250.317,108.574
			c0.23-1.211-0.277-2.313-1.238-2.618c-1.544-0.489-3.138-0.565-4.802,0.259c-3.599,1.78-4.219,5.894-6.879,8.419
			c-0.684,0.649-1.859,1.07-2.1,2.293c-0.642,3.266-3.037,5.379-5.274,7.522c-2.034,1.949-2.59,4.537-3.446,7.004
			c-0.395,1.136,0.2,1.976,1.302,2.324c2.336,0.74,4.418-0.133,6.152-1.514c2.469-1.966,4.343-4.595,6.997-6.409
			c1.199-0.818,2.008-2.133,2.461-3.558c1.082-3.407,2.256-6.707,4.822-9.41C249.368,111.776,250.126,110.217,250.317,108.574z
			 M355.929,69.844c0.019-3.176-1.726-4.169-4.043-2.738c-1.04,0.643-1.976,1.323-3.266,1.261c-2.572-0.125-4.568,1.207-6.412,2.739
			c-1.732,1.439-2.812,3.252-3.299,5.564c-0.525,2.503-3.135,3.448-4.7,5.197c-3.043,3.4-2.006,7.092,2.279,8.69
			c1.979,0.737,3.091,0.183,4.034-1.449c1.363-2.358,2.091-5.409,4.607-6.655c2.405-1.189,4.393-2.719,6.294-4.49
			C353.958,75.604,355.731,72.847,355.929,69.844z M43.23,94.318c-2.462-0.577-5.062,0.323-7.038,3.06
			c-1.136,1.572-0.491,3.249-0.513,4.865c-0.012,0.917,1.053,0.641,1.595,0.552c3.384-0.554,6.754-0.19,10.126,0.04
			c1.354,0.093,2.636-0.115,3.613-1.057c1.716-1.652,4.164-1.837,5.734-1.041c2.49,1.261,5.094,0.538,7.538,1.418
			c1.956,0.704,3.552-0.572,4.81-2.059c0.587-0.693,1.022-1.507,0.38-2.378c-1.009-1.37-2.268-2.31-4.106-2.251
			c-1.47,0.047-2.863-0.356-4.301-0.669c-3.016-0.656-6.059-2.359-9.151-1.448C49.27,94.13,46.686,94.401,43.23,94.318z
			 M80.225,52.867c0.019-2.885-1.143-4.466-3.355-4.226c-2.518,0.273-5.089,0.675-7.463,1.515c-4.858,1.718-9.601,3.76-14.548,5.249
			c-1.488,0.448-2.032,1.806-2.288,3.19c-0.175,0.948,0.21,2.07,1.048,2.337c2.953,0.94,6.013,2.394,9.087,1.67
			c5.562-1.309,10.897-3.343,15.718-6.596C79.77,55.098,80.45,54.225,80.225,52.867z M202.786,135.347
			c0.146-2.689-0.669-3.611-2.71-3.751c-2.674-0.182-4.892,1.257-7.364,1.702c-3.331,0.601-5.9,2.771-8.788,4.225
			c-2.175,1.095-4.631,2.553-4.845,5.645c-0.083,1.191-1.392,2.483,0.174,3.511c1.566,1.027,3.244,1.133,4.965,0.228
			c0.789-0.415,1.469-0.935,2.4-1.236c3.487-1.132,7.351-1.125,10.485-3.313C199.876,140.419,202.057,138.023,202.786,135.347z
			 M315.528,80.231c-1.933,0.279-4.164,0.945-5.185,3.936c-0.479,1.402-0.684,2.938-1.64,4.286
			c-0.636,0.897-0.584,2.445,0.508,3.593c1.179,1.239,2.719,3.386,3.985,2.636c3.367-1.994,6.855-1.103,10.28-1.518
			c2.388-0.289,3.979-1.384,3.705-4.381C326.798,84.587,321.419,80.185,315.528,80.231z M275.213,27.65
			c1.399,0.354,2.18-0.263,2.804-1.685c0.923-2.1,2.152-4.022,4.545-4.888c2.904-1.05,3.383-4.132,4.932-6.307
			c0.342-0.479,0.224-1.411-0.457-2.038c-1.455-1.341-2.938-2.319-4.982-1.25c-2.637,1.378-5.172,2.901-7.308,5.006
			c-0.525,0.52-0.991,0.972-1.855,1.061c-2.828,0.292-5.564,4.19-5.11,6.984c0.157,0.968,0.785,1.79,1.469,1.847
			C271.28,26.553,273.001,28.009,275.213,27.65z M371.778,141.56c-0.557-0.501-1.028-0.925-1.499-1.35
			c-0.252,0.359-0.705,0.716-0.709,1.078c-0.007,0.549,0.463,1.049,1.045,1.013C370.982,142.279,371.326,141.864,371.778,141.56z
			 M215.726,105.105c-0.588-0.033-1.028,0.003-0.994,0.635c0.005,0.103,0.236,0.299,0.281,0.276
			c0.387-0.179,0.754-0.398,1.128-0.606C215.975,105.289,215.81,105.167,215.726,105.105z"/>
		<path style="fill-rule:evenodd;clip-rule:evenodd;fill:#7B491E;" d="M88.736,104.469c6.412,0.139,11.998-0.173,17.132-2.854
			c2.127-1.111,4.45-0.142,6.713-1.256c2.91-1.433,6.292-1.879,9.67-1.52c1.167,0.124,1.917,0.296,2.07,1.69
			c0.283,2.579-0.303,4.98-1.376,7.241c-0.992,2.088-3.51,2.237-5.204,2.674c-4.385,1.13-8.638,3.093-13.423,2.605
			c-4.916-0.501-9.567,1.297-14.289,2.358c-2.207,0.495-4.208-0.329-5.693-1.672c-1.575-1.425-0.493-3.229,0.769-5.144
			c-3.797,0.553-5.143-1.985-5.228-4.441c-0.076-2.174,0.979-4.571,3.839-5.42c0.991-0.293,2.012-1.628,2.373-2.704
			c1.502-4.488,5.437-6.87,8.519-9.888c2.659-2.603,7.326-1.688,9.941,1.179c0.84,0.921,0.838,2.113,0.342,2.867
			c-2.609,3.971-5.692,7.518-10.32,9.231C92.154,100.313,90.652,102.09,88.736,104.469z"/>
		<path style="fill-rule:evenodd;clip-rule:evenodd;fill:#7B491E;" d="M284.284,61.463c2.981,0.241,5.807,0.438,8.149-2.105
			c1.214-1.318,6.9-1.381,8.119-0.291c1.075,0.962,0.983,2.85,0.389,3.36c-3.083,2.645-4.772,6.355-7.498,9.225
			c-1.831,1.928-4.666,1.822-6.727,1.598c-4.567-0.497-7.644,2.046-11.113,3.973c-0.624,0.347-0.776,1.407-1.993,0.855
			c-1.23-0.558-1.437-1.386-1.28-2.45c0.669-4.544,1.298-9.157,5.28-12.23c1.336-1.031,1.758-1.882,1.195-3.631
			c-1.207-3.749,1.263-9.538,4.628-10.635c3.677-1.198,7.508-1.938,11.294-2.778c1.472-0.327,2.187,0.984,2.826,1.927
			c0.542,0.797,0.25,1.765-0.559,2.502c-3.519,3.205-6.582,6.982-11.312,8.631C284.993,59.656,284.199,60.251,284.284,61.463z"/>
		<path style="fill-rule:evenodd;clip-rule:evenodd;fill:#7B491E;" d="M362.954,115.821c-3.396-0.016-4.832-1.783-3.896-5.021
			c0.274-0.946,0.312-1.856,0.24-2.761c-0.576-7.318,3.134-10.148,8.676-12.335c4.064-1.604,7.315-4.022,9.426-7.803
			c1.722-3.085,4.272-4.043,7.605-3.737c3.021,0.278,4.384,2.447,3.119,5.164c-1.527,3.28-2.884,6.657-4.654,9.8
			c-1.614,2.866-4.082,5.135-6.844,6.898c-2.723,1.737-4.995,3.867-7.166,6.227C367.755,114.107,365.883,116.031,362.954,115.821z"
			/>
		<path style="fill-rule:evenodd;clip-rule:evenodd;fill:#7B491E;" d="M265.604,60.776c-1.071-2.501-2.964-3.825-5.352-4.2
			c-1.251-0.197-2.186-0.902-3.316-1.229c-1.167-0.338-1.12-1.507-1.243-2.299c-0.246-1.567,3.878-7.216,5.479-7.844
			c2.441-0.958,4.679-0.903,6.503,1.283c1.285,1.54,3.544,1.631,4.726,3.518c2.353,3.755,2.003,6.893-1.265,9.929
			c-1.305,1.213-2.021,3.136-4.304,2.878c1.844,4.647-0.086,9.236,0.294,13.789c0.089,1.063-0.792,2.609-2.103,2.97
			c-1.447,0.398-2.892,0.141-3.995-1.254c-1.163-1.469-2.23-3.009-3.385-4.466c-1.602-2.021-2.766-4.36-5.352-5.703
			c-2.072-1.076-1.915-4.079-0.334-6.97c0.976-1.785,3.86-2.511,6.72-1.657C260.885,60.183,262.966,61.551,265.604,60.776z"/>
		<path style="fill-rule:evenodd;clip-rule:evenodd;fill:#7B491E;" d="M370.264,81.043c-0.623,3.039-1.912,5.284-3.881,6.972
			c-4.084,3.501-8.105,7.193-10.457,11.979c-1.278,2.6-2.612,4.588-4.814,6.44c-1.879,1.579-3.619,0.799-5.411,0.823
			c-1.044,0.014-1.624-1.459-1.496-2.044c0.464-2.134-0.953-3.287-2.102-4.429c-0.839-0.834-1.326-1.673-0.98-2.634
			c1.576-4.381,3.566-8.601,6.665-12.104c1.271-1.437,3.545-1.253,5.354-1.799c1.304-0.393,2.437-0.919,3.248-1.958
			c1.869-2.394,4.83-3.406,6.887-5.609c0.959-1.026,2.729-1.259,3.999-0.344C368.946,77.54,369.519,79.521,370.264,81.043z"/>
		<path style="fill-rule:evenodd;clip-rule:evenodd;fill:#7B491E;" d="M217.514,124.266c-1.433,2.286-2.346,4.338-3.803,6.171
			c-1.215,1.528-2.399,2.101-3.973,1.692c-1.739-0.451-1.928-2.309-2.333-3.742c-0.231-0.818,0.031-1.758,0.346-2.697
			c0.701-2.093,1.322-4.099,0.868-6.598c-0.965-5.312,4.725-11.319,9.888-11.211c1.552,0.032,2.786,0.778,3.428,1.873
			c0.796,1.358-0.739,2.133-1.633,2.709c-4.085,2.635-2.795,5.684-0.781,8.779c2.421-1.213,3.294-3.207,3.134-6.019
			c-0.196-3.456,4.066-8.458,6.965-8.408c1.213,0.021,3.011-0.774,3.499,0.856c0.452,1.511,0.898,3.492-0.267,4.84
			c-3.13,3.619-3.366,8.583-6.133,12.438c-1.297,1.808-2.673,3.665-3.964,5.514c-0.816,1.17-2.591,0.878-3.985,0.614
			c-1.585-0.301-1.231-1.622-1.25-2.7C217.497,127.156,217.514,125.932,217.514,124.266z"/>
		<path style="fill-rule:evenodd;clip-rule:evenodd;fill:#7B491E;" d="M258.773,27.125c4.53,1.547,9.474,0.487,13.987,2.246
			c2.175,0.847,0.757,3.009,1.765,4.288c0.324,0.413-0.872,1.46,0.315,1.784c0.804,0.219,1.499-0.285,1.999-0.987
			c1.407-1.976,3.03-3.855,5.418-4.475c2.883-0.748,5.726-1.962,8.789-1.704c2.074,0.174,3.065,2.462,1.581,4.127
			c-3.229,3.622-6.594,7.288-11.022,9.375c-2.655,1.252-5.827,1.481-8.325-1.007c-0.893-0.89-1.571-1.327-3.09-0.827
			c-2.94,0.966-5.32-0.67-6.771-3.075c-0.874-1.451-2.137-1.676-2.984-1.17c-2.913,1.734-4.95-0.632-7.267-1.328
			c-1.507-0.453-1.499-2.354-1.115-3.606c0.597-1.943,2.218-3.123,4.188-3.608C257.04,26.96,257.927,27.125,258.773,27.125z"/>
		<path style="fill-rule:evenodd;clip-rule:evenodd;fill:#7B491E;" d="M62.728,116.958c-1.392-0.489-3.349-0.239-5.095-1.329
			c-1.003-0.627-2.349-0.589-3.601-0.512c-4.179,0.259-8.358,0.53-12.542,0.678c-2.349,0.083-4.761-2.139-4.675-4.337
			c0.036-0.93,0.51-2.465,1.556-2.32c2.482,0.345,4.318-1.441,6.818-1.474c2.923-0.037,6.092-0.396,8.949-1.203
			c4.643-1.311,9.164-1.042,13.718-0.175c2.421,0.462,4.684,1.153,6.885-0.646c1.393-1.139,2.062-0.302,2.077,1.149
			c0.037,3.549-4.308,9.062-7.872,9.471C67.023,116.481,65.125,117.058,62.728,116.958z"/>
		<path style="fill-rule:evenodd;clip-rule:evenodd;fill:#7B491E;" d="M348.587,119.361c0.146,0.801-0.061,1.63-0.858,2.109
			c-4.342,2.607-8.696,5.205-13.771,6.181c-0.268,0.051-0.637,0.098-0.824-0.039c-3.531-2.577-6.312-0.424-8.887,1.618
			c-3.066,2.433-6.187,0.859-9.288,0.537c-0.844-0.087-1.074-1.145-0.793-1.85c1.02-2.557,1.978-4.896,4.705-6.579
			c4.488-2.769,9.358-3.49,14.301-4.493c2.297-0.467,3.67-2.968,6.049-3.809C342.49,111.882,348.617,115.792,348.587,119.361z"/>
		<path style="fill-rule:evenodd;clip-rule:evenodd;fill:#7B491E;" d="M42.921,73.455c3.529,0.126,6.799-0.208,10.086-2.091
			c3.47-1.989,4.591-1.254,6.724,2.271c1.247,2.061,1.702,4.16,0.733,6.517c-0.917,2.229-2.515,3.168-4.81,2.311
			c-3.005-1.123-5.64,0.855-8.545,0.851c-2.503-0.003-4.987,1.077-7.514,1.393c-3.705,0.463-6.304-2.144-9.005-3.974
			c-1.621-1.097-0.685-3.897,1.141-5.053C35.189,73.489,38.994,73.205,42.921,73.455z"/>
		<path style="fill-rule:evenodd;clip-rule:evenodd;fill:#7B491E;" d="M34.634,51.925c4.918,0.82,9.948,1.201,14.658,2.984
			c1.743,0.661,1.99,2.231,1.179,3.971c-1.318,2.83-4.032,3.921-7.191,3.481c-3.609-0.501-7.293-0.411-10.936,0
			c-4.206,0.475-8.48,0.336-12.616,1.465c-1.73,0.473-3.028-0.537-3.691-1.888c-0.765-1.559-0.029-3.081,1.156-4.277
			c2.775-2.801,6.371-3.967,10.096-4.461C29.753,52.873,32.043,51.541,34.634,51.925z"/>
		<path style="fill-rule:evenodd;clip-rule:evenodd;fill:#7B491E;" d="M307.909,112.736c-0.01-2.978,2.036-6.063,5.217-7.007
			c2.405-0.713,4.697-1.515,6.765-2.921c3.246-2.209,7.127-1.358,10.664-2.185c1.295-0.303,2.29-0.54,3.166-1.711
			c0.549-0.732,2.148-2.146,2.465,0.503c0.03,0.254,0.207,0.513,0.373,0.726c1.446,1.864,2.735,3.655,0.575,5.958
			c-1.482,1.581-2.756,3.095-4.839,4.233c-4.82,2.635-9.769,3.553-15.114,3.243c-2.015-0.117-3.477,1.438-5.294,1.972
			C309.203,116.334,307.918,115.456,307.909,112.736z"/>
		<path style="fill-rule:evenodd;clip-rule:evenodd;fill:#7B491E;" d="M72.877,85.844c-1.193,0.311-2.146-0.279-2.584-1.214
			c-0.983-2.101-2.942-2.574-4.805-3.258c-2.876-1.056-3.202-2.883-1.663-5.473c1.787-3.004,4.273-3.735,7.446-3.604
			c4.208,0.174,8.117-1.067,11.899-2.81c2.311-1.065,4.767-0.185,6.401,0.958c1.614,1.128,1.969,3.654,0.795,5.78
			c-0.307,0.556-0.682,1.314-1.189,1.482c-5.021,1.656-8.91,5.36-13.676,7.453C74.67,85.523,73.891,86.135,72.877,85.844z"/>
		<path style="fill-rule:evenodd;clip-rule:evenodd;fill:#7B491E;" d="M216.299,135.027c4.418,0.007,6.219,2.147,5.751,5.745
			c-0.293,2.252-2.527,2.6-3.789,3.156c-4.475,1.973-8.2,5.05-12.271,7.584c-3.98,2.479-8.069,0.653-12.084,0.911
			c-0.971,0.062-1.605-1.406-1.04-2.621c0.861-1.848,1.86-3.635,3.779-4.597c2.343-1.175,4.719-2.28,7.09-3.397
			c1.163-0.549,2.543-1.038,3.122-2.136C209.103,135.417,213.333,135.808,216.299,135.027z"/>
		<path style="fill-rule:evenodd;clip-rule:evenodd;fill:#7B491E;" d="M250.317,108.574c-0.191,1.644-0.949,3.202-2.005,4.312
			c-2.566,2.703-3.74,6.003-4.822,9.41c-0.453,1.425-1.262,2.739-2.461,3.558c-2.654,1.814-4.528,4.443-6.997,6.409
			c-1.734,1.381-3.816,2.254-6.152,1.514c-1.102-0.349-1.696-1.188-1.302-2.324c0.856-2.467,1.412-5.055,3.446-7.004
			c2.237-2.144,4.633-4.257,5.274-7.522c0.24-1.223,1.416-1.644,2.1-2.293c2.66-2.525,3.28-6.639,6.879-8.419
			c1.664-0.824,3.258-0.748,4.802-0.259C250.04,106.26,250.548,107.363,250.317,108.574z"/>
		<path style="fill-rule:evenodd;clip-rule:evenodd;fill:#7B491E;" d="M355.929,69.844c-0.197,3.003-1.971,5.76-4.505,8.12
			c-1.901,1.771-3.889,3.301-6.294,4.49c-2.517,1.246-3.244,4.297-4.607,6.655c-0.943,1.632-2.056,2.187-4.034,1.449
			c-4.285-1.598-5.322-5.29-2.279-8.69c1.565-1.749,4.175-2.694,4.7-5.197c0.486-2.312,1.566-4.125,3.299-5.564
			c1.844-1.532,3.84-2.864,6.412-2.739c1.29,0.062,2.226-0.618,3.266-1.261C354.203,65.674,355.947,66.668,355.929,69.844z"/>
		<path style="fill-rule:evenodd;clip-rule:evenodd;fill:#7B491E;" d="M43.23,94.318c3.456,0.083,6.04-0.188,8.687-0.968
			c3.092-0.911,6.135,0.792,9.151,1.448c1.438,0.312,2.831,0.716,4.301,0.669c1.838-0.059,3.097,0.881,4.106,2.251
			c0.643,0.871,0.207,1.685-0.38,2.378c-1.257,1.486-2.854,2.763-4.81,2.059c-2.444-0.88-5.047-0.157-7.538-1.418
			c-1.57-0.796-4.018-0.611-5.734,1.041c-0.977,0.941-2.258,1.149-3.613,1.057c-3.372-0.23-6.743-0.594-10.126-0.04
			c-0.542,0.089-1.607,0.365-1.595-0.552c0.022-1.616-0.624-3.293,0.513-4.865C38.169,94.641,40.769,93.741,43.23,94.318z"/>
		<path style="fill-rule:evenodd;clip-rule:evenodd;fill:#7B491E;" d="M80.225,52.867c0.226,1.358-0.455,2.231-1.801,3.14
			c-4.821,3.252-10.155,5.287-15.718,6.596c-3.074,0.723-6.134-0.73-9.087-1.67c-0.838-0.267-1.223-1.39-1.048-2.337
			c0.256-1.384,0.8-2.742,2.288-3.19c4.947-1.489,9.689-3.531,14.548-5.249c2.374-0.839,4.945-1.242,7.463-1.515
			C79.082,48.401,80.243,49.981,80.225,52.867z"/>
		<path style="fill-rule:evenodd;clip-rule:evenodd;fill:#7B491E;" d="M202.786,135.347c-0.729,2.676-2.91,5.072-5.682,7.009
			c-3.134,2.188-6.998,2.182-10.485,3.313c-0.931,0.302-1.611,0.821-2.4,1.236c-1.722,0.905-3.399,0.8-4.965-0.228
			c-1.566-1.027-0.257-2.319-0.174-3.511c0.214-3.092,2.67-4.55,4.845-5.645c2.888-1.453,5.457-3.624,8.788-4.225
			c2.472-0.445,4.69-1.884,7.364-1.702C202.117,131.736,202.933,132.658,202.786,135.347z"/>
		<path style="fill-rule:evenodd;clip-rule:evenodd;fill:#7B491E;" d="M315.528,80.231c5.891-0.046,11.27,4.355,11.654,8.552
			c0.274,2.997-1.317,4.092-3.705,4.381c-3.425,0.415-6.913-0.477-10.28,1.518c-1.267,0.75-2.807-1.396-3.985-2.636
			c-1.092-1.147-1.144-2.695-0.508-3.593c0.956-1.348,1.16-2.884,1.64-4.286C311.364,81.176,313.596,80.511,315.528,80.231z"/>
		<path style="fill-rule:evenodd;clip-rule:evenodd;fill:#7B491E;" d="M275.213,27.65c-2.212,0.358-3.933-1.098-5.964-1.27
			c-0.684-0.058-1.312-0.879-1.469-1.847c-0.454-2.794,2.282-6.693,5.11-6.984c0.864-0.089,1.33-0.541,1.855-1.061
			c2.136-2.105,4.671-3.627,7.308-5.006c2.044-1.069,3.527-0.09,4.982,1.25c0.681,0.627,0.799,1.558,0.457,2.038
			c-1.549,2.175-2.027,5.256-4.932,6.307c-2.393,0.865-3.622,2.788-4.545,4.888C277.393,27.388,276.612,28.005,275.213,27.65z"/>
		<path style="fill-rule:evenodd;clip-rule:evenodd;fill:#7B491E;" d="M371.778,141.56c-0.452,0.304-0.796,0.719-1.163,0.741
			c-0.582,0.036-1.052-0.464-1.045-1.013c0.004-0.362,0.457-0.719,0.709-1.078C370.75,140.635,371.222,141.059,371.778,141.56z"/>
		<path style="fill-rule:evenodd;clip-rule:evenodd;fill:#7B491E;" d="M215.726,105.105c0.084,0.062,0.249,0.184,0.415,0.305
			c-0.374,0.208-0.741,0.428-1.128,0.606c-0.045,0.022-0.276-0.174-0.281-0.276C214.697,105.108,215.138,105.072,215.726,105.105z"
			/>
	</g>
</g>
</svg>
