<?xml version="1.0" encoding="iso-8859-1"?>
<!-- Generator: Adobe Illustrator 16.0.0, SVG Export Plug-In . SVG Version: 6.00 Build 0)  -->
<!DOCTYPE svg PUBLIC "-//W3C//DTD SVG 1.1//EN" "http://www.w3.org/Graphics/SVG/1.1/DTD/svg11.dtd">
<svg version="1.1" id="Layer_1" xmlns="http://www.w3.org/2000/svg" xmlns:xlink="http://www.w3.org/1999/xlink" x="0px" y="0px"
	 width="401.081px" height="251.507px" viewBox="0 0 401.081 251.507" style="enable-background:new 0 0 401.081 251.507;"
	 xml:space="preserve">
<g>
	<g>
		<path style="fill:none;" d="M200.541,250.967c-66.026,0-132.052-0.007-198.077,0.04c-1.603,0.001-1.964-0.361-1.963-1.963
			C0.545,166.85,0.545,84.656,0.5,2.463C0.499,0.861,0.861,0.499,2.463,0.5c132.051,0.043,264.103,0.043,396.154,0
			c1.603-0.001,1.965,0.361,1.964,1.963c-0.046,82.193-0.046,164.387,0,246.582c0.001,1.602-0.361,1.964-1.964,1.963
			C332.592,250.96,266.566,250.967,200.541,250.967z M67.352,117.768c0.492,0.218,0.592,0.516,0.72,0.871
			c0.821,2.288,0.134,4.721,0.807,7.05c1.074,3.712,0.96,7.671,2.176,11.368c1.071,3.256,3.892,4.851,7.167,4.072
			c1.694-0.402,3.438-2.888,3.043-4.426c-0.818-3.191-1.483-6.396-1.246-9.722c0.05-0.696,0.03-1.375-0.394-2.023
			c-0.698-1.066-0.477-2.241-0.351-3.468c2.125,1.107,3.167,0.729,4.034-1.442c0.231-0.58,0.397-1.125,0.816-1.647
			c1.49-1.855,1.746-4.101,1.935-6.398c0.069-0.836-1.386-0.851-0.748-1.41c1.608-1.411,0.41-2.838,0.214-4.218
			c-0.298-2.094-1.336-4.233-1.06-6.214c0.274-1.964,1.003-3.98,1.551-5.968c0.147-0.536,0.438-0.867,1.01-0.913
			c0.491-0.04,0.846,0.213,1.018,0.623c0.885,2.102,1.585,4.396,0.756,6.521c-1.315,3.373-1.829,6.856-1.872,10.366
			c-0.053,4.304-0.711,8.541-0.979,12.816c-0.208,3.32-1.336,6.526-1.284,9.923c0.025,1.647,0.896,2.661,2.013,3.169
			c1.157,0.525,2.558,0.375,3.629-0.861c1.003-1.158,2.16-2.188,3.392-3.154c1.061-0.834,2.378-1.903,2.499-3.334
			c0.216-2.57,0.504-5.126,0.943-7.658c0.448-2.582,0.45-5.305,1.971-7.697c0.625,2.771-0.555,5.249-0.656,7.808
			c-0.125,3.163-0.184,6.336,0.315,9.518c0.416,2.65,3.05,4.304,5.174,2.688c3.857-2.935,5.863-7.025,5.478-11.825
			c-0.317-3.949-0.507-7.835,0.07-11.755c0.076-0.517,0.132-1.146,0.62-1.153c0.347-0.004,0.983,0.586,1.008,0.944
			c0.134,1.93,1.864,2.495,2.983,3.471c1.27,1.107,2.569,0.357,2.659-1.364c0.053-1.01-0.26-2.087-0.014-3.032
			c0.639-2.445-0.062-4.788-0.252-7.171c-0.266-3.312-0.936-6.523-1.752-9.757c-0.734-2.91-1.066-5.848-2.379-8.669
			c-0.544-1.17-1.684-2.326-1.554-3.804c0.141-1.605-0.792-2.813-1.499-4.035c-1.021-1.763-3.789-1.957-5.5-0.614
			c-0.985,0.772-2.255,1.125-3.165,0.289c-0.983-0.904-3.041-1.685-2.044-3.472c1.252-2.247-0.185-3.839-0.865-5.581
			c-0.534-1.363-1.556-2.53-2.327-3.806c-2.02-3.345-6.61-6.376-10.693-2.79c-0.661,0.581-0.996,1.302-1.562,1.9
			c-2.875,3.042-2.869,10.305-0.082,13.312c2.077,2.24,2.252,4.042,0.669,6.522c-0.552,0.865-1.282,1.714-1.497,2.667
			c-0.201,0.893-0.637,2.194-1.155,1.936c-1.309-0.652-3.226,0.023-3.952-1.364c-0.603-1.15-1.329-2.095-2.306-2.79
			c-0.857-0.609-1.091-1.427-0.713-2.105c1.128-2.025,1.707-4.456,3.711-5.875c0.93-0.658,0.748-1.362,0.458-2.072
			c-0.958-2.342-1.938-4.685-3.448-6.741c-0.319-0.434-0.667-1.062-1.277-1.028c-3.756,0.206-7.924-1.739-11.019,2.079
			c-0.326,0.401-0.939,0.858-1.384,0.825c-2.306-0.171-3.158,1.773-4.295,3.049c-1.126,1.264-1.148,2.937,0.294,4.282
			c0.56,0.522,0.799,1.241,1.154,1.889c1.43,2.606,2.022,5.538,3.36,8.13c0.805,1.56,0.972,3.061,0.796,4.634
			c-0.366,3.27-2.031,4.369-4.135,2.86c-0.94-0.674-1.227-1.702-1.412-2.825c-0.29-1.761-1.271-3.242-3.063-3.51
			c-1.685-0.251-3.072-1.193-4.739-1.482c-1.591-0.275-2.062-2.025-1.192-3.431c0.364-0.588,0.759-1.173,1.229-1.676
			c2.008-2.151,2.419-4.608,1.919-7.468c-0.238-1.364-0.724-2.665-0.895-3.984c-0.315-2.43-1.293-4.649-1.775-7.009
			c-0.223-1.092-1.083-1.846-1.858-2.187c-2.314-1.017-4.836-1.425-7.32-1.913c-1.368-0.269-2.366,0.698-3.595,0.941
			c-3.714,0.736-6.902,2.919-8.01,6.42c-1.172,3.703-1.981,7.638-1.555,11.741c0.244,2.346,1.275,3.503,3.224,3.928
			c1.888,0.412,3.001,1.69,4.203,2.93c0.785,0.809,0.029,1.77-0.506,1.745c-2.853-0.135-4.918,1.688-7.335,2.625
			c-3.044,1.179-3.366,1.465-3.312,4.661c0.08,4.61-1.053,8.863-3.399,12.833c-0.695,1.176-1.292,2.462-1.64,3.776
			c-0.345,1.303-0.326,3.119,1.155,3.436c2.586,0.554,2.901,2.803,4.095,4.409c0.162,0.217,0.189,0.542,0.366,0.739
			c0.748,0.837,1.546,1.918,2.724,1.721c1.234-0.205,2.006-1.383,2.174-2.568c0.135-0.952,0.813-1.662,0.866-2.524
			c0.049-0.817,0.683-0.774,1.055-1.113c0.259,0.418,0.397,0.755,0.391,1.363c-0.04,4.296-0.908,8.497-1.502,12.709
			c-0.241,1.711,0.03,3.471-0.611,5.167c-1.286,3.405-2.24,6.924-3.816,10.236c-0.971,2.041-0.019,6.242,1.651,6.831
			c2.114,0.745,4.6,1.417,6.684,0.978c1.95-0.411,3.843-0.668,5.783-0.627c1.375,0.029,1.707-0.909,1.907-1.814
			c0.224-1.02,0.146-2.376-1.115-2.561c-2.337-0.343-2.067-1.823-1.81-3.377c0.168-1.02,0.51-2.011,0.657-3.032
			c0.207-1.444,0.919-2.864,0.562-4.332c-0.613-2.518-0.642-4.997,0.212-7.435c0.434-1.239,0.042-2.682,0.978-3.803
			c0.051-0.061-1.44-0.496-0.243-0.959c1.019-0.395,0.812,0.655,0.803,1.218c-0.03,1.777,0.464,3.514,1.114,5.051
			c1.348,3.188,1.83,6.323,1.135,9.73c-0.413,2.025-0.157,4.193,1.463,5.605c0.878,0.766,1.398,1.319,1.478,2.505
			c0.092,1.367,1.115,2.212,2.353,2.676c1.187,0.445,1.696-0.646,2.498-1.162c3.121-2.005,2.879-5.529,3.049-8.3
			c0.42-6.849,0.662-13.796-2.354-20.365c-1.565-3.408-0.822-7.405-2.187-10.925c-0.421-1.085-0.916-2.433,0.471-2.856
			c0.896-0.274,1.637,0.985,2.11,1.889c0.882,1.689,2.403,1.825,3.991,1.589c1.417-0.211,1.805-1.398,1.968-2.611
			c0.086-0.645,0.294-1.169,0.959-1.173c0.808-0.004,1.741-0.028,2.372,0.361c0.314,0.193,0.186,1.232-0.247,1.936
			c-0.601,0.978-1.127,2.094-1.318,3.214c-0.654,3.83-1.228,7.684-1.88,11.504c-0.751,4.394-1.97,8.729-2.819,13.129
			c-0.429,2.227,0.519,4.527,2.067,4.873c2.889,0.644,5.717,1.523,8.654,2.006c2.235,0.368,4.146-1.438,3.594-3.666
			c-0.249-1.005-0.528-2.012-0.666-3.034c-0.362-2.685-0.671-2.881-2.966-1.761c-0.2,0.098-0.515-0.042-0.869-0.083
			C66.152,127.964,66.229,122.789,67.352,117.768z M249.906,165.702c-0.167-0.052-0.655-0.113-0.665-0.22
			c-0.155-1.655-1.94-2.417-2.156-4.065c-0.123-0.942-0.862-1.723-1.784-1.811c-0.669-0.063-1.101,1.019-0.972,1.42
			c0.534,1.655-0.298,3.479,0.899,5.102c0.554,0.752,0.657,1.895,0.346,3.145c-0.412,1.65-0.729,3.623,1.104,5.049
			c0.712,0.553,1.238,1.468,0.543,2.592c-0.295,0.478-0.163,1.209,0.095,1.846c0.871,2.15,1.501,4.332,1.11,6.724
			c-0.307,1.876-1.296,2.664-2.877,1.788c-1.642-0.911-2.563,0.07-3.017,1.182c-0.982,2.411-1.924,4.95-0.934,7.608
			c0.427,1.146,0.094,2.174-0.237,3.15c-0.97,2.869,0.896,5.565,3.997,5.601c1.333,0.016,2.391-1.497,1.53-2.468
			c-1.035-1.167-0.484-1.984,0.149-2.758c1.494-1.825,2.548-3.881,3.527-5.995c0.114-0.247,0.336-0.454,0.535-0.651
			c0.656-0.647,1.122-0.865,1.737,0.204c1.474,2.557,1.204,5.552,0.457,7.803c-1.16,3.497-1.635,6.908-1.418,10.453
			c0.119,1.947-0.084,3.466-1.705,4.773c-0.812,0.655-1.715,2.194-0.157,2.714c2.576,0.859,1.801,2.929,2.216,4.58
			c0.167,0.665,0.282,1.438,0.266,2.051c-0.077,2.827,1.554,5.775-0.518,8.494c-0.341,0.447-0.393,1.321,0.106,1.556
			c2.39,1.123,1.222,3.455,1.803,5.167c0.252,0.741,0.376,1.632,0.662,2.377c0.416,1.086,1.122,1.71,2.573,1.162
			c2.73-1.029,3.623-1.962,3.649-4.746c0.007-0.742,0.192-1.396,0.534-1.985c0.351-0.604,0.61-1.302,0.191-1.78
			c-1.27-1.451-0.902-3.214-0.618-4.669c1.249-6.379,1.113-12.867,1.471-19.283c0.309-5.548,0.638-11.102,1.049-16.645
			c0.106-1.442-0.106-2.374-1.416-3.264c-1.264-0.858-2.057-2.403-1.913-3.981c0.212-2.333-0.459-3.438-2.823-3.593
			c-1.076-0.071-1.221-0.25-0.953-1.379c0.921-3.881,2.179-7.667,3.054-11.574c1.013-4.516,0.96-9.006,0.852-13.416
			c-0.13-5.283-2.377-10.3-4.594-15.104c-1.676-3.631-5.854-5.633-9.354-4.604c-2.01,0.59-3.222-0.011-4.421-1.342
			c-1.421-1.577-3.035-2.965-5.027-3.663c-1.138-0.398-2.306-1.648-3.503-0.969c-3.409,1.934-7.543,2.75-9.938,6.308
			c-0.768,1.141-1.185,2.468-2.14,3.519c-0.858,0.944-1.091,2.144-1.061,3.479c0.062,2.809-0.886,5.399-2.083,7.908
			c-0.357,0.749-1.229,1.426-1.615,0.972c-0.955-1.12-2.376-2.467-2.112-3.872c0.448-2.391-0.573-3.698-2.231-4.945
			c-0.438-0.328-0.666-0.934-1.015-1.295c-1.383-1.431-1.536-3.687-3.096-4.86c-2.516-1.893-4.688-4.307-7.815-5.331
			c-2.087-0.685-4.37-0.933-6.109,0.182c-1.552,0.994-2.953,2.242-4.698,2.976c-0.297,0.125-0.654,0.403-0.742,0.687
			c-1.002,3.215-2.487,6.386-2.552,9.749c-0.084,4.342-2.629,7.367-4.799,10.627c-0.457,0.686-1.278,0.812-2.286,0.014
			c-2.33-1.845-2.205-4.382-2.357-6.834c-0.083-1.34-0.268-2.53-1.348-3.374c-0.779-0.609-0.841-1.368-0.853-2.254
			c-0.016-1.22-0.797-2.052-1.832-2.502c-0.969-0.421-1.908-0.24-2.638,0.692c-0.573,0.731-1.365,1.177-2.315,1.308
			c-3.089,0.427-6.089,1.592-9.268,1.254c-3.852-0.408-7.329,0.029-9.616,3.683c-0.17,0.272-0.618,0.36-0.824,0.623
			c-0.735,0.936-1.605,1.651-0.989,3.24c0.658,1.697,1.413,3.521,1.007,5.484c-0.28,1.353-1.043,2.512-1.406,3.872
			c-0.511,1.917-0.35,3.964-1.341,5.798c-1.788,3.307-4.011,6.401-4.116,10.471c-0.058,2.249,0.133,3.317,2.33,4.007
			c2.209,0.692,4.537,0.538,6.808,0.794c0.986,0.11,1.817-0.115,2.511,1.082c1.458,2.518,1.628,9.074,0.294,11.716
			c-0.919,1.819-1.507,3.829-2.062,5.806c-0.705,2.512-1.675,4.872-3.137,7.036c-0.404,0.599-1.506,0.768-0.87,2.031
			c0.569,1.131,1.362,1.125,2.253,1.017c1.392-0.169,1.816,0.316,1.762,1.729c-0.116,3.019,0.123,5.777,3.07,7.864
			c1.637,1.16,2.474,3.442,3.688,5.207c0.653,0.949,1.498,1.646,2.729,1.441c1.07-0.177,2.006-0.808,2.288-1.829
			c0.767-2.787,1.01-5.519,0.042-8.446c-0.608-1.839-1.271-3.824-1.175-5.891c0.227-4.889,1.897-9.486,2.883-14.219
			c0.669-3.212,0.559-6.193-1.196-8.977c-1.07-1.696-1.455-3.609-1.62-5.475c-0.374-4.212-2.848-7.701-6.762-8.946
			c-2.07-0.659-2.481-1.497-2.004-3.579c0.678-2.962,1.267-5.944,1.855-8.926c0.092-0.461,0.106-0.827,0.711-0.784
			c0.461,0.033,0.539,0.287,0.597,0.688c0.088,0.608,0.263,1.205,0.427,1.8c0.277,1.007,1.178,1.623,1.981,1.576
			c0.605-0.035,0.942-1.112,0.989-1.907c0.042-0.71-0.162-1.486,0.06-2.122c0.462-1.322-0.416-1.939-1.163-2.608
			c-0.835-0.745-1.823-0.55-2.757-0.164c-0.388,0.16-0.695,1.012-1.151,0.33c-0.446-0.667,0.273-1.565,0.677-1.514
			c2.729,0.354,3.489-2.063,5.002-3.385c0.443-0.387,0.882-0.358,1.368-0.396c0.479-0.038,0.938,0.048,1.43-0.227
			c2.83-1.574,3.933-1.301,5.569,1.367c0.673,1.097,0.98,2.022-0.486,3.021c-2.221,1.512-2.152,4.23-0.041,5.762
			c0.795,0.577,1.347,1.277,1.517,2.074c0.475,2.231,1.254,4.579,0.962,6.753c-0.455,3.383-1.003,6.982-4.152,9.266
			c-0.962,0.697-1.271,1.836-0.645,2.59c0.946,1.138,0.68,2.047,0.077,3.042c-0.289,0.478-0.42,1.011-0.229,1.415
			c1.47,3.112,0.469,6.418,0.84,9.605c0.229,1.973,0.637,3.941,1.163,5.858c0.742,2.707,3.417,2.813,5.418,3.904
			c1.974,1.075,2.958,0.361,4.123-1.124c1.373-1.751,0.99-3.219-0.349-4.652c-0.77-0.824-1.496-1.614-1.919-2.72
			c-0.858-2.238-0.535-2.806,1.861-2.771c0.382,0.005,0.67-0.105,0.951-0.365c1.177-1.092,1.896-0.331,2.102,0.763
			c0.465,2.48,0.852,5.101-0.156,7.452c-0.713,1.666-1.05,3.348-0.712,4.928c0.395,1.848,0.248,3.644,0.29,5.457
			c0.109,4.668-0.259,9.357,0.474,13.996c0.286,1.809,0.183,3.926,2.039,5.029c1.11,0.66,1.757,1.473,2.122,2.654
			c0.479,1.554,1.74,1.477,2.666,0.774c0.878-0.666,1.765-1.622,1.692-2.96c-0.171-3.142,0.502-6.343-0.778-9.417
			c-0.19-0.459-0.583-1.462,0.432-1.793c2.121-0.689,2.613-2.22,2.522-4.267c-0.06-1.357-0.335-2.595-0.871-3.823
			c-0.498-1.141-1.256-2.456-0.763-3.57c0.64-1.447,0.135-2.44-0.585-3.458c-0.46-0.648-0.648-1.304-0.874-2.051
			c-0.743-2.459-0.66-5.077-1.628-7.484c-0.623-1.55-0.89-3.186-0.898-4.893c-0.017-3.345-1.563-5.667-4.793-6.124
			c-2.36-0.335-3.729-1.357-4.817-3.237c-0.231-0.4-0.607-0.528-0.181-1.146c1.767-2.554,3.421-5.187,5.113-7.793
			c0.49-0.756,0.954-0.827,1.298,0.083c0.705,1.863,2.304,2.437,4.011,2.958c0.948,0.29,1.826,0.921,2.261,1.805
			c1.015,2.062,2.541,2.364,4.539,1.684c0.516-0.176,1.116-0.162,1.673-0.138c0.424,0.019,1.064-0.294,1.164,0.506
			c0.073,0.587,0.057,1.372-0.551,1.459c-2.132,0.302-2.411,2.111-3.042,3.576c-0.762,1.768-1.385,3.562-2.54,5.167
			c-0.648,0.901-0.9,2.166-1.08,3.307c-0.218,1.386,0.422,2.501,1.814,2.919c1.355,0.407,1.94-0.523,2.444-1.603
			c0.556-1.192,1.256-2.336,1.247-3.694c-0.008-1.178,0.621-1.475,1.63-1.397c1.655,0.126,2.55-0.767,3.123-2.217
			c0.817-2.066,0.163-4.202,0.393-6.291c0.265-2.393-1.836-4.116-1.776-6.494c0.023-0.899-1.227-1.312-1.865-1.496
			c-1.799-0.517-2.633-1.839-3.508-3.238c-1.035-1.655-0.666-2.358,1.273-2.508c0.538-0.041,1.304,0.44,1.595-0.503
			c0.256-0.83,0.349-1.684-0.427-2.229c-1.298-0.914-1.335-2.181-1.301-3.562c0.02-0.82,0.142-1.636-0.307-2.484
			c-0.333-0.63-0.351-1.493,0.967-1.508c0.958-0.011,1.608-0.861,1.896-1.743c0.501-1.533,1.275-1.898,2.85-1.315
			c1.671,0.619,2.647-0.398,3.219-2.112c0.785-2.353-0.46-3.666-1.726-5.34c-1.347-1.782-2.37-2.727-4.369-0.99
			c-0.839,0.729-1.475,0.478-1.668-0.753c-0.322-2.046,0.536-3.843,1.175-5.651c0.268-0.759,1.223-1.416,2.028-0.399
			c1.742,2.2,4.535,3.283,5.112,6.782c0.705,4.272,2.417,8.397,2.771,12.792c0.099,1.229,0.286,2.462-1.673,2.719
			c-1.487,0.196-1.689,2.23-0.621,3.438c1.234,1.395,2.308,2.753,1.539,4.981c-1.183,3.433-0.879,6.639,2.771,8.65
			c0.178,0.099,0.344,0.278,0.438,0.46c1.232,2.361,4.074,2.628,5.861,4.424c0.832,0.837,1.744,1.32,2.011,2.62
			c0.284,1.385,0.322,2.771,0.441,4.164c0.12,1.402,0.245,2.859,2.198,3.314c1.34,0.312,3.091,5.295,2.235,6.251
			c-1.527,1.706-1.413,3.711-1.465,5.694c-0.067,2.607,0.183,5.209,0.334,7.812c0.264,4.543,0.079,9.112,0.067,13.67
			c-0.002,0.914,0.318,1.852-1.185,2.203c-0.867,0.203-0.849,1.754-0.278,2.17c1.066,0.779,2.221,2.178,3.86,0.92
			c0.63-0.482,1.247-0.472,1.95-0.073c2.097,1.189,3.211,0.527,3.359-1.899c0.073-1.19-0.137-2.37,0.216-3.581
			c1.26-4.335,1.597-8.846,2.262-13.287c0.232-1.55,0.687-3.217,0.378-4.765c-0.632-3.171-1.55-6.284-2.345-9.423
			c-0.782-3.09-1.595-6.356,0.902-8.907c1.448-1.48,1.861-2.959,2.199-4.851c0.724-4.054,1.884-8.031,1.518-12.219
			c-0.062-0.704-0.188-1.511,0.075-2.112c0.844-1.931,0.242-3.581-0.841-5.104c-0.479-0.676-0.482-1.089-0.216-1.872
			c1.451-4.251,1.325-8.278-2.146-11.653c-0.459-0.446-1.097-0.952-0.59-1.6c0.534-0.682,1.396-0.534,1.946,0.016
			c1.288,1.288,1.956,0.426,2.612-0.631c1.019-1.641,0.081-2.782-1.044-3.818c-1.676-1.542-1.467-3.982,0.558-5.134
			c0.794-0.452,1.602-0.836,2.209-1.544c1.097-1.277,2.06-1.202,3.629-0.367c2.285,1.218,3.74,3.92,6.857,3.767
			c0.817-0.04,0.638,1.402,1.009,2.125c0.169,0.329-0.158,0.513-0.521,0.712c-1.475,0.807-1.556,2-0.022,2.883
			c0.96,0.554,1.71,1.307,1.752,2.17c0.068,1.4,0.757,1.485,1.743,1.319c0.968-0.164,1.803,0.364,1.623,1.113
			C249.244,159.733,250.822,162.62,249.906,165.702z M287.921,82.686c1.824,2.472,0.872,5.392,1.827,7.976
			c0.919,2.486,1,3.051,3.838,3.025c1.33-0.012,2.484-0.009,2.269,1.844c-0.075,0.647,0.299,1.085,0.971,1.148
			c0.902,0.085,0.809-0.79,1.126-1.253c0.322-0.47-0.533-0.901-0.013-1.514c1.819-2.14,1.491-4.867,1.696-7.375
			c0.312-3.82-0.381-7.667,0.037-11.506c0.06-0.551,0.047-1.161-0.127-1.678c-0.942-2.805-0.906-5.628-0.184-8.449
			c0.123-0.481,0.269-0.799,0.042-1.327c-0.192-0.449-0.619-1.295,0.453-1.486c0.768-0.137,1.011,0.185,1.218,0.975
			c0.344,1.317,1.369,2.301,2.78,1.93c1.123-0.295,2.204-0.345,3.316-0.345c1.088-0.001,1.46-0.663,1.966-1.531
			c1.247-2.139,0.291-4.131-0.042-6.192c-0.497-3.086-0.664-6.258-1.485-9.252c-1.02-3.719-4.19-6.129-6.521-9.017
			c-1.734-2.148-4.961-3.526-2.697-7.125c0.064-0.103-0.018-0.287,0.018-0.421c0.707-2.725,1.256-5.506,2.198-8.147
			c0.561-1.57,1.633-2.95,2.039-4.645c0.422-1.761-0.24-3.458-2.005-3.551c-1.869-0.098-2.132-1.246-2.689-2.512
			c-1.48-3.366-6.266-7.16-10.09-4.42c-2.927,2.098-5.728,4.351-6.224,8.511c-0.296,2.483-0.115,5.17-1.55,7.46
			c-2.335,3.729-1.796,8.705,1.832,13.013c0.401,0.477,1.057,0.851,0.252,1.532c-1.559,1.319-3.196,2.558-4.333,4.309
			c-0.269,0.415-1.166,0.607-0.969,0.114c0.727-1.816-0.669-3.436-0.009-5.331c1.135-3.252-0.582-6.103-3.745-7.476
			c-0.77-0.334-1.516-0.869-0.993-2.152c0.571-1.405,0.514-3.006,0.715-4.521c0.261-1.961,0.119-3.949,0.479-5.871
			c0.512-2.731-0.636-5.391-2.649-7.104c-3.15-2.681-10.181-0.663-12.875,2.811c-2.221,2.862-4.092,5.915-6.049,8.938
			c-1.653,2.555-1.426,5.496,1.231,6.96c1.374,0.756,1.583,1.617,1.387,2.793c-0.352,2.104-1.379,4.054-1.461,6.247
			c-0.013,0.321-0.583,0.995-1.216,0.878c-1.129-1.22,0.782-1.68,0.575-2.709c-0.629-3.121-1.003-6.311-1.882-9.356
			c-0.514-1.779-2.023-3.292-0.732-5.307c0.115-0.18,0.049-0.619-0.1-0.799c-1.013-1.227-1.079-2.812-1.664-4.193
			c-1.03-2.43-2.722-3.927-5.454-4.629c-1.562-0.402-3.128-0.229-4.651-0.694c-1.585-0.484-3.204-0.535-4.903-0.076
			c-3.772,1.019-5.948,5.52-4.419,9.033c0.443,1.02,0.793,2.176,0.515,3.585c-0.42,2.13-1.689,3.571-2.806,5.209
			c-0.867,1.273-1.684,2.708-1.102,4.261c0.538,1.436,2.011,0.994,3.177,1.025c1.42,0.038,1.743,1.069,1.537,2.093
			c-0.157,0.784-0.241,1.559-0.147,2.294c0.386,3.023-0.769,5.62-2.121,8.162c-1.086,2.04-2.396,3.971-3.346,6.068
			c-0.611,1.35-1.515,2.678-1.397,4.289c0.2,2.769-0.187,5.383-1.474,7.916c-0.545,1.071-0.682,2.497,0.529,3.486
			c1.287,1.051,2.369,0.567,3.792-0.073c2.73-1.227,3.972-4.036,6.589-5.57c0.872,2.939,1.6,5.81,1.716,8.788
			c0.116,2.949-1.477,5.554-1.865,8.429c-0.189,1.399,0.691,2.833,0.046,4.033c-1.089,2.025-0.668,4.12-0.791,6.2
			c-0.074,1.252,0.037,2.48-0.342,3.757c-0.429,1.448,0.006,2.561,1.863,3.134c1.293,0.398,2.732-0.4,3.833,0.689
			c0.954,0.943,2.21,0.43,2.61-0.226c1.092-1.787,2.679-1.484,4.25-1.498c2.466-0.021,3.8-0.857,4.423-3.285
			c0.836-3.252,1.991-6.515,0.902-9.964c-0.102-0.323-0.152-0.809,0.017-1.047c1.453-2.066,0.608-4.54,1.252-6.74
			c0.479-1.637,0.665-3.226,0.055-4.926c-0.798-2.225-0.796-4.548,0.077-6.77c0.589-1.5,1.118-3.082,1.069-4.612
			c-0.072-2.274,0.982-2.227,2.7-1.772c-0.646,0.978-0.399,2.04-0.496,3.066c-0.196,2.085-0.387,4.174-0.708,6.242
			c-0.563,3.625-1.04,7.279-1.909,10.834c-0.594,2.43,0.058,4.908-0.754,7.298c-0.512,1.508,0.81,4.988,2.889,5.753
			c1.641,0.603,3.445,0.823,5.162,1.11c1.355,0.227,2.729-0.667,2.595-2.534c-0.167-2.315,0.256-4.634-0.347-6.968
			c-0.273-1.061-0.529-2.458,0.34-3.473c0.983-1.148,0.88-2.453,0.865-3.783c-0.011-0.997-0.022-1.994,0.009-2.99
			c0.014-0.439-0.217-1.072,0.615-1.074c0.799-0.002,0.658,0.591,0.648,1.055c-0.038,1.994,0.743,3.79,1.405,5.595
			c1.193,3.249,2.505,6.455,3.759,9.682c0.585,1.503,2.938,3.117,4.222,2.878c2.123-0.396,4.01-2.095,4.043-3.828
			c0.037-1.916,0.53-3.844-0.226-5.751c1.371-0.027,1.216,0.802,1.371,1.63c0.454,2.426,0.479,4.968,1.584,7.233
			c0.521,1.069,0.933,2.059,1.021,3.308c0.094,1.336,0.615,3.146,2.093,3.273c1.572,0.134,3.191-0.762,3.692-2.604
			c0.546-2.007,1.314-3.979,0.99-6.147C286.654,85.454,287.151,84.072,287.921,82.686z M52.177,169.342
			c-2.892,0.009-6.464,3.452-7.212,6.39c-0.73,2.869-0.671,5.827-0.268,8.624c0.31,2.141,0.116,4.616,1.862,6.464
			c2.228,2.357,2.021,4.94-0.422,7.096c-0.303,0.268-0.498,0.659-0.735,0.998c-1.377,1.978-2.673,4.122-4.245,5.821
			c-1.366,1.477-2.082,2.939-2.598,4.707c-0.846,2.895-0.658,5.939-1.296,8.858c-0.252,1.155-1.018,2.448,0.339,3.217
			c1.981,1.123,1.854,2.837,1.851,4.676c-0.002,1.961-0.109,3.913,0.296,5.898c0.189,0.929,0.727,1.909,0.378,3.03
			c-0.53,1.706,0.226,3.415,0.374,5.123c0.073,0.844,0.719,1.476,1.809,1.335c1.522-0.196,2.295,0.093,1.54,1.954
			c-0.374,0.92-0.74,2.537,0.524,3.051c1.711,0.695,3.251,2.229,5.392,1.562c0.615-0.192,1.02-0.694,1.034-1.152
			c0.099-3.138,2.063-5.218,3.927-7.409c0.787-0.926,1.828-0.924,2.133-0.144c0.916,2.34,3.814,2.554,4.763,4.803
			c0.223,0.527,0.991,0.797,1.451,1.349c0.618,0.742,1.84,1.102,2.87,0.407c0.857-0.578,0.979-1.332,0.6-2.396
			c-1.284-3.599-1.726-7.392-2.443-11.125c-0.182-0.948,0.332-2.309-1.105-3.098c-2.558-1.404-2.57-2.749-1.719-5.673
			c0.549-1.888,0.372-3.473-0.584-5.146c-0.914-1.599-1.027-3.445-1.178-5.252c-0.041-0.485,0.073-0.813,0.67-0.809
			c1.743,0.015,3.56-0.476,5.075,0.896c0.406,0.367,0.938,0.593,1.365,0.94c1.916,1.564,5.073,0.759,5.637-1.606
			c0.223-0.936,0.49-1.042,1.306-1.11c2.256-0.189,2.525,1.43,2.571,2.934c0.11,3.61,0.199,7.075-2.186,10.399
			c-2.31,3.22-2.218,7.457-2.985,11.311c-0.351,1.765-0.367,3.107,1.219,4.059c1.572,0.942,2.561-0.46,3.615-1.186
			c2.071-1.426,2.116-4.057,3.313-6.021c0.227-0.37-0.016-1.046,0.778-0.947c0.567,0.07,0.841,0.402,0.983,0.943
			c0.7,2.66,1.452,5.308,2.131,7.974c0.561,2.2,1.621,3.175,3.281,2.563c1.795-0.661,0.997-2.21,0.742-3.413
			c-0.558-2.627-1.578-5.199-1.801-7.845c-0.376-4.473-0.958-8.963-0.515-13.479c0.062-0.629,0.081-1.311-0.097-1.902
			c-0.475-1.574-0.128-3.174,0.746-4.262c0.805-1.001,2.007,0.197,2.991,0.61c0.572,0.239,1.114,0.562,1.702,0.745
			c1.031,0.32,2.073,0.208,2.595-0.815c0.532-1.043,0.322-2.126-0.771-2.756c-0.559-0.322-1.326-0.601-1.43-1.153
			c-0.585-3.106-3.743-4.843-4.098-8.12c-0.248-2.285-1.271-4.958,0.389-6.595c2.609-2.573,3.016-5.805,3.927-8.929
			c0.292-1.002,0.612-2.009,0.277-3.249c-0.814-3.014-2.878-5.318-4.177-8.049c-0.902-1.896-3.952-1.791-5.437-0.247
			c-0.709,0.737-1.556,1.299-2.618,1.587c-2.11,0.572-3.751,1.811-5.157,3.555c-2.866,3.558-1.291,9.981,0.983,12.536
			c1.047,1.176,2.763,2.677,2.318,3.946c-0.746,2.127-1.376,4.61-3.578,5.987c-0.983,0.615-1.96,1.172-2.64,2.237
			c-0.297,0.465-1.053,1.221-2.079-0.015c-0.808-0.973-1.298-2.225-2.4-3.015c-2.034-1.457-3.898-3.184-6.406-3.816
			c-1.23-0.311-1.418-0.813-1.194-2.135c0.232-1.365,1.875-1.631,1.796-2.968c-0.075-1.245,0.474-2.19,1.363-2.932
			c0.684-0.57,0.868-1.23,0.79-2.057c-0.152-1.603-0.432-3.211-0.391-4.811c0.102-3.98,0.69-8.092-4.1-10.058
			c-0.099-0.04-0.141-0.216-0.21-0.328C56.393,169.657,54.036,169.614,52.177,169.342z M379.166,148.551
			c0-1.392,0.105-2.614-0.035-3.809c-0.103-0.867-0.51-1.703-0.818-2.539c-1.1-2.983-4.313-4.412-6.244-2.681
			c-1.258,1.128-2.724,1.912-4.051,2.91c-3.525,2.653-6.288,5.775-5.484,10.613c0.617,3.72,0.843,7.571,3.191,10.818
			c0.604,0.833,1.254,1.951,0.591,3.003c-1.802,2.853-3.37,5.828-6.014,8.148c-1.448,1.271-1.587,0.499-2.058-0.489
			c-1.262-2.651-1.287-5.747-2.967-8.26c-0.152-0.227-0.09-0.779,0.089-1.018c3.077-4.097,1.931-8.14,0.06-12.288
			c-0.547-1.211-1.429-2.475-0.679-4.102c0.39-0.844-0.127-1.777-1.152-2.371c-1.311-0.76-2.138-1.93-2.786-3.416
			c-1.066-2.446-2.408-4.778-5.384-5.619c-2.328-0.657-3.381-0.202-4.831,1.757c-1.964,2.656-2.182,5.831-2.736,8.784
			c-0.62,3.298-0.988,6.498-3.143,9.256c-1.088,1.394,0.326,4.115,2.051,4.251c2.976,0.233,4.035,2.247,3.265,5.034
			c-0.597,2.155-2.495,3.136-3.398,4.935c-1.397,2.784-3.032,5.431-4.894,7.936c-1.6,2.153-1.484,4.132,0.307,6.138
			c0.985,1.104,0.725,3.008-0.571,4.377c-0.55,0.58-1.429,1.002-0.803,2.114c0.605,1.077,1.41,2.434,2.514,2.243
			c2.564-0.443,6.062,1.082,7.243-2.989c0.205-0.708,0.87-1.353,1.187-2.144c0.258-0.646,0.871-1.305,1.729-0.716
			c1.531,1.054,2.901,0.435,4.288-0.292c1.045-0.547,2.066-1.149,3.146-1.616c1.405-0.606,2.892-1.183,4.431-0.887
			c1.245,0.239,0.956,1.736,1.568,2.49c0.942,1.159,1.953,2.622,3.703,0.876c0.841-0.838,1.912-1.566,3.068-1.66
			c3.573-0.289,7.181-0.173,10.752-0.191c2.093-0.011,3.993-0.061,5.271-1.464c1.279-1.407,2.599-2.811,3.794-4.301
			c0.281-0.351,0.184-1.136,0.049-1.667c-0.396-1.551-0.499-3.163-0.882-4.692c-0.622-2.482-1.506-4.911-4.061-6.211
			c-1.52-0.774-3.261-4.075-2.652-5.612c0.867-2.188,1.19-4.527,1.988-6.663C378.815,153.834,379.266,151.186,379.166,148.551z
			 M322.746,151.877c0.282-3.869-0.723-7.335-4.311-9.767c-2.016-1.366-4.565-2.6-6.509-2.029c-2.477,0.729-5.074,0.111-7.477,1.408
			c-3.023,1.633-5.755,3.312-5.592,7.41c0.107,2.694,0.523,5.439-0.517,7.979c-0.637,1.554-0.842,3.05-0.793,4.655
			c0.077,2.572,1.163,3.347,3.475,2.206c1.79-0.884,2.205,0.378,2.443,1.466c0.208,0.947,0.221,1.979-0.574,2.981
			c-0.976,1.232-1.701,2.733-0.216,4.286c1.015,1.062,0.209,2.153-0.709,2.293c-1.965,0.3-2.838,1.637-3.719,3.057
			c-2.354,3.793-3.792,8.089-6.479,11.721c-0.536,0.725-0.615,2.127,0.174,2.982c2.91,3.152,5.438,5.049,10.084,3.853
			c0.84-0.217,1.683-0.128,2.621,0.277c1.99,0.86,4.114,2.325,6.271,0.182c0.249-0.248,0.85-0.492,1.074-0.364
			c3.08,1.754,4.376-0.321,5.69-2.526c0.511-0.858,1.226-0.877,2.094-0.291c2.799,1.887,6.425,0.82,7.215-2.188
			c0.473-1.799,0.699-3.677,0.873-5.535c0.204-2.179-0.455-4.055-2.046-5.7c-1.307-1.351-2.845-2.604-2.87-4.871
			c-0.012-1.107-1.188-1.56-2.292-1.759c-0.863-0.156-2.183-0.198-2.457-0.727c-0.697-1.347-2.698-2.805-2.118-3.825
			c1.211-2.13,1.194-4.508,2.16-6.614c0.083-0.18,0.162-0.396,0.309-0.508C321.813,159.431,322.994,156.052,322.746,151.877z
			 M103.946,223.74c-0.057-2.385,0.911-4.157,1.127-6.097c0.158-1.416,1.139-1.707,2.212-0.689c0.495,0.47,1.04,0.645,1.655,0.802
			c1.566,0.404,2.768-0.632,2.136-2.072c-1.132-2.581-1.581-5.403-2.736-7.923c-2.434-5.312-2.085-10.048,2.066-14.305
			c0.554-0.568,0.535-1.273,0.349-1.778c-0.835-2.271,0.124-4.724-0.502-6.844c-0.882-2.99-1.367-6.179-3.007-8.901
			c-1.116-1.854-3.409-2.606-5.085-1.494c-2.31,1.532-4.12,3.657-5.497,6.104c-0.393,0.699-0.278,1.339-0.178,2.139
			c0.412,3.312,0.76,6.785-0.029,9.958c-0.887,3.568,0.325,6.585,1.061,9.797c0.074,0.323,0.266,0.653,0.49,0.902
			c2.042,2.274,1.504,4.887-1.266,6.192c-1.211,0.571-1.897,1.569-2.197,2.878c-0.183,0.798-0.548,1.556-0.709,2.356
			c-0.11,0.546-1.045,1.078-0.246,1.639c0.674,0.474,1.339,1.14,2.322,0.942c0.973-0.195,1.891-0.502,2.562-1.281
			c0.566-0.656,1.17-0.401,1.146,0.243c-0.08,2.105,0.683,4.305-1.118,6.232c-1.189,1.272-2.293,2.712-2.699,4.591
			c-0.769,3.561-0.964,7.171-1.204,10.775c-0.088,1.338-0.071,3.026,1.682,3.379c1.471,0.296,1.691-1.187,2.26-2.157
			c0.329-0.562,0.251-1.08,0.282-1.626c0.084-1.467,0.572-2.878,0.497-4.382c-0.022-0.455,0.139-1.328,0.982-1.365
			c0.985-0.043,0.517,0.78,0.683,1.233c0.406,1.106,0.66,2.234,0.898,3.395c0.496,2.412,1.35,4.75,2.042,7.123
			c0.403,1.384,1.44,1.726,2.646,1.426c1.14-0.283,0.952-1.414,0.765-2.153c-0.852-3.366-1.343-6.791-1.896-10.209
			C104.945,229.492,104.402,226.42,103.946,223.74z M196.715,198.515c-0.894,2.199,1.684,3.107,1.732,4.991
			c0.075,2.951,1.4,5.423,3.346,7.597c0.619,0.691,1.403,1.524,2.167,0.66c0.989-1.119,2.134-2.831,1.57-4.096
			c-1.647-3.697,0.514-7.125,0.295-10.693c-0.082-1.328,0.765-2.727-0.548-3.852c-0.565-0.483-5.981-0.785-6.479-0.483
			C196.481,194.045,197.218,196.525,196.715,198.515z M167.006,220.456c-0.521-1.965-0.992-3.741-1.246-5.604
			c-0.107-0.789-1.193-1.628-2.279-1.321c-1.133,0.32-0.946,1.174-0.539,2.066c0.795,1.743,0.771,3.789,1.901,5.399
			c0.274,0.391,0.6,1.115,1.312,0.812C166.784,221.542,166.867,220.848,167.006,220.456z M167.853,172.288
			c-1.167,0.145-1.922,0.609-1.904,1.718c0.017,1.012,0.607,1.941,1.545,2.119c1.445,0.273,1.309-1.106,1.513-1.968
			C169.25,173.135,168.421,172.75,167.853,172.288z M169.68,208.907c-0.956,0.505-1.658,0.875-2.53,1.336
			C168.332,210.412,169.348,210.706,169.68,208.907z M201.379,234.719c-0.139-0.424-0.367-0.764-0.826-0.807
			c-0.507-0.046-0.392,0.467-0.561,0.72c-0.384,0.575,0.13,0.518,0.417,0.506C200.767,235.125,201.275,235.35,201.379,234.719z
			 M266.229,154.612c0.793-0.458,1.389,0.143,1.787-0.557c0.045-0.079-0.023-0.312-0.106-0.36
			C267.316,153.344,266.859,153.528,266.229,154.612z"/>
		<path style="fill-rule:evenodd;clip-rule:evenodd;fill:#7B491E;" d="M67.352,117.768c-1.124,5.021-1.2,10.196-3.11,15.133
			c0.354,0.041,0.669,0.181,0.869,0.083c2.294-1.12,2.604-0.924,2.966,1.761c0.138,1.022,0.417,2.029,0.666,3.034
			c0.552,2.229-1.359,4.034-3.594,3.666c-2.937-0.482-5.765-1.362-8.654-2.006c-1.549-0.346-2.497-2.646-2.067-4.873
			c0.849-4.4,2.068-8.735,2.819-13.129c0.652-3.82,1.226-7.675,1.88-11.504c0.191-1.12,0.718-2.236,1.318-3.214
			c0.432-0.704,0.561-1.743,0.247-1.936c-0.63-0.389-1.564-0.365-2.372-0.361c-0.666,0.004-0.873,0.528-0.959,1.173
			c-0.163,1.213-0.551,2.4-1.968,2.611c-1.588,0.236-3.108,0.1-3.991-1.589c-0.473-0.904-1.213-2.164-2.11-1.889
			c-1.387,0.423-0.892,1.771-0.471,2.856c1.365,3.521,0.622,7.518,2.187,10.925c3.016,6.569,2.773,13.516,2.354,20.365
			c-0.17,2.771,0.072,6.295-3.049,8.3c-0.802,0.516-1.311,1.607-2.498,1.162c-1.238-0.464-2.261-1.309-2.353-2.676
			c-0.08-1.186-0.6-1.739-1.478-2.505c-1.621-1.412-1.876-3.58-1.463-5.605c0.694-3.407,0.212-6.542-1.135-9.73
			c-0.65-1.537-1.145-3.274-1.114-5.051c0.01-0.562,0.216-1.613-0.803-1.218c-1.197,0.464,0.294,0.899,0.243,0.959
			c-0.936,1.121-0.544,2.564-0.978,3.803c-0.854,2.438-0.826,4.917-0.212,7.435c0.358,1.468-0.354,2.888-0.562,4.332
			c-0.147,1.021-0.488,2.013-0.657,3.032c-0.257,1.554-0.527,3.034,1.81,3.377c1.261,0.185,1.339,1.541,1.115,2.561
			c-0.2,0.905-0.532,1.844-1.907,1.814c-1.94-0.041-3.833,0.216-5.783,0.627c-2.084,0.439-4.57-0.232-6.684-0.978
			c-1.669-0.589-2.622-4.79-1.651-6.831c1.576-3.312,2.53-6.831,3.816-10.236c0.641-1.696,0.37-3.456,0.611-5.167
			c0.594-4.213,1.462-8.413,1.502-12.709c0.006-0.608-0.132-0.945-0.391-1.363c-0.372,0.339-1.005,0.296-1.055,1.113
			c-0.052,0.863-0.73,1.573-0.866,2.524c-0.168,1.186-0.94,2.363-2.174,2.568c-1.178,0.197-1.977-0.884-2.724-1.721
			c-0.176-0.197-0.204-0.522-0.366-0.739c-1.194-1.605-1.509-3.854-4.095-4.409c-1.481-0.317-1.5-2.133-1.155-3.436
			c0.348-1.313,0.945-2.6,1.64-3.776c2.346-3.97,3.479-8.223,3.399-12.833c-0.055-3.196,0.267-3.481,3.312-4.661
			c2.417-0.937,4.483-2.759,7.335-2.625c0.535,0.025,1.291-0.936,0.506-1.745c-1.202-1.239-2.314-2.518-4.203-2.93
			c-1.948-0.425-2.979-1.582-3.224-3.928c-0.426-4.103,0.382-8.038,1.555-11.741c1.108-3.5,4.296-5.684,8.01-6.42
			c1.229-0.244,2.228-1.21,3.595-0.941c2.484,0.488,5.006,0.896,7.32,1.913c0.776,0.341,1.636,1.095,1.858,2.187
			c0.482,2.359,1.46,4.579,1.775,7.009c0.171,1.319,0.657,2.62,0.895,3.984c0.5,2.86,0.089,5.317-1.919,7.468
			c-0.47,0.503-0.866,1.087-1.229,1.676c-0.87,1.406-0.399,3.156,1.192,3.431c1.667,0.289,3.054,1.231,4.739,1.482
			c1.792,0.268,2.773,1.75,3.063,3.51c0.185,1.123,0.471,2.15,1.412,2.825c2.104,1.509,3.769,0.41,4.135-2.86
			c0.176-1.573,0.009-3.075-0.796-4.634c-1.338-2.592-1.93-5.523-3.36-8.13c-0.355-0.648-0.594-1.367-1.154-1.889
			c-1.442-1.345-1.42-3.018-0.294-4.282c1.138-1.276,1.989-3.22,4.295-3.049c0.445,0.033,1.059-0.423,1.384-0.825
			c3.095-3.818,7.262-1.873,11.019-2.079c0.61-0.033,0.958,0.595,1.277,1.028c1.51,2.057,2.491,4.399,3.448,6.741
			c0.29,0.709,0.472,1.414-0.458,2.072c-2.005,1.418-2.583,3.85-3.711,5.875c-0.378,0.678-0.144,1.497,0.713,2.105
			c0.977,0.694,1.704,1.64,2.306,2.79c0.727,1.387,2.644,0.711,3.952,1.364c0.518,0.258,0.954-1.043,1.155-1.936
			c0.215-0.954,0.945-1.803,1.497-2.667c1.583-2.48,1.408-4.282-0.669-6.522c-2.788-3.007-2.793-10.27,0.082-13.312
			c0.565-0.598,0.901-1.319,1.562-1.9c4.083-3.586,8.674-0.555,10.693,2.79c0.771,1.275,1.793,2.443,2.327,3.806
			c0.681,1.741,2.118,3.334,0.865,5.581c-0.996,1.787,1.062,2.568,2.044,3.472c0.909,0.836,2.179,0.484,3.165-0.289
			c1.712-1.343,4.479-1.148,5.5,0.614c0.708,1.222,1.64,2.43,1.499,4.035c-0.13,1.478,1.01,2.634,1.554,3.804
			c1.313,2.821,1.645,5.759,2.379,8.669c0.816,3.234,1.486,6.445,1.752,9.757c0.191,2.383,0.892,4.726,0.252,7.171
			c-0.246,0.944,0.067,2.021,0.014,3.032c-0.09,1.721-1.39,2.471-2.659,1.364c-1.119-0.977-2.849-1.541-2.983-3.471
			c-0.025-0.358-0.661-0.949-1.008-0.944c-0.488,0.007-0.543,0.636-0.62,1.153c-0.577,3.92-0.387,7.806-0.07,11.755
			c0.385,4.8-1.621,8.891-5.478,11.825c-2.124,1.616-4.758-0.037-5.174-2.688c-0.499-3.182-0.44-6.354-0.315-9.518
			c0.101-2.56,1.281-5.037,0.656-7.808c-1.521,2.392-1.523,5.115-1.971,7.697c-0.439,2.532-0.727,5.088-0.943,7.658
			c-0.121,1.431-1.438,2.5-2.499,3.334c-1.232,0.967-2.389,1.996-3.392,3.154c-1.072,1.236-2.473,1.387-3.629,0.861
			c-1.117-0.508-1.988-1.521-2.013-3.169c-0.052-3.396,1.076-6.603,1.284-9.923c0.268-4.275,0.926-8.512,0.979-12.816
			c0.043-3.51,0.556-6.994,1.872-10.366c0.829-2.125,0.129-4.419-0.756-6.521c-0.172-0.41-0.527-0.663-1.018-0.623
			c-0.571,0.045-0.862,0.377-1.01,0.913c-0.548,1.988-1.277,4.004-1.551,5.968c-0.276,1.98,0.762,4.12,1.06,6.214
			c0.196,1.379,1.394,2.807-0.214,4.218c-0.638,0.559,0.817,0.573,0.748,1.41c-0.189,2.297-0.445,4.542-1.935,6.398
			c-0.419,0.522-0.585,1.067-0.816,1.647c-0.867,2.171-1.909,2.549-4.034,1.442c-0.126,1.228-0.348,2.402,0.351,3.468
			c0.424,0.647,0.444,1.327,0.394,2.023c-0.237,3.326,0.428,6.53,1.246,9.722c0.395,1.538-1.35,4.023-3.043,4.426
			c-3.275,0.778-6.096-0.816-7.167-4.072c-1.216-3.697-1.103-7.656-2.176-11.368c-0.673-2.329,0.014-4.763-0.807-7.05
			C67.944,118.284,67.844,117.986,67.352,117.768z"/>
		<path style="fill-rule:evenodd;clip-rule:evenodd;fill:#7B491E;" d="M249.906,165.702c0.916-3.082-0.662-5.969,0.047-8.934
			c0.18-0.749-0.655-1.277-1.623-1.113c-0.986,0.166-1.675,0.081-1.743-1.319c-0.042-0.863-0.792-1.616-1.752-2.17
			c-1.533-0.883-1.452-2.076,0.022-2.883c0.363-0.199,0.69-0.383,0.521-0.712c-0.371-0.723-0.191-2.165-1.009-2.125
			c-3.117,0.153-4.572-2.549-6.857-3.767c-1.569-0.835-2.532-0.91-3.629,0.367c-0.607,0.708-1.415,1.092-2.209,1.544
			c-2.024,1.151-2.233,3.592-0.558,5.134c1.125,1.036,2.062,2.178,1.044,3.818c-0.656,1.057-1.324,1.919-2.612,0.631
			c-0.551-0.55-1.412-0.697-1.946-0.016c-0.507,0.647,0.131,1.153,0.59,1.6c3.472,3.375,3.598,7.402,2.146,11.653
			c-0.267,0.783-0.264,1.196,0.216,1.872c1.083,1.522,1.685,3.173,0.841,5.104c-0.264,0.602-0.137,1.408-0.075,2.112
			c0.366,4.188-0.794,8.165-1.518,12.219c-0.338,1.892-0.751,3.37-2.199,4.851c-2.497,2.551-1.685,5.817-0.902,8.907
			c0.795,3.139,1.713,6.252,2.345,9.423c0.309,1.548-0.146,3.215-0.378,4.765c-0.665,4.441-1.002,8.952-2.262,13.287
			c-0.353,1.211-0.143,2.391-0.216,3.581c-0.148,2.427-1.263,3.089-3.359,1.899c-0.703-0.398-1.32-0.409-1.95,0.073
			c-1.64,1.258-2.794-0.141-3.86-0.92c-0.57-0.416-0.589-1.967,0.278-2.17c1.503-0.352,1.183-1.289,1.185-2.203
			c0.012-4.558,0.196-9.127-0.067-13.67c-0.151-2.603-0.401-5.204-0.334-7.812c0.052-1.983-0.062-3.988,1.465-5.694
			c0.855-0.956-0.896-5.938-2.235-6.251c-1.953-0.455-2.078-1.912-2.198-3.314c-0.119-1.394-0.157-2.779-0.441-4.164
			c-0.267-1.3-1.179-1.783-2.011-2.62c-1.787-1.796-4.629-2.062-5.861-4.424c-0.095-0.182-0.261-0.361-0.438-0.46
			c-3.649-2.012-3.953-5.218-2.771-8.65c0.769-2.229-0.305-3.587-1.539-4.981c-1.068-1.207-0.866-3.241,0.621-3.438
			c1.959-0.257,1.771-1.489,1.673-2.719c-0.354-4.395-2.065-8.52-2.771-12.792c-0.577-3.499-3.37-4.582-5.112-6.782
			c-0.805-1.017-1.761-0.359-2.028,0.399c-0.639,1.809-1.497,3.605-1.175,5.651c0.193,1.23,0.83,1.481,1.668,0.753
			c1.999-1.736,3.022-0.792,4.369,0.99c1.266,1.674,2.511,2.987,1.726,5.34c-0.572,1.714-1.548,2.731-3.219,2.112
			c-1.575-0.583-2.349-0.218-2.85,1.315c-0.288,0.882-0.938,1.732-1.896,1.743c-1.318,0.015-1.3,0.878-0.967,1.508
			c0.449,0.849,0.327,1.664,0.307,2.484c-0.034,1.382,0.002,2.648,1.301,3.562c0.776,0.546,0.684,1.399,0.427,2.229
			c-0.291,0.943-1.057,0.462-1.595,0.503c-1.939,0.149-2.308,0.853-1.273,2.508c0.875,1.399,1.708,2.722,3.508,3.238
			c0.639,0.184,1.888,0.597,1.865,1.496c-0.061,2.378,2.041,4.102,1.776,6.494c-0.23,2.089,0.424,4.225-0.393,6.291
			c-0.573,1.45-1.468,2.343-3.123,2.217c-1.009-0.077-1.638,0.22-1.63,1.397c0.01,1.358-0.69,2.502-1.247,3.694
			c-0.504,1.079-1.088,2.01-2.444,1.603c-1.393-0.418-2.033-1.533-1.814-2.919c0.18-1.141,0.432-2.405,1.08-3.307
			c1.155-1.605,1.778-3.399,2.54-5.167c0.631-1.465,0.91-3.274,3.042-3.576c0.608-0.087,0.624-0.872,0.551-1.459
			c-0.099-0.8-0.74-0.487-1.164-0.506c-0.557-0.024-1.157-0.038-1.673,0.138c-1.998,0.681-3.524,0.378-4.539-1.684
			c-0.436-0.884-1.313-1.515-2.261-1.805c-1.707-0.521-3.306-1.095-4.011-2.958c-0.344-0.91-0.808-0.839-1.298-0.083
			c-1.692,2.606-3.347,5.239-5.113,7.793c-0.427,0.617-0.05,0.745,0.181,1.146c1.087,1.88,2.457,2.902,4.817,3.237
			c3.229,0.457,4.776,2.779,4.793,6.124c0.008,1.707,0.275,3.343,0.898,4.893c0.968,2.407,0.885,5.025,1.628,7.484
			c0.226,0.747,0.414,1.402,0.874,2.051c0.721,1.018,1.226,2.011,0.585,3.458c-0.493,1.114,0.266,2.43,0.763,3.57
			c0.536,1.229,0.811,2.466,0.871,3.823c0.09,2.047-0.402,3.577-2.522,4.267c-1.016,0.331-0.623,1.334-0.432,1.793
			c1.28,3.074,0.607,6.275,0.778,9.417c0.073,1.338-0.813,2.294-1.692,2.96c-0.925,0.702-2.186,0.779-2.666-0.774
			c-0.365-1.182-1.012-1.994-2.122-2.654c-1.856-1.104-1.753-3.221-2.039-5.029c-0.732-4.639-0.364-9.328-0.474-13.996
			c-0.042-1.813,0.105-3.609-0.29-5.457c-0.338-1.58-0.001-3.262,0.712-4.928c1.007-2.352,0.621-4.972,0.156-7.452
			c-0.205-1.094-0.925-1.854-2.102-0.763c-0.28,0.26-0.569,0.37-0.951,0.365c-2.396-0.034-2.719,0.533-1.861,2.771
			c0.423,1.105,1.149,1.896,1.919,2.72c1.339,1.434,1.722,2.901,0.349,4.652c-1.164,1.485-2.149,2.199-4.123,1.124
			c-2.002-1.091-4.676-1.197-5.418-3.904c-0.526-1.917-0.934-3.886-1.163-5.858c-0.371-3.188,0.63-6.493-0.84-9.605
			c-0.191-0.404-0.06-0.938,0.229-1.415c0.603-0.995,0.869-1.904-0.077-3.042c-0.626-0.754-0.317-1.893,0.645-2.59
			c3.149-2.283,3.698-5.883,4.152-9.266c0.292-2.174-0.487-4.521-0.962-6.753c-0.169-0.797-0.721-1.497-1.517-2.074
			c-2.111-1.531-2.18-4.25,0.041-5.762c1.467-0.998,1.159-1.924,0.486-3.021c-1.636-2.668-2.739-2.941-5.569-1.367
			c-0.492,0.274-0.951,0.188-1.43,0.227c-0.486,0.038-0.925,0.01-1.368,0.396c-1.513,1.321-2.273,3.738-5.002,3.385
			c-0.404-0.052-1.123,0.847-0.677,1.514c0.456,0.682,0.763-0.17,1.151-0.33c0.934-0.386,1.922-0.581,2.757,0.164
			c0.748,0.669,1.625,1.286,1.163,2.608c-0.222,0.636-0.018,1.412-0.06,2.122c-0.047,0.795-0.384,1.872-0.989,1.907
			c-0.803,0.047-1.704-0.569-1.981-1.576c-0.164-0.595-0.339-1.191-0.427-1.8c-0.058-0.4-0.136-0.654-0.597-0.688
			c-0.605-0.043-0.62,0.323-0.711,0.784c-0.589,2.981-1.178,5.964-1.855,8.926c-0.477,2.082-0.065,2.92,2.004,3.579
			c3.914,1.245,6.388,4.734,6.762,8.946c0.165,1.865,0.549,3.778,1.62,5.475c1.755,2.783,1.865,5.765,1.196,8.977
			c-0.986,4.732-2.656,9.33-2.883,14.219c-0.096,2.066,0.567,4.052,1.175,5.891c0.968,2.928,0.725,5.659-0.042,8.446
			c-0.282,1.021-1.218,1.652-2.288,1.829c-1.231,0.204-2.076-0.492-2.729-1.441c-1.213-1.765-2.051-4.047-3.688-5.207
			c-2.948-2.087-3.186-4.846-3.07-7.864c0.054-1.413-0.371-1.898-1.762-1.729c-0.892,0.108-1.685,0.114-2.253-1.017
			c-0.636-1.264,0.466-1.433,0.87-2.031c1.462-2.164,2.433-4.524,3.137-7.036c0.555-1.977,1.142-3.986,2.062-5.806
			c1.334-2.642,1.165-9.198-0.294-11.716c-0.693-1.197-1.525-0.972-2.511-1.082c-2.271-0.256-4.599-0.102-6.808-0.794
			c-2.197-0.689-2.388-1.758-2.33-4.007c0.104-4.069,2.328-7.164,4.116-10.471c0.991-1.834,0.83-3.881,1.341-5.798
			c0.363-1.36,1.126-2.52,1.406-3.872c0.406-1.963-0.349-3.787-1.007-5.484c-0.616-1.589,0.254-2.305,0.989-3.24
			c0.206-0.263,0.654-0.351,0.824-0.623c2.287-3.653,5.764-4.091,9.616-3.683c3.179,0.338,6.179-0.827,9.268-1.254
			c0.951-0.131,1.743-0.576,2.315-1.308c0.73-0.933,1.669-1.113,2.638-0.692c1.035,0.45,1.816,1.282,1.832,2.502
			c0.012,0.886,0.074,1.645,0.853,2.254c1.08,0.844,1.265,2.034,1.348,3.374c0.153,2.452,0.027,4.989,2.357,6.834
			c1.008,0.798,1.83,0.672,2.286-0.014c2.17-3.26,4.715-6.285,4.799-10.627c0.065-3.363,1.549-6.534,2.552-9.749
			c0.088-0.283,0.445-0.562,0.742-0.687c1.745-0.733,3.146-1.981,4.698-2.976c1.739-1.114,4.022-0.866,6.109-0.182
			c3.127,1.024,5.3,3.438,7.815,5.331c1.56,1.174,1.713,3.43,3.096,4.86c0.349,0.361,0.577,0.967,1.015,1.295
			c1.658,1.247,2.68,2.555,2.231,4.945c-0.264,1.405,1.157,2.752,2.112,3.872c0.387,0.454,1.258-0.223,1.615-0.972
			c1.197-2.509,2.146-5.1,2.083-7.908c-0.03-1.336,0.202-2.535,1.061-3.479c0.955-1.051,1.372-2.378,2.14-3.519
			c2.395-3.558,6.528-4.374,9.938-6.308c1.197-0.68,2.365,0.57,3.503,0.969c1.992,0.698,3.606,2.086,5.027,3.663
			c1.199,1.331,2.411,1.932,4.421,1.342c3.5-1.028,7.678,0.974,9.354,4.604c2.217,4.804,4.464,9.82,4.594,15.104
			c0.108,4.41,0.161,8.9-0.852,13.416c-0.875,3.907-2.133,7.693-3.054,11.574c-0.268,1.129-0.123,1.308,0.953,1.379
			c2.364,0.154,3.035,1.26,2.823,3.593c-0.144,1.578,0.649,3.123,1.913,3.981c1.31,0.89,1.522,1.821,1.416,3.264
			c-0.411,5.543-0.74,11.097-1.049,16.645c-0.357,6.416-0.222,12.904-1.471,19.283c-0.284,1.455-0.651,3.218,0.618,4.669
			c0.419,0.479,0.159,1.177-0.191,1.78c-0.342,0.59-0.527,1.243-0.534,1.985c-0.026,2.784-0.919,3.717-3.649,4.746
			c-1.451,0.548-2.157-0.076-2.573-1.162c-0.286-0.745-0.41-1.636-0.662-2.377c-0.581-1.712,0.587-4.044-1.803-5.167
			c-0.499-0.234-0.447-1.108-0.106-1.556c2.071-2.719,0.44-5.667,0.518-8.494c0.017-0.612-0.099-1.386-0.266-2.051
			c-0.415-1.651,0.36-3.721-2.216-4.58c-1.558-0.52-0.654-2.059,0.157-2.714c1.621-1.308,1.824-2.826,1.705-4.773
			c-0.217-3.545,0.258-6.956,1.418-10.453c0.747-2.251,1.017-5.246-0.457-7.803c-0.615-1.069-1.081-0.852-1.737-0.204
			c-0.199,0.197-0.421,0.404-0.535,0.651c-0.979,2.114-2.033,4.17-3.527,5.995c-0.634,0.773-1.185,1.591-0.149,2.758
			c0.86,0.971-0.197,2.483-1.53,2.468c-3.101-0.035-4.967-2.731-3.997-5.601c0.331-0.977,0.664-2.004,0.237-3.15
			c-0.99-2.658-0.049-5.197,0.934-7.608c0.453-1.111,1.375-2.093,3.017-1.182c1.581,0.876,2.57,0.088,2.877-1.788
			c0.391-2.392-0.239-4.573-1.11-6.724c-0.258-0.637-0.39-1.368-0.095-1.846c0.695-1.124,0.169-2.039-0.543-2.592
			c-1.833-1.426-1.516-3.398-1.104-5.049c0.312-1.25,0.208-2.393-0.346-3.145c-1.197-1.622-0.365-3.446-0.899-5.102
			c-0.129-0.401,0.303-1.483,0.972-1.42c0.922,0.088,1.661,0.868,1.784,1.811c0.216,1.648,2.001,2.41,2.156,4.065
			C249.251,165.588,249.739,165.65,249.906,165.702z M223.583,163.972c0.337-1.25-0.281-1.564-1.459-1.484
			c-1.203,0.082-2.419,0.06-3.625,0.004c-0.807-0.037-1.062,0.224-1.423,1.025c-1.662,3.683-2.798,7.547-4.234,11.3
			c-0.609,1.595-0.911,2.429,1.068,2.639c3.967,0.419,6.79,2.709,9.262,5.587c0.159,0.186-0.16,0.806,0.434,0.575
			c0.331-0.129,0.967-0.121,0.848-0.74c-0.231-1.205,0.472-2.438-0.734-3.663c-1.1-1.116-1.379-2.815-0.637-4.506
			c0.525-1.198,0.548-2.353-0.053-3.752c-0.629-1.463-0.625-3.302,0.144-4.925C223.475,165.395,223.772,164.753,223.583,163.972z
			 M180.377,165.139c1.185,1.385,0.874,2.829,0.948,4.21c0.026,0.47-0.36,1.217,0.615,1.274c0.693,0.041,1.181-0.126,1.505-0.846
			C184.562,167.296,183.563,165.593,180.377,165.139z M180.53,162.922c-0.197-0.164-0.328-0.36-0.462-0.361
			c-0.144-0.002-0.385,0.156-0.416,0.285c-0.07,0.299,0.099,0.53,0.433,0.466C180.23,163.285,180.343,163.093,180.53,162.922z"/>
		<path style="fill-rule:evenodd;clip-rule:evenodd;fill:#7B491E;" d="M287.921,82.686c-0.77,1.387-1.267,2.768-1.041,4.271
			c0.324,2.167-0.444,4.14-0.99,6.147c-0.501,1.841-2.12,2.738-3.692,2.604c-1.478-0.126-1.999-1.937-2.093-3.273
			c-0.088-1.249-0.499-2.239-1.021-3.308c-1.105-2.265-1.13-4.807-1.584-7.233c-0.155-0.828,0-1.657-1.371-1.63
			c0.756,1.908,0.263,3.835,0.226,5.751c-0.033,1.733-1.92,3.432-4.043,3.828c-1.284,0.239-3.637-1.375-4.222-2.878
			c-1.254-3.228-2.565-6.433-3.759-9.682c-0.662-1.805-1.443-3.601-1.405-5.595c0.01-0.463,0.15-1.057-0.648-1.055
			c-0.832,0.002-0.602,0.635-0.615,1.074c-0.031,0.996-0.02,1.994-0.009,2.99c0.015,1.33,0.118,2.635-0.865,3.783
			c-0.869,1.015-0.613,2.412-0.34,3.473c0.603,2.334,0.18,4.653,0.347,6.968c0.135,1.867-1.239,2.76-2.595,2.534
			c-1.717-0.287-3.521-0.507-5.162-1.11c-2.079-0.765-3.4-4.245-2.889-5.753c0.812-2.39,0.16-4.869,0.754-7.298
			c0.869-3.555,1.346-7.209,1.909-10.834c0.321-2.068,0.512-4.157,0.708-6.242c0.097-1.026-0.15-2.089,0.496-3.066
			c-1.718-0.455-2.772-0.502-2.7,1.772c0.049,1.53-0.48,3.112-1.069,4.612c-0.873,2.222-0.875,4.545-0.077,6.77
			c0.61,1.701,0.425,3.29-0.055,4.926c-0.644,2.2,0.201,4.673-1.252,6.74c-0.169,0.239-0.118,0.725-0.017,1.047
			c1.089,3.45-0.066,6.712-0.902,9.964c-0.623,2.427-1.957,3.264-4.423,3.285c-1.571,0.014-3.158-0.289-4.25,1.498
			c-0.4,0.655-1.656,1.169-2.61,0.226c-1.101-1.089-2.54-0.291-3.833-0.689c-1.857-0.573-2.292-1.686-1.863-3.134
			c0.379-1.277,0.268-2.505,0.342-3.757c0.123-2.08-0.298-4.175,0.791-6.2c0.646-1.199-0.235-2.634-0.046-4.033
			c0.389-2.875,1.981-5.48,1.865-8.429c-0.116-2.978-0.844-5.848-1.716-8.788c-2.617,1.535-3.858,4.344-6.589,5.57
			c-1.423,0.64-2.505,1.124-3.792,0.073c-1.211-0.99-1.074-2.416-0.529-3.486c1.287-2.533,1.674-5.147,1.474-7.916
			c-0.117-1.611,0.786-2.938,1.397-4.289c0.95-2.098,2.26-4.029,3.346-6.068c1.353-2.542,2.507-5.139,2.121-8.162
			c-0.094-0.736-0.01-1.511,0.147-2.294c0.206-1.024-0.117-2.055-1.537-2.093c-1.166-0.031-2.639,0.411-3.177-1.025
			c-0.582-1.553,0.234-2.988,1.102-4.261c1.116-1.638,2.386-3.079,2.806-5.209c0.278-1.409-0.071-2.565-0.515-3.585
			c-1.529-3.513,0.646-8.014,4.419-9.033c1.699-0.458,3.318-0.408,4.903,0.076c1.523,0.465,3.089,0.292,4.651,0.694
			c2.732,0.702,4.424,2.199,5.454,4.629c0.585,1.381,0.651,2.966,1.664,4.193c0.148,0.181,0.215,0.62,0.1,0.799
			c-1.291,2.015,0.219,3.528,0.732,5.307c0.879,3.046,1.253,6.235,1.882,9.356c0.207,1.03-1.704,1.489-0.575,2.709
			c0.633,0.117,1.203-0.557,1.216-0.878c0.082-2.193,1.109-4.142,1.461-6.247c0.196-1.176-0.013-2.037-1.387-2.793
			c-2.657-1.464-2.885-4.405-1.231-6.96c1.957-3.023,3.828-6.076,6.049-8.938c2.694-3.474,9.725-5.492,12.875-2.811
			c2.014,1.713,3.161,4.373,2.649,7.104c-0.36,1.921-0.219,3.909-0.479,5.871c-0.201,1.515-0.144,3.116-0.715,4.521
			c-0.522,1.283,0.224,1.818,0.993,2.152c3.163,1.373,4.88,4.223,3.745,7.476c-0.66,1.895,0.735,3.515,0.009,5.331
			c-0.197,0.493,0.7,0.301,0.969-0.114c1.137-1.751,2.774-2.99,4.333-4.309c0.805-0.681,0.149-1.056-0.252-1.532
			c-3.628-4.308-4.167-9.285-1.832-13.013c1.435-2.29,1.254-4.977,1.55-7.46c0.496-4.161,3.297-6.413,6.224-8.511
			c3.824-2.74,8.609,1.054,10.09,4.42c0.558,1.266,0.82,2.414,2.689,2.512c1.765,0.093,2.427,1.79,2.005,3.551
			c-0.406,1.695-1.479,3.075-2.039,4.645c-0.942,2.641-1.491,5.422-2.198,8.147c-0.035,0.134,0.047,0.318-0.018,0.421
			c-2.264,3.599,0.963,4.976,2.697,7.125c2.331,2.888,5.502,5.298,6.521,9.017c0.821,2.995,0.988,6.167,1.485,9.252
			c0.333,2.061,1.289,4.053,0.042,6.192c-0.506,0.869-0.878,1.53-1.966,1.531c-1.112,0-2.193,0.05-3.316,0.345
			c-1.411,0.371-2.437-0.613-2.78-1.93c-0.207-0.791-0.45-1.112-1.218-0.975c-1.072,0.19-0.646,1.037-0.453,1.486
			c0.227,0.528,0.081,0.845-0.042,1.327c-0.723,2.821-0.759,5.644,0.184,8.449c0.174,0.517,0.187,1.127,0.127,1.678
			c-0.418,3.839,0.275,7.686-0.037,11.506c-0.205,2.508,0.123,5.235-1.696,7.375c-0.521,0.613,0.335,1.044,0.013,1.514
			c-0.317,0.463-0.224,1.338-1.126,1.253c-0.672-0.063-1.046-0.501-0.971-1.148c0.216-1.854-0.938-1.856-2.269-1.844
			c-2.838,0.026-2.919-0.539-3.838-3.025C288.793,88.078,289.745,85.157,287.921,82.686z M277.311,77.873
			c1.33-2.692,1.915-5.64,1.682-8.32c-0.246-2.827-0.675-5.665-0.68-8.515c-1.664,0-1.229,1.183-1.273,2.078
			c-0.037,0.75,0.21,1.66-0.825,1.918c-0.9,0.224-1.125-0.527-1.499-1.144c-0.261-0.428-0.628-1.106-1.301-0.868
			c-0.718,0.255-0.674,0.972-0.654,1.621c0.084,2.852,0.951,5.573,1.438,8.355C274.539,74.941,275.7,76.564,277.311,77.873z"/>
		<path style="fill-rule:evenodd;clip-rule:evenodd;fill:#7B491E;" d="M52.177,169.342c1.859,0.271,4.216,0.314,5.631,2.568
			c0.07,0.112,0.112,0.288,0.21,0.328c4.791,1.966,4.202,6.077,4.1,10.058c-0.041,1.6,0.239,3.208,0.391,4.811
			c0.079,0.826-0.106,1.486-0.79,2.057c-0.889,0.741-1.438,1.687-1.363,2.932c0.08,1.337-1.564,1.603-1.796,2.968
			c-0.225,1.321-0.037,1.824,1.194,2.135c2.507,0.633,4.372,2.359,6.406,3.816c1.103,0.79,1.592,2.042,2.4,3.015
			c1.025,1.235,1.782,0.479,2.079,0.015c0.68-1.065,1.657-1.622,2.64-2.237c2.202-1.377,2.833-3.86,3.578-5.987
			c0.445-1.27-1.271-2.771-2.318-3.946c-2.274-2.555-3.85-8.979-0.983-12.536c1.406-1.744,3.047-2.982,5.157-3.555
			c1.062-0.288,1.909-0.85,2.618-1.587c1.485-1.544,4.535-1.649,5.437,0.247c1.299,2.73,3.363,5.035,4.177,8.049
			c0.335,1.24,0.016,2.247-0.277,3.249c-0.912,3.124-1.318,6.355-3.927,8.929c-1.66,1.637-0.637,4.31-0.389,6.595
			c0.355,3.277,3.513,5.014,4.098,8.12c0.104,0.553,0.871,0.831,1.43,1.153c1.094,0.63,1.303,1.713,0.771,2.756
			c-0.522,1.023-1.564,1.136-2.595,0.815c-0.587-0.183-1.13-0.506-1.702-0.745c-0.984-0.413-2.186-1.611-2.991-0.61
			c-0.874,1.088-1.22,2.688-0.746,4.262c0.178,0.592,0.159,1.273,0.097,1.902c-0.442,4.516,0.139,9.006,0.515,13.479
			c0.223,2.646,1.243,5.218,1.801,7.845c0.255,1.203,1.054,2.752-0.742,3.413c-1.66,0.611-2.72-0.363-3.281-2.563
			c-0.679-2.666-1.431-5.313-2.131-7.974c-0.143-0.541-0.417-0.873-0.983-0.943c-0.794-0.099-0.552,0.577-0.778,0.947
			c-1.197,1.964-1.242,4.595-3.313,6.021c-1.054,0.726-2.043,2.128-3.615,1.186c-1.585-0.951-1.57-2.294-1.219-4.059
			c0.768-3.854,0.675-8.091,2.985-11.311c2.385-3.324,2.296-6.789,2.186-10.399c-0.046-1.504-0.315-3.123-2.571-2.934
			c-0.816,0.068-1.083,0.175-1.306,1.11c-0.564,2.365-3.722,3.171-5.637,1.606c-0.427-0.348-0.958-0.573-1.365-0.94
			c-1.515-1.372-3.333-0.882-5.075-0.896c-0.598-0.005-0.711,0.323-0.67,0.809c0.151,1.807,0.265,3.653,1.178,5.252
			c0.956,1.673,1.133,3.258,0.584,5.146c-0.851,2.924-0.838,4.269,1.719,5.673c1.437,0.789,0.923,2.149,1.105,3.098
			c0.717,3.733,1.159,7.526,2.443,11.125c0.379,1.063,0.257,1.817-0.6,2.396c-1.03,0.694-2.252,0.335-2.87-0.407
			c-0.46-0.552-1.229-0.821-1.451-1.349c-0.949-2.249-3.847-2.463-4.763-4.803c-0.306-0.78-1.346-0.782-2.133,0.144
			c-1.864,2.191-3.829,4.271-3.927,7.409c-0.014,0.458-0.418,0.96-1.034,1.152c-2.141,0.667-3.681-0.867-5.392-1.562
			c-1.265-0.514-0.898-2.131-0.524-3.051c0.755-1.861-0.018-2.15-1.54-1.954c-1.09,0.141-1.736-0.491-1.809-1.335
			c-0.148-1.708-0.904-3.417-0.374-5.123c0.348-1.121-0.189-2.102-0.378-3.03c-0.405-1.985-0.298-3.938-0.296-5.898
			c0.003-1.839,0.131-3.553-1.851-4.676c-1.356-0.769-0.591-2.062-0.339-3.217c0.638-2.919,0.45-5.964,1.296-8.858
			c0.516-1.768,1.231-3.23,2.598-4.707c1.571-1.699,2.867-3.844,4.245-5.821c0.237-0.339,0.432-0.73,0.735-0.998
			c2.443-2.155,2.649-4.738,0.422-7.096c-1.746-1.848-1.553-4.323-1.862-6.464c-0.404-2.797-0.463-5.755,0.268-8.624
			C45.713,172.794,49.285,169.351,52.177,169.342z M45.117,236.264c2.536-4.42,4.849-8.879-0.055-13.238
			C43.754,224.295,43.721,234.322,45.117,236.264z M44.568,215.292c-0.032,1.589,2.179,4.022,3.131,3.918
			c0.439-0.048,0.396-0.394,0.43-0.858c0.225-3.043-1.146-5.886-1.016-8.902c0.015-0.336,0.036-0.729-0.472-0.771
			c-0.49-0.041-0.716,0.102-0.822,0.667C45.414,211.508,44.919,213.654,44.568,215.292z"/>
		<path style="fill-rule:evenodd;clip-rule:evenodd;fill:#7B491E;" d="M379.166,148.551c0.1,2.635-0.351,5.283-1.359,7.987
			c-0.798,2.136-1.121,4.476-1.988,6.663c-0.608,1.537,1.133,4.838,2.652,5.612c2.555,1.3,3.438,3.729,4.061,6.211
			c0.383,1.529,0.486,3.142,0.882,4.692c0.135,0.531,0.232,1.316-0.049,1.667c-1.195,1.49-2.515,2.894-3.794,4.301
			c-1.277,1.403-3.178,1.453-5.271,1.464c-3.571,0.019-7.179-0.098-10.752,0.191c-1.156,0.094-2.228,0.822-3.068,1.66
			c-1.75,1.746-2.761,0.283-3.703-0.876c-0.612-0.754-0.323-2.251-1.568-2.49c-1.539-0.296-3.025,0.28-4.431,0.887
			c-1.08,0.467-2.102,1.069-3.146,1.616c-1.387,0.727-2.757,1.346-4.288,0.292c-0.857-0.589-1.471,0.069-1.729,0.716
			c-0.316,0.791-0.981,1.436-1.187,2.144c-1.182,4.071-4.679,2.546-7.243,2.989c-1.104,0.19-1.908-1.166-2.514-2.243
			c-0.626-1.112,0.253-1.534,0.803-2.114c1.296-1.369,1.557-3.273,0.571-4.377c-1.791-2.006-1.906-3.984-0.307-6.138
			c1.861-2.505,3.496-5.151,4.894-7.936c0.903-1.799,2.802-2.779,3.398-4.935c0.771-2.787-0.289-4.801-3.265-5.034
			c-1.725-0.136-3.139-2.857-2.051-4.251c2.154-2.758,2.522-5.958,3.143-9.256c0.555-2.953,0.772-6.128,2.736-8.784
			c1.45-1.959,2.503-2.414,4.831-1.757c2.976,0.841,4.317,3.173,5.384,5.619c0.648,1.486,1.476,2.656,2.786,3.416
			c1.025,0.594,1.542,1.527,1.152,2.371c-0.75,1.627,0.132,2.891,0.679,4.102c1.871,4.148,3.018,8.191-0.06,12.288
			c-0.179,0.238-0.241,0.791-0.089,1.018c1.68,2.513,1.705,5.608,2.967,8.26c0.471,0.988,0.609,1.76,2.058,0.489
			c2.644-2.32,4.212-5.296,6.014-8.148c0.663-1.052,0.013-2.17-0.591-3.003c-2.349-3.247-2.574-7.099-3.191-10.818
			c-0.804-4.838,1.959-7.96,5.484-10.613c1.327-0.998,2.793-1.782,4.051-2.91c1.931-1.731,5.145-0.303,6.244,2.681
			c0.309,0.836,0.716,1.672,0.818,2.539C379.271,145.937,379.166,147.16,379.166,148.551z"/>
		<path style="fill-rule:evenodd;clip-rule:evenodd;fill:#7B491E;" d="M322.746,151.877c0.248,4.175-0.933,7.554-4.193,10.051
			c-0.146,0.112-0.226,0.328-0.309,0.508c-0.966,2.106-0.949,4.484-2.16,6.614c-0.58,1.021,1.421,2.479,2.118,3.825
			c0.274,0.528,1.594,0.57,2.457,0.727c1.104,0.199,2.28,0.651,2.292,1.759c0.025,2.267,1.563,3.521,2.87,4.871
			c1.591,1.646,2.25,3.521,2.046,5.7c-0.174,1.858-0.4,3.736-0.873,5.535c-0.79,3.009-4.416,4.075-7.215,2.188
			c-0.868-0.586-1.583-0.567-2.094,0.291c-1.314,2.205-2.61,4.28-5.69,2.526c-0.225-0.128-0.825,0.116-1.074,0.364
			c-2.157,2.144-4.281,0.679-6.271-0.182c-0.938-0.405-1.781-0.494-2.621-0.277c-4.646,1.196-7.174-0.7-10.084-3.853
			c-0.789-0.855-0.71-2.258-0.174-2.982c2.687-3.632,4.124-7.928,6.479-11.721c0.881-1.42,1.754-2.757,3.719-3.057
			c0.918-0.14,1.724-1.231,0.709-2.293c-1.485-1.553-0.76-3.054,0.216-4.286c0.795-1.003,0.782-2.034,0.574-2.981
			c-0.238-1.088-0.653-2.35-2.443-1.466c-2.312,1.141-3.397,0.366-3.475-2.206c-0.049-1.605,0.156-3.102,0.793-4.655
			c1.04-2.539,0.624-5.284,0.517-7.979c-0.163-4.099,2.568-5.777,5.592-7.41c2.402-1.297,5-0.68,7.477-1.408
			c1.943-0.57,4.493,0.663,6.509,2.029C322.023,144.542,323.028,148.008,322.746,151.877z"/>
		<path style="fill-rule:evenodd;clip-rule:evenodd;fill:#7B491E;" d="M103.946,223.74c0.456,2.681,0.999,5.752,1.497,8.83
			c0.553,3.418,1.044,6.843,1.896,10.209c0.187,0.739,0.375,1.87-0.765,2.153c-1.207,0.3-2.243-0.042-2.646-1.426
			c-0.691-2.373-1.545-4.711-2.042-7.123c-0.239-1.16-0.493-2.288-0.898-3.395c-0.166-0.453,0.303-1.276-0.683-1.233
			c-0.843,0.037-1.005,0.91-0.982,1.365c0.075,1.504-0.413,2.915-0.497,4.382c-0.031,0.546,0.047,1.064-0.282,1.626
			c-0.569,0.971-0.789,2.453-2.26,2.157c-1.752-0.353-1.77-2.041-1.682-3.379c0.239-3.604,0.435-7.215,1.204-10.775
			c0.406-1.879,1.51-3.318,2.699-4.591c1.8-1.928,1.038-4.127,1.118-6.232c0.024-0.645-0.58-0.899-1.146-0.243
			c-0.671,0.779-1.588,1.086-2.562,1.281c-0.983,0.197-1.648-0.469-2.322-0.942c-0.799-0.561,0.136-1.093,0.246-1.639
			c0.161-0.801,0.526-1.559,0.709-2.356c0.3-1.309,0.986-2.307,2.197-2.878c2.77-1.306,3.308-3.918,1.266-6.192
			c-0.224-0.249-0.416-0.579-0.49-0.902c-0.736-3.212-1.948-6.229-1.061-9.797c0.789-3.173,0.441-6.646,0.029-9.958
			c-0.1-0.8-0.215-1.439,0.178-2.139c1.376-2.447,3.187-4.572,5.497-6.104c1.676-1.112,3.969-0.359,5.085,1.494
			c1.64,2.723,2.125,5.911,3.007,8.901c0.626,2.12-0.333,4.572,0.502,6.844c0.186,0.505,0.205,1.21-0.349,1.778
			c-4.152,4.257-4.5,8.992-2.066,14.305c1.155,2.52,1.604,5.342,2.736,7.923c0.631,1.44-0.57,2.477-2.136,2.072
			c-0.615-0.157-1.16-0.332-1.655-0.802c-1.073-1.018-2.055-0.727-2.212,0.689C104.857,219.583,103.889,221.355,103.946,223.74z"/>
		<path style="fill-rule:evenodd;clip-rule:evenodd;fill:#7B491E;" d="M196.715,198.515c0.503-1.99-0.233-4.47,2.083-5.876
			c0.499-0.302,5.914,0,6.479,0.483c1.312,1.125,0.466,2.523,0.548,3.852c0.219,3.568-1.942,6.996-0.295,10.693
			c0.563,1.265-0.581,2.977-1.57,4.096c-0.764,0.864-1.548,0.031-2.167-0.66c-1.946-2.174-3.271-4.646-3.346-7.597
			C198.399,201.623,195.821,200.714,196.715,198.515z"/>
		<path style="fill-rule:evenodd;clip-rule:evenodd;fill:#7B491E;" d="M167.006,220.456c-0.139,0.393-0.222,1.086-0.85,1.353
			c-0.712,0.303-1.039-0.422-1.312-0.812c-1.13-1.61-1.106-3.656-1.901-5.399c-0.407-0.893-0.594-1.746,0.539-2.066
			c1.085-0.307,2.172,0.532,2.279,1.321C166.014,216.714,166.484,218.491,167.006,220.456z"/>
		<path style="fill-rule:evenodd;clip-rule:evenodd;fill:#7B491E;" d="M167.853,172.288c0.568,0.462,1.397,0.848,1.154,1.869
			c-0.205,0.861-0.068,2.241-1.513,1.968c-0.938-0.178-1.528-1.107-1.545-2.119C165.93,172.897,166.686,172.432,167.853,172.288z"/>
		<path style="fill-rule:evenodd;clip-rule:evenodd;fill:#7B491E;" d="M169.68,208.907c-0.333,1.799-1.349,1.505-2.53,1.336
			C168.022,209.782,168.725,209.412,169.68,208.907z"/>
		<path style="fill-rule:evenodd;clip-rule:evenodd;fill:#7B491E;" d="M201.379,234.719c-0.104,0.631-0.612,0.405-0.97,0.419
			c-0.288,0.012-0.802,0.069-0.417-0.506c0.169-0.253,0.054-0.766,0.561-0.72C201.012,233.956,201.24,234.295,201.379,234.719z"/>
		<path style="fill-rule:evenodd;clip-rule:evenodd;fill:#7B491E;" d="M266.229,154.612c0.631-1.084,1.088-1.268,1.681-0.917
			c0.083,0.049,0.151,0.281,0.106,0.36C267.617,154.754,267.021,154.154,266.229,154.612z"/>
		<path style="fill-rule:evenodd;clip-rule:evenodd;fill:none;" d="M223.583,163.972c0.189,0.781-0.108,1.423-0.41,2.06
			c-0.769,1.623-0.772,3.462-0.144,4.925c0.601,1.399,0.578,2.554,0.053,3.752c-0.742,1.69-0.463,3.39,0.637,4.506
			c1.206,1.225,0.503,2.458,0.734,3.663c0.119,0.619-0.517,0.611-0.848,0.74c-0.594,0.23-0.274-0.39-0.434-0.575
			c-2.472-2.878-5.295-5.168-9.262-5.587c-1.979-0.21-1.678-1.044-1.068-2.639c1.437-3.753,2.572-7.617,4.234-11.3
			c0.361-0.802,0.616-1.062,1.423-1.025c1.206,0.056,2.422,0.078,3.625-0.004C223.302,162.408,223.92,162.722,223.583,163.972z"/>
		<path style="fill-rule:evenodd;clip-rule:evenodd;fill:none;" d="M180.377,165.139c3.186,0.454,4.185,2.157,3.068,4.639
			c-0.324,0.72-0.812,0.887-1.505,0.846c-0.975-0.058-0.589-0.805-0.615-1.274C181.251,167.968,181.562,166.524,180.377,165.139z"/>
		<path style="fill-rule:evenodd;clip-rule:evenodd;fill:none;" d="M180.53,162.922c-0.187,0.171-0.3,0.362-0.445,0.39
			c-0.333,0.064-0.503-0.167-0.433-0.466c0.03-0.129,0.271-0.287,0.416-0.285C180.202,162.562,180.333,162.758,180.53,162.922z"/>
		<path style="fill-rule:evenodd;clip-rule:evenodd;fill:none;" d="M277.311,77.873c-1.61-1.309-2.771-2.932-3.112-4.875
			c-0.487-2.782-1.354-5.503-1.438-8.355c-0.02-0.648-0.063-1.366,0.654-1.621c0.673-0.238,1.04,0.439,1.301,0.868
			c0.374,0.617,0.599,1.368,1.499,1.144c1.035-0.258,0.788-1.168,0.825-1.918c0.045-0.895-0.391-2.078,1.273-2.078
			c0.005,2.851,0.434,5.688,0.68,8.515C279.226,72.233,278.641,75.18,277.311,77.873z"/>
		<path style="fill-rule:evenodd;clip-rule:evenodd;fill:none;" d="M45.117,236.264c-1.396-1.942-1.363-11.969-0.055-13.238
			C49.966,227.385,47.653,231.844,45.117,236.264z"/>
		<path style="fill-rule:evenodd;clip-rule:evenodd;fill:none;" d="M44.568,215.292c0.351-1.638,0.846-3.783,1.251-5.946
			c0.106-0.565,0.332-0.708,0.822-0.667c0.508,0.042,0.487,0.435,0.472,0.771c-0.13,3.017,1.241,5.859,1.016,8.902
			c-0.034,0.465,0.009,0.811-0.43,0.858C46.748,219.314,44.536,216.88,44.568,215.292z"/>
	</g>
</g>
</svg>
