<?xml version="1.0" encoding="iso-8859-1"?>
<!-- Generator: Adobe Illustrator 16.0.0, SVG Export Plug-In . SVG Version: 6.00 Build 0)  -->
<!DOCTYPE svg PUBLIC "-//W3C//DTD SVG 1.1//EN" "http://www.w3.org/Graphics/SVG/1.1/DTD/svg11.dtd">
<svg version="1.1" id="Layer_1" xmlns="http://www.w3.org/2000/svg" xmlns:xlink="http://www.w3.org/1999/xlink" x="0px" y="0px"
	 width="401.879px" height="248.337px" viewBox="0 0 401.879 248.337" style="enable-background:new 0 0 401.879 248.337;"
	 xml:space="preserve">
<g>
	<g>
		<path style="fill:none;" d="M200.987,247.775c-65.897,0-131.795-0.015-197.692,0.062c-2.256,0.003-2.701-0.442-2.699-2.698
			c0.075-80.615,0.075-161.23,0-241.844c-0.002-2.255,0.442-2.7,2.699-2.698c131.795,0.07,263.59,0.07,395.385,0
			c2.256-0.001,2.701,0.441,2.699,2.698c-0.075,80.614-0.075,161.229-0.001,241.843c0.003,2.256-0.44,2.702-2.698,2.699
			C332.783,247.76,266.885,247.775,200.987,247.775z M68.21,59.673c-2.246-0.994-4.21,0.328-6.272,0.644
			c-3.16,0.483-6.164,0.885-8.899-1.726c-5.686-5.427-12.106-7.819-19.834-4.081c-1.169,0.565-2.61,0.772-3.901,1.303
			c-0.83,0.341-2.372,0.884-2.268-1.079c0.207-3.895-0.549-7.82,0.622-11.691c1.216-4.022,0.616-8.116,0.319-12.232
			c-0.364-5.063-3.447-9.341-3.729-14.415c-0.065-1.162-0.752-2.722-2.75-2.6c-1.665,0.101-2.378,0.896-3.102,2.314
			c-1.337,2.62-0.127,5.087,0.105,7.576c0.575,6.131-1.228,12.06-1.297,18.101c-0.056,4.795-0.598,9.33-2.437,13.836
			c-1.573,3.853-1.204,7.906,0.775,11.735c1.745,3.376,2.549,7.244,1.326,10.68c-2.535,7.126-3.23,14.152-1.011,21.379
			c0.802,2.611,2.668,4.829,5.278,5.186c2.333,0.319,4.797-1.061,5.377-3.702c0.663-3.016,1.24-6.183,1.031-9.228
			c-0.305-4.455-1.155-8.831-0.579-13.364c0.8-6.292,0.649-6.307,6.351-7.69c6.621-1.606,12.544-0.67,17.279,4.684
			c2.134,2.414,7.776,3.452,10.629,1.236c3.667-2.85,8.144-1.789,11.307,1.92c1.092,1.281,2.297,2.731,3.769,3.375
			c4.227,1.848,4.936,5.673,5.311,9.373c0.448,4.414-0.142,8.927,0.775,13.331c0.908,4.359,1.421,8.874,5.368,11.94
			c2.42,1.88,4.791,2.75,7.448,0.714c2.847-2.183,2.489-5.256,2.093-8.294c-0.498-3.819-1.853-7.506-1.748-11.421
			c0.132-4.878-1.074-9.588-2.272-14.221c-1.201-4.646-2.271-9.354-2.853-14.046c-0.957-7.72-4.564-13.902-9.486-19.492
			c-2.47-2.806-4.042-5.98-5.136-9.44c-2.387-7.546-3.818-15.389-7.247-22.617c-1.122-2.366-2.606-3.849-5.26-3.097
			c-2.477,0.702-3.804,2.424-4.053,5.186c-0.246,2.72,1.119,5.001,1.48,7.553c0.653,4.609,2.252,9.037,3.061,13.66
			c0.724,4.142,2.555,8.088,3.307,12.228C67.478,55.331,69.663,57.161,68.21,59.673z M72.487,177.25
			c-0.077,3.981-0.061,8.444-1.104,12.97c-0.541,2.345-1.503,4.659-1.745,7.122c-0.054,0.555-0.779,1.212-2.136,1.199
			c-5.012-0.049-9.835-0.143-14.059-3.452c-1.516-1.188-2.705-2.12-2.762-4.324c-0.172-6.525,0.792-13.089-0.59-19.577
			c-0.226-1.058,0.15-1.98,1.054-2.558c3.007-1.921,2.353-4.949,2.14-7.67c-0.134-1.717-1.267-3.317-3.163-3.677
			c-1.176-0.224-2.93-0.099-3.163,1.278c-0.637,3.772-2.164,7.002-4.667,9.845c-0.23,0.261-0.141,0.854-0.109,1.286
			c0.489,6.56-1.213,13.072-0.61,19.599c0.747,8.09-1.921,15.393-4.196,22.898c-1.144,3.774-1.1,7.963,0.209,11.848
			c1.214,3.604,4.067,6.577,4.52,10.45c0.329,2.811,1.889,4.977,3.097,7.302c1.01,1.945,3.308,1.983,4.156,0.206
			c2.4-5.029,2.19-10.152,0.431-15.384c-0.83-2.466-2.416-4.515-1.938-7.69c0.767-5.092,4.552-9.367,3.709-14.821
			c-0.065-0.421,0.454-2.211,1.397-1.651c3.723,2.207,7.706,0.741,11.536,1.151c0.968,0.104,1.944,0.309,1.991,1.302
			c0.225,4.662,1.355,9.735,0.351,13.901c-1.726,7.157,0.179,13.595,1.104,20.297c0.264,1.916,2.307,2.359,3.457,0.815
			c3.078-4.134,4.97-8.592,4.39-14.006c-0.617-5.758-0.269-11.743,1.325-17.147c2.301-7.802,2.867-15.811,3.634-23.684
			c0.581-5.957-1.257-12.202-1.105-18.414c0.043-1.758-0.978-3.171-3.513-2.103c-2.655,1.118-4.044,2.529-3.689,5.568
			C72.691,172.295,72.487,174.514,72.487,177.25z M171.681,109.388c-3.114,0.066-4.721,2.098-3.54,4.867
			c1.936,4.539,2.426,8.763-1.4,12.545c-0.953,0.942-0.648,2.019-0.666,3.062c-0.079,4.714,1.109,9.57-0.286,14.104
			c-1.483,4.819-0.892,9.575,0.613,13.8c2.468,6.931,2.583,13.392,0.021,20.184c-1.311,3.476-1.418,7.289-0.89,10.926
			c0.26,1.791,0.76,3.2-0.708,4.661c-0.774,0.771-0.612,1.913,0.453,2.324c3.743,1.443,4.403,4.946,5.287,8.109
			c0.427,1.526,0.879,2.083,2.375,2.458c1.87,0.469,2.421-1.027,2.817-1.892c1.604-3.499,2.246-7.367,1.265-11.042
			c-0.824-3.087-0.028-5.834,0.816-8.459c1.558-4.846,2.393-9.77,2.653-14.784c0.119-2.306,0.269-3.97,3.16-3.535
			c2.32,0.348,2.725-2.602,2.531-2.793c-1.845-1.825-2.361-5.385-5.917-5.089c-2.134,0.178-2.786-1.416-2.917-2.79
			c-0.801-8.392-1.395-16.802-2.062-25.205c-0.063-0.79,0.235-1.428,0.596-2.128c3.181-6.165,2.216-12.053-1.378-17.691
			C173.856,110.006,173.007,109.073,171.681,109.388z M204.332,206.73c-0.528,1.998,0.879,3.524,2.231,3.806
			c1.448,0.301,3.565-0.015,4.369-2.046c0.54-1.367,1.01-2.763,1.543-4.133c0.99-2.545,2.769-5.051,2.865-7.624
			c0.279-7.501,0.812-15.014-0.334-22.562c-0.407-2.685-1.455-5.479-0.404-8.557c0.908-2.658-2.441-5.082-5.187-4.164
			c-1.534,0.513-2.593,0.841-3.946-0.91c-1.585-2.052-6.211-1.999-7.596-0.008c-0.863,1.242-1.329,0.29-1.662,0.164
			c-0.872-0.33-1.57-1.096-2.429-1.487c-2.096-0.955-5.463,0.24-6.397,2.373c-0.804,1.835-0.217,3.557,1.521,4.489
			c1.765,0.948,3.907,2.032,5.769,1.088c2.764-1.403,5.211-3.29,8.127-0.463c0.17,0.165,0.638,0.039,0.966,0.021
			c1.808-0.098,2.459,0.933,3.256,2.477c1.388,2.688-0.212,5.066-0.196,7.582c0.049,7.917-0.428,15.825-1.109,23.726
			C205.526,202.722,203.706,204.418,204.332,206.73z M207.418,128.166c-1.053,0.604-2.014,0.938-2.68,1.578
			c-1.559,1.499-2.562,3.316-1.283,5.447c1.406,2.342,4.869,2.949,6.93,1.367c2.223-1.705,2.323-3.928,0.448-6.495
			c-0.426-0.584-2.348-1.502-0.683-2.081c3.831-1.335,1.705-3.433,1.068-5.359c-0.208-0.626-1.506-0.998-0.765-1.844
			c2.821-3.219,0.091-4.832-1.854-6.627c-1.979-1.827-4.051-1.839-5.577,0.465c-1.408,2.124-0.855,4.024,1.423,5.358
			c0.716,0.419,1.584,0.84,0.78,2.004C203.183,124.942,204.809,126.709,207.418,128.166z M365.073,151.338
			c0.111,1.533-0.129,3.207,0.552,4.916c0.424,1.067,0.885,2.21,1.826,2.264c0.646,0.037,1.443-1.02,1.643-2.153
			c0.182-1.03,0.465-2.085,2.123-2.242c3.062-0.288,4.071-2.539,3.699-5.303c-0.373-2.763-2.104-4.362-4.965-4.496
			C366.208,144.148,365.073,145.769,365.073,151.338z M353.211,54.589c-0.577,2.155,1.317,3.174,2.645,4.303
			c1.421,1.209,2.721,2.32,2.617,4.35c-0.044,0.85,0.389,1.901,0.961,1.748c0.899-0.241,2.352-0.475,2.295-1.895
			c-0.064-1.607,0.769-2.847,1.252-4.255c1.564-4.562,0.777-5.883-4.009-7.428c-0.397-0.128-0.792-0.27-1.192-0.389
			C354.694,50.097,353.203,51.203,353.211,54.589z M376.934,186.455c-0.006-3.219-2.132-5.226-5.55-5.235
			c-2.428-0.008-3.551,1.858-3.675,6.101c-0.097,3.338,1.776,5.788,4.403,5.76C375.272,193.045,376.941,190.752,376.934,186.455z
			 M371.651,134.818c0.119-2.786-2.544-6.259-4.847-6.317c-2.605-0.065-5.478,2.465-5.683,5.007
			c-0.185,2.285,2.29,5.396,4.401,5.533C367.696,139.181,371.579,136.506,371.651,134.818z M378.911,168.717
			c0.009-3.144-2.599-6.533-4.992-6.487c-1.887,0.036-4.727,3.259-4.723,5.359c0.002,1.485,3.681,6.378,4.791,6.373
			C376.527,173.95,378.903,171.417,378.911,168.717z M353.21,77.813c0.003,4.325,1.276,5.987,4.438,5.855
			c2.496-0.104,4.747-0.702,4.785-3.896c0.037-3.097-2.762-6.037-5.866-5.93C353.925,73.933,352.684,75.4,353.21,77.813z
			 M365.344,119.934c3.216,0.004,5.097-1.555,4.957-4.108c-0.154-2.816-2.336-5.173-4.738-5.117
			c-2.203,0.051-5.492,2.547-5.575,4.23C359.853,117.671,362.274,119.929,365.344,119.934z M299.446,123.875
			c1.965-0.204,3.55-1.453,3.647-3.976c0.112-2.936-2.954-5.991-5.688-5.896c-2.02,0.071-4.208,2.371-4.149,4.363
			C293.336,121.098,296.284,123.951,299.446,123.875z M293.241,108.093c-0.114,1.826,0.002,3.883,2.778,3.898
			c3.644,0.02,6.507-2.035,6.449-4.384c-0.063-2.649-2.106-4.708-4.768-4.807C294.567,102.686,293.291,104.126,293.241,108.093z
			 M207.696,150.894c-1.875-0.039-3.736,0.445-4.36,2.665c-0.544,1.932,1.091,3.144,2.245,4.097c1.446,1.192,3.099,2.85,5.404,1.383
			c1.731-1.102,3.161-2.546,2.439-4.643C212.583,151.958,210.541,150.791,207.696,150.894z M365.723,99.212
			c-0.268-0.907-0.461-1.844-0.815-2.716c-1.105-2.724-3.82-3.696-6.53-2.209c-2.459,1.349-2.129,3.71-0.995,5.487
			c1.129,1.767,2.555,4.086,4.982,3.937C364.715,103.564,365.15,101.145,365.723,99.212z M299.694,149.689
			c3.483-0.473,4.991-1.991,4.751-4.784c-0.215-2.497-3.19-4.876-5.619-4.541c-3.438,0.474-3.236,3.065-2.871,5.379
			C296.267,147.718,296.434,150.37,299.694,149.689z M301.007,136.408c2.534,0.394,3.358-1.333,3.393-3.466
			c0.046-2.916-2.812-5.725-5.363-5.786c-2.596-0.062-3.48,1.769-3.726,3.661C294.976,133.403,298.218,136.417,301.007,136.408z
			 M298.066,97.528c2.258,0.147,4.571,0.068,4.43-3.542c-0.11-2.835-1.919-4.302-6.137-4.112c-2.147,0.097-3.618,1.541-3.761,3.871
			C292.446,96.226,294.257,97.526,298.066,97.528z M352.382,117.267c-3.139-0.006-5.124,1.439-5.102,3.727
			c0.027,2.792,2.037,4.416,5.648,4.163c2.277-0.159,4.33-1.458,4.119-3.916C356.841,118.815,354.967,117.376,352.382,117.267z
			 M308.415,171.429c-0.078-2.794-2.497-5.334-4.598-5.363c-2.73-0.039-4.729,1.604-4.641,3.817c0.109,2.76,2.506,4.801,5.475,4.756
			C307.168,174.602,308.32,173.295,308.415,171.429z M210.868,144.228c-0.018-2.89-1.452-4.424-4.585-4.556
			c-2.353-0.099-3.519,1.304-3.685,3.188c-0.309,3.492,1.771,6.309,4.198,6.027C209.049,148.625,210.996,147.762,210.868,144.228z
			 M338.229,118.616c-2.654,0.037-4.832,1.591-4.749,3.39c0.098,2.094,3.188,4.41,5.815,4.54c2.729,0.136,3.744-1.686,3.937-3.774
			C343.46,120.272,341.154,118.576,338.229,118.616z M301.021,161.447c2.245,0.019,4.298,0.125,4.162-3.263
			c-0.113-2.827-0.997-4.907-4.702-4.918c-2.421-0.008-3.786,1.561-3.901,3.917C296.449,159.867,298.197,161.431,301.021,161.447z
			 M323.093,119.934c-2.222,0.028-4.151,1.692-4.141,3.571c0.008,1.612,3.288,4.294,5.252,4.296
			c1.844,0.002,4.695-2.342,4.608-3.786C328.683,121.836,325.964,119.897,323.093,119.934z M313.012,123.715
			c0.064-2.044-2.488-4.564-4.631-4.418c-2.767,0.19-3.109,2.754-3.788,4.583c-0.566,1.525,2.549,4.02,4.723,3.759
			C311.441,127.384,313.005,126.176,313.012,123.715z M302.47,78.978c-0.005-2.96-2.039-5.998-3.903-5.724
			c-2.184,0.321-3.785,1.726-3.968,4.105c-0.155,2.037,2.816,4.127,5.396,4.406C302.805,82.069,302.601,80.416,302.47,78.978z
			 M7.667,161.319c0.615-0.721,1.649-1.12,1.56-2.329c-0.076-1.028-0.83-0.73-1.421-0.843c-1.295-0.245-1.471,0.948-1.578,1.568
			C6.104,160.437,7.01,160.912,7.667,161.319z"/>
		<path style="fill-rule:evenodd;clip-rule:evenodd;fill:#7B491E;" d="M68.21,59.673c1.453-2.512-0.732-4.343-1.121-6.485
			c-0.752-4.14-2.583-8.086-3.307-12.228c-0.808-4.623-2.407-9.051-3.061-13.66c-0.361-2.551-1.726-4.833-1.48-7.553
			c0.25-2.762,1.577-4.484,4.053-5.186c2.653-0.752,4.138,0.731,5.26,3.097c3.428,7.228,4.859,15.07,7.247,22.617
			c1.094,3.46,2.667,6.634,5.136,9.44c4.922,5.59,8.529,11.772,9.486,19.492c0.582,4.692,1.651,9.4,2.853,14.046
			c1.198,4.633,2.404,9.343,2.272,14.221c-0.105,3.915,1.25,7.602,1.748,11.421c0.396,3.039,0.754,6.112-2.093,8.294
			c-2.658,2.037-5.028,1.167-7.448-0.714c-3.947-3.066-4.46-7.581-5.368-11.94c-0.917-4.404-0.328-8.917-0.775-13.331
			c-0.375-3.699-1.084-7.525-5.311-9.373c-1.472-0.644-2.677-2.093-3.769-3.375c-3.163-3.709-7.641-4.77-11.307-1.92
			c-2.853,2.216-8.495,1.178-10.629-1.236c-4.735-5.354-10.658-6.29-17.279-4.684c-5.702,1.384-5.551,1.398-6.351,7.69
			c-0.576,4.534,0.273,8.91,0.579,13.364c0.208,3.045-0.369,6.212-1.031,9.228c-0.58,2.641-3.044,4.021-5.377,3.702
			c-2.61-0.357-4.477-2.575-5.278-5.186c-2.219-7.228-1.524-14.253,1.011-21.379c1.223-3.436,0.419-7.304-1.326-10.68
			c-1.979-3.829-2.348-7.882-0.775-11.735c1.839-4.507,2.381-9.042,2.437-13.836c0.07-6.041,1.872-11.97,1.297-18.101
			c-0.233-2.488-1.443-4.956-0.105-7.576c0.724-1.418,1.437-2.213,3.102-2.314c1.997-0.122,2.685,1.438,2.75,2.6
			c0.282,5.074,3.365,9.352,3.729,14.415c0.296,4.116,0.896,8.209-0.319,12.232c-1.171,3.871-0.416,7.796-0.622,11.691
			c-0.104,1.962,1.438,1.419,2.268,1.079c1.291-0.531,2.731-0.738,3.901-1.303c7.728-3.738,14.148-1.346,19.834,4.081
			c2.735,2.611,5.74,2.209,8.899,1.726C64,60.001,65.964,58.679,68.21,59.673z"/>
		<path style="fill-rule:evenodd;clip-rule:evenodd;fill:#7B491E;" d="M72.487,177.25c0-2.736,0.204-4.955-0.049-7.12
			c-0.355-3.039,1.034-4.45,3.689-5.568c2.535-1.068,3.556,0.345,3.513,2.103c-0.152,6.212,1.686,12.457,1.105,18.414
			c-0.767,7.873-1.333,15.882-3.634,23.684c-1.594,5.404-1.942,11.39-1.325,17.147c0.58,5.414-1.312,9.872-4.39,14.006
			c-1.15,1.544-3.192,1.101-3.457-0.815c-0.925-6.702-2.83-13.14-1.104-20.297c1.004-4.166-0.126-9.239-0.351-13.901
			c-0.047-0.993-1.023-1.198-1.991-1.302c-3.83-0.41-7.813,1.056-11.536-1.151c-0.943-0.56-1.462,1.23-1.397,1.651
			c0.843,5.454-2.942,9.729-3.709,14.821c-0.478,3.176,1.109,5.225,1.938,7.69c1.759,5.231,1.97,10.354-0.431,15.384
			c-0.848,1.777-3.146,1.739-4.156-0.206c-1.208-2.325-2.768-4.491-3.097-7.302c-0.453-3.873-3.306-6.847-4.52-10.45
			c-1.309-3.885-1.353-8.073-0.209-11.848c2.275-7.506,4.943-14.809,4.196-22.898c-0.603-6.526,1.099-13.039,0.61-19.599
			c-0.032-0.432-0.121-1.025,0.109-1.286c2.503-2.843,4.031-6.072,4.667-9.845c0.233-1.377,1.987-1.502,3.163-1.278
			c1.896,0.359,3.028,1.96,3.163,3.677c0.213,2.721,0.867,5.749-2.14,7.67c-0.904,0.577-1.28,1.5-1.054,2.558
			c1.382,6.488,0.418,13.052,0.59,19.577c0.058,2.204,1.246,3.137,2.762,4.324c4.224,3.31,9.047,3.403,14.059,3.452
			c1.357,0.013,2.082-0.645,2.136-1.199c0.242-2.463,1.204-4.777,1.745-7.122C72.427,185.695,72.41,181.232,72.487,177.25z"/>
		<path style="fill-rule:evenodd;clip-rule:evenodd;fill:#7B491E;" d="M171.681,109.388c1.327-0.315,2.175,0.618,2.823,1.633
			c3.595,5.639,4.559,11.526,1.378,17.691c-0.361,0.7-0.66,1.338-0.596,2.128c0.668,8.403,1.262,16.813,2.062,25.205
			c0.131,1.374,0.783,2.968,2.917,2.79c3.556-0.296,4.072,3.264,5.917,5.089c0.193,0.191-0.211,3.141-2.531,2.793
			c-2.891-0.435-3.041,1.229-3.16,3.535c-0.26,5.015-1.095,9.938-2.653,14.784c-0.845,2.625-1.641,5.372-0.816,8.459
			c0.98,3.675,0.339,7.543-1.265,11.042c-0.396,0.864-0.947,2.36-2.817,1.892c-1.496-0.375-1.948-0.932-2.375-2.458
			c-0.884-3.163-1.544-6.666-5.287-8.109c-1.065-0.411-1.228-1.554-0.453-2.324c1.469-1.461,0.969-2.87,0.708-4.661
			c-0.528-3.637-0.42-7.45,0.89-10.926c2.562-6.792,2.447-13.253-0.021-20.184c-1.505-4.225-2.096-8.98-0.613-13.8
			c1.395-4.534,0.207-9.391,0.286-14.104c0.018-1.044-0.287-2.12,0.666-3.062c3.826-3.782,3.336-8.006,1.4-12.545
			C166.959,111.486,168.566,109.454,171.681,109.388z"/>
		<path style="fill-rule:evenodd;clip-rule:evenodd;fill:#7B491E;" d="M204.332,206.73c-0.626-2.312,1.194-4.008,1.386-6.228
			c0.682-7.9,1.158-15.809,1.109-23.726c-0.016-2.516,1.584-4.895,0.196-7.582c-0.797-1.544-1.448-2.574-3.256-2.477
			c-0.328,0.018-0.796,0.144-0.966-0.021c-2.916-2.827-5.363-0.94-8.127,0.463c-1.862,0.944-4.003-0.14-5.769-1.088
			c-1.738-0.933-2.325-2.654-1.521-4.489c0.934-2.133,4.301-3.328,6.397-2.373c0.859,0.392,1.557,1.157,2.429,1.487
			c0.333,0.126,0.799,1.078,1.662-0.164c1.385-1.991,6.011-2.044,7.596,0.008c1.354,1.751,2.412,1.423,3.946,0.91
			c2.745-0.918,6.095,1.506,5.187,4.164c-1.051,3.078-0.003,5.872,0.404,8.557c1.146,7.548,0.613,15.061,0.334,22.562
			c-0.097,2.573-1.875,5.079-2.865,7.624c-0.533,1.37-1.003,2.766-1.543,4.133c-0.804,2.031-2.921,2.347-4.369,2.046
			C205.21,210.254,203.803,208.728,204.332,206.73z"/>
		<path style="fill-rule:evenodd;clip-rule:evenodd;fill:#7B491E;" d="M207.418,128.166c-2.609-1.456-4.235-3.224-2.191-6.187
			c0.804-1.164-0.064-1.585-0.78-2.004c-2.278-1.334-2.831-3.234-1.423-5.358c1.526-2.304,3.599-2.292,5.577-0.465
			c1.944,1.796,4.675,3.409,1.854,6.627c-0.741,0.846,0.557,1.218,0.765,1.844c0.637,1.927,2.763,4.024-1.068,5.359
			c-1.665,0.579,0.257,1.497,0.683,2.081c1.875,2.567,1.774,4.79-0.448,6.495c-2.061,1.582-5.523,0.975-6.93-1.367
			c-1.279-2.131-0.275-3.948,1.283-5.447C205.405,129.104,206.366,128.769,207.418,128.166z"/>
		<path style="fill-rule:evenodd;clip-rule:evenodd;fill:#7B491E;" d="M365.073,151.338c0-5.569,1.136-7.19,4.878-7.015
			c2.861,0.134,4.592,1.733,4.965,4.496c0.372,2.764-0.637,5.015-3.699,5.303c-1.658,0.157-1.941,1.212-2.123,2.242
			c-0.199,1.134-0.996,2.19-1.643,2.153c-0.941-0.054-1.402-1.196-1.826-2.264C364.944,154.545,365.184,152.872,365.073,151.338z"/>
		<path style="fill-rule:evenodd;clip-rule:evenodd;fill:#7B491E;" d="M353.211,54.589c-0.009-3.386,1.482-4.492,4.568-3.568
			c0.4,0.12,0.795,0.261,1.192,0.389c4.786,1.545,5.573,2.866,4.009,7.428c-0.483,1.408-1.316,2.648-1.252,4.255
			c0.057,1.42-1.396,1.654-2.295,1.895c-0.572,0.154-1.005-0.897-0.961-1.748c0.104-2.029-1.196-3.141-2.617-4.35
			C354.529,57.763,352.634,56.744,353.211,54.589z"/>
		<path style="fill-rule:evenodd;clip-rule:evenodd;fill:#7B491E;" d="M376.934,186.455c0.007,4.298-1.662,6.591-4.821,6.625
			c-2.627,0.028-4.5-2.422-4.403-5.76c0.124-4.242,1.247-6.108,3.675-6.101C374.802,181.229,376.928,183.236,376.934,186.455z"/>
		<path style="fill-rule:evenodd;clip-rule:evenodd;fill:#7B491E;" d="M371.651,134.818c-0.072,1.688-3.955,4.363-6.128,4.223
			c-2.111-0.137-4.586-3.248-4.401-5.533c0.205-2.542,3.077-5.072,5.683-5.007C369.107,128.559,371.77,132.032,371.651,134.818z"/>
		<path style="fill-rule:evenodd;clip-rule:evenodd;fill:#7B491E;" d="M378.911,168.717c-0.008,2.7-2.384,5.232-4.924,5.245
			c-1.11,0.005-4.789-4.888-4.791-6.373c-0.004-2.101,2.836-5.323,4.723-5.359C376.312,162.184,378.919,165.574,378.911,168.717z"/>
		<path style="fill-rule:evenodd;clip-rule:evenodd;fill:#7B491E;" d="M353.21,77.813c-0.526-2.413,0.715-3.88,3.356-3.97
			c3.104-0.107,5.903,2.833,5.866,5.93c-0.038,3.194-2.289,3.792-4.785,3.896C354.487,83.8,353.213,82.138,353.21,77.813z"/>
		<path style="fill-rule:evenodd;clip-rule:evenodd;fill:#7B491E;" d="M365.344,119.934c-3.07-0.004-5.491-2.263-5.356-4.995
			c0.083-1.684,3.372-4.18,5.575-4.23c2.402-0.056,4.584,2.301,4.738,5.117C370.441,118.379,368.56,119.938,365.344,119.934z"/>
		<path style="fill-rule:evenodd;clip-rule:evenodd;fill:#7B491E;" d="M299.446,123.875c-3.162,0.076-6.109-2.777-6.19-5.508
			c-0.059-1.992,2.13-4.292,4.149-4.363c2.734-0.095,5.801,2.959,5.688,5.896C302.996,122.421,301.411,123.67,299.446,123.875z"/>
		<path style="fill-rule:evenodd;clip-rule:evenodd;fill:#7B491E;" d="M293.241,108.093c0.05-3.967,1.326-5.407,4.46-5.292
			c2.661,0.098,4.704,2.158,4.768,4.807c0.058,2.349-2.806,4.404-6.449,4.384C293.243,111.976,293.126,109.919,293.241,108.093z"/>
		<path style="fill-rule:evenodd;clip-rule:evenodd;fill:#7B491E;" d="M207.696,150.894c2.845-0.104,4.888,1.064,5.729,3.502
			c0.722,2.097-0.708,3.541-2.439,4.643c-2.306,1.467-3.958-0.19-5.404-1.383c-1.154-0.953-2.789-2.165-2.245-4.097
			C203.959,151.339,205.821,150.855,207.696,150.894z"/>
		<path style="fill-rule:evenodd;clip-rule:evenodd;fill:#7B491E;" d="M365.722,99.212c-0.572,1.933-1.007,4.353-3.357,4.498
			c-2.428,0.149-3.854-2.169-4.982-3.937c-1.134-1.777-1.464-4.138,0.995-5.487c2.71-1.486,5.425-0.515,6.53,2.209
			C365.262,97.368,365.456,98.305,365.722,99.212z"/>
		<path style="fill-rule:evenodd;clip-rule:evenodd;fill:#7B491E;" d="M299.694,149.689c-3.26,0.681-3.427-1.971-3.739-3.946
			c-0.365-2.313-0.566-4.905,2.871-5.379c2.429-0.335,5.404,2.044,5.619,4.541C304.685,147.698,303.177,149.216,299.694,149.689z"/>
		<path style="fill-rule:evenodd;clip-rule:evenodd;fill:#7B491E;" d="M301.007,136.408c-2.789,0.009-6.031-3.005-5.696-5.591
			c0.245-1.893,1.13-3.724,3.726-3.661c2.552,0.062,5.409,2.87,5.363,5.786C304.366,135.075,303.542,136.801,301.007,136.408z"/>
		<path style="fill-rule:evenodd;clip-rule:evenodd;fill:#7B491E;" d="M298.066,97.528c-3.809-0.002-5.62-1.302-5.468-3.784
			c0.143-2.33,1.613-3.774,3.761-3.871c4.218-0.19,6.026,1.277,6.137,4.112C302.637,97.597,300.324,97.676,298.066,97.528z"/>
		<path style="fill-rule:evenodd;clip-rule:evenodd;fill:#7B491E;" d="M352.382,117.267c2.585,0.109,4.459,1.548,4.666,3.973
			c0.211,2.458-1.842,3.757-4.119,3.916c-3.611,0.253-5.621-1.371-5.648-4.163C347.258,118.706,349.244,117.26,352.382,117.267z"/>
		<path style="fill-rule:evenodd;clip-rule:evenodd;fill:#7B491E;" d="M308.415,171.429c-0.095,1.866-1.246,3.173-3.764,3.21
			c-2.969,0.045-5.365-1.996-5.475-4.756c-0.089-2.213,1.91-3.856,4.641-3.817C305.917,166.095,308.336,168.635,308.415,171.429z"/>
		<path style="fill-rule:evenodd;clip-rule:evenodd;fill:#7B491E;" d="M210.868,144.228c0.128,3.534-1.818,4.397-4.071,4.66
			c-2.428,0.281-4.507-2.535-4.198-6.027c0.166-1.885,1.332-3.287,3.685-3.188C209.416,139.804,210.85,141.338,210.868,144.228z"/>
		<path style="fill-rule:evenodd;clip-rule:evenodd;fill:#7B491E;" d="M338.229,118.616c2.925-0.04,5.231,1.657,5.003,4.155
			c-0.192,2.089-1.207,3.91-3.937,3.774c-2.628-0.13-5.718-2.445-5.815-4.54C333.397,120.207,335.575,118.652,338.229,118.616z"/>
		<path style="fill-rule:evenodd;clip-rule:evenodd;fill:#7B491E;" d="M301.022,161.448c-2.825-0.017-4.573-1.581-4.442-4.265
			c0.115-2.356,1.48-3.925,3.901-3.917c3.705,0.011,4.589,2.091,4.702,4.918C305.319,161.572,303.266,161.465,301.022,161.448z"/>
		<path style="fill-rule:evenodd;clip-rule:evenodd;fill:#7B491E;" d="M323.093,119.934c2.871-0.037,5.59,1.903,5.72,4.081
			c0.087,1.444-2.765,3.788-4.608,3.786c-1.964-0.002-5.244-2.684-5.252-4.296C318.942,121.625,320.872,119.962,323.093,119.934z"/>
		<path style="fill-rule:evenodd;clip-rule:evenodd;fill:#7B491E;" d="M313.012,123.715c-0.007,2.461-1.571,3.669-3.696,3.923
			c-2.174,0.261-5.289-2.233-4.723-3.759c0.679-1.828,1.021-4.393,3.788-4.583C310.524,119.151,313.077,121.671,313.012,123.715z"/>
		<path style="fill-rule:evenodd;clip-rule:evenodd;fill:#7B491E;" d="M302.47,78.978c0.131,1.438,0.335,3.091-2.475,2.788
			c-2.58-0.279-5.552-2.37-5.396-4.406c0.183-2.38,1.784-3.785,3.968-4.105C300.431,72.98,302.465,76.018,302.47,78.978z"/>
		<path style="fill-rule:evenodd;clip-rule:evenodd;fill:#7B491E;" d="M7.667,161.319c-0.657-0.407-1.564-0.882-1.439-1.604
			c0.107-0.62,0.283-1.813,1.578-1.568c0.591,0.112,1.345-0.186,1.421,0.843C9.317,160.199,8.283,160.598,7.667,161.319z"/>
	</g>
</g>
</svg>
