<?xml version="1.0" encoding="iso-8859-1"?>
<!-- Generator: Adobe Illustrator 16.0.0, SVG Export Plug-In . SVG Version: 6.00 Build 0)  -->
<!DOCTYPE svg PUBLIC "-//W3C//DTD SVG 1.1//EN" "http://www.w3.org/Graphics/SVG/1.1/DTD/svg11.dtd">
<svg version="1.1" id="Layer_1" xmlns="http://www.w3.org/2000/svg" xmlns:xlink="http://www.w3.org/1999/xlink" x="0px" y="0px"
	 width="401.12px" height="142.001px" viewBox="0 0 401.12 142.001" style="enable-background:new 0 0 401.12 142.001;"
	 xml:space="preserve">
<g>
	<g>
		<path style="fill:none;" d="M200.582,141.457c-65.91,0-131.82-0.007-197.73,0.039c-1.727,0.001-2.354-0.185-2.352-2.193
			c0.074-45.56,0.072-91.12,0.004-136.68C0.501,0.781,0.954,0.5,2.679,0.5c131.902,0.047,263.804,0.045,395.706,0.011
			c1.592,0,2.237,0.084,2.234,2.062c-0.081,45.642-0.076,91.285-0.013,136.927c0.002,1.736-0.403,2.001-2.049,2
			C332.566,141.449,266.574,141.457,200.582,141.457z M199.414,84.332c0.998-0.293,1.6-1.157,2.792-1.311
			c1.856-0.239,3.581-0.432,5.462,0.035c2.329,0.577,4.661-0.521,7.04-0.473c1.557,0.03,3.029,0.98,4.571,0.504
			c3.654-1.13,7.399-0.993,11.139-0.949c1.431,0.017,2.671-0.485,3.303-1.664c0.562-1.047,1.181-1.341,2.283-1.352
			c1.259-0.012,1.83-0.856,1.891-2.098c0.061-1.26-0.532-2.204-1.71-2.261c-2.24-0.108-4.381-0.854-6.738-0.366
			c-4.697,0.972-9.325-0.201-13.97-0.964c-3.142-0.516-6.415-1.847-9.388,1.016c-0.774,0.745-2.504,1.398-3.855,0.443
			c-3.824-2.704-8.496-2.326-12.702-2.908c-4.944-0.683-10.102-0.679-15.177-0.771c-5.152-0.093-10.25,0.228-15.424-1.281
			c-5.355-1.562-11.198-0.576-16.759-1.983c-1.863-0.471-3.306-1.725-4.975-1.966c-4.131-0.597-8.23-1.272-12.329-2.074
			c-2.971-0.581-6.1-1.093-8.861-1.949c-3.747-1.161-7.491-1.406-11.158-1.451c-6.426-0.079-12.998-1.073-19.283,1.319
			c-0.143,0.055-0.362,0.066-0.485-0.006c-1.899-1.119-3.767,0.195-5.667,0.143c-1.543-0.042-2.463,1.585-2.624,3.053
			c-0.102,0.927,0.36,2.018,1.691,2.281c4.065,0.804,8.546-0.085,12.083,2.923c0.099,0.084,0.328,0.062,0.483,0.027
			c2.992-0.658,5.696,0.92,8.621,1.081c8.175,0.449,16.279,1.959,24.496,1.843c1.513-0.021,2.185,0.743,3.247,1.869
			c-0.879,0.052-1.447,0.204-1.961,0.098c-4.201-0.868-8.554-1.12-12.731-1.182c-4.593-0.067-9.095-1.329-13.701-0.755
			c-2.687,0.335-5.452-1.218-7.999-0.34c-2.583,0.891-5.109,0.852-7.69,0.837c-5.606-0.03-11.149,0.55-16.668,1.47
			c-0.54,0.09-1.154,0.016-1.678-0.152c-1.447-0.467-2.824-0.369-4.297,0.001c-1.387,0.348-2.896,0.619-4.047-0.807
			c-0.667-0.826-1.71-0.703-2.489-0.322c-2.085,1.019-4.282,0.706-6.456,0.85c-1.254,0.083-1.761-0.416-1.894-1.536
			c-0.35-2.958-2.551-4.079-4.966-4.912c-2.659-0.917-5.542-1.039-8.18-1.724c-4.868-1.264-9.591-2.779-14.66-3.45
			c-3.395-0.449-5.741,0.622-8.234,2.184c-1.406,0.88-2.364,2.302-1.694,3.94c0.508,1.242,1.784,1.844,3.28,2.056
			c1.793,0.255,3.527,0.914,5.292,1.377c0.695,0.184,1.348,0.509,1.135,1.295c-0.145,0.532-0.754,0.81-1.415,0.741
			c-1.005-0.104-1.8,0.305-2.711,0.771c-0.93,0.477-2.023,0.931-3.427,0.422c-2.743-0.993-7.737,3.72-7.127,6.583
			c0.186,0.873,0.216,2.043,1.178,2.538c2.73,1.405,5.335,3.364,8.746,2.091c0.552-0.206,1.251,0.008,1.912,0.169
			c4.788,1.166,9.452,1.362,14.097-1.004c1.755-0.894,3.922-1.157,6.074-1.29c4.567-0.282,8.509,2.548,13.054,2.238
			c0.586-0.04,2.611,1.135,0.514,2.468c-0.911,0.579-1.45,1.438-1.069,2.501c0.344,0.962,1.304,0.795,2.127,0.812
			c0.56,0.014,1.442-0.07,1.625,0.229c1.333,2.183,3.443,1.609,5.401,1.76c2.899,0.221,6.031-1.999,8.733,0.9
			c0.384,0.412,1.588,0.092,2.411,0.059c2.097-0.085,4.189,0.032,6.091-1.301c0.706-0.494,1.859-0.312,2.833,0.122
			c1.918,0.854,3.964,0.873,6.027,0.699c2.236-0.188,3.231-1.87,2.151-3.804c-0.208-0.372-0.411-0.695-0.377-1.117
			c0.224-2.818-1.553-3.426-3.837-3.499c-0.44-0.015-1.057,0.181-1.048-0.888c2.237-0.218,4.604,0.146,6.728-1.06
			c1.44-0.817,2.669-2.407,4.412-2.255c4.996,0.437,10.018,0.832,15.001,1.09c7.496,0.388,14.944,1.864,22.506,1.206
			c1.188-0.104,2.232-0.798,3.551-0.454c3.436,0.896,7.134-0.116,10.531,1.35c0.479,0.207,1.086-0.081,1.647-0.257
			c0.752-0.235,1.678-0.36,2.407-0.137c2.182,0.668,4.266,0.479,6.452-0.022c3.562-0.816,7.243-1.116,10.857-0.908
			c1.528,0.089,3.479-0.638,4.909,1.815c1.064,1.822,4.063,2.912,6.17,3.761c3.951,1.591,8.462,1.646,12.75,2.288
			c2.182,0.327,4.682-1.055,6.553,1.007c1.055,1.162,2.285,1.09,3.562,0.66c1.536-0.516,3.229-0.597,4.598-0.124
			c2.485,0.857,4.99,0.588,7.478,0.875c2.861,0.331,4.592-1.045,5.889-3.356c1.073-1.912,0.434-3.249-1.622-4.157
			c-1.78-0.786-3.589-1.176-5.429-0.878c-2.758,0.447-5.12-1.446-7.843-1.083C200.181,85.621,199.829,84.833,199.414,84.332z
			 M186.138,15.339c-1.304,0.13-2.368-0.156-3.397,0.298c-0.196,0.086-0.68-0.137-0.829-0.354c-0.42-0.613,0.379-0.413,0.561-0.661
			c1.239-1.697,2.854-2.694,5.069-2.74c1.695-0.035,3.362-0.544,3.335-2.684c-0.025-2.002-1.726-2.992-3.983-2.395
			c-0.625,0.166-1.115,0.213-1.575-0.202c-1.557-1.407-3.476-0.962-5.302-1.146c-3.133-0.315-6.162,0.309-9.106,1.084
			c-3.503,0.923-7.192,0.716-10.599,1.962c-1.048,0.383-2.08,1.14-2.005,2.481c0.076,1.376-0.606,1.682-1.799,2.07
			c-2.337,0.762-4.758,0.157-7.146,0.989c-3.592,1.251-7.439,1.681-11.153,2.667c-5.957,1.582-12.219,1.516-18.393,1.626
			c-2.718,0.048-5.459-0.193-8.151,0.078c-1.85,0.187-3.597,0.552-5.457-0.039c-2.179-0.693-4.314-1.816-6.693-1.499
			c-4.318,0.578-8.652,0.503-12.986,0.469c-5.622-0.043-11.239,0.238-16.837-0.904c-3.26-0.665-6.676-0.7-9.523,1.756
			c-0.446,0.384-1.178,0.564-1.793,0.604c-3.941,0.252-7.546,2.316-11.598,2.084c-0.822-0.047-2.072,0.339-2.163,1.542
			c-0.069,0.912-0.551,2.451,0.334,2.684c2.032,0.535,3.134,2.208,4.753,3.208c0.941,0.581,1.237-0.168,1.842-0.29
			c0.917-0.184,1.125-1.59,2.468-1.027c3.939,1.651,8.144,1.186,12.276,1.245c0.702,0.01,1.535-0.337,2.088,0.359
			c1.637,2.059,4.104,1.783,6.249,2.039c7.496,0.895,15.024,1.432,22.588,0.972c0.392-0.024,0.757,0,1.167-0.093
			c5.364-1.215,10.877-1.125,16.306-1.794c0.446-0.055,1.025-0.123,1.066,0.632c0.036,0.646-0.37,0.673-0.874,0.871
			c-1.999,0.783-4.158,1.185-6.179,1.597c-3.065,0.624-5.101,3.296-8.333,3.436c-1.154,0.05-1.775,1.527-1.906,2.824
			c-0.076,0.753,0.247,1.257,0.984,1.487c4.755,1.483,9.517,1.884,14.206-0.175c1.245-0.546,2.338-0.498,3.577-0.093
			c2.78,0.908,6.75,0.19,7.569-1.667c1.76-3.988,5.215-4.621,8.869-4.941c1.634-0.144,2.958-0.667,4.01-1.92
			c1.19-1.418,8.062-3.302,9.544-2.354c2.33,1.49,4.847,0.939,7.142,0.659c5.072-0.62,10.107-1.472,15.241-1.357
			c0.644,0.015,1.243,0.317,1.816,0.441c2.473,0.534,4.895,2.131,7.534,0.834c0.818-0.403,1.606-0.167,2.398-0.291
			c4.433-0.686,8.864,1.491,13.299,0.009c0.148-0.049,0.348-0.055,0.49,0.001c2.975,1.192,5.95,0.025,8.913-0.066
			c2.313-0.072,4.766-0.276,6.871-1.127c2.294-0.929,2.781-0.259,2.726,1.78c-0.025,0.9,0.588,1.469,1.19,1.718
			c1.404,0.58,2.494,1.498,3.467,2.596c0.436,0.493,0.962,0.626,1.545,0.518c2.828-0.523,5.676-0.968,8.467-1.647
			c2.085-0.506,4.243-1.113,4.818-3.704c0.255-1.151,1.296-1.386,2.065-1.006c1.683,0.83,3.168,0.127,4.645-0.333
			c2.651-0.825,5.376-0.977,8.099-1.202c2.069-0.17,4.122-0.235,5.435,1.869c0.211,0.337,0.534,0.59,1.017,0.572
			c2.527-0.094,5.122,0.63,7.561-0.498c1.174-0.543,2.395-0.609,3.578-0.437c3.478,0.505,6.671-1.536,10.129-1.026
			c0.582,0.086,0.929-0.323,1.227-0.687c1.71-2.095,4.018-2.246,6.307-1.629c2.13,0.574,4.292,0.58,6.28,0.141
			c1.303-0.288,1.194-2.593,2.059-3.553c1.494-1.659,0.272-3.113-0.533-3.41c-2.211-0.815-4.479-1.814-6.938-1.713
			c-3.223,0.132-6.507-0.993-9.671,0.462c-0.203,0.093-0.532,0.09-0.729-0.011c-3.574-1.83-7.401-0.698-11.106-0.927
			c-1.612-0.1-3.303-0.389-4.878,0.21c-2.51,0.955-5.132,0.579-7.669,0.55c-2.047-0.023-4.112-0.726-6.211-0.79
			c-2.208-0.067-3.025-1.21-1.68-2.904c1.679-2.114,3.582-4.184,6.573-4.524c1.488-0.169,2.412-1.044,2.509-2.5
			c0.098-1.48-0.197-3.06-1.947-3.359c-1.578-0.271-3.375-0.448-4.768,0.481c-1.899,1.268-3.951,1.24-6.058,1.473
			c-2.91,0.322-5.945,0.472-8.393,2.426c-1.62,1.294-3.257,2.39-5.491,1.99c-0.981-0.175-1.524,0.587-1.888,1.298
			c-0.232,0.455-0.368,1.3,0.194,1.56c0.875,0.403,1.567,0.923,1.04,1.809c-0.557,0.934-1.34,1.598-2.685,1.817
			c-4.312,0.701-8.931-0.216-12.917,2.344c-0.318,0.205-1.143,0.124-1.382-0.141c-0.854-0.948-1.928-0.663-2.954-0.827
			c-1.084-0.173-2.476-0.313-3.111-1.023c-1.733-1.936-3.909-1.667-6.091-1.959C191.662,13.918,188.953,16.131,186.138,15.339z
			 M271.253,119.191c-1.723,0-3.57,0.414-5.136-0.075c-5.358-1.673-10.827-1.828-16.35-1.915c-4.739-0.073-9.533,0.63-14.206-0.506
			c-3.027-0.736-5.932-0.184-8.9,0.123c-1.456,0.15-2.911,0.121-4.06-1.235c-3.278-3.866-4.57-4.247-9.084-2.268
			c-2.27,0.995-5.024,0.129-6.793,1.174c-2.941,1.74-6.069,2.073-9.151,2.525c-3.217,0.471-6.844,0.945-9.767-0.078
			c-3.705-1.297-7.168-2.262-11.077-1.73c-1.561,0.211-2.623,0.764-3.663,1.964c-1.164,1.344-2.2,2.402-4.732,2.289
			c-4.096-0.185-8.003-1.063-11.923-1.834c-3.327-0.654-6.881,0.034-9.972-1.465c-2.418-1.173-4.596-0.737-6.528,0.479
			c-3.235,2.037-6.688,2.078-10.294,2.14c-2.797,0.048-4.665-1.286-6.443-3.075c-0.454-0.456-0.808-1.068-1.341-1.378
			c-2.683-1.558-5.703-1.504-8.639-1.431c-1.4,0.035-2.61,1.347-3.116,2.513c-0.474,1.092-1.149,2.926,1.327,3.348
			c1.992,0.34,3.639,2.524,6.007,0.989c0.479-0.311,0.791,0.243,0.833,0.841c0.062,0.889-0.323,1.199-1.145,1.091
			c-2.26-0.298-4.259,0.479-6.196,1.498c-1.417,0.747-1.722,2.25-1.994,3.551c-0.289,1.383,1.266,1.355,2.099,1.892
			c2.553,1.646,5.536,1.427,8.038,0.822c5.784-1.399,11.492,0.134,17.21-0.319c0.287-0.022,0.586,0.246,0.894,0.316
			c2.884,0.665,5.261,2.549,8.131,3.3c2.985,0.781,4.251,0.043,4.609-3.006c0.13-1.111,0.287-2.415,1.699-2.58
			c5.455-0.64,10.954-1.679,16.152,1.236c0.391,0.219,1.126,0.368,1.4,0.157c1.388-1.067,3.101-0.763,4.616-1.247
			c3.667-1.172,7.536-1.061,11.176-0.524c4.607,0.68,8.926,0.604,13.286-1.022c0.765-0.285,1.774-0.413,2.786,0.61
			c2.371,2.401,5.692,3.215,8.758,2.232c1.816-0.582,3.521-1.104,5.343-0.945c3.458,0.301,6.695-1.2,10.281-0.705
			c3.152,0.435,3.284-0.023,4.147,3.288c0.513,1.963,1.798,3.433,3.934,4.148c1.849,0.62,2.45-0.782,3.472-1.605
			c1.167-0.939,2.026-2.098,2.389-3.547c0.337-1.347,1.124-1.639,2.452-1.659c2.704-0.042,5.361,0.452,8.034,0.646
			c3.429,0.25,6.847,0.329,10.274,0.406c1.339,0.029,1.874,0.75,0.866,1.838c-1.854,2.006-2.195,4.562-2.757,7.036
			c-0.249,1.102,0.198,2.17,1.11,2.78c0.846,0.565,1.663,0.126,2.39-0.576c1.997-1.933,4.443-3.255,6.736-4.78
			c0.949-0.632,2.116-1.128,2.278-2.337c0.345-2.567,2.233-3.271,4.273-3.729c1.721-0.388,3.55-0.936,5.235-0.708
			c2.959,0.399,5.781,1.465,8.682-0.446c0.84-0.553,1.916-0.843,1.816-1.906c-0.104-1.104-0.824-1.995-1.893-2.643
			c-2.092-1.268-4.354-0.932-6.588-0.972c-2.989-0.054-4.564-2.289-3.374-5.07c0.535-1.248,0.188-1.731-0.9-2.08
			c-0.833-0.268-1.659-0.683-2.51-0.744c-1.707-0.124-3.75-0.647-5.024,0.496c-1.488,1.335,0.402,2.728,0.818,4.097
			C271.273,118.951,271.253,119.039,271.253,119.191z M375.286,45.58c-1.078,2.005-0.09,3.199,1.228,4.362
			c0.916,0.809,1.681,0.553,2.648,0.089c1.705-0.816,1.965-1.904,1.174-3.542c-0.327-0.679,0.243-0.905,0.946-0.975
			c2.352-0.233,2.662-2.048,2.89-4.092c0.381,0.316,0.644,0.643,0.983,0.795c0.816,0.368,1.596,1.435,2.575,0.507
			c0.893-0.846,0.698-2.114,0.237-2.974c-0.406-0.758-0.959-2.32-2.259-1.574c-1.593,0.914-2.99,1.811-4.792,0.595
			c-0.14-0.093-0.584,0.205-0.852,0.375c-1.526,0.97-1.613,2.421-1.022,3.871c0.601,1.471-0.654,1.534-1.304,1.722
			c-0.463,0.134-0.7-0.611-0.618-1.243c0.182-1.399-0.882-2.087-1.901-2.326c-0.846-0.198-1.525-0.406-2.094-1.05
			c-0.704-0.799-1.348-0.613-2.096,0.052c-0.722,0.642-0.644,1.178-0.151,1.868c0.604,0.846,1.164,1.726,1.281,2.855
			c-0.575,0.383-1.543-0.124-2.104,0.714c-0.707,1.055-1.435-0.412-2.187-0.057c-0.619,0.292-1.308,0.763-1.338,1.336
			c-0.062,1.202,0.305,2.378,1.283,3.231c1.002,0.874,1.613,0.1,2.26-0.55c0.335-0.337,0.603-0.61,1.244-0.438
			c0.882,0.237,1.692-0.465,1.959-1.136c0.285-0.72,0.376-1.736-0.907-2.416C373.532,45.58,374.263,45.58,375.286,45.58z
			 M354.081,31.078c0,1.421,0.021,2.476-0.006,3.529c-0.027,1.078,0.628,1.874,1.5,1.957c2.396,0.228,1.496,1.722,1.32,2.965
			c-0.268,1.896-0.573,3.785-0.824,5.682c-0.088,0.66,0.323,1.081,0.914,1.284c1.598,0.548,4.595-2.006,3.918-3.524
			c-0.887-1.988-0.17-3.429,0.903-4.871c0.469-0.63,0.98-1.141,0.458-1.93c-1.998-3.015-3.938-6.109-7.857-6.942
			c-0.417-0.089-0.819-0.086-0.813-0.651c0.02-1.886-1.69-2.349-2.674-3.448c-0.854-0.954-1.57-1.25-2.341-0.453
			c-0.789,0.815-0.777,1.971,0.117,2.842c0.885,0.861,1.584,1.801,2.023,2.97C351.36,32.193,352.337,33.009,354.081,31.078z
			 M294.679,50.821c-0.726-0.236-1.206-0.676-1.403-1.325c-0.656-2.161-2.179-2.319-4.102-2.037
			c-0.739,0.109-1.374,0.563-2.083,0.523c-1.371-0.076-1.644,0.879-1.702,1.836c-0.068,1.089-0.671,2.327,0.73,3.182
			c1.036,0.631,1.966,0.743,2.889-0.031c0.562-0.471,1.068-0.728,1.708-0.288c0.296,1.077-1.784,1.824-0.387,2.998
			c0.727,0.61,1.158,1.893,2.266,1.664c1.467-0.303,2.29-1.862,2.512-2.958c0.449-2.225,1.242-1.757,2.743-1.141
			c1.027,0.421,2.423,0.742,3.306-0.639c0.966-1.511,0.616-4.407-0.738-5.6c-1.779-1.565-2.882-0.343-4.404,0.715
			C294.706,48.631,294.806,49.644,294.679,50.821z M322.544,97.242c2.091-1.515,2.445-4.1,0.878-5.966
			c-1.277-1.521-2.875-1.414-4.285-0.526c-1.298,0.817-0.66,2.126-0.17,3.263c0.458,1.062,1.12,1.959,1.996,2.705
			c0.4,0.34,1.58,0.376,0.629,1.256c-0.393,0.364-0.804,1.244-1.804,0.239c-0.718-0.722-1.766-1.206-2.407-2.114
			c-0.578-0.817-1.437-0.62-2.239-0.608c-0.562,0.009-0.525,0.431-0.631,0.838c-0.658,2.545,3.2,5.346,4.978,4.467
			c0.802-0.396,1.056-0.323,1.77-0.019c0.751,0.32,2.033,0.564,2.509-0.184c0.465-0.731,0.394-1.902-0.554-2.634
			C322.959,97.763,322.768,97.485,322.544,97.242z M284.337,51.038c0.153-1.104,0.092-2.182-1.006-2.78
			c-1.283-0.7-2.048,0.382-2.938,0.996c-0.965,0.664-2.257,1.954-3.117,1.151c-2.264-2.115-3.796-0.604-5.606,0.493
			c-1.22,0.739-0.753,1.763-0.375,2.475c0.337,0.634,1.174,1.389,2.111,0.435c0.677-0.69,1.684-0.553,2.305-0.296
			c2.257,0.934,4.29,0.786,6.655,0.081C284.055,53.089,284.549,52.574,284.337,51.038z M290.184,84.596
			c-1.808-0.43-2.649,0.677-2.851,2.456c-0.143,1.26-2.158,1.908-1.255,3.362c0.847,1.363,2.542,0.532,3.838,0.982
			c2.409,0.837,4.652-0.663,5.005-2.786C295.088,87.603,291.711,84.606,290.184,84.596z M314.44,90.036c0.164,0,0.329-0.001,0.493,0
			c2.004,0.004,3.43-0.907,4.011-2.825c0.354-1.173-0.28-2.421-1.366-2.505c-2.399-0.186-4.826-2.632-7.235-0.102
			c-0.193,0.203-0.222,0.596-0.26,0.909C309.827,87.642,312.313,90.213,314.44,90.036z M354.087,82.249
			c-0.142,1.372,0.325,2.609,0.744,3.789c0.489,1.374,1.705,1.893,3.098,1.336c1.428-0.569,2.737-2.41,2.379-3.172
			c-0.869-1.847-0.936-4.226-2.864-5.495c-0.267-0.175-0.944-0.119-1.164,0.099C355.29,79.791,353.709,80.451,354.087,82.249z
			 M329.472,89.077c1.648-0.182,2.988-0.965,4.194-2.082c0.868-0.804,0.83-1.788,0.473-2.679c-0.436-1.08-1.666-0.936-2.36-0.621
			c-1.371,0.622-2.739,0.494-4.06,0.297c-0.916-0.137-1.632-0.001-2.052,0.648c-0.488,0.757-0.536,1.738,0.089,2.496
			C326.701,88.281,327.811,89.212,329.472,89.077z M362.979,40.401c0,0.9,0.032,1.803-0.007,2.702
			c-0.067,1.518,0.152,2.955,2.051,2.883c1.89-0.07,2.9-1.946,2.651-3.169c-0.399-1.952-1.002-3.946-1.642-5.886
			c-0.312-0.943-1.101-1.297-1.811-1.176c-0.879,0.151-1.461,0.817-1.271,1.948C363.096,38.58,362.979,39.5,362.979,40.401z
			 M311.034,45.032c2.606,0.22,3.79-0.805,2.885-2.554c-0.586-1.133-1.419-2.386-3.092-2.406c-0.569-0.007-1.336,0.412-1.719-0.428
			c-0.452-0.996-1.217-1.536-2.047-0.645c-0.635,0.68-1.412,1.548-0.571,2.767C307.665,43.469,308.541,45.477,311.034,45.032z
			 M304.548,45.06c-0.968,0.478-1.341,1.488-1.385,2.636c-0.078,2.07,1.872,5.188,3.192,5.192c0.951,0.003,3.219-2.562,3.22-3.642
			C309.577,48.027,306.263,45.142,304.548,45.06z M388.204,77.572c-0.037-3.056-1.682-4.809-3.781-4.86
			c-1.282-0.031-2.473,0.259-2.569,1.621c-0.154,2.191,1.809,4.83,3.321,4.818C386.725,79.138,388.114,78.856,388.204,77.572z
			 M344.399,89.047c1.382,0.016,2.426-0.921,2.577-2.613c0.103-1.153-0.312-2.274-1.738-2.298c-0.887-0.016-1.532-0.479-1.769-1.08
			c-0.361-0.92-0.941-1.049-1.689-0.896c-0.765,0.155-1.279,0.729-1.514,1.443C339.707,85.313,342.551,89.024,344.399,89.047z
			 M398.134,83.212c-0.046-2.287-0.92-3.907-1.789-5.501c-0.457-0.838-1.296-1.284-2.28-0.984c-1.16,0.353-1.081,1.414-0.879,2.238
			c0.358,1.46,0.896,2.854,1.094,4.382c0.138,1.07,0.964,2.154,2.229,1.996C397.805,85.18,398.399,84.196,398.134,83.212z
			 M318.989,38.333c-0.207-2.367-1.764-3.344-3.867-3.884c-0.781-0.2-1.495-0.708-2.072,0.233c-0.522,0.853-0.881,1.718-0.057,2.646
			c0.764,0.858,1.427,1.807,2.191,2.665c0.521,0.584,1.107,1.522,1.983,0.991C318.083,40.429,319.157,39.756,318.989,38.333z
			 M337.045,40.195c-1.185,0.105-2.06,2.366-1.309,3.533c0.779,1.212,1.794,2.302,2.396,3.589c0.49,1.048,1.151,1.37,2.097,1.145
			c1.209-0.286,1.543-1.38,1.683-2.43c0.12-0.899-0.248-1.751-1.232-1.944c-1.353-0.266-1.956-0.995-1.946-2.352
			C338.741,40.653,337.622,40.708,337.045,40.195z M394.073,40.472c0.427-1.666-0.587-2.619-1.74-3.221
			c-1.329-0.693-2.342,0.533-3.152,1.26c-0.861,0.774-1.017,1.972,0.318,2.796c0.179,0.111,0.211,0.612,0.164,0.909
			c-0.17,1.076,0.418,1.878,1.231,2.184c0.916,0.344,1.665-0.665,2.117-1.214C393.602,42.467,394.636,41.667,394.073,40.472z
			 M388.259,47.809c-0.301-1.479-0.631-2.993-2.397-3.214c-1.429-0.178-3.587,2.247-3.592,3.826c-0.009,2.466,2.24,2.27,3.538,2.418
			C387.539,51.037,387.916,49.248,388.259,47.809z M327.873,49.319c0.016-1.923-1.856-4.801-3.028-4.744
			c-0.971,0.048-3.358,2.559-3.396,3.573c-0.066,1.729,1.466,2.386,5.208,2.353C327.619,50.493,328.044,50.213,327.873,49.319z
			 M332.452,82.123c2.456,0.167,3.066-1.356,3.319-3.162c0.171-1.216-0.39-1.919-1.676-1.771c-1.916,0.223-4.15-0.213-5.188,2.086
			c-0.279,0.621,0.269,1.416,0.7,1.68C330.516,81.511,331.296,82.623,332.452,82.123z M315.949,50.975
			c3.065,0.012,4.041-0.698,4.017-2.757c-0.019-1.558-1-2.453-2.333-2.617c-1.568-0.192-4.139,2.179-4.091,3.485
			C313.605,50.815,314.655,51.21,315.949,50.975z M366.654,87.068c1.359,0.018,3.29-1.788,3.245-3.035
			c-0.034-0.978-2.328-3.483-3.211-3.374c-3.777,0.471-0.507,3.397-1.635,4.958C364.472,86.422,365.572,87.141,366.654,87.068z
			 M386.7,80.655c-1.004,0.085-2.761-0.473-2.915,1.699c-0.075,1.055,2.469,3.277,3.424,3.204c0.772-0.06,3.069-2.784,2.954-3.575
			C389.854,79.871,388.275,80.636,386.7,80.655z M304.195,90.04c0.988,0.068,1.939-0.039,1.941-1.6
			c0.003-1.876-2.95-4.249-4.769-3.866c-0.863,0.182-0.989,0.924-1.087,1.375C299.964,87.403,302.448,89.996,304.195,90.04z
			 M354.077,42.93c0.009-1.87,0.117-3.908-2.152-4.109c-1.517-0.135-1.921,1.279-1.827,2.763c0.112,1.788,1.593,4.09,2.806,3.923
			C354.662,45.265,353.885,43.793,354.077,42.93z M384.565,91.013c1.654,0.404,2.413-0.987,2.531-2.068
			c0.197-1.785-1.787-1.818-2.899-2.271c-1.021-0.415-2.489-0.825-3.321,0.659c-0.107,0.192-0.171,0.563-0.063,0.696
			C381.826,89.28,382.246,91.285,384.565,91.013z M376.073,80.677c-1.468-0.127-2.218,0.173-2.231,1.531
			c-0.017,1.51,1.571,3.979,2.707,3.834c1.447-0.185,2.508-1.492,2.483-2.597C378.994,81.722,377.25,81.125,376.073,80.677z
			 M289.329,55.642c-0.033-0.445,0.027-0.855-0.083-0.909c-1.269-0.613-2.525-0.394-3.663,0.313
			c-1.39,0.863-1.149,2.239-0.461,3.263c0.586,0.871,1.328,2.059,2.78,1.691c0.274-0.069,0.706-0.48,0.671-0.655
			C288.292,57.931,288.558,56.649,289.329,55.642z M332.657,48.511c1.189-0.009,1.584-1.189,1.002-2.142
			c-0.809-1.32-2.046-2.44-3.298-3.38c-0.32-0.24-1.918-0.515-2.005,1.051C328.281,45.378,330.932,48.466,332.657,48.511z
			 M281.709,56.857c-2.044,0.095-2.813,0.805-2.787,2.318c0.025,1.516,0.802,2.191,2.29,2.19c1.46-0.001,2.499-0.977,2.506-2.107
			C283.727,57.98,282.89,56.705,281.709,56.857z M347.805,47.025c0.649-0.285,1.844-0.092,1.823-1.526
			c-0.014-0.989-2.281-3.399-3.207-3.427c-0.91-0.028-1.664,0.142-1.726,1.247C344.613,44.823,346.319,46.972,347.805,47.025z
			 M268.735,54.363c1.646-0.964,1.674-2.447,0.995-3.84c-0.466-0.958-1.571-1.745-2.485-0.418
			C265.878,52.088,267.57,53.173,268.735,54.363z"/>
		<path style="fill-rule:evenodd;clip-rule:evenodd;fill:#7B491E;" d="M199.414,84.332c0.415,0.501,0.767,1.289,1.423,1.202
			c2.723-0.363,5.085,1.53,7.843,1.083c1.84-0.298,3.648,0.092,5.429,0.878c2.056,0.908,2.695,2.245,1.622,4.157
			c-1.297,2.312-3.027,3.688-5.889,3.356c-2.487-0.287-4.992-0.018-7.478-0.875c-1.368-0.473-3.062-0.392-4.598,0.124
			c-1.277,0.43-2.507,0.502-3.562-0.66c-1.871-2.062-4.371-0.68-6.553-1.007c-4.288-0.642-8.799-0.697-12.75-2.288
			c-2.107-0.849-5.106-1.938-6.17-3.761c-1.431-2.453-3.381-1.727-4.909-1.815c-3.614-0.208-7.296,0.092-10.857,0.908
			c-2.187,0.502-4.271,0.69-6.452,0.022c-0.729-0.224-1.655-0.099-2.407,0.137c-0.562,0.176-1.168,0.464-1.647,0.257
			c-3.397-1.466-7.095-0.453-10.531-1.35c-1.318-0.344-2.362,0.351-3.551,0.454c-7.562,0.658-15.01-0.818-22.506-1.206
			c-4.983-0.258-10.005-0.653-15.001-1.09c-1.743-0.152-2.972,1.438-4.412,2.255c-2.124,1.206-4.491,0.842-6.728,1.06
			c-0.009,1.068,0.608,0.873,1.048,0.888c2.285,0.073,4.061,0.681,3.837,3.499c-0.033,0.422,0.169,0.745,0.377,1.117
			c1.081,1.934,0.085,3.616-2.151,3.804c-2.063,0.174-4.108,0.155-6.027-0.699c-0.974-0.434-2.127-0.616-2.833-0.122
			c-1.902,1.333-3.995,1.216-6.091,1.301c-0.822,0.033-2.026,0.354-2.411-0.059c-2.702-2.899-5.834-0.68-8.733-0.9
			c-1.958-0.15-4.067,0.423-5.401-1.76c-0.183-0.3-1.065-0.216-1.625-0.229c-0.823-0.018-1.783,0.149-2.127-0.812
			c-0.381-1.063,0.158-1.922,1.069-2.501c2.097-1.333,0.072-2.508-0.514-2.468c-4.545,0.31-8.487-2.521-13.054-2.238
			c-2.152,0.133-4.318,0.396-6.074,1.29c-4.646,2.366-9.309,2.17-14.097,1.004c-0.66-0.161-1.359-0.375-1.912-0.169
			c-3.411,1.273-6.016-0.686-8.746-2.091c-0.962-0.495-0.992-1.665-1.178-2.538c-0.61-2.863,4.384-7.576,7.127-6.583
			c1.404,0.509,2.498,0.055,3.427-0.422c0.911-0.466,1.706-0.874,2.711-0.771c0.661,0.068,1.27-0.209,1.415-0.741
			c0.213-0.786-0.44-1.111-1.135-1.295c-1.765-0.463-3.499-1.122-5.292-1.377c-1.496-0.212-2.772-0.814-3.28-2.056
			c-0.67-1.639,0.288-3.06,1.694-3.94c2.494-1.562,4.839-2.633,8.234-2.184c5.069,0.671,9.792,2.187,14.66,3.45
			c2.638,0.685,5.521,0.807,8.18,1.724c2.415,0.833,4.616,1.954,4.966,4.912c0.133,1.12,0.64,1.619,1.894,1.536
			c2.173-0.144,4.371,0.169,6.456-0.85c0.779-0.381,1.822-0.504,2.489,0.322c1.151,1.426,2.66,1.154,4.047,0.807
			c1.473-0.37,2.85-0.468,4.297-0.001c0.524,0.168,1.139,0.242,1.678,0.152c5.52-0.92,11.062-1.5,16.668-1.47
			c2.581,0.015,5.106,0.054,7.69-0.837c2.547-0.878,5.312,0.675,7.999,0.34c4.606-0.574,9.107,0.688,13.701,0.755
			c4.178,0.062,8.531,0.313,12.731,1.182c0.514,0.106,1.083-0.046,1.961-0.098c-1.062-1.126-1.734-1.891-3.247-1.869
			c-8.216,0.116-16.32-1.394-24.496-1.843c-2.924-0.161-5.629-1.739-8.621-1.081c-0.155,0.035-0.385,0.057-0.483-0.027
			c-3.536-3.008-8.017-2.119-12.083-2.923c-1.331-0.263-1.793-1.354-1.691-2.281c0.161-1.468,1.081-3.096,2.624-3.053
			c1.901,0.052,3.768-1.262,5.667-0.143c0.123,0.072,0.342,0.061,0.485,0.006c6.285-2.393,12.857-1.398,19.283-1.319
			c3.667,0.045,7.411,0.29,11.158,1.451c2.761,0.856,5.89,1.368,8.861,1.949c4.099,0.802,8.198,1.477,12.329,2.074
			c1.669,0.241,3.112,1.495,4.975,1.966c5.562,1.408,11.404,0.421,16.759,1.983c5.175,1.509,10.272,1.188,15.424,1.281
			c5.075,0.092,10.233,0.088,15.177,0.771c4.207,0.582,8.878,0.204,12.702,2.908c1.352,0.955,3.081,0.302,3.855-0.443
			c2.973-2.862,6.246-1.531,9.388-1.016c4.645,0.763,9.272,1.936,13.97,0.964c2.357-0.487,4.498,0.258,6.738,0.366
			c1.178,0.057,1.771,1.001,1.71,2.261c-0.061,1.241-0.632,2.086-1.891,2.098c-1.103,0.011-1.722,0.305-2.283,1.352
			c-0.632,1.179-1.872,1.681-3.303,1.664c-3.739-0.044-7.484-0.181-11.139,0.949c-1.542,0.477-3.015-0.474-4.571-0.504
			c-2.379-0.048-4.711,1.05-7.04,0.473c-1.881-0.467-3.605-0.274-5.462-0.035C201.014,83.175,200.412,84.039,199.414,84.332z
			 M52.065,88.54c-0.228-0.189-0.38-0.417-0.534-0.418c-0.167-0.002-0.447,0.182-0.481,0.33c-0.081,0.346,0.115,0.613,0.5,0.539
			C51.718,88.96,51.849,88.738,52.065,88.54z"/>
		<path style="fill-rule:evenodd;clip-rule:evenodd;fill:#7B491E;" d="M186.138,15.339c2.815,0.792,5.524-1.42,8.617-1.005
			c2.182,0.292,4.358,0.023,6.091,1.959c0.636,0.71,2.027,0.851,3.111,1.023c1.026,0.164,2.1-0.121,2.954,0.827
			c0.239,0.265,1.063,0.346,1.382,0.141c3.986-2.56,8.605-1.644,12.917-2.344c1.345-0.219,2.128-0.883,2.685-1.817
			c0.527-0.886-0.165-1.406-1.04-1.809c-0.562-0.259-0.427-1.105-0.194-1.56c0.363-0.71,0.906-1.473,1.888-1.298
			c2.234,0.399,3.871-0.696,5.491-1.99c2.447-1.955,5.482-2.104,8.393-2.426c2.106-0.233,4.158-0.206,6.058-1.473
			c1.393-0.93,3.189-0.752,4.768-0.481c1.75,0.299,2.045,1.879,1.947,3.359c-0.097,1.456-1.021,2.33-2.509,2.5
			c-2.991,0.341-4.895,2.41-6.573,4.524c-1.346,1.694-0.528,2.837,1.68,2.904c2.099,0.064,4.164,0.766,6.211,0.79
			c2.537,0.029,5.159,0.405,7.669-0.55c1.575-0.599,3.266-0.31,4.878-0.21c3.705,0.229,7.532-0.903,11.106,0.927
			c0.197,0.101,0.526,0.104,0.729,0.011c3.164-1.455,6.448-0.33,9.671-0.462c2.459-0.101,4.728,0.898,6.938,1.713
			c0.806,0.297,2.027,1.75,0.533,3.41c-0.864,0.959-0.756,3.265-2.059,3.553c-1.988,0.439-4.15,0.433-6.28-0.141
			c-2.289-0.617-4.597-0.466-6.307,1.629c-0.298,0.364-0.645,0.773-1.227,0.687c-3.458-0.51-6.651,1.531-10.129,1.026
			c-1.184-0.172-2.404-0.106-3.578,0.437c-2.438,1.128-5.033,0.404-7.561,0.498c-0.482,0.018-0.806-0.235-1.017-0.572
			c-1.312-2.104-3.365-2.04-5.435-1.869c-2.723,0.225-5.447,0.377-8.099,1.202c-1.477,0.46-2.962,1.163-4.645,0.333
			c-0.77-0.38-1.811-0.145-2.065,1.006c-0.575,2.591-2.733,3.197-4.818,3.704c-2.791,0.679-5.639,1.124-8.467,1.647
			c-0.583,0.108-1.109-0.025-1.545-0.518c-0.973-1.099-2.062-2.016-3.467-2.596c-0.603-0.249-1.216-0.818-1.19-1.718
			c0.056-2.039-0.432-2.708-2.726-1.78c-2.105,0.852-4.558,1.056-6.871,1.127c-2.963,0.091-5.938,1.258-8.913,0.066
			c-0.142-0.057-0.341-0.051-0.49-0.001c-4.435,1.482-8.867-0.695-13.299-0.009c-0.792,0.124-1.58-0.112-2.398,0.291
			c-2.639,1.297-5.062-0.3-7.534-0.834c-0.573-0.124-1.172-0.426-1.816-0.441c-5.134-0.115-10.169,0.737-15.241,1.357
			c-2.295,0.28-4.812,0.832-7.142-0.659c-1.482-0.948-8.354,0.936-9.544,2.354c-1.052,1.253-2.376,1.776-4.01,1.92
			c-3.654,0.32-7.109,0.953-8.869,4.941c-0.819,1.857-4.789,2.575-7.569,1.667c-1.239-0.405-2.333-0.453-3.577,0.093
			c-4.689,2.059-9.451,1.658-14.206,0.175c-0.737-0.229-1.06-0.734-0.984-1.487c0.13-1.297,0.751-2.774,1.906-2.824
			c3.232-0.14,5.267-2.812,8.333-3.436c2.021-0.412,4.181-0.814,6.179-1.597c0.504-0.198,0.91-0.225,0.874-0.871
			c-0.041-0.755-0.62-0.688-1.066-0.632c-5.429,0.669-10.942,0.579-16.306,1.794c-0.41,0.093-0.775,0.069-1.167,0.093
			c-7.563,0.46-15.092-0.077-22.588-0.972c-2.145-0.256-4.612,0.02-6.249-2.039c-0.553-0.696-1.386-0.35-2.088-0.359
			c-4.132-0.059-8.336,0.406-12.276-1.245c-1.344-0.563-1.551,0.843-2.468,1.027c-0.605,0.121-0.901,0.871-1.842,0.29
			c-1.619-0.999-2.721-2.672-4.753-3.208c-0.886-0.233-0.403-1.772-0.334-2.684c0.091-1.204,1.341-1.589,2.163-1.542
			c4.052,0.231,7.657-1.832,11.598-2.084c0.615-0.04,1.347-0.22,1.793-0.604c2.848-2.456,6.263-2.421,9.523-1.756
			c5.598,1.143,11.215,0.861,16.837,0.904c4.333,0.034,8.667,0.108,12.986-0.469c2.379-0.318,4.515,0.805,6.693,1.499
			c1.86,0.591,3.607,0.226,5.457,0.039c2.692-0.271,5.433-0.03,8.151-0.078c6.173-0.11,12.436-0.045,18.393-1.626
			c3.713-0.986,7.561-1.415,11.153-2.667c2.388-0.832,4.81-0.227,7.146-0.989c1.192-0.389,1.875-0.694,1.799-2.07
			c-0.075-1.341,0.957-2.098,2.005-2.481c3.406-1.247,7.096-1.039,10.599-1.962c2.944-0.775,5.973-1.399,9.106-1.084
			c1.826,0.184,3.745-0.261,5.302,1.146c0.46,0.415,0.949,0.367,1.575,0.202c2.257-0.597,3.958,0.393,3.983,2.395
			c0.027,2.14-1.64,2.649-3.335,2.684c-2.215,0.046-3.83,1.043-5.069,2.74c-0.182,0.248-0.981,0.048-0.561,0.661
			c0.149,0.218,0.633,0.44,0.829,0.354C183.77,15.183,184.833,15.469,186.138,15.339z"/>
		<path style="fill-rule:evenodd;clip-rule:evenodd;fill:#7B491E;" d="M271.253,119.191c0-0.152,0.02-0.24-0.003-0.316
			c-0.416-1.369-2.307-2.762-0.818-4.097c1.274-1.144,3.317-0.62,5.024-0.496c0.851,0.062,1.677,0.477,2.51,0.744
			c1.088,0.349,1.436,0.832,0.9,2.08c-1.19,2.781,0.385,5.017,3.374,5.07c2.233,0.04,4.496-0.296,6.588,0.972
			c1.068,0.647,1.789,1.538,1.893,2.643c0.1,1.063-0.977,1.354-1.816,1.906c-2.9,1.911-5.723,0.846-8.682,0.446
			c-1.686-0.228-3.515,0.32-5.235,0.708c-2.04,0.459-3.929,1.162-4.273,3.729c-0.162,1.209-1.329,1.705-2.278,2.337
			c-2.293,1.525-4.739,2.848-6.736,4.78c-0.727,0.702-1.544,1.142-2.39,0.576c-0.912-0.61-1.359-1.679-1.11-2.78
			c0.562-2.474,0.902-5.03,2.757-7.036c1.008-1.088,0.473-1.809-0.866-1.838c-3.428-0.077-6.846-0.156-10.274-0.406
			c-2.673-0.194-5.33-0.688-8.034-0.646c-1.328,0.021-2.115,0.312-2.452,1.659c-0.362,1.449-1.222,2.607-2.389,3.547
			c-1.021,0.823-1.623,2.226-3.472,1.605c-2.136-0.716-3.421-2.186-3.934-4.148c-0.863-3.312-0.995-2.854-4.147-3.288
			c-3.586-0.495-6.823,1.006-10.281,0.705c-1.822-0.159-3.526,0.363-5.343,0.945c-3.065,0.982-6.387,0.169-8.758-2.232
			c-1.012-1.023-2.021-0.896-2.786-0.61c-4.36,1.627-8.679,1.702-13.286,1.022c-3.64-0.536-7.509-0.647-11.176,0.524
			c-1.516,0.484-3.228,0.18-4.616,1.247c-0.274,0.211-1.01,0.062-1.4-0.157c-5.198-2.915-10.697-1.876-16.152-1.236
			c-1.412,0.165-1.568,1.469-1.699,2.58c-0.358,3.049-1.624,3.787-4.609,3.006c-2.871-0.751-5.247-2.635-8.131-3.3
			c-0.308-0.07-0.606-0.339-0.894-0.316c-5.719,0.453-11.427-1.08-17.21,0.319c-2.502,0.604-5.485,0.823-8.038-0.822
			c-0.833-0.536-2.387-0.509-2.099-1.892c0.272-1.301,0.576-2.804,1.994-3.551c1.938-1.02,3.937-1.796,6.196-1.498
			c0.822,0.108,1.208-0.202,1.145-1.091c-0.042-0.598-0.354-1.151-0.833-0.841c-2.368,1.535-4.016-0.649-6.007-0.989
			c-2.476-0.422-1.8-2.256-1.327-3.348c0.506-1.166,1.716-2.478,3.116-2.513c2.936-0.073,5.957-0.127,8.639,1.431
			c0.533,0.31,0.887,0.922,1.341,1.378c1.778,1.789,3.646,3.123,6.443,3.075c3.606-0.062,7.059-0.103,10.294-2.14
			c1.933-1.217,4.11-1.652,6.528-0.479c3.091,1.499,6.645,0.811,9.972,1.465c3.92,0.771,7.827,1.649,11.923,1.834
			c2.532,0.113,3.568-0.945,4.732-2.289c1.04-1.2,2.102-1.753,3.663-1.964c3.909-0.531,7.373,0.434,11.077,1.73
			c2.923,1.023,6.55,0.549,9.767,0.078c3.083-0.452,6.21-0.785,9.151-2.525c1.769-1.045,4.523-0.179,6.793-1.174
			c4.514-1.979,5.806-1.599,9.084,2.268c1.148,1.356,2.604,1.386,4.06,1.235c2.969-0.307,5.873-0.859,8.9-0.123
			c4.673,1.136,9.467,0.433,14.206,0.506c5.522,0.087,10.991,0.242,16.35,1.915C267.683,119.605,269.531,119.191,271.253,119.191z"
			/>
		<path style="fill-rule:evenodd;clip-rule:evenodd;fill:#7B491E;" d="M375.286,45.58c-1.022,0-1.754,0-2.915,0
			c1.283,0.68,1.192,1.696,0.907,2.416c-0.267,0.671-1.077,1.374-1.959,1.136c-0.642-0.172-0.909,0.101-1.244,0.438
			c-0.646,0.65-1.258,1.424-2.26,0.55c-0.979-0.853-1.345-2.029-1.283-3.231c0.03-0.573,0.719-1.044,1.338-1.336
			c0.752-0.355,1.479,1.112,2.187,0.057c0.561-0.838,1.528-0.332,2.104-0.714c-0.117-1.129-0.677-2.009-1.281-2.855
			c-0.492-0.69-0.57-1.226,0.151-1.868c0.748-0.665,1.392-0.851,2.096-0.052c0.568,0.644,1.248,0.852,2.094,1.05
			c1.02,0.239,2.083,0.926,1.901,2.326c-0.082,0.632,0.155,1.377,0.618,1.243c0.649-0.188,1.904-0.251,1.304-1.722
			c-0.591-1.449-0.504-2.9,1.022-3.871c0.268-0.17,0.712-0.468,0.852-0.375c1.802,1.216,3.199,0.319,4.792-0.595
			c1.3-0.746,1.853,0.816,2.259,1.574c0.461,0.86,0.655,2.127-0.237,2.974c-0.979,0.928-1.759-0.139-2.575-0.507
			c-0.34-0.153-0.603-0.479-0.983-0.795c-0.228,2.043-0.538,3.858-2.89,4.092c-0.703,0.07-1.273,0.295-0.946,0.975
			c0.791,1.638,0.531,2.726-1.174,3.542c-0.968,0.464-1.732,0.72-2.648-0.089C375.196,48.779,374.208,47.585,375.286,45.58z"/>
		<path style="fill-rule:evenodd;clip-rule:evenodd;fill:#7B491E;" d="M354.081,31.078c-1.743,1.931-2.721,1.115-3.361-0.588
			c-0.439-1.169-1.139-2.109-2.023-2.97c-0.895-0.872-0.906-2.027-0.117-2.842c0.771-0.797,1.487-0.501,2.341,0.453
			c0.983,1.099,2.693,1.562,2.674,3.448c-0.006,0.565,0.396,0.562,0.813,0.651c3.919,0.833,5.859,3.927,7.857,6.942
			c0.522,0.789,0.011,1.3-0.458,1.93c-1.073,1.441-1.79,2.883-0.903,4.871c0.677,1.518-2.32,4.072-3.918,3.524
			c-0.591-0.203-1.002-0.624-0.914-1.284c0.251-1.897,0.557-3.787,0.824-5.682c0.176-1.244,1.075-2.738-1.32-2.965
			c-0.872-0.083-1.527-0.879-1.5-1.957C354.101,33.554,354.081,32.499,354.081,31.078z"/>
		<path style="fill-rule:evenodd;clip-rule:evenodd;fill:#7B491E;" d="M294.679,50.821c0.127-1.177,0.026-2.19,1.334-3.101
			c1.522-1.059,2.625-2.28,4.404-0.715c1.354,1.193,1.704,4.088,0.738,5.6c-0.883,1.381-2.278,1.06-3.306,0.639
			c-1.501-0.616-2.294-1.083-2.743,1.141c-0.222,1.097-1.045,2.656-2.512,2.958c-1.107,0.229-1.539-1.054-2.266-1.664
			c-1.397-1.174,0.683-1.92,0.387-2.998c-0.64-0.44-1.146-0.184-1.708,0.288c-0.923,0.773-1.853,0.662-2.889,0.031
			c-1.401-0.854-0.799-2.092-0.73-3.182c0.059-0.958,0.331-1.912,1.702-1.836c0.709,0.04,1.344-0.415,2.083-0.523
			c1.923-0.282,3.445-0.124,4.102,2.037C293.473,50.145,293.954,50.585,294.679,50.821z"/>
		<path style="fill-rule:evenodd;clip-rule:evenodd;fill:#7B491E;" d="M322.544,97.242c0.224,0.243,0.415,0.521,0.669,0.717
			c0.947,0.731,1.019,1.902,0.554,2.634c-0.476,0.748-1.758,0.504-2.509,0.184c-0.714-0.305-0.968-0.378-1.77,0.019
			c-1.777,0.879-5.636-1.922-4.978-4.467c0.105-0.407,0.068-0.829,0.631-0.838c0.803-0.012,1.661-0.209,2.239,0.608
			c0.642,0.908,1.689,1.393,2.407,2.114c1,1.005,1.411,0.125,1.804-0.239c0.951-0.88-0.229-0.916-0.629-1.256
			c-0.876-0.746-1.538-1.643-1.996-2.705c-0.49-1.137-1.128-2.445,0.17-3.263c1.41-0.888,3.008-0.995,4.285,0.526
			C324.99,93.143,324.635,95.728,322.544,97.242z"/>
		<path style="fill-rule:evenodd;clip-rule:evenodd;fill:#7B491E;" d="M284.337,51.038c0.212,1.536-0.282,2.051-1.971,2.555
			c-2.365,0.705-4.398,0.853-6.655-0.081c-0.621-0.257-1.628-0.394-2.305,0.296c-0.938,0.954-1.774,0.199-2.111-0.435
			c-0.378-0.712-0.845-1.736,0.375-2.475c1.811-1.097,3.343-2.607,5.606-0.493c0.86,0.803,2.152-0.487,3.117-1.151
			c0.89-0.613,1.654-1.696,2.938-0.996C284.429,48.856,284.491,49.935,284.337,51.038z"/>
		<path style="fill-rule:evenodd;clip-rule:evenodd;fill:#7B491E;" d="M290.184,84.596c1.527,0.011,4.904,3.007,4.737,4.015
			c-0.353,2.123-2.596,3.623-5.005,2.786c-1.296-0.45-2.991,0.381-3.838-0.982c-0.903-1.454,1.112-2.103,1.255-3.362
			C287.535,85.272,288.376,84.166,290.184,84.596z"/>
		<path style="fill-rule:evenodd;clip-rule:evenodd;fill:#7B491E;" d="M314.44,90.036c-2.127,0.177-4.613-2.395-4.357-4.522
			c0.038-0.313,0.066-0.706,0.26-0.909c2.409-2.53,4.836-0.084,7.235,0.102c1.086,0.084,1.721,1.332,1.366,2.505
			c-0.581,1.918-2.007,2.829-4.011,2.825C314.769,90.035,314.604,90.036,314.44,90.036z"/>
		<path style="fill-rule:evenodd;clip-rule:evenodd;fill:#7B491E;" d="M354.087,82.249c-0.378-1.798,1.202-2.458,2.192-3.443
			c0.22-0.218,0.897-0.273,1.164-0.099c1.929,1.27,1.995,3.648,2.864,5.495c0.358,0.762-0.951,2.603-2.379,3.172
			c-1.393,0.557-2.608,0.038-3.098-1.336C354.413,84.858,353.946,83.621,354.087,82.249z"/>
		<path style="fill-rule:evenodd;clip-rule:evenodd;fill:#7B491E;" d="M329.472,89.077c-1.661,0.135-2.771-0.796-3.716-1.94
			c-0.625-0.758-0.577-1.739-0.089-2.496c0.42-0.649,1.136-0.785,2.052-0.648c1.32,0.197,2.688,0.325,4.06-0.297
			c0.694-0.314,1.925-0.459,2.36,0.621c0.357,0.891,0.396,1.875-0.473,2.679C332.46,88.112,331.121,88.896,329.472,89.077z"/>
		<path style="fill-rule:evenodd;clip-rule:evenodd;fill:#7B491E;" d="M362.979,40.401c0-0.901,0.117-1.821-0.028-2.698
			c-0.189-1.131,0.393-1.797,1.271-1.948c0.71-0.121,1.499,0.233,1.811,1.176c0.64,1.939,1.242,3.934,1.642,5.886
			c0.249,1.224-0.762,3.099-2.651,3.169c-1.898,0.071-2.118-1.365-2.051-2.883C363.011,42.205,362.979,41.302,362.979,40.401z"/>
		<path style="fill-rule:evenodd;clip-rule:evenodd;fill:#7B491E;" d="M311.034,45.032c-2.493,0.445-3.369-1.563-4.544-3.266
			c-0.841-1.219-0.063-2.087,0.571-2.767c0.83-0.891,1.595-0.351,2.047,0.645c0.383,0.84,1.149,0.42,1.719,0.428
			c1.673,0.021,2.506,1.273,3.092,2.406C314.824,44.227,313.64,45.251,311.034,45.032z"/>
		<path style="fill-rule:evenodd;clip-rule:evenodd;fill:#7B491E;" d="M304.548,45.06c1.715,0.082,5.028,2.967,5.027,4.186
			c-0.001,1.081-2.269,3.646-3.22,3.642c-1.32-0.004-3.271-3.122-3.192-5.192C303.208,46.548,303.581,45.538,304.548,45.06z"/>
		<path style="fill-rule:evenodd;clip-rule:evenodd;fill:#7B491E;" d="M388.204,77.572c-0.09,1.284-1.479,1.565-3.029,1.579
			c-1.513,0.012-3.476-2.627-3.321-4.818c0.097-1.362,1.287-1.652,2.569-1.621C386.522,72.764,388.167,74.517,388.204,77.572z"/>
		<path style="fill-rule:evenodd;clip-rule:evenodd;fill:#7B491E;" d="M344.399,89.047c-1.848-0.022-4.692-3.733-4.133-5.444
			c0.234-0.714,0.749-1.288,1.514-1.443c0.748-0.152,1.328-0.023,1.689,0.896c0.236,0.602,0.882,1.064,1.769,1.08
			c1.427,0.023,1.841,1.145,1.738,2.298C346.825,88.126,345.781,89.062,344.399,89.047z"/>
		<path style="fill-rule:evenodd;clip-rule:evenodd;fill:#7B491E;" d="M398.134,83.212c0.265,0.984-0.329,1.968-1.626,2.131
			c-1.265,0.158-2.091-0.926-2.229-1.996c-0.197-1.527-0.735-2.922-1.094-4.382c-0.202-0.824-0.281-1.886,0.879-2.238
			c0.984-0.3,1.823,0.146,2.28,0.984C397.214,79.305,398.088,80.925,398.134,83.212z"/>
		<path style="fill-rule:evenodd;clip-rule:evenodd;fill:#7B491E;" d="M318.989,38.333c0.168,1.423-0.906,2.096-1.821,2.65
			c-0.876,0.531-1.463-0.407-1.983-0.991c-0.765-0.858-1.428-1.806-2.191-2.665c-0.824-0.928-0.466-1.793,0.057-2.646
			c0.577-0.941,1.291-0.434,2.072-0.233C317.225,34.989,318.782,35.966,318.989,38.333z"/>
		<path style="fill-rule:evenodd;clip-rule:evenodd;fill:#7B491E;" d="M337.045,40.195c0.576,0.513,1.695,0.458,1.688,1.541
			c-0.01,1.357,0.594,2.086,1.946,2.352c0.984,0.193,1.353,1.045,1.232,1.944c-0.14,1.05-0.474,2.144-1.683,2.43
			c-0.945,0.225-1.606-0.097-2.097-1.145c-0.603-1.288-1.617-2.377-2.396-3.589C334.986,42.561,335.861,40.3,337.045,40.195z"/>
		<path style="fill-rule:evenodd;clip-rule:evenodd;fill:#7B491E;" d="M394.073,40.472c0.563,1.195-0.471,1.995-1.062,2.714
			c-0.452,0.549-1.201,1.558-2.117,1.214c-0.813-0.306-1.401-1.107-1.231-2.184c0.047-0.297,0.015-0.798-0.164-0.909
			c-1.335-0.824-1.18-2.022-0.318-2.796c0.811-0.728,1.823-1.954,3.152-1.26C393.486,37.853,394.5,38.806,394.073,40.472z"/>
		<path style="fill-rule:evenodd;clip-rule:evenodd;fill:#7B491E;" d="M388.259,47.809c-0.344,1.439-0.721,3.228-2.451,3.03
			c-1.298-0.148-3.547,0.048-3.538-2.418c0.005-1.58,2.163-4.004,3.592-3.826C387.628,44.815,387.958,46.329,388.259,47.809z"/>
		<path style="fill-rule:evenodd;clip-rule:evenodd;fill:#7B491E;" d="M327.873,49.319c0.172,0.894-0.254,1.174-1.217,1.182
			c-3.742,0.033-5.274-0.623-5.208-2.353c0.038-1.014,2.426-3.525,3.396-3.573C326.016,44.518,327.888,47.396,327.873,49.319z"/>
		<path style="fill-rule:evenodd;clip-rule:evenodd;fill:#7B491E;" d="M332.452,82.123c-1.155,0.5-1.936-0.612-2.845-1.167
			c-0.432-0.264-0.979-1.059-0.7-1.68c1.038-2.299,3.272-1.863,5.188-2.086c1.286-0.148,1.847,0.555,1.676,1.771
			C335.518,80.767,334.908,82.29,332.452,82.123z"/>
		<path style="fill-rule:evenodd;clip-rule:evenodd;fill:#7B491E;" d="M315.949,50.975c-1.294,0.235-2.344-0.159-2.407-1.889
			c-0.048-1.306,2.522-3.677,4.091-3.485c1.333,0.165,2.314,1.059,2.333,2.617C319.99,50.276,319.014,50.987,315.949,50.975z"/>
		<path style="fill-rule:evenodd;clip-rule:evenodd;fill:#7B491E;" d="M366.655,87.068c-1.083,0.072-2.183-0.646-1.602-1.451
			c1.128-1.561-2.143-4.487,1.635-4.958c0.883-0.109,3.177,2.396,3.211,3.374C369.944,85.28,368.013,87.086,366.655,87.068z"/>
		<path style="fill-rule:evenodd;clip-rule:evenodd;fill:#7B491E;" d="M386.7,80.655c1.575-0.02,3.154-0.784,3.463,1.328
			c0.115,0.791-2.182,3.516-2.954,3.575c-0.955,0.073-3.499-2.149-3.424-3.204C383.939,80.183,385.696,80.74,386.7,80.655z"/>
		<path style="fill-rule:evenodd;clip-rule:evenodd;fill:#7B491E;" d="M304.195,90.04c-1.747-0.044-4.23-2.637-3.914-4.091
			c0.098-0.451,0.224-1.193,1.087-1.375c1.818-0.383,4.771,1.99,4.769,3.866C306.134,90.001,305.183,90.108,304.195,90.04z"/>
		<path style="fill-rule:evenodd;clip-rule:evenodd;fill:#7B491E;" d="M354.077,42.93c-0.191,0.863,0.585,2.334-1.174,2.577
			c-1.213,0.167-2.693-2.135-2.806-3.923c-0.094-1.484,0.311-2.898,1.827-2.763C354.194,39.022,354.085,41.061,354.077,42.93z"/>
		<path style="fill-rule:evenodd;clip-rule:evenodd;fill:#7B491E;" d="M384.565,91.013c-2.319,0.272-2.739-1.732-3.753-2.983
			c-0.107-0.133-0.044-0.504,0.063-0.696c0.832-1.484,2.3-1.074,3.321-0.659c1.112,0.452,3.097,0.485,2.899,2.271
			C386.978,90.025,386.219,91.417,384.565,91.013z"/>
		<path style="fill-rule:evenodd;clip-rule:evenodd;fill:#7B491E;" d="M376.073,80.677c1.177,0.448,2.921,1.045,2.959,2.769
			c0.024,1.104-1.036,2.412-2.483,2.597c-1.136,0.145-2.724-2.324-2.707-3.834C373.855,80.85,374.605,80.55,376.073,80.677z"/>
		<path style="fill-rule:evenodd;clip-rule:evenodd;fill:#7B491E;" d="M289.329,55.642c-0.771,1.007-1.037,2.289-0.756,3.704
			c0.035,0.175-0.396,0.586-0.671,0.655c-1.452,0.368-2.194-0.82-2.78-1.691c-0.688-1.024-0.929-2.4,0.461-3.263
			c1.138-0.707,2.395-0.926,3.663-0.313C289.356,54.787,289.295,55.197,289.329,55.642z"/>
		<path style="fill-rule:evenodd;clip-rule:evenodd;fill:#7B491E;" d="M332.657,48.511c-1.725-0.045-4.376-3.133-4.301-4.471
			c0.087-1.566,1.685-1.291,2.005-1.051c1.252,0.94,2.489,2.06,3.298,3.38C334.241,47.322,333.846,48.502,332.657,48.511z"/>
		<path style="fill-rule:evenodd;clip-rule:evenodd;fill:#7B491E;" d="M281.709,56.857c1.181-0.152,2.018,1.123,2.009,2.401
			c-0.007,1.131-1.046,2.106-2.506,2.107c-1.488,0-2.265-0.674-2.29-2.19C278.896,57.662,279.666,56.952,281.709,56.857z"/>
		<path style="fill-rule:evenodd;clip-rule:evenodd;fill:#7B491E;" d="M347.805,47.025c-1.486-0.053-3.192-2.202-3.109-3.706
			c0.062-1.105,0.815-1.275,1.726-1.247c0.926,0.028,3.193,2.438,3.207,3.427C349.649,46.933,348.455,46.74,347.805,47.025z"/>
		<path style="fill-rule:evenodd;clip-rule:evenodd;fill:#7B491E;" d="M268.735,54.363c-1.165-1.19-2.856-2.275-1.49-4.259
			c0.914-1.327,2.02-0.539,2.485,0.418C270.409,51.917,270.381,53.399,268.735,54.363z"/>
		<path style="fill-rule:evenodd;clip-rule:evenodd;fill:none;" d="M52.065,88.54c-0.216,0.198-0.347,0.42-0.515,0.451
			c-0.386,0.074-0.581-0.193-0.5-0.539c0.035-0.148,0.314-0.332,0.481-0.33C51.685,88.123,51.837,88.351,52.065,88.54z"/>
	</g>
</g>
</svg>
