<?xml version="1.0" encoding="iso-8859-1"?>
<!-- Generator: Adobe Illustrator 16.0.0, SVG Export Plug-In . SVG Version: 6.00 Build 0)  -->
<!DOCTYPE svg PUBLIC "-//W3C//DTD SVG 1.1//EN" "http://www.w3.org/Graphics/SVG/1.1/DTD/svg11.dtd">
<svg version="1.1" id="Layer_1" xmlns="http://www.w3.org/2000/svg" xmlns:xlink="http://www.w3.org/1999/xlink" x="0px" y="0px"
	 width="401.604px" height="161.081px" viewBox="0 0 401.604 161.081" style="enable-background:new 0 0 401.604 161.081;"
	 xml:space="preserve">
<g>
	<g>
		<path style="fill:none;" d="M200.811,160.539c-65.998,0-131.995-0.007-197.993,0.04c-1.738,0.001-2.32-0.23-2.317-2.193
			c0.068-51.931,0.068-103.862,0-155.793C0.498,0.732,0.993,0.499,2.673,0.5C134.75,0.543,266.827,0.542,398.905,0.505
			c1.618,0,2.201,0.143,2.199,2.065c-0.074,52.013-0.071,104.026-0.009,156.039c0.002,1.747-0.438,1.973-2.047,1.972
			C332.969,160.532,266.89,160.539,200.811,160.539z M225.156,28.565c-0.291,1.635-1.958,2.334-2.2,3.641
			c-0.529,2.865-1.815,5.185-3.834,7.238c-1.168,1.188-2.08,2.625-3.127,3.935c-2.285,2.856-3.642,6.256-5.523,9.332
			c-1.332,2.176-2.634,4.15-2.303,6.783c0.23,1.823-0.399,3.1-2.094,3.91c-0.682,0.325-2.162,5.787-1.785,6.406
			c0.182,0.298,0.657,0.402,0.91,0.676c0.374,0.404,0.845,0.7,1.006,1.332c1.388,5.436,4.68,9.805,8.089,14.075
			c2.031,2.543,2.732,5.282,1.343,6.873c-0.611,0.701-1.157,1.408-1.648,2.201c-2.978,4.804-7.663,7.56-12.476,10.078
			c-2.119,1.108-3.03,3.528-1.737,5.615c2.046,3.305,2.497,3.051,7.437,2.405c4.901-0.642,8.648-2.913,12.094-6.112
			c0.815-0.757,1.499-1.508,0.973-2.728c-0.906-2.103,0.384-4.368,2.636-5.107c0.823-0.271,1.239-0.084,1.538,0.458
			c0.835,1.513,1.778,3.013,2.309,4.639c1.491,4.57,4.95,7.521,8.452,10.364c1.048,0.851,2.777,0.92,4.136-0.188
			c1.363-1.113,0.882-2.489,0.716-3.873c-0.145-1.202-2.052-0.823-1.892-2.227c3.829-0.688,4.465-1.789,3.429-5.216
			c-0.361-1.192-1.068-1.734-2.034-2.152c-1.001-0.434-2.126-1.088-2.294-2.01c-0.559-3.068-1.754-5.825-3.626-8.521
			c1.449,0.076,2.559-0.074,3.797,0.359c3.86,1.354,8.05,1.433,11.797,0.3c5.016-1.518,9.703-3.893,13.999-7.25
			c8.065-6.303,11.395-14.532,11.679-24.393c0.022-0.775-0.182-1.354-0.719-1.955c-2.364-2.646-2.13-2.825,0.068-5.577
			c2.167-2.714,5.571-4.95,4.684-9.306c-0.056-0.271,0.257-1.172,1.071-1.41c0.569-0.166,1.069-0.715,1.271-1.389
			c0.768-2.576,3.413-3.963,5.13-4.868c2.059-1.083,3.299-2.819,5.118-3.952c1.402-0.873,1.354-2.449,0.862-3.646
			c-0.577-1.406-2.002-1.215-3.261-0.733c-0.371,0.142-0.725,0.329-1.091,0.485c-2.188,0.936-2.795,0.576-2.833-1.711
			c-0.023-1.39,0.048-2.784-0.021-4.17c-0.066-1.36-0.854-2.081-2.232-1.971c-3.4,0.271-7.589,4.637-8.112,8.103
			c-0.212,1.398-0.403,2.933-2.552,3.319c-2.512,0.45-3.688,3.121-3.384,5.635c0.375,3.088,0.092,6.103-2.505,8.391
			c-0.578,0.508-1.009,1.141-1.398,1.894c-1.514,2.922-2.442,6.131-3.448,9.157c-0.772,2.325-2.062,4.731-2.03,7.515
			c0.021,1.744-0.857,4.482-2.736,4.875c-4.063,0.849-6.917,2.729-8.631,6.491c-0.442,0.97-1.73,1.34-1.773,2.751
			c-0.068,2.284-1.768,3.452-3.751,2.475c-1.489-0.732-2.937-0.735-4.457-0.74c-3.107-0.009-6.216,0.011-9.324-0.016
			c-0.512-0.005-1.389,0.303-1.463-0.388c-0.219-2.068-1.789-3.312-2.729-4.934c-0.489-0.845-0.354-1.65-0.07-2.536
			c0.915-2.859,1.742-5.74,1.729-8.79c-0.004-0.908-0.387-1.685-0.256-2.728c0.309-2.456,1.139-4.793,1.42-7.273
			c0.255-2.257-0.287-4.867,0.869-6.793c2.395-3.987,2.063-9.15,5.712-12.582c0.767-0.721,1.391-2.019,1.066-3.319
			c-0.326-1.316,0.507-2.355,1.229-2.97c1.94-1.653,3.612-3.601,5.797-5.008c2.516-1.62,2.657-2.869,0.875-5.171
			c-0.622-0.803-0.718-1.366,0.01-2.095c0.497-0.499,0.884-1.104,1.345-1.642c1.271-1.481,1.494-3.112,0.422-4.731
			c-1.013-1.528-2.387-0.866-3.784-0.474c-2.037,0.572-3.282,2.202-4.936,3.268c-1.488,0.96-2.882,2.411-4.771,2.361
			c-4.148-0.11-5.918,0.936-7.475,4.817c-0.115,0.288-0.225,0.661-0.455,0.806c-2.802,1.764-2.552,4.78-3.04,7.459
			c-0.399,2.193,0.49,3.018,2.521,2.391C223.628,28.492,224.31,28.559,225.156,28.565z M42.937,123.376
			c-0.339-3.492,1.089-5.378,4.827-5.486c4.77-0.138,9.051-1.613,13.085-3.983c1.352-0.795,3.519-1.493,3.372-3.086
			c-0.306-3.314,2.141-4.242,4.028-5.691c0.58-0.445,1.245-0.857,1.605-1.433c1.248-1.994,3.157-2.537,5.274-2.515
			c1.608,0.017,2.946-0.292,4.197-1.419c2.392-2.153,5.146-3.403,8.489-3.647c1.409-0.103,2.828-0.872,4.397-0.926
			c0.974-0.033,2.005-0.597,2.283-1.816c0.258-1.132,0.975-1.953,1.737-2.804c1.061-1.186,0.573-3.362-0.855-3.546
			c-3.027-0.388-6.187-0.46-8.728,1.514c-1.795,1.394-3.827,1.7-5.836,2.359c-2.992,0.981-6.137-0.719-9.103,0.887
			c-2.613,1.415-5.768,2.079-7.888,4.104c-1.606,1.536-3.262,2.641-5.227,3.451c-1.177,0.486-1.875,1.371-2.477,2.473
			c-1.307,2.39-4.396,3.415-4.979,6.398c-0.021,0.104-0.254,0.234-0.392,0.239c-1.847,0.07-3.704,1.109-5.483,0.474
			c-1.529-0.546-2.88-0.596-4.491-0.489c-6.961,0.459-12.241,5.829-12.241,12.808c0,2.045-0.007,4.09,0.002,6.134
			c0.003,0.688,0.021,1.377-0.972,1.256c-2.786-0.339-5.689,1.705-8.417-0.43c-0.262-0.205-1.021-0.052-1.377,0.189
			c-1.774,1.207-3.735,1.354-5.779,1.238c-0.713-0.04-1.614-0.217-1.924,0.656c-0.32,0.9-0.438,1.914,0.121,2.796
			c1.126,1.776,5.261,3.066,7.504,2.492c0.49-0.127,1.411-0.485,1.487,0.615c0.035,0.508,0.265,1.36-0.65,1.244
			c-2.146-0.272-2.717,1.35-3.754,2.65c-0.803,1.005-1.283,1.922-0.817,3.054c0.519,1.261,1.725,1.32,2.913,1.206
			c0.872-0.085,1.727-0.153,2.607-0.336c3.179-0.662,6.271-1.583,9.386-2.468c1.664-0.473,3.62-0.542,4.961,1.028
			c0.849,0.994,1.979,1.051,2.89,0.723c1.85-0.665,3.698-0.381,5.54-0.399c5.001-0.051,9.944-0.678,14.835-1.597
			c1.531-0.288,2.949-0.747,4.54-0.417c1.023,0.212,2.042-0.027,3.025-0.55c2.503-1.328,4.968-2.812,7.616-3.763
			c3.683-1.321,5.606-4.313,7.888-7.095c1.867-2.277,4.052-4.156,6.946-5.314c5.682-2.273,11.997-2.896,17.083-6.769
			c2.282-1.737,4.512-6.618,3.324-9.198c-0.884-1.918-0.8-3.624,0.138-5.274c0.708-1.248,0.417-2.3-0.371-3.061
			c-0.701-0.677-1.697-0.671-2.876-0.383c-2.325,0.567-3.662,2.609-5.705,3.346c-3.182,1.146-5.631,2.385-7.046,6.043
			c-1.131,2.922-5.099,3.944-7.868,5.298c-2.273,1.111-4.605,1.776-6.064,3.969c-0.368,0.553-0.562,1.093-1.334,1.192
			c-2.293,0.296-4.573,0.714-6.872,0.958c-2.492,0.264-3.939,1.481-4.137,3.931c-0.08,0.979-0.637,1.565-1.303,1.897
			c-0.861,0.428-1.341,1.003-1.783,1.826c-1.16,2.158-4.354,3.115-6.805,2.414c-2.843-0.812-5.724-1.639-8.748-1.194
			c-0.519,0.076-1.042,0.522-1.398-0.185c0.559-1.694,4.007-1.96,2.326-4.714C46.417,122.217,44.547,123.609,42.937,123.376z
			 M21.666,63.268c0,0.711-0.187,1.372,0.035,1.837c0.683,1.427,0.75,3.565,2.938,3.583c1.381,0.01,4.012-4.12,3.305-5.327
			c-1.019-1.737,0.527-4.432-2.137-5.463c-0.114-0.044-0.199-0.479-0.122-0.655c1.524-3.47-0.019-7.04,0.143-10.563
			c0.196-4.285,1.19-8.415,1.459-12.653c0.086-1.363,0.106-2.391-1.05-3.174c-1.284-0.87-2.584-0.419-3.558,0.412
			c-1.008,0.86-1.477,2.235-0.787,3.489c0.399,0.726,0.73,1.335,0.774,2.193c0.178,3.429-1.892,5.692-4.211,7.597
			c-1.614,1.326-1.246,2.859-1.139,4.336c0.09,1.244,0.712,2.566,2.288,2.68c1.645,0.119,1.233,1.265,1.156,2.162
			c-0.141,1.64-0.373,3.224,1.251,4.379c0.855,0.608,1.006,1.619,0.292,2.331C21.374,61.356,21.786,62.404,21.666,63.268z
			 M123.745,63.655c0.312,1.187,0.166,3.049,2.086,3.582c1.47,0.408,2.479-0.702,2.935-1.87c0.641-1.644,1.127-3.572-0.785-4.755
			c-1.095-0.678-1.066-1.445-0.508-2.143c1.537-1.919,0.61-3.494-0.684-4.838c-0.524-0.544-1.144-1.149-0.72-1.586
			c2.347-2.425,0.206-4.839,0.044-7.211c-0.094-1.386-1.406-2.039-2.751-1.415c-2.634,1.222-3.435,4.733-1.489,6.935
			c0.845,0.956,0.537,1.264-0.091,2.041c-1.355,1.675-1.782,3.418-0.006,5.237c0.91,0.932,2.04,1.55,2.94,2.38
			c1.357,1.251-1.69,1.67-0.976,3.072C123.774,63.148,123.745,63.244,123.745,63.655z M343.865,120.921
			c-1.946,0.8-3.605,1.38-4.35,3.214c-0.732,1.803,0.299,4.022,1.91,4.004c1.124-0.012,4.265-2.562,4.085-3.694
			c-0.414-2.621,1.592-2.348,2.936-2.635c2.666-0.567,3.147-1.435,1.774-3.883c2.769,0.036,2.86-2.505,4.084-4.037
			c1.502-1.88-0.239-2.786-0.993-3.606c-0.729-0.794-2.011-0.385-2.986,0.558c-2.099,2.029-1.46,4.179-0.445,6.376
			c-1.262,0.322-1.956,0.211-1.881-1.305c0.066-1.354-0.814-1.995-2.192-2.01c-1.626-0.019-3.229,0.482-3.964,1.786
			c-0.718,1.276,0.042,2.782,0.925,3.985C343.043,120.052,343.385,120.382,343.865,120.921z M171.352,41.25
			c0-0.326,0.031-0.656-0.005-0.979c-0.201-1.764-0.907-3.015-2.795-3.617c-1.96-0.624-3.387,0.445-4.376,1.533
			c-0.964,1.06-0.772,3.021,0.221,4.104c2.018,2.2-0.312,2.009-1.214,2.36c-0.708,0.276-1.611,0.093-2.424,0.052
			c-1.498-0.077-2.088,0.915-1.585,1.989c0.647,1.381,0.79,2.902,1.508,4.232c0.93,1.719,2.514,1.929,4,0.745
			c2.043-1.629,2.178-3.899,1.632-5.949c-0.449-1.687,0.142-1.649,1.217-1.457C171.101,44.903,171.353,44.731,171.352,41.25z
			 M68.779,53.651c-0.331,1.002,0.344,1.85,1.368,2.287c0.986,0.42,2.198,0.478,3.05-0.253c1.702-1.458,1.249-3.459,0.568-5.11
			c-0.449-1.091-0.654-1.718-0.035-2.822c0.75-1.337,1.06-3.055-0.471-4.124c-1.502-1.049-1.57-1.841-0.475-3.294
			c0.827-1.098,0.844-2.644-0.198-3.78c-0.908-0.991-2.384-1.274-3.498-1.008c-1.556,0.371-1.548,2.035-1.25,3.286
			c0.52,2.186,1.262,4.348,0.805,6.602c-0.478,2.356,3.32,4.588,0.156,6.994C68.642,52.547,68.779,53.055,68.779,53.651z
			 M148.867,84.846c-0.174-2.563-2.374-5.346-4.653-5.736c-1.495-0.256-2.836-0.274-2.875,2.077
			c-0.041,2.497,0.961,4.556,4.679,5.226c0.632,0.113,1.468-0.09,1.267,0.935c-0.562,2.855,1.88,3.872,3.292,5.517
			c0.708,0.824,1.709,0.49,2.526,0.37c1.1-0.162,0.489-1.188,0.552-1.812c0.105-1.051,0.13-2.132,0.005-3.179
			C153.319,85.406,150.93,83.634,148.867,84.846z M69.658,60.435c0.284-1.562-0.606-2.151-1.291-2.555
			c-1.194-0.705-2.25-2.363-3.736-1.751c-1.47,0.605-0.604,2.334-0.743,3.563c-0.095,0.845-0.474,2.123-1.167,1.523
			c-2.358-2.036-3.289,0.41-4.426,1.326c-0.985,0.793-1.932,2.108-0.848,3.777c0.812,1.25,1.61,2.509,3.185,2.385
			c1.679-0.131,2.434-1.831,2.62-3.056c0.274-1.808,1.19-1.785,2.496-1.812C68.752,63.775,69.268,62.197,69.658,60.435z
			 M129.457,34.182c-1.388-0.584-2.042-0.035-2.511,0.366c-1.311,1.121-2.707,2.402-1.799,4.424c0.835,1.861,2.494,2.194,4.23,1.673
			c1.329-0.399,2.242-4.001,1.333-5.346c-0.829-1.226-1.12-1.835,0.767-1.9c1.573-0.053,3.324-0.508,3.428-2.284
			c0.081-1.394-0.598-3.048-1.967-3.833c-0.767-0.44-1.325-1.551-2.503-1.167C128.01,26.902,127.047,31.576,129.457,34.182z
			 M137.479,70.233c-1.726,0.005-1.71,0.211-2.001,1.972c-0.403,2.435,2.578,4.552,5.556,5.328c2.207,0.575,3.042-1.268,3.788-2.903
			c0.151-0.333,0.077-0.673,0.482-0.988c1.523-1.184,1.348-2.786,0.161-3.882c-1.166-1.076-2.667-0.841-3.809,0.479
			c-0.741,0.856-1.551,1.561-2.585,0.362C138.616,70.072,138.023,70.293,137.479,70.233z M150.12,71.525
			c0.512-0.424,1.502-0.44,1.649-1.634c0.202-1.646,1.001-2.731,2.907-3.214c1.511-0.382,2.396-1.986,1.763-3.674
			c-0.635-1.692-2.124-1.883-3.894-0.754c-1.528,0.975-3.045,2.011-4.597,2.89c-1.18,0.668-1.895,1.318-1.455,2.417
			C147.174,69.252,147.778,71.199,150.12,71.525z M34.292,75.14c2.69-0.091,3.887-2.353,2.615-4.774
			c-0.94-1.79-2.937-2.715-3.625-4.763c-0.21-0.624-1.496-0.417-2.231-0.082c-2.095,0.954-2.537,3.1-1.413,5.178
			c0.597,1.104,1.715,1.788,2.01,3.197C31.849,74.847,33.167,75.207,34.292,75.14z M326.623,36.318
			c-1.637,0.109-1.934,1.069-1.541,2.216c0.458,1.34,1.152,2.6,1.738,3.897c0.771,1.708,1.955,2.13,3.658,1.29
			c1.431-0.706,2.921-0.992,4.255,0.208c0.567,0.51,0.899,0.896,1.824,0.431c0.995-0.5,0.609-1.195,0.666-1.835
			c0.097-1.099-1.208-1.637-1.529-1.496c-1.434,0.63-1.806-0.591-2.556-1.153C331.105,38.351,328.837,37.273,326.623,36.318z
			 M47.67,72.521c0-0.779,0.044-1.272-0.008-1.756c-0.242-2.259-2.265-3.113-5.862-2.495c-1.755,0.302-2.361,1.608-1.902,3.689
			c0.386,1.748,1.931,1.98,3.08,2.832c1.213,0.899,2.378,1.133,3.579,0.628C47.915,74.849,47.743,73.457,47.67,72.521z
			 M368.926,86.429c2.463-0.008,6.667-4.95,6.032-7.319c-0.28-1.048-1.121-2.136-2.598-1.536c-2.688,1.093-4.463,3-5.386,5.808
			C366.229,85.655,366.628,86.437,368.926,86.429z M117.855,87.714c0.018,2.194,1.132,3.598,2.881,3.623
			c1.976,0.028,4.42-2.634,4.488-4.821c0.093-2.995-2.047-2.534-3.875-2.535C118.851,83.979,117.834,85.081,117.855,87.714z
			 M385.339,72.511c0.444-2.03-0.769-2.463-2.657-2.291c-1.905,0.174-4.815,3.484-4.721,5.376c0.043,0.859,0.44,1.206,1.192,1.576
			C382.574,78.854,385.331,76.906,385.339,72.511z M367.679,91.85c-0.07-1.49,0.329-3.556-1.844-2.842
			c-1.797,0.589-3.668,1.902-4.447,3.779c-0.703,1.69,0.767,2.968,1.827,4.133c1.687,1.852,3.371,1.477,3.823-1.012
			C367.291,94.518,367.945,93.143,367.679,91.85z M165.591,34.405c2.682-0.007,4.346-1.616,4.264-3.902
			c-0.063-1.744-1.103-2.899-2.84-2.915c-2.402-0.021-5.071,2.356-4.977,4.242C162.171,34.46,164.225,34.246,165.591,34.405z
			 M130.109,83.467c1.965,0.265,3.08-0.962,4.28-2.017c1.125-0.987,0.743-2.33,0.55-3.436c-0.225-1.298-1.548-0.822-2.471-0.913
			c-1.246-0.123-2.317,0.434-3.438,0.83c-1.726,0.61-2.369,2.264-2.19,3.595C127.035,82.978,128.515,83.832,130.109,83.467z
			 M325.964,51.204c0.113,0.77-0.274,1.614,0.253,2.344c0.874,1.208,2.072,1.406,3.102,0.462c1.388-1.273,4.468-1.124,3.877-4.084
			c-0.322-1.62-3.114-2.787-5.068-2.233C326.452,48.168,325.665,49.395,325.964,51.204z M360.345,103.91
			c0.279-1.996-0.952-2.635-2.543-2.727c-1.622-0.094-3.195,1.557-2.835,3.122c0.346,1.505,0.663,3.037,1.343,4.487
			c0.834,1.781,1.741,1.468,2.652,0.286C360.124,107.572,359.952,105.641,360.345,103.91z M67.794,29.668
			c-0.017,1.713,1.784,4.169,3.106,4.236c1.54,0.078,2.822-1.813,2.727-4.526c-0.042-1.215,0.131-2.995-1.656-3.265
			C69.745,25.778,67.815,27.562,67.794,29.668z M156.137,57.945c-0.01,1.937,1.138,3.398,2.638,3.359
			c1.809-0.047,3.723-2.318,3.753-4.354c0.027-1.771-0.838-2.479-2.535-2.43C157.966,54.579,156.146,56.168,156.137,57.945z
			 M27.001,29.503c1.995,0.009,3.236-0.876,3.406-2.586c0.181-1.806-1.957-4.287-3.346-4.289c-1.693-0.003-2.948,1.523-2.943,3.642
			C24.124,28.315,25.296,29.278,27.001,29.503z M49.634,70.062c0.021,2.422,1.519,3.505,4.318,3.664
			c1.727,0.099,1.888-1.108,1.967-2.022c0.193-2.216-1.756-4.359-3.6-4.434C50.304,67.189,49.47,68.113,49.634,70.062z
			 M314.173,73.092c-0.049,2.54,1.711,5.432,3.486,5.201c2.741-0.356,1.681-2.893,1.813-4.425c0.217-2.512-2.472-1.835-3.806-2.547
			C314.575,70.736,314.095,71.976,314.173,73.092z M134.051,69.138c0.006-3.068-0.345-3.641-2.094-3.822
			c-1.146-0.118-1.957,0.29-2.762,1.132c-1.223,1.279,0.429,1.959,0.44,2.96c0.017,1.607,0.924,2.78,2.445,2.694
			C133.846,72.002,134.368,70.592,134.051,69.138z M329.487,128.146c-2.179,0.014-3.526,1.299-3.535,3.186
			c-0.008,1.522,0.756,2.242,2.263,2.215c1.571-0.029,4.198-2.196,4.103-3.469C332.172,128.153,330.775,128.061,329.487,128.146z
			 M321.53,129.506c0.309-1.339-0.717-2.273-1.644-2.593c-1.31-0.45-1.998,0.96-2.778,1.82c-0.918,1.013-1.537,2.169-0.577,3.415
			c0.538,0.698,1.184,1.933,2.306,1.244C320.208,132.552,321.672,131.578,321.53,129.506z M309.859,94.259
			c0.847-0.611,2.741-0.152,2.834-2.167c0.062-1.376-2.048-4.156-3.119-4.189c-0.659-0.021-2.461,3.571-2.233,4.729
			C307.567,93.782,308.376,94.382,309.859,94.259z M331.358,61.159c-0.029-2.172-1.926-3.571-3.917-3.726
			c-1.501-0.116-2.022,0.954-2.231,1.864c-0.286,1.246,2.467,3.554,3.919,3.576C330.669,62.897,331.328,62.077,331.358,61.159z
			 M323.541,71.709c1.229,0.147,2.235-0.297,1.866-1.862c-0.287-1.221-1.049-2.287-1.017-3.661c0.017-0.685-0.797-0.877-1.527-0.875
			c-1.65,0.006-2.329,0.823-2.319,2.428C320.559,70.261,321.525,71.657,323.541,71.709z M308.152,106.062
			c1.927-0.011,2.621-0.661,2.586-2.276c-0.034-1.54-1.719-3.676-2.935-3.595c-1.7,0.113-2.399,1.676-2.325,2.801
			C305.57,104.397,305.941,106.376,308.152,106.062z M313.21,121.284c-1.696-0.102-2.986,0.24-2.943,2.131
			c0.041,1.84,1.104,2.671,2.938,2.794c1.686,0.113,2.779-0.894,2.727-2.188C315.876,122.627,315.259,120.884,313.21,121.284z
			 M315.653,84.306c-0.464-2.41-1.316-4.393-2.958-4.281c-1.418,0.097-1.498,0.949-1.471,2.012c0.05,1.954,0.968,3.593,2.649,4.271
			C314.85,86.702,315.681,85.523,315.653,84.306z M305.34,113.452c-0.024,1.875,1.404,3.509,2.962,3.387
			c1.398-0.11,1.384-1.266,1.447-2.276c0.115-1.839-0.847-2.845-2.598-3.09C305.542,111.248,305.2,112.228,305.34,113.452z
			 M294.051,113.744c-0.032-0.674,0.159-1.628-0.886-1.516c-0.607,0.066-1.662,0.356-1.478,1.261
			c0.14,0.686,0.392,1.754,1.315,1.817C293.913,115.369,294.095,114.539,294.051,113.744z"/>
		<path style="fill-rule:evenodd;clip-rule:evenodd;fill:#7B491E;" d="M225.156,28.565c-0.846-0.006-1.527-0.073-2.273,0.157
			c-2.031,0.626-2.921-0.198-2.521-2.391c0.488-2.679,0.238-5.695,3.04-7.459c0.23-0.145,0.34-0.519,0.455-0.806
			c1.557-3.881,3.326-4.927,7.475-4.817c1.889,0.05,3.282-1.401,4.771-2.361c1.653-1.066,2.898-2.696,4.936-3.268
			c1.397-0.393,2.771-1.054,3.784,0.474c1.072,1.619,0.85,3.25-0.422,4.731c-0.461,0.537-0.848,1.143-1.345,1.642
			c-0.728,0.729-0.632,1.292-0.01,2.095c1.782,2.302,1.641,3.551-0.875,5.171c-2.185,1.407-3.856,3.354-5.797,5.008
			c-0.722,0.615-1.555,1.654-1.229,2.97c0.324,1.3-0.3,2.598-1.066,3.319c-3.648,3.432-3.317,8.594-5.712,12.582
			c-1.156,1.926-0.614,4.536-0.869,6.793c-0.281,2.48-1.111,4.817-1.42,7.273c-0.131,1.043,0.252,1.82,0.256,2.728
			c0.014,3.05-0.813,5.931-1.729,8.79c-0.283,0.886-0.419,1.691,0.07,2.536c0.939,1.622,2.51,2.866,2.729,4.934
			c0.074,0.691,0.951,0.383,1.463,0.388c3.108,0.027,6.217,0.007,9.324,0.016c1.521,0.005,2.968,0.007,4.457,0.74
			c1.983,0.977,3.683-0.191,3.751-2.475c0.043-1.412,1.331-1.781,1.773-2.751c1.714-3.762,4.567-5.642,8.631-6.491
			c1.879-0.393,2.757-3.131,2.736-4.875c-0.031-2.784,1.258-5.19,2.03-7.515c1.006-3.025,1.935-6.235,3.448-9.157
			c0.39-0.753,0.82-1.386,1.398-1.894c2.597-2.288,2.88-5.303,2.505-8.391c-0.305-2.515,0.872-5.185,3.384-5.635
			c2.148-0.386,2.34-1.921,2.552-3.319c0.523-3.466,4.712-7.832,8.112-8.103c1.378-0.109,2.166,0.611,2.232,1.971
			c0.068,1.387-0.003,2.78,0.021,4.17c0.038,2.288,0.645,2.647,2.833,1.711c0.366-0.156,0.72-0.343,1.091-0.485
			c1.259-0.481,2.684-0.673,3.261,0.733c0.491,1.196,0.54,2.773-0.862,3.646c-1.819,1.133-3.06,2.869-5.118,3.952
			c-1.717,0.904-4.362,2.292-5.13,4.868c-0.202,0.674-0.702,1.224-1.271,1.389c-0.814,0.238-1.127,1.139-1.071,1.41
			c0.888,4.355-2.517,6.591-4.684,9.306c-2.198,2.752-2.433,2.931-0.068,5.577c0.537,0.602,0.741,1.18,0.719,1.955
			c-0.284,9.861-3.613,18.09-11.679,24.393c-4.296,3.357-8.983,5.732-13.999,7.25c-3.747,1.133-7.937,1.055-11.797-0.3
			c-1.238-0.434-2.348-0.283-3.797-0.359c1.872,2.696,3.067,5.453,3.626,8.521c0.168,0.922,1.293,1.576,2.294,2.01
			c0.966,0.418,1.673,0.96,2.034,2.152c1.036,3.427,0.4,4.527-3.429,5.216c-0.16,1.403,1.747,1.024,1.892,2.227
			c0.166,1.384,0.647,2.76-0.716,3.873c-1.358,1.108-3.088,1.039-4.136,0.188c-3.502-2.844-6.961-5.794-8.452-10.364
			c-0.53-1.626-1.474-3.126-2.309-4.639c-0.299-0.542-0.715-0.729-1.538-0.458c-2.252,0.739-3.542,3.005-2.636,5.107
			c0.526,1.22-0.157,1.971-0.973,2.728c-3.445,3.199-7.192,5.471-12.094,6.112c-4.939,0.646-5.391,0.899-7.437-2.405
			c-1.293-2.087-0.381-4.507,1.737-5.615c4.812-2.519,9.498-5.274,12.476-10.078c0.491-0.793,1.037-1.5,1.648-2.201
			c1.39-1.591,0.688-4.33-1.343-6.873c-3.409-4.27-6.701-8.639-8.089-14.075c-0.161-0.632-0.632-0.928-1.006-1.332
			c-0.253-0.274-0.729-0.378-0.91-0.676c-0.377-0.619,1.104-6.081,1.785-6.406c1.694-0.81,2.324-2.087,2.094-3.91
			c-0.331-2.633,0.971-4.606,2.303-6.783c1.882-3.075,3.238-6.475,5.523-9.332c1.047-1.31,1.959-2.747,3.127-3.935
			c2.019-2.053,3.305-4.373,3.834-7.238C223.198,30.9,224.865,30.201,225.156,28.565z"/>
		<path style="fill-rule:evenodd;clip-rule:evenodd;fill:#7B491E;" d="M42.937,123.376c1.611,0.233,3.481-1.159,4.724,0.876
			c1.682,2.754-1.767,3.02-2.326,4.714c0.356,0.707,0.879,0.261,1.398,0.185c3.024-0.444,5.905,0.382,8.748,1.194
			c2.452,0.701,5.646-0.256,6.805-2.414c0.442-0.823,0.922-1.398,1.783-1.826c0.667-0.332,1.224-0.918,1.303-1.897
			c0.198-2.449,1.645-3.667,4.137-3.931c2.299-0.244,4.578-0.662,6.872-0.958c0.771-0.1,0.966-0.64,1.334-1.192
			c1.459-2.192,3.791-2.857,6.064-3.969c2.769-1.354,6.737-2.376,7.868-5.298c1.415-3.658,3.864-4.897,7.046-6.043
			c2.042-0.736,3.38-2.778,5.705-3.346c1.179-0.288,2.175-0.294,2.876,0.383c0.788,0.761,1.08,1.812,0.371,3.061
			c-0.938,1.65-1.021,3.356-0.138,5.274c1.188,2.58-1.042,7.461-3.324,9.198c-5.086,3.873-11.401,4.495-17.083,6.769
			c-2.894,1.158-5.079,3.037-6.946,5.314c-2.281,2.781-4.205,5.773-7.888,7.095c-2.648,0.951-5.113,2.435-7.616,3.763
			c-0.984,0.522-2.002,0.762-3.025,0.55c-1.591-0.33-3.008,0.129-4.54,0.417c-4.891,0.919-9.834,1.546-14.835,1.597
			c-1.842,0.019-3.69-0.266-5.54,0.399c-0.91,0.328-2.041,0.271-2.89-0.723c-1.341-1.57-3.297-1.501-4.961-1.028
			c-3.115,0.885-6.207,1.806-9.386,2.468c-0.881,0.183-1.735,0.251-2.607,0.336c-1.188,0.114-2.394,0.055-2.913-1.206
			c-0.466-1.132,0.014-2.049,0.817-3.054c1.037-1.301,1.608-2.923,3.754-2.65c0.916,0.116,0.685-0.736,0.65-1.244
			c-0.077-1.101-0.997-0.742-1.487-0.615c-2.243,0.574-6.377-0.716-7.504-2.492c-0.558-0.882-0.44-1.896-0.121-2.796
			c0.31-0.873,1.21-0.696,1.924-0.656c2.044,0.116,4.005-0.031,5.779-1.238c0.355-0.241,1.115-0.395,1.377-0.189
			c2.728,2.135,5.63,0.091,8.417,0.43c0.993,0.121,0.975-0.568,0.972-1.256c-0.009-2.044-0.003-4.089-0.002-6.134
			c0-6.979,5.28-12.349,12.241-12.808c1.611-0.106,2.961-0.057,4.491,0.489c1.779,0.636,3.636-0.403,5.483-0.474
			c0.138-0.005,0.372-0.135,0.392-0.239c0.583-2.983,3.672-4.009,4.979-6.398c0.602-1.102,1.3-1.986,2.477-2.473
			c1.965-0.811,3.621-1.915,5.227-3.451c2.12-2.025,5.274-2.689,7.888-4.104c2.965-1.605,6.11,0.095,9.103-0.887
			c2.01-0.659,4.041-0.966,5.836-2.359c2.541-1.974,5.7-1.901,8.728-1.514c1.428,0.184,1.917,2.36,0.855,3.546
			c-0.762,0.851-1.479,1.672-1.737,2.804c-0.278,1.22-1.309,1.783-2.283,1.816c-1.569,0.054-2.988,0.823-4.397,0.926
			c-3.343,0.244-6.097,1.494-8.489,3.647c-1.251,1.127-2.589,1.436-4.197,1.419c-2.118-0.022-4.027,0.521-5.274,2.515
			c-0.36,0.575-1.025,0.987-1.605,1.433c-1.887,1.449-4.334,2.377-4.028,5.691c0.147,1.593-2.02,2.291-3.372,3.086
			c-4.035,2.37-8.316,3.846-13.085,3.983C44.025,117.998,42.598,119.884,42.937,123.376z"/>
		<path style="fill-rule:evenodd;clip-rule:evenodd;fill:#7B491E;" d="M21.666,63.268c0.12-0.864-0.292-1.912,0.636-2.836
			c0.715-0.712,0.563-1.722-0.292-2.331c-1.624-1.155-1.392-2.74-1.251-4.379c0.077-0.897,0.489-2.043-1.156-2.162
			c-1.576-0.114-2.198-1.436-2.288-2.68c-0.107-1.477-0.475-3.01,1.139-4.336c2.319-1.905,4.389-4.168,4.211-7.597
			c-0.044-0.858-0.375-1.468-0.774-2.193c-0.69-1.254-0.221-2.629,0.787-3.489c0.974-0.831,2.274-1.282,3.558-0.412
			c1.156,0.783,1.136,1.811,1.05,3.174c-0.269,4.238-1.263,8.368-1.459,12.653c-0.161,3.523,1.381,7.093-0.143,10.563
			c-0.078,0.176,0.007,0.611,0.122,0.655c2.664,1.031,1.118,3.727,2.137,5.463c0.708,1.207-1.924,5.337-3.305,5.327
			c-2.188-0.018-2.255-2.156-2.938-3.583C21.479,64.64,21.666,63.979,21.666,63.268z"/>
		<path style="fill-rule:evenodd;clip-rule:evenodd;fill:#7B491E;" d="M123.745,63.655c0-0.411,0.029-0.507-0.004-0.572
			c-0.714-1.402,2.333-1.821,0.976-3.072c-0.9-0.83-2.03-1.449-2.94-2.38c-1.776-1.819-1.35-3.562,0.006-5.237
			c0.628-0.776,0.936-1.084,0.091-2.041c-1.946-2.202-1.146-5.713,1.489-6.935c1.346-0.624,2.657,0.029,2.751,1.415
			c0.161,2.372,2.302,4.787-0.044,7.211c-0.423,0.437,0.196,1.042,0.72,1.586c1.294,1.344,2.22,2.918,0.684,4.838
			c-0.558,0.698-0.587,1.465,0.508,2.143c1.912,1.183,1.426,3.112,0.785,4.755c-0.455,1.168-1.464,2.277-2.935,1.87
			C123.911,66.704,124.057,64.842,123.745,63.655z"/>
		<path style="fill-rule:evenodd;clip-rule:evenodd;fill:#7B491E;" d="M343.865,120.921c-0.479-0.539-0.821-0.869-1.098-1.247
			c-0.883-1.203-1.643-2.709-0.925-3.985c0.734-1.304,2.338-1.805,3.964-1.786c1.378,0.015,2.259,0.656,2.192,2.01
			c-0.075,1.516,0.619,1.627,1.881,1.305c-1.015-2.197-1.653-4.347,0.445-6.376c0.976-0.942,2.257-1.352,2.986-0.558
			c0.754,0.82,2.495,1.727,0.993,3.606c-1.224,1.532-1.315,4.073-4.084,4.037c1.373,2.448,0.892,3.315-1.774,3.883
			c-1.344,0.287-3.35,0.014-2.936,2.635c0.18,1.133-2.961,3.683-4.085,3.694c-1.611,0.019-2.643-2.201-1.91-4.004
			C340.259,122.301,341.918,121.721,343.865,120.921z"/>
		<path style="fill-rule:evenodd;clip-rule:evenodd;fill:#7B491E;" d="M171.352,41.25c0.001,3.48-0.251,3.652-3.821,3.014
			c-1.075-0.192-1.667-0.23-1.217,1.457c0.546,2.05,0.411,4.32-1.632,5.949c-1.485,1.184-3.07,0.974-4-0.745
			c-0.718-1.33-0.861-2.851-1.508-4.232c-0.503-1.075,0.087-2.066,1.585-1.989c0.813,0.042,1.716,0.224,2.424-0.052
			c0.902-0.352,3.231-0.16,1.214-2.36c-0.993-1.083-1.186-3.044-0.221-4.104c0.989-1.088,2.416-2.157,4.376-1.533
			c1.888,0.602,2.595,1.853,2.795,3.617C171.383,40.594,171.352,40.924,171.352,41.25z"/>
		<path style="fill-rule:evenodd;clip-rule:evenodd;fill:#7B491E;" d="M68.779,53.651c0-0.596-0.137-1.104,0.02-1.223
			c3.164-2.406-0.634-4.638-0.156-6.994c0.457-2.254-0.286-4.417-0.805-6.602c-0.298-1.251-0.306-2.915,1.25-3.286
			c1.114-0.266,2.59,0.017,3.498,1.008c1.042,1.136,1.025,2.682,0.198,3.78c-1.095,1.453-1.027,2.245,0.475,3.294
			c1.53,1.068,1.221,2.787,0.471,4.124c-0.619,1.104-0.415,1.731,0.035,2.822c0.681,1.651,1.134,3.652-0.568,5.11
			c-0.853,0.731-2.064,0.673-3.05,0.253C69.123,55.5,68.449,54.653,68.779,53.651z"/>
		<path style="fill-rule:evenodd;clip-rule:evenodd;fill:#7B491E;" d="M148.867,84.846c2.063-1.212,4.452,0.561,4.792,3.396
			c0.125,1.047,0.101,2.128-0.005,3.179c-0.062,0.625,0.548,1.65-0.552,1.812c-0.817,0.12-1.819,0.454-2.526-0.37
			c-1.412-1.645-3.854-2.661-3.292-5.517c0.202-1.024-0.635-0.821-1.267-0.935c-3.718-0.67-4.72-2.729-4.679-5.226
			c0.039-2.352,1.38-2.333,2.875-2.077C146.493,79.5,148.693,82.282,148.867,84.846z"/>
		<path style="fill-rule:evenodd;clip-rule:evenodd;fill:#7B491E;" d="M69.658,60.435c-0.39,1.762-0.905,3.341-3.91,3.401
			c-1.306,0.026-2.222,0.003-2.496,1.812c-0.186,1.226-0.941,2.925-2.62,3.056c-1.575,0.124-2.373-1.135-3.185-2.385
			c-1.084-1.669-0.138-2.984,0.848-3.777c1.137-0.916,2.068-3.362,4.426-1.326c0.694,0.599,1.072-0.678,1.167-1.523
			c0.139-1.229-0.727-2.958,0.743-3.563c1.486-0.611,2.542,1.046,3.736,1.751C69.051,58.284,69.941,58.873,69.658,60.435z"/>
		<path style="fill-rule:evenodd;clip-rule:evenodd;fill:#7B491E;" d="M129.457,34.182c-2.409-2.606-1.446-7.279,0.977-8.067
			c1.179-0.383,1.737,0.728,2.503,1.167c1.369,0.786,2.048,2.44,1.967,3.833c-0.104,1.775-1.854,2.23-3.428,2.284
			c-1.887,0.065-1.595,0.674-0.767,1.9c0.909,1.345-0.003,4.947-1.333,5.346c-1.736,0.521-3.395,0.188-4.23-1.673
			c-0.907-2.022,0.489-3.304,1.799-4.424C127.415,34.147,128.069,33.598,129.457,34.182z"/>
		<path style="fill-rule:evenodd;clip-rule:evenodd;fill:#7B491E;" d="M137.48,70.231c0.543,0.062,1.136-0.159,1.59,0.369
			c1.034,1.199,1.844,0.495,2.585-0.362c1.142-1.32,2.644-1.555,3.809-0.479c1.188,1.096,1.362,2.698-0.161,3.882
			c-0.405,0.315-0.331,0.655-0.482,0.988c-0.746,1.636-1.582,3.479-3.788,2.903c-2.978-0.775-5.958-2.893-5.556-5.328
			C135.77,70.444,135.754,70.238,137.48,70.231z"/>
		<path style="fill-rule:evenodd;clip-rule:evenodd;fill:#7B491E;" d="M150.12,71.525c-2.342-0.326-2.945-2.272-3.626-3.97
			c-0.44-1.098,0.275-1.749,1.455-2.417c1.551-0.878,3.068-1.915,4.597-2.89c1.77-1.129,3.259-0.938,3.894,0.754
			c0.634,1.688-0.252,3.292-1.763,3.674c-1.906,0.483-2.706,1.568-2.907,3.214C151.622,71.084,150.631,71.101,150.12,71.525z"/>
		<path style="fill-rule:evenodd;clip-rule:evenodd;fill:#7B491E;" d="M34.292,75.14c-1.126,0.067-2.444-0.293-2.644-1.245
			c-0.295-1.409-1.413-2.093-2.01-3.197c-1.124-2.078-0.682-4.224,1.413-5.178c0.735-0.334,2.021-0.542,2.231,0.082
			c0.688,2.047,2.685,2.973,3.625,4.763C38.18,72.787,36.983,75.048,34.292,75.14z"/>
		<path style="fill-rule:evenodd;clip-rule:evenodd;fill:#7B491E;" d="M326.623,36.318c2.215,0.956,4.482,2.033,6.516,3.557
			c0.75,0.562,1.122,1.784,2.556,1.153c0.321-0.141,1.626,0.396,1.529,1.496c-0.057,0.64,0.329,1.334-0.666,1.835
			c-0.925,0.465-1.257,0.079-1.824-0.431c-1.334-1.199-2.824-0.914-4.255-0.208c-1.703,0.84-2.887,0.417-3.658-1.29
			c-0.586-1.297-1.28-2.557-1.738-3.897C324.689,37.387,324.986,36.427,326.623,36.318z"/>
		<path style="fill-rule:evenodd;clip-rule:evenodd;fill:#7B491E;" d="M47.67,72.521c0.072,0.936,0.245,2.328-1.113,2.898
			c-1.201,0.505-2.366,0.271-3.579-0.628c-1.149-0.852-2.694-1.084-3.08-2.832c-0.459-2.081,0.146-3.387,1.902-3.689
			c3.597-0.618,5.62,0.236,5.862,2.495C47.715,71.249,47.67,71.742,47.67,72.521z"/>
		<path style="fill-rule:evenodd;clip-rule:evenodd;fill:#7B491E;" d="M368.926,86.429c-2.298,0.008-2.697-0.773-1.951-3.047
			c0.923-2.809,2.698-4.715,5.386-5.808c1.477-0.6,2.317,0.488,2.598,1.536C375.593,81.479,371.389,86.421,368.926,86.429z"/>
		<path style="fill-rule:evenodd;clip-rule:evenodd;fill:#7B491E;" d="M117.855,87.714c-0.021-2.633,0.996-3.735,3.494-3.733
			c1.828,0.001,3.968-0.46,3.875,2.535c-0.068,2.188-2.512,4.85-4.488,4.821C118.987,91.312,117.873,89.908,117.855,87.714z"/>
		<path style="fill-rule:evenodd;clip-rule:evenodd;fill:#7B491E;" d="M385.339,72.511c-0.009,4.395-2.766,6.343-6.186,4.662
			c-0.752-0.37-1.149-0.717-1.192-1.576c-0.095-1.893,2.815-5.202,4.721-5.376C384.571,70.047,385.784,70.481,385.339,72.511z"/>
		<path style="fill-rule:evenodd;clip-rule:evenodd;fill:#7B491E;" d="M367.679,91.85c0.266,1.293-0.389,2.668-0.641,4.059
			c-0.452,2.488-2.137,2.863-3.823,1.012c-1.061-1.165-2.53-2.442-1.827-4.133c0.779-1.877,2.65-3.19,4.447-3.779
			C368.008,88.294,367.609,90.359,367.679,91.85z"/>
		<path style="fill-rule:evenodd;clip-rule:evenodd;fill:#7B491E;" d="M165.591,34.405c-1.367-0.16-3.42,0.055-3.553-2.575
			c-0.095-1.885,2.575-4.262,4.977-4.242c1.737,0.015,2.776,1.171,2.84,2.915C169.938,32.789,168.273,34.398,165.591,34.405z"/>
		<path style="fill-rule:evenodd;clip-rule:evenodd;fill:#7B491E;" d="M130.109,83.467c-1.595,0.365-3.074-0.489-3.269-1.94
			c-0.179-1.331,0.464-2.985,2.19-3.595c1.121-0.396,2.192-0.953,3.438-0.83c0.923,0.091,2.246-0.386,2.471,0.913
			c0.192,1.106,0.574,2.449-0.55,3.436C133.189,82.505,132.075,83.731,130.109,83.467z"/>
		<path style="fill-rule:evenodd;clip-rule:evenodd;fill:#7B491E;" d="M325.964,51.204c-0.3-1.809,0.487-3.036,2.163-3.511
			c1.954-0.554,4.746,0.613,5.068,2.233c0.591,2.96-2.489,2.811-3.877,4.084c-1.029,0.944-2.228,0.745-3.102-0.462
			C325.69,52.818,326.078,51.974,325.964,51.204z"/>
		<path style="fill-rule:evenodd;clip-rule:evenodd;fill:#7B491E;" d="M360.345,103.91c-0.394,1.73-0.222,3.662-1.383,5.169
			c-0.911,1.182-1.818,1.495-2.652-0.286c-0.68-1.45-0.997-2.982-1.343-4.487c-0.36-1.565,1.213-3.216,2.835-3.122
			C359.393,101.275,360.625,101.914,360.345,103.91z"/>
		<path style="fill-rule:evenodd;clip-rule:evenodd;fill:#7B491E;" d="M67.794,29.668c0.021-2.105,1.951-3.89,4.177-3.555
			c1.787,0.27,1.613,2.05,1.656,3.265c0.095,2.713-1.187,4.604-2.727,4.526C69.578,33.837,67.777,31.381,67.794,29.668z"/>
		<path style="fill-rule:evenodd;clip-rule:evenodd;fill:#7B491E;" d="M156.137,57.945c0.009-1.777,1.829-3.367,3.857-3.425
			c1.696-0.048,2.562,0.66,2.535,2.43c-0.031,2.036-1.944,4.307-3.753,4.354C157.275,61.343,156.127,59.882,156.137,57.945z"/>
		<path style="fill-rule:evenodd;clip-rule:evenodd;fill:#7B491E;" d="M27.001,29.503c-1.706-0.226-2.877-1.188-2.883-3.233
			c-0.005-2.119,1.25-3.645,2.943-3.642c1.39,0.002,3.527,2.483,3.346,4.289C30.237,28.627,28.996,29.512,27.001,29.503z"/>
		<path style="fill-rule:evenodd;clip-rule:evenodd;fill:#7B491E;" d="M49.636,70.064c-0.166-1.951,0.668-2.875,2.683-2.793
			c1.844,0.074,3.793,2.217,3.6,4.434c-0.079,0.914-0.24,2.121-1.967,2.022C51.153,73.567,49.656,72.484,49.636,70.064z"/>
		<path style="fill-rule:evenodd;clip-rule:evenodd;fill:#7B491E;" d="M314.176,73.094c-0.081-1.118,0.398-2.358,1.491-1.773
			c1.334,0.712,4.022,0.036,3.806,2.547c-0.133,1.533,0.928,4.069-1.813,4.425C315.884,78.524,314.125,75.632,314.176,73.094z"/>
		<path style="fill-rule:evenodd;clip-rule:evenodd;fill:#7B491E;" d="M134.051,69.138c0.317,1.454-0.205,2.864-1.971,2.964
			c-1.521,0.086-2.428-1.087-2.445-2.694c-0.011-1.001-1.663-1.681-0.44-2.96c0.805-0.842,1.615-1.25,2.762-1.132
			C133.706,65.498,134.057,66.07,134.051,69.138z"/>
		<path style="fill-rule:evenodd;clip-rule:evenodd;fill:#7B491E;" d="M329.487,128.146c1.288-0.085,2.686,0.008,2.83,1.932
			c0.096,1.272-2.531,3.439-4.103,3.469c-1.507,0.027-2.271-0.692-2.263-2.215C325.96,129.444,327.308,128.159,329.487,128.146z"/>
		<path style="fill-rule:evenodd;clip-rule:evenodd;fill:#7B491E;" d="M321.53,129.506c0.143,2.072-1.322,3.046-2.693,3.887
			c-1.122,0.688-1.768-0.546-2.306-1.244c-0.96-1.246-0.341-2.402,0.577-3.415c0.78-0.86,1.469-2.271,2.778-1.82
			C320.813,127.232,321.838,128.167,321.53,129.506z"/>
		<path style="fill-rule:evenodd;clip-rule:evenodd;fill:#7B491E;" d="M309.859,94.259c-1.482,0.123-2.292-0.477-2.519-1.627
			c-0.228-1.158,1.574-4.75,2.233-4.729c1.071,0.033,3.181,2.813,3.119,4.189C312.6,94.106,310.706,93.647,309.859,94.259z"/>
		<path style="fill-rule:evenodd;clip-rule:evenodd;fill:#7B491E;" d="M331.358,61.159c-0.03,0.918-0.688,1.738-2.229,1.715
			c-1.452-0.022-4.205-2.33-3.919-3.576c0.209-0.911,0.73-1.98,2.231-1.864C329.432,57.587,331.329,58.986,331.358,61.159z"/>
		<path style="fill-rule:evenodd;clip-rule:evenodd;fill:#7B491E;" d="M323.541,71.709c-2.016-0.052-2.981-1.448-2.997-3.969
			c-0.01-1.605,0.669-2.422,2.319-2.428c0.73-0.003,1.544,0.19,1.527,0.875c-0.032,1.374,0.729,2.439,1.017,3.661
			C325.776,71.412,324.769,71.856,323.541,71.709z"/>
		<path style="fill-rule:evenodd;clip-rule:evenodd;fill:#7B491E;" d="M308.152,106.062c-2.211,0.314-2.582-1.664-2.674-3.07
			c-0.074-1.125,0.625-2.688,2.325-2.801c1.216-0.081,2.9,2.055,2.935,3.595C310.773,105.4,310.079,106.051,308.152,106.062z"/>
		<path style="fill-rule:evenodd;clip-rule:evenodd;fill:#7B491E;" d="M313.21,121.284c2.049-0.4,2.666,1.343,2.722,2.736
			c0.053,1.295-1.041,2.302-2.727,2.188c-1.834-0.123-2.897-0.954-2.938-2.794C310.224,121.524,311.514,121.183,313.21,121.284z"/>
		<path style="fill-rule:evenodd;clip-rule:evenodd;fill:#7B491E;" d="M315.653,84.306c0.028,1.218-0.803,2.396-1.779,2.002
			c-1.682-0.679-2.6-2.317-2.649-4.271c-0.027-1.062,0.053-1.915,1.471-2.012C314.336,79.913,315.189,81.896,315.653,84.306z"/>
		<path style="fill-rule:evenodd;clip-rule:evenodd;fill:#7B491E;" d="M305.34,113.452c-0.141-1.225,0.201-2.204,1.812-1.979
			c1.751,0.245,2.713,1.251,2.598,3.09c-0.063,1.011-0.049,2.166-1.447,2.276C306.745,116.961,305.316,115.327,305.34,113.452z"/>
		<path style="fill-rule:evenodd;clip-rule:evenodd;fill:#7B491E;" d="M294.05,113.744c0.045,0.795-0.138,1.625-1.047,1.562
			c-0.924-0.063-1.176-1.132-1.315-1.817c-0.185-0.904,0.87-1.194,1.478-1.261C294.21,112.116,294.019,113.07,294.05,113.744z"/>
	</g>
</g>
</svg>
