<?xml version="1.0" encoding="iso-8859-1"?>
<!-- Generator: Adobe Illustrator 16.0.0, SVG Export Plug-In . SVG Version: 6.00 Build 0)  -->
<!DOCTYPE svg PUBLIC "-//W3C//DTD SVG 1.1//EN" "http://www.w3.org/Graphics/SVG/1.1/DTD/svg11.dtd">
<svg version="1.1" id="Layer_1" xmlns="http://www.w3.org/2000/svg" xmlns:xlink="http://www.w3.org/1999/xlink" x="0px" y="0px"
	 width="401.084px" height="223.704px" viewBox="0 0 401.084 223.704" style="enable-background:new 0 0 401.084 223.704;"
	 xml:space="preserve">
<g>
	<g>
		<path style="fill:none;" d="M200.542,223.162c-65.995,0-131.989-0.008-197.984,0.042c-1.679,0.001-2.059-0.379-2.058-2.058
			C0.549,148.283,0.549,75.42,0.5,2.557C0.499,0.878,0.878,0.499,2.558,0.5c131.99,0.045,263.979,0.045,395.969,0
			c1.679-0.001,2.059,0.378,2.058,2.057c-0.049,72.863-0.049,145.726,0,218.589c0.001,1.679-0.379,2.059-2.058,2.058
			C332.532,223.154,266.537,223.162,200.542,223.162z M216.895,167.213c-1.348-0.203-2.48-1.589-4.077-0.517
			c-1.158,0.777-1.794,1.852-1.53,3.04c0.293,1.321,0.521,3.013,2.402,3.246c1.72,0.214,2.456-1.105,3.17-2.282
			c0.685-1.127-0.05-2.348-0.005-3.529c0.655-0.654,0.767,0.386,1.228,0.394c1.572,0.024,3.209,0.435,4.221-1.401
			c0.812-1.474-0.297-2.141-1.068-2.906c-1.283-1.275-2.985-1.553-4.397-0.607c-1.4,0.939-0.689,2.438-0.091,3.699
			C216.877,166.625,217.4,166.829,216.895,167.213z M307.977,32.163c-1.534,0.393-2.41-0.174-1.724-1.497
			c1.604-3.096,1.763-6.621,3.216-9.765c0.791-1.714-2.361-5.054-3.84-4.098c-1.647,1.065-3.656,1.464-5.065,2.875
			c-3.365,3.368-6.56,6.927-10.122,10.07c-3.123,2.756-7.301,1.859-11.013,1.938c-2.018,0.043-4.008-0.218-6.016,0.347
			c-1.825,0.513-3.344,1.669-5.175,2.202c-1.482,0.431-2.043,0.095-2.071-1.359c-0.014-0.667,0.051-1.298-0.622-1.787
			c-1.867-1.357-4.526-1.256-6.243,0.266c-0.542,0.48-1.175,0.858-1.754,1.299c-2.488,1.894-5.116,3.636-7.414,5.739
			c-2.117,1.937-4.35,3.911-5.054,6.958c-0.167,0.724-1.016,0.986-1.534,1.464c-1.406,1.293-3.517,2.322-2.883,4.809
			c0.964,3.788,0.347,6.35-1.662,9.635c-0.876,1.434-2.233,1.472-3.312,2.228c-2.58,1.81-5.109,3.776-7.731,5.411
			c-2.351,1.466-4.271,3.051-6.029,5.111c-0.953,1.117-1.383,2.24-0.828,3.394c0.559,1.166,1.812,1.564,3.189,1.545
			c3.88-0.053,7.791,0.273,11.633-0.113c2.912-0.293,5.894-0.522,8.743-1.601c1.538-0.583,3.02-2.258,4.894-1.209
			c1.898,1.062,3.898,1.011,5.949,1.17c1.867,0.145,3.765,0.241,5.609,0.787c2.563,0.759,5.148,1.76,7.738-0.136
			c1.319-0.966,2.784-0.801,4.388-0.329c6.099,1.795,11.714,1.321,16.529-3.523c2.799-2.815,7.108-3.204,10.065-0.796
			c2.017,1.642,4.321,1.731,6.487,1.847c1.575,0.085,2.858,0.417,4.264,0.982c3.862,1.554,7.839,1.851,12.033,1.417
			c3.302-0.34,6.313-1.576,9.509-2.19c2.236-0.43,4.355-1.407,6.248-3.06c1.905-1.663,4.54-3.099,7.015-2.946
			c2.547,0.157,4.592-0.241,6.878-1.229c1.842-0.796,2.659-2.073,2.963-3.665c0.433-2.257,1.203-4.245,2.54-6.124
			c1.029-1.447,2.11-3.065,1.964-4.941c-0.188-2.431,0.651-3.8,3.078-4.434c1.313-0.343,2.347-1.264,2.372-2.963
			c0.025-1.737-1.437-1.583-2.303-1.818c-1.475-0.4-1.802-1.439-1.024-2.221c2.476-2.491,1.916-5.061,0.774-7.833
			c-0.688-1.674-1.151-3.469-3.604-2.166c-0.505,0.268-0.979-0.159-1.438-0.394c-0.799-0.409-1.523-0.43-2.483-0.202
			c-2.058,0.488-4.097,1.208-6.268,1.171c-2.561-0.045-5.061-0.171-7.647,0.581c-2.06,0.6-4.562,0.638-6.627,0.062
			c-4.941-1.378-9.942-1.272-14.915-1.073c-3.313,0.133-6.547,1.873-9.958,0.372C309.147,32.128,308.455,32.213,307.977,32.163z
			 M161.34,38.322c0.153-5.064-0.93-9.668-2.528-14.251c-1.762-5.05-3.718-6.094-9.682-5.663c-1.688,0.122-3.322,0.837-5.037,0.485
			c-3.409-0.699-6.856-0.862-10.323-0.901c-1.386-0.016-2.652,0.875-4.115,0.329c-1.859-0.695-4.006-0.726-5.708-0.186
			c-3.256,1.032-5.761-0.823-8.471-1.596c-2.01-0.573-3.59-0.956-5.063,0.697c-1.24,1.391-2.541,1.153-4.116,0.614
			c-2.784-0.952-5.647-1.932-8.545-0.287c-0.994,0.564-1.872,0.726-2.76-0.26c-1.179-1.309-2.833-1.497-4.27-0.874
			c-1.463,0.635-3.044,0.622-4.512,1.423c-2.145,1.172-3.724-0.125-3.686-2.64c0.009-0.579,0.126-1.184,0.154-1.732
			c0.033-0.645,0.221-1.762-1.182-1.771c-1.504-0.01-5.952,2.355-6.62,3.701c-1.055,2.123-3.698,3.728-5.15,3.081
			c-2.115-0.941-4.136-0.795-6.175,0.273c-0.335,0.175-0.714,0.69-1.323,0.285c-2.281-1.518-5.067-1.491-7.592-2.255
			c-1.719-0.52-2.214-1.072-2.167-2.755c0.09-3.242-1.103-3.911-4.061-2.486c-2.237,1.078-4.455,1.746-6.857,0.302
			c-0.997-0.599-2.296-0.46-3.262,0.093c-1.772,1.015-3.282,0.671-5.147,0.094c-2.014-0.623-3.895-2.444-6.364-1.226
			c-1.572,0.775-3.214,0.731-4.828-0.217c-0.817-0.48-2.095-0.415-2.066,0.745c0.081,3.227-0.767,6.53,0.534,9.675
			c0.404,0.976,0.225,1.779-0.098,2.743c-0.478,1.423-1.001,2.926-0.094,4.448c0.781,1.31,0.584,2.632-0.076,3.97
			c-1.687,3.422-1.903,6.777,0.34,10.129c0.473,0.706,0.956,1.766,0.627,2.707c-0.606,1.737-0.042,3.498-0.322,5.273
			c-0.44,2.786,3.129,8.113,5.771,9.167c1.05,0.419,2.167,1.027,3.367,0.532c1.48-0.61,2.799-0.311,4.215,0.327
			c2.888,1.298,6.274,0.419,8.486-1.672c1.585-1.5,3.56-2.562,5.102-4.167c0.263-0.274,1.094-0.347,1.769-0.333
			c2.384,0.049,4.823-1.077,6.661,1.845c0.708,1.127,2.945,1.125,3.837,2.79c0.441,0.823,1.568,0.925,2.577,0.906
			c2.462-0.046,4.936,0.122,7.385-0.059c1.913-0.141,3.324,0.52,4.935,1.482c2.551,1.523,5.36,3.061,8.482,1.225
			c0.897-0.528,1.688-1.233,2.548-1.829c0.827-0.574,1.477-0.793,1.527,0.654c0.063,1.821,0.9,3.495,0.963,5.369
			c0.049,1.489,1.119,2.659,2.639,3.279c1.422,0.581,2.602-0.231,3.378-0.983c0.978-0.946,1.833-2.201,1.976-3.746
			c0.233-2.525,1.701-4.82,1.384-7.477c-0.055-0.458,0.385-1.305,0.772-1.431c2.657-0.86,5.396-1.566,8.175-0.703
			c2.968,0.921,5.885,1,8.819-0.001c1.055-0.36,5.711,0.48,5.689,1.171c-0.087,2.74,2.787,4.058,2.961,6.626
			c0.046,0.68,0.652,0.883,1.328,0.9c0.698,0.017,0.856-0.289,0.898-0.926c0.127-1.911,1.613-2.547,3.062-3.342
			c2.98-1.634,8.494-1.59,10.143,0.213c1.377,1.506,3.184,2.431,5.019,3.364c3.02,1.535,6.328,2.396,8.625,5.476
			c1.823,2.445,5.271,0.899,6.34-2.061c0.827-2.29,0.471-4.658-0.288-6.402c-1.784-4.104-0.189-7.912,0.447-11.647
			C160.395,45.271,161.469,41.796,161.34,38.322z M76.125,188.637c-2.244-0.231-4.339,0.501-6.501,0.88
			c-3.657,0.642-5.061,2.027-5.011,5.709c0.019,1.414-0.473,2.752-0.555,4.096c-0.251,4.162-1.754,8.538,1.842,12.208
			c1.249,1.274,2.07,1.799,3.555,0.338c1.727-1.697,3.714-2.031,6.217-1.217c2.784,0.906,5.431,2.442,8.57,2.246
			c3.165-0.198,5.88-1.828,8.903-2.457c1.639-0.341,2.299-1.817,2.323-3.331c0.083-5.344,0.705-10.722-0.459-16.014
			c-0.378-1.721-1.378-3.035-3.536-2.897c-1.614,0.104-3.211,0.382-4.807,0.555C83.127,189.136,79.634,188.945,76.125,188.637z
			 M28.435,215.114c2.657-0.02,4.966-0.402,7.295-1.201c2.316-0.795,4.753-1.971,7.321-0.24c0.717,0.482,1.698-0.104,2.349-0.991
			c1.074-1.462,0.96-3.196,1.194-4.793c0.381-2.608-0.092-5.271,0.45-7.932c0.536-2.627,0.968-5.355,0.067-8.03
			c-0.464-1.379-1.199-2.099-2.887-2.469c-3.717-0.815-7.545-0.57-11.221-1.566c-3.25-0.88-7.83,1.005-8.708,3.419
			c-1.417,3.9-2.959,7.76-4.23,11.707c-0.64,1.987-1.237,4.146-0.473,6.239C20.828,212.644,23.072,215.445,28.435,215.114z
			 M376.953,69.994c0.73,0.49,1.178,1.166,1.989,1.479c1.831,0.708,4.589-0.381,5.002-2.162c0.216-0.934,0.648-2.214-0.487-2.684
			c-1.634-0.677-4.049-2.245-5.072-0.861c-1.939,2.621-3.999,1.891-6.304,1.533c-0.578-0.089-1.381-0.206-1.747,0.096
			c-1.277,1.051-2.369,0.361-3.294-0.32c-1.56-1.15-2.91-0.522-4.233,0.246c-1.39,0.806-1.797,3.503-0.756,4.968
			c1.065,1.5,2.117,0.74,3.384,0.035c1.452-0.808,3.175-1.632,4.526,0.411c0.364,0.55,1.226,1.284,1.618,0.704
			C372.925,71.449,375.861,72.178,376.953,69.994z M187.273,127.912c0.416-2.929-0.803-5.047-2.643-6.872
			c-1.962-1.944-5.779-1.783-6.631,0.223c-0.625,1.47,0.098,4.844,1.489,5.89c0.512,0.386,0.883,0.83,1.005,1.29
			c0.625,2.346,1.881,4.335,3.181,6.337c0.402,0.619,0.694,1.203,1.454,0.987c0.63-0.18,1.349-0.708,1.254-1.376
			C186.05,132.054,188.049,130.079,187.273,127.912z M183.993,177.015c-0.988-0.121-1.227-1.025-1.914-1.301
			c-0.733-0.295-1.451-0.653-2.209-0.853c-1.144-0.302-2.265-0.024-3.031,0.841c-0.829,0.937-0.926,2.035-0.267,3.237
			c0.978,1.782,3.4,2.628,5.884,1.821c1.202-0.391,1.982-0.536,2.753,0.932c1.043,1.983,3.967,2.615,5.529,1.47
			c1.106-0.812,1.865-1.705,0.171-2.861c-0.636-0.435-1.774-0.985-1.487-1.943c0.732-2.451-1.409-3.7-2.121-5.527
			c-0.25-0.64-1.003-1.59-1.922-1.08c-0.849,0.473-1.609,1.143-1.699,2.411C183.609,175.154,184.581,175.932,183.993,177.015z
			 M400.098,67.654c0.22-1.375-0.907-1.938-1.958-2.669c-1.364-0.949-1.579,0.519-2.266,0.946c-0.485,0.302-0.791,0.831-1.416,1.006
			c-1.087,0.306-2.221-0.31-2.654-0.803c-0.668-0.759,0.703-0.905,1.16-1.354c0.106-0.104,0.217-0.205,0.314-0.316
			c0.686-0.781,1.652-1.375,1.117-2.738c-0.774-1.969-2.606-1.574-4.038-1.812c-1.141-0.189-2.005,0.709-2.333,1.891
			c-0.356,1.283,0.707,2.015,1.258,2.896c0.5,0.796,0.938,1.276-0.243,1.846c-1.097,0.529-1.435,1.709-0.915,2.65
			c0.531,0.961,0.91,2.167,2.636,2.21c1.794,0.046,3.442-0.995,5.386-0.228C397.359,71.658,400.064,69.011,400.098,67.654z
			 M258.995,133.152c0.029-2.365-1.827-3.719-4.606-3.621c-1.858,0.065-2.178,1.214-1.883,2.649
			c0.185,0.895,0.481,2.062,1.136,2.512c2.443,1.675,0.584,3.068-0.09,4.552c-0.178,0.392-0.563,0.718-0.648,1.117
			c-0.327,1.554-0.445,3.057,1.292,3.99c1.78,0.957,3.183,0.151,4.196-1.125c1.076-1.356,0.979-3.083-0.468-4.095
			c-1.909-1.334-1.394-2.419-0.117-3.688C258.486,134.767,259.322,134.165,258.995,133.152z M118.491,193.564
			c2.572,0.606,4.871-0.867,7.375-0.943c0.942-0.029,2.074-1.028,1.799-2.121c-0.324-1.285-1.006-2.697-2.741-2.71
			c-1.492-0.011-3.214-0.456-3.481,1.955c-0.145,1.305-0.917,1.775-2.244,0.955c-0.532-0.329-0.773-0.785-1.157-1.177
			c-1.088-1.11-2.632-1.658-3.826-0.748c-1.39,1.061-0.816,2.514,0.188,3.829C115.556,194.114,117.105,193.41,118.491,193.564z
			 M111.051,127.464c-0.38,0.296-0.767,0.572-1.127,0.881c-1.073,0.92-1.699,2.077-1.378,3.494c0.14,0.617,0.792,1.439,1.378,1.216
			c1.375-0.522,3.392,0.2,4.016-1.937c0.262-0.896,1.579-1.791,0.32-2.669c-1.342-0.937-1.042-1.566-0.14-2.569
			c0.792-0.879,0.88-2.015,0.011-2.956c-0.854-0.925-1.968-1.238-3.204-0.884c-1.255,0.361-1.542,1.217-1.6,2.499
			C109.26,126.024,110.401,126.543,111.051,127.464z M145.732,97.658c-0.023-0.528,0.019-1.056-0.081-1.557
			c-0.365-1.841-2.362-3.642-3.691-3.22c-1.249,0.397-2.228,1.288-2.079,2.724c0.172,1.671,1.209,2.624,2.953,2.575
			c1.623-0.046,2.865-0.102,1.578,2.167c-0.668,1.177-0.436,2.815,1.001,3.507c1.547,0.744,2.231-0.575,2.781-1.731
			c0.307-0.646,0.661-1.261,0.639-2.066C148.781,98.156,147.696,97.234,145.732,97.658z M176.585,119.696
			c-0.164-1.071-0.164-2.202-0.531-3.198c-0.453-1.228-1.707-1.793-2.851-2.127c-1.068-0.312-1.85,0.626-2.438,1.394
			c-1.302,1.699-1.344,3.602,0.036,5.188c0.882,1.014,2.124,2.333,3.625,1.746C175.529,122.267,176.759,121.335,176.585,119.696z
			 M325.388,138.951c-2.402-0.052-3.804,1.558-3.894,4.476c-0.029,0.934,2.394,3.132,3.431,3.112c1.645-0.032,3.457-2.047,3.5-3.891
			C328.477,140.432,327.296,138.993,325.388,138.951z M266.493,160.763c0.009-1.318-1.145-2.5-2.484-2.548
			c-1.728-0.062-4.587,2.272-4.533,3.699c0.062,1.646,1.771,4.278,2.827,4.354C263.972,166.387,266.478,163.096,266.493,160.763z
			 M138.067,126.257c1.938,0.413,2.677-0.28,3.283-1.483c0.555-1.104-0.242-1.612-0.713-2.258c-0.833-1.141-1.871-0.497-2.766-0.116
			c-1.402,0.597-2.555,1.512-4.384,1.011c-0.912-0.25-2.881,0.283-2.967,1.883c-0.097,1.803,1.312,2.088,2.907,2.049
			C135.222,127.297,136.585,125,138.067,126.257z M324.381,156.419c1.466,0.015,3.984-1.844,3.976-2.934
			c-0.012-1.416-3.666-4.368-5.354-4.206c-1.207,0.116-2.11,0.946-2.144,2.121C320.785,154.168,322.455,156.398,324.381,156.419z
			 M329.322,132.416c-0.012-2.037-1.778-3.374-4.505-3.306c-1.787,0.044-2.846,1.118-3.077,2.808
			c-0.209,1.527,2.601,3.441,4.865,3.45C328.361,135.375,329.333,134.319,329.322,132.416z M282.805,167.015
			c0.038-0.661-0.205-1.146-0.668-1.594c-1.313-1.269-3.911-0.457-4.771,1.511c-0.618,1.412,0.67,5.97,1.978,6.916
			c0.774,0.562,1.958-0.021,1.925-0.353C281.029,171.13,282.1,169.121,282.805,167.015z M139.227,201.214
			c0.89,0,1.259,0.004,1.629-0.001c1.646-0.021,3.43-1.584,3.374-2.954c-0.064-1.579-1.746-2.725-3.723-2.398
			c-1.191,0.197-2.46,0.415-3.484,0.995c-0.887,0.504-1.487,1.374-0.92,2.746C136.872,201.463,138.286,201.249,139.227,201.214z
			 M221.881,129.545c1.877-0.024,3.492-1.646,3.519-3.535c0.021-1.489-1.841-3.603-3.036-3.082c-1.429,0.623-4.16-0.639-4.123,2.438
			C218.263,127.149,220.393,129.563,221.881,129.545z M324.839,161.391c0.507-1.435-0.669-2.079-1.965-2.23
			c-2.287-0.267-4.785,2.091-4.751,4.254c0.027,1.703,1.285,2.842,3.125,2.829C322.989,166.23,324.859,163.864,324.839,161.391z
			 M85.995,121.034c-2.154,0.047-4.012,1.473-3.921,3.01c0.075,1.262,2.285,3.333,3.47,3.252c1.361-0.093,4.465-2.469,4.479-3.43
			C90.047,122.287,88.198,120.987,85.995,121.034z M108.495,209.949c0.135-1.559-1.102-2.049-2.157-2.386
			c-2.623-0.838-3.168,1.236-3.861,3.014c-0.403,1.036,0.244,4.614,0.915,4.919c0.188,0.085,0.447,0.069,0.66,0.029
			C105.044,215.343,108.493,210.996,108.495,209.949z M132.529,206.979c-0.956,0.062-2.034-0.123-2.829,0.267
			c-0.596,0.292-1.826,0.87-1.284,1.95c0.754,1.503,1.666,3.133,3.765,2.732c1.382-0.265,2.696-0.877,4.051-1.3
			c0.931-0.29,0.897-1.002,0.946-1.772c0.055-0.874-0.575-0.744-1.064-1.021C134.972,207.188,133.819,206.892,132.529,206.979z
			 M274.332,163.681c0.045-0.734-0.43-0.758-0.901-1.056c-1.006-0.633-1.846,0.146-2.692,0.019c-1.855-0.278-2.586,0.808-2.924,2.23
			c-0.302,1.27,0.069,2.448,1.053,3.469c1.102,1.144,2.262,1.756,3.253,0.19C273.062,167.046,273.61,165.308,274.332,163.681z
			 M144.784,185.068c-2.044,0.039-3.952,0.194-4.416,2.236c-0.385,1.691,1.411,3.163,3.36,3.158
			c2.447-0.005,4.252-1.203,4.161-2.893C147.776,185.468,146.355,184.951,144.784,185.068z M112.52,201.53
			c-0.002-1.596-2.237-3.457-4.035-3.452c-2.332,0.006-3.115,1.278-2.186,3.366c0.405,0.91,1.471,1.511,1.292,2.681
			c-0.134,0.879,0.341,1.617,1.003,1.771c0.854,0.198,1.12-0.612,1.426-1.382c0.244-0.612,0.972-1.09,1.579-1.482
			C112.22,202.63,112.317,202.025,112.52,201.53z M375.009,45.82c0.09-0.369-0.092-0.782-0.482-1.208
			c-1.327-1.443-3.104-1.642-4.756-1.289c-1.067,0.228-2.611,0.593-2.416,2.528c0.179,1.77,1.305,2.004,2.654,2.199
			c0.41,0.06,0.79,0.324,1.188,0.487C372.842,49.209,375.014,47.765,375.009,45.82z M174.853,94.617
			c1.327,0.024,3.501-1.656,3.487-3.165c-0.011-1.189-2.468-2.967-4.16-3.01c-1.558-0.04-3.106,1.714-2.932,3.657
			C171.398,93.767,172.542,94.622,174.853,94.617z M299.35,123.25c1.201,0.1,2.378,0.184,2.968-1.054
			c0.578-1.214-0.374-1.876-1.085-2.625c-0.343-0.36-0.526-0.866-0.849-1.251c-0.67-0.8-1.555-1.354-2.577-0.938
			c-1.183,0.48-2.392,1.089-2.522,2.632c-0.101,1.175,0.238,2.108,1.402,2.655C297.564,123.081,298.422,123.463,299.35,123.25z
			 M362.813,60.111c-1.716-0.43-2.56,0.876-3.239,1.897c-0.574,0.864-0.37,1.997,0.359,3.063c0.889,1.3,2.274,1.415,3.014,0.764
			c1.29-1.134,4.05-1.378,3.448-3.862C366.034,60.479,364.247,60.264,362.813,60.111z M304.695,122.221
			c-0.047,2.582,1.956,4.727,3.961,4.579c1.638-0.12,2.275-1.604,2.608-2.852c0.349-1.304-2.417-3.77-3.975-3.803
			C305.54,120.108,304.888,121.219,304.695,122.221z M237.745,132.655c1.926,0.186,3.541-0.112,3.763-2.375
			c0.144-1.477-2.039-3.45-3.633-3.423c-1.606,0.028-3.095,1.633-3.059,3.362C234.858,132.175,235.858,133.023,237.745,132.655z
			 M288.127,121.041c2.293-0.06,4.536-1.931,4.463-3.485c-0.053-1.143-2.072-2.426-3.685-2.343
			c-1.518,0.079-3.479,1.924-3.477,3.301C285.431,120.521,286.994,120.703,288.127,121.041z M232.106,129.201
			c-0.16-0.636,0.468-2.16-0.785-2.206c-1.262-0.047-2.705-1.244-3.729-0.182c-1.065,1.104-2.86,2.283-2.09,4.136
			c0.682,1.64,2.314,1.438,3.788,0.845c0.128-0.051,0.305-0.035,0.444,0.003C231.877,132.379,232.221,131.141,232.106,129.201z
			 M278.706,128.803c-0.014-1.347-1.589-2.862-2.947-2.835c-1.563,0.031-4.183,2.063-4.212,3.269
			c-0.027,1.125,2.281,2.617,3.941,2.548C277.709,131.69,278.725,130.749,278.706,128.803z M290.644,164.486
			c0.35-1.374-0.071-1.993-0.716-2.414c-0.722-0.472-1.52-0.416-2.295-0.018c-1.581,0.813-2.458,2.122-2.941,3.816
			c-0.351,1.227,0.266,1.953,1.055,2.61c0.84,0.7,1.831,0.593,2.583-0.072C289.655,167.239,290.11,165.524,290.644,164.486z
			 M121.957,210.002c0.361-1.394-0.49-2.308-2.026-2.479c-1.668-0.187-4.677,1.999-4.711,3.229
			c-0.032,1.167,2.685,3.146,4.429,2.961C121.602,213.507,121.909,211.933,121.957,210.002z M272.435,120.998
			c-0.006-1.734-1.115-3.151-2.403-3.071c-1.715,0.106-3.964,2.428-3.701,4.123c0.25,1.609,1.632,2.356,3.123,2.533
			C271.089,124.778,272.441,123.041,272.435,120.998z M165.214,95.857c1.492,0.001,3.314-1.333,3.3-2.417
			c-0.017-1.332-2.562-4.156-3.791-4.204c-1.06-0.042-2.931,2.112-2.922,3.364C161.811,93.877,163.885,95.856,165.214,95.857z
			 M327.509,124.17c1.972,0.003,3.224-1.101,3.154-2.78c-0.062-1.507-1.727-3.086-3.205-3.041c-1.427,0.043-3.432,2.01-3.511,3.441
			C323.871,123.211,325.3,124.166,327.509,124.17z M255.273,160.458c2.27-0.028,3.797-1.845,3.723-3.896
			c-0.062-1.722-1.185-1.993-2.597-1.939c-1.59,0.06-4.237,2.195-4.083,3.541C252.54,160.127,254.109,160.399,255.273,160.458z
			 M93.919,104.466c-2.077-0.022-4.796,1.81-4.664,2.954c0.189,1.635,1.201,2.69,2.832,2.834c1.909,0.169,3.809-1.431,3.87-3.009
			C96.022,105.519,95.046,104.747,93.919,104.466z M383.968,46.053c0.014-1.292-2.785-3.5-4.466-3.379
			c-1.306,0.094-2.14,0.925-2.231,2.26c-0.071,1.04,2.736,3.922,3.754,3.977C382.328,48.981,383.955,47.402,383.968,46.053z
			 M224.31,140.271c-1.902-0.064-3.063,1.296-4.115,2.506c-0.504,0.581-0.431,1.741,0.655,2.47c2.486,1.666,4.307,1.029,5.448-2.075
			C227.07,141.073,226.545,140.31,224.31,140.271z M134.803,185.985c-1.163-0.022-2.689,1.279-2.974,2.566
			c-0.268,1.208,0.4,1.818,1.403,2.417c1.088,0.648,2.308,0.778,3.435,1.236c0.729,0.297,1.429-0.035,1.927-0.712
			c0.473-0.643-0.116-1.049-0.345-1.472c-0.616-1.138-1.338-2.218-2.015-3.323C135.892,186.138,135.41,185.878,134.803,185.985z
			 M167.609,82.731c0.041,1.909,2.727,5.526,3.468,5.091c1.58-0.928,1.902-2.784,2.303-4.39c0.311-1.242-2-2.866-3.652-2.694
			C168.273,80.89,167.612,81.821,167.609,82.731z M265.277,127.644c-0.017-1.644-0.794-2.571-2.498-2.573
			c-1.488-0.001-3.499,2.097-3.297,3.639s0.898,2.781,2.829,2.639C263.943,131.227,265.311,129.566,265.277,127.644z
			 M300.054,163.579c-1.725-0.04-4.04,1.94-3.818,3.557c0.183,1.329,0.199,3.098,2.302,3.17c1.373,0.047,3.426-2.766,3.447-4.811
			C301.998,164.243,301.285,163.621,300.054,163.579z M253.173,150.783c-0.012,2.054,0.979,3.354,2.588,3.396
			c1.253,0.033,3.22-2.25,3.235-3.755c0.015-1.476-1.41-2.698-3.206-2.476C254.25,148.141,252.983,148.859,253.173,150.783z
			 M248.123,134.023c1.496-0.05,2.829-1.235,2.805-2.495c-0.026-1.437-1.848-3.343-3.174-3.325
			c-1.396,0.019-3.493,1.825-3.434,2.958C244.384,132.382,246.63,134.073,248.123,134.023z M82.09,131.778
			c-0.064,2.041-0.153,3.526,1.929,3.588c1.415,0.041,3.309-1.875,3.337-3.364c0.027-1.442-1.698-3.427-3.049-3.329
			C81.909,128.845,82.203,130.764,82.09,131.778z M332.458,111.931c0.024-1.867-1.095-3.033-2.939-2.981
			c-1.695,0.047-2.9,0.975-2.809,2.64c0.081,1.466,0.647,3.067,2.334,3.577C329.925,115.433,332.444,112.9,332.458,111.931z
			 M158.66,96.303c-0.152-1.13-0.916-2.168-2.733-2.146c-1.846,0.023-3.054,1.255-3.095,3.111c-0.033,1.505,0.536,2.626,2.124,2.671
			C157.087,99.999,158.664,98.567,158.66,96.303z M179.436,118.372c1.122-0.017,3.444-2.635,3.408-3.829
			c-0.025-0.858-2.443-3.031-3.362-2.807c-1.624,0.396-2.504,1.857-2.337,3.255C177.297,116.258,177.297,118.225,179.436,118.372z
			 M179.265,100.225c0.019-1.599-1.504-3.008-3.341-2.907c-1.586,0.087-2.71,0.953-2.905,2.605c-0.149,1.265,1.574,3.016,2.88,3.093
			C177.323,103.101,179.25,101.502,179.265,100.225z M221.818,136.813c-0.39,1.354,0.384,2.26,1.774,2.521
			c1.22,0.229,4.024-2.323,4.048-3.483c0.022-1.131-1.736-2.747-2.964-2.722C223.18,133.159,221.83,134.81,221.818,136.813z
			 M310.075,170.306c2.087,0.021,3.004-1.023,3.143-3.169c0.1-1.543-0.512-2.629-1.918-3.025c-0.873-0.245-4.15,2.973-3.797,3.687
			C308.049,168.901,308.143,170.758,310.075,170.306z M112.051,111.643c-2.061-0.067-4.429,1.847-4.451,3.284
			c-0.028,1.839,1.334,2.313,2.722,2.482c1.339,0.164,3.771-1.862,3.478-2.896C113.477,113.375,113.32,111.875,112.051,111.643z
			 M387.951,43.543c-1.888-0.243-2.931,0.945-3.467,2.425c-0.37,1.021,2.14,2.644,3.854,2.475c1.345-0.132,2.907-0.288,3.1-2.064
			C391.599,44.891,389.807,43.536,387.951,43.543z M223.163,159.623c-0.005,2.369,1.206,4.345,2.604,4.411
			c1.122,0.053,3.002-1.952,3.072-3.276c0.073-1.379-2.232-3.054-4.275-2.929C223.509,157.894,222.875,158.591,223.163,159.623z
			 M246.166,158.213c-1.462,0.013-3.468,2.275-3.266,3.826c0.167,1.283,1.494,1.753,2.27,1.454c1.404-0.542,3.899,0.452,3.969-2.346
			C249.183,159.323,248.025,158.195,246.166,158.213z M319.912,125.584c0.021-1.582-1.955-3.332-3.625-3.451
			c-1.162-0.083-2.68,1.629-2.616,2.952c0.055,1.132,2.199,2.539,3.845,2.688C319.385,127.942,319.692,126.723,319.912,125.584z
			 M235.802,163.14c1.763,0,4.098-1.957,3.812-3.322c-0.297-1.423-1.447-2.024-2.937-2.078c-1.016-0.036-1.302,0.912-2.004,1.203
			c-1.196,0.495-1.866,1.516-1.529,2.528C233.494,162.52,234.471,163.468,235.802,163.14z M272.653,143.43
			c2.247,0.018,3.353-0.862,3.361-2.61c0.009-1.981-1.311-2.322-2.905-2.317c-1.969,0.006-3.496,1.1-3.338,2.546
			C269.958,142.774,271.024,143.583,272.653,143.43z M158.124,124.846c0.013-1.378-1.144-2.438-2.693-2.468
			c-1.363-0.025-3.823,1.707-3.738,2.634c0.047,0.519,3.099,3.194,3.632,3.185C156.169,128.181,158.115,125.854,158.124,124.846z
			 M387.104,52.698c-0.01,1.469,1.446,3.401,2.546,3.379c1.139-0.022,3.226-1.961,3.275-3.042c0.055-1.18-1.719-2.788-3.213-2.75
			C388.215,50.324,386.944,50.784,387.104,52.698z M178.204,110.727c1.221-0.197,2.009-1.411,2.357-2.852
			c0.25-1.033-2.129-2.996-3.487-2.949c-1.574,0.055-2.311,0.985-2.285,2.531C174.819,109.248,176.173,110.747,178.204,110.727z
			 M102.103,104.479c-2.122-0.08-3.966,1.416-3.838,2.983c0.114,1.389,1.097,2.446,2.475,2.67c1.412,0.23,3.747-1.859,3.566-3.166
			C104.111,105.555,103.203,104.581,102.103,104.479z M121.931,129.148c0.085-1.565-0.613-2.334-2.225-2.301
			c-1.759,0.036-3.682,1.581-3.569,3.102c0.105,1.419,1.014,2.236,2.46,2.272C120.318,132.264,121.913,130.753,121.931,129.148z
			 M277.385,117.434c-1.514,0.039-2.516,0.757-2.686,2.304c-0.104,0.946,2.113,3.06,3.083,3.087
			c1.243,0.035,3.109-1.543,3.138-2.653C280.952,118.937,279.042,117.462,277.385,117.434z M165.802,122.675
			c0.099-2.207-1.427-3.849-3.161-3.641c-1.566,0.188-2.543,1.405-2.402,2.96c0.129,1.423,1.037,2.504,2.666,2.622
			C164.7,124.746,165.568,123.783,165.802,122.675z M269.882,151.045c-1.911,0.007-3.896,1.519-3.667,2.864
			c0.277,1.632,1.662,2.076,3.136,2.049c1.91-0.034,2.586-1.148,2.672-2.982C272.11,151.104,271.124,150.877,269.882,151.045z
			 M86.109,107.405c0.153-1.615-1.149-2.167-2.423-2.442c-1.22-0.264-2.95,1.649-2.974,2.937c-0.037,1.944,1.517,2.613,2.804,2.58
			C84.948,110.443,86.167,109.351,86.109,107.405z M147.135,119.693c-0.522,0-1.077-0.114-1.561,0.022
			c-1.288,0.366-2.53,1.126-2.038,2.597c0.313,0.934,1.629,1.48,2.71,1.36c1.178-0.132,2.673,0.859,3.5-0.963
			C150.638,120.743,149.792,119.695,147.135,119.693z M109.286,105.347c-1.569-0.106-2.586,0.369-2.597,2.157
			c-0.009,1.555,0.539,2.811,2.114,3.075c1.599,0.267,3.265-1.184,3.258-2.619C112.053,106.153,110.989,105.377,109.286,105.347z
			 M83.72,114.77c-1.586-0.018-3.97,1.807-3.727,2.968c0.229,1.094,0.237,2.6,1.898,2.732c1.198,0.096,3.805-2.421,3.75-3.548
			C85.579,115.651,84.793,115.021,83.72,114.77z M98.177,131.13c0.002,1.778,0.646,2.723,2.113,2.877
			c1.713,0.181,3.774-1.233,3.695-2.569c-0.085-1.431-0.982-2.359-2.42-2.302C100.039,129.197,98.47,129.482,98.177,131.13z
			 M91.919,133.965c0.046,0.716,0.844,1.554,2.053,1.806c1.004,0.21,3.253-2.397,3.15-3.647c-0.109-1.319-1.114-1.99-2.321-2.094
			C93.454,129.915,91.922,131.779,91.919,133.965z M73.872,107.088c-1.642,0.304-3.305,0.563-3.402,2.512
			c-0.08,1.6,1.36,2.516,2.577,2.324c1.176-0.185,3.179-0.098,3.185-2.245C76.236,108.072,75.228,107.368,73.872,107.088z
			 M145.629,128.556c0.075,1.595,0.797,2.71,2.333,2.729c1.584,0.02,2.601-1.22,2.552-2.644c-0.05-1.439-1.18-2.508-2.721-2.653
			C145.88,125.807,145.859,127.327,145.629,128.556z M143.429,104.896c-0.008-0.95-1.027-1.808-2.103-1.77
			c-1.399,0.049-3.859,1.995-3.545,2.967c0.29,0.897,0.724,1.962,2.056,1.957C141.275,108.044,143.44,106.175,143.429,104.896z
			 M108.891,189.551c-1.527,0.034-2.829,0.123-3.059,1.728c-0.183,1.272,1.945,2.876,3.602,2.754
			c1.387-0.102,1.766-1.012,1.764-2.289C111.196,189.953,110.198,189.463,108.891,189.551z M123.218,123.734
			c0.921,0.022,2.251-1.017,2.294-2.188c0.041-1.113-1.699-2.721-2.913-2.759c-1.648-0.052-1.915,1.189-1.966,2.314
			C120.573,122.439,120.887,123.767,123.218,123.734z M126.89,129.065c1.464,0.212,2.242-0.135,2.251-1.839
			c0.015-2.436-1.854-2.128-3.215-2.354c-1.305-0.217-2.191,1.01-2.08,1.957C124.024,128.359,125.065,129.489,126.89,129.065z
			 M142.731,112.978c1.453-0.132,3.109-0.176,3.345-2.087c0.187-1.514-0.898-1.94-2.274-1.97c-1.715-0.036-2.887,0.633-3.013,2.379
			C140.707,112.436,141.34,113.241,142.731,112.978z M144.849,114.354c0-0.013,0-0.025,0-0.037c-0.448,0-0.902,0.05-1.342-0.01
			c-1.246-0.169-1.567,0.891-1.757,1.618c-0.193,0.744,0.406,1.468,1.239,1.763c1.59,0.562,3.052,0.035,4.311-0.816
			c1.059-0.716,0.646-2.133-0.671-2.492C146.075,114.227,145.445,114.354,144.849,114.354z M121.933,109.397
			c-0.108,1.212,0.39,2.072,1.618,2.196c1.2,0.121,2.856-1.955,2.866-3.362c0.008-1.151-0.554-1.869-1.655-1.943
			C123.504,106.203,121.927,108.031,121.933,109.397z M148.406,138.965c1.765-0.033,3.001-0.891,2.975-2.403
			c-0.018-1.021-0.59-2.567-2.181-2.499c-1.44,0.062-2.336,1.317-2.38,2.469C146.792,137.288,146.719,139.081,148.406,138.965z
			 M121.166,113.456c-1.572-0.397-2.227,0.697-2.301,1.895c-0.085,1.364,0.944,2.52,2.24,2.415c1.017-0.081,2.68-0.354,2.588-2.084
			C123.616,114.218,122.99,113.115,121.166,113.456z M134.476,106.274c-0.018-1.139,0.202-2.223-1.295-2.262
			c-1.171-0.03-3.762,1.732-3.599,2.613c0.323,1.748,2.073,1.536,3.212,1.788C134.566,108.803,134.351,107.198,134.476,106.274z
			 M173.442,180.739c-0.057-1.561-2.681-2.896-4.386-2.188c-0.484,0.2-1.126,0.339-1.004,1.176c0.092,0.634-0.104,1.284,0.832,1.517
			c0.817,0.203,1.574,0.642,2.363,0.964C172.797,182.841,173.501,182.367,173.442,180.739z M224.94,153.255
			c0.123-1.401-0.154-2.517-1.693-2.631c-1.103-0.082-1.966,0.599-1.808,1.688c0.179,1.242,0.625,2.696,2.259,2.677
			C224.584,154.979,225.249,154.261,224.94,153.255z"/>
		<path style="fill-rule:evenodd;clip-rule:evenodd;fill:#7B491E;" d="M307.977,32.163c0.478,0.05,1.17-0.035,1.719,0.207
			c3.411,1.5,6.645-0.239,9.958-0.372c4.973-0.199,9.974-0.305,14.915,1.073c2.065,0.576,4.567,0.538,6.627-0.062
			c2.587-0.752,5.087-0.625,7.647-0.581c2.171,0.038,4.21-0.683,6.268-1.171c0.96-0.228,1.685-0.208,2.483,0.202
			c0.458,0.235,0.933,0.661,1.438,0.394c2.453-1.303,2.916,0.492,3.604,2.166c1.142,2.771,1.701,5.342-0.774,7.833
			c-0.777,0.782-0.45,1.821,1.024,2.221c0.866,0.235,2.328,0.081,2.303,1.818c-0.025,1.699-1.059,2.62-2.372,2.963
			c-2.427,0.634-3.267,2.003-3.078,4.434c0.146,1.876-0.935,3.494-1.964,4.941c-1.337,1.879-2.107,3.867-2.54,6.124
			c-0.304,1.592-1.121,2.869-2.963,3.665c-2.286,0.988-4.331,1.386-6.878,1.229c-2.475-0.153-5.109,1.283-7.015,2.946
			c-1.893,1.653-4.012,2.629-6.248,3.06c-3.195,0.614-6.207,1.85-9.509,2.19c-4.194,0.433-8.171,0.137-12.033-1.417
			c-1.405-0.565-2.688-0.897-4.264-0.982c-2.166-0.116-4.471-0.205-6.487-1.847c-2.957-2.408-7.267-2.019-10.065,0.796
			c-4.815,4.844-10.431,5.318-16.529,3.523c-1.604-0.472-3.068-0.637-4.388,0.329c-2.59,1.896-5.175,0.895-7.738,0.136
			c-1.845-0.546-3.742-0.642-5.609-0.787c-2.051-0.159-4.051-0.108-5.949-1.17c-1.874-1.049-3.355,0.626-4.894,1.209
			c-2.85,1.079-5.831,1.308-8.743,1.601c-3.842,0.387-7.753,0.061-11.633,0.113c-1.377,0.019-2.631-0.38-3.189-1.545
			c-0.555-1.154-0.125-2.277,0.828-3.394c1.758-2.06,3.679-3.645,6.029-5.111c2.622-1.635,5.151-3.601,7.731-5.411
			c1.079-0.756,2.437-0.794,3.312-2.228c2.009-3.286,2.626-5.847,1.662-9.635c-0.634-2.486,1.477-3.515,2.883-4.809
			c0.519-0.478,1.367-0.74,1.534-1.464c0.704-3.048,2.937-5.021,5.054-6.958c2.298-2.103,4.926-3.845,7.414-5.739
			c0.579-0.441,1.212-0.818,1.754-1.299c1.717-1.521,4.376-1.623,6.243-0.266c0.673,0.488,0.608,1.119,0.622,1.787
			c0.028,1.454,0.589,1.791,2.071,1.359c1.831-0.533,3.35-1.689,5.175-2.202c2.008-0.565,3.998-0.304,6.016-0.347
			c3.712-0.079,7.89,0.818,11.013-1.938c3.562-3.143,6.757-6.702,10.122-10.07c1.409-1.411,3.418-1.81,5.065-2.875
			c1.479-0.956,4.631,2.383,3.84,4.098c-1.453,3.145-1.611,6.669-3.216,9.765C305.567,31.989,306.443,32.555,307.977,32.163z
			 M320.509,59.686c0.315-0.03,0.929,0.001,1.487-0.158c3.66-1.044,7.129-2.729,11.096-2.739c0.966-0.002,2.25-0.164,3.32-1.505
			c1.901-2.382,1.021-5.076,1.811-7.513c0.236-0.729-0.543-1.073-1.323-1.1c-3.702-0.13-7.402-0.325-11.104-0.423
			c-1.449-0.039-2.828,0.72-4.352,0.333c-3.585-0.912-7.195-0.777-10.726,0.248c-0.903,0.263-1.877,0.549-2.572,0.18
			c-1.754-0.931-2.382,0.423-2.937,1.387c-1.598,2.776-0.064,5.811-0.45,8.715c-0.049,0.366,0.514,0.605,0.963,0.787
			c0.987,0.4,2.004,0.326,3.015,0.451c2.973,0.367,6.065-0.295,8.921,0.921C318.529,59.64,319.36,59.635,320.509,59.686z
			 M268.496,58.637c0.209-0.066,0.846,0.274,1.354,0.633c1.431,1.012,2.777,1.381,4.639,0.961c1.631-0.369,3.5-0.44,5.223,0.331
			c2.539,1.137,3.88,0.237,3.912-2.567c0.011-0.957-0.07-1.808,1.053-2.342c1.551-0.737,1.011-2.383,0.194-2.756
			c-1.974-0.901-1.526-2.644-1.119-3.615c0.846-2.019-0.936-1.06-1.388-1.521c-0.085-0.087-0.546,0.122-0.786,0.27
			c-1.952,1.203-4.118,0.887-6.232,0.875c-0.974-0.006-1.98-0.057-2.741,0.592c-3.817,3.258-7.599,0.974-11.182-0.298
			c-3.049-1.082-5.141-0.146-5.104,3.077c0.034,2.984-1.228,5.577-2.394,8.194c-0.322,0.721-0.963,1.352,0.026,1.98
			c1.008,0.641,1.482,2.599,3.224,1.486c3.031-1.937,6.73-2.585,9.525-4.983C266.984,58.709,267.546,58.79,268.496,58.637z"/>
		<path style="fill-rule:evenodd;clip-rule:evenodd;fill:#7B491E;" d="M161.34,38.322c0.129,3.474-0.945,6.95-1.552,10.513
			c-0.636,3.736-2.231,7.544-0.447,11.647c0.758,1.745,1.115,4.112,0.288,6.402c-1.068,2.959-4.517,4.505-6.34,2.061
			c-2.297-3.08-5.605-3.941-8.625-5.476c-1.834-0.933-3.641-1.858-5.019-3.364c-1.649-1.803-7.163-1.847-10.143-0.213
			c-1.45,0.795-2.936,1.431-3.062,3.342c-0.042,0.637-0.2,0.943-0.898,0.926c-0.676-0.017-1.282-0.22-1.328-0.9
			c-0.175-2.568-3.049-3.886-2.961-6.626c0.022-0.691-4.634-1.531-5.689-1.171c-2.935,1.001-5.852,0.923-8.819,0.001
			c-2.779-0.863-5.518-0.157-8.175,0.703c-0.387,0.125-0.827,0.973-0.772,1.431c0.317,2.657-1.15,4.952-1.384,7.477
			c-0.143,1.545-0.998,2.8-1.976,3.746c-0.777,0.752-1.956,1.563-3.378,0.983c-1.52-0.62-2.59-1.79-2.639-3.279
			c-0.063-1.875-0.9-3.548-0.963-5.369c-0.05-1.447-0.7-1.228-1.527-0.654c-0.859,0.596-1.65,1.301-2.548,1.829
			c-3.122,1.836-5.931,0.298-8.482-1.225c-1.61-0.962-3.021-1.623-4.935-1.482c-2.45,0.18-4.923,0.013-7.385,0.059
			c-1.009,0.019-2.136-0.083-2.577-0.906c-0.892-1.666-3.128-1.663-3.837-2.79c-1.838-2.922-4.277-1.796-6.661-1.845
			c-0.675-0.014-1.506,0.059-1.769,0.333c-1.542,1.605-3.517,2.668-5.102,4.167c-2.212,2.092-5.598,2.971-8.486,1.672
			c-1.416-0.637-2.734-0.937-4.215-0.327c-1.2,0.495-2.316-0.113-3.367-0.532c-2.642-1.055-6.211-6.382-5.771-9.167
			c0.28-1.775-0.285-3.536,0.322-5.273c0.329-0.941-0.154-2.001-0.627-2.707c-2.243-3.353-2.027-6.707-0.34-10.129
			c0.66-1.338,0.856-2.66,0.076-3.97c-0.907-1.522-0.384-3.024,0.094-4.448c0.323-0.963,0.502-1.767,0.098-2.743
			c-1.301-3.145-0.453-6.448-0.534-9.675c-0.029-1.159,1.25-1.225,2.066-0.745c1.614,0.948,3.256,0.993,4.828,0.217
			c2.469-1.218,4.35,0.603,6.364,1.226c1.865,0.577,3.375,0.921,5.147-0.094c0.965-0.553,2.265-0.692,3.262-0.093
			c2.402,1.444,4.62,0.776,6.857-0.302c2.958-1.425,4.15-0.756,4.061,2.486c-0.047,1.683,0.448,2.235,2.167,2.755
			c2.525,0.764,5.311,0.737,7.592,2.255c0.608,0.405,0.987-0.109,1.323-0.285c2.039-1.068,4.06-1.215,6.175-0.273
			c1.452,0.646,4.096-0.958,5.15-3.081c0.668-1.346,5.116-3.71,6.62-3.701c1.403,0.009,1.215,1.126,1.182,1.771
			c-0.027,0.548-0.145,1.153-0.154,1.732c-0.038,2.515,1.542,3.812,3.686,2.64c1.468-0.802,3.049-0.788,4.512-1.423
			c1.438-0.624,3.091-0.435,4.27,0.874c0.888,0.985,1.766,0.824,2.76,0.26c2.898-1.646,5.762-0.666,8.545,0.287
			c1.576,0.539,2.876,0.777,4.116-0.614c1.473-1.652,3.054-1.27,5.063-0.697c2.71,0.773,5.215,2.628,8.471,1.596
			c1.702-0.541,3.849-0.509,5.708,0.186c1.462,0.546,2.729-0.345,4.115-0.329c3.467,0.04,6.914,0.203,10.323,0.901
			c1.715,0.352,3.349-0.363,5.037-0.485c5.964-0.432,7.92,0.613,9.682,5.663C160.411,28.653,161.494,33.257,161.34,38.322z
			 M97.757,29.202c-0.494-0.021-0.674,0.278-1.003,0.601c-1.09,1.07-1.114,2.452-0.697,3.519c0.985,2.522,0.904,4.947,0.392,7.525
			c-0.346,1.743,0.052,3.097,2.296,3.727c2.104,0.59,4.044,1.777,6.203,2.456c3.875,1.22,7.656,2.108,11.672,0.743
			c1.106-0.376,2.23-0.191,3.426,0.169c1.937,0.583,3.717,1.495,5.592,2.192c1.188,0.441,1.671-0.464,1.427-1.134
			c-1.214-3.336-0.664-6.943-1.727-10.276c-0.398-1.247-0.508-2.512-0.02-3.673c0.406-0.964-0.074-2.01-0.511-2.076
			c-2.27-0.341-4.364-1.588-6.85-0.946c-5.134,1.325-10.218,1.131-15.288-0.714C100.973,30.698,99.56,29.485,97.757,29.202z
			 M58.325,38.112c-0.128-3.582-1.422-7.067-0.892-10.701c0.142-0.977-0.723-1.081-1.228-1.281
			c-3.54-1.404-7.402-0.391-11.011-1.385c-0.186-0.052-0.451,0.036-0.633,0.14c-1.482,0.84-3.122,0.915-4.711,0.704
			c-2.188-0.291-2.663,0.497-2.666,2.629c-0.004,2.466,1.219,4.846,0.855,7.119c-0.525,3.279-0.931,6.332,0.031,9.645
			c0.742,2.555,2.132,3.516,4.46,2.043c4.148-2.624,8.348-5.032,13.568-4.397c1.598,0.195,2.291-0.721,2.23-2.282
			C58.301,39.603,58.325,38.856,58.325,38.112z M66.904,46.034c-0.234,2.079,0.574,3.031,1.957,2.224
			c1.103-0.644,2.298-0.824,3.405-1.319c2.396-1.072,5.059-1.582,7.474-0.191c1.591,0.916,3.094,0.635,4.563,0.287
			c0.952-0.226,1.872-0.414,2.811-0.334c1.244,0.105,1.479-0.596,1.164-1.476c-1.583-4.417-0.799-8.858-0.176-13.282
			c0.181-1.282-0.604-2.146-0.96-3.164c-0.378-1.081-1.311-0.1-1.892,0.031c-2.121,0.478-4.252,0.327-6.382,0.411
			c-2.198,0.087-4.729,0.324-6.003,2.017C69.493,35.721,66.995,40.704,66.904,46.034z M137.777,51.083
			c0.786-0.56,2.382-0.383,3.384-1.825c0.98-1.41,1.971-2.868,3.522-3.841c0.321-0.201,1.031-0.527,1.056-1.429
			c0.038-1.394,0.992-2.484,1.887-3.578c1.169-1.428,2.988-2.735,2.733-4.76c-0.232-1.848-0.176-3.668-0.171-5.491
			c0.004-1.533-0.635-1.917-2.022-1.872c-1.398,0.046-2.723,0.818-4.134,0.453c-3.901-1.009-7.342,0.595-10.863,1.815
			c-0.489,0.169-0.527,0.491-0.476,0.833c0.409,2.75-1.462,5.354-0.472,8.153c0.901,2.546-0.134,5.455,1.372,7.89
			C134.529,48.943,134.503,51.45,137.777,51.083z"/>
		<path style="fill-rule:evenodd;clip-rule:evenodd;fill:#7B491E;" d="M76.125,188.637c3.509,0.309,7.002,0.499,10.542,0.115
			c1.596-0.173,3.193-0.451,4.807-0.555c2.158-0.138,3.158,1.177,3.536,2.897c1.164,5.292,0.542,10.67,0.459,16.014
			c-0.024,1.514-0.685,2.99-2.323,3.331c-3.023,0.629-5.739,2.259-8.903,2.457c-3.14,0.196-5.787-1.34-8.57-2.246
			c-2.503-0.814-4.491-0.48-6.217,1.217c-1.485,1.461-2.306,0.937-3.555-0.338c-3.596-3.67-2.093-8.046-1.842-12.208
			c0.082-1.344,0.574-2.682,0.555-4.096c-0.05-3.682,1.354-5.067,5.011-5.709C71.786,189.138,73.881,188.405,76.125,188.637z
			 M69.971,201.185c0,4.168,0,4.164,3.919,4.517c0.358,0.031,0.709,0.155,1.062,0.241c2.918,0.712,5.83,1.359,8.884,1.115
			c2.62-0.208,4.763-1.904,5.56-4.367c0.79-2.441,0.645-4.928,0.768-7.419c0.07-1.427-0.418-1.647-1.742-1.732
			c-2.087-0.134-4.039,0.693-6.146,0.451c-3.471-0.399-6.793-1.68-10.407-1.37c-1.903,0.163-2.281,0.871-2.384,2.519
			C69.349,197.308,70.4,199.356,69.971,201.185z"/>
		<path style="fill-rule:evenodd;clip-rule:evenodd;fill:#7B491E;" d="M28.435,215.114c-5.363,0.331-7.607-2.471-8.843-5.857
			c-0.764-2.093-0.167-4.252,0.473-6.239c1.271-3.947,2.812-7.807,4.23-11.707c0.877-2.414,5.458-4.299,8.708-3.419
			c3.676,0.996,7.504,0.751,11.221,1.566c1.688,0.37,2.423,1.09,2.887,2.469c0.901,2.675,0.468,5.403-0.067,8.03
			c-0.542,2.66-0.068,5.323-0.45,7.932c-0.233,1.597-0.12,3.331-1.194,4.793c-0.65,0.887-1.631,1.474-2.349,0.991
			c-2.568-1.73-5.004-0.555-7.321,0.24C33.401,214.712,31.092,215.095,28.435,215.114z M26.522,205.479
			c-0.001,2.352,1.365,3.556,3.303,3.323c3.101-0.371,6.193-0.835,9.272-1.358c1.483-0.252,2.581-0.953,2.219-2.81
			c-0.361-1.854,0.053-3.762,0.532-5.458c0.805-2.849,0.052-3.898-2.821-4.289c-2.713-0.369-5.081-1.983-7.654-2.913
			c-1.295-0.469-2.198-0.241-2.626,1.291C27.572,197.48,27.935,201.954,26.522,205.479z"/>
		<path style="fill-rule:evenodd;clip-rule:evenodd;fill:#7B491E;" d="M376.953,69.994c-1.092,2.184-4.027,1.455-5.374,3.445
			c-0.393,0.58-1.254-0.154-1.618-0.704c-1.352-2.042-3.074-1.218-4.526-0.411c-1.267,0.705-2.318,1.465-3.384-0.035
			c-1.041-1.465-0.634-4.162,0.756-4.968c1.323-0.768,2.674-1.396,4.233-0.246c0.925,0.682,2.017,1.372,3.294,0.32
			c0.366-0.301,1.169-0.185,1.747-0.096c2.305,0.358,4.364,1.088,6.304-1.533c1.023-1.384,3.438,0.184,5.072,0.861
			c1.136,0.47,0.703,1.75,0.487,2.684c-0.413,1.781-3.171,2.87-5.002,2.162C378.13,71.16,377.683,70.484,376.953,69.994z"/>
		<path style="fill-rule:evenodd;clip-rule:evenodd;fill:#7B491E;" d="M187.273,127.912c0.776,2.167-1.223,4.142-0.891,6.479
			c0.095,0.668-0.625,1.196-1.254,1.376c-0.759,0.216-1.051-0.368-1.454-0.987c-1.299-2.002-2.555-3.991-3.181-6.337
			c-0.122-0.46-0.493-0.904-1.005-1.29c-1.391-1.046-2.114-4.42-1.489-5.89c0.853-2.006,4.669-2.167,6.631-0.223
			C186.47,122.865,187.689,124.983,187.273,127.912z"/>
		<path style="fill-rule:evenodd;clip-rule:evenodd;fill:#7B491E;" d="M183.993,177.015c0.587-1.083-0.384-1.86-0.313-2.854
			c0.09-1.269,0.85-1.938,1.699-2.411c0.918-0.51,1.672,0.44,1.922,1.08c0.712,1.827,2.853,3.076,2.121,5.527
			c-0.287,0.958,0.852,1.509,1.487,1.943c1.694,1.156,0.936,2.05-0.171,2.861c-1.562,1.146-4.486,0.514-5.529-1.47
			c-0.771-1.468-1.552-1.322-2.753-0.932c-2.483,0.807-4.906-0.039-5.884-1.821c-0.659-1.202-0.562-2.301,0.267-3.237
			c0.766-0.865,1.888-1.143,3.031-0.841c0.758,0.199,1.476,0.558,2.209,0.853C182.766,175.989,183.005,176.894,183.993,177.015z"/>
		<path style="fill-rule:evenodd;clip-rule:evenodd;fill:#7B491E;" d="M400.098,67.654c-0.034,1.357-2.739,4.004-3.952,3.526
			c-1.943-0.767-3.592,0.274-5.386,0.228c-1.726-0.044-2.104-1.25-2.636-2.21c-0.52-0.94-0.182-2.121,0.915-2.65
			c1.182-0.57,0.743-1.05,0.243-1.846c-0.551-0.88-1.614-1.613-1.258-2.896c0.328-1.182,1.192-2.081,2.333-1.891
			c1.432,0.238,3.264-0.157,4.038,1.812c0.535,1.363-0.432,1.957-1.117,2.738c-0.098,0.111-0.208,0.212-0.314,0.316
			c-0.457,0.449-1.828,0.595-1.16,1.354c0.434,0.493,1.567,1.109,2.654,0.803c0.625-0.176,0.931-0.705,1.416-1.006
			c0.687-0.427,0.901-1.895,2.266-0.946C399.191,65.716,400.318,66.279,400.098,67.654z"/>
		<path style="fill-rule:evenodd;clip-rule:evenodd;fill:#7B491E;" d="M258.995,133.152c0.327,1.013-0.509,1.614-1.188,2.291
			c-1.276,1.27-1.792,2.354,0.117,3.688c1.446,1.012,1.544,2.738,0.468,4.095c-1.014,1.276-2.416,2.082-4.196,1.125
			c-1.737-0.934-1.619-2.437-1.292-3.99c0.085-0.399,0.471-0.726,0.648-1.117c0.674-1.483,2.533-2.877,0.09-4.552
			c-0.654-0.449-0.951-1.617-1.136-2.512c-0.295-1.436,0.024-2.584,1.883-2.649C257.167,129.434,259.024,130.787,258.995,133.152z"
			/>
		<path style="fill-rule:evenodd;clip-rule:evenodd;fill:#7B491E;" d="M118.491,193.564c-1.386-0.154-2.935,0.55-4.088-0.96
			c-1.004-1.315-1.578-2.769-0.188-3.829c1.194-0.91,2.738-0.362,3.826,0.748c0.384,0.392,0.625,0.848,1.157,1.177
			c1.327,0.82,2.099,0.35,2.244-0.955c0.267-2.411,1.99-1.966,3.481-1.955c1.735,0.013,2.417,1.425,2.741,2.71
			c0.275,1.093-0.857,2.092-1.799,2.121C123.362,192.697,121.063,194.171,118.491,193.564z"/>
		<path style="fill-rule:evenodd;clip-rule:evenodd;fill:#7B491E;" d="M111.051,127.464c-0.65-0.921-1.791-1.439-1.724-2.925
			c0.058-1.282,0.345-2.138,1.6-2.499c1.236-0.354,2.35-0.041,3.204,0.884c0.87,0.941,0.781,2.077-0.011,2.956
			c-0.903,1.003-1.202,1.633,0.14,2.569c1.259,0.878-0.058,1.772-0.32,2.669c-0.624,2.137-2.641,1.414-4.016,1.937
			c-0.586,0.224-1.239-0.599-1.378-1.216c-0.321-1.417,0.305-2.574,1.378-3.494C110.284,128.036,110.671,127.76,111.051,127.464z"/>
		<path style="fill-rule:evenodd;clip-rule:evenodd;fill:#7B491E;" d="M145.732,97.658c1.964-0.423,3.049,0.498,3.101,2.4
			c0.022,0.805-0.332,1.42-0.639,2.066c-0.55,1.156-1.233,2.475-2.781,1.731c-1.437-0.691-1.669-2.33-1.001-3.507
			c1.287-2.269,0.045-2.213-1.578-2.167c-1.744,0.049-2.78-0.904-2.953-2.575c-0.148-1.437,0.83-2.327,2.079-2.724
			c1.329-0.422,3.326,1.379,3.691,3.22C145.75,96.602,145.709,97.129,145.732,97.658z"/>
		<path style="fill-rule:evenodd;clip-rule:evenodd;fill:#7B491E;" d="M176.583,119.697c0.175,1.638-1.055,2.569-2.157,3.001
			c-1.502,0.587-2.743-0.732-3.625-1.746c-1.379-1.586-1.337-3.488-0.036-5.188c0.588-0.768,1.369-1.705,2.438-1.394
			c1.145,0.334,2.398,0.899,2.851,2.127C176.421,117.494,176.421,118.625,176.583,119.697z"/>
		<path style="fill-rule:evenodd;clip-rule:evenodd;fill:#7B491E;" d="M325.388,138.951c1.908,0.042,3.089,1.48,3.037,3.697
			c-0.043,1.844-1.855,3.858-3.5,3.891c-1.037,0.02-3.46-2.179-3.431-3.112C321.584,140.509,322.986,138.899,325.388,138.951z"/>
		<path style="fill-rule:evenodd;clip-rule:evenodd;fill:#7B491E;" d="M266.493,160.763c-0.015,2.333-2.521,5.624-4.19,5.505
			c-1.056-0.075-2.765-2.707-2.827-4.354c-0.054-1.427,2.806-3.761,4.533-3.699C265.348,158.263,266.501,159.444,266.493,160.763z"
			/>
		<path style="fill-rule:evenodd;clip-rule:evenodd;fill:#7B491E;" d="M138.067,126.257c-1.482-1.257-2.846,1.04-4.64,1.085
			c-1.596,0.039-3.004-0.246-2.907-2.049c0.086-1.6,2.056-2.133,2.967-1.883c1.829,0.501,2.982-0.414,4.384-1.011
			c0.895-0.381,1.932-1.024,2.766,0.116c0.471,0.646,1.268,1.154,0.713,2.258C140.745,125.977,140.005,126.67,138.067,126.257z"/>
		<path style="fill-rule:evenodd;clip-rule:evenodd;fill:#7B491E;" d="M324.381,156.419c-1.927-0.021-3.597-2.251-3.521-5.019
			c0.033-1.175,0.937-2.005,2.144-2.121c1.688-0.162,5.342,2.79,5.354,4.206C328.366,154.575,325.847,156.434,324.381,156.419z"/>
		<path style="fill-rule:evenodd;clip-rule:evenodd;fill:#7B491E;" d="M329.322,132.416c0.011,1.903-0.961,2.959-2.717,2.952
			c-2.265-0.009-5.074-1.923-4.865-3.45c0.231-1.689,1.29-2.764,3.077-2.808C327.543,129.042,329.31,130.379,329.322,132.416z"/>
		<path style="fill-rule:evenodd;clip-rule:evenodd;fill:#7B491E;" d="M282.805,167.015c-0.705,2.106-1.776,4.115-1.537,6.48
			c0.033,0.332-1.15,0.914-1.925,0.353c-1.308-0.946-2.596-5.504-1.978-6.916c0.86-1.968,3.458-2.779,4.771-1.511
			C282.6,165.868,282.843,166.354,282.805,167.015z"/>
		<path style="fill-rule:evenodd;clip-rule:evenodd;fill:#7B491E;" d="M139.227,201.214c-0.941,0.035-2.355,0.249-3.124-1.612
			c-0.566-1.372,0.034-2.242,0.92-2.746c1.023-0.58,2.292-0.798,3.484-0.995c1.977-0.326,3.658,0.819,3.723,2.398
			c0.056,1.37-1.728,2.934-3.374,2.954C140.486,201.218,140.117,201.214,139.227,201.214z"/>
		<path style="fill-rule:evenodd;clip-rule:evenodd;fill:#7B491E;" d="M221.881,129.545c-1.488,0.019-3.618-2.396-3.641-4.179
			c-0.037-3.077,2.694-1.815,4.123-2.438c1.195-0.521,3.057,1.593,3.036,3.082C225.374,127.898,223.758,129.521,221.881,129.545z"/>
		<path style="fill-rule:evenodd;clip-rule:evenodd;fill:#7B491E;" d="M324.839,161.391c0.02,2.474-1.851,4.84-3.591,4.853
			c-1.84,0.013-3.098-1.126-3.125-2.829c-0.034-2.163,2.464-4.521,4.751-4.254C324.17,159.312,325.346,159.956,324.839,161.391z"/>
		<path style="fill-rule:evenodd;clip-rule:evenodd;fill:#7B491E;" d="M85.995,121.034c2.203-0.047,4.052,1.253,4.028,2.832
			c-0.014,0.961-3.118,3.337-4.479,3.43c-1.186,0.081-3.396-1.99-3.47-3.252C81.983,122.507,83.841,121.081,85.995,121.034z"/>
		<path style="fill-rule:evenodd;clip-rule:evenodd;fill:#7B491E;" d="M108.493,209.95c0,1.046-3.449,5.393-4.441,5.575
			c-0.213,0.04-0.473,0.056-0.66-0.029c-0.67-0.305-1.318-3.883-0.915-4.919c0.692-1.777,1.238-3.852,3.861-3.014
			C107.393,207.9,108.629,208.391,108.493,209.95z"/>
		<path style="fill-rule:evenodd;clip-rule:evenodd;fill:#7B491E;" d="M132.529,206.979c1.29-0.088,2.443,0.209,3.585,0.855
			c0.489,0.277,1.119,0.147,1.064,1.021c-0.049,0.771-0.016,1.482-0.946,1.772c-1.355,0.423-2.669,1.035-4.051,1.3
			c-2.099,0.4-3.011-1.229-3.765-2.732c-0.542-1.08,0.688-1.658,1.284-1.95C130.496,206.856,131.573,207.041,132.529,206.979z"/>
		<path style="fill-rule:evenodd;clip-rule:evenodd;fill:#7B491E;" d="M274.332,163.681c-0.722,1.627-1.27,3.365-2.212,4.853
			c-0.991,1.565-2.151,0.953-3.253-0.19c-0.983-1.021-1.354-2.199-1.053-3.469c0.338-1.423,1.068-2.509,2.924-2.23
			c0.847,0.127,1.687-0.651,2.692-0.019C273.902,162.923,274.376,162.946,274.332,163.681z"/>
		<path style="fill-rule:evenodd;clip-rule:evenodd;fill:#7B491E;" d="M144.784,185.068c1.571-0.117,2.992,0.399,3.105,2.502
			c0.091,1.689-1.714,2.888-4.161,2.893c-1.949,0.005-3.745-1.467-3.36-3.158C140.833,185.263,142.74,185.107,144.784,185.068z"/>
		<path style="fill-rule:evenodd;clip-rule:evenodd;fill:#7B491E;" d="M112.52,201.53c-0.202,0.495-0.299,1.1-0.92,1.502
			c-0.607,0.393-1.334,0.87-1.579,1.482c-0.307,0.77-0.572,1.58-1.426,1.382c-0.662-0.154-1.138-0.893-1.003-1.771
			c0.179-1.17-0.888-1.771-1.292-2.681c-0.929-2.088-0.146-3.36,2.186-3.366C110.282,198.073,112.518,199.935,112.52,201.53z"/>
		<path style="fill-rule:evenodd;clip-rule:evenodd;fill:#7B491E;" d="M375.009,45.82c0.005,1.945-2.167,3.39-3.812,2.717
			c-0.397-0.163-0.777-0.427-1.188-0.487c-1.35-0.195-2.476-0.429-2.654-2.199c-0.195-1.935,1.349-2.3,2.416-2.528
			c1.652-0.353,3.429-0.154,4.756,1.289C374.917,45.038,375.099,45.451,375.009,45.82z"/>
		<path style="fill-rule:evenodd;clip-rule:evenodd;fill:#7B491E;" d="M174.853,94.617c-2.311,0.004-3.455-0.85-3.604-2.518
			c-0.174-1.943,1.374-3.697,2.932-3.657c1.692,0.043,4.149,1.821,4.16,3.01C178.354,92.961,176.18,94.641,174.853,94.617z"/>
		<path style="fill-rule:evenodd;clip-rule:evenodd;fill:#7B491E;" d="M299.35,123.25c-0.928,0.213-1.786-0.169-2.663-0.581
			c-1.164-0.547-1.503-1.48-1.402-2.655c0.131-1.543,1.34-2.151,2.522-2.632c1.022-0.415,1.907,0.139,2.577,0.938
			c0.322,0.385,0.506,0.891,0.849,1.251c0.711,0.749,1.663,1.411,1.085,2.625C301.728,123.434,300.551,123.35,299.35,123.25z"/>
		<path style="fill-rule:evenodd;clip-rule:evenodd;fill:#7B491E;" d="M362.813,60.111c1.434,0.153,3.221,0.368,3.582,1.863
			c0.602,2.483-2.158,2.728-3.448,3.862c-0.739,0.65-2.125,0.536-3.014-0.764c-0.729-1.066-0.934-2.199-0.359-3.063
			C360.253,60.987,361.097,59.681,362.813,60.111z"/>
		<path style="fill-rule:evenodd;clip-rule:evenodd;fill:#7B491E;" d="M304.695,122.221c0.193-1.002,0.845-2.112,2.595-2.075
			c1.558,0.033,4.323,2.499,3.975,3.803c-0.333,1.248-0.971,2.731-2.608,2.852C306.651,126.947,304.648,124.803,304.695,122.221z"/>
		<path style="fill-rule:evenodd;clip-rule:evenodd;fill:#7B491E;" d="M237.745,132.655c-1.887,0.368-2.887-0.48-2.929-2.436
			c-0.036-1.729,1.452-3.334,3.059-3.362c1.594-0.027,3.776,1.946,3.633,3.423C241.286,132.543,239.67,132.841,237.745,132.655z"/>
		<path style="fill-rule:evenodd;clip-rule:evenodd;fill:#7B491E;" d="M288.127,121.041c-1.134-0.338-2.696-0.521-2.698-2.527
			c-0.002-1.377,1.959-3.222,3.477-3.301c1.612-0.083,3.632,1.2,3.685,2.343C292.664,119.11,290.42,120.981,288.127,121.041z"/>
		<path style="fill-rule:evenodd;clip-rule:evenodd;fill:#7B491E;" d="M232.106,129.201c0.115,1.939-0.229,3.178-2.372,2.596
			c-0.14-0.038-0.316-0.054-0.444-0.003c-1.474,0.594-3.106,0.795-3.788-0.845c-0.771-1.853,1.024-3.031,2.09-4.136
			c1.024-1.062,2.468,0.135,3.729,0.182C232.574,127.041,231.946,128.565,232.106,129.201z"/>
		<path style="fill-rule:evenodd;clip-rule:evenodd;fill:#7B491E;" d="M278.706,128.803c0.02,1.946-0.996,2.888-3.218,2.981
			c-1.66,0.069-3.969-1.423-3.941-2.548c0.029-1.205,2.648-3.237,4.212-3.269C277.117,125.94,278.692,127.456,278.706,128.803z"/>
		<path style="fill-rule:evenodd;clip-rule:evenodd;fill:#7B491E;" d="M290.644,164.486c-0.534,1.038-0.989,2.753-2.314,3.923
			c-0.752,0.665-1.743,0.772-2.583,0.072c-0.789-0.657-1.405-1.384-1.055-2.61c0.483-1.694,1.36-3.003,2.941-3.816
			c0.775-0.398,1.573-0.454,2.295,0.018C290.573,162.493,290.994,163.112,290.644,164.486z"/>
		<path style="fill-rule:evenodd;clip-rule:evenodd;fill:#7B491E;" d="M121.957,210.002c-0.047,1.931-0.355,3.505-2.309,3.712
			c-1.744,0.185-4.461-1.794-4.429-2.961c0.035-1.23,3.043-3.416,4.711-3.229C121.466,207.694,122.318,208.608,121.957,210.002z"/>
		<path style="fill-rule:evenodd;clip-rule:evenodd;fill:#7B491E;" d="M272.435,120.998c0.006,2.043-1.346,3.78-2.981,3.585
			c-1.491-0.177-2.873-0.924-3.123-2.533c-0.263-1.695,1.986-4.017,3.701-4.123C271.32,117.847,272.429,119.264,272.435,120.998z"/>
		<path style="fill-rule:evenodd;clip-rule:evenodd;fill:#7B491E;" d="M165.214,95.857c-1.329-0.001-3.403-1.98-3.412-3.256
			c-0.009-1.252,1.862-3.406,2.922-3.364c1.228,0.048,3.774,2.873,3.791,4.204C168.528,94.524,166.706,95.858,165.214,95.857z"/>
		<path style="fill-rule:evenodd;clip-rule:evenodd;fill:#7B491E;" d="M216.854,167.172c-0.044,1.181,0.69,2.401,0.006,3.528
			c-0.714,1.177-1.45,2.496-3.17,2.282c-1.881-0.233-2.109-1.925-2.402-3.246c-0.264-1.188,0.372-2.263,1.53-3.04
			c1.597-1.072,2.729,0.313,4.077,0.517L216.854,167.172z"/>
		<path style="fill-rule:evenodd;clip-rule:evenodd;fill:#7B491E;" d="M327.509,124.17c-2.209-0.004-3.639-0.959-3.562-2.38
			c0.079-1.432,2.084-3.398,3.511-3.441c1.479-0.045,3.143,1.534,3.205,3.041C330.733,123.069,329.481,124.173,327.509,124.17z"/>
		<path style="fill-rule:evenodd;clip-rule:evenodd;fill:#7B491E;" d="M255.273,160.458c-1.164-0.059-2.733-0.331-2.957-2.295
			c-0.154-1.346,2.493-3.481,4.083-3.541c1.412-0.054,2.535,0.218,2.597,1.939C259.07,158.613,257.542,160.43,255.273,160.458z"/>
		<path style="fill-rule:evenodd;clip-rule:evenodd;fill:#7B491E;" d="M93.919,104.466c1.127,0.281,2.104,1.053,2.037,2.779
			c-0.061,1.579-1.961,3.179-3.87,3.009c-1.63-0.145-2.642-1.2-2.832-2.834C89.123,106.275,91.842,104.443,93.919,104.466z"/>
		<path style="fill-rule:evenodd;clip-rule:evenodd;fill:#7B491E;" d="M383.968,46.053c-0.014,1.349-1.641,2.928-2.943,2.858
			c-1.018-0.055-3.825-2.937-3.754-3.977c0.092-1.335,0.926-2.166,2.231-2.26C381.183,42.554,383.982,44.762,383.968,46.053z"/>
		<path style="fill-rule:evenodd;clip-rule:evenodd;fill:#7B491E;" d="M224.31,140.271c2.235,0.038,2.76,0.802,1.988,2.9
			c-1.142,3.104-2.962,3.741-5.448,2.075c-1.086-0.729-1.159-1.889-0.655-2.47C221.247,141.567,222.408,140.207,224.31,140.271z"/>
		<path style="fill-rule:evenodd;clip-rule:evenodd;fill:#7B491E;" d="M134.803,185.985c0.607-0.107,1.089,0.152,1.432,0.713
			c0.676,1.105,1.398,2.186,2.015,3.323c0.229,0.423,0.817,0.829,0.345,1.472c-0.498,0.677-1.199,1.009-1.927,0.712
			c-1.126-0.458-2.346-0.588-3.435-1.236c-1.003-0.599-1.671-1.209-1.403-2.417C132.114,187.265,133.641,185.963,134.803,185.985z"
			/>
		<path style="fill-rule:evenodd;clip-rule:evenodd;fill:#7B491E;" d="M167.609,82.731c0.003-0.91,0.665-1.841,2.118-1.993
			c1.652-0.172,3.963,1.452,3.652,2.694c-0.4,1.606-0.723,3.462-2.303,4.39C170.335,88.257,167.649,84.64,167.609,82.731z"/>
		<path style="fill-rule:evenodd;clip-rule:evenodd;fill:#7B491E;" d="M265.277,127.644c0.034,1.923-1.334,3.583-2.966,3.704
			c-1.931,0.143-2.627-1.097-2.829-2.639s1.809-3.64,3.297-3.639C264.483,125.072,265.26,126,265.277,127.644z"/>
		<path style="fill-rule:evenodd;clip-rule:evenodd;fill:#7B491E;" d="M300.054,163.579c1.23,0.042,1.943,0.664,1.931,1.916
			c-0.021,2.045-2.074,4.857-3.447,4.811c-2.103-0.072-2.119-1.841-2.302-3.17C296.014,165.52,298.33,163.539,300.054,163.579z"/>
		<path style="fill-rule:evenodd;clip-rule:evenodd;fill:#7B491E;" d="M253.173,150.783c-0.19-1.924,1.077-2.643,2.617-2.835
			c1.796-0.223,3.221,1,3.206,2.476c-0.016,1.505-1.982,3.788-3.235,3.755C254.152,154.137,253.162,152.837,253.173,150.783z"/>
		<path style="fill-rule:evenodd;clip-rule:evenodd;fill:#7B491E;" d="M248.123,134.023c-1.492,0.05-3.738-1.642-3.803-2.862
			c-0.06-1.133,2.037-2.939,3.434-2.958c1.326-0.018,3.147,1.889,3.174,3.325C250.952,132.788,249.619,133.974,248.123,134.023z"/>
		<path style="fill-rule:evenodd;clip-rule:evenodd;fill:#7B491E;" d="M82.09,131.778c0.112-1.015-0.181-2.934,2.217-3.105
			c1.351-0.098,3.076,1.887,3.049,3.329c-0.028,1.489-1.923,3.405-3.337,3.364C81.937,135.305,82.026,133.819,82.09,131.778z"/>
		<path style="fill-rule:evenodd;clip-rule:evenodd;fill:#7B491E;" d="M216.895,167.213c0.505-0.384-0.018-0.588-0.148-0.864
			c-0.599-1.262-1.31-2.76,0.091-3.699c1.412-0.945,3.114-0.668,4.397,0.607c0.771,0.766,1.88,1.433,1.068,2.906
			c-1.012,1.836-2.648,1.426-4.221,1.401c-0.461-0.008-0.572-1.048-1.229-0.394C216.854,167.172,216.895,167.213,216.895,167.213z"
			/>
		<path style="fill-rule:evenodd;clip-rule:evenodd;fill:#7B491E;" d="M332.458,111.931c-0.014,0.97-2.532,3.502-3.414,3.235
			c-1.687-0.51-2.253-2.11-2.334-3.577c-0.092-1.666,1.113-2.593,2.809-2.64C331.363,108.897,332.482,110.064,332.458,111.931z"/>
		<path style="fill-rule:evenodd;clip-rule:evenodd;fill:#7B491E;" d="M158.66,96.303c0.004,2.264-1.573,3.696-3.705,3.636
			c-1.588-0.044-2.156-1.166-2.124-2.671c0.041-1.855,1.25-3.088,3.095-3.111C157.744,94.135,158.507,95.173,158.66,96.303z"/>
		<path style="fill-rule:evenodd;clip-rule:evenodd;fill:#7B491E;" d="M179.436,118.372c-2.138-0.147-2.139-2.114-2.291-3.381
			c-0.167-1.397,0.713-2.859,2.337-3.255c0.918-0.224,3.336,1.948,3.362,2.807C182.879,115.737,180.557,118.355,179.436,118.372z"/>
		<path style="fill-rule:evenodd;clip-rule:evenodd;fill:#7B491E;" d="M179.265,100.225c-0.015,1.277-1.942,2.875-3.366,2.792
			c-1.306-0.077-3.029-1.828-2.88-3.093c0.195-1.652,1.318-2.518,2.905-2.605C177.761,97.217,179.284,98.626,179.265,100.225z"/>
		<path style="fill-rule:evenodd;clip-rule:evenodd;fill:#7B491E;" d="M221.818,136.813c0.012-2.004,1.362-3.654,2.858-3.685
			c1.228-0.025,2.986,1.591,2.964,2.722c-0.023,1.16-2.828,3.713-4.048,3.483C222.202,139.073,221.428,138.167,221.818,136.813z"/>
		<path style="fill-rule:evenodd;clip-rule:evenodd;fill:#7B491E;" d="M310.075,170.306c-1.932,0.452-2.025-1.404-2.572-2.508
			c-0.354-0.714,2.924-3.932,3.797-3.687c1.406,0.396,2.018,1.482,1.918,3.025C313.079,169.282,312.162,170.326,310.075,170.306z"/>
		<path style="fill-rule:evenodd;clip-rule:evenodd;fill:#7B491E;" d="M112.051,111.643c1.27,0.232,1.426,1.732,1.749,2.871
			c0.293,1.033-2.139,3.06-3.478,2.896c-1.387-0.169-2.75-0.644-2.722-2.482C107.622,113.489,109.99,111.575,112.051,111.643z"/>
		<path style="fill-rule:evenodd;clip-rule:evenodd;fill:#7B491E;" d="M387.951,43.543c1.856-0.007,3.648,1.348,3.486,2.836
			c-0.192,1.776-1.755,1.932-3.1,2.064c-1.714,0.169-4.224-1.454-3.854-2.475C385.02,44.488,386.063,43.3,387.951,43.543z"/>
		<path style="fill-rule:evenodd;clip-rule:evenodd;fill:#7B491E;" d="M223.163,159.623c-0.287-1.032,0.347-1.729,1.401-1.794
			c2.043-0.125,4.349,1.55,4.275,2.929c-0.07,1.324-1.95,3.329-3.072,3.276C224.369,163.968,223.158,161.992,223.163,159.623z"/>
		<path style="fill-rule:evenodd;clip-rule:evenodd;fill:#7B491E;" d="M246.166,158.213c1.859-0.018,3.018,1.11,2.973,2.935
			c-0.069,2.798-2.564,1.804-3.969,2.346c-0.775,0.299-2.103-0.171-2.27-1.454C242.698,160.488,244.704,158.226,246.166,158.213z"/>
		<path style="fill-rule:evenodd;clip-rule:evenodd;fill:#7B491E;" d="M319.912,125.584c-0.22,1.139-0.526,2.358-2.396,2.189
			c-1.646-0.149-3.79-1.557-3.845-2.688c-0.063-1.323,1.454-3.035,2.616-2.952C317.957,122.252,319.932,124.002,319.912,125.584z"/>
		<path style="fill-rule:evenodd;clip-rule:evenodd;fill:#7B491E;" d="M235.802,163.14c-1.331,0.328-2.309-0.62-2.657-1.669
			c-0.337-1.013,0.333-2.033,1.529-2.528c0.702-0.291,0.988-1.239,2.004-1.203c1.489,0.054,2.64,0.655,2.937,2.078
			C239.9,161.183,237.565,163.14,235.802,163.14z"/>
		<path style="fill-rule:evenodd;clip-rule:evenodd;fill:#7B491E;" d="M272.653,143.43c-1.629,0.153-2.694-0.655-2.882-2.382
			c-0.158-1.446,1.369-2.54,3.338-2.546c1.595-0.005,2.914,0.336,2.905,2.317C276.005,142.567,274.9,143.447,272.653,143.43z"/>
		<path style="fill-rule:evenodd;clip-rule:evenodd;fill:#7B491E;" d="M158.124,124.846c-0.009,1.008-1.955,3.335-2.8,3.351
			c-0.533,0.01-3.585-2.666-3.632-3.185c-0.084-0.927,2.375-2.659,3.738-2.634C156.979,122.407,158.137,123.468,158.124,124.846z"/>
		<path style="fill-rule:evenodd;clip-rule:evenodd;fill:#7B491E;" d="M387.104,52.698c-0.16-1.914,1.111-2.375,2.608-2.413
			c1.494-0.038,3.268,1.57,3.213,2.75c-0.05,1.081-2.137,3.02-3.275,3.042C388.55,56.1,387.094,54.167,387.104,52.698z"/>
		<path style="fill-rule:evenodd;clip-rule:evenodd;fill:#7B491E;" d="M178.204,110.727c-2.03,0.02-3.385-1.479-3.414-3.27
			c-0.026-1.546,0.71-2.476,2.285-2.531c1.358-0.047,3.737,1.916,3.487,2.949C180.212,109.315,179.425,110.529,178.204,110.727z"/>
		<path style="fill-rule:evenodd;clip-rule:evenodd;fill:#7B491E;" d="M102.103,104.479c1.1,0.102,2.008,1.076,2.203,2.487
			c0.18,1.307-2.154,3.396-3.566,3.166c-1.377-0.224-2.361-1.281-2.475-2.67C98.137,105.895,99.981,104.399,102.103,104.479z"/>
		<path style="fill-rule:evenodd;clip-rule:evenodd;fill:#7B491E;" d="M121.931,129.148c-0.018,1.604-1.613,3.115-3.333,3.073
			c-1.446-0.036-2.355-0.854-2.46-2.272c-0.113-1.521,1.81-3.065,3.569-3.102C121.318,126.814,122.016,127.583,121.931,129.148z"/>
		<path style="fill-rule:evenodd;clip-rule:evenodd;fill:#7B491E;" d="M277.385,117.434c1.657,0.028,3.566,1.503,3.535,2.737
			c-0.028,1.11-1.895,2.688-3.138,2.653c-0.97-0.027-3.188-2.141-3.083-3.087C274.87,118.19,275.872,117.473,277.385,117.434z"/>
		<path style="fill-rule:evenodd;clip-rule:evenodd;fill:#7B491E;" d="M165.802,122.675c-0.234,1.108-1.102,2.071-2.897,1.941
			c-1.628-0.118-2.537-1.199-2.666-2.622c-0.142-1.555,0.836-2.772,2.402-2.96C164.375,118.826,165.901,120.468,165.802,122.675z"/>
		<path style="fill-rule:evenodd;clip-rule:evenodd;fill:#7B491E;" d="M269.882,151.045c1.241-0.168,2.228,0.059,2.141,1.931
			c-0.086,1.834-0.762,2.948-2.672,2.982c-1.474,0.027-2.858-0.417-3.136-2.049C265.986,152.563,267.971,151.052,269.882,151.045z"
			/>
		<path style="fill-rule:evenodd;clip-rule:evenodd;fill:#7B491E;" d="M86.109,107.405c0.057,1.946-1.162,3.038-2.594,3.074
			c-1.287,0.034-2.84-0.635-2.804-2.58c0.024-1.288,1.754-3.201,2.974-2.937C84.96,105.239,86.263,105.791,86.109,107.405z"/>
		<path style="fill-rule:evenodd;clip-rule:evenodd;fill:#7B491E;" d="M147.135,119.692c2.657,0.003,3.503,1.051,2.611,3.018
			c-0.826,1.822-2.321,0.831-3.5,0.963c-1.081,0.12-2.397-0.427-2.71-1.36c-0.492-1.471,0.75-2.23,2.038-2.597
			C146.058,119.579,146.612,119.693,147.135,119.692z"/>
		<path style="fill-rule:evenodd;clip-rule:evenodd;fill:#7B491E;" d="M109.286,105.347c1.703,0.03,2.767,0.806,2.775,2.613
			c0.007,1.435-1.66,2.886-3.258,2.619c-1.576-0.264-2.123-1.52-2.114-3.075C106.7,105.716,107.717,105.241,109.286,105.347z"/>
		<path style="fill-rule:evenodd;clip-rule:evenodd;fill:#7B491E;" d="M83.72,114.77c1.073,0.252,1.858,0.882,1.921,2.152
			c0.055,1.127-2.552,3.644-3.75,3.548c-1.661-0.133-1.669-1.639-1.898-2.732C79.75,116.576,82.134,114.752,83.72,114.77z"/>
		<path style="fill-rule:evenodd;clip-rule:evenodd;fill:#7B491E;" d="M98.177,131.13c0.292-1.647,1.862-1.933,3.388-1.994
			c1.438-0.058,2.335,0.871,2.42,2.302c0.079,1.336-1.982,2.75-3.695,2.569C98.824,133.853,98.18,132.908,98.177,131.13z"/>
		<path style="fill-rule:evenodd;clip-rule:evenodd;fill:#7B491E;" d="M91.919,133.965c0.003-2.186,1.535-4.05,2.882-3.936
			c1.207,0.104,2.212,0.774,2.321,2.094c0.103,1.25-2.146,3.857-3.15,3.647C92.763,135.519,91.965,134.681,91.919,133.965z"/>
		<path style="fill-rule:evenodd;clip-rule:evenodd;fill:#7B491E;" d="M73.872,107.088c1.356,0.279,2.364,0.984,2.36,2.591
			c-0.006,2.147-2.009,2.06-3.185,2.245c-1.217,0.191-2.656-0.725-2.577-2.324C70.566,107.651,72.23,107.393,73.872,107.088z"/>
		<path style="fill-rule:evenodd;clip-rule:evenodd;fill:#7B491E;" d="M145.629,128.556c0.23-1.229,0.251-2.749,2.164-2.568
			c1.542,0.146,2.671,1.214,2.721,2.653c0.049,1.424-0.968,2.663-2.552,2.644C146.426,131.266,145.704,130.15,145.629,128.556z"/>
		<path style="fill-rule:evenodd;clip-rule:evenodd;fill:#7B491E;" d="M143.429,104.896c0.011,1.279-2.154,3.148-3.592,3.154
			c-1.332,0.005-1.766-1.06-2.056-1.957c-0.314-0.973,2.146-2.918,3.545-2.967C142.402,103.088,143.421,103.946,143.429,104.896z"/>
		<path style="fill-rule:evenodd;clip-rule:evenodd;fill:#7B491E;" d="M108.891,189.551c1.308-0.088,2.305,0.402,2.307,2.192
			c0.001,1.277-0.377,2.188-1.764,2.289c-1.657,0.122-3.784-1.481-3.602-2.754C106.062,189.674,107.364,189.585,108.891,189.551z"/>
		<path style="fill-rule:evenodd;clip-rule:evenodd;fill:#7B491E;" d="M123.218,123.734c-2.332,0.032-2.646-1.295-2.585-2.633
			c0.051-1.125,0.318-2.366,1.966-2.314c1.214,0.038,2.953,1.646,2.913,2.759C125.47,122.718,124.139,123.757,123.218,123.734z"/>
		<path style="fill-rule:evenodd;clip-rule:evenodd;fill:#7B491E;" d="M126.89,129.065c-1.825,0.424-2.865-0.706-3.044-2.236
			c-0.111-0.947,0.775-2.174,2.08-1.957c1.361,0.227,3.23-0.081,3.215,2.354C129.131,128.931,128.354,129.277,126.89,129.065z"/>
		<path style="fill-rule:evenodd;clip-rule:evenodd;fill:#7B491E;" d="M142.731,112.978c-1.391,0.264-2.024-0.542-1.942-1.678
			c0.126-1.746,1.298-2.415,3.013-2.379c1.376,0.029,2.461,0.456,2.274,1.97C145.84,112.802,144.184,112.846,142.731,112.978z"/>
		<path style="fill-rule:evenodd;clip-rule:evenodd;fill:#7B491E;" d="M144.849,114.354c0.596,0,1.226-0.127,1.78,0.025
			c1.316,0.359,1.729,1.776,0.671,2.492c-1.259,0.852-2.72,1.378-4.311,0.816c-0.833-0.295-1.432-1.019-1.239-1.763
			c0.189-0.728,0.511-1.787,1.757-1.618c0.439,0.06,0.894,0.01,1.342,0.01C144.849,114.328,144.849,114.341,144.849,114.354z"/>
		<path style="fill-rule:evenodd;clip-rule:evenodd;fill:#7B491E;" d="M121.932,109.398c-0.005-1.368,1.572-3.196,2.831-3.111
			c1.101,0.075,1.663,0.792,1.655,1.943c-0.01,1.408-1.666,3.483-2.866,3.362C122.322,111.469,121.824,110.609,121.932,109.398z"/>
		<path style="fill-rule:evenodd;clip-rule:evenodd;fill:#7B491E;" d="M148.406,138.965c-1.687,0.116-1.614-1.677-1.586-2.434
			c0.043-1.151,0.94-2.406,2.38-2.469c1.591-0.068,2.163,1.478,2.181,2.499C151.407,138.074,150.17,138.932,148.406,138.965z"/>
		<path style="fill-rule:evenodd;clip-rule:evenodd;fill:#7B491E;" d="M121.166,113.456c1.824-0.341,2.45,0.762,2.527,2.226
			c0.092,1.73-1.571,2.003-2.588,2.084c-1.296,0.104-2.325-1.051-2.24-2.415C118.939,114.153,119.594,113.059,121.166,113.456z"/>
		<path style="fill-rule:evenodd;clip-rule:evenodd;fill:#7B491E;" d="M134.476,106.274c-0.125,0.924,0.09,2.529-1.681,2.139
			c-1.14-0.251-2.889-0.04-3.212-1.788c-0.163-0.881,2.428-2.644,3.599-2.613C134.677,104.051,134.458,105.135,134.476,106.274z"/>
		<path style="fill-rule:evenodd;clip-rule:evenodd;fill:#7B491E;" d="M173.442,180.739c0.059,1.628-0.645,2.102-2.196,1.469
			c-0.789-0.322-1.546-0.761-2.363-0.964c-0.937-0.232-0.74-0.883-0.832-1.517c-0.122-0.837,0.521-0.976,1.004-1.176
			C170.761,177.844,173.385,179.179,173.442,180.739z"/>
		<path style="fill-rule:evenodd;clip-rule:evenodd;fill:#7B491E;" d="M224.94,153.255c0.309,1.006-0.355,1.724-1.242,1.734
			c-1.634,0.02-2.08-1.435-2.259-2.677c-0.158-1.09,0.705-1.771,1.808-1.688C224.786,150.738,225.063,151.854,224.94,153.255z"/>
		<path style="fill-rule:evenodd;clip-rule:evenodd;fill:none;" d="M320.509,59.686c-1.149-0.05-1.98-0.045-2.852-0.416
			c-2.855-1.216-5.948-0.554-8.921-0.921c-1.011-0.125-2.027-0.05-3.015-0.451c-0.449-0.182-1.012-0.421-0.963-0.787
			c0.386-2.904-1.147-5.939,0.45-8.715c0.555-0.964,1.183-2.318,2.937-1.387c0.695,0.369,1.669,0.083,2.572-0.18
			c3.53-1.025,7.141-1.16,10.726-0.248c1.523,0.387,2.902-0.371,4.352-0.333c3.702,0.099,7.402,0.293,11.104,0.423
			c0.78,0.027,1.56,0.371,1.323,1.1c-0.789,2.437,0.091,5.13-1.811,7.513c-1.07,1.341-2.354,1.502-3.32,1.505
			c-3.967,0.011-7.436,1.695-11.096,2.739C321.438,59.687,320.825,59.655,320.509,59.686z"/>
		<path style="fill-rule:evenodd;clip-rule:evenodd;fill:none;" d="M268.496,58.637c-0.949,0.153-1.512,0.073-1.796,0.317
			c-2.795,2.398-6.494,3.046-9.525,4.983c-1.741,1.113-2.216-0.846-3.224-1.486c-0.989-0.629-0.349-1.259-0.026-1.98
			c1.166-2.617,2.428-5.21,2.394-8.194c-0.037-3.223,2.055-4.159,5.104-3.077c3.583,1.271,7.364,3.556,11.182,0.298
			c0.761-0.648,1.768-0.598,2.741-0.592c2.114,0.012,4.28,0.328,6.232-0.875c0.24-0.148,0.701-0.357,0.786-0.27
			c0.452,0.462,2.233-0.497,1.388,1.521c-0.407,0.971-0.854,2.714,1.119,3.615c0.816,0.373,1.356,2.019-0.194,2.756
			c-1.123,0.534-1.042,1.385-1.053,2.342c-0.032,2.804-1.373,3.705-3.912,2.567c-1.723-0.771-3.592-0.7-5.223-0.331
			c-1.861,0.42-3.208,0.051-4.639-0.961C269.341,58.911,268.705,58.57,268.496,58.637z"/>
		<path style="fill-rule:evenodd;clip-rule:evenodd;fill:none;" d="M97.757,29.202c1.802,0.283,3.216,1.496,4.913,2.114
			c5.07,1.845,10.154,2.039,15.288,0.714c2.485-0.642,4.58,0.605,6.85,0.946c0.437,0.066,0.917,1.112,0.511,2.076
			c-0.489,1.161-0.379,2.426,0.02,3.673c1.063,3.333,0.513,6.94,1.727,10.276c0.244,0.67-0.239,1.575-1.427,1.134
			c-1.875-0.698-3.656-1.609-5.592-2.192c-1.196-0.36-2.32-0.545-3.426-0.169c-4.016,1.366-7.796,0.477-11.672-0.743
			c-2.159-0.679-4.098-1.866-6.203-2.456c-2.244-0.629-2.643-1.984-2.296-3.727c0.512-2.579,0.594-5.003-0.392-7.525
			c-0.417-1.067-0.393-2.449,0.697-3.519C97.083,29.479,97.264,29.18,97.757,29.202z"/>
		<path style="fill-rule:evenodd;clip-rule:evenodd;fill:none;" d="M58.325,38.112c0,0.745-0.024,1.491,0.005,2.234
			c0.061,1.561-0.632,2.477-2.23,2.282c-5.22-0.635-9.42,1.773-13.568,4.397c-2.329,1.472-3.718,0.512-4.46-2.043
			c-0.962-3.313-0.556-6.366-0.031-9.645c0.364-2.273-0.859-4.653-0.855-7.119c0.003-2.132,0.478-2.92,2.666-2.629
			c1.589,0.211,3.229,0.136,4.711-0.704c0.182-0.104,0.447-0.191,0.633-0.14c3.609,0.994,7.472-0.019,11.011,1.385
			c0.505,0.2,1.37,0.304,1.228,1.281C56.903,31.044,58.197,34.53,58.325,38.112z"/>
		<path style="fill-rule:evenodd;clip-rule:evenodd;fill:none;" d="M66.904,46.034c0.091-5.33,2.589-10.313,5.961-14.795
			c1.274-1.693,3.805-1.93,6.003-2.017c2.13-0.083,4.262,0.067,6.382-0.411c0.581-0.131,1.514-1.112,1.892-0.031
			c0.357,1.018,1.142,1.881,0.96,3.164c-0.624,4.424-1.407,8.865,0.176,13.282c0.315,0.88,0.081,1.581-1.164,1.476
			c-0.939-0.08-1.859,0.108-2.811,0.334c-1.47,0.348-2.972,0.628-4.563-0.287c-2.416-1.391-5.079-0.881-7.474,0.191
			c-1.107,0.496-2.303,0.676-3.405,1.319C67.478,49.064,66.67,48.113,66.904,46.034z"/>
		<path style="fill-rule:evenodd;clip-rule:evenodd;fill:none;" d="M137.777,51.083c-3.274,0.367-3.248-2.14-4.183-3.651
			c-1.506-2.435-0.471-5.343-1.372-7.89c-0.991-2.799,0.88-5.402,0.472-8.153c-0.051-0.342-0.013-0.664,0.476-0.833
			c3.521-1.22,6.962-2.824,10.863-1.815c1.411,0.365,2.736-0.407,4.134-0.453c1.387-0.046,2.026,0.339,2.022,1.872
			c-0.004,1.823-0.061,3.643,0.171,5.491c0.254,2.024-1.564,3.332-2.733,4.76c-0.896,1.093-1.849,2.184-1.887,3.578
			c-0.025,0.902-0.735,1.228-1.056,1.429c-1.551,0.973-2.542,2.431-3.522,3.841C140.159,50.7,138.562,50.523,137.777,51.083z"/>
		<path style="fill-rule:evenodd;clip-rule:evenodd;fill:none;" d="M69.971,201.185c0.429-1.828-0.622-3.877-0.487-6.046
			c0.103-1.647,0.481-2.355,2.384-2.519c3.614-0.31,6.937,0.971,10.407,1.37c2.108,0.242,4.06-0.585,6.146-0.451
			c1.324,0.085,1.812,0.306,1.742,1.732c-0.123,2.491,0.021,4.978-0.768,7.419c-0.796,2.463-2.939,4.159-5.56,4.367
			c-3.054,0.244-5.966-0.403-8.884-1.115c-0.353-0.086-0.704-0.21-1.062-0.241C69.972,205.349,69.971,205.353,69.971,201.185z"/>
		<path style="fill-rule:evenodd;clip-rule:evenodd;fill:none;" d="M26.522,205.479c1.413-3.525,1.05-7.999,2.227-12.214
			c0.428-1.532,1.331-1.76,2.626-1.291c2.573,0.93,4.94,2.544,7.654,2.913c2.873,0.391,3.626,1.44,2.821,4.289
			c-0.479,1.696-0.894,3.604-0.532,5.458c0.361,1.856-0.736,2.558-2.219,2.81c-3.079,0.523-6.171,0.987-9.272,1.358
			C27.888,209.035,26.521,207.831,26.522,205.479z"/>
	</g>
</g>
</svg>
