<?xml version="1.0" encoding="iso-8859-1"?>
<!-- Generator: Adobe Illustrator 16.0.0, SVG Export Plug-In . SVG Version: 6.00 Build 0)  -->
<!DOCTYPE svg PUBLIC "-//W3C//DTD SVG 1.1//EN" "http://www.w3.org/Graphics/SVG/1.1/DTD/svg11.dtd">
<svg version="1.1" id="Layer_1" xmlns="http://www.w3.org/2000/svg" xmlns:xlink="http://www.w3.org/1999/xlink" x="0px" y="0px"
	 width="401.091px" height="169.512px" viewBox="0 0 401.091 169.512" style="enable-background:new 0 0 401.091 169.512;"
	 xml:space="preserve">
<g>
	<g>
		<path style="fill:none;" d="M200.545,168.966c-65.949,0-131.898-0.008-197.847,0.045c-1.794,0.002-2.2-0.403-2.198-2.198
			c0.056-54.784,0.055-109.569,0-164.354C0.498,0.82,0.821,0.499,2.459,0.5c132.057,0.049,264.114,0.049,396.172,0
			c1.639-0.001,1.961,0.32,1.96,1.959c-0.056,54.864-0.056,109.729,0,164.593c0.001,1.639-0.321,1.961-1.96,1.96
			C332.603,168.958,266.574,168.966,200.545,168.966z M143.611,107.199c-1.17,2.23,0.108,3.846,1.472,5.328
			c0.758,0.824,2.07,1.808,2.698,0.094c0.568-1.549-0.53-3.135-1.266-4.508c-0.528-0.985-1.792-1.138-2.947-0.872
			c0.071-0.362-0.021-0.943,0.499-0.912c2.393,0.141,1.265-1.641,1.43-2.638c0.273-1.659-1.134-2.268-2.245-2.558
			c-0.996-0.261-2.025,0.28-2.569,1.5C139.82,104.569,140.43,105.621,143.611,107.199z M369.141,51.807
			c1.276,0.067,2.426-0.27,3.647-0.704c3.241-1.152,5.579-4.243,9.334-4.287c0.352-0.004,1.025-0.637,0.992-0.911
			c-0.271-2.237,1.794-3.52,2.195-5.201c0.823-3.444,4.234-5.702,3.989-9.508c-0.025-0.377,0.354-0.923,0.704-1.159
			c1.573-1.062,1.473-2.61,1.479-4.226c0.008-1.796-0.5-3.771,0.802-5.302c1.475-1.734,0.873-3.363-0.275-4.686
			c-0.781-0.901-0.857-1.085-0.024-1.984c0.854-0.922,0.803-2.368-0.037-3.41c-1.846-2.289-5.124-1.101-7.362-2.726
			c-0.159-0.115-2.481,0.753-3.793,0.77c-1.606,0.02-3.133,1.691-4.396,0.95c-2.803-1.646-5.713-1.824-8.76-1.691
			c-0.838,0.036-1.558-0.074-2.101-0.794c-1.163-1.543-2.759-1.445-4.262-0.829c-1.517,0.622-3.075,0.883-4.601,0.618
			c-5.117-0.887-10.312-0.194-15.435-0.896c-0.993-0.136-1.976,0.15-2.985,0.399c-2.386,0.587-4.703,1.838-7.232,1.46
			c-3.785-0.565-7.097,0.077-10.023,2.736c-2.616,2.378-5.556,4.403-8.134,6.819c-3.009,2.82-6.29,5.348-7.399,9.857
			c-0.426,1.73-1.237,3.242-0.82,5.119c0.356,1.604,0.595,3.147-0.699,4.674c-1.751,2.065-2.476,4.937-2.226,7.337
			c0.227,2.176-0.708,2.975-1.838,4.096c-0.515,0.51-1.124,1.038-0.613,1.818c0.43,0.657,0.986,1.107,1.93,1.149
			c2.372,0.104,4.757,0.41,6.965-0.742c0.814-0.425,1.312-0.201,1.86,0.375c1.306,1.372,3.005,1.102,4.347,0.452
			c0.776-0.376,1.36-0.288,1.84-0.069c1.377,0.628,2.868,0.681,4.17,0.366c3.882-0.938,7.737-1.161,11.733-1.018
			c2.435,0.087,4.85-1.518,7.423,0.032c0.55,0.331,1.741-0.36,2.62-0.633c1.003-0.312,2.098-0.584,2.929,0.115
			c1.775,1.493,3.803,1.653,5.966,1.583c2.329-0.076,4.771-0.965,6.89,0.892c0.271,0.237,0.987,0.18,1.396,0.012
			C362.517,51.347,365.766,50.935,369.141,51.807z M55.693,145.54c0.229,1.371-2.071,3.018,0.59,3.752
			c2.127,0.588,4.464,0.027,6.589,0.979c0.753,0.337,0.978-0.524,1.046-0.946c0.238-1.455,1.259-1.971,2.443-2.477
			c2.046-0.873,4.111-1.741,6.042-2.834c1.039-0.588,2.323-1.37,2.266-2.805c-0.097-2.41,1.254-3.231,3.306-3.322
			c1.33-0.06,1.966-0.986,1.435-1.827c-1.257-1.99,0.198-2.304,1.397-2.978c1.75-0.984,2.562-1.985,1.506-4.344
			c-0.763-1.702-1.332-3.966-0.448-6.059c0.938-2.218,2.061-3.153,4.805-3.979c0.145-0.044,0.323-0.079,0.417-0.181
			c2.134-2.334,5.29-2.847,7.861-4.41c3.783-2.301,7.968-4.029,9.918-8.517c0.909-2.093,0.072-4.456-2.203-4.502
			c-4.949-0.098-10.114-1.228-14.774,0.982c-3.818,1.812-7.53-0.005-11.244,0.576c-0.282,0.044-0.869-0.315-0.917-0.565
			c-0.468-2.398-1.494-1.707-2.724-0.59c-0.939,0.853-2.047,0.591-3.11,0.228c-0.581-0.198-1.175-0.723-1.705-0.653
			c-5.104,0.667-9.97-2.175-15.084-0.992c-1.54,0.356-2.59-1.002-4.043-0.984c-4.066,0.049-8.154-0.24-12.193,0.096
			c-3.446,0.286-6.972,1.729-8.306,4.995c-1.172,2.87-2.746,5.464-4.021,8.233c-1.005,2.183-1.81,4.521-0.262,6.899
			c0.399,0.615,0.351,1.431,0.055,2.072c-0.877,1.901-1.302,3.969-2.055,5.871c-1.907,4.814-4.536,9.334-5.949,14.366
			c-0.2,0.714-0.954,1.206-1.284,1.757c-0.935,1.559-2.927,0.569-3.686,1.724c-0.939,1.428-2.171,2.406-3.48,3.401
			c-1.109,0.843-1.635,2.002-1.617,3.479c0.038,3.126,0.902,5.719,3.423,7.862c1.081,0.919,1.8,1.315,2.926,0.609
			c1.772-1.112,3.714-1.816,5.673-2.474c2.35-0.789,4.748-1.584,6.636-3.184c2.36-1.998,4.171-4.518,6.988-6.151
			c2.02-1.171,3.523-2.556,5.99-1.275c0.959,0.497,2.05,0.636,3.337,0.165c1.948-0.712,4.165-0.911,6.118,0.128
			c0.951,0.506,1.699,0.097,2.146-0.314C51.305,145.694,53.423,145.448,55.693,145.54z M124.683,100.686
			c-2.421,0.946-4.964,1.661-7.226,2.892c-3.125,1.698-2.991,3.973-0.038,6.022c0.533,0.37,1.664,0.528,1.544,0.765
			c-1.152,2.267,1.374,3.863,1.091,5.647c-0.572,3.608,1.762,5.838,3.277,8.45c0.941,1.622,3.399,2.065,4.567,1.121
			c1.41-1.14,2.088-4.368,0.768-4.992c-2.043-0.968-2.086-2.398-2.828-4.162c-1.015-2.414-1.952-5.682-5.114-6.791
			c-0.393-0.138-0.351-0.19-0.267-0.581c0.538-2.491,1.946-3.686,4.487-3.733c1.052-0.021,2.472,0.355,2.369-1.437
			C127.219,102.236,126.195,101.198,124.683,100.686z M218.785,91.958c-0.229,0.751-0.661,1.413-0.482,1.708
			c1.137,1.888,2.057,4.034,3.458,5.594c1.348,1.5,3.824,1.576,5.691,0.246c1.128-0.803,2.194-2.035,1.594-3.639
			c-0.537-1.435-0.597-3.383-2.86-3.462c-1.77-0.062-3.914,1.887-5.191-0.937c-0.016-0.032-0.153-0.023-0.23-0.011
			c-1.009,0.164-1.401-0.203-1.769-1.244c-0.285-0.808-1.087-1.819-2.366-1.625c-0.957,0.146-1.484,0.736-1.741,1.661
			c-0.23,0.83-0.366,1.63,0.371,2.251C216.476,93.529,217.429,92.46,218.785,91.958z M339.476,92.562
			c-0.593,2.377,0.825,3.326,1.928,3.95c1.229,0.694,2.882,0.381,3.859-0.833c0.632-0.784,1.433-1.982,0.287-2.932
			c-2.448-2.028-2.438-4.244-1.086-6.894c0.586-1.147-0.079-2.298-1.163-3.055c-1.184-0.825-2.36-0.527-3.528,0.042
			c-1.044,0.509-1.677,1.545-1.343,2.482C339.345,87.889,340.617,90.341,339.476,92.562z M340.432,79.492
			c2.085,0.048,3.55-2.979,2.761-5.053c-0.674-1.77-1.825-3.677-1.047-5.614c0.629-1.567,0.125-2.515-0.92-3.411
			c-1.075-0.922-2.298-0.949-3.354-0.002c-1.049,0.939-0.946,2.016-0.453,3.354c0.798,2.162,1.217,4.459,0.306,6.759
			C337.075,77.165,338.642,79.451,340.432,79.492z M346.478,113.951c0-2.878-0.676-4.915-2.035-5.037
			c-2.313-0.208-1.817-1.631-1.776-2.931c0.047-1.487-0.422-2.683-1.936-2.99c-1.313-0.268-2.594-0.211-3.244,1.479
			c-0.599,1.556-0.226,2.742,1.014,3.552c1.351,0.885,2.034,1.923,1.76,3.537c-0.249,1.458,0.771,2.398,1.794,2.729
			c0.969,0.312,1.474,0.734,1.799,1.568c0.242,0.621,0.528,1.012,1.341,0.985c0.918-0.028,0.988-0.787,1.139-1.251
			C346.569,114.864,346.474,114.029,346.478,113.951z M171.889,59.708c1.977-0.986,2.286-2.593,1.584-5.218
			c-0.509-1.904-1.82-2.062-3.188-1.688c-1.531,0.418-2.166,1.592-1.577,3.259c0.416,1.176,0.859,2.437,1.842,3.112
			c0.897,0.616,0.974,1.008,0.464,1.831c-1.356,2.189-0.348,3.81,1.274,5.332c1.418,1.331,2.382,0.652,3.083-0.677
			C177.127,62.333,176.08,60.451,171.889,59.708z M190.495,60.873c0.036-1.628-1.406-2.356-2.999-1.602
			c-1.716,0.812-3.771,1.393-5.424,1.347c-2.024-0.057-2.949,0.772-3.968,1.986c-0.75,0.893-0.566,1.859,0.038,2.771
			c0.529,0.799,1.28,1.55,2.2,1.451c1.101-0.119,1.453-0.984,1.632-2.185c0.293-1.973,1.029-2.061,2.479-0.536
			c0.861,0.906,1.896,1.226,2.718,0.211c0.784-0.969,1.321-2.053,2.744-2.262C190.38,61.986,190.56,61.399,190.495,60.873z
			 M134.986,67.876c0.17-1.466-1.722-4.562-2.826-4.624c-1.73-0.096-4.615,2.595-4.937,4.604c-0.208,1.297,2.953,4.583,4.677,4.863
			C133.137,72.921,134.681,70.497,134.986,67.876z M137.213,29.736c-0.477,0-0.989-0.114-1.426,0.02
			c-1.631,0.5-2.61,1.693-2.889,3.323c-0.228,1.333,0.93,2.497,1.771,2.641c1.781,0.306,3.398,0.696,5.032,1.549
			c0.85,0.444,2.167-0.21,2.454-1.533C142.666,33.376,139.646,29.737,137.213,29.736z M264.192,131.005
			c-0.055-1.463,0.387-3.013-0.728-3.943c-0.928-0.775-1.765,0.63-2.733,0.741c-0.236,0.026-0.478,0.025-0.714,0.013
			c-1.682-0.096-2.699,0.769-2.986,2.334c-0.374,2.037,0.16,3.691,2.294,4.573c1.585,0.654,3.046,1.086,4.389-0.456
			C264.635,133.209,263.933,131.978,264.192,131.005z M125.735,28.296c-1.95-0.04-4.264,2.229-4.102,4.022
			c0.149,1.653,2.096,3.01,4.179,2.605c0.913-0.178,1.611,0.125,2.403,0.239c1.758,0.254,3.279-1.232,2.859-2.811
			C130.649,30.753,127.461,28.332,125.735,28.296z M169.93,70.546c-0.27,2.786,1.818,3.86,3.3,5.369
			c0.801,0.815,1.734,0.933,2.591,0.594c0.913-0.361,1.195-1.352,1.284-2.335c0.154-1.705-0.528-3.29-1.26-4.644
			c-0.709-1.311-2.214-2.416-3.948-1.936C170.483,67.986,169.428,68.958,169.93,70.546z M75.929,47.077
			c-1.062-0.209-1.317,0.253-1.663,0.567c-1.384,1.255-1.956,5.361-1.004,6.998c0.249,0.429,0.526,0.72,0.998,0.928
			c1.694,0.745,3.153,0.556,4.427-0.859c0.86-0.955,2.035-1.741,1.303-3.322C79.038,49.329,76.979,48.419,75.929,47.077z
			 M334.992,110.554c0.051-1.835-2.36-4.45-4.271-4.728c-0.998-0.146-4.349,2.046-4.731,3.1c-0.216,0.591,0.201,0.984,0.383,1.483
			c0.599,1.646,2.528,1.136,3.359,2.235c0.799,1.058,1.577,0.989,2.637,0.426C333.533,112.45,335.141,112.369,334.992,110.554z
			 M205.33,135.23c0,1.823,1.71,3.549,3.554,3.585c1.727,0.034,4.123-2.089,4.102-3.633c-0.028-2.034-2.011-3.941-4.173-4.013
			C207.353,131.121,205.331,133.479,205.33,135.23z M131.62,51.741c-1.809,0.013-2.862,1.191-2.845,3.182
			c0.017,1.853,2.252,4.472,3.819,4.474c1.151,0.001,3.796-2.68,3.808-3.86C136.421,53.593,134.065,51.724,131.62,51.741z
			 M308.634,121.853c0.11,1.504,1.387,2.494,2.275,3.746c0.981,1.383,1.979,1.048,2.541-0.019c0.846-1.605,1.413-3.386,1.881-5.149
			c0.233-0.881-0.217-1.698-1.126-2.296c-1.183-0.776-2.103-0.736-3.35-0.036C309.367,118.933,308.722,120.047,308.634,121.853z
			 M71.837,82.017c-0.031,2.247,1.371,4.073,3.204,4.172c1.357,0.073,4.285-2.345,4.35-3.594c0.092-1.752-2.885-4.256-5.11-3.973
			C72.52,78.847,71.739,80.224,71.837,82.017z M272.648,51.263c-2.61-0.039-5.092,1.805-5.114,3.799
			c-0.019,1.646,1.448,2.858,3.51,2.898c1.872,0.038,4.922-2.46,4.521-4.04C275.25,52.678,274.618,51.037,272.648,51.263z
			 M313.187,81.051c-0.523,0.561-1.665,0.111-1.999,0.982c-0.864,2.253-2.161,4.443-1.318,7.02c0.374,1.143,1.317,2.044,2.347,1.754
			c0.9-0.255,1.907-1.15,1.734-2.523c-0.078-0.614,0.041-1.222-0.344-1.823c-0.277-0.432-0.389-1.226,0.482-1.188
			c1.599,0.07,2.22-1.038,2.104-2.165C316.038,81.569,314.349,81.528,313.187,81.051z M264.109,92.411
			c2.138,0.011,3.95-1.58,3.898-3.422c-0.048-1.673-1.958-3.293-3.865-3.277c-1.705,0.015-3.96,2.287-3.743,4.056
			C260.654,91.837,262.162,92.523,264.109,92.411z M116.333,30.396c0.114-1.613-0.48-2.504-2.248-2.604
			c-2.689-0.151-4.948,2.696-4.926,4.562c0.02,1.675,0.855,2.586,2.548,2.636C113.904,35.055,116.25,32.713,116.333,30.396z
			 M125.967,78.854c-0.421,1.817,0.149,3.367,1.836,3.897c1.681,0.528,2.399-1.043,3.117-2.27c0.273-0.467,0.639-0.887,0.859-1.375
			c0.504-1.115,0.69-2.234-0.211-3.28c-0.708-0.82-1.484-1.537-2.644-0.966C127.255,75.681,125.217,76.282,125.967,78.854z
			 M100.381,29.254c-0.942-0.241-2.23-0.021-2.59,1.318c-0.383,1.425-0.538,3.432,1.181,3.893c1.787,0.479,3.794,0.749,5.719,0.354
			c0.472-0.097,0.579-0.642,0.655-1.155C105.753,30.902,104.042,29.246,100.381,29.254z M204.03,55.085
			c-2.369,0.075-4.512,2.194-4.44,4.189c0.05,1.415,1.801,3.039,3.215,2.983c1.835-0.073,4.149-2.608,3.939-4.45
			C206.553,56.133,205.494,55.241,204.03,55.085z M323.513,113.362c0.404-1.414-0.645-2.5-1.524-3.53
			c-1.425-1.67-3.131-0.325-4.552,0.053c-1.482,0.393-1.212,2.062-1.068,3.287c0.172,1.468,1.256,1.844,2.59,1.73
			c0.565-0.047,1,0.188,1.508,0.486C322.488,116.574,323.494,115.931,323.513,113.362z M79.493,61.686
			c-0.037-1.576-2.425-3.761-4.1-3.72c-2.393,0.058-2.18,2.222-2.499,3.576c-0.412,1.749,1.424,4.121,2.654,4.066
			C77.386,65.525,79.532,63.392,79.493,61.686z M243.419,129.731c2.311-0.003,4.072-1.568,4.011-3.56
			c-0.036-1.14-2.996-2.82-4.977-2.47c-1.506,0.267-2.952,1.148-3.016,3.002C239.362,128.888,240.551,129.735,243.419,129.731z
			 M280.449,35.806c0.044-1.323-1.675-3.22-2.898-3.202c-1.206,0.019-4.302,3.301-4.272,4.565c0.042,1.824,1.04,2.63,2.821,2.615
			C277.657,39.772,280.401,37.286,280.449,35.806z M257.004,55.999c-0.021-1.904-1.883-3.425-4.286-3.271
			c-2.061,0.132-2.486,1.949-2.828,3.486c-0.295,1.322,1.74,3.207,3.123,3.182C255.177,59.357,257.024,57.786,257.004,55.999z
			 M89.058,78.814c0.138-2.137-0.81-3.188-3-3.163c-2.328,0.026-3.754,1.122-3.692,2.967c0.045,1.334,2.83,4.071,4.269,4.196
			C87.76,82.913,89.054,80.777,89.058,78.814z M247.238,90.497c-2.518,0-3.53,0.909-3.588,3.222
			c-0.034,1.374,1.904,3.004,3.565,2.998c1.478-0.004,3.56-2.309,3.562-4.003C250.783,90.115,248.863,90.528,247.238,90.497z
			 M78.984,42.846c0.206-1.065-0.216-1.926-0.789-2.657c-0.957-1.218-2.47-1.211-3.811-1.303c-0.926-0.064-1.13,1.083-1.194,1.719
			c-0.193,1.917,0.344,3.744,1.322,5.407c0.394,0.67,1.193,0.628,1.72,0.409C77.815,45.763,79.463,45.045,78.984,42.846z
			 M279.999,56.056c2.462-0.031,5.297-2.455,5.034-3.961c-0.236-1.358-1.06-2.661-2.719-2.723c-2.193-0.082-4.874,2.021-4.539,3.651
			C278.083,54.526,278.777,56.008,279.999,56.056z M248.422,49.186c-0.385,1.809,0.859,2.354,2.263,2.527
			c2.469,0.305,3.943-1.363,5.383-3c0.876-0.997,0.225-1.4-0.554-2.148c-2.006-1.927-3.508,0.273-5.233,0.329
			C248.61,46.948,248.207,47.709,248.422,49.186z M121.595,81.151c0.522-0.947-0.439-1.29-1.13-1.486
			c-1.438-0.408-2.955-1.402-4.412-0.105c-1.371,1.22-2.221,2.585-1.222,4.545c0.532,1.044,1.288,1.617,2.326,1.421
			C119.232,85.135,121.619,82.775,121.595,81.151z M266.095,54.778c-0.016-1.659-2.062-3.626-3.647-3.507
			c-1.266,0.095-2.5,2.72-2.602,5.07c-0.086,1.999,1.147,2.118,2.562,2.091C264.488,58.394,266.115,56.758,266.095,54.778z
			 M251.875,124.408c-0.977,0.515-2.699-0.796-3.41,0.93c-0.752,1.826,1.373,1.956,2.083,2.938c0.274,0.379,0.642,0.704,1.007,1.003
			c1.046,0.856,2.44,0.722,3.339,0.247c0.894-0.473,2.228-1.244,2.05-2.637c-0.125-0.982-0.764-1.78-1.836-2.201
			C254.084,124.288,253.076,124.622,251.875,124.408z M234.88,128.329c0.525-0.216,2.067,0.566,2.592-1.229
			c0.377-1.286-0.252-2.179-1.132-2.957c-0.911-0.807-2.035-1.132-3.22-1.095c-1.555,0.051-3.476,1.985-3.373,3.297
			c0.151,1.953,1.044,2.44,3.596,1.99C233.647,128.282,233.968,128.329,234.88,128.329z M326.382,83.329
			c-0.143-0.875,0.146-1.884-0.228-2.917c-0.75-2.072-1.468-2.428-3.431-1.438c-2.289,1.154-2.491,1.988-1.08,4.164
			c0.504,0.777,0.857,1.655,1.388,2.411c0.478,0.681,0.986,1.441,2.045,1.238c1.226-0.233,1.4-1.089,1.312-2.132
			C326.354,84.26,326.382,83.86,326.382,83.329z M196.364,62.264c-1.757,0.028-3.526,1.642-3.446,2.96
			c0.071,1.172,3.114,4.729,3.986,4.659c0.643-0.052,2.927-3.892,2.609-4.792C198.979,63.575,198.341,61.936,196.364,62.264z
			 M223.875,116.812c2.291,0.019,3.959-1.019,3.915-2.434c-0.04-1.256-2.475-3.624-3.71-3.608c-1.724,0.022-3.877,1.881-3.91,3.373
			C220.135,115.721,221.627,116.795,223.875,116.812z M224.121,126.382c1.797,0.026,3.726-1.621,3.691-3.152
			c-0.031-1.367-1.848-3.119-3.3-3.05c-1.768,0.084-3.492,0.564-3.816,2.586C220.405,124.582,222.256,126.355,224.121,126.382z
			 M236.499,91.459c-3.09-0.019-4.722,1.207-4.334,2.914c0.486,2.143,2.163,2.175,3.821,1.55c0.901-0.339,1.067,0.41,1.56,0.671
			c0.754,0.399,1.54,0.83,2.283,0.099c0.739-0.728,0.97-1.772,0.394-2.58C239.156,92.621,237.707,91.564,236.499,91.459z
			 M101.501,78.672c-0.057-2.092-1.368-2.96-4.076-3.038c-2.223-0.063-2.604,1.258-2.614,2.979c-0.009,1.583,1.712,3.25,3.312,3.269
			C99.707,81.901,101.542,80.158,101.501,78.672z M75.187,34.24c-0.009,1.667,1.185,3.157,2.497,3.117
			c1.66-0.049,3.679-2.192,3.723-3.951c0.044-1.753-0.876-2.847-2.514-3.15C77.471,29.992,75.195,32.561,75.187,34.24z
			 M209.343,89.062c1.457-0.102,3.404,0.644,3.191-2.118c-0.135-1.731-2.404-3.739-4.59-3.467c-1.374,0.17-2.499,1.18-2.588,2.743
			C205.269,87.747,207.204,89.062,209.343,89.062z M147.323,36.43c2.098,0.047,3.831-1.158,3.938-2.738
			c0.094-1.387-1.859-2.9-3.876-3.002c-1.308-0.066-3.238,1.574-3.296,2.802C144.01,35.124,145.4,36.387,147.323,36.43z
			 M169.473,50.784c1.726-0.013,3.318-1.709,3.318-3.559c0-1.682-0.841-2.598-2.539-2.657c-1.562-0.055-4.325,2.273-4.108,3.645
			C166.424,49.984,167.638,50.864,169.473,50.784z M183.28,47.935c1.606-0.014,3.78-2.169,3.871-3.792
			c0.091-1.627-1.119-2.173-2.285-2.366c-1.828-0.303-4.492,1.556-4.403,2.88C180.581,46.43,181.177,47.858,183.28,47.935z
			 M308.09,76.791c-0.068-1.261-2.239-2.64-3.936-2.571c-1.938,0.079-2.487,1.465-2.607,2.967c-0.139,1.735,1.622,3.861,2.816,3.727
			C305.123,80.828,308.129,77.503,308.09,76.791z M273.75,84.884c0.004-2.025-1.779-4.062-3.317-3.921
			c-1.831,0.167-2.597,1.634-2.858,3.199c-0.273,1.636,1.703,3.589,3.376,3.44C272.764,87.439,273.443,86.104,273.75,84.884z
			 M79.011,72.45c0.013-1.847-2.217-4.014-3.812-3.944c-1.849,0.081-1.87,1.423-1.953,2.854c-0.19,3.258,0.378,3.624,2.721,3.777
			C77.89,75.261,78.872,73.993,79.011,72.45z M89.43,35.957c1.164-0.208,2.787-0.459,2.953-2.479
			c0.113-1.379-2.064-3.628-3.416-3.736c-1.235-0.098-3.246,1.685-3.251,2.882C85.708,34.211,87.41,35.93,89.43,35.957z
			 M72.781,91.656c0.005,2.584,1.012,4.062,2.801,4.102c1.274,0.028,3.104-2.127,2.721-3.69c-0.355-1.448-0.544-3.467-2.787-3.461
			C73.572,88.61,72.774,89.821,72.781,91.656z M267.879,26.382c-1.898-0.024-3.233,1.164-3.217,2.86
			c0.014,1.387,2.486,2.957,4.743,2.853c1.411-0.065,2.294-0.98,2.405-2.386C271.913,28.419,269.434,26.402,267.879,26.382z
			 M199.736,37.858c-2.244,0.037-4.094,2.101-3.968,3.964c0.115,1.69,1.418,2.355,2.753,2.522c1.55,0.194,3.506-2.115,3.446-3.824
			C201.909,38.838,200.889,38.027,199.736,37.858z M332.573,76.134c-0.655,0.034-1.143,0.01-1.634,0.454
			c-1.379,1.245-0.676,6.917,1.032,7.633c0.442,0.186,0.888,0.01,1.292-0.339c0.871-0.752,1.872-5.388,1.404-6.435
			C334.223,76.453,333.424,76.186,332.573,76.134z M310.593,103.902c0-1.646-1.358-2.956-2.984-2.877
			c-1.498,0.072-3.373,1.836-3.201,3.193c0.244,1.936,1.597,2.841,3.422,3.006C309.44,107.37,310.593,105.917,310.593,103.902z
			 M256.938,115.357c2.934,0.078,5.351-1.352,5.322-2.699c-0.023-1.061-3.188-3.657-4.458-3.335
			c-1.689,0.43-2.095,2.007-2.229,3.578C255.446,114.407,256.079,115.302,256.938,115.357z M281.411,28.415
			c-0.052-1.788-1.863-3.523-3.404-3.465c-1.213,0.045-3.926,2.639-3.591,3.646c0.317,0.957,0.966,2.558,2.141,1.973
			C278.161,29.769,281.046,31.439,281.411,28.415z M135.181,39.301c-1.976,0.01-3.163,1.105-3.037,2.977
			c0.117,1.739,0.63,3.193,2.829,3.262c2.365,0.074,2.653-1.875,2.772-3.282C137.861,40.894,137.47,39.028,135.181,39.301z
			 M244.086,35.122c-0.006-1.794-1.354-3.603-2.668-3.303c-1.333,0.304-3.286,0.282-3.105,2.687
			c0.147,1.962,1.567,4.007,3.155,3.671C242.978,37.856,244.514,37.048,244.086,35.122z M165.613,67.232
			c-0.096-1.064,0.486-2.646-1.106-3.337c-0.888-0.386-2.103-0.623-2.867,0.259c-1.432,1.654-0.897,3.551-0.072,5.218
			c0.446,0.901,1.353,1.908,2.671,1.454c0.722-0.249,1.366-0.79,1.374-1.72C165.617,68.553,165.613,68,165.613,67.232z
			 M136.907,122.057c-0.005-1.896,0.374-3.856-2.365-3.813c-1.78,0.028-2.806,0.896-2.877,2.671
			c-0.066,1.647,2.089,4.004,3.541,4.034C137.725,125.001,136.637,123.066,136.907,122.057z M106.09,83.313
			c1.923,0.034,3.535-1.623,3.342-3.473c-0.135-1.298-0.483-2.847-2.458-2.749c-1.292,0.064-3.669,2.295-3.519,3.579
			C103.651,82.347,104.776,83.199,106.09,83.313z M312.493,112.622c-0.116-1.691-1.536-2.041-3.381-2.059
			c-1.867-0.018-2.802,1.287-2.668,2.596c0.146,1.418,0.662,3.296,2.935,3.188C310.834,116.278,312.546,114.578,312.493,112.622z
			 M165.645,39.743c-0.493,2.352,1.856,2.154,2.889,3.079c1.325,1.187,3.291,0.084,3.273-1.734
			c-0.009-0.821-0.173-1.728-0.554-2.442c-0.999-1.872-2.706-0.803-4.103-0.722C166.229,37.978,165.318,38.463,165.645,39.743z
			 M302.939,87.698c0.209,1.065,0.569,2.373,2.071,2.761c0.88,0.227,4.287-2.689,4.095-3.538c-0.311-1.37-0.827-2.74-2.697-2.649
			C304.684,84.355,302.932,85.917,302.939,87.698z M307.499,92.396c-1.419,0.019-3.63,2.136-3.575,3.419
			c0.052,1.226,2.162,2.908,3.607,2.798c1.592-0.122,2.697-1.551,2.354-2.588C309.47,94.773,309.986,92.408,307.499,92.396z
			 M279.808,45.521c1.236,0.139,2.216-0.25,2.556-1.693c0.363-1.545-0.634-2.329-1.805-2.501c-1.114-0.164-2.024-0.577-3.023-0.989
			c-0.951-0.392-1.815,0.028-1.889,1.377C275.517,44.117,276.957,45.515,279.808,45.521z M224.459,107.206
			c1.956,0.382,2.777-0.673,2.857-2.433c0.06-1.303-1.921-2.917-3.411-2.771c-1.615,0.156-3.169,1.229-3.015,2.646
			C221.056,106.17,222.341,107.645,224.459,107.206z M219.208,127.943c0.405-1.584-0.729-2.28-2.148-2.476
			c-1.456-0.198-3.801,1.642-3.543,2.732c0.352,1.489,0.634,3.208,2.821,3.207C217.764,131.406,219.188,129.848,219.208,127.943z
			 M289.053,50.781c0.145,1.405-0.128,3.4,1.961,3.269c2.666-0.167,1.435-3.211,2.728-4.58c0.467-0.493,0.215-1.579-0.667-1.985
			c-0.755-0.347-1.593-0.938-2.411-0.37C289.427,47.973,288.875,49.23,289.053,50.781z M196.235,51.088
			c-0.014-1.504-2.155-4.363-3.459-4.052c-1.025,0.245-1.935,0.798-1.841,2.286c0.142,2.261,1.649,4.405,3.397,4.316
			C195.661,53.571,196.289,52.777,196.235,51.088z M197.203,56.378c0.223-1.633-1.046-2.19-2.293-2.182
			c-1.856,0.014-2.831,1.571-2.872,3.117c-0.035,1.319,0.325,3.032,2.077,3.487C195.188,61.081,197.056,58.384,197.203,56.378z
			 M251.734,40.683c0.229-2.38-1.619-2.995-3.046-3.164c-1.292-0.153-2.737,0.705-2.69,2.567c0.039,1.558,1.777,3.189,3.438,3.011
			C250.859,42.945,252.073,42.384,251.734,40.683z M245.521,33.007c-0.021,1.327,1.203,2.691,2.509,2.795
			c1.063,0.085,3.129-2.06,3.064-3.362c-0.076-1.543-0.95-2.536-2.545-2.695C247.249,29.614,245.546,31.492,245.521,33.007z
			 M259.514,28.306c-1.843-0.342-2.87,0.847-2.893,2.507c-0.018,1.354,0.692,2.738,2.523,2.748c1.627,0.008,3.168-1.572,3.106-3.313
			C262.194,28.594,261.081,28.204,259.514,28.306z M193.352,35.804c0.106-1.74,0.004-3.295-2.19-3.176
			c-1.457,0.079-2.831,0.601-3.027,2.306c-0.202,1.75,1.271,2.804,3.359,2.974C193.392,38.061,193.601,37.144,193.352,35.804z
			 M188.584,42.401c-0.008,1.899,1.172,3.563,2.545,3.591c1.012,0.02,2.87-2.402,2.685-3.686c-0.221-1.534-1.132-2.119-2.772-2.108
			C189.375,40.209,188.545,40.702,188.584,42.401z M129.74,100.62c-0.099,1.78,0.402,3.306,2.235,3.171
			c1.402-0.103,2.964-1.021,2.963-2.769c0-1.746-1.554-2.614-2.967-2.768C130.586,98.104,129.418,98.966,129.74,100.62z
			 M257.419,96.778c1.422-0.264,2.404-1.275,2.879-2.626c0.314-0.896-1.903-2.778-3.087-2.679c-1.37,0.116-2.8,0.39-2.575,2.269
			C254.82,95.279,255.379,96.636,257.419,96.778z M161.813,53.654c2,0.001,3.176-1.195,3.218-2.569
			c0.044-1.453-1.804-3.409-3.178-3.089c-1.354,0.314-2.019,1.589-1.92,2.879C160.042,52.32,160.736,53.576,161.813,53.654z
			 M174.71,46.774c-0.031,1.307,0.086,2.638,1.595,3.007c1.139,0.279,2.717-2.126,2.718-3.865c0-1.411-0.583-2.375-2.051-2.273
			C175.102,43.771,174.604,45.107,174.71,46.774z M257.787,122.591c1.727-0.091,3.299,0.032,3.008-1.994
			c-0.18-1.249,0.168-2.994-1.776-3.281c-1.28-0.189-2.895,1.786-2.99,3.312C255.924,122.278,256.722,122.745,257.787,122.591z
			 M143.719,115.391c-0.936-0.053-1.753-0.062-2.001,0.955c-0.476,1.952,1.169,2.726,2.18,3.846
			c0.541,0.601,1.317,0.517,2.018,0.639c0.018,0.003,0.052-0.14,0.091-0.207c0.647-1.091,0.652-2.148,0.018-3.28
			C145.46,116.337,145.249,115,143.719,115.391z M262.297,102.812c0.053-1.878-0.857-3.115-2.192-3.104
			c-1.315,0.012-2.128,1.22-2.188,2.811c-0.055,1.452,0.419,2.334,1.838,2.289C261.111,104.765,262.44,104.364,262.297,102.812z
			 M140.735,97.745c0.077-1.555-0.511-2.467-2.156-2.467c-1.65,0.001-2.076,0.94-2.187,2.432c-0.122,1.637,0.964,2.227,2.079,2.267
			C139.72,100.022,140.957,99.43,140.735,97.745z M196.196,96.07c-0.468-0.354-0.251-1.416-1.31-1.266
			c-0.556,0.079-0.605,0.432-0.541,0.824c0.119,0.727,0.606,1.229,1.282,1.375C195.84,97.05,196.265,96.586,196.196,96.07z"/>
		<path style="fill-rule:evenodd;clip-rule:evenodd;fill:#7B491E;" d="M369.141,51.807c-3.375-0.872-6.624-0.459-9.806,0.853
			c-0.408,0.168-1.125,0.226-1.396-0.012c-2.119-1.857-4.561-0.968-6.89-0.892c-2.163,0.071-4.19-0.09-5.966-1.583
			c-0.831-0.699-1.926-0.427-2.929-0.115c-0.879,0.273-2.07,0.964-2.62,0.633c-2.573-1.549-4.988,0.055-7.423-0.032
			c-3.996-0.143-7.852,0.08-11.733,1.018c-1.302,0.315-2.793,0.262-4.17-0.366c-0.479-0.219-1.063-0.307-1.84,0.069
			c-1.342,0.65-3.041,0.92-4.347-0.452c-0.549-0.577-1.046-0.801-1.86-0.375c-2.208,1.152-4.593,0.847-6.965,0.742
			c-0.943-0.042-1.5-0.492-1.93-1.149c-0.511-0.78,0.099-1.308,0.613-1.818c1.13-1.121,2.064-1.92,1.838-4.096
			c-0.25-2.4,0.475-5.272,2.226-7.337c1.294-1.527,1.056-3.07,0.699-4.674c-0.417-1.876,0.395-3.389,0.82-5.119
			c1.109-4.509,4.391-7.037,7.399-9.857c2.578-2.416,5.518-4.441,8.134-6.819c2.927-2.66,6.238-3.301,10.023-2.736
			c2.529,0.378,4.847-0.873,7.232-1.46c1.01-0.249,1.992-0.535,2.985-0.399c5.122,0.702,10.317,0.009,15.435,0.896
			c1.525,0.265,3.084,0.003,4.601-0.618c1.503-0.616,3.099-0.714,4.262,0.829c0.543,0.72,1.263,0.83,2.101,0.794
			c3.047-0.133,5.957,0.044,8.76,1.691c1.263,0.742,2.789-0.93,4.396-0.95c1.312-0.017,3.634-0.885,3.793-0.77
			c2.238,1.625,5.517,0.437,7.362,2.726c0.84,1.042,0.892,2.488,0.037,3.41c-0.833,0.899-0.757,1.083,0.024,1.984
			c1.148,1.323,1.75,2.952,0.275,4.686c-1.302,1.531-0.794,3.506-0.802,5.302c-0.006,1.615,0.095,3.163-1.479,4.226
			c-0.35,0.236-0.729,0.781-0.704,1.159c0.245,3.807-3.166,6.064-3.989,9.508c-0.401,1.681-2.467,2.964-2.195,5.201
			c0.033,0.273-0.641,0.907-0.992,0.911c-3.755,0.044-6.093,3.134-9.334,4.287C371.567,51.537,370.417,51.874,369.141,51.807z
			 M355.338,37.386c1.775,0,2.917,0.152,3.997-0.042c1.136-0.204,2.53-0.358,2.909-1.76c0.824-3.054,2.571-5.871,1.621-9.367
			c-0.384-1.41-0.577-2.369-2.06-2.711c-2.306-0.532-4.593-0.697-6.988-0.763c-3.708-0.103-7.396-0.499-11.04,0.32
			c-2.598,0.583-5.07,0.441-7.559-0.393c-0.683-0.229-1.462-0.301-2.084,0.058c-1.44,0.831-2.836,1.285-4.494,0.556
			c-0.345-0.151-0.996,0.15-1.396,0.785c-1.648,2.614-3.538,5.078-3.333,8.441c0.044,0.731-0.345,1.489-0.532,2.234
			c-0.139,0.553-1.357,0.935-0.637,1.47c0.695,0.516,1.463,1.143,2.66,0.979c2.461-0.336,4.912-0.326,7.462-0.071
			c3.333,0.333,6.666,2.155,9.941,1.12C347.88,36.953,351.963,37.928,355.338,37.386z"/>
		<path style="fill-rule:evenodd;clip-rule:evenodd;fill:#7B491E;" d="M55.693,145.54c-2.27-0.092-4.388,0.154-6.192,1.813
			c-0.447,0.411-1.195,0.82-2.146,0.314c-1.954-1.039-4.17-0.84-6.118-0.128c-1.288,0.471-2.378,0.332-3.337-0.165
			c-2.467-1.28-3.97,0.104-5.99,1.275c-2.817,1.634-4.628,4.153-6.988,6.151c-1.888,1.6-4.286,2.395-6.636,3.184
			c-1.959,0.657-3.901,1.361-5.673,2.474c-1.125,0.706-1.845,0.31-2.926-0.609c-2.521-2.144-3.385-4.736-3.423-7.862
			c-0.018-1.478,0.507-2.637,1.617-3.479c1.309-0.995,2.541-1.974,3.48-3.401c0.759-1.154,2.751-0.165,3.686-1.724
			c0.33-0.551,1.084-1.043,1.284-1.757c1.413-5.032,4.042-9.552,5.949-14.366c0.753-1.902,1.178-3.97,2.055-5.871
			c0.296-0.642,0.345-1.457-0.055-2.072c-1.548-2.379-0.743-4.717,0.262-6.899c1.275-2.77,2.849-5.363,4.021-8.233
			c1.334-3.267,4.86-4.709,8.306-4.995c4.039-0.336,8.127-0.047,12.193-0.096c1.453-0.018,2.503,1.341,4.043,0.984
			c5.115-1.183,9.981,1.659,15.084,0.992c0.53-0.069,1.124,0.455,1.705,0.653c1.063,0.363,2.17,0.625,3.11-0.228
			c1.23-1.117,2.256-1.809,2.724,0.59c0.049,0.25,0.636,0.609,0.917,0.565c3.714-0.581,7.426,1.235,11.244-0.576
			c4.66-2.21,9.825-1.08,14.774-0.982c2.275,0.046,3.112,2.409,2.203,4.502c-1.95,4.487-6.136,6.216-9.918,8.517
			c-2.571,1.563-5.727,2.076-7.861,4.41c-0.094,0.102-0.271,0.137-0.417,0.181c-2.744,0.826-3.867,1.762-4.805,3.979
			c-0.883,2.093-0.314,4.356,0.448,6.059c1.056,2.358,0.244,3.359-1.506,4.344c-1.199,0.674-2.654,0.987-1.397,2.978
			c0.531,0.841-0.105,1.768-1.435,1.827c-2.052,0.091-3.402,0.912-3.306,3.322c0.057,1.435-1.227,2.217-2.266,2.805
			c-1.931,1.093-3.996,1.961-6.042,2.834c-1.184,0.506-2.205,1.021-2.443,2.477c-0.069,0.422-0.293,1.283-1.046,0.946
			c-2.125-0.952-4.462-0.392-6.589-0.979C53.622,148.558,55.922,146.911,55.693,145.54z M71.456,116.261
			c-5.162-0.779-9.926-0.257-14.455,1.968c-1.06,0.521-2.283,1.169-3.438,0.631c-3.775-1.76-7.758-1.07-11.642-0.993
			c-1.732,0.034-3.848,0.459-4.213,3.034c-0.122,0.855-0.928,1.527-1.652,2.182c-0.735,0.665-2.141,1.368-1.292,2.801
			c1.088,1.834,1.56,3.659,0.762,5.764c-0.189,0.497-0.416,1.396,0.447,1.95c0.931-0.691,1.986-1.29,2.995-1.702
			c2.424-0.99,4.616-3.254,7.502-2.353c2.657,0.829,5.313,0.539,7.691-0.224c2.864-0.92,5.335-0.78,7.914,0.488
			c1.728,0.851,2.739,0.498,3.62-1.455C67.515,124.318,67.238,119.281,71.456,116.261z M58.516,145.134
			c-0.179-0.224-0.285-0.481-0.432-0.507c-0.169-0.029-0.497,0.106-0.54,0.24c-0.092,0.286,0.003,0.619,0.402,0.601
			C58.116,145.461,58.278,145.28,58.516,145.134z"/>
		<path style="fill-rule:evenodd;clip-rule:evenodd;fill:#7B491E;" d="M124.683,100.686c1.512,0.513,2.536,1.551,2.63,3.201
			c0.104,1.792-1.316,1.416-2.369,1.437c-2.541,0.048-3.949,1.242-4.487,3.733c-0.084,0.391-0.126,0.443,0.267,0.581
			c3.162,1.109,4.099,4.377,5.114,6.791c0.742,1.764,0.785,3.194,2.828,4.162c1.32,0.624,0.642,3.853-0.768,4.992
			c-1.168,0.944-3.625,0.501-4.567-1.121c-1.515-2.612-3.849-4.842-3.277-8.45c0.283-1.784-2.244-3.381-1.091-5.647
			c0.12-0.236-1.011-0.395-1.544-0.765c-2.953-2.05-3.087-4.324,0.038-6.022C119.719,102.347,122.261,101.632,124.683,100.686z"/>
		<path style="fill-rule:evenodd;clip-rule:evenodd;fill:#7B491E;" d="M218.785,91.958c-1.355,0.502-2.309,1.571-3.526,0.543
			c-0.737-0.621-0.602-1.421-0.371-2.251c0.257-0.925,0.784-1.515,1.741-1.661c1.279-0.194,2.081,0.817,2.366,1.625
			c0.367,1.041,0.76,1.408,1.769,1.244c0.077-0.013,0.215-0.021,0.23,0.011c1.277,2.823,3.422,0.875,5.191,0.937
			c2.264,0.079,2.323,2.027,2.86,3.462c0.601,1.604-0.466,2.836-1.594,3.639c-1.867,1.33-4.344,1.254-5.691-0.246
			c-1.401-1.56-2.321-3.706-3.458-5.594C218.124,93.371,218.556,92.709,218.785,91.958z"/>
		<path style="fill-rule:evenodd;clip-rule:evenodd;fill:#7B491E;" d="M339.476,92.562c1.141-2.221-0.131-4.673-1.046-7.238
			c-0.334-0.938,0.299-1.973,1.343-2.482c1.168-0.569,2.345-0.867,3.528-0.042c1.084,0.756,1.749,1.908,1.163,3.055
			c-1.353,2.649-1.362,4.865,1.086,6.894c1.146,0.949,0.345,2.147-0.287,2.932c-0.978,1.214-2.63,1.527-3.859,0.833
			C340.301,95.888,338.883,94.938,339.476,92.562z"/>
		<path style="fill-rule:evenodd;clip-rule:evenodd;fill:#7B491E;" d="M340.432,79.492c-1.79-0.041-3.357-2.327-2.708-3.967
			c0.911-2.299,0.492-4.597-0.306-6.759c-0.493-1.339-0.596-2.415,0.453-3.354c1.057-0.946,2.279-0.92,3.354,0.002
			c1.045,0.896,1.549,1.844,0.92,3.411c-0.778,1.938,0.373,3.844,1.047,5.614C343.982,76.512,342.517,79.54,340.432,79.492z"/>
		<path style="fill-rule:evenodd;clip-rule:evenodd;fill:#7B491E;" d="M346.478,113.951c-0.004,0.078,0.091,0.913-0.146,1.641
			c-0.15,0.464-0.221,1.223-1.139,1.251c-0.812,0.026-1.099-0.364-1.341-0.985c-0.325-0.834-0.83-1.257-1.799-1.568
			c-1.023-0.33-2.043-1.271-1.794-2.729c0.274-1.614-0.409-2.652-1.76-3.537c-1.239-0.81-1.612-1.996-1.014-3.552
			c0.65-1.689,1.931-1.746,3.244-1.479c1.514,0.308,1.982,1.503,1.936,2.99c-0.041,1.3-0.537,2.723,1.776,2.931
			C345.802,109.036,346.478,111.073,346.478,113.951z"/>
		<path style="fill-rule:evenodd;clip-rule:evenodd;fill:#7B491E;" d="M171.889,59.708c4.191,0.743,5.238,2.625,3.483,5.952
			c-0.701,1.329-1.666,2.007-3.083,0.677c-1.622-1.522-2.63-3.143-1.274-5.332c0.51-0.823,0.433-1.215-0.464-1.831
			c-0.983-0.675-1.426-1.936-1.842-3.112c-0.589-1.667,0.045-2.841,1.577-3.259c1.368-0.374,2.679-0.216,3.188,1.688
			C174.175,57.115,173.866,58.722,171.889,59.708z"/>
		<path style="fill-rule:evenodd;clip-rule:evenodd;fill:#7B491E;" d="M190.493,60.872c0.067,0.528-0.113,1.115-0.577,1.182
			c-1.423,0.209-1.96,1.293-2.744,2.262c-0.822,1.015-1.856,0.695-2.718-0.211c-1.451-1.525-2.186-1.437-2.479,0.536
			c-0.179,1.201-0.531,2.066-1.632,2.185c-0.92,0.1-1.671-0.652-2.2-1.451c-0.604-0.912-0.789-1.878-0.038-2.771
			c1.02-1.214,1.944-2.043,3.968-1.986c1.653,0.046,3.708-0.535,5.424-1.347C189.089,58.517,190.531,59.244,190.493,60.872z"/>
		<path style="fill-rule:evenodd;clip-rule:evenodd;fill:#7B491E;" d="M134.986,67.876c-0.305,2.62-1.849,5.044-3.086,4.844
			c-1.724-0.28-4.884-3.566-4.677-4.863c0.322-2.01,3.207-4.701,4.937-4.604C133.264,63.314,135.156,66.411,134.986,67.876z"/>
		<path style="fill-rule:evenodd;clip-rule:evenodd;fill:#7B491E;" d="M137.213,29.733c2.433,0.004,5.453,3.643,4.942,6.002
			c-0.286,1.322-1.604,1.977-2.454,1.533c-1.633-0.853-3.25-1.243-5.032-1.549c-0.841-0.144-1.999-1.307-1.771-2.641
			c0.278-1.63,1.257-2.824,2.889-3.323C136.224,29.622,136.736,29.736,137.213,29.733z"/>
		<path style="fill-rule:evenodd;clip-rule:evenodd;fill:#7B491E;" d="M264.192,131.005c-0.259,0.973,0.443,2.204-0.479,3.262
			c-1.343,1.542-2.804,1.11-4.389,0.456c-2.134-0.882-2.668-2.536-2.294-4.573c0.287-1.565,1.305-2.43,2.986-2.334
			c0.236,0.013,0.478,0.014,0.714-0.013c0.969-0.111,1.806-1.517,2.733-0.741C264.579,127.992,264.137,129.542,264.192,131.005z"/>
		<path style="fill-rule:evenodd;clip-rule:evenodd;fill:#7B491E;" d="M125.735,28.296c1.727,0.036,4.915,2.457,5.339,4.056
			c0.419,1.578-1.102,3.064-2.859,2.811c-0.792-0.114-1.49-0.417-2.403-0.239c-2.083,0.405-4.029-0.952-4.179-2.605
			C121.471,30.526,123.785,28.257,125.735,28.296z"/>
		<path style="fill-rule:evenodd;clip-rule:evenodd;fill:#7B491E;" d="M169.93,70.546c-0.502-1.589,0.553-2.56,1.966-2.952
			c1.733-0.48,3.239,0.625,3.948,1.936c0.732,1.354,1.414,2.938,1.26,4.644c-0.088,0.983-0.371,1.974-1.284,2.335
			c-0.856,0.339-1.79,0.222-2.591-0.594C171.749,74.406,169.66,73.332,169.93,70.546z"/>
		<path style="fill-rule:evenodd;clip-rule:evenodd;fill:#7B491E;" d="M75.929,47.077c1.05,1.342,3.109,2.252,4.062,4.312
			c0.732,1.581-0.443,2.368-1.303,3.322c-1.274,1.415-2.732,1.604-4.427,0.859c-0.472-0.208-0.749-0.5-0.998-0.928
			c-0.952-1.637-0.38-5.743,1.004-6.998C74.612,47.331,74.867,46.868,75.929,47.077z"/>
		<path style="fill-rule:evenodd;clip-rule:evenodd;fill:#7B491E;" d="M334.992,110.554c0.149,1.815-1.459,1.896-2.623,2.517
			c-1.06,0.563-1.838,0.632-2.637-0.426c-0.831-1.1-2.761-0.589-3.359-2.235c-0.182-0.499-0.599-0.893-0.383-1.483
			c0.383-1.054,3.733-3.245,4.731-3.1C332.631,106.104,335.042,108.719,334.992,110.554z"/>
		<path style="fill-rule:evenodd;clip-rule:evenodd;fill:#7B491E;" d="M205.33,135.23c0.001-1.752,2.023-4.109,3.482-4.061
			c2.162,0.071,4.145,1.979,4.173,4.013c0.021,1.544-2.375,3.667-4.102,3.633C207.04,138.779,205.33,137.054,205.33,135.23z"/>
		<path style="fill-rule:evenodd;clip-rule:evenodd;fill:#7B491E;" d="M131.62,51.741c2.446-0.018,4.802,1.852,4.782,3.795
			c-0.012,1.181-2.656,3.862-3.808,3.86c-1.567-0.002-3.803-2.621-3.819-4.474C128.757,52.933,129.811,51.754,131.62,51.741z"/>
		<path style="fill-rule:evenodd;clip-rule:evenodd;fill:#7B491E;" d="M308.634,121.853c0.088-1.806,0.732-2.92,2.222-3.754
			c1.247-0.7,2.167-0.74,3.35,0.036c0.909,0.598,1.359,1.415,1.126,2.296c-0.468,1.764-1.035,3.544-1.881,5.149
			c-0.562,1.066-1.56,1.401-2.541,0.019C310.021,124.347,308.745,123.356,308.634,121.853z"/>
		<path style="fill-rule:evenodd;clip-rule:evenodd;fill:#7B491E;" d="M71.837,82.017c-0.098-1.793,0.683-3.17,2.443-3.395
			c2.226-0.283,5.202,2.22,5.11,3.973c-0.065,1.249-2.993,3.667-4.35,3.594C73.208,86.09,71.807,84.263,71.837,82.017z"/>
		<path style="fill-rule:evenodd;clip-rule:evenodd;fill:#7B491E;" d="M272.647,51.265c1.971-0.228,2.604,1.413,2.918,2.655
			c0.4,1.58-2.649,4.078-4.521,4.04c-2.062-0.041-3.528-1.252-3.51-2.898C267.556,53.067,270.038,51.224,272.647,51.265z"/>
		<path style="fill-rule:evenodd;clip-rule:evenodd;fill:#7B491E;" d="M313.187,81.051c1.162,0.477,2.851,0.518,3.007,2.057
			c0.115,1.127-0.506,2.235-2.104,2.165c-0.871-0.038-0.76,0.756-0.482,1.188c0.385,0.602,0.266,1.209,0.344,1.823
			c0.173,1.373-0.834,2.269-1.734,2.523c-1.029,0.29-1.973-0.611-2.347-1.754c-0.843-2.576,0.454-4.767,1.318-7.02
			C311.522,81.162,312.664,81.611,313.187,81.051z"/>
		<path style="fill-rule:evenodd;clip-rule:evenodd;fill:#7B491E;" d="M264.109,92.411c-1.947,0.112-3.455-0.574-3.71-2.644
			c-0.217-1.769,2.038-4.041,3.743-4.056c1.907-0.016,3.817,1.604,3.865,3.277C268.059,90.831,266.247,92.422,264.109,92.411z"/>
		<path style="fill-rule:evenodd;clip-rule:evenodd;fill:#7B491E;" d="M116.334,30.396c-0.083,2.317-2.43,4.659-4.626,4.595
			c-1.693-0.049-2.528-0.961-2.548-2.636c-0.021-1.867,2.237-4.713,4.926-4.562C115.854,27.892,116.447,28.783,116.334,30.396z"/>
		<path style="fill-rule:evenodd;clip-rule:evenodd;fill:#7B491E;" d="M125.967,78.854c-0.75-2.571,1.288-3.172,2.958-3.994
			c1.16-0.57,1.937,0.146,2.644,0.966c0.902,1.045,0.715,2.165,0.211,3.28c-0.221,0.488-0.586,0.909-0.859,1.375
			c-0.718,1.226-1.436,2.798-3.117,2.27C126.116,82.221,125.546,80.671,125.967,78.854z"/>
		<path style="fill-rule:evenodd;clip-rule:evenodd;fill:#7B491E;" d="M100.381,29.254c3.661-0.008,5.372,1.648,4.964,4.41
			c-0.076,0.513-0.183,1.058-0.655,1.155c-1.925,0.395-3.932,0.125-5.719-0.354c-1.719-0.461-1.564-2.467-1.181-3.893
			C98.151,29.232,99.439,29.013,100.381,29.254z"/>
		<path style="fill-rule:evenodd;clip-rule:evenodd;fill:#7B491E;" d="M204.03,55.085c1.464,0.155,2.523,1.047,2.714,2.723
			c0.21,1.841-2.104,4.377-3.939,4.45c-1.414,0.056-3.165-1.568-3.215-2.983C199.518,57.28,201.661,55.16,204.03,55.085z"/>
		<path style="fill-rule:evenodd;clip-rule:evenodd;fill:#7B491E;" d="M323.513,113.362c-0.02,2.568-1.025,3.212-3.047,2.026
			c-0.508-0.298-0.942-0.533-1.508-0.486c-1.334,0.113-2.418-0.263-2.59-1.73c-0.144-1.226-0.414-2.895,1.068-3.287
			c1.421-0.378,3.127-1.723,4.552-0.053C322.869,110.862,323.917,111.948,323.513,113.362z"/>
		<path style="fill-rule:evenodd;clip-rule:evenodd;fill:#7B491E;" d="M79.493,61.686c0.039,1.707-2.107,3.84-3.944,3.921
			c-1.23,0.055-3.066-2.317-2.654-4.066c0.319-1.354,0.105-3.518,2.499-3.576C77.068,57.925,79.456,60.109,79.493,61.686z"/>
		<path style="fill-rule:evenodd;clip-rule:evenodd;fill:#7B491E;" d="M243.419,129.731c-2.868,0.004-4.058-0.844-3.981-3.027
			c0.063-1.854,1.51-2.735,3.016-3.002c1.98-0.351,4.94,1.33,4.977,2.47C247.492,128.163,245.73,129.729,243.419,129.731z"/>
		<path style="fill-rule:evenodd;clip-rule:evenodd;fill:#7B491E;" d="M280.449,35.806c-0.048,1.48-2.792,3.966-4.35,3.979
			c-1.781,0.015-2.779-0.792-2.821-2.615c-0.029-1.265,3.066-4.547,4.272-4.565C278.774,32.585,280.493,34.483,280.449,35.806z"/>
		<path style="fill-rule:evenodd;clip-rule:evenodd;fill:#7B491E;" d="M257.004,55.999c0.02,1.787-1.827,3.358-3.991,3.397
			c-1.383,0.025-3.418-1.859-3.123-3.182c0.342-1.537,0.768-3.354,2.828-3.486C255.122,52.574,256.984,54.095,257.004,55.999z"/>
		<path style="fill-rule:evenodd;clip-rule:evenodd;fill:#7B491E;" d="M89.06,78.812c-0.006,1.965-1.3,4.101-2.426,4.003
			c-1.439-0.125-4.224-2.862-4.269-4.196c-0.062-1.846,1.365-2.941,3.692-2.967C88.249,75.626,89.196,76.677,89.06,78.812z"/>
		<path style="fill-rule:evenodd;clip-rule:evenodd;fill:#7B491E;" d="M247.238,90.497c1.625,0.031,3.545-0.382,3.54,2.217
			c-0.003,1.694-2.085,3.999-3.562,4.003c-1.661,0.006-3.6-1.624-3.565-2.998C243.708,91.406,244.72,90.497,247.238,90.497z"/>
		<path style="fill-rule:evenodd;clip-rule:evenodd;fill:#7B491E;" d="M78.984,42.846c0.479,2.2-1.169,2.917-2.752,3.575
			c-0.527,0.219-1.326,0.261-1.72-0.409c-0.978-1.664-1.515-3.49-1.322-5.407c0.064-0.636,0.269-1.783,1.194-1.719
			c1.341,0.092,2.854,0.085,3.811,1.303C78.768,40.919,79.19,41.781,78.984,42.846z"/>
		<path style="fill-rule:evenodd;clip-rule:evenodd;fill:#7B491E;" d="M279.999,56.056c-1.222-0.048-1.915-1.53-2.224-3.033
			c-0.335-1.631,2.346-3.733,4.539-3.651c1.659,0.062,2.482,1.364,2.719,2.723C285.295,53.601,282.46,56.025,279.999,56.056z"/>
		<path style="fill-rule:evenodd;clip-rule:evenodd;fill:#7B491E;" d="M248.422,49.186c-0.216-1.477,0.188-2.237,1.858-2.292
			c1.726-0.056,3.228-2.256,5.233-0.329c0.778,0.748,1.43,1.151,0.554,2.148c-1.439,1.637-2.914,3.305-5.383,3
			C249.282,51.54,248.038,50.994,248.422,49.186z"/>
		<path style="fill-rule:evenodd;clip-rule:evenodd;fill:#7B491E;" d="M121.595,81.151c0.024,1.624-2.362,3.983-4.438,4.375
			c-1.038,0.195-1.793-0.377-2.326-1.421c-0.999-1.959-0.149-3.325,1.222-4.545c1.457-1.297,2.974-0.303,4.412,0.105
			C121.156,79.862,122.117,80.205,121.595,81.151z"/>
		<path style="fill-rule:evenodd;clip-rule:evenodd;fill:#7B491E;" d="M266.095,54.778c0.02,1.979-1.607,3.615-3.688,3.654
			c-1.414,0.026-2.647-0.093-2.562-2.091c0.102-2.35,1.336-4.976,2.602-5.07C264.034,51.152,266.08,53.12,266.095,54.778z"/>
		<path style="fill-rule:evenodd;clip-rule:evenodd;fill:#7B491E;" d="M251.875,124.408c1.201,0.214,2.21-0.12,3.232,0.28
			c1.072,0.421,1.711,1.219,1.836,2.201c0.178,1.393-1.156,2.164-2.05,2.637c-0.898,0.475-2.293,0.609-3.339-0.247
			c-0.365-0.299-0.732-0.624-1.007-1.003c-0.71-0.982-2.835-1.112-2.083-2.938C249.175,123.612,250.898,124.923,251.875,124.408z"/>
		<path style="fill-rule:evenodd;clip-rule:evenodd;fill:#7B491E;" d="M234.88,128.329c-0.912,0-1.233-0.047-1.537,0.007
			c-2.552,0.45-3.444-0.037-3.596-1.99c-0.103-1.312,1.818-3.246,3.373-3.297c1.185-0.037,2.309,0.288,3.22,1.095
			c0.88,0.778,1.509,1.671,1.132,2.957C236.948,128.896,235.406,128.113,234.88,128.329z"/>
		<path style="fill-rule:evenodd;clip-rule:evenodd;fill:#7B491E;" d="M326.382,83.329c0,0.532-0.028,0.932,0.006,1.327
			c0.089,1.043-0.086,1.898-1.312,2.132c-1.059,0.203-1.567-0.558-2.045-1.238c-0.53-0.756-0.884-1.634-1.388-2.411
			c-1.411-2.176-1.209-3.01,1.08-4.164c1.963-0.99,2.681-0.634,3.431,1.438C326.529,81.444,326.24,82.454,326.382,83.329z"/>
		<path style="fill-rule:evenodd;clip-rule:evenodd;fill:#7B491E;" d="M196.364,62.264c1.977-0.328,2.614,1.311,3.149,2.827
			c0.318,0.9-1.966,4.741-2.609,4.792c-0.872,0.069-3.916-3.487-3.986-4.659C192.838,63.906,194.607,62.292,196.364,62.264z"/>
		<path style="fill-rule:evenodd;clip-rule:evenodd;fill:#7B491E;" d="M223.875,116.812c-2.248-0.018-3.74-1.092-3.705-2.669
			c0.033-1.492,2.187-3.351,3.91-3.373c1.235-0.016,3.67,2.353,3.71,3.608C227.834,115.794,226.167,116.831,223.875,116.812z"/>
		<path style="fill-rule:evenodd;clip-rule:evenodd;fill:#7B491E;" d="M224.121,126.382c-1.864-0.026-3.716-1.8-3.425-3.616
			c0.324-2.021,2.049-2.502,3.816-2.586c1.452-0.069,3.269,1.683,3.3,3.05C227.846,124.761,225.917,126.408,224.121,126.382z"/>
		<path style="fill-rule:evenodd;clip-rule:evenodd;fill:#7B491E;" d="M236.499,91.459c1.208,0.105,2.657,1.162,3.724,2.653
			c0.576,0.808,0.346,1.853-0.394,2.58c-0.743,0.731-1.529,0.301-2.283-0.099c-0.492-0.261-0.658-1.01-1.56-0.671
			c-1.658,0.625-3.335,0.593-3.821-1.55C231.777,92.666,233.409,91.44,236.499,91.459z"/>
		<path style="fill-rule:evenodd;clip-rule:evenodd;fill:#7B491E;" d="M101.501,78.672c0.041,1.486-1.794,3.229-3.378,3.21
			c-1.6-0.019-3.32-1.686-3.312-3.269c0.01-1.721,0.391-3.042,2.614-2.979C100.133,75.712,101.444,76.58,101.501,78.672z"/>
		<path style="fill-rule:evenodd;clip-rule:evenodd;fill:#7B491E;" d="M75.187,34.24c0.009-1.679,2.284-4.248,3.706-3.984
			c1.637,0.304,2.558,1.397,2.514,3.15c-0.044,1.759-2.062,3.902-3.723,3.951C76.372,37.397,75.178,35.907,75.187,34.24z"/>
		<path style="fill-rule:evenodd;clip-rule:evenodd;fill:#7B491E;" d="M209.342,89.062c-2.139-0.001-4.073-1.315-3.985-2.843
			c0.089-1.562,1.214-2.572,2.588-2.743c2.186-0.271,4.455,1.736,4.59,3.467C212.748,89.706,210.8,88.961,209.342,89.062z"/>
		<path style="fill-rule:evenodd;clip-rule:evenodd;fill:#7B491E;" d="M147.323,36.43c-1.923-0.043-3.313-1.307-3.235-2.939
			c0.058-1.228,1.988-2.868,3.296-2.802c2.018,0.103,3.97,1.615,3.876,3.002C151.154,35.272,149.421,36.477,147.323,36.43z"/>
		<path style="fill-rule:evenodd;clip-rule:evenodd;fill:#7B491E;" d="M169.472,50.785c-1.834,0.08-3.048-0.801-3.329-2.572
			c-0.217-1.371,2.546-3.699,4.108-3.645c1.698,0.06,2.539,0.975,2.539,2.657C172.791,49.075,171.198,50.771,169.472,50.785z"/>
		<path style="fill-rule:evenodd;clip-rule:evenodd;fill:#7B491E;" d="M183.28,47.935c-2.103-0.076-2.699-1.504-2.817-3.278
			c-0.088-1.325,2.575-3.183,4.403-2.88c1.166,0.193,2.376,0.739,2.285,2.366C187.061,45.766,184.886,47.92,183.28,47.935z"/>
		<path style="fill-rule:evenodd;clip-rule:evenodd;fill:#7B491E;" d="M308.09,76.791c0.039,0.712-2.968,4.037-3.727,4.123
			c-1.194,0.134-2.955-1.992-2.816-3.727c0.12-1.502,0.67-2.888,2.607-2.967C305.851,74.151,308.022,75.53,308.09,76.791z"/>
		<path style="fill-rule:evenodd;clip-rule:evenodd;fill:#7B491E;" d="M273.75,84.884c-0.308,1.219-0.986,2.555-2.8,2.718
			c-1.673,0.149-3.649-1.804-3.376-3.44c0.262-1.565,1.027-3.032,2.858-3.199C271.971,80.822,273.754,82.859,273.75,84.884z"/>
		<path style="fill-rule:evenodd;clip-rule:evenodd;fill:#7B491E;" d="M79.011,72.45c-0.14,1.542-1.122,2.811-3.044,2.686
			c-2.343-0.153-2.912-0.519-2.721-3.777c0.083-1.43,0.104-2.773,1.953-2.854C76.794,68.436,79.024,70.604,79.011,72.45z"/>
		<path style="fill-rule:evenodd;clip-rule:evenodd;fill:#7B491E;" d="M89.43,35.957c-2.02-0.027-3.722-1.746-3.715-3.333
			c0.005-1.197,2.016-2.979,3.251-2.882c1.352,0.107,3.529,2.356,3.416,3.736C92.216,35.498,90.594,35.75,89.43,35.957z"/>
		<path style="fill-rule:evenodd;clip-rule:evenodd;fill:#7B491E;" d="M72.781,91.656c-0.007-1.835,0.791-3.046,2.735-3.05
			c2.242-0.006,2.432,2.013,2.787,3.461c0.383,1.563-1.447,3.719-2.721,3.69C73.793,95.718,72.786,94.24,72.781,91.656z"/>
		<path style="fill-rule:evenodd;clip-rule:evenodd;fill:#7B491E;" d="M267.879,26.382c1.555,0.02,4.033,2.037,3.932,3.327
			c-0.111,1.406-0.994,2.321-2.405,2.386c-2.257,0.104-4.729-1.466-4.743-2.853C264.646,27.546,265.981,26.358,267.879,26.382z"/>
		<path style="fill-rule:evenodd;clip-rule:evenodd;fill:#7B491E;" d="M199.736,37.858c1.153,0.168,2.173,0.979,2.231,2.662
			c0.06,1.709-1.896,4.018-3.446,3.824c-1.335-0.167-2.638-0.832-2.753-2.522C195.642,39.959,197.492,37.896,199.736,37.858z"/>
		<path style="fill-rule:evenodd;clip-rule:evenodd;fill:#7B491E;" d="M332.573,76.134c0.852,0.052,1.65,0.319,2.095,1.312
			c0.468,1.047-0.533,5.683-1.404,6.435c-0.404,0.349-0.85,0.525-1.292,0.339c-1.708-0.717-2.411-6.389-1.032-7.633
			C331.43,76.144,331.917,76.168,332.573,76.134z"/>
		<path style="fill-rule:evenodd;clip-rule:evenodd;fill:#7B491E;" d="M310.593,103.902c0,2.015-1.153,3.468-2.764,3.322
			c-1.825-0.165-3.178-1.07-3.422-3.006c-0.172-1.357,1.703-3.121,3.201-3.193C309.235,100.946,310.593,102.257,310.593,103.902z"/>
		<path style="fill-rule:evenodd;clip-rule:evenodd;fill:#7B491E;" d="M256.938,115.357c-0.859-0.056-1.492-0.95-1.364-2.456
			c0.134-1.571,0.539-3.148,2.229-3.578c1.271-0.322,4.435,2.274,4.458,3.335C262.289,114.006,259.872,115.436,256.938,115.357z"/>
		<path style="fill-rule:evenodd;clip-rule:evenodd;fill:#7B491E;" d="M281.411,28.415c-0.364,3.025-3.25,1.354-4.854,2.154
			c-1.175,0.585-1.823-1.016-2.141-1.973c-0.335-1.008,2.378-3.602,3.591-3.646C279.547,24.892,281.359,26.626,281.411,28.415z"/>
		<path style="fill-rule:evenodd;clip-rule:evenodd;fill:#7B491E;" d="M135.18,39.302c2.291-0.274,2.682,1.591,2.566,2.955
			c-0.12,1.407-0.408,3.356-2.772,3.282c-2.199-0.069-2.712-1.523-2.829-3.262C132.019,40.406,133.205,39.311,135.18,39.302z"/>
		<path style="fill-rule:evenodd;clip-rule:evenodd;fill:#7B491E;" d="M244.086,35.122c0.428,1.926-1.108,2.734-2.618,3.055
			c-1.588,0.336-3.008-1.708-3.155-3.671c-0.181-2.405,1.772-2.383,3.105-2.687C242.732,31.519,244.081,33.328,244.086,35.122z"/>
		<path style="fill-rule:evenodd;clip-rule:evenodd;fill:#7B491E;" d="M165.613,67.232c0,0.768,0.004,1.321,0,1.874
			c-0.008,0.93-0.652,1.471-1.374,1.72c-1.318,0.455-2.225-0.553-2.671-1.454c-0.825-1.667-1.36-3.564,0.072-5.218
			c0.764-0.882,1.979-0.645,2.867-0.259C166.099,64.587,165.517,66.168,165.613,67.232z"/>
		<path style="fill-rule:evenodd;clip-rule:evenodd;fill:#7B491E;" d="M136.907,122.057c-0.27,1.01,0.818,2.944-1.701,2.892
			c-1.452-0.03-3.607-2.387-3.541-4.034c0.071-1.775,1.097-2.643,2.877-2.671C137.281,118.2,136.902,120.16,136.907,122.057z"/>
		<path style="fill-rule:evenodd;clip-rule:evenodd;fill:#7B491E;" d="M106.09,83.313c-1.314-0.114-2.439-0.966-2.636-2.644
			c-0.15-1.284,2.227-3.515,3.519-3.579c1.976-0.098,2.323,1.451,2.458,2.749C109.625,81.69,108.014,83.347,106.09,83.313z"/>
		<path style="fill-rule:evenodd;clip-rule:evenodd;fill:#7B491E;" d="M312.493,112.622c0.054,1.956-1.658,3.656-3.114,3.725
			c-2.272,0.108-2.789-1.77-2.935-3.188c-0.134-1.309,0.801-2.613,2.668-2.596C310.957,110.581,312.376,110.931,312.493,112.622z"/>
		<path style="fill-rule:evenodd;clip-rule:evenodd;fill:#7B491E;" d="M165.645,39.743c-0.327-1.28,0.584-1.765,1.506-1.819
			c1.396-0.082,3.104-1.15,4.103,0.722c0.381,0.714,0.545,1.621,0.554,2.442c0.018,1.818-1.948,2.92-3.273,1.734
			C167.501,41.897,165.152,42.095,165.645,39.743z"/>
		<path style="fill-rule:evenodd;clip-rule:evenodd;fill:#7B491E;" d="M302.939,87.698c-0.007-1.781,1.745-3.343,3.469-3.426
			c1.87-0.091,2.387,1.279,2.697,2.649c0.192,0.849-3.215,3.765-4.095,3.538C303.508,90.071,303.148,88.764,302.939,87.698z"/>
		<path style="fill-rule:evenodd;clip-rule:evenodd;fill:#7B491E;" d="M307.499,92.396c2.487,0.013,1.972,2.378,2.387,3.629
			c0.343,1.037-0.763,2.466-2.354,2.588c-1.445,0.11-3.556-1.572-3.607-2.798C303.869,94.531,306.08,92.414,307.499,92.396z"/>
		<path style="fill-rule:evenodd;clip-rule:evenodd;fill:#7B491E;" d="M279.808,45.521c-2.852-0.006-4.291-1.404-4.161-3.806
			c0.073-1.349,0.938-1.769,1.889-1.377c0.999,0.412,1.909,0.825,3.023,0.989c1.171,0.173,2.168,0.957,1.805,2.501
			C282.024,45.271,281.044,45.66,279.808,45.521z"/>
		<path style="fill-rule:evenodd;clip-rule:evenodd;fill:#7B491E;" d="M224.459,107.206c-2.118,0.438-3.403-1.036-3.568-2.558
			c-0.154-1.417,1.399-2.49,3.015-2.646c1.49-0.146,3.471,1.469,3.411,2.771C227.237,106.533,226.416,107.588,224.459,107.206z"/>
		<path style="fill-rule:evenodd;clip-rule:evenodd;fill:#7B491E;" d="M219.208,127.943c-0.021,1.904-1.444,3.463-2.87,3.464
			c-2.188,0.001-2.47-1.718-2.821-3.207c-0.258-1.091,2.087-2.931,3.543-2.732C218.48,125.663,219.614,126.359,219.208,127.943z"/>
		<path style="fill-rule:evenodd;clip-rule:evenodd;fill:#7B491E;" d="M289.053,50.781c-0.179-1.551,0.374-2.808,1.61-3.666
			c0.818-0.568,1.656,0.022,2.411,0.37c0.882,0.406,1.134,1.492,0.667,1.985c-1.293,1.369-0.062,4.413-2.728,4.58
			C288.925,54.181,289.198,52.187,289.053,50.781z"/>
		<path style="fill-rule:evenodd;clip-rule:evenodd;fill:#7B491E;" d="M196.235,51.088c0.054,1.689-0.574,2.483-1.904,2.551
			c-1.748,0.089-3.255-2.056-3.397-4.316c-0.093-1.488,0.816-2.042,1.841-2.286C194.081,46.726,196.221,49.584,196.235,51.088z"/>
		<path style="fill-rule:evenodd;clip-rule:evenodd;fill:#7B491E;" d="M197.203,56.378c-0.147,2.006-2.015,4.702-3.088,4.423
			c-1.752-0.455-2.112-2.168-2.077-3.487c0.042-1.546,1.016-3.104,2.872-3.117C196.157,54.188,197.426,54.745,197.203,56.378z"/>
		<path style="fill-rule:evenodd;clip-rule:evenodd;fill:#7B491E;" d="M251.734,40.683c0.339,1.701-0.875,2.262-2.299,2.415
			c-1.66,0.179-3.398-1.453-3.438-3.011c-0.047-1.863,1.398-2.72,2.69-2.567C250.115,37.688,251.962,38.303,251.734,40.683z"/>
		<path style="fill-rule:evenodd;clip-rule:evenodd;fill:#7B491E;" d="M245.521,33.007c0.025-1.515,1.728-3.393,3.028-3.262
			c1.595,0.16,2.469,1.152,2.545,2.695c0.064,1.302-2.001,3.447-3.064,3.362C246.724,35.698,245.5,34.333,245.521,33.007z"/>
		<path style="fill-rule:evenodd;clip-rule:evenodd;fill:#7B491E;" d="M259.514,28.306c1.566-0.102,2.68,0.289,2.737,1.941
			c0.062,1.742-1.479,3.322-3.106,3.313c-1.831-0.009-2.541-1.393-2.523-2.748C256.644,29.152,257.671,27.963,259.514,28.306z"/>
		<path style="fill-rule:evenodd;clip-rule:evenodd;fill:#7B491E;" d="M143.61,107.198c-3.181-1.577-3.79-2.629-2.927-4.564
			c0.543-1.22,1.573-1.761,2.569-1.5c1.111,0.29,2.518,0.898,2.245,2.558c-0.165,0.997,0.963,2.778-1.43,2.638
			c-0.52-0.031-0.428,0.55-0.499,0.912L143.61,107.198z"/>
		<path style="fill-rule:evenodd;clip-rule:evenodd;fill:#7B491E;" d="M193.352,35.804c0.249,1.339,0.04,2.256-1.858,2.103
			c-2.088-0.169-3.562-1.224-3.359-2.974c0.197-1.705,1.571-2.227,3.027-2.306C193.356,32.509,193.458,34.064,193.352,35.804z"/>
		<path style="fill-rule:evenodd;clip-rule:evenodd;fill:#7B491E;" d="M188.584,42.402c-0.04-1.7,0.79-2.193,2.458-2.204
			c1.641-0.011,2.552,0.574,2.772,2.108c0.185,1.283-1.673,3.706-2.685,3.686C189.756,45.964,188.576,44.3,188.584,42.402z"/>
		<path style="fill-rule:evenodd;clip-rule:evenodd;fill:#7B491E;" d="M129.74,100.62c-0.321-1.654,0.846-2.517,2.231-2.365
			c1.414,0.153,2.967,1.021,2.967,2.768c0.001,1.747-1.561,2.666-2.963,2.769C130.142,103.926,129.641,102.4,129.74,100.62z"/>
		<path style="fill-rule:evenodd;clip-rule:evenodd;fill:#7B491E;" d="M257.419,96.778c-2.04-0.143-2.6-1.499-2.783-3.036
			c-0.225-1.879,1.205-2.152,2.575-2.269c1.184-0.1,3.401,1.783,3.087,2.679C259.824,95.503,258.841,96.515,257.419,96.778z"/>
		<path style="fill-rule:evenodd;clip-rule:evenodd;fill:#7B491E;" d="M161.813,53.654c-1.077-0.078-1.771-1.334-1.881-2.779
			c-0.098-1.29,0.567-2.564,1.92-2.879c1.375-0.319,3.222,1.637,3.178,3.089C164.989,52.458,163.813,53.655,161.813,53.654z"/>
		<path style="fill-rule:evenodd;clip-rule:evenodd;fill:#7B491E;" d="M174.709,46.774c-0.105-1.667,0.392-3.003,2.263-3.132
			c1.467-0.101,2.051,0.862,2.051,2.273c-0.001,1.739-1.579,4.145-2.718,3.865C174.796,49.412,174.679,48.081,174.709,46.774z"/>
		<path style="fill-rule:evenodd;clip-rule:evenodd;fill:#7B491E;" d="M257.787,122.591c-1.064,0.154-1.862-0.312-1.759-1.964
			c0.096-1.525,1.71-3.501,2.99-3.312c1.944,0.287,1.597,2.032,1.776,3.281C261.085,122.623,259.513,122.5,257.787,122.591z"/>
		<path style="fill-rule:evenodd;clip-rule:evenodd;fill:#7B491E;" d="M143.568,107.241c1.155-0.266,2.419-0.113,2.947,0.872
			c0.736,1.373,1.833,2.959,1.266,4.508c-0.628,1.714-1.94,0.73-2.698-0.094c-1.363-1.482-2.642-3.098-1.472-5.328
			C143.61,107.198,143.568,107.241,143.568,107.241z"/>
		<path style="fill-rule:evenodd;clip-rule:evenodd;fill:#7B491E;" d="M143.719,115.391c1.53-0.391,1.742,0.946,2.305,1.952
			c0.634,1.132,0.63,2.189-0.018,3.28c-0.04,0.067-0.074,0.21-0.091,0.207c-0.701-0.122-1.477-0.038-2.018-0.639
			c-1.01-1.12-2.655-1.894-2.18-3.846C141.966,115.328,142.783,115.338,143.719,115.391z"/>
		<path style="fill-rule:evenodd;clip-rule:evenodd;fill:#7B491E;" d="M262.297,102.812c0.143,1.553-1.187,1.953-2.543,1.996
			c-1.419,0.045-1.893-0.837-1.838-2.289c0.061-1.591,0.873-2.799,2.188-2.811C261.44,99.696,262.35,100.934,262.297,102.812z"/>
		<path style="fill-rule:evenodd;clip-rule:evenodd;fill:#7B491E;" d="M140.735,97.745c0.222,1.685-1.015,2.277-2.263,2.231
			c-1.115-0.04-2.201-0.63-2.079-2.267c0.111-1.491,0.536-2.431,2.187-2.432C140.224,95.278,140.812,96.19,140.735,97.745z"/>
		<path style="fill-rule:evenodd;clip-rule:evenodd;fill:#7B491E;" d="M196.196,96.07c0.069,0.516-0.355,0.979-0.568,0.934
			c-0.676-0.146-1.164-0.648-1.282-1.375c-0.064-0.393-0.015-0.745,0.541-0.824C195.944,94.654,195.728,95.716,196.196,96.07z"/>
		<path style="fill-rule:evenodd;clip-rule:evenodd;fill:none;" d="M355.338,37.386c-3.375,0.542-7.458-0.433-11.531,0.855
			c-3.275,1.036-6.608-0.787-9.941-1.12c-2.55-0.254-5.001-0.265-7.462,0.071c-1.197,0.164-1.965-0.463-2.66-0.979
			c-0.721-0.535,0.498-0.917,0.637-1.47c0.188-0.746,0.576-1.503,0.532-2.234c-0.205-3.363,1.685-5.827,3.333-8.441
			c0.399-0.635,1.051-0.936,1.396-0.785c1.658,0.729,3.054,0.275,4.494-0.556c0.622-0.359,1.401-0.287,2.084-0.058
			c2.488,0.834,4.961,0.977,7.559,0.393c3.645-0.819,7.332-0.423,11.04-0.32c2.396,0.066,4.683,0.231,6.988,0.763
			c1.482,0.342,1.676,1.301,2.06,2.711c0.95,3.496-0.797,6.313-1.621,9.367c-0.379,1.402-1.773,1.556-2.909,1.76
			C358.255,37.538,357.114,37.386,355.338,37.386z"/>
		<path style="fill-rule:evenodd;clip-rule:evenodd;fill:none;" d="M71.456,116.261c-4.218,3.021-3.941,8.058-5.761,12.091
			c-0.881,1.953-1.892,2.306-3.62,1.455c-2.578-1.269-5.049-1.408-7.914-0.488c-2.377,0.763-5.034,1.053-7.691,0.224
			c-2.886-0.901-5.078,1.362-7.502,2.353c-1.009,0.412-2.064,1.011-2.995,1.702c-0.862-0.555-0.636-1.453-0.447-1.95
			c0.798-2.104,0.326-3.93-0.762-5.764c-0.85-1.433,0.557-2.136,1.292-2.801c0.724-0.654,1.53-1.326,1.652-2.182
			c0.365-2.575,2.481-3,4.213-3.034c3.884-0.077,7.867-0.767,11.642,0.993c1.155,0.538,2.378-0.109,3.438-0.631
			C61.53,116.004,66.294,115.481,71.456,116.261z"/>
		<path style="fill-rule:evenodd;clip-rule:evenodd;fill:none;" d="M58.516,145.134c-0.237,0.146-0.399,0.327-0.569,0.334
			c-0.399,0.019-0.495-0.314-0.402-0.601c0.043-0.134,0.37-0.27,0.54-0.24C58.23,144.652,58.337,144.91,58.516,145.134z"/>
	</g>
</g>
</svg>
