<?xml version="1.0" encoding="iso-8859-1"?>
<!-- Generator: Adobe Illustrator 16.0.0, SVG Export Plug-In . SVG Version: 6.00 Build 0)  -->
<!DOCTYPE svg PUBLIC "-//W3C//DTD SVG 1.1//EN" "http://www.w3.org/Graphics/SVG/1.1/DTD/svg11.dtd">
<svg version="1.1" id="Layer_1" xmlns="http://www.w3.org/2000/svg" xmlns:xlink="http://www.w3.org/1999/xlink" x="0px" y="0px"
	 width="401.624px" height="271.98px" viewBox="0 0 401.624 271.98" style="enable-background:new 0 0 401.624 271.98;"
	 xml:space="preserve">
<g>
	<g>
		<path style="fill:none;" d="M200.812,271.431c-65.963,0-131.927-0.01-197.891,0.05c-1.976,0.002-2.422-0.445-2.421-2.421
			c0.057-88.713,0.057-177.426,0-266.139C0.499,0.945,0.945,0.5,2.921,0.5c131.928,0.055,263.855,0.055,395.782,0
			c1.977,0,2.423,0.445,2.421,2.421c-0.057,88.713-0.057,177.426,0,266.139c0.002,1.976-0.444,2.423-2.421,2.421
			C332.739,271.421,266.776,271.431,200.812,271.431z M59.039,200.229c1.413,0.243,2.167-0.229,2.134-1.787
			c-0.024-1.124-0.198-2.141,0.8-3.275c0.6-0.68,1.607-1.804,1.519-3.198c0.154,1.155,0.854,1.841,1.66,2.497
			c0.99,0.807,1.878,0.325,2.882-0.217c-0.613,1.28-1.921,2.715-0.875,3.648c1.725,1.54,2.225,3.715,3.595,5.367
			c0.771,0.931,1.83,2.1,2.961,0.784c0.888-1.033,1.368-3.082-0.187-3.611c-2.639-0.896-2.938-2.712-3.257-4.927
			c-0.112-0.782-0.335-1.472-0.203-2.316c0.245-1.567-1.109-2.944-2.11-2.777c-3.14,0.523-2.651-1.262-2.484-3.181
			c0.857,0.652,1.892,0.171,2.744,0.766c0.459,0.322,1.502,0.548,1.748,0.296c0.657-0.672,1.173-2.03,0.597-2.589
			c-1.624-1.574-1.16-4.039-2.812-5.623c-0.71-0.681-1.25-1.79-2.218-1.652c-0.685,0.097-1.591,0.944-1.678,1.834
			c-0.104,1.049,0.474,1.947,1.352,2.612c0.563,0.427,2.17,0.215,1.188,1.662c-0.678,1-1.413,1.958-2.809,0.624
			c-0.458-0.438-1.616-0.473-2.199,0.071c-0.512,0.477-0.316,1.278,0.057,1.933c0.436,0.762,0.21,1.53,0.145,2.628
			c-0.843-1.38-1.645-2.4-2.946-1.618c-1.426,0.857-0.524,1.752,0.153,2.735c0.383,0.557,0.128,1.522,0.261,2.286
			c0.411,2.361-1.292,4.726,0.028,7.078c-0.859,0.778-1.113-0.41-1.656-0.599c-0.809-0.281-1.319-0.542-2.007,0.235
			c-0.654,0.739-1.373,1.369-1.092,2.473c0.288,1.131,1.224,0.937,2.083,1.086C59.323,203.979,58.969,201.956,59.039,200.229z
			 M96.472,236.832c-0.036,2.512,1.215,4.008,3.169,4.58c2.179,0.637,3.711,0.182,4.463-2.114c0.394-1.202,1.228-2.191,1.405-3.547
			c0.114-0.877,0.66-2.077,1.755-2.196c0.907-0.1,1.611,0.554,2.136,1.478c0.966,1.699,2.102,3.312,3.277,4.879
			c0.727,0.971,1.676,2.088,3.046,1.321c1.632-0.913,4.106-1.206,4.352-3.445c0.194-1.769,0.735-3.73-0.698-5.52
			c-0.917-1.146,0.066-2.603,1.447-2.63c2.871-0.057,5.521,0.911,8.193,1.741c0.837,0.259,1.383,0.57,2.26-0.176
			c0.975-0.83,0.863-1.741,0.436-2.438c-1.161-1.891-2.027-4.245-4.021-5.25c-1.731-0.872-1.604-2.481-2.362-3.688
			c-1.39-2.21,1.286-2.286,2.118-3.332c0.48-0.604,0.91-1.252,1.384-1.833c0.95-1.164,1.347-2.286,0.339-3.479
			c-1.066-1.262-2.208-2.157-4.217-1.77c-2.939,0.568-5.559,1.961-8.408,2.731c-3.523,0.952-6.42,0.279-6.71-2.174
			c-0.217-1.833-1.29-3.336-1.327-5.206c-0.024-1.232-1.075-2.252-2.396-2.321c-1.262-0.065-2.611-0.524-3.537,1.284
			c-1.027,2.009-1.36,4.032-1.335,6.159c0.019,1.606-0.335,3.324-1.709,3.8c-4.272,1.481-7.819,4.046-11.345,6.717
			c-0.806,0.61-1.943,0.613-2.662,1.46c-0.917,1.08-2.036,2.103-1.454,3.69c0.886,2.415,4.063,3.724,6.611,2.922
			c1.945-0.612,3.878-1.531,5.964-1.257c0.913,0.12,2.731,0.354,1.65,1.977C96.606,231.732,98.153,234.873,96.472,236.832z
			 M155.364,19.521c-2.76-0.707-5.791,0.74-8.949,1.54c-1.604,0.407-2.824,1.206-2.955,2.747c-0.118,1.399,0.854,2.424,2.211,3.173
			c2.895,1.598,5.866,1.053,8.843,0.62c0.691-0.101,1.491-0.444,1.906,0.132c0.473,0.655-0.249,1.212-0.616,1.811
			c-1.923,3.135-4.647,5.598-6.941,8.417c-1.04,1.278-1.331,2.576,0.08,3.597c1.453,1.052,2.696,0.76,3.953-0.803
			c1.636-2.035,2.57-4.67,4.999-6.059c0.552-0.315,1.282-0.916,1.668-0.554c0.418,0.392,0.614,1.083,0.335,2.023
			c-0.605,2.033,1.173,4.324,3.015,4.435c2.723,0.165,3.646-0.744,3.642-3.594c-0.002-1.124-0.149-2.198-0.431-3.316
			c-0.363-1.441-0.304-3.819,1.143-3.984c3.715-0.422,7.6-0.508,11.25,0.171c1.64,0.305,2.775,0.361,4.142-0.333
			c1.345-0.683,2.96-1.568,2.732-3.057c-0.252-1.642-1.876-2.642-3.664-2.723c-1.521-0.069-2.66-0.712-3.499-1.895
			c-0.725-1.021-0.778-2.216,0.396-2.82c2.214-1.14,2.116-3.145,1.335-4.669c-1.004-1.957-2.776-0.75-4.194-0.046
			c-4.558,2.26-4.555,2.268-4.993-2.56c-0.023-0.261,0.027-0.545-0.057-0.783c-0.414-1.18-2.553-1.664-3.016-0.592
			c-0.847,1.961-2.978,3.109-3.497,5.021c-1.127,4.142-3.993,4.465-7.415,4.106C156.528,19.498,156.262,19.521,155.364,19.521z
			 M115.582,71.907c3.89-0.586,5.357-4.189,4.484-6.305c-0.768-1.861-2.455-3.34-3.727-4.995c-1.429-1.858-2.939-0.785-3.868,0.288
			c-1.314,1.518-2.372,3.343-3.177,5.194c-1.02,2.346,0.583,5.126,3.089,5.575c1.327,0.237,1.235,1.132,0.626,1.552
			c-0.877,0.605-0.604,1.624-1.392,2.334c-1.246,1.122-0.385,4.86,1.154,5.826c1.578,0.99,2.078,2.075,1.046,3.744
			c-0.397,0.642-0.689,1.375-0.893,2.105c-0.5,1.794,0.629,2.916,1.776,4.015c1.189,1.139,2.11,0.093,2.947-0.472
			c1.001-0.676,2.308-1.82,3.109-1.509c2.559,0.993,4.695-0.109,6.967-0.703c2.071-0.542,4.33-3.796,3.713-5.36
			c-1.052-2.669-3.34-2.526-5.642-2.571c-2.304-0.044-1.82,1.518-1.954,2.868c-0.124,1.247-1.108,1.931-2.131,2.391
			c-1.249,0.563-1.558-0.669-2.109-1.342c-0.319-0.389-0.432-0.998-0.809-1.28c-2.15-1.604-1.239-2.584,0.568-3.59
			c1.339-0.746,2.266-2.039,1.799-3.551c-0.457-1.48-1.103-3.206-3.323-2.846C116.707,73.457,116.083,72.785,115.582,71.907z
			 M59.295,30.096c0.412,0.385,0.792,0.747,1.179,1.101c1.406,1.287,4.084,1.384,5.399,0.227c1.736-1.528,1.476-3.428,0.306-4.864
			c-1.294-1.587-3.044-1.433-4.614,0.102c-0.398,0.389-1.101,0.991-1.885,0.065c-2.669-3.153-2.666-3.042-6.494-1.141
			c-2.894,1.437-5.633,3.925-9.288,1.868c-0.679-0.382-1.445,0.227-1.889,0.605c-2.378,2.028-2.1,3.97,0.083,6.883
			c1.064,1.421,4.215,1.414,5.521-0.122c1.433-1.684,3.034-2.259,5.228-2.188C55.249,32.71,57.627,32.17,59.295,30.096z
			 M30.679,83.761c-2.621,0.094-3.59,1.138-3.849,3.38c-0.242,2.101,2.14,3.321,1.936,4.432c-0.666,3.637,3.831,5.716,2.379,9.359
			c-0.266,0.668,0.476,1.111,0.894,1.491c1.188,1.081,1.279,2.424,1.196,3.878c-0.06,1.048,0.018,2.103-0.018,3.153
			c-0.057,1.699,1.319,2.456,2.384,3.169c1.171,0.784,1.809-0.625,2.495-1.31c1.291-1.288,1.345-5.479,0.117-6.948
			c-0.585-0.699-1.383-1.282-0.87-2.345c0.656-1.359,0.252-2.712-0.491-3.726c-0.879-1.199-1.075-2.11-0.558-3.563
			c0.507-1.424-0.112-2.902-1.935-2.974c-2.633-0.104-1.946-1.235-0.969-2.583c0.733-1.014,1.238-2.02,0.37-3.258
			C32.887,84.668,32.054,83.451,30.679,83.761z M134.937,177.526c-2.258,0.261-3.929,0.079-5.39-1.589
			c-0.553-0.63-2.04-1.722-3.14-0.503c-0.799,0.885-0.881,2.249,0.197,3.012c2.008,1.418,4.065,2.864,6.306,3.818
			c1.455,0.619,2.65-0.667,3.502-1.938c0.088-0.132,0.499-0.071,0.758-0.063c2.203,0.068,2.52-1.735,2.989-3.202
			c0.321-1.004-3.237-6.694-4.048-7.359c-2.193-1.798-4.665-2.027-7.28-1.55c-2.763,0.504-6.062-0.022-7.33,3.598
			c-0.091,0.261-0.508,0.505-0.814,0.574c-2.177,0.486-0.748,2.138-0.972,3.198c-0.274,1.303,0.971,2.009,1.904,2.524
			c1.005,0.556,1.597-0.268,2.201-1.094c0.658-0.901,1.503-1.493,1.881-2.768c0.775-2.618,2.772-3.196,5.229-1.961
			c0.787,0.396,1.771-0.242,2.491,0.47c0.254,0.252,1.272,0.112,0.521,0.906C132.406,175.22,133.913,176.216,134.937,177.526z
			 M317.807,90.32c-0.03-3.017-2.476-4.738-5.185-3.685c-0.703,0.273-1.452,0.507-2.196,0.573c-1.579,0.141-2.73-1.291-1.987-2.629
			c0.939-1.692,0-2.738-0.885-3.894c-0.691-0.905-1.596-1.503-2.695-0.932c-1.34,0.697-2.683,1.351-2.903,3.265
			c-0.49,4.243,0.578,6.377,4.855,7.524c1.464,0.393,1.41,0.903,1.54,1.98c0.493,4.06,3.051,4.791,6.143,3.414
			C316.797,94.909,317.911,92.906,317.807,90.32z M103.325,129.406c-0.067,2.722,0.811,4.208,2.983,5.231
			c1.746,0.823,2.946-0.159,3.606-1.025c1.092-1.431,0.92-3.106,0.147-5.042c-0.937-2.35-2.399-4.855-0.542-7.788
			c1.639-2.588,0.439-5.273-1.324-7.575c-0.73-0.953-1.658-1.284-2.749-0.68c-1.919,1.064-3.079,5.523-2.05,7.496
			c0.471,0.904,1.354,2.225,1.038,2.797C103.175,125.099,104.483,127.675,103.325,129.406z M310.378,203.501
			c-1.419,1.896-2.132,3.869-1.415,5.932c0.74,2.128,1.642,4.271,2.892,6.126c1.029,1.529,1.435,2.353-0.558,3.248
			c-0.949,0.427-1.474,1.516-1.334,2.598c0.125,0.968,1.027,0.928,1.838,1.057c1.319,0.21,1.935,0.992,1.198,2.332
			c-1.162,2.113-0.862,4.229,0.129,6.247c0.423,0.86,0.784,1.699,0.17,2.413c-0.788,0.918-1.202,1.79-0.347,2.752
			c0.528,0.595,1.243,0.968,2.188,0.474c1.159-0.606,2.233-0.967,2.197-2.719c-0.06-2.826-2.28-5.331-1.153-8.304
			c0.047-0.124-0.204-0.465-0.39-0.559c-1.127-0.57-0.726-1.262-0.111-1.857c0.925-0.896,0.619-2.013,0.46-2.972
			c-0.19-1.137-1.32-1.535-2.648-1.8c0.85-0.812,1.474-1.422,2.113-2.015c0.662-0.614,0.965-1.31,0.247-2.03
			c-1.54-1.549-2.474-3.285-2.508-5.562c-0.009-0.56-0.554-1.385-1.119-2.053C311.484,205.929,309.995,205.216,310.378,203.501z
			 M113.856,103.901c0.008-1.921-0.012-1.901-2.016-3.937c-1.103-1.121-3.387-1.944-1.186-4.081c0.175-0.17,0.165-0.782-0.002-1.012
			c-0.953-1.314-1.781-2.766-3.82-2.652c-1.663,0.093-2.592,1.017-2.942,2.42c-0.43,1.726-0.045,3.848,1.697,4.177
			c3.162,0.598,1.296,2.023,0.901,3.245c-0.208,0.641-0.624,1.211-0.858,1.846c-1.105,2.985,0.511,5.977,3.074,5.731
			C111.508,109.369,113.844,106.768,113.856,103.901z M333.393,222.841c-1.045-1.385-2.089-2.731-3.775-1.828
			c-1.759,0.943-1.798-1.351-2.984-1.264c0.332-0.538,0.658-1.079,0.998-1.611c0.231-0.359,0.498-0.695,0.722-1.059
			c0.468-0.76,0.855-1.463,0.022-2.317c-0.702-0.72-1.458-0.985-2.347-0.681c-1.098,0.377-1.307,2.044-1.137,2.297
			c1.541,2.305-0.098,4.174-0.582,6.197c-0.139,0.582-0.175,1.204-0.149,1.804c0.028,0.694,0.471,1.159,1.165,1.167
			c0.522,0.006,1.205,0.362,1.453-0.602c0.522-2.028,1.444-1.28,2.474-0.332c1.124,1.036,2.172,2.686,3.933,0.672
			c0.509-0.581,1.181,0.005,1.842,0.321c2.25,1.074,4.312,2.5,6.731,3.289c1.402,0.457,2.396,0.414,2.873-0.918
			c0.492-1.373-0.253-2.516-1.656-2.701c-2.691-0.355-4.204-1.848-5.33-4.226c-0.849-1.794-2.262-1.68-3.4,0.028
			C333.922,221.562,333.729,222.134,333.393,222.841z M334.152,163.896c-1.606-0.224-2.425,0.408-2.638,1.822
			c-0.305,2.014-1.329,2.36-2.985,1.288c-1.613-1.043-2.185-0.258-2.292,1.334c-0.081,1.198,0.107,2.07,1.435,2.681
			c0.964,0.443,2.575,1.325,2.089,2.493c-0.741,1.779,0.06,3.573-0.646,5.337c-0.355,0.888-0.033,2.547,1.328,2.909
			c1.204,0.32,1.729-0.787,2.229-1.76c0.248-0.482,0.462-0.918,0.415-1.445c-0.204-2.3,0.013-4.446,1.802-6.19
			c0.62-0.604,0.537-1.647,0.199-2.226c-0.669-1.146-2.25-2.108,0.094-3.104c-0.69-2.046,0.892-3.396,1.521-5.041
			c0.147-0.387,0.03-0.866,0.083-1.297c0.103-0.84-0.444-1.357-1.028-1.673c-0.83-0.45-1.092,0.507-1.532,0.899
			C332.915,161.09,333.083,162.418,334.152,163.896z M52.881,40.17c0.313,0.225,0.536,0.439,0.801,0.566
			c1.852,0.885,4.8,0.34,5.583-1.186c0.954-1.859-0.294-3.113-1.562-4.2c-1.259-1.08-3.784-0.415-5.259,1.708
			c-0.829,1.193-1.389,1.173-2.141,0.302c-1.27-1.472-3.165-1.469-4.236-0.663c-1.485,1.118-2.314,3.042-1.906,5.18
			c0.373,1.952,1.231,3.25,3.418,3.491C50.755,45.719,52.577,44.341,52.881,40.17z M40.602,107.652
			c-0.002,4.013,0.475,4.496,4.67,4.616c1.241,0.036,2.319,0.172,2.944,1.515c0.413,0.886,1.427,1.231,2.28,1.615
			c1.846,0.831,3.161-0.221,4.043-1.598c0.775-1.21,0.358-2.426-0.798-3.434c-1.557-1.356-2.839-2.987-5.204-3.116
			c-1.262-0.07-2.239-0.861-2.891-2.181c-0.566-1.147-1.867-2.12-3.185-1.567c-1.121,0.47-2.181,1.496-1.869,3.101
			C40.658,106.941,40.602,107.302,40.602,107.652z M196.977,253.648c-1.064,2.607-0.212,4.872,1.168,6.832
			c0.821,1.165,2.487,1.21,3.848,0.846c1.647-0.442,1.465-2.39,2.351-3.518c0.229-0.292-0.256-2.038-1.537-2.851
			c-1.562-0.989-3.513-2.257-3.314-4.51c0.21-2.373-0.497-3.452-3.191-3.783c-2.118-0.261-3.819,1.07-3.921,3.067
			C192.21,253.069,192.532,253.355,196.977,253.648z M37.333,44.526c-0.608,0.748-1.127,1.771-2.306,1.207
			c-1.605-0.768-1.993,0.447-2.349,1.429c-0.544,1.503,0.38,2.671,1.184,3.837c1.74,2.526,3.079,2.811,5.433,1.107
			c1.826-1.32,2.294-4.166,0.871-5.842c-0.872-1.027-1.383-1.9,0.322-2.467c0.826-0.275,0.926-0.949,0.923-1.535
			c-0.009-1.681-2.188-3.639-4.006-3.774c-1.691-0.126-2.745,0.891-3.055,2.265C33.846,42.987,35.407,43.978,37.333,44.526z
			 M145.476,109.291c0.034-0.956-1.612-5.66-2.223-6.352c-2.307-2.613-5.148-2.91-6.465-0.667c-0.616,1.049-0.042,2.237-0.344,3.324
			c-1.084,3.89,0.682,6.591,4.706,7.182C143.087,113.062,145.408,111.192,145.476,109.291z M321.253,227.162
			c2.71-2.118,0.089-4.568,1.093-6.691c0.121-0.256-0.643-0.747-1.242-0.685c-0.479,0.05-1.126-0.174-1.169,0.633
			c-0.024,0.462-0.086,0.994-0.509,1.131c-2.259,0.734-1.49,2.599-1.621,4.137c-0.175,2.034,0.63,3.162,2.786,3.132
			c0.129-0.002,0.326,0.357,0.385,0.578c0.669,2.51,3.545,4.135,2.711,7.322c-0.282,1.083,0.55,2.19,1.852,2.756
			c0.857,0.373,1.408,0.405,2.087-0.233c0.996-0.938,0.851-1.988,0.482-3.109c-0.319-0.976-0.542-2.055-1.583-2.517
			c-1.229-0.545-0.833-1.108-0.329-1.988c1.498-2.619,0.473-4.41-2.452-4.463C323.133,227.153,322.522,227.162,321.253,227.162z
			 M37.44,22.026c-0.004,3.249,1.194,4.914,3.506,4.874c4.189-0.074,6.454-1.502,6.506-4.102c0.065-3.211-1.956-5.963-4.34-5.911
			C39.533,16.965,37.444,18.858,37.44,22.026z M170.248,214.478c0.599,0,1.135,0.073,1.645-0.012c3.471-0.58,5.2-5.451,3.399-7.21
			c-1.233-1.205-2.745-2.134-4.186-3.106c-0.284-0.192-1.029-0.199-1.191,0.003c-1.688,2.115-3.304,4.288-4.92,6.459
			c-0.069,0.093-0.009,0.397,0.093,0.484C166.688,212.454,167.399,215.187,170.248,214.478z M195.546,238.698
			c0,0.614-0.129,1.264,0.027,1.836c0.311,1.133,0.972,2.766,1.922,2.667c1.89-0.195,3.991-0.619,4.927-2.84
			c0.789-1.874,1.598-3.762,2.632-5.505c0.648-1.094,1.456-2.261,0.36-3.13c-0.979-0.779-2.394-0.651-3.542,0.372
			c-1.012,0.902-2.097,2.127-3.297,2.329C195.889,234.879,195.393,236.455,195.546,238.698z M85.397,101.63
			c0.189-1.667,0-3.752-1.898-4.421c-1.573-0.556-3.719-0.137-5.079,0.858c-2.475,1.811-1.346,4.596-0.786,6.872
			c0.381,1.547,1.97,2.515,3.792,2.596C83.965,107.648,85.399,105.615,85.397,101.63z M141.26,78.414
			c-0.027-3.389-1.504-4.544-4.603-3.6c-2.828,0.862-5.055,4.51-4.323,7.271c0.388,1.464,1.417,2.564,2.983,2.589
			C138.698,84.731,141.288,81.911,141.26,78.414z M251.625,259.83c1.042,0.021,2.191,0.202,2.467-1.237
			c0.574-2.995,1.954-5.868,1.043-9.078c-0.476-1.673-1.193-3.097-3.036-2.767c-1.652,0.296-2.929,1.364-2.828,3.457
			c0.104,2.176,0.188,4.383-0.068,6.535C248.897,259.282,249.166,259.824,251.625,259.83z M148.413,81.174
			c0.899,0.22,1.869-0.063,2.582-0.654c1.128-0.935,1.623-2.489,3.35-2.933c0.524-0.135,1.043-1.624,0.443-2.561
			c-0.65-1.015-0.944-2.876-2.285-2.689c-1.898,0.265-3.988-0.303-5.72,0.943c-1.793,1.291-2.657,3.187-2.259,5.226
			C144.864,80.251,146.316,81.318,148.413,81.174z M200.812,73.235c-0.018-2.58-1.291-4.135-3.411-4.166
			c-3.425-0.05-5.567,1.788-5.545,4.757c0.02,2.684,2.131,5.297,4.238,5.244C198.786,79.004,200.833,76.471,200.812,73.235z
			 M386.315,71.705c-1.842-0.023-3.813,2.544-3.059,4.362c0.887,2.134,0.123,2.943-1.477,4.082c-1.46,1.039-1.615,2.731-0.81,4.486
			c0.581,1.266,1.413,2.244,2.746,1.734c1.583-0.606,2.167-2.121,2.068-3.815c-0.04-0.674,0.188-1.377-0.328-2.013
			c-0.308-0.377-0.246-0.894,0.368-0.903c1.259-0.019,1.653-1.171,2.479-1.749c0.856-0.6,2.011-0.985,1.198-2.447
			C388.651,73.913,388.034,72.208,386.315,71.705z M127.031,100.329c-0.025,2.304,1.289,3.538,3.745,3.514
			c2.896-0.027,5.603-2.151,5.616-4.407c0.005-0.879-4.409-5.569-5.276-5.605C129.313,93.755,127.063,97.333,127.031,100.329z
			 M225.736,47.453c2.176,0.468,2.964-1.269,3.356-4.914c0.249-2.303-2.18-5.144-4.046-5.064c-2.58,0.108-4.745,2.149-4.734,4.462
			C220.322,44.084,223.615,47.434,225.736,47.453z M210.413,218.724c2.71,0.872,3.585-1.476,4.783-3.501
			c1.282-2.167,0.527-4.345-1.896-4.306c-2.687,0.042-5.441,0.509-7.314,2.907c-1.626,2.082-0.703,4.479,1.931,4.884
			C208.6,218.812,209.313,218.724,210.413,218.724z M220.311,248.909c0-0.436,0.005-0.872,0-1.309
			c-0.034-2.716-1.102-3.28-3.707-2.295c-2.273,0.86-4.18,4.726-4.188,7.059c-0.007,2.135,1.227,3.144,3.366,2.847
			C218.967,254.768,220.311,252.898,220.311,248.909z M92.018,101.208c2.814,0.28,4.142-1.71,4.416-5.326
			c0.153-2.026-1.516-4.188-2.92-4.152c-2.454,0.062-5.463,3.063-5.481,5.464C88.015,99.562,89.659,101.217,92.018,101.208z
			 M246.162,197.197c2.598-0.655,4.955-1.074,7.175-1.873c1.446-0.521,1.428-4.604,0.021-4.784c-1.931-0.246-4.139-2.077-5.968,0.31
			c-0.378,0.493-0.893,0.502-1.415,0.471c-1.846-0.111-3.223,0.471-2.961,2.578C243.248,195.798,244.652,196.75,246.162,197.197z
			 M211.824,162.336c0.611,0,1.233,0.069,1.834-0.013c2.419-0.331,3.978-3.017,3.487-5.945c-0.271-1.619-2.359-2.812-4.25-2.451
			c-2.195,0.419-3.001,1.964-3.811,3.905C207.455,161.742,207.774,162.485,211.824,162.336z M273.055,61.667
			c0.165-1.215-0.274-2.077-1.41-2.173c-2.265-0.19-4.594-0.348-6.786,0.252c-1.397,0.382-2.21,1.726-2.366,3.236
			c-0.135,1.308,0.529,2.399,1.527,3.093c1.678,1.167,3.681,0.996,5.237,0.029C270.909,65.077,272.395,63.616,273.055,61.667z
			 M250.369,233.483c-3.006,0.018-5.366,2.726-5.288,5.41c0.064,2.22,2.348,3.874,6.216,3.438c3.514-0.397,1.348-3.859,2.011-5.803
			C253.914,234.752,251.744,233.673,250.369,233.483z M260.949,216.107c3.947-0.178,5.254-1.448,4.998-5.007
			c-0.06-0.826-0.354-2.549-1.612-2.188c-2.536,0.726-5.33-0.39-7.719,1.344c-0.992,0.72-1.443,1.841-0.829,2.348
			C257.432,213.961,257.904,217.33,260.949,216.107z M244.027,82.928c-0.008,2.766,1.628,4.488,4.348,4.577
			c2.068,0.068,3.539-1.911,3.558-4.786c0.016-2.471-1.374-4.608-3.055-4.697C246.822,77.914,244.033,80.734,244.027,82.928z
			 M64.918,46.926c2.392,0.28,4.395-2.675,4.625-5.048c0.141-1.453-2.259-3.383-3.931-3.384c-2.507-0.002-5.472,2.276-5.477,4.207
			C60.132,44.823,62.549,46.958,64.918,46.926z M367.695,71.206c1.766-0.128,3.136,0.159,4.47-0.542
			c1.27-0.667,0.922-1.73,0.974-2.729c0.043-0.809-0.333-1.488-1.137-1.463c-2.165,0.065-3.285-1.366-4.53-2.772
			c-0.949-1.072-2.316-1.026-2.969,0.136c-0.935,1.666-2.154,3.598-1.198,5.526C364.205,71.177,365.983,71.939,367.695,71.206z
			 M170.246,198.349c-0.194,1.838,0.27,4.011,2.25,4.393c3.107,0.601,6.232-1.709,6.173-3.874c-0.069-2.519-2.72-4.892-5.479-4.905
			C171.201,193.95,170.246,195.319,170.246,198.349z M126.604,97.613c-0.202-2.519-1.383-3.925-2.493-5.488
			c-1.776-2.501-3.166-1.407-4.673,0.08c-1.389,1.37-2.589,2.905-1.418,4.933c0.92,1.593,4.971,2.97,6.649,2.346
			C125.706,99.099,126.871,98.633,126.604,97.613z M213.792,220.836c-1.877,0.023-6.111,3.124-6.636,4.694
			c-0.632,1.89,0.892,3.004,1.83,4.008c0.632,0.675,2.493,0.804,3.267-0.439c0.899-1.445,2.153-2.406,3.448-3.378
			c1.193-0.895,1.354-2.092,0.876-3.353C216.078,221.049,214.987,220.607,213.792,220.836z M240.337,107.26
			c-0.002-2.098-1.649-4.447-3.136-4.469c-1.465-0.022-4.729,2.486-4.768,3.663c-0.091,2.883,2.104,5.885,4.256,5.818
			C238.621,112.211,240.339,109.85,240.337,107.26z M240.83,47.98c-2.818,0-4.213,1.05-4.181,2.979
			c0.033,1.996,2.958,5.958,4.421,5.975c0.347,0.004,0.722,0.034,1.035-0.081c1.708-0.627,2.992-3.696,2.413-6.087
			C244.041,48.796,242.902,47.507,240.83,47.98z M348.884,179.606c0.353-1.385-0.761-2.195-1.724-2.806
			c-0.915-0.581-1.378-1.297-1.393-2.217c-0.054-3.209-2.812-3.975-4.829-5.31c-0.636-0.421-1.861-0.33-2.525,0.704
			c-0.702,1.092-0.048,1.701,0.688,2.316c0.459,0.384,0.882,0.903,1.416,1.088c1.572,0.546,2.356,1.916,2.479,3.226
			c0.195,2.1,2.232,2.884,2.796,4.665c0.083,0.262,0.931,1.417,2.104,0.615C348.792,181.274,348.953,180.632,348.884,179.606z
			 M195.324,219.298c1.271-0.207,2.557-0.722,3.98-0.598c1.486,0.13,3.403,0.318,4.041-1.235c0.875-2.128-1.43-2.213-2.608-2.961
			c-0.145-0.093-0.341-0.137-0.441-0.261c-2.074-2.555-4.383-0.869-6.523-0.238c-1.39,0.41-2.324,1.716-1.835,3.198
			C192.395,218.595,193.772,219.151,195.324,219.298z M117.639,167.816c0.584-0.159,0.993-0.381,1.387-0.358
			c1.596,0.091,3.09-0.307,2.611-2.169c-0.408-1.585-1.674-2.258-3.143-0.604c-0.304,0.343-0.711-0.29-0.997-0.567
			c-0.205-0.199-0.565-0.454,0.002-0.716c2.18-1.007,0.643-2.156-0.064-2.961c-1.127-1.282-2.778-1.019-4.072-0.39
			c-0.828,0.402-1.073,1.851,0.05,2.225c2.056,0.684,2.922,1.67,2.042,3.797c-0.085,0.207-0.034,0.663,0.104,0.741
			c1.869,1.069,1.023,1.889,0.079,3.197c-0.781,1.081-0.282,2.646,1.156,3.246c0.667,0.278,2.067,0.708,2.219-0.381
			C119.246,171.202,119.704,169.232,117.639,167.816z M278.282,207.403c0.003-2.25-1.781-3.953-3.525-3.247
			c-1.492,0.604-2.979,1.3-4.316,2.186c-2.026,1.342-1.605,4.329-0.102,5.176c1.885,1.062,3.679,0.068,5.328-0.738
			C277,210.126,278.429,209.311,278.282,207.403z M236.122,45.084c0.005-3.658-0.85-4.098-3.953-2.878
			c-2.498,0.981-3.363,6.903-1.649,8.83c0.972,1.093,4.059,0.884,4.226-0.485C234.984,48.585,236.62,47.012,236.122,45.084z
			 M33.758,36.386c2.333-0.001,3.609-1.146,3.681-3.303c0.087-2.592-2.396-4.673-5.606-4.697c-1.416-0.011-2.309,1.488-2.298,3.856
			C29.55,35.32,30.638,36.388,33.758,36.386z M374.965,90.671c0.87-0.767,3.47,0.265,3.469-2.738
			c-0.002-2.232-1.054-3.685-2.992-4.566c-0.565-0.258-5.797,2.028-5.963,2.574c-0.104,0.343-0.343,0.588-0.271,1.103
			C369.537,89.422,371.178,90.646,374.965,90.671z M246.106,93.667c0.292-3.568-2.294-4.764-4.842-6.088
			c-0.735-0.382-1.274-0.948-2.044-0.249c-0.689,0.627-0.693,1.482-0.249,2.143c0.948,1.412,0.948,2.959,0.815,4.504
			c-0.156,1.83,0.217,3.061,2.383,3.022C244.07,96.966,246.083,95.302,246.106,93.667z M227.163,73.356
			c-0.015,2.763,0.803,3.643,3.353,3.603c1.035-0.017,4.521-2.803,4.551-3.637c0.078-2.229-2.23-4.812-4.278-4.789
			C228.418,68.561,227.179,70.208,227.163,73.356z M319.917,93.315c0,0.35-0.113,0.752,0.02,1.042
			c0.719,1.573,1.077,3.52,3.339,3.682c2.005,0.144,3.093-1.274,3.39-2.81c0.352-1.819-0.29-3.733-1.132-5.419
			c-0.341-0.681-1.062-1.062-2.086-0.898C320.996,89.308,319.913,90.533,319.917,93.315z M29.535,118.334
			c0-2.496-1.714-4.458-3.912-4.478c-2.187-0.02-3.521,1.438-3.429,4.105c0.063,1.838,0.12,4.046,2.631,4.274
			C27.384,122.469,29.535,120.508,29.535,118.334z M232.432,98.58c0.011-1.436-0.126-1.791-1.53-3.962
			c-2.376-3.676-2.518-3.694-5.188-0.656c-1.013,1.153-0.838,4.751,0.283,5.805c0.635,0.598,5.224,0.81,5.938,0.402
			C232.672,99.747,232.328,99.123,232.432,98.58z M260.87,70.299c0.101-1.741-0.622-2.778-1.658-2.723
			c-1.816,0.095-3.79,0.243-5.16,1.767c-1.373,1.527-1.256,3.929-0.025,5.534c1.26,1.643,2.714,1.241,3.956,0.358
			C259.781,73.955,260.604,71.976,260.87,70.299z M351.536,114.647c-0.001,2.962,2,4.641,4.268,3.348
			c1.707-0.974,2.88-2.682,3.309-4.66c0.343-1.582-2.072-4.5-3.307-4.209C354.757,109.373,351.537,113.539,351.536,114.647z
			 M198.904,197.649c2.08,0.031,4.455-1.56,4.541-3.042c0.087-1.507-3.546-4.545-5.54-4.257c-1.583,0.229-3.517,0.515-3.442,3.014
			C194.539,195.92,196.183,197.607,198.904,197.649z M221.375,49.034c-2.307-0.003-5.229,2.869-5.164,5.078
			c0.05,1.704,1.684,3.224,3.291,2.78c1.898-0.523,3.673-1.351,4.574-3.386C225.182,51.011,224.039,49.038,221.375,49.034z
			 M312.185,75.898c1.831,0.225,3.239-0.785,4.646-1.479c1.538-0.759,1.326-3.246-0.167-4.315c-3.524-2.523-3.521-2.522-5.929,0.997
			c-0.146,0.213-0.35,0.396-0.552,0.561c-1.062,0.863-1.08,2.014-0.579,3.072C310.093,75.767,311.108,76.14,312.185,75.898z
			 M47.448,98.356c0.208-2.861-1.967-3.213-3.713-4.011c-1.124-0.512-2.378-1.263-3.42-0.335c-1.052,0.937-0.88,2.26-0.047,3.452
			c0.226,0.323,0.306,0.799,0.32,1.21c0.086,2.397,1.751,3.049,3.66,3.015C46.364,101.647,47.828,100.659,47.448,98.356z
			 M251.234,56.939c2.391-0.028,3.854-1.225,3.859-3.156c0.005-1.75-2.769-4.723-4.43-4.748c-1.3-0.02-3.45,2.724-3.475,4.433
			C247.163,55.318,249.081,56.964,251.234,56.939z M202.393,85.192c0.017-2.401-1.955-4.281-4.569-3.936
			c-1.639,0.215-3.755,0.373-3.843,2.852c-0.069,1.937,3.098,4.534,5.662,4.394C201.485,88.403,202.546,87.187,202.393,85.192z
			 M360.458,84.322c0.043,0.69-0.026,1.59,0.175,2.425c0.608,2.523,1.91,3.244,4.249,2.481c1.976-0.644,2.794-2.438,1.859-4.464
			c-0.347-0.751-1.276-1.223-1.677-1.964c-0.784-1.454-1.91-2.953-3.464-2.521C359.945,80.741,360.616,82.748,360.458,84.322z
			 M123.328,155.416c0.103-1.9-0.222-3.107-2.486-2.105c-0.57,0.253-1.39,0.268-1.927-0.408c-0.42-0.529-1.034-0.829-1.61-0.46
			c-1.355,0.867-2.78,1.542-4.272,2.143c-1.14,0.46-0.993,1.763-0.655,2.536c0.461,1.057,1.23,2.105,2.715,2.07
			c0.947-0.021,1.633-0.137,1.948-1.261c0.505-1.804,2.139-2.446,3.43-1.257c0.819,0.754,1.489,0.529,2.263,0.372
			C123.829,156.825,123.124,155.897,123.328,155.416z M259.979,55.884c1.953,0.076,3.981-1.942,4.071-4.049
			c0.066-1.572-2.805-3.888-4.776-3.854c-1.412,0.026-3.089,2.251-3.124,4.146C256.119,53.869,258.099,55.812,259.979,55.884z
			 M232.959,179.186c0.205-1.806-0.552-3.215-2.146-3.892c-1.426-0.605-2.477,0.575-3.081,1.6c-0.882,1.495-1.812,3.074-1.626,4.967
			c0.13,1.322,0.863,2.195,2.163,2.047C231,183.598,233.033,182.712,232.959,179.186z M210.825,71.203
			c0.012-2.996-1.755-4.841-4.721-4.713c-1.912,0.082-2.737,1.52-2.946,3.192c-0.237,1.895,1.979,4.428,3.717,4.477
			C209.546,74.236,210.818,73.285,210.825,71.203z M25.506,36.913c-2.839,0.007-3.266,0.63-3.386,3.841
			c-0.09,2.384,1.258,3.323,3.212,3.488c2.279,0.192,4.216-1.898,4.203-4.189C29.521,37.88,28.271,36.906,25.506,36.913z
			 M50.659,177.587c-0.087,1.294-0.176,2.331,0.708,2.526c2,0.442,2.72,1.628,3.117,3.539c0.235,1.135,1.565,1.441,2.668,0.77
			c1.079-0.656,1.303-1.763,0.451-2.645c-2.312-2.394-3.248-5.5-4.618-8.386c-0.414-0.871-0.806-1.925-2.021-1.498
			c-1.162,0.407-1.241,1.849-0.784,2.435C51.176,175.605,50.814,176.801,50.659,177.587z M216.095,62.316
			c0.014-1.687-1.379-4.618-2.451-4.766c-1.992-0.274-2.176,1.521-2.863,2.741c-0.249,0.444-0.724,0.754-1.027,1.175
			c-1.251,1.73-0.535,4.552,1.235,4.948C212.967,66.856,216.079,64.359,216.095,62.316z M184.211,219.784
			c2.477,0.001,4.31-0.964,4.368-2.3c0.056-1.271-4.254-5.381-5.582-4.966c-1.706,0.534-2.744,2-2.729,3.928
			C180.288,218.98,181.265,219.783,184.211,219.784z M212.404,191.164c0.107-1.336-0.65-2.557-1.773-2.345
			c-1.364,0.257-2.781,0.085-4.051,0.485c-1.745,0.549-1.93,2.486-2.515,3.892c-0.387,0.929,0.898,1.703,1.628,2.14
			C207.879,196.644,212.356,193.781,212.404,191.164z M340.996,116.625c-0.029,2.291,1.77,4.203,4.142,4.027
			c1.54-0.113,3.72,0.256,3.753-2.38c0.021-1.692-2.395-4.712-3.69-4.333C343.626,114.399,340.703,113.154,340.996,116.625z
			 M340.996,52.017c0.017,1.686,0.933,3.003,2.472,3.477c1.445,0.444,2.138-0.705,2.817-1.557c0.663-0.83,1.179-1.84,1.518-2.853
			c0.573-1.714-0.994-4.249-2.436-4.148C343.672,47.055,340.978,50.186,340.996,52.017z M208.942,91.722
			c1.08-0.212,2.891,0.698,2.941-1.679c0.039-1.824,0.088-3.547-2.499-3.651c-0.683-0.027-1.353-0.642-2.009-1.021
			c-1.632-0.943-3.243-0.092-3.401,1.81C203.734,90.081,205.465,91.706,208.942,91.722z M213.987,169.516
			c0.028-1.425-2.376-3.924-3.852-4.002c-1.366-0.072-4.084,2.881-4.019,4.582c0.064,1.685,1.117,2.684,2.806,2.767
			C211.478,172.987,213.951,171.297,213.987,169.516z M334.443,58.033c1.996-0.353,3.278-1.625,3.886-3.473
			c0.798-2.427-0.136-4.475-2.539-5.109c-2.036-0.538-2.045,1.305-2.397,2.645c-0.097,0.37-0.624,0.605-0.861,0.963
			c-0.787,1.189-0.585,2.34-0.055,3.629C332.887,57.689,333.406,58.079,334.443,58.033z M237.758,198.177
			c3.964,0.003,5.313-2.285,3.526-6.044c-0.328-0.69-0.778-0.952-1.654-0.467c-1.389,0.769-3.005,1.142-4.355,1.96
			c-0.979,0.593-2.179,1.42-1.744,2.907c0.363,1.242,1.517,1.512,2.652,1.634C236.703,198.223,237.233,198.176,237.758,198.177z
			 M222.419,90.577c-0.018-2.695-0.832-3.614-3.19-3.598c-2.032,0.014-3.079,1.435-3.142,4.153
			c-0.047,2.011,0.836,3.385,2.809,3.702C220.634,95.113,222.434,92.8,222.419,90.577z M55.348,19.668
			c-0.589-1.548-0.874-3.476-2.919-3.787c-1.773-0.269-4.567,3.115-4.385,5.401c0.106,1.339,1.112,2.425,2.58,2.401
			C52.739,23.648,55.389,21.28,55.348,19.668z M55.357,50.8c-0.05-1.763-2.792-4.165-4.778-3.825
			c-3.725,0.636-0.935,3.45-1.484,5.181c-0.572,1.8,0.937,2.507,2.353,2.617C53.397,54.923,55.412,52.717,55.357,50.8z
			 M223.58,232.432c-2.716,0.016-3.813,1.139-3.804,3.583c0.009,2.111,1.056,3.204,3.127,3.258c2.513,0.065,3.656-1.214,3.758-3.752
			C226.759,233.106,225.692,232.16,223.58,232.432z M53.747,95.977c1.667-0.099,2.932-0.641,4.086-1.301
			c0.626-0.358,1.311-1.093,0.823-2.055c-0.447-0.879-0.573-2.394-1.651-2.354c-1.914,0.07-3.68-0.995-5.579-0.508
			c-0.16,0.041-0.208,0.425-0.359,0.607c-1.141,1.373-0.145,2.705,0.335,3.833C51.775,95.079,52.616,96.177,53.747,95.977z
			 M15.488,96.992c-1.274-0.103-2.105,0.619-2.585,1.642c-0.886,1.89,0.415,4.515,2.683,5.053c1.508,0.357,3.562,1.717,4.35-1.129
			C20.479,100.597,17.562,96.948,15.488,96.992z M243.884,225.055c-3.49-0.007-4.39,1.139-3.289,3.736
			c0.379,0.892,1.134,1.382,1.806,1.649c1.686,0.672,3.515,0.907,5.144-0.239c1.51-1.064,0.585-2.521,0.074-3.499
			C246.87,225.271,245.349,224.733,243.884,225.055z M360.516,64.759c-0.197-1.88-1.47-3.14-2.686-4.459
			c-0.805-0.873-1.487-0.729-2.507-0.271c-1.178,0.53-1.439,1.428-1.059,2.277c0.423,0.942,0.46,1.836,0.42,2.77
			c-0.101,2.367,1.903,2.723,3.301,2.764C359.47,67.882,360.83,66.789,360.516,64.759z M210.272,178.151
			c-2.734-0.012-4.346,1.132-4.138,3.157c0.17,1.651,0.805,3.172,2.982,3.182c2.812,0.012,4.251-1.186,4.339-3.801
			C213.535,178.338,212.004,178.033,210.272,178.151z M375.78,70.849c-0.017,2.378,1.539,4.507,3.159,4.533
			c1.789,0.029,3.132-1.624,3.163-3.894c0.024-1.809-1.772-4.058-3.425-3.825C376.95,67.906,375.292,68.695,375.78,70.849z
			 M235.069,190.228c0.023-1.836-2.648-5.319-4.19-5.195c-1.92,0.154-2.383,1.842-2.602,3.275c-0.319,2.093,1.754,4.051,4.025,4.06
			C233.696,192.373,235.201,192.405,235.069,190.228z M21.631,20.226c-0.112,1.814,0.392,3.32,2.445,3.464
			c1.921,0.135,4.391-2.503,4.383-4.566c-0.008-2.013-1.616-2.489-3.143-2.72C24.056,16.214,21.646,18.875,21.631,20.226z
			 M230.434,168.665c1.923-0.042,3.786-2.074,3.528-4.221c-0.216-1.792-1.271-3.111-3.318-3.152c-2.006-0.04-3.057,1.793-2.956,5.08
			C227.744,168.178,228.806,168.755,230.434,168.665z M346.792,104.501c0.188-1.777-0.814-2.868-2.338-3.231
			c-1.443-0.343-4.24,2.503-3.855,4.123c0.339,1.429,0.01,3.796,2.657,3.71C345.138,109.043,346.828,106.811,346.792,104.501z
			 M185.612,198.172c2.02,0.185,3.147-0.544,3.099-2.76c-0.049-2.249-1.481-4.596-3.046-4.406c-1.596,0.191-3.202,0.677-3.301,2.808
			C182.27,195.836,183.96,198.138,185.612,198.172z M320.965,68.583c-0.437,2.247,1.772,2.867,2.997,2.792
			c1.393-0.084,3.916,0.15,3.874-2.667c-0.025-1.672-1.687-3.825-3.125-3.862C323.046,64.804,321.012,66.738,320.965,68.583z
			 M255.635,191.82c-0.053,2.281,0.161,2.849,1.375,4.316c1.221,1.476,2.669,1.264,3.882-0.282c1.265-1.611-0.3-2.66-0.448-3.974
			c-0.199-1.771-0.827-2.893-2.688-2.624C256.029,189.506,255.742,190.984,255.635,191.82z M318.37,158.956
			c-0.072,2.978,1.657,5.057,3.444,7.118c0.4,0.462,0.873,0.574,1.396,0.412c0.551-0.171,0.385-0.702,0.386-1.097
			c0.008-2.012,1.59-4.485-1.662-5.562c-0.559-0.186-0.377-0.894-0.449-1.4c-0.15-1.055-0.82-1.924-1.828-1.811
			C318.447,156.752,318.384,157.962,318.37,158.956z M269.847,194.733c0.157-1.98-0.853-3.341-2.61-3.839
			c-1.273-0.361-3.228,2.132-3.184,3.732c0.043,1.605,2.492,4.277,3.816,3.849C269.512,197.943,269.951,196.389,269.847,194.733z
			 M359.17,96.435c0.896,0.061,1.946,0.236,2.266-0.812c0.297-0.974,0.354-2.064-0.648-2.848c-0.409-0.32-0.77-0.712-1.112-1.106
			c-1.048-1.205-1.495-4.033-3.178-3.287c-1.777,0.788-0.777,3.516-0.634,5.313C355.994,95.313,357.015,96.829,359.17,96.435z
			 M272.556,55.881c1.584,0.025,3.227,0.022,3.586-1.993c0.235-1.323-2.968-4.376-4.56-4.254c-1.705,0.13-2.359,1.2-2.312,3.006
			C269.332,54.944,270.228,56.05,272.556,55.881z M27.386,112.301c2.331,0,3.808-0.707,3.659-2.735
			c-0.117-1.598-0.532-3.808-2.553-3.715c-1.358,0.062-3.937-0.121-3.712,2.76C24.935,110.604,25.607,112.078,27.386,112.301z
			 M60.623,12.224c-0.695-1.119-0.851-2.948-2.811-3.223c-1.018-0.143-3.444,2.616-3.499,3.854c-0.06,1.361,1.833,3.482,3.097,3.472
			C58.803,16.316,60.607,14.142,60.623,12.224z M31.52,27.441c2.275,0.039,3.679-1.179,3.799-3.296
			c0.092-1.619-1.417-3.604-2.692-3.541c-1.352,0.067-3.554,2.673-3.617,4.287C28.941,26.64,29.84,27.431,31.52,27.441z
			 M114.383,180.152c-0.464-0.196-0.734-0.426-0.932-0.375c-0.69,0.18-1.413-0.955-2.04,0.032c-0.592,0.933,0.032,1.815,0.561,2.325
			c0.705,0.68,1.423,0.081,1.855-0.675c0.136-0.239-0.004-0.599,0.561-0.236c2.002,1.282,1.98,1.139,4.033-0.851
			c1.112-1.077,0.925-2.242,0.405-3.191c-0.492-0.899-1.311-1.996-2.712-1.643c-1.431,0.361-1.864,1.407-1.739,2.789
			C114.422,178.849,114.383,179.377,114.383,180.152z M335.239,62.219c0.208-1.512-0.744-2.754-2.39-3.104
			c-1.843-0.392-3.37,1.23-3.458,3.175c-0.09,2.016,0.726,3.438,2.778,3.558C334.285,65.972,335.192,64.584,335.239,62.219z
			 M227.77,152.988c-2.791-0.031-3.303,0.616-3.263,3.976c0.015,1.181,0.177,2.442,1.162,2.941c0.835,0.424,1.593-0.612,2.281-1.22
			c0.438-0.386,0.949-0.713,1.477-0.966c1.252-0.6,1.773-1.573,1.355-2.868C230.352,153.516,228.995,153.404,227.77,152.988z
			 M362.603,102.06c0.027-1.418-2.141-3.659-3.537-3.446c-1.912,0.292-2.637,1.976-2.68,3.507c-0.037,1.33,0.152,3.215,2.293,3.289
			C360.459,105.471,362.572,103.609,362.603,102.06z M107.462,168.189c-0.399,0.519-1.145,1.147-1.43,1.943
			c-0.342,0.954,0.366,2.313,1.005,2.388c1.503,0.176,2.189,1.342,3.272,1.982c0.831,0.492,1.49,0.741,2.283-0.075
			c0.74-0.761,1.625-1.46,1.211-2.639c-0.284-0.809-0.882-1.623-1.874-1.511c-1.317,0.15-2.102-0.525-2.87-1.393
			C108.722,168.505,108.388,168.062,107.462,168.189z M110.692,178.862c0.037-1.723-4.065-4.881-5.515-4.3
			c-0.305,0.123-0.588,0.408-0.779,0.688c-1.947,2.853,1.509,3.556,2.274,5.315c0.56,1.288,2.167,1.087,3.362,0.095
			C110.662,180.142,110.755,179.505,110.692,178.862z M352.052,57.918c0.048-1.672,0.218-3.386-2.022-3.594
			c-1.851-0.172-3.289,1.382-3.224,3.449c0.053,1.659,0.107,3.338,2.492,3.4C351.731,61.237,352.258,59.869,352.052,57.918z
			 M21.63,99.636c0.003,1.528,2.237,4.181,3.593,4.196c2.106,0.023,2.158-1.62,2.357-3.067c0.153-1.116-2.708-4.49-3.761-4.197
			C22.476,96.942,21.434,97.954,21.63,99.636z M271.964,196.766c-0.255,1.862,0.774,3.412,2.332,3.359
			c1.476-0.05,2.905-1.368,2.937-3.343c0.032-2.01-1.126-4.116-2.622-4.156C272.753,192.576,271.863,194.719,271.964,196.766z
			 M243.429,258.783c0.692,0,1.128-0.008,1.563,0.001c0.868,0.017,1.829,0.128,2.145-0.952c0.306-1.049-0.501-1.71-1.238-2.054
			c-1.595-0.744-3.269-1.34-4.95-1.871c-0.973-0.308-1.641,0.266-2.203,1.094c-0.608,0.896-0.013,1.299,0.464,1.897
			C240.375,258.364,241.749,259.212,243.429,258.783z M312.364,248.175c0.243-1.193,0.927-2.132,1.412-3.131
			c0.758-1.559,2.068-3.104,0.913-5.192c-0.628-1.137-1.403-1.099-2.349-1.092c-0.67,0.005-1.406-0.185-1.41,0.956
			C310.921,242.57,309.212,245.67,312.364,248.175z M327.699,183.985c0.549-3.398-2.002-2.856-3.196-3.043
			c-1.289-0.202-2.457,1.02-2.479,2.686c-0.022,1.633,1.829,4.138,3.044,3.992C327.625,187.314,326.96,184.842,327.699,183.985z
			 M225.58,149.143c0.369-1.986-1.166-2.571-2.718-2.89c-1.281-0.263-3.695,2.297-3.512,3.826c0.134,1.119,0.548,2.32,2.256,2.279
			C224.603,152.286,225.612,151.603,225.58,149.143z M39.081,14.817c1.708-0.279,3.444-0.608,3.608-2.817
			c0.142-1.92-1.017-2.487-2.775-2.519c-1.924-0.035-3.32,0.719-3.454,2.618C36.354,13.601,37.026,15.01,39.081,14.817z
			 M336.78,153.682c-0.001,2.136,1.652,4.483,3.012,4.232c1.378-0.253,2.149-1.393,2.223-2.763c0.09-1.689-1.976-4.341-3.317-4.206
			C337.007,151.115,336.5,152.316,336.78,153.682z M300.426,233.228c-0.243,0.859,0.373,1.691,0.479,2.601
			c0.109,0.926,0.154,1.84,1.31,1.837c1.086-0.002,1.951-0.661,2.222-1.701c0.264-1.013,0.384-2.108,0.313-3.149
			c-0.094-1.378-0.695-2.586-2.352-2.461C300.775,230.476,300.306,231.626,300.426,233.228z M70.641,175.45
			c-0.022-1.843-1.745-4.19-3.126-4.132c-1.847,0.08-2.44,1.544-2.602,2.981c-0.154,1.372,2.652,3.331,4.477,3.267
			C70.787,177.519,70.636,176.403,70.641,175.45z M79.061,183.25c0.298-1.386-1.123-1.95-1.547-1.309
			c-1.321,2.001-3.124,1.39-4.832,1.472c-0.797,0.038-1.454,0.331-1.458,1.147c-0.004,0.677-0.263,1.322,0.462,2.089
			c1.57,1.659,3.109,0.211,4.066-0.25C76.966,185.815,79.545,185.947,79.061,183.25z M46.385,191.976
			c0.249-1.6-0.397-2.339-2.162-2.257c-1.986,0.093-3.526,0.986-3.516,2.914c0.01,1.883,2.017,2.721,3.499,2.76
			C46.035,195.439,46.533,193.754,46.385,191.976z M351.535,84.834c0.016,1.954,1.584,2.762,4.618,2.61
			c1.035-0.051,1.175-0.817,1.188-1.682c0.027-1.768-1.861-4.227-3.269-4.026C352.176,82.007,351.808,83.57,351.535,84.834z
			 M322.55,152.148c0-0.525-0.045-1.056,0.009-1.575c0.117-1.138-0.35-1.79-1.459-2.089c-1.098-0.295-1.724,0.368-2.303,1.059
			c-0.806,0.96-0.112,4.812,0.921,5.387C321.912,156.151,322.549,155.525,322.55,152.148z M248.264,216.093
			c0.734,0.036,1.724,0.236,1.585-1.354c-0.139-1.598-2.538-3.884-4.229-3.924c-1.566-0.037-1.887,1.238-2.022,2.214
			C243.406,214.405,246.073,216.115,248.264,216.093z M333.079,91.09c0.021,1.745,0.031,3.761,1.843,3.647
			c1.924-0.12,2.7-2.018,2.948-3.999c0.263-2.097-1.476-2.06-2.436-2.066C334.028,88.663,332.717,89.442,333.079,91.09z
			 M342.537,212.309c0.466-1.727-0.598-2.912-1.944-3.449c-0.682-0.271-1.788,0.464-2.31,1.584c-0.531,1.145,0.543,1.66,0.565,2.487
			c0.04,1.496,0.556,2.789,2.158,2.537C342.515,215.229,342.775,213.774,342.537,212.309z M312.006,169.856
			c-0.004,0-0.007,0-0.011,0c0-0.7,0.209-1.494-0.053-2.076c-0.334-0.747-0.881-1.607-1.815-1.706
			c-0.895-0.096-1.803,0.959-1.67,1.332c0.495,1.392-0.34,2.618-0.159,3.937c0.168,1.222,0.813,2.028,1.953,1.998
			c0.994-0.025,1.682-0.81,1.75-1.91C312.033,170.907,312.006,170.381,312.006,169.856z M304.228,218.658
			c-1.775,0.976-2.366,2.256-2.296,4.13c0.054,1.405,0.653,2.421,1.791,2.128c1.349-0.346,3.105-0.872,3.018-2.956
			C306.667,220.205,305.067,219.734,304.228,218.658z M331.521,212.951c0,0.56-0.088,1.018,0.016,1.427
			c0.344,1.346,1.149,2.405,2.628,2.172c1.219-0.191,2.1-1.097,2.061-2.489c-0.029-1.032-2.602-3.965-3.252-3.685
			C331.863,210.856,331.235,211.763,331.521,212.951z M306.167,230.165c0.272,1.017-0.575,2.803,1.598,2.764
			c1.717-0.031,2.859-1.503,2.898-2.773c0.044-1.414-1.117-2.906-2.898-2.954C305.627,227.143,306.387,228.91,306.167,230.165z
			 M316.059,174.501c1.637-0.522,1.744-2.106,1.954-3.294c0.178-1.002-0.156-2.393-1.221-2.983
			c-0.604-0.335-1.521-0.647-2.326-0.065c-2.448,1.771,1.234,3.217,0.25,5.035C314.285,173.991,315.689,173.877,316.059,174.501z
			 M343.214,184.563c-0.377,2.412,0.543,3.803,2.188,4.026c1.761,0.238,2.27-2.009,2.236-2.874
			c-0.056-1.437-1.396-2.614-3.127-2.823C342.441,182.643,343.293,184.21,343.214,184.563z M232.487,247.411
			c0.558,0.951,0.645,2.854,2.58,2.886c1.814,0.03,2.061-1.534,2.087-2.936c0.035-1.812-1.122-2.284-2.739-2.305
			C232.967,245.038,232.267,245.563,232.487,247.411z M331.509,251.138c0,0.318-0.03,0.499,0.006,0.665
			c0.241,1.141-0.755,3.019,1.16,3.191c2.073,0.188,1.284-1.74,1.481-2.878c0.029-0.166,0.057-0.338,0.123-0.49
			c0.541-1.233,0.764-2.48-0.151-3.613c-0.429-0.53-1.232-0.457-1.71-0.224C330.841,248.559,331.773,250.098,331.509,251.138z
			 M337.503,241.425c-1.226-0.475-1.623,1.097-2.764,1.083c-0.759-0.01-1.069,1.091-0.784,1.45c0.522,0.657,1.193,2.131,2.076,1.433
			c1.126-0.89,2.2-0.814,3.376-0.83c0.779-0.01,1.771-0.326,1.798-0.877c0.034-0.719-0.359-1.738-1.504-1.758
			C338.925,241.914,338.355,241.084,337.503,241.425z M325.695,170.905c0.506-1.645-0.999-2.093-2.009-2.7
			c-0.833-0.5-1.312,0.419-1.388,1.034c-0.193,1.555-0.284,3.139-0.213,4.702c0.029,0.653,0.749,1.504,1.433,0.775
			C324.489,173.684,325.992,172.84,325.695,170.905z M210.798,256.306c0.158-1.894-0.972-3.154-2.043-3.141
			c-1.422,0.017-1.986,1.639-2.135,3.059c-0.147,1.413,0.487,2.418,1.933,2.527C210.498,258.899,210.49,257.251,210.798,256.306z
			 M121.775,160.776c0,0.827-0.126,1.469,0.029,2.032c0.237,0.856,0.82,1.503,1.782,1.627c0.62,0.08,1.216,0.019,1.628-0.55
			c0.57-0.784-0.767-4.947-1.722-5.233C120.805,157.85,122.166,160.084,121.775,160.776z M342.117,94.333
			c-0.679,2.273,0.929,3.337,2.463,3.539c1.143,0.15,1.122-1.55,1.168-2.642c0.073-1.749-0.646-2.812-2.452-2.976
			C341.378,92.079,342.282,93.572,342.117,94.333z M293.914,225.07c-1.81-0.539-1.423,0.93-1.387,2.01
			c0.037,1.113-0.49,2.682,1.452,2.687c1.6,0.006,2.588-1.076,2.692-2.549C296.784,225.632,295.683,224.963,293.914,225.07z
			 M56.051,206.923c0.466-2.255-0.985-1.836-2.214-1.919c-1.45-0.098-2.631,0.15-2.652,1.849c-0.014,1.17,0.767,2.296,1.914,2.141
			C54.369,208.821,56.18,208.824,56.051,206.923z M49.044,191.621c-0.068,1.271,0.002,2.611,1.654,2.274
			c1.272-0.26,1.917-1.361,2.062-2.788c0.159-1.57-1.055-2.277-1.937-2.277C49.218,188.83,48.89,190.245,49.044,191.621z
			 M229.276,237.7c-0.989-0.039-2.204-0.073-2.097,1.619c0.091,1.445,0.974,1.989,2.392,2.106c1.376,0.115,2.215-0.484,2.267-1.691
			C231.899,238.297,230.887,237.645,229.276,237.7z M243.499,103.25c0.21-1.553-0.79-2.502-1.986-2.829
			c-0.537-0.147-1.961,0.509-1.673,1.791c0.294,1.312,0.421,2.961,2.173,3.168C243.509,105.557,243.542,104.344,243.499,103.25z
			 M320.945,140.643c-1.033,0.187-1.607,0.602-1.549,1.574c0.104,1.712,1.412,2.557,2.689,3.184
			c0.792,0.389,1.504-0.319,1.504-1.276C323.588,142.264,321.999,141.655,320.945,140.643z M82.764,188.163
			c-0.13,1.419,0.48,2.607,1.877,2.532c1.047-0.056,1.863-1.328,1.723-2.412c-0.127-0.981-0.461-2.251-2.014-2.236
			C82.837,186.062,82.696,187.013,82.764,188.163z M340.421,118.541c0.209-1.742-0.238-2.918-2.021-3.09
			c-1.045-0.101-1.737,0.427-1.594,1.502c0.224,1.672,1.376,2.836,2.897,3.137C340.996,120.346,340.21,118.974,340.421,118.541z
			 M323.442,217.182c-0.103-2.175-1.223-2.894-2.486-3.08c-0.575-0.085-1.654,0.276-1.582,1.496c0.105,1.787,1.76,1.857,2.812,2.486
			C322.481,218.261,323.406,217.329,323.442,217.182z M84.355,182.796c-0.126-1.057-0.691-1.902-2.035-2.003
			c-1.036-0.077-1.718,0.369-1.644,1.467c0.073,1.09,0.154,2.242,1.755,2.229C83.507,184.48,84.321,184.275,84.355,182.796z
			 M56.938,190.136c0.115-1.314-0.507-2.22-1.745-2.452c-0.938-0.176-1.831,0.63-1.661,1.411c0.232,1.069,0.886,2.326,1.995,2.675
			C56.576,192.099,56.973,191.136,56.938,190.136z M327.812,174.219c0.014-0.572,0.057-1.773-0.784-1.577
			c-0.813,0.189-2.084,0.717-1.874,2.24c0.134,0.978,0.348,1.755,1.462,1.652C327.934,176.413,327.84,175.347,327.812,174.219z
			 M329.892,242.718c0.054-0.68-0.328-1.054-0.68-1.132c-0.213-0.048-0.688,0.43-0.806,0.757c-0.172,0.48,0.309,0.893,0.656,0.966
			C329.31,243.36,329.667,242.891,329.892,242.718z"/>
		<path style="fill-rule:evenodd;clip-rule:evenodd;fill:#7B491E;" d="M96.472,236.832c1.682-1.959,0.134-5.1,1.824-7.636
			c1.082-1.623-0.737-1.856-1.65-1.977c-2.086-0.274-4.019,0.645-5.964,1.257c-2.548,0.802-5.725-0.507-6.611-2.922
			c-0.583-1.588,0.537-2.61,1.454-3.69c0.719-0.847,1.856-0.85,2.662-1.46c3.525-2.671,7.073-5.235,11.345-6.717
			c1.374-0.476,1.728-2.193,1.709-3.8c-0.025-2.127,0.308-4.15,1.335-6.159c0.926-1.809,2.275-1.35,3.537-1.284
			c1.321,0.069,2.371,1.089,2.396,2.321c0.037,1.87,1.11,3.373,1.327,5.206c0.291,2.453,3.187,3.126,6.71,2.174
			c2.85-0.771,5.469-2.163,8.408-2.731c2.009-0.388,3.151,0.508,4.217,1.77c1.008,1.193,0.611,2.315-0.339,3.479
			c-0.474,0.581-0.903,1.229-1.384,1.833c-0.832,1.046-3.507,1.122-2.118,3.332c0.758,1.206,0.631,2.815,2.362,3.688
			c1.995,1.005,2.861,3.359,4.021,5.25c0.427,0.696,0.54,1.607-0.436,2.438c-0.876,0.746-1.423,0.435-2.26,0.176
			c-2.672-0.83-5.323-1.798-8.193-1.741c-1.381,0.027-2.365,1.483-1.447,2.63c1.433,1.789,0.892,3.751,0.698,5.52
			c-0.246,2.239-2.72,2.532-4.352,3.445c-1.37,0.767-2.319-0.351-3.046-1.321c-1.175-1.566-2.311-3.18-3.277-4.879
			c-0.525-0.924-1.229-1.577-2.136-1.478c-1.095,0.119-1.641,1.319-1.755,2.196c-0.178,1.355-1.011,2.345-1.405,3.547
			c-0.751,2.296-2.284,2.751-4.463,2.114C97.687,240.84,96.436,239.344,96.472,236.832z"/>
		<path style="fill-rule:evenodd;clip-rule:evenodd;fill:#7B491E;" d="M155.364,19.521c0.898,0,1.164-0.023,1.424,0.004
			c3.422,0.358,6.288,0.035,7.415-4.106c0.52-1.912,2.65-3.06,3.497-5.021c0.463-1.072,2.602-0.587,3.016,0.592
			c0.083,0.238,0.033,0.521,0.057,0.783c0.438,4.828,0.435,4.82,4.993,2.56c1.418-0.704,3.19-1.911,4.194,0.046
			c0.781,1.524,0.879,3.53-1.335,4.669c-1.173,0.604-1.12,1.799-0.396,2.82c0.839,1.183,1.978,1.826,3.499,1.895
			c1.788,0.082,3.412,1.081,3.664,2.723c0.228,1.489-1.388,2.374-2.732,3.057c-1.367,0.695-2.502,0.639-4.142,0.333
			c-3.65-0.679-7.535-0.593-11.25-0.171c-1.447,0.165-1.506,2.543-1.143,3.984c0.281,1.119,0.429,2.192,0.431,3.316
			c0.004,2.85-0.919,3.758-3.642,3.594c-1.842-0.111-3.62-2.402-3.015-4.435c0.279-0.939,0.083-1.631-0.335-2.023
			c-0.387-0.362-1.116,0.238-1.668,0.554c-2.429,1.389-3.363,4.024-4.999,6.059c-1.257,1.563-2.5,1.855-3.953,0.803
			c-1.411-1.021-1.12-2.319-0.08-3.597c2.294-2.819,5.019-5.283,6.941-8.417c0.367-0.598,1.088-1.156,0.616-1.811
			c-0.416-0.576-1.215-0.232-1.906-0.132c-2.978,0.434-5.948,0.979-8.843-0.62c-1.357-0.749-2.329-1.774-2.211-3.173
			c0.13-1.541,1.351-2.34,2.955-2.747C149.574,20.261,152.604,18.814,155.364,19.521z"/>
		<path style="fill-rule:evenodd;clip-rule:evenodd;fill:#7B491E;" d="M115.582,71.907c0.501,0.878,1.125,1.55,2.254,1.368
			c2.22-0.359,2.866,1.366,3.323,2.846c0.467,1.512-0.46,2.805-1.799,3.551c-1.807,1.006-2.718,1.986-0.568,3.59
			c0.376,0.282,0.49,0.891,0.809,1.28c0.551,0.673,0.86,1.905,2.109,1.342c1.023-0.46,2.007-1.145,2.131-2.391
			c0.134-1.35-0.35-2.912,1.954-2.868c2.302,0.044,4.59-0.099,5.642,2.571c0.617,1.564-1.643,4.819-3.713,5.36
			c-2.271,0.594-4.408,1.696-6.967,0.703c-0.801-0.311-2.108,0.833-3.109,1.509c-0.837,0.565-1.758,1.611-2.947,0.472
			c-1.147-1.1-2.276-2.221-1.776-4.015c0.203-0.73,0.496-1.463,0.893-2.105c1.032-1.669,0.531-2.754-1.046-3.744
			c-1.539-0.966-2.4-4.705-1.154-5.826c0.789-0.71,0.515-1.729,1.392-2.334c0.609-0.42,0.701-1.315-0.626-1.552
			c-2.505-0.448-4.109-3.229-3.089-5.575c0.805-1.852,1.863-3.677,3.177-5.194c0.929-1.073,2.438-2.146,3.868-0.288
			c1.272,1.654,2.959,3.134,3.727,4.995C120.939,67.717,119.472,71.32,115.582,71.907z"/>
		<path style="fill-rule:evenodd;clip-rule:evenodd;fill:#7B491E;" d="M59.295,30.096c-1.667,2.074-4.046,2.614-6.454,2.536
			c-2.194-0.071-3.795,0.504-5.228,2.188c-1.307,1.536-4.457,1.543-5.521,0.122c-2.183-2.914-2.46-4.855-0.083-6.883
			c0.444-0.378,1.21-0.987,1.889-0.605c3.655,2.057,6.394-0.432,9.288-1.868c3.828-1.901,3.824-2.012,6.494,1.141
			c0.784,0.926,1.486,0.324,1.885-0.065c1.57-1.534,3.32-1.689,4.614-0.102c1.17,1.436,1.43,3.336-0.306,4.864
			c-1.315,1.157-3.993,1.06-5.399-0.227C60.087,30.843,59.707,30.481,59.295,30.096z"/>
		<path style="fill-rule:evenodd;clip-rule:evenodd;fill:#7B491E;" d="M30.679,83.761c1.375-0.31,2.208,0.908,3.082,2.156
			c0.868,1.239,0.364,2.245-0.37,3.258c-0.977,1.348-1.664,2.479,0.969,2.583c1.823,0.072,2.441,1.55,1.935,2.974
			c-0.517,1.453-0.321,2.364,0.558,3.563c0.744,1.014,1.147,2.367,0.491,3.726c-0.513,1.063,0.285,1.646,0.87,2.345
			c1.228,1.468,1.174,5.66-0.117,6.948c-0.687,0.685-1.324,2.094-2.495,1.31c-1.065-0.714-2.441-1.471-2.384-3.169
			c0.035-1.05-0.042-2.105,0.018-3.153c0.083-1.454-0.008-2.797-1.196-3.878c-0.418-0.38-1.159-0.823-0.894-1.491
			c1.452-3.643-3.045-5.722-2.379-9.359c0.204-1.111-2.178-2.331-1.936-4.432C27.089,84.899,28.059,83.854,30.679,83.761z"/>
		<path style="fill-rule:evenodd;clip-rule:evenodd;fill:#7B491E;" d="M134.937,177.526c-1.023-1.311-2.53-2.307-0.995-3.927
			c0.751-0.794-0.267-0.654-0.521-0.906c-0.72-0.712-1.704-0.073-2.491-0.47c-2.457-1.235-4.454-0.657-5.229,1.961
			c-0.377,1.274-1.223,1.866-1.881,2.768c-0.604,0.826-1.196,1.649-2.201,1.094c-0.933-0.516-2.178-1.222-1.904-2.524
			c0.224-1.061-1.206-2.712,0.972-3.198c0.307-0.069,0.723-0.313,0.814-0.574c1.268-3.62,4.566-3.094,7.33-3.598
			c2.615-0.478,5.087-0.248,7.28,1.55c0.811,0.665,4.369,6.355,4.048,7.359c-0.47,1.467-0.786,3.271-2.989,3.202
			c-0.26-0.008-0.67-0.068-0.758,0.063c-0.852,1.271-2.047,2.558-3.502,1.938c-2.241-0.954-4.298-2.4-6.306-3.818
			c-1.079-0.763-0.996-2.127-0.197-3.012c1.1-1.219,2.587-0.127,3.14,0.503C131.007,177.605,132.679,177.787,134.937,177.526z"/>
		<path style="fill-rule:evenodd;clip-rule:evenodd;fill:#7B491E;" d="M59.085,200.278c-1.32-2.352,0.384-4.716-0.027-7.077
			c-0.133-0.764,0.122-1.729-0.261-2.286c-0.677-0.983-1.579-1.878-0.153-2.735c1.301-0.782,2.103,0.238,2.946,1.618
			c0.065-1.098,0.291-1.866-0.145-2.628c-0.374-0.654-0.569-1.456-0.057-1.933c0.583-0.544,1.74-0.509,2.199-0.071
			c1.396,1.334,2.13,0.376,2.809-0.624c0.982-1.447-0.625-1.235-1.188-1.662c-0.878-0.665-1.456-1.563-1.352-2.612
			c0.087-0.89,0.994-1.737,1.678-1.834c0.969-0.138,1.508,0.972,2.218,1.652c1.652,1.584,1.188,4.049,2.812,5.623
			c0.576,0.559,0.06,1.917-0.597,2.589c-0.246,0.252-1.289,0.026-1.748-0.296c-0.852-0.595-1.887-0.113-2.744-0.766
			c-0.167,1.919-0.655,3.704,2.484,3.181c1.001-0.167,2.355,1.21,2.11,2.777c-0.132,0.845,0.091,1.534,0.203,2.316
			c0.319,2.215,0.618,4.03,3.257,4.927c1.555,0.529,1.074,2.578,0.187,3.611c-1.131,1.315-2.189,0.146-2.961-0.784
			c-1.37-1.652-1.87-3.827-3.595-5.367c-1.046-0.934,0.262-2.368,0.875-3.648c-1.004,0.542-1.893,1.023-2.882,0.217
			c-0.806-0.656-1.506-1.342-1.66-2.497c0.088,1.395-0.919,2.519-1.519,3.198c-0.998,1.135-0.824,2.151-0.8,3.275
			c0.033,1.559-0.721,2.03-2.134,1.787L59.085,200.278z"/>
		<path style="fill-rule:evenodd;clip-rule:evenodd;fill:#7B491E;" d="M317.806,90.319c0.104,2.586-1.009,4.589-3.312,5.616
			c-3.092,1.377-5.649,0.646-6.143-3.414c-0.13-1.077-0.076-1.587-1.54-1.98c-4.277-1.147-5.346-3.281-4.855-7.524
			c0.221-1.914,1.563-2.568,2.903-3.265c1.1-0.571,2.004,0.027,2.695,0.932c0.885,1.156,1.824,2.202,0.885,3.894
			c-0.743,1.339,0.408,2.77,1.987,2.629c0.744-0.066,1.493-0.3,2.196-0.573C315.332,85.582,317.777,87.303,317.806,90.319z"/>
		<path style="fill-rule:evenodd;clip-rule:evenodd;fill:#7B491E;" d="M103.325,129.406c1.158-1.73-0.15-4.307,1.109-6.586
			c0.316-0.572-0.566-1.893-1.038-2.797c-1.028-1.972,0.131-6.432,2.05-7.496c1.09-0.604,2.019-0.273,2.749,0.68
			c1.763,2.302,2.963,4.987,1.324,7.575c-1.857,2.933-0.396,5.438,0.542,7.788c0.772,1.937,0.944,3.611-0.147,5.042
			c-0.66,0.866-1.86,1.848-3.606,1.025C104.136,133.613,103.258,132.128,103.325,129.406z"/>
		<path style="fill-rule:evenodd;clip-rule:evenodd;fill:#7B491E;" d="M310.378,203.501c-0.384,1.715,1.105,2.428,1.85,3.308
			c0.565,0.668,1.11,1.493,1.119,2.053c0.034,2.277,0.968,4.014,2.508,5.562c0.718,0.721,0.415,1.416-0.247,2.03
			c-0.64,0.593-1.264,1.202-2.113,2.015c1.328,0.265,2.458,0.663,2.648,1.8c0.159,0.959,0.465,2.076-0.46,2.972
			c-0.614,0.596-1.016,1.287,0.111,1.857c0.186,0.094,0.437,0.435,0.39,0.559c-1.127,2.973,1.094,5.478,1.153,8.304
			c0.036,1.752-1.038,2.112-2.197,2.719c-0.945,0.494-1.66,0.121-2.188-0.474c-0.855-0.962-0.441-1.834,0.347-2.752
			c0.614-0.714,0.253-1.553-0.17-2.413c-0.991-2.019-1.291-4.134-0.129-6.247c0.736-1.34,0.121-2.122-1.198-2.332
			c-0.811-0.129-1.713-0.089-1.838-1.057c-0.14-1.082,0.385-2.171,1.334-2.598c1.992-0.896,1.587-1.719,0.558-3.248
			c-1.25-1.855-2.151-3.998-2.892-6.126C308.247,207.37,308.959,205.397,310.378,203.501z"/>
		<path style="fill-rule:evenodd;clip-rule:evenodd;fill:#7B491E;" d="M113.856,103.901c-0.012,2.867-2.348,5.468-5.152,5.737
			c-2.563,0.246-4.18-2.746-3.074-5.731c0.235-0.635,0.651-1.205,0.858-1.846c0.395-1.222,2.26-2.646-0.901-3.245
			c-1.742-0.329-2.127-2.451-1.697-4.177c0.35-1.403,1.279-2.328,2.942-2.42c2.039-0.113,2.867,1.338,3.82,2.652
			c0.167,0.23,0.177,0.842,0.002,1.012c-2.201,2.136,0.083,2.96,1.186,4.081C113.844,102,113.864,101.979,113.856,103.901z"/>
		<path style="fill-rule:evenodd;clip-rule:evenodd;fill:#7B491E;" d="M333.393,222.841c0.336-0.707,0.529-1.278,0.852-1.763
			c1.139-1.708,2.552-1.822,3.4-0.028c1.126,2.378,2.639,3.87,5.33,4.226c1.403,0.186,2.148,1.328,1.656,2.701
			c-0.478,1.332-1.471,1.375-2.873,0.918c-2.419-0.789-4.481-2.215-6.731-3.289c-0.661-0.316-1.333-0.902-1.842-0.321
			c-1.761,2.014-2.809,0.364-3.933-0.672c-1.029-0.948-1.951-1.696-2.474,0.332c-0.248,0.964-0.931,0.607-1.453,0.602
			c-0.694-0.008-1.137-0.473-1.165-1.167c-0.025-0.6,0.011-1.222,0.149-1.804c0.484-2.023,2.123-3.893,0.582-6.197
			c-0.17-0.253,0.039-1.92,1.137-2.297c0.889-0.305,1.645-0.039,2.347,0.681c0.833,0.854,0.445,1.558-0.022,2.317
			c-0.224,0.363-0.49,0.699-0.722,1.059c-0.34,0.532-0.666,1.073-0.998,1.611c1.187-0.087,1.226,2.207,2.984,1.264
			C331.304,220.109,332.348,221.456,333.393,222.841z"/>
		<path style="fill-rule:evenodd;clip-rule:evenodd;fill:#7B491E;" d="M334.152,163.896c-1.068-1.479-1.237-2.807,0.072-3.973
			c0.44-0.393,0.702-1.35,1.532-0.899c0.584,0.315,1.131,0.833,1.028,1.673c-0.053,0.431,0.064,0.91-0.083,1.297
			c-0.629,1.646-2.211,2.995-1.521,5.041c-2.344,0.996-0.763,1.958-0.094,3.104c0.338,0.578,0.421,1.621-0.199,2.226
			c-1.789,1.744-2.006,3.891-1.802,6.19c0.047,0.527-0.167,0.963-0.415,1.445c-0.5,0.973-1.024,2.08-2.229,1.76
			c-1.361-0.362-1.684-2.021-1.328-2.909c0.705-1.764-0.096-3.558,0.646-5.337c0.486-1.168-1.125-2.05-2.089-2.493
			c-1.327-0.61-1.516-1.482-1.435-2.681c0.107-1.592,0.679-2.377,2.292-1.334c1.656,1.072,2.681,0.726,2.985-1.288
			C331.727,164.305,332.545,163.673,334.152,163.896z"/>
		<path style="fill-rule:evenodd;clip-rule:evenodd;fill:#7B491E;" d="M52.881,40.17c-0.304,4.17-2.126,5.549-5.301,5.199
			c-2.187-0.241-3.045-1.539-3.418-3.491c-0.408-2.138,0.421-4.062,1.906-5.18c1.072-0.807,2.966-0.809,4.236,0.663
			c0.752,0.871,1.312,0.891,2.141-0.302c1.475-2.123,4-2.788,5.259-1.708c1.268,1.087,2.516,2.341,1.562,4.2
			c-0.783,1.525-3.731,2.07-5.583,1.186C53.417,40.61,53.194,40.395,52.881,40.17z"/>
		<path style="fill-rule:evenodd;clip-rule:evenodd;fill:#7B491E;" d="M40.602,107.652c0-0.35,0.056-0.711-0.01-1.048
			c-0.312-1.605,0.748-2.631,1.869-3.101c1.318-0.552,2.619,0.42,3.185,1.567c0.652,1.319,1.629,2.111,2.891,2.181
			c2.365,0.129,3.647,1.76,5.204,3.116c1.157,1.007,1.574,2.224,0.798,3.434c-0.882,1.376-2.197,2.429-4.043,1.598
			c-0.853-0.384-1.867-0.729-2.28-1.615c-0.625-1.343-1.703-1.479-2.944-1.515C41.077,112.148,40.6,111.665,40.602,107.652z"/>
		<path style="fill-rule:evenodd;clip-rule:evenodd;fill:#7B491E;" d="M196.977,253.648c-4.445-0.293-4.767-0.579-4.597-3.916
			c0.102-1.997,1.803-3.328,3.921-3.067c2.694,0.331,3.401,1.41,3.191,3.783c-0.198,2.253,1.753,3.521,3.314,4.51
			c1.281,0.812,1.767,2.559,1.537,2.851c-0.886,1.128-0.703,3.075-2.351,3.518c-1.36,0.364-3.027,0.319-3.848-0.846
			C196.765,258.521,195.913,256.256,196.977,253.648z"/>
		<path style="fill-rule:evenodd;clip-rule:evenodd;fill:#7B491E;" d="M37.333,44.526c-1.927-0.548-3.487-1.539-2.983-3.772
			c0.31-1.374,1.363-2.391,3.055-2.265c1.818,0.136,3.998,2.093,4.006,3.774c0.003,0.585-0.097,1.26-0.923,1.535
			c-1.705,0.567-1.194,1.44-0.322,2.467c1.424,1.677,0.955,4.522-0.871,5.842c-2.354,1.703-3.693,1.419-5.433-1.107
			c-0.804-1.167-1.729-2.334-1.184-3.837c0.355-0.982,0.744-2.197,2.349-1.429C36.207,46.297,36.725,45.274,37.333,44.526z"/>
		<path style="fill-rule:evenodd;clip-rule:evenodd;fill:#7B491E;" d="M145.476,109.291c-0.068,1.901-2.389,3.771-4.326,3.487
			c-4.023-0.59-5.79-3.292-4.706-7.182c0.302-1.086-0.272-2.275,0.344-3.324c1.317-2.243,4.158-1.946,6.465,0.667
			C143.864,103.631,145.51,108.335,145.476,109.291z"/>
		<path style="fill-rule:evenodd;clip-rule:evenodd;fill:#7B491E;" d="M321.253,227.162c1.269,0,1.88-0.009,2.49,0.002
			c2.925,0.053,3.95,1.844,2.452,4.463c-0.504,0.88-0.899,1.443,0.329,1.988c1.041,0.462,1.264,1.541,1.583,2.517
			c0.368,1.121,0.514,2.172-0.482,3.109c-0.679,0.639-1.229,0.606-2.087,0.233c-1.302-0.565-2.134-1.673-1.852-2.756
			c0.834-3.188-2.042-4.812-2.711-7.322c-0.059-0.221-0.256-0.58-0.385-0.578c-2.156,0.03-2.961-1.098-2.786-3.132
			c0.131-1.538-0.638-3.402,1.621-4.137c0.423-0.137,0.484-0.669,0.509-1.131c0.043-0.807,0.689-0.583,1.169-0.633
			c0.6-0.062,1.363,0.429,1.242,0.685C321.342,222.594,323.963,225.044,321.253,227.162z"/>
		<path style="fill-rule:evenodd;clip-rule:evenodd;fill:#7B491E;" d="M37.44,22.026c0.004-3.168,2.093-5.061,5.672-5.139
			c2.384-0.052,4.405,2.7,4.34,5.911c-0.052,2.6-2.317,4.028-6.506,4.102C38.634,26.94,37.436,25.275,37.44,22.026z"/>
		<path style="fill-rule:evenodd;clip-rule:evenodd;fill:#7B491E;" d="M170.248,214.478c-2.849,0.709-3.56-2.023-5.161-3.382
			c-0.102-0.087-0.162-0.392-0.093-0.484c1.616-2.171,3.232-4.344,4.92-6.459c0.162-0.202,0.907-0.195,1.191-0.003
			c1.441,0.973,2.953,1.901,4.186,3.106c1.801,1.759,0.072,6.63-3.399,7.21C171.383,214.551,170.847,214.478,170.248,214.478z"/>
		<path style="fill-rule:evenodd;clip-rule:evenodd;fill:#7B491E;" d="M195.545,238.699c-0.152-2.244,0.344-3.82,3.032-4.271
			c1.2-0.202,2.285-1.427,3.297-2.329c1.148-1.023,2.562-1.151,3.542-0.372c1.096,0.869,0.288,2.036-0.36,3.13
			c-1.034,1.743-1.843,3.631-2.632,5.505c-0.937,2.221-3.037,2.645-4.927,2.84c-0.95,0.099-1.612-1.534-1.922-2.667
			C195.417,239.962,195.546,239.312,195.545,238.699z"/>
		<path style="fill-rule:evenodd;clip-rule:evenodd;fill:#7B491E;" d="M85.397,101.63c0.002,3.985-1.433,6.018-3.971,5.905
			c-1.822-0.081-3.411-1.049-3.792-2.596c-0.56-2.276-1.689-5.062,0.786-6.872c1.36-0.996,3.505-1.414,5.079-0.858
			C85.398,97.878,85.586,99.963,85.397,101.63z"/>
		<path style="fill-rule:evenodd;clip-rule:evenodd;fill:#7B491E;" d="M141.26,78.414c0.028,3.497-2.562,6.317-5.943,6.261
			c-1.566-0.025-2.596-1.125-2.983-2.589c-0.731-2.761,1.495-6.409,4.323-7.271C139.756,73.87,141.233,75.025,141.26,78.414z"/>
		<path style="fill-rule:evenodd;clip-rule:evenodd;fill:#7B491E;" d="M251.626,259.834c-2.461-0.01-2.729-0.552-2.425-3.094
			c0.257-2.152,0.173-4.359,0.068-6.535c-0.101-2.093,1.176-3.161,2.828-3.457c1.843-0.33,2.561,1.094,3.036,2.767
			c0.911,3.21-0.469,6.083-1.043,9.078C253.816,260.032,252.667,259.851,251.626,259.834z"/>
		<path style="fill-rule:evenodd;clip-rule:evenodd;fill:#7B491E;" d="M148.413,81.174c-2.097,0.145-3.548-0.923-3.889-2.669
			c-0.398-2.039,0.465-3.935,2.259-5.226c1.732-1.246,3.822-0.678,5.72-0.943c1.34-0.187,1.635,1.675,2.285,2.689
			c0.6,0.937,0.081,2.426-0.443,2.561c-1.727,0.444-2.222,1.998-3.35,2.933C150.281,81.11,149.312,81.394,148.413,81.174z"/>
		<path style="fill-rule:evenodd;clip-rule:evenodd;fill:#7B491E;" d="M200.812,73.235c0.021,3.236-2.026,5.77-4.718,5.836
			c-2.107,0.053-4.218-2.56-4.238-5.244c-0.022-2.969,2.12-4.807,5.545-4.757C199.521,69.1,200.794,70.655,200.812,73.235z"/>
		<path style="fill-rule:evenodd;clip-rule:evenodd;fill:#7B491E;" d="M386.315,71.705c1.719,0.503,2.336,2.208,3.187,3.737
			c0.812,1.462-0.342,1.848-1.198,2.447c-0.825,0.578-1.22,1.73-2.479,1.749c-0.614,0.009-0.676,0.525-0.368,0.903
			c0.517,0.635,0.288,1.338,0.328,2.013c0.099,1.694-0.485,3.209-2.068,3.815c-1.333,0.51-2.165-0.468-2.746-1.734
			c-0.806-1.755-0.65-3.447,0.81-4.486c1.6-1.139,2.363-1.948,1.477-4.082C382.501,74.25,384.473,71.682,386.315,71.705z"/>
		<path style="fill-rule:evenodd;clip-rule:evenodd;fill:#7B491E;" d="M127.031,100.329c0.032-2.995,2.282-6.574,4.085-6.498
			c0.867,0.036,5.281,4.726,5.276,5.605c-0.014,2.256-2.72,4.38-5.616,4.407C128.32,103.866,127.006,102.633,127.031,100.329z"/>
		<path style="fill-rule:evenodd;clip-rule:evenodd;fill:#7B491E;" d="M225.736,47.453c-2.121-0.02-5.414-3.369-5.424-5.517
			c-0.011-2.312,2.154-4.354,4.734-4.462c1.866-0.079,4.295,2.761,4.046,5.064C228.7,46.184,227.912,47.921,225.736,47.453z"/>
		<path style="fill-rule:evenodd;clip-rule:evenodd;fill:#7B491E;" d="M210.413,218.724c-1.1,0-1.812,0.089-2.496-0.016
			c-2.634-0.404-3.557-2.802-1.931-4.884c1.873-2.398,4.628-2.865,7.314-2.907c2.423-0.039,3.178,2.139,1.896,4.306
			C213.998,217.248,213.123,219.596,210.413,218.724z"/>
		<path style="fill-rule:evenodd;clip-rule:evenodd;fill:#7B491E;" d="M220.311,248.909c0,3.989-1.344,5.858-4.528,6.302
			c-2.14,0.297-3.373-0.712-3.366-2.847c0.008-2.333,1.914-6.198,4.188-7.059c2.605-0.985,3.673-0.421,3.707,2.295
			C220.316,248.037,220.311,248.474,220.311,248.909z"/>
		<path style="fill-rule:evenodd;clip-rule:evenodd;fill:#7B491E;" d="M92.018,101.208c-2.359,0.009-4.003-1.646-3.985-4.014
			c0.018-2.401,3.027-5.402,5.481-5.464c1.404-0.036,3.073,2.125,2.92,4.152C96.16,99.498,94.833,101.488,92.018,101.208z"/>
		<path style="fill-rule:evenodd;clip-rule:evenodd;fill:#7B491E;" d="M246.162,197.197c-1.51-0.447-2.914-1.399-3.148-3.299
			c-0.262-2.107,1.115-2.689,2.961-2.578c0.522,0.031,1.037,0.022,1.415-0.471c1.829-2.387,4.037-0.556,5.968-0.31
			c1.407,0.18,1.426,4.263-0.021,4.784C251.117,196.123,248.759,196.542,246.162,197.197z"/>
		<path style="fill-rule:evenodd;clip-rule:evenodd;fill:#7B491E;" d="M211.824,162.338c-4.05,0.147-4.369-0.596-2.739-4.506
			c0.81-1.941,1.615-3.486,3.811-3.905c1.891-0.36,3.979,0.832,4.25,2.451c0.49,2.929-1.068,5.614-3.487,5.945
			C213.057,162.405,212.435,162.336,211.824,162.338z"/>
		<path style="fill-rule:evenodd;clip-rule:evenodd;fill:#7B491E;" d="M273.055,61.667c-0.66,1.95-2.146,3.411-3.798,4.437
			c-1.557,0.967-3.56,1.139-5.237-0.029c-0.998-0.694-1.662-1.785-1.527-3.093c0.156-1.51,0.969-2.854,2.366-3.236
			c2.192-0.6,4.521-0.442,6.786-0.252C272.781,59.589,273.22,60.451,273.055,61.667z"/>
		<path style="fill-rule:evenodd;clip-rule:evenodd;fill:#7B491E;" d="M250.369,233.483c1.375,0.189,3.545,1.269,2.938,3.045
			c-0.663,1.943,1.503,5.405-2.011,5.803c-3.868,0.437-6.151-1.218-6.216-3.438C245.002,236.209,247.363,233.501,250.369,233.483z"
			/>
		<path style="fill-rule:evenodd;clip-rule:evenodd;fill:#7B491E;" d="M260.949,216.107c-3.045,1.223-3.517-2.146-5.162-3.503
			c-0.614-0.507-0.163-1.628,0.829-2.348c2.389-1.733,5.183-0.618,7.719-1.344c1.259-0.361,1.553,1.361,1.612,2.188
			C266.203,214.659,264.896,215.93,260.949,216.107z"/>
		<path style="fill-rule:evenodd;clip-rule:evenodd;fill:#7B491E;" d="M244.027,82.928c0.006-2.193,2.795-5.014,4.851-4.906
			c1.681,0.088,3.07,2.226,3.055,4.697c-0.019,2.875-1.489,4.854-3.558,4.786C245.655,87.416,244.019,85.694,244.027,82.928z"/>
		<path style="fill-rule:evenodd;clip-rule:evenodd;fill:#7B491E;" d="M64.918,46.926c-2.369,0.032-4.786-2.104-4.782-4.225
			c0.004-1.93,2.97-4.209,5.477-4.207c1.672,0.001,4.072,1.931,3.931,3.384C69.312,44.251,67.31,47.207,64.918,46.926z"/>
		<path style="fill-rule:evenodd;clip-rule:evenodd;fill:#7B491E;" d="M367.695,71.206c-1.712,0.733-3.49-0.029-4.391-1.843
			c-0.956-1.929,0.264-3.861,1.198-5.526c0.652-1.162,2.02-1.208,2.969-0.136c1.245,1.406,2.365,2.837,4.53,2.772
			c0.804-0.025,1.18,0.654,1.137,1.463c-0.052,0.998,0.296,2.061-0.974,2.729C370.831,71.365,369.46,71.078,367.695,71.206z"/>
		<path style="fill-rule:evenodd;clip-rule:evenodd;fill:#7B491E;" d="M170.246,198.349c0-3.029,0.955-4.398,2.944-4.387
			c2.759,0.014,5.41,2.387,5.479,4.905c0.06,2.165-3.066,4.475-6.173,3.874C170.516,202.359,170.052,200.187,170.246,198.349z"/>
		<path style="fill-rule:evenodd;clip-rule:evenodd;fill:#7B491E;" d="M126.604,97.613c0.266,1.021-0.899,1.486-1.935,1.871
			c-1.678,0.624-5.729-0.753-6.649-2.346c-1.171-2.028,0.029-3.563,1.418-4.933c1.507-1.487,2.897-2.581,4.673-0.08
			C125.221,93.688,126.402,95.094,126.604,97.613z"/>
		<path style="fill-rule:evenodd;clip-rule:evenodd;fill:#7B491E;" d="M213.792,220.836c1.195-0.229,2.286,0.213,2.785,1.532
			c0.478,1.261,0.317,2.458-0.876,3.353c-1.295,0.972-2.549,1.933-3.448,3.378c-0.773,1.243-2.635,1.114-3.267,0.439
			c-0.938-1.004-2.462-2.118-1.83-4.008C207.68,223.96,211.915,220.859,213.792,220.836z"/>
		<path style="fill-rule:evenodd;clip-rule:evenodd;fill:#7B491E;" d="M240.337,107.26c0.002,2.589-1.717,4.951-3.647,5.012
			c-2.151,0.067-4.347-2.935-4.256-5.818c0.038-1.177,3.303-3.686,4.768-3.663C238.688,102.813,240.335,105.162,240.337,107.26z"/>
		<path style="fill-rule:evenodd;clip-rule:evenodd;fill:#7B491E;" d="M240.83,47.98c2.072-0.473,3.211,0.816,3.688,2.787
			c0.579,2.391-0.705,5.459-2.413,6.087c-0.313,0.115-0.688,0.085-1.035,0.081c-1.463-0.017-4.388-3.979-4.421-5.975
			C236.617,49.03,238.011,47.98,240.83,47.98z"/>
		<path style="fill-rule:evenodd;clip-rule:evenodd;fill:#7B491E;" d="M348.884,179.606c0.068,1.025-0.092,1.668-0.988,2.282
			c-1.173,0.802-2.021-0.354-2.104-0.615c-0.563-1.781-2.601-2.565-2.796-4.665c-0.122-1.31-0.906-2.68-2.479-3.226
			c-0.534-0.185-0.957-0.704-1.416-1.088c-0.736-0.615-1.391-1.225-0.688-2.316c0.664-1.034,1.89-1.125,2.525-0.704
			c2.017,1.335,4.775,2.101,4.829,5.31c0.015,0.92,0.478,1.636,1.393,2.217C348.124,177.411,349.237,178.222,348.884,179.606z"/>
		<path style="fill-rule:evenodd;clip-rule:evenodd;fill:#7B491E;" d="M195.324,219.298c-1.551-0.146-2.929-0.703-3.388-2.095
			c-0.488-1.482,0.445-2.788,1.835-3.198c2.14-0.631,4.449-2.316,6.523,0.238c0.101,0.124,0.297,0.168,0.441,0.261
			c1.179,0.748,3.483,0.833,2.608,2.961c-0.638,1.554-2.555,1.365-4.041,1.235C197.881,218.576,196.595,219.091,195.324,219.298z"/>
		<path style="fill-rule:evenodd;clip-rule:evenodd;fill:#7B491E;" d="M117.639,167.816c2.065,1.416,1.607,3.386,1.373,5.06
			c-0.152,1.089-1.553,0.659-2.219,0.381c-1.438-0.601-1.937-2.165-1.156-3.246c0.944-1.309,1.79-2.128-0.079-3.197
			c-0.138-0.078-0.189-0.534-0.104-0.741c0.88-2.127,0.014-3.113-2.042-3.797c-1.123-0.374-0.877-1.822-0.05-2.225
			c1.294-0.629,2.945-0.893,4.072,0.39c0.707,0.805,2.244,1.954,0.064,2.961c-0.567,0.262-0.207,0.517-0.002,0.716
			c0.286,0.277,0.693,0.91,0.997,0.567c1.469-1.653,2.735-0.98,3.143,0.604c0.479,1.862-1.016,2.26-2.611,2.169
			C118.632,167.436,118.224,167.657,117.639,167.816z"/>
		<path style="fill-rule:evenodd;clip-rule:evenodd;fill:#7B491E;" d="M278.28,207.402c0.149,1.908-1.279,2.724-2.613,3.377
			c-1.649,0.807-3.443,1.8-5.328,0.738c-1.504-0.847-1.925-3.834,0.102-5.176c1.337-0.886,2.824-1.582,4.316-2.186
			C276.5,203.45,278.285,205.153,278.28,207.402z"/>
		<path style="fill-rule:evenodd;clip-rule:evenodd;fill:#7B491E;" d="M236.122,45.084c0.498,1.928-1.138,3.501-1.377,5.467
			c-0.167,1.369-3.254,1.578-4.226,0.485c-1.714-1.927-0.849-7.849,1.649-8.83C235.272,40.986,236.126,41.426,236.122,45.084z"/>
		<path style="fill-rule:evenodd;clip-rule:evenodd;fill:#7B491E;" d="M33.758,36.386c-3.12,0.002-4.208-1.065-4.223-4.144
			c-0.011-2.368,0.882-3.867,2.298-3.856c3.21,0.024,5.694,2.104,5.606,4.697C37.367,35.24,36.091,36.384,33.758,36.386z"/>
		<path style="fill-rule:evenodd;clip-rule:evenodd;fill:#7B491E;" d="M374.965,90.671c-3.787-0.025-5.429-1.25-5.758-3.627
			c-0.071-0.515,0.168-0.759,0.271-1.103c0.166-0.546,5.397-2.832,5.963-2.574c1.938,0.881,2.99,2.334,2.992,4.566
			C378.435,90.937,375.835,89.904,374.965,90.671z"/>
		<path style="fill-rule:evenodd;clip-rule:evenodd;fill:#7B491E;" d="M246.106,93.667c-0.022,1.634-2.036,3.298-3.937,3.333
			c-2.166,0.039-2.539-1.192-2.383-3.022c0.133-1.545,0.133-3.093-0.815-4.504c-0.444-0.661-0.44-1.516,0.249-2.143
			c0.77-0.7,1.309-0.134,2.044,0.249C243.812,88.904,246.398,90.099,246.106,93.667z"/>
		<path style="fill-rule:evenodd;clip-rule:evenodd;fill:#7B491E;" d="M227.163,73.356c0.017-3.147,1.256-4.795,3.625-4.823
			c2.048-0.023,4.356,2.56,4.278,4.789c-0.03,0.833-3.516,3.62-4.551,3.637C227.965,76.999,227.148,76.119,227.163,73.356z"/>
		<path style="fill-rule:evenodd;clip-rule:evenodd;fill:#7B491E;" d="M319.917,93.315c-0.004-2.782,1.079-4.007,3.53-4.402
			c1.024-0.165,1.745,0.217,2.086,0.898c0.842,1.686,1.483,3.6,1.132,5.419c-0.297,1.535-1.385,2.954-3.39,2.81
			c-2.262-0.163-2.62-2.109-3.339-3.682C319.803,94.068,319.917,93.666,319.917,93.315z"/>
		<path style="fill-rule:evenodd;clip-rule:evenodd;fill:#7B491E;" d="M29.535,118.334c0,2.173-2.15,4.135-4.71,3.902
			c-2.511-0.229-2.568-2.436-2.631-4.274c-0.091-2.667,1.243-4.125,3.429-4.105C27.82,113.877,29.535,115.839,29.535,118.334z"/>
		<path style="fill-rule:evenodd;clip-rule:evenodd;fill:#7B491E;" d="M232.434,98.58c-0.106,0.543,0.238,1.167-0.499,1.588
			c-0.714,0.408-5.303,0.196-5.938-0.402c-1.121-1.054-1.296-4.652-0.283-5.805c2.67-3.038,2.812-3.02,5.188,0.656
			C232.306,96.789,232.443,97.144,232.434,98.58z"/>
		<path style="fill-rule:evenodd;clip-rule:evenodd;fill:#7B491E;" d="M260.87,70.299c-0.266,1.676-1.089,3.655-2.888,4.936
			c-1.242,0.883-2.696,1.285-3.956-0.358c-1.23-1.605-1.348-4.007,0.025-5.534c1.37-1.524,3.344-1.672,5.16-1.767
			C260.248,67.521,260.97,68.559,260.87,70.299z"/>
		<path style="fill-rule:evenodd;clip-rule:evenodd;fill:#7B491E;" d="M351.536,114.647c0.001-1.108,3.222-5.275,4.27-5.521
			c1.234-0.291,3.649,2.627,3.307,4.209c-0.429,1.979-1.602,3.687-3.309,4.66C353.536,119.289,351.535,117.61,351.536,114.647z"/>
		<path style="fill-rule:evenodd;clip-rule:evenodd;fill:#7B491E;" d="M198.904,197.649c-2.721-0.042-4.365-1.729-4.441-4.285
			c-0.074-2.499,1.859-2.784,3.442-3.014c1.994-0.288,5.627,2.75,5.54,4.257C203.359,196.09,200.984,197.681,198.904,197.649z"/>
		<path style="fill-rule:evenodd;clip-rule:evenodd;fill:#7B491E;" d="M221.375,49.034c2.663,0.003,3.807,1.977,2.701,4.472
			c-0.901,2.035-2.676,2.862-4.574,3.386c-1.607,0.444-3.241-1.076-3.291-2.78C216.147,51.903,219.069,49.031,221.375,49.034z"/>
		<path style="fill-rule:evenodd;clip-rule:evenodd;fill:#7B491E;" d="M312.185,75.898c-1.077,0.242-2.092-0.131-2.581-1.164
			c-0.501-1.058-0.483-2.209,0.579-3.072c0.202-0.166,0.406-0.348,0.552-0.561c2.407-3.519,2.404-3.521,5.929-0.997
			c1.493,1.069,1.705,3.557,0.167,4.315C315.424,75.113,314.016,76.123,312.185,75.898z"/>
		<path style="fill-rule:evenodd;clip-rule:evenodd;fill:#7B491E;" d="M47.448,98.356c0.38,2.303-1.084,3.291-3.199,3.33
			c-1.909,0.035-3.574-0.618-3.66-3.015c-0.015-0.411-0.095-0.887-0.32-1.21c-0.833-1.191-1.005-2.515,0.047-3.452
			c1.042-0.927,2.296-0.177,3.42,0.335C45.48,95.143,47.655,95.495,47.448,98.356z"/>
		<path style="fill-rule:evenodd;clip-rule:evenodd;fill:#7B491E;" d="M251.234,56.939c-2.153,0.025-4.071-1.621-4.045-3.471
			c0.024-1.709,2.175-4.453,3.475-4.433c1.661,0.025,4.435,2.999,4.43,4.748C255.088,55.714,253.625,56.911,251.234,56.939z"/>
		<path style="fill-rule:evenodd;clip-rule:evenodd;fill:#7B491E;" d="M202.392,85.192c0.154,1.995-0.907,3.211-2.75,3.311
			c-2.563,0.14-5.73-2.457-5.662-4.394c0.088-2.479,2.204-2.637,3.843-2.852C200.438,80.912,202.41,82.792,202.392,85.192z"/>
		<path style="fill-rule:evenodd;clip-rule:evenodd;fill:#7B491E;" d="M360.458,84.322c0.158-1.575-0.513-3.581,1.143-4.042
			c1.554-0.433,2.68,1.067,3.464,2.521c0.4,0.741,1.33,1.212,1.677,1.964c0.935,2.026,0.116,3.82-1.859,4.464
			c-2.339,0.762-3.641,0.042-4.249-2.481C360.431,85.912,360.5,85.012,360.458,84.322z"/>
		<path style="fill-rule:evenodd;clip-rule:evenodd;fill:#7B491E;" d="M123.328,155.416c-0.204,0.481,0.5,1.409-0.594,1.63
			c-0.774,0.157-1.444,0.382-2.263-0.372c-1.292-1.189-2.925-0.547-3.43,1.257c-0.315,1.124-1.001,1.239-1.948,1.261
			c-1.485,0.035-2.254-1.014-2.715-2.07c-0.338-0.773-0.485-2.076,0.655-2.536c1.492-0.601,2.917-1.275,4.272-2.143
			c0.576-0.369,1.189-0.069,1.61,0.46c0.537,0.676,1.357,0.661,1.927,0.408C123.106,152.309,123.431,153.516,123.328,155.416z"/>
		<path style="fill-rule:evenodd;clip-rule:evenodd;fill:#7B491E;" d="M259.979,55.884c-1.88-0.073-3.86-2.016-3.829-3.756
			c0.035-1.896,1.712-4.121,3.124-4.146c1.972-0.035,4.843,2.282,4.776,3.854C263.96,53.942,261.932,55.96,259.979,55.884z"/>
		<path style="fill-rule:evenodd;clip-rule:evenodd;fill:#7B491E;" d="M232.959,179.186c0.073,3.526-1.96,4.412-4.689,4.722
			c-1.3,0.148-2.033-0.725-2.163-2.047c-0.186-1.893,0.744-3.472,1.626-4.967c0.604-1.024,1.655-2.205,3.081-1.6
			C232.408,175.971,233.165,177.38,232.959,179.186z"/>
		<path style="fill-rule:evenodd;clip-rule:evenodd;fill:#7B491E;" d="M210.825,71.203c-0.007,2.082-1.278,3.033-3.95,2.957
			c-1.737-0.049-3.954-2.582-3.717-4.477c0.209-1.673,1.034-3.111,2.946-3.192C209.07,66.362,210.836,68.207,210.825,71.203z"/>
		<path style="fill-rule:evenodd;clip-rule:evenodd;fill:#7B491E;" d="M25.506,36.913c2.766-0.007,4.016,0.967,4.029,3.14
			c0.014,2.291-1.924,4.381-4.203,4.189c-1.954-0.165-3.302-1.104-3.212-3.488C22.24,37.543,22.667,36.92,25.506,36.913z"/>
		<path style="fill-rule:evenodd;clip-rule:evenodd;fill:#7B491E;" d="M50.659,177.587c0.156-0.786,0.517-1.981-0.479-3.259
			c-0.457-0.586-0.378-2.027,0.784-2.435c1.215-0.427,1.607,0.627,2.021,1.498c1.37,2.886,2.306,5.992,4.618,8.386
			c0.852,0.882,0.627,1.988-0.451,2.645c-1.103,0.672-2.433,0.365-2.668-0.77c-0.396-1.911-1.117-3.097-3.117-3.539
			C50.482,179.918,50.571,178.881,50.659,177.587z"/>
		<path style="fill-rule:evenodd;clip-rule:evenodd;fill:#7B491E;" d="M216.095,62.316c-0.017,2.043-3.128,4.54-5.106,4.099
			c-1.771-0.396-2.486-3.217-1.235-4.948c0.304-0.421,0.778-0.731,1.027-1.175c0.688-1.22,0.871-3.015,2.863-2.741
			C214.716,57.698,216.109,60.629,216.095,62.316z"/>
		<path style="fill-rule:evenodd;clip-rule:evenodd;fill:#7B491E;" d="M184.211,219.784c-2.946-0.001-3.923-0.804-3.943-3.338
			c-0.015-1.928,1.022-3.394,2.729-3.928c1.328-0.415,5.638,3.694,5.582,4.966C188.521,218.82,186.688,219.785,184.211,219.784z"/>
		<path style="fill-rule:evenodd;clip-rule:evenodd;fill:#7B491E;" d="M212.405,191.164c-0.049,2.617-4.525,5.479-6.712,4.172
			c-0.729-0.437-2.015-1.211-1.628-2.14c0.585-1.405,0.77-3.343,2.515-3.892c1.27-0.4,2.687-0.229,4.051-0.485
			C211.753,188.607,212.511,189.828,212.405,191.164z"/>
		<path style="fill-rule:evenodd;clip-rule:evenodd;fill:#7B491E;" d="M340.997,116.626c-0.294-3.473,2.63-2.228,4.203-2.687
			c1.296-0.379,3.712,2.641,3.69,4.333c-0.033,2.636-2.213,2.267-3.753,2.38C342.765,120.828,340.966,118.916,340.997,116.626z"/>
		<path style="fill-rule:evenodd;clip-rule:evenodd;fill:#7B491E;" d="M340.996,52.017c-0.018-1.831,2.677-4.962,4.371-5.081
			c1.441-0.101,3.009,2.434,2.436,4.148c-0.339,1.012-0.854,2.022-1.518,2.853c-0.68,0.852-1.372,2-2.817,1.557
			C341.928,55.02,341.012,53.703,340.996,52.017z"/>
		<path style="fill-rule:evenodd;clip-rule:evenodd;fill:#7B491E;" d="M208.942,91.722c-3.477-0.016-5.208-1.642-4.968-4.542
			c0.158-1.902,1.77-2.753,3.401-1.81c0.656,0.379,1.326,0.994,2.009,1.021c2.587,0.104,2.538,1.828,2.499,3.651
			C211.833,92.42,210.022,91.51,208.942,91.722z"/>
		<path style="fill-rule:evenodd;clip-rule:evenodd;fill:#7B491E;" d="M213.987,169.516c-0.036,1.781-2.509,3.472-5.064,3.347
			c-1.688-0.083-2.741-1.082-2.806-2.767c-0.065-1.701,2.652-4.654,4.019-4.582C211.611,165.592,214.015,168.091,213.987,169.516z"
			/>
		<path style="fill-rule:evenodd;clip-rule:evenodd;fill:#7B491E;" d="M334.443,58.033c-1.037,0.046-1.556-0.344-1.967-1.344
			c-0.53-1.289-0.732-2.44,0.055-3.629c0.237-0.358,0.765-0.594,0.861-0.963c0.353-1.34,0.361-3.183,2.397-2.645
			c2.403,0.634,3.337,2.682,2.539,5.109C337.721,56.408,336.439,57.68,334.443,58.033z"/>
		<path style="fill-rule:evenodd;clip-rule:evenodd;fill:#7B491E;" d="M237.758,198.177c-0.525-0.001-1.056,0.046-1.575-0.01
			c-1.136-0.122-2.289-0.392-2.652-1.634c-0.435-1.487,0.766-2.314,1.744-2.907c1.351-0.818,2.967-1.191,4.355-1.96
			c0.876-0.485,1.326-0.224,1.654,0.467C243.072,195.892,241.722,198.18,237.758,198.177z"/>
		<path style="fill-rule:evenodd;clip-rule:evenodd;fill:#7B491E;" d="M222.419,90.577c0.015,2.223-1.785,4.537-3.523,4.257
			c-1.973-0.317-2.855-1.691-2.809-3.702c0.062-2.719,1.109-4.14,3.142-4.153C221.587,86.963,222.402,87.882,222.419,90.577z"/>
		<path style="fill-rule:evenodd;clip-rule:evenodd;fill:#7B491E;" d="M55.348,19.668c0.041,1.611-2.609,3.98-4.725,4.015
			c-1.467,0.024-2.473-1.062-2.58-2.401c-0.182-2.286,2.612-5.67,4.385-5.401C54.474,16.192,54.759,18.12,55.348,19.668z"/>
		<path style="fill-rule:evenodd;clip-rule:evenodd;fill:#7B491E;" d="M55.357,50.8c0.055,1.917-1.96,4.124-3.91,3.973
			c-1.417-0.109-2.925-0.817-2.353-2.617c0.55-1.731-2.24-4.545,1.484-5.181C52.566,46.635,55.307,49.037,55.357,50.8z"/>
		<path style="fill-rule:evenodd;clip-rule:evenodd;fill:#7B491E;" d="M223.58,232.432c2.112-0.271,3.18,0.675,3.081,3.089
			c-0.102,2.538-1.245,3.817-3.758,3.752c-2.071-0.054-3.118-1.146-3.127-3.258C219.766,233.57,220.864,232.447,223.58,232.432z"/>
		<path style="fill-rule:evenodd;clip-rule:evenodd;fill:#7B491E;" d="M53.747,95.977c-1.131,0.2-1.972-0.898-2.345-1.778
			c-0.479-1.128-1.476-2.461-0.335-3.833c0.151-0.183,0.2-0.566,0.359-0.607c1.899-0.487,3.666,0.578,5.579,0.508
			c1.078-0.04,1.204,1.475,1.651,2.354c0.488,0.962-0.196,1.697-0.823,2.055C56.678,95.335,55.413,95.878,53.747,95.977z"/>
		<path style="fill-rule:evenodd;clip-rule:evenodd;fill:#7B491E;" d="M15.488,96.992c2.073-0.044,4.991,3.604,4.448,5.566
			c-0.788,2.846-2.842,1.486-4.35,1.129c-2.268-0.538-3.568-3.164-2.683-5.053C13.383,97.611,14.214,96.89,15.488,96.992z"/>
		<path style="fill-rule:evenodd;clip-rule:evenodd;fill:#7B491E;" d="M243.884,225.055c1.465-0.321,2.985,0.216,3.734,1.647
			c0.511,0.979,1.436,2.435-0.074,3.499c-1.629,1.146-3.458,0.911-5.144,0.239c-0.672-0.268-1.427-0.758-1.806-1.649
			C239.495,226.193,240.394,225.048,243.884,225.055z"/>
		<path style="fill-rule:evenodd;clip-rule:evenodd;fill:#7B491E;" d="M360.516,64.759c0.313,2.03-1.046,3.124-2.53,3.081
			c-1.397-0.041-3.401-0.396-3.301-2.764c0.04-0.934,0.003-1.828-0.42-2.77c-0.381-0.849-0.119-1.747,1.059-2.277
			c1.02-0.458,1.702-0.602,2.507,0.271C359.046,61.619,360.319,62.879,360.516,64.759z"/>
		<path style="fill-rule:evenodd;clip-rule:evenodd;fill:#7B491E;" d="M210.272,178.151c1.732-0.118,3.263,0.187,3.184,2.538
			c-0.088,2.615-1.527,3.812-4.339,3.801c-2.178-0.01-2.812-1.53-2.982-3.182C205.926,179.283,207.538,178.14,210.272,178.151z"/>
		<path style="fill-rule:evenodd;clip-rule:evenodd;fill:#7B491E;" d="M375.78,70.849c-0.487-2.154,1.17-2.943,2.897-3.186
			c1.652-0.233,3.449,2.016,3.425,3.825c-0.031,2.27-1.374,3.922-3.163,3.894C377.319,75.356,375.763,73.227,375.78,70.849z"/>
		<path style="fill-rule:evenodd;clip-rule:evenodd;fill:#7B491E;" d="M235.069,190.228c0.132,2.178-1.373,2.146-2.767,2.14
			c-2.271-0.009-4.345-1.967-4.025-4.06c0.219-1.434,0.682-3.121,2.602-3.275C232.42,184.908,235.092,188.392,235.069,190.228z"/>
		<path style="fill-rule:evenodd;clip-rule:evenodd;fill:#7B491E;" d="M21.63,20.226c0.016-1.351,2.426-4.012,3.686-3.822
			c1.527,0.231,3.135,0.708,3.143,2.72c0.008,2.062-2.462,4.701-4.383,4.566C22.023,23.546,21.519,22.04,21.63,20.226z"/>
		<path style="fill-rule:evenodd;clip-rule:evenodd;fill:#7B491E;" d="M230.434,168.665c-1.628,0.09-2.69-0.487-2.746-2.293
			c-0.101-3.287,0.95-5.12,2.956-5.08c2.047,0.041,3.103,1.36,3.318,3.152C234.22,166.591,232.357,168.623,230.434,168.665z"/>
		<path style="fill-rule:evenodd;clip-rule:evenodd;fill:#7B491E;" d="M346.792,104.5c0.036,2.31-1.653,4.542-3.536,4.603
			c-2.647,0.086-2.318-2.282-2.657-3.71c-0.385-1.62,2.412-4.466,3.855-4.123C345.977,101.633,346.98,102.724,346.792,104.5z"/>
		<path style="fill-rule:evenodd;clip-rule:evenodd;fill:#7B491E;" d="M185.614,198.175c-1.654-0.037-3.345-2.339-3.251-4.361
			c0.099-2.131,1.705-2.616,3.301-2.808c1.565-0.189,2.997,2.157,3.046,4.406C188.759,197.628,187.631,198.356,185.614,198.175z"/>
		<path style="fill-rule:evenodd;clip-rule:evenodd;fill:#7B491E;" d="M320.965,68.583c0.047-1.845,2.081-3.779,3.746-3.737
			c1.438,0.037,3.1,2.19,3.125,3.862c0.042,2.817-2.481,2.583-3.874,2.667C322.738,71.45,320.529,70.83,320.965,68.583z"/>
		<path style="fill-rule:evenodd;clip-rule:evenodd;fill:#7B491E;" d="M255.635,191.82c0.106-0.836,0.394-2.314,2.12-2.563
			c1.861-0.269,2.489,0.854,2.688,2.624c0.148,1.313,1.713,2.362,0.448,3.974c-1.213,1.546-2.661,1.758-3.882,0.282
			C255.796,194.669,255.583,194.102,255.635,191.82z"/>
		<path style="fill-rule:evenodd;clip-rule:evenodd;fill:#7B491E;" d="M318.37,158.956c0.015-0.994,0.077-2.204,1.286-2.339
			c1.008-0.113,1.678,0.756,1.828,1.811c0.072,0.507-0.109,1.215,0.449,1.4c3.252,1.076,1.67,3.55,1.662,5.562
			c-0.001,0.395,0.165,0.926-0.386,1.097c-0.522,0.162-0.995,0.05-1.396-0.412C320.027,164.013,318.297,161.934,318.37,158.956z"/>
		<path style="fill-rule:evenodd;clip-rule:evenodd;fill:#7B491E;" d="M269.846,194.73c0.104,1.658-0.334,3.213-1.977,3.745
			c-1.324,0.429-3.773-2.243-3.816-3.849c-0.044-1.601,1.91-4.094,3.184-3.732C268.995,191.393,270.004,192.753,269.846,194.73z"/>
		<path style="fill-rule:evenodd;clip-rule:evenodd;fill:#7B491E;" d="M359.17,96.435c-2.155,0.394-3.177-1.122-3.307-2.74
			c-0.144-1.797-1.144-4.525,0.634-5.313c1.683-0.746,2.13,2.083,3.178,3.287c0.343,0.395,0.703,0.787,1.112,1.106
			c1.002,0.784,0.945,1.874,0.648,2.848C361.117,96.671,360.066,96.496,359.17,96.435z"/>
		<path style="fill-rule:evenodd;clip-rule:evenodd;fill:#7B491E;" d="M272.557,55.883c-2.329,0.167-3.226-0.939-3.286-3.244
			c-0.048-1.807,0.606-2.876,2.312-3.006c1.592-0.122,4.795,2.931,4.56,4.254C275.783,55.903,274.14,55.906,272.557,55.883z"/>
		<path style="fill-rule:evenodd;clip-rule:evenodd;fill:#7B491E;" d="M27.386,112.301c-1.778-0.223-2.451-1.697-2.606-3.69
			c-0.224-2.881,2.354-2.698,3.712-2.76c2.021-0.092,2.436,2.118,2.553,3.715C31.193,111.594,29.717,112.301,27.386,112.301z"/>
		<path style="fill-rule:evenodd;clip-rule:evenodd;fill:#7B491E;" d="M60.623,12.224c-0.016,1.918-1.82,4.092-3.212,4.103
			c-1.265,0.01-3.157-2.111-3.097-3.472c0.055-1.238,2.481-3.996,3.499-3.854C59.772,9.276,59.928,11.105,60.623,12.224z"/>
		<path style="fill-rule:evenodd;clip-rule:evenodd;fill:#7B491E;" d="M31.52,27.441c-1.68-0.011-2.579-0.802-2.51-2.55
			c0.063-1.614,2.265-4.22,3.617-4.287c1.275-0.063,2.785,1.922,2.692,3.541C35.199,26.263,33.794,27.48,31.52,27.441z"/>
		<path style="fill-rule:evenodd;clip-rule:evenodd;fill:#7B491E;" d="M114.383,180.152c0-0.775,0.04-1.304-0.008-1.824
			c-0.125-1.382,0.308-2.428,1.739-2.789c1.401-0.354,2.22,0.743,2.712,1.643c0.52,0.949,0.707,2.114-0.405,3.191
			c-2.053,1.989-2.031,2.133-4.033,0.851c-0.565-0.362-0.425-0.003-0.561,0.236c-0.432,0.756-1.15,1.354-1.855,0.675
			c-0.529-0.51-1.153-1.393-0.561-2.325c0.626-0.987,1.35,0.147,2.04-0.032C113.648,179.727,113.918,179.956,114.383,180.152z"/>
		<path style="fill-rule:evenodd;clip-rule:evenodd;fill:#7B491E;" d="M335.239,62.219c-0.047,2.366-0.954,3.753-3.069,3.63
			c-2.053-0.12-2.868-1.542-2.778-3.558c0.088-1.945,1.615-3.567,3.458-3.175C334.495,59.465,335.447,60.707,335.239,62.219z"/>
		<path style="fill-rule:evenodd;clip-rule:evenodd;fill:#7B491E;" d="M227.77,152.988c1.225,0.416,2.582,0.527,3.013,1.863
			c0.418,1.295-0.104,2.269-1.355,2.868c-0.527,0.253-1.039,0.58-1.477,0.966c-0.688,0.607-1.446,1.644-2.281,1.22
			c-0.985-0.499-1.147-1.761-1.162-2.941C224.467,153.604,224.979,152.957,227.77,152.988z"/>
		<path style="fill-rule:evenodd;clip-rule:evenodd;fill:#7B491E;" d="M362.603,102.06c-0.031,1.55-2.144,3.412-3.924,3.351
			c-2.141-0.074-2.33-1.959-2.293-3.289c0.043-1.532,0.768-3.215,2.68-3.507C360.462,98.401,362.63,100.641,362.603,102.06z"/>
		<path style="fill-rule:evenodd;clip-rule:evenodd;fill:#7B491E;" d="M107.462,168.189c0.926-0.128,1.26,0.315,1.598,0.696
			c0.768,0.867,1.553,1.543,2.87,1.393c0.991-0.112,1.59,0.702,1.874,1.511c0.415,1.179-0.471,1.878-1.211,2.639
			c-0.793,0.816-1.452,0.567-2.283,0.075c-1.083-0.641-1.769-1.807-3.272-1.982c-0.639-0.074-1.347-1.434-1.005-2.388
			C106.317,169.337,107.062,168.708,107.462,168.189z"/>
		<path style="fill-rule:evenodd;clip-rule:evenodd;fill:#7B491E;" d="M110.692,178.862c0.063,0.643-0.03,1.279-0.657,1.799
			c-1.196,0.992-2.803,1.193-3.362-0.095c-0.765-1.76-4.222-2.463-2.274-5.315c0.191-0.28,0.474-0.565,0.779-0.688
			C106.626,173.981,110.729,177.14,110.692,178.862z"/>
		<path style="fill-rule:evenodd;clip-rule:evenodd;fill:#7B491E;" d="M352.052,57.918c0.206,1.951-0.321,3.319-2.754,3.255
			c-2.385-0.062-2.439-1.741-2.492-3.4c-0.065-2.067,1.373-3.621,3.224-3.449C352.27,54.532,352.1,56.246,352.052,57.918z"/>
		<path style="fill-rule:evenodd;clip-rule:evenodd;fill:#7B491E;" d="M21.63,99.636c-0.196-1.682,0.846-2.694,2.19-3.068
			c1.052-0.293,3.914,3.081,3.761,4.197c-0.199,1.448-0.251,3.09-2.357,3.067C23.867,103.816,21.633,101.164,21.63,99.636z"/>
		<path style="fill-rule:evenodd;clip-rule:evenodd;fill:#7B491E;" d="M271.963,196.77c-0.101-2.051,0.79-4.193,2.647-4.144
			c1.496,0.04,2.654,2.146,2.622,4.156c-0.031,1.975-1.461,3.293-2.937,3.343C272.739,200.178,271.709,198.628,271.963,196.77z"/>
		<path style="fill-rule:evenodd;clip-rule:evenodd;fill:#7B491E;" d="M243.429,258.783c-1.681,0.429-3.054-0.419-4.22-1.885
			c-0.477-0.599-1.072-1.001-0.464-1.897c0.562-0.828,1.23-1.401,2.203-1.094c1.682,0.531,3.355,1.127,4.95,1.871
			c0.737,0.344,1.544,1.005,1.238,2.054c-0.315,1.08-1.276,0.969-2.145,0.952C244.557,258.775,244.122,258.783,243.429,258.783z"/>
		<path style="fill-rule:evenodd;clip-rule:evenodd;fill:#7B491E;" d="M312.364,248.175c-3.151-2.505-1.442-5.604-1.434-8.459
			c0.004-1.141,0.74-0.951,1.41-0.956c0.945-0.007,1.721-0.045,2.349,1.092c1.155,2.088-0.155,3.634-0.913,5.192
			C313.291,246.043,312.607,246.981,312.364,248.175z"/>
		<path style="fill-rule:evenodd;clip-rule:evenodd;fill:#7B491E;" d="M327.699,183.985c-0.738,0.856-0.073,3.329-2.632,3.635
			c-1.215,0.146-3.066-2.359-3.044-3.992c0.022-1.666,1.19-2.888,2.479-2.686C325.697,181.129,328.248,180.587,327.699,183.985z"/>
		<path style="fill-rule:evenodd;clip-rule:evenodd;fill:#7B491E;" d="M225.58,149.143c0.032,2.46-0.977,3.144-3.974,3.216
			c-1.708,0.041-2.122-1.16-2.256-2.279c-0.184-1.529,2.23-4.089,3.512-3.826C224.414,146.571,225.949,147.156,225.58,149.143z"/>
		<path style="fill-rule:evenodd;clip-rule:evenodd;fill:#7B491E;" d="M39.081,14.817c-2.055,0.193-2.727-1.216-2.621-2.718
			c0.134-1.898,1.529-2.653,3.454-2.618c1.759,0.032,2.917,0.599,2.775,2.519C42.525,14.209,40.789,14.538,39.081,14.817z"/>
		<path style="fill-rule:evenodd;clip-rule:evenodd;fill:#7B491E;" d="M336.78,153.682c-0.279-1.365,0.228-2.566,1.917-2.736
			c1.342-0.135,3.407,2.517,3.317,4.206c-0.073,1.37-0.845,2.51-2.223,2.763C338.432,158.165,336.779,155.817,336.78,153.682z"/>
		<path style="fill-rule:evenodd;clip-rule:evenodd;fill:#7B491E;" d="M300.426,233.228c-0.12-1.602,0.349-2.752,1.973-2.874
			c1.656-0.125,2.258,1.083,2.352,2.461c0.07,1.041-0.05,2.137-0.313,3.149c-0.271,1.04-1.136,1.699-2.222,1.701
			c-1.155,0.003-1.2-0.911-1.31-1.837C300.799,234.919,300.183,234.087,300.426,233.228z"/>
		<path style="fill-rule:evenodd;clip-rule:evenodd;fill:#7B491E;" d="M70.641,175.45c-0.005,0.953,0.146,2.068-1.25,2.116
			c-1.825,0.064-4.631-1.895-4.477-3.267c0.161-1.438,0.755-2.901,2.602-2.981C68.896,171.26,70.619,173.607,70.641,175.45z"/>
		<path style="fill-rule:evenodd;clip-rule:evenodd;fill:#7B491E;" d="M79.061,183.25c0.484,2.697-2.095,2.565-3.309,3.149
			c-0.957,0.461-2.496,1.909-4.066,0.25c-0.726-0.767-0.466-1.412-0.462-2.089c0.005-0.816,0.661-1.109,1.458-1.147
			c1.708-0.082,3.511,0.529,4.832-1.472C77.938,181.3,79.359,181.864,79.061,183.25z"/>
		<path style="fill-rule:evenodd;clip-rule:evenodd;fill:#7B491E;" d="M46.385,191.976c0.148,1.778-0.351,3.464-2.179,3.417
			c-1.482-0.039-3.489-0.877-3.499-2.76c-0.01-1.928,1.53-2.821,3.516-2.914C45.988,189.637,46.634,190.376,46.385,191.976z"/>
		<path style="fill-rule:evenodd;clip-rule:evenodd;fill:#7B491E;" d="M351.535,84.834c0.273-1.265,0.642-2.828,2.538-3.098
			c1.407-0.2,3.296,2.258,3.269,4.026c-0.014,0.865-0.153,1.63-1.188,1.682C353.119,87.596,351.55,86.789,351.535,84.834z"/>
		<path style="fill-rule:evenodd;clip-rule:evenodd;fill:#7B491E;" d="M322.55,152.148c-0.001,3.377-0.639,4.003-2.832,2.781
			c-1.033-0.575-1.727-4.427-0.921-5.387c0.579-0.69,1.205-1.354,2.303-1.059c1.109,0.299,1.576,0.951,1.459,2.089
			C322.505,151.093,322.55,151.623,322.55,152.148z"/>
		<path style="fill-rule:evenodd;clip-rule:evenodd;fill:#7B491E;" d="M248.264,216.093c-2.191,0.022-4.858-1.688-4.666-3.064
			c0.136-0.976,0.456-2.251,2.022-2.214c1.69,0.04,4.09,2.326,4.229,3.924C249.988,216.329,248.999,216.129,248.264,216.093z"/>
		<path style="fill-rule:evenodd;clip-rule:evenodd;fill:#7B491E;" d="M333.079,91.09c-0.361-1.648,0.949-2.427,2.355-2.417
			c0.96,0.006,2.698-0.031,2.436,2.066c-0.248,1.981-1.024,3.878-2.948,3.999C333.11,94.851,333.099,92.835,333.079,91.09z"/>
		<path style="fill-rule:evenodd;clip-rule:evenodd;fill:#7B491E;" d="M342.537,212.309c0.238,1.466-0.021,2.921-1.53,3.159
			c-1.603,0.252-2.118-1.041-2.158-2.537c-0.022-0.827-1.097-1.343-0.565-2.487c0.521-1.12,1.628-1.855,2.31-1.584
			C341.939,209.396,343.002,210.582,342.537,212.309z"/>
		<path style="fill-rule:evenodd;clip-rule:evenodd;fill:#7B491E;" d="M312.006,169.856c0,0.524,0.026,1.051-0.005,1.574
			c-0.068,1.101-0.756,1.885-1.75,1.91c-1.14,0.03-1.785-0.776-1.953-1.998c-0.181-1.318,0.654-2.545,0.159-3.937
			c-0.133-0.373,0.775-1.428,1.67-1.332c0.935,0.099,1.481,0.959,1.815,1.706c0.262,0.582,0.053,1.376,0.053,2.076
			C312,169.856,312.002,169.856,312.006,169.856z"/>
		<path style="fill-rule:evenodd;clip-rule:evenodd;fill:#7B491E;" d="M304.228,218.658c0.839,1.076,2.438,1.547,2.513,3.302
			c0.088,2.084-1.669,2.61-3.018,2.956c-1.138,0.293-1.737-0.723-1.791-2.128C301.862,220.914,302.453,219.634,304.228,218.658z"/>
		<path style="fill-rule:evenodd;clip-rule:evenodd;fill:#7B491E;" d="M331.521,212.951c-0.286-1.188,0.342-2.095,1.452-2.575
			c0.65-0.28,3.223,2.652,3.252,3.685c0.039,1.393-0.842,2.298-2.061,2.489c-1.479,0.233-2.284-0.826-2.628-2.172
			C331.433,213.969,331.521,213.511,331.521,212.951z"/>
		<path style="fill-rule:evenodd;clip-rule:evenodd;fill:#7B491E;" d="M306.167,230.165c0.22-1.255-0.54-3.022,1.598-2.964
			c1.781,0.048,2.942,1.54,2.898,2.954c-0.039,1.271-1.182,2.742-2.898,2.773C305.592,232.968,306.44,231.182,306.167,230.165z"/>
		<path style="fill-rule:evenodd;clip-rule:evenodd;fill:#7B491E;" d="M316.059,174.501c-0.37-0.624-1.774-0.51-1.343-1.308
			c0.984-1.818-2.698-3.265-0.25-5.035c0.806-0.582,1.722-0.27,2.326,0.065c1.064,0.591,1.398,1.981,1.221,2.983
			C317.803,172.395,317.696,173.979,316.059,174.501z"/>
		<path style="fill-rule:evenodd;clip-rule:evenodd;fill:#7B491E;" d="M343.214,184.563c0.079-0.354-0.773-1.921,1.297-1.671
			c1.731,0.209,3.071,1.387,3.127,2.823c0.033,0.865-0.476,3.112-2.236,2.874C343.757,188.366,342.837,186.976,343.214,184.563z"/>
		<path style="fill-rule:evenodd;clip-rule:evenodd;fill:#7B491E;" d="M232.487,247.411c-0.22-1.848,0.48-2.373,1.928-2.354
			c1.617,0.021,2.774,0.492,2.739,2.305c-0.026,1.401-0.272,2.966-2.087,2.936C233.131,250.266,233.044,248.362,232.487,247.411z"/>
		<path style="fill-rule:evenodd;clip-rule:evenodd;fill:#7B491E;" d="M331.509,251.138c0.264-1.04-0.668-2.579,0.909-3.349
			c0.478-0.233,1.281-0.307,1.71,0.224c0.915,1.133,0.692,2.38,0.151,3.613c-0.066,0.152-0.094,0.324-0.123,0.49
			c-0.197,1.138,0.592,3.066-1.481,2.878c-1.915-0.173-0.919-2.051-1.16-3.191C331.479,251.637,331.509,251.456,331.509,251.138z"/>
		<path style="fill-rule:evenodd;clip-rule:evenodd;fill:#7B491E;" d="M337.503,241.425c0.852-0.341,1.422,0.489,2.198,0.501
			c1.145,0.02,1.538,1.039,1.504,1.758c-0.026,0.551-1.019,0.867-1.798,0.877c-1.176,0.016-2.25-0.06-3.376,0.83
			c-0.883,0.698-1.554-0.775-2.076-1.433c-0.285-0.359,0.025-1.46,0.784-1.45C335.88,242.521,336.278,240.95,337.503,241.425z"/>
		<path style="fill-rule:evenodd;clip-rule:evenodd;fill:#7B491E;" d="M325.695,170.905c0.297,1.935-1.206,2.778-2.177,3.812
			c-0.684,0.729-1.403-0.122-1.433-0.775c-0.071-1.563,0.02-3.147,0.213-4.702c0.076-0.615,0.555-1.534,1.388-1.034
			C324.696,168.812,326.201,169.261,325.695,170.905z"/>
		<path style="fill-rule:evenodd;clip-rule:evenodd;fill:#7B491E;" d="M210.798,256.306c-0.309,0.945-0.301,2.594-2.245,2.445
			c-1.445-0.109-2.08-1.114-1.933-2.527c0.148-1.42,0.713-3.042,2.135-3.059C209.827,253.151,210.957,254.412,210.798,256.306z"/>
		<path style="fill-rule:evenodd;clip-rule:evenodd;fill:#7B491E;" d="M121.775,160.776c0.391-0.692-0.971-2.927,1.718-2.124
			c0.955,0.286,2.292,4.449,1.722,5.233c-0.413,0.568-1.008,0.63-1.628,0.55c-0.962-0.124-1.545-0.771-1.782-1.627
			C121.649,162.245,121.775,161.604,121.775,160.776z"/>
		<path style="fill-rule:evenodd;clip-rule:evenodd;fill:#7B491E;" d="M342.117,94.333c0.165-0.76-0.738-2.253,1.179-2.08
			c1.807,0.164,2.525,1.228,2.452,2.976c-0.046,1.092-0.025,2.792-1.168,2.642C343.045,97.669,341.438,96.605,342.117,94.333z"/>
		<path style="fill-rule:evenodd;clip-rule:evenodd;fill:#7B491E;" d="M293.914,225.07c1.77-0.107,2.87,0.562,2.758,2.147
			c-0.104,1.473-1.093,2.555-2.692,2.549c-1.942-0.005-1.415-1.573-1.452-2.687C292.491,226,292.104,224.531,293.914,225.07z"/>
		<path style="fill-rule:evenodd;clip-rule:evenodd;fill:#7B491E;" d="M56.051,206.923c0.129,1.901-1.682,1.898-2.953,2.07
			c-1.147,0.155-1.928-0.971-1.914-2.141c0.021-1.698,1.202-1.946,2.652-1.849C55.066,205.087,56.517,204.668,56.051,206.923z"/>
		<path style="fill-rule:evenodd;clip-rule:evenodd;fill:#7B491E;" d="M59.039,200.229c-0.07,1.727,0.284,3.749-2.625,3.245
			c-0.859-0.149-1.795,0.045-2.083-1.086c-0.281-1.104,0.438-1.733,1.092-2.473c0.688-0.777,1.199-0.517,2.007-0.235
			c0.543,0.188,0.797,1.377,1.656,0.599C59.085,200.278,59.039,200.229,59.039,200.229z"/>
		<path style="fill-rule:evenodd;clip-rule:evenodd;fill:#7B491E;" d="M49.044,191.621c-0.154-1.376,0.174-2.791,1.778-2.791
			c0.882,0,2.096,0.707,1.937,2.277c-0.145,1.427-0.789,2.528-2.062,2.788C49.046,194.232,48.976,192.892,49.044,191.621z"/>
		<path style="fill-rule:evenodd;clip-rule:evenodd;fill:#7B491E;" d="M229.276,237.7c1.611-0.056,2.623,0.597,2.562,2.034
			c-0.052,1.207-0.891,1.807-2.267,1.691c-1.418-0.117-2.301-0.661-2.392-2.106C227.072,237.627,228.287,237.661,229.276,237.7z"/>
		<path style="fill-rule:evenodd;clip-rule:evenodd;fill:#7B491E;" d="M243.497,103.248c0.046,1.096,0.013,2.309-1.484,2.131
			c-1.752-0.207-1.879-1.856-2.173-3.168c-0.288-1.282,1.136-1.938,1.673-1.791C242.708,100.748,243.708,101.696,243.497,103.248z"
			/>
		<path style="fill-rule:evenodd;clip-rule:evenodd;fill:#7B491E;" d="M320.945,140.643c1.054,1.013,2.644,1.621,2.645,3.481
			c0,0.957-0.712,1.665-1.504,1.276c-1.277-0.627-2.586-1.472-2.689-3.184C319.337,141.244,319.912,140.829,320.945,140.643z"/>
		<path style="fill-rule:evenodd;clip-rule:evenodd;fill:#7B491E;" d="M82.766,188.165c-0.07-1.152,0.071-2.104,1.583-2.118
			c1.552-0.015,1.887,1.255,2.014,2.236c0.14,1.084-0.676,2.356-1.723,2.412C83.244,190.771,82.633,189.582,82.766,188.165z"/>
		<path style="fill-rule:evenodd;clip-rule:evenodd;fill:#7B491E;" d="M340.421,118.541c-0.211,0.433,0.574,1.805-0.717,1.549
			c-1.521-0.301-2.674-1.465-2.897-3.137c-0.144-1.076,0.549-1.603,1.594-1.502C340.183,115.623,340.63,116.799,340.421,118.541z"/>
		<path style="fill-rule:evenodd;clip-rule:evenodd;fill:#7B491E;" d="M323.442,217.182c-0.036,0.147-0.961,1.079-1.257,0.902
			c-1.052-0.629-2.706-0.699-2.812-2.486c-0.072-1.22,1.007-1.581,1.582-1.496C322.219,214.288,323.339,215.007,323.442,217.182z"/>
		<path style="fill-rule:evenodd;clip-rule:evenodd;fill:#7B491E;" d="M84.355,182.796c-0.035,1.479-0.848,1.685-1.924,1.693
			c-1.601,0.013-1.683-1.14-1.755-2.229c-0.074-1.098,0.608-1.544,1.644-1.467C83.664,180.894,84.229,181.739,84.355,182.796z"/>
		<path style="fill-rule:evenodd;clip-rule:evenodd;fill:#7B491E;" d="M56.941,190.139c0.032,0.997-0.365,1.96-1.414,1.631
			c-1.109-0.349-1.763-1.605-1.995-2.675c-0.17-0.781,0.723-1.587,1.661-1.411C56.431,187.916,57.053,188.821,56.941,190.139z"/>
		<path style="fill-rule:evenodd;clip-rule:evenodd;fill:#7B491E;" d="M327.812,174.219c0.028,1.128,0.122,2.194-1.196,2.315
			c-1.114,0.103-1.328-0.675-1.462-1.652c-0.21-1.523,1.061-2.051,1.874-2.24C327.869,172.445,327.826,173.646,327.812,174.219z"/>
		<path style="fill-rule:evenodd;clip-rule:evenodd;fill:#7B491E;" d="M329.892,242.718c-0.226,0.173-0.582,0.643-0.829,0.591
			c-0.348-0.073-0.828-0.485-0.656-0.966c0.118-0.327,0.593-0.805,0.806-0.757C329.564,241.664,329.946,242.038,329.892,242.718z"/>
	</g>
</g>
</svg>
