<?xml version="1.0" encoding="iso-8859-1"?>
<!-- Generator: Adobe Illustrator 16.0.0, SVG Export Plug-In . SVG Version: 6.00 Build 0)  -->
<!DOCTYPE svg PUBLIC "-//W3C//DTD SVG 1.1//EN" "http://www.w3.org/Graphics/SVG/1.1/DTD/svg11.dtd">
<svg version="1.1" id="Layer_1" xmlns="http://www.w3.org/2000/svg" xmlns:xlink="http://www.w3.org/1999/xlink" x="0px" y="0px"
	 width="401.549px" height="181.479px" viewBox="0 0 401.549 181.479" style="enable-background:new 0 0 401.549 181.479;"
	 xml:space="preserve">
<g>
	<g>
		<path style="fill:none;" d="M200.774,180.935c-66.051,0-132.103-0.008-198.154,0.044c-1.73,0.001-2.121-0.39-2.12-2.119
			c0.052-58.747,0.052-117.494,0-176.24C0.499,0.889,0.89,0.499,2.62,0.5c132.103,0.047,264.206,0.047,396.309,0
			c1.729-0.001,2.121,0.389,2.12,2.119c-0.053,58.746-0.053,117.493,0,176.24c0.001,1.729-0.391,2.12-2.12,2.119
			C332.877,180.927,266.825,180.935,200.774,180.935z M330.436,148.063c-1.377,0.054-2.817-0.01-3.662,1.358
			c-0.915,1.481-0.278,2.931,0.575,4.141c1.383,1.958,3.457,3.375,5.685,3.74c3.976,0.65,8.055,0.832,11.969-0.727
			c0.387-0.154,1.092-0.204,1.312,0.024c1.288,1.338,2.895,0.612,4.351,0.804c0.727,0.096,1.494-0.216,2.149,0.466
			c1.265,1.318,3.043,1.487,4.7,1.807c0.942,0.181,2.168,0.007,2.36,1.143c0.197,1.171-1.075,1.49-1.901,1.967
			c-0.447,0.259-0.947,0.432-1.436,0.61c-2.58,0.945-1.489,2.918-1.153,4.537c0.312,1.509,1.444,2.385,3,1.754
			c1.119-0.454,1.485,0.002,1.527,0.86c0.117,2.385,2.092,1.966,2.972,1.437c2.772-1.666,5.71-1.837,8.729-1.62
			c1.334,0.096,2.445-0.29,3.315-1.079c3.358-3.047,7.374-4.941,11.413-6.831c1.854-0.866,2.634-4.339,1.195-5.788
			c-2.204-2.221-4.142-4.868-7.59-5.429c-0.569-0.092-1.479-0.363-0.745-1.552c0.464-0.752,0.247-1.926-1.108-1.948
			c-1.218-0.02-1.734-0.76-2.124-1.721c-0.788-1.942-2.237-2.835-4.246-3.501c-1.404-0.466-3.539-0.784-3.89-2.753
			c-0.524-2.938-3.349-5.191-6.176-4.405c-1.723,0.479-3,0.057-4.275-1.017c-1.028-0.864-2.118-1.116-3.549-0.666
			c-4.328,1.36-7.235,4.206-8.998,8.25c-1.112,2.555-2.554,4.488-5.427,5.318C336.442,148.1,333.579,149.209,330.436,148.063z
			 M159.713,97.251c-0.003,4.124,0.833,5.101,4.682,5.75c0.573,0.097,1.332,0.232,1.63,0.63c2.184,2.914,5.283,2.717,8.352,2.549
			c2.584-0.142,4.124-2.143,5.811-3.702c1.088-1.005,2.313-1.29,3.308-0.716c2.222,1.284,4.137,1.947,6.818,0.835
			c4.182-1.735,8.604-2.911,11.32-6.924c0.341-0.502,0.658-0.444,1.066-0.564c2.141-0.629,3.067-2.432,3.542-4.31
			c0.49-1.936-0.133-4.065-1.834-5.006c-1.589-0.879-3.754-0.818-5.463,0.138c-2.215,1.24-4.213,2.825-6.979,1.396
			c-0.604-0.312-1.716-0.336-2.245,0.022c-2.517,1.706-4.562-0.417-6.821-0.654c-1.834-0.192-3.391-1.425-5.355-1.298
			c-1.967,0.128-2.761-1.411-1.868-3.245c0.687-1.413,0.715-2.824-0.142-4.21c-1.527-2.473-4.062-4.07-5.628-6.507
			c-0.247-0.383-0.685-0.345-1.046-0.292c-3.44,0.502-6.821,0.969-9.853,3.075c-1.382,0.96-1.811,2.838-4.148,3.06
			c-3.789,0.361-7.649,1.149-10.955,3.392c-2.078,1.409-2.082,3.376,0.117,4.499c1.367,0.697,2.984,0.938,4.285,1.723
			c2.018,1.218,3.919,1.312,5.903,0.139c0.785-0.465,1.416-0.18,1.736,0.462c0.746,1.492,2.095,2.368,3.218,3.482
			c0.908,0.901,1.942,1.686,1.109,3.387C159.869,95.184,159.352,96.306,159.713,97.251z M287.195,164.326
			c-0.467,0-0.621-0.008-0.774,0.001c-1.719,0.098-4.176,0.24-4.536-1.303c-0.394-1.679,2.111-2.104,3.499-2.972
			c1.809-1.129,4.132-1.461,5.309-3.673c0.808-1.519,0.602-2.06-1.046-2.21c-1.398-0.127-2.914,0.622-4.16-0.101
			c-1.217-0.706-2.245-0.145-2.884,0.396c-1.038,0.88-1.437,1.187-1.552-0.444c-0.062-0.885-0.661-1.572-1.37-1.609
			c-1.564-0.081-3.17-0.401-4.709,0.381c-2.173,1.105-4.135,2.479-5.784,4.268c-0.572,0.622-1.225,1.075-1.991,0.75
			c-0.747-0.317-0.372-1.195-0.54-1.776c-0.93-3.218-0.367-7.462-5.145-8.315c-0.214-0.038-0.449-0.081-0.625-0.196
			c-3.326-2.177-6.243-1.812-8.319,1.325c-1.903,2.872-4.547,4.448-7.756,5.361c-0.873,0.249-1.713,0.651-2.089,1.722
			c-0.675,1.923,1.219,4.229,3.728,4.222c2.947-0.009,5.653-1.281,8.456-1.986c1.559-0.392,2.187,0.028,2.585,1.206
			c1.118,3.297,4.742,4.658,5.979,7.856c0.103,0.265,0.612,0.391,0.951,0.541c4.795,2.125,9.97,2.517,15.066,2.938
			c4.643,0.385,9.242-0.566,13.796-1.623c1.42-0.329,2.745-0.597,3.903-1.513c0.548-0.434,1.081-0.362,1.826-0.102
			c1.308,0.459,2.112-0.56,2.884-1.555c0.562-0.726,0.199-1.024-0.228-1.518c-0.861-0.996-1.734-1.376-2.971-0.568
			c-0.994,0.649-2.26,0.872-3.25,0.278c-1.395-0.838-2.648-0.747-4.081-0.269C289.928,164.32,288.413,164.491,287.195,164.326z
			 M97.608,149.469c0.256-0.784,0.524-1.389,1.394-1.855c2.761-1.481,4.659-3.991,6.762-6.228c0.555-0.59,1.308-1.372,0.677-2.397
			c-0.62-1.006-1.68-1.277-2.6-0.88c-0.986,0.427-1.93,0.368-2.901,0.37c-1.671,0.004-2.953,0.642-4.2,1.801
			c-2.942,2.735-5.182,6.208-8.722,8.311c-2.516,1.495-5.134,3.316-8.111,1.817c-4.313-2.172-9.572,0.031-11.878,2.552
			c-0.825,0.902-1.65,1.514-2.82,1.914c-1.751,0.599-3.388,1.527-5.099,2.255c-1.388,0.591-1.691,1.775-1.364,2.961
			c0.299,1.085,1.112,1.963,2.487,1.938c1.974-0.037,4.112-0.23,5.496-1.51c2.68-2.478,5.958-2.523,8.92-2.059
			c6.165,0.964,12.315,0.677,18.477,0.793c1.15,0.022,2.396-0.235,3.432,0.118c3.87,1.322,7.756,1.342,11.433-0.211
			c2.84-1.198,6.151-1.657,8.256-4.294c0.364-0.457,1.313-0.662,0.711-1.641c-0.477-0.775-0.781-1.729-1.837-1.786
			c-0.98-0.053-2.093-0.173-2.936,0.207c-2.377,1.068-5.097,0.291-7.432,1.556c-0.415,0.225-1.331,0.378-1.825-0.295
			c0.052-0.581,0.426-0.786,0.826-1.038c3.078-1.946,6.191-3.776,9.718-4.867c1.367-0.423,2.417-1.372,2.381-3.188
			c-0.037-1.824-1.407-2.297-2.523-2.336c-1.642-0.057-3.612-0.206-4.891,1.008c-2.724,2.586-6.05,4.225-9.075,6.331
			C99.434,149.462,98.643,149.66,97.608,149.469z M251.35,100.335c-0.553-1.121-0.368-2.666-1.886-2.877
			c-0.968-0.134-2.056-0.257-2.675,0.802c-0.958,1.635,0.098,3.041,0.69,4.43c0.356,0.833,1.11,1.242,2.176,0.779
			c0.973-0.421,1.802-0.035,2.781,0.526c1.972,1.131,3.374,3.307,6.104,3.247c-0.5,1.051-0.928,2.07-0.404,2.945
			c1.076,1.798,2.609,3.45,0.469,5.516c-0.114,0.11,0.2,0.656,0.304,1.003c0.338,1.133,0.818,2.206,1.015,3.407
			c0.107,0.656,0.367,1.798,1.48,1.739c1.325-0.069,2.043,0.835,2.471,1.724c0.536,1.114,1.343,1.384,2.174,0.924
			c0.957-0.531,2.111-1.393,1.542-2.719c-0.61-1.426-1.42-2.824-3.245-3.151c-1.112-0.199-1.639-0.376-1.539-2.127
			c0.143-2.507,0.55-5.309-0.771-7.745c-0.882-1.624-1.032-2.589,1.32-2.614c1.239-0.014,1.577-1.297,1.959-2.246
			c0.217-0.538,0.195-1.337-0.461-1.631c-0.842-0.378-1.785-0.526-2.526,0.29c-0.499,0.551-1.365,0.639-1.671,0.336
			c-1.162-1.156-2.548-0.85-3.879-0.825c-0.753,0.014-1.032-0.313-1.319-0.92C254.529,99.181,253.192,98.655,251.35,100.335z
			 M78.906,101.121c-1.3-0.083-1.766,0.652-2.312,1.587c-0.876,1.495-0.137,2.691,0.616,3.688c0.763,1.01,1.187,1.659,0.107,2.679
			c-0.711,0.671-0.84,1.675-0.104,2.381c1.006,0.965,0.684,1.685,0.073,2.704c-0.869,1.453-1.375,2.921,0.572,4.223
			c0.823,0.55,1.941,1.659,1.513,2.8c-0.861,2.295,0.431,3.235,2.011,4.311c1.136,0.772,2.119,1.436,3.137,0.007
			c0.878-1.232,0.688-4.071-0.405-4.482c-1.813-0.682-2.007-2.002-1.913-3.594c0.076-1.296,0.144-2.517-0.351-3.852
			c-0.491-1.324,0.191-3.011-0.996-4.252c1.516-1.437,0.702-3.301,0.896-4.975C81.967,102.476,80.698,101.135,78.906,101.121z
			 M298.334,95.122c2.406,0.006,5.608-3.643,5.323-6.064c-0.018-0.152,0.017-0.319-0.034-0.456
			c-0.644-1.756-1.943-3.014-3.443-3.965c-1.541-0.977-3.557,0.194-5.2-0.83c-0.124-0.077-0.744,0.537-0.396,1.071
			c0.826,1.264-0.097,2.379-0.508,3.355C292.99,90.807,295.529,95.114,298.334,95.122z M96.045,25.063
			c0.004,2.956,0.979,4.186,3.661,4.511c0.869,0.105,1.009,0.458,0.952,1.153c-0.114,1.408,0.456,2.663,1.104,3.813
			c0.613,1.087,1.602,1.697,3.037,1.563c1.528-0.143,1.701-1.255,2.07-2.308c1.054-3.007-0.371-6.291-2.983-6.431
			c-1.473-0.079-1.937-0.387-1.895-1.901c0.041-1.445-2.423-3.399-3.821-3.22C96.406,22.468,95.704,23.524,96.045,25.063z
			 M316.114,38.967c-0.023-1.854-3.784-5.505-5.561-5.398c-2.093,0.126-5,2.524-5.045,4.16c-0.089,3.323,2.368,6.188,5.305,6.182
			C313.154,43.906,316.142,41.12,316.114,38.967z M35.853,117.625c-1.1-1.569-2.799-2.326-4.084-1.646
			c-1.148,0.606-2.065,1.641-2.117,3.016c-0.055,1.46,2.025,3.645,3.382,3.806c1.885,0.226,2.07-1.5,2.381-2.506
			c0.422-1.366,0.985-0.976,1.56-0.462c1.001,0.895,1.813,0.285,2.513-0.263c1.794-1.403,2.654-4.569,1.97-6.787
			c-0.622-2.017-2.218-2.59-3.912-1.338c-1.365,1.009-1.876,2.523-1.364,4.036C36.481,116.362,36.301,116.868,35.853,117.625z
			 M64.708,24.546c0.815,0.9,1.603,1.828,2.454,2.693c0.754,0.768,1.976,0.932,2.297-0.007c0.516-1.514,0.833-3.338-0.256-4.759
			c-0.508-0.664-1.324-1.69-2.478-1.202c-1.449,0.613-2.456,1.693-4.512,0.678c-1.488-0.735-3.786,0.506-5.021,2.078
			c-1.019,1.296,0.413,2.464,0.767,3.683c0.164,0.563,0.414,1.136,0.76,1.606c0.669,0.907,1.668,1.467,2.748,1.151
			c0.959-0.28,2.19-0.705,2.231-1.95C63.74,27.222,64.514,26.073,64.708,24.546z M72.059,88.273
			c-0.133,1.673,0.99,2.656,2.078,3.589c1.181,1.011,1.859,2.115,1.628,3.75c-0.263,1.864,0.971,3.258,1.911,4.623
			c0.6,0.871,2.115,0.806,2.428-0.185c0.411-1.303,1.354-2.274,1.685-3.608c0.435-1.758-0.367-3.232-1.656-3.545
			c-2.238-0.543-2.685-2.059-2.951-3.789c-0.179-1.164-1.079-1.621-1.729-2.313c-0.589-0.628-1.139-1.785-2.192-1.272
			C72.257,86.012,71.977,87.143,72.059,88.273z M177.664,62.827c1.91,0.463,3.316-1.027,4.509-2.167
			c2.11-2.016,1.021-4.781-1.867-5.188c-2.685-0.379-5.187,0.626-7.667,1.41c-1.127,0.356-1.62,1.404-1.159,2.763
			C172.188,61.732,174.129,62.826,177.664,62.827z M326.264,70.279c0.003-2.545-1.371-4.157-3.598-4.22
			c-2.215-0.063-5.163,2.76-5.168,4.948c-0.006,2.918,1.85,4.791,4.695,4.738C324.308,75.705,326.262,73.082,326.264,70.279z
			 M120.964,83.316c0,0.613-0.073,1.238,0.012,1.84c0.37,2.616,3.342,4.399,5.172,3.134c3.013-2.083,3.515-6.659,1.033-9.335
			c-0.538-0.58-1.082-1.073-1.968-0.897C122.736,78.551,120.959,80.737,120.964,83.316z M96.981,53.718
			c-0.28,0.715,0.104,1.461,0.806,1.803c1.411,0.688,2.188,1.79,2.928,3.127c0.712,1.288,1.999,1.526,3.301,0.583
			c3.053-2.21,3.045-5.511-0.016-7.597c-0.556-0.379-1.083-0.805-1.664-1.141c-1.091-0.632-2.375-1.016-3.445-0.343
			C97.747,50.869,96.858,51.994,96.981,53.718z M263.421,45.755c-1.086,0.513-2.488,0.282-3.795,0.534
			c-1.192,0.23-2.387,0.962-1.117,2.53c0.584,0.722,0.671,1.257,0.107,2.251c-1.061,1.875-0.22,3.703,1.364,3.382
			c2.546-0.516,5.551-0.229,6.75-3.692c0.454-1.312,0.526-2.299-0.077-3.343C266.017,46.317,264.971,45.71,263.421,45.755z
			 M207.242,133.001c-0.312-1.069-0.433-2.725-1.939-3.202c-1.646-0.522-2.542,0.718-3.288,2.082
			c-0.527,0.964-0.876,1.888-0.788,2.986c0.056,0.688,0.123,1.523-0.974,1.3c-1.478-0.301-2.37,0.78-3.438,1.387
			c-1.211,0.687-1.45,1.731-0.729,2.994c0.674,1.182,1.663,1.461,2.81,0.952c1.256-0.558,2.264-1.459,2.845-2.761
			c0.354-0.79,0.803-1.205,1.841-1.233C205.175,137.464,207.175,134.953,207.242,133.001z M19.259,134.196
			c0.714,0.776,1.32,1.47,1.964,2.126c0.625,0.637,1.184,1.592,2.261,1.205c1.001-0.359,1.261-1.476,1.441-2.327
			c0.284-1.343-0.013-2.763-1.257-3.59c-1.146-0.761-2.403-0.91-3.438,0.343c-0.619,0.75-1.016,0.661-1.406-0.264
			c-0.392-0.927-1.409-1.194-2.245-1.31c-1.429-0.196-4.408,3.437-3.991,4.853c0.288,0.978,0.699,2.109,1.92,2.296
			c1.005,0.153,2.018,0.257,2.652-1.029C17.579,135.651,18.468,135.036,19.259,134.196z M314.255,49.451
			c-1.638-0.089-2.979,0.356-3.704,1.984c-1.062,2.389-0.896,4.702,0.518,6.876c0.798,1.229,2.391,1.26,3.141,0.007
			c0.688-1.151,1.712-1.934,2.609-2.85c1.116-1.138,2.238-2.468,1.407-3.964C317.488,50.177,316.053,49.215,314.255,49.451z
			 M148.539,149.115c-1.756-0.098-3.081,2.013-2.48,3.628c1.09,2.933,4.037,2.824,6.323,3.664c0.989,0.363,2.193,0.062,3.131,0.946
			c0.312,0.295,0.907,0.897,1.571,0.171c0.512-0.56,1.279-1.287,1.008-1.831c-0.491-0.984-0.517-2.18-1.434-2.999
			c-1.055-0.941-1.857-2.022-3.448-0.644c-0.764,0.661-1.951,0.573-2.249-0.825C150.649,149.766,149.414,149.546,148.539,149.115z
			 M160.229,48.986c2.659-0.031,5.875-2.527,5.914-4.589c0.037-1.979-1.768-3.194-4.527-3.28c-2.244-0.069-4.92,1.29-5.073,3.736
			C156.395,47.206,158.115,49.01,160.229,48.986z M310.116,137.785c-0.013,2.266,1.178,3.061,3.424,2.71
			c1.941-0.303,3.998-0.806,5.279,1.735c0.688,1.362,2.012,1.485,2.932-0.251c0.484-0.915,1.214-1.722,1.926-2.49
			c0.815-0.878,1.45-1.744,0.474-2.847c-0.973-1.099-1.87-0.169-2.562,0.354c-1.354,1.023-2.543,1.543-3.999,0.168
			c-0.268-0.252-0.801-0.668-1.601-0.274c-0.959,0.471-2.063,0.348-3.182-0.443C311.344,135.41,310.126,136.16,310.116,137.785z
			 M173.143,42.527c3.039-0.01,5.457-2.223,5.486-5.019c0.019-1.894-1.043-2.824-3.227-2.825c-3.455-0.001-6.083,2.071-5.971,4.708
			C169.513,41.328,170.941,42.534,173.143,42.527z M164.09,55.445c-1.383,0.001-3.457,1.119-4.999,2.694
			c-1.565,1.599-1.323,3.232,0.702,4.235c1.797,0.89,3.803,0.842,5.583,0.299c1.312-0.4,2.81-1.373,2.593-3.225
			C167.726,57.36,165.773,55.444,164.09,55.445z M275.973,48.419c0.008-1.046,0.015-2.014-1.072-2.711
			c-1.247-0.8-2.376-0.458-3.38,0.208c-1.184,0.784-2.341,1.694-3.262,2.762c-1.09,1.263-0.648,2.756-0.22,4.249
			c0.366,1.278,1.463,1.366,2.253,1.39C272.537,54.383,275.943,50.696,275.973,48.419z M338.795,80.82
			c-2.636-0.029-4.703,1.813-4.688,4.175c0.012,1.795,2.206,3.63,4.385,3.668c2.688,0.046,3.873-0.995,3.92-3.442
			C342.467,82.353,341.229,80.847,338.795,80.82z M300.873,29.157c-2.21-0.597-2.923,1.322-3.593,2.791
			c-0.804,1.765,0.469,4.668,1.911,5.54c2.031,1.226,3.286-0.328,4.158-1.481c1.044-1.38,2.051-3.121,1.395-5.077
			C304.141,29.129,302.585,29.09,300.873,29.157z M111.344,65.138c2.411-0.059,4.775-2.484,3.767-3.686
			c-0.842-1.003-1.35-2.138-2-3.22c-1.029-1.712-4.098-2.042-5.226-0.528c-1.178,1.581-1.708,3.346-0.717,5.208
			C108.088,64.646,109.931,64.74,111.344,65.138z M279.042,61.256c0.518-1.961-0.768-2.289-1.699-2.507
			c-1.08-0.253-2.158,0.092-2.801-1.398c-0.311-0.719-1.657-0.912-2.572,0.01c-1.252,1.259-2.09,2.536-1.121,4.382
			c1.357,2.585,3.643,3.832,6.048,3.414C279.61,64.685,278.29,62.197,279.042,61.256z M245.545,49.262
			c0.355-2.233-1.23-2.954-2.807-3.454c-1.635-0.518-2.504,0.6-3.091,1.958c-0.47,1.088-0.998,2.157-1.385,3.274
			c-0.483,1.397,0.321,2.593,1.193,3.394c0.769,0.706,1.859,1.206,3.201,0.458C244.979,53.597,245.179,51.417,245.545,49.262z
			 M330.937,80.368c2.751-0.288,3.575-1.054,3.122-3.597c-0.494-2.769-2.216-4.575-4.529-4.27c-1.863,0.246-3.969,2.665-3.721,4.414
			C326.101,78.979,328.535,80.619,330.937,80.368z M323.746,128.809c-0.988-0.282-1.991,0.271-2.908,0.67
			c-0.727,0.315-1.721,1.249-0.656,2.171c1.354,1.172,2.797,2.587,4.425,2.987c1.275,0.312,1.527,0.933,2.116,1.738
			c0.662,0.905,1.383,2.31,2.796,1.78c1.458-0.547,2.111-3.151,1.44-4.473c-0.523-1.03-1.324-1.53-2.34-0.976
			c-2.003,1.093-2.368,0.002-2.344-1.628C326.302,129.401,325.484,128.707,323.746,128.809z M147.717,50.975
			c-0.007,2.503,1.146,3.984,2.974,3.485c1.313-0.359,2.61-0.879,3.793-1.771c1.756-1.323,0.786-2.785,0.393-4.043
			c-0.381-1.22-1.157-2.42-2.874-2.454C149.146,46.135,147.728,47.645,147.717,50.975z M247.371,51.172
			c0,0.482,0.053,0.798-0.009,1.091c-0.298,1.43,0.507,2.342,1.543,3.02c1.059,0.691,1.831-0.238,2.588-0.776
			c0.731-0.52,1.456-1.103,2.021-1.792c1.22-1.488,1.064-4.131-0.143-5.345c-1.714-1.724-3.199-1.151-4.919,0.125
			C246.958,48.602,247.56,50.026,247.371,51.172z M279.633,36.548c-1.229-0.643-2.128,0.564-3.173,0.987
			c-1.567,0.634-1.912,3.777-0.793,5.371c1.131,1.611,2.697,1.746,4.385,0.399c0.522-0.417,1.113-0.75,1.622-1.182
			c1.214-1.033,2.053-2.444,1.522-3.929C282.719,36.855,281.271,36.387,279.633,36.548z M119.372,62.365
			c-2.415-0.009-3.931,1.394-3.949,3.653c-0.018,2.185,1.468,3.706,3.643,3.729c2.194,0.022,4.194-1.948,4.198-4.136
			C123.267,63.818,121.534,62.374,119.372,62.365z M141.418,52.677c2.018,0.019,3.883-1.333,3.983-2.886
			c0.089-1.382-3.127-4.502-4.632-4.494c-1.955,0.011-3.637,1.467-3.663,3.17C137.072,50.77,139.002,52.654,141.418,52.677z
			 M289.587,37.913c2.205,0,3.411-1.344,3.459-3.853c0.038-2-1.992-4.018-4.016-3.99c-2.095,0.029-2.903,1.175-2.904,4.116
			C286.124,37.158,286.825,37.913,289.587,37.913z M313.346,63.118c0.02,2.285,1.403,3.632,3.812,3.712
			c1.631,0.054,3.098-2.475,3.109-5.36c0.006-1.68-1.265-2.836-3.074-2.795C315.118,58.721,313.326,60.791,313.346,63.118z
			 M198.929,162.779c0.016-1.87-0.982-2.918-2.533-2.507c-2.395,0.636-4.366,2.005-5.855,3.968c-0.889,1.171-0.535,2.41,0.636,3.128
			C193.363,168.708,198.907,165.364,198.929,162.779z M82.806,36.99c3.177-0.001,5.01-1.282,4.933-3.319
			c-0.053-1.404-2.518-4-3.849-4.055c-1.812-0.074-3.924,2.91-3.969,5.831C79.884,37.886,81.877,36.637,82.806,36.99z
			 M73.763,26.379c-1.525-0.555-2.036,0.674-2.091,1.864c-0.13,2.836,1.842,5.1,4.155,5.056c1.8-0.034,4.123-2.058,4.062-3.54
			C79.811,27.838,77.264,26.387,73.763,26.379z M144.275,146.332c1.987,0.001,3.785-2.061,3.902-4.477
			c0.081-1.667-2.139-2.909-5.106-2.912c-1.661-0.002-2.617,0.918-2.688,2.419C140.278,143.559,142.599,146.332,144.275,146.332z
			 M86.818,40.676c-0.112,1.014,0.369,1.892,0.716,2.778c0.329,0.839,0.918,1.593,1.977,1.178c1.186-0.465,2.334-1.075,3.105-2.146
			c1.522-2.114,0.961-5.216-1.044-5.962C89.153,35.625,86.819,37.663,86.818,40.676z M134.338,46.994
			c0.023-2.094-1.691-3.503-4.311-3.544c-1.457-0.022-2.966,1.63-3.059,3.349c-0.125,2.305,1.376,3.992,3.588,4.033
			C132.782,50.873,134.312,49.319,134.338,46.994z M203.025,159.586c2.376-0.258,3.573-1.2,3.697-2.871
			c0.229-3.098-0.902-4.813-2.884-4.845c-1.925-0.031-3.984,2.346-3.988,4.602C199.848,158.755,200.923,159.615,203.025,159.586z
			 M91.083,14.383c-3.114,0.004-5.116,1.363-5.187,3.361c-0.064,1.791,1.181,2.642,3.859,2.637c2.747-0.006,4.357-1.328,4.454-3.57
			C94.318,14.255,92.606,14.309,91.083,14.383z M134.755,162.02c2.412,0.008,4.089-2.01,4.228-4.779
			c0.092-1.844-0.918-2.314-2.351-2.11c-2.924,0.414-5.11,1.499-5.077,4C131.582,161.053,132.58,162.012,134.755,162.02z
			 M126.034,46.985c0.022-2.314-1.08-3.58-3.075-3.535c-1.962,0.045-3.91,2.184-3.843,4.221c0.051,1.552,1.667,3.148,3.2,3.16
			C124.57,50.848,126.011,49.357,126.034,46.985z M285.605,63.288c-2.438-0.156-3.425,0.82-3.604,3.483
			c-0.129,1.935,1.166,2.967,3.404,2.976c2.527,0.009,3.979-1.393,3.949-3.818C289.333,64.053,288.231,63.277,285.605,63.288z
			 M117.729,45.592c0.196-1.886-0.692-2.709-2.663-2.621c-2.456,0.109-4.724,1.929-4.713,3.918c0.007,1.4,1.85,3.019,3.432,3.014
			C115.797,49.897,117.743,47.813,117.729,45.592z M111.673,42.557c0.984,0.18,1.7-0.261,2.151-1.016
			c0.482-0.807,0.224-1.532-0.421-2.247c-0.533-0.59-0.795-1.415-1.275-2.063c-1.126-1.521-3.58-1.967-4.967-0.958
			c-1.083,0.788-1.498,3.166-0.438,4.019C108.142,41.433,109.821,42.271,111.673,42.557z M51.851,107.119
			c-2.334-0.089-3.716,1.027-3.787,3.062c-0.069,1.974,1.976,3.813,4.676,3.798c2.868-0.018,1.804-2.691,2.116-4.092
			C55.279,107.987,53.486,107.388,51.851,107.119z M92.354,46.384c-0.005,2.417,0.847,3.511,2.745,3.524
			c2.107,0.014,3.701-1.66,3.714-3.9c0.011-1.896-1.154-3.041-3.074-3.02C93.406,43.013,92.359,44.063,92.354,46.384z
			 M81.935,13.396c-0.792,1.88-2.786,0.248-3.793,1.567c-0.455,0.595-1.049,1.003-1.043,1.921c0.009,1.616,1.538,3.412,3.165,3.495
			c1.531,0.078,4.105-2.392,4.221-4.128C84.599,14.528,82.759,14.565,81.935,13.396z M168.764,167.541
			c-0.803,0.018-1.641,0.564-1.67,2.018c-0.029,1.395,2.779,4.228,4.305,4.331c0.842,0.057,3.465-2.255,3.515-3.098
			C175.001,169.263,172.191,167.643,168.764,167.541z M336.129,129.643c-0.266-1.975-0.816-3.627-2.043-4.663
			c-1.115-0.941-2.308,0.42-3.48,0.696c-0.43,0.103-0.896,0.188-1.254,0.42c-0.625,0.405-1.432,0.846-1.192,1.744
			c0.17,0.637,0.393,1.24,1.348,1.509c1.528,0.43,3.114,0.62,4.559,1.641C335.295,131.858,335.639,130.11,336.129,129.643z
			 M67.069,81.76c-1.215,0.466-2.173,1.533-2.347,3.005c-0.185,1.572,2.458,4.022,3.941,3.889c1.093-0.098,2.988-2.401,2.92-3.551
			C71.502,83.714,68.89,81.65,67.069,81.76z M33.3,127.9c0.006,1.524,1.618,3.166,3.146,3.206c1.327,0.033,3.689-2.721,3.802-4.2
			c0.118-1.553-0.897-2.146-2.003-2.161C34.91,124.702,33.292,125.842,33.3,127.9z M58.213,86.262
			c-0.355,2.208,1.261,3.68,3.317,3.774c1.724,0.08,2.662-0.773,2.677-2.528c0.019-2.146-1.526-4.368-3.015-4.377
			C59.345,83.121,58.227,84.296,58.213,86.262z M126.956,72.91c-0.025-1.55-2.309-3.365-4.211-3.124
			c-1.395,0.178-2.304,1.076-2.246,2.639c0.066,1.743,1.89,4.189,3.154,4.24C124.936,76.717,126.98,74.393,126.956,72.91z
			 M53.68,84.977c-0.612,0.371-1.798,0.363-1.88,1.468c-0.125,1.68-0.262,3.431,0.088,5.047c0.212,0.98,0.993,2.36,2.433,2.114
			c1.254-0.215,1.732-1.19,1.63-2.56c-0.076-1.015-0.157-2.042,0.303-3.125C56.763,86.722,55.18,84.995,53.68,84.977z
			 M25.024,126.061c1.288,0.354,3.096,1.057,3.187-1.685c0.062-1.879-2.054-3.903-3.928-3.879c-1.381,0.018-3.143,1.746-2.949,3.094
			C21.604,125.461,22.734,126.382,25.024,126.061z M186.144,169.895c-1.018-0.809-0.576-2.819-2.502-2.787
			c-2.646,0.044-5.868,2.073-5.411,3.508c0.928,2.917,3.443,1.349,5.302,1.525C184.992,172.279,185.564,171.14,186.144,169.895z
			 M285.896,136.644c1.078-0.002,2.618-2.118,2.516-3.661c-0.137-2.074-2.102-2.475-3.287-2.18
			c-1.273,0.316-3.424-0.725-3.881,1.527C281.033,133.364,284.727,136.646,285.896,136.644z M302.271,77.026
			c0.148-1.777-0.523-2.729-2.451-2.683c-2.183,0.052-3.488,1.131-3.544,3.123c-0.048,1.715,0.79,2.746,2.487,2.872
			C300.601,80.473,302.245,78.845,302.271,77.026z M41.144,96.471c-0.017,1.687,1.439,3.662,2.726,3.7
			c1.115,0.033,3.414-2.614,3.109-3.928c-0.311-1.34-0.841-2.85-2.633-2.948C42.812,93.211,41.158,94.921,41.144,96.471z
			 M345.044,122.961c0.021-1.238-0.786-2.445-1.837-2.782c-1.706-0.546-4.816,1.111-5.308,2.812
			c-0.135,0.467-0.106,0.848,0.188,1.271c1.183,1.697,5.695,1.354,6.626-0.526C344.843,123.476,344.943,123.201,345.044,122.961z
			 M300.888,122.939c0.105-0.698-0.183-1.203-1.068-1.575c-1.449-0.609-4.915,0.439-5.585,1.849
			c-0.638,1.341,0.12,3.328,1.408,3.693c1.132,0.321,5.11-2.388,5.244-3.571C300.896,123.26,300.888,123.183,300.888,122.939z
			 M50.372,89.693c-0.205-2.317-1.241-3.833-2.591-3.791c-1.42,0.044-3.089,2.005-2.942,3.457c0.181,1.785,2.071,3.153,4.044,3.003
			C50.779,92.219,50.575,90.972,50.372,89.693z M144.518,150.268c-0.023-2.041-1.316-2.554-3.091-2.559
			c-1.822-0.004-2.862,0.816-2.93,2.678c-0.075,2.028,0.794,2.89,2.82,2.866C143.348,153.229,144.479,152.178,144.518,150.268z
			 M26.38,131.652c0.027,1.721,1.466,3.6,2.76,3.606c1.092,0.005,3.31-2.792,3.196-4.148c-0.148-1.764-1.687-2.007-2.926-2.164
			C27.548,128.709,26.353,129.932,26.38,131.652z M295.689,131.596c-1.873-0.069-3.191,0.126-3.47,1.342
			c-0.28,1.221,0.05,2.555,1.774,2.83c0.386,0.062,0.76,0.48,1.05,0.812c0.701,0.803,1.471,1.384,2.548,0.788
			c1.125-0.621,1.303-1.821,0.93-2.787C297.926,133.039,296.826,131.811,295.689,131.596z M307.806,136.871
			c-0.264-1.396-1.089-2.294-2.489-2.502c-0.739-0.11-1.505-0.005-2.157-0.494c-0.606-0.456-1.129-0.58-1.735,0.126
			c-0.644,0.751-0.748,1.44-0.229,2.253c0.825,1.29,2.033,2.09,3.401,2.703C306.143,139.65,307.806,138.581,307.806,136.871z
			 M73.61,18.073c-1.839-0.278-2.394,0.943-2.463,2.557c-0.057,1.323,2.255,3.521,3.659,3.417c1.739-0.127,1.827-1.5,1.859-2.824
			C76.715,19.182,75.7,18.095,73.61,18.073z M292.775,73.892c1.837,0.294,2.116-1.327,2.438-2.514
			c0.309-1.143-1.811-3.468-2.852-3.472c-1.298-0.005-3.189,2.043-2.98,3.392C289.66,73.11,290.814,73.988,292.775,73.892z
			 M203.349,142.181c-2.062,0.004-3.58,1.73-3.458,3.876c0.071,1.251,0.781,2.312,2.179,2.385c1.426,0.075,3.229-2.484,3.336-4.34
			C205.512,142.294,204.329,142.237,203.349,142.181z M169.761,155.099c1.597,0.294,2.447-0.781,2.689-2.175
			c0.232-1.332-2.069-3.306-3.627-3.357c-1.515-0.051-2.188,0.717-2.198,2.211C166.611,153.909,167.661,155.099,169.761,155.099z
			 M186.932,148.976c0.027-1.03-1.179-2.173-2.298-2.179c-1.283-0.007-3.383,1.931-3.156,3.189c0.246,1.365,0.748,2.844,2.362,3.228
			C184.902,153.467,186.89,150.64,186.932,148.976z M280.008,121.209c-0.122-0.284-0.196-0.589-0.366-0.827
			c-0.66-0.928-1.634-1.533-2.699-1.208c-1.378,0.422-3.162,0.57-3.657,2.238c-0.3,1.011,0.657,1.927,1.165,2.82
			c0.365,0.642,1.241,0.628,1.646,0.32c1.064-0.81,2.066-1.671,3.305-2.245C279.721,122.16,279.829,121.554,280.008,121.209z
			 M313.138,125.111c-1.337-0.135-2.637,0.227-2.945,1.828c-0.194,1.014,3.293,3.206,4.783,3.261
			c1.618,0.061,1.626-0.955,1.608-2.108C316.552,126.01,315.563,125.099,313.138,125.111z M268.925,102.903
			c-0.712,0.167-1.247-0.13-1.697,0.382c-1.118,1.272-1.092,5.199,0.146,6.518c0.39,0.413,0.776,1.234,1.427,0.916
			c0.619-0.304,1.19-0.85,1.205-1.78c0.02-1.183-0.219-2.361,0.353-3.563C271.075,103.87,270.125,103.176,268.925,102.903z
			 M191.23,142.642c-1.48,0.017-2.668,1.251-2.733,2.84c-0.045,1.119,1.962,3.177,3.178,2.979c1.792-0.29,2.168-1.693,2.202-3.332
			C193.916,143.229,193.033,142.491,191.23,142.642z M276.597,132.952c1.564,0.043,1.994-0.542,2.094-3.714
			c0.052-1.644-1.057-2.614-2.682-2.715c-1.275-0.079-2.137,0.7-2.303,1.938C273.491,130.059,275.426,132.921,276.597,132.952z
			 M38.841,104.055c0,0.645-0.095,1.059,0.017,1.405c0.417,1.287,1.28,2.21,2.595,2.562c1.368,0.365,2.249-0.589,2.755-1.569
			c0.592-1.146-0.231-2.116-0.973-3.019c-0.672-0.817-1.709-0.106-2.339-0.596C38.42,100.917,39.017,103.128,38.841,104.055z
			 M178.153,177.155c0.068-1.268-2.263-3.76-3.281-3.532c-1.209,0.271-2.225,1.092-2.51,2.361c-0.292,1.301,1.983,3.583,3.446,3.557
			C177.492,179.51,177.678,178.068,178.153,177.155z M272.896,125.876c-0.494-1.561-1.122-2.663-2.821-2.611
			c-1.656,0.051-2.208,1.334-2.342,2.562c-0.226,2.064,1.041,3.561,2.617,3.425C272.55,129.062,272.061,126.983,272.896,125.876z
			 M153.715,139.597c0.276-1.811-0.936-2.008-2.353-2.036c-2.261-0.045-2.399,1.838-2.65,3.241
			c-0.285,1.595,1.124,2.738,2.408,2.562C152.889,143.121,153.814,141.591,153.715,139.597z M48.038,130.048
			c0.152,1.637,0.522,3.019,2.723,2.933c1.592-0.062,2.444-0.638,2.382-2.309c-0.068-1.793-0.928-3.086-2.718-3.193
			C48.939,127.39,47.766,128.139,48.038,130.048z M273.195,115.067c-0.012,1.522,0.892,2.68,2.239,2.561
			c1.997-0.177,2.409-1.947,2.369-3.687c-0.027-1.217-0.192-2.496-1.78-2.651C274.738,111.164,273.17,113.331,273.195,115.067z
			 M47.138,127.463c0.02-1.837-1.059-3.219-2.393-3.271c-1.696-0.067-2.502,0.969-2.65,2.465c-0.173,1.751,1.082,2.972,2.843,3.073
			C46.779,129.836,46.878,128.472,47.138,127.463z M19.921,126.652c0.034-1.52-0.245-2.644-2.224-2.496
			c-1.836,0.137-2.766,0.967-2.853,2.786c-0.087,1.823,0.913,2.328,2.568,2.349C19.304,129.313,20.072,128.473,19.921,126.652z
			 M159.251,166.616c-0.008,1.511,1.521,3.271,2.956,3.103c1.164-0.137,2.36-0.674,2.532-2.095c0.164-1.352-1.727-3.253-3.108-3.304
			C160.021,164.261,159.167,164.94,159.251,166.616z M159.734,161.779c-0.497-1.068-0.694-2.632-2.517-2.506
			c-1.909,0.132-2.768,1.758-2.893,3.192c-0.118,1.367,1.215,2.511,2.745,2.258C158.456,164.493,159.652,163.646,159.734,161.779z
			 M176.463,155.572c1.361,0.024,3.081-1.801,3.064-3.37c-0.017-1.64-1.521-1.801-2.558-2.023c-1.254-0.269-3.14,1.647-2.902,2.869
			C174.309,154.281,174.832,155.536,176.463,155.572z M292.141,122.969c0.359-1.394-0.997-1.956-1.977-1.908
			c-1.503,0.074-2.887,0.936-3.093,2.699c-0.165,1.412,0.532,2.468,1.954,2.701C290.362,126.681,292.011,124.847,292.141,122.969z
			 M164.907,149.67c0.164-1.207-1.068-1.828-1.658-1.722c-1.227,0.224-2.947,0.738-2.81,2.307c0.108,1.229-0.321,3.426,1.961,3.415
			C165.043,153.657,164.775,151.524,164.907,149.67z M155.052,143.921c0.337,1.143,0.653,2.553,2.197,2.819
			c1.065,0.184,2.51-2.335,2.454-4.084c-0.038-1.163-0.716-1.966-1.848-1.812C156.277,141.057,155.191,142,155.052,143.921z
			 M272.868,110.797c1.643,0.032,2.574-0.794,2.615-1.849c0.065-1.665-1.33-4.168-2.406-4.097c-1.412,0.095-1.765,1.117-1.727,2.398
			C271.397,108.819,271.232,110.464,272.868,110.797z M308.263,124.967c0.062-1.292-1.664-3.041-3.091-3.076
			c-1.359-0.033-2.074,0.903-2.387,2.009c-0.279,0.984,2.12,3.09,3.398,2.916C307.152,126.684,308.11,126.188,308.263,124.967z
			 M283.212,120.94c-1.038-0.1-1.927,0.377-2.129,1.625c-0.143,0.878,2.489,3.013,3.614,2.995c1.169-0.02,1.994-0.692,1.842-1.826
			C286.311,122.035,285.291,120.93,283.212,120.94z M310.531,103.641c0.463-2.042-1.087-2.574-2.434-2.778
			c-0.796-0.121-1.793,0.535-1.695,1.865c0.127,1.715,1.007,3.026,2.555,3.236C310.111,106.121,310.918,105.027,310.531,103.641z"/>
		<path style="fill-rule:evenodd;clip-rule:evenodd;fill:#7B491E;" d="M330.436,148.063c3.144,1.146,6.007,0.036,8.972-0.82
			c2.873-0.83,4.314-2.764,5.427-5.318c1.763-4.044,4.67-6.89,8.998-8.25c1.431-0.45,2.521-0.198,3.549,0.666
			c1.275,1.073,2.553,1.496,4.275,1.017c2.827-0.786,5.651,1.468,6.176,4.405c0.351,1.969,2.485,2.287,3.89,2.753
			c2.009,0.666,3.458,1.559,4.246,3.501c0.39,0.961,0.906,1.701,2.124,1.721c1.355,0.022,1.572,1.196,1.108,1.948
			c-0.733,1.188,0.176,1.46,0.745,1.552c3.448,0.561,5.386,3.208,7.59,5.429c1.438,1.449,0.658,4.922-1.195,5.788
			c-4.039,1.89-8.055,3.784-11.413,6.831c-0.87,0.789-1.981,1.175-3.315,1.079c-3.019-0.217-5.956-0.046-8.729,1.62
			c-0.88,0.529-2.854,0.948-2.972-1.437c-0.042-0.858-0.408-1.314-1.527-0.86c-1.556,0.631-2.688-0.245-3-1.754
			c-0.336-1.619-1.427-3.592,1.153-4.537c0.488-0.179,0.988-0.352,1.436-0.61c0.826-0.477,2.099-0.796,1.901-1.967
			c-0.192-1.136-1.418-0.962-2.36-1.143c-1.657-0.319-3.436-0.488-4.7-1.807c-0.655-0.682-1.423-0.37-2.149-0.466
			c-1.456-0.191-3.062,0.534-4.351-0.804c-0.22-0.229-0.925-0.179-1.312-0.024c-3.914,1.559-7.993,1.377-11.969,0.727
			c-2.228-0.365-4.302-1.782-5.685-3.74c-0.854-1.21-1.49-2.659-0.575-4.141C327.618,148.054,329.059,148.117,330.436,148.063z"/>
		<path style="fill-rule:evenodd;clip-rule:evenodd;fill:#7B491E;" d="M159.713,97.251c-0.361-0.945,0.156-2.067,0.56-2.891
			c0.833-1.701-0.201-2.485-1.109-3.387c-1.124-1.115-2.472-1.99-3.218-3.482c-0.321-0.642-0.951-0.927-1.736-0.462
			c-1.984,1.173-3.886,1.079-5.903-0.139c-1.3-0.785-2.918-1.026-4.285-1.723c-2.198-1.122-2.194-3.09-0.117-4.499
			c3.306-2.243,7.166-3.031,10.955-3.392c2.337-0.222,2.766-2.1,4.148-3.06c3.031-2.105,6.412-2.572,9.853-3.075
			c0.361-0.053,0.8-0.091,1.046,0.292c1.566,2.437,4.101,4.034,5.628,6.507c0.857,1.387,0.829,2.798,0.142,4.21
			c-0.893,1.834-0.099,3.373,1.868,3.245c1.965-0.127,3.521,1.105,5.355,1.298c2.259,0.237,4.304,2.36,6.821,0.654
			c0.529-0.358,1.641-0.334,2.245-0.022c2.766,1.43,4.764-0.156,6.979-1.396c1.709-0.957,3.874-1.018,5.463-0.138
			c1.701,0.941,2.324,3.07,1.834,5.006c-0.475,1.878-1.401,3.681-3.542,4.31c-0.408,0.12-0.726,0.062-1.066,0.564
			c-2.717,4.013-7.138,5.188-11.32,6.924c-2.681,1.112-4.596,0.449-6.818-0.835c-0.994-0.574-2.22-0.289-3.308,0.716
			c-1.687,1.56-3.227,3.561-5.811,3.702c-3.068,0.168-6.167,0.365-8.352-2.549c-0.298-0.397-1.057-0.533-1.63-0.63
			C160.545,102.352,159.71,101.375,159.713,97.251z"/>
		<path style="fill-rule:evenodd;clip-rule:evenodd;fill:#7B491E;" d="M287.195,164.326c1.218,0.165,2.732-0.006,4.172-0.487
			c1.433-0.479,2.687-0.569,4.081,0.269c0.99,0.594,2.256,0.371,3.25-0.278c1.236-0.808,2.109-0.428,2.971,0.568
			c0.427,0.493,0.79,0.792,0.228,1.518c-0.771,0.995-1.576,2.014-2.884,1.555c-0.745-0.261-1.278-0.332-1.826,0.102
			c-1.158,0.916-2.483,1.184-3.903,1.513c-4.554,1.057-9.153,2.008-13.796,1.623c-5.097-0.422-10.271-0.813-15.066-2.938
			c-0.339-0.15-0.849-0.276-0.951-0.541c-1.236-3.198-4.86-4.56-5.979-7.856c-0.398-1.178-1.026-1.598-2.585-1.206
			c-2.803,0.705-5.509,1.978-8.456,1.986c-2.509,0.008-4.402-2.299-3.728-4.222c0.376-1.07,1.216-1.473,2.089-1.722
			c3.209-0.913,5.853-2.489,7.756-5.361c2.076-3.137,4.993-3.502,8.319-1.325c0.176,0.115,0.411,0.158,0.625,0.196
			c4.777,0.854,4.215,5.098,5.145,8.315c0.168,0.581-0.207,1.459,0.54,1.776c0.767,0.325,1.419-0.128,1.991-0.75
			c1.649-1.789,3.611-3.162,5.784-4.268c1.539-0.782,3.145-0.462,4.709-0.381c0.709,0.037,1.308,0.725,1.37,1.609
			c0.115,1.631,0.514,1.324,1.552,0.444c0.639-0.54,1.667-1.102,2.884-0.396c1.246,0.723,2.762-0.026,4.16,0.101
			c1.647,0.15,1.854,0.691,1.046,2.21c-1.177,2.212-3.5,2.544-5.309,3.673c-1.388,0.867-3.893,1.293-3.499,2.972
			c0.36,1.543,2.817,1.4,4.536,1.303C286.574,164.318,286.729,164.326,287.195,164.326z"/>
		<path style="fill-rule:evenodd;clip-rule:evenodd;fill:#7B491E;" d="M97.608,149.469c1.035,0.191,1.826-0.007,2.755-0.653
			c3.025-2.106,6.351-3.745,9.075-6.331c1.279-1.214,3.249-1.064,4.891-1.008c1.116,0.039,2.486,0.512,2.523,2.336
			c0.037,1.815-1.014,2.765-2.381,3.188c-3.527,1.091-6.64,2.921-9.718,4.867c-0.399,0.252-0.773,0.457-0.826,1.038
			c0.494,0.673,1.41,0.52,1.825,0.295c2.334-1.265,5.054-0.487,7.432-1.556c0.843-0.38,1.956-0.26,2.936-0.207
			c1.056,0.058,1.36,1.011,1.837,1.786c0.602,0.979-0.347,1.184-0.711,1.641c-2.104,2.637-5.416,3.096-8.256,4.294
			c-3.677,1.553-7.563,1.533-11.433,0.211c-1.037-0.354-2.282-0.096-3.432-0.118c-6.162-0.116-12.312,0.171-18.477-0.793
			c-2.963-0.465-6.241-0.419-8.92,2.059c-1.383,1.279-3.522,1.473-5.496,1.51c-1.375,0.025-2.188-0.853-2.487-1.938
			c-0.327-1.186-0.024-2.37,1.364-2.961c1.711-0.728,3.347-1.656,5.099-2.255c1.17-0.4,1.995-1.012,2.82-1.914
			c2.306-2.521,7.565-4.724,11.878-2.552c2.977,1.499,5.596-0.322,8.111-1.817c3.54-2.103,5.78-5.575,8.722-8.311
			c1.247-1.159,2.529-1.797,4.2-1.801c0.971-0.002,1.915,0.057,2.901-0.37c0.92-0.397,1.98-0.126,2.6,0.88
			c0.631,1.025-0.122,1.808-0.677,2.397c-2.103,2.236-4,4.746-6.762,6.228C98.132,148.08,97.864,148.685,97.608,149.469z"/>
		<path style="fill-rule:evenodd;clip-rule:evenodd;fill:#7B491E;" d="M251.35,100.335c1.843-1.68,3.18-1.154,4.109,0.812
			c0.287,0.606,0.566,0.934,1.319,0.92c1.331-0.024,2.717-0.331,3.879,0.825c0.306,0.303,1.172,0.215,1.671-0.336
			c0.741-0.816,1.685-0.668,2.526-0.29c0.656,0.294,0.678,1.093,0.461,1.631c-0.382,0.949-0.72,2.232-1.959,2.246
			c-2.353,0.025-2.202,0.99-1.32,2.614c1.32,2.437,0.913,5.238,0.771,7.745c-0.1,1.751,0.427,1.928,1.539,2.127
			c1.825,0.327,2.635,1.726,3.245,3.151c0.569,1.326-0.585,2.188-1.542,2.719c-0.831,0.46-1.638,0.19-2.174-0.924
			c-0.428-0.889-1.146-1.793-2.471-1.724c-1.113,0.059-1.373-1.083-1.48-1.739c-0.196-1.201-0.677-2.274-1.015-3.407
			c-0.104-0.347-0.418-0.893-0.304-1.003c2.141-2.065,0.607-3.718-0.469-5.516c-0.523-0.875-0.096-1.895,0.404-2.945
			c-2.73,0.06-4.133-2.116-6.104-3.247c-0.979-0.562-1.809-0.947-2.781-0.526c-1.065,0.463-1.819,0.054-2.176-0.779
			c-0.593-1.389-1.648-2.795-0.69-4.43c0.619-1.059,1.707-0.936,2.675-0.802C250.981,97.669,250.797,99.214,251.35,100.335z"/>
		<path style="fill-rule:evenodd;clip-rule:evenodd;fill:#7B491E;" d="M78.906,101.121c1.792,0.014,3.061,1.354,2.843,3.225
			c-0.194,1.674,0.62,3.538-0.896,4.975c1.188,1.241,0.505,2.928,0.996,4.252c0.495,1.335,0.426,2.556,0.351,3.852
			c-0.094,1.592,0.1,2.912,1.913,3.594c1.093,0.411,1.283,3.25,0.405,4.482c-1.018,1.429-2,0.766-3.137-0.007
			c-1.581-1.075-2.873-2.016-2.011-4.311c0.428-1.141-0.689-2.25-1.513-2.8c-1.947-1.302-1.441-2.77-0.572-4.223
			c0.61-1.02,0.933-1.739-0.073-2.704c-0.736-0.706-0.606-1.71,0.104-2.381c1.08-1.02,0.656-1.669-0.107-2.679
			c-0.753-0.997-1.492-2.193-0.616-3.688C77.141,101.773,77.606,101.038,78.906,101.121z"/>
		<path style="fill-rule:evenodd;clip-rule:evenodd;fill:#7B491E;" d="M298.334,95.122c-2.805-0.008-5.344-4.315-4.258-6.889
			c0.411-0.976,1.334-2.091,0.508-3.355c-0.349-0.534,0.271-1.148,0.396-1.071c1.644,1.024,3.659-0.147,5.2,0.83
			c1.5,0.951,2.8,2.209,3.443,3.965c0.051,0.137,0.017,0.304,0.034,0.456C303.942,91.479,300.74,95.128,298.334,95.122z"/>
		<path style="fill-rule:evenodd;clip-rule:evenodd;fill:#7B491E;" d="M96.045,25.063c-0.341-1.54,0.361-2.595,2.124-2.82
			c1.398-0.179,3.862,1.775,3.821,3.22c-0.042,1.514,0.422,1.822,1.895,1.901c2.613,0.14,4.037,3.424,2.983,6.431
			c-0.369,1.053-0.542,2.166-2.07,2.308c-1.435,0.134-2.423-0.476-3.037-1.563c-0.648-1.15-1.218-2.405-1.104-3.813
			c0.057-0.695-0.083-1.047-0.952-1.153C97.024,29.25,96.049,28.02,96.045,25.063z"/>
		<path style="fill-rule:evenodd;clip-rule:evenodd;fill:#7B491E;" d="M316.114,38.967c0.027,2.153-2.96,4.939-5.301,4.943
			c-2.937,0.006-5.394-2.858-5.305-6.182c0.045-1.636,2.952-4.034,5.045-4.16C312.33,33.462,316.091,37.112,316.114,38.967z"/>
		<path style="fill-rule:evenodd;clip-rule:evenodd;fill:#7B491E;" d="M35.853,117.625c0.448-0.757,0.628-1.263,0.33-2.145
			c-0.512-1.513,0-3.027,1.364-4.036c1.694-1.252,3.29-0.679,3.912,1.338c0.684,2.218-0.176,5.384-1.97,6.787
			c-0.7,0.548-1.512,1.157-2.513,0.263c-0.575-0.514-1.138-0.904-1.56,0.462c-0.311,1.006-0.496,2.731-2.381,2.506
			c-1.357-0.161-3.438-2.346-3.382-3.806c0.052-1.375,0.969-2.409,2.117-3.016C33.054,115.299,34.753,116.056,35.853,117.625z"/>
		<path style="fill-rule:evenodd;clip-rule:evenodd;fill:#7B491E;" d="M64.708,24.546c-0.194,1.527-0.968,2.676-1.011,3.971
			c-0.041,1.245-1.272,1.67-2.231,1.95c-1.08,0.316-2.079-0.244-2.748-1.151c-0.346-0.47-0.596-1.042-0.76-1.606
			c-0.354-1.218-1.786-2.387-0.767-3.683c1.236-1.572,3.533-2.813,5.021-2.078c2.057,1.015,3.063-0.065,4.512-0.678
			c1.154-0.488,1.97,0.539,2.478,1.202c1.088,1.42,0.772,3.245,0.256,4.759c-0.321,0.939-1.542,0.775-2.297,0.007
			C66.311,26.374,65.523,25.446,64.708,24.546z"/>
		<path style="fill-rule:evenodd;clip-rule:evenodd;fill:#7B491E;" d="M72.057,88.275c-0.081-1.132,0.2-2.263,1.203-2.751
			c1.053-0.513,1.603,0.644,2.192,1.272c0.65,0.692,1.55,1.149,1.729,2.313c0.266,1.73,0.713,3.246,2.951,3.789
			c1.289,0.312,2.091,1.787,1.656,3.545c-0.33,1.334-1.273,2.306-1.685,3.608c-0.312,0.99-1.828,1.056-2.428,0.185
			c-0.939-1.365-2.173-2.759-1.911-4.623c0.231-1.635-0.447-2.739-1.628-3.75C73.048,90.93,71.925,89.947,72.057,88.275z"/>
		<path style="fill-rule:evenodd;clip-rule:evenodd;fill:#7B491E;" d="M177.664,62.827c-3.534-0.001-5.476-1.095-6.183-3.182
			c-0.46-1.359,0.032-2.407,1.159-2.763c2.479-0.784,4.981-1.789,7.667-1.41c2.888,0.407,3.977,3.173,1.867,5.188
			C180.98,61.8,179.574,63.29,177.664,62.827z"/>
		<path style="fill-rule:evenodd;clip-rule:evenodd;fill:#7B491E;" d="M326.264,70.279c-0.002,2.803-1.956,5.426-4.07,5.466
			c-2.846,0.053-4.701-1.819-4.695-4.738c0.005-2.188,2.953-5.012,5.168-4.948C324.893,66.122,326.267,67.734,326.264,70.279z"/>
		<path style="fill-rule:evenodd;clip-rule:evenodd;fill:#7B491E;" d="M120.961,83.316c-0.002-2.579,1.775-4.765,4.252-5.258
			c0.886-0.176,1.43,0.317,1.968,0.897c2.482,2.676,1.98,7.252-1.033,9.335c-1.83,1.266-4.803-0.518-5.172-3.134
			C120.891,84.554,120.964,83.93,120.961,83.316z"/>
		<path style="fill-rule:evenodd;clip-rule:evenodd;fill:#7B491E;" d="M96.981,53.718c-0.123-1.724,0.766-2.85,1.911-3.568
			c1.07-0.672,2.354-0.289,3.445,0.343c0.581,0.336,1.108,0.762,1.664,1.141c3.061,2.086,3.069,5.387,0.016,7.597
			c-1.303,0.944-2.589,0.705-3.301-0.583c-0.74-1.337-1.517-2.439-2.928-3.127C97.085,55.179,96.701,54.433,96.981,53.718z"/>
		<path style="fill-rule:evenodd;clip-rule:evenodd;fill:#7B491E;" d="M263.421,45.755c1.55-0.045,2.596,0.562,3.232,1.662
			c0.604,1.044,0.531,2.031,0.077,3.343c-1.199,3.463-4.204,3.177-6.75,3.692c-1.584,0.321-2.425-1.507-1.364-3.382
			c0.563-0.995,0.477-1.53-0.107-2.251c-1.27-1.568-0.075-2.3,1.117-2.53C260.933,46.037,262.335,46.268,263.421,45.755z"/>
		<path style="fill-rule:evenodd;clip-rule:evenodd;fill:#7B491E;" d="M207.242,133.001c-0.067,1.952-2.067,4.463-3.662,4.505
			c-1.038,0.028-1.487,0.443-1.841,1.233c-0.581,1.302-1.589,2.203-2.845,2.761c-1.146,0.509-2.136,0.229-2.81-0.952
			c-0.721-1.263-0.482-2.308,0.729-2.994c1.069-0.606,1.96-1.688,3.438-1.387c1.097,0.224,1.03-0.611,0.974-1.3
			c-0.088-1.099,0.261-2.022,0.788-2.986c0.746-1.364,1.643-2.604,3.288-2.082C206.81,130.276,206.93,131.932,207.242,133.001z"/>
		<path style="fill-rule:evenodd;clip-rule:evenodd;fill:#7B491E;" d="M19.259,134.196c-0.791,0.84-1.68,1.455-2.099,2.303
			c-0.635,1.286-1.647,1.183-2.652,1.029c-1.221-0.187-1.632-1.318-1.92-2.296c-0.417-1.416,2.562-5.049,3.991-4.853
			c0.836,0.115,1.853,0.383,2.245,1.31c0.391,0.925,0.787,1.014,1.406,0.264c1.035-1.253,2.291-1.104,3.438-0.343
			c1.244,0.827,1.541,2.247,1.257,3.59c-0.18,0.852-0.439,1.968-1.441,2.327c-1.077,0.387-1.635-0.568-2.261-1.205
			C20.579,135.666,19.973,134.973,19.259,134.196z"/>
		<path style="fill-rule:evenodd;clip-rule:evenodd;fill:#7B491E;" d="M314.254,49.449c1.799-0.234,3.234,0.728,3.972,2.056
			c0.831,1.496-0.291,2.827-1.407,3.964c-0.897,0.916-1.921,1.698-2.609,2.85c-0.75,1.252-2.343,1.222-3.141-0.007
			c-1.413-2.175-1.58-4.487-0.518-6.876C311.275,49.807,312.617,49.362,314.254,49.449z"/>
		<path style="fill-rule:evenodd;clip-rule:evenodd;fill:#7B491E;" d="M148.539,149.115c0.875,0.431,2.11,0.65,2.421,2.11
			c0.298,1.398,1.485,1.486,2.249,0.825c1.591-1.379,2.393-0.298,3.448,0.644c0.917,0.819,0.943,2.015,1.434,2.999
			c0.271,0.544-0.496,1.271-1.008,1.831c-0.664,0.727-1.259,0.124-1.571-0.171c-0.938-0.885-2.142-0.583-3.131-0.946
			c-2.287-0.84-5.233-0.731-6.323-3.664C145.458,151.128,146.783,149.018,148.539,149.115z"/>
		<path style="fill-rule:evenodd;clip-rule:evenodd;fill:#7B491E;" d="M160.229,48.986c-2.115,0.024-3.834-1.78-3.687-4.133
			c0.153-2.446,2.829-3.805,5.073-3.736c2.759,0.086,4.564,1.301,4.527,3.28C166.105,46.459,162.888,48.955,160.229,48.986z"/>
		<path style="fill-rule:evenodd;clip-rule:evenodd;fill:#7B491E;" d="M310.116,137.785c0.01-1.625,1.228-2.375,2.691-1.338
			c1.118,0.791,2.223,0.914,3.182,0.443c0.8-0.394,1.333,0.022,1.601,0.274c1.456,1.375,2.645,0.855,3.999-0.168
			c0.691-0.523,1.589-1.453,2.562-0.354c0.977,1.103,0.342,1.969-0.474,2.847c-0.712,0.769-1.441,1.575-1.926,2.49
			c-0.92,1.736-2.244,1.613-2.932,0.251c-1.281-2.541-3.338-2.038-5.279-1.735C311.294,140.846,310.104,140.051,310.116,137.785z"/>
		<path style="fill-rule:evenodd;clip-rule:evenodd;fill:#7B491E;" d="M173.143,42.527c-2.202,0.007-3.63-1.199-3.711-3.135
			c-0.111-2.637,2.517-4.709,5.971-4.708c2.184,0.001,3.246,0.931,3.227,2.825C178.6,40.304,176.181,42.517,173.143,42.527z"/>
		<path style="fill-rule:evenodd;clip-rule:evenodd;fill:#7B491E;" d="M164.09,55.445c1.683-0.001,3.635,1.915,3.88,4.003
			c0.217,1.852-1.281,2.825-2.593,3.225c-1.78,0.543-3.787,0.591-5.583-0.299c-2.025-1.003-2.267-2.636-0.702-4.235
			C160.633,56.564,162.707,55.447,164.09,55.445z"/>
		<path style="fill-rule:evenodd;clip-rule:evenodd;fill:#7B491E;" d="M275.974,48.418c-0.03,2.278-3.437,5.965-5.682,5.898
			c-0.79-0.024-1.887-0.112-2.253-1.39c-0.429-1.493-0.87-2.985,0.22-4.249c0.921-1.068,2.078-1.979,3.262-2.762
			c1.004-0.665,2.133-1.007,3.38-0.208C275.987,46.405,275.98,47.373,275.974,48.418z"/>
		<path style="fill-rule:evenodd;clip-rule:evenodd;fill:#7B491E;" d="M338.795,80.82c2.434,0.027,3.672,1.533,3.617,4.401
			c-0.047,2.448-1.231,3.488-3.92,3.442c-2.179-0.038-4.373-1.873-4.385-3.668C334.092,82.633,336.159,80.791,338.795,80.82z"/>
		<path style="fill-rule:evenodd;clip-rule:evenodd;fill:#7B491E;" d="M300.873,29.157c1.712-0.067,3.268-0.027,3.871,1.772
			c0.656,1.956-0.351,3.697-1.395,5.077c-0.872,1.153-2.127,2.707-4.158,1.481c-1.442-0.871-2.715-3.775-1.911-5.54
			C297.95,30.479,298.663,28.56,300.873,29.157z"/>
		<path style="fill-rule:evenodd;clip-rule:evenodd;fill:#7B491E;" d="M111.344,65.138c-1.413-0.398-3.255-0.492-4.176-2.225
			c-0.99-1.862-0.46-3.628,0.717-5.208c1.128-1.514,4.197-1.184,5.226,0.528c0.65,1.082,1.158,2.216,2,3.22
			C116.119,62.654,113.754,65.08,111.344,65.138z"/>
		<path style="fill-rule:evenodd;clip-rule:evenodd;fill:#7B491E;" d="M279.042,61.256c-0.752,0.941,0.568,3.429-2.146,3.899
			c-2.405,0.418-4.69-0.829-6.048-3.414c-0.969-1.846-0.131-3.123,1.121-4.382c0.915-0.921,2.262-0.729,2.572-0.01
			c0.643,1.49,1.721,1.145,2.801,1.398C278.274,58.967,279.56,59.295,279.042,61.256z"/>
		<path style="fill-rule:evenodd;clip-rule:evenodd;fill:#7B491E;" d="M245.545,49.262c-0.366,2.155-0.566,4.334-2.888,5.629
			c-1.342,0.749-2.433,0.248-3.201-0.458c-0.872-0.801-1.677-1.996-1.193-3.394c0.387-1.117,0.915-2.186,1.385-3.274
			c0.587-1.358,1.456-2.476,3.091-1.958C244.314,46.308,245.9,47.029,245.545,49.262z"/>
		<path style="fill-rule:evenodd;clip-rule:evenodd;fill:#7B491E;" d="M330.937,80.368c-2.401,0.251-4.836-1.388-5.128-3.453
			c-0.248-1.749,1.857-4.168,3.721-4.414c2.313-0.305,4.035,1.501,4.529,4.27C334.512,79.313,333.688,80.08,330.937,80.368z"/>
		<path style="fill-rule:evenodd;clip-rule:evenodd;fill:#7B491E;" d="M323.746,128.809c1.738-0.102,2.556,0.593,2.529,2.271
			c-0.024,1.63,0.341,2.721,2.344,1.628c1.016-0.555,1.816-0.055,2.34,0.976c0.671,1.321,0.018,3.926-1.44,4.473
			c-1.413,0.529-2.134-0.875-2.796-1.78c-0.589-0.806-0.841-1.426-2.116-1.738c-1.628-0.4-3.071-1.815-4.425-2.987
			c-1.064-0.922-0.07-1.855,0.656-2.171C321.755,129.08,322.758,128.526,323.746,128.809z"/>
		<path style="fill-rule:evenodd;clip-rule:evenodd;fill:#7B491E;" d="M147.717,50.975c0.01-3.33,1.429-4.84,4.286-4.782
			c1.717,0.034,2.493,1.234,2.874,2.454c0.393,1.258,1.364,2.72-0.393,4.043c-1.183,0.891-2.48,1.412-3.793,1.771
			C148.863,54.959,147.71,53.478,147.717,50.975z"/>
		<path style="fill-rule:evenodd;clip-rule:evenodd;fill:#7B491E;" d="M247.371,51.172c0.188-1.146-0.413-2.57,1.081-3.678
			c1.72-1.275,3.205-1.849,4.919-0.125c1.207,1.214,1.362,3.856,0.143,5.345c-0.564,0.689-1.289,1.272-2.021,1.792
			c-0.757,0.538-1.529,1.468-2.588,0.776c-1.036-0.678-1.841-1.59-1.543-3.02C247.424,51.971,247.371,51.655,247.371,51.172z"/>
		<path style="fill-rule:evenodd;clip-rule:evenodd;fill:#7B491E;" d="M279.633,36.548c1.639-0.161,3.086,0.308,3.563,1.646
			c0.53,1.484-0.309,2.896-1.522,3.929c-0.509,0.432-1.1,0.765-1.622,1.182c-1.688,1.347-3.254,1.212-4.385-0.399
			c-1.119-1.594-0.774-4.737,0.793-5.371C277.505,37.112,278.404,35.905,279.633,36.548z"/>
		<path style="fill-rule:evenodd;clip-rule:evenodd;fill:#7B491E;" d="M119.372,62.365c2.163,0.008,3.895,1.453,3.892,3.246
			c-0.004,2.188-2.004,4.158-4.198,4.136c-2.174-0.022-3.66-1.543-3.643-3.729C115.44,63.759,116.957,62.356,119.372,62.365z"/>
		<path style="fill-rule:evenodd;clip-rule:evenodd;fill:#7B491E;" d="M141.418,52.677c-2.416-0.022-4.346-1.907-4.312-4.209
			c0.025-1.703,1.708-3.159,3.663-3.17c1.505-0.009,4.722,3.112,4.632,4.494C145.301,51.344,143.436,52.696,141.418,52.677z"/>
		<path style="fill-rule:evenodd;clip-rule:evenodd;fill:#7B491E;" d="M289.587,37.913c-2.762,0-3.463-0.755-3.461-3.728
			c0.001-2.941,0.81-4.087,2.904-4.116c2.023-0.028,4.054,1.99,4.016,3.99C292.998,36.569,291.792,37.913,289.587,37.913z"/>
		<path style="fill-rule:evenodd;clip-rule:evenodd;fill:#7B491E;" d="M313.346,63.118c-0.02-2.327,1.772-4.396,3.847-4.443
			c1.81-0.041,3.08,1.116,3.074,2.795c-0.012,2.885-1.479,5.414-3.109,5.36C314.749,66.75,313.365,65.403,313.346,63.118z"/>
		<path style="fill-rule:evenodd;clip-rule:evenodd;fill:#7B491E;" d="M198.929,162.779c-0.022,2.585-5.566,5.929-7.752,4.589
			c-1.171-0.718-1.525-1.957-0.636-3.128c1.489-1.963,3.46-3.332,5.855-3.968C197.946,159.861,198.944,160.909,198.929,162.779z"/>
		<path style="fill-rule:evenodd;clip-rule:evenodd;fill:#7B491E;" d="M82.806,36.99c-0.928-0.354-2.922,0.896-2.885-1.543
			c0.045-2.92,2.157-5.905,3.969-5.831c1.331,0.055,3.796,2.651,3.849,4.055C87.816,35.708,85.982,36.989,82.806,36.99z"/>
		<path style="fill-rule:evenodd;clip-rule:evenodd;fill:#7B491E;" d="M73.763,26.379c3.501,0.008,6.048,1.459,6.126,3.381
			c0.061,1.481-2.263,3.505-4.062,3.54c-2.313,0.043-4.286-2.22-4.155-5.056C71.727,27.053,72.238,25.824,73.763,26.379z"/>
		<path style="fill-rule:evenodd;clip-rule:evenodd;fill:#7B491E;" d="M144.275,146.332c-1.676,0-3.997-2.773-3.892-4.97
			c0.071-1.501,1.027-2.421,2.688-2.419c2.967,0.003,5.187,1.245,5.106,2.912C148.06,144.271,146.262,146.333,144.275,146.332z"/>
		<path style="fill-rule:evenodd;clip-rule:evenodd;fill:#7B491E;" d="M86.818,40.676c0.001-3.013,2.335-5.051,4.753-4.152
			c2.006,0.747,2.566,3.848,1.044,5.962c-0.771,1.071-1.919,1.68-3.105,2.146c-1.058,0.415-1.647-0.339-1.977-1.178
			C87.187,42.568,86.707,41.69,86.818,40.676z"/>
		<path style="fill-rule:evenodd;clip-rule:evenodd;fill:#7B491E;" d="M134.338,46.994c-0.025,2.326-1.556,3.879-3.782,3.837
			c-2.212-0.041-3.713-1.728-3.588-4.033c0.093-1.718,1.603-3.371,3.059-3.349C132.647,43.49,134.361,44.899,134.338,46.994z"/>
		<path style="fill-rule:evenodd;clip-rule:evenodd;fill:#7B491E;" d="M203.025,159.586c-2.103,0.029-3.177-0.831-3.174-3.114
			c0.004-2.256,2.063-4.633,3.988-4.602c1.981,0.031,3.113,1.747,2.884,4.845C206.599,158.386,205.401,159.328,203.025,159.586z"/>
		<path style="fill-rule:evenodd;clip-rule:evenodd;fill:#7B491E;" d="M91.083,14.383c1.523-0.075,3.235-0.128,3.125,2.428
			c-0.096,2.242-1.707,3.564-4.454,3.57c-2.678,0.005-3.923-0.846-3.859-2.637C85.967,15.746,87.969,14.388,91.083,14.383z"/>
		<path style="fill-rule:evenodd;clip-rule:evenodd;fill:#7B491E;" d="M134.755,162.02c-2.176-0.008-3.174-0.967-3.2-2.89
			c-0.034-2.501,2.153-3.586,5.077-4c1.433-0.204,2.443,0.267,2.351,2.11C138.844,160.01,137.167,162.027,134.755,162.02z"/>
		<path style="fill-rule:evenodd;clip-rule:evenodd;fill:#7B491E;" d="M126.034,46.985c-0.023,2.373-1.464,3.863-3.718,3.846
			c-1.533-0.012-3.149-1.608-3.2-3.16c-0.066-2.038,1.881-4.176,3.843-4.221C124.954,43.405,126.056,44.671,126.034,46.985z"/>
		<path style="fill-rule:evenodd;clip-rule:evenodd;fill:#7B491E;" d="M285.605,63.288c2.626-0.011,3.728,0.765,3.75,2.641
			c0.029,2.425-1.422,3.827-3.949,3.818c-2.238-0.009-3.533-1.041-3.404-2.976C282.181,64.108,283.167,63.132,285.605,63.288z"/>
		<path style="fill-rule:evenodd;clip-rule:evenodd;fill:#7B491E;" d="M117.729,45.592c0.015,2.221-1.931,4.305-3.944,4.311
			c-1.583,0.004-3.425-1.614-3.432-3.014c-0.01-1.989,2.257-3.809,4.713-3.918C117.037,42.883,117.925,43.707,117.729,45.592z"/>
		<path style="fill-rule:evenodd;clip-rule:evenodd;fill:#7B491E;" d="M111.673,42.557c-1.852-0.286-3.532-1.124-4.951-2.266
			c-1.06-0.853-0.645-3.23,0.438-4.019c1.387-1.009,3.841-0.562,4.967,0.958c0.48,0.648,0.743,1.473,1.275,2.063
			c0.646,0.715,0.904,1.44,0.421,2.247C113.373,42.295,112.657,42.737,111.673,42.557z"/>
		<path style="fill-rule:evenodd;clip-rule:evenodd;fill:#7B491E;" d="M51.852,107.118c1.634,0.27,3.427,0.869,3.004,2.77
			c-0.312,1.4,0.751,4.074-2.116,4.092c-2.701,0.016-4.746-1.824-4.676-3.798C48.135,108.146,49.516,107.03,51.852,107.118z"/>
		<path style="fill-rule:evenodd;clip-rule:evenodd;fill:#7B491E;" d="M92.354,46.384c0.005-2.321,1.052-3.371,3.385-3.396
			c1.92-0.021,3.085,1.124,3.074,3.02c-0.013,2.241-1.607,3.915-3.714,3.9C93.201,49.895,92.349,48.801,92.354,46.384z"/>
		<path style="fill-rule:evenodd;clip-rule:evenodd;fill:#7B491E;" d="M81.935,13.396c0.824,1.168,2.664,1.131,2.549,2.855
			c-0.116,1.736-2.69,4.206-4.221,4.128c-1.627-0.083-3.155-1.879-3.165-3.495c-0.005-0.918,0.589-1.326,1.043-1.921
			C79.149,13.644,81.144,15.277,81.935,13.396z"/>
		<path style="fill-rule:evenodd;clip-rule:evenodd;fill:#7B491E;" d="M168.764,167.541c3.427,0.102,6.238,1.722,6.149,3.251
			c-0.049,0.843-2.672,3.154-3.515,3.098c-1.526-0.104-4.333-2.937-4.305-4.331C167.123,168.105,167.96,167.559,168.764,167.541z"/>
		<path style="fill-rule:evenodd;clip-rule:evenodd;fill:#7B491E;" d="M336.129,129.643c-0.49,0.468-0.834,2.216-2.063,1.347
			c-1.444-1.021-3.03-1.211-4.559-1.641c-0.955-0.269-1.178-0.872-1.348-1.509c-0.239-0.898,0.567-1.339,1.192-1.744
			c0.358-0.232,0.824-0.317,1.254-0.42c1.173-0.276,2.365-1.638,3.48-0.696C335.312,126.016,335.863,127.668,336.129,129.643z"/>
		<path style="fill-rule:evenodd;clip-rule:evenodd;fill:#7B491E;" d="M67.069,81.76c1.821-0.11,4.434,1.954,4.515,3.343
			c0.067,1.149-1.828,3.453-2.92,3.551c-1.483,0.133-4.126-2.317-3.941-3.889C64.896,83.293,65.854,82.227,67.069,81.76z"/>
		<path style="fill-rule:evenodd;clip-rule:evenodd;fill:#7B491E;" d="M33.3,127.9c-0.009-2.059,1.61-3.198,4.945-3.155
			c1.106,0.015,2.121,0.608,2.003,2.161c-0.112,1.479-2.475,4.233-3.802,4.2C34.918,131.066,33.307,129.425,33.3,127.9z"/>
		<path style="fill-rule:evenodd;clip-rule:evenodd;fill:#7B491E;" d="M58.213,86.262c0.013-1.966,1.131-3.142,2.979-3.131
			c1.489,0.009,3.034,2.232,3.015,4.377c-0.015,1.755-0.953,2.607-2.677,2.528C59.474,89.942,57.858,88.47,58.213,86.262z"/>
		<path style="fill-rule:evenodd;clip-rule:evenodd;fill:#7B491E;" d="M126.956,72.91c0.024,1.482-2.021,3.807-3.303,3.755
			c-1.264-0.051-3.088-2.497-3.154-4.24c-0.059-1.562,0.851-2.461,2.246-2.639C124.647,69.545,126.931,71.36,126.956,72.91z"/>
		<path style="fill-rule:evenodd;clip-rule:evenodd;fill:#7B491E;" d="M53.68,84.977c1.5,0.019,3.083,1.745,2.574,2.945
			c-0.459,1.082-0.379,2.109-0.303,3.125c0.102,1.369-0.376,2.345-1.63,2.56c-1.44,0.246-2.221-1.134-2.433-2.114
			c-0.35-1.616-0.213-3.367-0.088-5.047C51.882,85.34,53.067,85.347,53.68,84.977z"/>
		<path style="fill-rule:evenodd;clip-rule:evenodd;fill:#7B491E;" d="M25.024,126.061c-2.29,0.321-3.42-0.6-3.69-2.47
			c-0.194-1.348,1.567-3.076,2.949-3.094c1.875-0.024,3.99,2,3.928,3.879C28.12,127.117,26.312,126.414,25.024,126.061z"/>
		<path style="fill-rule:evenodd;clip-rule:evenodd;fill:#7B491E;" d="M186.144,169.895c-0.58,1.245-1.152,2.385-2.611,2.246
			c-1.858-0.177-4.374,1.392-5.302-1.525c-0.457-1.435,2.765-3.464,5.411-3.508C185.568,167.075,185.126,169.086,186.144,169.895z"
			/>
		<path style="fill-rule:evenodd;clip-rule:evenodd;fill:#7B491E;" d="M285.896,136.644c-1.169,0.003-4.862-3.279-4.652-4.313
			c0.457-2.252,2.607-1.211,3.881-1.527c1.186-0.295,3.15,0.105,3.287,2.18C288.514,134.525,286.974,136.642,285.896,136.644z"/>
		<path style="fill-rule:evenodd;clip-rule:evenodd;fill:#7B491E;" d="M302.272,77.025c-0.027,1.819-1.672,3.447-3.509,3.312
			c-1.697-0.126-2.535-1.156-2.487-2.872c0.056-1.992,1.361-3.071,3.544-3.123C301.748,74.297,302.42,75.249,302.272,77.025z"/>
		<path style="fill-rule:evenodd;clip-rule:evenodd;fill:#7B491E;" d="M41.144,96.471c0.015-1.55,1.669-3.26,3.202-3.176
			c1.792,0.099,2.323,1.608,2.633,2.948c0.304,1.313-1.994,3.961-3.109,3.928C42.583,100.133,41.127,98.157,41.144,96.471z"/>
		<path style="fill-rule:evenodd;clip-rule:evenodd;fill:#7B491E;" d="M345.044,122.961c-0.101,0.24-0.201,0.515-0.33,0.775
			c-0.931,1.881-5.443,2.224-6.626,0.526c-0.295-0.424-0.323-0.805-0.188-1.271c0.491-1.701,3.602-3.358,5.308-2.812
			C344.258,120.516,345.065,121.723,345.044,122.961z"/>
		<path style="fill-rule:evenodd;clip-rule:evenodd;fill:#7B491E;" d="M300.888,122.939c0,0.243,0.008,0.32-0.001,0.396
			c-0.134,1.184-4.112,3.893-5.244,3.571c-1.288-0.365-2.046-2.353-1.408-3.693c0.67-1.409,4.136-2.458,5.585-1.849
			C300.705,121.736,300.993,122.241,300.888,122.939z"/>
		<path style="fill-rule:evenodd;clip-rule:evenodd;fill:#7B491E;" d="M50.372,89.693c0.203,1.278,0.407,2.525-1.489,2.669
			c-1.974,0.149-3.864-1.219-4.044-3.003c-0.147-1.452,1.522-3.413,2.942-3.457C49.131,85.86,50.167,87.376,50.372,89.693z"/>
		<path style="fill-rule:evenodd;clip-rule:evenodd;fill:#7B491E;" d="M144.518,150.268c-0.039,1.91-1.17,2.962-3.202,2.985
			c-2.025,0.023-2.895-0.838-2.82-2.866c0.068-1.861,1.108-2.682,2.93-2.678C143.202,147.714,144.495,148.227,144.518,150.268z"/>
		<path style="fill-rule:evenodd;clip-rule:evenodd;fill:#7B491E;" d="M26.38,131.652c-0.027-1.721,1.168-2.943,3.03-2.706
			c1.239,0.157,2.778,0.4,2.926,2.164c0.114,1.356-2.104,4.153-3.196,4.148C27.846,135.252,26.407,133.373,26.38,131.652z"/>
		<path style="fill-rule:evenodd;clip-rule:evenodd;fill:#7B491E;" d="M295.689,131.596c1.137,0.215,2.236,1.443,2.832,2.985
			c0.373,0.966,0.195,2.166-0.93,2.787c-1.077,0.596-1.847,0.015-2.548-0.788c-0.29-0.332-0.664-0.751-1.05-0.812
			c-1.725-0.275-2.055-1.609-1.774-2.83C292.498,131.722,293.816,131.526,295.689,131.596z"/>
		<path style="fill-rule:evenodd;clip-rule:evenodd;fill:#7B491E;" d="M307.806,136.872c0,1.709-1.663,2.778-3.209,2.085
			c-1.368-0.613-2.576-1.413-3.401-2.703c-0.52-0.812-0.415-1.502,0.229-2.253c0.606-0.706,1.129-0.582,1.735-0.126
			c0.652,0.489,1.418,0.384,2.157,0.494C306.717,134.577,307.542,135.475,307.806,136.872z"/>
		<path style="fill-rule:evenodd;clip-rule:evenodd;fill:#7B491E;" d="M73.61,18.073c2.09,0.021,3.105,1.109,3.055,3.15
			c-0.032,1.324-0.121,2.696-1.859,2.824c-1.404,0.104-3.716-2.094-3.659-3.417C71.216,19.016,71.771,17.795,73.61,18.073z"/>
		<path style="fill-rule:evenodd;clip-rule:evenodd;fill:#7B491E;" d="M292.775,73.892c-1.961,0.096-3.115-0.782-3.395-2.594
			c-0.209-1.349,1.683-3.397,2.98-3.392c1.041,0.004,3.16,2.329,2.852,3.472C294.892,72.565,294.612,74.186,292.775,73.892z"/>
		<path style="fill-rule:evenodd;clip-rule:evenodd;fill:#7B491E;" d="M203.349,142.181c0.98,0.057,2.163,0.113,2.058,1.921
			c-0.107,1.855-1.91,4.415-3.336,4.34c-1.398-0.073-2.108-1.134-2.179-2.385C199.769,143.911,201.287,142.185,203.349,142.181z"/>
		<path style="fill-rule:evenodd;clip-rule:evenodd;fill:#7B491E;" d="M169.761,155.099c-2.1,0-3.149-1.189-3.136-3.321
			c0.01-1.494,0.683-2.262,2.198-2.211c1.558,0.052,3.859,2.025,3.627,3.357C172.208,154.317,171.357,155.393,169.761,155.099z"/>
		<path style="fill-rule:evenodd;clip-rule:evenodd;fill:#7B491E;" d="M186.932,148.976c-0.042,1.664-2.03,4.491-3.091,4.238
			c-1.614-0.384-2.116-1.862-2.362-3.228c-0.228-1.259,1.873-3.196,3.156-3.189C185.753,146.803,186.959,147.945,186.932,148.976z"
			/>
		<path style="fill-rule:evenodd;clip-rule:evenodd;fill:#7B491E;" d="M280.008,121.209c-0.179,0.345-0.287,0.951-0.607,1.099
			c-1.238,0.574-2.24,1.436-3.305,2.245c-0.404,0.308-1.28,0.321-1.646-0.32c-0.508-0.894-1.465-1.81-1.165-2.82
			c0.495-1.668,2.279-1.816,3.657-2.238c1.065-0.325,2.039,0.28,2.699,1.208C279.812,120.62,279.886,120.925,280.008,121.209z"/>
		<path style="fill-rule:evenodd;clip-rule:evenodd;fill:#7B491E;" d="M313.138,125.111c2.426-0.013,3.414,0.898,3.446,2.98
			c0.018,1.153,0.01,2.169-1.608,2.108c-1.49-0.055-4.978-2.247-4.783-3.261C310.501,125.338,311.801,124.977,313.138,125.111z"/>
		<path style="fill-rule:evenodd;clip-rule:evenodd;fill:#7B491E;" d="M268.925,102.903c1.2,0.272,2.15,0.967,1.434,2.472
			c-0.571,1.202-0.333,2.381-0.353,3.563c-0.015,0.931-0.586,1.477-1.205,1.78c-0.65,0.318-1.037-0.503-1.427-0.916
			c-1.238-1.318-1.265-5.245-0.146-6.518C267.678,102.773,268.213,103.07,268.925,102.903z"/>
		<path style="fill-rule:evenodd;clip-rule:evenodd;fill:#7B491E;" d="M191.229,142.644c1.804-0.152,2.687,0.585,2.647,2.484
			c-0.034,1.639-0.409,3.042-2.202,3.332c-1.215,0.198-3.223-1.859-3.178-2.979C188.562,143.893,189.75,142.658,191.229,142.644z"/>
		<path style="fill-rule:evenodd;clip-rule:evenodd;fill:#7B491E;" d="M276.597,132.952c-1.171-0.031-3.105-2.894-2.891-4.49
			c0.166-1.238,1.027-2.018,2.303-1.938c1.625,0.101,2.733,1.071,2.682,2.715C278.591,132.41,278.161,132.995,276.597,132.952z"/>
		<path style="fill-rule:evenodd;clip-rule:evenodd;fill:#7B491E;" d="M38.841,104.055c0.175-0.927-0.421-3.138,2.055-1.217
			c0.63,0.489,1.667-0.222,2.339,0.596c0.741,0.902,1.564,1.873,0.973,3.019c-0.506,0.98-1.387,1.935-2.755,1.569
			c-1.314-0.352-2.178-1.274-2.595-2.562C38.746,105.113,38.841,104.699,38.841,104.055z"/>
		<path style="fill-rule:evenodd;clip-rule:evenodd;fill:#7B491E;" d="M178.153,177.155c-0.475,0.913-0.661,2.354-2.345,2.386
			c-1.463,0.026-3.738-2.256-3.446-3.557c0.286-1.27,1.301-2.091,2.51-2.361C175.89,173.396,178.221,175.888,178.153,177.155z"/>
		<path style="fill-rule:evenodd;clip-rule:evenodd;fill:#7B491E;" d="M272.896,125.876c-0.835,1.107-0.346,3.186-2.546,3.376
			c-1.576,0.136-2.843-1.36-2.617-3.425c0.134-1.229,0.686-2.512,2.342-2.562C271.773,123.213,272.401,124.315,272.896,125.876z"/>
		<path style="fill-rule:evenodd;clip-rule:evenodd;fill:#7B491E;" d="M153.715,139.597c0.099,1.994-0.826,3.524-2.594,3.768
			c-1.285,0.176-2.693-0.968-2.408-2.562c0.251-1.403,0.389-3.286,2.65-3.241C152.78,137.589,153.992,137.786,153.715,139.597z"/>
		<path style="fill-rule:evenodd;clip-rule:evenodd;fill:#7B491E;" d="M48.038,130.048c-0.272-1.909,0.901-2.658,2.387-2.569
			c1.79,0.107,2.65,1.4,2.718,3.193c0.062,1.671-0.79,2.247-2.382,2.309C48.56,133.066,48.189,131.685,48.038,130.048z"/>
		<path style="fill-rule:evenodd;clip-rule:evenodd;fill:#7B491E;" d="M273.195,115.067c-0.025-1.736,1.543-3.903,2.828-3.777
			c1.588,0.155,1.753,1.435,1.78,2.651c0.04,1.739-0.372,3.51-2.369,3.687C274.087,117.747,273.184,116.59,273.195,115.067z"/>
		<path style="fill-rule:evenodd;clip-rule:evenodd;fill:#7B491E;" d="M47.138,127.463c-0.26,1.009-0.359,2.373-2.2,2.268
			c-1.761-0.102-3.016-1.322-2.843-3.073c0.148-1.496,0.954-2.532,2.65-2.465C46.079,124.244,47.158,125.626,47.138,127.463z"/>
		<path style="fill-rule:evenodd;clip-rule:evenodd;fill:#7B491E;" d="M19.919,126.651c0.153,1.821-0.615,2.662-2.507,2.64
			c-1.655-0.021-2.655-0.525-2.568-2.349c0.087-1.819,1.017-2.649,2.853-2.786C19.676,124.009,19.955,125.133,19.919,126.651z"/>
		<path style="fill-rule:evenodd;clip-rule:evenodd;fill:#7B491E;" d="M159.251,166.616c-0.084-1.676,0.77-2.355,2.381-2.296
			c1.381,0.051,3.272,1.952,3.108,3.304c-0.172,1.421-1.369,1.958-2.532,2.095C160.773,169.887,159.244,168.127,159.251,166.616z"/>
		<path style="fill-rule:evenodd;clip-rule:evenodd;fill:#7B491E;" d="M159.734,161.779c-0.082,1.866-1.278,2.714-2.665,2.944
			c-1.529,0.253-2.863-0.891-2.745-2.258c0.125-1.435,0.984-3.061,2.893-3.192C159.04,159.147,159.237,160.711,159.734,161.779z"/>
		<path style="fill-rule:evenodd;clip-rule:evenodd;fill:#7B491E;" d="M176.463,155.572c-1.631-0.036-2.155-1.291-2.396-2.524
			c-0.238-1.222,1.648-3.138,2.902-2.869c1.038,0.223,2.542,0.384,2.558,2.023C179.544,153.771,177.824,155.597,176.463,155.572z"/>
		<path style="fill-rule:evenodd;clip-rule:evenodd;fill:#7B491E;" d="M292.141,122.969c-0.13,1.878-1.778,3.712-3.115,3.492
			c-1.422-0.233-2.119-1.289-1.954-2.701c0.206-1.764,1.59-2.625,3.093-2.699C291.144,121.013,292.5,121.575,292.141,122.969z"/>
		<path style="fill-rule:evenodd;clip-rule:evenodd;fill:#7B491E;" d="M164.907,149.67c-0.132,1.854,0.136,3.987-2.507,4
			c-2.282,0.011-1.853-2.187-1.961-3.415c-0.137-1.568,1.583-2.083,2.81-2.307C163.839,147.842,165.071,148.463,164.907,149.67z"/>
		<path style="fill-rule:evenodd;clip-rule:evenodd;fill:#7B491E;" d="M155.052,143.921c0.139-1.921,1.225-2.864,2.803-3.077
			c1.131-0.153,1.81,0.649,1.848,1.812c0.056,1.749-1.388,4.268-2.454,4.084C155.706,146.474,155.39,145.063,155.052,143.921z"/>
		<path style="fill-rule:evenodd;clip-rule:evenodd;fill:#7B491E;" d="M272.868,110.797c-1.636-0.333-1.471-1.978-1.518-3.547
			c-0.038-1.281,0.314-2.304,1.727-2.398c1.076-0.071,2.472,2.432,2.406,4.097C275.442,110.003,274.511,110.829,272.868,110.797z"/>
		<path style="fill-rule:evenodd;clip-rule:evenodd;fill:#7B491E;" d="M308.263,124.967c-0.152,1.222-1.11,1.717-2.079,1.849
			c-1.278,0.174-3.678-1.932-3.398-2.916c0.312-1.105,1.027-2.042,2.387-2.009C306.599,121.926,308.324,123.675,308.263,124.967z"/>
		<path style="fill-rule:evenodd;clip-rule:evenodd;fill:#7B491E;" d="M283.212,120.94c2.079-0.011,3.099,1.095,3.327,2.794
			c0.152,1.134-0.673,1.807-1.842,1.826c-1.125,0.018-3.757-2.117-3.614-2.995C281.285,121.317,282.174,120.841,283.212,120.94z"/>
		<path style="fill-rule:evenodd;clip-rule:evenodd;fill:#7B491E;" d="M310.531,103.641c0.387,1.387-0.42,2.48-1.574,2.323
			c-1.548-0.21-2.428-1.521-2.555-3.236c-0.098-1.33,0.899-1.986,1.695-1.865C309.444,101.066,310.994,101.599,310.531,103.641z"/>
	</g>
</g>
</svg>
