<?xml version="1.0" encoding="iso-8859-1"?>
<!-- Generator: Adobe Illustrator 16.0.0, SVG Export Plug-In . SVG Version: 6.00 Build 0)  -->
<!DOCTYPE svg PUBLIC "-//W3C//DTD SVG 1.1//EN" "http://www.w3.org/Graphics/SVG/1.1/DTD/svg11.dtd">
<svg version="1.1" id="Layer_1" xmlns="http://www.w3.org/2000/svg" xmlns:xlink="http://www.w3.org/1999/xlink" x="0px" y="0px"
	 width="401.633px" height="222.672px" viewBox="0 0 401.633 222.672" style="enable-background:new 0 0 401.633 222.672;"
	 xml:space="preserve">
<g>
	<g>
		<path style="fill:none;" d="M200.817,222.121c-65.957,0-131.913-0.011-197.87,0.051c-1.997,0.001-2.448-0.45-2.447-2.447
			c0.06-72.26,0.06-144.519,0-216.778C0.499,0.95,0.95,0.499,2.947,0.5c131.913,0.055,263.826,0.055,395.739,0
			c1.997-0.001,2.449,0.45,2.447,2.446c-0.06,72.26-0.06,144.519,0,216.778c0.002,1.997-0.449,2.448-2.447,2.447
			C332.73,222.11,266.773,222.121,200.817,222.121z M83.012,74.308c0.1,1.668-0.199,3.488,0.369,4.978
			c2.251,5.904,6.885,10.016,13.791,9.098c4.374-0.582,8.984-3.469,8.871-8.941c-0.041-1.986,0.805-3.728,2.561-4.841
			c4.637-2.938,8.086-6.574,9.275-12.3c0.614-2.957,1.844-6.116,5.105-7.636c2.174-1.013,4.458-1.91,6.401-3.273
			c3.371-2.365,6.25-5.145,6.51-9.761c0.126-2.239,0.137-4.427,0.085-6.666c-0.093-3.961-0.93-7.561-1.907-11.39
			c-1.287-5.037-3.761-6.942-8.398-6.994c-1.807-0.021-3.064-2.315-5.183-0.969c-2.109,1.339-4.57,2.081-6.274,4.103
			c-1.119,1.328-2.899,2.663-4.331,2.527c-4.797-0.457-6.488,3.437-9.281,5.822c-0.875,0.747,0.087,2.382-1.226,2.713
			c-2.561,0.645-3.934,2.761-5.819,4.265c-4.502,3.59-6.858,8.209-7.268,13.9c-0.091,1.271-0.916,2.084-1.861,2.847
			c-3.751,3.03-5.29,8.241-3.258,12.447C82.749,67.491,83.198,70.808,83.012,74.308z M9.072,54.279c0,0.887-0.004,1.507,0,2.128
			c0.038,5.259,4.631,8.513,9.418,6.437c3.148-1.365,5.881-1.349,8.686,0.731c0.831,0.616,2.004,1.043,3.185,0.867
			c6.767-1.01,13.18-3.406,19.75-5.171c4.668-1.254,9.111-1.684,13.778-0.2c3.493,1.11,7.117-0.257,8.602-3.561
			c1.587-3.532,4.282-5.802,7.127-8.108c1.974-1.6,2.833-3.695,3.057-6.355c0.26-3.082-0.671-5.856-1.16-8.759
			c-0.833-4.943-6.261-9.513-11.008-8.724c-2.065,0.343-2.968-0.334-3.942-1.798c-1.921-2.888-4.119-3.193-7.155-1.598
			c-1.974,1.037-3.92,1.981-6.573,1.344c-3.031-0.727-6.331-1.39-9.505-0.043c-1.107,0.469-2.299,0.683-3.459,0.985
			c-3.138,0.817-6.508,0.782-9.4,2.564c-1.893,1.167-4.039,1.845-6.036,2.788c-2.623,1.237-5.539,2.603-6.637,5.48
			c-1.353,3.544-3.529,6.573-5.242,9.88C10.71,46.733,8.632,50.263,9.072,54.279z M261.57,150.86c3.3-0.291,4.775-2.752,6.267-5.16
			c4.542-7.332,6.667-15.835,11.24-23.168c2.072-3.323,3.257-7.113,4.854-10.652c2.229-4.932,1.423-9.903,1.759-14.803
			c0.328-4.782-2.517-8.989-4.588-13.215c-1.82-3.712-4.927-5.04-9.231-4.54c-2.426,0.282-4.134,1.575-6.027,2.873
			c-3.076,2.108-6.435,3.794-9.289,6.253c-1.735,1.493-3.409,3.219-5.427,4.172c-1.764,0.835-2.172,1.856-2.646,3.564
			c-0.449,1.624-1.175,3.18-0.616,4.785c0.724,2.083,0.031,3.623-1.155,5.244c-2.336,3.192-5.361,5.92-6.884,9.655
			c-1.193,2.928-2.466,5.893-3.093,8.966c-1.344,6.578-2.179,13.167,4.61,17.764c1.676,1.134,2.932,2.896,4.622,4
			C250.681,149.678,256.243,149.828,261.57,150.86z M191.065,117.599c-3.064,0.025-5.988,0.989-9.001,0.68
			c-1.164-0.119-1.849,0.91-2.499,1.568c-4.858,4.916-9.125,10.277-12.54,16.341c-1.012,1.796-1.752,3.578-1.289,5.398
			c1.029,4.043,1.742,8.126,1.958,12.263c0.152,2.922,0.184,6.02-1.328,8.633c-2.577,4.454-5.488,8.715-8.187,13.1
			c-1.945,3.161-2.396,6.594-0.444,9.813c1.939,3.196,4.057,6.553,8.731,5.83c1.018-0.157,1.837,0.413,2.751,0.638
			c2.268,0.559,4.76,1.346,6.668-0.554c4.02-4.003,7.352-8.601,10.622-13.222c2.992-4.229,5.661-8.718,6.229-13.937
			c0.408-3.745,1.476-6.952,3.693-10.022c2.044-2.832,4.545-5.173,6.847-7.731c2.945-3.276,5.344-6.825,5.013-11.573
			c-0.213-3.05-1.79-5.539-3.247-8.029C201.916,121.446,197.311,118.217,191.065,117.599z M128.815,132.181
			c-4.194-0.677-8.154,0.907-12.062,2.599c-2.891,1.251-4.533,4.304-3.736,7.053c1.216,4.195,2.341,8.401,4.501,12.302
			c2.59,4.675,4.739,9.515,4.552,15.156c-0.12,3.615,1.363,6.839,4.817,8.615c4.481,2.304,7.972,5.863,11.872,8.913
			c1.705,1.334,3.338,3.253,5.726,3.296c3.438,0.062,6.42-2.745,7.36-6.243c0.873-3.249,1.432-6.538,2.035-9.84
			c0.891-4.879,1.013-9.856,0.909-14.67c-0.159-7.345-2.611-14.322-7.229-20.308c-2.023-2.624-4.685-4.794-7.655-5.705
			C136.483,132.3,132.75,131.747,128.815,132.181z M87.319,162.556c1.099,0.246,2.731-0.417,3.64-1.551
			c1.027-1.282,2.278-1.994,3.528-2.908c5.765-4.215,10.767-8.748,8.884-16.916c-1.401-6.078-3.875-9.292-9.688-10.654
			c-4.963-1.163-9.813-0.588-14.706,0.656c-5.835,1.484-11.653,1.503-17.331-1.009c-3.231-1.431-6.959-3.307-9.982-0.588
			c-3.983,3.582-9.093,5.908-11.916,10.861c-1.822,3.197-2.728,6.563-1.901,9.959c1.258,5.163,8.725,10.117,14.166,10.557
			c2.793,0.226,5.51-0.164,8.259-0.079c1.792,0.056,3.465,0.594,5.395,0.289c4.454-0.703,8.922-1.209,13.543-0.5
			C81.808,161.071,84.085,162.479,87.319,162.556z M317.461,133.612c-0.001-3.476-0.433-4.621-2.086-4.665
			c-3.813-0.102-7.67-0.349-11.435,0.094c-2.195,0.258-3.895,0.71-4.915-1.737c-0.186-0.445-0.679-0.465-1.135-0.532
			c-2.362-0.349-3.82,0.994-3.803,4.049c0.011,1.746-0.703,3.004-1.687,4.201c-1.597,1.943-3.521,3.675-5.397,5.234
			c-5.583,4.646-10.089,9.983-13.264,16.516c-2.322,4.78-4.253,9.752-7.353,14.158c-2.007,2.851-3.92,5.714-5.31,9.073
			c-2.135,5.165-3.042,10.262-1.575,15.501c1.176,4.196,3.189,8.238,7.411,10.346c1.568,0.783,2.929,1.736,4.336,2.736
			c2.295,1.63,4.681,3.172,7.627,3.554c2.04,0.265,2.8-0.761,3.52-2.435c0.674-1.565,0.782-3.247-0.513-3.974
			c-3.751-2.104-6.273-5.663-9.995-7.841c-2.206-1.29-4.898-3.393-3.854-6.57c1.297-3.947,2.325-8.146,5.144-11.39
			c1.682-1.935,2.958-4.093,3.729-6.418c1.578-4.752,3.428-9.394,4.767-14.258c2.665-9.674,8.977-16.504,18.475-20.093
			c3.654-1.38,7.349-2.156,11.409-1.287C315.739,138.77,317.461,137.24,317.461,133.612z M384.94,64.994
			c-2.509,0.033-4.997,1.744-5.056,3.888c-0.047,1.709-0.768,1.875-2.055,2.21c-0.787,0.205-1.579,0.096-2.301,0.333
			c-1.762,0.581-2.964,1.718-3.211,3.676c-0.208,1.641,0.812,2.366,2.092,2.91c1.884,0.8,5.646-0.153,6.163-1.974
			c0.685-2.411,2.17-3.202,4.351-3.63c1.701-0.333,3.205-3.137,2.821-5.024C387.419,65.787,386.694,64.556,384.94,64.994z
			 M294.529,66.606c-2.121-0.152-2.734,0.538-2.398,2.76c0.372,2.457,1.783,4.402,2.957,6.247c1.088,1.712,1.937,4.677,5.032,4.271
			c1.78-0.234,3.534-0.697,5.279-1.142c0.402-0.103,0.724-0.338,0.566-1.105c-0.546-2.667-4.266-4.667-6.828-3.779
			c-0.595,0.206-1.01,1.618-1.908,0.621c-0.78-0.868-0.044-1.59,0.473-2.206c0.921-1.1,0.949-2.504,0.308-3.416
			C297.227,67.745,296.361,66.192,294.529,66.606z M350.687,94.318c1.656-0.027,2.967-1.223,4.746-1.159
			c3.814,0.136,5.533-1.369,6.806-5.065c0.331-0.961,0.633-2.126-0.165-2.516c-0.868-0.424-1.888-1.419-3.116-0.585
			c-0.849,0.576-2.104,0.661-2.604,1.608c-1.158,2.196-2.706,2.397-4.729,1.298c-1.537-0.834-2.338,0.42-3.212,1.291
			c-1.029,1.026-0.735,2.305-0.345,3.449C348.458,93.785,349.428,94.341,350.687,94.318z M357.941,31.385
			c-0.009-2.304-0.739-3.529-2.051-3.439c-2.486,0.17-4.816,2.574-4.282,4.638c0.746,2.886,1.213,5.434-1.901,7.467
			c-1.64,1.071-1.059,3.141,0.665,4.918c1.44,1.486,2.973,1.006,3.854-0.117c1.226-1.562,1.866-3.782,0.531-5.527
			c-1.35-1.764-0.582-2.75,0.769-3.463C357.435,34.856,358.038,33.363,357.941,31.385z M130.063,66.583
			c-1.347,0.129-3.187,0.773-4.122,2.365c-0.568,0.966-0.773,2.673,0.31,3.699c1.287,1.218,0.848,2.314-0.053,3.256
			c-1.484,1.553-0.463,2.558,0.515,3.69c1.54,1.783,3.085,0.547,4.434-0.142c1.321-0.674,1.314-2.001,0.441-3.149
			c-0.846-1.112-0.938-1.892,0.289-2.904c0.808-0.667,1.333-1.812,1.704-2.843C134.24,68.722,132.605,66.64,130.063,66.583z
			 M322.654,131.043c-2.957,0.067-3.969,1.796-2.579,4.562c0.97,1.931,0.782,3.072-1.687,2.881
			c-1.256-0.097-2.075,0.501-2.463,1.557c-0.893,2.427,0.483,5.612,2.545,6.12c1.75,0.431,2.996-1.067,3.819-4.145
			c0.616-2.306,0.647-4.69,2.493-6.773C326.576,133.222,325.199,130.984,322.654,131.043z M294.595,41.021
			c-0.605,1.613,0.441,3.125,1.91,3.536c1.082,0.302,2.67-0.637,3.471-1.831c0.89-1.326,0.881-3.122,0.146-4.233
			c-1.141-1.727-0.604-3,0.43-4.134c1.427-1.564,1.161-3.067,0.091-4.448c-0.857-1.106-2.381-0.936-3.358-0.291
			c-1.471,0.971-2.352,2.768-1.416,4.316c0.954,1.577,0.304,2.736-0.423,3.655C294.632,38.621,294.505,39.588,294.595,41.021z
			 M315.854,188.565c0.065-2.883-2.151-4.911-4.336-4.198c-2.493,0.813-4.192,2.623-5.232,5.008
			c-0.875,2.009,0.501,3.457,1.615,4.694c1.12,1.244,2.147-0.273,3.21-0.691c0.664-0.262,0.935-1.002,1.743-1.102
			C315.263,191.978,315.734,190.174,315.854,188.565z M321.652,170.989c-3.744,0.322-6.382,1.949-5.773,5.386
			c0.352,1.983,1.695,3.716,1.423,5.89c-0.074,0.595,0.439,0.996,1.235,1.004c1.094,0.011,0.952-0.646,1.091-1.362
			c0.284-1.456,0.708-3.061,2.143-3.679c1.389-0.6,1.746-1.874,2.536-2.845c0.812-1,1.054-2.499,0.429-3.455
			C324.213,171.129,322.818,170.895,321.652,170.989z M296.646,200.744c0.146,1.856,1.069,3.728,1.786,5.616
			c0.49,1.289,2.06,1.279,2.334,0.008c0.448-2.076,2.067-2.79,3.35-3.957c1.346-1.223,2.362-2.647,1.037-4.395
			c-1.216-1.604-2.993-2.638-4.983-1.828C298.36,196.924,296.583,198.06,296.646,200.744z M319.066,162.417
			c0.025,0.11-0.021,0.774,0.289,1.075c1.572,1.535,3.284,2.917,4.096,5.09c0.188,0.504,0.954,0.304,1.451,0.234
			c0.785-0.109,0.557-0.795,0.53-1.25c-0.092-1.604,0.248-2.889,1.536-4.085c0.661-0.615,1.596-1.736,0.966-3.013
			c-0.846-1.714-1.89-3.144-4.159-2.801C321.466,158.017,319.033,160.225,319.066,162.417z M289.974,211.469
			c2.1,0.004,5.656-3.132,5.642-5.021c-0.017-2.171-1.617-2.878-3.312-2.913c-3.33-0.067-6.297,2.224-6.268,4.522
			C286.067,210.344,287.36,211.464,289.974,211.469z M370.189,81.441c0.2-1.103-0.354-2.094-0.747-2.986
			c-0.986-2.227-3.045-1.787-4.662-1.086c-1.364,0.591-2.684,1.584-1.599,3.72c0.711,1.397,1.325,2.996,1.176,4.727
			c-0.099,1.154,0.739,1.397,1.674,1.183C367.856,86.581,370.215,83.383,370.189,81.441z M187.505,91.495
			c-0.05-2.304-3.561-4.531-6.175-4.118c-2.881,0.455-4.338,2.071-3.287,3.928c0.944,1.668,2.522,2.993,4.251,3.768
			c1.169,0.524,2.22-0.858,3.32-1.363C186.546,93.281,187.924,92.904,187.505,91.495z M321.714,155.011
			c1.93,0.16,3.905-0.09,4.249-2.77c0.319-2.485-1.032-4.012-3.49-4.154c-2.771-0.161-5.831,1.873-6.029,4.007
			c-0.142,1.512,2.118,2.894,4.769,2.917C321.301,155.011,321.389,155.011,321.714,155.011z M384.62,38.371
			c0.22,1.958,1.966,3.69,3.841,5.319c0.18,0.156,0.373,0.56,0.849,0.319c1.631-0.824,3.106-1.841,3.747-3.613
			c0.562-1.555-0.512-3.023-1.48-3.619c-1.648-1.015-3.677-1.534-5.766-1.084C384.659,35.94,384.518,36.709,384.62,38.371z
			 M347.285,63.458c0.047-1.413,0.06-2.823-1.545-3.489c-1.822-0.755-3.463-0.117-4.775,1.045c-1.166,1.032-1.512,2.412-0.653,4.003
			c0.56,1.037,1.396,1.976,1.273,3.389c-0.061,0.703,0.857,1.029,1.649,0.772C344.635,68.724,347.285,64.967,347.285,63.458z
			 M326.049,58.129c0.95,0.28,2.086-0.428,3.2-0.726c1.387-0.371,2.004-1.79,2.058-3.288c0.053-1.465-0.845-1.924-2.067-2.549
			c-1.272-0.65-2.145,0.12-3.188,0.084c-2.693-0.091-3.801,0.791-3.792,3.19C322.268,57.132,323.585,58.06,326.049,58.129z
			 M192.503,87.9c2.742,0.02,4.066-1.128,4.053-3.51c-0.016-2.747-1.891-4.596-4.789-4.45c-3.72,0.187-1.886,3.501-2.476,5.248
			C188.769,86.733,190.487,88.055,192.503,87.9z M381.127,26.117c-1.812-0.151-3.67,0.911-3.206,2.361
			c0.662,2.075,2.499,3.795,3.936,5.586c0.271,0.339,0.897,0.341,1.569,0.127c1.72-0.547,3.02-1.532,2.914-3.282
			C386.201,28.578,383.258,26.12,381.127,26.117z M218.395,38.73c-0.037-3.099-1.365-3.697-4.737-2.274
			c-1.552,0.654-3.086,1.46-2.692,3.516c0.396,2.073,1.957,3.409,3.483,4.702c0.111,0.094,0.609-0.023,0.68-0.165
			C216.142,42.477,218.84,41.362,218.395,38.73z M364.311,17.594c-3.43-0.006-3.699,0.248-3.698,3.49
			c0,1.055,0.086,2.129-0.588,3.017c-0.532,0.7-0.127,1.069,0.338,1.506c0.41,0.385,0.832,0.787,1.317,0.201
			c1.054-1.272,2.724-1.445,4.058-2.175c1.965-1.075,2.069-2.605,1.706-4.189C367.09,17.904,365.728,17.282,364.311,17.594z
			 M221.582,17.457c-0.111,2.246,0.807,3.932,2.473,4.833c0.959,0.519,4.958-3.404,4.989-4.6c0.035-1.354-3.274-4.672-4.689-4.219
			C222.619,14.026,221.181,15.385,221.582,17.457z M141.277,72.454c2.394-0.019,3.646-1.321,3.611-3.754
			c-0.028-1.945-1.491-3.217-3.645-3.17c-2.301,0.05-4.979,1.738-4.864,3.066C136.537,70.401,139.163,72.471,141.277,72.454z
			 M251.416,46.13c0.004-2.631-1.181-4.09-3.272-4.033c-1.683,0.045-3.633,1.882-3.65,3.437c-0.026,2.302,1.677,4.89,3.17,4.816
			C250.21,50.226,251.413,48.874,251.416,46.13z M350.484,53.437c-0.051-1.731-1.801-3.861-3.193-3.884
			c-1.884-0.03-4.252,2.47-4.263,4.5c-0.01,1.903,1.736,3.583,3.624,3.486C348.677,57.435,350.541,55.44,350.484,53.437z
			 M394.164,58.373c0.003-1.711-0.815-2.793-2.54-2.941c-2.38-0.205-5.373,1.978-5.444,3.856c-0.052,1.392,2.413,3.537,4.113,3.578
			C392.108,62.911,394.138,60.553,394.164,58.373z M143.906,94.283c0.615,0,1.263,0.124,1.838-0.026
			c1.148-0.3,1.989-1.123,2.285-2.237c0.183-0.691,0.408-1.745-0.445-2.165c-1.581-0.778-3.141-1.968-5.054-1.392
			c-1.691,0.51-3.738,1.327-3.836,3.114c-0.081,1.47,1.775,2.37,3.371,2.69C142.656,94.387,143.291,94.287,143.906,94.283z
			 M390.588,45.823c-1.744,0.023-2.842,0.813-2.808,2.02c0.067,2.406,1.99,5.487,3.393,5.437c2.154-0.076,4.107-1.808,4.05-3.591
			C395.15,47.361,393.262,45.787,390.588,45.823z M331.562,46.904c2.04,0.027,3.379-0.834,3.457-3.008
			c0.067-1.901-2.04-4.344-3.568-4.292c-2.266,0.075-3.915,1.639-3.869,3.669C327.625,45.239,329.427,46.881,331.562,46.904z
			 M318.026,69.257c2.481,0.016,6.04-2.523,5.771-4.23c-0.421-2.67-2.893-1.796-4.571-2.269c-0.076-0.021-0.129-0.168-0.195-0.17
			c-1.54-0.039-3.856,2.44-3.668,4.103C315.544,68.286,316.169,69.624,318.026,69.257z M370.724,23.278
			c0.02,1.927,2.315,4.131,4.284,3.832c2.353-0.358,2.869-2.522,2.846-4.287c-0.02-1.537-0.674-3.326-3.132-3.144
			C372.068,19.876,370.7,20.928,370.724,23.278z M218.552,53.279c0.777,0,1.31,0.015,1.841-0.003
			c1.546-0.05,2.622-1.083,2.686-2.363c0.068-1.399-0.719-2.729-2.63-2.432c-0.848,0.132-1.427-0.468-2.125-0.751
			c-1.245-0.504-2.936-0.957-3.886,0.344c-0.667,0.914-0.667,2.307,0.281,3.409C215.809,52.749,216.964,53.753,218.552,53.279z
			 M340.793,72.994c-1.271,0.221-2.742,0.736-2.584,3.108c0.157,2.353,1.463,4.195,3.15,4.115c2.799-0.132,3.776-1.019,3.798-3.446
			C345.176,74.754,343.384,72.962,340.793,72.994z M345.843,88.73c-0.965-1.518,0.099-4.247-2.876-4.547
			c-1.762-0.177-3.53,1.942-3.667,4.298c-0.112,1.922,1.466,3.457,3.471,3.708C345.57,92.541,345.12,90.281,345.843,88.73z
			 M270.051,19.007c0.024-2.244-1.627-4.384-3.431-5.03c-1.081-0.386-1.985,0.244-2.535,0.887c-1.57,1.836-1.06,3.461,0.523,5.233
			c0.93,1.041,1.517,2.131,3.066,1.633C269.236,21.229,270.012,20.073,270.051,19.007z M188.069,77.78
			c1.677,0.399,2.895-0.405,3.113-2.274c0.239-2.053-2.307-4.632-4.281-4.66c-2.586-0.037-2.636,1.669-2.607,3.549
			C184.342,77.481,184.631,77.787,188.069,77.78z M156.067,68.348c0.16-2.269-0.634-3.742-2.97-3.862
			c-1.748-0.09-3.932,1.749-3.943,3.159c-0.016,1.961,1.7,3.651,3.618,3.765C155.093,71.546,156.357,70.737,156.067,68.348z
			 M289.233,59.852c-0.041,1.314,2.197,5.644,2.966,5.492c1.829-0.363,3.132-1.614,3.542-3.405c0.444-1.951-0.614-3.248-2.299-4.277
			c-0.831-0.507-1.629-0.983-2.376-0.473C290.182,57.792,289.068,58.44,289.233,59.852z M167.794,97.692
			c-0.017-2.419-1.852-3.848-4.768-3.963c-1.859-0.073-2.228,0.803-2.181,2.413c0.079,2.712,1.875,4.562,4.569,4.544
			C167.468,100.673,167.892,99.398,167.794,97.692z M174.197,93.232c-2.095-0.018-3.891-0.054-4.204,1.913
			c-0.331,2.077,2.179,4.497,4.256,4.474c2.419-0.027,2.982-1.695,3.118-3.633C177.561,93.229,175.487,93.379,174.197,93.232z
			 M244.542,67.66c2.094,0.14,3.171-1.211,3.611-2.908c0.371-1.428-2.446-3.969-4.126-4.014c-2.307-0.063-2.853,1.625-3.068,3.35
			C240.736,65.87,242.689,67.674,244.542,67.66z M322.788,16.866c0.017-1.946-1.856-3.761-4.144-3.445
			c-1.634,0.226-2.844,1.654-2.725,3.44c0.11,1.664,0.977,3.179,2.858,3.356C320.976,20.425,322.771,18.792,322.788,16.866z
			 M132.884,82.078c-1.604-0.238-2.983,0.17-4.036,1.372c-1.06,1.209-1.395,2.482,0.398,3.285c2.145,0.96,4.412,0.284,6.477-0.208
			c1.224-0.292,1.801-1.783,0.612-3.22C135.373,82.143,134.243,81.824,132.884,82.078z M311.336,77.572
			c1.743,0.127,4.792-1.943,4.463-3.208c-0.524-2.017-2.126-3.021-4.187-3.206c-1.244-0.111-3.871,2.16-3.659,3.365
			C308.26,76.276,309.456,77.365,311.336,77.572z M278.579,51.2c0.097-2.037-0.927-3.814-2.812-3.571
			c-1.462,0.188-4.064,0.182-4.106,2.941c-0.021,1.318,3.236,4.525,4.501,4.18C277.812,54.299,278.673,52.998,278.579,51.2z
			 M256.208,69.146c0.017-1.85-2.397-3.947-4.479-3.513c-1.315,0.274-3.111,0.792-2.985,2.928c0.102,1.741,1.937,3.584,3.772,3.297
			C254.119,71.606,256.368,71.76,256.208,69.146z M155.005,92.694c-2.382-0.006-4.965,1.637-4.614,2.991
			c0.61,2.347,2.858,2.586,4.743,2.799c1.951,0.219,2.985-1.055,3.077-3.039C158.326,92.964,156.838,92.506,155.005,92.694z
			 M262.238,67.668c-1.004,0-1.797-0.02-2.589,0.005c-0.916,0.03-1.419,0.738-1.758,1.402c-0.404,0.791,0.167,1.757,0.676,2.068
			c1.278,0.783,2.713,1.401,4.165,1.782c1.305,0.343,2.73-0.006,3.432-1.264c0.741-1.33-0.094-2.541-0.959-3.533
			C264.333,67.13,263.076,67.927,262.238,67.668z M329.197,26.109c1.638,0.112,3.09-0.128,3.159-2.18
			c0.073-2.189-1.648-4.252-3.458-4.191c-1.669,0.056-3.471,0.074-3.44,2.492C325.488,24.599,326.978,26.119,329.197,26.109z
			 M230.112,23.202c-0.014,1.779,2.221,5.328,3.161,4.944c1.919-0.781,2.354-2.785,2.647-4.585c0.272-1.672-1.818-3.987-3.489-3.723
			C230.737,20.105,229.857,21.475,230.112,23.202z M255.677,36.512c0.002-2.081-1.265-3.57-3.302-3.407
			c-1.876,0.149-2.974,1.649-3.402,3.324c-0.373,1.46,1.611,3.488,3.126,3.534C254.281,40.029,255.675,38.685,255.677,36.512z
			 M233.894,41.042c2.103,0.175,2.77-1.374,3.074-2.896c0.285-1.426-2.075-3.569-3.527-3.507c-1.663,0.07-4.048,2.194-3.825,3.573
			C230.007,40.625,231.953,40.878,233.894,41.042z M170.764,72.452c1.893,0.177,3.162-0.802,3.347-2.534
			c0.231-2.163-1.649-4.359-3.229-4.403c-2.127-0.058-3.119,1.5-3.413,3.034C167.091,70.517,169.037,72.462,170.764,72.452z
			 M248.236,55.072c-0.061-2.027-0.633-3.435-3.126-3.436c-2.197-0.001-3.435,1.57-3.074,2.978c0.323,1.261-0.905,3.955,2.091,3.999
			C246.397,58.646,248.234,57.095,248.236,55.072z M218.459,22.803c-1.564,0.57-2.991,1.469-3.236,3.437
			c-0.196,1.583,1.823,3.617,3.43,3.6c2.514-0.025,2.983-2.163,3.116-3.798C221.905,24.376,220.539,23.154,218.459,22.803z
			 M274.563,20.791c-1.778-0.336-2.529,0.487-2.403,2.497c0.149,2.389,1.278,3.802,3.21,3.915c2.311,0.135,3.028-1.295,3.178-3.149
			C278.711,22.03,277.161,20.776,274.563,20.791z M292.432,49.954c0,0.792,0.035,1.586-0.01,2.376
			c-0.056,0.965,0.647,1.443,1.271,1.85c0.845,0.551,1.446-0.12,2.004-0.698c0.488-0.506,1.033-0.964,1.476-1.506
			c1.017-1.245,0.221-4.794-1.198-5.486C293.696,45.379,292.428,46.617,292.432,49.954z M271.422,57.06
			c-2.057-0.534-3.099,0.626-3.437,2.412c-0.205,1.085,3.027,3.339,4.48,3.407c2.105,0.098,3.329-1.596,3.165-2.93
			C275.401,58.063,273.864,56.539,271.422,57.06z M231.004,46.359c-0.527,0-1.106-0.141-1.573,0.025
			c-1.658,0.592-3.283,1.462-3.533,3.361c-0.329,2.518,1.844,0.933,2.765,1.452c0.367,0.207,0.776,0.423,1.183,0.462
			c2.18,0.208,3.899-1.312,4.008-3.359C233.976,46,232.384,46.369,231.004,46.359z M275.369,41.117
			c-0.104,1.948,1.312,3.08,2.994,3.559c1.455,0.414,3.927-1.816,3.916-3.127c-0.008-0.931-3.183-3.821-4.317-3.657
			C276.342,38.127,275.327,39.145,275.369,41.117z M179.866,70.318c2.925,0.026,3.911-0.691,3.906-2.429
			c-0.005-1.753-2.042-3.373-4.208-3.436c-2.072-0.06-2.733,0.987-2.746,2.931C176.802,69.985,178.58,70.139,179.866,70.318z
			 M333.059,29.315c-2.162-0.306-3.26,1.277-3.208,2.882c0.053,1.66,1.345,3.201,3.291,3.467c1.38,0.188,3.635-2.15,3.45-3.652
			C336.355,30.087,335.086,29.156,333.059,29.315z M311.432,16.528c-1.855-0.021-3.667,1.247-3.477,2.684
			c0.234,1.774,1.262,2.898,3.299,2.659c0.689-0.081,1.496-0.18,2.085,0.09c2.065,0.945,2.042-0.418,1.973-1.716
			C315.205,18.257,313.361,16.55,311.432,16.528z M160.683,67.661c-1.469-0.126-2.798,0.169-2.989,2.021
			c-0.168,1.63,2.236,3.781,4.138,3.842c1.656,0.054,2.742-0.501,2.769-2.356C164.633,68.891,163.281,67.643,160.683,67.661z
			 M304.678,21.571c-0.006-2.384-1.286-3.353-3.41-2.284c-1.771,0.892-2.88,2.694-2.306,4.591c0.312,1.029,1.008,3.67,2.715,2.479
			C303.016,25.423,305.04,23.991,304.678,21.571z M273.788,67.436c0.104-2.529-1.786-2.792-3.099-2.877
			c-2.322-0.15-3.021,2.017-3.172,3.699c-0.17,1.878,1.649,2.424,3.245,2.572C272.428,70.982,273.798,69.21,273.788,67.436z
			 M256.269,32.548c1.384-0.427,2.691-1.152,2.594-3.107c-0.102-2.013-1.742-3.099-3.224-3.139c-1.35-0.036-3.392,0.536-3.161,2.904
			C252.688,31.363,253.894,32.417,256.269,32.548z M281.198,32.577c0.457-2.365-1.051-3.792-2.808-4.023
			c-1.612-0.212-2.489,1.457-2.473,3.201c0.018,1.713,1.881,4.156,3.116,3.9C280.643,35.323,281.718,34.414,281.198,32.577z
			 M259.409,23.701c-0.354,1.917,1.077,2.81,2.438,2.833c1.729,0.03,3.259-1.39,3.268-3.06c0.009-1.664-1.497-3.156-3.222-3.104
			C260.223,20.42,259.233,21.809,259.409,23.701z M327.589,146.079c-0.188-0.761-0.791-1.603-1.423-1.483
			c-0.77,0.146-1.965,0.486-1.759,1.809c0.15,0.959,0.844,1.192,1.718,1.153C327.059,147.516,327.549,147.067,327.589,146.079z
			 M217.384,177.258c-0.093-0.261-0.171-0.479-0.249-0.698c-0.108,0.147-0.298,0.289-0.308,0.442c-0.016,0.22,0.1,0.449,0.16,0.675
			C217.113,177.545,217.238,177.412,217.384,177.258z"/>
		<path style="fill-rule:evenodd;clip-rule:evenodd;fill:#7B491E;" d="M83.012,74.308c0.186-3.5-0.264-6.817-1.836-10.071
			c-2.032-4.206-0.493-9.417,3.258-12.447c0.945-0.763,1.77-1.577,1.861-2.847c0.409-5.691,2.766-10.311,7.268-13.9
			c1.885-1.503,3.258-3.62,5.819-4.265c1.312-0.331,0.351-1.966,1.226-2.713c2.792-2.385,4.483-6.278,9.281-5.822
			c1.432,0.136,3.211-1.199,4.331-2.527c1.704-2.022,4.166-2.764,6.274-4.103c2.119-1.346,3.376,0.948,5.183,0.969
			c4.637,0.052,7.111,1.958,8.398,6.994c0.978,3.829,1.814,7.429,1.907,11.39c0.052,2.239,0.041,4.427-0.085,6.666
			c-0.26,4.616-3.139,7.396-6.51,9.761c-1.944,1.363-4.228,2.26-6.401,3.273c-3.261,1.52-4.491,4.68-5.105,7.636
			c-1.189,5.726-4.639,9.361-9.275,12.3c-1.756,1.113-2.602,2.855-2.561,4.841c0.114,5.472-4.497,8.359-8.871,8.941
			c-6.905,0.917-11.54-3.194-13.791-9.098C82.813,77.796,83.112,75.977,83.012,74.308z M119.342,40.205
			c0.016-2.079,0.019-1.925-2.833-1.87c-7.1,0.137-13.019,7.401-14.611,13.006c-1.617,5.69-3.554,11.031-7.223,15.688
			c-0.369,0.468-0.989,1.115-0.444,1.633c0.484,0.459,1.149,0.759,2.059,0.14c1.482-1.011,3.267-2.146,3.67-3.628
			c1.621-5.953,5.616-10.011,9.938-13.976c2.282-2.095,5.071-3.67,6.835-6.29C117.73,43.428,119.381,42.267,119.342,40.205z"/>
		<path style="fill-rule:evenodd;clip-rule:evenodd;fill:#7B491E;" d="M9.072,54.279c-0.44-4.016,1.638-7.545,3.486-11.112
			c1.712-3.307,3.889-6.336,5.242-9.88c1.098-2.878,4.014-4.243,6.637-5.48c1.998-0.942,4.144-1.621,6.036-2.788
			c2.892-1.782,6.262-1.747,9.4-2.564c1.161-0.302,2.353-0.516,3.459-0.985c3.175-1.347,6.474-0.684,9.505,0.043
			c2.652,0.637,4.599-0.307,6.573-1.344c3.037-1.595,5.234-1.291,7.155,1.598c0.974,1.464,1.877,2.141,3.942,1.798
			c4.747-0.789,10.175,3.781,11.008,8.724c0.489,2.903,1.42,5.677,1.16,8.759c-0.224,2.66-1.083,4.755-3.057,6.355
			c-2.845,2.306-5.54,4.576-7.127,8.108c-1.485,3.303-5.109,4.671-8.602,3.561c-4.667-1.484-9.109-1.054-13.778,0.2
			c-6.569,1.765-12.983,4.161-19.75,5.171c-1.18,0.176-2.354-0.25-3.185-0.867c-2.805-2.081-5.538-2.096-8.686-0.731
			c-4.787,2.076-9.381-1.178-9.418-6.437C9.068,55.786,9.072,55.166,9.072,54.279z M49.844,45.813c0.909,0,1.269,0.039,1.618-0.006
			c4.35-0.553,7.496-4.097,11.803-4.76c0.976-0.15,0.647-0.913,0.637-1.458c-0.015-0.704-0.492-1.266-1.164-1.178
			c-1.838,0.242-3.52-0.745-4.881-1.379c-6.769-3.148-12.473-0.49-18.237,2.534c-3.997,2.097-7.654,4.885-12.199,5.863
			c-1.166,0.251-1.887,1.465-3.177,1.683c-0.234,0.04-1.327,1.138-0.44,1.921c1.037,0.915,2.269,0.685,3.438,0.186
			c5.078-2.169,10.488-2.972,15.864-3.959C45.627,44.796,47.999,45.233,49.844,45.813z"/>
		<path style="fill-rule:evenodd;clip-rule:evenodd;fill:#7B491E;" d="M261.57,150.86c-5.327-1.032-10.889-1.183-15.604-4.263
			c-1.69-1.104-2.946-2.866-4.622-4c-6.789-4.597-5.954-11.186-4.61-17.764c0.627-3.073,1.899-6.038,3.093-8.966
			c1.522-3.735,4.548-6.463,6.884-9.655c1.187-1.621,1.879-3.16,1.155-5.244c-0.559-1.605,0.167-3.161,0.616-4.785
			c0.474-1.708,0.882-2.729,2.646-3.564c2.018-0.954,3.691-2.679,5.427-4.172c2.854-2.459,6.213-4.145,9.289-6.253
			c1.894-1.298,3.602-2.59,6.027-2.873c4.305-0.5,7.411,0.828,9.231,4.54c2.071,4.226,4.916,8.433,4.588,13.215
			c-0.336,4.899,0.47,9.871-1.759,14.803c-1.598,3.539-2.782,7.329-4.854,10.652c-4.573,7.333-6.698,15.836-11.24,23.168
			C266.345,148.108,264.87,150.569,261.57,150.86z M277.545,97.819c0.531-2.583-0.828-4.805-1.353-7.148
			c-0.281-1.255-1.197-2.526-2.816-2.771c-3.55-0.536-7.176,1.163-8.88,4.263c-0.348,0.633-0.812,0.99-1.382,1.389
			c-3.863,2.706-7.038,6.047-7.881,10.843c-0.488,2.782-1.622,4.825-3.731,6.697c-2.172,1.929-4.343,4.051-5.077,7.085
			c-1.128,4.669-2.189,9.354-3.377,14.008c-0.22,0.86,0.298,1.703,0.567,1.821c2.677,1.174,3.689,4.247,6.133,5.475
			c3.217,1.614,6.762,2.295,10.41,2.221c0.847-0.017,1.272-0.613,1.674-1.142c2.123-2.792,3.581-6.027,3.862-9.424
			c0.406-4.929,2.189-9.254,4.958-13.092C275.058,111.937,276.755,105.052,277.545,97.819z"/>
		<path style="fill-rule:evenodd;clip-rule:evenodd;fill:#7B491E;" d="M191.065,117.599c6.246,0.618,10.851,3.848,13.978,9.195
			c1.457,2.49,3.034,4.979,3.247,8.029c0.331,4.748-2.067,8.297-5.013,11.573c-2.301,2.559-4.802,4.899-6.847,7.731
			c-2.217,3.07-3.285,6.277-3.693,10.022c-0.567,5.219-3.236,9.708-6.229,13.937c-3.27,4.621-6.602,9.219-10.622,13.222
			c-1.908,1.899-4.4,1.112-6.668,0.554c-0.915-0.225-1.733-0.795-2.751-0.638c-4.674,0.723-6.792-2.634-8.731-5.83
			c-1.953-3.22-1.501-6.652,0.444-9.813c2.699-4.385,5.61-8.646,8.187-13.1c1.512-2.613,1.48-5.711,1.328-8.633
			c-0.216-4.137-0.929-8.22-1.958-12.263c-0.463-1.82,0.277-3.603,1.289-5.398c3.414-6.063,7.682-11.425,12.54-16.341
			c0.65-0.658,1.334-1.688,2.499-1.568C185.077,118.588,188,117.624,191.065,117.599z M188.36,125.088
			c-1.739-0.454-2.98,0.607-4.054,1.511c-1.822,1.532-4.052,2.759-5.478,4.52c-3.152,3.896-7.143,7.753-4.728,13.704
			c0.279,0.688,0.082,1.577,0.083,2.372c0.008,5.194-0.542,10.49,0.654,15.537c1.339,5.65-0.547,9.392-5.293,12.064
			c-1.943,1.094-3.019,2.51-2.85,4.815c0.042,0.556-0.317,1.142-0.498,1.712c-0.746,2.361,0.331,3.729,2.863,3.484
			c1.008-0.098,2.106-0.295,2.961-0.792c5.674-3.298,10.197-7.552,11.801-14.277c1.757-7.366,4.697-14.271,9.609-20.069
			c3.38-3.989,6.643-7.824,7.165-13.322c0.339-3.578-0.998-6.448-3.179-9.056C194.93,124.319,191.2,126.53,188.36,125.088z"/>
		<path style="fill-rule:evenodd;clip-rule:evenodd;fill:#7B491E;" d="M128.815,132.181c3.935-0.434,7.668,0.119,11.089,1.168
			c2.97,0.911,5.631,3.081,7.655,5.705c4.618,5.985,7.069,12.963,7.229,20.308c0.104,4.813-0.018,9.791-0.909,14.67
			c-0.603,3.302-1.162,6.591-2.035,9.84c-0.94,3.498-3.922,6.305-7.36,6.243c-2.388-0.043-4.021-1.962-5.726-3.296
			c-3.9-3.05-7.391-6.609-11.872-8.913c-3.454-1.776-4.937-5-4.817-8.615c0.188-5.642-1.962-10.481-4.552-15.156
			c-2.16-3.9-3.285-8.106-4.501-12.302c-0.796-2.749,0.846-5.802,3.736-7.053C120.661,133.088,124.621,131.504,128.815,132.181z
			 M147.088,156.604c-0.43-4.401-1.626-9.27-5.51-12.457c-5.043-4.141-10.544-7.793-17.788-6.225
			c-2.171,0.47-3.079,1.71-2.132,3.697c0.625,1.312,1.214,2.578,1.499,4.091c0.5,2.664,0.98,5.682,2.545,7.729
			c4.271,5.586,8.041,11.502,12.141,17.192c2.956,4.102,3.004,4.065,5.271-0.253c0.079-0.15,0.31-0.232,0.361-0.383
			C144.904,165.784,147.056,161.77,147.088,156.604z"/>
		<path style="fill-rule:evenodd;clip-rule:evenodd;fill:#7B491E;" d="M87.319,162.556c-3.234-0.076-5.512-1.484-8.11-1.883
			c-4.621-0.709-9.089-0.203-13.543,0.5c-1.93,0.305-3.602-0.233-5.395-0.289c-2.749-0.085-5.465,0.305-8.259,0.079
			c-5.44-0.439-12.908-5.394-14.166-10.557c-0.827-3.396,0.079-6.762,1.901-9.959c2.823-4.953,7.933-7.279,11.916-10.861
			c3.023-2.719,6.751-0.843,9.982,0.588c5.678,2.512,11.496,2.493,17.331,1.009c4.893-1.244,9.743-1.819,14.706-0.656
			c5.813,1.362,8.287,4.576,9.688,10.654c1.883,8.168-3.119,12.701-8.884,16.916c-1.25,0.914-2.5,1.626-3.528,2.908
			C90.05,162.139,88.418,162.802,87.319,162.556z M95.884,143.608c0.008-1.131,0.356-2.609-0.939-3.059
			c-4.274-1.481-8.494-3.051-13.262-2.144c-6.064,1.155-12.245,1.758-18.311,0.017c-2.479-0.712-5.197,0.046-7.519-1.482
			c-0.566-0.373-1.35,0.074-1.946,0.469c-3.256,2.152-6.453,4.354-8.311,7.979c-1.243,2.428-0.143,4.588,2.546,4.821
			c0.612,0.054,1.116,0.211,1.696,0.501c2.21,1.104,4.457,2.581,6.903,2.613c4.778,0.061,9.541-0.495,14.285-1.27
			c2.992-0.488,5.983-1.586,9.168,0.07c2.046,1.064,4.591,1.664,6.898,1.626C91.101,153.684,95.884,147.831,95.884,143.608z"/>
		<path style="fill-rule:evenodd;clip-rule:evenodd;fill:#7B491E;" d="M317.461,133.612c0,3.628-1.723,5.157-5.903,4.263
			c-4.061-0.869-7.755-0.093-11.409,1.287c-9.498,3.589-15.81,10.419-18.475,20.093c-1.339,4.864-3.188,9.506-4.767,14.258
			c-0.771,2.325-2.048,4.483-3.729,6.418c-2.818,3.243-3.847,7.442-5.144,11.39c-1.044,3.178,1.648,5.28,3.854,6.57
			c3.722,2.178,6.244,5.736,9.995,7.841c1.295,0.727,1.187,2.408,0.513,3.974c-0.72,1.674-1.479,2.699-3.52,2.435
			c-2.946-0.382-5.332-1.924-7.627-3.554c-1.407-1-2.768-1.953-4.336-2.736c-4.222-2.107-6.235-6.149-7.411-10.346
			c-1.467-5.239-0.56-10.336,1.575-15.501c1.39-3.359,3.303-6.223,5.31-9.073c3.1-4.406,5.03-9.378,7.353-14.158
			c3.175-6.532,7.681-11.87,13.264-16.516c1.876-1.56,3.801-3.291,5.397-5.234c0.983-1.197,1.697-2.455,1.687-4.201
			c-0.018-3.055,1.44-4.397,3.803-4.049c0.456,0.067,0.949,0.087,1.135,0.532c1.021,2.447,2.72,1.995,4.915,1.737
			c3.765-0.442,7.621-0.195,11.435-0.094C317.029,128.991,317.46,130.137,317.461,133.612z"/>
		<path style="fill-rule:evenodd;clip-rule:evenodd;fill:#7B491E;" d="M384.94,64.994c1.754-0.438,2.479,0.793,2.805,2.39
			c0.384,1.888-1.12,4.691-2.821,5.024c-2.181,0.428-3.666,1.219-4.351,3.63c-0.517,1.821-4.279,2.774-6.163,1.974
			c-1.279-0.543-2.3-1.269-2.092-2.91c0.247-1.958,1.449-3.095,3.211-3.676c0.722-0.238,1.514-0.128,2.301-0.333
			c1.287-0.335,2.008-0.501,2.055-2.21C379.943,66.738,382.431,65.027,384.94,64.994z"/>
		<path style="fill-rule:evenodd;clip-rule:evenodd;fill:#7B491E;" d="M294.529,66.606c1.832-0.414,2.698,1.139,3.48,2.251
			c0.642,0.912,0.613,2.316-0.308,3.416c-0.517,0.615-1.253,1.338-0.473,2.206c0.898,0.998,1.313-0.415,1.908-0.621
			c2.562-0.888,6.282,1.112,6.828,3.779c0.157,0.767-0.164,1.002-0.566,1.105c-1.745,0.444-3.499,0.908-5.279,1.142
			c-3.096,0.406-3.944-2.558-5.032-4.271c-1.174-1.845-2.585-3.79-2.957-6.247C291.794,67.144,292.408,66.454,294.529,66.606z"/>
		<path style="fill-rule:evenodd;clip-rule:evenodd;fill:#7B491E;" d="M350.687,94.318c-1.259,0.023-2.229-0.533-2.619-1.679
			c-0.391-1.144-0.685-2.422,0.345-3.449c0.874-0.871,1.675-2.125,3.212-1.291c2.022,1.099,3.57,0.898,4.729-1.298
			c0.5-0.947,1.756-1.032,2.604-1.608c1.229-0.834,2.248,0.161,3.116,0.585c0.798,0.39,0.496,1.555,0.165,2.516
			c-1.272,3.696-2.991,5.201-6.806,5.065C353.654,93.095,352.343,94.291,350.687,94.318z"/>
		<path style="fill-rule:evenodd;clip-rule:evenodd;fill:#7B491E;" d="M357.941,31.386c0.097,1.978-0.506,3.471-2.416,4.477
			c-1.351,0.712-2.118,1.699-0.769,3.463c1.335,1.746,0.694,3.965-0.531,5.527c-0.881,1.123-2.413,1.603-3.854,0.117
			c-1.724-1.777-2.305-3.848-0.665-4.918c3.114-2.034,2.647-4.582,1.901-7.467c-0.534-2.064,1.796-4.468,4.282-4.638
			C357.202,27.856,357.932,29.082,357.941,31.386z"/>
		<path style="fill-rule:evenodd;clip-rule:evenodd;fill:#7B491E;" d="M130.063,66.583c2.542,0.058,4.177,2.139,3.517,3.972
			c-0.371,1.032-0.896,2.176-1.704,2.843c-1.227,1.013-1.135,1.792-0.289,2.904c0.873,1.148,0.88,2.475-0.441,3.149
			c-1.348,0.688-2.894,1.925-4.434,0.142c-0.978-1.132-1.999-2.137-0.515-3.69c0.9-0.942,1.339-2.038,0.053-3.256
			c-1.083-1.026-0.878-2.733-0.31-3.699C126.876,67.355,128.716,66.712,130.063,66.583z"/>
		<path style="fill-rule:evenodd;clip-rule:evenodd;fill:#7B491E;" d="M322.654,131.043c2.545-0.059,3.922,2.179,2.129,4.202
			c-1.846,2.083-1.877,4.468-2.493,6.773c-0.823,3.077-2.069,4.575-3.819,4.145c-2.062-0.508-3.438-3.693-2.545-6.12
			c0.388-1.056,1.207-1.653,2.463-1.557c2.469,0.191,2.656-0.95,1.687-2.881C318.685,132.839,319.697,131.11,322.654,131.043z"/>
		<path style="fill-rule:evenodd;clip-rule:evenodd;fill:#7B491E;" d="M294.595,41.021c-0.09-1.433,0.037-2.4,0.851-3.43
			c0.727-0.918,1.377-2.078,0.423-3.655c-0.936-1.548-0.055-3.345,1.416-4.316c0.978-0.645,2.501-0.815,3.358,0.291
			c1.07,1.38,1.336,2.884-0.091,4.448c-1.033,1.134-1.57,2.408-0.43,4.134c0.734,1.111,0.743,2.907-0.146,4.233
			c-0.801,1.193-2.389,2.133-3.471,1.831C295.037,44.146,293.99,42.634,294.595,41.021z"/>
		<path style="fill-rule:evenodd;clip-rule:evenodd;fill:#7B491E;" d="M315.854,188.565c-0.12,1.608-0.591,3.412-3,3.711
			c-0.809,0.1-1.079,0.84-1.743,1.102c-1.062,0.418-2.09,1.936-3.21,0.691c-1.114-1.237-2.49-2.686-1.615-4.694
			c1.04-2.385,2.739-4.194,5.232-5.008C313.703,183.654,315.919,185.683,315.854,188.565z"/>
		<path style="fill-rule:evenodd;clip-rule:evenodd;fill:#7B491E;" d="M321.652,170.99c1.166-0.096,2.562,0.139,3.083,0.938
			c0.625,0.956,0.384,2.455-0.429,3.455c-0.79,0.971-1.147,2.245-2.536,2.845c-1.435,0.618-1.858,2.223-2.143,3.679
			c-0.139,0.717,0.003,1.373-1.091,1.362c-0.796-0.008-1.31-0.409-1.235-1.004c0.272-2.174-1.071-3.906-1.423-5.89
			C315.27,172.938,317.908,171.312,321.652,170.99z"/>
		<path style="fill-rule:evenodd;clip-rule:evenodd;fill:#7B491E;" d="M296.646,200.744c-0.062-2.685,1.714-3.82,3.523-4.556
			c1.99-0.81,3.768,0.225,4.983,1.828c1.325,1.747,0.309,3.172-1.037,4.395c-1.282,1.167-2.901,1.881-3.35,3.957
			c-0.274,1.271-1.844,1.281-2.334-0.008C297.715,204.472,296.792,202.601,296.646,200.744z"/>
		<path style="fill-rule:evenodd;clip-rule:evenodd;fill:#7B491E;" d="M319.066,162.417c-0.033-2.192,2.4-4.4,4.709-4.749
			c2.27-0.343,3.313,1.087,4.159,2.801c0.63,1.276-0.305,2.397-0.966,3.013c-1.288,1.196-1.628,2.481-1.536,4.085
			c0.026,0.455,0.255,1.141-0.53,1.25c-0.497,0.069-1.263,0.27-1.451-0.234c-0.812-2.173-2.523-3.555-4.096-5.09
			C319.045,163.191,319.091,162.527,319.066,162.417z"/>
		<path style="fill-rule:evenodd;clip-rule:evenodd;fill:#7B491E;" d="M289.974,211.469c-2.614-0.005-3.907-1.125-3.938-3.411
			c-0.029-2.299,2.938-4.59,6.268-4.522c1.694,0.035,3.295,0.742,3.312,2.913C295.63,208.337,292.074,211.473,289.974,211.469z"/>
		<path style="fill-rule:evenodd;clip-rule:evenodd;fill:#7B491E;" d="M370.19,81.44c0.025,1.943-2.334,5.14-4.159,5.558
			c-0.935,0.214-1.772-0.029-1.674-1.183c0.149-1.731-0.465-3.329-1.176-4.727c-1.085-2.135,0.234-3.128,1.599-3.72
			c1.617-0.7,3.676-1.141,4.662,1.086C369.835,79.347,370.389,80.338,370.19,81.44z"/>
		<path style="fill-rule:evenodd;clip-rule:evenodd;fill:#7B491E;" d="M187.505,91.495c0.419,1.409-0.958,1.786-1.89,2.214
			c-1.1,0.505-2.151,1.887-3.32,1.363c-1.729-0.774-3.307-2.1-4.251-3.768c-1.052-1.857,0.405-3.473,3.287-3.928
			C183.944,86.963,187.455,89.191,187.505,91.495z"/>
		<path style="fill-rule:evenodd;clip-rule:evenodd;fill:#7B491E;" d="M321.714,155.011c-0.325,0-0.413,0-0.502,0
			c-2.65-0.023-4.91-1.405-4.769-2.917c0.198-2.134,3.259-4.168,6.029-4.007c2.458,0.143,3.81,1.669,3.49,4.154
			C325.62,154.921,323.644,155.171,321.714,155.011z"/>
		<path style="fill-rule:evenodd;clip-rule:evenodd;fill:#7B491E;" d="M384.62,38.371c-0.102-1.662,0.039-2.43,1.19-2.678
			c2.089-0.45,4.117,0.07,5.766,1.084c0.969,0.596,2.043,2.064,1.48,3.619c-0.641,1.771-2.116,2.789-3.747,3.613
			c-0.476,0.241-0.669-0.163-0.849-0.319C386.585,42.061,384.839,40.328,384.62,38.371z"/>
		<path style="fill-rule:evenodd;clip-rule:evenodd;fill:#7B491E;" d="M347.287,63.457c-0.002,1.51-2.651,5.267-4.053,5.721
			c-0.792,0.256-1.71-0.07-1.649-0.772c0.122-1.414-0.714-2.353-1.273-3.389c-0.858-1.591-0.513-2.971,0.653-4.003
			c1.312-1.162,2.953-1.8,4.775-1.045C347.344,60.635,347.332,62.045,347.287,63.457z"/>
		<path style="fill-rule:evenodd;clip-rule:evenodd;fill:#7B491E;" d="M326.049,58.129c-2.464-0.07-3.781-0.998-3.789-3.288
			c-0.009-2.4,1.099-3.282,3.792-3.19c1.043,0.036,1.915-0.734,3.188-0.084c1.223,0.625,2.12,1.084,2.067,2.549
			c-0.054,1.498-0.671,2.917-2.058,3.288C328.135,57.702,327,58.41,326.049,58.129z"/>
		<path style="fill-rule:evenodd;clip-rule:evenodd;fill:#7B491E;" d="M192.503,87.899c-2.016,0.156-3.735-1.167-3.212-2.712
			c0.59-1.747-1.244-5.062,2.476-5.248c2.898-0.146,4.773,1.704,4.789,4.45C196.569,86.772,195.245,87.919,192.503,87.899z"/>
		<path style="fill-rule:evenodd;clip-rule:evenodd;fill:#7B491E;" d="M381.126,26.116c2.132,0.004,5.074,2.461,5.214,4.793
			c0.105,1.75-1.194,2.735-2.914,3.282c-0.672,0.214-1.298,0.212-1.569-0.127c-1.437-1.791-3.273-3.511-3.936-5.586
			C377.458,27.028,379.315,25.965,381.126,26.116z"/>
		<path style="fill-rule:evenodd;clip-rule:evenodd;fill:#7B491E;" d="M218.395,38.73c0.445,2.632-2.253,3.747-3.267,5.778
			c-0.07,0.142-0.568,0.259-0.68,0.165c-1.526-1.293-3.087-2.629-3.483-4.702c-0.394-2.056,1.141-2.862,2.692-3.516
			C217.03,35.033,218.358,35.631,218.395,38.73z"/>
		<path style="fill-rule:evenodd;clip-rule:evenodd;fill:#7B491E;" d="M364.311,17.594c1.417-0.312,2.779,0.31,3.133,1.85
			c0.363,1.584,0.259,3.115-1.706,4.189c-1.334,0.729-3.004,0.903-4.058,2.175c-0.485,0.586-0.907,0.185-1.317-0.201
			c-0.465-0.438-0.87-0.806-0.338-1.506c0.674-0.888,0.588-1.962,0.588-3.017C360.612,17.842,360.881,17.588,364.311,17.594z"/>
		<path style="fill-rule:evenodd;clip-rule:evenodd;fill:#7B491E;" d="M221.582,17.457c-0.4-2.071,1.037-3.43,2.772-3.985
			c1.415-0.453,4.725,2.865,4.689,4.219c-0.031,1.196-4.03,5.118-4.989,4.6C222.388,21.388,221.47,19.703,221.582,17.457z"/>
		<path style="fill-rule:evenodd;clip-rule:evenodd;fill:#7B491E;" d="M141.277,72.454c-2.114,0.017-4.741-2.053-4.897-3.858
			c-0.115-1.329,2.562-3.017,4.864-3.066c2.154-0.047,3.616,1.226,3.645,3.17C144.924,71.133,143.671,72.435,141.277,72.454z"/>
		<path style="fill-rule:evenodd;clip-rule:evenodd;fill:#7B491E;" d="M251.416,46.13c-0.003,2.744-1.205,4.096-3.753,4.22
			c-1.493,0.073-3.196-2.514-3.17-4.816c0.018-1.555,1.968-3.391,3.65-3.437C250.235,42.04,251.419,43.499,251.416,46.13z"/>
		<path style="fill-rule:evenodd;clip-rule:evenodd;fill:#7B491E;" d="M350.484,53.437c0.057,2.003-1.807,3.998-3.832,4.103
			c-1.888,0.097-3.634-1.583-3.624-3.486c0.011-2.03,2.379-4.53,4.263-4.5C348.683,49.576,350.433,51.706,350.484,53.437z"/>
		<path style="fill-rule:evenodd;clip-rule:evenodd;fill:#7B491E;" d="M394.164,58.373c-0.025,2.18-2.056,4.538-3.871,4.493
			c-1.7-0.042-4.165-2.186-4.113-3.578c0.071-1.879,3.064-4.061,5.444-3.856C393.348,55.58,394.167,56.662,394.164,58.373z"/>
		<path style="fill-rule:evenodd;clip-rule:evenodd;fill:#7B491E;" d="M143.906,94.285c-0.615,0.002-1.25,0.102-1.841-0.017
			c-1.595-0.32-3.451-1.22-3.371-2.69c0.099-1.788,2.146-2.604,3.836-3.114c1.913-0.576,3.473,0.614,5.054,1.392
			c0.853,0.42,0.628,1.473,0.445,2.165c-0.295,1.114-1.137,1.937-2.285,2.237C145.168,94.407,144.521,94.283,143.906,94.285z"/>
		<path style="fill-rule:evenodd;clip-rule:evenodd;fill:#7B491E;" d="M390.588,45.823c2.674-0.036,4.562,1.538,4.635,3.865
			c0.058,1.783-1.896,3.515-4.05,3.591c-1.402,0.05-3.325-3.031-3.393-5.437C387.747,46.636,388.844,45.846,390.588,45.823z"/>
		<path style="fill-rule:evenodd;clip-rule:evenodd;fill:#7B491E;" d="M331.562,46.904c-2.135-0.023-3.937-1.665-3.98-3.631
			c-0.046-2.03,1.604-3.594,3.869-3.669c1.528-0.051,3.636,2.391,3.568,4.292C334.941,46.07,333.602,46.931,331.562,46.904z"/>
		<path style="fill-rule:evenodd;clip-rule:evenodd;fill:#7B491E;" d="M318.026,69.257c-1.856,0.366-2.481-0.971-2.663-2.566
			c-0.188-1.663,2.128-4.141,3.668-4.103c0.066,0.001,0.119,0.149,0.195,0.17c1.679,0.473,4.15-0.402,4.571,2.269
			C324.066,66.734,320.507,69.273,318.026,69.257z"/>
		<path style="fill-rule:evenodd;clip-rule:evenodd;fill:#7B491E;" d="M370.724,23.278c-0.024-2.351,1.344-3.402,3.998-3.599
			c2.458-0.183,3.112,1.607,3.132,3.144c0.023,1.764-0.493,3.929-2.846,4.287C373.04,27.409,370.744,25.205,370.724,23.278z"/>
		<path style="fill-rule:evenodd;clip-rule:evenodd;fill:#7B491E;" d="M218.552,53.279c-1.588,0.475-2.743-0.53-3.833-1.796
			c-0.948-1.102-0.948-2.495-0.281-3.409c0.95-1.3,2.641-0.848,3.886-0.344c0.698,0.283,1.277,0.883,2.125,0.751
			c1.911-0.297,2.698,1.032,2.63,2.432c-0.063,1.28-1.14,2.312-2.686,2.363C219.862,53.293,219.33,53.279,218.552,53.279z"/>
		<path style="fill-rule:evenodd;clip-rule:evenodd;fill:#7B491E;" d="M340.793,72.994c2.591-0.031,4.383,1.76,4.364,3.777
			c-0.021,2.427-0.999,3.313-3.798,3.446c-1.688,0.081-2.993-1.762-3.15-4.115C338.051,73.73,339.523,73.214,340.793,72.994z"/>
		<path style="fill-rule:evenodd;clip-rule:evenodd;fill:#7B491E;" d="M345.843,88.73c-0.724,1.551-0.273,3.81-3.072,3.459
			c-2.005-0.251-3.583-1.787-3.471-3.708c0.137-2.356,1.905-4.475,3.667-4.298C345.942,84.483,344.878,87.212,345.843,88.73z"/>
		<path style="fill-rule:evenodd;clip-rule:evenodd;fill:#7B491E;" d="M270.051,19.007c-0.039,1.065-0.815,2.221-2.376,2.723
			c-1.55,0.499-2.137-0.592-3.066-1.633c-1.583-1.772-2.094-3.397-0.523-5.233c0.55-0.643,1.454-1.273,2.535-0.887
			C268.424,14.623,270.076,16.764,270.051,19.007z"/>
		<path style="fill-rule:evenodd;clip-rule:evenodd;fill:#7B491E;" d="M188.069,77.78c-3.438,0.007-3.727-0.298-3.775-3.385
			c-0.029-1.88,0.021-3.586,2.607-3.549c1.975,0.028,4.521,2.607,4.281,4.66C190.964,77.375,189.747,78.179,188.069,77.78z"/>
		<path style="fill-rule:evenodd;clip-rule:evenodd;fill:#7B491E;" d="M156.067,68.348c0.29,2.39-0.975,3.199-3.295,3.062
			c-1.918-0.113-3.634-1.804-3.618-3.765c0.011-1.411,2.195-3.25,3.943-3.159C155.433,64.606,156.228,66.079,156.067,68.348z"/>
		<path style="fill-rule:evenodd;clip-rule:evenodd;fill:#7B491E;" d="M289.232,59.851c-0.164-1.411,0.95-2.059,1.834-2.663
			c0.747-0.51,1.545-0.035,2.376,0.473c1.685,1.029,2.743,2.326,2.299,4.277c-0.41,1.791-1.713,3.042-3.542,3.405
			C291.43,65.496,289.192,61.166,289.232,59.851z"/>
		<path style="fill-rule:evenodd;clip-rule:evenodd;fill:#7B491E;" d="M167.794,97.692c0.098,1.706-0.326,2.98-2.379,2.994
			c-2.693,0.017-4.49-1.832-4.569-4.544c-0.047-1.609,0.322-2.485,2.181-2.413C165.942,93.844,167.777,95.273,167.794,97.692z"/>
		<path style="fill-rule:evenodd;clip-rule:evenodd;fill:#7B491E;" d="M174.197,93.232c1.291,0.147,3.364-0.003,3.17,2.753
			c-0.136,1.938-0.699,3.606-3.118,3.633c-2.078,0.023-4.587-2.396-4.256-4.474C170.306,93.178,172.102,93.214,174.197,93.232z"/>
		<path style="fill-rule:evenodd;clip-rule:evenodd;fill:#7B491E;" d="M244.542,67.66c-1.853,0.014-3.806-1.79-3.583-3.572
			c0.216-1.725,0.762-3.413,3.068-3.35c1.68,0.045,4.497,2.586,4.126,4.014C247.712,66.449,246.635,67.8,244.542,67.66z"/>
		<path style="fill-rule:evenodd;clip-rule:evenodd;fill:#7B491E;" d="M322.788,16.866c-0.017,1.926-1.812,3.559-4.01,3.352
			c-1.882-0.177-2.748-1.693-2.858-3.356c-0.119-1.786,1.091-3.214,2.725-3.44C320.931,13.105,322.804,14.92,322.788,16.866z"/>
		<path style="fill-rule:evenodd;clip-rule:evenodd;fill:#7B491E;" d="M132.884,82.078c1.359-0.253,2.489,0.065,3.451,1.229
			c1.189,1.438,0.612,2.929-0.612,3.22c-2.065,0.493-4.333,1.169-6.477,0.208c-1.793-0.803-1.458-2.076-0.398-3.285
			C129.901,82.248,131.28,81.84,132.884,82.078z"/>
		<path style="fill-rule:evenodd;clip-rule:evenodd;fill:#7B491E;" d="M311.336,77.572c-1.881-0.208-3.076-1.296-3.383-3.049
			c-0.212-1.205,2.415-3.476,3.659-3.365c2.061,0.184,3.662,1.189,4.187,3.206C316.128,75.629,313.08,77.7,311.336,77.572z"/>
		<path style="fill-rule:evenodd;clip-rule:evenodd;fill:#7B491E;" d="M278.58,51.2c0.094,1.797-0.768,3.099-2.418,3.55
			c-1.265,0.346-4.521-2.862-4.501-4.18c0.042-2.759,2.645-2.753,4.106-2.941C277.652,47.386,278.675,49.163,278.58,51.2z"/>
		<path style="fill-rule:evenodd;clip-rule:evenodd;fill:#7B491E;" d="M256.208,69.146c0.159,2.615-2.09,2.461-3.691,2.712
			c-1.836,0.287-3.671-1.556-3.772-3.297c-0.126-2.135,1.67-2.653,2.985-2.928C253.811,65.198,256.225,67.296,256.208,69.146z"/>
		<path style="fill-rule:evenodd;clip-rule:evenodd;fill:#7B491E;" d="M155.005,92.694c1.833-0.188,3.321,0.27,3.206,2.751
			c-0.092,1.984-1.125,3.258-3.077,3.039c-1.885-0.212-4.133-0.452-4.743-2.799C150.04,94.332,152.623,92.688,155.005,92.694z"/>
		<path style="fill-rule:evenodd;clip-rule:evenodd;fill:#7B491E;" d="M262.238,67.668c0.838,0.259,2.095-0.538,2.967,0.461
			c0.865,0.992,1.7,2.203,0.959,3.533c-0.701,1.258-2.127,1.607-3.432,1.264c-1.452-0.381-2.887-0.999-4.165-1.782
			c-0.509-0.311-1.08-1.278-0.676-2.068c0.339-0.665,0.842-1.373,1.758-1.402C260.441,67.648,261.234,67.668,262.238,67.668z"/>
		<path style="fill-rule:evenodd;clip-rule:evenodd;fill:#7B491E;" d="M329.2,26.112c-2.222,0.006-3.712-1.513-3.742-3.882
			c-0.03-2.418,1.771-2.436,3.44-2.492c1.81-0.061,3.531,2.001,3.458,4.191C332.287,25.981,330.834,26.222,329.2,26.112z"/>
		<path style="fill-rule:evenodd;clip-rule:evenodd;fill:#7B491E;" d="M230.112,23.202c-0.255-1.728,0.625-3.097,2.319-3.364
			c1.671-0.264,3.762,2.051,3.489,3.723c-0.294,1.801-0.729,3.804-2.647,4.585C232.333,28.53,230.098,24.981,230.112,23.202z"/>
		<path style="fill-rule:evenodd;clip-rule:evenodd;fill:#7B491E;" d="M255.677,36.512c-0.002,2.172-1.396,3.517-3.578,3.451
			c-1.515-0.046-3.499-2.073-3.126-3.534c0.429-1.675,1.526-3.175,3.402-3.324C254.413,32.942,255.679,34.431,255.677,36.512z"/>
		<path style="fill-rule:evenodd;clip-rule:evenodd;fill:#7B491E;" d="M233.894,41.042c-1.941-0.164-3.887-0.417-4.278-2.831
			c-0.223-1.379,2.162-3.502,3.825-3.573c1.452-0.062,3.812,2.082,3.527,3.507C236.664,39.668,235.997,41.217,233.894,41.042z"/>
		<path style="fill-rule:evenodd;clip-rule:evenodd;fill:#7B491E;" d="M170.765,72.453c-1.728,0.009-3.674-1.937-3.296-3.904
			c0.294-1.534,1.286-3.092,3.413-3.034c1.58,0.044,3.46,2.24,3.229,4.403C173.926,71.649,172.657,72.629,170.765,72.453z"/>
		<path style="fill-rule:evenodd;clip-rule:evenodd;fill:#7B491E;" d="M248.236,55.072c-0.002,2.023-1.839,3.574-4.109,3.54
			c-2.996-0.044-1.768-2.738-2.091-3.999c-0.36-1.407,0.877-2.979,3.074-2.978C247.603,51.637,248.175,53.044,248.236,55.072z"/>
		<path style="fill-rule:evenodd;clip-rule:evenodd;fill:#7B491E;" d="M218.459,22.803c2.079,0.351,3.445,1.574,3.31,3.239
			c-0.133,1.635-0.603,3.772-3.116,3.798c-1.606,0.017-3.626-2.018-3.43-3.6C215.468,24.271,216.895,23.373,218.459,22.803z"/>
		<path style="fill-rule:evenodd;clip-rule:evenodd;fill:#7B491E;" d="M274.563,20.791c2.598-0.014,4.148,1.24,3.984,3.263
			c-0.149,1.854-0.867,3.284-3.178,3.149c-1.932-0.113-3.061-1.526-3.21-3.915C272.034,21.278,272.785,20.454,274.563,20.791z"/>
		<path style="fill-rule:evenodd;clip-rule:evenodd;fill:#7B491E;" d="M292.429,49.954c-0.001-3.337,1.267-4.575,3.545-3.464
			c1.419,0.691,2.215,4.241,1.198,5.486c-0.442,0.542-0.987,1-1.476,1.506c-0.558,0.578-1.159,1.249-2.004,0.698
			c-0.623-0.406-1.326-0.885-1.271-1.85C292.467,51.541,292.432,50.747,292.429,49.954z"/>
		<path style="fill-rule:evenodd;clip-rule:evenodd;fill:#7B491E;" d="M271.422,57.06c2.441-0.521,3.979,1.003,4.209,2.889
			c0.164,1.334-1.06,3.028-3.165,2.93c-1.453-0.068-4.686-2.322-4.48-3.407C268.324,57.686,269.366,56.526,271.422,57.06z"/>
		<path style="fill-rule:evenodd;clip-rule:evenodd;fill:#7B491E;" d="M231.002,46.36c1.382,0.009,2.974-0.36,2.851,1.941
			c-0.108,2.047-1.828,3.567-4.008,3.359c-0.406-0.039-0.815-0.255-1.183-0.462c-0.921-0.519-3.094,1.066-2.765-1.452
			c0.25-1.899,1.875-2.769,3.533-3.361C229.898,46.218,230.477,46.359,231.002,46.36z"/>
		<path style="fill-rule:evenodd;clip-rule:evenodd;fill:#7B491E;" d="M275.369,41.117c-0.042-1.972,0.974-2.99,2.593-3.225
			c1.135-0.164,4.31,2.726,4.317,3.657c0.011,1.311-2.461,3.541-3.916,3.127C276.68,44.197,275.264,43.065,275.369,41.117z"/>
		<path style="fill-rule:evenodd;clip-rule:evenodd;fill:#7B491E;" d="M179.866,70.318c-1.286-0.179-3.063-0.333-3.047-2.933
			c0.013-1.944,0.674-2.991,2.746-2.931c2.166,0.062,4.203,1.683,4.208,3.436C183.776,69.627,182.791,70.344,179.866,70.318z"/>
		<path style="fill-rule:evenodd;clip-rule:evenodd;fill:#7B491E;" d="M333.059,29.315c2.027-0.159,3.296,0.771,3.533,2.697
			c0.185,1.501-2.07,3.84-3.45,3.652c-1.946-0.267-3.238-1.807-3.291-3.467C329.799,30.592,330.897,29.01,333.059,29.315z"/>
		<path style="fill-rule:evenodd;clip-rule:evenodd;fill:#7B491E;" d="M311.432,16.528c1.929,0.022,3.772,1.729,3.88,3.716
			c0.069,1.297,0.093,2.661-1.973,1.716c-0.589-0.27-1.396-0.17-2.085-0.09c-2.037,0.239-3.064-0.885-3.299-2.659
			C307.765,17.775,309.577,16.508,311.432,16.528z"/>
		<path style="fill-rule:evenodd;clip-rule:evenodd;fill:#7B491E;" d="M160.683,67.661c2.598-0.018,3.95,1.23,3.918,3.508
			c-0.027,1.855-1.113,2.41-2.769,2.356c-1.902-0.062-4.306-2.212-4.138-3.842C157.885,67.83,159.214,67.534,160.683,67.661z"/>
		<path style="fill-rule:evenodd;clip-rule:evenodd;fill:#7B491E;" d="M304.677,21.57c0.362,2.421-1.661,3.853-3,4.787
			c-1.707,1.192-2.403-1.45-2.715-2.479c-0.574-1.897,0.534-3.699,2.306-4.591C303.392,18.218,304.672,19.187,304.677,21.57z"/>
		<path style="fill-rule:evenodd;clip-rule:evenodd;fill:#7B491E;" d="M273.788,67.436c0.011,1.774-1.359,3.546-3.025,3.393
			c-1.596-0.147-3.415-0.694-3.245-2.572c0.151-1.682,0.85-3.849,3.172-3.699C272.001,64.644,273.892,64.907,273.788,67.436z"/>
		<path style="fill-rule:evenodd;clip-rule:evenodd;fill:#7B491E;" d="M256.269,32.548c-2.375-0.131-3.581-1.186-3.791-3.342
			c-0.23-2.369,1.812-2.94,3.161-2.904c1.481,0.04,3.122,1.126,3.224,3.139C258.96,31.396,257.653,32.121,256.269,32.548z"/>
		<path style="fill-rule:evenodd;clip-rule:evenodd;fill:#7B491E;" d="M281.198,32.577c0.521,1.836-0.555,2.746-2.164,3.079
			c-1.235,0.256-3.099-2.187-3.116-3.9c-0.017-1.745,0.86-3.414,2.473-3.201C280.147,28.786,281.655,30.212,281.198,32.577z"/>
		<path style="fill-rule:evenodd;clip-rule:evenodd;fill:#7B491E;" d="M259.409,23.701c-0.176-1.893,0.814-3.281,2.483-3.331
			c1.725-0.051,3.23,1.44,3.222,3.104c-0.009,1.67-1.538,3.09-3.268,3.06C260.486,26.511,259.055,25.618,259.409,23.701z"/>
		<path style="fill-rule:evenodd;clip-rule:evenodd;fill:#7B491E;" d="M327.589,146.079c-0.04,0.988-0.53,1.437-1.464,1.479
			c-0.874,0.039-1.567-0.194-1.718-1.153c-0.206-1.322,0.989-1.663,1.759-1.809C326.798,144.477,327.401,145.318,327.589,146.079z"
			/>
		<path style="fill-rule:evenodd;clip-rule:evenodd;fill:#7B491E;" d="M217.384,177.258c-0.146,0.154-0.271,0.287-0.396,0.419
			c-0.061-0.226-0.176-0.455-0.16-0.675c0.01-0.153,0.199-0.295,0.308-0.442C217.213,176.778,217.292,176.997,217.384,177.258z"/>
		<path style="fill-rule:evenodd;clip-rule:evenodd;fill:none;" d="M119.342,40.205c0.039,2.062-1.612,3.223-2.61,4.703
			c-1.764,2.62-4.553,4.195-6.835,6.29c-4.321,3.965-8.316,8.023-9.938,13.976c-0.403,1.482-2.188,2.618-3.67,3.628
			c-0.91,0.62-1.575,0.32-2.059-0.14c-0.545-0.518,0.075-1.165,0.444-1.633c3.669-4.657,5.606-9.999,7.223-15.688
			c1.593-5.605,7.511-12.869,14.611-13.006C119.361,38.28,119.357,38.126,119.342,40.205z"/>
		<path style="fill-rule:evenodd;clip-rule:evenodd;fill:none;" d="M49.844,45.813c-1.845-0.581-4.217-1.018-6.739-0.554
			c-5.375,0.987-10.786,1.79-15.864,3.959c-1.169,0.5-2.401,0.729-3.438-0.186c-0.887-0.784,0.206-1.882,0.44-1.921
			c1.29-0.217,2.011-1.432,3.177-1.683c4.545-0.978,8.203-3.766,12.199-5.863c5.764-3.024,11.468-5.683,18.237-2.534
			c1.362,0.634,3.043,1.621,4.881,1.379c0.672-0.088,1.149,0.474,1.164,1.178c0.011,0.545,0.339,1.308-0.637,1.458
			c-4.307,0.663-7.454,4.207-11.803,4.76C51.112,45.852,50.752,45.813,49.844,45.813z"/>
		<path style="fill-rule:evenodd;clip-rule:evenodd;fill:none;" d="M277.545,97.819c-0.79,7.233-2.487,14.117-6.893,20.225
			c-2.769,3.838-4.552,8.163-4.958,13.092c-0.281,3.396-1.739,6.632-3.862,9.424c-0.401,0.528-0.827,1.125-1.674,1.142
			c-3.648,0.074-7.193-0.606-10.41-2.221c-2.443-1.228-3.456-4.301-6.133-5.475c-0.27-0.118-0.787-0.961-0.567-1.821
			c1.188-4.653,2.249-9.339,3.377-14.008c0.734-3.034,2.905-5.156,5.077-7.085c2.109-1.872,3.243-3.915,3.731-6.697
			c0.843-4.796,4.018-8.137,7.881-10.843c0.569-0.399,1.034-0.756,1.382-1.389c1.704-3.1,5.33-4.798,8.88-4.263
			c1.619,0.245,2.535,1.516,2.816,2.771C276.717,93.014,278.077,95.237,277.545,97.819z"/>
		<path style="fill-rule:evenodd;clip-rule:evenodd;fill:none;" d="M188.36,125.088c2.839,1.442,6.57-0.769,9.056,2.203
			c2.181,2.607,3.519,5.478,3.179,9.056c-0.522,5.498-3.785,9.333-7.165,13.322c-4.912,5.798-7.852,12.703-9.609,20.069
			c-1.604,6.726-6.127,10.979-11.801,14.277c-0.855,0.497-1.953,0.694-2.961,0.792c-2.532,0.245-3.609-1.123-2.863-3.484
			c0.181-0.57,0.539-1.156,0.498-1.712c-0.169-2.306,0.907-3.722,2.85-4.815c4.747-2.673,6.632-6.414,5.293-12.064
			c-1.196-5.047-0.646-10.343-0.654-15.537c-0.001-0.795,0.196-1.684-0.083-2.372c-2.415-5.951,1.575-9.809,4.728-13.704
			c1.426-1.761,3.656-2.987,5.478-4.52C185.38,125.695,186.621,124.634,188.36,125.088z"/>
		<path style="fill-rule:evenodd;clip-rule:evenodd;fill:none;" d="M147.088,156.604c-0.032,5.165-2.184,9.18-3.613,13.392
			c-0.051,0.15-0.282,0.232-0.361,0.383c-2.267,4.318-2.315,4.354-5.271,0.253c-4.101-5.69-7.87-11.606-12.141-17.192
			c-1.565-2.047-2.044-5.064-2.545-7.729c-0.284-1.513-0.873-2.779-1.499-4.091c-0.947-1.987-0.039-3.228,2.132-3.697
			c7.243-1.568,12.745,2.084,17.788,6.225C145.461,147.335,146.658,152.203,147.088,156.604z"/>
		<path style="fill-rule:evenodd;clip-rule:evenodd;fill:none;" d="M95.884,143.608c0,4.223-4.783,10.075-8.79,10.142
			c-2.307,0.038-4.852-0.562-6.898-1.626c-3.185-1.656-6.177-0.559-9.168-0.07c-4.744,0.774-9.507,1.33-14.285,1.27
			c-2.446-0.032-4.693-1.509-6.903-2.613c-0.58-0.29-1.084-0.447-1.696-0.501c-2.689-0.233-3.789-2.394-2.546-4.821
			c1.858-3.625,5.055-5.826,8.311-7.979c0.596-0.395,1.38-0.842,1.946-0.469c2.322,1.528,5.04,0.771,7.519,1.482
			c6.066,1.741,12.246,1.139,18.311-0.017c4.768-0.907,8.988,0.662,13.262,2.144C96.241,140.999,95.893,142.478,95.884,143.608z"/>
	</g>
</g>
</svg>
