<?xml version="1.0" encoding="iso-8859-1"?>
<!-- Generator: Adobe Illustrator 16.0.0, SVG Export Plug-In . SVG Version: 6.00 Build 0)  -->
<!DOCTYPE svg PUBLIC "-//W3C//DTD SVG 1.1//EN" "http://www.w3.org/Graphics/SVG/1.1/DTD/svg11.dtd">
<svg version="1.1" id="Layer_1" xmlns="http://www.w3.org/2000/svg" xmlns:xlink="http://www.w3.org/1999/xlink" x="0px" y="0px"
	 width="401.13px" height="205.415px" viewBox="0 0 401.13 205.415" style="enable-background:new 0 0 401.13 205.415;"
	 xml:space="preserve">
<g>
	<g>
		<path style="fill:none;" d="M200.596,204.864c-65.888,0-131.776-0.008-197.664,0.044c-1.806,0.001-2.425-0.155-2.422-2.261
			C0.586,135.997,0.582,69.345,0.523,2.695C0.521,0.85,1.011,0.531,2.741,0.532C134.612,0.576,266.484,0.579,398.355,0.51
			c2.105-0.001,2.262,0.616,2.261,2.422c-0.053,66.556-0.056,133.111,0.014,199.667c0.002,2.006-0.461,2.318-2.369,2.315
			C332.373,204.854,266.484,204.864,200.596,204.864z M352.457,45.166c-1.465-0.273-2.983-0.396-3.672,1.254
			c-0.671,1.611-0.455,3.295,0.416,4.83c0.522,0.921,0.832,1.459-0.205,2.534c-1.28,1.326-0.53,3.147,0.409,4.626
			c0.788,1.24,2.116,1.449,3.257,1.009c1.646-0.636,0.663-2.333,1.02-3.512c0.405-1.342-1.874-1.854-1.074-2.769
			c2.226-2.543,0.716-5.03,0.306-7.558c0.155-0.099,0.306-0.273,0.469-0.287c2.689-0.219,3.044-2.249,2.428-4.041
			c-0.574-1.669-2.025-3.566-4.206-2.818c-2.333,0.799-1.161,2.814-0.81,4.429C351.015,43.881,351.797,44.474,352.457,45.166z
			 M180.233,167.668c0.973,0,1.451-0.032,1.925,0.005c2.928,0.228,5.07-0.418,5.047-4.014c-0.004-0.643,0.607-1.342,1.348-1.907
			c1.738-1.328,3.595-2.196,5.698-2.668c3.956-0.89,6.33-4.162,6.67-8.118c0.432-5.013-1.258-9.599-2.464-14.242
			c-1.215-4.684-3.885-6.252-8.822-6.252c-0.667,0-1.34-0.058-2,0.011c-1.958,0.202-3.153-0.458-4.322-2.256
			c-2.674-4.109-5.023-4.368-9.708-2.484c-1.525,0.613-3.136,2.092-5.391,0.368c-1.036-0.792-3.281-2.223-4.916-1.258
			c-2.34,1.38-4.746,1.183-7.101,0.969c-3.1-0.281-5.363,0.986-7.415,2.976c-1.26,1.222-2.643,1.69-4.443,1.769
			c-1.619,0.069-3.04-1.251-4.663-0.438c-3.149,1.573-6.467,2.916-6.985,7.149c-0.135,1.11-1.192,2.015-2.288,2.273
			c-0.835,0.197-1.515,0.546-1.835,1.171c-2.176,4.237-6.128,7.223-7.438,12.229c-1.142,4.363-1.991,8.296,0.162,12.442
			c1.672,3.221,5.552,5.643,8.359,4.336c2.509-1.168,5.289-0.646,7.816-1.896c1.207-0.596,3.267-0.729,4.851,0.486
			c3.226,2.473,6.778,2.131,10.344,0.853c3.328-1.192,6.682-2.292,9.955-3.672c2.224-0.938,4.528-1.338,7.408-0.405
			C173.429,166.197,176.719,168.835,180.233,167.668z M235.966,102.984c-2.525,0.069-4.207,0.267-5.974,0.75
			c-2.103,0.574-4.102,1.724-6.439,1.592c-3.535-0.199-6.484,1.226-8.986,3.695c-3.004,2.966-5.7,5.881-6.637,10.412
			c-0.76,3.668-2.673,7.081-1.315,10.965c0.279,0.8,0.655,1.552,0.54,2.433c-0.591,4.504,1.873,8.153,4.059,11.493
			c4.243,6.481,11.29,9.113,18.189,12.029c5.396,2.28,10.791-1.122,15.979,0.998c0.235,0.097,0.642,0.082,0.83-0.062
			c3.303-2.523,7.637-3.432,9.914-7.681c1.419-2.646,4.048-4.789,6.399-6.975c3.134-2.913,7.07-5.594,6.062-11.402
			c-0.668-3.842-1.239-7.46-3.663-10.521c-2.998-3.786-6.16-7.423-11.216-8.576c-1.364-0.312-1.83-1.282-1.965-2.698
			c-0.25-2.628-1.771-4.213-4.257-5.361C243.443,102.208,239.193,104.398,235.966,102.984z M47.499,32.066
			c-0.393,2.377,1.437,3.592,3.28,4.42c1.713,0.77,3.627,1.474,5.327-0.617c0.742-0.913,1.884-2.58,3.6-1.048
			c1.809,1.615,2.965,0.285,3.968-0.985c1.297-1.643,0.229-3.304-0.878-4.213c-1.034-0.848-2.79-1.084-3.841,0.626
			c-0.435,0.708-1.221,1.535-1.868,0.695c-1.219-1.583-3.024-1.68-4.607-2.353C49.409,27.287,47.463,28.563,47.499,32.066z
			 M19.434,177.233c0.062,1.469-0.241,2.655,1.202,2.998c1.367,0.323,2.206-0.189,2.829-1.505c1.2-2.536,3.02-4.68,3.558-7.651
			c0.615-3.398,0.355-5.267-2.005-6.104c-2.522-0.896-4.25,0.487-5.627,3.586C17.982,171.724,21.579,174.655,19.434,177.233z
			 M54.213,121.974c1.947,0.799,3.095-0.752,4.129-2.321c1.13-1.716,0.55-3.272-0.48-4.91c-1.037-1.646-2.457-2.473-4.203-2.126
			c-2.478,0.493-4.676,1.697-6.512,3.548c-0.963,0.972-0.975,2.039-0.658,3.124c0.323,1.104,1.175,1.843,2.372,2.012
			C50.521,121.534,52.188,121.721,54.213,121.974z M101.248,175.436c-0.634-1.386-2.596-2.213-4.049-3.339
			c-1.213-0.938-3.272-0.955-4.712,0.155c-1.712,1.321-3.46,3.144-3.028,5.309c0.462,2.315,2.515,3.959,4.882,4.553
			c1.803,0.452,2.519-1.309,3.548-2.405c0.828-0.883,1.344-2.115,2.672-2.521C100.975,177.06,101.303,176.607,101.248,175.436z
			 M36.624,184.868c0.001-3.333-1.049-4.502-4.138-4.609c-2.465-0.085-4.426,2.395-4.445,5.622
			c-0.016,2.623,2.068,5.701,3.921,5.791C33.951,191.768,36.623,187.869,36.624,184.868z M371.45,62.905
			c-0.223,1.962,0.299,3.117,1.843,3.438c1.564,0.325,2.828-0.228,3.26-1.901c0.545-2.114,1.691-3.396,4.006-3.549
			c0.558-0.037,1.125-0.604,1.604-1.023c1.698-1.487,1.878-3.182,0.404-4.902c-1.581-1.842-3.115-1.571-4.771,0.094
			c-1.959,1.971-2.254,5.502-5.846,6.008C371.008,61.203,371.505,62.558,371.45,62.905z M312.775,74.392
			c1.118-0.006,3.957-1.069,5.177-1.755c1.678-0.943,1.813-2.072,0.838-3.635c-1.995-3.195-4.141-3.728-7.934-2.098
			c-1.676,0.72-3.047,1.604-2.926,3.563C308.04,72.245,310.887,74.401,312.775,74.392z M23.462,155.698
			c0.008-3.033-1.177-4.764-2.907-3.955c-2.054,0.96-4.333,1.749-5.769,3.739c-1.647,2.283-1.362,4.776,0.652,5.604
			C19.42,162.725,23.451,160.018,23.462,155.698z M133.286,34.187c-0.262,0.833,0.188,1.975,0.7,2.885
			c0.651,1.155,1.928,2.074,3.09,0.589c1.076-1.374,2.42-2.114,3.933-2.831c1.943-0.922,1.784-2.918,1.365-4.493
			c-0.341-1.286-1.439-2.251-3.158-2.338C134.797,27.777,134.032,28.766,133.286,34.187z M38.336,123.708
			c0-0.663,0.077-1.337-0.014-1.987c-0.261-1.855-2.521-3.083-3.787-1.911c-1.828,1.692-3.945,3.175-4.833,5.734
			c-0.737,2.123,0.371,4.171,2.549,4.355C35.944,130.212,38.336,127.781,38.336,123.708z M75.536,114.833
			c0.053-2.192-2.429-4.452-4.814-4.385c-1.153,0.034-4.866,4.65-4.913,6.11c-0.062,1.933,1.83,4.031,3.735,4.144
			C71.032,120.792,75.498,116.417,75.536,114.833z M78.111,185.409c-4.526-0.038-6.592,1.354-6.58,4.332
			c0.011,2.845,1.319,4.24,3.981,4.248c2.477,0.007,5.907-2.639,5.704-4.605C81.016,187.456,81.236,184.923,78.111,185.409z
			 M28.637,137.87c0.319-0.927-0.566-1.593-1.335-2.021c-1.268-0.706-2.775-0.302-3.674,0.566c-2.048,1.979-4.437,3.693-5.398,6.663
			c-0.35,1.081-0.349,1.604,0.425,2.38c0.808,0.809,1.872,1.596,2.692,0.897c2.418-2.058,5.114-3.856,6.9-6.603
			C28.601,139.208,28.569,138.699,28.637,137.87z M111.015,146.303c0.031-1.512-2.52-4.315-3.959-4.352
			c-1.752-0.045-4.482,4.101-4.611,7c-0.075,1.686,1.844,3.758,3.554,3.837C108.222,152.892,110.953,149.361,111.015,146.303z
			 M98.438,162.711c-0.537,1.577,1.162,2.12,1.745,3.23c0.735,1.399,1.802,2.606,3.685,1.768c2.491-1.11,3.909-3.365,3.11-5.32
			c-0.86-2.101-1.203-5.067-4.629-4.408C100.484,158.34,98.11,159.949,98.438,162.711z M126.395,21.741
			c2.182,0.029,6.326-3.464,6.364-5.125c0.035-1.474-2.5-4.507-3.761-4.501c-2.697,0.014-5.971,3.714-5.96,6.751
			C123.047,21.336,125.012,21.354,126.395,21.741z M89.034,126.471c1.803,0.032,2.791-1.302,4.026-2.301
			c1.495-1.208,1.918-2.894,1.138-4.278c-0.807-1.431-1.484-3.461-3.549-3.685c-1.92-0.208-2.644,1.56-3.635,2.753
			c-0.459,0.552-0.767,1.266-1.01,1.954C85.134,123.38,86.847,126.477,89.034,126.471z M327.325,31.019
			c0.005-3.922-0.162-4.112-3.624-4.123c-3.459-0.011-4.968,1.129-4.96,3.748c0.008,2.791,2.362,4.902,5.491,4.825
			C327.229,35.395,327.354,33.241,327.325,31.019z M52.646,70.909c0.021-3.23-0.619-3.926-3.64-3.957
			c-2.191-0.022-6.021,2.721-6.012,4.307c0.007,1.285,4.214,4.236,6.097,4.277C51.372,75.586,52.627,73.952,52.646,70.909z
			 M158.189,30.329c2.742,0.068,5.499-2.234,4.754-4.215c-0.577-1.536-0.04-2.2,0.818-3.322c0.834-1.091,1.92-2.627,0.031-4.119
			c-1.785-1.409-3.326-0.629-3.799,0.854c-0.968,3.039-3.1,5.555-3.691,8.676C156.107,29.23,156.587,30.484,158.189,30.329z
			 M35.479,54.079c0-0.718,0.016-1.1-0.003-1.479c-0.055-1.079,0.319-2.236-1.164-2.855c-1.49-0.622-2.122,0.42-3.075,1.091
			c-1.828,1.284-2.407,3.327-3.093,5.186c-0.632,1.71,0.224,3.494,1.766,4.394c1.678,0.979,3.072-0.104,4.114-1.465
			C35.192,57.422,35.945,55.744,35.479,54.079z M37.131,45.453c-0.147,1.097,0.365,2.633,2.473,2.157
			c2.728-0.615,4.619-2.25,5.729-5.113c0.786-2.029-0.175-3.077-1.196-4.081c-1.247-1.226-2.871-0.781-4.072,0.256
			C38.256,40.233,37.174,42.247,37.131,45.453z M76.109,50.003c0.055,1.537,1.12,2.908,3.097,3.16
			c2.295,0.292,4.992-3.013,4.912-5.742c-0.05-1.723-2.192-4.422-3.563-4.491C78.593,42.833,76.113,46.492,76.109,50.003z
			 M114.941,21.173c-2.771,0.012-5.711,2.158-5.639,4.116c0.085,2.338,2.586,4.016,5.804,3.893c1.593-0.061,3.949-2.967,3.893-5.047
			C118.927,21.515,117.115,21.04,114.941,21.173z M74.988,32.046c-3.021-0.333-2.776,2.478-3.283,3.97
			c-0.653,1.924,2.969,4.614,5.62,4.625c2.521,0.01,3.172-1.746,3.318-3.679C80.839,34.374,78.031,32.051,74.988,32.046z
			 M48.642,190.631c-0.029,2.695,1.367,4.819,3.128,4.881c3.678,0.128,5.948-1.301,5.988-3.771c0.032-1.989-3.141-4.885-5.428-4.534
			C50.503,187.488,48.246,187.896,48.642,190.631z M334.393,31.524c-2.042-1.083-2.281,0.832-2.372,1.64
			c-0.405,3.579,2.256,6.216,6.247,6.27c1.871,0.025,2.716-1.68,2.657-3.047c-0.062-1.447-0.774-3.013-1.791-4.248
			C337.735,30.439,335.969,31.175,334.393,31.524z M107.008,34.333c0.482-1.957-1.239-3-2.565-3.765
			c-1.346-0.777-2.57,0.538-3.523,1.571c-1.235,1.339-1.849,3.028-1.866,4.777c-0.016,1.604,0.378,3.227,2.629,3.147
			C104.088,39.978,107.03,36.959,107.008,34.333z M99.001,47.949c-0.142-1.618-1.318-2.808-3.739-2.752
			c-2.416,0.055-4.244,2.577-4.278,5.981c-0.019,1.854,0.874,3.111,2.705,3.126C96.459,54.325,98.986,51.492,99.001,47.949z
			 M146.126,80.114c2.709,0.025,4.811-1.824,4.82-4.24c0.007-1.873-2.315-3.033-5.866-3.237c-2.146-0.124-3.491,0.723-3.667,2.744
			C141.209,77.71,143.776,80.093,146.126,80.114z M31.475,69.08c0.068,2.496,2.417,4.682,5.068,4.739
			c2.281,0.05,2.775-1.671,2.869-3.3c0.129-2.242-2.435-6.339-3.646-6.345C34.332,64.167,31.431,67.483,31.475,69.08z
			 M139.712,38.892c-1.43,0.428-3.286,0.621-3.521,2.959c-0.251,2.507,1.349,4.642,3.789,5.004c2.328,0.345,4.881-1.661,5.217-4.099
			C145.43,41.056,142.952,39.229,139.712,38.892z M65.475,64.664c-2.29-0.03-5.223,2.316-5.276,4.22
			c-0.041,1.471,3.013,3.784,5.004,3.792c2.177,0.008,3.968-1.976,4.036-4.471C69.296,66.128,67.772,64.694,65.475,64.664z
			 M74.286,56.652c-2.124,0.042-3.992,2.082-3.899,4.259c0.089,2.116,2.077,4.274,3.979,4.322c1.868,0.047,4.483-2.49,4.489-4.354
			C78.86,58.591,76.714,56.605,74.286,56.652z M97.22,67.511c2.522,0.198,4.322-0.997,5.088-2.931
			c0.579-1.462,0.464-3.382-1.337-4.531c-2.575-1.641-3.906,0.806-5.589,1.761c-1.256,0.712-2.543,2.116-1.912,3.684
			C94.073,66.995,95.507,67.983,97.22,67.511z M107.246,69.241c3.806,0.08,7.027-2.356,7.187-5.507
			c0.093-1.845-0.764-2.604-2.711-2.545c-3.31,0.1-6.391,2.994-6.433,6.284C105.271,68.85,105.994,69.316,107.246,69.241z
			 M307.407,37.768c2.275,0.042,4.435-1.729,4.467-3.663c0.029-1.769-2.41-4.846-3.897-4.918c-1.713-0.083-5.058,3.499-4.586,5.397
			C303.838,36.383,305.116,37.912,307.407,37.768z M183.695,36.737c0.378,1.394,0.727,3.194,3.034,3.311
			c1.961,0.099,4.387-2.435,4.401-4.528c0.014-2.4-2.019-5.206-3.685-5.085C185.879,30.547,183.665,34.058,183.695,36.737z
			 M391.401,48.444c0.174-1.958-0.454-3.429-2.767-3.205c-2.475,0.24-4.506,1.559-6.377,3.127c-0.589,0.494-0.833,1.156-0.407,1.759
			c1.227,1.739,3.364,2.802,5.048,2.312C388.659,51.925,391.799,51.903,391.401,48.444z M100.715,130.253
			c0.021,2.559,1.32,4.194,3.358,4.225c2.256,0.033,4.089-1.91,4.081-4.324c-0.009-2.683-1.303-4.342-3.322-4.259
			C102.541,125.99,100.697,127.942,100.715,130.253z M287.13,45.208c-2.85-0.011-4.394,1.188-4.403,3.421
			c-0.009,1.914,2.325,4,4.494,4.018c2.599,0.021,4.074-1.363,4.053-3.801C291.25,46.32,289.996,45.219,287.13,45.208z
			 M173.39,65.478c-0.249-1.294-0.947-2.074-2.061-2.431c-2.065-0.663-5.473,0.954-6.569,2.949
			c-0.916,1.667-0.287,2.822,0.936,3.953c1.07,0.99,1.974,1.139,3.482,0.559C171.71,69.534,171.878,66.979,173.39,65.478z
			 M147.369,53.221c-2.876-0.026-5.525,2.451-5.447,4.947c0.067,2.167,1.688,2.778,3.375,3.017c1.623,0.229,5.501-3.802,5.134-5.42
			C150.088,54.251,149.28,52.771,147.369,53.221z M132.761,20.544c-0.029,1.945,1.893,4.649,3.288,4.625
			c2.003-0.035,5.145-2.638,5.207-4.314c0.057-1.533-2.024-3.664-3.601-3.686C135.215,17.133,132.787,18.808,132.761,20.544z
			 M335.907,50.064c0.265,0.982-0.729,2.844,1.269,3.059c3.157,0.339,4.995-1.611,5.029-4.914c0.022-2.187-0.261-4.317-2.908-4.665
			C337.309,43.284,335.929,46.041,335.907,50.064z M122.436,64.305c0.009,0.835,0.564,1.932,2.203,2.062
			c3.32,0.265,6.268-1.604,6.427-3.871c0.203-2.874-2.155-3.04-3.861-3.47C125.265,58.537,122.547,61.42,122.436,64.305z
			 M296.285,40.633c0.928-0.547,2.99,0.345,3-2.041c0.011-2.692-1.735-5.912-3.249-5.974c-1.784-0.073-4.688,2.497-4.753,4.208
			C291.209,38.735,293.515,40.574,296.285,40.633z M157.071,76.681c2.592,0.004,5.663-2.688,5.323-5
			c-0.202-1.373-1.274-2.443-2.974-2.449c-2.608-0.009-5.431,2.321-5.496,4.535C153.858,75.987,154.986,76.83,157.071,76.681z
			 M186.189,42.918c-1.978,0.015-4.864,2.7-4.762,4.572c0.106,1.972,1.685,2.702,3.257,2.793c2.427,0.142,5.327-2.392,5.274-4.411
			C189.895,43.477,188.31,42.803,186.189,42.918z M179.271,53.232c-1.103-0.378-1.528,0.893-2.405,1.094
			c-1.753,0.403-3.061,1.386-2.825,3.22c0.223,1.735,1.788,2.6,3.41,2.811c1.74,0.227,3.019-0.913,4.275-1.986
			c1.048-0.896,1.146-2.125,0.654-3.078C181.812,54.195,180.962,52.985,179.271,53.232z M168.208,17.558
			c-0.02,1.415,0.332,2.385,1.753,2.728c1.208,0.291,5.949-3.153,6.413-4.618c0.405-1.28-0.292-1.967-1.324-2.533
			C171.812,11.359,168.26,13.698,168.208,17.558z M324.464,66.796c-0.033,2.732,1.105,4.136,3.373,4.162
			c2.246,0.025,4.064-1.554,4.052-3.624c-0.014-2.237-0.945-3.534-3.45-3.263C326.577,64.272,324.167,63.509,324.464,66.796z
			 M189.414,25.494c0-3.688-0.456-4.326-2.878-4.32c-1.981,0.004-3.492,1.723-3.415,3.884c0.082,2.309,2.039,5.019,3.554,4.607
			C188.811,29.085,189.985,27.598,189.414,25.494z M137.199,52.072c-1.915,0.02-5.147,2.82-4.843,4.292
			c0.356,1.725,0.998,3.47,3.459,3.173c1.542-0.187,4.462-2.979,4.35-4.572C140.034,53.1,139.27,51.688,137.199,52.072z
			 M333.635,61.308c-0.024,1.272-0.135,2.054,0.647,2.553c0.954,0.608,1.473-0.167,2.208-0.563c2.137-1.151,3.167-2.828,3.658-5.224
			c0.25-1.218,0.266-1.925-0.625-2.663c-0.951-0.789-1.787-0.42-2.822,0.022C333.73,56.703,334.848,59.805,333.635,61.308z
			 M382.846,43.242c2.089-0.237,2.138-2.551,2.732-4.209c0.455-1.267-2.194-3.595-3.68-3.545c-1.337,0.045-3.793,2.875-3.61,4.355
			C378.578,42.199,380.475,42.802,382.846,43.242z M151.831,42.932c-2.593-0.081-5.541,2.677-5.257,4.821
			c0.15,1.138,0.658,2.5,2.301,2.608c2.234,0.146,4.955-2.326,5.055-4.646C154.004,43.976,153.083,43.105,151.831,42.932z
			 M294.956,65.237c-1.652-0.481-2.674,0.577-3.025,2.166c-0.332,1.506,2.847,4.917,4.389,4.582c1.452-0.314,3.249-0.67,3.016-3.096
			C299.094,66.376,297.995,65.222,294.956,65.237z M139.628,68.726c0.016,1.976,1.076,3.385,2.535,3.37
			c1.693-0.017,4.484-3.029,4.29-4.861c-0.178-1.673-1.271-2.571-3.026-2.576C141.559,64.654,139.612,66.718,139.628,68.726z
			 M72.091,32.022c0.041-1.855-2.183-3.906-3.914-3.995c-1.923-0.099-3.077,0.958-3.449,2.612c-0.325,1.447,2.558,4.32,4.004,4.258
			C70.737,34.811,71.323,33.169,72.091,32.022z M180.826,16.935c-0.393,2.046,0.958,2.516,2.798,2.525
			c2.463,0.013,4.149-1.349,4.006-3.619c-0.096-1.524-0.733-2.811-2.817-2.724C182.223,13.226,180.87,14.284,180.826,16.935z
			 M288.985,63.698c-0.019-2.579-1.595-4.129-3.942-4.196c-1.631-0.047-2.782,0.48-2.908,2.251c-0.13,1.833,2.633,4.754,4.529,4.525
			C288.021,66.115,289.415,65.403,288.985,63.698z M370.264,65.156c-0.438-1.478-1.207-3.268-3.206-3.253
			c-1.895,0.014-3.226,1.51-3.597,3.378c-0.252,1.27,2.623,3.915,4.059,3.727C369.45,68.752,370.219,67.322,370.264,65.156z
			 M357.721,37.765c2.089,0.245,2.592-1.248,2.752-2.77c0.201-1.911-2.111-3.919-4.146-4.129c-2.142-0.222-2.289,1.446-2.464,2.644
			C353.607,35.265,356.119,37.789,357.721,37.765z M374.769,38.918c2.369,0.206,3.096-1.468,3.44-3.272
			c0.288-1.5-2.252-3.642-4-3.601c-1.675,0.039-2.345,1.355-2.588,2.564C371.273,36.345,373.351,38.896,374.769,38.918z
			 M157.421,33.224c-2.126,0.055-4.288,2.327-4.034,4.13c0.276,1.961,1.758,3.273,3.491,3.122c1.932-0.169,2.606-2.219,2.702-3.935
			C159.666,35.028,158.718,33.787,157.421,33.224z M355.814,60.667c-0.961,0.403-2.668,0.271-2.7,2.2
			c-0.022,1.316,3.362,4.866,4.45,4.565c1.255-0.346,2.292-1.268,2.363-2.755C360.018,62.816,357.864,60.607,355.814,60.667z
			 M368.531,32.722c-0.136-1.057,0.613-2.559-1.588-2.438c-1.558,0.085-2.504,0.328-2.46,2.188c0.035,1.481,0.4,2.816,1.921,2.917
			C367.955,35.492,368.6,34.246,368.531,32.722z"/>
		<path style="fill-rule:evenodd;clip-rule:evenodd;fill:#7B491E;" d="M180.233,167.668c-3.515,1.167-6.805-1.472-10.207-2.574
			c-2.88-0.933-5.184-0.532-7.408,0.405c-3.273,1.38-6.627,2.479-9.955,3.672c-3.566,1.278-7.118,1.62-10.344-0.853
			c-1.584-1.215-3.644-1.082-4.851-0.486c-2.527,1.249-5.307,0.728-7.816,1.896c-2.807,1.307-6.687-1.115-8.359-4.336
			c-2.153-4.146-1.304-8.079-0.162-12.442c1.311-5.006,5.263-7.991,7.438-12.229c0.321-0.625,1-0.974,1.835-1.171
			c1.096-0.259,2.153-1.163,2.288-2.273c0.518-4.233,3.836-5.576,6.985-7.149c1.624-0.812,3.044,0.508,4.663,0.438
			c1.8-0.078,3.183-0.547,4.443-1.769c2.051-1.989,4.315-3.257,7.415-2.976c2.355,0.214,4.76,0.411,7.101-0.969
			c1.635-0.965,3.879,0.466,4.916,1.258c2.255,1.724,3.866,0.245,5.391-0.368c4.684-1.884,7.034-1.625,9.708,2.484
			c1.169,1.798,2.364,2.458,4.322,2.256c0.66-0.068,1.333-0.011,2-0.011c4.937,0,7.607,1.568,8.822,6.252
			c1.206,4.644,2.896,9.229,2.464,14.242c-0.34,3.956-2.714,7.229-6.67,8.118c-2.104,0.472-3.96,1.34-5.698,2.668
			c-0.74,0.565-1.352,1.265-1.348,1.907c0.023,3.596-2.119,4.241-5.047,4.014C181.685,167.636,181.206,167.668,180.233,167.668z
			 M178.965,148.257c-3.153-1.388-5.52-3.29-8.079-4.459c-3.731-1.703-7.887-0.482-11.863,0.127
			c-5.354,0.821-10.342,3.249-15.919,3.229c-3.169-0.013-5.712,1.92-7.669,4.432c-0.492,0.63-0.759,1.691,0.263,1.686
			c2.486-0.015,5.072,1.02,7.475-0.757c1.064-0.787,2.442-1.177,3.81-1.562c2.197-0.619,4.443,1.082,6.24,0.004
			c2.361-1.416,4.735-0.86,7.119-1.021C166.326,149.534,172.441,150.97,178.965,148.257z"/>
		<path style="fill-rule:evenodd;clip-rule:evenodd;fill:#7B491E;" d="M235.966,102.984c3.228,1.414,7.478-0.775,11.52,1.092
			c2.485,1.148,4.007,2.733,4.257,5.361c0.135,1.416,0.601,2.387,1.965,2.698c5.056,1.153,8.218,4.79,11.216,8.576
			c2.424,3.061,2.995,6.679,3.663,10.521c1.009,5.809-2.928,8.489-6.062,11.402c-2.352,2.186-4.98,4.328-6.399,6.975
			c-2.277,4.249-6.611,5.157-9.914,7.681c-0.188,0.144-0.595,0.158-0.83,0.062c-5.188-2.12-10.583,1.282-15.979-0.998
			c-6.899-2.916-13.946-5.548-18.189-12.029c-2.186-3.34-4.649-6.989-4.059-11.493c0.115-0.881-0.261-1.633-0.54-2.433
			c-1.357-3.884,0.556-7.297,1.315-10.965c0.937-4.531,3.633-7.446,6.637-10.412c2.502-2.47,5.451-3.895,8.986-3.695
			c2.338,0.132,4.337-1.018,6.439-1.592C231.759,103.25,233.44,103.053,235.966,102.984z M247.208,132.224
			c-0.436-3.381-2.861-5.904-3.24-9.191c-0.051-0.439-1.187-1.021-1.851-1.064c-1.25-0.082-2.321-0.615-3.472-0.94
			c-3.772-1.065-7.466-1.315-11,0.867c-3.151,1.946-4.28,5.714-1.943,7.882c3.787,3.514,7.657,6.891,10.626,11.191
			c0.733,1.063,1.988,2.133,3.594,1.099c3.625-2.333,4.625-6.643,7.28-9.709C247.249,132.303,247.208,132.172,247.208,132.224z"/>
		<path style="fill-rule:evenodd;clip-rule:evenodd;fill:#7B491E;" d="M47.499,32.066c-0.035-3.502,1.911-4.779,4.981-3.475
			c1.583,0.673,3.388,0.77,4.607,2.353c0.647,0.84,1.433,0.014,1.868-0.695c1.051-1.71,2.807-1.474,3.841-0.626
			c1.107,0.909,2.175,2.57,0.878,4.213c-1.002,1.27-2.159,2.6-3.968,0.985c-1.716-1.532-2.858,0.136-3.6,1.048
			c-1.699,2.091-3.613,1.387-5.327,0.617C48.935,35.658,47.106,34.443,47.499,32.066z"/>
		<path style="fill-rule:evenodd;clip-rule:evenodd;fill:#7B491E;" d="M19.434,177.233c2.146-2.578-1.452-5.509-0.044-8.677
			c1.377-3.099,3.105-4.482,5.627-3.586c2.36,0.838,2.621,2.706,2.005,6.104c-0.538,2.972-2.357,5.115-3.558,7.651
			c-0.623,1.315-1.461,1.828-2.829,1.505C19.192,179.888,19.496,178.702,19.434,177.233z"/>
		<path style="fill-rule:evenodd;clip-rule:evenodd;fill:#7B491E;" d="M54.213,121.974c-2.026-0.253-3.692-0.44-5.352-0.674
			c-1.197-0.169-2.049-0.907-2.372-2.012c-0.317-1.085-0.306-2.152,0.658-3.124c1.835-1.851,4.034-3.055,6.512-3.548
			c1.746-0.347,3.166,0.479,4.203,2.126c1.031,1.638,1.61,3.194,0.48,4.91C57.308,121.222,56.16,122.773,54.213,121.974z"/>
		<path style="fill-rule:evenodd;clip-rule:evenodd;fill:#7B491E;" d="M101.248,175.436c0.055,1.171-0.272,1.624-0.688,1.751
			c-1.328,0.406-1.844,1.639-2.672,2.521c-1.029,1.097-1.745,2.857-3.548,2.405c-2.367-0.594-4.42-2.237-4.882-4.553
			c-0.432-2.165,1.316-3.987,3.028-5.309c1.44-1.11,3.5-1.094,4.712-0.155C98.651,173.223,100.613,174.05,101.248,175.436z"/>
		<path style="fill-rule:evenodd;clip-rule:evenodd;fill:#7B491E;" d="M36.624,184.868c0,3.001-2.673,6.9-4.662,6.804
			c-1.853-0.09-3.937-3.168-3.921-5.791c0.02-3.228,1.98-5.707,4.445-5.622C35.575,180.366,36.625,181.535,36.624,184.868z"/>
		<path style="fill-rule:evenodd;clip-rule:evenodd;fill:#7B491E;" d="M371.45,62.905c0.055-0.347-0.442-1.702,0.501-1.835
			c3.592-0.506,3.887-4.037,5.846-6.008c1.655-1.666,3.189-1.937,4.771-0.094c1.474,1.72,1.294,3.415-0.404,4.902
			c-0.479,0.419-1.047,0.987-1.604,1.023c-2.314,0.153-3.461,1.435-4.006,3.549c-0.432,1.673-1.695,2.226-3.26,1.901
			C371.749,66.022,371.228,64.867,371.45,62.905z"/>
		<path style="fill-rule:evenodd;clip-rule:evenodd;fill:#7B491E;" d="M312.775,74.392c-1.889,0.009-4.735-2.147-4.845-3.925
			c-0.121-1.959,1.25-2.843,2.926-3.563c3.793-1.63,5.938-1.097,7.934,2.098c0.976,1.563,0.84,2.692-0.838,3.635
			C316.732,73.323,313.894,74.386,312.775,74.392z"/>
		<path style="fill-rule:evenodd;clip-rule:evenodd;fill:#7B491E;" d="M23.462,155.698c-0.011,4.32-4.042,7.027-8.024,5.389
			c-2.014-0.828-2.3-3.321-0.652-5.604c1.436-1.99,3.715-2.779,5.769-3.739C22.285,150.934,23.47,152.665,23.462,155.698z"/>
		<path style="fill-rule:evenodd;clip-rule:evenodd;fill:#7B491E;" d="M133.286,34.187c0.746-5.42,1.511-6.41,5.931-6.188
			c1.719,0.086,2.816,1.052,3.158,2.338c0.418,1.575,0.578,3.571-1.365,4.493c-1.513,0.717-2.857,1.457-3.933,2.831
			c-1.163,1.484-2.439,0.566-3.09-0.589C133.473,36.162,133.023,35.02,133.286,34.187z"/>
		<path style="fill-rule:evenodd;clip-rule:evenodd;fill:#7B491E;" d="M38.338,123.708c-0.002,4.073-2.395,6.505-6.087,6.191
			c-2.178-0.185-3.286-2.232-2.549-4.355c0.888-2.56,3.005-4.042,4.833-5.734c1.266-1.172,3.526,0.056,3.787,1.911
			C38.414,122.371,38.336,123.044,38.338,123.708z"/>
		<path style="fill-rule:evenodd;clip-rule:evenodd;fill:#7B491E;" d="M75.536,114.833c-0.038,1.583-4.504,5.958-5.992,5.869
			c-1.905-0.112-3.798-2.211-3.735-4.144c0.047-1.46,3.76-6.076,4.913-6.11C73.106,110.381,75.588,112.641,75.536,114.833z"/>
		<path style="fill-rule:evenodd;clip-rule:evenodd;fill:#7B491E;" d="M78.111,185.409c3.125-0.485,2.905,2.047,3.105,3.975
			c0.204,1.967-3.227,4.612-5.704,4.605c-2.662-0.008-3.97-1.403-3.981-4.248C71.519,186.763,73.584,185.371,78.111,185.409z"/>
		<path style="fill-rule:evenodd;clip-rule:evenodd;fill:#7B491E;" d="M28.637,137.87c-0.067,0.829-0.036,1.339-0.39,1.883
			c-1.786,2.746-4.482,4.545-6.9,6.603c-0.82,0.698-1.884-0.089-2.692-0.897c-0.774-0.775-0.774-1.299-0.425-2.38
			c0.962-2.97,3.35-4.684,5.398-6.663c0.899-0.868,2.406-1.272,3.674-0.566C28.07,136.277,28.956,136.943,28.637,137.87z"/>
		<path style="fill-rule:evenodd;clip-rule:evenodd;fill:#7B491E;" d="M111.015,146.303c-0.062,3.058-2.793,6.589-5.017,6.485
			c-1.71-0.079-3.629-2.151-3.554-3.837c0.129-2.899,2.859-7.045,4.611-7C108.495,141.988,111.045,144.792,111.015,146.303z"/>
		<path style="fill-rule:evenodd;clip-rule:evenodd;fill:#7B491E;" d="M98.438,162.711c-0.328-2.763,2.045-4.371,3.911-4.73
			c3.426-0.659,3.769,2.308,4.629,4.408c0.799,1.955-0.619,4.21-3.11,5.32c-1.883,0.839-2.95-0.368-3.685-1.768
			C99.6,164.832,97.901,164.289,98.438,162.711z"/>
		<path style="fill-rule:evenodd;clip-rule:evenodd;fill:#7B491E;" d="M126.395,21.741c-1.382-0.387-3.348-0.405-3.356-2.875
			c-0.011-3.037,3.263-6.737,5.96-6.751c1.261-0.006,3.795,3.027,3.761,4.501C132.72,18.277,128.577,21.77,126.395,21.741z"/>
		<path style="fill-rule:evenodd;clip-rule:evenodd;fill:#7B491E;" d="M89.032,126.468c-2.186,0.009-3.898-3.088-3.028-5.554
			c0.243-0.688,0.551-1.402,1.01-1.954c0.991-1.193,1.714-2.961,3.635-2.753c2.065,0.224,2.743,2.254,3.549,3.685
			c0.78,1.385,0.356,3.07-1.138,4.278C91.824,125.169,90.837,126.503,89.032,126.468z"/>
		<path style="fill-rule:evenodd;clip-rule:evenodd;fill:#7B491E;" d="M327.326,31.02c0.028,2.221-0.097,4.375-3.094,4.448
			c-3.129,0.077-5.483-2.034-5.491-4.825c-0.008-2.619,1.501-3.759,4.96-3.748C327.163,26.906,327.33,27.096,327.326,31.02z"/>
		<path style="fill-rule:evenodd;clip-rule:evenodd;fill:#7B491E;" d="M352.913,45.58c0.41,2.528,1.92,5.015-0.306,7.558
			c-0.8,0.915,1.479,1.427,1.074,2.769c-0.356,1.179,0.626,2.876-1.02,3.512c-1.141,0.44-2.469,0.231-3.257-1.009
			c-0.939-1.479-1.689-3.3-0.409-4.626c1.037-1.075,0.728-1.613,0.205-2.534c-0.871-1.534-1.087-3.218-0.416-4.83
			c0.688-1.65,2.207-1.528,3.672-1.254C352.608,45.304,352.761,45.441,352.913,45.58z"/>
		<path style="fill-rule:evenodd;clip-rule:evenodd;fill:#7B491E;" d="M52.646,70.909c-0.019,3.043-1.274,4.677-3.556,4.627
			c-1.883-0.042-6.089-2.992-6.097-4.277c-0.009-1.585,3.821-4.329,6.012-4.307C52.027,66.983,52.667,67.679,52.646,70.909z"/>
		<path style="fill-rule:evenodd;clip-rule:evenodd;fill:#7B491E;" d="M158.189,30.328c-1.602,0.156-2.082-1.098-1.887-2.125
			c0.591-3.121,2.723-5.637,3.691-8.676c0.473-1.484,2.015-2.264,3.799-0.854c1.89,1.492,0.803,3.028-0.031,4.119
			c-0.858,1.123-1.395,1.786-0.818,3.322C163.688,28.095,160.931,30.396,158.189,30.328z"/>
		<path style="fill-rule:evenodd;clip-rule:evenodd;fill:#7B491E;" d="M35.479,54.079c0.466,1.665-0.288,3.343-1.456,4.871
			c-1.042,1.361-2.436,2.444-4.114,1.465c-1.542-0.9-2.398-2.684-1.766-4.394c0.687-1.858,1.265-3.901,3.093-5.186
			c0.954-0.67,1.585-1.712,3.075-1.091c1.483,0.619,1.109,1.776,1.164,2.855C35.496,52.979,35.479,53.361,35.479,54.079z"/>
		<path style="fill-rule:evenodd;clip-rule:evenodd;fill:#7B491E;" d="M37.131,45.453c0.043-3.206,1.125-5.219,2.934-6.781
			c1.201-1.037,2.825-1.481,4.072-0.256c1.021,1.004,1.982,2.052,1.196,4.081c-1.11,2.863-3.001,4.499-5.729,5.113
			C37.496,48.085,36.983,46.55,37.131,45.453z"/>
		<path style="fill-rule:evenodd;clip-rule:evenodd;fill:#7B491E;" d="M76.109,50.003c0.004-3.511,2.484-7.171,4.445-7.073
			c1.372,0.069,3.513,2.768,3.563,4.491c0.08,2.729-2.617,6.034-4.912,5.742C77.229,52.912,76.164,51.54,76.109,50.003z"/>
		<path style="fill-rule:evenodd;clip-rule:evenodd;fill:#7B491E;" d="M114.939,21.175c2.175-0.136,3.987,0.34,4.059,2.959
			c0.057,2.081-2.3,4.986-3.893,5.047c-3.217,0.124-5.718-1.554-5.804-3.893C109.23,23.332,112.17,21.186,114.939,21.175z"/>
		<path style="fill-rule:evenodd;clip-rule:evenodd;fill:#7B491E;" d="M74.988,32.046c3.043,0.005,5.851,2.328,5.656,4.916
			c-0.146,1.933-0.798,3.689-3.318,3.679c-2.651-0.011-6.273-2.7-5.62-4.625C72.212,34.523,71.966,31.713,74.988,32.046z"/>
		<path style="fill-rule:evenodd;clip-rule:evenodd;fill:#7B491E;" d="M48.642,190.631c-0.396-2.735,1.861-3.144,3.688-3.424
			c2.288-0.351,5.46,2.545,5.428,4.534c-0.04,2.47-2.31,3.898-5.988,3.771C50.009,195.451,48.613,193.327,48.642,190.631z"/>
		<path style="fill-rule:evenodd;clip-rule:evenodd;fill:#7B491E;" d="M334.393,31.524c1.576-0.349,3.343-1.085,4.741,0.615
			c1.017,1.235,1.729,2.801,1.791,4.248c0.059,1.368-0.786,3.072-2.657,3.047c-3.991-0.054-6.652-2.691-6.247-6.27
			C332.111,32.356,332.351,30.441,334.393,31.524z"/>
		<path style="fill-rule:evenodd;clip-rule:evenodd;fill:#7B491E;" d="M107.008,34.333c0.021,2.627-2.92,5.646-5.325,5.731
			c-2.251,0.079-2.646-1.543-2.629-3.147c0.018-1.749,0.631-3.438,1.866-4.777c0.953-1.033,2.177-2.348,3.523-1.571
			C105.769,31.333,107.491,32.376,107.008,34.333z"/>
		<path style="fill-rule:evenodd;clip-rule:evenodd;fill:#7B491E;" d="M99.001,47.949c-0.016,3.543-2.542,6.376-5.312,6.354
			c-1.832-0.015-2.724-1.272-2.705-3.126c0.034-3.404,1.862-5.926,4.278-5.981C97.684,45.141,98.86,46.331,99.001,47.949z"/>
		<path style="fill-rule:evenodd;clip-rule:evenodd;fill:#7B491E;" d="M146.126,80.114c-2.35-0.021-4.917-2.404-4.713-4.733
			c0.176-2.021,1.521-2.868,3.667-2.744c3.551,0.205,5.873,1.365,5.866,3.237C150.937,78.29,148.835,80.139,146.126,80.114z"/>
		<path style="fill-rule:evenodd;clip-rule:evenodd;fill:#7B491E;" d="M31.475,69.08c-0.044-1.597,2.857-4.913,4.292-4.906
			c1.211,0.005,3.774,4.103,3.646,6.345c-0.094,1.629-0.588,3.35-2.869,3.3C33.891,73.762,31.543,71.576,31.475,69.08z"/>
		<path style="fill-rule:evenodd;clip-rule:evenodd;fill:#7B491E;" d="M139.712,38.892c3.24,0.337,5.718,2.164,5.485,3.864
			c-0.336,2.438-2.889,4.444-5.217,4.099c-2.44-0.362-4.04-2.497-3.789-5.004C136.426,39.513,138.282,39.32,139.712,38.892z"/>
		<path style="fill-rule:evenodd;clip-rule:evenodd;fill:#7B491E;" d="M65.475,64.664c2.298,0.031,3.821,1.464,3.764,3.541
			c-0.068,2.495-1.859,4.479-4.036,4.471c-1.991-0.008-5.044-2.321-5.004-3.792C60.251,66.979,63.185,64.633,65.475,64.664z"/>
		<path style="fill-rule:evenodd;clip-rule:evenodd;fill:#7B491E;" d="M74.286,56.652c2.429-0.047,4.575,1.938,4.568,4.227
			c-0.005,1.864-2.621,4.401-4.489,4.354c-1.902-0.048-3.889-2.206-3.979-4.322C70.294,58.734,72.162,56.694,74.286,56.652z"/>
		<path style="fill-rule:evenodd;clip-rule:evenodd;fill:#7B491E;" d="M97.22,67.511c-1.713,0.472-3.147-0.517-3.751-2.017
			c-0.631-1.568,0.656-2.972,1.912-3.684c1.684-0.955,3.014-3.402,5.589-1.761c1.802,1.148,1.917,3.068,1.337,4.531
			C101.542,66.515,99.743,67.709,97.22,67.511z"/>
		<path style="fill-rule:evenodd;clip-rule:evenodd;fill:#7B491E;" d="M107.246,69.241c-1.252,0.075-1.976-0.392-1.958-1.769
			c0.042-3.29,3.124-6.184,6.433-6.284c1.948-0.059,2.805,0.701,2.711,2.545C114.273,66.885,111.052,69.321,107.246,69.241z"/>
		<path style="fill-rule:evenodd;clip-rule:evenodd;fill:#7B491E;" d="M307.405,37.771c-2.289,0.141-3.567-1.387-4.015-3.186
			c-0.472-1.899,2.873-5.48,4.586-5.397c1.487,0.072,3.927,3.149,3.897,4.918C311.842,36.039,309.683,37.81,307.405,37.771z"/>
		<path style="fill-rule:evenodd;clip-rule:evenodd;fill:#7B491E;" d="M183.695,36.737c-0.031-2.679,2.184-6.19,3.75-6.303
			c1.666-0.121,3.699,2.686,3.685,5.085c-0.014,2.094-2.44,4.627-4.401,4.528C184.422,39.931,184.074,38.13,183.695,36.737z"/>
		<path style="fill-rule:evenodd;clip-rule:evenodd;fill:#7B491E;" d="M391.401,48.444c0.397,3.459-2.742,3.481-4.503,3.993
			c-1.684,0.49-3.821-0.573-5.048-2.312c-0.426-0.603-0.182-1.265,0.407-1.759c1.871-1.568,3.902-2.887,6.377-3.127
			C390.947,45.015,391.575,46.485,391.401,48.444z"/>
		<path style="fill-rule:evenodd;clip-rule:evenodd;fill:#7B491E;" d="M100.715,130.253c-0.018-2.312,1.826-4.264,4.117-4.358
			c2.019-0.083,3.313,1.576,3.322,4.259c0.008,2.414-1.825,4.357-4.081,4.324C102.036,134.448,100.736,132.812,100.715,130.253z"/>
		<path style="fill-rule:evenodd;clip-rule:evenodd;fill:#7B491E;" d="M287.13,45.208c2.866,0.011,4.12,1.112,4.144,3.638
			c0.021,2.438-1.454,3.823-4.053,3.801c-2.169-0.018-4.503-2.104-4.494-4.018C282.736,46.396,284.28,45.196,287.13,45.208z"/>
		<path style="fill-rule:evenodd;clip-rule:evenodd;fill:#7B491E;" d="M173.39,65.478c-1.511,1.502-1.679,4.057-4.211,5.03
			c-1.509,0.58-2.413,0.432-3.482-0.559c-1.222-1.131-1.851-2.287-0.936-3.953c1.096-1.996,4.504-3.612,6.569-2.949
			C172.442,63.404,173.141,64.184,173.39,65.478z"/>
		<path style="fill-rule:evenodd;clip-rule:evenodd;fill:#7B491E;" d="M147.369,53.221c1.912-0.45,2.72,1.031,3.062,2.544
			c0.367,1.618-3.511,5.649-5.134,5.42c-1.688-0.239-3.308-0.85-3.375-3.017C141.844,55.671,144.492,53.195,147.369,53.221z"/>
		<path style="fill-rule:evenodd;clip-rule:evenodd;fill:#7B491E;" d="M132.761,20.544c0.026-1.736,2.454-3.411,4.894-3.376
			c1.577,0.022,3.658,2.153,3.601,3.686c-0.062,1.677-3.204,4.28-5.207,4.314C134.654,25.193,132.732,22.489,132.761,20.544z"/>
		<path style="fill-rule:evenodd;clip-rule:evenodd;fill:#7B491E;" d="M335.907,50.064c0.021-4.024,1.401-6.781,3.39-6.52
			c2.647,0.348,2.931,2.479,2.908,4.665c-0.034,3.303-1.872,5.253-5.029,4.914C335.178,52.908,336.172,51.046,335.907,50.064z"/>
		<path style="fill-rule:evenodd;clip-rule:evenodd;fill:#7B491E;" d="M122.436,64.305c0.111-2.885,2.829-5.768,4.769-5.278
			c1.706,0.431,4.064,0.596,3.861,3.47c-0.16,2.266-3.107,4.135-6.427,3.871C123,66.236,122.445,65.14,122.436,64.305z"/>
		<path style="fill-rule:evenodd;clip-rule:evenodd;fill:#7B491E;" d="M296.285,40.633c-2.771-0.059-5.076-1.898-5.002-3.807
			c0.065-1.711,2.969-4.281,4.753-4.208c1.514,0.062,3.26,3.282,3.249,5.974C299.275,40.979,297.213,40.086,296.285,40.633z"/>
		<path style="fill-rule:evenodd;clip-rule:evenodd;fill:#7B491E;" d="M157.072,76.68c-2.086,0.149-3.214-0.693-3.148-2.913
			c0.065-2.214,2.888-4.544,5.496-4.535c1.7,0.006,2.772,1.076,2.974,2.449C162.734,73.993,159.664,76.686,157.072,76.68z"/>
		<path style="fill-rule:evenodd;clip-rule:evenodd;fill:#7B491E;" d="M186.188,42.919c2.121-0.116,3.706,0.558,3.77,2.954
			c0.053,2.019-2.847,4.553-5.274,4.411c-1.572-0.091-3.151-0.821-3.257-2.793C181.325,45.618,184.211,42.934,186.188,42.919z"/>
		<path style="fill-rule:evenodd;clip-rule:evenodd;fill:#7B491E;" d="M179.271,53.232c1.692-0.247,2.542,0.962,3.109,2.062
			c0.492,0.953,0.394,2.183-0.654,3.078c-1.257,1.073-2.535,2.213-4.275,1.986c-1.622-0.211-3.188-1.076-3.41-2.811
			c-0.236-1.834,1.072-2.817,2.825-3.22C177.743,54.125,178.168,52.854,179.271,53.232z"/>
		<path style="fill-rule:evenodd;clip-rule:evenodd;fill:#7B491E;" d="M168.208,17.558c0.053-3.86,3.604-6.199,6.842-4.423
			c1.032,0.565,1.729,1.253,1.324,2.533c-0.464,1.465-5.205,4.909-6.413,4.618C168.54,19.943,168.188,18.972,168.208,17.558z"/>
		<path style="fill-rule:evenodd;clip-rule:evenodd;fill:#7B491E;" d="M324.464,66.796c-0.297-3.287,2.113-2.524,3.975-2.725
			c2.505-0.271,3.437,1.026,3.45,3.263c0.013,2.07-1.806,3.649-4.052,3.624C325.569,70.932,324.431,69.528,324.464,66.796z"/>
		<path style="fill-rule:evenodd;clip-rule:evenodd;fill:#7B491E;" d="M189.414,25.494c0.572,2.104-0.603,3.591-2.74,4.171
			c-1.515,0.412-3.472-2.298-3.554-4.607c-0.077-2.162,1.434-3.88,3.415-3.884C188.958,21.168,189.414,21.806,189.414,25.494z"/>
		<path style="fill-rule:evenodd;clip-rule:evenodd;fill:#7B491E;" d="M137.199,52.072c2.071-0.385,2.835,1.028,2.966,2.894
			c0.112,1.592-2.808,4.385-4.35,4.572c-2.461,0.297-3.103-1.448-3.459-3.173C132.052,54.893,135.284,52.092,137.199,52.072z"/>
		<path style="fill-rule:evenodd;clip-rule:evenodd;fill:#7B491E;" d="M333.635,61.308c1.213-1.503,0.096-4.605,3.066-5.874
			c1.035-0.442,1.871-0.811,2.822-0.022c0.891,0.738,0.875,1.445,0.625,2.663c-0.491,2.396-1.521,4.072-3.658,5.224
			c-0.735,0.396-1.254,1.171-2.208,0.563C333.5,63.362,333.61,62.58,333.635,61.308z"/>
		<path style="fill-rule:evenodd;clip-rule:evenodd;fill:#7B491E;" d="M382.846,43.242c-2.371-0.44-4.268-1.042-4.558-3.398
			c-0.183-1.48,2.273-4.311,3.61-4.355c1.485-0.05,4.135,2.278,3.68,3.545C384.983,40.691,384.935,43.004,382.846,43.242z"/>
		<path style="fill-rule:evenodd;clip-rule:evenodd;fill:#7B491E;" d="M151.831,42.932c1.253,0.173,2.174,1.044,2.099,2.784
			c-0.1,2.319-2.821,4.792-5.055,4.646c-1.644-0.109-2.151-1.471-2.301-2.608C146.29,45.609,149.237,42.852,151.831,42.932z"/>
		<path style="fill-rule:evenodd;clip-rule:evenodd;fill:#7B491E;" d="M294.956,65.237c3.039-0.016,4.138,1.139,4.379,3.651
			c0.233,2.426-1.563,2.782-3.016,3.096c-1.542,0.334-4.721-3.076-4.389-4.582C292.282,65.814,293.304,64.756,294.956,65.237z"/>
		<path style="fill-rule:evenodd;clip-rule:evenodd;fill:#7B491E;" d="M139.628,68.726c-0.017-2.008,1.93-4.072,3.798-4.067
			c1.755,0.004,2.848,0.903,3.026,2.576c0.195,1.833-2.597,4.845-4.29,4.861C140.705,72.111,139.645,70.702,139.628,68.726z"/>
		<path style="fill-rule:evenodd;clip-rule:evenodd;fill:#7B491E;" d="M72.091,32.022c-0.768,1.147-1.354,2.789-3.358,2.875
			c-1.446,0.062-4.329-2.811-4.004-4.258c0.372-1.654,1.525-2.711,3.449-2.612C69.908,28.116,72.132,30.167,72.091,32.022z"/>
		<path style="fill-rule:evenodd;clip-rule:evenodd;fill:#7B491E;" d="M180.826,16.935c0.044-2.65,1.397-3.709,3.986-3.818
			c2.084-0.087,2.721,1.2,2.817,2.724c0.144,2.27-1.543,3.631-4.006,3.619C181.785,19.451,180.433,18.981,180.826,16.935z"/>
		<path style="fill-rule:evenodd;clip-rule:evenodd;fill:#7B491E;" d="M288.985,63.698c0.43,1.705-0.964,2.417-2.321,2.58
			c-1.896,0.229-4.659-2.691-4.529-4.525c0.126-1.771,1.277-2.298,2.908-2.251C287.391,59.569,288.967,61.12,288.985,63.698z"/>
		<path style="fill-rule:evenodd;clip-rule:evenodd;fill:#7B491E;" d="M370.264,65.156c-0.045,2.167-0.813,3.597-2.744,3.852
			c-1.436,0.188-4.311-2.457-4.059-3.727c0.371-1.868,1.702-3.364,3.597-3.378C369.057,61.888,369.826,63.678,370.264,65.156z"/>
		<path style="fill-rule:evenodd;clip-rule:evenodd;fill:#7B491E;" d="M357.723,37.767c-1.604,0.022-4.115-2.501-3.86-4.257
			c0.175-1.197,0.322-2.866,2.464-2.644c2.035,0.21,4.348,2.218,4.146,4.129C360.312,36.517,359.81,38.01,357.723,37.767z"/>
		<path style="fill-rule:evenodd;clip-rule:evenodd;fill:#7B491E;" d="M374.766,38.916c-1.415-0.019-3.492-2.571-3.145-4.306
			c0.243-1.209,0.913-2.525,2.588-2.564c1.748-0.041,4.288,2.1,4,3.601C377.864,37.45,377.138,39.124,374.766,38.916z"/>
		<path style="fill-rule:evenodd;clip-rule:evenodd;fill:#7B491E;" d="M157.421,33.224c1.296,0.562,2.244,1.804,2.16,3.317
			c-0.096,1.716-0.77,3.766-2.702,3.935c-1.733,0.151-3.215-1.161-3.491-3.122C153.134,35.551,155.295,33.279,157.421,33.224z"/>
		<path style="fill-rule:evenodd;clip-rule:evenodd;fill:#7B491E;" d="M355.814,60.667c2.05-0.06,4.203,2.149,4.113,4.01
			c-0.071,1.487-1.108,2.409-2.363,2.755c-1.088,0.301-4.473-3.249-4.45-4.565C353.146,60.938,354.854,61.07,355.814,60.667z"/>
		<path style="fill-rule:evenodd;clip-rule:evenodd;fill:#7B491E;" d="M352.457,45.166c-0.66-0.691-1.442-1.285-1.663-2.302
			c-0.352-1.615-1.523-3.629,0.81-4.429c2.181-0.748,3.632,1.149,4.206,2.818c0.616,1.792,0.262,3.821-2.428,4.041
			c-0.163,0.014-0.313,0.188-0.469,0.287C352.761,45.441,352.608,45.304,352.457,45.166z"/>
		<path style="fill-rule:evenodd;clip-rule:evenodd;fill:#7B491E;" d="M368.531,32.726c0.068,1.52-0.576,2.766-2.127,2.663
			c-1.521-0.101-1.886-1.435-1.921-2.917c-0.044-1.86,0.902-2.103,2.46-2.188C369.145,30.163,368.396,31.665,368.531,32.726z"/>
		<path style="fill-rule:evenodd;clip-rule:evenodd;fill:none;" d="M178.965,148.257c-6.524,2.713-12.639,1.276-18.625,1.679
			c-2.383,0.16-4.757-0.396-7.119,1.021c-1.796,1.078-4.043-0.623-6.24-0.004c-1.368,0.385-2.745,0.774-3.81,1.562
			c-2.403,1.776-4.989,0.742-7.475,0.757c-1.021,0.006-0.754-1.056-0.263-1.686c1.957-2.512,4.5-4.444,7.669-4.432
			c5.577,0.021,10.565-2.407,15.919-3.229c3.976-0.609,8.132-1.83,11.863-0.127C173.445,144.967,175.812,146.87,178.965,148.257z"/>
		<path style="fill-rule:evenodd;clip-rule:evenodd;fill:none;" d="M247.208,132.224c0-0.052,0.041,0.079-0.006,0.134
			c-2.655,3.066-3.655,7.376-7.28,9.709c-1.605,1.034-2.86-0.035-3.594-1.099c-2.969-4.301-6.839-7.678-10.626-11.191
			c-2.337-2.168-1.208-5.936,1.943-7.882c3.534-2.183,7.228-1.933,11-0.867c1.15,0.325,2.222,0.858,3.472,0.94
			c0.664,0.043,1.8,0.625,1.851,1.064C244.347,126.32,246.772,128.843,247.208,132.224z"/>
	</g>
</g>
</svg>
