<?xml version="1.0" encoding="iso-8859-1"?>
<!-- Generator: Adobe Illustrator 16.0.0, SVG Export Plug-In . SVG Version: 6.00 Build 0)  -->
<!DOCTYPE svg PUBLIC "-//W3C//DTD SVG 1.1//EN" "http://www.w3.org/Graphics/SVG/1.1/DTD/svg11.dtd">
<svg version="1.1" id="Layer_1" xmlns="http://www.w3.org/2000/svg" xmlns:xlink="http://www.w3.org/1999/xlink" x="0px" y="0px"
	 width="401.597px" height="178.48px" viewBox="0 0 401.597 178.48" style="enable-background:new 0 0 401.597 178.48;"
	 xml:space="preserve">
<g>
	<g>
		<path style="fill:none;" d="M200.798,177.934c-65.997,0-131.993-0.01-197.989,0.047c-1.884,0.002-2.311-0.424-2.309-2.309
			c0.058-57.705,0.057-115.41,0-173.115C0.499,0.836,0.838,0.499,2.558,0.5c132.16,0.051,264.32,0.051,396.48,0
			c1.721-0.001,2.06,0.336,2.059,2.057c-0.059,57.789-0.059,115.578,0,173.366c0.001,1.721-0.338,2.06-2.059,2.058
			C332.958,177.925,266.878,177.934,200.798,177.934z M157.838,60.395c-1.639-0.372-2.92,0.201-3.845,1.546
			c-0.886,1.292-3.182,2.25-2.013,4.113c1.109,1.769,3.356,0.555,5.081,0.802c0.666,0.095,1.325-0.439,1.201-0.96
			c-0.437-1.839,0.516-3.778-0.468-5.548c0.876-0.564,1.408,0.381,2.134,0.492c1.282,0.196,2.65-0.148,2.796-1.364
			c0.155-1.294-0.715-2.467-2.065-3.221c-1.298-0.725-1.583-0.025-2.497,0.734C156.634,58.258,158.431,59.351,157.838,60.395z
			 M389.491,22.276c0.001-3.488-0.333-4.2-2.269-4.095c-1.933,0.105-3.967,0.16-5.702,1.169c-3.582,2.083-7.565,3.256-11.301,4.999
			c-5.303,2.474-10.755,4.871-16.662,5.802c-3.22,0.508-6.028,2.403-9.198,3.015c-5.12,0.989-10.289,1.723-15.438,2.557
			c-0.723,0.117-1.341,0.769-2.131,0.482c-4.483-1.628-8.745,0.609-13.128,0.773c-2.899,0.108-5.814-0.821-8.711,0.161
			c-0.332,0.113-1.046-0.257-1.283-0.607c-1.739-2.566-3.818-1.497-6.081-0.884c-4.773,1.293-9.518,2.722-14.399,3.607
			c-2.249,0.408-3.605-1.259-5.371-1.862c-3.794-1.297-7.62,0.235-11.328,1.337c-2.868,0.852-5.664,2.248-8.578,2.534
			c-2.171,0.213-4.265,0.348-6.187,1.335c-1.821,0.935-3.684,1.699-5.69,2.053c-4.307,0.761-8.497,2.535-13.032,1.14
			c-6.08-1.87-10.21,1.791-14.469,5.208c-1.185,0.951-2.218,2.123-4.496,1.501c-2.599-0.708-5.274-0.318-7.68,2.38
			c-2.233,2.507-4.346,5.474-7.854,6.933c-2.253,0.937-4.821,2.57-5.752,4.831c-1.454,3.532-4.062,5.942-6.688,8.259
			c-2.322,2.05-4.345,3.767-4.277,7.244c0.04,2.027,0.318,3.143,2.379,3.973c1.704,0.686,3.481-0.293,5.042,0.769
			c3.343,2.275,7.079,3.541,11.076,3.981c2.93,0.322,5.746,1.466,8.771,1.12c4.221-0.481,8.316-1.351,11.96-3.672
			c0.782-0.499,1.407-0.452,1.963,0.242c1.014,1.264,2.279,0.893,3.619,0.758c3.232-0.324,6.41-1.486,9.757-0.417
			c0.963,0.308,2.416,0.613,3.253-0.55c1.125-1.563,2.933-1.849,4.504-2.22c1.562-0.369,2.801-1.04,4.187-1.752
			c2.281-1.173,4.69-2.178,7.622-1.565c2.252,0.471,4.909,0.998,7.103-0.363c2.419-1.501,4.996-2.092,7.74-2.603
			c2.146-0.4,5.297-0.8,5.775-2.999c0.831-3.819,3.315-4.135,6.21-4.461c0.31-0.035,0.597-0.25,0.901-0.364
			c2.332-0.877,4.602-2.127,7.014-2.541c4.22-0.723,7.019-3.117,9.444-6.381c1.146-1.542,2.373-3.023,3.884-4.346
			c2.776-2.429,6.624-2.548,9.36-4.921c1.605-1.391,4.066-0.938,5.649-1.851c4.416-2.545,9.274-3.829,13.929-5.651
			c4.429-1.734,9.16-2.721,13.522-4.587c3.787-1.62,7.637-3.252,11.522-4.323c4.541-1.25,8.722-3.297,13.136-4.781
			c5.418-1.821,10.513-4.584,15.866-6.626C389.143,25.19,389.807,24.03,389.491,22.276z M265.409,116.014
			c0.803,0.309,1.711-0.329,1.881,0.656c0.082,0.479-0.432,0.883-0.982,0.939c-3.388,0.35-6.534,1.721-9.944,2.148
			c-3.144,0.394-5.851,2.179-7.251,5.33c-1.18,2.656-0.504,4.07,2.046,5.31c2.388,1.161,5.236,1.505,7.03,3.791
			c1.617,2.061,3.973,1.797,6.037,1.404c1.146-0.218,1.971-0.137,2.982,0.223c4.418,1.57,8.911,1.879,13.552,0.985
			c3.905-0.753,7.717-1.886,11.842-1.729c2.332,0.089,4.745-1.107,7.253-0.896c0.329,0.028,0.674-0.412,1.043-0.555
			c3.82-1.47,8.092-1.39,11.754-3.415c0.128-0.071,0.34-0.045,0.496-0.004c3.102,0.815,5.766-0.95,8.564-1.646
			c1.814-0.449,3.277-2.158,5.308-0.44c0.542,0.458,1.161-0.291,1.713-0.68c3.925-2.771,8.029-5.115,12.741-6.432
			c3.501-0.979,6.911-2.388,10.214-3.922c2.034-0.944,3.888-2.248,6.052-3.016c2.95-1.045,3.184-3.435,1.453-6.011
			c-2.417-3.6-7.062-1.066-9.58-3.95c-2.211,1.683-5.192,0.437-7.46,1.962c-0.433,0.291-0.966,1.099-1.488-0.132
			c-0.393-0.923,0.067-0.998,0.642-1.406c2.634-1.871,2.755-4.792,0.362-6.835c-1.54-1.314-1.306-4.166,0.453-5.151
			c2.478-1.39,5.483-2.257,7.361-4.213c3.763-3.919,8.886-5.156,13.428-7.153c5.319-2.338,10.414-5.139,15.753-7.42
			c1.057-0.452,2.126-1.459,1.385-3.17c-0.785-1.811-2.354-1.502-3.344-1.017c-4.377,2.149-9.358,2.613-13.618,4.917
			c-2.06,1.114-4.285,0.397-6.202,1.219c-1.958,0.84-3.968,1.428-6.017,1.679c-5.219,0.64-10.499,0.837-15.685,1.653
			c-2.316,0.365-4.986-0.48-6.823,0.675c-4.119,2.589-8.974,1.399-13.162,3.212c-0.286,0.124-0.751-0.233-1.142-0.275
			c-2.129-0.225-4.223-0.509-6.327,0.423c-2.123,0.94-4.328,2.12-6.565,2.288c-4.623,0.346-8.704,2.455-13.131,3.389
			c-4.744,0.999-9.243,2.894-13.701,4.782c-3.86,1.636-7.907,2.747-11.661,4.739c-2.442,1.296-4.464,3.481-7.113,4.101
			c-4.181,0.979-6.748,3.952-9.472,6.747c-1.185,1.216-1.492,2.848-0.527,4.634c0.86,1.593,2.101,1.848,3.655,1.885
			c2.079,0.049,4.05,0.657,5.696,1.902c0.947,0.717,2.11,0.975,2.733,0.381C260.016,115.659,263.15,117.36,265.409,116.014z
			 M35.724,138.392c0.345-1.662-0.695-2.154-1.967-2.131c-1.514,0.029-2.218,1.079-2.237,2.508c-0.014,1.029-0.169,1.54-1.338,2.07
			c-4.642,2.109-6.112,6.427-7,11.021c-0.055,0.284,0.045,0.749,0.248,0.909c1.057,0.833,0.729,1.975,0.72,3.016
			c-0.014,1.599,0.881,1.971,2.229,2.684c2.417,1.277,5.433-0.076,7.57,2.171c0.556,0.584,2.023,0.528,3.013-0.264
			c1.143-0.914,0.917-2.15,0.653-3.217c-0.289-1.168-1.486-0.823-2.365-0.821c-1.246,0.001-2.408,0.034-3.454-0.954
			c-0.619-0.586-1.585-0.819-2.554-0.406c-0.64,0.273-1.319-0.054-1.484-0.629c-0.142-0.498-0.427-1.241,0.589-1.602
			c1.643-0.582,1.671-1.475,0.67-2.985c-1.203-1.815,0.02-3.547,1.335-4.769c0.704-0.654,1.433-2.679,3.126-0.881
			c0.418,0.444,1.609,0.449,2.097-0.094c0.456-0.509,0.9-1.265,0.21-2.192C35.021,140.797,35.495,139.529,35.724,138.392z
			 M17.271,40.56c-0.405,1.326,0.11,2.219,0.635,2.611c1.688,1.259,3.601,2.187,5.282,3.511c0.571,0.45,1.802,0.313,2.525-0.846
			c1.416-2.271,0.578-4.29-2.15-4.565c-0.983-0.099-2.153,0.152-2.28-1.243c-0.18-1.966-1.433-2.022-2.836-1.688
			c-0.902,0.215-1.68,0.185-1.769-0.804c-0.13-1.449-0.356-2.994,0.74-4.245c0.076-0.086,0.513,0.013,0.673,0.152
			c2.286,1.993,2.752-0.131,2.989-1.544c0.346-2.063,1.403-2.849,3.321-2.692c1.212,0.099,2.246-0.208,2.672-1.345
			c0.443-1.182,0.003-2.2-0.995-3.089c-1.057-0.941-2.55-0.994-3.216-0.393c-1.474,1.33-3.192,2.3-4.652,3.6
			c-1.606,1.429-1.212,4.684-4.355,4.795c-0.257,0.009-0.591,0.576-0.724,0.943c-0.576,1.59-0.974,3.256-1.679,4.783
			c-0.339,0.735,0.074,1.173,0.292,1.518C13.066,42.11,14.821,42.278,17.271,40.56z M136.27,154.312
			c3.712-0.032,7.778-2.409,10.059-5.637c0.728-1.03,1.118-2.421,2.516-2.92c0.826-0.296,1.187-0.939,0.836-1.764
			c-0.426-0.997-0.505-2.384-1.962-2.495c-0.797-0.062-1.647,0.308-1.894,1.145c-0.236,0.8-0.921,1.246-1.157,2.115
			c-0.438,1.62-4.396,4.218-5.753,4.012c-2.839-0.433-5.621,0.02-8.344,0.638c-1.125,0.256-1.857,0.443-2.919-0.301
			c-1.416-0.991-2.586-0.119-2.481,1.623c0.125,2.072,2.917,3.926,4.736,2.978c1.073-0.56,2.099-0.256,3.138-0.395
			C134.273,153.148,135.061,154.41,136.27,154.312z M190.459,25.107c0.144-2.291-0.323-3.987-2.115-4.19
			c-1.447-0.165-3.193,0.152-3.971,2.004c-0.91,2.164-1.731,4.403-4.776,4.485c-0.67,0.018-1.461,1.1-1.919,1.859
			c-0.462,0.768-0.521,1.754,0.143,2.553c0.544,0.656,1.167,1.312,2.098,0.645c1.015-0.728,2.007-0.011,2.425,0.494
			c1.333,1.607,2.194,0.804,3.677,0.098C189.804,31.254,189.592,27.662,190.459,25.107z M100.046,110.849
			c-0.042-1.726-1.935-3.01-3.716-2.742c-2.628,0.396-5.27,0.718-7.916,0.962c-1.605,0.147-3.307-0.268-4.634,1.067
			c-0.586,0.59-1.028,0.28-1.698-0.058c-1.045-0.525-2.281-0.905-3.438-0.909c-1.018-0.003-1.711,0.822-1.724,2.025
			c-0.019,1.703,0.971,2.514,2.448,2.914c2.529,0.685,4.71-1.1,7.242-1.096c1.083,0.002,2.168-0.556,3.396,0.054
			c1.548,0.768,3.133-0.059,4.105-0.976c1.362-1.285,2.055-0.843,2.922,0.285c0.586,0.762,1.494,1.063,2.183,0.602
			C99.824,112.571,100.198,111.683,100.046,110.849z M72.145,20.766c0.204,0.504,0.453,1.009,0.612,1.541
			c0.398,1.33,1.36,1.764,2.478,1.181c1.581-0.826,2.091-2.328,1.598-4.024c-0.342-1.176-1.491-2.333-2.454-1.692
			c-1.518,1.012-1.744,0.206-2.411-0.775c-0.736-1.084-2.089-1.426-3.249-1.25c-1.238,0.187-2.155,1.198-2.303,2.538
			c-0.09,0.816-0.075,1.34-1.164,1.443c-0.865,0.082-1.098,1.056-0.84,1.805c0.299,0.872,0.431,2.004,1.717,2.125
			c0.822,0.077,1.647-0.101,1.699-1.021c0.057-1.021,0.612-1.062,1.307-0.972C70.285,21.812,71.207,21.294,72.145,20.766z
			 M126.362,65.915c0.532-0.263,0.793,0.344,1.385,0.204c1.234-0.293,2.361-0.439,2.839-1.901c0.35-1.07-0.302-1.537-0.896-2.096
			c-1.072-1.01-2.063-0.36-2.982,0.248c-0.826,0.546-1.413,0.911-2.45,0.12c-0.592-0.452-1.945-0.537-2.357,0.862
			c-0.19,0.645-0.628,0.883-1.376,1.088c-1.453,0.397-2.79,1.218-4.177,1.858c-1.437,0.663-0.755,1.924-0.565,2.8
			c0.177,0.817,1.049,1.267,2.097,0.906c1.922-0.663,3.937-1.121,5.263-2.866C123.973,66.044,125.049,65.587,126.362,65.915z
			 M77.61,104.361c-0.416,1.85,0.176,2.667,1.13,3.107c0.659,0.304,1.687,0.357,1.957-0.487c0.315-0.988,2.099-1.627,0.921-2.964
			c-0.979-1.11-0.904-2.013,0.093-3.008c0.912-0.91-0.341-2.668,0.81-3.176c1.697-0.748,1.585-2.012,1.396-3.264
			c-0.174-1.152-0.1-2.006,0.917-2.697c0.592-0.401,0.881-1.027,0.497-1.723c-0.443-0.803-1.258-0.638-2.001-0.663
			c-1.121-0.037-0.859,0.776-0.864,1.387c-0.007,0.839,0.109,1.775-0.895,2.095c-1.506,0.479-1.312,1.724-1.03,2.655
			c0.32,1.057,0.917,1.831-0.797,2.009c-0.651,0.066-0.883,0.804-0.964,1.321C78.457,101.014,78.581,103.163,77.61,104.361z
			 M86.721,88.996c1.658,0.952,1.31-1.06,1.665-1.782c1.086-2.211,2.219-4.142,5.056-4.279c1.583-0.076,2.16-1.303,1.215-2.551
			c-1.157-1.529-2.481-2.802-4.437-0.995c-1.247,1.152-2.71,1.968-4.125,2.879c-1.051,0.677-2.129,1.854-2.261,3.478
			C83.712,87.245,84.932,88.956,86.721,88.996z M38.737,49.447c0.031-1.809-1.7-3.714-3.027-3.071
			c-1.564,0.758-2.339,0.373-3.456-0.708c-1.437-1.391-3.812-1.224-4.835,0.166c-1.016,1.38-1.248,3.114,0,4.279
			c1.346,1.257,3.219,1.144,4.7-0.024c1-0.789,1.488-1.31,2.454,0.159c0.513,0.78,1.679,1.657,3.1,1.09
			C38.672,50.938,38.8,50.253,38.737,49.447z M64.416,46.011c-0.489,1.495,0.584,1.853,1.676,2.394
			c0.89,0.439,1.749,0.637,2.13-0.274c0.974-2.33,2.762-2.469,4.912-2.422c1.446,0.032,2.646-2.263,2.279-3.817
			c-0.374-1.584-1.736-1.389-2.6-1.037c-2.104,0.854-4.29,1.418-6.419,2.163C65.089,43.472,64.043,44.295,64.416,46.011z
			 M145.625,81.964c1.657,0.027,1.908-0.973,1.507-2.311c-0.133-0.445-0.778-0.797-0.794-1.206c-0.047-1.252-0.298-2.266-1.815-1.99
			c-1.453,0.264-2.766,1.784-2.47,2.666c0.578,1.721-0.581,2.076-1.364,2.54c-0.978,0.58-1.416,1.541-2.105,2.294
			c-0.978,1.066-0.129,2.203,0.545,3.086c0.465,0.609,0.856,1.364,2.145,1.044c1.748-0.434,0.541-1.663,1.002-2.331
			C143.233,84.375,141.91,80.975,145.625,81.964z M45.022,134.673c-1.343-0.527-2.916,0.675-4.656,0.991
			c-1.416,0.258-1.974,0.957-1.744,2.183c0.276,1.479,1.276,1.489,2.629,1.19c2.065-0.456,4.181-1.525,6.333,0.053
			c0.494,0.362,1.58,0.587,2.191-0.312c0.551-0.812,0.508-1.521,0.08-2.484C48.914,134.178,47.155,134.832,45.022,134.673z
			 M60.926,20.647c2.098-0.03,4.164-1.751,3.896-3.531c-0.343-2.276-2.202-2.519-4.097-2.5c-2.183,0.021-3.476,1.135-3.392,2.933
			C57.425,19.542,58.744,20.679,60.926,20.647z M150.98,54.82c1.933-0.04,4.62-2.419,4.829-4.183
			c0.152-1.285-0.524-2.06-1.715-2.321c-0.562-0.124-1.061-0.179-1.592-0.532c-1.361-0.906-2.484-0.884-2.76,1.133
			c-0.197,1.448,0.053,2.911-0.638,4.375C148.834,53.864,149.794,55.139,150.98,54.82z M51.988,19.139
			c1.779-0.01,3.26-1.836,3.347-4.196c0.056-1.503-0.896-2.34-2.031-2.748c-1.024-0.367-5.297,3.211-4.938,4.035
			C49.005,17.699,49.742,19.292,51.988,19.139z M141.564,61.15c1.452-0.415,2.518-1.577,3.104-3.124
			c0.455-1.201-0.09-2.088-1.358-2.401c-0.812-0.2-0.987-0.97-1.477-1.455c-0.72-0.713-1.471-1.739-2.634-1.021
			c-1.365,0.843-0.594,1.979,0.016,2.845c0.492,0.699,0.657,1.165,0.191,1.966C138.475,59.561,139.398,61.018,141.564,61.15z
			 M157.834,47.383c-0.162,1.707,0.898,2.478,2.258,1.721c1.646-0.916,3.345-1.989,4.379-3.715c1.065-1.777,0.381-3.072-1.633-3.134
			C160.878,42.195,157.813,45.296,157.834,47.383z M170.468,40.744c1.452,0.05,5.968-4.376,5.954-5.745
			c-0.009-0.888-0.681-1.328-1.296-1.69c-0.543-0.319-1.17-0.091-1.509,0.472c-0.926,1.532-2.396,2.262-3.978,2.9
			c-1.012,0.408-1.528,1.287-1.11,2.325C168.87,39.853,169.154,41.018,170.468,40.744z M163.864,130.678
			c0-0.363-0.014-0.531,0.002-0.696c0.147-1.525-0.452-2.743-1.649-3.622c-0.686-0.504-1.416,0.189-1.669,0.544
			c-0.732,1.027-2.07,2.115-0.354,3.523c0.46,0.378,0.113,1.046-0.326,1.528c-1.166,1.282-0.55,2.431,0.639,3.056
			c1.353,0.713,2.348-0.069,2.843-1.434C163.711,132.58,164.064,131.574,163.864,130.678z M61.708,45.777
			c-2.206-0.031-4.912,1.888-4.837,3.409c0.065,1.309,0.38,2.652,2.224,2.626c2.089-0.03,4.654-2.229,4.773-4.119
			C63.987,45.835,62.668,45.865,61.708,45.777z M108.036,108.691c-0.79-0.994-1.446,0.537-2.619,0.202
			c-1.122-0.319-2.059,0.874-1.325,2.393c0.566,1.173,1.164,1.966,2.753,1.906c1.098-0.04,2.339-0.89,3.477,0.187
			c0.142,0.134,1.171-0.417,1.553-0.856c0.443-0.51,0.466-1.38,0-1.853C110.873,109.653,110.105,108.092,108.036,108.691z
			 M157.124,134.717c-0.792,0.026-1.729-0.245-2.08,0.59c-0.57,1.353-1.682,1.876-2.87,2.487c-0.827,0.425-1.88,1.104-1.171,2.343
			c0.695,1.215,1.69,1.42,2.931,0.612c1.155-0.752,2.198-1.507,3.792-1.676c1.506-0.16,1.052-2.098,1.109-3.36
			C158.9,134.222,157.747,134.883,157.124,134.717z M56.417,141.235c1.775,0.062,2.679-0.465,3.431-1.251
			c1.114-1.164,1.136-2.585-0.35-3.105c-1.645-0.576-3.534-0.622-5.312-0.597c-1.262,0.018-2.57,1.242-1.603,2.206
			C53.749,139.651,55.17,140.974,56.417,141.235z M107.078,72.381c-0.014-1.095-0.965-2.01-2.06-1.983
			c-1.569,0.039-4.719,2.158-4.387,3.075c0.497,1.376,0.993,2.995,2.991,2.951C105.202,76.388,107.101,74.167,107.078,72.381z
			 M167.689,53.817c0.969,0.074,1.923-0.323,1.629-1.294c-0.524-1.734-1.651-3.426-3.289-4.071
			c-1.588-0.625-2.475,1.147-3.279,2.266c-0.951,1.323-0.023,3.288,1.46,2.947C165.503,53.367,166.544,53.775,167.689,53.817z
			 M49.327,48.601c-0.155,2.199,0.477,3.209,2.344,3.211c1.876,0.002,3.044-0.868,3.116-2.737c0.078-2.048-1.585-3.082-3.144-3.177
			C49.894,45.79,49.526,47.599,49.327,48.601z M41.759,20.951c-0.021-2.044-2.084-4.889-2.965-4.542
			c-1.275,0.504-2.561,1.187-2.573,2.913c-0.01,1.511,1.785,3.333,3.295,3.339C41.089,22.667,41.729,21.808,41.759,20.951z
			 M79.39,19.896c0.115,1.914,0.034,3.531,2.077,3.744c1.08,0.113,3.659-2.227,3.449-3.221c-0.303-1.443-0.872-2.93-2.812-2.77
			C80.508,17.78,79.169,18.285,79.39,19.896z M179.913,40.171c1.349-0.046,1.986-1.696,3.5-1.462c0.489,0.075,1.33,0.351,1.481-0.41
			c0.15-0.752,0.268-1.562-0.396-2.322c-1.792-2.052-4.759-1.335-6.134,1.551C177.732,38.853,178.516,40.197,179.913,40.171z
			 M110.865,67.38c-1.392-0.222-2.099,0.87-2.65,1.801c-0.609,1.027,0.482,1.651,1.145,2.179c0.745,0.593,1.616,1.073,2.502,1.429
			c1.082,0.436,3.264-0.93,3.232-1.917C115.069,70.143,111.786,67.399,110.865,67.38z M48.456,157.845
			c-1.108,0.12-2.833-0.509-2.635,1.548c0.182,1.887,1.17,3.024,3.397,3.028c1.82,0.003,3.153-0.631,2.981-2.321
			C52.005,158.207,50.36,157.546,48.456,157.845z M69.059,159.343c-1.621-0.088-2.593,0.465-2.696,2.189
			c-0.102,1.695,0.882,1.983,2.206,1.812c0.816-0.105,1.397,0.385,2.082,0.611c0.874,0.288,1.676,0.049,2.23-0.584
			c0.685-0.782,0.25-1.99-0.237-2.326C71.562,160.299,70.574,159.097,69.059,159.343z M104.658,152.763
			c-0.737,0.171-1.472,0.165-2.19,0.276c-2.156,0.335-2.252,1.821-1.837,3.257c0.418,1.45,1.89,1.612,3.247,1.521
			c1.667-0.111,0.911-2.136,2.111-2.712c0.799-0.384,0.808-1.335,0.468-1.963C106.12,152.522,105.368,152.273,104.658,152.763z
			 M114.635,107.207c-0.106,0.992,0.26,2.213,1.298,1.784c1.558-0.642,3.371,1.039,4.645-0.712c0.043-0.06,0.044-0.155,0.053-0.235
			c0.126-1.249-0.365-2.317-1.324-2.993c-0.854-0.601-1.778-1.22-3.045-0.544C115.1,105.127,114.436,105.836,114.635,107.207z
			 M45.39,15.071c-1.621-0.034-2.624,0.544-2.629,2.266c-0.005,1.936,1.035,3.072,2.88,3.274c1.506,0.166,2.704-0.823,2.542-2.219
			C48.012,16.911,47.267,15.349,45.39,15.071z M99.537,147.534c-0.05,0.609-0.031,1.459,0.868,1.67
			c1.379,0.323,2.863-0.178,4.18,0.978c0.534,0.469,1.936-1.665,1.263-2.297c-1.085-1.018-1.762-2.49-3.653-2.699
			C100.276,144.974,99.493,145.494,99.537,147.534z M132.098,99.257c-0.8-0.881-0.801-2.581-2.511-2.724
			c-1.407-0.116-3.683,2.015-3.688,3.637c-0.002,0.808,0.344,1.749,1.454,1.87C128.567,102.173,132.052,100.185,132.098,99.257z
			 M34.71,21.995c0.115-1.771-0.424-2.981-2.305-2.826c-1.648,0.136-2.76,1.037-2.7,2.855c0.051,1.542,1.046,2.531,2.443,2.577
			C33.766,24.656,35.039,23.896,34.71,21.995z M177.258,45.046c-0.447-1.381-0.63-2.838-2.406-2.784
			c-1.656,0.05-3.638-0.474-4.403,1.656c-0.46,1.281,0.28,2.521,1.63,2.22c1.176-0.262,2.096-0.388,3.239,0.061
			C176.329,46.594,176.848,45.68,177.258,45.046z M43.127,52.825c1.857,0.037,2.991-0.951,3.043-2.241
			c0.067-1.638-0.938-3.075-2.804-3.275c-1.945-0.208-2.408,1.651-2.394,2.753C40.985,51.162,41.435,52.947,43.127,52.825z
			 M132.103,141.851c0.508-2.311-3.123-3.638-5.359-3.194c-1.086,0.215-1.083,0.686-1.075,1.469c0.025,2.872,3.539,0.8,4.176,2.943
			c0.11,0.372,1.178,0.402,1.58,0.034C131.86,142.705,132.023,142.01,132.103,141.851z M41.947,156.247
			c-1.247,0.392-2.73,0.379-2.71,2.271c0.022,2.077,1.54,2.741,3.105,2.732c1.016-0.006,2.505-0.446,2.421-2.13
			C44.673,157.351,43.627,156.503,41.947,156.247z M117.128,152.249c-0.03-1.102-1.59-2.77-2.573-2.75
			c-0.944,0.019-3.042,2.882-2.932,4.104c0.113,1.254,1.249,1.491,2.136,1.661C114.977,155.497,117.16,153.403,117.128,152.249z
			 M142.255,137.356c0.007-2.229-1.201-3.712-2.868-3.641c-1.542,0.066-2.621,1.072-2.582,2.404c0.08,2.716,2.745,1.898,4.273,2.554
			C142.252,139.176,142.316,138.083,142.255,137.356z M81.944,39.944c0.315-1.45-0.489-2.305-1.957-2.158
			c-1.448,0.146-3.067,0.633-3.004,2.529c0.043,1.31,0.536,2.514,2.354,2.474C81.222,42.749,82.089,41.962,81.944,39.944z
			 M148.637,134.136c0.949-0.275,2.759-0.56,2.594-2.578c-0.138-1.693-1.31-2.357-2.982-1.389c-0.124,0.072-0.368,0.075-0.486-0.001
			c-1.487-0.956-2.466,0.136-2.331,1.18C145.593,132.596,145.93,134.444,148.637,134.136z M146.753,73.094
			c-0.047,1.099,0.489,2.255,1.462,1.723c1.341-0.732,3.882,0.855,4.095-2.034c0.136-1.847-1.304-2.81-2.529-2.725
			C148.332,70.16,146.929,71.262,146.753,73.094z M98.283,74.835c-2.133,0.174-3.7,0.239-3.721,2.131
			c-0.019,1.642,1.065,2.942,2.657,2.876c1.424-0.059,2.338-1.217,2.352-2.899C99.583,75.475,99.117,74.719,98.283,74.835z
			 M137.215,95.019c1.814,0.003,2.649-1.493,2.474-4.377c-0.055-0.91-0.899-0.938-1.395-1.066c-0.866-0.225-3.554,2.251-3.574,3.117
			C134.68,94.399,135.595,95.089,137.215,95.019z M121.077,144.2c1.556,0.67,2.034-0.143,2.09-1.581
			c0.062-1.571-0.263-2.798-2.162-2.877c-1.838-0.077-2.959,1.286-3.025,2.612C117.901,143.941,119.367,144.628,121.077,144.2z
			 M85.361,161.336c2.237,0.584,2.32-1.632,2.376-2.69c0.075-1.441-1.439-1.848-2.869-1.836c-1.359,0.012-2.408,0.541-2.352,1.914
			C82.579,160.251,83.275,161.555,85.361,161.336z M73.873,145.743c0.114-0.804-0.305-1.322-0.697-1.391
			c-1.316-0.231-2.421-0.768-3.457-1.601c-0.972-0.783-1.735,0.039-2.162,0.71c-0.454,0.714-0.398,1.86,0.511,2.148
			c1.463,0.462,2.916,0.708,4.308,1.57C73.395,147.812,73.541,146.269,73.873,145.743z M99.06,156.663
			c-0.062-1.071-0.974-2.152-2.319-2.246c-0.979-0.068-2.268,0.418-2.241,2.024c0.029,1.692,0.952,2.672,2.466,2.846
			C98.329,159.442,99.04,158.505,99.06,156.663z M90.416,148.571c-0.154,1.096,1.197,1.63,2.331,1.619
			c0.952-0.01,2.223-0.531,2.273-2c0.05-1.483-0.602-2.344-2.136-2.415C91.377,145.705,90.587,146.439,90.416,148.571z
			 M77.221,162.375c1.448-0.146,2.563-0.982,2.629-2.367c0.05-1.04-1.062-2.14-2.068-2.065c-1.167,0.086-2.428,0.7-2.388,2.418
			C75.425,161.645,75.689,162.503,77.221,162.375z M59.945,164.359c0.864,0.117,1.51-0.005,1.431-1.255
			c-0.092-1.43-1.771-3.385-3.038-3.203c-1.105,0.159-0.983,1.109-1.013,1.938C57.26,163.616,58.082,164.464,59.945,164.359z
			 M123.146,151.738c0.164-1.425-0.439-1.976-1.86-1.974c-1.625,0.001-1.979,1.22-2.066,2.274c-0.092,1.104,0.544,1.873,1.998,1.823
			C122.801,153.81,123.339,153.175,123.146,151.738z M126.173,103.951c0.182-1.898-1.192-2.54-2.58-2.587
			c-1.549-0.053-0.804,1.417-0.911,2.227c-0.229,1.73,1.199,2.267,2.374,2.391C126.283,106.112,126.185,104.858,126.173,103.951z
			 M114.115,144.558c0.333-1.921-1.455-2.068-2.596-2.5c-0.71-0.269-1.614,0.629-1.307,1.481c0.459,1.273,0.703,2.882,2.791,2.781
			C114.391,146.253,114.086,145.44,114.115,144.558z M64.89,141.643c-0.634-0.591-1.024-1.743-2.212-1.86
			c-1.344-0.132-1.649,1.2-1.71,2.001c-0.071,0.944,0.83,1.856,1.831,1.891C63.801,143.709,64.483,142.881,64.89,141.643z
			 M80.137,145.741c-0.284,1.387-2.121,2.438-0.255,3.742c0.646,0.452,1.303,0.502,1.729-0.138
			C82.748,147.634,81.212,146.885,80.137,145.741z M387.469,89.017c0.018-0.481,0.111-1.102-0.793-1.024
			c-0.637,0.055-1.14,0.383-1.136,0.999c0.005,0.612,0.503,0.94,1.144,0.996C387.366,90.047,387.515,89.669,387.469,89.017z"/>
		<path style="fill-rule:evenodd;clip-rule:evenodd;fill:#7B491E;" d="M389.491,22.276c0.316,1.753-0.348,2.914-2.518,3.741
			c-5.354,2.042-10.448,4.805-15.866,6.626c-4.414,1.484-8.595,3.53-13.136,4.781c-3.886,1.071-7.735,2.703-11.522,4.323
			c-4.362,1.866-9.094,2.854-13.522,4.587c-4.654,1.823-9.513,3.106-13.929,5.651c-1.583,0.913-4.044,0.46-5.649,1.851
			c-2.736,2.373-6.584,2.492-9.36,4.921c-1.511,1.322-2.737,2.803-3.884,4.346c-2.426,3.264-5.225,5.658-9.444,6.381
			c-2.412,0.414-4.682,1.664-7.014,2.541c-0.305,0.114-0.592,0.329-0.901,0.364c-2.895,0.327-5.379,0.643-6.21,4.461
			c-0.479,2.199-3.63,2.599-5.775,2.999c-2.744,0.511-5.321,1.102-7.74,2.603c-2.193,1.361-4.851,0.834-7.103,0.363
			c-2.932-0.613-5.341,0.392-7.622,1.565c-1.386,0.712-2.624,1.383-4.187,1.752c-1.571,0.371-3.379,0.657-4.504,2.22
			c-0.837,1.163-2.29,0.858-3.253,0.55c-3.347-1.069-6.524,0.092-9.757,0.417c-1.34,0.135-2.605,0.506-3.619-0.758
			c-0.556-0.694-1.181-0.741-1.963-0.242c-3.644,2.322-7.739,3.191-11.96,3.672c-3.024,0.346-5.841-0.798-8.771-1.12
			c-3.998-0.44-7.733-1.707-11.076-3.981c-1.561-1.062-3.338-0.083-5.042-0.769c-2.061-0.83-2.339-1.945-2.379-3.973
			c-0.068-3.477,1.955-5.194,4.277-7.244c2.625-2.316,5.234-4.727,6.688-8.259c0.931-2.261,3.499-3.895,5.752-4.831
			c3.509-1.458,5.621-4.425,7.854-6.933c2.405-2.698,5.081-3.089,7.68-2.38c2.278,0.622,3.312-0.55,4.496-1.501
			c4.259-3.417,8.389-7.078,14.469-5.208c4.535,1.395,8.726-0.379,13.032-1.14c2.007-0.354,3.869-1.119,5.69-2.053
			c1.922-0.987,4.016-1.122,6.187-1.335c2.914-0.286,5.71-1.682,8.578-2.534c3.708-1.102,7.534-2.634,11.328-1.337
			c1.766,0.603,3.122,2.27,5.371,1.862c4.882-0.886,9.626-2.314,14.399-3.607c2.263-0.612,4.342-1.682,6.081,0.884
			c0.237,0.35,0.951,0.72,1.283,0.607c2.896-0.982,5.812-0.053,8.711-0.161c4.383-0.165,8.645-2.401,13.128-0.773
			c0.79,0.287,1.408-0.365,2.131-0.482c5.149-0.834,10.318-1.568,15.438-2.557c3.17-0.612,5.979-2.507,9.198-3.015
			c5.907-0.932,11.359-3.329,16.662-5.802c3.735-1.743,7.719-2.916,11.301-4.999c1.735-1.01,3.77-1.064,5.702-1.169
			C389.158,18.076,389.492,18.789,389.491,22.276z"/>
		<path style="fill-rule:evenodd;clip-rule:evenodd;fill:#7B491E;" d="M265.409,116.014c-2.259,1.347-5.393-0.354-7.767,1.907
			c-0.623,0.594-1.786,0.336-2.733-0.381c-1.646-1.245-3.617-1.854-5.696-1.902c-1.555-0.037-2.795-0.292-3.655-1.885
			c-0.965-1.786-0.657-3.418,0.527-4.634c2.724-2.795,5.291-5.769,9.472-6.747c2.649-0.619,4.671-2.805,7.113-4.101
			c3.754-1.992,7.801-3.104,11.661-4.739c4.458-1.889,8.957-3.783,13.701-4.782c4.427-0.934,8.508-3.043,13.131-3.389
			c2.237-0.167,4.442-1.347,6.565-2.288c2.104-0.932,4.198-0.648,6.327-0.423c0.391,0.042,0.855,0.398,1.142,0.275
			c4.188-1.812,9.043-0.623,13.162-3.212c1.837-1.155,4.507-0.311,6.823-0.675c5.186-0.816,10.466-1.013,15.685-1.653
			c2.049-0.251,4.059-0.839,6.017-1.679c1.917-0.822,4.143-0.104,6.202-1.219c4.26-2.305,9.241-2.769,13.618-4.917
			c0.989-0.485,2.559-0.794,3.344,1.017c0.741,1.71-0.328,2.718-1.385,3.17c-5.339,2.282-10.434,5.082-15.753,7.42
			c-4.542,1.997-9.665,3.233-13.428,7.153c-1.878,1.956-4.884,2.823-7.361,4.213c-1.759,0.985-1.993,3.837-0.453,5.151
			c2.393,2.043,2.271,4.964-0.362,6.835c-0.574,0.408-1.034,0.483-0.642,1.406c0.522,1.23,1.056,0.423,1.488,0.132
			c2.268-1.525,5.249-0.279,7.46-1.962c2.518,2.884,7.163,0.351,9.58,3.95c1.73,2.576,1.497,4.966-1.453,6.011
			c-2.164,0.768-4.018,2.071-6.052,3.016c-3.303,1.534-6.713,2.943-10.214,3.922c-4.712,1.316-8.816,3.66-12.741,6.432
			c-0.552,0.389-1.171,1.138-1.713,0.68c-2.03-1.718-3.493-0.009-5.308,0.44c-2.799,0.695-5.463,2.461-8.564,1.646
			c-0.156-0.041-0.368-0.067-0.496,0.004c-3.662,2.025-7.934,1.945-11.754,3.415c-0.369,0.143-0.714,0.583-1.043,0.555
			c-2.508-0.211-4.921,0.985-7.253,0.896c-4.125-0.156-7.937,0.977-11.842,1.729c-4.641,0.894-9.134,0.585-13.552-0.985
			c-1.012-0.359-1.836-0.44-2.982-0.223c-2.064,0.393-4.42,0.656-6.037-1.404c-1.794-2.286-4.643-2.63-7.03-3.791
			c-2.55-1.239-3.226-2.653-2.046-5.31c1.4-3.151,4.107-4.937,7.251-5.33c3.41-0.428,6.557-1.799,9.944-2.148
			c0.551-0.057,1.064-0.46,0.982-0.939C267.12,115.685,266.211,116.322,265.409,116.014z M292.99,103.989
			c0.049-0.958-0.514-1.066-0.967-0.882c-0.674,0.275-1.673,0.328-1.533,1.506c0.061,0.507,0.018,1.054,0.764,0.942
			C292.266,105.406,292.782,104.732,292.99,103.989z"/>
		<path style="fill-rule:evenodd;clip-rule:evenodd;fill:#7B491E;" d="M35.724,138.392c-0.229,1.138-0.703,2.405,0.062,3.434
			c0.69,0.928,0.246,1.684-0.21,2.192c-0.488,0.543-1.678,0.538-2.097,0.094c-1.693-1.798-2.423,0.227-3.126,0.881
			c-1.315,1.222-2.538,2.953-1.335,4.769c1.001,1.511,0.973,2.403-0.67,2.985c-1.016,0.36-0.731,1.104-0.589,1.602
			c0.165,0.575,0.844,0.902,1.484,0.629c0.968-0.413,1.935-0.18,2.554,0.406c1.045,0.988,2.208,0.955,3.454,0.954
			c0.879-0.002,2.076-0.347,2.365,0.821c0.264,1.066,0.489,2.303-0.653,3.217c-0.99,0.792-2.457,0.848-3.013,0.264
			c-2.138-2.247-5.153-0.894-7.57-2.171c-1.348-0.713-2.242-1.085-2.229-2.684c0.009-1.041,0.336-2.183-0.72-3.016
			c-0.203-0.16-0.303-0.625-0.248-0.909c0.888-4.594,2.358-8.911,7-11.021c1.169-0.53,1.325-1.041,1.338-2.07
			c0.019-1.429,0.723-2.479,2.237-2.508C35.029,136.237,36.069,136.729,35.724,138.392z"/>
		<path style="fill-rule:evenodd;clip-rule:evenodd;fill:#7B491E;" d="M17.271,40.56c-2.45,1.719-4.205,1.551-5.526-0.541
			c-0.218-0.345-0.631-0.783-0.292-1.518c0.705-1.526,1.103-3.193,1.679-4.783c0.133-0.368,0.467-0.935,0.724-0.943
			c3.144-0.111,2.75-3.366,4.355-4.795c1.46-1.3,3.178-2.271,4.652-3.6c0.666-0.601,2.159-0.549,3.216,0.393
			c0.998,0.889,1.438,1.907,0.995,3.089c-0.427,1.137-1.46,1.444-2.672,1.345c-1.918-0.157-2.975,0.628-3.321,2.692
			c-0.237,1.414-0.703,3.537-2.989,1.544c-0.16-0.139-0.597-0.238-0.673-0.152c-1.096,1.251-0.87,2.796-0.74,4.245
			c0.088,0.989,0.867,1.019,1.769,0.804c1.403-0.334,2.656-0.278,2.836,1.688c0.127,1.396,1.297,1.144,2.28,1.243
			c2.728,0.275,3.566,2.294,2.15,4.565c-0.723,1.159-1.955,1.295-2.525,0.846c-1.681-1.325-3.595-2.252-5.282-3.511
			C17.38,42.779,16.865,41.885,17.271,40.56z"/>
		<path style="fill-rule:evenodd;clip-rule:evenodd;fill:#7B491E;" d="M136.27,154.312c-1.209,0.099-1.997-1.163-3.225-1
			c-1.039,0.139-2.064-0.165-3.138,0.395c-1.818,0.948-4.611-0.905-4.736-2.978c-0.104-1.742,1.066-2.614,2.481-1.623
			c1.062,0.744,1.793,0.557,2.919,0.301c2.723-0.618,5.504-1.07,8.344-0.638c1.356,0.206,5.314-2.392,5.753-4.012
			c0.236-0.869,0.921-1.315,1.157-2.115c0.247-0.837,1.097-1.206,1.894-1.145c1.457,0.111,1.536,1.498,1.962,2.495
			c0.351,0.824-0.01,1.468-0.836,1.764c-1.398,0.499-1.788,1.89-2.516,2.92C144.048,151.903,139.982,154.28,136.27,154.312z"/>
		<path style="fill-rule:evenodd;clip-rule:evenodd;fill:#7B491E;" d="M190.459,25.107c-0.867,2.555-0.655,6.147-4.438,7.948
			c-1.483,0.706-2.344,1.509-3.677-0.098c-0.418-0.504-1.41-1.221-2.425-0.494c-0.931,0.667-1.553,0.011-2.098-0.645
			c-0.664-0.798-0.605-1.785-0.143-2.553c0.458-0.759,1.249-1.841,1.919-1.859c3.045-0.082,3.867-2.322,4.776-4.485
			c0.778-1.852,2.524-2.168,3.971-2.004C190.136,21.12,190.603,22.816,190.459,25.107z M184.053,29.248
			c-0.204-0.219-0.332-0.475-0.487-0.494c-0.176-0.021-0.502,0.136-0.542,0.277c-0.087,0.31,0.022,0.652,0.448,0.607
			C183.649,29.62,183.806,29.421,184.053,29.248z"/>
		<path style="fill-rule:evenodd;clip-rule:evenodd;fill:#7B491E;" d="M100.046,110.849c0.152,0.834-0.222,1.723-0.83,2.129
			c-0.689,0.462-1.597,0.16-2.183-0.602c-0.867-1.128-1.56-1.57-2.922-0.285c-0.972,0.917-2.557,1.743-4.105,0.976
			c-1.229-0.609-2.314-0.052-3.396-0.054c-2.532-0.004-4.712,1.78-7.242,1.096c-1.477-0.4-2.467-1.211-2.448-2.914
			c0.013-1.203,0.707-2.028,1.724-2.025c1.157,0.004,2.393,0.384,3.438,0.909c0.67,0.338,1.112,0.647,1.698,0.058
			c1.327-1.335,3.029-0.92,4.634-1.067c2.646-0.244,5.288-0.566,7.916-0.962C98.111,107.839,100.003,109.123,100.046,110.849z"/>
		<path style="fill-rule:evenodd;clip-rule:evenodd;fill:#7B491E;" d="M72.145,20.766c-0.938,0.528-1.86,1.046-3.01,0.897
			c-0.695-0.09-1.25-0.048-1.307,0.972c-0.051,0.92-0.876,1.098-1.699,1.021c-1.287-0.121-1.418-1.253-1.717-2.125
			c-0.257-0.749-0.025-1.723,0.84-1.805c1.089-0.103,1.074-0.627,1.164-1.443c0.148-1.34,1.064-2.351,2.303-2.538
			c1.16-0.175,2.512,0.166,3.249,1.25c0.667,0.981,0.893,1.787,2.411,0.775c0.963-0.641,2.112,0.517,2.454,1.692
			c0.494,1.696-0.017,3.198-1.598,4.024c-1.117,0.583-2.079,0.149-2.478-1.181C72.598,21.775,72.348,21.271,72.145,20.766z"/>
		<path style="fill-rule:evenodd;clip-rule:evenodd;fill:#7B491E;" d="M126.362,65.915c-1.313-0.327-2.389,0.13-3.22,1.224
			c-1.327,1.745-3.341,2.203-5.263,2.866c-1.048,0.361-1.92-0.089-2.097-0.906c-0.19-0.876-0.872-2.137,0.565-2.8
			c1.388-0.64,2.724-1.461,4.177-1.858c0.748-0.205,1.186-0.443,1.376-1.088c0.412-1.399,1.765-1.314,2.357-0.862
			c1.037,0.791,1.624,0.426,2.45-0.12c0.919-0.608,1.91-1.258,2.982-0.248c0.594,0.559,1.246,1.026,0.896,2.096
			c-0.478,1.462-1.605,1.608-2.839,1.901C127.155,66.259,126.894,65.652,126.362,65.915z"/>
		<path style="fill-rule:evenodd;clip-rule:evenodd;fill:#7B491E;" d="M77.61,104.361c0.971-1.198,0.847-3.348,1.171-5.407
			c0.081-0.518,0.313-1.255,0.964-1.321c1.714-0.178,1.117-0.952,0.797-2.009c-0.282-0.932-0.476-2.177,1.03-2.655
			c1.003-0.319,0.887-1.256,0.895-2.095c0.005-0.61-0.257-1.424,0.864-1.387c0.743,0.025,1.558-0.14,2.001,0.663
			c0.384,0.695,0.095,1.321-0.497,1.723c-1.018,0.691-1.092,1.545-0.917,2.697c0.189,1.252,0.3,2.516-1.396,3.264
			c-1.151,0.508,0.102,2.266-0.81,3.176c-0.998,0.995-1.073,1.897-0.093,3.008c1.178,1.337-0.605,1.976-0.921,2.964
			c-0.271,0.845-1.298,0.791-1.957,0.487C77.786,107.028,77.194,106.211,77.61,104.361z"/>
		<path style="fill-rule:evenodd;clip-rule:evenodd;fill:#7B491E;" d="M86.721,88.996c-1.789-0.04-3.008-1.751-2.887-3.25
			c0.132-1.624,1.21-2.8,2.261-3.478c1.414-0.911,2.878-1.727,4.125-2.879c1.956-1.807,3.28-0.534,4.437,0.995
			c0.945,1.248,0.368,2.475-1.215,2.551c-2.837,0.137-3.969,2.068-5.056,4.279C88.03,87.937,88.379,89.948,86.721,88.996z"/>
		<path style="fill-rule:evenodd;clip-rule:evenodd;fill:#7B491E;" d="M38.737,49.447c0.063,0.806-0.065,1.491-1.064,1.89
			c-1.421,0.567-2.587-0.31-3.1-1.09c-0.966-1.469-1.455-0.947-2.454-0.159c-1.481,1.168-3.354,1.281-4.7,0.024
			c-1.248-1.165-1.017-2.899,0-4.279c1.023-1.39,3.398-1.557,4.835-0.166c1.117,1.081,1.892,1.466,3.456,0.708
			C37.038,45.733,38.769,47.638,38.737,49.447z"/>
		<path style="fill-rule:evenodd;clip-rule:evenodd;fill:#7B491E;" d="M64.416,46.011c-0.373-1.715,0.674-2.539,1.978-2.994
			c2.13-0.745,4.315-1.308,6.419-2.163c0.864-0.352,2.226-0.547,2.6,1.037c0.367,1.554-0.833,3.849-2.279,3.817
			c-2.15-0.047-3.938,0.092-4.912,2.422c-0.381,0.911-1.24,0.714-2.13,0.274C65,47.864,63.927,47.506,64.416,46.011z"/>
		<path style="fill-rule:evenodd;clip-rule:evenodd;fill:#7B491E;" d="M145.625,81.964c-3.714-0.989-2.391,2.411-3.349,3.793
			c-0.462,0.668,0.745,1.897-1.002,2.331c-1.289,0.319-1.68-0.435-2.145-1.044c-0.674-0.883-1.522-2.02-0.545-3.086
			c0.689-0.753,1.127-1.714,2.105-2.294c0.783-0.464,1.942-0.819,1.364-2.54c-0.296-0.882,1.017-2.402,2.47-2.666
			c1.518-0.276,1.768,0.738,1.815,1.99c0.016,0.409,0.661,0.76,0.794,1.206C147.533,80.991,147.282,81.991,145.625,81.964z"/>
		<path style="fill-rule:evenodd;clip-rule:evenodd;fill:#7B491E;" d="M45.022,134.673c2.133,0.159,3.892-0.495,4.833,1.62
			c0.429,0.964,0.472,1.673-0.08,2.484c-0.611,0.899-1.698,0.675-2.191,0.312c-2.152-1.578-4.268-0.509-6.333-0.053
			c-1.353,0.299-2.353,0.289-2.629-1.19c-0.229-1.226,0.328-1.925,1.744-2.183C42.106,135.348,43.68,134.146,45.022,134.673z"/>
		<path style="fill-rule:evenodd;clip-rule:evenodd;fill:#7B491E;" d="M60.926,20.647c-2.182,0.031-3.501-1.105-3.593-3.099
			c-0.083-1.797,1.209-2.911,3.392-2.933c1.895-0.019,3.754,0.225,4.097,2.5C65.09,18.896,63.024,20.617,60.926,20.647z"/>
		<path style="fill-rule:evenodd;clip-rule:evenodd;fill:#7B491E;" d="M150.98,54.82c-1.187,0.319-2.146-0.956-1.876-1.527
			c0.691-1.465,0.441-2.928,0.638-4.375c0.275-2.018,1.398-2.039,2.76-1.133c0.531,0.354,1.03,0.409,1.592,0.532
			c1.191,0.262,1.867,1.036,1.715,2.321C155.601,52.401,152.914,54.78,150.98,54.82z"/>
		<path style="fill-rule:evenodd;clip-rule:evenodd;fill:#7B491E;" d="M51.988,19.139c-2.246,0.154-2.983-1.439-3.623-2.909
			c-0.359-0.824,3.914-4.402,4.938-4.035c1.135,0.408,2.087,1.245,2.031,2.748C55.248,17.302,53.767,19.129,51.988,19.139z"/>
		<path style="fill-rule:evenodd;clip-rule:evenodd;fill:#7B491E;" d="M141.564,61.15c-2.167-0.132-3.09-1.589-2.159-3.189
			c0.466-0.801,0.301-1.267-0.191-1.966c-0.609-0.866-1.38-2.001-0.016-2.845c1.163-0.718,1.914,0.308,2.634,1.021
			c0.49,0.484,0.665,1.254,1.477,1.455c1.268,0.312,1.813,1.2,1.358,2.401C144.083,59.573,143.017,60.735,141.564,61.15z"/>
		<path style="fill-rule:evenodd;clip-rule:evenodd;fill:#7B491E;" d="M157.793,60.349c0.985,1.769,0.032,3.708,0.469,5.547
			c0.124,0.521-0.536,1.055-1.201,0.96c-1.725-0.248-3.972,0.966-5.081-0.802c-1.169-1.863,1.127-2.821,2.013-4.113
			c0.925-1.345,2.207-1.918,3.845-1.546L157.793,60.349z"/>
		<path style="fill-rule:evenodd;clip-rule:evenodd;fill:#7B491E;" d="M157.834,47.383c-0.021-2.087,3.043-5.188,5.004-5.128
			c2.014,0.062,2.698,1.356,1.633,3.134c-1.034,1.726-2.733,2.799-4.379,3.715C158.733,49.861,157.672,49.09,157.834,47.383z"/>
		<path style="fill-rule:evenodd;clip-rule:evenodd;fill:#7B491E;" d="M170.468,40.744c-1.313,0.274-1.598-0.892-1.939-1.738
			c-0.418-1.038,0.098-1.917,1.11-2.325c1.582-0.638,3.052-1.369,3.978-2.9c0.339-0.562,0.966-0.791,1.509-0.472
			c0.615,0.362,1.287,0.802,1.296,1.69C176.436,36.368,171.919,40.794,170.468,40.744z"/>
		<path style="fill-rule:evenodd;clip-rule:evenodd;fill:#7B491E;" d="M163.864,130.678c0.201,0.896-0.152,1.902-0.515,2.899
			c-0.495,1.364-1.491,2.146-2.843,1.434c-1.188-0.625-1.804-1.773-0.639-3.056c0.439-0.482,0.787-1.15,0.326-1.528
			c-1.717-1.408-0.379-2.496,0.354-3.523c0.253-0.354,0.984-1.048,1.669-0.544c1.197,0.879,1.796,2.097,1.649,3.622
			C163.85,130.146,163.864,130.314,163.864,130.678z"/>
		<path style="fill-rule:evenodd;clip-rule:evenodd;fill:#7B491E;" d="M61.708,45.777c0.96,0.088,2.278,0.058,2.161,1.916
			c-0.12,1.89-2.684,4.088-4.773,4.119c-1.844,0.026-2.159-1.317-2.224-2.626C56.796,47.665,59.503,45.746,61.708,45.777z"/>
		<path style="fill-rule:evenodd;clip-rule:evenodd;fill:#7B491E;" d="M108.036,108.691c2.07-0.6,2.837,0.962,3.838,1.979
			c0.466,0.473,0.443,1.343,0,1.853c-0.382,0.439-1.411,0.99-1.553,0.856c-1.138-1.076-2.378-0.227-3.477-0.187
			c-1.589,0.06-2.187-0.733-2.753-1.906c-0.734-1.519,0.204-2.712,1.325-2.393C106.59,109.229,107.246,107.697,108.036,108.691z"/>
		<path style="fill-rule:evenodd;clip-rule:evenodd;fill:#7B491E;" d="M157.124,134.717c0.623,0.166,1.777-0.495,1.711,0.996
			c-0.057,1.263,0.397,3.2-1.109,3.36c-1.594,0.169-2.637,0.924-3.792,1.676c-1.241,0.808-2.236,0.603-2.931-0.612
			c-0.709-1.238,0.344-1.918,1.171-2.343c1.188-0.611,2.3-1.135,2.87-2.487C155.395,134.472,156.332,134.743,157.124,134.717z"/>
		<path style="fill-rule:evenodd;clip-rule:evenodd;fill:#7B491E;" d="M56.417,141.235c-1.247-0.262-2.668-1.584-3.834-2.747
			c-0.967-0.964,0.341-2.188,1.603-2.206c1.778-0.025,3.667,0.021,5.312,0.597c1.486,0.521,1.464,1.941,0.35,3.105
			C59.096,140.771,58.192,141.298,56.417,141.235z"/>
		<path style="fill-rule:evenodd;clip-rule:evenodd;fill:#7B491E;" d="M107.078,72.381c0.023,1.786-1.875,4.007-3.456,4.042
			c-1.999,0.044-2.494-1.574-2.991-2.951c-0.332-0.917,2.818-3.036,4.387-3.075C106.112,70.372,107.063,71.287,107.078,72.381z"/>
		<path style="fill-rule:evenodd;clip-rule:evenodd;fill:#7B491E;" d="M167.689,53.817c-1.146-0.042-2.186-0.45-3.479-0.152
			c-1.483,0.341-2.411-1.624-1.46-2.947c0.805-1.119,1.691-2.891,3.279-2.266c1.638,0.645,2.765,2.336,3.289,4.071
			C169.612,53.494,168.658,53.891,167.689,53.817z"/>
		<path style="fill-rule:evenodd;clip-rule:evenodd;fill:#7B491E;" d="M49.327,48.601c0.199-1.002,0.566-2.811,2.316-2.703
			c1.558,0.096,3.222,1.129,3.144,3.177c-0.071,1.869-1.239,2.74-3.116,2.737C49.804,51.811,49.172,50.8,49.327,48.601z"/>
		<path style="fill-rule:evenodd;clip-rule:evenodd;fill:#7B491E;" d="M41.759,20.951c-0.031,0.857-0.67,1.716-2.242,1.71
			c-1.51-0.006-3.306-1.828-3.295-3.339c0.012-1.727,1.298-2.409,2.573-2.913C39.675,16.062,41.739,18.907,41.759,20.951z"/>
		<path style="fill-rule:evenodd;clip-rule:evenodd;fill:#7B491E;" d="M79.39,19.896c-0.221-1.611,1.118-2.115,2.714-2.248
			c1.94-0.16,2.508,1.327,2.812,2.77c0.209,0.995-2.369,3.334-3.449,3.221C79.424,23.426,79.505,21.81,79.39,19.896z"/>
		<path style="fill-rule:evenodd;clip-rule:evenodd;fill:#7B491E;" d="M179.913,40.171c-1.396,0.026-2.18-1.318-1.549-2.643
			c1.375-2.886,4.342-3.604,6.134-1.551c0.664,0.76,0.546,1.57,0.396,2.322c-0.151,0.761-0.992,0.484-1.481,0.41
			C181.899,38.475,181.262,40.125,179.913,40.171z"/>
		<path style="fill-rule:evenodd;clip-rule:evenodd;fill:#7B491E;" d="M110.865,67.38c0.921,0.019,4.204,2.763,4.228,3.493
			c0.032,0.986-2.15,2.352-3.232,1.917c-0.886-0.356-1.757-0.836-2.502-1.429c-0.663-0.528-1.753-1.152-1.145-2.179
			C108.766,68.25,109.473,67.158,110.865,67.38z"/>
		<path style="fill-rule:evenodd;clip-rule:evenodd;fill:#7B491E;" d="M48.456,157.845c1.904-0.299,3.55,0.362,3.743,2.255
			c0.172,1.69-1.161,2.324-2.981,2.321c-2.227-0.004-3.215-1.142-3.397-3.028C45.623,157.336,47.348,157.965,48.456,157.845z"/>
		<path style="fill-rule:evenodd;clip-rule:evenodd;fill:#7B491E;" d="M69.059,159.343c1.515-0.246,2.502,0.956,3.584,1.702
			c0.487,0.336,0.921,1.544,0.237,2.326c-0.554,0.633-1.356,0.872-2.23,0.584c-0.685-0.227-1.266-0.717-2.082-0.611
			c-1.323,0.172-2.307-0.116-2.206-1.812C66.466,159.808,67.438,159.255,69.059,159.343z"/>
		<path style="fill-rule:evenodd;clip-rule:evenodd;fill:#7B491E;" d="M104.658,152.763c0.71-0.489,1.462-0.24,1.798,0.38
			c0.339,0.628,0.331,1.579-0.468,1.963c-1.2,0.576-0.443,2.601-2.111,2.712c-1.356,0.091-2.828-0.071-3.247-1.521
			c-0.415-1.436-0.319-2.922,1.837-3.257C103.186,152.928,103.921,152.934,104.658,152.763z"/>
		<path style="fill-rule:evenodd;clip-rule:evenodd;fill:#7B491E;" d="M114.635,107.207c-0.199-1.371,0.465-2.08,1.626-2.7
			c1.267-0.676,2.191-0.057,3.045,0.544c0.959,0.676,1.451,1.744,1.324,2.993c-0.008,0.08-0.009,0.176-0.053,0.235
			c-1.274,1.751-3.087,0.07-4.645,0.712C114.896,109.42,114.529,108.199,114.635,107.207z"/>
		<path style="fill-rule:evenodd;clip-rule:evenodd;fill:#7B491E;" d="M45.39,15.071c1.876,0.278,2.622,1.84,2.793,3.321
			c0.162,1.396-1.036,2.384-2.542,2.219c-1.845-0.202-2.886-1.338-2.88-3.274C42.766,15.615,43.77,15.037,45.39,15.071z"/>
		<path style="fill-rule:evenodd;clip-rule:evenodd;fill:#7B491E;" d="M99.537,147.534c-0.044-2.04,0.739-2.561,2.657-2.349
			c1.891,0.209,2.568,1.682,3.653,2.699c0.672,0.632-0.729,2.766-1.263,2.297c-1.316-1.155-2.8-0.654-4.18-0.978
			C99.506,148.993,99.487,148.144,99.537,147.534z"/>
		<path style="fill-rule:evenodd;clip-rule:evenodd;fill:#7B491E;" d="M132.098,99.257c-0.046,0.928-3.53,2.916-4.745,2.783
			c-1.11-0.121-1.456-1.062-1.454-1.87c0.005-1.622,2.281-3.753,3.688-3.637C131.296,96.676,131.298,98.376,132.098,99.257z"/>
		<path style="fill-rule:evenodd;clip-rule:evenodd;fill:#7B491E;" d="M34.71,21.995c0.329,1.901-0.944,2.661-2.562,2.606
			c-1.396-0.046-2.392-1.035-2.443-2.577c-0.06-1.818,1.052-2.72,2.7-2.855C34.286,19.014,34.825,20.225,34.71,21.995z"/>
		<path style="fill-rule:evenodd;clip-rule:evenodd;fill:#7B491E;" d="M177.258,45.046c-0.41,0.634-0.93,1.548-1.94,1.153
			c-1.144-0.448-2.063-0.322-3.239-0.061c-1.35,0.3-2.091-0.939-1.63-2.22c0.765-2.13,2.747-1.605,4.403-1.656
			C176.628,42.208,176.811,43.665,177.258,45.046z"/>
		<path style="fill-rule:evenodd;clip-rule:evenodd;fill:#7B491E;" d="M43.127,52.825c-1.692,0.122-2.142-1.664-2.155-2.763
			c-0.014-1.102,0.449-2.961,2.394-2.753c1.867,0.2,2.871,1.637,2.804,3.275C46.118,51.874,44.984,52.862,43.127,52.825z"/>
		<path style="fill-rule:evenodd;clip-rule:evenodd;fill:#7B491E;" d="M132.103,141.851c-0.079,0.159-0.243,0.854-0.679,1.252
			c-0.402,0.368-1.47,0.338-1.58-0.034c-0.637-2.144-4.15-0.071-4.176-2.943c-0.007-0.783-0.011-1.254,1.075-1.469
			C128.979,138.213,132.61,139.54,132.103,141.851z"/>
		<path style="fill-rule:evenodd;clip-rule:evenodd;fill:#7B491E;" d="M41.947,156.247c1.68,0.256,2.727,1.104,2.816,2.874
			c0.084,1.684-1.405,2.124-2.421,2.13c-1.565,0.009-3.083-0.655-3.105-2.732C39.216,156.626,40.7,156.639,41.947,156.247z"/>
		<path style="fill-rule:evenodd;clip-rule:evenodd;fill:#7B491E;" d="M117.128,152.249c0.032,1.154-2.151,3.248-3.37,3.016
			c-0.887-0.17-2.023-0.407-2.136-1.661c-0.109-1.223,1.988-4.086,2.932-4.104C115.538,149.479,117.098,151.147,117.128,152.249z"/>
		<path style="fill-rule:evenodd;clip-rule:evenodd;fill:#7B491E;" d="M142.255,137.356c0.061,0.727-0.003,1.819-1.176,1.317
			c-1.529-0.655-4.193,0.162-4.273-2.554c-0.039-1.332,1.04-2.338,2.582-2.404C141.054,133.645,142.262,135.128,142.255,137.356z"/>
		<path style="fill-rule:evenodd;clip-rule:evenodd;fill:#7B491E;" d="M81.944,39.944c0.145,2.018-0.723,2.805-2.607,2.845
			c-1.818,0.04-2.311-1.165-2.354-2.474c-0.063-1.896,1.557-2.383,3.004-2.529C81.455,37.639,82.259,38.494,81.944,39.944z"/>
		<path style="fill-rule:evenodd;clip-rule:evenodd;fill:#7B491E;" d="M148.637,134.136c-2.707,0.309-3.044-1.54-3.205-2.788
			c-0.135-1.044,0.843-2.136,2.331-1.18c0.118,0.076,0.362,0.073,0.486,0.001c1.673-0.969,2.844-0.305,2.982,1.389
			C151.396,133.576,149.586,133.86,148.637,134.136z"/>
		<path style="fill-rule:evenodd;clip-rule:evenodd;fill:#7B491E;" d="M146.753,73.094c0.176-1.832,1.579-2.934,3.028-3.036
			c1.225-0.085,2.665,0.877,2.529,2.725c-0.212,2.89-2.754,1.302-4.095,2.034C147.242,75.349,146.706,74.192,146.753,73.094z"/>
		<path style="fill-rule:evenodd;clip-rule:evenodd;fill:#7B491E;" d="M98.283,74.835c0.833-0.116,1.3,0.64,1.288,2.108
			c-0.014,1.682-0.928,2.84-2.352,2.899c-1.592,0.066-2.676-1.234-2.657-2.876C94.583,75.074,96.15,75.009,98.283,74.835z"/>
		<path style="fill-rule:evenodd;clip-rule:evenodd;fill:#7B491E;" d="M137.212,95.021c-1.618,0.068-2.532-0.621-2.493-2.328
			c0.021-0.866,2.708-3.342,3.574-3.117c0.496,0.129,1.34,0.156,1.395,1.066C139.864,93.525,139.029,95.021,137.212,95.021z"/>
		<path style="fill-rule:evenodd;clip-rule:evenodd;fill:#7B491E;" d="M121.077,144.2c-1.71,0.428-3.176-0.259-3.097-1.846
			c0.066-1.326,1.188-2.689,3.025-2.612c1.899,0.079,2.224,1.306,2.162,2.877C123.111,144.058,122.633,144.87,121.077,144.2z"/>
		<path style="fill-rule:evenodd;clip-rule:evenodd;fill:#7B491E;" d="M85.361,161.336c-2.086,0.219-2.782-1.085-2.845-2.612
			c-0.057-1.373,0.992-1.902,2.352-1.914c1.43-0.012,2.944,0.395,2.869,1.836C87.681,159.704,87.598,161.92,85.361,161.336z"/>
		<path style="fill-rule:evenodd;clip-rule:evenodd;fill:#7B491E;" d="M157.838,60.395c0.593-1.044-1.204-2.136,0.324-3.406
			c0.913-0.759,1.199-1.459,2.497-0.734c1.35,0.754,2.22,1.927,2.065,3.221c-0.146,1.215-1.515,1.56-2.796,1.364
			c-0.726-0.111-1.257-1.056-2.134-0.491C157.793,60.349,157.838,60.395,157.838,60.395z"/>
		<path style="fill-rule:evenodd;clip-rule:evenodd;fill:#7B491E;" d="M73.873,145.743c-0.333,0.525-0.478,2.069-1.497,1.438
			c-1.392-0.862-2.845-1.108-4.308-1.57c-0.909-0.288-0.965-1.435-0.511-2.148c0.427-0.671,1.19-1.493,2.162-0.71
			c1.036,0.833,2.141,1.369,3.457,1.601C73.568,144.421,73.987,144.939,73.873,145.743z"/>
		<path style="fill-rule:evenodd;clip-rule:evenodd;fill:#7B491E;" d="M99.06,156.663c-0.021,1.842-0.731,2.779-2.094,2.624
			c-1.514-0.174-2.437-1.153-2.466-2.846c-0.027-1.606,1.261-2.093,2.241-2.024C98.086,154.511,98.999,155.592,99.06,156.663z"/>
		<path style="fill-rule:evenodd;clip-rule:evenodd;fill:#7B491E;" d="M90.416,148.571c0.171-2.132,0.961-2.866,2.468-2.796
			c1.534,0.071,2.187,0.932,2.136,2.415c-0.05,1.469-1.322,1.99-2.273,2C91.613,150.201,90.262,149.667,90.416,148.571z"/>
		<path style="fill-rule:evenodd;clip-rule:evenodd;fill:#7B491E;" d="M77.221,162.375c-1.532,0.128-1.796-0.73-1.827-2.015
			c-0.04-1.718,1.222-2.332,2.388-2.418c1.006-0.074,2.118,1.025,2.068,2.065C79.785,161.393,78.669,162.229,77.221,162.375z"/>
		<path style="fill-rule:evenodd;clip-rule:evenodd;fill:#7B491E;" d="M59.945,164.359c-1.863,0.104-2.685-0.743-2.621-2.52
			c0.03-0.829-0.092-1.779,1.013-1.938c1.268-0.182,2.946,1.773,3.038,3.203C61.456,164.354,60.809,164.477,59.945,164.359z"/>
		<path style="fill-rule:evenodd;clip-rule:evenodd;fill:#7B491E;" d="M123.146,151.738c0.193,1.437-0.345,2.071-1.928,2.124
			c-1.454,0.05-2.09-0.72-1.998-1.823c0.087-1.055,0.441-2.273,2.066-2.274C122.708,149.763,123.311,150.313,123.146,151.738z"/>
		<path style="fill-rule:evenodd;clip-rule:evenodd;fill:#7B491E;" d="M126.172,103.949c0.012,0.909,0.11,2.163-1.116,2.032
			c-1.175-0.124-2.604-0.66-2.374-2.391c0.107-0.81-0.639-2.279,0.911-2.227C124.98,101.411,126.355,102.053,126.172,103.949z"/>
		<path style="fill-rule:evenodd;clip-rule:evenodd;fill:#7B491E;" d="M114.115,144.558c-0.028,0.883,0.276,1.695-1.112,1.763
			c-2.088,0.101-2.332-1.508-2.791-2.781c-0.307-0.853,0.597-1.75,1.307-1.481C112.66,142.489,114.448,142.637,114.115,144.558z"/>
		<path style="fill-rule:evenodd;clip-rule:evenodd;fill:#7B491E;" d="M64.89,141.643c-0.407,1.238-1.089,2.066-2.091,2.031
			c-1.001-0.034-1.902-0.946-1.831-1.891c0.061-0.801,0.366-2.133,1.71-2.001C63.866,139.899,64.256,141.052,64.89,141.643z"/>
		<path style="fill-rule:evenodd;clip-rule:evenodd;fill:#7B491E;" d="M80.137,145.741c1.075,1.144,2.611,1.893,1.473,3.604
			c-0.425,0.64-1.083,0.59-1.729,0.138C78.016,148.179,79.854,147.128,80.137,145.741z"/>
		<path style="fill-rule:evenodd;clip-rule:evenodd;fill:#7B491E;" d="M387.469,89.017c0.046,0.652-0.104,1.03-0.785,0.971
			c-0.641-0.056-1.139-0.384-1.144-0.996c-0.004-0.616,0.499-0.944,1.136-0.999C387.581,87.915,387.487,88.536,387.469,89.017z"/>
		<path style="fill-rule:evenodd;clip-rule:evenodd;fill:none;" d="M292.99,103.989c-0.208,0.743-0.724,1.417-1.736,1.566
			c-0.746,0.111-0.703-0.436-0.764-0.942c-0.14-1.178,0.859-1.23,1.533-1.506C292.476,102.923,293.039,103.031,292.99,103.989z"/>
		<path style="fill-rule:evenodd;clip-rule:evenodd;fill:none;" d="M184.053,29.248c-0.247,0.173-0.404,0.372-0.581,0.391
			c-0.426,0.045-0.536-0.297-0.448-0.607c0.041-0.142,0.366-0.298,0.542-0.277C183.722,28.773,183.85,29.028,184.053,29.248z"/>
	</g>
</g>
</svg>
