<?xml version="1.0" encoding="iso-8859-1"?>
<!-- Generator: Adobe Illustrator 16.0.0, SVG Export Plug-In . SVG Version: 6.00 Build 0)  -->
<!DOCTYPE svg PUBLIC "-//W3C//DTD SVG 1.1//EN" "http://www.w3.org/Graphics/SVG/1.1/DTD/svg11.dtd">
<svg version="1.1" id="Layer_1" xmlns="http://www.w3.org/2000/svg" xmlns:xlink="http://www.w3.org/1999/xlink" x="0px" y="0px"
	 width="401.589px" height="237.614px" viewBox="0 0 401.589 237.614" style="enable-background:new 0 0 401.589 237.614;"
	 xml:space="preserve">
<g>
	<g>
		<path style="fill:none;" d="M200.794,237.068c-66.004,0-132.008-0.01-198.012,0.046c-1.863,0.002-2.284-0.419-2.283-2.282
			c0.055-77.35,0.055-154.699,0-232.049C0.499,0.92,0.92,0.5,2.783,0.5c132.008,0.051,264.015,0.051,396.023,0
			c1.863,0,2.284,0.42,2.283,2.283c-0.055,77.35-0.055,154.699,0,232.049c0.001,1.863-0.42,2.284-2.283,2.282
			C332.803,237.058,266.798,237.068,200.794,237.068z M337.472,146.668c-1.617,0.125-2.546-1.119-3.614-1.958
			c-0.782-0.613-1.094-0.416-1.83,0.07c-2.788,1.842-1.85,7.837,0.998,9.602c0.664,0.412,1.179,0.146,1.751-0.342
			c2.329-1.983,3.74-4.252,2.633-7.435c1.045-0.363,1.882,0.99,3.015,0.296c1.798-1.101,3.07-4.201,2.459-6.234
			c-0.422-1.408-2.394-2.525-3.492-1.979c-2.081,1.034-3.224,3.375-2.982,5.625C336.513,145.282,337.729,145.623,337.472,146.668z
			 M121.031,167.502c2.255,0,3.916,0.081,5.565-0.019c2.985-0.181,4.593-1.468,4.633-3.558c0.053-2.819-1.13-4.011-4.325-4.381
			c-0.393-0.046-0.892-0.054-1.146-0.29c-1.848-1.725-4.089-1.82-6.416-1.704c-0.645,0.032-1.417,0.104-1.928-0.192
			c-2.971-1.724-6.067-2.987-9.556-3.019c-2.299-0.021-4.246-1.507-6.423-1.677c-4.05-0.316-8.055-0.853-12.048-1.554
			c-1.049-0.185-1.699-0.944-1.824-1.795c-0.18-1.236-0.937-1.912-1.695-2.724c-2.689-2.878-3.764-8.823-1.961-11.939
			c1.048-1.812,0.667-3.193-0.4-4.683c-1.025-1.43-1.83-2.997-1.946-4.765c-0.271-4.12-2.32-7.757-5.584-9.424
			c-4.489-2.292-7.171-6.279-10.788-9.321c-5.271-4.434-9.042-10.522-15.008-14.3c-0.679-0.43-1.395-0.871-1.924-1.459
			c-2.325-2.587-5.118-4.256-8.604-4.694c-1.007-0.126-1.777-0.686-2.498-1.384c-2.242-2.174-5.009-3.445-7.928-4.395
			c-1.386-0.45-4.293,0.945-4.106,1.989c0.619,3.449-1.723,5.964-2.651,8.9c-1.484,4.691-4.253,8.929-4.616,14.047
			c-0.124,1.751-0.73,3.766-1.812,5.094c-2.579,3.168-3.121,6.926-3.493,10.642C11.995,126.433,13.4,131.824,15.19,137
			c0.932,2.696,1.433,5.313,1.243,8.095c-0.17,2.489,0.252,4.814,1.286,7.099c1.17,2.587,2.065,5.28,1.706,8.203
			c-0.268,2.182,0.398,4.213,1.309,6.08c0.49,1.006,0.342,1.839,0.126,2.675c-0.626,2.434-0.064,3.286,2.431,2.785
			c4.166-0.836,8.279-0.062,12.417-0.016c3.007,0.033,6.128-0.007,9-0.765c2.812-0.744,5.719-0.735,8.499-1.601
			c1.172-0.364,2.592-0.243,3.784,0.536c0.988,0.645,1.993,0.567,3.003-0.053c0.857-0.526,1.823-0.633,2.822-0.553
			c4.218,0.337,8.363,1.428,12.657,1.04c1.48-0.134,3.05-0.407,4.457,0.817c0.522,0.454,1.783,0.415,2.586-0.122
			c4.559-3.05,9.797-3.431,15.006-3.673c4.179-0.193,8.371-0.106,12.554,0.416C113.929,168.446,117.75,167.02,121.031,167.502z
			 M304.468,185.791c-1.126-1.339-1.934-3.448-4.071-2.794c-1.641,0.503-3.945,0.209-4.495,2.862
			c-0.341,1.644,0.778,2.5,1.237,3.714c0.734,1.942,3.338,3.955-0.184,5.782c-0.156,0.081-0.222,0.429-0.243,0.66
			c-0.321,3.443-0.605,6.832,0.879,10.185c0.598,1.35,1.488,1.978,2.616,1.988c2.229,0.02,4.096,0.415,5.236,2.56
			c0.386,0.726,1.172,0.442,1.806,0.478c0.806,0.044,1.532,0.001,2.298,0.597c1.02,0.792,2.526,0.762,3.478,0.088
			c0.939-0.666,1.828-0.512,2.758-0.705c2.57-0.534,4.426,0.982,6.527,1.978c4.864,2.302,10.273,0.292,15.382,1.83
			c2.419,0.729,5.172,1.123,7.802,1.472c2.352,0.312,4.19,2.167,6.574,2.16c1.693-0.004,3.188,0.492,4.632,1.211
			c1.856,0.924,3.653,1.966,5.482,2.941c3.273,1.746,5.894,1.365,8.026-1.416c1.467-1.913,2.375-4.049,2.595-6.603
			c0.248-2.877,1.185-5.609,4.539-6.604c1.434-0.425,2.371-1.651,3.328-2.792c2.061-2.455,2.098-5.333,2.007-8.303
			c-0.087-2.84,0.061-6.377,1.54-8.14c4.614-5.496,4.587-12.528,7.285-18.592c0.434-0.975,0.632-2.611-0.518-3.719
			c-0.703-0.679-0.318-1.311,0.096-1.971c1.229-1.962,2.21-3.91,0.589-6.219c-0.333-0.474-0.095-1.462,0.082-2.163
			c1.259-4.984,0.843-10.158,1.753-15.193c0.275-1.521,0.223-3.091,1.296-4.271c1.08-1.188,0.91-2.28,0.298-3.574
			c-1.182-2.499-2.078-4.906-0.66-7.808c1.716-3.51-0.911-6.734-1.381-10.121c-0.057-0.415-0.514-0.989-0.901-1.108
			c-2.21-0.681-4.55-1.979-6.669-1.704c-5.022,0.654-9.628,3.05-13.972,5.508c-2.615,1.48-5.309,2.847-7.882,4.387
			c-4.679,2.802-10.45,3.514-14.41,7.666c-0.868,0.911-1.791,0.42-2.254-0.596c-0.781-1.715-2.025-2.221-3.891-2.276
			c-2.363-0.07-4.814,0.309-6.582-2.423c-1.44-2.227-6.077-1.216-6.52,1.02c-0.701,3.546,3.422,7.677,6.875,6.72
			c1.143-0.316,2.148-0.422,3.283,0.112c1.612,0.76,2.819,2.173,4.571,2.701c0.294,0.088,0.65,0.634,0.642,0.959
			c-0.064,2.298,0.341,4.614-0.208,6.896c-0.748,3.117-1.781,6.187-1.727,9.444c0.021,1.247,0.024,2.412-0.978,3.394
			c-0.991,0.973-1.157,2.254-1.028,3.608c0.432,4.529-0.482,9.075-2.485,12.864c-3.862,7.311-6.99,14.799-8.965,22.803
			c-0.307,1.244-0.94,1.987-2.452,1.311c-1.817-0.812-3.793-0.806-5.761-0.781c-3.312,0.041-6.624,0.032-9.937,0.004
			c-2.283-0.02-3.566-1.585-2.562-3.523c0.605-1.17,1.062-2.383,1.307-3.571c0.393-1.914,2.535-3.683,0.617-5.926
			c-0.381-0.445-0.159-1.22,0.95-1.492c1.001-0.245,2.135-1.132,1.938-2.51c-0.236-1.659,0.104-2.701,1.984-2.881
			c0.41-0.038,0.778-0.547,1.16-0.846c1.123-0.879,0.995-1.835,0.404-3.025c-0.663-1.338-1.646-1.815-2.985-1.521
			c-1.19,0.263-1.901,1.067-2.035,2.354c-0.115,1.108,0.097,2.096,0.975,2.997c-0.51,0.033-0.838,0.068-1.167,0.073
			c-3.754,0.062-4.338,0.765-3.803,4.521c0.056,0.393-0.022,1.154-0.102,1.163C305.982,181.901,305.991,184.599,304.468,185.791z
			 M192.361,66.368c-0.694-0.413-1.26,0.281-0.954,1.336c0.539,1.859,0.259,3.732,0.477,5.579c0.467,3.972,2.411,4.848,6.014,3.008
			c1.981-1.012,4.157-2.221,6.145-0.08c1.186,1.275,2.31,0.729,3.558,0.372c0.612-0.176,1.124-0.67,1.848-0.514
			c3.249,0.699,6.622,0.365,9.863,1.284c1.914,0.543,3.83,0.48,5.46-1.114c2.389-2.336,5.364-0.955,8.086-0.976
			c0.626-0.005,1.329,0.896,1.239,1.895c-0.059,0.657-0.033,1.324-0.003,1.984c0.047,1.039,0.681,1.678,1.625,1.867
			c1.116,0.224,1.428-0.833,1.595-1.517c0.266-1.094-0.12-2.404,0.306-3.392c1.824-4.244,1.282-8.174-1.062-12.016
			c-1.518-2.487-1.274-5.428-1.961-8.132c-0.617-2.439-2.179-4.441-3-6.768c-1.759-4.979-4.208-9.604-6.869-14.145
			c-0.61-1.042-1.413-1.815-2.239-2.564c-2.672-2.422-4.267-2.157-6.291,0.807c-1.187,1.738-1.987,3.624-3.652,5.187
			c-2.629,2.465-5.647,4.549-7.457,8.015c-1.611,3.084-3.671,6.083-6.219,8.622c-0.353,0.352-0.542,1.035-0.532,1.559
			c0.058,3.302-2.037,5.824-3.181,8.675C194.943,65.869,194.153,67.069,192.361,66.368z M78.551,93.298
			c0.076-0.014,0.151-0.028,0.226-0.042c-0.734-3.368-1.817-6.705-2.124-10.111c-0.484-5.387-8.547-11.594-14.818-9.257
			c-3.772,1.406-6.528,4.27-10.226,5.591c-0.929,0.331-1.17,1.41-0.74,2.331c0.303,0.649,0.047,1.279,0.144,1.792
			c0.389,2.055-0.218,4.267,1.264,6.189c1.411,1.829,2.853,3.638,4.626,5.063c4.927,3.96,7.71,4.516,12.476,2.034
			c1.906-0.993,3.155-0.834,4.745,0.313c2.063,1.489,3.982,0.608,4.41-1.919C78.644,94.638,78.551,93.96,78.551,93.298z
			 M53.219,201.062c0,1.241-0.161,2.509,0.039,3.717c0.28,1.692,0.944,3.441,2.784,3.862c1.614,0.369,2.769-0.951,3.534-2.177
			c0.924-1.479,2.044-2.335,3.753-2.767c1.922-0.485,3.768-1.298,5.608-2.062c0.472-0.196,0.906-0.459,1.383-0.282
			c2.37,0.876,4.817,1.532,6.776,3.337c0.999,0.92,2.213,1.729,3.784,1.591c0.819-0.072,1.529-0.189,1.622-1.124
			c0.087-0.879,0.287-1.923-0.835-2.337c-3.918-1.445-6.32-5.003-9.831-7c-3.852-2.191-6.705-5.633-10.357-8.12
			c-2.875-1.957-5.976-4.054-7.034-7.802c-0.217-0.768-0.557-0.766-1.318-0.52c-2.721,0.88-4.621,4.752-3.281,7.239
			C52.283,191.144,53.086,196.016,53.219,201.062z M15.467,207.927c-0.022,1.057-0.187,2.114,1.086,2.269
			c0.938,0.114,1.81,0.201,2.443-1.025c1.275-2.471,2.802-4.831,6.295-3.947c0.309,0.078,0.716-0.369,1.099-0.422
			c3.527-0.488,6.541-2.568,10.077-3.139c2.253-0.364,2.916-2.742,1.699-4.761c-0.497-0.824-0.78-1.795-1.354-2.553
			c-1.58-2.086-0.666-4.686-1.614-6.959c-1.21-2.9-2.974-5.565-3.542-8.776c-0.383-2.168-2.083-2.585-3.816-1.409
			c-1.827,1.239-1.817,3.403-2.324,5.108c-0.973,3.276-2.311,6.404-3.497,9.577c-1.571,4.203-3.882,8.133-5.417,12.347
			C16.171,205.419,14.803,206.524,15.467,207.927z M169.392,135.034c0.276,1.317,0.629,2.146,2.28,1.298
			c0.929-0.479,1.887-1.063,2.145-1.896c0.944-3.052,3.302-5.282,4.522-8.092c1.192-2.745,3.406-3.395,5.779-3.48
			c2.696-0.1,4.899-0.992,6.27-3.139c0.768-1.2,2.196-2.674,1.191-4.349c-0.923-1.54-2.385-2.459-4.358-2.036
			c-0.696,0.149-1.211,0.448-1.427-0.832c-0.332-1.968-3.627-4.294-5.606-3.947c-2.154,0.378-3.35,2.058-3.724,4.213
			c-0.085,0.495-0.049,1.006-0.527,1.307c-2.495,1.568-1.75,3.622-0.786,5.638c0.355,0.743,0.443,1.387,0.042,2.071
			c-0.973,1.656-1.701,3.566-3.015,4.89C169.79,129.083,170.438,132.261,169.392,135.034z M253.17,117.706
			c2.436,0.016,5.344-3.524,4.717-5.848c-0.146-0.541-0.334-1.159-1.001-1.53c-1.677-0.935-3.942-2.402-5.143-2.135
			c-2.271,0.505-3.876-0.371-5.824-0.67c-3.176-0.488-4.951,3.34-3.5,6.936c0.359,0.889,0.94,1.726-0.237,2.518
			c-1.393,0.936-0.669,2.216,0.177,2.681c1.828,1.003,0.781,4.219,3.539,4.309c-0.08,0.146-0.172,0.285-0.236,0.438
			c-1.017,2.403,1.063,4.23,1.225,6.431c0.048,0.652,0.422,1.59,1.407,1.274c0.739-0.236,1.383-0.709,1.23-1.779
			c-0.112-0.79-0.193-2.153,0.189-2.356c3.55-1.877,2.1-4.319,0.965-6.777C250.322,120.424,252.283,117.7,253.17,117.706z
			 M319.322,139.248c0.71,0.628,0.85,1.468,1.257,2.134c1.096,1.793-0.603,3.556,0.024,5.189c0.556,1.447,0.32,2.027-0.996,2.888
			c-1.265,0.825-2.208,2.538-1.47,4.059c0.811,1.668,2.27,0.441,3.453,0.086c0.307-0.093,0.636-0.13,0.926-0.257
			c1.727-0.756,2.289-3.026,0.772-4.065c-1.541-1.056-0.668-1.797,0.103-2.184c2.241-1.123,1.926-2.775,1.079-4.464
			c-0.369-0.736-0.146-1.341,0.146-1.724c0.934-1.219,0.347-2.395-0.357-3.106c-0.798-0.807-1.209-2.653-3.223-1.659
			c-1.679,0.828-1.084-2.198-2.656-1.919c-0.306,0.055-0.656,0.135-0.881,0.327c-1.634,1.394-2.899,3.08-3.366,5.191
			c-0.262,1.184,0.215,2.36,1.385,2.853c1.081,0.454,1.88-0.319,2.471-1.167C318.473,140.736,318.875,139.987,319.322,139.248z
			 M181.046,22.422c-0.233-1.379-0.451-2.553-0.625-3.734c-0.206-1.387-1.392-1.792-2.399-2.168c-0.892-0.333-2.1,0.333-2.27,1.004
			c-0.371,1.463-1.575,2.023-2.491,2.761c-2.164,1.742-2.121,3.594-0.925,5.794c0.889,1.634,2.884,1.776,4.262,0.485
			c1.217-1.141,1.93-2.891,3.758-3.495c0.24,1.684-0.602,3.752,1.708,4.248c1.307,0.28,3.142,0.507,3.619-1.172
			c0.374-1.315,0.832-2.95-0.444-4.298C183.643,20.16,182.36,21.052,181.046,22.422z M305.803,137.458
			c-2.651-0.493-4.463,0.552-5.007,2.974c-0.56,2.498,1.313,3.765,3.122,4.645c1.686,0.82,2.902-0.368,3.785-1.775
			c0.903-1.442,0.4-2.78-0.304-4.119c-0.371-0.706-1.205-1.456,0.283-2.015c2.871-1.076,3.695-3.238,3.503-6.217
			c-0.1-1.554-0.729-2.258-1.961-2.657c-1.386-0.45-2.563,0.579-2.779,1.502C305.868,132.271,303.563,134.619,305.803,137.458z
			 M294.707,172.809c0.001,1.799,1.969,6.099,3.369,7.227c0.941,0.761,1.86,0.535,2.577-0.347c1.606-1.978,2.665-4.132,2.527-6.812
			c-0.154-3.015-1.776-4.926-4.407-4.878C295.979,168.05,294.706,169.557,294.707,172.809z M327.996,169.492
			c0.051-1.727-0.316-3.327-2.204-3.399c-1.357-0.052-1.809-0.603-2.099-1.67c-0.354-1.306-1.297-1.802-2.415-1.238
			c-1.439,0.726-2.074,2.071-1.701,3.712c0.31,1.36,1.391,1.372,2.313,0.904c1.003-0.509,1.13-0.201,1.128,0.701
			c-0.007,3.322,1.56,6.528,0.64,9.97c-0.133,0.497,0.018,2.421,1.478,2.379c1.459-0.042,2.604-1.019,3.432-2.233
			c0.892-1.312,0.626-2.503-0.605-3.422c-1.535-1.146-2.245-2.249-0.299-3.689C328.36,170.99,327.861,170.106,327.996,169.492z
			 M175.962,99.212c0.464-2.159-0.845-4.244-2.026-6.353c-0.501-0.895-1.222-1.708-2.361-1.335c-1.017,0.332-1.972,1.067-2.03,2.2
			c-0.057,1.117-0.527,1.999-0.903,2.977c-0.313,0.817-0.519,1.98,0.143,2.57c0.571,0.511,1.539,0.218,2.164-0.529
			c0.339-0.406,0.927-0.494,1.312-0.124c0.385,0.37,0.131,0.843-0.037,1.334c-0.461,1.345-0.471,2.735,0.267,4.008
			c0.797,1.375,1.847,1.291,2.732-0.034C176.125,102.581,175.917,101.115,175.962,99.212z M172.977,67.898
			c0.075-2.294-1.376-3.83-2.946-4.059c-1.951-0.284-2.196-1.23-2.579-2.681c-0.397-1.504-1.423-2.672-3.139-2.382
			c-1.938,0.328-1.927,1.929-1.775,3.46c0.151,1.514,0.43,3.039,2.439,2.873c1.193-0.099,1.456,0.425,1.748,1.416
			c0.307,1.044,0.587,2.126,1.403,3.018c0.97,1.058,2,1.374,3.282,0.86C172.607,69.925,173.041,68.952,172.977,67.898z
			 M194.396,119.645c-0.182,2.019,0.389,2.919,1.745,3.116c1.316,0.19,1.61-0.611,1.722-1.791c0.112-1.178,0.959-2.208,0.953-3.456
			c-0.002-0.521,0.287-0.702,0.779-0.688c0.523,0.015,0.729,0.292,0.696,0.774c-0.097,1.424,1.282,2.425,1.045,3.939
			c-0.139,0.891,0.593,1.191,1.455,1.26c1.019,0.08,1.056-0.608,1.051-1.24c-0.017-2.142-0.024-4.289-0.197-6.422
			c-0.062-0.769-0.918-0.729-1.593-0.825c-1.264-0.182-2.473,0.406-3.764,0.068c-1.613-0.423-2.712,0.415-3.171,1.927
			C194.725,117.604,194.538,118.965,194.396,119.645z M200.794,98.889c0,0.367,0.023,0.036-0.004-0.291
			c-0.147-1.787-2.27-3.531-3.903-3.115c-2.193,0.559-1.515,2.06-1.267,3.623c0.345,2.166,0.792,4.421,0.054,6.581
			c-0.562,1.646,0.409,2.608,1.503,3.057c1.31,0.538,2.502-0.953,2.461-1.754C199.506,104.396,200.917,102.118,200.794,98.889z
			 M232.595,108.118c0.247-1.092-0.136-2.264-1.361-2.64c-1.266-0.39-1.699,0.829-2.281,1.741c-1.683,2.637-1.703,2.58-4.486,0.807
			c-0.805-0.513-1.664-0.947-2.483-1.452c-1.102-0.679-2.116-0.009-2.648,1.022c-0.386,0.747-0.357,1.662,0.562,2.147
			c2.866,1.512,6.06,2.099,9.117,3.038C230.963,113.379,232.607,111.146,232.595,108.118z M323.033,123.776
			c-2.898,0.002-3.498,0.534-3.481,3.091c0.018,2.678,2.767,5.468,5.269,5.348c1.513-0.073,3.196-2.198,3.179-4.015
			C327.979,126.195,325.263,123.775,323.033,123.776z M192.836,99.438c0-0.977,0.114-1.432-0.021-1.792
			c-0.522-1.397-1.404-2.383-3.073-2.186c-1.11,0.131-1.996,0.789-1.812,1.889c0.599,3.566,0.773,7.128,0.443,10.722
			c-0.072,0.788,0.056,1.521,0.947,1.754c0.877,0.23,1.578-0.106,2.154-0.814c0.587-0.721,0.444-1.279-0.14-1.931
			c-0.333-0.372-1.248-0.57-0.487-1.482C192.459,103.668,192.066,101.085,192.836,99.438z M360.113,88.491
			c0.581,0.084,1.029-0.15,1.514-0.549c2.628-2.164,2.711-3.916,0.503-7.356c-0.622-0.968-1.105-1.692-2.411-1.553
			c-1.315,0.14-1.841,1.093-2.147,2.056c-0.58,1.824-0.451,3.788-0.089,5.598C357.668,87.613,358.665,88.682,360.113,88.491z
			 M168.521,26.884c-0.9,0.111-2.187-0.405-2.445,0.966c-0.257,1.363-0.81,2.533-1.367,3.777c-0.599,1.337-0.447,2.882,1.284,3.714
			c1.493,0.717,2.475,0.255,3.313-1.046c0.494-0.767,1.082-1.488,1.717-2.143c1.028-1.061,1.237-2.081,0.577-3.508
			C170.932,27.204,170.011,26.681,168.521,26.884z M358.263,91.027c-0.675,0.345-1.522,0.619-2.104,1.359
			c-1.017,1.297-1.188,6.322-0.279,7.731c0.404,0.628,0.931,1.056,1.607,0.716c1.962-0.983,3.725-2.356,4.112-4.595
			c0.287-1.666-0.652-3.201-1.779-4.484C359.448,91.333,359.072,90.845,358.263,91.027z M296.694,149.292
			c-0.019,2.031,1.549,3.803,3.599,3.754c1.971-0.046,3.693-1.418,3.843-3.812c0.11-1.783-2.09-3.982-3.837-3.933
			C298.035,145.366,296.718,146.824,296.694,149.292z M309.614,124.291c0.003,2.472,1.943,4.529,4.264,4.444
			c2.374-0.087,2.465-2.05,2.644-3.645c0.237-2.118-2.003-4.361-4.134-4.273C310.228,120.907,309.478,122.285,309.614,124.291z
			 M298.683,157.331c0.004-2.282-1.061-3.256-3.548-3.244c-2.287,0.011-3.382,1.017-3.409,3.133c-0.034,2.65,1.461,4.347,3.809,4.32
			C297.742,161.515,298.678,160.264,298.683,157.331z M232.106,85.903c-0.018,1.432,0.621,4.749,1.123,5.376
			c0.443,0.555,0.831,1.29,1.735,1.175c0.83-0.106,0.838-0.927,1.062-1.447c0.716-1.667,0.491-3.568,1.463-5.246
			c0.604-1.043-1.16-4.27-2.072-4.172c-1.791,0.191-2.839,1.386-3.295,3.082C232.019,85.055,232.106,85.491,232.106,85.903z
			 M324.521,158.404c0.027,2.255,1.242,3.706,3.041,3.631c1.621-0.067,3.483-3.105,3.419-5.579c-0.046-1.756-1.539-2.963-3.51-2.837
			C326.014,153.711,324.494,156.177,324.521,158.404z M338.899,68.882c0.083-1.323-0.046-2.112-1.14-2.232
			c-0.89-0.099-1.944,0.125-1.736,1.14c0.34,1.647-0.512,1.974-1.728,2.39c-0.974,0.333-1.473,1.342-1.728,2.242
			c-0.587,2.068,1.28,2.986,2.48,3.776c0.799,0.525,2.457-0.216,2.791-1.512C338.364,72.648,336.744,70.224,338.899,68.882z
			 M271.994,133.101c-1.086-1.554-2.377-3.031-4.123-4.186c-0.857-0.566-1.507-1.083-2.278-0.085
			c-0.748,0.968-0.575,2.008,0.354,2.649c1.135,0.784,1.788,2.028,1.81,3.081c0.027,1.371,1.202,2.1,1.237,3.36
			c0.012,0.439,0.557,0.767,1.131,0.762c0.578-0.004,1.219-0.496,1.109-0.761C270.539,136.249,271.691,134.889,271.994,133.101z
			 M168.559,102.917c-0.264-1.333-0.875-1.932-2.065-1.215c-1.857,1.118-3.533,2.359-2.998,4.993
			c0.17,0.842,0.209,1.795-0.435,2.574c-0.79,0.954,0.13,1.387,0.601,1.983c0.851,1.078,1.283-0.091,1.707-0.394
			C168.146,108.877,166.873,105.28,168.559,102.917z M227.072,132.221c0.183,1.561-0.377,3.683,1.984,2.653
			c1.333-0.581,2.268-2.096,3.346-3.225c0.25-0.262-0.975-5.004-1.334-5.139c-0.723-0.272-1.316-0.585-2.037,0.389
			C227.755,128.624,227.293,130.504,227.072,132.221z M328.497,97.973c-0.018,2.067,2.047,4.458,3.86,4.398
			c1.437-0.047,2.69-0.489,2.622-2.426c-0.085-2.428-1.628-3.919-4.191-4.019C329.149,95.864,328.196,96.289,328.497,97.973z
			 M232.141,122.273c-0.09,1.428-0.063,2.318,1.02,2.454c0.771,0.096,1.985,0.378,2.166-0.578c0.316-1.685,1.703-2.374,2.556-3.546
			c0.669-0.918,1.352-2.236,0.208-3.228c-0.851-0.737-2.086-0.989-3.128-0.146C233.188,118.665,232.781,120.832,232.141,122.273z
			 M235.576,98.625c0-0.491,0.033-0.985-0.006-1.474c-0.127-1.581-1.029-2.714-2.562-2.615c-1.408,0.09-2.401,0.947-1.952,2.771
			c0.262,1.065,0.128,2.199,0.482,3.319c0.367,1.161,0.261,2.471,2.044,2.281c1.735-0.185,1.855-1.508,1.986-2.808
			C235.617,99.613,235.576,99.118,235.576,98.625z M329.238,92.471c1.534,0.001,3.355-1.905,3.181-3.659
			c-0.183-1.843-1.398-2.787-3.312-2.811c-1.788-0.021-3.021,0.622-3.074,2.556C325.979,90.541,327.635,92.47,329.238,92.471z
			 M193.838,52.329c-0.007-2.209-1.119-3.587-2.896-3.562c-1.785,0.025-2.895,1.074-3.02,2.798c-0.132,1.82,1.629,3.581,3.215,3.655
			C193.365,55.325,194.031,54.151,193.838,52.329z M197.812,83.427c-0.007-1.854-1.646-3.881-3.19-3.869
			c-0.986,0.008-2.82,2.213-2.763,3.322c0.061,1.196,2.512,4.25,3.306,3.923C196.563,86.226,197.983,85.439,197.812,83.427z
			 M336.448,104.207c-0.041,2.413,1.471,4.546,3.123,4.676c2.085,0.165,2.453-1.492,2.663-2.804c0.287-1.8-2.084-4.372-3.634-4.109
			C337.439,102.166,336.139,102.611,336.448,104.207z M164.014,46.918c0.064-1.937-1.698-4.28-3.008-4.106
			c-1.962,0.261-2.486,1.842-2.691,3.494c-0.209,1.691,1.518,3.522,3.218,3.412C163.402,49.596,163.665,48.046,164.014,46.918z
			 M355.328,73.631c-0.001,2.803,1.056,4.626,2.663,4.365c1.593-0.259,2.392-1.449,2.323-3.186
			c-0.081-2.073-1.483-4.239-2.949-4.182C355.23,70.713,355.261,72.286,355.328,73.631z M349.194,108.372
			c1.182-0.031,4.446-3.985,4.066-5.097c-0.186-0.539-0.812-1.115-1.366-1.304c-1.438-0.492-4.465,1.241-4.915,2.673
			C346.392,106.511,347.523,108.415,349.194,108.372z M192.836,26.819c0.207-1.957-0.552-2.975-2.754-2.956
			c-2.029,0.018-2.728,0.882-2.74,2.838c-0.014,2.286,1.394,2.982,3.217,3.129C192.636,29.998,192.951,28.552,192.836,26.819z
			 M333.962,80.009c-0.017-2.274-1.205-3.385-3.368-3.467c-1.89-0.072-2.086,1.055-2.099,2.459
			c-0.015,1.686,2.036,4.217,3.378,3.987C333.457,82.716,334.066,81.565,333.962,80.009z M259.417,93.186
			c0-0.604,0.2-1.249-0.037-1.569c-0.714-0.962-0.752-2.56-2.479-2.642c-1.389-0.067-2.159,0.606-2.54,1.813
			c-0.397,1.258,0.45,2.216,0.904,3.268c0.526,1.217,1.268,2.281,2.741,1.827C259.264,95.495,259.647,94.368,259.417,93.186z
			 M187.468,32.303c-1.337,0.408-2.946,0.633-3.065,2.655c-0.087,1.484,1.903,3.403,3.495,3.343c2.01-0.076,2.274-1.88,2.342-3.126
			C190.317,33.761,189.472,32.378,187.468,32.303z M316.043,185.887c1.806-0.001,3.572-1.875,3.473-3.616
			c-0.092-1.592-1.464-2.098-2.714-2.291c-1.365-0.211-3.107,1.844-3.231,3.325C313.396,185.386,314.821,185.636,316.043,185.887z
			 M181.211,67.132c1.934,0.104,2.77-0.76,2.705-2.65c-0.066-1.913-1.407-3.002-2.869-3.049c-1.5-0.049-2.793,0.907-2.672,3.016
			C178.493,66.491,179.325,67.295,181.211,67.132z M163.189,115.211c-0.362-0.84,0.225-1.52-0.786-1.917
			c-1.213-0.477-1.83,0.073-2.394,0.873c-1.258,1.787-0.927,3.983-1.377,5.978c-0.111,0.492,0.143,1.461,1.078,1.632
			c0.855,0.157,1.168-0.361,1.66-0.979C162.782,119.027,161.19,116.482,163.189,115.211z M247.502,91.344
			c-0.106,1.417,0.354,2.455,1.915,2.603c1.195,0.113,3.049-2.869,3.077-4.635c0.024-1.452-0.638-1.86-1.968-1.827
			C248.559,87.535,247.466,88.869,247.502,91.344z M194.546,87.492c-1.842,0.063-2.265,1.193-2.216,2.815
			c0.054,1.777,0.656,3.396,2.473,3.569c2.067,0.196,2.438-1.92,2.376-3.255C197.118,89.314,196.812,87.362,194.546,87.492z
			 M351.04,65.143c-1.342,0.03-2.201,0.863-2.169,2.102c0.047,1.837,1.621,3.958,3.082,3.797c1.372-0.15,2.353-1.046,2.381-2.615
			C354.36,66.915,352.551,65.109,351.04,65.143z M188.089,61.667c1.472-0.248,2.481-1.109,2.729-2.603
			c0.227-1.362-1.463-2.944-2.986-2.848c-1.658,0.105-2.816,1.104-2.871,2.696C184.896,60.803,186.538,61.271,188.089,61.667z
			 M206.314,105.395c-0.247,0-0.523-0.074-0.734,0.013c-0.986,0.405-2.327,0.413-2.302,2.005c0.025,1.648,1.206,1.491,2.268,1.443
			c0.726-0.032,1.163,0.454,1.73,0.702c1.099,0.48,2.552,0.888,3.298-0.416c0.717-1.253-0.698-2.026-1.406-2.699
			C208.472,105.783,207.464,105.196,206.314,105.395z M243.038,99.893c-0.009,2.761,0.936,3.891,2.361,2.79
			c1.408-1.088,2.492-2.631,2.065-4.62c-0.223-1.037-0.953-1.621-2.128-1.634c-1.267-0.014-2.018,0.563-2.277,1.738
			C242.938,98.716,243.038,99.316,243.038,99.893z M259.887,102.353c-0.166-0.976-0.383-2.5-1.163-3.812
			c-0.391-0.657-1.036-1.471-1.987-1.004c-0.92,0.453-1.657,1.308-1.228,2.388c0.498,1.251,0.645,2.591,1.332,3.821
			c0.567,1.015,1.186,1.301,2.116,1.104C260.007,104.626,259.965,103.717,259.887,102.353z M191.901,131.324
			c0.357-0.33,0.91-0.592,1.019-0.979c0.535-1.902,1.208-3.822,1.316-5.766c0.068-1.216-1.06-1.48-2.252-0.842
			c-1.829,0.981-2.262,5.334-1.55,6.615C190.666,130.77,191.317,130.955,191.901,131.324z M218.787,108.824
			c-0.589-0.523-0.967-1.125-1.772-1.532c-1.416-0.714-2.791-1.42-4.285-0.581c-0.629,0.354-1.587,0.922-1.406,1.814
			c0.13,0.636,0.793,1.204,1.58,1.387c1.305,0.303,2.589,0.726,3.907,0.915C218.139,111.018,218.112,109.651,218.787,108.824z
			 M204.765,127.565c0-0.661,0.161-1.375-0.034-1.973c-0.386-1.182-0.809-2.724-2.489-2.236c-1.521,0.442-1.765,1.831-1.289,3.236
			c0.332,0.979,0.868,1.888,1.226,2.859c0.279,0.76,0.617,1.392,1.536,1.253c0.923-0.139,1.092-0.844,1.059-1.651
			C204.753,128.558,204.769,128.062,204.765,127.565z M164.149,41.302c1.837,0.174,2.379-1.206,2.286-2.595
			c-0.096-1.428-0.722-2.854-2.617-2.881c-1.669-0.023-2.351,0.868-2.277,2.457C161.616,39.924,161.889,41.404,164.149,41.302z
			 M346.895,66.295c-0.075-1.927-1.292-3.037-2.702-2.946c-1.56,0.101-2.087,1.85-2.229,3.249c-0.157,1.545,0.991,2.936,2.297,2.855
			C345.846,69.356,346.578,67.699,346.895,66.295z M314.086,145.572c-0.024-1.655-1.221-2.914-2.26-2.269
			c-1.315,0.817-2.499,2.051-2.463,3.619c0.012,0.553-0.366,1.991,1.053,2.368c0.648,0.173,1.251,0.586,1.743-0.025
			C313.038,148.173,314.264,147.226,314.086,145.572z M251.847,100.782c-1.054,0.589-2.865-0.146-2.837,1.882
			c0.027,1.98,1.507,2.535,3.104,2.699c1.581,0.163,2.69-0.644,2.812-2.264C255.101,100.78,252.917,101.565,251.847,100.782z
			 M264.394,128.054c0.009-1.881-1.558-3.283-3.372-3.285c-0.753-0.001-1.554,0.492-2.09-0.658
			c-0.367-0.784-0.925-0.062-1.364,0.269c-0.618,0.466-0.256,0.748-0.026,1.312c0.888,2.183,3.551,1.493,4.751,3.125
			c0.295,0.4,0.964,0.525,1.461,0.776C263.997,129.007,264.241,128.42,264.394,128.054z M184.899,136.366
			c-0.032,0.582,0.224,1.073,0.392,1.606c0.254,0.805,0.243,1.665,1.348,1.688c1.214,0.027,1.504-1.146,1.602-1.837
			c0.176-1.257,0.384-2.312,1.396-3.212c0.395-0.351,0.621-1.185-0.491-1.406C187.377,132.855,184.934,134.618,184.899,136.366z
			 M321.539,184.757c-0.098,1.531,0.458,2.74,2.126,2.558c1.333-0.146,2.446-1.088,2.31-2.635c-0.118-1.338-0.443-2.767-2.276-2.758
			C321.793,181.93,321.447,183.193,321.539,184.757z M234.939,144.606c1.273,0.061,2.21,0.2,2.552-0.791
			c0.167-0.482,0.362-1.305-0.234-1.57c-1.593-0.708-3.043-1.935-4.988-1.573c-0.818,0.152-1.31,0.722-1.586,1.372
			c-0.216,0.507,0.352,0.95,0.754,1.136C232.711,143.768,234.037,144.246,234.939,144.606z M227.72,137.481
			c-0.238-1.303-0.495-2.246-2.213-1.464c-1.77,0.806-2.064,2.389-2.289,3.935c-0.121,0.833,0.438,1.74,1.448,1.928
			c0.597,0.11,1.334-0.124,1.59-0.649C226.838,140.037,227.237,138.753,227.72,137.481z M195.7,138.186
			c-1.016,0-1.836,0.02-2.657-0.005c-0.803-0.023-1.517,0.133-1.656,1.047c-0.183,1.199,0.962,1.322,1.583,1.375
			c1.875,0.157,3.771,0.055,5.658,0.061c0.573,0.002,0.945-0.367,1.091-0.809c0.181-0.548-0.345-0.855-0.695-1.183
			C197.967,137.684,196.665,138.443,195.7,138.186z M188.893,40.806c-1.133-0.16-2.16,0.085-2.006,1.753
			c0.145,1.566,0.559,2.843,2.582,2.729c1.517-0.085,2.286-0.869,2.358-2.27C191.926,41.123,190.676,40.704,188.893,40.806z
			 M158.542,54.128c0.462,1.061,0.319,2.742,2.142,3.05c1.678,0.284,2.385-1.117,2.228-2.187c-0.184-1.25-0.408-3.085-2.294-3.226
			C159.251,51.664,158.558,52.553,158.542,54.128z M241.417,140.672c-0.494,0-0.992-0.046-1.48,0.009
			c-1.106,0.126-1.904,0.748-1.824,1.879c0.09,1.262,1.201,1.163,2.085,1.075c1.573-0.157,2.893-1.221,4.593-1.17
			c0.822,0.024,0.895-1.146,0.66-1.835c-0.291-0.854-1.342-0.624-1.645-0.31C243.021,141.136,242.21,140.614,241.417,140.672z
			 M313.582,151.849c0.082,1.156-0.152,2.765,1.548,2.647c1.356-0.093,1.945-1.396,1.94-2.802c-0.004-1.142-0.033-2.448-1.466-2.521
			C313.901,149.086,313.492,150.367,313.582,151.849z M249.49,137.526c0.013-1.383-1.109-2.852-2.224-2.796
			c-1.46,0.072-1.206,1.21-1.262,2.164c-0.085,1.453,0.238,2.634,1.942,2.767C249.538,139.785,249.531,138.641,249.49,137.526z
			 M202.288,135.917c-0.254-1.056-0.803-2.512-2.439-2.901c-0.528-0.127-1.888,0.532-1.466,1.49
			c0.602,1.368,0.848,3.267,2.732,3.586C202.238,138.283,202.289,137.251,202.288,135.917z M177.972,68.242
			c-0.007-1.627-1.308-1.956-2.309-2.011c-0.81-0.044-2.161,0.328-2.126,1.509c0.039,1.301,1.027,2.2,2.344,2.337
			C177.145,70.209,177.743,69.34,177.972,68.242z M168.855,114.825c0.608-0.229,1.626,0.535,2.059-0.494
			c0.2-0.476,0.195-1.272-0.083-1.659c-0.395-0.547-1.27-1.139-1.86-0.744c-0.898,0.601-2.355-0.079-2.792,1.144
			c-0.266,0.749,0.128,1.564,1.085,1.737C167.743,114.896,168.25,114.825,168.855,114.825z M172.966,111.84
			c1.345,0.108,2.413-0.465,2.354-1.61c-0.057-1.128-1.347-0.849-2.205-0.857c-0.871-0.009-2.063-0.194-2.036,1.059
			C171.1,111.417,171.85,112.18,172.966,111.84z M200.08,233.218c-0.433,0.381-1.221,0.59-0.976,1.368
			c0.235,0.745,0.511,1.619,1.597,1.468c0.75-0.104,1.124-0.588,1.075-1.354C201.707,233.652,200.676,233.686,200.08,233.218z
			 M338.923,93.069c0.085-0.739-0.16-1.399-0.896-1.518c-0.641-0.104-1.025,0.437-1.066,1.084c-0.049,0.789,0.385,1.212,1.147,1.313
			C338.792,94.042,338.973,93.655,338.923,93.069z"/>
		<path style="fill-rule:evenodd;clip-rule:evenodd;fill:#7B491E;" d="M121.031,167.502c-3.281-0.482-7.102,0.943-10.955,0.462
			c-4.183-0.522-8.375-0.609-12.554-0.416c-5.209,0.242-10.447,0.623-15.006,3.673c-0.804,0.537-2.064,0.576-2.586,0.122
			c-1.406-1.225-2.976-0.951-4.457-0.817c-4.294,0.388-8.439-0.703-12.657-1.04c-1-0.08-1.965,0.026-2.822,0.553
			c-1.011,0.62-2.015,0.697-3.003,0.053c-1.192-0.779-2.612-0.9-3.784-0.536c-2.779,0.865-5.686,0.856-8.499,1.601
			c-2.872,0.758-5.992,0.798-9,0.765c-4.139-0.046-8.251-0.82-12.417,0.016c-2.495,0.501-3.057-0.352-2.431-2.785
			c0.215-0.836,0.363-1.669-0.126-2.675c-0.911-1.867-1.577-3.898-1.309-6.08c0.359-2.923-0.536-5.616-1.706-8.203
			c-1.033-2.284-1.456-4.609-1.286-7.099c0.19-2.781-0.312-5.398-1.243-8.095c-1.79-5.176-3.195-10.566-2.641-16.102
			c0.372-3.715,0.914-7.473,3.493-10.642c1.082-1.328,1.688-3.343,1.812-5.094c0.362-5.118,3.132-9.356,4.616-14.047
			c0.928-2.936,3.27-5.451,2.651-8.9c-0.187-1.044,2.721-2.439,4.106-1.989c2.918,0.949,5.686,2.221,7.928,4.395
			c0.721,0.699,1.49,1.258,2.498,1.384c3.487,0.438,6.279,2.107,8.604,4.694c0.529,0.588,1.245,1.03,1.924,1.459
			c5.966,3.778,9.736,9.867,15.008,14.3c3.616,3.042,6.299,7.029,10.788,9.321c3.264,1.667,5.314,5.304,5.584,9.424
			c0.116,1.768,0.921,3.335,1.946,4.765c1.068,1.489,1.448,2.871,0.4,4.683c-1.802,3.116-0.728,9.062,1.961,11.939
			c0.759,0.812,1.515,1.487,1.695,2.724c0.125,0.851,0.774,1.61,1.824,1.795c3.993,0.701,7.998,1.237,12.048,1.554
			c2.178,0.17,4.125,1.656,6.423,1.677c3.489,0.031,6.585,1.295,9.556,3.019c0.511,0.296,1.283,0.225,1.928,0.192
			c2.327-0.116,4.568-0.021,6.416,1.704c0.253,0.236,0.752,0.244,1.146,0.29c3.194,0.37,4.378,1.562,4.325,4.381
			c-0.04,2.09-1.647,3.377-4.633,3.558C124.947,167.583,123.287,167.502,121.031,167.502z"/>
		<path style="fill-rule:evenodd;clip-rule:evenodd;fill:#7B491E;" d="M304.468,185.791c1.523-1.191,1.515-3.89,4.021-4.159
			c0.079-0.009,0.157-0.771,0.102-1.163c-0.535-3.757,0.049-4.459,3.803-4.521c0.329-0.005,0.657-0.04,1.167-0.073
			c-0.878-0.901-1.09-1.889-0.975-2.997c0.134-1.287,0.845-2.092,2.035-2.354c1.339-0.294,2.322,0.184,2.985,1.521
			c0.591,1.19,0.719,2.146-0.404,3.025c-0.382,0.299-0.75,0.808-1.16,0.846c-1.88,0.18-2.221,1.222-1.984,2.881
			c0.196,1.378-0.938,2.265-1.938,2.51c-1.109,0.272-1.331,1.047-0.95,1.492c1.918,2.243-0.225,4.012-0.617,5.926
			c-0.244,1.188-0.701,2.401-1.307,3.571c-1.004,1.938,0.279,3.504,2.562,3.523c3.312,0.028,6.625,0.037,9.937-0.004
			c1.968-0.024,3.943-0.031,5.761,0.781c1.512,0.677,2.146-0.066,2.452-1.311c1.975-8.004,5.103-15.492,8.965-22.803
			c2.003-3.789,2.917-8.335,2.485-12.864c-0.129-1.354,0.037-2.636,1.028-3.608c1.002-0.981,0.998-2.146,0.978-3.394
			c-0.055-3.258,0.979-6.327,1.727-9.444c0.549-2.282,0.144-4.599,0.208-6.896c0.009-0.325-0.348-0.871-0.642-0.959
			c-1.752-0.528-2.959-1.941-4.571-2.701c-1.135-0.534-2.141-0.429-3.283-0.112c-3.453,0.957-7.576-3.174-6.875-6.72
			c0.442-2.235,5.079-3.246,6.52-1.02c1.768,2.731,4.219,2.353,6.582,2.423c1.865,0.056,3.109,0.562,3.891,2.276
			c0.463,1.016,1.386,1.507,2.254,0.596c3.96-4.152,9.731-4.864,14.41-7.666c2.573-1.54,5.267-2.907,7.882-4.387
			c4.344-2.458,8.949-4.854,13.972-5.508c2.119-0.276,4.459,1.023,6.669,1.704c0.388,0.12,0.845,0.693,0.901,1.108
			c0.47,3.387,3.097,6.611,1.381,10.121c-1.418,2.901-0.521,5.309,0.66,7.808c0.612,1.294,0.782,2.387-0.298,3.574
			c-1.073,1.18-1.021,2.749-1.296,4.271c-0.91,5.035-0.494,10.209-1.753,15.193c-0.177,0.701-0.415,1.689-0.082,2.163
			c1.621,2.309,0.641,4.257-0.589,6.219c-0.414,0.66-0.799,1.292-0.096,1.971c1.149,1.107,0.951,2.744,0.518,3.719
			c-2.698,6.063-2.671,13.096-7.285,18.592c-1.479,1.763-1.627,5.3-1.54,8.14c0.091,2.97,0.054,5.848-2.007,8.303
			c-0.957,1.141-1.895,2.367-3.328,2.792c-3.354,0.995-4.291,3.728-4.539,6.604c-0.22,2.554-1.128,4.689-2.595,6.603
			c-2.133,2.781-4.753,3.162-8.026,1.416c-1.829-0.976-3.626-2.018-5.482-2.941c-1.444-0.719-2.938-1.215-4.632-1.211
			c-2.384,0.007-4.223-1.848-6.574-2.16c-2.63-0.349-5.383-0.743-7.802-1.472c-5.108-1.538-10.518,0.472-15.382-1.83
			c-2.102-0.995-3.957-2.512-6.527-1.978c-0.93,0.193-1.818,0.039-2.758,0.705c-0.951,0.674-2.458,0.704-3.478-0.088
			c-0.766-0.596-1.492-0.553-2.298-0.597c-0.634-0.035-1.42,0.248-1.806-0.478c-1.141-2.145-3.008-2.54-5.236-2.56
			c-1.128-0.011-2.019-0.639-2.616-1.988c-1.484-3.353-1.2-6.741-0.879-10.185c0.021-0.231,0.087-0.579,0.243-0.66
			c3.521-1.827,0.918-3.84,0.184-5.782c-0.459-1.214-1.578-2.07-1.237-3.714c0.55-2.653,2.854-2.359,4.495-2.862
			C302.534,182.342,303.342,184.452,304.468,185.791z M366.062,166.514c-2.613-0.031-2.792,0.245-3.316,2.421
			c-0.441,1.83-1.714,3.182-3.384,4.025c-2.146,1.084-3.583,2.666-3.503,5.13c0.081,2.472-1.166,4.906-0.082,7.419
			c0.248,0.576-0.177,1.404-0.303,2.095c-0.395,2.152-2.326,3.503-2.637,5.64c-0.317,2.18-1.058,4.189-2.819,5.632
			c-0.995,0.815-1.538,1.932-1.957,3.026c-1.435,3.753-0.644,4.881,3.354,4.838c3.443-0.037,6.735,0.785,10.038,1.559
			c2.772,0.65,3.205,0.259,3.865-2.45c0.595-2.443,1.097-5.113,3.078-6.871c2.97-2.636,3.561-6.318,4.836-9.734
			c1.74-4.661,1.914-9.955,5.96-13.709c1.258-1.167,2.082-3.292,1.825-4.992c-0.282-1.869-2.39-1.49-3.901-1.587
			c-0.15-0.009-0.299-0.129-0.438-0.214C373.265,166.649,369.244,167.559,366.062,166.514z M380.173,141.725
			c0-2.648,0.001-5.297,0-7.945c-0.002-3.142-1.78-4.732-4.792-3.979c-1.526,0.381-3.198,1.008-4.314,2.049
			c-2.909,2.713-6.041,5.127-9.229,7.473c-0.918,0.675-1.355,1.148-1.125,2.422c0.25,1.378,0.055,2.758-2.193,1.973
			c-1.499-0.523-2.592,0.145-2.729,2.032c-0.14,1.947,0.873,2.397,2.481,2.377c0.828-0.011,1.663,0.07,2.482-0.014
			c5.438-0.554,10.148,1.019,14.35,4.514c0.973,0.809,2.566,1.349,3.842,0.769c1.191-0.544,1.258-1.949,1.239-3.228
			C380.144,147.353,380.173,144.539,380.173,141.725z"/>
		<path style="fill-rule:evenodd;clip-rule:evenodd;fill:#7B491E;" d="M192.361,66.368c1.792,0.702,2.583-0.499,2.795-1.03
			c1.144-2.851,3.239-5.373,3.181-8.675c-0.009-0.524,0.179-1.207,0.532-1.559c2.547-2.539,4.607-5.538,6.219-8.622
			c1.81-3.465,4.828-5.549,7.457-8.015c1.665-1.562,2.466-3.449,3.652-5.187c2.024-2.964,3.619-3.229,6.291-0.807
			c0.826,0.749,1.629,1.522,2.239,2.564c2.661,4.542,5.11,9.166,6.869,14.145c0.821,2.327,2.383,4.329,3,6.768
			c0.687,2.705,0.443,5.645,1.961,8.132c2.344,3.842,2.886,7.772,1.062,12.016c-0.426,0.988-0.04,2.298-0.306,3.392
			c-0.167,0.684-0.479,1.741-1.595,1.517c-0.944-0.189-1.578-0.828-1.625-1.867c-0.03-0.661-0.056-1.328,0.003-1.984
			c0.09-0.999-0.613-1.899-1.239-1.895c-2.722,0.021-5.697-1.36-8.086,0.976c-1.63,1.594-3.546,1.658-5.46,1.114
			c-3.241-0.919-6.614-0.585-9.863-1.284c-0.724-0.156-1.235,0.338-1.848,0.514c-1.248,0.357-2.372,0.904-3.558-0.372
			c-1.988-2.141-4.164-0.932-6.145,0.08c-3.603,1.839-5.547,0.963-6.014-3.008c-0.217-1.846,0.062-3.72-0.477-5.579
			C191.101,66.649,191.667,65.955,192.361,66.368z"/>
		<path style="fill-rule:evenodd;clip-rule:evenodd;fill:#7B491E;" d="M78.551,93.298c0,0.662,0.093,1.34-0.016,1.983
			c-0.428,2.528-2.347,3.408-4.41,1.919c-1.59-1.148-2.839-1.307-4.745-0.313c-4.766,2.482-7.549,1.926-12.476-2.034
			c-1.773-1.425-3.215-3.234-4.626-5.063c-1.482-1.922-0.875-4.134-1.264-6.189c-0.097-0.512,0.159-1.143-0.144-1.792
			c-0.43-0.92-0.189-2,0.74-2.331c3.698-1.321,6.454-4.186,10.226-5.591c6.271-2.337,14.333,3.87,14.818,9.257
			c0.307,3.407,1.389,6.743,2.124,10.111C78.702,93.27,78.626,93.284,78.551,93.298z"/>
		<path style="fill-rule:evenodd;clip-rule:evenodd;fill:#7B491E;" d="M53.219,201.062c-0.133-5.046-0.936-9.918-3.374-14.443
			c-1.34-2.487,0.561-6.359,3.281-7.239c0.762-0.246,1.102-0.248,1.318,0.52c1.058,3.748,4.159,5.845,7.034,7.802
			c3.653,2.487,6.506,5.929,10.357,8.12c3.511,1.997,5.912,5.555,9.831,7c1.122,0.414,0.922,1.458,0.835,2.337
			c-0.092,0.935-0.803,1.052-1.622,1.124c-1.571,0.139-2.785-0.671-3.784-1.591c-1.958-1.805-4.406-2.461-6.776-3.337
			c-0.478-0.177-0.911,0.086-1.383,0.282c-1.84,0.764-3.687,1.576-5.608,2.062c-1.708,0.432-2.829,1.287-3.753,2.767
			c-0.766,1.226-1.92,2.546-3.534,2.177c-1.84-0.421-2.504-2.17-2.784-3.862C53.058,203.571,53.219,202.303,53.219,201.062z"/>
		<path style="fill-rule:evenodd;clip-rule:evenodd;fill:#7B491E;" d="M15.467,207.927c-0.665-1.403,0.704-2.508,1.135-3.69
			c1.535-4.214,3.846-8.144,5.417-12.347c1.186-3.173,2.524-6.301,3.497-9.577c0.507-1.705,0.497-3.869,2.324-5.108
			c1.734-1.176,3.433-0.759,3.816,1.409c0.568,3.211,2.332,5.876,3.542,8.776c0.949,2.273,0.035,4.873,1.614,6.959
			c0.574,0.758,0.856,1.729,1.354,2.553c1.217,2.019,0.555,4.396-1.699,4.761c-3.536,0.57-6.549,2.65-10.077,3.139
			c-0.383,0.053-0.79,0.5-1.099,0.422c-3.493-0.884-5.02,1.477-6.295,3.947c-0.633,1.227-1.505,1.14-2.443,1.025
			C15.28,210.042,15.445,208.984,15.467,207.927z"/>
		<path style="fill-rule:evenodd;clip-rule:evenodd;fill:#7B491E;" d="M169.392,135.034c1.046-2.772,0.398-5.95,2.786-8.354
			c1.314-1.323,2.042-3.233,3.015-4.89c0.401-0.685,0.314-1.328-0.042-2.071c-0.964-2.016-1.709-4.069,0.786-5.638
			c0.478-0.301,0.442-0.812,0.527-1.307c0.374-2.155,1.57-3.835,3.724-4.213c1.979-0.347,5.274,1.979,5.606,3.947
			c0.216,1.28,0.731,0.981,1.427,0.832c1.974-0.424,3.435,0.496,4.358,2.036c1.005,1.674-0.424,3.148-1.191,4.349
			c-1.371,2.146-3.574,3.039-6.27,3.139c-2.373,0.086-4.587,0.735-5.779,3.48c-1.22,2.81-3.579,5.04-4.522,8.092
			c-0.258,0.833-1.216,1.418-2.145,1.896C170.021,137.18,169.668,136.351,169.392,135.034z"/>
		<path style="fill-rule:evenodd;clip-rule:evenodd;fill:#7B491E;" d="M253.17,117.706c-0.887-0.005-2.848,2.719-2.492,3.49
			c1.135,2.458,2.585,4.9-0.965,6.777c-0.383,0.203-0.302,1.566-0.189,2.356c0.152,1.07-0.491,1.543-1.23,1.779
			c-0.985,0.315-1.359-0.622-1.407-1.274c-0.161-2.2-2.241-4.027-1.225-6.431c0.064-0.152,0.156-0.291,0.236-0.438
			c-2.758-0.09-1.711-3.306-3.539-4.309c-0.846-0.465-1.569-1.745-0.177-2.681c1.178-0.792,0.597-1.629,0.237-2.518
			c-1.451-3.596,0.324-7.424,3.5-6.936c1.948,0.299,3.553,1.175,5.824,0.67c1.2-0.267,3.466,1.2,5.143,2.135
			c0.667,0.371,0.854,0.99,1.001,1.53C258.514,114.181,255.605,117.721,253.17,117.706z"/>
		<path style="fill-rule:evenodd;clip-rule:evenodd;fill:#7B491E;" d="M319.322,139.248c-0.447,0.739-0.85,1.488-1.333,2.182
			c-0.591,0.848-1.39,1.621-2.471,1.167c-1.17-0.492-1.646-1.669-1.385-2.853c0.467-2.111,1.732-3.798,3.366-5.191
			c0.225-0.192,0.575-0.272,0.881-0.327c1.572-0.279,0.978,2.747,2.656,1.919c2.014-0.994,2.425,0.853,3.223,1.659
			c0.704,0.712,1.291,1.888,0.357,3.106c-0.293,0.383-0.516,0.987-0.146,1.724c0.847,1.688,1.162,3.341-1.079,4.464
			c-0.771,0.387-1.644,1.128-0.103,2.184c1.517,1.039,0.954,3.31-0.772,4.065c-0.29,0.127-0.619,0.164-0.926,0.257
			c-1.184,0.355-2.643,1.582-3.453-0.086c-0.738-1.521,0.205-3.233,1.47-4.059c1.316-0.86,1.552-1.44,0.996-2.888
			c-0.627-1.634,1.071-3.396-0.024-5.189C320.172,140.715,320.032,139.875,319.322,139.248z"/>
		<path style="fill-rule:evenodd;clip-rule:evenodd;fill:#7B491E;" d="M181.046,22.422c1.314-1.37,2.596-2.262,4.191-0.576
			c1.276,1.348,0.818,2.983,0.444,4.298c-0.477,1.679-2.312,1.453-3.619,1.172c-2.309-0.496-1.467-2.564-1.708-4.248
			c-1.828,0.604-2.541,2.354-3.758,3.495c-1.377,1.292-3.373,1.149-4.262-0.485c-1.196-2.2-1.239-4.052,0.925-5.794
			c0.916-0.737,2.121-1.298,2.491-2.761c0.169-0.67,1.378-1.337,2.27-1.004c1.008,0.377,2.194,0.781,2.399,2.168
			C180.596,19.869,180.813,21.042,181.046,22.422z"/>
		<path style="fill-rule:evenodd;clip-rule:evenodd;fill:#7B491E;" d="M305.803,137.458c-2.239-2.839,0.065-5.187,0.643-7.663
			c0.216-0.923,1.394-1.952,2.779-1.502c1.231,0.399,1.861,1.104,1.961,2.657c0.192,2.979-0.632,5.141-3.503,6.217
			c-1.488,0.559-0.654,1.309-0.283,2.015c0.704,1.339,1.207,2.677,0.304,4.119c-0.883,1.407-2.1,2.596-3.785,1.775
			c-1.809-0.88-3.682-2.146-3.122-4.645C301.34,138.009,303.151,136.964,305.803,137.458z"/>
		<path style="fill-rule:evenodd;clip-rule:evenodd;fill:#7B491E;" d="M294.707,172.809c-0.001-3.252,1.272-4.759,4.066-4.81
			c2.631-0.048,4.253,1.863,4.407,4.878c0.138,2.68-0.921,4.834-2.527,6.812c-0.717,0.882-1.636,1.107-2.577,0.347
			C296.676,178.908,294.708,174.608,294.707,172.809z"/>
		<path style="fill-rule:evenodd;clip-rule:evenodd;fill:#7B491E;" d="M327.996,169.492c-0.135,0.614,0.364,1.498-0.333,2.014
			c-1.946,1.44-1.236,2.543,0.299,3.689c1.231,0.919,1.497,2.11,0.605,3.422c-0.827,1.215-1.973,2.191-3.432,2.233
			c-1.46,0.042-1.61-1.882-1.478-2.379c0.92-3.441-0.646-6.647-0.64-9.97c0.002-0.902-0.125-1.21-1.128-0.701
			c-0.923,0.468-2.004,0.456-2.313-0.904c-0.373-1.641,0.262-2.986,1.701-3.712c1.118-0.563,2.061-0.067,2.415,1.238
			c0.29,1.067,0.741,1.618,2.099,1.67C327.68,166.165,328.047,167.765,327.996,169.492z"/>
		<path style="fill-rule:evenodd;clip-rule:evenodd;fill:#7B491E;" d="M175.962,99.212c-0.045,1.903,0.162,3.369-0.74,4.715
			c-0.886,1.324-1.936,1.409-2.732,0.034c-0.737-1.273-0.728-2.663-0.267-4.008c0.168-0.491,0.422-0.964,0.037-1.334
			c-0.385-0.371-0.973-0.283-1.312,0.124c-0.625,0.747-1.592,1.04-2.164,0.529c-0.661-0.59-0.456-1.753-0.143-2.57
			c0.375-0.979,0.846-1.86,0.903-2.977c0.058-1.133,1.013-1.868,2.03-2.2c1.139-0.373,1.859,0.44,2.361,1.335
			C175.118,94.968,176.426,97.053,175.962,99.212z"/>
		<path style="fill-rule:evenodd;clip-rule:evenodd;fill:#7B491E;" d="M172.977,67.898c0.063,1.053-0.37,2.027-1.566,2.506
			c-1.282,0.514-2.312,0.198-3.282-0.86c-0.816-0.892-1.096-1.974-1.403-3.018c-0.292-0.991-0.555-1.515-1.748-1.416
			c-2.009,0.166-2.289-1.359-2.439-2.873c-0.152-1.532-0.163-3.132,1.775-3.46c1.716-0.29,2.741,0.878,3.139,2.382
			c0.383,1.451,0.628,2.397,2.579,2.681C171.601,64.068,173.052,65.604,172.977,67.898z"/>
		<path style="fill-rule:evenodd;clip-rule:evenodd;fill:#7B491E;" d="M194.396,119.645c0.142-0.68,0.328-2.041,0.722-3.338
			c0.459-1.512,1.558-2.35,3.171-1.927c1.291,0.338,2.5-0.25,3.764-0.068c0.675,0.097,1.531,0.056,1.593,0.825
			c0.173,2.133,0.181,4.28,0.197,6.422c0.005,0.632-0.032,1.32-1.051,1.24c-0.862-0.068-1.594-0.369-1.455-1.26
			c0.236-1.515-1.143-2.516-1.045-3.939c0.033-0.482-0.173-0.76-0.696-0.774c-0.492-0.014-0.781,0.167-0.779,0.688
			c0.006,1.248-0.841,2.278-0.953,3.456c-0.111,1.18-0.405,1.981-1.722,1.791C194.785,122.564,194.214,121.664,194.396,119.645z"/>
		<path style="fill-rule:evenodd;clip-rule:evenodd;fill:#7B491E;" d="M200.794,98.889c0.123,3.229-1.288,5.507-1.155,8.1
			c0.041,0.801-1.151,2.292-2.461,1.754c-1.094-0.448-2.064-1.411-1.503-3.057c0.738-2.16,0.291-4.415-0.054-6.581
			c-0.249-1.562-0.926-3.064,1.267-3.623c1.633-0.416,3.755,1.328,3.903,3.115C200.817,98.925,200.794,99.256,200.794,98.889z"/>
		<path style="fill-rule:evenodd;clip-rule:evenodd;fill:#7B491E;" d="M232.595,108.118c0.013,3.028-1.632,5.262-3.581,4.663
			c-3.058-0.939-6.251-1.526-9.117-3.038c-0.92-0.485-0.948-1.401-0.562-2.147c0.532-1.031,1.547-1.701,2.648-1.022
			c0.819,0.505,1.679,0.939,2.483,1.452c2.783,1.772,2.804,1.83,4.486-0.807c0.582-0.912,1.016-2.131,2.281-1.741
			C232.459,105.854,232.842,107.026,232.595,108.118z"/>
		<path style="fill-rule:evenodd;clip-rule:evenodd;fill:#7B491E;" d="M323.033,123.776c2.229-0.001,4.946,2.419,4.966,4.424
			c0.018,1.816-1.666,3.941-3.179,4.015c-2.502,0.12-5.251-2.67-5.269-5.348C319.535,124.31,320.135,123.778,323.033,123.776z"/>
		<path style="fill-rule:evenodd;clip-rule:evenodd;fill:#7B491E;" d="M337.409,146.606c1.107,3.183-0.304,5.451-2.633,7.435
			c-0.572,0.487-1.087,0.754-1.751,0.342c-2.848-1.765-3.786-7.76-0.998-9.602c0.736-0.486,1.048-0.684,1.83-0.07
			c1.068,0.839,1.997,2.083,3.614,1.958L337.409,146.606z"/>
		<path style="fill-rule:evenodd;clip-rule:evenodd;fill:#7B491E;" d="M192.836,99.438c-0.77,1.647-0.377,4.23-1.988,6.16
			c-0.761,0.912,0.154,1.11,0.487,1.482c0.584,0.652,0.728,1.21,0.14,1.931c-0.576,0.708-1.277,1.044-2.154,0.814
			c-0.891-0.234-1.019-0.966-0.947-1.754c0.331-3.594,0.156-7.156-0.443-10.722c-0.185-1.1,0.701-1.758,1.812-1.889
			c1.669-0.198,2.551,0.789,3.073,2.186C192.951,98.006,192.836,98.461,192.836,99.438z"/>
		<path style="fill-rule:evenodd;clip-rule:evenodd;fill:#7B491E;" d="M360.113,88.491c-1.448,0.191-2.445-0.878-2.631-1.805
			c-0.362-1.81-0.491-3.774,0.089-5.598c0.307-0.963,0.832-1.917,2.147-2.056c1.306-0.139,1.789,0.585,2.411,1.553
			c2.208,3.44,2.125,5.192-0.503,7.356C361.143,88.34,360.694,88.575,360.113,88.491z"/>
		<path style="fill-rule:evenodd;clip-rule:evenodd;fill:#7B491E;" d="M168.521,26.884c1.489-0.203,2.411,0.32,3.078,1.76
			c0.66,1.427,0.451,2.447-0.577,3.508c-0.635,0.655-1.224,1.376-1.717,2.143c-0.838,1.301-1.82,1.763-3.313,1.046
			c-1.731-0.832-1.883-2.377-1.284-3.714c0.558-1.244,1.11-2.414,1.367-3.777C166.334,26.479,167.622,26.995,168.521,26.884z"/>
		<path style="fill-rule:evenodd;clip-rule:evenodd;fill:#7B491E;" d="M358.263,91.027c0.81-0.182,1.186,0.305,1.558,0.728
			c1.127,1.283,2.066,2.818,1.779,4.484c-0.388,2.239-2.15,3.612-4.112,4.595c-0.677,0.339-1.203-0.088-1.607-0.716
			c-0.908-1.409-0.737-6.434,0.279-7.731C356.74,91.646,357.588,91.373,358.263,91.027z"/>
		<path style="fill-rule:evenodd;clip-rule:evenodd;fill:#7B491E;" d="M296.694,149.292c0.023-2.468,1.341-3.926,3.604-3.99
			c1.747-0.05,3.947,2.149,3.837,3.933c-0.149,2.394-1.872,3.766-3.843,3.812C298.243,153.094,296.676,151.323,296.694,149.292z"/>
		<path style="fill-rule:evenodd;clip-rule:evenodd;fill:#7B491E;" d="M309.614,124.292c-0.137-2.007,0.613-3.385,2.773-3.475
			c2.131-0.088,4.371,2.155,4.134,4.273c-0.179,1.595-0.27,3.558-2.644,3.645C311.558,128.82,309.617,126.762,309.614,124.292z"/>
		<path style="fill-rule:evenodd;clip-rule:evenodd;fill:#7B491E;" d="M298.683,157.331c-0.005,2.934-0.94,4.185-3.148,4.209
			c-2.348,0.026-3.843-1.67-3.809-4.32c0.027-2.116,1.122-3.122,3.409-3.133C297.622,154.075,298.687,155.048,298.683,157.331z"/>
		<path style="fill-rule:evenodd;clip-rule:evenodd;fill:#7B491E;" d="M337.472,146.668c0.258-1.046-0.959-1.387-1.063-2.355
			c-0.241-2.25,0.901-4.591,2.982-5.625c1.099-0.546,3.07,0.571,3.492,1.979c0.611,2.033-0.661,5.134-2.459,6.234
			c-1.133,0.694-1.97-0.659-3.015-0.296L337.472,146.668z"/>
		<path style="fill-rule:evenodd;clip-rule:evenodd;fill:#7B491E;" d="M232.106,85.903c0-0.412-0.088-0.848,0.016-1.232
			c0.456-1.696,1.504-2.891,3.295-3.082c0.912-0.097,2.677,3.129,2.072,4.172c-0.972,1.678-0.747,3.58-1.463,5.246
			c-0.224,0.52-0.231,1.341-1.062,1.447c-0.904,0.115-1.292-0.62-1.735-1.175C232.728,90.652,232.089,87.335,232.106,85.903z"/>
		<path style="fill-rule:evenodd;clip-rule:evenodd;fill:#7B491E;" d="M324.521,158.404c-0.026-2.227,1.493-4.692,2.95-4.785
			c1.971-0.126,3.464,1.081,3.51,2.837c0.064,2.474-1.798,5.512-3.419,5.579C325.763,162.11,324.548,160.659,324.521,158.404z"/>
		<path style="fill-rule:evenodd;clip-rule:evenodd;fill:#7B491E;" d="M338.899,68.882c-2.155,1.342-0.535,3.766-1.06,5.804
			c-0.334,1.295-1.992,2.037-2.791,1.512c-1.2-0.79-3.067-1.708-2.48-3.776c0.255-0.9,0.754-1.909,1.728-2.242
			c1.216-0.416,2.067-0.743,1.728-2.39c-0.208-1.014,0.847-1.238,1.736-1.14C338.854,66.77,338.982,67.559,338.899,68.882z"/>
		<path style="fill-rule:evenodd;clip-rule:evenodd;fill:#7B491E;" d="M271.994,133.101c-0.303,1.788-1.455,3.147-0.761,4.821
			c0.109,0.265-0.531,0.757-1.109,0.761c-0.574,0.005-1.119-0.322-1.131-0.762c-0.035-1.261-1.21-1.989-1.237-3.36
			c-0.021-1.053-0.675-2.297-1.81-3.081c-0.929-0.642-1.102-1.682-0.354-2.649c0.771-0.998,1.421-0.481,2.278,0.085
			C269.617,130.07,270.908,131.547,271.994,133.101z"/>
		<path style="fill-rule:evenodd;clip-rule:evenodd;fill:#7B491E;" d="M168.559,102.917c-1.686,2.362-0.413,5.959-3.19,7.941
			c-0.424,0.302-0.856,1.471-1.707,0.394c-0.471-0.596-1.39-1.029-0.601-1.983c0.644-0.778,0.605-1.732,0.435-2.574
			c-0.535-2.634,1.141-3.875,2.998-4.993C167.685,100.985,168.295,101.584,168.559,102.917z"/>
		<path style="fill-rule:evenodd;clip-rule:evenodd;fill:#7B491E;" d="M227.072,132.221c0.221-1.717,0.683-3.598,1.959-5.321
			c0.721-0.974,1.314-0.661,2.037-0.389c0.359,0.135,1.584,4.877,1.334,5.139c-1.078,1.129-2.013,2.644-3.346,3.225
			C226.695,135.904,227.255,133.782,227.072,132.221z"/>
		<path style="fill-rule:evenodd;clip-rule:evenodd;fill:#7B491E;" d="M328.497,97.973c-0.301-1.684,0.652-2.109,2.291-2.046
			c2.563,0.1,4.106,1.59,4.191,4.019c0.068,1.937-1.186,2.378-2.622,2.426C330.544,102.432,328.479,100.04,328.497,97.973z"/>
		<path style="fill-rule:evenodd;clip-rule:evenodd;fill:#7B491E;" d="M232.141,122.273c0.641-1.441,1.047-3.608,2.821-5.043
			c1.042-0.844,2.277-0.592,3.128,0.146c1.144,0.991,0.461,2.31-0.208,3.228c-0.853,1.172-2.239,1.861-2.556,3.546
			c-0.181,0.956-1.396,0.674-2.166,0.578C232.077,124.591,232.051,123.701,232.141,122.273z"/>
		<path style="fill-rule:evenodd;clip-rule:evenodd;fill:#7B491E;" d="M235.576,98.625c0,0.492,0.041,0.988-0.008,1.475
			c-0.131,1.3-0.251,2.623-1.986,2.808c-1.783,0.19-1.677-1.12-2.044-2.281c-0.354-1.12-0.221-2.254-0.482-3.319
			c-0.449-1.825,0.544-2.682,1.952-2.771c1.533-0.099,2.436,1.034,2.562,2.615C235.609,97.64,235.576,98.134,235.576,98.625z"/>
		<path style="fill-rule:evenodd;clip-rule:evenodd;fill:#7B491E;" d="M329.238,92.471c-1.604-0.001-3.259-1.931-3.206-3.914
			c0.053-1.935,1.286-2.578,3.074-2.556c1.914,0.023,3.13,0.968,3.312,2.811C332.594,90.566,330.772,92.473,329.238,92.471z"/>
		<path style="fill-rule:evenodd;clip-rule:evenodd;fill:#7B491E;" d="M193.838,52.329c0.193,1.823-0.473,2.996-2.7,2.891
			c-1.586-0.074-3.348-1.835-3.215-3.655c0.125-1.725,1.235-2.773,3.02-2.798C192.719,48.741,193.832,50.119,193.838,52.329z"/>
		<path style="fill-rule:evenodd;clip-rule:evenodd;fill:#7B491E;" d="M197.812,83.427c0.171,2.012-1.25,2.799-2.647,3.376
			c-0.794,0.328-3.246-2.727-3.306-3.923c-0.057-1.109,1.777-3.314,2.763-3.322C196.166,79.545,197.806,81.573,197.812,83.427z"/>
		<path style="fill-rule:evenodd;clip-rule:evenodd;fill:#7B491E;" d="M336.448,104.207c-0.31-1.596,0.991-2.041,2.152-2.237
			c1.55-0.262,3.921,2.309,3.634,4.109c-0.21,1.312-0.578,2.969-2.663,2.804C337.919,108.753,336.407,106.62,336.448,104.207z"/>
		<path style="fill-rule:evenodd;clip-rule:evenodd;fill:#7B491E;" d="M164.014,46.918c-0.349,1.127-0.612,2.677-2.481,2.799
			c-1.7,0.111-3.427-1.721-3.218-3.412c0.205-1.651,0.729-3.232,2.691-3.494C162.316,42.638,164.078,44.982,164.014,46.918z"/>
		<path style="fill-rule:evenodd;clip-rule:evenodd;fill:#7B491E;" d="M355.328,73.631c-0.067-1.345-0.098-2.918,2.037-3.002
			c1.466-0.058,2.868,2.109,2.949,4.182c0.068,1.737-0.73,2.927-2.323,3.186C356.384,78.257,355.327,76.434,355.328,73.631z"/>
		<path style="fill-rule:evenodd;clip-rule:evenodd;fill:#7B491E;" d="M349.194,108.372c-1.671,0.042-2.803-1.861-2.215-3.727
			c0.45-1.432,3.478-3.166,4.915-2.673c0.554,0.189,1.181,0.765,1.366,1.304C353.641,104.387,350.376,108.341,349.194,108.372z"/>
		<path style="fill-rule:evenodd;clip-rule:evenodd;fill:#7B491E;" d="M192.836,26.819c0.114,1.733-0.2,3.179-2.277,3.012
			c-1.823-0.147-3.23-0.844-3.217-3.129c0.012-1.957,0.71-2.821,2.74-2.838C192.284,23.844,193.043,24.863,192.836,26.819z"/>
		<path style="fill-rule:evenodd;clip-rule:evenodd;fill:#7B491E;" d="M333.961,80.009c0.105,1.556-0.504,2.708-2.088,2.979
			c-1.342,0.23-3.393-2.301-3.378-3.987c0.013-1.405,0.209-2.531,2.099-2.459C332.757,76.624,333.945,77.734,333.961,80.009z"/>
		<path style="fill-rule:evenodd;clip-rule:evenodd;fill:#7B491E;" d="M259.417,93.186c0.23,1.182-0.153,2.309-1.41,2.697
			c-1.474,0.455-2.215-0.61-2.741-1.827c-0.454-1.052-1.302-2.01-0.904-3.268c0.381-1.207,1.151-1.88,2.54-1.813
			c1.727,0.083,1.765,1.68,2.479,2.642C259.617,91.938,259.417,92.583,259.417,93.186z"/>
		<path style="fill-rule:evenodd;clip-rule:evenodd;fill:#7B491E;" d="M187.468,32.303c2.004,0.075,2.85,1.458,2.772,2.871
			c-0.068,1.247-0.332,3.05-2.342,3.126c-1.592,0.06-3.583-1.858-3.495-3.343C184.521,32.936,186.13,32.711,187.468,32.303z"/>
		<path style="fill-rule:evenodd;clip-rule:evenodd;fill:#7B491E;" d="M316.043,185.887c-1.222-0.251-2.647-0.501-2.473-2.582
			c0.124-1.481,1.866-3.536,3.231-3.325c1.25,0.193,2.622,0.699,2.714,2.291C319.615,184.012,317.849,185.886,316.043,185.887z"/>
		<path style="fill-rule:evenodd;clip-rule:evenodd;fill:#7B491E;" d="M181.211,67.132c-1.887,0.163-2.718-0.642-2.836-2.684
			c-0.122-2.109,1.172-3.065,2.672-3.016c1.462,0.047,2.802,1.136,2.869,3.049C183.981,66.373,183.145,67.236,181.211,67.132z"/>
		<path style="fill-rule:evenodd;clip-rule:evenodd;fill:#7B491E;" d="M163.189,115.211c-1.999,1.271-0.408,3.815-1.819,5.587
			c-0.492,0.617-0.805,1.136-1.66,0.979c-0.935-0.171-1.189-1.14-1.078-1.632c0.451-1.994,0.119-4.19,1.377-5.978
			c0.564-0.8,1.181-1.35,2.394-0.873C163.414,113.692,162.827,114.372,163.189,115.211z"/>
		<path style="fill-rule:evenodd;clip-rule:evenodd;fill:#7B491E;" d="M247.502,91.344c-0.036-2.475,1.057-3.81,3.024-3.859
			c1.33-0.033,1.992,0.375,1.968,1.827c-0.028,1.766-1.882,4.748-3.077,4.635C247.856,93.799,247.396,92.761,247.502,91.344z"/>
		<path style="fill-rule:evenodd;clip-rule:evenodd;fill:#7B491E;" d="M194.546,87.492c2.266-0.13,2.572,1.823,2.633,3.129
			c0.062,1.335-0.309,3.452-2.376,3.255c-1.817-0.173-2.419-1.792-2.473-3.569C192.281,88.685,192.704,87.555,194.546,87.492z"/>
		<path style="fill-rule:evenodd;clip-rule:evenodd;fill:#7B491E;" d="M351.04,65.143c1.511-0.034,3.32,1.771,3.294,3.284
			c-0.028,1.569-1.009,2.465-2.381,2.615c-1.461,0.16-3.035-1.96-3.082-3.797C348.839,66.006,349.698,65.173,351.04,65.143z"/>
		<path style="fill-rule:evenodd;clip-rule:evenodd;fill:#7B491E;" d="M188.089,61.667c-1.551-0.396-3.193-0.864-3.128-2.754
			c0.055-1.592,1.213-2.591,2.871-2.696c1.523-0.097,3.213,1.485,2.986,2.848C190.57,60.558,189.561,61.419,188.089,61.667z"/>
		<path style="fill-rule:evenodd;clip-rule:evenodd;fill:#7B491E;" d="M206.313,105.396c1.15-0.2,2.158,0.387,2.854,1.047
			c0.708,0.672,2.123,1.446,1.406,2.699c-0.746,1.304-2.199,0.896-3.298,0.416c-0.567-0.248-1.005-0.734-1.73-0.702
			c-1.062,0.048-2.242,0.205-2.268-1.443c-0.025-1.592,1.315-1.601,2.302-2.005C205.791,105.321,206.067,105.395,206.313,105.396z"
			/>
		<path style="fill-rule:evenodd;clip-rule:evenodd;fill:#7B491E;" d="M243.038,99.893c0-0.577-0.101-1.176,0.021-1.726
			c0.26-1.175,1.011-1.752,2.277-1.738c1.175,0.013,1.905,0.597,2.128,1.634c0.427,1.989-0.657,3.531-2.065,4.62
			C243.974,103.784,243.029,102.653,243.038,99.893z"/>
		<path style="fill-rule:evenodd;clip-rule:evenodd;fill:#7B491E;" d="M259.887,102.353c0.078,1.365,0.12,2.274-0.93,2.496
			c-0.931,0.197-1.549-0.089-2.116-1.104c-0.688-1.229-0.834-2.57-1.332-3.821c-0.43-1.08,0.308-1.935,1.228-2.388
			c0.951-0.467,1.597,0.347,1.987,1.004C259.504,99.853,259.721,101.376,259.887,102.353z"/>
		<path style="fill-rule:evenodd;clip-rule:evenodd;fill:#7B491E;" d="M191.901,131.324c-0.584-0.369-1.236-0.554-1.468-0.971
			c-0.712-1.281-0.279-5.634,1.55-6.615c1.192-0.639,2.32-0.374,2.252,0.842c-0.108,1.943-0.782,3.863-1.316,5.766
			C192.811,130.732,192.259,130.994,191.901,131.324z"/>
		<path style="fill-rule:evenodd;clip-rule:evenodd;fill:#7B491E;" d="M218.787,108.824c-0.675,0.827-0.648,2.193-1.977,2.003
			c-1.318-0.188-2.603-0.611-3.907-0.915c-0.787-0.183-1.45-0.751-1.58-1.387c-0.181-0.892,0.777-1.46,1.406-1.814
			c1.494-0.84,2.869-0.134,4.285,0.581C217.82,107.699,218.198,108.301,218.787,108.824z"/>
		<path style="fill-rule:evenodd;clip-rule:evenodd;fill:#7B491E;" d="M204.767,127.565c0.002,0.497-0.014,0.993,0.006,1.488
			c0.033,0.808-0.136,1.513-1.059,1.651c-0.919,0.139-1.257-0.493-1.536-1.253c-0.357-0.972-0.894-1.88-1.226-2.859
			c-0.476-1.405-0.232-2.794,1.289-3.236c1.681-0.487,2.104,1.055,2.489,2.236C204.926,126.19,204.765,126.904,204.767,127.565z"/>
		<path style="fill-rule:evenodd;clip-rule:evenodd;fill:#7B491E;" d="M164.149,41.302c-2.26,0.103-2.533-1.377-2.608-3.019
			c-0.073-1.589,0.608-2.48,2.277-2.457c1.896,0.026,2.521,1.453,2.617,2.881C166.528,40.096,165.986,41.476,164.149,41.302z"/>
		<path style="fill-rule:evenodd;clip-rule:evenodd;fill:#7B491E;" d="M346.895,66.295c-0.316,1.403-1.049,3.061-2.634,3.159
			c-1.306,0.08-2.454-1.311-2.297-2.855c0.142-1.399,0.669-3.148,2.229-3.249C345.603,63.259,346.819,64.369,346.895,66.295z"/>
		<path style="fill-rule:evenodd;clip-rule:evenodd;fill:#7B491E;" d="M314.085,145.571c0.179,1.655-1.047,2.603-1.926,3.694
			c-0.492,0.611-1.095,0.198-1.743,0.025c-1.419-0.377-1.041-1.815-1.053-2.368c-0.036-1.568,1.147-2.802,2.463-3.619
			C312.865,142.658,314.062,143.917,314.085,145.571z"/>
		<path style="fill-rule:evenodd;clip-rule:evenodd;fill:#7B491E;" d="M251.847,100.782c1.07,0.783,3.254-0.002,3.078,2.317
			c-0.121,1.62-1.23,2.426-2.812,2.264c-1.597-0.165-3.076-0.719-3.104-2.699C248.981,100.636,250.793,101.372,251.847,100.782z"/>
		<path style="fill-rule:evenodd;clip-rule:evenodd;fill:#7B491E;" d="M264.394,128.054c-0.152,0.366-0.396,0.953-0.641,1.539
			c-0.497-0.251-1.166-0.376-1.461-0.776c-1.2-1.632-3.863-0.942-4.751-3.125c-0.229-0.564-0.592-0.847,0.026-1.312
			c0.439-0.33,0.997-1.053,1.364-0.269c0.536,1.15,1.337,0.657,2.09,0.658C262.836,124.771,264.402,126.173,264.394,128.054z"/>
		<path style="fill-rule:evenodd;clip-rule:evenodd;fill:#7B491E;" d="M184.896,136.366c0.038-1.748,2.48-3.511,4.248-3.16
			c1.112,0.222,0.886,1.056,0.491,1.406c-1.012,0.899-1.219,1.955-1.396,3.212c-0.097,0.69-0.388,1.864-1.602,1.837
			c-1.105-0.023-1.094-0.884-1.348-1.688C185.123,137.439,184.867,136.948,184.896,136.366z"/>
		<path style="fill-rule:evenodd;clip-rule:evenodd;fill:#7B491E;" d="M321.539,184.757c-0.092-1.564,0.254-2.827,2.159-2.835
			c1.833-0.009,2.158,1.42,2.276,2.758c0.137,1.547-0.977,2.489-2.31,2.635C321.997,187.498,321.441,186.289,321.539,184.757z"/>
		<path style="fill-rule:evenodd;clip-rule:evenodd;fill:#7B491E;" d="M234.939,144.606c-0.902-0.36-2.229-0.838-3.503-1.427
			c-0.402-0.186-0.97-0.629-0.754-1.136c0.276-0.65,0.768-1.22,1.586-1.372c1.945-0.361,3.396,0.865,4.988,1.573
			c0.597,0.266,0.401,1.088,0.234,1.57C237.149,144.806,236.213,144.667,234.939,144.606z"/>
		<path style="fill-rule:evenodd;clip-rule:evenodd;fill:#7B491E;" d="M227.72,137.481c-0.482,1.272-0.882,2.556-1.464,3.749
			c-0.256,0.525-0.993,0.76-1.59,0.649c-1.01-0.188-1.569-1.095-1.448-1.928c0.225-1.546,0.52-3.129,2.289-3.935
			C227.225,135.235,227.481,136.178,227.72,137.481z"/>
		<path style="fill-rule:evenodd;clip-rule:evenodd;fill:#7B491E;" d="M195.7,138.186c0.965,0.257,2.267-0.502,3.324,0.486
			c0.35,0.327,0.876,0.635,0.695,1.183c-0.146,0.441-0.518,0.811-1.091,0.809c-1.887-0.006-3.783,0.097-5.658-0.061
			c-0.621-0.053-1.766-0.176-1.583-1.375c0.14-0.914,0.853-1.07,1.656-1.047C193.863,138.206,194.684,138.186,195.7,138.186z"/>
		<path style="fill-rule:evenodd;clip-rule:evenodd;fill:#7B491E;" d="M188.893,40.806c1.783-0.103,3.033,0.316,2.935,2.213
			c-0.073,1.401-0.841,2.184-2.358,2.27c-2.023,0.113-2.437-1.163-2.582-2.729C186.733,40.891,187.76,40.646,188.893,40.806z"/>
		<path style="fill-rule:evenodd;clip-rule:evenodd;fill:#7B491E;" d="M158.542,54.128c0.016-1.575,0.709-2.465,2.076-2.363
			c1.886,0.141,2.11,1.975,2.294,3.226c0.157,1.07-0.55,2.471-2.228,2.187C158.861,56.87,159.004,55.189,158.542,54.128z"/>
		<path style="fill-rule:evenodd;clip-rule:evenodd;fill:#7B491E;" d="M241.417,140.672c0.793-0.059,1.604,0.464,2.389-0.352
			c0.303-0.314,1.354-0.544,1.645,0.31c0.234,0.688,0.162,1.859-0.66,1.835c-1.7-0.051-3.02,1.013-4.593,1.17
			c-0.884,0.088-1.995,0.187-2.085-1.075c-0.08-1.131,0.718-1.753,1.824-1.879C240.425,140.626,240.923,140.672,241.417,140.672z"/>
		<path style="fill-rule:evenodd;clip-rule:evenodd;fill:#7B491E;" d="M313.582,151.849c-0.09-1.482,0.319-2.763,2.022-2.676
			c1.433,0.073,1.462,1.38,1.466,2.521c0.005,1.406-0.584,2.709-1.94,2.802C313.43,154.614,313.664,153.005,313.582,151.849z"/>
		<path style="fill-rule:evenodd;clip-rule:evenodd;fill:#7B491E;" d="M249.487,137.524c0.044,1.117,0.051,2.261-1.54,2.137
			c-1.704-0.133-2.027-1.313-1.942-2.767c0.056-0.954-0.198-2.092,1.262-2.164C248.381,134.674,249.503,136.143,249.487,137.524z"/>
		<path style="fill-rule:evenodd;clip-rule:evenodd;fill:#7B491E;" d="M202.288,135.917c0.001,1.335-0.05,2.366-1.173,2.175
			c-1.884-0.319-2.13-2.218-2.732-3.586c-0.422-0.958,0.938-1.617,1.466-1.49C201.485,133.405,202.034,134.861,202.288,135.917z"/>
		<path style="fill-rule:evenodd;clip-rule:evenodd;fill:#7B491E;" d="M177.972,68.242c-0.229,1.098-0.827,1.967-2.091,1.835
			c-1.316-0.138-2.305-1.037-2.344-2.337c-0.035-1.181,1.316-1.553,2.126-1.509C176.664,66.287,177.964,66.615,177.972,68.242z"/>
		<path style="fill-rule:evenodd;clip-rule:evenodd;fill:#7B491E;" d="M168.855,114.825c-0.605,0-1.112,0.071-1.591-0.016
			c-0.958-0.173-1.352-0.989-1.085-1.737c0.437-1.223,1.893-0.543,2.792-1.144c0.59-0.395,1.465,0.197,1.86,0.744
			c0.279,0.387,0.283,1.183,0.083,1.659C170.481,115.36,169.463,114.596,168.855,114.825z"/>
		<path style="fill-rule:evenodd;clip-rule:evenodd;fill:#7B491E;" d="M172.966,111.84c-1.116,0.34-1.866-0.422-1.887-1.409
			c-0.027-1.253,1.165-1.068,2.036-1.059c0.858,0.009,2.148-0.271,2.205,0.857C175.379,111.375,174.311,111.948,172.966,111.84z"/>
		<path style="fill-rule:evenodd;clip-rule:evenodd;fill:#7B491E;" d="M200.08,233.218c0.596,0.468,1.627,0.434,1.696,1.481
			c0.049,0.767-0.325,1.25-1.075,1.354c-1.085,0.151-1.361-0.723-1.597-1.468C198.859,233.808,199.646,233.599,200.08,233.218z"/>
		<path style="fill-rule:evenodd;clip-rule:evenodd;fill:#7B491E;" d="M338.924,93.066c0.049,0.589-0.132,0.975-0.815,0.883
			c-0.763-0.102-1.196-0.524-1.147-1.313c0.041-0.647,0.426-1.188,1.066-1.084C338.763,91.67,339.008,92.331,338.924,93.066z"/>
		<path style="fill-rule:evenodd;clip-rule:evenodd;fill:none;" d="M366.062,166.514c3.182,1.045,7.202,0.135,10.616,2.227
			c0.14,0.085,0.288,0.205,0.438,0.214c1.512,0.097,3.619-0.282,3.901,1.587c0.257,1.7-0.567,3.825-1.825,4.992
			c-4.046,3.754-4.22,9.048-5.96,13.709c-1.275,3.416-1.866,7.099-4.836,9.734c-1.981,1.758-2.483,4.428-3.078,6.871
			c-0.66,2.709-1.093,3.101-3.865,2.45c-3.303-0.773-6.595-1.596-10.038-1.559c-3.998,0.043-4.789-1.085-3.354-4.838
			c0.419-1.095,0.962-2.211,1.957-3.026c1.762-1.442,2.502-3.452,2.819-5.632c0.311-2.137,2.242-3.487,2.637-5.64
			c0.126-0.69,0.551-1.519,0.303-2.095c-1.084-2.513,0.163-4.947,0.082-7.419c-0.08-2.464,1.357-4.046,3.503-5.13
			c1.67-0.844,2.942-2.195,3.384-4.025C363.271,166.759,363.449,166.483,366.062,166.514z"/>
		<path style="fill-rule:evenodd;clip-rule:evenodd;fill:none;" d="M380.173,141.725c0,2.813-0.029,5.628,0.013,8.441
			c0.019,1.278-0.048,2.684-1.239,3.228c-1.275,0.58-2.869,0.04-3.842-0.769c-4.201-3.495-8.912-5.067-14.35-4.514
			c-0.819,0.084-1.654,0.003-2.482,0.014c-1.608,0.021-2.621-0.43-2.481-2.377c0.137-1.888,1.229-2.556,2.729-2.032
			c2.248,0.785,2.443-0.595,2.193-1.973c-0.23-1.273,0.207-1.747,1.125-2.422c3.188-2.346,6.319-4.76,9.229-7.473
			c1.116-1.041,2.788-1.668,4.314-2.049c3.012-0.753,4.79,0.838,4.792,3.979C380.174,136.428,380.173,139.077,380.173,141.725z"/>
	</g>
</g>
</svg>
