<?xml version="1.0" encoding="iso-8859-1"?>
<!-- Generator: Adobe Illustrator 16.0.0, SVG Export Plug-In . SVG Version: 6.00 Build 0)  -->
<!DOCTYPE svg PUBLIC "-//W3C//DTD SVG 1.1//EN" "http://www.w3.org/Graphics/SVG/1.1/DTD/svg11.dtd">
<svg version="1.1" id="Layer_1" xmlns="http://www.w3.org/2000/svg" xmlns:xlink="http://www.w3.org/1999/xlink" x="0px" y="0px"
	 width="401.506px" height="159.795px" viewBox="0 0 401.506 159.795" style="enable-background:new 0 0 401.506 159.795;"
	 xml:space="preserve">
<g>
	<g>
		<path style="fill:none;" d="M200.753,159.255c-66.096,0-132.192-0.007-198.288,0.04c-1.604,0.001-1.967-0.361-1.965-1.965
			c0.049-51.622,0.049-103.244,0-154.866C0.498,0.861,0.861,0.499,2.465,0.5c132.192,0.043,264.384,0.043,396.575,0
			c1.604-0.001,1.967,0.36,1.966,1.965c-0.049,51.622-0.049,103.244,0,154.865c0.001,1.604-0.36,1.967-1.966,1.966
			C332.945,159.249,266.849,159.255,200.753,159.255z M288.051,90.35c-0.686,2.387,0.348,4.168,2.03,5.706
			c0.876,0.801,1.767,0.659,2.466-0.195c0.609-0.744,0.066-3.987-0.581-4.767c-1.154-1.387-2.544-1.057-3.969-0.69
			c-0.256-0.864,0.618-1.453,0.406-2.451c-0.517-2.426-2.313-3.058-4.277-3.483c-0.444-0.097-0.922,0.281-0.807-0.538
			c0.212-1.502-0.26-2.847-0.808-4.224c-0.251-0.628-0.29-1.25-1.095-1.292c-0.764-0.041-1.373-0.008-1.989,0.784
			c-1.902,2.446-0.864,5.093-0.604,7.615c0.072,0.688,1.354,2.429,2.719,0.815c1.1-1.297,1.518-0.473,2.27,0.338
			C284.944,89.189,285.9,90.882,288.051,90.35z M162.186,142.097c2.531-0.464,4.799,0.95,7.277,1.049
			c0.942,0.037,1.887,1.543,2.664,2.513c0.118,0.147-0.667,1.026-1.045,1.56c-0.413,0.585-0.459,1.229-0.025,1.757
			c0.287,0.349,0.802,0.732,1.206,0.723c1.492-0.033,3.94-4.692,2.945-5.83c-1.467-1.679-1.454-3.537-1.414-5.509
			c0.068-3.306-0.467-6.661-1.079-9.786c-0.911-4.652-0.49-9.033,0.331-13.478c0.295-1.596,0.192-3.344,1.136-4.808
			c0.696-1.078,0.296-1.994-0.538-2.728c-1.671-1.47-3.342-2.965-5.015-4.408c-3.251-2.806-7.077-4.823-10.141-7.831
			c-1.084-1.064-1.846-2.4-3.181-3.268c-4.951-3.218-8.346-7.82-10.451-13.198c-0.855-2.185-1.608-1.383-2.62-0.715
			c-0.542,0.357-0.959,1.041-1.219,1.666c-0.757,1.814-1.785,3.301-3.846,3.725c-0.818,0.168-0.896,0.893-0.978,1.418
			c-0.582,3.766-2.821,6.715-4.959,9.61c-2.679,3.629-4.428,7.26-2.478,11.758c0.283,0.651-0.127,1.051-0.286,1.567
			c-0.842,2.742-2.085,5.395-0.609,8.399c0.553,1.126,0.329,2.598-0.348,3.874c-1.527,2.88-2.629,6.097-6.234,7.173
			c-0.243,0.073-0.43,0.365-0.62,0.576c-2.496,2.764-5.275,5.018-8.961,6.144c-4.171,1.275-4.879,3.033-3.288,6.978
			c0.687,1.702,3.622,3.975,4.952,3.521c3.144-1.074,6.566-0.11,9.664-1.491c0.632-0.282,1.562-0.089,2.301,0.097
			c1.734,0.436,3.479,0.885,5.008,1.884c1.041,0.679,2.062,0.649,3.117-0.012c1.527-0.957,3.21-1.328,5.006-1.171
			c3.338,0.293,6.772,0.071,9.92-0.604C153,142.259,157.65,143.078,162.186,142.097z M208.057,82.696
			c0.326-1.814-0.737-3.397-1.191-4.986c-0.398-1.396-0.263-2.863-0.887-4.221c-1.824-3.973-7.856-6.803-12.378-5.637
			c-3.567,0.92-6.99,0.925-10.334-0.962c-2.199-1.241-4.983-0.125-6.052,2.168c-1.034,2.218-1.727,4.703-3.191,6.587
			c-2.125,2.735-4.135,5.442-5.548,8.642c-0.914,2.068,0.075,7.948,2.156,9.031c1.309,0.682,1.693,1.998,1.843,3.207
			c0.813,6.574,3.743,11.452,10.159,14.025c2.181,0.876,4.502,1.061,6.678,1.986c1.593,0.678,2.241,1.281,2.078,3.014
			c-0.119,1.271,0.981,2.014,1.94,2.688c1.092,0.767,1.858,0.402,1.818-0.852c-0.055-1.693,0.85-1.902,2.144-1.764
			c1.679,0.178,3.201-0.221,4.503-1.284c4.425-3.612,6.332-8.415,6.682-14.001c0.143-2.282-0.54-4.493-0.426-6.74
			C208.238,89.959,207.428,86.33,208.057,82.696z M290.164,46.679c0-1.787,0.012-3.07-0.003-4.354
			c-0.018-1.572-1.398-2.271-2.39-2.199c-1.003,0.073-2.147,0.721-1.612,2.667c0.878,3.191,1.336,6.467,0.707,9.934
			c-0.491,2.715-1.277,5.815,1.042,8.36c0.213,0.233,0.176,0.862,0.036,1.223c-1.062,2.723,0.14,5.15,0.983,7.604
			c0.162,0.471,0.708,1.045,1.165,1.137c1.759,0.354,3.401,1.071,5.31,1.001c2.851-0.104,5.731-0.418,8.575,0.692
			c1.286,0.502,3.101,0.69,4.32,0.387c3.562-0.883,6.724,0.584,10.066,0.917c3.438,0.343,6.851,1.727,10.377,0.523
			c0.254-0.086,0.706-0.126,0.829,0.017c1.379,1.594,3.383,0.371,5.003,1.137c0.839,0.396,1.839-0.148,1.832-1.565
			c-0.006-1.191-0.657-1.909-1.389-2.603c-1.716-1.628-1.686-3.961-2.418-5.975c-0.133-0.364,0.242-1.235,1.23-1.349
			c1.426-0.164,2.961-0.38,4.188-1.052c1.959-1.073,3.978-1.922,6.134-2.312c3.509-0.635,6.379-2.108,8.337-5.205
			c1.263-1.995,2.67-3.928,4.437-5.493c4.654-4.122,4.329-9.326,3.095-14.574c-0.699-2.974-1.809-5.693-1.564-8.97
			c0.415-5.574-3.607-9.576-6.671-13.554c-1.544-2.005-5.026-2.506-7.809-3.058c-1.61-0.32-3.101-1.052-4.812-1.182
			c-0.703-0.053-2.093-0.159-2.739-0.973c-1.017-1.282-2.308-2.308-3.162-3.756c-0.924-1.563-3.161-2.166-4.759-1.359
			c-0.626,0.316-1.201,0.373-1.821,0.35c-2.368-0.087-4.296,1.202-5.545,2.797c-3.702,4.73-5.832,10.149-5.742,16.292
			c0.015,1.016,0.419,2.313-0.819,2.842c-1.177,0.501-1.254-0.989-1.812-1.502c-1.216-1.12-2.417-1.04-3.49-0.287
			c-1.217,0.854-0.964,2.006-0.006,3.09c0.492,0.557,0.663,1.418,1.191,1.918c0.837,0.791,1.513,2.289,3.151,1.032
			c0.46-0.352,1.147-0.023,1.719,0.437c1.502,1.208,3.117,2.274,4.662,3.431c1.379,1.033,3.11,0.763,3.398-0.703
			c0.227-1.155-0.744-2.075-1.494-2.765c-3.874-3.561-4.101-4.237-2.591-8.737c1.298-3.866,2.535-7.756,4.28-11.446
			c0.494-1.043,1.148-2.329,2.421-2.47c1.105-0.123,2.744-0.725,3.358,0.519c1.465,2.965,3.408,5.107,6.771,5.828
			c2.88,0.617,5.692,1.568,8.586,2.083c1.761,0.314,3.152,0.801,4.051,2.444c0.722,1.32,1.115,2.894,2.278,3.886
			c1.071,0.914,1.146,1.964,1.169,3.205c0.05,2.86-0.698,5.917,0.91,8.484c1.358,2.169,1.807,4.517,1.951,6.873
			c0.104,1.701-0.011,3.541-0.986,5.212c-1.915,3.282-4.499,6.054-6.686,9.124c-0.449,0.629-0.974,1.645-1.95,1.43
			c-1.66-0.366-2.982,0.677-4.39,1.059c-1.357,0.368-2.989,0.686-4.115,1.743c-0.363,0.341-0.546,0.848-1.114,0.591
			c-0.599-0.27-0.293-0.873-0.313-1.322c-0.072-1.632,0.252-3.372-0.207-4.878c-0.726-2.381-1.61-4.68-1.523-7.222
			c0.05-1.469,0.34-2.964,0.323-4.375c-0.038-3.357-2.349-6.235-2.499-9.641c-0.003-0.066-0.05-0.133-0.088-0.194
			c-0.604-0.982-1.062-2.209-2.641-1.461c-1.494,0.708-1.866,1.84-1.035,3.202c0.724,1.187,0.413,2.017-0.591,2.709
			c-1.18,0.813-1.618,1.855-1.635,3.309c-0.022,2.025,0.586,4.157-0.368,6.069c-1.729,3.468-2.432,7.043-2.231,10.94
			c0.123,2.404,0.696,4.807,0.136,7.286c-0.401,1.773-0.911,2.226-2.492,1.104c-2.18-1.547-4.495-2.256-7.211-2.089
			c-2.106,0.13-4.319,0.726-6.29,0.369c-5.201-0.941-10.461-1.023-15.674-1.651c-0.826-0.1-1.711-0.246-1.385-1.687
			c0.503-2.227,1.375-4.458,0.892-6.806C290.528,50.858,289.734,48.594,290.164,46.679z M71.986,75.087
			c-0.282-2.37,0.755-4.969-1.188-7.056c-3.168-3.404-3.72-7.842-4.814-12.072c-0.326-1.257-0.509-2.657-1.204-3.692
			c-1.629-2.424-3.339-4.826-5.902-6.444c-2.154-1.361-3.439-0.835-4.916,1.294c-2.021,2.913-2.698,6.482-4.801,9.277
			c-1.173,1.559-1.749,3.089-1.581,5.011c0.191,2.191-0.563,4.059-2.104,5.67c-1.818,1.901-3.008,4.031-1.748,6.768
			c0.082,0.177,0.01,0.423,0.021,0.636c0.231,4.522,1.716,8.834,2.245,13.32c0.171,1.451,1.996,2.733,3.27,2.411
			c1.817-0.459,2.83,0.812,4.255,1.027c0.468,0.07,0.998,0.513,1.359,0.385c3.156-1.115,6.28,0.344,9.414,0.04
			c1.042-0.101,1.741,0.11,2.367,1.208c0.925,1.622,2.672,1.596,3.405,0.024c1.723-3.691,2.685-7.656,2.235-11.693
			C72.071,79.149,72.184,77.119,71.986,75.087z M80.17,34.708c-0.847,0.063-1.764-0.063-2.527,0.223
			c-2.561,0.959-5.166,1.411-7.904,1.604c-4.25,0.301-5.442,2.656-5.002,5.464c0.5,3.188-0.815,6.505,0.811,9.614
			c0.606,1.158,0.557,2.645,1.025,3.76c1.291,3.071,1.684,6.599,5.583,8.358c1.957,0.883,3.875,1.869,5.944,2.211
			c4.999,0.826,10.099,0.849,15.078,2.02c1.947,0.458,4.584,1.035,5.844-1.131c1.333-2.292,1.85-4.922,1.444-7.793
			c-0.383-2.713-2.362-4.485-3.142-6.895c-0.738-2.28-1.178-4.747-2.372-6.763c-1.213-2.051-3.486-3.471-3.448-6.251
			c0.003-0.244-0.44-0.55-0.735-0.733C87.516,36.377,84.159,34.649,80.17,34.708z M88.214,84.389
			c-2.458,0.001-3.168,1.081-2.025,3.116c0.639,1.139,1.541,2.186,2.51,3.071c1.758,1.604,1.775,2.16-0.175,3.595
			c-2.416,1.777-4.893,3.447-6.328,6.279c-1.148,2.265-0.948,4.827,0.782,5.841c1.024,0.6,4.722-0.491,5.483-1.887
			c1.295-2.372,3.473-3.629,5.538-5.123c1.405-1.017,2.576-1.05,4.017-0.228c1.333,0.761,2.456,0.398,3.07-1.071
			c0.795-1.905,1.101-3.769-0.324-5.591c-0.928-1.188-1.308-2.406-1.103-4.13c0.258-2.165,1.606-3.969,1.55-6.202
			c-0.019-0.778-0.125-1.376-0.64-1.754c-0.51-0.375-1.222-0.378-1.753,0.146c-0.315,0.312-0.629,0.501-1.104,0.526
			c-2.259,0.124-3.383,1.764-3.831,3.591c-0.496,2.024-1.265,1.818-2.613,0.95C90.297,84.896,89.393,83.961,88.214,84.389z
			 M210.765,128.025c-3.791,0.002-4.347,1.071-3.421,3.938c0.472,1.459,0.95,3.025,1.104,4.609c0.135,1.387-0.218,2.418-1.334,3.532
			c-1.79,1.789-3.069,4.081-3.341,6.709c-0.15,1.456-0.467,2.853-0.848,4.255c-0.514,1.891,0.212,3.668,1.507,3.904
			c1.672,0.307,4.046-1.415,4.471-2.997c1.601-5.948,4.062-11.215,10.601-13.292c2.311-0.734,3.42-3.238,2.685-4.994
			c-0.667-1.595-1.916-1.477-3.165-1.364c-1.298,0.115-2.761,0.03-3.186-1.176C214.818,128.252,212.533,128.141,210.765,128.025z
			 M190.802,137.437c-3.062-0.045-5.314,3.277-4.171,6.065c0.539,1.315,1.545,2.484,1.298,4.077
			c-0.272,1.759,0.691,3.179,1.326,4.714c0.859,2.077,2.567,1.669,4.222,1.885c3.471,0.453,7.99-4.409,6.659-7.567
			c-0.548-1.302-0.365-2.116,0.171-3.196c1.189-2.394,0.592-4.127-1.977-4.62C195.833,138.315,193.087,139.213,190.802,137.437z
			 M369.735,47.346c-0.101,1.182,0.617,1.807,1.648,2.084c0.93,0.25,1.531-0.702,1.603-1.168c0.173-1.14,1.062-1.634,1.75-1.825
			c2.783-0.776,5.469-1.763,8.018-3.1c0.781-0.41,1.263,0.087,1.6,0.454c1.222,1.326,2.507,2.652,3.411,4.188
			c0.579,0.983,1.336,1.464,2.231,1.591c1.14,0.161,1.932,0.659,2.671,1.464c0.38,0.416,0.928,0.967,1.542,0.492
			c0.622-0.483,1.093-1.03,0.878-2.068c-0.216-1.044-0.807-1.809-1.563-2.124c-1.86-0.777-2.999-2.315-4.345-3.63
			c-2.921-2.852-2.665-4.165,1.072-5.924c0.181-0.085,0.465,0.024,0.623-0.078c0.833-0.535,1.496-1.28,0.995-2.282
			c-0.476-0.949-1.312-0.803-2.177-0.328c-1.624,0.89-3.394,1.543-4.819,2.75c-1.001,0.849-1.676,0.578-2.351-0.35
			c-0.817-1.122-1.607-2.27-2.503-3.327c-0.921-1.088-1.904-0.233-2.746,0.173c-0.813,0.393-0.992,1.327-0.529,2.024
			c0.646,0.974,1.41,1.974,2.361,2.604c0.683,0.451,0.833,1.073,1.234,1.608c-0.593,0.343-1.148,0.795-1.783,1.01
			c-2.541,0.858-4.886,2.138-7.209,3.424C370.589,45.428,369.608,46.092,369.735,47.346z M302.144,15.606
			c-0.339-0.298,0.493-1.131-0.579-1.398c-0.836-0.208-1.99-0.308-2.257,0.233c-0.652,1.325-2.342,1.861-2.483,3.539
			c-0.035,0.417-0.276,1.036-1.109,0.984c-1.514-0.093-1.857,0.877-1.706,2.191c0.205,1.777-0.568,2.924-2.137,3.818
			c-1.168,0.667-1.624,1.958-1.728,3.348c-0.074,0.991,0.312,1.708,1.13,2.077c0.786,0.354,1.384-0.144,2.044-0.67
			c1.91-1.522,2.973-3.646,4.259-5.611c0.607-0.926,0.92-1.542,1.806-0.125c0.493,0.789,1.145,1.954,2.434,1.765
			c1.198-0.174,1.986,0.516,2.799,1.121c1.146,0.854,2.26,0.614,2.648-0.675c0.747-2.484-0.462-4.15-3.101-4.273
			c-2.254-0.104-3.649-2.465-2.48-4.395C302.053,16.924,302.128,16.39,302.144,15.606z M18.936,114.856c0-0.569,0-1.138,0-1.706
			c-0.001-2.638-0.646-3.411-3.235-3.49c-1.251-0.038-2.23-0.405-3.284-1.088c-1.125-0.729-2.519-1.048-3.806-1.518
			c-1.228-0.448-1.974,0.253-2.624,1.154c-0.855,1.188,0.443,1.668,0.932,1.923c1.599,0.836,2.828,2.042,4.045,3.299
			c0.305,0.314,0.635,0.488,1.109,0.494c0.798,0.008,1.804-0.333,2.129,0.835c0.354,1.271-0.777,1.339-1.475,1.833
			c-0.901,0.638-2.21,1.591-1.288,2.684c0.804,0.953,1.301,2.98,3.584,1.977C17.676,120.087,18.936,118.362,18.936,114.856z
			 M299.542,112.429c0.241,1.232-0.286,2.513,0.342,3.74c0.302,0.589,0.473,1.223,1.288,1.144c0.671-0.065,0.792-0.575,1.013-1.148
			c0.586-1.521,0.873-3.041,0.838-4.68c-0.054-2.587-0.981-5.001-1.317-7.528c-0.142-1.07-0.98-2.086-1.877-1.945
			c-3.175,0.498-3.018-1.404-2.82-3.476c0.014-0.141,0.005-0.284,0.001-0.426c-0.036-1.237-0.838-1.631-1.908-1.828
			c-1.02-0.188-1.63,0.104-2.284,0.981c-0.81,1.088,0.056,1.461,0.521,2.049c0.301,0.38,0.727,0.651,0.685,1.244
			c-0.096,1.326,0.388,2.21,1.87,2.229c0.39,0.005,0.58,0.127,0.709,0.564c0.405,1.378,1.395,2.369,2.393,3.348
			c0.547,0.537,1.156,1.226,0.851,1.976C299.333,109.932,299.773,111.188,299.542,112.429z M354.812,124.038
			c-0.143-1.395-0.398-2.498-0.945-3.572c-0.807-1.585-2.24-2.01-3.516-1.307c-1.292,0.712-0.627,2.007-0.204,3.301
			c0.706,2.156,2.387,4.465,0.207,6.775c-0.566,0.601-0.267,1.357-0.278,2.037c-0.019,1.058,0.771,2.046,0.087,3.221
			c-0.175,0.299,0.322,1.391,1.072,1.616c0.711,0.214,1.054-0.264,1.438-0.892c0.979-1.601,1.662-3.24,0.969-5.078
			c-0.554-1.468-0.983-2.707,0.52-3.967C354.682,125.736,354.647,124.637,354.812,124.038z M301.442,122.059
			c0.062-1.64-0.691-2.88-2.182-2.927c-1.71-0.054-1.898,1.389-1.854,2.881c0.065,2.158-0.143,4.263-0.653,6.434
			c-0.437,1.854-1.944,2.998-2.212,4.824c-0.169,1.156-0.211,2.227,0.936,2.738c1.208,0.538,1.743-0.368,2.471-1.277
			c1.326-1.655,0.479-3.654,1.306-5.426C300.31,127.043,300.742,124.489,301.442,122.059z M264.562,132.303
			c0.408-1.628,0.433-4.103-0.148-5.234c-0.396-0.771-0.979-1.79-2.027-1.54c-0.846,0.201-1.639,0.899-1.712,1.917
			c-0.048,0.671,0.025,1.332,0.263,2.045c0.463,1.396,1.836,2.566,1.083,4.379c-0.192,0.465,0.422,1.635,1.631,1.203
			c1.636-0.586,2.849,0.055,3.809,1.383c0.791,1.097,1.738,0.754,2.059-0.191c0.571-1.69-0.04-4.1-2.602-3.967
			C266.147,132.337,265.374,132.303,264.562,132.303z M278.805,137.975c0.854,1.035,1.945,1.221,3.2,1.217
			c1.269-0.005,2.552,0.473,3.358,1.481c0.666,0.832,1.348,1.098,2.18,0.61c2.177-1.276,4.353-0.386,6.543-0.161
			c1.046,0.107,1.926-0.249,2.054-1.46c0.124-1.175-0.627-1.414-1.61-1.376c-0.851,0.032-1.704,0.018-2.555,0.004
			c-2.841-0.041-5.607-0.022-8.314-1.433C282.167,136.081,280.043,135.97,278.805,137.975z M317.991,120.246
			c-0.033,1.067-0.143,1.79,0.583,2.1c0.687,0.292,1.316,0.142,1.91-0.426c1.034-0.987,1.979-2.115,2.125-3.491
			c0.15-1.427,0.846-1.589,1.959-1.534c0.562,0.027,1.291,0.176,1.657-0.104c0.586-0.449,1.652-0.511,1.6-1.656
			c-0.038-0.85-0.576-1.311-1.199-1.591c-0.586-0.264-1.197,0.038-1.779,0.346c-0.916,0.482-1.771,1.238-2.917,0.141
			c-0.409-0.392-1.722-0.478-2.042,0.411C319.15,116.482,318.967,118.704,317.991,120.246z M347.491,117.431
			c-0.016-2.118-2.077-3.462-3.903-2.655c-1.196,0.527-2.398,1.212-3.691,0.396c-1.425-0.9-2.669,0.078-3.988,0.258
			c-0.853,0.115-0.835,0.764-0.831,1.425c0.004,0.738,0.251,1.297,1.045,1.31c1.56,0.026,3.191,0.252,4.66-0.124
			c1.585-0.404,2.847-0.347,4.075,0.705c0.533,0.457,1.09,0.64,1.825,0.307C347.523,118.669,347.521,118.021,347.491,117.431z
			 M279.064,92.123c-0.077-1.401,0.417-2.814-1.336-2.795c-1.076,0.012-2.621,0.328-2.435,1.612
			c0.284,1.966-0.896,2.994-1.995,3.938c-0.957,0.822-0.827,1.603-0.412,2.312c0.35,0.597,0.641,1.497,1.813,1.36
			c1.191-0.139,1.244-1.149,1.73-1.803c0.271-0.364-0.18-1.047,0.652-1.322C278.838,94.843,279.223,93.417,279.064,92.123z
			 M266.208,118.503c0-0.283-0.02-0.568,0.003-0.85c0.125-1.557-0.53-2.664-2.091-2.832c-1.02-0.109-2.555,2.324-2.127,3.432
			c0.548,1.417,0.449,2.684-0.128,4.018c-0.463,1.07,0.349,1.724,1.041,2.165c0.664,0.424,1.371,0.316,1.82-0.655
			C265.507,122.088,266.343,120.442,266.208,118.503z M264.097,108.706c-0.548,1.532,0.548,2.71,0.902,4.029
			c0.286,1.067,2.384,1.15,2.778,0.121c0.669-1.744,1.494-3.595,0.87-5.467c-0.289-0.869-0.049-2.228-1.64-2.543
			c-1.575-0.312-1.726,1.113-2.556,1.675C263.669,107.05,264.23,107.983,264.097,108.706z M345.758,145.815
			c0.091-0.567,0.036-1.249-0.599-1.394c-0.856-0.194-1.704-0.312-2.618,0.267c-1.771,1.116-1.202,3.369-2.499,4.65
			c-0.68,0.673-1.009,1.397-0.413,2.246c0.367,0.522,0.85,0.963,1.606,0.827c1.018-0.184,1.76-0.917,1.903-1.756
			c0.244-1.429,1.029-2.403,1.974-3.34C345.529,146.904,345.913,146.5,345.758,145.815z M325.761,147.753
			c-0.479,0.103-1.746-0.491-1.966,0.468c-0.205,0.9,0.304,1.989,1.447,2.498c1.237,0.55,2.161,1.596,3.638,1.888
			c0.779,0.153,1.391,0.963,2.006-0.103c0.557-0.965,0.671-2.013-0.135-2.905C329.513,148.226,327.968,147.514,325.761,147.753z
			 M290.604,31.732c-0.053-0.894-0.486-1.167-1.232-1.26c-2.392-0.297-5.108,2.495-4.764,4.947c0.121,0.857,2.137,2.55,2.417,2.105
			C288.248,35.579,289.866,33.863,290.604,31.732z M278.186,138.241c-0.033-2.403-2.479-4.322-5.242-4.255
			c-1.004,0.024-1.708,0.419-1.972,1.255c-0.285,0.905,0.485,1.444,1.204,1.744c1.412,0.589,2.831,1.08,3.887,2.319
			c0.313,0.368,1.156,0.548,1.661,0.424C278.378,139.568,278.158,138.791,278.186,138.241z M313.716,135.363
			c-0.29,1.266,0.985,2.094,0.879,3.384c-0.091,1.085,0.905,2.115,1.733,1.974c1.079-0.186,1.896-1.473,1.531-2.604
			c-0.292-0.905-0.249-1.534,0.065-2.358c0.362-0.949-0.378-1.533-0.989-2.15c-0.67-0.675-1.481-0.593-2.161-0.321
			C313.943,133.62,313.497,134.377,313.716,135.363z M320.965,146.892c0.549-1.266-0.525-2.344-0.921-3.556
			c-0.271-0.834-1.238-1.305-2.038-1.105c-0.553,0.138-1.564-0.006-1.689,0.831c-0.116,0.783-0.335,1.676,0.438,2.382
			c1.031,0.942,1.835,2.039,2.243,3.427c0.126,0.427,0.259,1.195,1.106,0.958c0.647-0.182,0.88-0.627,0.864-1.263
			C320.956,148.07,320.965,147.572,320.965,146.892z M315.388,128.323c0.021,0.318-0.043,1.055,0.145,1.721
			c0.265,0.944,1.149,1.435,2.002,1.507c0.383,0.033,1.106-0.735,1.21-1.236c0.295-1.431,0.495-2.917,0.443-4.371
			c-0.029-0.82-0.869-1.467-1.671-1.722c-0.911-0.291-0.995,0.728-1.47,1.159C315.212,126.139,315.449,127.044,315.388,128.323z
			 M349.057,136.516c-0.3,0.11-0.519,0.146-0.685,0.26c-1.938,1.321-2.038,3.652-2.926,5.54c-0.097,0.204,0.329,1.22,1.008,1.479
			c0.643,0.245,1.124-0.101,1.457-0.586c1.046-1.524,2.158-2.988,2.419-4.942C350.495,137.04,349.661,136.944,349.057,136.516z
			 M329.741,113.913c-1.107-0.098-1.548,0.422-1.512,1.508c0.042,1.275,1.995,3.64,3.12,3.406c0.675-0.14,1.676-0.497,1.617-1.713
			C332.887,115.491,331.361,113.896,329.741,113.913z M269.225,101.126c-0.216,1.202,0.102,2.189,1.349,2.478
			c1.59,0.367,1.591-0.876,1.738-1.926c0.026-0.19,0.217-0.353,0.301-0.542c0.426-0.961,0.984-2.05-0.068-2.838
			c-1.212-0.906-1.999,0.448-2.908,0.911C268.855,99.607,269.323,100.486,269.225,101.126z M368.279,19.792
			c-0.854-0.008-2.377,1.11-2.368,1.738c0.01,0.635,2.5,3.003,3.125,2.847c0.983-0.246,1.854-0.823,1.779-1.968
			C370.715,20.896,370.058,19.757,368.279,19.792z M338.492,149.927c-0.282-1.586-2.007-1.735-3.282-2.11
			c-0.937-0.275-1.423,1.066-1.338,1.749c0.236,1.882,2.011,1.907,3.379,2.148C338.098,151.865,338.542,151.106,338.492,149.927z
			 M313.568,142.023c0.112-0.543,0.354-1.097-0.168-1.537c-0.07-0.06-0.481,0.098-0.507,0.208
			C312.778,141.19,312.802,141.682,313.568,142.023z"/>
		<path style="fill-rule:evenodd;clip-rule:evenodd;fill:#7B491E;" d="M162.186,142.097c-4.536,0.98-9.187,0.162-13.808,1.153
			c-3.148,0.676-6.582,0.897-9.92,0.604c-1.795-0.157-3.479,0.214-5.006,1.171c-1.056,0.661-2.077,0.69-3.117,0.012
			c-1.529-0.999-3.274-1.448-5.008-1.884c-0.739-0.186-1.668-0.379-2.301-0.097c-3.098,1.381-6.52,0.417-9.664,1.491
			c-1.33,0.454-4.265-1.818-4.952-3.521c-1.591-3.944-0.883-5.702,3.288-6.978c3.686-1.126,6.465-3.38,8.961-6.144
			c0.19-0.211,0.377-0.503,0.62-0.576c3.605-1.076,4.708-4.293,6.234-7.173c0.676-1.276,0.901-2.748,0.348-3.874
			c-1.476-3.005-0.232-5.657,0.609-8.399c0.159-0.517,0.569-0.916,0.286-1.567c-1.95-4.498-0.201-8.129,2.478-11.758
			c2.139-2.896,4.378-5.845,4.959-9.61c0.081-0.525,0.16-1.25,0.978-1.418c2.061-0.424,3.088-1.911,3.846-3.725
			c0.26-0.625,0.677-1.308,1.219-1.666c1.012-0.668,1.765-1.47,2.62,0.715c2.104,5.378,5.5,9.98,10.451,13.198
			c1.334,0.867,2.097,2.203,3.181,3.268c3.064,3.008,6.889,5.025,10.141,7.831c1.673,1.443,3.344,2.938,5.015,4.408
			c0.834,0.733,1.234,1.649,0.538,2.728c-0.944,1.464-0.841,3.212-1.136,4.808c-0.821,4.444-1.241,8.825-0.331,13.478
			c0.612,3.125,1.147,6.48,1.079,9.786c-0.041,1.972-0.054,3.83,1.414,5.509c0.995,1.138-1.454,5.797-2.945,5.83
			c-0.404,0.01-0.919-0.374-1.206-0.723c-0.434-0.528-0.388-1.172,0.025-1.757c0.377-0.533,1.163-1.412,1.045-1.56
			c-0.777-0.97-1.722-2.476-2.664-2.513C166.985,143.047,164.717,141.633,162.186,142.097z"/>
		<path style="fill-rule:evenodd;clip-rule:evenodd;fill:#7B491E;" d="M208.057,82.696c-0.629,3.634,0.181,7.264-0.006,10.902
			c-0.114,2.247,0.568,4.458,0.426,6.74c-0.35,5.586-2.257,10.389-6.682,14.001c-1.303,1.063-2.824,1.462-4.503,1.284
			c-1.293-0.139-2.198,0.07-2.144,1.764c0.041,1.254-0.726,1.618-1.818,0.852c-0.959-0.674-2.06-1.417-1.94-2.688
			c0.163-1.732-0.485-2.336-2.078-3.014c-2.176-0.926-4.497-1.11-6.678-1.986c-6.417-2.573-9.346-7.451-10.159-14.025
			c-0.15-1.209-0.534-2.525-1.843-3.207c-2.081-1.083-3.07-6.963-2.156-9.031c1.413-3.2,3.422-5.907,5.548-8.642
			c1.464-1.885,2.157-4.369,3.191-6.587c1.068-2.294,3.853-3.409,6.052-2.168c3.344,1.887,6.767,1.882,10.334,0.962
			c4.522-1.167,10.554,1.664,12.378,5.637c0.624,1.358,0.488,2.826,0.887,4.221C207.32,79.299,208.383,80.881,208.057,82.696z"/>
		<path style="fill-rule:evenodd;clip-rule:evenodd;fill:#7B491E;" d="M290.164,46.679c-0.43,1.915,0.364,4.179,0.842,6.493
			c0.483,2.348-0.389,4.579-0.892,6.806c-0.326,1.441,0.559,1.587,1.385,1.687c5.213,0.627,10.473,0.709,15.674,1.651
			c1.971,0.357,4.184-0.239,6.29-0.369c2.716-0.167,5.031,0.542,7.211,2.089c1.581,1.122,2.091,0.669,2.492-1.104
			c0.561-2.479-0.013-4.881-0.136-7.286c-0.2-3.897,0.503-7.472,2.231-10.94c0.954-1.912,0.346-4.044,0.368-6.069
			c0.017-1.454,0.455-2.496,1.635-3.309c1.004-0.693,1.314-1.522,0.591-2.709c-0.831-1.362-0.459-2.494,1.035-3.202
			c1.578-0.749,2.036,0.479,2.641,1.461c0.038,0.061,0.085,0.127,0.088,0.194c0.15,3.406,2.461,6.284,2.499,9.641
			c0.017,1.411-0.273,2.906-0.323,4.375c-0.087,2.542,0.798,4.841,1.523,7.222c0.459,1.506,0.135,3.246,0.207,4.878
			c0.021,0.449-0.285,1.052,0.313,1.322c0.568,0.256,0.751-0.25,1.114-0.591c1.126-1.057,2.758-1.375,4.115-1.743
			c1.407-0.382,2.729-1.425,4.39-1.059c0.977,0.215,1.501-0.801,1.95-1.43c2.187-3.07,4.771-5.842,6.686-9.124
			c0.976-1.671,1.091-3.511,0.986-5.212c-0.145-2.355-0.593-4.704-1.951-6.873c-1.608-2.568-0.86-5.625-0.91-8.484
			c-0.022-1.24-0.098-2.291-1.169-3.205c-1.163-0.992-1.557-2.566-2.278-3.886c-0.898-1.644-2.29-2.13-4.051-2.444
			c-2.894-0.516-5.706-1.467-8.586-2.083c-3.363-0.721-5.307-2.863-6.771-5.828c-0.614-1.243-2.253-0.642-3.358-0.519
			c-1.272,0.141-1.927,1.427-2.421,2.47c-1.745,3.69-2.982,7.581-4.28,11.446c-1.51,4.5-1.283,5.177,2.591,8.737
			c0.75,0.689,1.721,1.609,1.494,2.765c-0.288,1.466-2.02,1.736-3.398,0.703c-1.545-1.157-3.16-2.222-4.662-3.431
			c-0.571-0.46-1.259-0.789-1.719-0.437c-1.639,1.257-2.314-0.242-3.151-1.032c-0.528-0.5-0.699-1.362-1.191-1.918
			c-0.958-1.084-1.211-2.237,0.006-3.09c1.073-0.753,2.274-0.833,3.49,0.287c0.558,0.513,0.635,2.003,1.812,1.502
			c1.238-0.528,0.834-1.826,0.819-2.842c-0.09-6.142,2.04-11.561,5.742-16.292c1.249-1.596,3.177-2.885,5.545-2.797
			c0.62,0.023,1.195-0.034,1.821-0.35c1.598-0.807,3.835-0.205,4.759,1.359c0.854,1.449,2.146,2.474,3.162,3.756
			c0.646,0.813,2.036,0.919,2.739,0.973c1.712,0.13,3.202,0.861,4.812,1.182c2.782,0.552,6.265,1.053,7.809,3.058
			c3.063,3.978,7.086,7.98,6.671,13.554c-0.244,3.277,0.865,5.997,1.564,8.97c1.234,5.249,1.56,10.452-3.095,14.574
			c-1.767,1.564-3.174,3.498-4.437,5.493c-1.958,3.096-4.828,4.569-8.337,5.205c-2.156,0.39-4.175,1.239-6.134,2.312
			c-1.227,0.672-2.762,0.889-4.188,1.052c-0.988,0.113-1.363,0.984-1.23,1.349c0.732,2.013,0.702,4.347,2.418,5.975
			c0.731,0.694,1.383,1.412,1.389,2.603c0.007,1.417-0.993,1.961-1.832,1.565c-1.62-0.766-3.624,0.457-5.003-1.137
			c-0.123-0.143-0.575-0.104-0.829-0.017c-3.526,1.204-6.939-0.18-10.377-0.523c-3.343-0.333-6.504-1.801-10.066-0.917
			c-1.22,0.303-3.034,0.115-4.32-0.387c-2.844-1.111-5.725-0.797-8.575-0.692c-1.908,0.07-3.551-0.647-5.31-1.001
			c-0.457-0.092-1.003-0.666-1.165-1.137c-0.844-2.455-2.045-4.882-0.983-7.604c0.14-0.36,0.177-0.989-0.036-1.223
			c-2.319-2.545-1.533-5.645-1.042-8.36c0.629-3.467,0.171-6.742-0.707-9.934c-0.535-1.946,0.609-2.594,1.612-2.667
			c0.991-0.072,2.372,0.627,2.39,2.199C290.175,43.608,290.164,44.892,290.164,46.679z"/>
		<path style="fill-rule:evenodd;clip-rule:evenodd;fill:#7B491E;" d="M71.986,75.087c0.198,2.032,0.085,4.062,0.313,6.114
			c0.45,4.037-0.513,8.002-2.235,11.693c-0.733,1.571-2.48,1.598-3.405-0.024c-0.626-1.098-1.325-1.309-2.367-1.208
			c-3.134,0.304-6.258-1.155-9.414-0.04c-0.361,0.128-0.891-0.314-1.359-0.385c-1.425-0.215-2.438-1.486-4.255-1.027
			c-1.274,0.322-3.099-0.96-3.27-2.411c-0.529-4.485-2.014-8.798-2.245-13.32c-0.011-0.213,0.061-0.459-0.021-0.636
			c-1.26-2.736-0.07-4.866,1.748-6.768c1.542-1.611,2.296-3.479,2.104-5.67c-0.168-1.922,0.408-3.452,1.581-5.011
			c2.103-2.794,2.781-6.364,4.801-9.277c1.477-2.129,2.762-2.655,4.916-1.294c2.563,1.618,4.273,4.02,5.902,6.444
			c0.695,1.035,0.878,2.436,1.204,3.692c1.095,4.23,1.646,8.668,4.814,12.072C72.741,70.118,71.705,72.718,71.986,75.087z"/>
		<path style="fill-rule:evenodd;clip-rule:evenodd;fill:#7B491E;" d="M80.17,34.708c3.989-0.059,7.346,1.669,10.599,3.688
			c0.295,0.183,0.739,0.489,0.735,0.733c-0.038,2.78,2.235,4.2,3.448,6.251c1.193,2.017,1.633,4.483,2.372,6.763
			c0.78,2.409,2.758,4.182,3.142,6.895c0.406,2.871-0.111,5.501-1.444,7.793c-1.26,2.166-3.897,1.589-5.844,1.131
			c-4.979-1.171-10.08-1.194-15.078-2.02c-2.069-0.342-3.988-1.328-5.944-2.211c-3.898-1.759-4.292-5.287-5.583-8.358
			c-0.469-1.115-0.419-2.602-1.025-3.76c-1.626-3.109-0.311-6.426-0.811-9.614c-0.44-2.808,0.752-5.163,5.002-5.464
			c2.738-0.194,5.344-0.646,7.904-1.604C78.407,34.645,79.324,34.771,80.17,34.708z M69.302,50.609
			c0.554,1.252,0.439,2.738,1.31,4.036c0.889,1.325,1.61,2.043,3.493,1.618c2.424-0.548,4.855-1.021,7.237-1.767
			c0.769-0.241,1.659,0.059,2.291-0.773c1.526-2.007,3.495-3.551,5.475-5.086c1.085-0.841,1.951-1.69-0.055-2.664
			c-0.909-0.441-1.512-1.487-2.303-2.203c-3.342-3.025-7.294-3.226-11.408-2.289C70.537,42.575,70.596,46.963,69.302,50.609z"/>
		<path style="fill-rule:evenodd;clip-rule:evenodd;fill:#7B491E;" d="M88.214,84.389c1.179-0.428,2.083,0.507,3.055,1.131
			c1.349,0.868,2.118,1.074,2.613-0.95c0.448-1.827,1.572-3.467,3.831-3.591c0.475-0.025,0.788-0.215,1.104-0.526
			c0.531-0.525,1.243-0.521,1.753-0.146c0.514,0.378,0.621,0.976,0.64,1.754c0.056,2.233-1.292,4.037-1.55,6.202
			c-0.205,1.724,0.175,2.941,1.103,4.13c1.425,1.822,1.119,3.686,0.324,5.591c-0.614,1.47-1.737,1.832-3.07,1.071
			c-1.441-0.822-2.612-0.789-4.017,0.228c-2.065,1.494-4.243,2.751-5.538,5.123c-0.762,1.396-4.459,2.486-5.483,1.887
			c-1.73-1.014-1.93-3.576-0.782-5.841c1.435-2.832,3.912-4.502,6.328-6.279c1.95-1.435,1.933-1.99,0.175-3.595
			c-0.969-0.886-1.871-1.933-2.51-3.071C85.046,85.47,85.756,84.39,88.214,84.389z"/>
		<path style="fill-rule:evenodd;clip-rule:evenodd;fill:#7B491E;" d="M210.765,128.025c1.768,0.116,4.053,0.228,5.072,3.125
			c0.425,1.206,1.888,1.291,3.186,1.176c1.249-0.112,2.498-0.23,3.165,1.364c0.735,1.756-0.374,4.26-2.685,4.994
			c-6.538,2.077-9,7.344-10.601,13.292c-0.425,1.582-2.799,3.304-4.471,2.997c-1.295-0.236-2.021-2.014-1.507-3.904
			c0.381-1.402,0.697-2.799,0.848-4.255c0.271-2.628,1.551-4.92,3.341-6.709c1.116-1.114,1.469-2.146,1.334-3.532
			c-0.153-1.584-0.632-3.15-1.104-4.609C206.418,129.096,206.974,128.027,210.765,128.025z"/>
		<path style="fill-rule:evenodd;clip-rule:evenodd;fill:#7B491E;" d="M190.802,137.437c2.285,1.776,5.031,0.878,7.529,1.357
			c2.568,0.493,3.166,2.227,1.977,4.62c-0.536,1.08-0.72,1.895-0.171,3.196c1.331,3.158-3.188,8.021-6.659,7.567
			c-1.654-0.216-3.363,0.192-4.222-1.885c-0.635-1.535-1.599-2.955-1.326-4.714c0.247-1.593-0.759-2.762-1.298-4.077
			C185.488,140.714,187.741,137.392,190.802,137.437z"/>
		<path style="fill-rule:evenodd;clip-rule:evenodd;fill:#7B491E;" d="M369.735,47.346c-0.127-1.254,0.854-1.918,1.612-2.337
			c2.323-1.287,4.668-2.566,7.209-3.424c0.635-0.215,1.19-0.667,1.783-1.01c-0.401-0.535-0.552-1.158-1.234-1.608
			c-0.951-0.629-1.716-1.63-2.361-2.604c-0.463-0.697-0.284-1.632,0.529-2.024c0.842-0.406,1.825-1.261,2.746-0.173
			c0.896,1.057,1.686,2.205,2.503,3.327c0.675,0.928,1.35,1.198,2.351,0.35c1.426-1.208,3.195-1.861,4.819-2.75
			c0.865-0.475,1.701-0.621,2.177,0.328c0.501,1.002-0.162,1.748-0.995,2.282c-0.158,0.102-0.442-0.008-0.623,0.078
			c-3.737,1.76-3.993,3.073-1.072,5.924c1.346,1.315,2.484,2.854,4.345,3.63c0.757,0.315,1.348,1.08,1.563,2.124
			c0.215,1.039-0.256,1.585-0.878,2.068c-0.614,0.476-1.162-0.076-1.542-0.492c-0.739-0.805-1.531-1.303-2.671-1.464
			c-0.896-0.127-1.652-0.608-2.231-1.591c-0.904-1.536-2.189-2.862-3.411-4.188c-0.337-0.367-0.818-0.864-1.6-0.454
			c-2.549,1.337-5.234,2.324-8.018,3.1c-0.688,0.191-1.577,0.685-1.75,1.825c-0.071,0.466-0.673,1.417-1.603,1.168
			C370.352,49.153,369.634,48.528,369.735,47.346z"/>
		<path style="fill-rule:evenodd;clip-rule:evenodd;fill:#7B491E;" d="M302.144,15.606c-0.016,0.783-0.091,1.318-0.461,1.928
			c-1.169,1.93,0.227,4.291,2.48,4.395c2.639,0.124,3.848,1.79,3.101,4.273c-0.389,1.289-1.502,1.529-2.648,0.675
			c-0.812-0.605-1.601-1.295-2.799-1.121c-1.289,0.188-1.94-0.976-2.434-1.765c-0.886-1.417-1.198-0.801-1.806,0.125
			c-1.286,1.964-2.349,4.089-4.259,5.611c-0.66,0.526-1.258,1.024-2.044,0.67c-0.818-0.369-1.204-1.086-1.13-2.077
			c0.104-1.39,0.56-2.681,1.728-3.348c1.568-0.894,2.342-2.041,2.137-3.818c-0.151-1.313,0.192-2.284,1.706-2.191
			c0.833,0.052,1.074-0.567,1.109-0.984c0.142-1.678,1.831-2.214,2.483-3.539c0.267-0.541,1.421-0.441,2.257-0.233
			C302.637,14.476,301.805,15.309,302.144,15.606z"/>
		<path style="fill-rule:evenodd;clip-rule:evenodd;fill:#7B491E;" d="M18.936,114.856c0,3.506-1.259,5.231-3.911,6.396
			c-2.283,1.004-2.781-1.023-3.584-1.977c-0.923-1.093,0.386-2.046,1.288-2.684c0.698-0.494,1.829-0.562,1.475-1.833
			c-0.325-1.168-1.331-0.827-2.129-0.835c-0.474-0.006-0.804-0.18-1.109-0.494c-1.218-1.257-2.447-2.463-4.045-3.299
			c-0.489-0.255-1.788-0.735-0.932-1.923c0.65-0.901,1.396-1.603,2.624-1.154c1.287,0.47,2.681,0.788,3.806,1.518
			c1.054,0.683,2.033,1.05,3.284,1.088c2.589,0.079,3.233,0.853,3.235,3.49C18.936,113.718,18.936,114.287,18.936,114.856z"/>
		<path style="fill-rule:evenodd;clip-rule:evenodd;fill:#7B491E;" d="M299.542,112.426c0.23-1.238-0.21-2.494,0.302-3.753
			c0.306-0.75-0.304-1.438-0.851-1.976c-0.998-0.979-1.987-1.97-2.393-3.348c-0.129-0.438-0.319-0.56-0.709-0.564
			c-1.482-0.02-1.966-0.903-1.87-2.229c0.042-0.593-0.384-0.864-0.685-1.244c-0.466-0.588-1.331-0.961-0.521-2.049
			c0.654-0.878,1.265-1.17,2.284-0.981c1.07,0.197,1.872,0.591,1.908,1.828c0.004,0.142,0.013,0.285-0.001,0.426
			c-0.197,2.071-0.354,3.974,2.82,3.476c0.896-0.141,1.735,0.875,1.877,1.945c0.336,2.527,1.264,4.941,1.317,7.528
			c0.035,1.639-0.252,3.159-0.838,4.68c-0.221,0.573-0.342,1.083-1.013,1.148c-0.815,0.079-0.986-0.555-1.288-1.144
			C299.255,114.942,299.783,113.662,299.542,112.426z"/>
		<path style="fill-rule:evenodd;clip-rule:evenodd;fill:#7B491E;" d="M288.051,90.35c-2.151,0.532-3.107-1.161-4.238-2.383
			c-0.752-0.811-1.17-1.635-2.27-0.338c-1.365,1.613-2.646-0.127-2.719-0.815c-0.261-2.521-1.299-5.169,0.604-7.615
			c0.616-0.792,1.226-0.825,1.989-0.784c0.805,0.042,0.844,0.664,1.095,1.292c0.548,1.377,1.02,2.722,0.808,4.224
			c-0.115,0.819,0.362,0.441,0.807,0.538c1.964,0.426,3.761,1.058,4.277,3.483c0.212,0.998-0.662,1.587-0.406,2.451L288.051,90.35z"
			/>
		<path style="fill-rule:evenodd;clip-rule:evenodd;fill:#7B491E;" d="M354.812,124.038c-0.165,0.6-0.13,1.698-0.65,2.135
			c-1.503,1.26-1.073,2.499-0.52,3.967c0.693,1.838,0.01,3.478-0.969,5.078c-0.385,0.628-0.728,1.105-1.438,0.892
			c-0.75-0.226-1.247-1.317-1.072-1.616c0.685-1.175-0.105-2.163-0.087-3.221c0.012-0.68-0.288-1.437,0.278-2.037
			c2.18-2.311,0.499-4.619-0.207-6.775c-0.423-1.294-1.088-2.589,0.204-3.301c1.275-0.703,2.709-0.278,3.516,1.307
			C354.414,121.54,354.669,122.643,354.812,124.038z"/>
		<path style="fill-rule:evenodd;clip-rule:evenodd;fill:#7B491E;" d="M301.442,122.059c-0.7,2.43-1.132,4.984-2.188,7.247
			c-0.826,1.771,0.021,3.771-1.306,5.426c-0.728,0.909-1.263,1.815-2.471,1.277c-1.146-0.512-1.104-1.582-0.936-2.738
			c0.268-1.826,1.775-2.971,2.212-4.824c0.511-2.171,0.719-4.275,0.653-6.434c-0.045-1.492,0.144-2.935,1.854-2.881
			C300.75,119.179,301.504,120.419,301.442,122.059z"/>
		<path style="fill-rule:evenodd;clip-rule:evenodd;fill:#7B491E;" d="M264.562,132.303c0.812,0,1.585,0.034,2.354-0.006
			c2.562-0.133,3.173,2.276,2.602,3.967c-0.32,0.945-1.268,1.288-2.059,0.191c-0.96-1.328-2.173-1.969-3.809-1.383
			c-1.209,0.432-1.823-0.738-1.631-1.203c0.753-1.812-0.62-2.982-1.083-4.379c-0.237-0.713-0.311-1.374-0.263-2.045
			c0.073-1.018,0.866-1.716,1.712-1.917c1.049-0.25,1.631,0.77,2.027,1.54C264.995,128.201,264.97,130.675,264.562,132.303z"/>
		<path style="fill-rule:evenodd;clip-rule:evenodd;fill:#7B491E;" d="M278.805,137.975c1.238-2.005,3.362-1.895,4.855-1.117
			c2.707,1.41,5.474,1.392,8.314,1.433c0.851,0.014,1.704,0.028,2.555-0.004c0.983-0.038,1.734,0.201,1.61,1.376
			c-0.128,1.211-1.008,1.567-2.054,1.46c-2.19-0.225-4.366-1.115-6.543,0.161c-0.832,0.487-1.514,0.222-2.18-0.61
			c-0.807-1.009-2.09-1.486-3.358-1.481C280.75,139.196,279.66,139.01,278.805,137.975z"/>
		<path style="fill-rule:evenodd;clip-rule:evenodd;fill:#7B491E;" d="M317.991,120.246c0.977-1.542,1.159-3.764,1.896-5.806
			c0.32-0.889,1.633-0.803,2.042-0.411c1.146,1.098,2.001,0.342,2.917-0.141c0.582-0.308,1.193-0.609,1.779-0.346
			c0.623,0.28,1.161,0.741,1.199,1.591c0.053,1.146-1.014,1.207-1.6,1.656c-0.366,0.28-1.095,0.132-1.657,0.104
			c-1.113-0.055-1.809,0.107-1.959,1.534c-0.146,1.376-1.091,2.504-2.125,3.491c-0.594,0.567-1.224,0.718-1.91,0.426
			C317.848,122.036,317.958,121.313,317.991,120.246z"/>
		<path style="fill-rule:evenodd;clip-rule:evenodd;fill:#7B491E;" d="M347.491,117.431c0.03,0.59,0.032,1.238-0.809,1.62
			c-0.735,0.333-1.292,0.15-1.825-0.307c-1.229-1.052-2.49-1.109-4.075-0.705c-1.469,0.376-3.101,0.15-4.66,0.124
			c-0.794-0.013-1.041-0.571-1.045-1.31c-0.004-0.661-0.021-1.31,0.831-1.425c1.319-0.18,2.563-1.158,3.988-0.258
			c1.293,0.816,2.495,0.132,3.691-0.396C345.414,113.969,347.475,115.313,347.491,117.431z"/>
		<path style="fill-rule:evenodd;clip-rule:evenodd;fill:#7B491E;" d="M279.064,92.123c0.159,1.295-0.226,2.721-1.981,3.302
			c-0.832,0.275-0.381,0.958-0.652,1.322c-0.486,0.653-0.539,1.664-1.73,1.803c-1.173,0.137-1.464-0.764-1.813-1.36
			c-0.415-0.709-0.545-1.489,0.412-2.312c1.099-0.943,2.279-1.972,1.995-3.938c-0.187-1.284,1.358-1.601,2.435-1.612
			C279.481,89.308,278.987,90.721,279.064,92.123z"/>
		<path style="fill-rule:evenodd;clip-rule:evenodd;fill:#7B491E;" d="M266.205,118.502c0.139,1.939-0.697,3.586-1.479,5.278
			c-0.449,0.972-1.156,1.079-1.82,0.655c-0.692-0.441-1.504-1.095-1.041-2.165c0.577-1.334,0.676-2.601,0.128-4.018
			c-0.428-1.107,1.107-3.541,2.127-3.432c1.561,0.168,2.216,1.275,2.091,2.832C266.188,117.935,266.208,118.22,266.205,118.502z"/>
		<path style="fill-rule:evenodd;clip-rule:evenodd;fill:#7B491E;" d="M264.097,108.706c0.133-0.723-0.428-1.655,0.355-2.185
			c0.83-0.562,0.98-1.987,2.556-1.675c1.591,0.315,1.351,1.674,1.64,2.543c0.624,1.872-0.201,3.723-0.87,5.467
			c-0.395,1.029-2.492,0.946-2.778-0.121C264.645,111.416,263.549,110.238,264.097,108.706z"/>
		<path style="fill-rule:evenodd;clip-rule:evenodd;fill:#7B491E;" d="M345.758,145.815c0.154,0.686-0.229,1.089-0.646,1.501
			c-0.944,0.937-1.729,1.911-1.974,3.34c-0.144,0.839-0.886,1.572-1.903,1.756c-0.757,0.136-1.239-0.305-1.606-0.827
			c-0.596-0.849-0.267-1.573,0.413-2.246c1.297-1.281,0.729-3.534,2.499-4.65c0.914-0.578,1.762-0.461,2.618-0.267
			C345.794,144.566,345.849,145.248,345.758,145.815z"/>
		<path style="fill-rule:evenodd;clip-rule:evenodd;fill:#7B491E;" d="M325.761,147.753c2.207-0.239,3.752,0.473,4.99,1.846
			c0.806,0.893,0.691,1.94,0.135,2.905c-0.615,1.065-1.227,0.256-2.006,0.103c-1.477-0.292-2.4-1.338-3.638-1.888
			c-1.144-0.509-1.652-1.598-1.447-2.498C324.015,147.262,325.282,147.856,325.761,147.753z"/>
		<path style="fill-rule:evenodd;clip-rule:evenodd;fill:#7B491E;" d="M290.604,31.732c-0.738,2.13-2.356,3.847-3.579,5.792
			c-0.28,0.445-2.296-1.249-2.417-2.105c-0.345-2.452,2.372-5.245,4.764-4.947C290.118,30.565,290.551,30.838,290.604,31.732z"/>
		<path style="fill-rule:evenodd;clip-rule:evenodd;fill:#7B491E;" d="M278.186,138.241c-0.028,0.55,0.192,1.327-0.462,1.487
			c-0.505,0.124-1.348-0.056-1.661-0.424c-1.056-1.239-2.475-1.73-3.887-2.319c-0.719-0.3-1.489-0.839-1.204-1.744
			c0.264-0.836,0.968-1.23,1.972-1.255C275.708,133.918,278.153,135.837,278.186,138.241z"/>
		<path style="fill-rule:evenodd;clip-rule:evenodd;fill:#7B491E;" d="M313.716,135.363c-0.22-0.985,0.227-1.743,1.059-2.076
			c0.68-0.271,1.491-0.354,2.161,0.321c0.611,0.617,1.352,1.201,0.989,2.15c-0.314,0.824-0.357,1.453-0.065,2.358
			c0.365,1.131-0.452,2.418-1.531,2.604c-0.828,0.142-1.824-0.889-1.733-1.974C314.702,137.457,313.426,136.628,313.716,135.363z"/>
		<path style="fill-rule:evenodd;clip-rule:evenodd;fill:#7B491E;" d="M287.998,90.404c1.425-0.366,2.814-0.696,3.969,0.69
			c0.647,0.779,1.19,4.022,0.581,4.767c-0.699,0.854-1.59,0.996-2.466,0.195c-1.683-1.538-2.716-3.319-2.03-5.706L287.998,90.404z"
			/>
		<path style="fill-rule:evenodd;clip-rule:evenodd;fill:#7B491E;" d="M320.965,146.892c0,0.68-0.01,1.178,0.003,1.674
			c0.016,0.636-0.217,1.081-0.864,1.263c-0.848,0.237-0.98-0.531-1.106-0.958c-0.408-1.388-1.212-2.484-2.243-3.427
			c-0.772-0.706-0.554-1.599-0.438-2.382c0.125-0.837,1.137-0.693,1.689-0.831c0.8-0.199,1.767,0.271,2.038,1.105
			C320.44,144.548,321.514,145.626,320.965,146.892z"/>
		<path style="fill-rule:evenodd;clip-rule:evenodd;fill:#7B491E;" d="M315.388,128.323c0.061-1.278-0.176-2.184,0.659-2.942
			c0.475-0.432,0.559-1.45,1.47-1.159c0.802,0.255,1.642,0.901,1.671,1.722c0.052,1.454-0.148,2.94-0.443,4.371
			c-0.104,0.501-0.827,1.27-1.21,1.236c-0.853-0.072-1.737-0.562-2.002-1.507C315.345,129.377,315.41,128.641,315.388,128.323z"/>
		<path style="fill-rule:evenodd;clip-rule:evenodd;fill:#7B491E;" d="M349.057,136.516c0.604,0.428,1.438,0.523,1.273,1.75
			c-0.261,1.954-1.373,3.418-2.419,4.942c-0.333,0.485-0.814,0.831-1.457,0.586c-0.679-0.259-1.104-1.274-1.008-1.479
			c0.888-1.888,0.987-4.219,2.926-5.54C348.539,136.663,348.757,136.626,349.057,136.516z"/>
		<path style="fill-rule:evenodd;clip-rule:evenodd;fill:#7B491E;" d="M329.739,113.911c1.622-0.015,3.148,1.58,3.228,3.203
			c0.059,1.216-0.942,1.573-1.617,1.713c-1.125,0.233-3.078-2.131-3.12-3.406C328.193,114.334,328.633,113.815,329.739,113.911z"/>
		<path style="fill-rule:evenodd;clip-rule:evenodd;fill:#7B491E;" d="M269.225,101.126c0.098-0.641-0.37-1.52,0.411-1.917
			c0.909-0.463,1.696-1.817,2.908-0.911c1.053,0.788,0.494,1.877,0.068,2.838c-0.084,0.189-0.274,0.352-0.301,0.542
			c-0.147,1.05-0.148,2.293-1.738,1.926C269.327,103.316,269.009,102.329,269.225,101.126z"/>
		<path style="fill-rule:evenodd;clip-rule:evenodd;fill:#7B491E;" d="M368.28,19.791c1.778-0.034,2.436,1.105,2.535,2.617
			c0.075,1.145-0.796,1.722-1.779,1.968c-0.625,0.156-3.115-2.212-3.125-2.847C365.902,20.902,367.425,19.784,368.28,19.791z"/>
		<path style="fill-rule:evenodd;clip-rule:evenodd;fill:#7B491E;" d="M338.492,149.927c0.05,1.179-0.394,1.938-1.241,1.787
			c-1.368-0.241-3.143-0.267-3.379-2.148c-0.085-0.683,0.401-2.024,1.338-1.749C336.485,148.192,338.209,148.341,338.492,149.927z"
			/>
		<path style="fill-rule:evenodd;clip-rule:evenodd;fill:#7B491E;" d="M313.568,142.023c-0.766-0.341-0.79-0.833-0.675-1.329
			c0.025-0.11,0.437-0.268,0.507-0.208C313.922,140.926,313.68,141.48,313.568,142.023z"/>
		<path style="fill-rule:evenodd;clip-rule:evenodd;fill:none;" d="M69.302,50.609c1.293-3.646,1.234-8.034,6.038-9.128
			c4.114-0.938,8.066-0.736,11.408,2.289c0.791,0.716,1.394,1.762,2.303,2.203c2.006,0.974,1.14,1.823,0.055,2.664
			c-1.98,1.535-3.948,3.08-5.475,5.086c-0.632,0.832-1.522,0.532-2.291,0.773c-2.381,0.746-4.812,1.219-7.237,1.767
			c-1.882,0.426-2.604-0.292-3.493-1.618C69.741,53.348,69.856,51.861,69.302,50.609z"/>
	</g>
</g>
</svg>
