<?xml version="1.0" encoding="iso-8859-1"?>
<!-- Generator: Adobe Illustrator 16.0.0, SVG Export Plug-In . SVG Version: 6.00 Build 0)  -->
<!DOCTYPE svg PUBLIC "-//W3C//DTD SVG 1.1//EN" "http://www.w3.org/Graphics/SVG/1.1/DTD/svg11.dtd">
<svg version="1.1" id="Layer_1" xmlns="http://www.w3.org/2000/svg" xmlns:xlink="http://www.w3.org/1999/xlink" x="0px" y="0px"
	 width="401.093px" height="132.908px" viewBox="0 0 401.093 132.908" style="enable-background:new 0 0 401.093 132.908;"
	 xml:space="preserve">
<g>
	<g>
		<path style="fill:none;" d="M0.55,110.466c0-36.024,0.012-72.048-0.04-108.073C0.507,0.884,0.741,0.5,2.35,0.5
			c132.089,0.05,264.177,0.05,396.266,0.001c1.656-0.001,1.979,0.354,1.978,1.987c-0.056,42.636-0.054,85.273-0.005,127.909
			c0.002,1.579-0.242,2.011-1.953,2.011c-132.089-0.054-264.177-0.053-396.266-0.006c-1.569,0.001-1.904-0.312-1.867-1.872
			c0.124-5.165,0.047-10.335,0.047-15.503c1.193,0.161,1.996,1.938,3.484,0.859c1.388-1.005,1.869-2.457,1.315-3.977
			C4.794,110.384,2.358,109.781,0.55,110.466z M143.756,89.924c-0.227-0.012-0.588,0.066-0.662-0.046
			c-2.016-3.075-2.242-3.104-4.351-0.268c-0.463,0.622-0.761,0.768-1.619,0.477c-1.701-0.577-3.038,0.596-3.677,1.897
			c-0.967,1.968,0.898,3.025,2.105,4.015c1.104,0.906,2.261,0.336,3.115-0.729c0.624-0.777,1.408-1.516,2.354-1.623
			c2.408-0.274,2.958-1.691,2.685-3.776c1.28,1.048,2.522,2.129,2.739,3.914c0.093,0.77,0.782,1.069,1.167,1.607
			c0.733,1.023,1.811,1.285,2.784,0.781c1.049-0.542,1.779-1.563,2.029-2.81c0.272-1.364-0.914-1.54-1.687-2.025
			c-0.368-0.231-0.808-0.351-1.22-0.508c-1.123-0.429-2.121-0.751-1.257-2.404c0.63-1.204-0.441-2.138-1.34-2.813
			c-0.936-0.703-1.66,0.191-2.386,0.614C142.946,87.153,143.221,88.522,143.756,89.924z M268.004,100.951
			c0.615,1.333,1.099,2.791,1.901,4.045c2.49,3.884,4.748,7.877,6.694,12.066c0.95,2.046,2.427,3.865,4.569,4.771
			c1.53,0.646,2.735,1.526,3.812,2.767c1.062,1.223,3.66,1.461,4.712,0.549c1.921-1.668,3.861-3.32,5.677-5.098
			c1.02-0.999,2.573-1.134,3.391-2.449c1.456-2.344,3.113-4.562,4.539-6.922c0.539-0.891,1.518-1.444,2.102-1.335
			c3.646,0.681,5.296-1.859,7.18-4.104c0.389-0.463,0.882-0.845,1.236-1.33c0.739-1.01,1.604-0.49,1.977,0.1
			c1.21,1.917,2.811,3.541,3.7,5.728c0.768,1.888,1.074,3.957,2.283,5.692c1.398,2.005,3.742,2.979,5.124,5.018
			c1.034,1.526,2.458,1.835,3.862,0.284c1.489-1.646,0.292-3.373-0.808-3.822c-2.618-1.069-2.399-3.692-3.687-5.435
			c-0.199-0.27-0.115-0.987,0.114-1.281c0.389-0.496,0.792,0.115,1.136,0.286c1.242,0.619,2.658,1.095,3.625,2.023
			c4.596,4.412,10.31,7.187,15.449,10.794c1.562,1.097,2.585,0.176,3.268-1.132c0.248-0.475,0.368-0.933,0.751-1.415
			c0.992-1.252,0.943-2.531-0.227-3.936c-2.401-2.881-5.688-5.017-7.353-8.494c-0.866-1.81-2.167-3.082-3.727-4.287
			c-5.018-3.88-10.576-7.035-15.073-11.63c-1.743-1.781-3.667-3.484-6.51-3.849c-4.122-0.528-7.661,0.19-10.272,3.565
			c-0.833,1.076-1.746,2.049-2.65,3.047c-2.077,2.293-4.495,4.262-6.123,6.981c-2.075,3.465-4.547,6.66-7.561,9.374
			c-0.587,0.529-0.721,1.738-1.623,1.618c-1.447-0.193-0.317-1.501-0.705-2.202c-0.142-0.256-0.281-0.536-0.493-0.728
			c-0.73-0.663-0.676-1.296-0.585-2.315c0.229-2.561,1.699-5.551-1.463-7.495c-1.385-0.851-2.883-1.436-4.467-1.788
			c-0.464-0.103-1.237,0.217-1.155-0.643c0.156-1.633-0.785-2.99-1.034-4.538c-0.307-1.901-0.301-4.436-2.178-5.346
			c-1.786-0.865-2.435-2.183-3.232-3.67c-0.819-1.527-3.611-1.993-4.865-0.735c-2.611,2.622-5.32,5.122-7.546,8.161
			c-1.338,1.827-2.459,4.676-5.799,4.105c-0.487-0.083-1.069,0.529-1.487,1.302c-0.865,1.597-0.705,3.736-2.327,4.872
			c-1.861,1.302-3.472,2.759-4.382,4.892c-0.789,1.846-1.789,1.926-2.953,0.299c-0.218-0.304-0.459-0.594-0.706-0.874
			c-2.784-3.159-5.444-6.416-9.667-7.875c-3.352-1.157-6.553-3.073-10.198-0.953c-0.255,0.147-0.759,0.04-1.067-0.11
			c-1.558-0.76-2.503-0.465-3.59,1.077c-1.102,1.565-2.168,3.183-3.359,4.682c-1.097,1.379-2.121,3.307-3.953,3.469
			c-3.414,0.302-6.4,1.448-9.337,3.099c-3.815,2.144-4.079,5.121-0.533,7.774c-1.058,0.492-2.115,0.998-3.184,1.479
			c-1.809,0.814-1.95,2.102-1.329,3.838c1.143,3.196,3.976,4.375,7.167,3.194c2.366-0.876,3.953-2.996,6.371-3.652
			c3.731-1.014,7.561-1.803,9.902-5.369c0.044-0.068,0.241-0.035,0.408-0.054c0.451,0.672,0.746,1.376,0.979,2.185
			c0.326,1.139,0.654,2.583,2.25,2.619c1.547,0.034,1.428-1.397,1.855-2.373c0.836-1.905,0.143-3.887,0.419-5.807
			c0.134-0.925,0.071-2.2,1.706-0.979c1.242,0.93,2.776,0.049,2.612-1.47c-0.084-0.772-0.121-1.597-0.313-2.378
			c-0.063-0.256-0.967-0.057-0.331-0.61c0.117-0.102,0.524-0.064,0.635,0.057c0.466,0.513,0.975,1.03,1.279,1.64
			c1.274,2.56,3.707,4.198,5.724,5.83c2.345,1.897,3.396,3.333,2.618,6.291c-0.187,0.708,0.312,2.331,1.485,3.01
			c1.24,0.717,2.048-0.318,2.908-0.816c1.623-0.941,2.279-2.581,2.636-4.34c0.411-2.021,1.505-4.146,3.378-4.262
			c3.609-0.223,5.922-2.597,8.57-4.297c1.621-1.041,4.104-2.098,3.949-4.595C263.914,103.651,264.968,101.734,268.004,100.951z
			 M53.001,26.571c0.006,2.525,2.23,3.65,4.736,2.092c1.384-0.861,1.753-0.639,1.618,0.745c-0.261,2.679,1.127,3.323,3.412,3.064
			c1.168-0.132,1.708,0.299,2.513,1.363c2.249,2.976,3.976,6.796,8.601,7.039c0.757,0.04,1.468,0.816,1.978,1.662
			c0.713,1.182,2.094,1.979,3.362,1.714c2.007-0.419,3.82-0.447,5.873-0.043c1.965,0.386,3.579-0.963,4.92-2.7
			c2.767-3.582,4.776-8.181,10.213-8.691c0.294-0.028,0.604-0.448,0.812-0.75c1.449-2.099,3.717-3.662,4.026-6.52
			c0.088-0.816,0.696-1.644,1.242-2.325c0.713-0.889,1.464-1.35,2.518-0.112c0.497,0.583,1.12,1.173,1.502,1.805
			c1.846,3.054,3.751,6.099,5.254,9.324c1.063,2.282,3.47,2.958,4.765,4.788c1.878,2.651,3.611,5.432,6.624,6.916
			c1.096,0.541,0.815,1.293,0.815,2.041c0,1.82,0.779,3.318,2.049,4.475c1.053,0.959,2.808,1.085,3.271-0.208
			c0.661-1.843,1.521-2.945,3.396-3.427c0.387-0.099,0.622-0.912,0.864-1.426c0.76-1.615,1.068-3.771,2.312-4.767
			c3.371-2.699,6.297-5.764,9.104-9c2.941-3.392,6.781-5.954,9.157-9.883c0.241-0.4,0.759-0.653,1.184-0.919
			c4.134-2.599,7.839-5.781,11.716-8.726c0.333-0.253,1.727-0.986,0.622-2.068c-0.787-0.771-1.542-1.547-2.701-0.662
			c-0.827,0.631-1.629,1.297-2.435,1.957c-1.076,0.881-2.203,1.521-3.374,0.225c-0.946-1.048-1.465-0.073-2.178,0.298
			c-2.873,1.495-4.762,4.745-8.577,4.642c-0.809-0.021-1.787,0.763-2.436,1.423c-1.34,1.363-2.945,2.494-4.392,3.617
			c-4.507,3.5-8.012,7.944-12.178,11.727c-0.76,0.69-1.479,2.602-3.244,1.4c-2.914-1.985-4.619-5.082-6.563-7.818
			c-2.351-3.309-3.783-7.268-6.587-10.33c-0.433-0.472-0.469-0.971-0.377-1.461c0.221-1.178-0.548-1.485-1.37-1.937
			c-0.783-0.431-1.829-0.091-2.348-0.519c-2.317-1.908-4.425-4.085-6.629-6.105c-2.146-1.967-2.415-2.696-5.415-1.673
			c-1.882,0.642-2.196,2.171-2.983,3.529c-1.633,2.819-3.876,5.229-5.196,8.29c-0.825,1.914-1.95,3.781-4.3,4.535
			c-1.005,0.322-1.76,1.276-1.958,2.674c-0.232,1.641-0.406,3.261-0.374,4.908c0.01,0.526-0.217,0.912-0.609,1.132
			c-0.628,0.355-0.682-0.26-0.888-0.622c-0.421-0.735-1.142-0.702-1.814-0.579c-3.042,0.556-4.234-0.354-4.466-3.341
			c-0.098-1.261-0.386-2.155-1.985-2.749c-2.139-0.794-4.546-1.188-6.169-3.411c-0.916-1.254-2.143-2.283-2.843-3.793
			c-0.389-0.838-1.638-2.161-1.902-2.034c-1.903,0.922-3.054-0.584-4.41-1.166c-3.308-1.417-6.506,1-9.765,0.12
			c-0.096-0.026-0.239,0.165-0.373,0.228c-3.607,1.695-6.916,3.876-10.233,6.069c-2.138,1.414-4.415,3.028-6.834,3.501
			c-2.98,0.583-5.388,1.606-7.319,3.882c-0.995,1.171-2.305,1.794-3.771,2.226c-1.267,0.373-2.957,0.605-3.616,1.513
			c-2.589,3.568-6.557,5.996-8.36,10.184c-0.142,0.33-0.302,0.708-0.569,0.918c-2.177,1.714-2.645,3.272-1.54,5.741
			c0.389,0.867,1.285,1.432,2.147,0.986c2.109-1.091,4.445-1.818,5.606-4.341c0.723-1.57,2.238-2.226,3.868-0.777
			c0.621,0.552,1.218,1.312,2.1,0.444c1.017-1,2.168-1.821,3.155-2.899c2.599-2.838,4.927-6.208,9.369-6.469
			c3.127-0.184,6.162-0.605,8.541-3.05c1.141-1.173,2.691-2.11,3.617-3.324c1.308-1.715,3.332-3.344,2.956-5.949
			c-0.268-1.86,0.305-2.594,2.001-2.043c0.9,0.293,1.699,0.54,2.579,0.183c0.522-0.211,1.003,0.134,1.122,0.379
			c0.176,0.36-0.475,0.61-0.693,0.805C53.502,23.627,52.896,24.923,53.001,26.571z M197.129,38.121
			c0.133,1.205,0.971,3.068,1.712,4.965c0.552,1.414,1.41,1.384,2.608,0.767c1.423-0.734,3.047-1.066,3.827-2.778
			c0.206-0.451,1.14-0.811,1.732-0.802c2.318,0.036,4.393-0.935,6.283-1.911c5.935-3.064,12.853-4.529,17.214-10.268
			c0.698-0.919,1.484-1.757,1.251-2.971c-0.396-2.057-2.395-1.915-3.789-2.542c-0.92-0.413-1.512,0.281-2.188,0.918
			c-1.308,1.233-1.204,3.427-2.556,4.3c-1.945,1.256-4.21,2.267-6.467,2.686c-1.164,0.217-2.633-1.02-3.918-1.689
			c-1.992-1.038-2.906-0.519-2.938,1.75c-0.009,0.608-0.016,1.216,0.001,1.823c0.024,0.899-0.313,1.441-1.293,1.474
			c-2.096,0.07-4.006,0.878-5.936,1.573c-0.824,0.297-1.581,0.408-2.368-0.006C197.817,34.101,197.129,34.499,197.129,38.121z
			 M358.588,68.814c0,0.606-0.012,1.213,0.002,1.82c0.036,1.566,3.395,3.996,4.509,3.025c2.392-2.085,4.832-0.564,6.622,0.145
			c3.858,1.53,7.607,1.886,11.647,1.619c2.144-0.141,2.756-1.064,2.755-2.883c-0.001-1.656-1.158-2.715-2.309-3.526
			c-1.174-0.829-1.833,0.231-2.496,1.17c-0.253,0.359-0.944,0.643-1.611,0.618c-1.714-0.061-3.425,0.069-5.106-0.488
			c-2.432-0.807-4.878-1.592-7.359-2.221c-1.162-0.295-2.544,0.28-3.457-0.964c-0.608-0.828-1.154-2.083-2.354-1.728
			c-1.496,0.444-0.619,1.938-0.839,2.957C358.561,68.504,358.588,68.662,358.588,68.814z M341.242,56.573
			c0.148-0.646-0.146-1.167-0.422-1.7c-1.395-2.68-1.548-2.74-3.885-0.952c-0.504,0.386-0.787,0.438-1.355,0.125
			c-0.601-0.332-1.26-0.167-1.89,0.27c-1.259,0.871-2.566,1.604-4.092,2.048c-1.33,0.388-1.851,2.998-0.976,4.207
			c0.723,1,1.854,1.472,2.823,0.521c2.282-2.24,5.257-2.181,8.058-2.561C340.899,58.34,341.42,57.892,341.242,56.573z
			 M99.979,95.373c-0.024-2.775-1.992-4.114-4.165-2.622c-1.566,1.075-2.458,1.733-3.237-0.71c-0.347-1.088-1.738-1.271-2.932-1.184
			c-1.315,0.098-1.627,1.164-1.875,2.105c-0.306,1.162-0.354,2.531,0.72,3.278c0.707,0.492,1.793,1.576,2.583,0.838
			c1.858-1.735,2.902-0.571,4.219,0.645c0.973,0.897,2.367,0.796,3.46,0.339C99.76,97.642,100.05,96.495,99.979,95.373z
			 M253.696,29.537c-0.669,1.572,1.135,2.878,0.882,4.527c-0.228,1.476,0.33,2.668,1.521,3.234c1.262,0.599,2.677,0.286,3.744-0.747
			c1.039-1.006,1.186-2.162,0.968-3.659c-0.486-3.33-3.388-4.347-5.433-6.164c-0.66-0.587-1.48-0.131-1.66,0.803
			C253.604,28.118,253.696,28.744,253.696,29.537z M271.565,46.484c0.228-0.525-0.237-1.39-0.754-2.078
			c-0.886-1.179-2.03-2.224-3.597-1.026c-2.33,1.779-1.948,7.408,0.609,8.883c0.857,0.494,2.376,0.679,2.501-0.369
			C270.529,50.171,271.399,48.654,271.565,46.484z M398.675,73.229c0.395-1.611-0.465-2.034-2.001-2.019
			c-1.205,0.013-2.526,0.67-3.48,0.352c-1.782-0.596-2.424,0.008-2.66,1.533c-0.271,1.758,1.331,4.307,2.526,3.865
			c1.467-0.542,3.077-0.418,4.438-1.194C398.432,75.234,398.954,74.458,398.675,73.229z M320.25,49.349
			c2.486,0.004,3.604-0.907,3.585-2.924c-0.015-1.497-3.25-4.13-5.102-3.856c-1.459,0.215-2.188,1.332-2.126,2.94
			C316.697,47.839,318.057,49.345,320.25,49.349z M345.816,48.835c0.037,2.704,1.104,3.379,4.747,3.265
			c1.169-0.036,2.387-0.107,2.901-1.241c0.623-1.369-0.188-2.599-0.976-3.685c-0.802-1.104-1.944-0.886-2.931-0.37
			c-0.679,0.354-1.327,0.279-1.974,0.242C346.147,46.963,345.654,47.634,345.816,48.835z M284.565,54.368
			c1.128,0.372,2.036-0.693,3.18-0.931c1.797-0.375,2.367-1.557,1.69-3.252c-0.479-1.199-1.069-2.143-2.601-2.235
			c-1.846-0.111-3.248,0.879-4.234,2.038C281.333,51.476,282.676,54.343,284.565,54.368z M302.488,42.372
			c0.01-2.564-1.201-3.893-3.504-3.848c-1.147,0.022-2.833,2.449-2.888,4.088c-0.056,1.665,0.36,3.018,2.306,3.066
			C301.479,45.754,302.479,44.888,302.488,42.372z M321.644,36.062c-0.071-0.956,0.193-2.159-0.485-3.281
			c-0.498-0.826-1.522-0.872-2.064-1.585c-0.613,0.71-1.724,1.107-1.544,2.318c0.097,0.652-0.221,1.147-0.465,1.684
			c-0.781,1.721,0.482,3.013,1.075,4.376c0.218,0.502,1.509,1.013,2.019,0.805c0.806-0.329,1.648-1.065,1.479-2.278
			C321.576,37.505,321.644,36.889,321.644,36.062z M127.794,101.214c0.274,3.183,1.042,3.997,3.505,3.778
			c1.66-0.147,2.587-1.622,2.431-3.865c-0.129-1.855-1.481-2.71-3.947-2.522C128.072,98.735,127.183,99.445,127.794,101.214z
			 M317.992,59.762c0.022,2.618,0.741,3.41,2.639,3.269c1.713-0.127,3.718-1.845,3.581-3.068c-0.086-0.771-3.487-4.363-4.125-4.193
			C317.75,56.391,318.503,58.579,317.992,59.762z M309.786,34.255c-0.372,1.419,0.646,2.129,1.91,2.247
			c1.651,0.155,3.578-2.081,3.563-3.845c-0.015-1.748-1.066-2.942-2.551-3.295C311.153,28.992,309.784,31.382,309.786,34.255z
			 M122.93,106.818c-2.65-0.015-3.413,1.175-3.372,4.598c0.021,1.681,0.983,2.222,2.313,2.429c1.398,0.218,1.982-0.916,2.174-1.921
			c0.178-0.931,0.347-1.873,0.587-2.791C125.048,107.544,124.734,106.587,122.93,106.818z M110.921,109.497
			c-1.071,0.095-1.69,0.821-1.996,1.471c-0.536,1.138-0.594,2.488,0.035,3.634c0.977,1.778,3.199,2.585,4.181,1.565
			c0.762-0.791,1.054-1.729,0.579-2.942C113.108,111.66,112.226,110.424,110.921,109.497z M54.1,95.872
			c-1.231,0.021-2.03,0.784-2.008,1.921c0.056,2.979,1.319,4.953,3.081,4.931c1.914-0.023,2.128-1.627,2.286-2.804
			C57.709,98.049,55.664,95.845,54.1,95.872z M45.753,93.682c-0.383-1.269-0.612-2.793-2.476-2.806
			c-1.594-0.011-3.103,1.814-3.047,3.504c0.045,1.351,1.748,3.019,3.057,2.827C45.22,96.926,45.498,95.351,45.753,93.682z
			 M61.211,109.625c-0.132,1.588,0.328,2.73,2.305,2.674c1.81-0.052,2.583-1.252,2.751-3.805c0.102-1.536-0.823-2.269-1.897-2.493
			C62.871,105.687,61.212,107.728,61.211,109.625z M15.801,105.004c-1.637-0.135-3.039,0.097-2.937,2.285
			c0.078,1.667,0.516,2.909,2.608,2.742c1.651-0.131,3.305-1.487,3.32-2.946C18.814,104.976,17.377,104.913,15.801,105.004z
			 M52.689,82.196c0.04,1.38,1.816,3.745,2.995,3.573c1.652-0.241,2.093-1.733,2.292-3.096c0.203-1.388-1.609-3.326-2.829-3.209
			C53.609,79.612,52.835,80.555,52.689,82.196z M240.016,20.057c-0.154,1.994,0.515,3.523,2.479,3.664
			c1.256,0.09,2.67-0.538,2.929-2.14c0.167-1.034-2.683-4.08-3.759-3.977C240.164,17.748,239.777,18.812,240.016,20.057z
			 M34.789,100.285c-0.088-1.516-0.819-2.274-2.186-2.108c-1.561,0.19-2.916,0.727-2.872,2.723c0.042,1.921,1.388,3.775,2.816,3.414
			C34.618,103.79,34.27,101.684,34.789,100.285z M79.459,100.624c-0.011-1.342-0.712-2.517-1.975-2.355
			c-1.498,0.191-3.387,1.177-3.294,2.723c0.068,1.138,0.328,3.313,2.377,3.507C78.017,104.635,79.474,102.554,79.459,100.624z
			 M54.374,111.923c-0.042-1.895-1.618-4.399-2.63-4.106c-1.437,0.416-2.479,1.682-2.304,3.158c0.146,1.235,0.361,3.19,2.192,3.009
			C52.654,113.883,54.903,114.168,54.374,111.923z M272.847,58.087c-0.035,1.715,1.496,3.685,2.696,3.541
			c1.497-0.178,2.367-1.111,2.312-2.71c-0.062-1.825-1.138-2.892-2.813-3.146C273.123,55.481,273.078,57.077,272.847,58.087z
			 M152.432,102.397c-0.003,2.269,0.971,3.598,2.557,3.356c1.313-0.2,2.124-1.052,2.027-2.604c-0.11-1.769-1.489-3.778-2.794-3.563
			C152.579,99.857,152.134,101.067,152.432,102.397z M107.703,105.886c-0.583-1.19-0.592-2.84-2.63-2.747
			c-1.6,0.074-2.584,0.779-2.78,2.306c-0.175,1.365,1.923,3.655,3.246,3.435C107.045,108.627,107.23,107.075,107.703,105.886z
			 M56.191,88.854c-0.008,1.474,0.976,2.861,2.42,2.911c1.437,0.051,2.312-0.822,2.544-2.042c0.3-1.576-1.524-3.468-3.104-3.416
			C56.787,86.349,56.167,87.082,56.191,88.854z M359.517,55.518c-0.067-0.64-0.036-1.13-0.239-1.658
			c-0.49-1.274-0.956-2.796-2.536-2.587c-1.525,0.202-0.983,1.985-1.259,3.008c-0.393,1.458,1.401,3.888,2.456,3.699
			C359.331,57.732,359.359,56.487,359.517,55.518z M161.565,118.176c-0.158,1.771,0.375,2.827,2.325,2.798
			c1.65-0.024,2.287-0.827,2.229-2.389c-0.051-1.371-1.742-3.249-2.971-3.068C161.604,115.745,161.425,116.948,161.565,118.176z
			 M162.477,108.303c0.025-1.907-0.788-2.805-2.657-2.88c-1.753-0.07-1.886,0.995-1.921,2.283c-0.043,1.55,0.561,2.694,2.188,2.711
			C161.393,110.43,162.644,109.972,162.477,108.303z M359.959,61.846c-0.349-0.867-0.58-2.444-2.248-2.408
			c-2.197,0.047-1.199,2.186-1.604,3.305c-0.257,0.709,0.61,2.208,1.837,2.035C359.128,64.609,360.02,63.68,359.959,61.846z
			 M31.867,78.418c-0.08-0.454-0.33-0.718-0.81-0.786c-0.493-0.069-0.959,0.095-1.098,0.521c-0.194,0.601,0.441,0.945,0.804,1.087
			C31.305,79.451,31.479,78.731,31.867,78.418z M230.413,116.241c0.03-0.304,0-0.619-0.323-0.705c-0.316-0.083-0.55,0.1-0.556,0.453
			c-0.007,0.341-0.097,0.763,0.419,0.815C230.343,116.844,230.381,116.527,230.413,116.241z"/>
		<path style="fill-rule:evenodd;clip-rule:evenodd;fill:#7B491E;" d="M0.55,110.466c1.808-0.686,4.244-0.082,4.799,1.443
			c0.553,1.52,0.072,2.972-1.315,3.977c-1.488,1.078-2.291-0.698-3.484-0.859C0.55,113.506,0.55,111.986,0.55,110.466z"/>
		<path style="fill-rule:evenodd;clip-rule:evenodd;fill:#7B491E;" d="M268.004,100.951c-3.036,0.783-4.091,2.7-3.898,5.791
			c0.154,2.497-2.328,3.554-3.949,4.595c-2.648,1.7-4.961,4.074-8.57,4.297c-1.873,0.116-2.967,2.24-3.378,4.262
			c-0.356,1.759-1.013,3.398-2.636,4.34c-0.86,0.498-1.668,1.533-2.908,0.816c-1.173-0.679-1.672-2.302-1.485-3.01
			c0.778-2.958-0.273-4.394-2.618-6.291c-2.017-1.632-4.449-3.271-5.724-5.83c-0.305-0.609-0.813-1.127-1.279-1.64
			c-0.11-0.121-0.518-0.158-0.635-0.057c-0.636,0.554,0.268,0.354,0.331,0.61c0.192,0.781,0.229,1.605,0.313,2.378
			c0.164,1.519-1.37,2.399-2.612,1.47c-1.635-1.222-1.572,0.054-1.706,0.979c-0.276,1.92,0.417,3.901-0.419,5.807
			c-0.428,0.976-0.309,2.407-1.855,2.373c-1.596-0.036-1.924-1.48-2.25-2.619c-0.232-0.809-0.527-1.513-0.979-2.185
			c-0.167,0.019-0.364-0.015-0.408,0.054c-2.342,3.566-6.171,4.355-9.902,5.369c-2.418,0.656-4.005,2.776-6.371,3.652
			c-3.191,1.181-6.024,0.002-7.167-3.194c-0.621-1.736-0.48-3.023,1.329-3.838c1.069-0.481,2.126-0.987,3.184-1.479
			c-3.546-2.653-3.282-5.631,0.533-7.774c2.937-1.65,5.923-2.797,9.337-3.099c1.832-0.162,2.856-2.09,3.953-3.469
			c1.191-1.499,2.258-3.116,3.359-4.682c1.087-1.542,2.032-1.837,3.59-1.077c0.309,0.15,0.812,0.258,1.067,0.11
			c3.646-2.12,6.847-0.204,10.198,0.953c4.223,1.459,6.883,4.716,9.667,7.875c0.247,0.28,0.488,0.57,0.706,0.874
			c1.164,1.627,2.164,1.547,2.953-0.299c0.91-2.133,2.521-3.59,4.382-4.892c1.622-1.136,1.462-3.275,2.327-4.872
			c0.418-0.772,1-1.385,1.487-1.302c3.34,0.57,4.461-2.278,5.799-4.105c2.226-3.039,4.935-5.539,7.546-8.161
			c1.254-1.258,4.046-0.792,4.865,0.735c0.798,1.487,1.446,2.805,3.232,3.67c1.877,0.91,1.871,3.444,2.178,5.346
			c0.249,1.548,1.19,2.905,1.034,4.538c-0.082,0.859,0.691,0.54,1.155,0.643c1.584,0.353,3.082,0.938,4.467,1.788
			c3.162,1.944,1.692,4.935,1.463,7.495c-0.091,1.02-0.146,1.652,0.585,2.315c0.212,0.191,0.352,0.472,0.493,0.728
			c0.388,0.701-0.742,2.009,0.705,2.202c0.902,0.12,1.036-1.089,1.623-1.618c3.014-2.714,5.485-5.909,7.561-9.374
			c1.628-2.72,4.046-4.688,6.123-6.981c0.904-0.998,1.817-1.971,2.65-3.047c2.611-3.375,6.15-4.094,10.272-3.565
			c2.843,0.364,4.767,2.067,6.51,3.849c4.497,4.595,10.056,7.75,15.073,11.63c1.56,1.205,2.86,2.478,3.727,4.287
			c1.664,3.478,4.951,5.613,7.353,8.494c1.17,1.404,1.219,2.684,0.227,3.936c-0.383,0.482-0.503,0.94-0.751,1.415
			c-0.683,1.308-1.705,2.229-3.268,1.132c-5.14-3.607-10.854-6.382-15.449-10.794c-0.967-0.929-2.383-1.404-3.625-2.023
			c-0.344-0.171-0.747-0.782-1.136-0.286c-0.229,0.294-0.313,1.012-0.114,1.281c1.287,1.742,1.068,4.365,3.687,5.435
			c1.1,0.449,2.297,2.176,0.808,3.822c-1.404,1.551-2.828,1.242-3.862-0.284c-1.382-2.039-3.726-3.013-5.124-5.018
			c-1.209-1.735-1.516-3.805-2.283-5.692c-0.89-2.187-2.49-3.811-3.7-5.728c-0.373-0.59-1.237-1.109-1.977-0.1
			c-0.354,0.485-0.848,0.867-1.236,1.33c-1.884,2.245-3.534,4.785-7.18,4.104c-0.584-0.109-1.562,0.444-2.102,1.335
			c-1.426,2.359-3.083,4.578-4.539,6.922c-0.817,1.315-2.371,1.45-3.391,2.449c-1.815,1.777-3.756,3.43-5.677,5.098
			c-1.052,0.912-3.649,0.674-4.712-0.549c-1.076-1.24-2.281-2.12-3.812-2.767c-2.143-0.906-3.619-2.726-4.569-4.771
			c-1.946-4.189-4.204-8.183-6.694-12.066C269.103,103.742,268.62,102.284,268.004,100.951z"/>
		<path style="fill-rule:evenodd;clip-rule:evenodd;fill:#7B491E;" d="M53.004,26.572c-0.107-1.649,0.498-2.945,1.743-4.054
			c0.218-0.195,0.869-0.445,0.693-0.805c-0.119-0.245-0.6-0.591-1.122-0.379c-0.879,0.357-1.679,0.11-2.579-0.183
			c-1.697-0.551-2.27,0.183-2.001,2.043c0.376,2.604-1.648,4.234-2.956,5.949c-0.926,1.214-2.477,2.151-3.617,3.324
			c-2.378,2.444-5.413,2.866-8.541,3.05c-4.442,0.261-6.77,3.631-9.369,6.469c-0.987,1.078-2.138,1.899-3.155,2.899
			c-0.881,0.867-1.479,0.108-2.1-0.444c-1.63-1.449-3.145-0.793-3.868,0.777c-1.161,2.523-3.497,3.25-5.606,4.341
			c-0.862,0.446-1.758-0.119-2.147-0.986c-1.105-2.468-0.637-4.026,1.54-5.741c0.267-0.21,0.427-0.589,0.569-0.918
			c1.804-4.188,5.771-6.616,8.36-10.184c0.659-0.907,2.349-1.14,3.616-1.513c1.466-0.432,2.776-1.055,3.771-2.226
			c1.931-2.275,4.339-3.299,7.319-3.882c2.42-0.473,4.696-2.087,6.834-3.501c3.318-2.193,6.626-4.375,10.233-6.069
			c0.134-0.063,0.277-0.254,0.373-0.228c3.259,0.879,6.457-1.537,9.765-0.12c1.356,0.582,2.507,2.088,4.41,1.166
			c0.265-0.127,1.513,1.195,1.902,2.034c0.7,1.51,1.927,2.54,2.843,3.793c1.623,2.223,4.03,2.617,6.169,3.411
			c1.599,0.594,1.887,1.488,1.985,2.749c0.232,2.987,1.424,3.897,4.466,3.341c0.672-0.123,1.393-0.156,1.814,0.579
			c0.207,0.362,0.26,0.977,0.888,0.622c0.392-0.221,0.619-0.606,0.609-1.132c-0.032-1.646,0.142-3.267,0.374-4.908
			c0.198-1.398,0.953-2.352,1.958-2.674c2.35-0.754,3.475-2.622,4.3-4.535c1.319-3.061,3.562-5.471,5.196-8.29
			c0.787-1.358,1.101-2.888,2.983-3.529c3-1.023,3.268-0.294,5.415,1.673c2.205,2.02,4.312,4.197,6.629,6.105
			c0.519,0.427,1.564,0.087,2.348,0.519c0.821,0.452,1.591,0.759,1.37,1.937c-0.092,0.49-0.056,0.989,0.377,1.461
			c2.804,3.062,4.236,7.021,6.587,10.33c1.944,2.736,3.649,5.833,6.563,7.818c1.765,1.202,2.484-0.71,3.244-1.4
			c4.167-3.783,7.671-8.226,12.178-11.727c1.446-1.123,3.051-2.254,4.392-3.617c0.649-0.66,1.627-1.444,2.436-1.423
			c3.814,0.104,5.704-3.146,8.577-4.642c0.712-0.371,1.232-1.346,2.178-0.298c1.17,1.297,2.298,0.657,3.374-0.225
			c0.806-0.66,1.607-1.325,2.435-1.957c1.16-0.885,1.914-0.109,2.701,0.662c1.105,1.083-0.288,1.815-0.622,2.068
			c-3.876,2.944-7.582,6.126-11.716,8.726c-0.424,0.267-0.942,0.519-1.184,0.919c-2.376,3.929-6.215,6.491-9.157,9.883
			c-2.807,3.236-5.732,6.302-9.104,9c-1.244,0.996-1.552,3.152-2.312,4.767c-0.242,0.514-0.478,1.327-0.864,1.426
			c-1.875,0.482-2.735,1.584-3.396,3.427c-0.463,1.292-2.219,1.167-3.271,0.208c-1.271-1.157-2.05-2.655-2.049-4.475
			c0-0.748,0.281-1.5-0.815-2.041c-3.012-1.484-4.746-4.265-6.624-6.916c-1.295-1.829-3.702-2.505-4.765-4.788
			c-1.503-3.226-3.408-6.27-5.254-9.324c-0.382-0.632-1.006-1.222-1.502-1.805c-1.054-1.238-1.804-0.776-2.518,0.112
			c-0.546,0.681-1.154,1.509-1.242,2.325c-0.31,2.858-2.578,4.42-4.026,6.52c-0.208,0.302-0.518,0.722-0.812,0.75
			c-5.437,0.51-7.447,5.109-10.213,8.691c-1.341,1.736-2.956,3.086-4.92,2.7c-2.053-0.404-3.866-0.375-5.873,0.043
			c-1.269,0.265-2.649-0.532-3.362-1.714c-0.51-0.845-1.221-1.622-1.978-1.662c-4.625-0.243-6.352-4.063-8.601-7.039
			c-0.804-1.064-1.345-1.495-2.513-1.363c-2.285,0.258-3.673-0.386-3.412-3.064c0.135-1.384-0.234-1.606-1.618-0.745
			C55.231,30.222,53.008,29.096,53.004,26.572z"/>
		<path style="fill-rule:evenodd;clip-rule:evenodd;fill:#7B491E;" d="M197.129,38.121c0-3.622,0.688-4.02,3.177-2.71
			c0.787,0.414,1.543,0.303,2.368,0.006c1.93-0.694,3.84-1.502,5.936-1.573c0.979-0.033,1.317-0.574,1.293-1.474
			c-0.017-0.607-0.01-1.215-0.001-1.823c0.032-2.269,0.946-2.788,2.938-1.75c1.285,0.669,2.754,1.906,3.918,1.689
			c2.257-0.419,4.521-1.43,6.467-2.686c1.352-0.874,1.248-3.067,2.556-4.3c0.676-0.637,1.268-1.331,2.188-0.918
			c1.395,0.626,3.394,0.485,3.789,2.542c0.233,1.214-0.553,2.052-1.251,2.971c-4.361,5.739-11.279,7.203-17.214,10.268
			c-1.891,0.976-3.965,1.946-6.283,1.911c-0.593-0.009-1.526,0.351-1.732,0.802c-0.78,1.711-2.404,2.044-3.827,2.778
			c-1.198,0.617-2.056,0.647-2.608-0.767C198.1,41.189,197.262,39.326,197.129,38.121z"/>
		<path style="fill-rule:evenodd;clip-rule:evenodd;fill:#7B491E;" d="M358.588,68.814c0-0.152-0.027-0.31,0.004-0.455
			c0.22-1.02-0.657-2.513,0.839-2.957c1.199-0.355,1.745,0.899,2.354,1.728c0.913,1.244,2.295,0.669,3.457,0.964
			c2.481,0.629,4.928,1.414,7.359,2.221c1.682,0.558,3.393,0.428,5.106,0.488c0.667,0.024,1.358-0.259,1.611-0.618
			c0.663-0.938,1.322-1.999,2.496-1.17c1.15,0.812,2.308,1.87,2.309,3.526c0.001,1.818-0.611,2.742-2.755,2.883
			c-4.04,0.267-7.789-0.089-11.647-1.619c-1.79-0.709-4.23-2.229-6.622-0.145c-1.114,0.971-4.473-1.459-4.509-3.025
			C358.577,70.027,358.588,69.42,358.588,68.814z"/>
		<path style="fill-rule:evenodd;clip-rule:evenodd;fill:#7B491E;" d="M341.242,56.573c0.179,1.319-0.343,1.768-1.738,1.958
			c-2.801,0.38-5.775,0.321-8.058,2.561c-0.97,0.951-2.101,0.479-2.823-0.521c-0.875-1.209-0.354-3.819,0.976-4.207
			c1.525-0.444,2.833-1.177,4.092-2.048c0.63-0.437,1.289-0.602,1.89-0.27c0.568,0.313,0.852,0.26,1.355-0.125
			c2.337-1.789,2.49-1.729,3.885,0.952C341.096,55.405,341.39,55.927,341.242,56.573z"/>
		<path style="fill-rule:evenodd;clip-rule:evenodd;fill:#7B491E;" d="M99.978,95.372c0.072,1.123-0.218,2.271-1.225,2.69
			c-1.093,0.457-2.487,0.559-3.46-0.339c-1.316-1.216-2.36-2.38-4.219-0.645c-0.791,0.738-1.876-0.346-2.583-0.838
			c-1.073-0.747-1.026-2.116-0.72-3.278c0.248-0.941,0.56-2.008,1.875-2.105c1.194-0.088,2.585,0.096,2.932,1.184
			c0.779,2.443,1.671,1.785,3.237,0.71C97.988,91.258,99.956,92.597,99.978,95.372z"/>
		<path style="fill-rule:evenodd;clip-rule:evenodd;fill:#7B491E;" d="M253.696,29.537c0-0.793-0.092-1.419,0.021-2.005
			c0.18-0.935,1-1.39,1.66-0.803c2.045,1.816,4.946,2.834,5.433,6.164c0.218,1.497,0.071,2.652-0.968,3.659
			c-1.067,1.033-2.482,1.346-3.744,0.747c-1.19-0.566-1.748-1.758-1.521-3.234C254.831,32.415,253.027,31.109,253.696,29.537z"/>
		<path style="fill-rule:evenodd;clip-rule:evenodd;fill:#7B491E;" d="M143.705,89.869c0.275,2.087-0.274,3.504-2.683,3.778
			c-0.946,0.107-1.73,0.846-2.354,1.623c-0.854,1.065-2.011,1.636-3.115,0.729c-1.208-0.989-3.072-2.047-2.105-4.015
			c0.639-1.302,1.976-2.475,3.677-1.897c0.858,0.291,1.155,0.146,1.619-0.477c2.109-2.836,2.335-2.808,4.351,0.268
			c0.073,0.112,0.435,0.034,0.662,0.046L143.705,89.869z"/>
		<path style="fill-rule:evenodd;clip-rule:evenodd;fill:#7B491E;" d="M143.756,89.924c-0.535-1.402-0.81-2.771,0.781-3.697
			c0.726-0.423,1.45-1.317,2.386-0.614c0.899,0.676,1.97,1.609,1.34,2.813c-0.864,1.653,0.134,1.976,1.257,2.404
			c0.412,0.157,0.852,0.276,1.22,0.508c0.773,0.485,1.959,0.661,1.687,2.025c-0.25,1.246-0.98,2.268-2.029,2.81
			c-0.974,0.504-2.051,0.242-2.784-0.781c-0.385-0.538-1.075-0.838-1.167-1.607c-0.217-1.785-1.459-2.866-2.741-3.915
			C143.705,89.869,143.756,89.924,143.756,89.924z"/>
		<path style="fill-rule:evenodd;clip-rule:evenodd;fill:#7B491E;" d="M271.565,46.484c-0.166,2.169-1.036,3.687-1.24,5.41
			c-0.125,1.048-1.644,0.863-2.501,0.369c-2.558-1.475-2.939-7.104-0.609-8.883c1.566-1.197,2.711-0.152,3.597,1.026
			C271.328,45.095,271.792,45.959,271.565,46.484z"/>
		<path style="fill-rule:evenodd;clip-rule:evenodd;fill:#7B491E;" d="M398.675,73.229c0.278,1.229-0.243,2.005-1.177,2.537
			c-1.361,0.776-2.972,0.652-4.438,1.194c-1.195,0.441-2.798-2.107-2.526-3.865c0.236-1.525,0.878-2.129,2.66-1.533
			c0.954,0.318,2.275-0.339,3.48-0.352C398.21,71.195,399.07,71.618,398.675,73.229z"/>
		<path style="fill-rule:evenodd;clip-rule:evenodd;fill:#7B491E;" d="M320.25,49.349c-2.192-0.004-3.553-1.51-3.643-3.84
			c-0.062-1.608,0.667-2.725,2.126-2.94c1.852-0.274,5.087,2.359,5.102,3.856C323.854,48.441,322.736,49.353,320.25,49.349z"/>
		<path style="fill-rule:evenodd;clip-rule:evenodd;fill:#7B491E;" d="M345.816,48.835c-0.162-1.202,0.331-1.872,1.769-1.789
			c0.646,0.037,1.295,0.112,1.974-0.242c0.986-0.516,2.129-0.734,2.931,0.37c0.788,1.086,1.599,2.316,0.976,3.685
			c-0.515,1.134-1.732,1.205-2.901,1.241C346.919,52.214,345.853,51.54,345.816,48.835z"/>
		<path style="fill-rule:evenodd;clip-rule:evenodd;fill:#7B491E;" d="M284.565,54.368c-1.889-0.025-3.231-2.892-1.965-4.38
			c0.986-1.159,2.389-2.149,4.234-2.038c1.531,0.092,2.122,1.036,2.601,2.235c0.677,1.695,0.106,2.877-1.69,3.252
			C286.601,53.675,285.693,54.74,284.565,54.368z"/>
		<path style="fill-rule:evenodd;clip-rule:evenodd;fill:#7B491E;" d="M302.488,42.372c-0.009,2.516-1.009,3.382-4.086,3.306
			c-1.945-0.048-2.361-1.402-2.306-3.066c0.055-1.639,1.74-4.065,2.888-4.088C301.287,38.479,302.498,39.808,302.488,42.372z"/>
		<path style="fill-rule:evenodd;clip-rule:evenodd;fill:#7B491E;" d="M321.644,36.062c0,0.828-0.068,1.443,0.015,2.038
			c0.169,1.213-0.674,1.95-1.479,2.278c-0.51,0.208-1.801-0.303-2.019-0.805c-0.593-1.363-1.856-2.655-1.075-4.376
			c0.244-0.537,0.562-1.031,0.465-1.684c-0.18-1.211,0.931-1.608,1.544-2.318c0.542,0.713,1.566,0.76,2.064,1.585
			C321.837,33.902,321.573,35.105,321.644,36.062z"/>
		<path style="fill-rule:evenodd;clip-rule:evenodd;fill:#7B491E;" d="M127.794,101.214c-0.612-1.77,0.278-2.479,1.989-2.609
			c2.465-0.188,3.817,0.667,3.947,2.522c0.157,2.243-0.771,3.718-2.431,3.865C128.837,105.211,128.069,104.397,127.794,101.214z"/>
		<path style="fill-rule:evenodd;clip-rule:evenodd;fill:#7B491E;" d="M317.992,59.762c0.512-1.184-0.241-3.372,2.095-3.993
			c0.638-0.169,4.039,3.422,4.125,4.193c0.137,1.223-1.868,2.94-3.581,3.068C318.733,63.172,318.014,62.38,317.992,59.762z"/>
		<path style="fill-rule:evenodd;clip-rule:evenodd;fill:#7B491E;" d="M309.786,34.255c-0.002-2.873,1.367-5.263,2.923-4.894
			c1.484,0.353,2.536,1.548,2.551,3.295c0.015,1.764-1.912,4-3.563,3.845C310.432,36.384,309.414,35.675,309.786,34.255z"/>
		<path style="fill-rule:evenodd;clip-rule:evenodd;fill:#7B491E;" d="M122.93,106.818c1.804-0.23,2.118,0.727,1.703,2.314
			c-0.24,0.918-0.409,1.86-0.587,2.791c-0.192,1.005-0.776,2.139-2.174,1.921c-1.331-0.207-2.293-0.748-2.313-2.429
			C119.517,107.993,120.279,106.803,122.93,106.818z"/>
		<path style="fill-rule:evenodd;clip-rule:evenodd;fill:#7B491E;" d="M110.921,109.497c1.305,0.928,2.187,2.163,2.799,3.728
			c0.475,1.213,0.183,2.151-0.579,2.942c-0.982,1.02-3.204,0.213-4.181-1.565c-0.629-1.146-0.57-2.496-0.035-3.634
			C109.231,110.318,109.85,109.591,110.921,109.497z"/>
		<path style="fill-rule:evenodd;clip-rule:evenodd;fill:#7B491E;" d="M54.1,95.872c1.564-0.026,3.609,2.178,3.358,4.048
			c-0.157,1.177-0.372,2.78-2.286,2.804c-1.762,0.022-3.025-1.952-3.081-4.931C52.07,96.656,52.869,95.892,54.1,95.872z"/>
		<path style="fill-rule:evenodd;clip-rule:evenodd;fill:#7B491E;" d="M45.753,93.682c-0.255,1.669-0.533,3.244-2.466,3.525
			c-1.309,0.191-3.011-1.477-3.057-2.827c-0.056-1.689,1.453-3.515,3.047-3.504C45.142,90.889,45.371,92.414,45.753,93.682z"/>
		<path style="fill-rule:evenodd;clip-rule:evenodd;fill:#7B491E;" d="M61.211,109.625c0.001-1.897,1.66-3.938,3.16-3.624
			c1.074,0.225,1.999,0.957,1.897,2.493c-0.168,2.553-0.941,3.753-2.751,3.805C61.539,112.356,61.079,111.213,61.211,109.625z"/>
		<path style="fill-rule:evenodd;clip-rule:evenodd;fill:#7B491E;" d="M15.801,105.004c1.577-0.092,3.013-0.028,2.992,2.081
			c-0.015,1.459-1.669,2.815-3.32,2.946c-2.092,0.167-2.53-1.075-2.608-2.742C12.762,105.101,14.164,104.87,15.801,105.004z"/>
		<path style="fill-rule:evenodd;clip-rule:evenodd;fill:#7B491E;" d="M52.689,82.196c0.146-1.641,0.92-2.584,2.458-2.731
			c1.22-0.117,3.032,1.821,2.829,3.209c-0.199,1.362-0.64,2.854-2.292,3.096C54.505,85.941,52.729,83.576,52.689,82.196z"/>
		<path style="fill-rule:evenodd;clip-rule:evenodd;fill:#7B491E;" d="M240.016,20.057c-0.239-1.245,0.147-2.309,1.649-2.453
			c1.076-0.103,3.926,2.942,3.759,3.977c-0.259,1.603-1.673,2.23-2.929,2.14C240.531,23.58,239.862,22.051,240.016,20.057z"/>
		<path style="fill-rule:evenodd;clip-rule:evenodd;fill:#7B491E;" d="M34.789,100.285c-0.519,1.399-0.171,3.505-2.241,4.028
			c-1.428,0.361-2.775-1.493-2.816-3.414c-0.044-1.996,1.311-2.532,2.872-2.723C33.97,98.01,34.701,98.769,34.789,100.285z"/>
		<path style="fill-rule:evenodd;clip-rule:evenodd;fill:#7B491E;" d="M79.459,100.624c0.015,1.931-1.442,4.012-2.892,3.874
			c-2.049-0.193-2.309-2.369-2.377-3.507c-0.093-1.546,1.796-2.531,3.294-2.723C78.747,98.107,79.448,99.282,79.459,100.624z"/>
		<path style="fill-rule:evenodd;clip-rule:evenodd;fill:#7B491E;" d="M54.374,111.923c0.529,2.245-1.72,1.96-2.742,2.061
			c-1.831,0.182-2.046-1.773-2.192-3.009c-0.175-1.477,0.867-2.742,2.304-3.158C52.756,107.524,54.332,110.029,54.374,111.923z"/>
		<path style="fill-rule:evenodd;clip-rule:evenodd;fill:#7B491E;" d="M272.847,58.087c0.23-1.01,0.275-2.605,2.195-2.315
			c1.676,0.254,2.751,1.321,2.813,3.146c0.055,1.599-0.815,2.532-2.312,2.71C274.343,61.772,272.812,59.802,272.847,58.087z"/>
		<path style="fill-rule:evenodd;clip-rule:evenodd;fill:#7B491E;" d="M152.432,102.397c-0.298-1.33,0.147-2.54,1.79-2.811
			c1.305-0.215,2.684,1.795,2.794,3.563c0.097,1.552-0.714,2.403-2.027,2.604C153.403,105.995,152.429,104.666,152.432,102.397z"/>
		<path style="fill-rule:evenodd;clip-rule:evenodd;fill:#7B491E;" d="M107.704,105.886c-0.474,1.188-0.658,2.741-2.165,2.993
			c-1.323,0.221-3.42-2.069-3.246-3.435c0.196-1.526,1.18-2.231,2.78-2.306C107.111,103.046,107.121,104.696,107.704,105.886z"/>
		<path style="fill-rule:evenodd;clip-rule:evenodd;fill:#7B491E;" d="M56.191,88.854c-0.024-1.772,0.595-2.505,1.861-2.547
			c1.58-0.052,3.404,1.84,3.104,3.416c-0.232,1.22-1.107,2.093-2.544,2.042C57.167,91.715,56.184,90.328,56.191,88.854z"/>
		<path style="fill-rule:evenodd;clip-rule:evenodd;fill:#7B491E;" d="M359.517,55.518c-0.158,0.969-0.187,2.214-1.578,2.462
			c-1.055,0.188-2.849-2.242-2.456-3.699c0.275-1.023-0.267-2.807,1.259-3.008c1.58-0.209,2.046,1.313,2.536,2.587
			C359.481,54.387,359.45,54.877,359.517,55.518z"/>
		<path style="fill-rule:evenodd;clip-rule:evenodd;fill:#7B491E;" d="M161.565,118.176c-0.14-1.229,0.039-2.432,1.583-2.659
			c1.229-0.181,2.919,1.697,2.971,3.068c0.058,1.562-0.579,2.364-2.229,2.389C161.941,121.003,161.408,119.948,161.565,118.176z"/>
		<path style="fill-rule:evenodd;clip-rule:evenodd;fill:#7B491E;" d="M162.477,108.303c0.167,1.669-1.084,2.127-2.391,2.114
			c-1.627-0.017-2.231-1.161-2.188-2.711c0.036-1.288,0.168-2.354,1.921-2.283C161.689,105.499,162.502,106.396,162.477,108.303z"/>
		<path style="fill-rule:evenodd;clip-rule:evenodd;fill:#7B491E;" d="M359.959,61.846c0.061,1.834-0.831,2.763-2.015,2.931
			c-1.227,0.174-2.094-1.325-1.837-2.035c0.404-1.119-0.594-3.257,1.604-3.305C359.379,59.402,359.611,60.979,359.959,61.846z"/>
		<path style="fill-rule:evenodd;clip-rule:evenodd;fill:#7B491E;" d="M31.867,78.418c-0.388,0.312-0.562,1.032-1.103,0.821
			c-0.363-0.142-0.999-0.486-0.804-1.087c0.139-0.426,0.605-0.59,1.098-0.521C31.537,77.701,31.787,77.964,31.867,78.418z"/>
		<path style="fill-rule:evenodd;clip-rule:evenodd;fill:#7B491E;" d="M230.413,116.241c-0.031,0.286-0.069,0.604-0.46,0.563
			c-0.516-0.053-0.426-0.475-0.419-0.815c0.006-0.354,0.239-0.536,0.556-0.453C230.413,115.622,230.443,115.937,230.413,116.241z"/>
	</g>
</g>
</svg>
