<?xml version="1.0" encoding="iso-8859-1"?>
<!-- Generator: Adobe Illustrator 16.0.0, SVG Export Plug-In . SVG Version: 6.00 Build 0)  -->
<!DOCTYPE svg PUBLIC "-//W3C//DTD SVG 1.1//EN" "http://www.w3.org/Graphics/SVG/1.1/DTD/svg11.dtd">
<svg version="1.1" id="Layer_1" xmlns="http://www.w3.org/2000/svg" xmlns:xlink="http://www.w3.org/1999/xlink" x="0px" y="0px"
	 width="401.118px" height="172.15px" viewBox="0 0 401.118 172.15" style="enable-background:new 0 0 401.118 172.15;"
	 xml:space="preserve">
<g>
	<g>
		<path style="fill:none;" d="M200.567,171.607c-65.891,0-131.781-0.008-197.672,0.041c-1.801,0.002-2.396-0.245-2.394-2.271
			C0.57,113.807,0.57,58.235,0.5,2.664C0.498,0.739,1.011,0.5,2.748,0.5C134.614,0.545,266.48,0.545,398.345,0.505
			c1.68,0,2.275,0.156,2.272,2.139c-0.075,55.656-0.072,111.312-0.008,166.968c0.002,1.809-0.454,2.041-2.117,2.039
			C332.517,171.6,266.542,171.607,200.567,171.607z M262.505,101.623c-1.177,0.472-3.041,0.513-2.958,2.101
			c0.099,1.899,0.225,3.944,1.378,5.654c0.55,0.815,1.384,1.009,2.229,0.745c0.718-0.223,1.001-0.91,0.844-1.649
			c-0.49-2.305-1.021-4.601-1.539-6.901c3.157-0.065,4.125-1.034,4.063-4.277c-0.021-1.117,0.631-2.884-1.447-2.791
			c-1.708,0.076-2.625,1.236-2.594,3.026C262.506,98.894,262.5,100.259,262.505,101.623z M172.084,57.479
			c-0.151,2,1.262,5.024-2.882,4.511c-0.363-0.045-0.833,0.485-1.2,0.807c-3.44,3.016-5.189,6.941-4.921,11.387
			c0.273,4.537,1.998,9.03-0.54,13.481c-0.4,0.701-0.028,1.829-0.066,2.758c-0.027,0.663-0.165,1.32-0.213,1.983
			c-0.329,4.475-4.856,7.61-4.013,12.494c0.036,0.208-0.152,1.136-0.968,1.233c-0.875,0.104-0.866-0.621-1.158-1.051
			c-1.616-2.375-3.345-4.687-4.78-7.166c-1.771-3.062-3.879-5.929-4.681-9.545c-0.642-2.899-3.324-3.968-6.086-2.698
			c-4.166,1.917-8.76,2.624-12.861,4.707c-4.075,2.07-8.837,2.453-12.668,5.14c-3.075,2.155-5.923,4.79-10.092,4.617
			c-0.483-0.021-1.08,0.438-1.472,0.826c-3.968,3.926-8.792,6.559-13.583,9.292c-1.594,0.909-3.57,2.094-3.256,4.47
			c0.129,0.978,0.116,1.633-0.412,2.527c-0.725,1.228-0.85,2.729,0.24,3.941c1.043,1.159,2.255,0.775,3.423,0.156
			c1.335-0.709,2.721-0.728,4.095-0.217c0.762,0.284,1.389,0.279,2.123-0.121c2.568-1.4,5.483-2.001,7.819-4.05
			c1.252-1.098,2.976-1.915,4.718-2.519c3.113-1.078,6.248-1.862,9.163-3.812c6.093-4.076,12.672-7.425,19.031-11.107
			c1.536-0.889,2.285-0.446,2.854,1.157c0.6,1.688,1.071,3.703,2.287,4.841c3.378,3.162,4.408,7.78,7.345,11.099
			c2.166,2.446,1.798,6.121,4.96,8.206c2.361,1.557,4.283,2.65,6.951,1.481c2.519-1.104,3.597-3.059,3.294-5.812
			c-0.061-0.556,0.1-1.155,0.249-1.711c1.932-7.16,3.875-14.316,5.824-21.472c0.797-2.926,0.999-6.112,4.419-7.644
			c1.301-0.582,1.766-2.095,1.688-3.657c-0.1-1.993,0.309-3.917,0.677-5.888c0.473-2.529,1.644-4.728,2.351-7.121
			c0.849-2.874,1.589-5.763,2.726-8.571c0.907-2.24,2.586-4.874-0.44-7.142c-0.676-0.506-0.604-2.062-0.103-2.61
			c1.844-2.021,1.179-4.402,1.398-6.68c0.162-1.68-0.202-3.909,1.352-4.799c3.271-1.873,3.782-5.943,6.996-7.942
			c1.246-0.774,2.225-1.55,3.746-1.765c4.152-0.584,8.346-0.708,12.451-1.895c3.396-0.981,5.93-3.356,9.098-4.637
			c1.779-0.719,2.871-2.08,3.017-4.205c0.029-0.427-0.151-1.776,1.097-1.926c1.701-0.204,2.479-1.587,3.411-2.777
			c0.355-0.454,0.844-1.157,1.264-1.151c4.334,0.061,6.836-2.282,8.435-6.036c0.275-0.649,1.012-1.121,1.581-1.623
			c0.871-0.765,1.154-1.613,0.526-2.656c-0.667-1.107-1.646-1.089-2.516-0.444c-1.78,1.323-3.786,0.96-5.751,0.99
			c-1.161,0.018-2.254,0.07-3.397,0.57c-3.976,1.737-7.878,3.676-11.401,6.137c-2.245,1.569-5.026,2.268-6.885,4.179
			c-1.029,1.059-1.876,1.433-3.142,1.289c-1.948-0.222-3.5,0.597-5.067,1.627c-2.382,1.566-4.702,3.652-7.344,4.292
			c-3.35,0.812-6.253,1.725-8.245,4.683c-0.293,0.436-0.909,0.751-1.439,0.914c-2.263,0.693-2.991,2.716-3.778,4.532
			c-1.367,3.154-1.411,6.869-4.052,9.495c-0.144,0.143-0.158,0.493-0.123,0.729C173.772,49.636,172.099,53.486,172.084,57.479z
			 M358.432,92.399c-0.07,1.283,0.271,2.389,1.273,2.915c1.066,0.56,2.103-0.093,2.948-0.795c1.43-1.186,1.939-5.184,0.836-6.631
			c-0.523-0.687-0.747-1.144-0.299-2.107c0.64-1.375,2.146-2.437,1.822-4.195c-0.354-1.933-0.943-3.764,0.416-5.689
			c0.436-0.618,0.487-2.088-0.42-3.061c-0.856-0.92-0.662-1.978-0.078-3.019c0.45-0.802,0.658-1.655,0.617-2.615
			c-0.217-5.22,0.459-10.364,1.309-15.503c0.216-1.307-0.314-2.654-1.604-3.31c-0.764-0.388-1.799-0.322-2.158,0.656
			c-0.739,2.012-2.183,4.042-0.144,6.169c1.214,1.267,0.842,2.436-0.439,3.429c-1.16,0.9-1.302,1.989-0.793,3.322
			c0.49,1.285,0.637,2.806,0.013,3.923c-0.942,1.688-1.063,3.474-0.69,5.094c0.788,3.426-1.679,6.747-0.101,10.13
			c0.118,0.252,0.043,0.749-0.14,0.96c-1.635,1.88-0.276,3.582-0.048,5.47C360.943,89.116,358.113,90.271,358.432,92.399z
			 M256.907,126.116c-0.443-1.634-0.709-3.273-1.362-4.74c-0.312-0.702-0.994-1.71-2.118-1.506c-0.881,0.16-1.241,0.953-1.7,1.681
			c-0.61,0.966-0.357,1.948-0.393,2.922c-0.044,1.226-0.01,2.184-1.31,3.137c-2.579,1.892-2.186,3.736,0.641,5.458
			c0.943,0.574,2.055,1.572,1.604,2.725c-1.113,2.851,0.146,4.069,2.646,4.903c0.798,0.267,1.369,1.128,2.347,0.365
			c0.912-0.712,0.902-1.797,0.596-2.531c-0.954-2.281-1.662-4.733-3.546-6.523c-0.476-0.451-1.516-0.606-1.121-1.556
			c0.373-0.896,0.435-2.045,2.006-2.067C256.386,128.365,257.01,127.328,256.907,126.116z M245.619,86.681
			c-2.238,0.941-4.443,0.796-6.58,0.605c-1.811-0.161-2.629,0.703-3.473,2.034c-1.218,1.921,0.315,3.018,1.296,3.981
			c1.212,1.193,1.956-0.301,2.646-1.081c0.922-1.042,1.562-1.238,3.183-0.816c1.944,0.506,4.291-0.971,6.43,0.352
			c0.06,0.037,0.42-0.277,0.534-0.485c1.249-2.266,2.425-1.401,3.799-0.055c1.345,1.317,2.592,0.835,2.93-0.996
			c0.253-1.369-0.213-2.658-0.763-3.822c-0.355-0.754-1.146-1.565-2.262-0.843C250.918,87.134,248.401,88.218,245.619,86.681z
			 M379.743,95.511c0.063-1.797-2.827-4.678-4.249-3.986c-1.706,0.83-3.715,0.98-5.187,2.116c-1.057,0.815-1.883,0.986-2.862,0.271
			c-1.428-1.043-2.391,0.231-3.225,0.824c-0.606,0.43-0.708,1.729-0.063,2.611c0.69,0.944,1.571,1.616,2.771,0.972
			c1.189-0.641,2.046-0.318,2.848,0.627c1.202,1.415,2.218,1.695,3.098-0.373c0.436-1.025,1.097-1.473,2.403-0.627
			C376.762,98.905,379.685,97.146,379.743,95.511z M393.999,97.399c-0.317-1.473-1.889-2.088-2.894-3.212
			c-1.656-1.852-2.676-1.374-3.61,0.445c-0.798,1.552-1.4,1.346-2.144-0.009c-0.356-0.647-0.312-1.473-1.411-1.766
			c-1.682-0.447-2.372,0.346-2.968,1.62c-0.845,1.808-1.09,3.933,0.886,4.695c2.198,0.851,4.743,1.601,7.198,0.427
			c0.847-0.404,1.557-0.46,2.493-0.106C393.104,100.081,393.942,99.308,393.999,97.399z M270.129,89.261
			c-0.371-1.678-0.616-3.486-3.037-3.452c-0.321,0.005-0.874-0.046-0.933-0.21c-1.361-3.808-3.202-1.899-5.217-0.604
			c-1.154,0.742-2.17,1.578-1.913,2.85c0.297,1.467,1.978,1.37,3.088,1.455c1.305,0.1,2.201,0.293,2.716,1.635
			c0.408,1.063,0.975,2.396,2.47,1.862C268.845,92.247,270.435,91.488,270.129,89.261z M346.519,45.149
			c0.838,1.124,1.887,1.774,2.475,2.964c0.37,0.748,1.108,1.648,2.226,0.953c1.468-0.913,1.334-2.583,1.563-3.973
			c0.215-1.299-1.06-1.949-2.032-2.133c-1.047-0.199-2.36-0.087-3.272,0.411c-0.911,0.498-0.951,0.83-1.436-0.41
			c-0.351-0.897-1.386-2.697-2.806-1.455c-1.182,1.035-4.1,1.503-2.26,4.368c0.93,1.449,2.038,3.16,3.535,3.103
			C345.575,48.937,345.998,46.741,346.519,45.149z M335.591,45.655c0,0.673-0.21,1.442,0.045,1.999
			c0.522,1.146,1.209,2.768,2.579,2.486c1.409-0.29,1.682-1.583,1.069-3.205c-1.038-2.748-1.213-5.555,1.915-7.3
			c0.757-0.422,0.528-1.047,0.412-1.505c-0.233-0.928-0.694,0.104-1.113-0.001c-0.603-0.15-1.187,0.142-1.429-0.899
			c-0.377-1.62-1.633-1.509-2.706-0.685c-1.52,1.167-2.641,3.403-1.602,4.564C336.223,42.74,335.34,44.167,335.591,45.655z
			 M334.06,25.148c0.003,1.653,1.447,2.77,3.371,2.606c0.985-0.084,4.207-3.367,4.24-4.322c0.062-1.763-1.831-3.582-3.749-3.602
			C336.022,19.812,334.054,22.521,334.06,25.148z M274.424,130.653c-0.298-0.835-0.332-2.137-1.6-2.619
			c-1.129-0.43-1.968,0.192-2.576,1.065c-0.71,1.019-1.4,1.953-2.653,2.439c-1.215,0.472-0.742,1.564-0.519,2.451
			c0.278,1.107,0.984,1.98,2.138,2.021c0.82,0.029,1.939-0.093,1.891-1.419c-0.027-0.729,0.188-1.186,0.978-1.045
			C274.339,133.949,274.075,132.106,274.424,130.653z M249.983,136.867c-0.827-0.825-0.825-2.137-2.656-1.907
			c-2.951,0.37-4.217,4.001-2.848,6.654c0.684,1.324,2.35,1.396,3.616,1.782c0.314,0.097,1.71-1.862,1.579-2.019
			C248.34,139.778,248.886,138.366,249.983,136.867z M258.131,110.704c-1.26-0.157-1.722,0.747-2.323,1.729
			c-0.846,1.381-0.55,2.684,0.301,3.657c0.737,0.843,1.312,1.701,1.823,2.672c0.493,0.936,1.084,2.12,2.432,1.338
			c1.121-0.651,1.627-1.746,0.727-2.956c-1.047-1.407-1.331-2.947-1.15-4.644C260.074,111.249,259.521,110.591,258.131,110.704z
			 M35.519,60.939c0.265-2.379-0.959-3.168-2.45-3.182c-1.588-0.015-2.143,1.584-1.955,2.723c0.233,1.405,0.278,2.656-0.059,4.037
			c-0.326,1.33,0.583,2.611,1.616,2.911c1.357,0.394,2.062-1.176,2.219-2.175C35.143,63.656,34.982,61.989,35.519,60.939z
			 M286.402,128.052c-0.494-1.148,0.895-3.058-1.174-3.58c-1.515-0.383-2.945,0.14-3.625,1.818c-0.089,0.22-0.357,0.359-0.491,0.568
			c-0.792,1.235-0.468,2.546,0.362,3.434c0.838,0.898,1.861,2.012,3.365,1.685C287.207,131.462,286.056,129.491,286.402,128.052z
			 M77.216,51.997c-0.044-1.378-0.851-2.576-2.104-2.099c-1.933,0.735-4.033,1.399-5.467,3.121c-0.71,0.853-1.709,1.268-0.239,2.69
			c1.472,1.425,1.751,0.159,2.495-0.39c0.313-0.231,0.071-1.105,1.083-0.495C74.611,55.808,77.243,53.923,77.216,51.997z
			 M306.073,129.274c0.215-1.995-0.832-2.642-1.688-3.188c-1.058-0.679-1.595,0.489-2.252,1.063
			c-1.102,0.963-1.129,2.492-1.906,3.68c-0.639,0.975,0.422,2.174,1.347,2.896c0.417,0.326,0.987,1.012,1.647,0.419
			C304.862,132.67,305.498,130.64,306.073,129.274z M34.572,51.236c0.216-0.859-0.543-1.436-1.236-1.807
			c-1.271-0.68-2.774-0.97-3.954-1.761c-0.977-0.654-1.701-0.196-2.181,0.254c-0.527,0.495-0.226,1.293,0.126,2.05
			c0.838,1.801,2.351,2.606,4.029,3.357C33.204,54.157,34.485,53.453,34.572,51.236z M62.99,59.871
			c0.042-1.232-0.662-2.536-1.399-1.854c-1.625,1.502-3.757,1.408-5.438,2.441c-1.121,0.689-1.051,1.958-0.55,2.906
			c0.357,0.676,1.356,0.638,2.191,0.805c1.685,0.338,3.045,0.287,3.059-1.473C60.868,60.927,63.868,61.736,62.99,59.871z
			 M310.708,160.96c0-0.929-0.021-1.859,0.006-2.788c0.027-0.938-0.159-1.708-1.278-1.782c-1.023-0.067-2.225-0.15-2.317,1.248
			c-0.137,2.081-0.747,4.229,0.248,6.243c0.497,1.006,1.478,1.301,2.581,1.122c1.42-0.231,0.591-1.328,0.733-2.021
			C310.814,162.334,310.709,161.637,310.708,160.96z M336.951,34.546c1.848,0.212,2.918-0.862,2.905-2.457
			c-0.012-1.595-1.117-2.995-2.739-3.324c-1.605-0.326-3.731,1.724-3.525,3.274C333.835,33.891,335.098,34.698,336.951,34.546z
			 M305.167,122.089c-0.553-1.396-0.703-2.772-1.563-3.921c-1.032-1.38-1.85-1.452-3.067-0.132c-2.058,2.23-0.134,3.743,0.869,5.34
			c0.348,0.553,0.722,1.716,2.062,1.105C304.656,123.938,304.76,122.918,305.167,122.089z M234.57,91.874
			c-0.031-2.012-1.654-3.068-3.046-2.246c-2.224,1.313-2.697,4.813-0.932,6.688c0.778,0.826,1.683,1.097,2.241,0.014
			C233.598,94.847,234.065,93.211,234.57,91.874z M88.885,60.955c-0.056,2.045,0.591,3.205,2.15,3.511
			c1.235,0.242,3.907-3.024,3.743-4.676c-0.12-1.215-0.824-2.053-2.341-1.918C90.907,58.008,88.891,59.898,88.885,60.955z
			 M19.344,54.555c-0.081-0.563,0.265-1.401-0.329-1.621c-0.637-0.235-1.678-0.482-2.109,0.198c-0.725,1.145-1.507,0.87-2.243,0.3
			c-1.602-1.241-1.842-0.224-1.916,1.075c-0.092,1.618,1.672,3.97,2.871,3.893C16.479,58.346,19.345,55.382,19.344,54.555z
			 M359.468,46.271c-0.236-1.653-0.496-3.367-2.648-3.575c-1.713-0.166-2.693,0.911-2.922,2.449
			c-0.254,1.714,1.358,3.033,3.402,3.126C358.734,48.336,359.651,47.972,359.468,46.271z M259.318,135.234
			c0.621,1.278,0.208,3.265,2.427,3.364c2.85,0.127,1.649-2.478,2.062-3.71c0.254-0.757,0.227-3.29-1.844-3.315
			C259.708,131.546,259.976,133.754,259.318,135.234z M306.672,138.968c-0.21-1.409-0.564-2.806-2.325-2.867
			c-2.402-0.084-2.265,1.69-2.281,3.351c-0.014,1.416,0.365,3.176,1.762,2.902C305.063,142.112,306.888,141.088,306.672,138.968z
			 M80.762,56.802c-0.207,1.45,0.726,2.51,1.328,3.653c0.47,0.891,1.491,1.42,2.353,0.902c1.136-0.683,1.503-2.105,1.828-3.306
			c0.281-1.042-1.234-1.576-1.625-1.488c-1.032,0.232-1.619-0.239-2.356-0.676C81.305,55.305,80.744,55.619,80.762,56.802z
			 M288.351,124.476c0.15,1.957,0.793,3.562,2.589,3.346c1.771-0.213,2.185-2.099,2.482-3.663c0.146-0.761,0.104-1.789-1.151-1.354
			C290.896,123.281,288.41,121.675,288.351,124.476z M36.751,73.61c-1.083-0.534-0.819-2.582-2.761-2.487
			c-1.406,0.069-1.951,0.979-1.975,2.349c-0.034,1.879,0.858,3.32,2.618,3.396C36.11,76.932,36.34,75.242,36.751,73.61z
			 M41.628,68.808c0.253,1.586,0.858,3.222,2.492,3.515c0.859,0.154,2.359-0.843,2.067-2.295c-0.263-1.305-0.089-3.17-2.425-3.019
			C42.521,67.089,41.541,67.194,41.628,68.808z M6.306,57.898c-1.427-0.591-2.077,0.738-1.98,1.71c0.148,1.5,0.708,3.098,2.92,2.894
			c1.122-0.104,2.171,0.13,1.966-1.607C9.011,59.19,8.618,57.822,6.306,57.898z M307.635,148.472
			c0.472-1.638-0.645-2.497-2.013-2.622c-0.729-0.067-2.38,0.52-1.91,1.696c0.45,1.128-0.39,3.299,2.108,3.281
			C307.511,150.815,307.799,149.944,307.635,148.472z M52.442,67.535c1.559,0.542,1.701-0.954,1.686-1.797
			c-0.029-1.661-1.093-2.681-2.848-2.752c-1.331-0.054-1.453,1.082-1.43,1.882C49.893,66.329,50.31,67.724,52.442,67.535z
			 M66.782,55.556c-2.084-0.435-2.265,1.154-2.154,1.352c0.71,1.264,1.103,3.104,2.742,3.271c0.626,0.063,1.898-1.085,1.704-2.425
			C68.821,56.012,67.352,55.764,66.782,55.556z M40.666,72.492c0.046-1.439-0.599-2.272-1.983-2.393
			c-1.407-0.123-1.568,0.803-1.599,1.936c-0.036,1.325,0.387,2.452,1.727,2.542C40.006,74.659,40.696,73.722,40.666,72.492z
			 M363.513,45.114c0.39-1.166-0.511-1.568-1.564-1.656c-1.065-0.089-0.908,0.791-1,1.495c-0.173,1.329,0.707,1.938,1.693,2.025
			C363.672,47.069,363.463,46.027,363.513,45.114z M25.915,52.089c-0.572-0.26-0.269-1.495-1.208-1.221
			c-0.669,0.195-0.879,0.893-0.809,1.631c0.058,0.6,0.209,1.27,0.889,1.068C25.342,53.402,25.917,52.889,25.915,52.089z"/>
		<path style="fill-rule:evenodd;clip-rule:evenodd;fill:#7B491E;" d="M172.084,57.479c0.014-3.993,1.688-7.843,1.075-11.894
			c-0.036-0.236-0.021-0.586,0.123-0.729c2.642-2.626,2.685-6.341,4.052-9.495c0.787-1.816,1.515-3.839,3.778-4.532
			c0.53-0.163,1.146-0.479,1.439-0.914c1.991-2.958,4.895-3.871,8.245-4.683c2.643-0.641,4.962-2.726,7.344-4.292
			c1.567-1.03,3.119-1.849,5.067-1.627c1.266,0.144,2.112-0.229,3.142-1.289c1.858-1.911,4.64-2.609,6.885-4.179
			c3.523-2.461,7.426-4.4,11.401-6.137c1.144-0.5,2.236-0.553,3.397-0.57c1.965-0.03,3.971,0.333,5.751-0.99
			c0.869-0.646,1.849-0.664,2.516,0.444c0.628,1.043,0.345,1.891-0.526,2.656c-0.569,0.501-1.306,0.974-1.581,1.623
			c-1.599,3.754-4.101,6.097-8.435,6.036c-0.42-0.006-0.908,0.698-1.264,1.151c-0.932,1.19-1.71,2.573-3.411,2.777
			c-1.248,0.15-1.067,1.499-1.097,1.926c-0.146,2.125-1.237,3.486-3.017,4.205c-3.168,1.28-5.701,3.655-9.098,4.637
			c-4.105,1.187-8.299,1.31-12.451,1.895c-1.521,0.214-2.5,0.99-3.746,1.765c-3.214,1.999-3.725,6.069-6.996,7.942
			c-1.554,0.89-1.19,3.12-1.352,4.799c-0.219,2.278,0.446,4.66-1.398,6.68c-0.5,0.548-0.573,2.104,0.103,2.61
			c3.026,2.268,1.348,4.901,0.44,7.142c-1.137,2.808-1.877,5.697-2.726,8.571c-0.707,2.393-1.878,4.592-2.351,7.121
			c-0.369,1.971-0.777,3.895-0.677,5.888c0.078,1.562-0.386,3.075-1.688,3.657c-3.421,1.531-3.622,4.718-4.419,7.644
			c-1.949,7.155-3.893,14.312-5.824,21.472c-0.149,0.556-0.31,1.155-0.249,1.711c0.302,2.753-0.775,4.708-3.294,5.812
			c-2.668,1.169-4.59,0.075-6.951-1.481c-3.162-2.085-2.794-5.76-4.96-8.206c-2.938-3.318-3.967-7.937-7.345-11.099
			c-1.216-1.138-1.687-3.152-2.287-4.841c-0.57-1.604-1.319-2.046-2.854-1.157c-6.359,3.683-12.938,7.031-19.031,11.107
			c-2.915,1.95-6.05,2.734-9.163,3.812c-1.742,0.604-3.466,1.421-4.718,2.519c-2.336,2.049-5.25,2.649-7.819,4.05
			c-0.734,0.4-1.36,0.405-2.123,0.121c-1.375-0.511-2.76-0.492-4.095,0.217c-1.168,0.619-2.38,1.003-3.423-0.156
			c-1.09-1.213-0.965-2.714-0.24-3.941c0.528-0.895,0.541-1.55,0.412-2.527c-0.314-2.376,1.662-3.561,3.256-4.47
			c4.791-2.733,9.614-5.366,13.583-9.292c0.393-0.389,0.989-0.847,1.472-0.826c4.169,0.173,7.017-2.462,10.092-4.617
			c3.831-2.687,8.593-3.069,12.668-5.14c4.101-2.083,8.695-2.79,12.861-4.707c2.762-1.271,5.444-0.202,6.086,2.698
			c0.801,3.616,2.909,6.483,4.681,9.545c1.436,2.479,3.165,4.791,4.78,7.166c0.292,0.43,0.283,1.155,1.158,1.051
			c0.815-0.098,1.004-1.025,0.968-1.233c-0.843-4.884,3.685-8.02,4.013-12.494c0.048-0.663,0.187-1.32,0.213-1.983
			c0.038-0.929-0.334-2.057,0.066-2.758c2.537-4.451,0.813-8.944,0.54-13.481c-0.269-4.446,1.481-8.371,4.921-11.387
			c0.368-0.322,0.837-0.852,1.2-0.807C173.346,62.503,171.934,59.48,172.084,57.479z"/>
		<path style="fill-rule:evenodd;clip-rule:evenodd;fill:#7B491E;" d="M358.432,92.399c-0.319-2.128,2.511-3.283,2.32-4.857
			c-0.229-1.888-1.587-3.59,0.048-5.47c0.183-0.211,0.258-0.708,0.14-0.96c-1.578-3.383,0.889-6.704,0.101-10.13
			c-0.373-1.62-0.252-3.406,0.69-5.094c0.624-1.117,0.478-2.638-0.013-3.923c-0.509-1.333-0.367-2.422,0.793-3.322
			c1.281-0.993,1.653-2.162,0.439-3.429c-2.039-2.126-0.596-4.157,0.144-6.169c0.359-0.979,1.395-1.044,2.158-0.656
			c1.29,0.656,1.82,2.003,1.604,3.31c-0.85,5.139-1.525,10.283-1.309,15.503c0.041,0.959-0.167,1.813-0.617,2.615
			c-0.584,1.041-0.778,2.098,0.078,3.019c0.907,0.973,0.855,2.443,0.42,3.061c-1.359,1.925-0.771,3.757-0.416,5.689
			c0.323,1.759-1.183,2.821-1.822,4.195c-0.448,0.964-0.225,1.421,0.299,2.107c1.104,1.447,0.594,5.445-0.836,6.631
			c-0.846,0.702-1.882,1.354-2.948,0.795C358.703,94.788,358.362,93.683,358.432,92.399z"/>
		<path style="fill-rule:evenodd;clip-rule:evenodd;fill:#7B491E;" d="M256.907,126.116c0.104,1.212-0.521,2.249-1.71,2.267
			c-1.571,0.022-1.633,1.171-2.006,2.067c-0.395,0.949,0.646,1.104,1.121,1.556c1.884,1.79,2.592,4.242,3.546,6.523
			c0.307,0.734,0.316,1.819-0.596,2.531c-0.978,0.763-1.549-0.099-2.347-0.365c-2.5-0.834-3.76-2.053-2.646-4.903
			c0.45-1.152-0.661-2.15-1.604-2.725c-2.826-1.722-3.22-3.566-0.641-5.458c1.3-0.953,1.266-1.911,1.31-3.137
			c0.035-0.974-0.218-1.956,0.393-2.922c0.459-0.728,0.819-1.521,1.7-1.681c1.124-0.204,1.806,0.804,2.118,1.506
			C256.198,122.843,256.463,124.482,256.907,126.116z"/>
		<path style="fill-rule:evenodd;clip-rule:evenodd;fill:#7B491E;" d="M245.619,86.681c2.782,1.537,5.3,0.453,7.739-1.126
			c1.116-0.723,1.906,0.089,2.262,0.843c0.55,1.164,1.016,2.453,0.763,3.822c-0.338,1.831-1.585,2.313-2.93,0.996
			c-1.374-1.347-2.55-2.211-3.799,0.055c-0.114,0.208-0.475,0.522-0.534,0.485c-2.139-1.322-4.485,0.154-6.43-0.352
			c-1.62-0.422-2.261-0.226-3.183,0.816c-0.689,0.78-1.434,2.274-2.646,1.081c-0.98-0.964-2.514-2.061-1.296-3.981
			c0.844-1.331,1.662-2.195,3.473-2.034C241.175,87.477,243.38,87.622,245.619,86.681z"/>
		<path style="fill-rule:evenodd;clip-rule:evenodd;fill:#7B491E;" d="M379.743,95.511c-0.058,1.636-2.98,3.395-4.467,2.435
			c-1.307-0.846-1.968-0.398-2.403,0.627c-0.88,2.068-1.896,1.788-3.098,0.373c-0.802-0.945-1.658-1.268-2.848-0.627
			c-1.199,0.645-2.08-0.027-2.771-0.972c-0.645-0.882-0.543-2.182,0.063-2.611c0.834-0.593,1.797-1.867,3.225-0.824
			c0.979,0.716,1.806,0.545,2.862-0.271c1.472-1.136,3.48-1.286,5.187-2.116C376.916,90.833,379.806,93.714,379.743,95.511z"/>
		<path style="fill-rule:evenodd;clip-rule:evenodd;fill:#7B491E;" d="M393.999,97.399c-0.057,1.908-0.895,2.682-2.449,2.095
			c-0.937-0.354-1.646-0.298-2.493,0.106c-2.455,1.174-5,0.424-7.198-0.427c-1.976-0.763-1.73-2.888-0.886-4.695
			c0.596-1.274,1.286-2.067,2.968-1.62c1.099,0.293,1.055,1.118,1.411,1.766c0.743,1.354,1.346,1.561,2.144,0.009
			c0.935-1.819,1.954-2.297,3.61-0.445C392.11,95.312,393.681,95.927,393.999,97.399z"/>
		<path style="fill-rule:evenodd;clip-rule:evenodd;fill:#7B491E;" d="M270.129,89.261c0.306,2.228-1.284,2.986-2.826,3.536
			c-1.495,0.534-2.062-0.799-2.47-1.862c-0.515-1.342-1.411-1.535-2.716-1.635c-1.11-0.085-2.791,0.012-3.088-1.455
			c-0.257-1.271,0.759-2.108,1.913-2.85c2.015-1.295,3.855-3.204,5.217,0.604c0.059,0.164,0.611,0.215,0.933,0.21
			C269.513,85.774,269.758,87.583,270.129,89.261z"/>
		<path style="fill-rule:evenodd;clip-rule:evenodd;fill:#7B491E;" d="M346.519,45.149c-0.521,1.592-0.944,3.788-2.007,3.829
			c-1.497,0.057-2.605-1.654-3.535-3.103c-1.84-2.865,1.078-3.333,2.26-4.368c1.42-1.242,2.455,0.558,2.806,1.455
			c0.484,1.239,0.524,0.907,1.436,0.41c0.912-0.498,2.226-0.61,3.272-0.411c0.973,0.185,2.247,0.834,2.032,2.133
			c-0.229,1.391-0.096,3.06-1.563,3.973c-1.117,0.695-1.855-0.205-2.226-0.953C348.406,46.923,347.357,46.272,346.519,45.149z"/>
		<path style="fill-rule:evenodd;clip-rule:evenodd;fill:#7B491E;" d="M335.593,45.654c-0.253-1.487,0.63-2.914-0.831-4.545
			c-1.039-1.161,0.082-3.397,1.602-4.564c1.073-0.824,2.329-0.936,2.706,0.685c0.242,1.042,0.826,0.75,1.429,0.899
			c0.419,0.105,0.88-0.927,1.113,0.001c0.116,0.458,0.345,1.083-0.412,1.505c-3.128,1.745-2.953,4.552-1.915,7.3
			c0.612,1.622,0.34,2.916-1.069,3.205c-1.37,0.282-2.057-1.34-2.579-2.486C335.381,47.097,335.591,46.328,335.593,45.654z"/>
		<path style="fill-rule:evenodd;clip-rule:evenodd;fill:#7B491E;" d="M334.06,25.148c-0.006-2.628,1.962-5.336,3.862-5.317
			c1.918,0.02,3.812,1.838,3.749,3.602c-0.033,0.955-3.255,4.238-4.24,4.322C335.507,27.918,334.063,26.802,334.06,25.148z"/>
		<path style="fill-rule:evenodd;clip-rule:evenodd;fill:#7B491E;" d="M274.424,130.653c-0.35,1.453-0.085,3.296-2.342,2.894
			c-0.79-0.141-1.005,0.316-0.978,1.045c0.049,1.326-1.07,1.448-1.891,1.419c-1.153-0.04-1.859-0.913-2.138-2.021
			c-0.224-0.887-0.696-1.979,0.519-2.451c1.253-0.486,1.943-1.421,2.653-2.439c0.608-0.873,1.447-1.495,2.576-1.065
			C274.092,128.517,274.126,129.818,274.424,130.653z"/>
		<path style="fill-rule:evenodd;clip-rule:evenodd;fill:#7B491E;" d="M249.983,136.867c-1.097,1.499-1.643,2.911-0.309,4.511
			c0.131,0.156-1.265,2.115-1.579,2.019c-1.267-0.387-2.933-0.458-3.616-1.782c-1.369-2.653-0.104-6.284,2.848-6.654
			C249.158,134.73,249.156,136.042,249.983,136.867z"/>
		<path style="fill-rule:evenodd;clip-rule:evenodd;fill:#7B491E;" d="M258.131,110.704c1.39-0.113,1.942,0.545,1.809,1.797
			c-0.181,1.696,0.104,3.236,1.15,4.644c0.9,1.21,0.395,2.305-0.727,2.956c-1.348,0.782-1.938-0.402-2.432-1.338
			c-0.511-0.971-1.086-1.829-1.823-2.672c-0.851-0.974-1.146-2.276-0.301-3.657C256.41,111.451,256.872,110.547,258.131,110.704z"/>
		<path style="fill-rule:evenodd;clip-rule:evenodd;fill:#7B491E;" d="M35.519,60.939c-0.537,1.05-0.376,2.716-0.628,4.313
			c-0.158,1-0.862,2.569-2.219,2.175c-1.034-0.3-1.942-1.581-1.616-2.911c0.337-1.38,0.292-2.631,0.059-4.037
			c-0.188-1.139,0.366-2.737,1.955-2.723C34.56,57.771,35.784,58.56,35.519,60.939z"/>
		<path style="fill-rule:evenodd;clip-rule:evenodd;fill:#7B491E;" d="M286.402,128.052c-0.346,1.439,0.805,3.41-1.562,3.925
			c-1.504,0.327-2.527-0.786-3.365-1.685c-0.83-0.888-1.154-2.198-0.362-3.434c0.134-0.209,0.402-0.349,0.491-0.568
			c0.68-1.679,2.11-2.201,3.625-1.818C287.296,124.994,285.908,126.903,286.402,128.052z"/>
		<path style="fill-rule:evenodd;clip-rule:evenodd;fill:#7B491E;" d="M77.216,51.997c0.027,1.926-2.604,3.811-4.232,2.829
			c-1.012-0.611-0.771,0.263-1.083,0.495c-0.744,0.549-1.023,1.814-2.495,0.39c-1.47-1.422-0.471-1.837,0.239-2.69
			c1.434-1.722,3.534-2.386,5.467-3.121C76.365,49.421,77.171,50.619,77.216,51.997z"/>
		<path style="fill-rule:evenodd;clip-rule:evenodd;fill:#7B491E;" d="M306.073,129.274c-0.575,1.365-1.211,3.396-2.853,4.869
			c-0.66,0.593-1.23-0.093-1.647-0.419c-0.925-0.722-1.985-1.921-1.347-2.896c0.777-1.188,0.805-2.717,1.906-3.68
			c0.657-0.574,1.194-1.742,2.252-1.063C305.241,126.633,306.288,127.279,306.073,129.274z"/>
		<path style="fill-rule:evenodd;clip-rule:evenodd;fill:#7B491E;" d="M34.572,51.236c-0.087,2.217-1.369,2.921-3.216,2.094
			c-1.678-0.751-3.191-1.556-4.029-3.357c-0.352-0.756-0.653-1.555-0.126-2.05c0.48-0.451,1.204-0.909,2.181-0.254
			c1.18,0.791,2.683,1.081,3.954,1.761C34.029,49.8,34.789,50.376,34.572,51.236z"/>
		<path style="fill-rule:evenodd;clip-rule:evenodd;fill:#7B491E;" d="M62.99,59.871c0.877,1.865-2.123,1.056-2.137,2.825
			c-0.014,1.759-1.374,1.811-3.059,1.473c-0.835-0.167-1.834-0.128-2.191-0.805c-0.501-0.948-0.571-2.217,0.55-2.906
			c1.681-1.033,3.813-0.939,5.438-2.441C62.329,57.335,63.032,58.639,62.99,59.871z"/>
		<path style="fill-rule:evenodd;clip-rule:evenodd;fill:#7B491E;" d="M310.709,160.96c0,0.677,0.104,1.374-0.028,2.022
			c-0.143,0.692,0.687,1.789-0.733,2.021c-1.104,0.179-2.084-0.116-2.581-1.122c-0.995-2.015-0.385-4.162-0.248-6.243
			c0.093-1.398,1.294-1.315,2.317-1.248c1.119,0.074,1.306,0.845,1.278,1.782C310.687,159.101,310.708,160.031,310.709,160.96z"/>
		<path style="fill-rule:evenodd;clip-rule:evenodd;fill:#7B491E;" d="M336.954,34.548c-1.855,0.15-3.118-0.657-3.362-2.508
			c-0.206-1.55,1.92-3.6,3.525-3.274c1.622,0.329,2.728,1.729,2.739,3.324C339.869,33.685,338.798,34.759,336.954,34.548z"/>
		<path style="fill-rule:evenodd;clip-rule:evenodd;fill:#7B491E;" d="M305.167,122.089c-0.406,0.829-0.511,1.85-1.7,2.393
			c-1.34,0.61-1.714-0.553-2.062-1.105c-1.003-1.597-2.927-3.109-0.869-5.34c1.218-1.32,2.035-1.248,3.067,0.132
			C304.463,119.316,304.614,120.692,305.167,122.089z"/>
		<path style="fill-rule:evenodd;clip-rule:evenodd;fill:#7B491E;" d="M234.57,91.874c-0.505,1.337-0.972,2.973-1.736,4.455
			c-0.559,1.083-1.463,0.812-2.241-0.014c-1.766-1.874-1.292-5.374,0.932-6.688C232.916,88.806,234.539,89.862,234.57,91.874z"/>
		<path style="fill-rule:evenodd;clip-rule:evenodd;fill:#7B491E;" d="M88.885,60.955c0.006-1.057,2.022-2.946,3.553-3.083
			c1.517-0.135,2.221,0.703,2.341,1.918c0.164,1.651-2.508,4.918-3.743,4.676C89.476,64.159,88.829,63,88.885,60.955z"/>
		<path style="fill-rule:evenodd;clip-rule:evenodd;fill:#7B491E;" d="M262.46,101.574c0.517,2.299,1.048,4.595,1.538,6.899
			c0.157,0.739-0.126,1.427-0.844,1.649c-0.846,0.264-1.68,0.07-2.229-0.745c-1.153-1.71-1.279-3.755-1.378-5.654
			c-0.083-1.588,1.781-1.629,2.958-2.101L262.46,101.574z"/>
		<path style="fill-rule:evenodd;clip-rule:evenodd;fill:#7B491E;" d="M19.341,54.556c0.004,0.827-2.862,3.79-3.722,3.845
			c-1.199,0.077-2.963-2.275-2.871-3.893c0.074-1.299,0.313-2.316,1.916-1.075c0.736,0.57,1.518,0.845,2.243-0.3
			c0.431-0.681,1.472-0.433,2.109-0.198C19.609,53.154,19.263,53.992,19.341,54.556z"/>
		<path style="fill-rule:evenodd;clip-rule:evenodd;fill:#7B491E;" d="M359.468,46.271c0.183,1.701-0.734,2.065-2.168,2
			c-2.044-0.093-3.656-1.413-3.402-3.126c0.229-1.538,1.209-2.615,2.922-2.449C358.972,42.904,359.232,44.618,359.468,46.271z"/>
		<path style="fill-rule:evenodd;clip-rule:evenodd;fill:#7B491E;" d="M259.318,135.234c0.658-1.48,0.391-3.688,2.646-3.661
			c2.07,0.025,2.098,2.559,1.844,3.315c-0.413,1.232,0.787,3.837-2.062,3.71C259.526,138.499,259.939,136.513,259.318,135.234z"/>
		<path style="fill-rule:evenodd;clip-rule:evenodd;fill:#7B491E;" d="M262.505,101.623c-0.006-1.364,0.001-2.729-0.023-4.093
			c-0.031-1.79,0.886-2.95,2.594-3.026c2.078-0.093,1.427,1.674,1.447,2.791c0.062,3.243-0.906,4.212-4.062,4.278
			C262.46,101.574,262.505,101.623,262.505,101.623z"/>
		<path style="fill-rule:evenodd;clip-rule:evenodd;fill:#7B491E;" d="M306.672,138.968c0.216,2.12-1.609,3.145-2.845,3.386
			c-1.396,0.273-1.775-1.486-1.762-2.902c0.017-1.66-0.121-3.435,2.281-3.351C306.108,136.162,306.462,137.559,306.672,138.968z"/>
		<path style="fill-rule:evenodd;clip-rule:evenodd;fill:#7B491E;" d="M80.761,56.802c-0.017-1.183,0.543-1.498,1.528-0.915
			c0.738,0.437,1.324,0.908,2.356,0.676c0.392-0.088,1.907,0.445,1.625,1.488c-0.325,1.201-0.692,2.624-1.828,3.306
			c-0.862,0.519-1.883-0.011-2.353-0.902C81.488,59.312,80.555,58.252,80.761,56.802z"/>
		<path style="fill-rule:evenodd;clip-rule:evenodd;fill:#7B491E;" d="M288.351,124.476c0.059-2.801,2.545-1.194,3.92-1.672
			c1.255-0.435,1.297,0.594,1.151,1.354c-0.298,1.564-0.712,3.45-2.482,3.663C289.144,128.037,288.501,126.433,288.351,124.476z"/>
		<path style="fill-rule:evenodd;clip-rule:evenodd;fill:#7B491E;" d="M36.751,73.61c-0.411,1.632-0.641,3.322-2.119,3.257
			c-1.76-0.076-2.651-1.517-2.618-3.396c0.024-1.37,0.569-2.28,1.975-2.349C35.932,71.028,35.668,73.076,36.751,73.61z"/>
		<path style="fill-rule:evenodd;clip-rule:evenodd;fill:#7B491E;" d="M41.628,68.808c-0.087-1.614,0.893-1.719,2.134-1.799
			c2.336-0.152,2.163,1.713,2.425,3.019c0.292,1.452-1.208,2.45-2.067,2.295C42.487,72.03,41.881,70.395,41.628,68.808z"/>
		<path style="fill-rule:evenodd;clip-rule:evenodd;fill:#7B491E;" d="M6.306,57.898c2.312-0.077,2.705,1.292,2.906,2.997
			c0.205,1.738-0.844,1.504-1.966,1.607c-2.212,0.204-2.772-1.394-2.92-2.894C4.229,58.636,4.879,57.308,6.306,57.898z"/>
		<path style="fill-rule:evenodd;clip-rule:evenodd;fill:#7B491E;" d="M307.635,148.472c0.164,1.473-0.124,2.344-1.814,2.355
			c-2.498,0.018-1.658-2.153-2.108-3.281c-0.47-1.177,1.181-1.764,1.91-1.696C306.991,145.975,308.107,146.834,307.635,148.472z"/>
		<path style="fill-rule:evenodd;clip-rule:evenodd;fill:#7B491E;" d="M52.442,67.535c-2.132,0.189-2.549-1.206-2.592-2.667
			c-0.023-0.8,0.099-1.936,1.43-1.882c1.755,0.071,2.819,1.091,2.848,2.752C54.143,66.581,54,68.077,52.442,67.535z"/>
		<path style="fill-rule:evenodd;clip-rule:evenodd;fill:#7B491E;" d="M66.782,55.556c0.57,0.208,2.039,0.457,2.292,2.197
			c0.195,1.339-1.078,2.488-1.704,2.425c-1.639-0.167-2.032-2.006-2.742-3.271C64.518,56.71,64.698,55.121,66.782,55.556z"/>
		<path style="fill-rule:evenodd;clip-rule:evenodd;fill:#7B491E;" d="M40.666,72.492c0.03,1.229-0.659,2.167-1.855,2.085
			c-1.34-0.091-1.763-1.217-1.727-2.542c0.031-1.132,0.191-2.059,1.599-1.936C40.067,70.22,40.712,71.053,40.666,72.492z"/>
		<path style="fill-rule:evenodd;clip-rule:evenodd;fill:#7B491E;" d="M363.513,45.114c-0.05,0.913,0.159,1.956-0.871,1.864
			c-0.986-0.087-1.866-0.696-1.693-2.025c0.092-0.704-0.065-1.584,1-1.495C363.002,43.546,363.903,43.948,363.513,45.114z"/>
		<path style="fill-rule:evenodd;clip-rule:evenodd;fill:#7B491E;" d="M25.915,52.089c0.002,0.8-0.573,1.312-1.127,1.478
			c-0.68,0.202-0.831-0.468-0.889-1.068c-0.071-0.738,0.14-1.436,0.809-1.631C25.646,50.595,25.343,51.83,25.915,52.089z"/>
	</g>
</g>
</svg>
