<?xml version="1.0" encoding="iso-8859-1"?>
<!-- Generator: Adobe Illustrator 16.0.0, SVG Export Plug-In . SVG Version: 6.00 Build 0)  -->
<!DOCTYPE svg PUBLIC "-//W3C//DTD SVG 1.1//EN" "http://www.w3.org/Graphics/SVG/1.1/DTD/svg11.dtd">
<svg version="1.1" id="Layer_1" xmlns="http://www.w3.org/2000/svg" xmlns:xlink="http://www.w3.org/1999/xlink" x="0px" y="0px"
	 width="401.56px" height="156.488px" viewBox="0 0 401.56 156.488" style="enable-background:new 0 0 401.56 156.488;"
	 xml:space="preserve">
<g>
	<g>
		<path style="fill:none;" d="M200.779,155.943c-66.041,0-132.082-0.008-198.122,0.044c-1.76,0.002-2.159-0.396-2.157-2.156
			c0.055-50.47,0.055-100.939,0-151.408C0.498,0.815,0.815,0.5,2.423,0.5c132.237,0.048,264.476,0.048,396.713,0
			c1.607,0,1.925,0.315,1.924,1.922c-0.055,50.548-0.055,101.095,0,151.643c0.001,1.607-0.316,1.924-1.924,1.923
			C333.018,155.936,266.898,155.943,200.779,155.943z M91.786,68.906c0.862-1.03,2.551-0.786,3.199-2.341
			c1.314-3.156,4.386-3.978,7.27-4.396c1.776-0.258,3.067-0.562,4.239-1.985c0.816-0.991,1.525-1.939,0.943-3.078
			c-0.625-1.224-1.754-1.159-2.834-0.361c-0.164,0.122-0.444,0.13-0.667,0.121c-4.776-0.201-8.719,2.329-11.788,5.203
			c-3.784,3.545-8.558,5.04-12.591,7.903c-0.11,0.079-0.305,0.051-0.46,0.051c-5.016-0.018-9.824,1.555-14.789,1.968
			c-0.616,0.052-1.064,0.188-1.26-0.402c-0.174-0.523,0.314-0.92,0.731-1.047c1.432-0.435,2.049-1.495,2.838-2.684
			c0.573-0.862,1.327-2.351,3.055-2.086c1.315,0.202,3.033,0.207,3.073-1.533c0.038-1.635-1.754-2.093-3.061-2.628
			c-0.469-0.192-1.155-0.201-1.618-0.003c-2.303,0.985-4.974,0.682-7.141,2.185c-1.719,1.192-3.649,1.551-5.811,1.656
			c-2.258,0.11-4.555,0.746-6.536,2.255c-2.564,1.953-5.722,2.525-8.796,3.324c-2.526,0.656-5.098,0.844-7.639,1.266
			c-3.455,0.574-6.8,1.995-10.412,1.494c-0.904-0.125-1.781-0.05-2.724-0.371c-2.049-0.698-4.391,0.574-5.361,2.481
			c-1.043,2.051,0.544,3.127,1.748,3.928c2.22,1.476,4.63,2.717,7.08,3.782c2.916,1.268,5.941,0.345,8.755-0.433
			c4.183-1.156,8.419-2.914,12.664-2.166c3.311,0.584,6.718,1.309,9.77,0.55c3.033-0.753,5.943-0.644,8.898-0.67
			c1.936-0.018,3.611-0.578,5.243-1.389c2.147-1.066,4.052-0.718,5.612,1.084c0.851,0.982,1.778,1.874,2.873,2.656
			c2.932,2.098,6.19,2.617,9.606,2.243c2.696-0.295,5.138,0.916,7.74,0.959c3.833,0.062,7.667,0.051,11.501-0.004
			c1.334-0.019,2.276,0.219,3.009,1.551c0.839,1.526,2.137,2.551,4.186,2.269c1.419-0.195,2.81,0.222,4.254,0.613
			c3.816,1.032,7.644,1.004,10.877-1.949c0.83-0.758,1.033-1.669,0.699-2.512c-0.354-0.895-1.418-0.461-2.085-0.355
			c-0.695,0.109-1.401,0.588-1.952,1.075c-0.954,0.847-1.654,0.807-2.859,0.213c-1.912-0.941-3.543-2.551-5.984-2.505
			c-0.967,0.018-2.105-0.62-3.047-1.384c-0.824-0.668-1.843-1.102-3.059-1.319c-2.639-0.474-5.254-0.272-7.878-0.368
			c-0.632-0.023-1.227,0.07-1.239-0.91c-0.012-0.938,0.519-0.858,1.172-0.996c2.794-0.589,5.488,0.467,7.906,1.231
			c4.604,1.456,8.948,2.215,13.703,0.899c1.419-0.392,2.741-1.141,4.326-1.218c5.805-0.284,11.462-1.656,17.115-2.875
			c1.905-0.411,3.396-0.271,4.961,0.675c1.435,0.867,2.928,1.798,4.627,1.745c4.208-0.131,8.361,0.831,12.57,0.514
			c0.461-0.034,0.958-0.05,1.394,0.077c4.686,1.365,9.542,1.743,14.337,1.691c5.129-0.056,10.191-1.507,15.384-1.322
			c1.376,0.049,2.726-0.043,4.12-0.383c2.644-0.643,5.212-0.526,7.447,1.573c1.024,0.963,2.532,1.191,4.082,1.223
			c4.659,0.092,9.277-0.875,13.857-0.826c5.941,0.064,11.792-1.56,17.736-0.652c0.424,0.064,0.894-0.24,1.34-0.232
			c3.005,0.053,6.188-1.568,8.961,0.75c2.057,1.719,4.045,3.508,6.379,4.869c0.409,0.238,0.692,0.823,0.867,1.309
			c1.129,3.146,2.765,6.021,4.328,8.965c1.739,3.274,3.708,6.191,6.34,8.825c1.983,1.985,4.034,3.708,6.516,4.962
			c1.842,0.932,3.575,0.599,5.086-0.621c1.637-1.323,2.023-3.763,4.117-4.774c0.241-0.116,0.226-1.023-0.168-1.51
			c-0.438-0.539-0.832-0.488-1.373-0.072c-0.934,0.718-2.046,1.08-2.766,2.223c-1.042,1.651-2.02,1.496-3.115-0.178
			c-0.497-0.761-0.842-1.732-1.527-2.243c-5.009-3.735-7.659-9.171-10.548-14.429c-1.773-3.229-2.372-7.319-6.541-8.726
			c-0.557-0.188-0.479-0.345-0.259-0.756c0.186-0.346,0.297-0.844,0.759-0.658c2.83,1.135,5.644-0.165,8.448-0.002
			c4.627,0.271,9.246-0.131,13.863-0.008c5.359,0.144,10.513-0.342,15.229-3.276c1.151-0.717,2.538-1.162,3.931-1.567
			c2.462-0.716,4.997-0.542,7.43-1.211c5.071-1.396,10.257-1.169,15.356-0.409c4.614,0.688,9.242,1.431,13.872,1.642
			c4.355,0.198,7.159,1.814,9.059,5.748c1.799,3.727,4.199,6.764,8.881,7.681c2.796,0.548,5.695,1.38,8.42,2.564
			c1.735,0.755,3.46,1.468,5.033,2.523c0.853,0.572,1.817,0.65,2.565-0.012c0.713-0.632,0.71-1.872,0.145-2.338
			c-1.741-1.433-2.678-3.634-5.123-4.474c-2.28-0.784-4.533-1.605-6.874-2.232c-2.787-0.744-5.555-1.639-7.525-3.996
			c-0.76-0.907-0.93-1.607,0.422-2.049c0.43-0.14,0.878-0.523,1.262-0.458c6.875,1.157,13.828-2.904,20.695,0.403
			c2.567,1.236,5.644-0.05,8.305,1.389c1.159,0.626,2.622,0.699,3.952,0.995c2.267,0.505,3.539-0.348,3.902-2.589
			c0.363-2.241-1.158-4.346-3.23-4.456c-0.833-0.044-1.761,0.231-2.345-0.652c-0.801-1.211-1.97-1.317-3.276-1.241
			c-2.726,0.159-5.257-0.284-7.57-1.983c-0.857-0.63-2.177-0.601-3.398-0.542c-3.003,0.145-5.882,1.022-8.89,1.24
			c-2.707,0.196-5.465-0.021-8.101,0.451c-2.916,0.522-5.64,0.174-8.253-0.849c-3.812-1.493-7.636-2.536-11.771-2.076
			c-0.686,0.077-1.428,0.066-2.087-0.113c-4.55-1.237-9.277-0.999-13.888-1.735c-3.351-0.535-6.514,1.039-9.861,0.972
			c-3.315-0.066-3.241,0.135-1.862-2.871c0.766-1.669,1.741-2.838,3.671-2.3c2.506,0.701,4.068-0.465,5.266-2.39
			c2.235-3.592,3.809-7.728,8.217-9.444c0.757-0.294,0.844-1.088,0.688-1.813c-0.186-0.868-0.934-1.176-1.614-0.915
			c-2.344,0.897-5.123,1.283-6.451,3.704c-0.809,1.476-1.761,2.812-2.669,4.203c-0.926,1.416-1.962,1.698-3.458,0.969
			c-2.021-0.983-3.77-0.662-5.149,1.247c-1.967,2.72-4.101,5.326-5.943,8.125c-2.457,3.73-6.252,5.691-10.15,6.892
			c-2.828,0.872-6.145,0.494-9.229,0.567c-5.435,0.127-10.876,0.044-16.328-0.266c-6.401-0.364-12.812,0.898-19.26,0.949
			c-1.884,0.015-3.877-0.349-5.614,0.01c-3.378,0.698-6.729,0.733-10.121,0.82c-2.7,0.069-5.428-0.409-8.107,0.405
			c-0.421,0.128-1.281,0.435-1.488-0.557c2.847-1.28,5.997-1.754,8.423-4.04c2.047-1.928,5.043-2.171,7.498-3.31
			c3.259-1.511,6.597-2.455,10.013-3.314c1.153-0.29,2.154-1.013,2.083-2.096c-0.057-0.848-0.956-1.648-2.126-1.672
			c-1.55-0.031-3.066,0.068-4.58,0.463c-3.139,0.818-6.504,1.109-9.4,2.436c-3.726,1.708-6.885,4.503-10.724,6.196
			c-1.652,0.729-3.035,0.972-4.573,0.457c-2.799-0.938-5.469-0.704-8.327-0.043c-2.881,0.666-5.69,1.726-8.571,2.149
			c-6.142,0.903-12.23,2.417-18.523,2.087c-2.739-0.143-5.591,0.331-8.206-0.274c-3.718-0.861-7.402-1.541-11.213-1.761
			c-3.887-0.226-7.823,0.771-11.683-0.828c-1.738-0.72-1.453-1.641-0.67-2.426c1.493-1.497,3.189-2.192,5.585-1.562
			c3.506,0.921,7.115,2.111,10.843,0.646c0.835-0.328,1.549-1.116,2.541-0.929c3.527,0.664,6.943-0.02,10.357-0.786
			c1.144-0.257,2.25-0.493,3.227,0.506c0.586,0.6,1.186,1.676,2.2,0.59c0.885-0.95,1.241-2.107,0.292-3.194
			c-1.249-1.431-2.786-2.464-4.8-2.302c-5.056,0.407-10.148-0.754-15.213,0.838c-2.963,0.932-6.063,0.25-9.15-0.662
			c-2.274-0.672-5.013-0.326-6.824,1.677c-2.164,2.393-4.699,4.095-7.653,5.317c-1.379,0.571-2.537,1.534-4.127,1.778
			c-5.189,0.8-10.344,1.825-15.53,2.649c-3.1,0.493-6.181,0.923-9.376,0.18c-3.905-0.909-7.765-1.96-11.885-2.046
			C98.564,71.246,94.94,70.744,91.786,68.906z M9.935,27.831c0.111,0.604,0.068,1.251,0.293,1.955
			c1.012,3.172,3.621,3.475,6.239,3.584c2.461,0.102,5.013,0.001,7.243,0.98c3.023,1.327,6.029,0.895,9.015,0.488
			c2.754-0.375,5.427-1.316,8.161-1.885c4.738-0.987,9.51-1.905,13.93-3.924c3.804-1.738,7.318-4.34,11.878-3.139
			c0.145,0.038,0.337,0.046,0.464-0.018c2.641-1.32,5.446-0.15,8.112-0.205c3.157-0.065,6.557,1.019,9.43,2.916
			c1.448,0.957,3.326,1.348,4.782,0.893c5.626-1.757,11.361-1.219,17.059-1.172c2.881,0.023,5.815,0.276,8.373-1.069
			c2.917-1.535,5.914-1.702,9.074-1.906c2.468-0.16,4.999-0.005,7.393-0.463c2.472-0.474,4.992-0.659,7.404-1.986
			c2.703-1.487,5.729-2.149,8.489,0.99c2.429,2.763,9.362,2.895,12.498,0.797c2.415-1.615,5.16-2.835,7.91-2.859
			c3.7-0.032,7.41,0.88,11.112,1.415c3.387,0.488,6.788,1.552,10.145-0.018c1.712-0.801,3.452-1.242,5.334-1.061
			c1.811,0.175,3.444-0.434,5.143-0.951c2.079-0.633,4.186-1.345,6.47-0.607c4.229,1.366,8.502,2.697,13.036,2.006
			c3.066-0.467,6.103,0.145,9.156,0.04c2.151-0.075,4.311,0.119,6.309-0.969c2.584-1.407,5.51-1.967,8.1-3.495
			c1.748-1.032,4.209-1.683,6.18-0.989c5.17,1.823,10.597,2.033,15.888,3.05c3.212,0.618,6.487,1.089,9.652,1.795
			c2.974,0.664,5.89,1.066,8.559-0.007c3.951-1.589,8.073-1.974,12.162-2.643c1.691-0.276,3.626-0.404,4.256,1.991
			c0.145,0.552,0.73,0.782,1.268,0.915c3.128,0.774,6.36,1.627,9.508,1.142c3.527-0.543,6.872-0.967,10.228,0.563
			c1.129,0.515,2.387,0.432,3.613,0.534c6.774,0.563,13.228-1.459,19.832-2.251c1.488-0.178,2.932-0.983,4.707-0.224
			c5.698,2.436,11.49,1.387,17.361,0.25c3.813-0.738,7.661-0.018,10.598,3.06c0.537,0.563,1.098,0.894,1.942,1.076
			c2.277,0.489,4.261,1,6.79,0.106c3.108-1.099,6.687-0.441,10.044-1.036c1.778-0.315,2.371-1.357,2.606-2.721
			c0.222-1.285-0.126-3.289-1.312-3.282c-3.325,0.022-6.567-1.062-9.938-0.458c-1.928,0.345-4.221,1.484-5.891,0.041
			c-3.365-2.908-7.469-3.134-11.42-3.354c-2.133-0.119-4.462,0.816-6.725,1.057c-2.99,0.317-6.143,0.85-8.937-0.417
			c-2.914-1.322-5.915-1.096-8.688-0.656c-6.254,0.995-12.491,1.753-18.822,1.744c-1.497-0.002-2.729-0.509-4.037-1.294
			c-1.69-1.014-3.497-1.691-5.764-1.2c-3.187,0.691-6.51,0.573-9.725-0.267c-0.851-0.223-2.017,0.484-2.536-0.516
			c-1.412-2.716-4.271-2.744-6.416-2.653c-3.354,0.143-6.782,0.615-10.098,1.659c-3.912,1.233-7.841,2.227-12.104,0.698
			c-1.591-0.57-3.478-1.178-5.329-1.117c-4.262,0.141-8.38-1.562-12.677-0.968c-0.275,0.038-0.589-0.132-0.874-0.235
			c-6.93-2.503-13.187-0.654-19.5,2.473c-3.113,1.542-6.58,2.854-10.427,1.045c-1.945-0.916-4.026-2.343-6.477-1.743
			c-2.604,0.638-5.166,0.44-7.769-0.109c-2.743-0.578-5.585-1.516-8.283-1.255c-2.824,0.272-5.743,0.744-8.517,1.513
			c-3.762,1.043-7.645,1.587-11.448,1.921c-3.811,0.334-7.742-0.641-11.555-1.479c-1.462-0.32-2.876-0.291-4.351,0.012
			c-1.489,0.305-3.036,0.47-4.507,0.771c-3.17,0.648-6.375,0.769-9.561,1.148c-2.19,0.261-4.69-0.454-5.822-1.705
			c-1.526-1.685-3.064-1.59-4.543-1.297c-1.854,0.366-3.705,0.814-5.583,1.097c-3.79,0.569-7.345,2.025-11.454,1.302
			c-3.96-0.697-8.364-0.909-12.013,1.353c-3.284,2.036-6.527,2.717-10.198,1.784c-0.735-0.187-1.549-0.58-2.22-0.422
			c-3.938,0.924-7.92,0.419-11.86,0.343c-3.613-0.07-7.056-1.298-9.78-3.812c-1.918-1.771-4.168-2.447-6.622-2.672
			C66.738,11.166,60.256,13.806,53.674,16c-2.019,0.673-3.812,1.809-5.865,2.43c-3.736,1.132-7.446,2.376-10.925,4.214
			c-3.862,2.04-7.779,3.854-12.372,3.288c-1.408-0.173-2.84,0.454-4.185,0.663c-2.363,0.367-5.017,1.049-7.406-0.636
			C11.17,24.725,9.938,25.558,9.935,27.831z M138.788,133.04c2.204,1.91,4.693,1.796,7.475,1.565
			c3.231-0.27,6.242-1.556,9.444-1.639c4.555-0.117,8.78,1.746,13.205,2.459c2.185,0.352,4.502,1.507,6.542,0.591
			c6.007-2.698,12.099-0.125,18.112-0.692c0.191-0.019,0.393,0.256,0.611,0.313c3.635,0.947,7.096,1.78,10.769-0.545
			c2.003-1.268,4.814-2.054,7.281-0.922c1.614,0.741,2.513,0.31,3.556-0.735c1.879-1.882,3.996-3.289,6.801-3.326
			c1.245-0.017,2.275-0.96,2.23-1.92c-0.056-1.197-1.345-1.491-2.54-1.363c-0.469,0.05-0.849,0.191-1.281,0.41
			c-2.136,1.079-4.238,1.689-6.239-0.444c-0.863-0.921-2.06-1.137-3.396-0.688c-7.104,2.39-14.513,2.345-21.876,2.592
			c-1.61,0.054-3.219-0.917-4.806-0.403c-2.817,0.911-5.649,1.785-8.586,2.07c-3.779,0.365-7.632,0.745-11.355-0.161
			c-4.796-1.166-9.478-1.012-14.177,0.297c-3.417,0.952-6.874,1.795-10.25,0.036c-1.919-1-3.807-0.716-5.747-0.398
			c-0.763,0.125-1.414,0.444-1.356,1.4c0.069,1.134,2.507,4.032,3.535,3.966C138.114,135.414,138.12,133.947,138.788,133.04z
			 M376.479,128.943c0.363,0.914,2.747-0.341,1.791,1.236c-1.6,2.642,0.609,3.582,1.459,5.103c0.395,0.705,1.09,1.807,2.199,1.327
			c1.019-0.441,1.544-1.47,1.706-2.595c0.143-0.991,1.702-3.122,2.571-3.306c1.377-0.29,2.678-1.086,4.215-0.252
			c0.622,0.338,1.525-0.289,1.935-0.91c0.448-0.68,0.22-1.378-0.318-2.11c-1.347-1.836-3.137-1.821-4.994-1.336
			c-1.164,0.305-2.495,0.672-3.349-0.017c-2.487-2.007-5.279-0.846-7.924-1.107c-0.46-0.045-1.14,0.626-1.312-0.173
			c-0.086-0.392,0.324-0.928,0.882-1.342c2.568-1.907,4.354-4.322,4.085-7.774c-0.078-1.002,0.548-1.703,1.111-2.446
			c0.64-0.843,1.127-1.805,1.788-2.627c0.799-0.995-0.143-1.735-0.357-2.507c-0.237-0.854-1.167-0.15-1.539,0.003
			c-3.109,1.281-5.128,3.73-6.104,6.838c-0.584,1.855-1.402,3.44-2.888,4.556c-1.929,1.448-3.653,2.966-4.808,5.165
			c-0.49,0.934-1.281,2.239-2.567,2.119c-4.38-0.409-8.681,1.479-13.025,0.465c-1.709-0.397-3.664,0.187-5.103-0.905
			c-1.566-1.188-2.938-1.581-4.678-0.483c-0.751,0.473-1.664,0.729-2.535,0.96c-1.114,0.296-1.456,1.248-1.485,2.083
			c-0.035,0.991,0.73,1.504,1.811,1.724c1.822,0.37,3.59,0.961,5.362,1.576c3.438,1.194,7.038,2.514,10.855,0.891
			c1.07-0.455,2.392-0.152,3.648,0.101c3.014,0.607,6.436,0.002,8.537-1.562C370.327,129.495,373.397,130.067,376.479,128.943z
			 M243.21,129.84c3.889-0.003,7.115,2.479,8.156,6.219c0.483,1.735,0.394,3.604,1.423,5.221c2.271,3.567,6.674,3.452,9.712,5.696
			c0.421,0.312,1.294,0.21,1.623-0.764c0.221-0.653,0.502-1.291-0.124-1.637c-2.309-1.273-3.169-4.073-5.744-5.143
			c-1.469-0.609-2.633-1.865-2.338-3.857c0.178-1.202-0.517-2.266-1.305-3.038c-0.589-0.578-0.91-1.146-1.009-1.889
			c-0.364-2.748-1.357-3.375-4.116-3.398c-2.086-0.018-4.162-1.392-6.264,0.023c-0.065,0.044-0.332-0.079-0.398-0.188
			c-1.382-2.308-2.998-0.509-4.41-0.138c-1.296,0.341-2.275,2.98-1.573,3.925c0.977,1.313,2.208,1.287,3.619,0.475
			C241.362,130.83,242.06,129.903,243.21,129.84z M278.246,133.873c1.361,0.209,1.722-1.166,2.629-1.644
			c1.478-0.777,2.42-1.571,1.426-3.416c-0.349-0.648-0.044-1.308,0.851-1.813c1.021-0.575,2.464-0.178,3.116-1.203
			c1.412-2.22,2.627-4.564,3.964-6.833c0.623-1.059-0.235-1.472-0.776-2.037c-0.644-0.673-1.23-0.004-1.522,0.306
			c-0.717,0.759-1.562,1.392-2.309,2.097c-1.693,1.604-2.49,4.411-5.543,4.376c-0.644-0.007-0.932,0.978-0.959,1.447
			c-0.093,1.591-0.688,2.581-2.084,3.504c-1.131,0.749-1.761,2.21-0.907,3.779C276.608,133.313,277.138,133.988,278.246,133.873z
			 M51.546,136.024c0.765-0.488,1.58-0.351,2.304-0.596c2.123-0.72,3.904-2.255,6.324-2.34c1.321-0.047,2.728-0.016,4.048-0.597
			c2.104-0.927,3.217-3.567,2.315-5.216c-1.489-2.719-6.006-1.197-6.933,1.414c-0.842,2.372-2.586,2.457-3.912,1.666
			c-2.026-1.208-3.54-0.068-5.146,0.414c-1.068,0.321-1.874,1.569-1.54,2.796C49.345,134.806,50.175,135.868,51.546,136.024z
			 M304.498,131.035c1.812,0.428,3.503-0.358,5.258-0.472c0.842-0.055,1.354-0.681,1.565-1.482c0.139-0.525-0.168-1.078-0.594-1.129
			c-1.434-0.17-1.949-1.262-2.667-2.247c-0.703-0.964-1.536-1.666-2.901-0.783c-1.372,0.888-2.912,1.512-4.318,2.351
			c-0.831,0.494-0.921,1.317-0.634,2.242C300.968,131.969,303.008,130.744,304.498,131.035z M324.068,129.084
			c-0.787,1.184,0.521,1.832,1.26,2.019c2.531,0.642,4.716,2.448,7.644,1.931c1.346-0.238,2.126-0.869,2.194-1.837
			c0.076-1.081-0.948-1.575-2.111-1.57c-0.567,0.001-1.197,0.347-1.595-0.74c-0.859-2.354-3.836-3.199-6.223-2.192
			C324.149,127.153,323.9,127.832,324.068,129.084z M77.813,138.46c0.359-0.623,1.72-0.747,1.177-1.92
			c-0.621-1.341-0.551-2.708-0.492-4.081c0.051-1.176-0.492-1.818-1.464-2.357c-2.447-1.356-3.949-1.1-5.856,0.941
			c-0.805,0.86-0.942,1.531-0.021,2.336c1.568,1.37,3.088,2.795,4.691,4.122C76.356,137.921,77.062,138.104,77.813,138.46z
			 M106.171,132.712c0,0.213,0.054,0.396-0.008,0.521c-0.871,1.767,0.126,2.729,1.567,3.309c1.933,0.777,3.361-0.284,4.302-1.781
			c0.837-1.332,0.157-2.686-1.094-3.331c-1.662-0.857-3.069-1.574-2.054-3.823c0.084-0.186-0.637-1.029-1.053-1.089
			c-1.239-0.18-2.476,0.167-3.211,1.231c-0.597,0.864-0.562,1.871,0.259,2.728C105.5,131.124,106.445,131.611,106.171,132.712z
			 M103.808,140.361c0.379-1.464-0.845-1.728-1.757-2.237c-0.241-0.135-1.013-0.082-0.677-0.351c1.237-0.991,0.062-2.411,0.79-3.396
			c0.605-0.818-0.102-1.418-0.477-1.747c-0.925-0.813-3.575,0.229-4.41,1.57c-1.048,1.685-0.21,2.64,1.323,3.112
			c1.455,0.449,1.422,0.97,0.537,2.027c-0.588,0.702-1.32,1.457-0.656,2.644c0.612,1.092,1.212,2.045,2.621,1.715
			C102.802,143.298,104.037,142.419,103.808,140.361z M114.654,130.623c0.002,0.01-0.048,0.669,0.228,0.862
			c1.853,1.3,3.771,2.572,5.989,3.1c0.832,0.198,1.675-0.636,1.209-1.571c-0.65-1.309-0.246-2.298,0.313-3.449
			c0.509-1.05-1.073-3.085-1.948-2.563c-1.484,0.883-3.229,0.809-4.711,1.644C115.036,129.039,114.583,129.355,114.654,130.623z
			 M291.056,132.555c1.788-0.34,3.565-0.791,5.369-0.973c0.896-0.09,0.767-0.852,1.222-1.18c-0.416-0.393-0.376-1.032-1.094-1.356
			c-0.7-0.316-1.792-0.109-2.105-1.189c-0.448-1.544-1.877-1.235-2.709-0.932c-1.497,0.547-3.481,0.386-4.287,2.213
			c-0.19,0.432-0.199,1.065,0.261,1.532C288.643,131.615,289.545,132.585,291.056,132.555z M262.062,126.367
			c-2.484-0.009-5.2,2.072-5.177,3.79c0.023,1.737,1.839,2.818,4.667,2.779c1.419-0.02,2.772-2.326,2.841-4.84
			C264.446,126.177,262.981,126.506,262.062,126.367z M129.595,127.771c-1.471,0.026-4.096,1.887-4.099,3.179
			c-0.004,1.646,0.956,2.812,2.552,3.41c0.628,0.235,1.295,0.496,1.794,0.922c0.75,0.639,1.313,0.616,2.001-0.059
			c0.65-0.636,0.752-1.16,0.288-2.025c-0.525-0.979-1.207-1.905-0.718-3.321C131.674,129.121,131.066,127.736,129.595,127.771z
			 M34.809,130.579c-2.334,0.052-4.783,2.117-4.658,3.452c0.094,0.998,2.906,3.65,3.791,3.576c0.81-0.068,3.235-3.241,3.221-4.227
			C37.135,131.456,36.056,130.63,34.809,130.579z M45.472,132.226c-0.113-0.278-0.185-0.669-0.403-0.945
			c-0.836-1.06-1.799-2.142-3.3-1.562c-1.624,0.628-3.397,1.354-3.627,3.413c-0.235,2.107,1.189,3.708,2.593,3.123
			c0.893-0.372,1.831-0.738,2.586-1.317C44.228,134.242,45.111,133.441,45.472,132.226z M272.849,129.085
			c0.041-0.609,0.016-1.307-0.849-1.787c-1.395-0.775-4.257-0.424-5.313,0.767c-1.149,1.293-1.202,4.209-0.086,4.815
			C268.291,133.8,272.809,131.19,272.849,129.085z M320.291,127.291c-0.066-1.267-0.341-2.297-1.329-2.729
			c-2.487-1.087-6.517,1.93-6.203,4.59c0.165,1.397,0.983,2.102,2.286,1.404c1.278-0.685,2.439-1.403,3.979-1.517
			C319.776,128.984,320.434,128.101,320.291,127.291z M312.281,141.56c0.016-2.238-0.477-2.94-2.042-2.986
			c-2.263-0.068-4.705,1.462-4.502,2.939c0.302,2.189,2.062,2.52,3.847,2.689C311.57,144.391,312.478,143.478,312.281,141.56z
			 M26.366,135.042c0-1.714-2.076-4.175-3.487-3.841c-1.486,0.353-2.497,1.502-2.594,3.128c-0.086,1.431,2.086,3.264,3.706,3.313
			C25.828,137.698,26.485,136.74,26.366,135.042z M302.193,132.47c-2.897-0.019-3.729,1.283-2.592,3.784
			c0.343,0.753,0.899,1.403,0.97,2.29c0.068,0.873,0.913,1.105,1.505,1.212c0.896,0.161,0.806-0.903,1.15-1.399
			c0.466-0.67-0.237-1.711,0.609-2.368c0.791-0.615,1.295-1.414,0.782-2.41C304.094,132.56,303.145,132.282,302.193,132.47z
			 M229.525,131.024c1.042,0.398,1.986-0.396,3.04-0.556c1.059-0.16,1.442-1.235,1.323-2.39c-0.124-1.204-0.917-1.232-1.832-1.256
			c-1.171-0.03-2.236,0.159-3.342,0.642c-1.057,0.461-2.065,0.897-1.813,2.149C227.148,130.843,228.202,131.247,229.525,131.024z
			 M239.978,122.938c0.006-1.627,0.138-3.174-1.647-3.569c-1.024-0.227-3.416,2.011-3.479,3.014
			c-0.065,1.062,2.114,3.031,3.312,3.052C240.223,125.467,239.9,123.96,239.978,122.938z M89.763,131.591
			c-0.233,1.752,0.635,2.761,2.095,3.181c0.796,0.229,2.987-2.369,3.059-3.373c0.123-1.724-1.225-2.591-2.373-2.534
			C91.172,128.932,89.363,129.458,89.763,131.591z M386.235,137.034c-0.774-0.208-1.281,0.833-1.502,1.766
			c-0.293,1.232,1.893,4.648,2.69,4.397c1.47-0.462,1.769-1.938,1.781-3.161C389.22,138.638,388.562,137.352,386.235,137.034z
			 M88.803,139.002c-0.378-0.711-0.725-1.658-1.325-2.401c-0.528-0.653-1.155-1.846-2.191-1.159
			c-0.903,0.601-1.493,1.536-0.848,2.941c0.416,0.902,0.965,1.56,1.688,2.042c0.376,0.251,0.652,1.3,1.395,0.57
			C88.045,140.483,88.842,140.118,88.803,139.002z M264.697,109.875c0.16-0.599,0.313-1.095-0.431-2.155
			C264.499,108.797,264.202,109.299,264.697,109.875z"/>
		<path style="fill-rule:evenodd;clip-rule:evenodd;fill:#7B491E;" d="M91.786,68.906c3.155,1.837,6.778,2.339,10.28,2.413
			c4.12,0.086,7.98,1.137,11.885,2.046c3.195,0.743,6.276,0.312,9.376-0.18c5.186-0.825,10.341-1.849,15.53-2.649
			c1.59-0.245,2.749-1.208,4.127-1.778c2.955-1.222,5.489-2.924,7.653-5.317c1.811-2.002,4.55-2.349,6.824-1.677
			c3.087,0.912,6.187,1.594,9.15,0.662c5.064-1.593,10.157-0.431,15.213-0.838c2.014-0.162,3.552,0.872,4.8,2.302
			c0.948,1.086,0.592,2.244-0.292,3.194c-1.014,1.086-1.614,0.01-2.2-0.59c-0.976-0.999-2.083-0.763-3.227-0.506
			c-3.414,0.766-6.83,1.45-10.357,0.786c-0.992-0.187-1.706,0.601-2.541,0.929c-3.728,1.465-7.336,0.275-10.843-0.646
			c-2.396-0.629-4.093,0.066-5.585,1.562c-0.783,0.785-1.067,1.706,0.67,2.426c3.86,1.598,7.796,0.602,11.683,0.828
			c3.811,0.221,7.495,0.9,11.213,1.761c2.615,0.605,5.467,0.132,8.206,0.274c6.292,0.329,12.381-1.185,18.523-2.087
			c2.881-0.423,5.69-1.484,8.571-2.149c2.858-0.66,5.528-0.894,8.327,0.043c1.538,0.515,2.921,0.272,4.573-0.457
			c3.839-1.693,6.998-4.488,10.724-6.196c2.896-1.327,6.262-1.618,9.4-2.436c1.514-0.395,3.03-0.494,4.58-0.463
			c1.17,0.024,2.069,0.824,2.126,1.672c0.071,1.083-0.93,1.806-2.083,2.096c-3.416,0.859-6.754,1.803-10.013,3.314
			c-2.455,1.139-5.451,1.382-7.498,3.31c-2.426,2.285-5.576,2.76-8.423,4.04c0.207,0.991,1.067,0.685,1.488,0.557
			c2.68-0.814,5.407-0.336,8.107-0.405c3.392-0.087,6.743-0.122,10.121-0.82c1.737-0.359,3.73,0.005,5.614-0.01
			c6.448-0.051,12.858-1.313,19.26-0.949c5.452,0.31,10.894,0.393,16.328,0.266c3.085-0.073,6.401,0.305,9.229-0.567
			c3.898-1.201,7.693-3.162,10.15-6.892c1.843-2.798,3.977-5.405,5.943-8.125c1.38-1.908,3.129-2.23,5.149-1.247
			c1.496,0.729,2.532,0.447,3.458-0.969c0.908-1.391,1.86-2.728,2.669-4.203c1.328-2.421,4.107-2.807,6.451-3.704
			c0.681-0.261,1.429,0.047,1.614,0.915c0.156,0.725,0.069,1.519-0.688,1.813c-4.408,1.716-5.981,5.853-8.217,9.444
			c-1.197,1.925-2.76,3.091-5.266,2.39c-1.93-0.539-2.905,0.63-3.671,2.3c-1.379,3.005-1.453,2.804,1.862,2.871
			c3.348,0.067,6.511-1.507,9.861-0.972c4.61,0.736,9.338,0.498,13.888,1.735c0.659,0.179,1.401,0.19,2.087,0.113
			c4.135-0.46,7.958,0.583,11.771,2.076c2.613,1.023,5.337,1.371,8.253,0.849c2.636-0.472,5.394-0.255,8.101-0.451
			c3.008-0.218,5.887-1.095,8.89-1.24c1.222-0.059,2.541-0.088,3.398,0.542c2.313,1.7,4.845,2.142,7.57,1.983
			c1.307-0.076,2.476,0.03,3.276,1.241c0.584,0.883,1.512,0.607,2.345,0.652c2.072,0.11,3.594,2.215,3.23,4.456
			c-0.363,2.241-1.636,3.094-3.902,2.589c-1.33-0.296-2.793-0.369-3.952-0.995c-2.661-1.438-5.737-0.152-8.305-1.389
			c-6.867-3.307-13.82,0.754-20.695-0.403c-0.384-0.065-0.832,0.319-1.262,0.458c-1.352,0.441-1.182,1.142-0.422,2.049
			c1.971,2.357,4.738,3.252,7.525,3.996c2.341,0.627,4.594,1.448,6.874,2.232c2.445,0.84,3.382,3.041,5.123,4.474
			c0.565,0.466,0.568,1.706-0.145,2.338c-0.748,0.662-1.713,0.584-2.565,0.012c-1.573-1.056-3.298-1.769-5.033-2.523
			c-2.725-1.185-5.624-2.017-8.42-2.564c-4.682-0.917-7.082-3.954-8.881-7.681c-1.899-3.934-4.703-5.55-9.059-5.748
			c-4.63-0.211-9.258-0.954-13.872-1.642c-5.1-0.76-10.285-0.987-15.356,0.409c-2.433,0.669-4.968,0.496-7.43,1.211
			c-1.393,0.405-2.779,0.85-3.931,1.567c-4.717,2.935-9.87,3.42-15.229,3.276c-4.617-0.123-9.236,0.278-13.863,0.008
			c-2.805-0.163-5.618,1.137-8.448,0.002c-0.462-0.186-0.573,0.312-0.759,0.658c-0.22,0.411-0.298,0.568,0.259,0.756
			c4.169,1.406,4.768,5.497,6.541,8.726c2.889,5.258,5.539,10.693,10.548,14.429c0.686,0.511,1.03,1.482,1.527,2.243
			c1.096,1.674,2.073,1.829,3.115,0.178c0.72-1.143,1.832-1.505,2.766-2.223c0.541-0.416,0.935-0.467,1.373,0.072
			c0.394,0.486,0.409,1.394,0.168,1.51c-2.094,1.012-2.48,3.451-4.117,4.774c-1.511,1.22-3.244,1.553-5.086,0.621
			c-2.481-1.254-4.532-2.977-6.516-4.962c-2.632-2.634-4.601-5.551-6.34-8.825c-1.563-2.943-3.199-5.819-4.328-8.965
			c-0.175-0.485-0.458-1.07-0.867-1.309c-2.334-1.361-4.322-3.15-6.379-4.869c-2.773-2.318-5.956-0.697-8.961-0.75
			c-0.446-0.008-0.916,0.297-1.34,0.232c-5.944-0.907-11.795,0.717-17.736,0.652c-4.58-0.049-9.198,0.918-13.857,0.826
			c-1.55-0.031-3.058-0.26-4.082-1.223c-2.235-2.1-4.804-2.216-7.447-1.573c-1.395,0.34-2.744,0.432-4.12,0.383
			c-5.192-0.185-10.255,1.267-15.384,1.322c-4.795,0.052-9.651-0.326-14.337-1.691c-0.436-0.127-0.932-0.111-1.394-0.077
			c-4.209,0.317-8.362-0.645-12.57-0.514c-1.699,0.053-3.193-0.878-4.627-1.745c-1.565-0.945-3.056-1.085-4.961-0.675
			c-5.653,1.219-11.31,2.591-17.115,2.875c-1.585,0.077-2.907,0.826-4.326,1.218c-4.755,1.315-9.1,0.557-13.703-0.899
			c-2.417-0.765-5.112-1.82-7.906-1.231c-0.653,0.138-1.184,0.059-1.172,0.996c0.013,0.98,0.607,0.887,1.239,0.91
			c2.624,0.096,5.239-0.105,7.878,0.368c1.215,0.218,2.234,0.651,3.059,1.319c0.942,0.764,2.08,1.401,3.047,1.384
			c2.441-0.046,4.072,1.563,5.984,2.505c1.206,0.594,1.906,0.634,2.859-0.213c0.55-0.487,1.257-0.966,1.952-1.075
			c0.667-0.105,1.731-0.539,2.085,0.355c0.334,0.843,0.13,1.754-0.699,2.512c-3.233,2.953-7.061,2.981-10.877,1.949
			c-1.444-0.392-2.835-0.809-4.254-0.613c-2.049,0.282-3.347-0.742-4.186-2.269c-0.733-1.332-1.675-1.569-3.009-1.551
			c-3.833,0.055-7.668,0.066-11.501,0.004c-2.602-0.043-5.044-1.254-7.74-0.959c-3.416,0.374-6.675-0.146-9.606-2.243
			c-1.095-0.782-2.022-1.674-2.873-2.656c-1.56-1.802-3.465-2.15-5.612-1.084c-1.632,0.811-3.307,1.371-5.243,1.389
			c-2.956,0.026-5.865-0.083-8.898,0.67c-3.052,0.759-6.459,0.034-9.77-0.55c-4.245-0.748-8.481,1.01-12.664,2.166
			c-2.814,0.777-5.839,1.7-8.755,0.433c-2.45-1.065-4.86-2.307-7.08-3.782c-1.204-0.801-2.791-1.877-1.748-3.928
			c0.97-1.908,3.312-3.18,5.361-2.481c0.943,0.321,1.819,0.246,2.724,0.371c3.611,0.5,6.957-0.92,10.412-1.494
			c2.541-0.422,5.113-0.61,7.639-1.266c3.075-0.799,6.232-1.371,8.796-3.324c1.981-1.509,4.277-2.145,6.536-2.255
			c2.161-0.105,4.091-0.464,5.811-1.656c2.167-1.502,4.838-1.2,7.141-2.185c0.463-0.198,1.149-0.189,1.618,0.003
			c1.307,0.535,3.099,0.993,3.061,2.628c-0.041,1.74-1.758,1.735-3.073,1.533c-1.728-0.265-2.482,1.224-3.055,2.086
			c-0.79,1.188-1.407,2.249-2.838,2.684c-0.417,0.126-0.905,0.523-0.731,1.047c0.196,0.591,0.645,0.454,1.26,0.402
			c4.965-0.413,9.773-1.986,14.789-1.968c0.155,0,0.35,0.027,0.46-0.051c4.034-2.863,8.808-4.358,12.591-7.903
			c3.068-2.874,7.012-5.404,11.788-5.203c0.224,0.009,0.503,0.001,0.667-0.121c1.08-0.797,2.209-0.863,2.834,0.361
			c0.582,1.139-0.127,2.087-0.943,3.078c-1.172,1.423-2.462,1.727-4.239,1.985c-2.884,0.418-5.955,1.24-7.27,4.396
			C94.337,68.12,92.648,67.876,91.786,68.906z M220.959,75.674c-1.891-1.724-4.354-1.092-6.291-2.275
			c-0.484-0.295-1.791-0.604-2.027,0.734c-0.162,0.913,0.724,0.841,1.206,1.037C216.159,76.109,218.582,75.484,220.959,75.674z"/>
		<path style="fill-rule:evenodd;clip-rule:evenodd;fill:#7B491E;" d="M9.935,27.831c0.004-2.273,1.236-3.106,2.986-1.872
			c2.389,1.685,5.042,1.003,7.406,0.636c1.345-0.209,2.777-0.836,4.185-0.663c4.593,0.565,8.509-1.249,12.372-3.288
			c3.479-1.838,7.189-3.083,10.925-4.214c2.053-0.622,3.846-1.757,5.865-2.43c6.582-2.194,13.064-4.834,20.223-4.176
			c2.454,0.226,4.703,0.901,6.622,2.672c2.724,2.515,6.167,3.742,9.78,3.812c3.94,0.077,7.922,0.581,11.86-0.343
			c0.67-0.158,1.484,0.235,2.22,0.422c3.671,0.933,6.914,0.252,10.198-1.784c3.648-2.262,8.053-2.049,12.013-1.353
			c4.109,0.723,7.664-0.733,11.454-1.302c1.878-0.282,3.729-0.73,5.583-1.097c1.479-0.292,3.018-0.388,4.543,1.297
			c1.132,1.25,3.632,1.966,5.822,1.705c3.186-0.379,6.391-0.5,9.561-1.148c1.471-0.301,3.018-0.466,4.507-0.771
			c1.475-0.303,2.889-0.333,4.351-0.012c3.813,0.838,7.745,1.813,11.555,1.479c3.803-0.334,7.686-0.878,11.448-1.921
			c2.773-0.769,5.692-1.241,8.517-1.513c2.698-0.26,5.54,0.677,8.283,1.255c2.603,0.549,5.164,0.747,7.769,0.109
			c2.45-0.601,4.531,0.827,6.477,1.743c3.847,1.809,7.313,0.497,10.427-1.045c6.313-3.127,12.57-4.976,19.5-2.473
			c0.285,0.103,0.599,0.273,0.874,0.235c4.297-0.594,8.415,1.108,12.677,0.968c1.852-0.062,3.738,0.546,5.329,1.117
			c4.264,1.529,8.192,0.535,12.104-0.698c3.315-1.044,6.743-1.517,10.098-1.659c2.146-0.091,5.004-0.063,6.416,2.653
			c0.52,1,1.686,0.293,2.536,0.516c3.215,0.84,6.538,0.958,9.725,0.267c2.267-0.491,4.073,0.186,5.764,1.2
			c1.309,0.785,2.54,1.292,4.037,1.294c6.331,0.009,12.568-0.75,18.822-1.744c2.773-0.44,5.774-0.666,8.688,0.656
			c2.794,1.267,5.946,0.735,8.937,0.417c2.263-0.24,4.592-1.175,6.725-1.057c3.951,0.22,8.055,0.447,11.42,3.354
			c1.67,1.443,3.963,0.304,5.891-0.041c3.371-0.604,6.613,0.48,9.938,0.458c1.187-0.007,1.534,1.997,1.312,3.282
			c-0.235,1.364-0.828,2.406-2.606,2.721c-3.357,0.595-6.936-0.063-10.044,1.036c-2.529,0.894-4.513,0.382-6.79-0.106
			c-0.845-0.182-1.405-0.513-1.942-1.076c-2.937-3.078-6.784-3.798-10.598-3.06c-5.871,1.137-11.663,2.185-17.361-0.25
			c-1.775-0.759-3.219,0.046-4.707,0.224c-6.604,0.792-13.058,2.815-19.832,2.251c-1.227-0.102-2.484-0.019-3.613-0.534
			c-3.355-1.53-6.7-1.106-10.228-0.563c-3.147,0.485-6.38-0.368-9.508-1.142c-0.537-0.133-1.123-0.362-1.268-0.915
			c-0.63-2.395-2.564-2.267-4.256-1.991c-4.089,0.669-8.211,1.054-12.162,2.643c-2.669,1.073-5.585,0.671-8.559,0.007
			c-3.165-0.707-6.44-1.178-9.652-1.795c-5.291-1.017-10.718-1.227-15.888-3.05c-1.971-0.694-4.432-0.043-6.18,0.989
			c-2.59,1.528-5.516,2.088-8.1,3.495c-1.998,1.088-4.157,0.895-6.309,0.969c-3.054,0.105-6.09-0.506-9.156-0.04
			c-4.534,0.691-8.808-0.64-13.036-2.006c-2.284-0.738-4.391-0.026-6.47,0.607c-1.699,0.517-3.332,1.125-5.143,0.951
			c-1.882-0.181-3.622,0.26-5.334,1.061c-3.356,1.57-6.758,0.506-10.145,0.018c-3.702-0.534-7.412-1.447-11.112-1.415
			c-2.75,0.024-5.495,1.245-7.91,2.859c-3.135,2.098-10.068,1.966-12.498-0.797c-2.759-3.14-5.786-2.477-8.489-0.99
			c-2.412,1.327-4.932,1.512-7.404,1.986c-2.394,0.458-4.925,0.304-7.393,0.463c-3.16,0.204-6.157,0.372-9.074,1.906
			c-2.558,1.345-5.492,1.093-8.373,1.069c-5.698-0.046-11.432-0.585-17.059,1.172c-1.456,0.455-3.334,0.064-4.782-0.893
			c-2.873-1.897-6.273-2.981-9.43-2.916c-2.666,0.055-5.471-1.115-8.112,0.205c-0.127,0.063-0.319,0.055-0.464,0.018
			c-4.56-1.202-8.074,1.4-11.878,3.139c-4.42,2.02-9.192,2.938-13.93,3.924c-2.734,0.569-5.407,1.51-8.161,1.885
			c-2.986,0.407-5.992,0.839-9.015-0.488c-2.23-0.979-4.781-0.878-7.243-0.98c-2.618-0.109-5.227-0.412-6.239-3.584
			C10.003,29.083,10.045,28.435,9.935,27.831z"/>
		<path style="fill-rule:evenodd;clip-rule:evenodd;fill:#7B491E;" d="M138.788,133.04c-0.668,0.907-0.674,2.374-2.05,2.463
			c-1.028,0.066-3.466-2.832-3.535-3.966c-0.058-0.956,0.593-1.275,1.356-1.4c1.94-0.317,3.828-0.602,5.747,0.398
			c3.377,1.759,6.833,0.916,10.25-0.036c4.699-1.309,9.381-1.463,14.177-0.297c3.723,0.906,7.576,0.526,11.355,0.161
			c2.938-0.285,5.77-1.159,8.586-2.07c1.587-0.514,3.195,0.457,4.806,0.403c7.364-0.247,14.772-0.202,21.876-2.592
			c1.336-0.449,2.532-0.233,3.396,0.688c2.001,2.134,4.104,1.523,6.239,0.444c0.433-0.219,0.812-0.36,1.281-0.41
			c1.195-0.128,2.484,0.166,2.54,1.363c0.045,0.96-0.985,1.903-2.23,1.92c-2.805,0.037-4.922,1.444-6.801,3.326
			c-1.043,1.045-1.941,1.477-3.556,0.735c-2.467-1.132-5.278-0.346-7.281,0.922c-3.673,2.325-7.134,1.492-10.769,0.545
			c-0.218-0.058-0.42-0.332-0.611-0.313c-6.013,0.567-12.104-2.006-18.112,0.692c-2.04,0.916-4.357-0.239-6.542-0.591
			c-4.425-0.713-8.649-2.576-13.205-2.459c-3.202,0.083-6.212,1.369-9.444,1.639C143.481,134.835,140.992,134.95,138.788,133.04z"/>
		<path style="fill-rule:evenodd;clip-rule:evenodd;fill:#7B491E;" d="M376.479,128.943c-3.082,1.124-6.152,0.552-9.031,2.693
			c-2.102,1.563-5.523,2.169-8.537,1.562c-1.257-0.253-2.578-0.556-3.648-0.101c-3.817,1.623-7.417,0.304-10.855-0.891
			c-1.772-0.615-3.54-1.206-5.362-1.576c-1.08-0.22-1.846-0.732-1.811-1.724c0.029-0.835,0.371-1.787,1.485-2.083
			c0.871-0.231,1.784-0.487,2.535-0.96c1.74-1.098,3.111-0.705,4.678,0.483c1.438,1.092,3.394,0.508,5.103,0.905
			c4.345,1.014,8.646-0.874,13.025-0.465c1.286,0.12,2.077-1.186,2.567-2.119c1.154-2.199,2.879-3.717,4.808-5.165
			c1.485-1.115,2.304-2.7,2.888-4.556c0.977-3.107,2.995-5.557,6.104-6.838c0.372-0.153,1.302-0.857,1.539-0.003
			c0.215,0.771,1.156,1.512,0.357,2.507c-0.661,0.822-1.148,1.784-1.788,2.627c-0.563,0.743-1.189,1.444-1.111,2.446
			c0.269,3.452-1.517,5.867-4.085,7.774c-0.558,0.414-0.968,0.95-0.882,1.342c0.173,0.799,0.853,0.128,1.312,0.173
			c2.645,0.262,5.437-0.899,7.924,1.107c0.854,0.688,2.185,0.321,3.349,0.017c1.857-0.485,3.647-0.5,4.994,1.336
			c0.538,0.732,0.767,1.431,0.318,2.11c-0.409,0.621-1.312,1.248-1.935,0.91c-1.537-0.834-2.838-0.038-4.215,0.252
			c-0.869,0.184-2.429,2.314-2.571,3.306c-0.162,1.125-0.688,2.153-1.706,2.595c-1.109,0.479-1.805-0.622-2.199-1.327
			c-0.85-1.521-3.059-2.461-1.459-5.103C379.227,128.602,376.843,129.857,376.479,128.943z"/>
		<path style="fill-rule:evenodd;clip-rule:evenodd;fill:#7B491E;" d="M243.21,129.84c-1.15,0.062-1.848,0.989-2.748,1.507
			c-1.411,0.812-2.643,0.839-3.619-0.475c-0.702-0.944,0.277-3.584,1.573-3.925c1.412-0.371,3.028-2.17,4.41,0.138
			c0.066,0.109,0.333,0.232,0.398,0.188c2.102-1.415,4.178-0.041,6.264-0.023c2.759,0.023,3.752,0.65,4.116,3.398
			c0.099,0.742,0.42,1.311,1.009,1.889c0.788,0.772,1.482,1.836,1.305,3.038c-0.295,1.992,0.869,3.248,2.338,3.857
			c2.575,1.069,3.436,3.869,5.744,5.143c0.626,0.346,0.345,0.983,0.124,1.637c-0.329,0.974-1.202,1.075-1.623,0.764
			c-3.038-2.244-7.441-2.129-9.712-5.696c-1.029-1.617-0.939-3.485-1.423-5.221C250.325,132.32,247.099,129.837,243.21,129.84z"/>
		<path style="fill-rule:evenodd;clip-rule:evenodd;fill:#7B491E;" d="M278.247,133.875c-1.109,0.112-1.639-0.562-2.116-1.44
			c-0.854-1.569-0.224-3.03,0.907-3.779c1.396-0.923,1.991-1.913,2.084-3.504c0.027-0.47,0.315-1.454,0.959-1.447
			c3.053,0.035,3.85-2.772,5.543-4.376c0.746-0.705,1.592-1.338,2.309-2.097c0.292-0.31,0.879-0.979,1.522-0.306
			c0.541,0.565,1.399,0.979,0.776,2.037c-1.337,2.269-2.552,4.613-3.964,6.833c-0.652,1.025-2.096,0.628-3.116,1.203
			c-0.895,0.506-1.199,1.165-0.851,1.813c0.994,1.845,0.052,2.639-1.426,3.416C279.968,132.707,279.607,134.082,278.247,133.875z"/>
		<path style="fill-rule:evenodd;clip-rule:evenodd;fill:#7B491E;" d="M51.546,136.024c-1.371-0.156-2.201-1.218-2.539-2.458
			c-0.334-1.227,0.471-2.475,1.54-2.796c1.606-0.482,3.12-1.622,5.146-0.414c1.326,0.791,3.07,0.706,3.912-1.666
			c0.926-2.611,5.444-4.133,6.933-1.414c0.902,1.648-0.211,4.289-2.315,5.216c-1.321,0.581-2.727,0.55-4.048,0.597
			c-2.42,0.085-4.202,1.62-6.324,2.34C53.126,135.673,52.311,135.536,51.546,136.024z"/>
		<path style="fill-rule:evenodd;clip-rule:evenodd;fill:#7B491E;" d="M304.498,131.035c-1.49-0.291-3.53,0.935-4.291-1.521
			c-0.287-0.925-0.197-1.748,0.634-2.242c1.406-0.839,2.946-1.463,4.318-2.351c1.365-0.883,2.198-0.181,2.901,0.783
			c0.718,0.985,1.233,2.077,2.667,2.247c0.426,0.051,0.732,0.604,0.594,1.129c-0.211,0.802-0.724,1.428-1.565,1.482
			C308.001,130.676,306.31,131.462,304.498,131.035z"/>
		<path style="fill-rule:evenodd;clip-rule:evenodd;fill:#7B491E;" d="M324.068,129.084c-0.168-1.253,0.081-1.932,1.169-2.391
			c2.387-1.007,5.363-0.162,6.223,2.192c0.397,1.087,1.027,0.741,1.595,0.74c1.163-0.005,2.188,0.489,2.111,1.57
			c-0.068,0.968-0.849,1.599-2.194,1.837c-2.928,0.518-5.112-1.289-7.644-1.931C324.59,130.917,323.281,130.268,324.068,129.084z"/>
		<path style="fill-rule:evenodd;clip-rule:evenodd;fill:#7B491E;" d="M77.813,138.46c-0.752-0.356-1.458-0.539-1.965-0.959
			c-1.603-1.327-3.123-2.752-4.691-4.122c-0.921-0.805-0.784-1.476,0.021-2.336c1.907-2.041,3.409-2.298,5.856-0.941
			c0.972,0.539,1.515,1.182,1.464,2.357c-0.059,1.373-0.129,2.74,0.492,4.081C79.534,137.713,78.172,137.837,77.813,138.46z"/>
		<path style="fill-rule:evenodd;clip-rule:evenodd;fill:#7B491E;" d="M106.171,132.712c0.274-1.102-0.67-1.589-1.292-2.236
			c-0.821-0.856-0.855-1.863-0.259-2.728c0.735-1.064,1.972-1.411,3.211-1.231c0.416,0.06,1.137,0.903,1.053,1.089
			c-1.015,2.249,0.392,2.966,2.054,3.823c1.251,0.646,1.931,1.999,1.094,3.331c-0.941,1.497-2.37,2.559-4.302,1.781
			c-1.44-0.58-2.438-1.542-1.567-3.309C106.225,133.108,106.171,132.925,106.171,132.712z"/>
		<path style="fill-rule:evenodd;clip-rule:evenodd;fill:#7B491E;" d="M103.808,140.361c0.229,2.059-1.006,2.938-2.706,3.337
			c-1.409,0.33-2.008-0.623-2.621-1.715c-0.664-1.187,0.068-1.941,0.656-2.644c0.885-1.058,0.918-1.578-0.537-2.027
			c-1.534-0.473-2.371-1.428-1.323-3.112c0.835-1.342,3.484-2.384,4.41-1.57c0.375,0.329,1.082,0.929,0.477,1.747
			c-0.728,0.985,0.447,2.405-0.79,3.396c-0.335,0.269,0.437,0.216,0.677,0.351C102.962,138.633,104.187,138.897,103.808,140.361z"/>
		<path style="fill-rule:evenodd;clip-rule:evenodd;fill:#7B491E;" d="M114.654,130.623c-0.071-1.268,0.381-1.584,1.081-1.979
			c1.482-0.835,3.227-0.761,4.711-1.644c0.875-0.521,2.457,1.514,1.948,2.563c-0.559,1.151-0.963,2.141-0.313,3.449
			c0.465,0.936-0.377,1.77-1.209,1.571c-2.218-0.527-4.136-1.8-5.989-3.1C114.606,131.292,114.656,130.632,114.654,130.623z"/>
		<path style="fill-rule:evenodd;clip-rule:evenodd;fill:#7B491E;" d="M291.056,132.555c-1.511,0.03-2.413-0.94-3.344-1.885
			c-0.46-0.467-0.451-1.101-0.261-1.532c0.806-1.827,2.79-1.666,4.287-2.213c0.832-0.304,2.261-0.612,2.709,0.932
			c0.313,1.08,1.405,0.873,2.105,1.189c0.718,0.324,0.678,0.964,1.094,1.356c-0.455,0.328-0.325,1.09-1.222,1.18
			C294.621,131.764,292.844,132.215,291.056,132.555z"/>
		<path style="fill-rule:evenodd;clip-rule:evenodd;fill:#7B491E;" d="M262.062,126.367c0.919,0.14,2.384-0.189,2.331,1.729
			c-0.068,2.514-1.422,4.82-2.841,4.84c-2.828,0.039-4.644-1.042-4.667-2.779C256.862,128.439,259.578,126.358,262.062,126.367z"/>
		<path style="fill-rule:evenodd;clip-rule:evenodd;fill:#7B491E;" d="M129.595,127.771c1.471-0.035,2.079,1.35,1.818,2.105
			c-0.488,1.416,0.193,2.342,0.718,3.321c0.464,0.865,0.362,1.39-0.288,2.025c-0.688,0.675-1.251,0.697-2.001,0.059
			c-0.5-0.426-1.166-0.687-1.794-0.922c-1.597-0.599-2.556-1.765-2.552-3.41C125.5,129.658,128.125,127.797,129.595,127.771z"/>
		<path style="fill-rule:evenodd;clip-rule:evenodd;fill:#7B491E;" d="M34.809,130.579c1.247,0.052,2.327,0.877,2.354,2.802
			c0.014,0.985-2.411,4.158-3.221,4.227c-0.885,0.074-3.697-2.578-3.791-3.576C30.025,132.696,32.475,130.63,34.809,130.579z"/>
		<path style="fill-rule:evenodd;clip-rule:evenodd;fill:#7B491E;" d="M45.472,132.226c-0.361,1.215-1.244,2.016-2.151,2.711
			c-0.755,0.579-1.693,0.945-2.586,1.317c-1.404,0.585-2.828-1.016-2.593-3.123c0.229-2.059,2.003-2.785,3.627-3.413
			c1.501-0.579,2.464,0.503,3.3,1.562C45.287,131.557,45.359,131.948,45.472,132.226z"/>
		<path style="fill-rule:evenodd;clip-rule:evenodd;fill:#7B491E;" d="M272.849,129.085c-0.04,2.104-4.558,4.715-6.248,3.795
			c-1.116-0.606-1.063-3.522,0.086-4.815c1.057-1.19,3.919-1.542,5.313-0.767C272.864,127.779,272.89,128.476,272.849,129.085z"/>
		<path style="fill-rule:evenodd;clip-rule:evenodd;fill:#7B491E;" d="M320.291,127.291c0.143,0.811-0.515,1.693-1.268,1.749
			c-1.539,0.113-2.7,0.832-3.979,1.517c-1.303,0.697-2.121-0.007-2.286-1.404c-0.313-2.66,3.716-5.677,6.203-4.59
			C319.95,124.994,320.225,126.024,320.291,127.291z"/>
		<path style="fill-rule:evenodd;clip-rule:evenodd;fill:#7B491E;" d="M312.281,141.56c0.196,1.918-0.711,2.831-2.697,2.643
			c-1.785-0.17-3.545-0.5-3.847-2.689c-0.203-1.478,2.239-3.008,4.502-2.939C311.805,138.62,312.297,139.322,312.281,141.56z"/>
		<path style="fill-rule:evenodd;clip-rule:evenodd;fill:#7B491E;" d="M26.366,135.041c0.12,1.699-0.538,2.657-2.375,2.602
			c-1.62-0.05-3.792-1.883-3.706-3.313c0.098-1.626,1.108-2.775,2.594-3.128C24.29,130.867,26.366,133.328,26.366,135.041z"/>
		<path style="fill-rule:evenodd;clip-rule:evenodd;fill:#7B491E;" d="M302.193,132.47c0.951-0.188,1.9,0.09,2.425,1.108
			c0.513,0.996,0.009,1.795-0.782,2.41c-0.847,0.657-0.144,1.698-0.609,2.368c-0.345,0.496-0.255,1.561-1.15,1.399
			c-0.592-0.106-1.437-0.339-1.505-1.212c-0.07-0.887-0.627-1.537-0.97-2.29C298.464,133.753,299.296,132.452,302.193,132.47z"/>
		<path style="fill-rule:evenodd;clip-rule:evenodd;fill:#7B491E;" d="M229.525,131.024c-1.323,0.223-2.377-0.181-2.624-1.41
			c-0.252-1.252,0.757-1.688,1.813-2.149c1.105-0.482,2.171-0.672,3.342-0.642c0.915,0.023,1.708,0.052,1.832,1.256
			c0.119,1.154-0.265,2.229-1.323,2.39C231.512,130.628,230.567,131.422,229.525,131.024z"/>
		<path style="fill-rule:evenodd;clip-rule:evenodd;fill:#7B491E;" d="M239.978,122.938c-0.077,1.022,0.245,2.529-1.813,2.496
			c-1.198-0.021-3.378-1.989-3.312-3.052c0.062-1.003,2.454-3.24,3.479-3.014C240.115,119.764,239.983,121.311,239.978,122.938z"/>
		<path style="fill-rule:evenodd;clip-rule:evenodd;fill:#7B491E;" d="M89.763,131.591c-0.4-2.133,1.409-2.659,2.78-2.727
			c1.148-0.057,2.496,0.811,2.373,2.534c-0.071,1.004-2.262,3.603-3.059,3.373C90.398,134.352,89.53,133.343,89.763,131.591z"/>
		<path style="fill-rule:evenodd;clip-rule:evenodd;fill:#7B491E;" d="M386.235,137.034c2.326,0.318,2.984,1.604,2.97,3.002
			c-0.013,1.224-0.312,2.699-1.781,3.161c-0.798,0.251-2.983-3.165-2.69-4.397C384.954,137.867,385.461,136.826,386.235,137.034z"/>
		<path style="fill-rule:evenodd;clip-rule:evenodd;fill:#7B491E;" d="M88.803,139.002c0.04,1.115-0.758,1.48-1.281,1.993
			c-0.743,0.729-1.019-0.319-1.395-0.57c-0.723-0.482-1.272-1.14-1.688-2.042c-0.646-1.405-0.056-2.341,0.848-2.941
			c1.036-0.687,1.664,0.506,2.191,1.159C88.078,137.344,88.424,138.292,88.803,139.002z"/>
		<path style="fill-rule:evenodd;clip-rule:evenodd;fill:#7B491E;" d="M264.697,109.875c-0.495-0.576-0.198-1.078-0.431-2.155
			C265.011,108.781,264.857,109.277,264.697,109.875z"/>
		<path style="fill-rule:evenodd;clip-rule:evenodd;fill:none;" d="M220.959,75.674c-2.377-0.19-4.8,0.436-7.112-0.504
			c-0.482-0.196-1.368-0.125-1.206-1.037c0.236-1.338,1.543-1.029,2.027-0.734C216.604,74.582,219.068,73.95,220.959,75.674z"/>
	</g>
</g>
</svg>
