<?xml version="1.0" encoding="iso-8859-1"?>
<!-- Generator: Adobe Illustrator 16.0.0, SVG Export Plug-In . SVG Version: 6.00 Build 0)  -->
<!DOCTYPE svg PUBLIC "-//W3C//DTD SVG 1.1//EN" "http://www.w3.org/Graphics/SVG/1.1/DTD/svg11.dtd">
<svg version="1.1" id="Layer_1" xmlns="http://www.w3.org/2000/svg" xmlns:xlink="http://www.w3.org/1999/xlink" x="0px" y="0px"
	 width="401.5px" height="186.763px" viewBox="0 0 401.5 186.763" style="enable-background:new 0 0 401.5 186.763;"
	 xml:space="preserve">
<g>
	<g>
		<path style="fill:none;" d="M200.75,186.223c-66.105,0-132.21-0.007-198.315,0.04c-1.579,0.001-1.936-0.356-1.935-1.935
			c0.047-60.632,0.047-121.263,0-181.895C0.499,0.855,0.856,0.5,2.435,0.5c132.21,0.042,264.42,0.042,396.631,0
			c1.578,0,1.936,0.355,1.934,1.934c-0.046,60.631-0.046,121.263,0,181.895c0.002,1.578-0.355,1.936-1.934,1.935
			C332.96,186.216,266.855,186.223,200.75,186.223z M204.375,108.544c3.341,1.084,6.973,0.154,10.229,1.542
			c0.907,0.387,1.67,0.146,2.555,0.083c1.782-0.125,2.804-1.367,4.105-2.175c3.051-1.893,3.8-1.857,6.195,0.636
			c0.964,1.003,1.656,2.23,2.997,2.904c6.643,3.341,13.486,4.438,20.785,2.44c1.707-0.467,3.758-0.806,5.145,1.122
			c0.357,0.498,0.858,1.101,1.558,0.725c0.579-0.311,0.208-1.013,0.273-1.536c0.08-0.639-0.193-1.136-0.513-1.716
			c-1.435-2.604-3.152-3.89-6.495-3.526c-4.003,0.436-8.045,0.126-12.121-0.947c-2.98-0.786-5.757-1.401-8.1-3.502
			c-0.972-0.873-1.256-1.439,0.185-1.835c2.523-0.692,3.852-2.371,4.475-4.828c0.155-0.613,0.729-1.143,1.173-1.657
			c2.613-3.042,6.3-4.492,9.722-6.246c1.697-0.87,3.762-1.591,5.79-1.032c2.006,0.553,4.012,0.285,6.018,0.39
			c0.544,0.028,1.07,0.07,1.626,0.211c2.726,0.689,4.88,2.633,7.557,3.353c0.836,0.226,1.542,0.683,1.912,1.244
			c1.385,2.103,3.549,3.288,5.327,4.919c1.123,1.031,3.021,1.958,2.946,3.439c-0.204,4.027,0.235,7.921,1.109,11.818
			c0.175,0.781-0.093,1.594-0.349,2.416c-0.826,2.648-1.745,5.327-2.059,8.059c-0.278,2.416-0.771,4.801-1.931,6.77
			c-1.306,2.218-0.41,3.956,0.237,5.835c0.137,0.396,0.841,1.097,1.69,0.522c0.544-0.369,0.908-0.44,0.884-1.42
			c-0.034-1.429-0.852-2.938-0.264-4.226c1.72-3.766,4.229-6.993,5.19-11.326c1.164-5.25,1.958-10.183-0.053-15.257
			c-0.25-0.631-0.107-1.097,0.165-1.431c0.339-0.416,0.841-0.092,1.316,0.099c1.316,0.526,2.665,1.267,4.028,1.329
			c4.713,0.215,9.44,0.038,14.089-0.82c1.922-0.354,2.644,0.483,3.201,2.044c0.95,2.662,1.189,5.491,2.415,8.128
			c1.533,3.297,6.99,7.049,10.477,6.223c3.17-0.75,6.163-0.311,9.126,0.607c0.858,0.267,1.868,0.56,2.448,1.665
			c1.856,3.542,4.536,6.499,7.196,9.451c0.515,0.57,1.376,1.349,1.907,1.023c0.858-0.525,0.578-1.605,0.022-2.374
			c-0.324-0.449-0.414-0.903-0.329-1.37c0.441-2.416-0.597-4.435-1.738-6.395c-0.453-0.778-1.332-1.297-1.629-2.2
			c-1.093-3.318-4.06-4.077-6.856-4.457c-3.126-0.425-6.363-0.305-9.449-0.994c-3.418-0.764-6.249-2.616-7.238-6.246
			c-0.664-2.435-1.434-4.806-2.924-6.833c-0.941-1.279-0.48-2.083,0.544-2.78c4.512-3.07,9.813-4.063,14.929-5.499
			c0.901-0.253,2.218-0.538,3.008,0.266c1.664,1.691,3.748,2.803,5.632,4.147c2.611,1.864,5.417,3.97,8.896,3.45
			c2.042-0.305,4.224,0.128,6.175-1.123c0.983-0.631,2.349-0.324,2.997,0.778c0.913,1.555,2.388,2.454,3.658,3.588
			c3.811,3.402,8.3,5.258,13.381,5.653c0.556,0.043,1.404,0.383,1.673-0.331c0.31-0.82-0.263-1.218-1.106-1.363
			c-0.848-0.146-0.553-0.933-0.4-1.345c0.237-0.644,0.695-0.131,0.985,0.063c0.812,0.543,1.712,0.431,2.606,0.483
			c1.632,0.096,3.343-0.419,4.854,0.689c0.532,0.391,1.219,0.162,1.374-0.408c0.096-0.35-0.112-0.959-0.797-1.189
			c-1.542-0.521-2.996-1.304-4.701-1.214c-1.73,0.092-3.387-0.248-5.041-0.783c-4.611-1.494-8.612-3.983-12.21-7.188
			c-0.818-0.73-1.024-1.905-0.422-2.408c1.592-1.328,3.281-2.5,5.567-2.726c3.661-0.363,7.081,1.261,10.723,0.938
			c2.298-0.203,4.687-0.362,6.931,0.038c3.352,0.598,6.933,1.05,9.046,4.363c0.278,0.435,0.68,0.737,1.237,0.586
			c0.636-0.172,0.813-0.65,0.816-1.271c0.006-1.727-0.074-3.446,0.377-5.162c0.237-0.903-0.197-1.949-1.061-2.292
			c-2.448-0.974-4.934-2.3-7.477-2.482c-3.386-0.242-6.789-0.643-10.211-0.581c-3.273,0.06-6.16-1.826-9.465-1.956
			c2.099-1.464,3.863-3.205,6.26-3.929c0.984-0.297,1.534-0.977,1.333-2.042c-0.201-1.06-1.092-0.808-1.833-0.902
			c-3.528-0.445-6.751,0.596-9.941,1.912c-1.646,0.679-3.51-0.227-5.21,0.938c-2.894,1.982-4.897,4.735-6.969,7.417
			c-1.808,2.339-3.004,2.792-5.936,2.211c-3.434-0.681-5.957-3.126-9.145-4.318c-2.738-1.023-5.226-1.205-7.884-0.188
			c-3.659,1.399-7.321,2.793-10.981,4.189c-0.757-1.885,0.571-2.832,1.747-3.6c0.829-0.542,1.513-1.214,2.291-1.785
			c2.48-1.819,4.335-5.467,8.37-2.992c0.204,0.125,0.553,0.031,0.832,0.013c0.322-0.022,0.757,0.107,0.853-0.354
			c0.084-0.406-0.191-0.636-0.449-0.977c-1.142-1.508-2.636-2.845-4.319-3.092c-2.677-0.392-5.622-0.993-7.898,1.485
			c-2.277,2.478-4.683,4.794-8.152,5.561c-1.775,0.392-3.011,1.602-3.635,3.203c-0.717,1.84-1.559,3.313-3.571,4.054
			c-0.89,0.328-1.078,1.529-0.985,2.553c0.057,0.627-0.026,1.042-0.853,1.06c-4.701,0.098-9.212-0.264-13.513-2.664
			c-2.871-1.603-5.111-3.681-7.266-6.054c-3.347-3.684-8.086-4.979-12.456-6.9c-3.552-1.561-7.143-2.089-10.908-0.867
			c-0.306,0.099-1.01,0.372-1.046-0.326c-0.021-0.391,0.196-1.09,0.883-0.868c1.41,0.456,2.775-1.037,4.194-0.043
			c0.17,0.119,0.621,0.056,0.799-0.093c1.795-1.512,4.059-2.336,5.766-3.983c0.618-0.598,1.089-1.372,0.562-1.976
			c-0.46-0.528-1.439-0.464-2.074,0.125c-1.381,1.28-3.034,1.5-4.8,1.317c-2.464-0.254-4.815,0.151-6.997,1.307
			c-0.678,0.359-1.238,0.398-1.965,0.222c-3.145-0.762-5.177,0.861-6.694,3.347c-1.398,2.292-3.246,4.311-5.313,5.811
			c-2.069,1.501-4.114,2.89-5.571,5.004c-0.84,1.219-2.018,1.917-3.327,2.518c-2.721,1.247-5.407,2.569-8.105,3.864
			c-0.677,0.324-1.438,0.465-2.098,0.73c-2.311,0.928-4.51-0.205-6.765-0.102c-3.521,0.161-6.92-0.766-10.284-1.679
			c-1.159-0.313-2.328-0.857-3.294-1.566c-3.478-2.552-7.247-3.949-11.629-3.93c-2.665,0.012-5.325,0.665-8.004,0.082
			c-0.575-0.125-1.216,0.062-1.839,0.175c-3.622,0.661-7.093,1.785-10.479,3.188c-0.515,0.214-0.797,0.215-1.222-0.176
			c-0.453-0.417-0.191-0.686-0.028-1.053c1.495-3.35,3.979-5.472,7.565-6.392c3.249-0.834,6.542-1.552,9.517-3.25
			c0.708-0.404,1.146-0.757,1.024-1.559c-0.129-0.842-0.645-1.418-1.501-1.46c-0.751-0.037-1.54-0.211-2.272,0.166
			c-1.855,0.957-3.951,1.187-5.922,1.408c-4.743,0.531-8.04,3.224-10.938,6.588c-2.631,3.054-4.676,6.623-8.086,8.983
			c-0.627,0.435-1.222,0.985-2.008,0.917c-4.147-0.362-8.245,1.002-12.447,0.074c-4.187-0.924-8.323-1.845-12.022-4.117
			c-2.299-1.412-4.728-2.338-7.483-2.266c-1.893,0.05-4.009,0.54-5.629-0.127c-2.146-0.884-3.511-0.086-5.337,0.609
			c-2.124,0.81-4.538,0.887-6.838,1.196c-1.573,0.211-2.877-0.242-4.152-1.376c-1.722-1.532-3.725-2.76-5.653-4.049
			c-3.317-2.217-7.309-2.312-10.988-3.389c-0.73-0.213-1.611,0.27-2.336-0.36c2.347-1.849,4.963-2.828,7.708-2.093
			c2.185,0.584,4.302,0.69,6.505,0.719c3.026,0.04,5.98,0.229,8.856-1.25c2.064-1.062,4.36-2.029,6.759-0.436
			c0.403,0.267,1.244,1.103,1.741,0.074c0.357-0.738-0.06-1.642-0.612-2.058c-1.911-1.439-3.89-2.726-6.496-2.638
			c-2.807,0.094-5.611,0.66-8.437,0.056c-0.804-0.171-1.849-0.316-2.488,0.046c-2.184,1.237-4.496,0.708-6.746,0.737
			c-2.977,0.036-5.436,1.183-7.522,3.154c-2.467,2.332-4.653,5.039-8.488,5.109c-0.572,0.011-1.152,0.366-1.702,0.62
			c-3.551,1.633-7.208,3.08-10.611,4.979c-3.897,2.174-8.273-0.127-12.165,1.667c-0.432,0.199-0.922-0.528-0.244-1.083
			c3.443-2.824,6.17-6.618,10.776-7.875c0.68-0.185,1.674-0.587,1.249-1.554c-0.333-0.758-1.067-1.409-2.133-0.91
			c-0.241,0.113-0.542,0.117-0.817,0.134c-3.532,0.219-6.49,1.597-9.202,3.917c-2.216,1.895-5.288,3.068-7.889,3.405
			c-3.57,0.463-7.552-0.069-11.008-1.694c-1.546-0.727-3.033-1.39-4.714-1.656c-3.367-0.532-6.584-1.856-10.056-1.861
			c-1.753-0.003-3.089,0.811-4.005,2.157c-0.886,1.302,0.191,2.398,0.919,3.315c0.593,0.746,1.109,1.371,0.984,2.379
			c-0.099,0.804,0.203,1.364,1.125,1.41c0.974,0.048,1.447-0.395,1.386-1.369c-0.042-0.693-0.003-1.199,0.952-1.174
			c3.113,0.08,6.33,0.37,9.215,1.105c3.778,0.963,7.268,3.266,10.531,5.56c4.738,3.33,9.865,4.011,15.384,2.905
			c0.98-0.196,1.909-0.912,2.934-0.578c3.201,1.042,6.309,1.186,9.342-0.552c0.642-0.367,1.386-0.551,2.067-0.856
			c2.687-1.207,5.9-1.347,7.882-4.042c0.279-0.379,0.936-0.962,1.713-1.008c4.485-0.265,8.889-1.514,13.476-0.069
			c3.521,1.108,6.924,1.936,9.376,5.105c0.957,1.237,2.307,2.554,4.095,2.979c2.733,0.651,5.482,0.747,8.18-0.016
			c3.106-0.878,6.303-1.151,9.469-1.61c0.566-0.082,1.469,0.121,1.913,0.821c1.968,3.104,4.038,6.149,5.844,9.345
			c1.005,1.777,2.36,3.152,3.804,4.491c3.429,3.182,8.166,2.655,12.166,4.228c0.459,0.181,1.118,0.588,1.251-0.276
			c0.101-0.651,0.444-1.334-0.522-1.952c-3.74-2.39-6.947-5.458-10.229-8.423c-0.682-0.615-1.375-1.275-1.247-2.438
			c0.793,0.232,1.33,0.621,1.911,0.977c5.84,3.573,11.838,6.753,19.035,5.772c3.902-0.532,8.008-0.268,10.669-4.416
			c2.27-3.54,6.332-4.741,10.157-6.138c3.002-1.096,6.088-1.535,9.125-1.089c2.458,0.361,4.882,0.36,7.283,0.222
			c3.095-0.178,4.519,0.286,5.504,3.105c0.661,1.893,1.59,3.566,2.76,5.16c3.107,4.232,7.047,6.929,12.509,6.505
			c2.154-0.167,3.948,0.159,5.093,2.084c0.376,0.632,0.791,0.6,1.157,0.344c0.9-0.628,1.73-1.359,2.563-2.079
			c0.294-0.255,0.744-0.553,0.402-1.027c-0.277-0.385-0.547-0.633-1.203-0.322c-0.963,0.457-1.771,0.463-2.289-0.996
			c-0.461-1.298-1.789-2.403-3.221-2.506C206.255,110.004,205.469,109.097,204.375,108.544z M150.976,48.161
			c0.429-0.521,1.319-0.247,2.063-0.966c2.123-2.048,4.409-3.933,6.693-5.807c2.917-2.393,6.627-3.885,8.822-7.063
			c2.221-3.217,5.341-5.337,8.322-7.63c2.039-1.568,4.339-2.796,6.527-4.171c1.765-1.109,3.569-2.142,5.628-2.614
			c4.794-1.099,9.67-0.9,14.525-0.813c2.606,0.046,5.202,0.323,6.688,3.075c0.358,0.664,1.168,1.119,1.84,1.62
			c2.815,2.099,5.922,4.023,8.129,6.672c2.752,3.305,5.783,6.054,9.416,8.274c1.397,0.854,2.8,1.229,4.403,1.425
			c3.522,0.431,6.85-0.814,10.308-0.94c3.653-0.133,7.328-0.165,10.96-0.77c1.495-0.249,2.966-0.574,4.533-0.515
			c4.84,0.183,8.978,2.601,13.418,4.033c2.581,0.832,5.091,1.755,7.845,1.969c4.48,0.349,8.787-0.814,13.179-1.207
			c6.078-0.543,11.717-3.099,17.788-3.675c3.048-0.29,6.12-1.577,9.068-1.284c2.908,0.289,6.05,1.316,8.306,3.508
			c4.282,4.161,8.377,8.514,12.597,12.74c0.999,1.001,2.201,1.796,3.279,2.723c2.679,2.303,4.503,5.626,8.287,6.612
			c1.861,0.485,3.696,2.017,5.422,1.846c2.233-0.222,4.316-0.056,6.513,0.088c4.394,0.288,8.39,1.412,12.052,3.839
			c0.779,0.517,1.694,1.16,2.55,1.165c2.586,0.014,4.038,1.286,4.846,3.589c0.296,0.845,1.132,0.994,1.717,0.677
			c0.447-0.243,0.851-0.804,0.568-1.69c-0.979-3.079-1.896-6.191-2.583-9.346c-0.678-3.112-2.407-5.903-2.655-9.12
			c-0.05-0.644,0.021-1.416-0.689-1.577c-0.937-0.213-1.17,0.828-1.275,1.346c-0.227,1.122-0.454,2.313,0.22,3.449
			c0.382,0.644,0.487,1.396,0.496,2.187c0.014,1.182-0.869,1.194-1.358,0.857c-2.163-1.49-4.656-2.047-7.055-2.936
			c-2.84-1.051-5.793-1.752-8.688-1.91c-4.288-0.232-7.769-1.924-11.246-4.113c-0.972-0.612-1.752-1.44-2.792-2.018
			c-2.27-1.26-4.363-2.961-6.304-4.667c-3.583-3.148-6.301-7.199-10.126-10.162c-3.382-2.62-7.069-4.346-11.399-4.419
			c-5.823-0.098-11.189,2.409-16.909,3.017c-3.577,0.381-7.076,1.785-10.64,1.916c-4.751,0.174-9.583,0.753-14.306-0.705
			c-3.173-0.98-6.497-1.357-9.691-2.363c-2.277-0.718-4.377-1.859-6.956-2.009c-3.195-0.186-6.339,0.092-9.493,0.041
			c-4.208-0.068-8.423,0.39-12.603,0.032c-3.351-0.286-6.762-0.633-9.81-2.416c-1.439-0.841-2.427-2.286-4.025-2.864
			c-1.046-0.378-1.728-1.203-2.325-2.025c-1.568-2.154-3.414-4.037-5.619-5.476c-2.896-1.89-5.835-3.666-8.302-6.161
			c-0.919-0.928-2.33-1.942-3.508-1.932c-3.218,0.028-6.317-0.7-9.479-0.938c-2.838-0.214-5.615,0.329-8.428,0.745
			c-4.957,0.731-9.599,1.693-12.038,6.749c-0.284,0.587-0.74,0.914-1.251,1.236c-4.643,2.929-8.871,6.323-12.371,10.609
			c-0.841,1.029-1.5,2.182-2.524,3.121c-3.702,3.391-8.309,5.18-12.628,7.485c-1.001,0.534-1.944,0.493-2.952-0.016
			c-0.531-0.269-1.076-0.585-1.757-0.485c-3.707,0.542-6.691-1.1-9.702-2.991c-1.823-1.146-3.892-1.95-6.149-0.474
			c-2.26,1.478-4.784,2.271-7.505,2.735c-4.26,0.729-8.474,1.604-12.829,1.605c-2.881,0.001-5.521,1.271-8.212,2.082
			c-2.58,0.777-6.979,0.439-8.944-1.303c-3.646-3.233-7.181-6.593-10.817-9.837c-0.583-0.52-1.477-1.055-2.186-1.004
			c-2.837,0.204-4.537-1.633-6.537-3.121c-2.111-1.571-4.44-2.855-6.7-4.221c-1.432-0.866-3.079-0.222-4.659-0.61
			c-4.646-1.142-9.269-0.613-13.636,1.448c-5.808,2.741-11.872,4.729-18.04,6.479c-2.514,0.713-5.042,1.427-7.483,2.432
			c-3.304,1.359-6.543,3.271-10.408,1.791c-0.704-0.27-1.512-0.562-2.401-0.519c-1.261,0.062-1.965,0.797-2.337,1.745
			c-0.39,0.992,0.118,1.855,1.025,2.496c1.753,1.236,3.823,1.737,5.769,2.495c2.328,0.906,4.843,0.708,7.143-0.001
			c4.497-1.386,9.106-2.61,13.689-3.141c5.573-0.645,10.318-3.286,15.509-4.767c3.491-0.997,6.846-2.917,10.68-1.721
			c1.999,0.624,4.15,0.472,6.082,1.578c2.8,1.603,5.233,3.67,7.812,5.558c1.659,1.214,4.02,1.243,5.487,2.48
			c3.188,2.69,6.229,5.617,8.728,9.005c2.859,3.874,7.177,5.028,11.588,4.346c4.673-0.722,9.337-1.812,14.136-1.524
			c0.734,0.044,1.527,0.253,2.239-0.234c2.047-1.404,4.349-1.631,6.743-1.436c0.344,0.028,0.795,0.084,1.028-0.094
			c2.3-1.753,5.264-2.131,7.636-3.736c0.92-0.622,1.894-0.573,2.877,0.056c1.421,0.909,2.932,1.895,4.581,2.039
			C142.489,47.995,146.628,47.283,150.976,48.161z M69.45,145.461c-2.511,4.341-2.204,3.225-6.737,6.958
			c-0.472,0.389-1.517,0.362-0.873,1.415c0.536,0.873,1.14,0.53,1.859,0.194c3.849-1.797,6.478-5.062,9.476-7.865
			c1.631-1.525,3.598-1.42,4.68,0.554c2.239,4.083,7.236,6.118,11.479,4.336c3.591-1.507,7.486-1.987,11.052-1.642
			c3.479,0.337,5.928-1.141,8.822-2.056c1.593-0.504,3.72-2.811,5.193,0.407c0.124,0.271,0.667,0.258,0.936-0.013
			c1.604-1.609,3.013,0.094,3.85,0.728c1.559,1.181,3.039,1.965,4.973,1.96c4.16-0.01,8.223-1.306,12.424-0.872
			c1.342,0.138,2.763,0.243,3.92-0.809c1.581-1.437,3.793-0.564,5.611-1.589c1.98-1.115,4.273-3.352,6.58-0.23
			c0.163,0.221,0.795,0.12,1.21,0.123c1.614,0.012,3.227,0.005,4.841,0.005c2.923,0,3.495,0.574,3.47,3.641
			c-0.009,1.131,0.532,1.515,1.559,1.401c2.932-0.323,4.127-2.029,3.924-5.578c-0.115-2.005-1.783-3.247-4.387-3.253
			c-2.873-0.006-5.75,0.076-8.62-0.023c-2.569-0.09-5.125-0.339-7.537,0.868c-0.774,0.387-1.468,0.811-2.443,0.898
			c-2.744,0.249-5.357,0.613-8.221,0.11c-2.813-0.494-5.984,0.005-8.787,0.805c-2.673,0.762-4.156-0.256-5.396-2.132
			c-0.526-0.795-1.164-1.164-1.92-1.323c-0.714-0.151-1.383-0.111-1.533-1.046c-0.149-0.932,0.378-1.608,1.067-1.856
			c2.88-1.037,2.773-3.77,3.521-5.996c0.233-0.694-0.258-1.14-1.026-1.259c-1.238-0.192-2.477,0.146-2.826,1.249
			c-0.729,2.311-2.92,3.104-4.344,4.669c-0.919,1.011-1.555,2.462-2.982,2.863c-3.044,0.856-5.895,2.442-9.237,2.198
			c-3.932-0.287-7.749,1.404-11.721,0.831c-0.191-0.027-0.42,0.05-0.603,0.138c-2.474,1.195-4.903,0.954-7.341-0.142
			c-2.558-1.149-4.41-3.749-4.062-5.96c0.135-0.854,0.575-1.656,0.809-2.501c0.459-1.657,0.017-2.535-1.925-2.525
			c-3.931,0.021-4.134,0.235-4.42,4.23c-0.128,1.779-0.835,4.043-2.688,4.069c-2.992,0.045-5.837,0.888-8.773,0.969
			c-4.22,0.117-8.329-1.195-12.61-0.91c-2.259,0.15-3.684,0.932-4.484,2.877c-0.287,0.696-0.765,0.755-1.064,0.476
			c-1.965-1.834-3.883-0.882-5.83-0.031c-0.77,0.336-1.23,0.142-1.141-0.78c0.151-1.551-1.02-2.076-2.065-1.946
			c-1.228,0.151-2.929-0.041-3.388,1.721c-0.377,1.449,0.556,2.207,1.736,2.66c2.196,0.845,4.387,1.683,6.373,2.979
			c0.577,0.377,1.042,0.044,1.461-0.398c1.209-1.272,2.862-1.611,4.466-1.953c0.721-0.154,1.262-0.198,1.588-1.019
			c0.49-1.232,1.512-1.104,2.536-0.686c0.562,0.23,0.925,0.705,1.597,0.881c4.637,1.219,9.239,1.373,13.799-0.23
			C66.604,145.585,67.895,145.211,69.45,145.461z M315.361,145.553c0.984-1.62,2.93-2.583,2.629-4.631
			c-0.392-2.667,0.45-4.702,2.571-6.353c0.794-0.618,1.294-1.602,2.007-2.343c0.698-0.725,0.718-1.599,0.312-2.3
			c-0.411-0.709-1.293-1.119-2.156-0.943c-3.284,0.667-8.563,3.501-8.207,8.507c0.081,1.137-0.595,1.833-1.628,2.481
			c-1.773,1.111-3.859,1.905-4.833,4.065c-0.577,1.28-1.816,1.716-3.186,1.768c-2.285,0.084-4.562-0.117-6.858,0.36
			c-1.752,0.363-3.519-0.15-5.042-1.218c-0.725-0.508-1.419-1.006-2.311-1.286c-2.403-0.757-4.844-0.193-7.257-0.386
			c-1.72-0.138-2.351,1.266-2.83,2.388c-0.532,1.245-0.056,2.685,1.027,3.535c1.003,0.788,2.085,0.474,3.202-0.285
			c2.062-1.4,4.811-1.902,6.633-0.531c4.689,3.528,9.59,2.785,14.513,1.448c3.43-0.932,6.67-2.423,10.099-0.161
			c1.943,1.281,4.107,1.713,6.438,1.629c2.662-0.096,5.34-0.16,7.995,0.006c5.921,0.37,11.561-0.937,17.195-2.484
			c1.847-0.507,3.766-0.554,5.252,1.062c0.355,0.387,1.053,0.384,1.228,0.61c1.256,1.622,3.805,1.99,4.218,4.445
			c0.124,0.738,1.021,1.242,1.635,1.327c4.023,0.56,6.647,3.573,9.82,5.562c2.657,1.664,7.349,2.148,9.578,0.051
			c1.228-1.154,2.415-1.44,3.919-1.348c0.696,0.043,1.431,0.099,2.093-0.069c1.228-0.311,1.512,0.197,1.56,1.306
			c0.187,4.241,0.7,4.901,4.683,6.346c1.682,0.609,3.374,4.028,2.882,5.77c-0.083,0.293-0.203,0.425-0.471,0.578
			c-0.99,0.565-1.878,1.502-0.901,2.475c0.965,0.961,2.204,0.644,3.296-0.379c1.129-1.058,1.025-2.652,1.895-3.742
			c1.875-2.348,0.04-4.436-0.516-6.504c-0.324-1.203-1.416-2.728-2.919-2.74c-2.372-0.019-2.498-1.303-2.521-3.115
			c-0.04-3.036-2.421-4.754-5.352-3.923c-0.633,0.18-1.234,0.244-1.845,0.206c-2.325-0.147-4.463,0.213-6.455,1.587
			c-2.556,1.764-5.257,2.049-7.389-0.592c-2.084-2.581-4.615-4.223-7.584-5.7c-1.891-0.94-3.686-2.515-5.553-3.779
			c-1.653-1.12-4.025-1.348-5.083-2.702c-1.385-1.776-2.975-1.708-4.383-1.322c-1.786,0.487-3.601,0.704-5.39,1.052
			c-2.929,0.57-5.764,1.631-8.86,1.409c-2.862-0.204-5.797-0.364-8.614,0.046C320.879,147.173,318.191,146.706,315.361,145.553z
			 M217.266,148.888c-0.305,0.674-0.432,1.357-0.835,1.771c-1.524,1.562-0.223,2.373,0.804,3.216
			c0.271,0.224,0.468,1.021,1.121,0.41c0.438-0.41,0.456-1.11,0.232-1.342c-1.972-2.046,0.476-2.709,1.287-2.964
			c2.286-0.72,2.482-2.336,2.071-4.049c-0.368-1.529,0.477-2.313,1.379-2.831c1.773-1.016,2.774-3.479,5.399-2.975
			c0.259,0.05,0.591-0.299,0.892-0.455c3.665-1.909,5.274-5.968,8.595-8.266c0.441-0.306,1.106-1.244,0.407-2.008
			c-0.445-0.486-0.803-1.343-1.586-1.201c-0.702,0.126-1.337,0.575-2.058,0.811c-2.183,0.713-4.542,1.03-5.11,4.163
			c-0.279,1.541-1.655,3.049-3.767,3.441c-1.597,0.298-3.283,0.821-4.106,2.646c-0.609,1.35-1.701,2.127-3.296,2.406
			c-1.367,0.241-2.467,1.248-2.979,2.617c-0.744,1.989-2.038,3.514-3.635,4.86c-0.844,0.712-2.147,1.726-1.189,2.763
			c0.888,0.961,1.754-0.413,2.518-1.066C214.511,149.893,215.225,148.176,217.266,148.888z M249.938,150.013
			c-2.469-0.005-2.542-0.181-1.952-2.679c0.324-1.371,0.504-2.906-1.521-3.189c-0.652-0.092-1.147-0.42-1.703-0.663
			c-1.882-0.823-2.779,0.802-3.633,1.77c-0.704,0.799-0.037,1.895,0.898,2.65c1.027,0.83,1.752,2.118,3.398,1.709
			c0.449-0.112,0.472,0.362,0.682,0.606c1.308,1.523,6.607,3.034,8.061,1.802c1.652-1.402,3.846-1.973,5.094-4.22
			c1.057-1.902,0.003-2.947-0.54-4.058c-0.479-0.979-1.797-0.644-2.679,0.191c-0.17,0.159-0.527,0.103-0.784,0.189
			c-1.519,0.517-2.452,1.515-2.505,3.179C252.672,149.863,252.521,150.018,249.938,150.013z M195.468,145.818
			c0.146-1.232-0.335-1.741-1.532-1.72c-1.015,0.018-2.06,0.234-3.033-0.376c-1.428-0.896-2.455-0.498-3.092,1.067
			c-0.317,0.78-1.042,1.661-1.757,1.31c-1.118-0.551-2.323-0.236-3.507-0.938c-1.348-0.8-3.053-1.538-4.81-1.451
			c-1.371,0.067-2.554,0.468-2.899,2.064c-0.405,1.875,0.535,3.337,1.763,4.394c0.975,0.84,1.975-0.365,2.858-0.894
			c2.295-1.37,4.597-2.02,7.199-0.758c2.147,1.04,4.455,0.339,6.596-0.011C194.134,148.361,195.898,147.583,195.468,145.818z
			 M226.317,149.546c0.125,0.133,0.202,0.177,0.216,0.235c0.314,1.32,0.923,2.516,2.359,2.706c1.235,0.163,2.093-0.403,2.577-1.803
			c0.208-0.602,1.322-1.287,2.466-1.133c0.697,0.094,1.5,0.301,2.175-0.36c0.929-0.91,1.696-1.869,1.464-3.254
			c-0.229-1.362-1.091-1.672-2.46-1.907c-3.687-0.635-4.34-0.233-4.26,3.496c0.008,0.351,0.118,0.771-0.033,1.038
			c-0.374,0.66-0.854,1.261-1.591,1.595c-0.675,0.305-0.396-0.274-0.482-0.498c-0.277-0.716-0.88-1.357,0.34-1.984
			c0.869-0.447,0.674-1.366,0.044-2.141c-1.548-1.903-3.784-1.888-5.877,0.085c-1.182,1.115-1.182,2.835-0.012,4.245
			C224.344,151.195,225.239,150.134,226.317,149.546z M202.398,144.119c-0.882,0-1.446-0.038-2.003,0.007
			c-1.59,0.13-1.909,1.24-1.967,2.574c-0.061,1.409-0.095,3.462,1.596,3.133c2.015-0.392,2.417,0.645,2.996,1.812
			c0.236,0.477,0.67,0.416,0.928,0.716c0.503,0.583,1.137,1.002,1.734,0.233c0.496-0.638-0.353-0.871-0.64-1.219
			c-1.135-1.374-1.016-2.001,0.593-2.642c1.394-0.556,1.49-1.801,0.588-3.076C205.128,144.11,203.694,143.99,202.398,144.119z
			 M372.64,173.39c-0.384-0.819-0.684-1.418-1.755-1.548c-1.466-0.178-3.445-0.313-3.153-2.589c0.383-3.004-1.723-4.39-3.483-6.109
			c-0.856-0.837-1.647-0.472-2.173,0.026c-0.581,0.552-0.995,1.279-0.263,2.339c0.659,0.953,1.856,1.565,2.067,2.756
			c0.699,3.951,3.752,4.981,7.002,5.827C371.708,174.308,372.251,174.005,372.64,173.39z M366.842,138.2
			c-1.13-0.243-1.354,0.899-1.627,1.764c-0.278,0.883-0.539,1.846-1.339,2.228c-2.397,1.144-3.217,3.375-4.088,5.573
			c-0.186,0.47-0.175,1.187,0.064,1.609c0.268,0.473,0.813,0.217,1.238-0.111c3.195-2.465,6.269-5.038,7.488-9.107
			C368.935,138.968,368.413,138.25,366.842,138.2z M270.779,150.393c3.604,0.245,2.608-2.437,3.375-3.752
			c0.691-1.188-0.502-2.021-1.49-2.433c-1.943-0.81-4.891,0.178-6.084,1.896c-0.571,0.824-0.723,1.807,0.117,2.403
			C268.112,149.513,269.718,150.208,270.779,150.393z M20.294,146.412c0.903-0.02,1.417-0.463,1.881-1.328
			c0.537-0.998,0.246-1.877-0.333-2.438c-0.59-0.573-1.532-0.723-2.227,0.244c-0.459,0.64-1.227,0.605-1.558-0.043
			c-0.888-1.737-1.89-0.89-3.147-0.498c-1.335,0.417-2.003,1.105-1.687,2.335c0.296,1.148,1.831,1.827,2.494,1.437
			C17.42,145.118,18.756,146.233,20.294,146.412z M380.444,174.597c-0.356-1.245-1.309-2.053-2.153-2.992
			c-0.636-0.706-0.999-1.948-2.137-1.099c-0.857,0.64-0.521,1.613,0.021,2.57c0.821,1.451,2.159,3.052-0.004,4.596
			c-0.1,0.07-0.6,0.595-0.177,1.035c0.527,0.548,1.145,0.464,1.719,0.201C379.511,178.085,379.762,176.275,380.444,174.597z
			 M27.095,146.223c1.602,0,2.976-1.593,2.898-3.325c-0.071-1.577-1.477-1.901-2.586-2.086c-1.346-0.225-3.094,1.517-2.811,2.744
			C24.903,144.884,25.135,146.589,27.095,146.223z M30.436,148.75c0.06-1.339-0.485-2.123-1.92-2.106
			c-1.334,0.016-3.239,1.61-3.107,2.726c0.143,1.216,1.211,1.649,2.184,1.856C28.694,151.46,30.434,149.817,30.436,148.75z
			 M9.507,141.593c-1.395-0.324-2.15,0.9-2.091,1.768c0.079,1.175,0.689,2.814,2.198,2.746c0.873-0.04,2.39-0.551,2.278-2.115
			C11.793,142.606,11.344,141.438,9.507,141.593z M381.133,49.723c-0.068-0.317-0.349-0.809-0.854-0.691
			c-0.327,0.077-1.117,0.001-0.939,0.824c0.138,0.638,0.501,0.852,1.15,0.803C381.02,50.618,381.227,50.419,381.133,49.723z"/>
		<path style="fill-rule:evenodd;clip-rule:evenodd;fill:#7B491E;" d="M204.375,108.544c1.095,0.553,1.881,1.46,3.215,1.557
			c1.432,0.103,2.76,1.208,3.221,2.506c0.519,1.459,1.326,1.453,2.289,0.996c0.656-0.311,0.926-0.062,1.203,0.322
			c0.342,0.475-0.108,0.772-0.402,1.027c-0.833,0.72-1.663,1.451-2.563,2.079c-0.366,0.256-0.781,0.288-1.157-0.344
			c-1.145-1.925-2.938-2.251-5.093-2.084c-5.462,0.424-9.402-2.272-12.509-6.505c-1.17-1.594-2.099-3.268-2.76-5.16
			c-0.985-2.819-2.409-3.283-5.504-3.105c-2.4,0.139-4.825,0.14-7.283-0.222c-3.037-0.446-6.123-0.007-9.125,1.089
			c-3.825,1.396-7.887,2.598-10.157,6.138c-2.661,4.148-6.767,3.884-10.669,4.416c-7.197,0.98-13.195-2.199-19.035-5.772
			c-0.581-0.355-1.118-0.744-1.911-0.977c-0.129,1.163,0.565,1.823,1.247,2.438c3.281,2.965,6.489,6.033,10.229,8.423
			c0.967,0.618,0.623,1.301,0.522,1.952c-0.133,0.864-0.792,0.457-1.251,0.276c-4-1.572-8.737-1.046-12.166-4.228
			c-1.443-1.339-2.799-2.714-3.804-4.491c-1.806-3.195-3.876-6.241-5.844-9.345c-0.444-0.7-1.346-0.903-1.913-0.821
			c-3.167,0.459-6.363,0.732-9.469,1.61c-2.697,0.763-5.446,0.667-8.18,0.016c-1.788-0.426-3.138-1.742-4.095-2.979
			c-2.453-3.17-5.856-3.997-9.376-5.105c-4.587-1.445-8.991-0.196-13.476,0.069c-0.777,0.046-1.434,0.629-1.713,1.008
			c-1.982,2.695-5.195,2.835-7.882,4.042c-0.681,0.306-1.425,0.489-2.067,0.856c-3.033,1.737-6.141,1.594-9.342,0.552
			c-1.025-0.334-1.954,0.382-2.934,0.578c-5.52,1.105-10.646,0.425-15.384-2.905c-3.264-2.294-6.753-4.597-10.531-5.56
			c-2.886-0.735-6.103-1.026-9.215-1.105c-0.956-0.024-0.995,0.481-0.952,1.174c0.061,0.975-0.412,1.417-1.386,1.369
			c-0.922-0.046-1.224-0.606-1.125-1.41c0.125-1.008-0.392-1.633-0.984-2.379c-0.729-0.917-1.805-2.013-0.919-3.315
			c0.916-1.346,2.251-2.16,4.005-2.157c3.472,0.005,6.689,1.329,10.056,1.861c1.681,0.266,3.168,0.929,4.714,1.656
			c3.457,1.625,7.438,2.157,11.008,1.694c2.601-0.337,5.672-1.511,7.889-3.405c2.712-2.319,5.67-3.698,9.202-3.917
			c0.275-0.017,0.576-0.021,0.817-0.134c1.066-0.499,1.799,0.152,2.133,0.91c0.425,0.967-0.568,1.369-1.249,1.554
			c-4.606,1.257-7.333,5.051-10.776,7.875c-0.678,0.556-0.188,1.283,0.244,1.083c3.892-1.794,8.268,0.507,12.165-1.667
			c3.404-1.899,7.061-3.346,10.611-4.979c0.55-0.253,1.13-0.609,1.702-0.62c3.835-0.071,6.021-2.778,8.488-5.109
			c2.086-1.971,4.545-3.118,7.522-3.154c2.25-0.028,4.562,0.5,6.746-0.737c0.64-0.363,1.685-0.218,2.488-0.046
			c2.826,0.604,5.63,0.038,8.437-0.056c2.605-0.087,4.585,1.199,6.496,2.638c0.553,0.417,0.969,1.32,0.612,2.058
			c-0.497,1.029-1.338,0.193-1.741-0.074c-2.399-1.593-4.694-0.626-6.759,0.436c-2.876,1.479-5.831,1.289-8.856,1.25
			c-2.203-0.029-4.32-0.135-6.505-0.719c-2.745-0.735-5.362,0.244-7.708,2.093c0.725,0.629,1.606,0.146,2.336,0.36
			c3.679,1.077,7.671,1.172,10.988,3.389c1.928,1.289,3.931,2.517,5.653,4.049c1.275,1.134,2.579,1.587,4.152,1.376
			c2.3-0.309,4.714-0.386,6.838-1.196c1.826-0.696,3.19-1.493,5.337-0.609c1.621,0.667,3.736,0.177,5.629,0.127
			c2.755-0.072,5.184,0.854,7.483,2.266c3.699,2.272,7.835,3.193,12.022,4.117c4.202,0.928,8.3-0.437,12.447-0.074
			c0.786,0.068,1.38-0.482,2.008-0.917c3.41-2.36,5.455-5.929,8.086-8.983c2.898-3.364,6.196-6.057,10.938-6.588
			c1.971-0.221,4.067-0.451,5.922-1.408c0.732-0.377,1.521-0.203,2.272-0.166c0.856,0.042,1.372,0.618,1.501,1.46
			c0.123,0.801-0.316,1.155-1.024,1.559c-2.975,1.698-6.268,2.416-9.517,3.25c-3.586,0.92-6.07,3.042-7.565,6.392
			c-0.164,0.368-0.425,0.636,0.028,1.053c0.425,0.391,0.708,0.39,1.222,0.176c3.386-1.404,6.857-2.527,10.479-3.188
			c0.623-0.114,1.264-0.3,1.839-0.175c2.679,0.583,5.339-0.07,8.004-0.082c4.382-0.019,8.152,1.378,11.629,3.93
			c0.966,0.709,2.135,1.253,3.294,1.566c3.364,0.913,6.763,1.84,10.284,1.679c2.255-0.104,4.454,1.029,6.765,0.102
			c0.659-0.266,1.421-0.406,2.098-0.73c2.698-1.295,5.385-2.617,8.105-3.864c1.31-0.601,2.487-1.298,3.327-2.518
			c1.457-2.114,3.502-3.503,5.571-5.004c2.067-1.5,3.915-3.519,5.313-5.811c1.518-2.485,3.55-4.109,6.694-3.347
			c0.727,0.176,1.287,0.137,1.965-0.222c2.182-1.156,4.533-1.561,6.997-1.307c1.766,0.182,3.419-0.037,4.8-1.317
			c0.635-0.589,1.614-0.653,2.074-0.125c0.527,0.604,0.057,1.378-0.562,1.976c-1.707,1.647-3.971,2.472-5.766,3.983
			c-0.178,0.149-0.629,0.212-0.799,0.093c-1.419-0.993-2.784,0.5-4.194,0.043c-0.687-0.222-0.903,0.478-0.883,0.868
			c0.036,0.698,0.74,0.425,1.046,0.326c3.766-1.222,7.356-0.694,10.908,0.867c4.37,1.921,9.109,3.216,12.456,6.9
			c2.154,2.373,4.395,4.452,7.266,6.054c4.301,2.4,8.812,2.762,13.513,2.664c0.826-0.018,0.909-0.433,0.853-1.06
			c-0.093-1.024,0.096-2.226,0.985-2.553c2.013-0.741,2.854-2.214,3.571-4.054c0.624-1.601,1.859-2.812,3.635-3.203
			c3.47-0.766,5.875-3.083,8.152-5.561c2.276-2.478,5.222-1.877,7.898-1.485c1.684,0.247,3.178,1.584,4.319,3.092
			c0.258,0.34,0.533,0.571,0.449,0.977c-0.096,0.461-0.53,0.332-0.853,0.354c-0.279,0.019-0.628,0.112-0.832-0.013
			c-4.035-2.475-5.89,1.173-8.37,2.992c-0.778,0.571-1.462,1.242-2.291,1.785c-1.176,0.769-2.504,1.715-1.747,3.6
			c3.66-1.396,7.322-2.79,10.981-4.189c2.658-1.016,5.146-0.835,7.884,0.188c3.188,1.192,5.711,3.637,9.145,4.318
			c2.932,0.582,4.128,0.128,5.936-2.211c2.071-2.682,4.075-5.435,6.969-7.417c1.7-1.164,3.564-0.259,5.21-0.938
			c3.19-1.316,6.413-2.357,9.941-1.912c0.741,0.094,1.632-0.158,1.833,0.902c0.201,1.065-0.349,1.745-1.333,2.042
			c-2.396,0.724-4.161,2.464-6.26,3.929c3.305,0.13,6.191,2.016,9.465,1.956c3.422-0.062,6.825,0.338,10.211,0.581
			c2.543,0.182,5.028,1.508,7.477,2.482c0.863,0.343,1.298,1.388,1.061,2.292c-0.451,1.716-0.371,3.436-0.377,5.162
			c-0.003,0.621-0.181,1.1-0.816,1.271c-0.558,0.151-0.959-0.151-1.237-0.586c-2.113-3.313-5.694-3.766-9.046-4.363
			c-2.244-0.4-4.633-0.241-6.931-0.038c-3.642,0.322-7.062-1.302-10.723-0.938c-2.286,0.226-3.976,1.397-5.567,2.726
			c-0.603,0.503-0.396,1.678,0.422,2.408c3.598,3.204,7.599,5.693,12.21,7.188c1.654,0.535,3.311,0.875,5.041,0.783
			c1.705-0.09,3.159,0.693,4.701,1.214c0.685,0.23,0.893,0.84,0.797,1.189c-0.155,0.57-0.842,0.799-1.374,0.408
			c-1.511-1.108-3.222-0.594-4.854-0.689c-0.895-0.053-1.795,0.06-2.606-0.483c-0.29-0.194-0.748-0.707-0.985-0.063
			c-0.152,0.412-0.447,1.198,0.4,1.345c0.844,0.146,1.416,0.543,1.106,1.363c-0.269,0.714-1.117,0.374-1.673,0.331
			c-5.081-0.396-9.57-2.251-13.381-5.653c-1.271-1.134-2.745-2.033-3.658-3.588c-0.648-1.103-2.014-1.409-2.997-0.778
			c-1.951,1.251-4.133,0.818-6.175,1.123c-3.479,0.52-6.285-1.586-8.896-3.45c-1.884-1.345-3.968-2.456-5.632-4.147
			c-0.79-0.804-2.106-0.519-3.008-0.266c-5.115,1.436-10.417,2.429-14.929,5.499c-1.024,0.697-1.485,1.501-0.544,2.78
			c1.49,2.027,2.26,4.398,2.924,6.833c0.989,3.63,3.82,5.482,7.238,6.246c3.086,0.689,6.323,0.569,9.449,0.994
			c2.797,0.38,5.764,1.139,6.856,4.457c0.297,0.903,1.176,1.422,1.629,2.2c1.142,1.96,2.18,3.979,1.738,6.395
			c-0.085,0.467,0.005,0.921,0.329,1.37c0.556,0.769,0.836,1.849-0.022,2.374c-0.531,0.325-1.393-0.453-1.907-1.023
			c-2.66-2.952-5.34-5.909-7.196-9.451c-0.58-1.105-1.59-1.398-2.448-1.665c-2.963-0.918-5.956-1.357-9.126-0.607
			c-3.486,0.826-8.943-2.926-10.477-6.223c-1.226-2.637-1.465-5.466-2.415-8.128c-0.558-1.561-1.279-2.398-3.201-2.044
			c-4.648,0.858-9.376,1.035-14.089,0.82c-1.363-0.062-2.712-0.803-4.028-1.329c-0.476-0.19-0.978-0.515-1.316-0.099
			c-0.272,0.334-0.415,0.8-0.165,1.431c2.011,5.074,1.217,10.007,0.053,15.257c-0.961,4.333-3.471,7.561-5.19,11.326
			c-0.588,1.288,0.229,2.797,0.264,4.226c0.024,0.979-0.34,1.051-0.884,1.42c-0.85,0.574-1.554-0.127-1.69-0.522
			c-0.647-1.879-1.543-3.617-0.237-5.835c1.159-1.969,1.652-4.354,1.931-6.77c0.313-2.731,1.232-5.41,2.059-8.059
			c0.256-0.822,0.523-1.635,0.349-2.416c-0.874-3.897-1.313-7.791-1.109-11.818c0.075-1.481-1.823-2.408-2.946-3.439
			c-1.778-1.631-3.942-2.816-5.327-4.919c-0.37-0.562-1.076-1.019-1.912-1.244c-2.677-0.72-4.831-2.664-7.557-3.353
			c-0.556-0.141-1.082-0.183-1.626-0.211c-2.006-0.104-4.012,0.163-6.018-0.39c-2.028-0.559-4.093,0.162-5.79,1.032
			c-3.422,1.754-7.108,3.204-9.722,6.246c-0.443,0.515-1.018,1.044-1.173,1.657c-0.623,2.457-1.951,4.136-4.475,4.828
			c-1.44,0.396-1.156,0.962-0.185,1.835c2.343,2.101,5.119,2.716,8.1,3.502c4.076,1.073,8.118,1.383,12.121,0.947
			c3.343-0.363,5.061,0.923,6.495,3.526c0.319,0.58,0.593,1.077,0.513,1.716c-0.065,0.523,0.306,1.226-0.273,1.536
			c-0.699,0.376-1.2-0.227-1.558-0.725c-1.387-1.928-3.438-1.589-5.145-1.122c-7.299,1.998-14.143,0.9-20.785-2.44
			c-1.341-0.674-2.033-1.901-2.997-2.904c-2.396-2.493-3.145-2.528-6.195-0.636c-1.302,0.808-2.323,2.05-4.105,2.175
			c-0.885,0.062-1.647,0.304-2.555-0.083C211.347,108.699,207.715,109.628,204.375,108.544z M355.895,86.939
			c-2.34-0.209-3.66,0.897-5.04,1.823c-0.184,0.123-0.473,0.34-0.17,0.638c0.185,0.182,0.315,0.331,0.666,0.134
			C352.718,88.768,354.339,88.455,355.895,86.939z M244.199,80.171c1.437,0.413,2.263,0.581,3.602-0.297
			C246.42,79.709,245.614,79.527,244.199,80.171z"/>
		<path style="fill-rule:evenodd;clip-rule:evenodd;fill:#7B491E;" d="M150.976,48.161c-4.348-0.878-8.487-0.166-12.573-0.522
			c-1.648-0.144-3.159-1.13-4.581-2.039c-0.983-0.629-1.958-0.678-2.877-0.056c-2.373,1.604-5.336,1.982-7.636,3.736
			c-0.233,0.178-0.685,0.122-1.028,0.094c-2.394-0.195-4.696,0.032-6.743,1.436c-0.711,0.488-1.504,0.278-2.239,0.234
			c-4.799-0.288-9.463,0.802-14.136,1.524c-4.411,0.682-8.729-0.472-11.588-4.346c-2.5-3.388-5.54-6.315-8.728-9.005
			c-1.467-1.237-3.828-1.266-5.487-2.48c-2.579-1.888-5.012-3.956-7.812-5.558c-1.932-1.106-4.083-0.954-6.082-1.578
			c-3.834-1.195-7.189,0.725-10.68,1.721c-5.19,1.481-9.936,4.123-15.509,4.767c-4.583,0.53-9.192,1.755-13.689,3.141
			c-2.3,0.709-4.815,0.908-7.143,0.001c-1.946-0.757-4.016-1.258-5.769-2.495c-0.907-0.641-1.415-1.504-1.025-2.496
			c0.372-0.948,1.076-1.684,2.337-1.745c0.889-0.043,1.697,0.249,2.401,0.519c3.865,1.481,7.104-0.432,10.408-1.791
			c2.442-1.005,4.97-1.718,7.483-2.432c6.167-1.75,12.232-3.738,18.04-6.479c4.367-2.061,8.99-2.589,13.636-1.448
			c1.58,0.388,3.227-0.256,4.659,0.61c2.26,1.366,4.589,2.65,6.7,4.221c2,1.488,3.7,3.325,6.537,3.121
			c0.708-0.051,1.603,0.484,2.186,1.004c3.637,3.244,7.171,6.604,10.817,9.837c1.965,1.742,6.364,2.08,8.944,1.303
			c2.691-0.811,5.332-2.081,8.212-2.082c4.354-0.001,8.568-0.877,12.829-1.605c2.721-0.465,5.245-1.258,7.505-2.735
			c2.257-1.476,4.327-0.672,6.149,0.474c3.01,1.891,5.995,3.533,9.702,2.991c0.681-0.1,1.226,0.217,1.757,0.485
			c1.008,0.509,1.951,0.55,2.952,0.016c4.319-2.305,8.926-4.094,12.628-7.485c1.024-0.939,1.684-2.092,2.524-3.121
			c3.5-4.286,7.728-7.68,12.371-10.609c0.511-0.322,0.967-0.649,1.251-1.236c2.439-5.056,7.082-6.018,12.038-6.749
			c2.813-0.416,5.589-0.958,8.428-0.745c3.161,0.238,6.261,0.966,9.479,0.938c1.178-0.01,2.589,1.004,3.508,1.932
			c2.467,2.495,5.405,4.271,8.302,6.161c2.205,1.439,4.051,3.322,5.619,5.476c0.598,0.822,1.279,1.647,2.325,2.025
			c1.599,0.578,2.586,2.023,4.025,2.864c3.048,1.783,6.459,2.129,9.81,2.416c4.18,0.357,8.395-0.101,12.603-0.032
			c3.154,0.051,6.298-0.227,9.493-0.041c2.579,0.15,4.679,1.292,6.956,2.009c3.194,1.005,6.519,1.383,9.691,2.363
			c4.723,1.458,9.555,0.879,14.306,0.705c3.563-0.131,7.062-1.535,10.64-1.916c5.72-0.608,11.086-3.115,16.909-3.017
			c4.33,0.073,8.018,1.799,11.399,4.419c3.825,2.963,6.543,7.014,10.126,10.162c1.94,1.705,4.034,3.406,6.304,4.667
			c1.04,0.578,1.82,1.406,2.792,2.018c3.478,2.188,6.958,3.88,11.246,4.113c2.896,0.158,5.849,0.859,8.688,1.91
			c2.398,0.888,4.892,1.446,7.055,2.936c0.489,0.337,1.372,0.325,1.358-0.857c-0.009-0.792-0.114-1.543-0.496-2.187
			c-0.674-1.135-0.446-2.327-0.22-3.449c0.105-0.519,0.339-1.56,1.275-1.346c0.71,0.161,0.64,0.933,0.689,1.577
			c0.248,3.217,1.978,6.008,2.655,9.12c0.688,3.155,1.604,6.267,2.583,9.346c0.282,0.886-0.121,1.448-0.568,1.69
			c-0.585,0.317-1.421,0.168-1.717-0.677c-0.808-2.303-2.26-3.575-4.846-3.589c-0.855-0.005-1.771-0.648-2.55-1.165
			c-3.662-2.427-7.658-3.551-12.052-3.839c-2.196-0.144-4.279-0.31-6.513-0.088c-1.726,0.171-3.561-1.361-5.422-1.846
			c-3.784-0.985-5.608-4.309-8.287-6.612c-1.078-0.926-2.28-1.722-3.279-2.723c-4.22-4.226-8.314-8.58-12.597-12.74
			c-2.256-2.192-5.397-3.219-8.306-3.508c-2.948-0.293-6.021,0.995-9.068,1.284c-6.071,0.577-11.71,3.132-17.788,3.675
			c-4.392,0.393-8.698,1.555-13.179,1.207c-2.754-0.214-5.264-1.137-7.845-1.969c-4.44-1.432-8.578-3.851-13.418-4.033
			c-1.567-0.059-3.038,0.266-4.533,0.515c-3.632,0.604-7.307,0.637-10.96,0.77c-3.458,0.126-6.785,1.371-10.308,0.94
			c-1.604-0.196-3.006-0.572-4.403-1.425c-3.633-2.22-6.664-4.969-9.416-8.274c-2.207-2.649-5.313-4.573-8.129-6.672
			c-0.672-0.501-1.481-0.956-1.84-1.62c-1.485-2.752-4.081-3.029-6.688-3.075c-4.855-0.087-9.731-0.286-14.525,0.813
			c-2.059,0.472-3.863,1.504-5.628,2.614c-2.188,1.375-4.488,2.603-6.527,4.171c-2.981,2.292-6.101,4.413-8.322,7.63
			c-2.195,3.178-5.905,4.671-8.822,7.063c-2.284,1.874-4.571,3.759-6.693,5.807C152.295,47.914,151.405,47.64,150.976,48.161z"/>
		<path style="fill-rule:evenodd;clip-rule:evenodd;fill:#7B491E;" d="M69.45,145.461c-1.555-0.25-2.846,0.124-4.172,0.59
			c-4.561,1.604-9.163,1.449-13.799,0.23c-0.672-0.176-1.036-0.65-1.597-0.881c-1.024-0.419-2.045-0.547-2.536,0.686
			c-0.326,0.82-0.867,0.864-1.588,1.019c-1.604,0.342-3.256,0.681-4.466,1.953c-0.419,0.442-0.884,0.775-1.461,0.398
			c-1.986-1.297-4.177-2.135-6.373-2.979c-1.18-0.453-2.113-1.211-1.736-2.66c0.458-1.762,2.16-1.569,3.388-1.721
			c1.045-0.13,2.217,0.396,2.065,1.946c-0.09,0.922,0.371,1.116,1.141,0.78c1.947-0.851,3.865-1.803,5.83,0.031
			c0.299,0.279,0.777,0.221,1.064-0.476c0.8-1.945,2.225-2.727,4.484-2.877c4.281-0.285,8.39,1.027,12.61,0.91
			c2.937-0.081,5.782-0.924,8.773-0.969c1.853-0.026,2.56-2.29,2.688-4.069c0.287-3.995,0.49-4.21,4.42-4.23
			c1.942-0.01,2.384,0.868,1.925,2.525c-0.234,0.845-0.674,1.646-0.809,2.501c-0.349,2.211,1.504,4.811,4.062,5.96
			c2.438,1.096,4.868,1.337,7.341,0.142c0.183-0.088,0.412-0.165,0.603-0.138c3.972,0.573,7.789-1.118,11.721-0.831
			c3.342,0.244,6.193-1.342,9.237-2.198c1.427-0.401,2.062-1.853,2.982-2.863c1.423-1.564,3.614-2.358,4.344-4.669
			c0.349-1.104,1.588-1.441,2.826-1.249c0.769,0.119,1.259,0.564,1.026,1.259c-0.749,2.227-0.641,4.959-3.521,5.996
			c-0.689,0.248-1.217,0.925-1.067,1.856c0.149,0.935,0.819,0.895,1.533,1.046c0.756,0.159,1.394,0.528,1.92,1.323
			c1.24,1.876,2.723,2.894,5.396,2.132c2.803-0.8,5.974-1.299,8.787-0.805c2.864,0.503,5.477,0.139,8.221-0.11
			c0.975-0.088,1.669-0.512,2.443-0.898c2.413-1.207,4.968-0.958,7.537-0.868c2.87,0.1,5.747,0.018,8.62,0.023
			c2.604,0.006,4.272,1.248,4.387,3.253c0.203,3.549-0.992,5.255-3.924,5.578c-1.026,0.113-1.568-0.271-1.559-1.401
			c0.025-3.066-0.547-3.641-3.47-3.641c-1.614,0-3.227,0.007-4.841-0.005c-0.415-0.003-1.047,0.098-1.21-0.123
			c-2.306-3.121-4.599-0.885-6.58,0.23c-1.818,1.024-4.03,0.152-5.611,1.589c-1.158,1.052-2.578,0.946-3.92,0.809
			c-4.201-0.434-8.264,0.862-12.424,0.872c-1.934,0.005-3.415-0.779-4.973-1.96c-0.836-0.634-2.246-2.337-3.85-0.728
			c-0.269,0.271-0.812,0.284-0.936,0.013c-1.474-3.218-3.6-0.911-5.193-0.407c-2.894,0.915-5.343,2.393-8.822,2.056
			c-3.565-0.346-7.461,0.135-11.052,1.642c-4.244,1.782-9.241-0.253-11.479-4.336c-1.082-1.974-3.048-2.079-4.68-0.554
			c-2.998,2.803-5.627,6.068-9.476,7.865c-0.719,0.336-1.323,0.679-1.859-0.194c-0.644-1.053,0.401-1.026,0.873-1.415
			C67.246,148.686,66.938,149.802,69.45,145.461z"/>
		<path style="fill-rule:evenodd;clip-rule:evenodd;fill:#7B491E;" d="M315.361,145.553c2.83,1.152,5.519,1.62,8.535,1.181
			c2.817-0.41,5.752-0.25,8.614-0.046c3.097,0.222,5.932-0.839,8.86-1.409c1.789-0.348,3.604-0.564,5.39-1.052
			c1.408-0.386,2.998-0.454,4.383,1.322c1.058,1.354,3.43,1.582,5.083,2.702c1.867,1.265,3.662,2.839,5.553,3.779
			c2.969,1.478,5.5,3.119,7.584,5.7c2.132,2.641,4.833,2.355,7.389,0.592c1.992-1.374,4.13-1.734,6.455-1.587
			c0.61,0.038,1.212-0.026,1.845-0.206c2.931-0.831,5.312,0.887,5.352,3.923c0.023,1.812,0.149,3.097,2.521,3.115
			c1.503,0.013,2.595,1.537,2.919,2.74c0.556,2.068,2.391,4.156,0.516,6.504c-0.869,1.09-0.766,2.685-1.895,3.742
			c-1.092,1.022-2.331,1.34-3.296,0.379c-0.977-0.973-0.089-1.909,0.901-2.475c0.268-0.153,0.388-0.285,0.471-0.578
			c0.492-1.741-1.2-5.16-2.882-5.77c-3.982-1.444-4.496-2.104-4.683-6.346c-0.048-1.108-0.332-1.616-1.56-1.306
			c-0.662,0.168-1.396,0.112-2.093,0.069c-1.504-0.093-2.691,0.193-3.919,1.348c-2.229,2.098-6.921,1.613-9.578-0.051
			c-3.173-1.988-5.797-5.002-9.82-5.562c-0.613-0.085-1.511-0.589-1.635-1.327c-0.413-2.455-2.962-2.823-4.218-4.445
			c-0.175-0.227-0.872-0.224-1.228-0.61c-1.486-1.615-3.405-1.568-5.252-1.062c-5.635,1.548-11.274,2.854-17.195,2.484
			c-2.655-0.166-5.333-0.102-7.995-0.006c-2.331,0.084-4.495-0.348-6.438-1.629c-3.429-2.262-6.669-0.771-10.099,0.161
			c-4.923,1.337-9.823,2.08-14.513-1.448c-1.822-1.371-4.571-0.869-6.633,0.531c-1.117,0.759-2.199,1.073-3.202,0.285
			c-1.083-0.851-1.56-2.29-1.027-3.535c0.479-1.122,1.11-2.525,2.83-2.388c2.413,0.192,4.854-0.371,7.257,0.386
			c0.892,0.28,1.586,0.778,2.311,1.286c1.523,1.067,3.29,1.581,5.042,1.218c2.296-0.478,4.573-0.276,6.858-0.36
			c1.369-0.052,2.608-0.487,3.186-1.768c0.974-2.16,3.06-2.954,4.833-4.065c1.033-0.648,1.709-1.345,1.628-2.481
			c-0.356-5.006,4.923-7.84,8.207-8.507c0.863-0.176,1.745,0.234,2.156,0.943c0.406,0.701,0.387,1.575-0.312,2.3
			c-0.713,0.741-1.213,1.725-2.007,2.343c-2.121,1.65-2.963,3.686-2.571,6.353C318.291,142.97,316.345,143.933,315.361,145.553z"/>
		<path style="fill-rule:evenodd;clip-rule:evenodd;fill:#7B491E;" d="M217.266,148.888c-2.041-0.712-2.755,1.005-3.856,1.947
			c-0.764,0.653-1.63,2.027-2.518,1.066c-0.958-1.037,0.346-2.051,1.189-2.763c1.597-1.347,2.891-2.871,3.635-4.86
			c0.513-1.369,1.612-2.376,2.979-2.617c1.595-0.279,2.687-1.057,3.296-2.406c0.823-1.824,2.51-2.348,4.106-2.646
			c2.111-0.393,3.487-1.9,3.767-3.441c0.568-3.133,2.928-3.45,5.11-4.163c0.721-0.235,1.355-0.685,2.058-0.811
			c0.783-0.142,1.141,0.715,1.586,1.201c0.699,0.764,0.034,1.702-0.407,2.008c-3.32,2.298-4.93,6.356-8.595,8.266
			c-0.301,0.156-0.633,0.505-0.892,0.455c-2.625-0.505-3.626,1.959-5.399,2.975c-0.902,0.518-1.747,1.302-1.379,2.831
			c0.411,1.713,0.215,3.329-2.071,4.049c-0.812,0.255-3.259,0.918-1.287,2.964c0.224,0.231,0.206,0.932-0.232,1.342
			c-0.653,0.611-0.85-0.187-1.121-0.41c-1.026-0.843-2.328-1.653-0.804-3.216C216.834,150.246,216.961,149.562,217.266,148.888z"/>
		<path style="fill-rule:evenodd;clip-rule:evenodd;fill:#7B491E;" d="M249.938,150.013c2.583,0.005,2.734-0.15,2.815-2.712
			c0.053-1.664,0.986-2.662,2.505-3.179c0.257-0.087,0.614-0.03,0.784-0.189c0.882-0.835,2.2-1.171,2.679-0.191
			c0.543,1.11,1.597,2.155,0.54,4.058c-1.248,2.247-3.441,2.817-5.094,4.22c-1.453,1.232-6.753-0.278-8.061-1.802
			c-0.21-0.244-0.232-0.719-0.682-0.606c-1.646,0.409-2.371-0.879-3.398-1.709c-0.936-0.756-1.603-1.852-0.898-2.65
			c0.854-0.968,1.751-2.593,3.633-1.77c0.556,0.243,1.051,0.571,1.703,0.663c2.025,0.283,1.846,1.818,1.521,3.189
			C247.396,149.833,247.469,150.008,249.938,150.013z"/>
		<path style="fill-rule:evenodd;clip-rule:evenodd;fill:#7B491E;" d="M195.468,145.818c0.43,1.765-1.334,2.543-2.214,2.688
			c-2.141,0.35-4.449,1.051-6.596,0.011c-2.602-1.262-4.904-0.612-7.199,0.758c-0.884,0.528-1.884,1.733-2.858,0.894
			c-1.228-1.057-2.167-2.519-1.763-4.394c0.345-1.597,1.528-1.997,2.899-2.064c1.757-0.087,3.462,0.651,4.81,1.451
			c1.185,0.702,2.39,0.388,3.507,0.938c0.715,0.352,1.44-0.529,1.757-1.31c0.637-1.565,1.664-1.963,3.092-1.067
			c0.973,0.61,2.018,0.394,3.033,0.376C195.133,144.077,195.614,144.585,195.468,145.818z"/>
		<path style="fill-rule:evenodd;clip-rule:evenodd;fill:#7B491E;" d="M226.317,149.546c-1.078,0.588-1.973,1.648-3.074,0.32
			c-1.17-1.41-1.17-3.13,0.012-4.245c2.093-1.973,4.329-1.988,5.877-0.085c0.63,0.774,0.825,1.693-0.044,2.141
			c-1.22,0.627-0.617,1.269-0.34,1.984c0.087,0.224-0.192,0.803,0.482,0.498c0.737-0.334,1.217-0.935,1.591-1.595
			c0.151-0.267,0.041-0.688,0.033-1.038c-0.08-3.729,0.573-4.131,4.26-3.496c1.369,0.235,2.23,0.545,2.46,1.907
			c0.232,1.385-0.535,2.344-1.464,3.254c-0.675,0.661-1.478,0.454-2.175,0.36c-1.144-0.154-2.258,0.531-2.466,1.133
			c-0.484,1.399-1.342,1.966-2.577,1.803c-1.437-0.19-2.045-1.386-2.359-2.706C226.519,149.723,226.442,149.679,226.317,149.546z"/>
		<path style="fill-rule:evenodd;clip-rule:evenodd;fill:#7B491E;" d="M202.398,144.119c1.296-0.129,2.73-0.009,3.824,1.539
			c0.902,1.275,0.806,2.521-0.588,3.076c-1.608,0.641-1.728,1.268-0.593,2.642c0.287,0.348,1.136,0.581,0.64,1.219
			c-0.598,0.769-1.231,0.35-1.734-0.233c-0.258-0.3-0.691-0.239-0.928-0.716c-0.578-1.168-0.98-2.204-2.996-1.812
			c-1.691,0.329-1.657-1.724-1.596-3.133c0.058-1.334,0.377-2.444,1.967-2.574C200.952,144.081,201.516,144.119,202.398,144.119z"/>
		<path style="fill-rule:evenodd;clip-rule:evenodd;fill:#7B491E;" d="M372.64,173.39c-0.389,0.615-0.933,0.918-1.758,0.702
			c-3.25-0.846-6.303-1.876-7.002-5.827c-0.211-1.19-1.408-1.803-2.067-2.756c-0.732-1.06-0.318-1.787,0.263-2.339
			c0.525-0.498,1.316-0.863,2.173-0.026c1.761,1.72,3.866,3.105,3.483,6.109c-0.292,2.275,1.688,2.411,3.153,2.589
			C371.957,171.972,372.256,172.571,372.64,173.39z"/>
		<path style="fill-rule:evenodd;clip-rule:evenodd;fill:#7B491E;" d="M366.842,138.2c1.57,0.051,2.093,0.769,1.737,1.955
			c-1.22,4.069-4.293,6.643-7.488,9.107c-0.425,0.328-0.971,0.584-1.238,0.111c-0.239-0.423-0.25-1.14-0.064-1.609
			c0.871-2.198,1.69-4.43,4.088-5.573c0.8-0.382,1.061-1.345,1.339-2.228C365.489,139.099,365.712,137.957,366.842,138.2z"/>
		<path style="fill-rule:evenodd;clip-rule:evenodd;fill:#7B491E;" d="M270.779,150.393c-1.061-0.186-2.667-0.88-4.082-1.885
			c-0.84-0.597-0.688-1.579-0.117-2.403c1.193-1.719,4.141-2.706,6.084-1.896c0.988,0.412,2.182,1.245,1.49,2.433
			C273.387,147.957,274.383,150.638,270.779,150.393z"/>
		<path style="fill-rule:evenodd;clip-rule:evenodd;fill:#7B491E;" d="M20.294,146.412c-1.538-0.179-2.875-1.294-4.577-0.292
			c-0.664,0.391-2.198-0.288-2.494-1.437c-0.316-1.229,0.352-1.918,1.687-2.335c1.257-0.392,2.26-1.239,3.147,0.498
			c0.331,0.648,1.099,0.683,1.558,0.043c0.695-0.967,1.637-0.817,2.227-0.244c0.579,0.562,0.87,1.44,0.333,2.438
			C21.712,145.949,21.198,146.392,20.294,146.412z"/>
		<path style="fill-rule:evenodd;clip-rule:evenodd;fill:#7B491E;" d="M380.444,174.597c-0.682,1.678-0.933,3.488-2.731,4.312
			c-0.574,0.263-1.191,0.347-1.719-0.201c-0.423-0.44,0.077-0.965,0.177-1.035c2.163-1.544,0.825-3.145,0.004-4.596
			c-0.541-0.957-0.878-1.931-0.021-2.57c1.138-0.85,1.501,0.393,2.137,1.099C379.135,172.544,380.087,173.352,380.444,174.597z"/>
		<path style="fill-rule:evenodd;clip-rule:evenodd;fill:#7B491E;" d="M27.095,146.223c-1.96,0.366-2.192-1.339-2.498-2.667
			c-0.283-1.228,1.464-2.969,2.811-2.744c1.109,0.185,2.515,0.509,2.586,2.086C30.071,144.63,28.697,146.223,27.095,146.223z"/>
		<path style="fill-rule:evenodd;clip-rule:evenodd;fill:#7B491E;" d="M30.435,148.751c-0.001,1.065-1.741,2.709-2.843,2.475
			c-0.973-0.207-2.041-0.641-2.184-1.856c-0.131-1.115,1.773-2.71,3.107-2.726C29.951,146.627,30.496,147.412,30.435,148.751z"/>
		<path style="fill-rule:evenodd;clip-rule:evenodd;fill:#7B491E;" d="M9.507,141.593c1.837-0.155,2.286,1.013,2.385,2.398
			c0.111,1.564-1.405,2.075-2.278,2.115c-1.509,0.068-2.119-1.571-2.198-2.746C7.357,142.494,8.112,141.269,9.507,141.593z"/>
		<path style="fill-rule:evenodd;clip-rule:evenodd;fill:#7B491E;" d="M381.133,49.723c0.094,0.696-0.113,0.895-0.644,0.935
			c-0.649,0.049-1.013-0.165-1.15-0.803c-0.178-0.823,0.612-0.747,0.939-0.824C380.785,48.914,381.065,49.406,381.133,49.723z"/>
		<path style="fill-rule:evenodd;clip-rule:evenodd;fill:none;" d="M355.895,86.939c-1.556,1.516-3.177,1.829-4.544,2.595
			c-0.351,0.197-0.481,0.048-0.666-0.134c-0.303-0.298-0.014-0.515,0.17-0.638C352.235,87.836,353.555,86.73,355.895,86.939z"/>
		<path style="fill-rule:evenodd;clip-rule:evenodd;fill:none;" d="M244.199,80.171c1.415-0.644,2.222-0.462,3.602-0.297
			C246.461,80.752,245.635,80.584,244.199,80.171z"/>
	</g>
</g>
</svg>
