<?xml version="1.0" encoding="iso-8859-1"?>
<!-- Generator: Adobe Illustrator 16.0.0, SVG Export Plug-In . SVG Version: 6.00 Build 0)  -->
<!DOCTYPE svg PUBLIC "-//W3C//DTD SVG 1.1//EN" "http://www.w3.org/Graphics/SVG/1.1/DTD/svg11.dtd">
<svg version="1.1" id="Layer_1" xmlns="http://www.w3.org/2000/svg" xmlns:xlink="http://www.w3.org/1999/xlink" x="0px" y="0px"
	 width="401.094px" height="227.245px" viewBox="0 0 401.094 227.245" style="enable-background:new 0 0 401.094 227.245;"
	 xml:space="preserve">
<g>
	<g>
		<path style="fill:none;" d="M200.547,226.698c-65.92,0-131.839-0.009-197.759,0.047c-1.868,0.002-2.29-0.421-2.289-2.288
			c0.055-73.89,0.055-147.779,0-221.669C0.499,0.92,0.921,0.5,2.789,0.5c131.839,0.051,263.678,0.051,395.518,0
			c1.867,0,2.289,0.42,2.288,2.288c-0.055,73.89-0.055,147.779,0,221.669c0.001,1.867-0.421,2.29-2.288,2.288
			C332.386,226.689,266.466,226.698,200.547,226.698z M301.489,64.747c-1.811,4.005-0.807,5.878,3.519,6.525
			c0.421,0.063,0.736,0.235,1.1,0.442c1.789,1.014,3.124,0.478,3.205-1.55c0.085-2.095-0.575-3.984-2.486-5.425
			c-1.97-1.485-3.615-0.455-5.4,0.068c-0.179-3.66,1.714-7.8-2.903-10.383c-1.048-0.587-1.739-2.035-3.108-1.224
			c-1.607,0.951-1.994,2.522-1.111,4.235c0.8,1.553,1.836,3,2.498,4.605C297.707,64.239,299.149,65.191,301.489,64.747z
			 M343.549,152.631c2.512-0.115,4.665-2.077,7.041-0.186c0.255,0.203,0.825,0.106,1.221,0.019c2.188-0.48,4.385-0.94,6.545-1.531
			c1.385-0.379,2.599-1.34,4.075-1.431c3.244-0.2,6.487-0.492,9.706-0.787c6.61-0.605,13.358-0.934,20.01,0.265
			c1.067,0.193,1.809-0.331,2.251-1.159c0.497-0.931-0.101-1.37-0.929-1.875c-1.979-1.207-3.983-2.225-6.361-1.919
			c-2.449,0.314-5.041-0.307-6.814-1.37c-3.232-1.938-6.247-1.83-9.598-1.21c-0.942,0.175-2.188,0.576-3.155-1.149
			c1.817,0.91,2.772-0.815,4.096-0.721c3.161,0.226,6.042-0.983,8.995-1.647c2.404-0.54,4.953,0.211,7.199-1.007
			c0.932-0.505,2.127-0.9,1.456-2.479c-0.917-2.157-3.74-3.979-5.949-3.31c-1.644,0.499-3.278,0.774-4.941,1.096
			c-1.661,0.32-3.496,0.368-4.955,1.016c-4.052,1.8-8.105,2.6-12.455,1.588c1.443-1.557,3.592-2.087,5.353-2.154
			c6.075-0.23,10.583-4.452,16.182-5.819c3.012-0.735,3.621-4.611,6.631-5.721c0.826-0.305,1.235-1.736,0.719-3.044
			c-0.534-1.351-1.542-0.99-2.443-0.968c-3.893,0.096-8.088-0.942-11.054,2.839c-0.143,0.182-0.635,0.062-0.951,0.139
			c-3.435,0.815-6.773,2.025-9.912,3.545c-2.738,1.325-5.666,2.077-8.396,3.365c-0.471,0.222-1.379,0.39-1.806-0.271
			c-0.254-0.392-0.111-0.928,0.331-1.326c2.509-2.257,4.657-4.864,7.34-6.978c4.333-3.414,9.928-5.425,12.347-11.07
			c0.477-1.11,1.116-1.849,0.364-3.068c-0.771-1.253-1.538-2.08-3.211-2.187c-5.213-0.332-9.267,2.245-12.683,5.502
			c-5.054,4.816-10.907,8.705-15.642,13.854c-0.669,0.728-1.406,0.745-2.297,0.447c0.903-1.627,1.899-3.187,2.661-4.853
			c0.813-1.78,1.627-3.729,1.239-5.661c-0.471-2.346-4.146-3.345-6.29-1.64c-3.092,2.458-5.873,5.302-8.92,7.821
			c-4.613,3.813-7.645,8.938-11.342,13.498c-2.188,2.697-4.903,4.924-6.722,7.972c-0.891,1.493-2.332,2.65-2.885,4.428
			c-0.091,0.291-0.471,1.185-1.239,0.691c-0.479-0.308-0.268-0.713-0.215-1.229c0.224-2.162,1.216-4.104,1.413-6.331
			c0.212-2.384,1.396-4.881,3.24-6.604c1.25-1.167,2.739-1.981,3.073-3.854c0.453-2.544-2.066-2.345-3.17-3.426
			c-1.2-1.177-2.586-1.068-4.067-0.171c-2.438,1.479-4.123,3.614-5.829,5.82c-4.353,5.63-8.367,11.281-10.07,18.499
			c-0.735,3.113-2.497,6.467-5.764,8.499c-1.221,0.759-3.008,1.475-3.417,3.03c-0.868,3.301-3.351,4.643-6.129,5.856
			c-3.589,1.565-6.883,3.742-10.588,5.088c-2.544,0.924-5.02,2.035-7.548,3.006c-2.247,0.863-2.135,2.596-1.538,4.345
			c0.59,1.729,1.703,2.577,3.787,2.01c1.853-0.504,3.604-1.697,5.426-1.687c2.007,0.012,3.718-0.385,5.423-1.279
			c3.907-2.051,8.029-3.571,12.287-4.674c2.12-0.549,4.579,0.435,6.492-0.828c1.682-1.108,3.451-1.616,5.32-2.138
			c6.009-1.675,12.107-2.886,18.331-3.132c5.81-0.229,11.559,0.548,17.337,1.316c5.989,0.797,12.183-0.673,18.171,1.104
			c0.259,0.077,0.607-0.159,0.916-0.241c3.052-0.807,6.45-1.609,9.197-0.443c3.195,1.356,6.668,1.743,9.742,3.401
			c1.951,1.054,4.483,0.235,4.942-1.193c1.32-4.111-0.046-6.406-4.458-7.495c-3.112-0.768-6.201-1.778-9.194-2.778
			c-4.344-1.45-8.71-2.708-13.101-3.973C346.866,154.24,344.745,154.738,343.549,152.631z M165.755,163.449
			c-1.349-1.405-2.954-1.402-4.326-0.68c-2.766,1.457-5.865,2.389-6.944,6.155c-0.438,1.528-0.108,2.494,0.369,3.525
			c0.567,1.23,1.798,1.166,3.106,0.546c-0.297,1.935,0.692,3.354,1.626,4.733c0.964,1.423,2.014,1.216,2.571-0.358
			c0.646-1.826,0.398-3.774,0.145-5.622c-0.154-1.125-1.369-1.009-2.243-0.66c-0.551,0.221-0.755,1.022-1.481,1.104
			c0.03-2.652,1.24-3.599,3.636-2.854c0.771,0.24,1.474-0.054,1.638-0.696c0.253-0.985,1.189-1.332,1.598-2.152
			c0.443-0.89,0.991-1.293,1.763-0.093c0.634,0.986,1.512,1.698,2.248-0.086c0.274-0.664,0.962-1.024,1.587-1.452
			c1.561-1.065,1.814-2.784,1.083-4.353c-0.706-1.514-2.066-0.98-3.418-0.612C166.865,160.396,166.055,161.562,165.755,163.449z
			 M330.306,68.934c0-0.704,0.079-1.295-0.015-1.858c-0.322-1.934-1.908-3.253-3.304-2.809c-1.853,0.589-4.246-0.837-4.645-2.769
			c-0.793-3.846-2.893-4.743-6.183-2.641c-2.141,1.367-2.004,5.269,0.257,6.448c1.215,0.634,2.49,1.087,3.92,1.009
			c1.566-0.085,2.534,0.328,2.564,2.296c0.037,2.373,2.233,3.438,3.865,4.543c1.249,0.845,2.091-0.798,2.996-1.563
			C330.697,70.8,330.152,69.739,330.306,68.934z M190.771,77.529c0.094,2.036,1.228,3.595,2.838,4.538
			c1.037,0.608,2.251-0.35,2.87-1.299c1.396-2.144,2.401-0.966,3.267,0.329c0.649,0.971,1.178,1.992,2.459,2.124
			c1.311,0.134,4.509-2.225,4.501-3.243c-0.005-0.574-3.893-5.215-4.376-5.206c-0.41,0.008-0.871-0.062-1.223,0.095
			c-0.976,0.437-2.002,0.595-2.63,1.842c-0.655,1.302-1.719,1.371-2.214-0.44c-0.192-0.702-0.684-1.394-0.384-2.091
			c0.394-0.914,0.151-1.82-0.645-1.808c-1.462,0.022-2.81-1.189-4.283-0.351c-0.128,0.073-0.2,0.56-0.097,0.677
			C192.276,74.317,190.843,75.905,190.771,77.529z M165.257,32.427c-1.331,0.204-2.412,0.509-2.396,2.571
			c0.02,2.709,0.814,5.294,0.94,7.902c0.146,3.009,2.601,4.168,3.795,6.279c0.243,0.43,1.21,0.317,1.829-0.072
			c1.822-1.148,2.691-6.206,1.203-7.713c-1.296-1.312-1.671-2.685-1.266-4.481C169.771,35.099,167.332,32.448,165.257,32.427z
			 M183.367,31.532c-0.059-2.104,0.295-4.247-0.998-6.185c-1.221-1.831-2.29-1.82-3.496,0.051c-2.313,3.591-0.135,6.733,1.279,9.705
			c0.5,1.05,0.45,1.556,0.211,2.426c-0.604,2.201-1.423,4.447,0.054,6.604c0.5,0.729,0.737,2.237,2.024,1.656
			c1.12-0.505,1.811-1.596,1.104-3.026c-0.309-0.624-0.465-1.374,0.634-1.357c1.765,0.028,1.777-1.585,2.06-2.538
			c0.331-1.114-0.564-2.523-1.579-2.737c-1.498-0.316-1.309-1.14-1.3-2.108C183.368,33.193,183.362,32.363,183.367,31.532z
			 M53.847,23.937c-0.001-2.618-2.303-5.255-4.661-5.338c-2.014-0.071-4.809,3.802-4.803,6.656c0.005,3.159,1.386,4.684,4.241,4.682
			C51.623,29.935,53.848,27.378,53.847,23.937z M284.59,114.332c-2.803-0.688-4.673,0.768-6.563,2.048
			c-1.068,0.724-1.291,1.639-0.643,2.972c0.704,1.446,1.659,2.015,3.101,1.688c0.702-0.16,1.358-0.422,2.113-0.467
			c2.484-0.147,3.16-0.965,2.859-3.425c-0.097-0.793-0.417-1.56-0.636-2.34c4.27-0.517,6.013-1.73,5.634-3.917
			c-0.334-1.924-2.418-3.39-4.124-2.9C284.123,108.625,283.461,110.792,284.59,114.332z M103.015,42.888
			c-3.868-0.001-5.305,1.173-5.332,4.356c-0.026,3.099,1.845,4.413,6.546,4.597c1.745,0.069,3.416-1.99,3.417-4.208
			C107.646,44.23,106.338,42.889,103.015,42.888z M302.416,47.663c0-0.166,0.057-0.359-0.009-0.493
			c-1.312-2.683-2.312-5.375-2.18-8.505c0.042-0.988-1.628-1.392-2.718-0.543c-3.048,2.372-3.375,6.441-0.999,9.646
			c0.584,0.787,1.357,1.52,1.482,2.714c0.133,1.28,1.139,1.788,2.213,0.872C301.319,50.403,302.652,49.47,302.416,47.663z
			 M133.343,124.083c3.759,0.013,6.608-2.103,6.681-4.841c0.066-2.473-1.559-4.134-4.037-4.125
			c-3.227,0.011-5.335,2.368-5.453,5.869C130.461,123.156,131.164,124.344,133.343,124.083z M83.735,24.153
			c0.002-2.833-1.173-3.708-3.955-3.215c-0.986,0.174-1.809-0.115-2.713-0.742c-0.674-0.466-1.525-1.698-2.877-0.502
			c-0.843,0.746-1.869,1.129-1.508,2.495c0.393,1.487,0.65,3.197,2.667,3.224c1.053,0.014,1.696,0.464,2.284,1.173
			c0.97,1.17,2.096,1.873,3.617,1.101C82.752,26.924,84.129,26.025,83.735,24.153z M52.38,37.125
			c-0.097-2.501-1.064-4.355-2.941-5.056c-1.854-0.692-3.256,0.531-4.359,2.246c-0.564,0.877-0.751,1.902-1.454,2.753
			c-0.636,0.77-0.543,2.119,0.535,2.841c1.414,0.947,2.85,2.846,4.467,2.221C50.757,41.307,51.263,38.681,52.38,37.125z
			 M165.081,59.824c-3.085-0.006-4.351,0.875-4.09,3.152c0.177,1.545,0.719,3.141,1.749,4.322c2.496,2.864,3.375,2.614,5.852-0.83
			c1.08-1.5,1.933-3.006,0.985-4.669C168.66,60.192,166.939,59.673,165.081,59.824z M149.996,203.863
			c-0.127,1.347,0.051,2.584,0.982,3.669c0.631,0.735,1.409,0.979,2.199,0.631c0.897-0.396,0.509-1.208,0.56-2.018
			c0.151-2.407-0.486-4.844,0.366-7.245c0.661-1.863,1.352-3.737,0.472-5.859c-0.698-1.683-2.044-1.317-3.158-1.325
			c-1.167-0.008-1.457,0.977-1.46,2.122c-0.005,1.969-0.083,3.959,1.477,5.414c0.718,0.671-0.232,0.927-0.081,1.384
			C149.455,201.104,150.102,202.646,149.996,203.863z M123.772,176.543c1.358,0.231,1.026,2.312,2.582,2.321
			c0.798,0.005,1.132-0.547,1.278-1.256c0.417-2.016-0.138-3.905-0.881-5.723c-0.292-0.714-1.145-0.497-1.796-0.423
			c-0.145,0.017-0.337,0.128-0.403,0.251c-0.578,1.086-1.185,0.779-2.154,0.363c-1.632-0.701-3.27,0.023-4.556,1.022
			c-0.831,0.646-1.098,1.957-0.626,2.947c0.864,1.815,2.692,2.73,4.474,3.021C123,179.28,123.164,177.442,123.772,176.543z
			 M306.702,101.84c0.99,0.54,1.702,0.406,2.062-0.413c0.355-0.809,0.185-1.606-0.56-2.214c-0.704-0.576-1.295-1.255-1.62-2.119
			c-0.737-1.964-2.41-2.082-4.054-1.854c-1.755,0.244-4.124,3.071-4.089,4.654c0.047,2.179,1.789,2.249,3.32,2.857
			c1.435,0.57,2.482,0.011,3.668-0.362C305.915,102.236,306.37,101.985,306.702,101.84z M323.837,47.978
			c-0.041,1.943,1.946,3.135,4.022,2.63c2.588-0.63,4.067-2.973,6.402-3.989c0.503-0.218,1.46-0.255,1.307-1.139
			c-0.13-0.745-0.619-1.254-1.563-1.14c-0.319,0.039-0.689-0.348-1.037-0.541c-3.109-1.723-6.146-0.956-8.121,2.137
			C324.434,46.582,323.515,47.042,323.837,47.978z M187.35,74.527c0.005-1.077-0.313-2.181-1.472-2.719
			c-1.436-0.666-3.026-0.84-4.395,0.011c-0.896,0.557-1.916,1.538-1.551,2.72c0.612,1.981,0.89,4.101,2.006,5.9
			c0.822,1.328,1.617,1.686,3.139,0.458C187.221,79.17,186.474,76.684,187.35,74.527z M333.797,62.27
			c-0.034,3.15,3.536,5.887,6.549,4.993c0.876-0.26,0.822-1.035,0.963-1.787c0.197-1.054-0.671-1.829-0.499-2.841
			c0.438-2.568-0.655-4.691-2.43-4.8C336.443,57.714,333.82,60.254,333.797,62.27z M171.921,69.586
			c-0.382,1.646,0.318,3.039,1.059,4.391c0.502,0.917,1.275,1.349,2.425,1.328c1.235-0.022,1.537-0.914,1.786-1.693
			c0.283-0.884,0.692-1.58,1.325-2.245c1.359-1.43,1.173-3.277-0.363-4.498c-2.405-1.912-4.694-1.944-5.924-0.139
			C171.596,67.659,172.095,68.652,171.921,69.586z M332.805,36.2c-0.069,2.055,0.372,3.608,2.067,4.131
			c1.673,0.516,2.676-0.636,3.445-2.048c0.661-1.21,1.464-2.14,3.196-1.955c0.976,0.105,2.119-0.435,1.944-1.989
			c-0.166-1.472-0.811-1.733-2.205-1.468c-1.094,0.208-2.312,0.07-3.419-0.17C335.393,32.17,332.827,34.083,332.805,36.2z
			 M152.533,112.635c-0.076-2.379-2.303-4.532-4.006-3.738c-1.54,0.717-3.03,1.647-4.043,3.062c-0.871,1.217-1.301,2.541-0.029,3.86
			c1.04,1.077,2.366,2.721,3.664,1.597C149.712,116.037,152.372,115.368,152.533,112.635z M313.952,70.784
			c-1.049-0.157-1.564,0.63-2.096,1.536c-1.04,1.771-0.062,3.561,0.252,5.141c0.391,1.958,2.78,2.295,4.54,2.664
			c0.889,0.187,1.868-0.505,2.352-1.701C320.015,75.91,316.824,70.776,313.952,70.784z M47.167,65.38
			c0.435-0.12,0.969-0.101,1.18-0.352c1.294-1.547,2.078-3.421,2.429-5.338c0.228-1.244-0.797-2.45-2.182-2.226
			c-1.684,0.273-3.393,0.783-4.853,1.779c-1.118,0.762-2.411,1.608-2.275,3.105c0.163,1.793,1.926,2.239,3.263,2.885
			C45.456,65.584,46.377,64.725,47.167,65.38z M45.857,47.557c0.641-0.776,0.089-1.635-0.025-2.443
			c-0.18-1.275-0.987-1.66-2.077-0.82c-2.368,1.827-3.595,4.27-3.868,7.242c-0.131,1.43,0.86,2.396,1.807,2.629
			c1.495,0.368,3.237,0.722,4.537-0.887c0.857-1.061,1.026-2.125,0.167-3.086C45.653,49.357,46.004,48.481,45.857,47.557z
			 M63.263,57.829c0.753,0.172,1.619-0.289,2.027-0.841c0.935-1.263,0.762-2.985,1.309-4.472c0.29-0.789-0.761-2.854-2.923-2.691
			c-3.022,0.227-5.843,2.378-5.837,4.742C57.842,56.038,60.798,57.866,63.263,57.829z M187.144,84.243
			c-0.588-0.084-0.876,0.366-1.248,0.682c-1.046,0.888-1.993,1.981-3.186,2.581c-1.312,0.659-1.146,1.51-0.832,2.492
			c1.009,3.146,1.837,3.42,4.812,1.768c0.546-0.304,1.25-0.317,1.809-0.604c1.455-0.747,2.387-1.999,2.25-3.622
			C190.574,85.471,189.031,84.593,187.144,84.243z M222.216,28.722c-0.522,1.898,0.611,3.243,2.554,3.056
			c1.546-0.148,3.271-0.819,4.453-2.146c1.445-1.621,1.232-4.9-0.347-5.594C225.693,22.637,222.215,24.939,222.216,28.722z
			 M228.903,73.279c1.045,0.192,1.995,0.509,2.847-0.683c0.869-1.215,0.286-2.252-0.137-3.199c-0.482-1.08-1.598-0.75-2.611-0.65
			c-1.443,0.142-2.88,0.147-4.271-0.644c-1.416-0.806-2.914-0.465-3.422,1.137c-0.472,1.483,0.682,2.856,1.613,3.788
			c0.727,0.727,2.015,1.805,3.393,0.713C227.11,73.112,228.018,73.303,228.903,73.279z M95.781,18.479
			c-3.726-0.076-5.789,2.012-5.57,5.635c0.126,2.082,1.794,3.044,3.556,1.976c1.231-0.746,2.359-1.632,3.688-2.25
			c1.458-0.678,1.558-2.199,1.118-3.42C98.18,19.331,97.3,18.273,95.781,18.479z M213.235,51.033
			c-0.323,1.451,0.421,2.909,1.281,4.287c0.37,0.591,0.917,1.228,1.82,0.997c2.35-0.601,4.395-6.161,2.949-8.098
			c-1.052-1.409-2.445-1.773-4.178-1.375C212.743,47.386,213.326,49.196,213.235,51.033z M212.795,71.779
			c-2.229-0.007-4.844,1.417-4.913,2.675c-0.091,1.629,3.411,5.283,5.075,5.294c1.776,0.012,3.253-2.075,3.281-4.639
			C216.264,72.789,215.229,71.787,212.795,71.779z M178.489,95.111c-2.842,0.176-4.463,1.575-5.644,3.417
			c-1.317,2.057-0.001,3.66,1.531,4.768c1.55,1.123,2.467-0.068,3.152-1.449c0.374-0.751,1.312-0.956,1.853-1.504
			c0.921-0.935,2.311-1.972,1.798-3.396C180.764,95.792,179.638,94.769,178.489,95.111z M191.359,58.687
			c-0.083-2.083-1.985-2.856-3.116-4.161c-1.187-1.371-2.386-0.77-3.212,0.489c-0.514,0.784-0.833,1.73-1.082,2.647
			c-0.51,1.884,0.126,3.521,1.43,4.868c0.541,0.56,1.445,0.942,2.068,0.243C188.697,61.37,191.661,61.595,191.359,58.687z
			 M15.498,84.791c-0.172,0.83,0.223,1.454,0.864,2.078c2.063,2.007,7.493,0.542,8.469-2.305c0.382-1.113,0.071-2.218-0.895-2.5
			c-1.669-0.486-3.489-1.347-5.184-0.652C17.332,81.995,15.25,82.329,15.498,84.791z M208.774,49.047
			c-0.552-1.07-0.155-3.089-2.771-3.22c-3.549-0.176-4.188,1.268-4.517,3.785c-0.323,2.488,1.253,4.739,2.815,4.732
			C206.47,54.334,208.722,51.873,208.774,49.047z M159.479,183.822c-0.002-2.328-1.406-3.6-2.611-4.93
			c-0.682-0.753-1.625-0.663-1.838,0.42c-0.29,1.466-1.064,2.658-1.698,3.943c-0.767,1.554-0.479,3.02,0.621,4.293
			c1.375,1.592,4.157,1.479,4.744-0.238C159.107,186.109,159.581,184.864,159.479,183.822z M344.763,52.096
			c0,0.664-0.121,1.355,0.026,1.984c0.277,1.187,1.055,2.039,2.293,2.232c1.071,0.167,2.489,0.228,2.793-0.958
			c0.431-1.685,1.607-3.095,1.426-5.047c-0.19-2.044-1.437-2.697-3.007-2.887C346.37,47.188,344.756,49.459,344.763,52.096z
			 M323.183,36.412c2.126-0.005,4.215-1.656,4.132-3.266c-0.062-1.185-3.9-4.696-5.135-4.697c-1.331,0-2.891,2.391-2.827,4.337
			C319.419,34.828,321.097,36.417,323.183,36.412z M305.405,17.484c-0.001,1.188,2.617,5.673,3.355,5.937
			c0.221,0.078,0.503,0.067,0.736,0.011c2.353-0.565,4.031-4.231,2.721-6.257c-1.096-1.693-2.751-2.891-4.876-2.61
			C305.659,14.786,305.666,16.428,305.405,17.484z M163.185,109.638c2.604-0.021,6.2-2.577,6.224-4.207
			c0.017-1.224-2.257-3.675-3.464-3.733c-1.597-0.079-5.225,3.532-4.958,5.116C161.216,108.173,161.77,109.485,163.185,109.638z
			 M212.258,30.906c0,0.415-0.151,0.915,0.026,1.229c0.724,1.273,1.038,3.447,3.057,2.845c2.09-0.623,3.482-2.593,3.792-4.652
			c0.41-2.73-0.655-3.357-3.214-3.837C214.35,26.196,212.256,28.867,212.258,30.906z M173.842,51.708
			c0.239,1.709,0.831,3.302,2.624,3.924c1.77,0.613,3.613,0.188,5.058-0.843c0.809-0.577,1.422-1.82,0.156-2.917
			c-1.044-0.905-1.962-1.949-3.194-2.635c-1.169-0.651-2.424-0.569-3.527-0.116C173.983,49.522,173.687,50.568,173.842,51.708z
			 M144.521,173.837c0.121-1.072-0.347-1.944-1.029-2.657c-0.868-0.907-2.145-1.889-3.186-1.043
			c-0.978,0.795-2.646,1.819-2.17,3.371c0.579,1.888,1.69,3.627,2.68,5.368c0.349,0.614,0.984,1.307,1.828,0.936
			c0.646-0.283,1.411-0.794,1.328-1.622C143.819,176.677,144.444,175.294,144.521,173.837z M183.708,13
			c-2.211-0.03-4.422,2.064-4.279,4.361c0.09,1.461-0.262,3.519,2.204,3.596c2.136,0.067,4.623-2.708,4.734-5.059
			C186.457,13.971,185.796,12.865,183.708,13z M142.036,200.602c-0.065-1.589,0.021-2.69-0.45-3.82
			c-0.495-1.189-1.083-2.464-2.366-2.258c-1.375,0.222-2.388,1.268-2.216,3.023c0.119,1.214,0.181,2.381-0.329,3.682
			c-0.47,1.199,0.547,2.612,1.907,2.986c1.382,0.38,2.858,0.18,3.292-1.604C142.067,201.819,142.011,200.97,142.036,200.602z
			 M200.795,33.553c-0.542,1.74,0.889,2.761,2.115,3.6c0.962,0.658,2.027-0.433,2.731-0.989c1.184-0.937,2.187-2.197,2.993-3.491
			c0.806-1.293-0.061-2.63-1.583-2.728c-0.74-0.048-1.492-0.066-2.23,0.002C202.06,30.206,200.81,31.281,200.795,33.553z
			 M76.483,46.871c-0.618-0.104-1.134,0.173-1.664,0.663c-1.74,1.61-2.242,4.921-0.894,7.161c0.375,0.625,0.078,1.764,1.576,1.723
			c1.386-0.038,1.626-1.085,2.034-1.759c0.766-1.266,1.25-2.734,1.662-4.172C79.697,48.741,78.29,46.909,76.483,46.871z
			 M90.653,47.284c0.485-1.565-0.503-2.578-1.625-3.205c-1.214-0.678-2.307,0.157-3.245,0.993c-1.812,1.613-1.862,5.497,0.032,7.023
			c0.607,0.49,1.697,1.392,2.346,0.459C89.265,50.969,91.249,49.713,90.653,47.284z M325.024,25.453
			c2.633,0.004,3.326-0.637,3.294-3.052c-0.024-1.806-2.467-4.785-3.89-4.744c-1.467,0.042-3.098,2.335-3.081,4.333
			C321.367,24.372,322.509,25.449,325.024,25.453z M243.656,68.938c0.434-1.768-0.55-3.106-2.445-3.548
			c-1.798-0.419-3.863-0.283-4.798,1.534c-1.018,1.976,0.936,2.915,2.14,4.009c0.122,0.111,0.229,0.239,0.354,0.347
			c0.959,0.827,1.749,1.806,3.354,1.217C244.044,71.842,243.557,70.485,243.656,68.938z M133.069,207.271
			c1.704-0.014,3.489-3.134,2.277-4.57c-0.872-1.032-0.43-1.677-0.247-2.408c0.409-1.629,0.083-3.151-0.605-4.536
			c-0.761-1.529-1.648-1.275-2.472,0.141c-1.036,1.782-0.304,3.448,0.685,4.677c1.187,1.475,0.212,2.039-0.713,2.122
			c-1.407,0.124-2.14,0.936-1.828,1.929C130.557,205.874,131.048,207.568,133.069,207.271z M312.664,83.236
			c-2.565-0.013-3.754,1.212-3.772,3.888c-0.017,2.375,1.316,4.14,3.08,4.08c1.708-0.058,3.361-2.386,3.387-4.855
			C315.377,84.55,314.984,83.041,312.664,83.236z M272.192,126.549c1.202-0.074,2.729-1.42,3.191-3.355
			c0.457-1.915-0.717-3.915-2.361-4.646c-1.729-0.77-2.219,1.511-3.183,2.521c-0.49,0.513-0.884,1.146-1.209,1.783
			C267.55,124.974,268.695,126.633,272.192,126.549z M61.674,36.902c-1.887,0.215-2.457,2.287-3.412,4.15
			c-1.219,2.378,0.782,2.954,1.966,3.944c1.425,1.192,2.089-0.348,2.744-1.092c0.769-0.875,1.39-1.963,1.783-3.063
			C65.337,39.209,63.84,36.929,61.674,36.902z M303.941,28.028c-0.632,1.901,0.805,2.984,2.015,4.25
			c1.399,1.465,2.696,1.282,3.433-0.62c0.616-1.589-0.227-5.852-1.525-6.9c-0.604-0.489-1.273-0.951-2.374-0.387
			C303.869,25.204,303.819,26.421,303.941,28.028z M224.753,47.869c-2.214-0.021-3.305,1.449-2.676,3.651
			c0.466,1.633,0.618,3.677,2.491,4.224c1.439,0.421,4.104-2.521,4.122-4.123C228.713,49.625,226.893,47.891,224.753,47.869z
			 M30.435,73.854c0.028,1.56,1.642,3.847,2.749,3.896c1.513,0.069,4.406-3.307,4.188-5.084c-0.16-1.302-0.677-2.649-2.215-2.838
			C33.469,69.62,30.408,72.357,30.435,73.854z M317.194,52.326c0.963-0.194,2.339,0.61,2.912-0.598
			c0.955-2.013-0.238-3.644-1.623-4.888c-1.251-1.123-2.831-1.714-4.261-0.061c-0.833,0.963-1.614,1.727-0.997,3.382
			C314.012,52.274,315.281,52.653,317.194,52.326z M67.29,31.892c0.22,1.252,0.9,2.935,2.649,3.446
			c2.005,0.585,2.475-1.145,2.935-2.652c0.162-0.532,0.604-0.976,0.789-1.504c0.363-1.04-1.355-4.111-2.297-4.202
			C70.176,26.864,67.315,29.95,67.29,31.892z M125.079,201.293c0.207-2.914-2.156-4.359-3.317-6.418
			c-0.334-0.594-1.281-0.271-1.934-0.052c-1.789,0.602-1.901,2.134-1.665,3.575c0.175,1.07,0.586,2.23,2.265,2.014
			c0.787-0.102,1.558,0.301,1.76,1.479c0.137,0.799,0.954,1.663,2.038,1.336C125.212,202.928,125.118,201.981,125.079,201.293z
			 M77.259,40.172c0.008,1.951,0.875,2.774,2.862,2.715c2.389-0.07,4.362-1.319,4.042-2.807c-0.351-1.637-0.461-3.787-2.695-4.113
			C79.579,35.69,77.251,38.195,77.259,40.172z M152.478,178.208c0.008-2.486-1.482-5.013-3.084-4.729
			c-2.515,0.444-2.409,2.637-2.396,4.606c0,0.082,0.009,0.166-0.001,0.247c-0.236,1.8,0.543,3.102,2.251,3.477
			C150.661,182.118,152.472,179.923,152.478,178.208z M193.318,47.847c0-0.576,0.21-1.273-0.039-1.706
			c-0.793-1.375-1.097-3.458-3.342-3.208c-1.686,0.188-2.305,2.057-1.636,4.261c0.254,0.838,0.255,1.764,0.58,2.564
			c0.429,1.06,1.161,2.24,2.411,1.998c1.051-0.203,1.98-1.098,2.028-2.429C193.338,48.835,193.323,48.341,193.318,47.847z
			 M196.314,65.946c0.402-1.879-0.537-3.101-2.57-3.413c-1.247-0.191-3.438,2.406-3.406,3.874c0.046,2.096,1.282,4.09,2.526,4.074
			C195.05,70.453,196.303,68.887,196.314,65.946z M314.256,44.847c-0.2-0.578-0.285-0.889-0.413-1.181
			c-0.9-2.067-2.817-3.233-4.254-4.827c-0.678-0.752-1.544-1.335-2.33-0.826c-0.771,0.5-1.05,1.555-0.779,2.623
			c0.696,2.745,3.359,3.847,4.922,5.875C311.979,47.259,314.306,45.614,314.256,44.847z M178.38,188.885
			c0.103-1.564-0.069-3.07-2.33-3.031c-1.882,0.033-3.683,2.177-3.442,4.629c0.145,1.475,0.569,3.259,2.712,3.332
			C176.912,193.868,178.386,191.536,178.38,188.885z M205.778,160.464c0-2.268-1.621-4.076-4.247-4.452
			c-0.949-0.137-2.35-0.546-2.672,0.979c-0.276,1.308-0.229,2.762,1.274,3.372c0.686,0.278,1.385,0.262,1.684,1.136
			c0.413,1.207,0.987,2.3,2.616,1.91C206.151,162.997,205.735,161.63,205.778,160.464z M197.518,47.845
			c-1.658,0.035-3.171,1.815-3.19,3.745c-0.022,2.263,1.145,3.808,2.835,3.75c1.678-0.058,3.121-2.016,3.14-4.217
			C200.318,49.201,199.747,47.814,197.518,47.845z M168.405,183.997c0.105-1.846-0.919-2.719-1.893-3.012
			c-1.061-0.318-2.215,0.294-2.626,1.591c-0.558,1.763-0.961,3.553-0.943,5.416c0.01,0.968,0.686,1.495,1.437,1.789
			c0.755,0.294,1.545-0.246,1.936-0.734C167.581,187.464,167.747,185.396,168.405,183.997z M147.546,190.896
			c0.12-1.421-0.756-3.142-2.075-4.65c-0.695-0.795-1.44-2.003-2.721-0.862c-1.146,1.021-1.252,2.75-0.294,3.468
			c1.698,1.27,1.638,2.769,1.55,4.45c-0.039,0.749,0.238,1.321,0.985,1.475c0.642,0.132,1.233,0.03,1.817-0.469
			C147.74,193.512,147.43,192.52,147.546,190.896z M353.719,18.142c0.039,2.609,1.551,4.32,3.561,4.333
			c1.83,0.011,2.805-1.037,2.868-2.667c0.081-2.042-2.55-4.525-4.447-4.242C354.278,15.778,353.325,16.68,353.719,18.142z
			 M153.463,166.858c0.004,0,0.007,0,0.011,0c0-0.414-0.019-0.83,0.003-1.244c0.13-2.518-1.58-2.574-3.415-2.705
			c-2.232-0.16-2.017,1.244-2.099,2.719c-0.101,1.812,1.498,2.618,2.104,4c0.334,0.762,1.091,1.111,1.955,0.966
			c0.963-0.161,1.224-1.004,1.409-1.753C153.586,168.216,153.463,167.522,153.463,166.858z M353.178,43.12
			c0.202,1.972,1.234,3.443,2.094,4.913c0.348,0.595,1.505,1.398,2.529,0.476c0.911-0.82,2.075-1.706,1.128-3.061
			c-0.514-0.734-0.604-1.417-0.766-2.216c-0.344-1.697-1.715-2.692-3.26-2.747C353.203,40.423,353.968,42.433,353.178,43.12z
			 M191.863,155.889c-0.545-0.137-1.244,0.314-1.714,1.039c-0.523,0.807-0.655,1.894,0.022,2.512
			c1.067,0.973,1.536,2.256,2.295,3.384c1.011,1.503,2.197,1.527,3.15,0.015c0.99-1.572,0.106-3.151-0.449-4.514
			C194.722,157.23,193.789,156.062,191.863,155.889z M141.02,167.005c0.004-1.408-0.943-3.182-1.997-3.811
			c-1.161-0.692-4.606-0.024-4.88,1.065c-0.482,1.912,0.437,3.111,2.289,3.679c0.532,0.162,1.134,0.346,1.51,0.716
			c0.658,0.647,1.482,1.102,2.195,0.663C140.873,168.865,141.16,167.894,141.02,167.005z M348.234,24.542
			c0.2-0.917-0.117-1.757-0.963-2.28c-1.362-0.842-2.448-0.014-3.557,0.698c-1.377,0.886-1.263,2.25-1.129,3.558
			c0.143,1.393,0.97,2.386,2.285,2.884c0.238,0.09,0.753-0.053,0.883-0.254C346.691,27.702,348.487,26.716,348.234,24.542z
			 M132.056,186.676c-0.796-1.115,0.081-3.45-2.335-3.795c-1.385-0.198-3.262,1.951-3.111,3.712
			c0.147,1.723,0.378,3.661,2.452,4.156C130.328,191.051,132.019,188.684,132.056,186.676z M138.109,184.355
			c-0.549-0.099-0.985,0.198-1.453,0.605c-1.975,1.72-2.072,3.376-0.278,5.958c1.27,1.827,2.043,1.76,3.039-0.229
			c0.321-0.643,0.73-1.241,1.107-1.855C141.575,187.123,140.193,184.47,138.109,184.355z M296.485,104.533
			c-2.424,0.26-4.448-0.154-4.515,2.438c-0.048,1.876,2.025,3.269,4.555,3.162c1.999-0.084,2.664-1.769,2.63-3.113
			C299.11,105.188,297.662,104.28,296.485,104.533z M134.033,175.506c0.328-0.886-0.533-1.646-0.466-2.534
			c0.147-1.958-1.166-2.104-2.53-2.041c-1.564,0.072-1.999,1.112-1.991,2.549c0.009,1.54,0.891,2.75,1.495,4.021
			c0.345,0.725,0.557,2.102,1.953,1.849c1.41-0.255,0.935-1.729,1.508-2.546C134.197,176.526,134.033,175.997,134.033,175.506z
			 M193.822,38.799c0.002,2.145,1.605,3.664,3.926,3.544c1.256-0.065,2.653-0.374,2.557-2.224c-0.062-1.18-3.249-4.26-4.483-4.189
			C193.894,36.042,193.735,37.416,193.822,38.799z M178.375,163.716c0-0.657,0.044-1.317-0.01-1.971
			c-0.104-1.267-0.917-2.314-2.052-2.166c-1.062,0.138-2.534,0.782-2.372,2.312c0.192,1.81,0.616,3.613,1.144,5.357
			c0.178,0.587,0.798,1.291,1.705,1.151c0.769-0.118,0.887-0.712,1.145-1.357C178.377,165.939,178.391,164.845,178.375,163.716z
			 M166.908,195.079c0-0.739,0.187-1.546-0.045-2.203c-0.323-0.912-0.497-2.14-1.985-2.051c-1.56,0.094-2.494,1.642-2.271,2.383
			c0.528,1.751-0.168,3.748,1.201,5.337c0.471,0.547,0.624,1.346,1.541,1.229c0.772-0.099,0.862-0.738,1.135-1.364
			C166.966,197.304,166.902,196.203,166.908,195.079z M56.836,49.027c0.055-1.675-0.8-2.606-2.433-2.65
			c-2.031-0.053-3.682,1.262-3.335,3.163c0.239,1.312-0.01,3.278,1.936,3.771C54.003,53.564,56.792,50.333,56.836,49.027z
			 M160.955,204.164c-0.554,1.35,0.779,2.489,1.187,3.85c0.394,1.312,1.647,0.946,2.279-0.025c1.254-1.93,1.25-4.069,0.491-6.177
			c-0.307-0.853-0.948-1.762-1.987-1.442c-0.904,0.278-1.678,1.031-1.949,2.035C160.851,202.866,160.955,203.39,160.955,204.164z
			 M72.775,43.493c0.008-1.648-0.933-3.442-1.716-3.484c-1.611-0.086-3.745,1.741-3.762,3.221c-0.025,2.117,0.749,3.314,2.106,3.276
			C71.499,46.447,73.237,46.021,72.775,43.493z M236.662,48.586c-0.007-1.195-1.151-2.636-2.146-2.701
			c-1.011-0.065-4.547,3.026-4.143,3.769c0.551,1.014,0.497,2.737,2.349,2.702C234.842,52.317,236.673,50.589,236.662,48.586z
			 M171.333,175.765c-0.768-1.323,0.002-3.394-1.277-4.983c-0.812-1.01-1.864-1.125-2.88-0.719
			c-0.711,0.283-1.618,1.001-1.187,1.906c0.856,1.796,1.932,3.492,2.97,5.196c0.365,0.6,1.013,0.953,1.702,0.639
			C171.326,177.501,171.517,176.839,171.333,175.765z M183.706,157.459c-1.387-0.032-2.28,0.705-2.334,1.928
			c-0.054,1.185,2.775,5.14,3.694,5.011c1.736-0.243,1.882-1.939,2.191-3.115C187.675,159.685,185.43,157.499,183.706,157.459z
			 M42.903,68.149c0.375-2.805-1.784-2.709-3.46-2.999c-1.167-0.202-2.098,0.935-2.017,2.398c0.102,1.844,0.542,3.521,2.834,3.73
			C42.664,71.499,42.713,69.748,42.903,68.149z M221.523,159.404c2.261,0.208,3.343-0.699,3.627-2.335
			c0.184-1.058-1.712-3.091-2.464-2.733c-1.574,0.749-4.359-0.142-4.422,2.79C218.208,159.786,220.547,159.007,221.523,159.404z
			 M208.268,157.867c-0.002,2.162,0.603,3.064,2.01,3.075c1.303,0.011,4.227-2.148,3.885-3.015c-0.581-1.473-1.279-2.99-3.361-2.984
			C208.665,154.948,208.118,156.106,208.268,157.867z M176.388,179.57c0-0.411-0.05-0.829,0.01-1.231
			c0.174-1.156-0.41-1.967-1.343-2.369c-1.054-0.455-1.871,0.214-2.517,1.028c-1.557,1.965-0.22,3.649,0.617,5.315
			c0.297,0.591,0.917,1.325,1.781,0.996c0.754-0.286,1.42-0.814,1.444-1.768C176.396,180.885,176.383,180.228,176.388,179.57z
			 M172.901,199.102c0.011,1.937,1.244,4.37,2.212,4.136c1.92-0.464,2.292-2.061,2.28-3.795c0-0.081,0.013-0.164,0.032-0.244
			c0.384-1.608-0.067-2.925-1.722-3.328C174.296,195.526,172.89,197.29,172.901,199.102z M123.664,211.13
			c-0.084-1.155-0.069-2.228-0.267-3.259c-0.155-0.811-0.912-1.542-1.627-1.37c-0.611,0.147-1.506,0.115-1.849,1.414
			c-0.329,1.25-0.117,2.193,0.201,3.214c0.414,1.328,0.282,3.369,2.485,3.067C124.803,213.896,122.941,212.006,123.664,211.13z
			 M125.578,198.419c0.376,1.065,0.525,2.456,1.433,3.545c0.484,0.582,1.063,1.195,1.875,0.662c0.671-0.44,1.562-1.073,1.085-1.968
			c-0.517-0.968-0.405-1.908-0.388-2.863c0.023-1.332-0.486-2.518-1.802-2.38C126.477,195.552,125.491,196.604,125.578,198.419z
			 M146.5,167.034c-0.194-0.94-0.197-1.983-0.629-2.798c-0.621-1.17-1.458-1.902-2.883-0.592c-1.61,1.479-0.697,2.635-0.077,4.097
			c0.427,1.007,0.663,2.313,1.859,1.958C145.696,169.423,146.774,168.473,146.5,167.034z M166.439,212.362
			c0.106-1.226-0.21-2.437-1.936-2.583c-1.534-0.13-3.554,1.53-3.564,2.78c-0.01,1.276,1.054,2.542,1.746,2.046
			C163.878,213.75,166.601,215.679,166.439,212.362z M124.002,188.293c0.438-0.91-0.268-1.767-0.401-2.718
			c-0.16-1.146-1.137-1.553-1.866-1.475c-0.905,0.098-1.653,0.706-1.705,2.013c-0.049,1.22,0.816,1.911,1.043,2.903
			c0.248,1.084,0.778,2.275,1.84,2.078C124.005,190.892,124.326,189.607,124.002,188.293z M118.131,188.831
			c-0.042-2.3-0.558-4.139-2.397-4.677c-0.597-0.174-2.332,1.173-2.08,2.74c0.267,1.666,1.054,3.12,2.915,3.409
			C117.953,190.519,118.177,189.511,118.131,188.831z M129.58,209.599c0.122-2.417-1.451-3.312-3.093-3.738
			c-1.396-0.362-1.372,0.949-1.418,1.973c-0.087,1.916,0.689,3.139,2.643,3.411C129.104,211.439,129.714,210.748,129.58,209.599z
			 M152.466,212.578c0.349-1.837-0.293-2.818-2.24-2.825c-1.681-0.007-1.708,1.213-1.709,2.319c-0.003,1.762,0.97,3.046,2.703,3.096
			C153.028,215.22,152.29,213.552,152.466,212.578z M147.46,186.774c-0.144,1.511,1.199,1.833,2.484,2.041
			c1.756,0.284,1.906-1.558,1.798-2.24c-0.175-1.102-0.041-3.073-1.708-3.086C148.484,183.477,147.573,184.809,147.46,186.774z"/>
		<path style="fill-rule:evenodd;clip-rule:evenodd;fill:#7B491E;" d="M343.549,152.631c1.195,2.107,3.316,1.609,4.821,2.043
			c4.391,1.265,8.757,2.522,13.101,3.973c2.993,1,6.082,2.011,9.194,2.778c4.412,1.089,5.778,3.384,4.458,7.495
			c-0.459,1.429-2.991,2.247-4.942,1.193c-3.074-1.658-6.547-2.045-9.742-3.401c-2.747-1.166-6.146-0.363-9.197,0.443
			c-0.309,0.082-0.657,0.318-0.916,0.241c-5.988-1.777-12.182-0.308-18.171-1.104c-5.778-0.769-11.527-1.546-17.337-1.316
			c-6.224,0.246-12.322,1.457-18.331,3.132c-1.869,0.521-3.639,1.029-5.32,2.138c-1.913,1.263-4.372,0.279-6.492,0.828
			c-4.258,1.103-8.38,2.623-12.287,4.674c-1.705,0.895-3.416,1.291-5.423,1.279c-1.822-0.011-3.573,1.183-5.426,1.687
			c-2.084,0.567-3.197-0.28-3.787-2.01c-0.597-1.749-0.709-3.481,1.538-4.345c2.528-0.971,5.004-2.082,7.548-3.006
			c3.705-1.346,6.999-3.522,10.588-5.088c2.778-1.214,5.261-2.556,6.129-5.856c0.409-1.556,2.196-2.271,3.417-3.03
			c3.267-2.032,5.028-5.386,5.764-8.499c1.703-7.218,5.718-12.869,10.07-18.499c1.706-2.206,3.391-4.342,5.829-5.82
			c1.481-0.897,2.867-1.006,4.067,0.171c1.104,1.081,3.623,0.882,3.17,3.426c-0.334,1.872-1.823,2.687-3.073,3.854
			c-1.845,1.724-3.028,4.221-3.24,6.604c-0.197,2.228-1.189,4.169-1.413,6.331c-0.053,0.517-0.265,0.922,0.215,1.229
			c0.769,0.493,1.148-0.4,1.239-0.691c0.553-1.777,1.994-2.935,2.885-4.428c1.818-3.048,4.534-5.274,6.722-7.972
			c3.697-4.56,6.729-9.685,11.342-13.498c3.047-2.519,5.828-5.363,8.92-7.821c2.145-1.705,5.819-0.707,6.29,1.64
			c0.388,1.932-0.426,3.88-1.239,5.661c-0.762,1.666-1.758,3.226-2.661,4.853c0.891,0.298,1.628,0.28,2.297-0.447
			c4.734-5.149,10.588-9.038,15.642-13.854c3.416-3.257,7.47-5.834,12.683-5.502c1.673,0.107,2.439,0.934,3.211,2.187
			c0.752,1.22,0.112,1.958-0.364,3.068c-2.419,5.645-8.014,7.656-12.347,11.07c-2.683,2.113-4.831,4.721-7.34,6.978
			c-0.442,0.398-0.585,0.935-0.331,1.326c0.427,0.66,1.335,0.492,1.806,0.271c2.73-1.288,5.658-2.04,8.396-3.365
			c3.139-1.52,6.478-2.729,9.912-3.545c0.316-0.076,0.809,0.043,0.951-0.139c2.966-3.781,7.161-2.743,11.054-2.839
			c0.901-0.022,1.909-0.383,2.443,0.968c0.517,1.308,0.107,2.739-0.719,3.044c-3.01,1.109-3.619,4.985-6.631,5.721
			c-5.599,1.367-10.106,5.589-16.182,5.819c-1.761,0.067-3.909,0.598-5.354,2.152c4.351,1.014,8.404,0.214,12.456-1.586
			c1.459-0.647,3.294-0.695,4.955-1.016c1.663-0.321,3.298-0.597,4.941-1.096c2.209-0.67,5.032,1.152,5.949,3.31
			c0.671,1.579-0.524,1.975-1.456,2.479c-2.246,1.218-4.795,0.467-7.199,1.007c-2.953,0.664-5.834,1.873-8.995,1.647
			c-1.323-0.095-2.278,1.631-4.096,0.721c0.967,1.726,2.213,1.324,3.155,1.149c3.351-0.62,6.365-0.729,9.598,1.21
			c1.773,1.063,4.365,1.685,6.814,1.37c2.378-0.306,4.383,0.712,6.361,1.919c0.828,0.505,1.426,0.944,0.929,1.875
			c-0.442,0.828-1.184,1.353-2.251,1.159c-6.651-1.198-13.399-0.87-20.01-0.265c-3.219,0.295-6.462,0.587-9.706,0.787
			c-1.477,0.091-2.69,1.052-4.075,1.431c-2.16,0.591-4.356,1.051-6.545,1.531c-0.396,0.088-0.966,0.185-1.221-0.019
			C348.214,150.554,346.061,152.516,343.549,152.631z"/>
		<path style="fill-rule:evenodd;clip-rule:evenodd;fill:#7B491E;" d="M165.755,163.449c0.3-1.888,1.11-3.053,2.956-3.555
			c1.352-0.368,2.712-0.901,3.418,0.612c0.731,1.568,0.478,3.287-1.083,4.353c-0.625,0.428-1.313,0.788-1.587,1.452
			c-0.736,1.784-1.614,1.072-2.248,0.086c-0.771-1.2-1.32-0.797-1.763,0.093c-0.408,0.82-1.345,1.167-1.598,2.152
			c-0.164,0.643-0.867,0.937-1.638,0.696c-2.396-0.744-3.606,0.202-3.636,2.854c0.727-0.082,0.931-0.884,1.481-1.104
			c0.875-0.349,2.089-0.465,2.243,0.66c0.254,1.848,0.502,3.796-0.145,5.622c-0.557,1.574-1.606,1.781-2.571,0.358
			c-0.934-1.379-1.923-2.799-1.626-4.733c-1.308,0.62-2.539,0.685-3.106-0.546c-0.477-1.031-0.806-1.997-0.369-3.525
			c1.079-3.767,4.178-4.698,6.944-6.155C162.801,162.047,164.407,162.044,165.755,163.449z"/>
		<path style="fill-rule:evenodd;clip-rule:evenodd;fill:#7B491E;" d="M330.306,68.934c-0.154,0.806,0.391,1.866-0.543,2.656
			c-0.905,0.766-1.747,2.408-2.996,1.563c-1.632-1.105-3.828-2.171-3.865-4.543c-0.03-1.968-0.998-2.381-2.564-2.296
			c-1.43,0.078-2.705-0.375-3.92-1.009c-2.261-1.179-2.397-5.081-0.257-6.448c3.29-2.102,5.39-1.205,6.183,2.641
			c0.398,1.932,2.792,3.357,4.645,2.769c1.396-0.444,2.981,0.875,3.304,2.809C330.385,67.638,330.306,68.229,330.306,68.934z"/>
		<path style="fill-rule:evenodd;clip-rule:evenodd;fill:#7B491E;" d="M190.771,77.529c0.072-1.624,1.505-3.212,0.084-4.833
			c-0.103-0.118-0.032-0.604,0.097-0.677c1.474-0.839,2.821,0.373,4.283,0.351c0.796-0.012,1.038,0.895,0.645,1.808
			c-0.3,0.697,0.191,1.389,0.384,2.091c0.496,1.811,1.559,1.742,2.214,0.44c0.628-1.247,1.654-1.405,2.63-1.842
			c0.352-0.157,0.812-0.087,1.223-0.095c0.483-0.009,4.371,4.632,4.376,5.206c0.008,1.018-3.19,3.376-4.501,3.243
			c-1.281-0.131-1.811-1.153-2.459-2.124c-0.866-1.295-1.872-2.473-3.267-0.329c-0.618,0.949-1.833,1.907-2.87,1.299
			C191.999,81.124,190.865,79.565,190.771,77.529z"/>
		<path style="fill-rule:evenodd;clip-rule:evenodd;fill:#7B491E;" d="M165.257,32.427c2.075,0.021,4.515,2.672,4.104,4.486
			c-0.406,1.796-0.03,3.168,1.266,4.481c1.488,1.507,0.619,6.565-1.203,7.713c-0.618,0.389-1.585,0.502-1.829,0.072
			c-1.194-2.111-3.649-3.27-3.795-6.279c-0.126-2.608-0.92-5.193-0.94-7.902C162.845,32.937,163.926,32.631,165.257,32.427z"/>
		<path style="fill-rule:evenodd;clip-rule:evenodd;fill:#7B491E;" d="M183.364,31.532c-0.002,0.831,0.003,1.661-0.004,2.49
			c-0.009,0.968-0.198,1.792,1.3,2.108c1.015,0.214,1.91,1.623,1.579,2.737c-0.283,0.953-0.295,2.566-2.06,2.538
			c-1.099-0.017-0.943,0.733-0.634,1.357c0.708,1.43,0.017,2.521-1.104,3.026c-1.287,0.581-1.524-0.927-2.024-1.656
			c-1.477-2.157-0.658-4.403-0.054-6.604c0.239-0.87,0.289-1.375-0.211-2.426c-1.414-2.972-3.593-6.114-1.279-9.705
			c1.206-1.871,2.274-1.882,3.496-0.051C183.662,27.285,183.308,29.428,183.364,31.532z"/>
		<path style="fill-rule:evenodd;clip-rule:evenodd;fill:#7B491E;" d="M53.847,23.937c0.001,3.441-2.225,5.998-5.224,6
			c-2.854,0.002-4.235-1.523-4.241-4.682c-0.005-2.854,2.79-6.728,4.803-6.656C51.544,18.682,53.846,21.318,53.847,23.937z"/>
		<path style="fill-rule:evenodd;clip-rule:evenodd;fill:#7B491E;" d="M284.59,114.332c-1.129-3.54-0.468-5.707,1.741-6.341
			c1.706-0.49,3.79,0.976,4.124,2.9c0.379,2.186-1.364,3.4-5.634,3.917c0.219,0.78,0.539,1.547,0.636,2.34
			c0.301,2.46-0.375,3.277-2.859,3.425c-0.755,0.045-1.411,0.307-2.113,0.467c-1.441,0.327-2.396-0.241-3.101-1.688
			c-0.648-1.333-0.426-2.248,0.643-2.972C279.917,115.1,281.788,113.644,284.59,114.332z"/>
		<path style="fill-rule:evenodd;clip-rule:evenodd;fill:#7B491E;" d="M103.015,42.888c3.323,0.001,4.632,1.342,4.631,4.744
			c-0.001,2.219-1.672,4.277-3.417,4.208c-4.701-0.184-6.572-1.498-6.546-4.597C97.71,44.061,99.147,42.886,103.015,42.888z"/>
		<path style="fill-rule:evenodd;clip-rule:evenodd;fill:#7B491E;" d="M302.413,47.661c0.239,1.809-1.094,2.743-2.207,3.693
			c-1.074,0.916-2.08,0.408-2.213-0.872c-0.125-1.195-0.898-1.928-1.482-2.714c-2.376-3.205-2.049-7.274,0.999-9.646
			c1.09-0.849,2.76-0.445,2.718,0.543c-0.132,3.13,0.867,5.823,2.18,8.505C302.472,47.303,302.416,47.497,302.413,47.661z"/>
		<path style="fill-rule:evenodd;clip-rule:evenodd;fill:#7B491E;" d="M133.343,124.083c-2.179,0.261-2.881-0.927-2.809-3.097
			c0.118-3.501,2.226-5.858,5.453-5.869c2.478-0.009,4.103,1.652,4.037,4.125C139.951,121.98,137.102,124.096,133.343,124.083z"/>
		<path style="fill-rule:evenodd;clip-rule:evenodd;fill:#7B491E;" d="M83.735,24.153c0.395,1.872-0.982,2.771-2.484,3.533
			c-1.521,0.772-2.647,0.069-3.617-1.101c-0.588-0.709-1.231-1.159-2.284-1.173c-2.017-0.027-2.274-1.737-2.667-3.224
			c-0.361-1.366,0.666-1.749,1.508-2.495c1.352-1.196,2.203,0.036,2.877,0.502c0.904,0.627,1.727,0.917,2.713,0.742
			C82.562,20.445,83.737,21.32,83.735,24.153z"/>
		<path style="fill-rule:evenodd;clip-rule:evenodd;fill:#7B491E;" d="M52.38,37.125c-1.118,1.555-1.623,4.182-3.752,5.005
			c-1.617,0.625-3.053-1.274-4.467-2.221c-1.078-0.722-1.17-2.071-0.535-2.841c0.703-0.851,0.889-1.875,1.454-2.753
			c1.104-1.715,2.506-2.938,4.359-2.246C51.316,32.771,52.283,34.625,52.38,37.125z"/>
		<path style="fill-rule:evenodd;clip-rule:evenodd;fill:#7B491E;" d="M165.08,59.828c1.859-0.155,3.58,0.364,4.497,1.972
			c0.948,1.663,0.095,3.168-0.985,4.669c-2.476,3.444-3.355,3.694-5.852,0.83c-1.03-1.181-1.572-2.777-1.749-4.322
			C160.73,60.699,161.996,59.818,165.08,59.828z"/>
		<path style="fill-rule:evenodd;clip-rule:evenodd;fill:#7B491E;" d="M301.491,64.746c-2.342,0.445-3.784-0.507-4.69-2.706
			c-0.662-1.605-1.698-3.053-2.498-4.605c-0.883-1.712-0.496-3.284,1.111-4.235c1.369-0.811,2.061,0.637,3.108,1.224
			c4.617,2.583,2.725,6.724,2.903,10.383L301.491,64.746z"/>
		<path style="fill-rule:evenodd;clip-rule:evenodd;fill:#7B491E;" d="M149.996,203.863c0.106-1.217-0.541-2.76,1.356-3.228
			c-0.151-0.457,0.799-0.713,0.081-1.384c-1.559-1.455-1.481-3.445-1.477-5.414c0.003-1.146,0.292-2.13,1.46-2.122
			c1.114,0.008,2.46-0.357,3.158,1.325c0.88,2.122,0.189,3.996-0.472,5.859c-0.852,2.401-0.214,4.838-0.366,7.245
			c-0.051,0.81,0.337,1.621-0.56,2.018c-0.79,0.349-1.568,0.104-2.199-0.631C150.046,206.447,149.869,205.21,149.996,203.863z"/>
		<path style="fill-rule:evenodd;clip-rule:evenodd;fill:#7B491E;" d="M123.772,176.543c-0.608,0.899-0.771,2.737-2.082,2.524
			c-1.782-0.29-3.61-1.205-4.474-3.021c-0.472-0.99-0.205-2.301,0.626-2.947c1.286-0.999,2.924-1.724,4.556-1.022
			c0.969,0.416,1.576,0.723,2.154-0.363c0.066-0.123,0.258-0.234,0.403-0.251c0.651-0.074,1.503-0.291,1.796,0.423
			c0.744,1.817,1.298,3.707,0.881,5.723c-0.146,0.709-0.48,1.261-1.278,1.256C124.798,178.855,125.13,176.774,123.772,176.543z"/>
		<path style="fill-rule:evenodd;clip-rule:evenodd;fill:#7B491E;" d="M306.702,101.84c-0.332,0.146-0.787,0.396-1.272,0.549
			c-1.186,0.373-2.233,0.933-3.668,0.362c-1.531-0.608-3.273-0.678-3.32-2.857c-0.035-1.583,2.334-4.41,4.089-4.654
			c1.644-0.228,3.316-0.11,4.054,1.854c0.325,0.864,0.916,1.543,1.62,2.119c0.744,0.608,0.915,1.405,0.56,2.214
			C308.404,102.246,307.692,102.379,306.702,101.84z"/>
		<path style="fill-rule:evenodd;clip-rule:evenodd;fill:#7B491E;" d="M323.837,47.978c-0.322-0.936,0.597-1.396,1.01-2.042
			c1.976-3.093,5.012-3.86,8.121-2.137c0.348,0.193,0.718,0.58,1.037,0.541c0.944-0.114,1.434,0.395,1.563,1.14
			c0.153,0.884-0.804,0.921-1.307,1.139c-2.335,1.017-3.814,3.359-6.402,3.989C325.784,51.113,323.796,49.921,323.837,47.978z"/>
		<path style="fill-rule:evenodd;clip-rule:evenodd;fill:#7B491E;" d="M187.35,74.527c-0.876,2.157-0.129,4.643-2.273,6.37
			c-1.522,1.227-2.317,0.869-3.139-0.458c-1.116-1.799-1.395-3.919-2.006-5.9c-0.365-1.182,0.655-2.163,1.551-2.72
			c1.369-0.851,2.959-0.677,4.395-0.011C187.037,72.346,187.355,73.45,187.35,74.527z"/>
		<path style="fill-rule:evenodd;clip-rule:evenodd;fill:#7B491E;" d="M333.797,62.27c0.022-2.016,2.646-4.555,4.583-4.436
			c1.774,0.109,2.868,2.232,2.43,4.8c-0.172,1.012,0.696,1.787,0.499,2.841c-0.141,0.752-0.087,1.527-0.963,1.787
			C337.333,68.157,333.763,65.419,333.797,62.27z"/>
		<path style="fill-rule:evenodd;clip-rule:evenodd;fill:#7B491E;" d="M171.921,69.586c0.173-0.934-0.325-1.927,0.307-2.855
			c1.23-1.805,3.519-1.773,5.924,0.139c1.536,1.221,1.722,3.068,0.363,4.498c-0.632,0.665-1.042,1.361-1.325,2.245
			c-0.249,0.779-0.55,1.671-1.786,1.693c-1.15,0.021-1.923-0.411-2.425-1.328C172.239,72.625,171.54,71.232,171.921,69.586z"/>
		<path style="fill-rule:evenodd;clip-rule:evenodd;fill:#7B491E;" d="M301.425,64.807c1.785-0.523,3.431-1.553,5.4-0.068
			c1.911,1.441,2.571,3.33,2.486,5.425c-0.081,2.028-1.416,2.564-3.205,1.55c-0.363-0.207-0.679-0.378-1.1-0.442
			c-4.325-0.647-5.329-2.521-3.518-6.526C301.491,64.746,301.425,64.807,301.425,64.807z"/>
		<path style="fill-rule:evenodd;clip-rule:evenodd;fill:#7B491E;" d="M332.805,36.2c0.021-2.117,2.588-4.029,5.029-3.5
			c1.107,0.24,2.325,0.378,3.419,0.17c1.395-0.265,2.039-0.004,2.205,1.468c0.175,1.554-0.969,2.094-1.944,1.989
			c-1.732-0.185-2.535,0.745-3.196,1.955c-0.77,1.413-1.772,2.564-3.445,2.048C333.177,39.808,332.736,38.255,332.805,36.2z"/>
		<path style="fill-rule:evenodd;clip-rule:evenodd;fill:#7B491E;" d="M152.533,112.635c-0.161,2.733-2.821,3.402-4.414,4.781
			c-1.298,1.124-2.624-0.52-3.664-1.597c-1.272-1.319-0.842-2.644,0.029-3.86c1.013-1.415,2.503-2.345,4.043-3.062
			C150.23,108.103,152.457,110.256,152.533,112.635z"/>
		<path style="fill-rule:evenodd;clip-rule:evenodd;fill:#7B491E;" d="M313.952,70.784c2.872-0.008,6.063,5.126,5.048,7.64
			c-0.483,1.195-1.463,1.887-2.352,1.701c-1.76-0.369-4.149-0.706-4.54-2.664c-0.314-1.581-1.292-3.37-0.252-5.141
			C312.387,71.415,312.903,70.627,313.952,70.784z"/>
		<path style="fill-rule:evenodd;clip-rule:evenodd;fill:#7B491E;" d="M47.167,65.38c-0.79-0.655-1.711,0.205-2.438-0.146
			c-1.336-0.646-3.1-1.092-3.263-2.885c-0.136-1.498,1.157-2.343,2.275-3.105c1.459-0.996,3.168-1.506,4.853-1.779
			c1.385-0.225,2.41,0.982,2.182,2.226c-0.351,1.917-1.135,3.792-2.429,5.338C48.137,65.279,47.603,65.26,47.167,65.38z"/>
		<path style="fill-rule:evenodd;clip-rule:evenodd;fill:#7B491E;" d="M45.857,47.557c0.147,0.924-0.205,1.8,0.541,2.635
			c0.858,0.961,0.689,2.025-0.167,3.086c-1.299,1.609-3.042,1.254-4.537,0.887c-0.946-0.233-1.938-1.199-1.807-2.629
			c0.273-2.972,1.5-5.415,3.868-7.242c1.09-0.84,1.897-0.455,2.077,0.82C45.946,45.922,46.498,46.78,45.857,47.557z"/>
		<path style="fill-rule:evenodd;clip-rule:evenodd;fill:#7B491E;" d="M63.263,57.829c-2.465,0.038-5.421-1.791-5.424-3.263
			c-0.005-2.364,2.815-4.515,5.837-4.742c2.162-0.163,3.213,1.903,2.923,2.691c-0.547,1.487-0.374,3.209-1.309,4.472
			C64.882,57.54,64.017,58,63.263,57.829z"/>
		<path style="fill-rule:evenodd;clip-rule:evenodd;fill:#7B491E;" d="M187.144,84.24c1.887,0.353,3.43,1.231,3.605,3.3
			c0.137,1.623-0.795,2.875-2.25,3.622c-0.56,0.287-1.263,0.3-1.809,0.604c-2.975,1.652-3.803,1.378-4.812-1.768
			c-0.315-0.982-0.48-1.833,0.832-2.492c1.193-0.6,2.14-1.693,3.186-2.581C186.268,84.609,186.556,84.159,187.144,84.24z"/>
		<path style="fill-rule:evenodd;clip-rule:evenodd;fill:#7B491E;" d="M222.216,28.722c-0.001-3.783,3.477-6.085,6.66-4.685
			c1.579,0.694,1.792,3.973,0.347,5.594c-1.183,1.327-2.907,1.998-4.453,2.146C222.828,31.965,221.694,30.621,222.216,28.722z"/>
		<path style="fill-rule:evenodd;clip-rule:evenodd;fill:#7B491E;" d="M228.903,73.278c-0.885,0.024-1.793-0.166-2.588,0.462
			c-1.378,1.092-2.666,0.013-3.393-0.713c-0.932-0.932-2.085-2.305-1.613-3.788c0.508-1.603,2.006-1.943,3.422-1.137
			c1.391,0.791,2.827,0.786,4.271,0.644c1.014-0.1,2.129-0.43,2.611,0.65c0.423,0.947,1.006,1.984,0.137,3.199
			C230.898,73.788,229.948,73.471,228.903,73.278z"/>
		<path style="fill-rule:evenodd;clip-rule:evenodd;fill:#7B491E;" d="M95.781,18.479c1.52-0.206,2.399,0.852,2.792,1.941
			c0.44,1.222,0.341,2.743-1.118,3.42c-1.33,0.618-2.458,1.504-3.688,2.25c-1.762,1.068-3.43,0.106-3.556-1.976
			C89.992,20.491,92.055,18.404,95.781,18.479z"/>
		<path style="fill-rule:evenodd;clip-rule:evenodd;fill:#7B491E;" d="M213.235,51.033c0.091-1.837-0.492-3.647,1.873-4.19
			c1.732-0.397,3.126-0.034,4.178,1.375c1.445,1.937-0.6,7.498-2.949,8.098c-0.903,0.231-1.45-0.406-1.82-0.997
			C213.656,53.942,212.912,52.483,213.235,51.033z"/>
		<path style="fill-rule:evenodd;clip-rule:evenodd;fill:#7B491E;" d="M212.795,71.779c2.434,0.007,3.469,1.009,3.443,3.331
			c-0.028,2.564-1.505,4.651-3.281,4.639c-1.664-0.012-5.166-3.665-5.075-5.294C207.952,73.196,210.567,71.772,212.795,71.779z"/>
		<path style="fill-rule:evenodd;clip-rule:evenodd;fill:#7B491E;" d="M178.489,95.111c1.149-0.342,2.275,0.681,2.69,1.835
			c0.513,1.424-0.876,2.462-1.798,3.396c-0.541,0.549-1.479,0.753-1.853,1.504c-0.686,1.38-1.603,2.572-3.152,1.449
			c-1.532-1.108-2.848-2.711-1.531-4.768C174.026,96.686,175.647,95.287,178.489,95.111z"/>
		<path style="fill-rule:evenodd;clip-rule:evenodd;fill:#7B491E;" d="M191.359,58.687c0.302,2.908-2.662,2.683-3.911,4.085
			c-0.623,0.7-1.527,0.317-2.068-0.243c-1.304-1.347-1.94-2.984-1.43-4.868c0.249-0.917,0.567-1.863,1.082-2.647
			c0.826-1.259,2.025-1.859,3.212-0.489C189.374,55.831,191.275,56.604,191.359,58.687z"/>
		<path style="fill-rule:evenodd;clip-rule:evenodd;fill:#7B491E;" d="M15.498,84.791c-0.249-2.461,1.833-2.796,3.255-3.379
			c1.695-0.694,3.514,0.167,5.184,0.652c0.966,0.282,1.276,1.387,0.895,2.5c-0.977,2.846-6.406,4.312-8.469,2.305
			C15.721,86.245,15.326,85.62,15.498,84.791z"/>
		<path style="fill-rule:evenodd;clip-rule:evenodd;fill:#7B491E;" d="M208.774,49.047c-0.052,2.825-2.304,5.287-4.473,5.297
			c-1.562,0.007-3.139-2.244-2.815-4.732c0.328-2.518,0.968-3.961,4.517-3.785C208.619,45.958,208.222,47.978,208.774,49.047z"/>
		<path style="fill-rule:evenodd;clip-rule:evenodd;fill:#7B491E;" d="M159.479,183.822c0.102,1.042-0.373,2.287-0.783,3.488
			c-0.586,1.717-3.369,1.83-4.744,0.238c-1.1-1.273-1.388-2.739-0.621-4.293c0.634-1.285,1.408-2.478,1.698-3.943
			c0.214-1.083,1.157-1.173,1.838-0.42C158.073,180.223,159.478,181.494,159.479,183.822z"/>
		<path style="fill-rule:evenodd;clip-rule:evenodd;fill:#7B491E;" d="M344.76,52.096c-0.004-2.637,1.609-4.909,3.534-4.676
			c1.57,0.19,2.816,0.843,3.007,2.887c0.182,1.952-0.995,3.362-1.426,5.047c-0.304,1.186-1.722,1.126-2.793,0.958
			c-1.238-0.193-2.016-1.045-2.293-2.232C344.642,53.451,344.763,52.76,344.76,52.096z"/>
		<path style="fill-rule:evenodd;clip-rule:evenodd;fill:#7B491E;" d="M323.183,36.412c-2.086,0.004-3.764-1.584-3.83-3.626
			c-0.063-1.946,1.496-4.337,2.827-4.337c1.234,0,5.073,3.512,5.135,4.697C327.398,34.756,325.309,36.407,323.183,36.412z"/>
		<path style="fill-rule:evenodd;clip-rule:evenodd;fill:#7B491E;" d="M305.405,17.484c0.261-1.056,0.254-2.698,1.937-2.919
			c2.125-0.28,3.78,0.917,4.876,2.61c1.311,2.026-0.368,5.691-2.721,6.257c-0.233,0.056-0.516,0.067-0.736-0.011
			C308.022,23.157,305.404,18.671,305.405,17.484z"/>
		<path style="fill-rule:evenodd;clip-rule:evenodd;fill:#7B491E;" d="M163.185,109.638c-1.415-0.152-1.969-1.465-2.198-2.824
			c-0.267-1.584,3.361-5.194,4.958-5.116c1.207,0.059,3.481,2.51,3.464,3.733C169.385,107.061,165.789,109.616,163.185,109.638z"/>
		<path style="fill-rule:evenodd;clip-rule:evenodd;fill:#7B491E;" d="M212.255,30.906c0.001-2.04,2.095-4.71,3.664-4.416
			c2.559,0.48,3.624,1.107,3.214,3.837c-0.31,2.059-1.702,4.029-3.792,4.652c-2.019,0.602-2.333-1.572-3.057-2.845
			C212.107,31.821,212.258,31.321,212.255,30.906z"/>
		<path style="fill-rule:evenodd;clip-rule:evenodd;fill:#7B491E;" d="M173.842,51.708c-0.156-1.14,0.141-2.186,1.117-2.587
			c1.104-0.453,2.358-0.535,3.527,0.116c1.232,0.687,2.149,1.73,3.194,2.635c1.266,1.097,0.652,2.34-0.156,2.917
			c-1.445,1.031-3.288,1.456-5.058,0.843C174.673,55.01,174.081,53.417,173.842,51.708z"/>
		<path style="fill-rule:evenodd;clip-rule:evenodd;fill:#7B491E;" d="M144.521,173.837c-0.077,1.457-0.702,2.84-0.55,4.353
			c0.083,0.828-0.683,1.339-1.328,1.622c-0.844,0.371-1.479-0.321-1.828-0.936c-0.989-1.741-2.101-3.48-2.68-5.368
			c-0.475-1.552,1.192-2.576,2.17-3.371c1.041-0.846,2.318,0.136,3.186,1.043C144.174,171.893,144.642,172.765,144.521,173.837z"/>
		<path style="fill-rule:evenodd;clip-rule:evenodd;fill:#7B491E;" d="M183.71,12.998c2.086-0.133,2.747,0.973,2.657,2.9
			c-0.111,2.351-2.599,5.126-4.734,5.059c-2.466-0.077-2.114-2.135-2.204-3.596C179.286,15.064,181.496,12.97,183.71,12.998z"/>
		<path style="fill-rule:evenodd;clip-rule:evenodd;fill:#7B491E;" d="M142.036,200.602c-0.025,0.368,0.031,1.218-0.161,2.009
			c-0.434,1.784-1.91,1.984-3.292,1.604c-1.36-0.374-2.376-1.787-1.907-2.986c0.509-1.301,0.448-2.468,0.329-3.682
			c-0.172-1.756,0.841-2.802,2.216-3.023c1.283-0.206,1.871,1.068,2.366,2.258C142.057,197.911,141.971,199.013,142.036,200.602z"/>
		<path style="fill-rule:evenodd;clip-rule:evenodd;fill:#7B491E;" d="M200.795,33.553c0.015-2.272,1.265-3.347,4.026-3.605
			c0.738-0.069,1.49-0.05,2.23-0.002c1.522,0.098,2.389,1.435,1.583,2.728c-0.807,1.294-1.81,2.554-2.993,3.491
			c-0.704,0.556-1.77,1.647-2.731,0.989C201.684,36.314,200.253,35.293,200.795,33.553z"/>
		<path style="fill-rule:evenodd;clip-rule:evenodd;fill:#7B491E;" d="M76.483,46.871c1.807,0.038,3.214,1.87,2.713,3.616
			c-0.412,1.438-0.896,2.907-1.662,4.172c-0.408,0.674-0.648,1.721-2.034,1.759c-1.499,0.041-1.201-1.099-1.576-1.723
			c-1.348-2.24-0.846-5.551,0.894-7.161C75.349,47.044,75.865,46.768,76.483,46.871z"/>
		<path style="fill-rule:evenodd;clip-rule:evenodd;fill:#7B491E;" d="M90.653,47.284c0.596,2.429-1.389,3.685-2.493,5.271
			c-0.649,0.932-1.738,0.031-2.346-0.459c-1.894-1.526-1.844-5.41-0.032-7.023c0.938-0.835,2.031-1.671,3.245-0.993
			C90.15,44.706,91.138,45.719,90.653,47.284z"/>
		<path style="fill-rule:evenodd;clip-rule:evenodd;fill:#7B491E;" d="M325.024,25.453c-2.515-0.004-3.657-1.081-3.677-3.463
			c-0.017-1.998,1.614-4.291,3.081-4.333c1.423-0.041,3.865,2.938,3.89,4.744C328.35,24.816,327.657,25.458,325.024,25.453z"/>
		<path style="fill-rule:evenodd;clip-rule:evenodd;fill:#7B491E;" d="M243.656,68.938c-0.099,1.547,0.389,2.904-1.395,3.558
			c-1.605,0.589-2.396-0.39-3.354-1.217c-0.125-0.108-0.232-0.236-0.354-0.347c-1.204-1.094-3.157-2.033-2.14-4.009
			c0.935-1.817,3-1.953,4.798-1.534C243.106,65.833,244.089,67.171,243.656,68.938z"/>
		<path style="fill-rule:evenodd;clip-rule:evenodd;fill:#7B491E;" d="M133.07,207.27c-2.022,0.299-2.513-1.396-2.905-2.645
			c-0.312-0.993,0.421-1.805,1.828-1.929c0.926-0.083,1.9-0.647,0.713-2.122c-0.988-1.229-1.721-2.895-0.685-4.677
			c0.823-1.416,1.71-1.67,2.472-0.141c0.689,1.385,1.014,2.907,0.605,4.536c-0.184,0.731-0.625,1.376,0.247,2.408
			C136.558,204.138,134.772,207.258,133.07,207.27z"/>
		<path style="fill-rule:evenodd;clip-rule:evenodd;fill:#7B491E;" d="M312.664,83.236c2.32-0.195,2.714,1.313,2.694,3.112
			c-0.025,2.469-1.679,4.797-3.387,4.855c-1.764,0.061-3.097-1.705-3.08-4.08C308.91,84.448,310.098,83.223,312.664,83.236z"/>
		<path style="fill-rule:evenodd;clip-rule:evenodd;fill:#7B491E;" d="M272.192,126.549c-3.497,0.084-4.642-1.575-3.562-3.697
			c0.325-0.637,0.719-1.271,1.209-1.783c0.964-1.011,1.453-3.291,3.183-2.521c1.645,0.731,2.818,2.731,2.361,4.646
			C274.921,125.129,273.394,126.475,272.192,126.549z"/>
		<path style="fill-rule:evenodd;clip-rule:evenodd;fill:#7B491E;" d="M61.674,36.902c2.166,0.027,3.664,2.307,3.081,3.939
			c-0.393,1.1-1.014,2.188-1.783,3.063c-0.654,0.744-1.318,2.284-2.744,1.092c-1.184-0.99-3.185-1.566-1.966-3.944
			C59.217,39.188,59.787,37.117,61.674,36.902z"/>
		<path style="fill-rule:evenodd;clip-rule:evenodd;fill:#7B491E;" d="M303.941,28.028c-0.122-1.607-0.072-2.824,1.548-3.656
			c1.101-0.564,1.77-0.102,2.374,0.387c1.299,1.048,2.142,5.311,1.525,6.9c-0.736,1.902-2.033,2.084-3.433,0.62
			C304.746,31.012,303.309,29.929,303.941,28.028z"/>
		<path style="fill-rule:evenodd;clip-rule:evenodd;fill:#7B491E;" d="M224.753,47.869c2.14,0.021,3.96,1.756,3.938,3.753
			c-0.018,1.602-2.683,4.543-4.122,4.123c-1.873-0.547-2.025-2.591-2.491-4.224C221.449,49.318,222.54,47.848,224.753,47.869z"/>
		<path style="fill-rule:evenodd;clip-rule:evenodd;fill:#7B491E;" d="M30.435,73.854c-0.027-1.497,3.034-4.233,4.722-4.026
			c1.538,0.189,2.055,1.537,2.215,2.838c0.218,1.777-2.675,5.153-4.188,5.084C32.077,77.7,30.463,75.413,30.435,73.854z"/>
		<path style="fill-rule:evenodd;clip-rule:evenodd;fill:#7B491E;" d="M317.194,52.326c-1.913,0.327-3.182-0.052-3.969-2.164
			c-0.617-1.656,0.164-2.419,0.997-3.382c1.43-1.653,3.01-1.062,4.261,0.061c1.385,1.244,2.578,2.875,1.623,4.888
			C319.533,52.937,318.157,52.132,317.194,52.326z"/>
		<path style="fill-rule:evenodd;clip-rule:evenodd;fill:#7B491E;" d="M67.29,31.892c0.025-1.941,2.886-5.028,4.076-4.913
			c0.942,0.091,2.66,3.162,2.297,4.202c-0.185,0.529-0.627,0.973-0.789,1.504c-0.459,1.508-0.93,3.238-2.935,2.652
			C68.19,34.827,67.51,33.144,67.29,31.892z"/>
		<path style="fill-rule:evenodd;clip-rule:evenodd;fill:#7B491E;" d="M125.079,201.293c0.039,0.688,0.134,1.635-0.852,1.934
			c-1.084,0.327-1.901-0.537-2.038-1.336c-0.202-1.178-0.973-1.58-1.76-1.479c-1.679,0.217-2.09-0.943-2.265-2.014
			c-0.236-1.441-0.124-2.974,1.665-3.575c0.653-0.219,1.599-0.542,1.934,0.052C122.922,196.934,125.286,198.379,125.079,201.293z"/>
		<path style="fill-rule:evenodd;clip-rule:evenodd;fill:#7B491E;" d="M77.259,40.172c-0.008-1.977,2.32-4.481,4.209-4.206
			c2.233,0.326,2.344,2.476,2.695,4.113c0.319,1.488-1.654,2.737-4.042,2.807C78.134,42.946,77.267,42.123,77.259,40.172z"/>
		<path style="fill-rule:evenodd;clip-rule:evenodd;fill:#7B491E;" d="M152.478,178.208c-0.005,1.715-1.817,3.91-3.229,3.601
			c-1.708-0.375-2.487-1.677-2.251-3.477c0.011-0.081,0.002-0.165,0.001-0.247c-0.014-1.97-0.12-4.162,2.396-4.606
			C150.996,173.195,152.485,175.722,152.478,178.208z"/>
		<path style="fill-rule:evenodd;clip-rule:evenodd;fill:#7B491E;" d="M193.321,47.847c0.002,0.494,0.018,0.988,0,1.481
			c-0.048,1.331-0.978,2.226-2.028,2.429c-1.25,0.242-1.982-0.938-2.411-1.998c-0.325-0.8-0.326-1.727-0.58-2.564
			c-0.669-2.205-0.049-4.074,1.636-4.261c2.246-0.25,2.549,1.833,3.342,3.208C193.529,46.574,193.318,47.271,193.321,47.847z"/>
		<path style="fill-rule:evenodd;clip-rule:evenodd;fill:#7B491E;" d="M196.314,65.946c-0.011,2.94-1.264,4.507-3.45,4.535
			c-1.244,0.016-2.479-1.978-2.526-4.074c-0.032-1.467,2.159-4.064,3.406-3.874C195.777,62.845,196.716,64.067,196.314,65.946z"/>
		<path style="fill-rule:evenodd;clip-rule:evenodd;fill:#7B491E;" d="M314.256,44.847c0.05,0.768-2.277,2.412-2.854,1.664
			c-1.562-2.028-4.226-3.129-4.922-5.875c-0.271-1.068,0.008-2.124,0.779-2.623c0.786-0.509,1.652,0.074,2.33,0.826
			c1.437,1.594,3.354,2.76,4.254,4.827C313.971,43.958,314.056,44.269,314.256,44.847z"/>
		<path style="fill-rule:evenodd;clip-rule:evenodd;fill:#7B491E;" d="M178.38,188.885c0.006,2.651-1.468,4.983-3.06,4.93
			c-2.143-0.073-2.568-1.857-2.712-3.332c-0.24-2.452,1.56-4.596,3.442-4.629C178.311,185.814,178.482,187.32,178.38,188.885z"/>
		<path style="fill-rule:evenodd;clip-rule:evenodd;fill:#7B491E;" d="M205.779,160.465c-0.044,1.165,0.372,2.532-1.346,2.943
			c-1.629,0.39-2.203-0.703-2.616-1.91c-0.299-0.874-0.998-0.857-1.684-1.136c-1.503-0.61-1.551-2.064-1.274-3.372
			c0.322-1.524,1.723-1.115,2.672-0.979C204.157,156.388,205.778,158.196,205.779,160.465z"/>
		<path style="fill-rule:evenodd;clip-rule:evenodd;fill:#7B491E;" d="M197.518,47.845c2.229-0.031,2.801,1.355,2.785,3.279
			c-0.019,2.201-1.462,4.159-3.14,4.217c-1.69,0.057-2.857-1.487-2.835-3.75C194.346,49.66,195.86,47.88,197.518,47.845z"/>
		<path style="fill-rule:evenodd;clip-rule:evenodd;fill:#7B491E;" d="M168.405,183.997c-0.658,1.398-0.824,3.467-2.09,5.05
			c-0.391,0.488-1.18,1.028-1.936,0.734c-0.751-0.294-1.427-0.821-1.437-1.789c-0.018-1.863,0.386-3.653,0.943-5.416
			c0.411-1.297,1.565-1.909,2.626-1.591C167.486,181.278,168.51,182.151,168.405,183.997z"/>
		<path style="fill-rule:evenodd;clip-rule:evenodd;fill:#7B491E;" d="M147.546,190.896c-0.117,1.623,0.194,2.615-0.737,3.411
			c-0.583,0.499-1.175,0.601-1.817,0.469c-0.747-0.153-1.024-0.726-0.985-1.475c0.087-1.682,0.148-3.181-1.55-4.45
			c-0.958-0.718-0.853-2.446,0.294-3.468c1.281-1.141,2.025,0.067,2.721,0.862C146.79,187.755,147.667,189.476,147.546,190.896z"/>
		<path style="fill-rule:evenodd;clip-rule:evenodd;fill:#7B491E;" d="M353.719,18.142c-0.395-1.461,0.559-2.364,1.981-2.576
			c1.897-0.284,4.528,2.199,4.447,4.242c-0.063,1.63-1.038,2.678-2.868,2.667C355.27,22.461,353.758,20.751,353.719,18.142z"/>
		<path style="fill-rule:evenodd;clip-rule:evenodd;fill:#7B491E;" d="M153.463,166.858c0,0.664,0.123,1.357-0.032,1.982
			c-0.185,0.749-0.446,1.592-1.409,1.753c-0.864,0.146-1.621-0.204-1.955-0.966c-0.606-1.382-2.205-2.188-2.104-4
			c0.082-1.475-0.133-2.879,2.099-2.719c1.835,0.131,3.545,0.188,3.415,2.705c-0.021,0.414-0.003,0.83-0.003,1.244
			C153.47,166.858,153.467,166.858,153.463,166.858z"/>
		<path style="fill-rule:evenodd;clip-rule:evenodd;fill:#7B491E;" d="M353.178,43.12c0.79-0.687,0.024-2.697,1.726-2.635
			c1.545,0.055,2.916,1.05,3.26,2.747c0.162,0.799,0.252,1.482,0.766,2.216c0.947,1.355-0.217,2.241-1.128,3.061
			c-1.024,0.922-2.182,0.119-2.529-0.476C354.413,46.563,353.38,45.091,353.178,43.12z"/>
		<path style="fill-rule:evenodd;clip-rule:evenodd;fill:#7B491E;" d="M191.863,155.889c1.926,0.174,2.859,1.342,3.305,2.436
			c0.555,1.362,1.438,2.941,0.449,4.514c-0.953,1.513-2.14,1.488-3.15-0.015c-0.759-1.128-1.228-2.411-2.295-3.384
			c-0.678-0.618-0.546-1.705-0.022-2.512C190.619,156.203,191.318,155.752,191.863,155.889z"/>
		<path style="fill-rule:evenodd;clip-rule:evenodd;fill:#7B491E;" d="M141.02,167.005c0.14,0.889-0.147,1.86-0.883,2.312
			c-0.713,0.438-1.537-0.016-2.195-0.663c-0.376-0.37-0.978-0.554-1.51-0.716c-1.852-0.567-2.771-1.767-2.289-3.679
			c0.274-1.09,3.719-1.758,4.88-1.065C140.077,163.823,141.024,165.597,141.02,167.005z"/>
		<path style="fill-rule:evenodd;clip-rule:evenodd;fill:#7B491E;" d="M348.234,24.542c0.253,2.174-1.543,3.161-2.48,4.606
			c-0.13,0.201-0.645,0.344-0.883,0.254c-1.315-0.498-2.143-1.491-2.285-2.884c-0.134-1.308-0.248-2.672,1.129-3.558
			c1.108-0.712,2.194-1.54,3.557-0.698C348.117,22.785,348.434,23.625,348.234,24.542z"/>
		<path style="fill-rule:evenodd;clip-rule:evenodd;fill:#7B491E;" d="M132.056,186.676c-0.037,2.008-1.728,4.375-2.995,4.073
			c-2.074-0.495-2.305-2.434-2.452-4.156c-0.15-1.761,1.726-3.91,3.111-3.712C132.137,183.226,131.26,185.561,132.056,186.676z"/>
		<path style="fill-rule:evenodd;clip-rule:evenodd;fill:#7B491E;" d="M138.109,184.355c2.084,0.114,3.466,2.768,2.415,4.479
			c-0.377,0.614-0.786,1.213-1.107,1.855c-0.995,1.989-1.769,2.057-3.039,0.229c-1.794-2.582-1.697-4.238,0.278-5.958
			C137.124,184.554,137.56,184.257,138.109,184.355z"/>
		<path style="fill-rule:evenodd;clip-rule:evenodd;fill:#7B491E;" d="M296.485,104.533c1.177-0.253,2.625,0.654,2.67,2.487
			c0.034,1.345-0.631,3.029-2.63,3.113c-2.529,0.107-4.603-1.285-4.555-3.162C292.037,104.379,294.061,104.793,296.485,104.533z"/>
		<path style="fill-rule:evenodd;clip-rule:evenodd;fill:#7B491E;" d="M134.033,175.506c0,0.491,0.164,1.021-0.031,1.298
			c-0.573,0.816-0.099,2.291-1.508,2.546c-1.396,0.253-1.608-1.124-1.953-1.849c-0.604-1.271-1.486-2.481-1.495-4.021
			c-0.008-1.437,0.426-2.477,1.991-2.549c1.364-0.062,2.677,0.083,2.53,2.041C133.5,173.86,134.361,174.62,134.033,175.506z"/>
		<path style="fill-rule:evenodd;clip-rule:evenodd;fill:#7B491E;" d="M193.822,38.799c-0.087-1.383,0.072-2.757,2-2.869
			c1.234-0.071,4.422,3.009,4.483,4.189c0.096,1.85-1.301,2.159-2.557,2.224C195.427,42.463,193.825,40.943,193.822,38.799z"/>
		<path style="fill-rule:evenodd;clip-rule:evenodd;fill:#7B491E;" d="M178.375,163.716c0.016,1.129,0.002,2.224-0.439,3.326
			c-0.258,0.646-0.376,1.239-1.145,1.357c-0.906,0.14-1.526-0.564-1.705-1.151c-0.528-1.744-0.952-3.548-1.144-5.357
			c-0.162-1.529,1.31-2.174,2.372-2.312c1.135-0.148,1.949,0.899,2.052,2.166C178.419,162.398,178.375,163.059,178.375,163.716z"/>
		<path style="fill-rule:evenodd;clip-rule:evenodd;fill:#7B491E;" d="M166.908,195.079c-0.006,1.124,0.058,2.225-0.424,3.331
			c-0.273,0.626-0.363,1.266-1.135,1.364c-0.917,0.116-1.069-0.683-1.541-1.229c-1.369-1.589-0.673-3.586-1.201-5.337
			c-0.224-0.741,0.711-2.289,2.271-2.383c1.488-0.089,1.663,1.139,1.985,2.051C167.095,193.533,166.908,194.34,166.908,195.079z"/>
		<path style="fill-rule:evenodd;clip-rule:evenodd;fill:#7B491E;" d="M56.836,49.027c-0.043,1.306-2.833,4.538-3.832,4.284
			c-1.946-0.493-1.697-2.458-1.936-3.771c-0.347-1.901,1.304-3.216,3.335-3.163C56.036,46.42,56.891,47.352,56.836,49.027z"/>
		<path style="fill-rule:evenodd;clip-rule:evenodd;fill:#7B491E;" d="M160.955,204.164c0-0.774-0.104-1.298,0.021-1.76
			c0.271-1.004,1.045-1.757,1.949-2.035c1.039-0.319,1.681,0.59,1.987,1.442c0.758,2.107,0.763,4.247-0.491,6.177
			c-0.632,0.972-1.886,1.337-2.279,0.025C161.734,206.653,160.401,205.514,160.955,204.164z"/>
		<path style="fill-rule:evenodd;clip-rule:evenodd;fill:#7B491E;" d="M72.775,43.493c0.462,2.528-1.276,2.954-3.373,3.013
			c-1.357,0.038-2.131-1.159-2.106-3.276c0.018-1.48,2.151-3.307,3.762-3.221C71.843,40.051,72.783,41.845,72.775,43.493z"/>
		<path style="fill-rule:evenodd;clip-rule:evenodd;fill:#7B491E;" d="M236.662,48.586c0.012,2.002-1.819,3.73-3.939,3.77
			c-1.852,0.035-1.798-1.688-2.349-2.702c-0.404-0.743,3.132-3.833,4.143-3.769C235.51,45.95,236.655,47.392,236.662,48.586z"/>
		<path style="fill-rule:evenodd;clip-rule:evenodd;fill:#7B491E;" d="M171.333,175.765c0.184,1.074-0.007,1.736-0.671,2.039
			c-0.689,0.314-1.337-0.039-1.702-0.639c-1.039-1.704-2.114-3.4-2.97-5.196c-0.431-0.905,0.476-1.623,1.187-1.906
			c1.017-0.406,2.068-0.291,2.88,0.719C171.335,172.371,170.565,174.441,171.333,175.765z"/>
		<path style="fill-rule:evenodd;clip-rule:evenodd;fill:#7B491E;" d="M183.706,157.459c1.724,0.04,3.969,2.226,3.551,3.823
			c-0.309,1.176-0.455,2.872-2.191,3.115c-0.919,0.129-3.748-3.826-3.694-5.011C181.426,158.164,182.319,157.427,183.706,157.459z"
			/>
		<path style="fill-rule:evenodd;clip-rule:evenodd;fill:#7B491E;" d="M42.903,68.149c-0.189,1.599-0.239,3.349-2.644,3.129
			c-2.292-0.209-2.732-1.887-2.834-3.73c-0.081-1.463,0.85-2.6,2.017-2.398C41.119,65.44,43.277,65.345,42.903,68.149z"/>
		<path style="fill-rule:evenodd;clip-rule:evenodd;fill:#7B491E;" d="M221.523,159.404c-0.976-0.397-3.314,0.382-3.259-2.278
			c0.062-2.932,2.848-2.041,4.422-2.79c0.752-0.357,2.647,1.676,2.464,2.733C224.866,158.705,223.784,159.612,221.523,159.404z"/>
		<path style="fill-rule:evenodd;clip-rule:evenodd;fill:#7B491E;" d="M208.268,157.867c-0.15-1.761,0.396-2.919,2.533-2.924
			c2.082-0.006,2.78,1.512,3.361,2.984c0.342,0.866-2.582,3.025-3.885,3.015C208.871,160.932,208.266,160.029,208.268,157.867z"/>
		<path style="fill-rule:evenodd;clip-rule:evenodd;fill:#7B491E;" d="M176.385,179.57c-0.002,0.657,0.011,1.314-0.005,1.972
			c-0.024,0.953-0.69,1.481-1.444,1.768c-0.864,0.329-1.484-0.405-1.781-0.996c-0.837-1.666-2.174-3.351-0.617-5.315
			c0.646-0.814,1.463-1.483,2.517-1.028c0.933,0.402,1.517,1.213,1.343,2.369C176.337,178.741,176.388,179.159,176.385,179.57z"/>
		<path style="fill-rule:evenodd;clip-rule:evenodd;fill:#7B491E;" d="M172.901,199.102c-0.011-1.812,1.396-3.575,2.802-3.231
			c1.655,0.403,2.106,1.72,1.722,3.328c-0.019,0.08-0.032,0.163-0.032,0.244c0.012,1.734-0.36,3.331-2.28,3.795
			C174.145,203.472,172.912,201.038,172.901,199.102z"/>
		<path style="fill-rule:evenodd;clip-rule:evenodd;fill:#7B491E;" d="M123.664,211.13c-0.723,0.876,1.139,2.766-1.057,3.066
			c-2.203,0.302-2.071-1.739-2.485-3.067c-0.318-1.021-0.53-1.964-0.201-3.214c0.342-1.299,1.237-1.267,1.849-1.414
			c0.715-0.172,1.472,0.56,1.627,1.37C123.595,208.902,123.58,209.975,123.664,211.13z"/>
		<path style="fill-rule:evenodd;clip-rule:evenodd;fill:#7B491E;" d="M125.578,198.419c-0.087-1.814,0.899-2.867,2.203-3.004
			c1.316-0.138,1.826,1.048,1.802,2.38c-0.018,0.955-0.129,1.896,0.388,2.863c0.477,0.895-0.414,1.527-1.085,1.968
			c-0.812,0.533-1.391-0.08-1.875-0.662C126.103,200.875,125.955,199.484,125.578,198.419z"/>
		<path style="fill-rule:evenodd;clip-rule:evenodd;fill:#7B491E;" d="M146.5,167.034c0.273,1.438-0.805,2.389-1.73,2.665
			c-1.196,0.355-1.432-0.951-1.859-1.958c-0.62-1.462-1.533-2.617,0.077-4.097c1.425-1.311,2.262-0.578,2.883,0.592
			C146.304,165.051,146.306,166.094,146.5,167.034z"/>
		<path style="fill-rule:evenodd;clip-rule:evenodd;fill:#7B491E;" d="M166.439,212.362c0.162,3.316-2.561,1.388-3.754,2.243
			c-0.691,0.496-1.756-0.77-1.746-2.046c0.01-1.25,2.03-2.91,3.564-2.78C166.229,209.926,166.545,211.137,166.439,212.362z"/>
		<path style="fill-rule:evenodd;clip-rule:evenodd;fill:#7B491E;" d="M124.002,188.293c0.323,1.314,0.003,2.599-1.089,2.802
			c-1.062,0.197-1.592-0.994-1.84-2.078c-0.227-0.992-1.092-1.684-1.043-2.903c0.052-1.307,0.8-1.915,1.705-2.013
			c0.729-0.078,1.707,0.328,1.866,1.475C123.734,186.526,124.441,187.383,124.002,188.293z"/>
		<path style="fill-rule:evenodd;clip-rule:evenodd;fill:#7B491E;" d="M118.131,188.831c0.046,0.68-0.179,1.688-1.562,1.473
			c-1.861-0.289-2.647-1.743-2.915-3.409c-0.251-1.567,1.483-2.914,2.08-2.74C117.573,184.692,118.089,186.531,118.131,188.831z"/>
		<path style="fill-rule:evenodd;clip-rule:evenodd;fill:#7B491E;" d="M129.58,209.599c0.134,1.149-0.476,1.841-1.869,1.646
			c-1.954-0.272-2.73-1.495-2.643-3.411c0.047-1.023,0.022-2.335,1.418-1.973C128.129,206.286,129.702,207.182,129.58,209.599z"/>
		<path style="fill-rule:evenodd;clip-rule:evenodd;fill:#7B491E;" d="M152.466,212.578c-0.176,0.974,0.562,2.642-1.246,2.59
			c-1.732-0.05-2.706-1.334-2.703-3.096c0.001-1.106,0.028-2.326,1.709-2.319C152.172,209.76,152.814,210.741,152.466,212.578z"/>
		<path style="fill-rule:evenodd;clip-rule:evenodd;fill:#7B491E;" d="M147.46,186.774c0.113-1.966,1.024-3.298,2.574-3.285
			c1.667,0.013,1.533,1.984,1.708,3.086c0.108,0.683-0.042,2.524-1.798,2.24C148.66,188.607,147.316,188.285,147.46,186.774z"/>
	</g>
</g>
</svg>
