<?xml version="1.0" encoding="iso-8859-1"?>
<!-- Generator: Adobe Illustrator 16.0.0, SVG Export Plug-In . SVG Version: 6.00 Build 0)  -->
<!DOCTYPE svg PUBLIC "-//W3C//DTD SVG 1.1//EN" "http://www.w3.org/Graphics/SVG/1.1/DTD/svg11.dtd">
<svg version="1.1" id="Layer_1" xmlns="http://www.w3.org/2000/svg" xmlns:xlink="http://www.w3.org/1999/xlink" x="0px" y="0px"
	 width="401.576px" height="194.545px" viewBox="0 0 401.576 194.545" style="enable-background:new 0 0 401.576 194.545;"
	 xml:space="preserve">
<g>
	<g>
		<path style="fill:none;" d="M200.788,194c-66.02,0-132.041-0.009-198.061,0.045c-1.818,0.002-2.229-0.409-2.228-2.228
			c0.055-63.03,0.055-126.06,0-189.09C0.499,0.91,0.91,0.5,2.728,0.5c132.041,0.05,264.08,0.05,396.12,0
			c1.818,0,2.229,0.41,2.229,2.227c-0.056,63.03-0.056,126.06-0.001,189.09c0.002,1.818-0.409,2.229-2.228,2.228
			C332.828,193.991,266.808,194,200.788,194z M309.343,79.635c0.772,1.989,1.02,4.553,4.395,2.927
			c1.076-0.519,2.222-1.05,2.34-2.037c0.193-1.618-1.485-2.366-2.541-3.187c-0.74-0.575-1.996-0.417-2.763,0.602
			c-0.46,0.612-0.987,1.173-1.485,1.758c-0.268-1.564-1.156-3.01-0.868-4.683c0.195-1.14-0.163-2.1-1.226-2.603
			c-0.984-0.466-2.158,0.007-2.563,0.672c-0.566,0.933-1.689,1.84-1.212,3.203C304.547,79.51,306.537,80.625,309.343,79.635z
			 M224.568,23.307c-0.043,0.407,0.095,0.736,0.276,1.115c0.848,1.769,1.546,3.607,4.158,2.486c2.918-1.253,3.07-1.552,1.918-4.871
			c-0.051-0.147-0.091-0.324-0.062-0.471c0.637-3.117-1.293-4.868-3.427-6.542c-0.937-0.735-2.104-0.728-2.76-0.09
			c-0.625,0.609-1.181,1.783-0.165,2.768c0.403,0.392,0.804,0.788,1.185,1.201c1.988,2.155,1.692,3.267-1.179,4.458
			c0.861-2.731-3.125-2.646-2.942-5.029c0.019-0.242-0.496-0.606-0.834-0.77c-0.262-0.127-0.64-0.076-0.954-0.025
			c-0.523,0.084-3.025,4.716-2.837,5.215c0.025,0.067,0.106,0.119,0.169,0.168c0.516,0.409,0.752,0.89,0.008,1.225
			c-0.998,0.449-0.637-0.486-0.861-0.892c-0.427-0.77-1.034-1.743-2.009-1.288c-0.867,0.405-1.882,1.075-1.814,2.323
			c0.068,1.252,0.081,2.963,1.337,3.277c1.961,0.492,3.646,2.021,5.963,1.457c1.042-0.254,2.128-0.29,2.309-1.409
			c0.157-0.975,0.598-2.295-0.958-2.852c-1.099-0.393-1.009-1.305-0.769-2.322C221.628,23.365,222.89,24.503,224.568,23.307z
			 M290.493,26.294c-0.483-0.411-0.943-0.853-1.453-1.227c-1.534-1.127-5.302-1.184-5.933,0.18
			c-1.097,2.368-2.647,1.653-4.176,0.965c-1.014-0.457-2-0.426-3.025-0.456c-0.826-0.024-1.646-0.039-1.888,1.013
			c-0.236,1.028,0.274,1.97,1.095,2.159c1.485,0.342,2.217,1.472,3.196,2.361c2.166,1.968,5.516,1.249,6.979-1.317
			c0.317-0.557,0.411-2.073,1.794-1.517c3.054,1.226,3.416,1.008,3.367-2.207c0.312-0.566,0.663-0.035,0.988-0.021
			c1.013,0.042,1.414-0.44,1.483-1.422c0.082-1.161-0.907-1.359-1.515-1.367c-0.858-0.012-0.91,0.865-0.944,1.626
			C290.445,25.48,291.099,25.883,290.493,26.294z M353.295,168.711c2.749-0.227,5.354-0.97,7.758-2.37
			c1.405-0.819,2.761-2.07,4.268-2.31c6.161-0.98,11.332-4.248,16.738-6.93c2.85-1.414,4.988-3.971,7.942-5.397
			c1.613-0.78,1.172-2.68,0.316-3.968c-0.731-1.102-1.751-2.093-3.068-2.589c-0.731-0.275-1.096-0.657-1.286-1.495
			c-0.717-3.162-3.229-4.947-6.472-5.464c-3.871-0.617-7.349-2.937-11.423-2.855c-0.146,0.003-0.31-0.1-0.438-0.19
			c-1.376-0.981-3.009-1.312-4.587-1.721c-3.145-0.813-3.448-1.242-1.729-4.091c0.674-1.116,0.128-1.949-0.431-2.142
			c-1.654-0.571-3.192-0.98-3.448-3.119c-0.041-0.342-1.121-0.898-1.594-0.792c-2.261,0.51-3.186-1.226-4.434-2.418
			c-2.166-2.07-3.113-2.053-5.125,0.122c-0.374,0.404-0.729,0.877-1.411,0.767c-0.913-0.147-0.335-0.94-0.599-1.325
			c-0.603-0.878-0.379-2.829-2.354-2.058c-1.44,0.562-2.7,0.367-3.948-0.482c-1.076-0.733-2.287-0.791-3.519-0.485
			c-2.877,0.714-5.651,1.689-8.431,2.748c-3.041,1.157-6.284,2.858-9.719,0.723c-0.448-0.279-1.48-0.248-1.851,0.081
			c-2,1.776-4.039,1.495-6.456,0.926c-1.739-0.41-2.168-1.218-1.908-2.527c0.136-0.684,0.028-1.188-0.161-1.727
			c-0.716-2.037-1.896-3.427-4.237-3.889c-3.965-0.783-7.804-3.324-11.897-0.358c-0.779,0.565-1.537-0.196-2.153-0.594
			c-1.883-1.218-4.03-1.262-5.578-0.058c-2.275,1.771-5.132,2.291-7.379,4.045c-0.771,0.603-2.505,1.159-2.955,0.768
			c-1.406-1.225-2.29-0.042-3.136,0.43c-0.82,0.456-1.667,0.835-2.509,1.229c-3.143,1.47-7.231,1.361-8.868,5.365
			c-0.089,0.217-0.715,0.233-1.098,0.308c-1.89,0.37-2.705,1.6-2.448,3.408c0.28,1.964,1.621,2.751,3.549,2.704
			c0.933-0.022,1.999-0.257,2.239,1.171c0.29,1.731-1.17,1.089-1.882,1.404c-1.335,0.593-3.565,0.933-3.196,2.528
			c0.425,1.836,1.847,4.489,3.286,4.818c2.814,0.646,4.809,2.434,6.846,3.88c4.706,3.341,9.728,2.561,14.857,2.485
			c3.523-0.051,6.642-1.923,10.156-1.763c2.767,0.127,5.546,0.285,7.88-1.738c0.341-0.297,1.244-0.38,1.611-0.14
			c1.828,1.194,4.062,0.566,5.914,1.437c1.214,0.57,3.175,0.113,3.294,2.37c0.029,0.561,0.955,0.678,1.458,0.469
			c0.961-0.399,1.743,0.043,2.604,0.262c2.346,0.597,4.705,1.138,7.055,1.72c0.712,0.177,1.714-0.539,2.118,0.486
			c0.438,1.108-0.506,1.721-1.142,2.435c-0.715,0.801-2.354,1.573-1.62,2.651c1.558,2.289-0.021,4.708,0.781,7.027
			c0.469,1.355,0.628,2.419,2.302,2.455c0.301,0.006,1.079-0.563,0.884,0.703c-0.212,1.37,0.72,2.236,2.216,1.432
			c0.978-0.525,2.016-0.129,3.041-0.425c0.885-0.255,1.817,0.373,1.05,1.75c-1.027,1.841-0.309,3.118,1.79,3.288
			c2.643,0.213,5.264-0.173,7.802-0.8C343.411,169.688,348.345,169.205,353.295,168.711z M96.061,97.919
			c0-1.726,0.044-2.858-0.009-3.987c-0.11-2.309-3.037-4.338-5.292-4.282c-1.581,0.039-2.573,1.108-3.951,1.388
			c-0.592,0.12-1.054,0.257-1.533-0.187c-0.413-0.382-0.488-0.863-0.264-1.312c0.251-0.504,0.563-0.844,1.326-0.6
			c0.896,0.287,1.441-0.374,1.992-1.091c1.474-1.918,0.591-4.536,1.94-6.407c1.545-2.144,0.96-4.202-0.062-6.191
			c-0.791-1.539-1.905-2.912-2.868-4.363c-3.032-4.569-3.083-4.712-8.04-2.904c-5.085,1.854-9.904,4.202-13.725,8.292
			c-1.609,1.723-2.96,3.721-5.43,4.719c-1.921,0.776-0.994,3.45-1.882,5.059c-1.187,2.15-1.361,4.427-1.567,6.825
			c-0.25,2.903,0.887,4.619,3.164,6.076c0.984,0.631,1.673,1.944-0.016,2.513c-2.315,0.78-3.13,2.552-4.075,4.517
			c-1.05,2.184-1.046,3.948,0.781,5.645c0.509,0.473,0.254,1.238,0.222,1.858c-0.119,2.316,0.501,3.825,3.226,3.987
			c1.192,0.07,2.916,0.668,1.229,2.487c-0.982,1.061-0.934,2.676-0.384,3.348c1.185,1.448,0.626,2.682,0.234,3.991
			c-0.9,3.005,0.086,4.732,3.052,5.675c1.517,0.482,3.308,1.139,1.62,3.387c-0.5,0.665-0.315,1.438,0.274,2.189
			c1.012,1.286,2.057,2.268,3.864,2.144c1.122-0.076,4.284,5.45,3.579,6.262c-0.66,0.76-1.386,1.469-2.313,2.037
			c-3.99,2.446-7.464,5.539-10.607,9.01c-0.526,0.58-0.466,1.254-0.326,1.813c0.476,1.902,1.148,3.795,2.413,5.292
			c1.591,1.882,3.76,3.435,6.227,2.584c2.171-0.75,4.381-1.156,6.573-1.685c3.038-0.732,5.968-1.797,9.125-2.212
			c4.119-0.542,7.817-2.446,10.109-6.085c1.087-1.726,2.301-3.109,3.914-4.315c1.913-1.431,3.363-3.276,3.286-5.874
			c-0.019-0.637,0.25-1.057,0.661-1.465c2.321-2.301,3.841-5.287,6.405-7.404c0.743-0.614,1.551-1.651,1.585-2.523
			c0.09-2.283,1.851-3.194,3.294-3.979c1.175-0.64,2.493-1.265,3.844-1.701c1.903-0.613,2.849-2.688,1.598-3.797
			c-1.326-1.174-2.006-2.438-2.376-4.04c-0.049-0.214-0.246-0.506-0.43-0.557c-3.301-0.909-5.798-3.878-9.525-3.697
			c-1.627,0.078-2.313-0.731-1.505-2.187c0.497-0.896,0.283-1.53-0.161-2.185c-2.836-4.183-4.595-4.788-9.898-3.479
			c-1.777,0.439-5.093-1.61-5.144-3.051c-0.053-1.481,1.258-1.963,2.007-2.329C95.615,103.464,96.643,100.841,96.061,97.919z
			 M48.917,66.932c0.596-0.718,1.172-2.045,1.891-2.128c1.029-0.118,1.773,1.162,2.598,1.905c0.338,0.304,0.798,0.511,1.237,0.656
			c1.223,0.403,4.744-2.368,4.519-3.527c-0.46-2.365-3.699-3.916-6.088-2.656c-1.5,0.792-2.39,0.034-3.354-0.679
			c-0.731-0.54-0.245-4.295,0.269-4.09c1.592,0.635,1.681-0.791,1.802-1.385c0.264-1.294,0.767-2.552,0.676-3.95
			c-0.087-1.342-0.026-2.758-1.676-2.961c-1.578-0.194-2.517,0.876-2.699,2.388c-0.125,1.046-0.744,1.844-1.411,2.331
			c-2.354,1.716-2.724,2.68-1.099,5.036c0.591,0.858,0.865,1.942,0.414,2.415c-1.443,1.513-0.271,2.658,0.386,3.704
			C47.037,65.034,47.613,66.245,48.917,66.932z M312.42,22.102c1.276,1.183,2.46,0.593,3.444,0.127
			c0.854-0.404,2.005-1.096,1.709-2.334c-0.259-1.081-0.693-2.145-2.389-1.764c-0.668,0.151-1.712,0.012-2.217-1.425
			c-0.438-1.25-1.835-3.097-3.967-1.625c-1.942,1.339-1.176,2.727-0.142,4.205c0.675,0.963,0.916,2.167,0.016,3.056
			c-1.185,1.169-2.69,2.034-4.381,2.1c-2.085,0.082-2.414-0.533-1.346-2.321c0.436-0.729,0.627-1.25-0.018-1.894
			c-0.677-0.678-1.267-1.566-2.412-1.224c-0.797,0.237-1.452,0.772-1.485,1.667c-0.093,2.518-0.209,5.008,1.387,7.266
			c1.501,2.124,2.922,2.422,4.743,0.616c0.814-0.807,1.664-1.179,2.852-1.435C311.27,26.459,312.332,26.576,312.42,22.102z
			 M94.607,34.106c0.1,2.938,1.845,4.912,4.038,6.504c0.694,0.503,1.999,0.434,2.147-0.685c0.199-1.498,0.788-3.367-1.074-4.309
			c-0.93-0.471-0.773-1.113-0.728-1.768c0.076-1.095-0.174-2.093-0.899-2.867c-0.787-0.841-0.716-1.469,0.066-2.251
			c0.852-0.854,1.538-0.653,2.235,0.132c0.961,1.081,1.462,0.468,2.038-0.455c0.941-1.51-0.137-2.183-0.984-3.164
			c-1.409-1.633-3.695-0.924-5.091-2.068c-1.238-1.014-2.338-0.724-3.063,0.02c-0.778,0.799-0.844,1.98-0.229,3.279
			c0.975,2.063,4.041,3.762,1.565,6.681C94.468,33.342,94.607,33.783,94.607,34.106z M197.149,96.412
			c-0.184-0.441-0.329-0.968-0.603-1.416c-0.831-1.36-1.881-1.146-3.171-0.571c-1.456,0.649-0.801,1.79-0.742,2.663
			c0.063,0.934,3.625,2.513,4.445,1.95c1.265-0.87,2.408-0.005,3.596-0.032c2.368-0.054,1.379,1.853,1.544,3.022
			c0.076,0.538,0.3,0.908,0.665,1.212c0.855,0.714,1.151,1.562,0.542,2.53c-0.37,0.587-0.03,0.861,0.292,1.217
			c1.45,1.595,1.899,3.141,0.069,4.858c-0.794,0.746-0.512,1.551,0.32,2.395c0.948,0.959,1.59,0.357,2.14-0.174
			c1.268-1.226,3.45-2.281,1.317-4.532c-0.381-0.403-0.106-0.819-0.054-1.27c0.162-1.384,0.41-2.837-1.274-3.638
			c-0.363-0.173-0.619-0.539-0.476-1.183c0.852-3.811,0.402-4.484-3.726-6.072c-0.11-0.042-0.204-0.183-0.264-0.299
			C200.543,94.676,198.876,95.524,197.149,96.412z M41.709,51.738c0.197-1.264-0.093-3.334-1.286-2.991
			c-2.442,0.703-3.811-0.915-5.614-1.549c-2.301-0.809-4.034,0.318-4.225,2.794c-0.053,0.692,0.425,1.477-0.628,2.072
			c-1.058,0.597-1.65,1.788-1.13,3.057c0.25,0.609,0.825,1.367,1.655,1.151c1.512-0.395,2.98-0.959,4.463-1.463
			c0.03-0.011,0.022-0.152,0.021-0.232c-0.003-3.036,1.14-1.593,2.289-0.628c1.01,0.848,2.268,1.387,3.491,0.628
			C41.655,54.011,42.448,53.108,41.709,51.738z M193.981,32.735c-0.25-1.154-0.993-2.159-1.815-2.013
			c-2.205,0.392-4.466-0.219-6.471,0.12c-2.404,0.406-4.104,0.378-5.784-1.415c-0.613-0.653-1.683-1.118-2.484-0.219
			c-0.775,0.869-0.493,1.809,0.175,2.746c0.625,0.878,1.725,1.034,2.361,1.947c2.176,3.122,4.37,3.002,6.274-0.277
			c0.556-0.957,1.007-1.015,1.439-0.018c0.815,1.883,2.773,2.823,3.682,4.682c0.539,1.102,1.477,0.469,1.614-0.441
			C193.237,36.073,192.607,34.144,193.981,32.735z M139.555,122.257c1.472,0.302,2.518,0.24,2.991-0.862
			c0.37-0.862-0.079-2.225-0.666-2.328c-2.308-0.41-2.15-2.264-2.529-3.77c-0.299-1.189-0.768-2.196-1.643-3.069
			c-1.35-1.347-2.621-0.453-3.125,0.549c-0.501,0.995-0.694,2.496,0.413,3.576c0.865,0.844,1.869,1.595,2.541,2.572
			c0.682,0.991,1.991,2.174,1.263,3.358c-1.333,2.171-1.736,4.972-0.596,7.168c0.553,1.065,1.449,1.534,2.487,1.446
			c0.701-0.06,1.908-0.686,1.585-1.375C141.224,127.271,142.528,124.267,139.555,122.257z M239.415,13.614
			c-0.764,0.078-1.294,0.416-1.294,1.333c0.002,1.262-0.348,2.79,1.151,3.353c1.724,0.647,3.608,1.88,5.388,0.966
			c1.218-0.625,1.931-2.125,3.712-1.847c0.368,0.057,1.141-0.666,1.249-1.139c0.261-1.131,0.839-1.858,1.702-2.617
			c0.845-0.742,0.448-1.718-0.366-2.478c-0.95-0.888-1.485-0.533-1.953,0.491c-0.109,0.239-0.487,0.387-0.77,0.512
			c-1.942,0.857-4.642-0.215-5.956,2.377c-0.133,0.264-1.024,0.02-1.517-0.373C240.409,13.915,239.912,13.818,239.415,13.614z
			 M337.027,83.419c-0.928-0.172-2.021,0.217-2.354,1.466c-0.298,1.115,0.203,2.021,1.331,2.7c1.203,0.723,2.311,1.59,3.594,2.219
			c1.288,0.631,2.225,1.588,2.312,3.225c0.079,1.504,1.176,2.511,2.165,3.539c0.932,0.968,2.247,0.926,2.898,0.228
			c0.559-0.599,0.675-2.028-0.229-2.861c-2.369-2.186-3.624-5.04-5.016-7.851C340.894,84.399,339.342,83.465,337.027,83.419z
			 M249.494,46.385c-0.271-0.659-0.45-1.426-0.867-2.029c-0.479-0.693-1.119-1.654-2.126-0.949c-0.949,0.665-2.34,1.701-1.433,2.896
			c1.58,2.079,0.987,4.106,0.488,6.175c-0.208,0.86-0.163,1.534,0.613,1.757c0.659,0.189,1.474,0.524,2.142-0.336
			c1.148-1.48,1.841-2.917,0.166-4.43c-0.529-0.479-0.452-0.84-0.198-1.406c0.225-0.499,0.562-0.512,0.951-0.463
			c0.737,0.09,0.486,0.695,0.52,1.122c0.052,0.668-0.123,1.604,0.892,1.483c0.717-0.086,1.511-0.435,1.562-1.511
			c0.055-1.142,0.268-2.003,1.959-1.75c0.76,0.114,2.703-0.571,1.571-2.275c-0.644-0.97-1.751-2.177-2.718-2.241
			c-1.052-0.07-2.275,0.903-2.431,2.48C250.534,45.434,249.871,45.899,249.494,46.385z M77.975,40.798
			c-1.176-0.192-1.765,0.534-2.268,1.391c-0.519,0.885-0.134,1.56,0.469,2.234c2.168,2.429,5.61,3.252,7.518,6.023
			c0.702,1.02,1.686,1.531,2.836,0.586c1.191-0.978,1.206-2.401,0.464-3.424c-0.828-1.141-1.728-2.217-2.417-3.467
			c-0.242-0.44-0.703-1.11-1.304-0.894c-1.853,0.669-2.66-0.712-3.666-1.718C79.14,41.062,78.684,40.637,77.975,40.798z
			 M265.313,36.473c0.431,0.967,0.754,1.504,0.911,2.087c0.347,1.286,1.19,2.092,2.428,1.668c1.303-0.446,2.322-1.628,2.31-3.028
			c-0.006-0.659-0.558-2.166-1.851-1.691c-2.925,1.072-1.534-1.211-1.233-1.772c0.667-1.247,0.073-2.244-0.641-2.708
			c-0.873-0.568-1.766,0.462-2.562,0.958c-0.662,0.412-0.304,1.182-0.369,1.796c-0.219,2.033-0.748,3.761-3.333,3.614
			c-1.162-0.066-1.559,0.571-1.524,1.654c0.104,3.263,2.992,0.975,4.284,2.106c0.723,0.633,1.569-0.48,1.97-1.263
			c0.197-0.385,0.03-0.792-0.527-1.122C264.488,38.367,264.697,37.594,265.313,36.473z M335.267,60.704
			c-0.147-1.809-1.429-3.062-2.971-3.284c-1.898-0.273-2.198-1.294-2.598-2.771c-0.298-1.104-0.78-2.379-2.562-1.89
			c-1.342,0.368-2.356,0.983-2.679,2.345c-0.179,0.756,3.286,5.224,3.941,5.01c2.936-0.956,3.024,1.498,3.737,3.041
			c0.692,1.499,1.481,1.182,2.262,0.301C335.03,62.74,335.188,61.753,335.267,60.704z M155.009,182.839
			c1.08,0.179,1.723-0.517,2.068-1.318c0.393-0.912-0.06-1.781-0.888-2.269c-0.929-0.546-1.842-1.196-3.07-0.436
			c-1.489,0.923-2.544,0.205-3.367-1.164c-0.415-0.69-0.582-1.649-1.8-1.625c-1.101,0.021-2.295,0.005-2.706,1.097
			c-0.619,1.644-0.326,3.465,0.967,4.606c1.129,0.996,2.833,2.465,4.289,1.031c1.161-1.144,1.892-1.036,2.941-0.347
			C153.941,182.741,154.429,182.914,155.009,182.839z M359.82,81.806c0.089-2.146-0.634-3.98-2.445-4.273
			c-1.629-0.263-2.284-0.934-3.083-2.172c-0.904-1.402-2.401-2.038-4.165-1.382c-0.986,0.367-1.508,0.915-1.501,2.114
			c0.011,1.928,1.378,2.202,2.719,2.599c2.479,0.734,4.436,2.099,5.554,4.509c0.097,0.209,0.342,0.353,0.431,0.564
			c0.415,0.982,0.801,0.78,1.555,0.216C359.786,83.306,359.917,82.531,359.82,81.806z M318.122,16.678
			c-0.05,1.508,2.149,5.089,3.348,5.144c1.686,0.077,2.689-1.459,3.182-2.559c0.626-1.395,0.975-1.341,2.162-0.854
			c0.856,0.351,1.974,0.814,2.642-0.742c0.749-1.745-0.478-2.76-1.248-3.743c-0.64-0.816-1.72-0.257-2.462,0.55
			c-1.519,1.65-3.335,1.771-5.254,0.793C318.823,14.416,318.184,14.773,318.122,16.678z M31.553,129.498
			c-0.241,2.406,1.617,3.068,3.232,3.823c1.622,0.758,3.167,0,4.477-0.833c0.542-0.345,1.083-1.504,0.04-2.26
			c-1.536-1.113-2.32-2.528-2.469-4.49c-0.099-1.311-1.467-1.741-2.634-2.021c-0.668-0.16-1.578,0.088-1.52,0.764
			C32.835,126.313,31.685,127.79,31.553,129.498z M205.984,127.599c-1.989-0.125-3.001,0.827-3.168,2.104
			c-0.188,1.443,0.931,1.758,2.336,1.808c2.118,0.075,4.266,0.158,5.013,3.028c0.472,1.809,2.977,2.494,3.615,1.209
			c0.705-1.419,2.037-2.304,2.563-3.791c0.297-0.841,0.15-1.101-0.643-1.536c-1.68-0.922-2.349-0.061-2.765,1.318
			c-0.143,0.477-0.3,0.671-0.763,0.68c-0.356,0.007-0.691-0.091-0.687-0.473C211.545,127.699,207.085,129.622,205.984,127.599z
			 M28.182,108.896c0.005-3.034-2.287-6.361-4.89-7.31c-0.708-0.258-1.424-0.416-2.012,0.188c-0.579,0.596-0.5,1.32-0.148,2.002
			c0.439,0.85,0.917,1.676,0.748,2.692c-0.274,1.657,0.636,2.834,1.577,4.034c0.872,1.11,2.174,1.54,3.273,1.163
			S28.554,110.111,28.182,108.896z M154.659,133.882c1.618,0.033,2.721-0.599,3.353-1.771c0.392-0.727,0.224-1.833-0.642-2.055
			c-2.091-0.535-1.731-2.076-1.648-3.49c0.045-0.768-0.374-1.351-0.496-2.032c-0.287-1.604-1.815-1.396-2.748-1.574
			c-0.823-0.157-1.555,0.94-1.604,1.945c-0.082,1.675-0.529,3.584,2.01,3.996c0.729,0.118,0.908,0.256,0.082,0.797
			c-0.694,0.455-1.365,1.184-0.858,2.374C152.668,133.385,153.712,133.655,154.659,133.882z M227.02,141.931
			c-0.051-2.483-2.164-4.063-2.948-6.262c-0.225-0.631-1.083-0.428-1.645,0.078c-1.441,1.297-0.882,2.4,0.351,3.372
			c1.271,1.002,1.102,2.547,0.661,3.519c-0.574,1.271-1.834,0.217-2.629-0.226c-1.37-0.762-2.187,0.116-2.426,1.02
			c-0.259,0.979,0.04,2.371,1.062,2.875c0.965,0.477,2.296,1.267,3.188-0.394c0.417-0.775,0.974-1.511,2.039-1.364
			C226.722,144.831,227.253,143.777,227.02,141.931z M32.277,122.647c1.249,0.862,1.432-0.402,1.898-0.881
			c0.542-0.558,0.607-1.652,0.001-1.923c-2.535-1.136-3.596-3.887-5.977-5.199c-0.673-0.371-1.05-0.396-1.619-0.126
			c-0.665,0.315-1.065,0.922-0.792,1.546c0.872,1.991,0.686,4.46,2.23,6.059C29.093,123.233,30.777,123.453,32.277,122.647z
			 M218.441,126.753c-0.967,0.58-1.986-0.799-2.478,0.49c-0.305,0.799-0.243,1.527,0.46,2.175c0.522,0.479,1,0.773,1.696,0.43
			c0.986-0.486,2.471-5.222,1.827-6.103c-0.351-0.48-0.75-1.043-1.529-1.024c-1.847,0.046-3.099-0.352-2.694-2.745
			c0.132-0.777-0.351-2.097-1.769-2.095c-1.329,0.002-2.073,0.951-2.433,1.958c-0.475,1.332,0.624,1.749,1.692,1.913
			c1.269,0.192,0.771,0.972,0.686,1.704c-0.143,1.221,0.095,2.643,1.644,2.085C217.057,124.996,217.471,125.902,218.441,126.753z
			 M29.674,105.089c-0.403,1.542,0.775,2.519,1.619,3.429c1.009,1.089,3.022,0.518,4.001,1.945c0.34-0.336,0.807-0.612,0.999-1.019
			c0.932-1.971,0.524-4.118-0.421-5.735c-0.966-1.654-3.178-1.636-4.97-1.203C29.81,102.77,29.422,103.877,29.674,105.089z
			 M151.167,74.029c-0.494-1.467-0.777-3.256-2.182-4.194c-0.794-0.531-1.755-1.578-2.998-0.911
			c-0.839,0.45-2.089,1.271-1.803,1.984c1.063,2.647,2.17,5.357,4.271,7.405c0.497,0.485,1.711,0.808,1.825-0.343
			C150.414,76.614,150.699,75.353,151.167,74.029z M39.334,143.58c1.112-0.136,2.341-0.851,3.587-1.45
			c0.943-0.453,0.876-1.465,0.747-2.345c-0.156-1.069-1.006-1.007-1.836-1.078c-1.479-0.125-2.916-0.461-4.354-0.887
			c-1.876-0.556-3.075,0.562-2.994,2.546C34.556,142.077,36.609,143.531,39.334,143.58z M143.55,156.987
			c-1.391-1.698-0.704-3.99-1.747-5.8c-1.044-1.812-2.802-1.59-4.145-1.106c-0.794,0.286-1.755,1.476-0.986,3.138
			c0.776,1.678,2.054,2.931,2.975,4.458c0.369,0.612,1.572,1.166,2.685,0.561C142.906,157.926,143.515,157.764,143.55,156.987z
			 M18.833,93.635c1.747,0.084,2.977-0.562,3.025-2.463c0.062-2.427-1.92-5.358-3.455-5.292c-1.326,0.057-3.31,2.521-3.311,4.113
			C15.09,92.157,16.64,93.667,18.833,93.635z M49.029,128.982c-0.048-1.048-2.311-3.31-3.337-3.347
			c-0.503-0.019-0.901,0.102-1.277,0.496c-1.706,1.793-1.982,5.836-0.417,7.756c0.34,0.418,0.627,1.194,1.511,0.819
			C46.676,134.213,49.091,130.344,49.029,128.982z M343.344,65.727c0.066-0.825-0.01-1.55-0.72-2.17
			c-1.355-1.185-2.835-0.845-4.507,1.104c-1.4,1.633-0.334,2.914,0.8,3.854c0.978,0.809,2.089,1.495,2.812,2.533
			c0.555,0.795,1.432,1.684,2.048,1.371c1.06-0.541,0.823-2.106,0.326-2.794C343.181,68.347,342.993,67.144,343.344,65.727z
			 M331.109,71.551c-1.246-0.756-1.454-3.205-3.594-1.605c-1.165,0.872-1.78,2.161-0.84,3.299c1.654,2.003,3.02,0.508,4.379-1.052
			c0.175,1.048,0.213,2.086,1.349,2.019c0.976-0.058,1.576-0.726,1.702-1.692c0.07-0.551,0.339-0.976,0.786-1.112
			c3.086-0.939,1.196-2.483,0.484-3.863c-0.242-0.468-0.703-0.663-1.229-0.554c-0.617,0.128-1.078,0.551-0.966,1.165
			c0.268,1.465-0.008,2.468-1.687,2.712C331.313,70.895,331.198,71.385,331.109,71.551z M48.059,69.866
			c0.013-1.43-2.593-4.351-3.88-4.349c-1.153,0.001-3.664,2.374-3.709,3.504c-0.024,0.608,2.208,3.496,2.713,3.51
			C45.88,72.606,48.045,71.423,48.059,69.866z M34,64.22c0.007-1.647-0.034-1.598-3.417-4.362c-1.376-1.124-2.285-0.704-3.219,0.455
			c-1.333,1.653-0.275,3.173,0.696,4.208c1.1,1.172,2.498,2.521,4.541,1.704C33.611,65.819,34.257,65.261,34,64.22z M138.62,136.303
			c-1.086-0.018-1.086-0.018-2.304,2.354c-1.532,2.981-1.391,3.648,1.118,5.819c0.529,0.458,1.219,1.042,1.741,0.703
			c0.684-0.445,1.373-1.482,0.918-2.23c-0.833-1.369-0.075-2.164,0.541-3.196C141.759,137.867,140.823,136.338,138.62,136.303z
			 M156.449,153.658c-1.187,0.182-1.936-0.104-2.485,0.638c-0.953,1.29-1.134,5.409,0.018,6.531
			c0.471,0.457,1.088,1.269,1.969,1.146c0.964-0.133,0.93-1.06,1.229-1.747c0.34-0.779,0.221-1.783,0.967-2.346
			c0.981-0.741,1.37-1.926,0.824-2.73C158.382,154.284,157.327,153.404,156.449,153.658z M176.06,183.017
			c0.007,0.159-0.186,0.941,0.114,1.402c0.51,0.783,0.317,2.118,1.655,2.307c1.526,0.215,1.507-1.016,1.871-1.935
			c0.323-0.814,0.689-1.618,1.845-1.471c0.862,0.109,1.339-0.597,1.658-1.178c0.416-0.758-0.549-1.009-0.863-1.508
			c-0.638-1.013-1.757-0.482-2.61-0.792C177.016,178.856,176.066,179.534,176.06,183.017z M153.034,78.186
			c-1.89-0.654-2.628,0.69-2.974,2.05c-0.428,1.683-0.615,3.601,0.869,4.878c0.62,0.534,1.759,0.746,2.585-0.529
			c0.443-0.683,0.408-1.697,1.251-2.097c1.299-0.615,1.846-1.772,1.314-2.936C155.587,78.471,154.46,77.75,153.034,78.186z
			 M135.816,91.579c-1.349-1.628-0.591-4.661-3.367-5.981c-1.672-0.796-2.821-0.332-2.934,1.559
			c-0.055,0.914,2.853,6.016,3.641,6.389C134.548,94.203,135.823,93.43,135.816,91.579z M129.064,82.916
			c-0.189-0.684-0.338-1.285-0.521-1.875c-0.337-1.079-0.463-2.824-1.972-2.331c-1.645,0.539-3.634,0.921-4.566,2.809
			c-0.271,0.548,0.326,0.608,0.432,0.927c0.494,1.487,2.018,1.51,2.996,2.257c0.66,0.504,1.407,1.725,1.998,1.358
			C128.438,85.438,128.852,84.095,129.064,82.916z M206.735,95.061c-1.348-2.25-2.895-4.885-4.498-7.483
			c-0.616-1-1.956-1.085-2.541-0.598c-0.747,0.622-0.776,2.103,0.008,2.792c1.848,1.624,2.655,3.743,3.624,5.875
			c0.358,0.79,1.492,1.653,2.766,1.355C206.904,96.811,206.5,96.107,206.735,95.061z M156.236,119.594
			c-0.48-1.933-1.016-3.853-1.42-5.8c-0.239-1.149-1.106-1.153-1.936-1.407c-1.279-0.391-1.101,0.866-1.437,1.338
			c-1.47,2.063,0.345,6.886,2.807,7.494C155.394,121.502,156.652,121.473,156.236,119.594z M17.031,80.282
			c-0.013,1.623,2.45,4.19,4.156,4.055c1.145-0.09,2.067-1,2.105-2.21c0.079-2.528-1.56-4.923-3.212-4.975
			C18.371,77.098,17.045,78.459,17.031,80.282z M85.28,24.457c0.182,1.28,0.282,1.869,0.459,2.484
			c0.391,1.354,0.955,2.637,2.254,2.994c1.526,0.42,1.6-1.414,2.385-2.172c1.454-1.405,0.228-2.683-0.389-3.942
			c-0.54-1.102-1.55-2.116-2.655-1.826C86.045,22.333,85.042,23.458,85.28,24.457z M158.121,140.75
			c-0.003-2.764-1.974-5.132-4.176-4.879c-1.166,0.134-2.259,0.641-2.158,2.295c0.107,1.762,3.362,5.057,5.146,4.898
			C158.54,142.923,158.009,141.595,158.121,140.75z M260.533,76.666c1.361,0.059,2.849-2.445,2.758-4.968
			c-0.043-1.205-0.955-2.037-2.107-2.262c-1.184-0.231-4.09,2.345-4.146,3.502C256.977,74.211,259.225,76.609,260.533,76.666z
			 M195.457,118.001c-0.041,1.668,1.716,3.061,3.747,3.304c1.627,0.196,3.515-0.961,4.885,0.876
			c0.152,0.206,0.926,0.185,1.003-0.279c0.253-1.52-1.112-2.354-1.693-3.525c-0.328-0.662-1.05-1.428-1.969-0.821
			c-1.442,0.95-2.602,0.558-3.682-0.542c-0.491-0.5-0.995-0.826-1.683-0.425C195.505,116.915,195.385,117.45,195.457,118.001z
			 M198.439,111.521c-0.405,0.54-0.547,0.729-0.688,0.919c-0.545,0.733-0.641,1.576,0.058,2.144
			c0.623,0.507,1.375,1.212,2.333,0.719c0.913-0.471,0.77-1.429,0.604-2.154c-0.245-1.077-0.172-2.067,0.002-3.14
			c0.204-1.256-1.794-3.499-2.891-3.194c-1.159,0.321-2.413,0.839-2.421,2.509C195.427,111.217,196.369,111.865,198.439,111.521z
			 M136.303,68.324c-0.026,1.295,0.019,1.202,3.262,2.757c0.977,0.468,1.818,1.274,2.69,0.286c0.929-1.052,0.889-2.516,0.215-3.632
			c-0.865-1.433-2.099-2.758-4.062-2.176C137.146,65.932,136.201,66.791,136.303,68.324z M277.877,80.674
			c0.01,1.301,1.923,4.897,2.906,5.403c0.972,0.5,1.998,0.582,2.824-0.365c0.854-0.979,0.989-2.142,0.021-2.963
			c-0.981-0.832-1.743-1.736-2.244-2.887c-0.444-1.023-1.294-1.388-2.273-1.18C278.001,78.918,277.644,79.768,277.877,80.674z
			 M173.098,174.121c-1.672,0.002-3.761,2.774-3.851,4.636c-0.076,1.571,1.08,1.899,2.091,2.093
			c1.489,0.285,4.302-2.691,4.187-4.461C175.431,174.929,174.74,173.771,173.098,174.121z M38.633,116.425
			c-1.809-0.002-2.891,1.749-1.971,3.351c0.66,1.147,1.432,2.267,2.344,3.215c0.417,0.434,1.162,0.954,1.935,0.658
			c0.675-0.259,0.879-0.858,0.826-1.574c-0.035-0.473,0.112-0.915,0.253-1.385C42.662,118.544,40.934,116.427,38.633,116.425z
			 M63.138,50.506c2.669-0.042,3.069-1.486,3.091-2.865c0.036-2.234-1.79-4.481-3.369-4.417c-1.952,0.08-2.066,1.78-2.125,3.026
			C60.628,48.563,62.289,50.532,63.138,50.506z M76.024,50.076c-0.336-0.726-0.066-2.28-1.27-3.316
			c-0.89-0.766-1.615-1.729-3.07-1.297c-1.648,0.49-1.31,1.757-1.315,2.907c-0.009,1.971,2.097,2.238,2.922,3.558
			c0.403,0.645,1.052,1.226,1.893,0.715C75.886,52.216,76.387,51.569,76.024,50.076z M244.428,48.058
			c0.14-0.791,0.045-1.792-1.324-2.059c-1.167-0.228-1.757,0.378-2.208,1.407c-0.356,0.814-0.683,1.792-1.993,1.653
			c-0.759-0.08-1.906-0.445-1.758,1.112c0.107,1.123-0.42,2.503,1.339,2.856c1.229,0.247,1.411-0.916,2.04-1.474
			c0.232-0.206-0.405-1.007,0.566-0.753C243.509,51.434,244.396,50.769,244.428,48.058z M299.395,66.882
			c-1.037-0.599-0.278-2.513-2.057-2.309c-0.63,0.072-1.31-0.847-1.877,0.098c-0.47,0.779,0.18,6.273,0.58,7.182
			c0.623,1.411,1.696,1.106,2.565,0.723c0.915-0.403,1.432-1.355,0.994-2.421C299.165,69.093,298.049,68.163,299.395,66.882z
			 M55.395,43.717c-0.736,0.148-1.435,0.719-1.498,1.816c-0.064,1.12-0.074,2.25-0.001,3.369c0.081,1.222,0.601,2.25,1.904,2.534
			c1.588,0.346,1.876-1.079,2.394-2.028c0.237-0.435,0.241-1.04,0.388-1.57C59.056,46.125,57.228,43.615,55.395,43.717z
			 M166.192,172.668c1.304,0.32,1.79-0.812,1.96-1.729c0.271-1.457-3.168-4.673-4.848-4.521c-1.248,0.112-2.138,1.027-2.249,2.344
			C160.933,170.209,164.118,172.628,166.192,172.668z M156.678,104.978c0.217-1.398-1.113-1.918-1.886-2.749
			c-0.595-0.64-1.155-1.852-2.308-1.151c-1.103,0.67-1.922,1.643-1.652,3.165c0.207,1.169,2.726,4.079,3.653,3.825
			C155.881,107.684,156.649,106.597,156.678,104.978z M130.857,69.401c-0.81,0.931-3.028,0.311-3.253,2.407
			c-0.148,1.377,2.685,4.494,3.9,4.32c1.649-0.237,1.929-1.77,2.153-2.99C133.95,71.543,132.309,69.368,130.857,69.401z
			 M35.237,81.837c-0.62-1.527,0.187-3.345-1.207-4.696c-1.213-1.175-2.677-1.385-3.822-0.654c-1.093,0.699-0.784,2.031,0.117,3.108
			c0.794,0.95,1.586,1.971,2.062,3.095c0.478,1.128,1.279,0.746,1.977,0.727C35.447,83.387,34.658,82.12,35.237,81.837z
			 M93.159,41.76c-0.377-0.884-0.912-2.396-1.666-3.79c-0.341-0.631-0.997-1.43-1.95-0.96c-0.881,0.435-1.63,1.309-1.487,2.228
			c0.235,1.51,0.61,3.047,1.427,4.396c0.633,1.045,1.656,1.243,2.723,0.989C93.38,44.345,93.136,43.309,93.159,41.76z
			 M144.545,166.401c0.027-2.004-2.034-4.373-3.82-4.4c-1.532-0.024-2.143,1.181-2.307,2.264c-0.274,1.816,1.972,4.03,3.85,4.02
			C143.472,168.277,144.734,168.171,144.545,166.401z M83.95,33.95c0.024-1.366-2.35-3.463-4.908-3.579
			c-0.875-0.039-1.375,0.625-1.394,1.513c-0.039,1.815,2.481,4.971,3.992,5.022C83.25,36.959,83.975,36.129,83.95,33.95z
			 M216.812,136.771c0.182,0.976-0.628,2.449,0.885,2.849c1.563,0.413,2.186-1.229,2.372-2.128c0.247-1.189,1.005-1.725,1.626-2.512
			c0.713-0.903,0.7-1.876-0.067-2.797c-0.501-0.602-1.326-1.183-1.798-0.516C218.695,133.27,215.954,133.97,216.812,136.771z
			 M238.605,20.819c-0.01-0.608-0.05-1.082-0.438-1.597c-1.038-1.372-1.885-2.889-2.911-4.271c-0.398-0.537-0.838-1.405-1.618-1.226
			c-0.631,0.145-1.241,0.722-1.319,1.524c-0.087,0.9,0.159,1.745,0.951,2.214c0.36,0.214,1.123,0.047,0.934,0.717
			c-0.512,1.812,1.198,2.314,1.813,3.451c0.495,0.917,1.132,0.816,1.752,0.664C238.452,22.128,238.71,21.487,238.605,20.819z
			 M309.412,67.134c0.471-1.451-1.07-2.12-1.203-3.336c-0.031-0.287-1.058-1.149-1.946-0.265c-1.307,1.299-2.14,2.913-3.104,4.429
			c-0.263,0.413-0.39,1.442,0.208,1.771c0.68,0.374,1.475,0.348,1.875-0.726c0.246-0.656,1.034-0.842,1.642-0.393
			C309.095,70.254,309.08,68.414,309.412,67.134z M26.237,73.093c0.194-1.446-1.23-2.136-1.471-3.395
			c-0.342-1.786-1.524-1.579-2.623-0.768c-2.512,1.854-2.21,3.797,1.006,5.696c0.46,0.272,0.932,1.301,1.672,0.722
			C25.529,74.794,26.469,74.25,26.237,73.093z M168.854,34.546c-0.03-0.833,0.03-1.785-0.995-1.938
			c-0.97-0.146-1.833,0.364-2.387,1.213c-0.229,0.351,0.008,0.826-0.562,1.166c-1.819,1.08-2.057,3.194-0.409,4.444
			c0.926,0.701,2.883,0.88,3.015-0.268C167.708,37.491,168.532,36.106,168.854,34.546z M71.815,57.638
			c0-0.479,0.076-0.974-0.015-1.435c-0.25-1.27-1.05-2.145-2.322-2.289c-1.142-0.13-2.599-0.425-3.164,0.954
			c-0.456,1.112,0.124,2.204,1.037,3.032c0.414,0.375,0.816,0.768,1.18,1.19c0.654,0.758,1.396,1.426,2.448,1.036
			C72.181,59.681,71.74,58.541,71.815,57.638z M142.583,102.583c-0.174-1.06,0.626-2.894-1.632-2.527
			c-1.307,0.212-3.686,3.701-3.671,5.036c0.012,1.11,1.968,2.664,2.572,1.991C141.012,105.794,143.334,105.093,142.583,102.583z
			 M198.853,91.97c-0.055-1.507-2.787-4.11-4.135-4.163c-2-0.08-2.36,1.511-2.416,2.793c-0.054,1.23,0.62,2.62,2.392,1.96
			c0.83-0.31,1.332,0.094,1.826,0.487c0.53,0.422,0.999,0.817,1.681,0.452C198.872,93.14,198.904,92.492,198.853,91.97z
			 M200.89,128.536c1.06,0.029,3.306-2.385,3.264-3.696c-0.053-1.633-1.275-2.453-2.599-3.048c-0.433-0.194-3.147,3.504-3.191,4.258
			C198.261,127.841,199.656,128.106,200.89,128.536z M272.071,35.816c-0.044,0.886-0.021,1.583,0.882,2.084
			c0.906,0.504,1.608,0.291,2.354-0.169c0.669-0.413,1.269-0.975,1.982-1.27c1.762-0.727,1.223-2.214,0.866-3.26
			c-0.443-1.303-1.471-0.308-2.126,0.046c-0.635,0.342-1.274,0.11-1.865,0.292C273.022,33.894,271.764,34.215,272.071,35.816z
			 M33.999,90.395c0-0.515,0.096-0.875-0.016-1.151c-0.543-1.333-0.812-2.978-2.817-2.877c-2.322,0.116-1.317,1.917-1.516,3.079
			c-0.174,1.019,0.715,1.744,0.893,2.631c0.393,1.967,1.589,1.214,2.427,0.694C33.795,92.259,34.393,91.353,33.999,90.395z
			 M173.462,186.484c-0.452-1.345-0.605-3.101-2.662-3.133c-1.919-0.029-2.563,1.555-3.185,2.935
			c-0.344,0.764,2.606,2.946,3.832,2.848C173.001,189.009,173.023,187.584,173.462,186.484z M66.812,62.896
			c0.538-2.38-1.095-2.983-1.91-4.081c-0.451-0.608-0.669-1.458-1.75-0.876c-0.865,0.465-1.538,0.83-1.564,2.069
			c-0.046,2.134,1.614,2.5,2.84,3.523c0.806,0.672,1.475,0.573,2.103,0.439C67.353,63.797,66.815,62.886,66.812,62.896z
			 M287.09,68.549c0.012-1.946-2.346-3.622-4.741-3.262c-0.87,0.131-2.227,0.153-2.045,1.739c0.138,1.21,0.806,1.858,2.021,1.875
			c0.874,0.012,1.764-0.112,2.371,0.749c0.399,0.568,0.979,0.935,1.642,0.649C287.107,69.966,287.176,69.207,287.09,68.549z
			 M210.229,31.085c1.644,0.016,2.797-1.583,1.886-2.865c-0.584-0.821-0.632-1.566-0.669-2.434
			c-0.034-0.792-0.201-1.666-1.026-1.903c-0.628-0.181-1.488-0.344-2.015,0.347c-0.588,0.771-0.556,1.702-0.079,2.458
			c0.385,0.611,0.908,0.888,0.262,1.778C207.779,29.578,208.815,31.071,210.229,31.085z M153.77,149.371
			c0,0.296-0.174,0.878,0.037,1.231c0.425,0.717,0.707,1.778,1.833,1.675c0.816-0.075,2.11,0.546,2.367-0.403
			c0.448-1.658-0.037-3.405-0.736-4.974c-0.396-0.888-1.407-1.251-2.233-0.804C153.893,146.717,153.682,147.944,153.77,149.371z
			 M321.065,59.34c-0.229-1.728-1.117-3.171-2.792-3.265c-0.76-0.042-2.446,0.4-2.559,1.959c-0.082,1.139,2.141,4.215,2.947,4.061
			C320.133,61.814,321.022,60.92,321.065,59.34z M366.604,95.818c0.087-1.386-0.698-2.181-1.88-2.63
			c-0.345-0.13-0.891-0.587-1.155,0.185c-0.604,1.764-1.296,3.503-1.773,5.301c-0.228,0.859-0.029,1.862,1.312,1.572
			C364.503,99.944,366.599,97.229,366.604,95.818z M363.691,89.765c0-0.885,0.11-1.789-0.027-2.653
			c-0.174-1.085-0.998-2.073-1.967-2.066c-0.891,0.006-1.369,1.007-1.438,2.131c-0.107,1.73,0.414,3.248,0.999,4.805
			c0.33,0.879,0.566,1.033,1.672,0.923c1.533-0.152,0.538-1.017,0.722-1.466C363.85,90.956,363.696,90.329,363.691,89.765z
			 M272.519,72.239c0.042-0.851,0.038-1.327-0.363-1.507c-1.77-0.798-3.517-1.691-5.362-2.254c-1.316-0.402-1.118,0.801-0.962,1.531
			c0.353,1.649,3.055,3.751,4.746,3.739C271.827,73.737,272.404,72.972,272.519,72.239z M275.738,66.496
			c-0.56,0.205-1.533,0.143-1.729,1.241c-0.354,1.991,0.54,3.528,1.944,4.772c0.624,0.553,1.653,0.538,2.216,0.053
			c0.456-0.394,0.932-1.136,0.29-2.056c-0.551-0.789-0.729-1.855-0.997-2.819C277.24,66.888,276.816,66.442,275.738,66.496z
			 M37.034,73.773c1.372-0.018,2.471-0.623,2.239-2.075c-0.264-1.654-1.057-3.139-3.112-3.28c-1.346-0.092-2.144,0.827-2.454,1.8
			C33.35,71.335,35.84,73.784,37.034,73.773z M23.656,94.6c-1.713-0.23-2.628,1.224-2.621,2.395
			c0.015,2.518,2.199,2.329,4.041,2.586c1.588,0.221,1.396-1.082,1.572-1.718C26.976,96.675,25.053,94.689,23.656,94.6z
			 M151.292,170.083c-0.17-0.805-0.535-2.253-2.2-2.708c-0.674-0.184-2.751,2.849-2.546,3.826c0.273,1.305,1.391,2.338,2.525,2.321
			C150.448,173.501,151.436,172.396,151.292,170.083z M141.96,96.095c1.296,0.088,2.287-0.322,2.524-1.628
			c0.142-0.783-2.698-3.673-3.443-3.746c-1.558-0.152-1.835,0.697-1.858,2.039C139.148,94.776,140.054,95.826,141.96,96.095z
			 M346.265,10.585c0.145-0.885-0.236-1.726-0.803-2.14c-0.674-0.491-1.374,0.027-1.633,0.824c-0.129,0.398-0.381,0.482-0.702,0.473
			c-1.013-0.031-1.838,0.243-1.71,1.438c0.152,1.428,0.666,2.718,1.889,3.638c0.417,0.313,0.549-0.039,0.74-0.204
			C345.285,13.546,345.92,12.14,346.265,10.585z M274.483,85.699c0.078-1.781-0.531-2.791-2.297-2.724
			c-1.729,0.065-3.03,1.06-2.941,2.679c0.115,2.102,2.308,1.801,3.687,2.094C274.623,88.108,274.495,86.655,274.483,85.699z
			 M331.212,15.136c0.016,1.795,0.896,2.928,2.373,2.842c1.834-0.106,1.95-1.543,1.979-2.917c0.034-1.605-1.941-3.468-3.508-2.934
			C331.427,12.342,331.124,13.999,331.212,15.136z M251.13,94.647c-1.318-0.175-2.823-0.177-2.694,1.402
			c0.108,1.331,0.514,2.978,2.689,2.97c1.871-0.008,2.879-1.18,2.827-2.521C253.909,95.354,252.791,94.058,251.13,94.647z
			 M207.962,119.438c0.587,0.101,0.439-2.078,1.977-1.604c0.89,0.275,1.578-0.316,1.499-1.342c-0.104-1.353-0.898-2.372-2.107-2.803
			c-1.138-0.406-1.309,0.595-1.252,1.413c0.086,1.247-1.094,0.604-1.51,1.101c-0.456,0.543-1.232,0.987-0.867,1.808
			C205.982,118.644,206.476,119.231,207.962,119.438z M292.499,80.566c-1.118-0.147-2.144,0.026-2.015,1.678
			c0.119,1.544,0.959,2.614,2.47,2.603c1.346-0.01,2.849-0.687,2.776-2.261C295.653,80.901,294.221,80.415,292.499,80.566z
			 M314.24,61.404c-0.095-0.54,0.181-1.182-0.289-1.763c-0.611-0.757-1.566-1.374-2.24-0.808c-1.17,0.982-1.474,2.61-1.776,4.068
			c-0.172,0.831,0.609,1.135,1.435,1.169C313.207,64.147,314.334,63.5,314.24,61.404z M240.083,55.822
			c-0.462,1.599,0.632,2.203,2.124,1.948c1.37-0.234,2.196-1.26,2.225-2.779c0.021-1.131-0.017-2.201-1.571-2.071
			C241.254,53.054,239.875,53.499,240.083,55.822z M161.896,180.909c-1.302-0.062-2.249,0.684-2.317,1.825
			c-0.068,1.156,1.925,3.148,3.169,2.975c0.77-0.107,1.801-0.289,1.988-1.274C164.978,183.164,163.118,180.969,161.896,180.909z
			 M289.379,65.09c-0.99,0.489-2.074,0.812-1.805,2.199c0.366,1.877,2.076,2.142,3.421,2.507c1.109,0.301,1.864-0.668,1.903-1.886
			C292.928,67,290.365,65.04,289.379,65.09z M269.166,74.747c-0.669,0.464-2.025,0.4-1.934,1.822
			c0.124,1.937,1.814,2.433,3.209,2.948c1.039,0.384,1.818-0.486,2.063-1.489C272.75,77.022,270.544,74.839,269.166,74.747z
			 M171.645,42.483c0-0.522,0.172-1.229-0.041-1.791c-0.314-0.832-0.948-1.455-2.012-1.366c-0.891,0.074-1.282,0.537-1.287,1.391
			c-0.004,0.563-0.009,1.126-0.001,1.689c0.02,1.596,0.995,3.17,1.904,2.976C171.739,45.055,171.865,43.887,171.645,42.483z
			 M207.617,30.487c-0.205-1.034-0.986-2.284-2.276-2.199c-1.498,0.099-2.386,1.586-2.533,3c-0.118,1.118,0.836,1.833,2.06,1.73
			C206.236,32.903,207.567,32.662,207.617,30.487z M300.251,79.665c-0.29,1.384,0.178,2.303,1.261,2.718
			c0.535,0.205,1.663,0.173,1.784-0.09c0.46-1.002,0.562-2.087-0.286-3.104c-0.448-0.538-1.002-1.107-0.695-2.072
			c0.248-0.784-0.583-1.302-1.2-1.327c-0.737-0.03-0.906,0.691-0.949,1.398C300.112,78.081,300.753,78.966,300.251,79.665z
			 M152.303,93.796c0-1.458-1.906-4.236-2.64-3.872c-0.75,0.373-2.057,0.736-1.719,2.138c0.379,1.576,1.039,3.075,2.815,3.277
			C151.42,95.414,152.826,95.127,152.303,93.796z M259.178,100.9c1.367,0.228,1.736-0.56,1.761-1.948
			c0.036-2.014-1.3-2.257-2.766-2.398c-1.477-0.143-1.639,0.798-1.646,1.976C256.519,100.257,257.343,100.995,259.178,100.9z
			 M199.542,101.876c-1.188,0.022-1.488,1.196-1.606,2.113c-0.301,2.336,2.052,1.921,3.216,2.666c0.68,0.435,1.512-0.165,1.58-1.225
			C202.815,104.126,201.038,101.987,199.542,101.876z M256.021,78.687c-1.992-0.236-2.389,0.464-2.414,1.773
			c-0.03,1.636,0.832,2.736,2.212,2.895c1.083,0.124,2.072-0.961,2.136-2.154C258.04,79.586,256.837,78.925,256.021,78.687z
			 M340.373,8.143c0.474-1.556-0.928-3.169-1.572-2.988c-1.555,0.439-1.948,2.287-2.241,3.848c-0.25,1.332,0.837,1.75,1.718,1.654
			C339.574,10.513,340.797,9.924,340.373,8.143z M171.219,32.506c-0.265,1.51,0.823,2.235,1.885,2.918
			c0.378,0.243,0.808,0.562,1.385-0.017c1.036-1.038,0.493-1.996,0.128-3.014c-0.025-0.071-0.006-0.158-0.01-0.237
			c-0.049-1.195-0.658-2.096-1.847-1.965C171.635,30.316,171.074,31.257,171.219,32.506z M339.938,75.166
			c0.021,1.326,1.869,3.664,2.635,3.328c0.988-0.434,1.614-1.824,1.472-2.481c-0.252-1.158-0.471-2.859-2.506-2.771
			C340.035,73.306,339.851,74.133,339.938,75.166z M198.1,30.581c-1.896,0.078-1.659,1.251-1.675,2.271
			c-0.029,1.766,1.321,2.346,2.611,2.457c0.629,0.054,2.182-0.175,1.759-1.786C200.377,31.934,199.321,31.044,198.1,30.581z
			 M179.065,40.809c1.526-0.034,2.416-0.711,2.28-2.015c-0.153-1.463-1.116-2.326-2.706-2.38c-1.494-0.05-1.616,0.849-1.626,2.01
			C176.999,40,177.723,40.756,179.065,40.809z M250.703,89.123c0.3,1.393,0.968,2.548,2.59,2.537
			c1.062-0.007,1.823-0.717,1.775-1.858c-0.067-1.613-1.344-2.465-2.611-2.703C251.598,86.938,250.461,87.668,250.703,89.123z
			 M339.599,13.632c-1.557-0.047-2.454,0.503-2.542,1.829c-0.097,1.454,0.766,2.45,2.156,2.477c1.268,0.023,2.111-0.907,2.16-2.24
			C341.422,14.361,340.625,13.717,339.599,13.632z M254.885,9.749c-1.039,0.108-1.219,1.09-1.221,2.009
			c-0.005,1.705,1.194,2.54,2.661,2.661c0.83,0.068,1.744-0.967,1.565-1.707C257.559,11.334,257.012,9.812,254.885,9.749z
			 M138.115,147.62c-0.046-1.073-1.671-2.549-2.905-2.397c-0.768,0.095-1.742,0.336-1.805,1.463
			c-0.056,0.988,1.882,3.112,2.805,3.006C137.394,149.555,137.915,148.712,138.115,147.62z M296.211,26.727
			c1.574,0.442,2.271-1.598,2.208-2.043c-0.219-1.536-1.938-1.825-3.194-2.249c-0.947-0.32-1.569,0.584-1.296,1.459
			C294.28,25.021,293.934,26.83,296.211,26.727z M256.965,40.302c-1.791,0.007-1.974,0.145-2.055,1.391
			c-0.054,0.818,2.235,3.229,2.912,2.923c0.91-0.41,1.722-1.285,1.562-2.308C259.179,40.995,258.478,39.868,256.965,40.302z
			 M172.182,40.794c-0.108,1.626,0.846,2.63,2.25,2.825c1.133,0.157,1.685-1.277,1.5-1.976c-0.302-1.139-0.408-2.809-2.312-2.799
			C172.229,38.851,172.125,39.75,172.182,40.794z M266.777,95.814c-0.14-1.453-1.004-2.562-2.289-2.574
			c-1.697-0.015-1.041,1.594-1.143,2.586c-0.124,1.206-0.005,2.21,1.666,2.2C266.668,98.016,266.517,96.814,266.777,95.814z
			 M322.986,76.51c-0.265-1.571-1.178-2.656-2.467-2.623c-1.048,0.027-1.507,1.383-1.378,2.409c0.13,1.036,0.353,2.265,1.87,2.309
			C322.601,78.652,322.496,77.256,322.986,76.51z M272.999,29.875c-0.442-0.603-0.165-2.216-2.049-2.189
			c-0.98,0.014-1.995,0.184-1.739,1.355c0.282,1.292,0.599,2.858,2.402,3.002C272.812,32.139,273.094,31.337,272.999,29.875z
			 M270.607,91.359c0.405-1.442-0.59-2.362-1.931-2.45c-0.938-0.061-1.505,0.959-1.482,2.096c0.027,1.455,0.939,2.336,2.099,2.55
			C270.7,93.816,270.603,92.535,270.607,91.359z M354.924,98.817c0.291-1.672-0.531-2.748-1.802-2.969
			c-0.772-0.134-1.733,0.661-1.562,1.938c0.208,1.538,0.989,2.509,2.543,2.611C355.566,100.494,354.714,99.258,354.924,98.817z
			 M224.506,129.646c-0.162-1.804-1.439-2.257-2.847-2.215c-0.709,0.021-1.001,0.835-0.997,1.608
			c0.008,1.558,1.311,2.049,2.346,2.291C223.813,131.52,224.483,130.587,224.506,129.646z M287.848,85.408
			c0.658-0.038,1.27-0.438,1.168-1.441c-0.122-1.194-0.783-2.41-1.763-2.688c-0.635-0.181-2.194,0.693-1.979,1.841
			C285.464,84.141,286.08,85.381,287.848,85.408z M145.248,131.464c-1.253-0.341-1.578,0.771-1.604,1.631
			c-0.031,1.019,0.699,1.72,1.854,1.755c1.055,0.031,1.97-0.725,1.809-1.45C147.142,132.654,146.798,131.323,145.248,131.464z
			 M188.669,28.468c-0.018,0.63-0.036,1.428,0.753,1.431c0.83,0.003,1.468-0.737,1.462-1.509c-0.003-0.555-0.327-1.283-1.34-1.214
			C188.519,27.247,188.675,27.851,188.669,28.468z"/>
		<path style="fill-rule:evenodd;clip-rule:evenodd;fill:#7B491E;" d="M353.295,168.711c-4.95,0.494-9.884,0.977-14.734,2.175
			c-2.538,0.627-5.159,1.013-7.802,0.8c-2.099-0.17-2.817-1.447-1.79-3.288c0.768-1.377-0.165-2.005-1.05-1.75
			c-1.025,0.296-2.063-0.101-3.041,0.425c-1.496,0.805-2.428-0.062-2.216-1.432c0.195-1.267-0.583-0.697-0.884-0.703
			c-1.674-0.036-1.833-1.1-2.302-2.455c-0.803-2.319,0.776-4.738-0.781-7.027c-0.733-1.078,0.905-1.851,1.62-2.651
			c0.636-0.714,1.579-1.326,1.142-2.435c-0.404-1.025-1.406-0.31-2.118-0.486c-2.35-0.582-4.709-1.123-7.055-1.72
			c-0.86-0.219-1.643-0.661-2.604-0.262c-0.503,0.209-1.429,0.092-1.458-0.469c-0.119-2.257-2.08-1.8-3.294-2.37
			c-1.852-0.87-4.086-0.242-5.914-1.437c-0.367-0.24-1.271-0.157-1.611,0.14c-2.334,2.023-5.113,1.865-7.88,1.738
			c-3.515-0.16-6.633,1.712-10.156,1.763c-5.13,0.075-10.151,0.855-14.857-2.485c-2.037-1.446-4.031-3.234-6.846-3.88
			c-1.439-0.329-2.861-2.982-3.286-4.818c-0.369-1.596,1.861-1.936,3.196-2.528c0.712-0.315,2.172,0.327,1.882-1.404
			c-0.24-1.428-1.307-1.193-2.239-1.171c-1.928,0.047-3.269-0.74-3.549-2.704c-0.257-1.809,0.559-3.038,2.448-3.408
			c0.383-0.074,1.009-0.091,1.098-0.308c1.637-4.004,5.726-3.896,8.868-5.365c0.842-0.394,1.688-0.772,2.509-1.229
			c0.846-0.472,1.729-1.654,3.136-0.43c0.45,0.392,2.184-0.165,2.955-0.768c2.247-1.754,5.104-2.274,7.379-4.045
			c1.548-1.204,3.695-1.16,5.578,0.058c0.616,0.397,1.374,1.159,2.153,0.594c4.094-2.966,7.933-0.425,11.897,0.358
			c2.342,0.462,3.521,1.852,4.237,3.889c0.189,0.539,0.297,1.043,0.161,1.727c-0.26,1.31,0.169,2.117,1.908,2.527
			c2.417,0.569,4.456,0.851,6.456-0.926c0.37-0.329,1.402-0.36,1.851-0.081c3.435,2.136,6.678,0.435,9.719-0.723
			c2.779-1.059,5.554-2.034,8.431-2.748c1.231-0.306,2.442-0.248,3.519,0.485c1.248,0.85,2.508,1.044,3.948,0.482
			c1.976-0.771,1.752,1.18,2.354,2.058c0.264,0.385-0.314,1.178,0.599,1.325c0.682,0.11,1.037-0.362,1.411-0.767
			c2.012-2.175,2.959-2.192,5.125-0.122c1.248,1.192,2.173,2.928,4.434,2.418c0.473-0.106,1.553,0.45,1.594,0.792
			c0.256,2.139,1.794,2.548,3.448,3.119c0.559,0.192,1.104,1.025,0.431,2.142c-1.719,2.849-1.415,3.277,1.729,4.091
			c1.578,0.408,3.211,0.739,4.587,1.721c0.128,0.091,0.292,0.193,0.438,0.19c4.074-0.081,7.552,2.238,11.423,2.855
			c3.243,0.517,5.755,2.302,6.472,5.464c0.19,0.838,0.555,1.22,1.286,1.495c1.317,0.496,2.337,1.487,3.068,2.589
			c0.855,1.288,1.297,3.188-0.316,3.968c-2.954,1.427-5.093,3.983-7.942,5.397c-5.406,2.682-10.577,5.949-16.738,6.93
			c-1.507,0.239-2.862,1.49-4.268,2.31C358.648,167.741,356.044,168.484,353.295,168.711z M345.288,136.277
			c-3.559-0.647-3.812-0.76-4.267-2.13c-0.813-2.449-3.097-4.046-5.705-4.177c-1.076-0.055-2.205,0.671-3.185,0.019
			c-2.535-1.688-5.109-0.704-7.402,0.195c-2.041,0.801-4.712,0.093-6.157,2.48c-0.718,1.188-1.663,2.214-3.303,2.22
			c-1.017,0.003-1.18,1.084-1.413,1.729c-0.301,0.832,0.84,0.986,1.243,1.054c1.101,0.183,1.591,0.798,2.106,1.682
			c0.706,1.208,1.697,2.018,3.325,1.826c3.171-0.371,6.396-0.951,9.545-0.435c3.038,0.498,5.803,0.281,8.831-0.382
			C341.788,139.728,343.12,137.573,345.288,136.277z M285.104,121.23c-1.402-0.314-2.256,1.179-3.621,1.028
			c-2.927-0.324-5.238,1.409-7.709,2.523c-1.029,0.464-1.708,1.544-1.656,2.701c0.049,1.085,0.949,1.61,1.937,2.067
			c2.447,1.135,4.533,2.69,6.351,4.797c1.271,1.473,3.671,2.128,5.445,1.709c2.055-0.485,4.124-0.82,6.182-1.255
			c0.881-0.187,2.04-0.048,2.508-1.296c0.531-1.416,1.625-2.159,3.118-2.593c1.543-0.447,1.929-1.921,0.733-2.819
			c-2.484-1.869-6.052-2.338-7.295-5.792C288.986,122.577,287.07,121.718,285.104,121.23z M362.347,153.76
			c0.233-0.907-0.772-1.378-1.829-1.412c-1.714-0.056-3.087-1.055-4.691-1.394c-3.401-0.718-6.4-3.057-10.117-2.528
			c-1.224,0.174-2.316-0.126-2.79-1.305c-0.306-0.759-0.963-1.005-1.396-0.901c-2.048,0.49-5.276,5.886-4.986,8.093
			c0.054,0.406,0.041,0.828,0.439,1.052c1.877,1.053,3.44,2.684,5.824,2.789c1.955,0.086,4.185-0.053,5.77,0.838
			c1.676,0.941,2.834,0.686,4.23,0.013c2.791-1.346,5.311-3.386,8.646-3.313C362.538,155.715,362.148,154.866,362.347,153.76z"/>
		<path style="fill-rule:evenodd;clip-rule:evenodd;fill:#7B491E;" d="M96.061,97.919c0.583,2.922-0.445,5.545-3.841,7.208
			c-0.75,0.366-2.06,0.848-2.007,2.329c0.051,1.44,3.367,3.49,5.144,3.051c5.304-1.31,7.062-0.704,9.898,3.479
			c0.444,0.654,0.658,1.289,0.161,2.185c-0.808,1.455-0.122,2.265,1.505,2.187c3.727-0.181,6.225,2.788,9.525,3.697
			c0.185,0.051,0.381,0.343,0.43,0.557c0.37,1.602,1.05,2.866,2.376,4.04c1.251,1.108,0.305,3.184-1.598,3.797
			c-1.351,0.437-2.669,1.062-3.844,1.701c-1.443,0.784-3.204,1.695-3.294,3.979c-0.034,0.872-0.842,1.909-1.585,2.523
			c-2.564,2.117-4.083,5.104-6.405,7.404c-0.411,0.408-0.68,0.828-0.661,1.465c0.078,2.598-1.373,4.443-3.286,5.874
			c-1.612,1.206-2.827,2.59-3.914,4.315c-2.292,3.639-5.99,5.543-10.109,6.085c-3.157,0.415-6.086,1.479-9.125,2.212
			c-2.192,0.528-4.402,0.935-6.573,1.685c-2.467,0.851-4.636-0.702-6.227-2.584c-1.265-1.497-1.937-3.39-2.413-5.292
			c-0.14-0.56-0.201-1.233,0.326-1.813c3.143-3.471,6.617-6.563,10.607-9.01c0.927-0.568,1.654-1.277,2.313-2.037
			c0.705-0.812-2.457-6.338-3.579-6.262c-1.807,0.124-2.852-0.857-3.864-2.144c-0.59-0.751-0.774-1.524-0.274-2.189
			c1.688-2.248-0.104-2.904-1.62-3.387c-2.966-0.942-3.952-2.67-3.052-5.675c0.393-1.31,0.951-2.543-0.234-3.991
			c-0.55-0.672-0.598-2.287,0.384-3.348c1.687-1.819-0.038-2.417-1.229-2.487c-2.724-0.162-3.345-1.671-3.226-3.987
			c0.032-0.62,0.287-1.386-0.222-1.858c-1.828-1.696-1.832-3.461-0.781-5.645c0.945-1.965,1.759-3.736,4.075-4.517
			c1.689-0.568,1-1.882,0.016-2.513c-2.276-1.457-3.414-3.173-3.164-6.076c0.206-2.397,0.38-4.674,1.567-6.825
			c0.888-1.608-0.04-4.282,1.882-5.059c2.47-0.998,3.821-2.996,5.43-4.719c3.821-4.09,8.64-6.438,13.725-8.292
			c4.958-1.808,5.008-1.665,8.04,2.904c0.963,1.451,2.077,2.824,2.868,4.363c1.022,1.989,1.607,4.047,0.062,6.191
			c-1.349,1.872-0.466,4.489-1.94,6.407c-0.551,0.717-1.096,1.378-1.992,1.091c-0.763-0.244-1.075,0.096-1.326,0.6
			c-0.224,0.449-0.149,0.93,0.264,1.312c0.479,0.444,0.941,0.307,1.533,0.187c1.378-0.28,2.37-1.349,3.951-1.388
			c2.255-0.056,5.181,1.973,5.292,4.282C96.105,95.061,96.061,96.193,96.061,97.919z M89.629,145.032
			c-0.161,0-0.329-0.029-0.481,0.006c-0.304,0.069-0.605,0.159-0.897,0.267c-5.108,1.885-9.457,4.785-12.677,9.275
			c-0.818,1.141,0.2,1.484,0.705,1.854c1.039,0.758,7.172-0.188,8.342-0.601c3.622-1.273,4.146-5.225,6.724-7.364
			c0.77-0.639,0.482-1.744,0.254-2.494C91.385,145.277,90.467,144.988,89.629,145.032z M94.297,126.162
			c-2.633-0.516-3.831,1.908-5.789,2.743c-1.347,0.573-1.33,1.543-1.131,2.53c0.778,3.858,0.908,3.921,4.937,3.898
			c0.966-0.006,1.935-0.048,2.897,0.014c0.789,0.049,1.417-0.152,1.873-0.8c0.863-1.229,3.013-1.341,3.223-2.804
			c0.223-1.553-2.074-2.038-2.495-3.573c-0.074-0.271-0.521-0.427-0.637-0.702C96.608,126.121,95.559,125.891,94.297,126.162z
			 M70.752,90.727c4.188-0.065,7.821-3.66,7.818-7.732c-0.002-2.265-1.836-4.283-3.193-3.392c-2.64,1.734-5.948,3.098-5.497,7.229
			c0.07,0.641-0.413,0.981-0.675,1.461C68.306,89.938,68.863,90.756,70.752,90.727z M80.896,126.147
			c2.975,0.038,4.827-1.573,6.527-3.331c0.951-0.984,0.269-2.14-0.666-2.434c-2.029-0.639-3.856-1.567-5.677-2.632
			c-1.303-0.763-2.65-0.943-2.493,1.394c0.103,1.522-0.096,3.07,0.055,4.585C78.783,125.138,79.286,126.434,80.896,126.147z
			 M77.038,108.895c1.894-2.246,4.685-3.026,6.85-4.797c0.749-0.612,0.445-1.366,0.376-2.181c-0.155-1.839-2.062-2.245-2.706-3.633
			c-0.988-2.129-2.232-0.84-2.543,0.155C77.991,101.722,75.578,104.752,77.038,108.895z"/>
		<path style="fill-rule:evenodd;clip-rule:evenodd;fill:#7B491E;" d="M48.917,66.932c-1.303-0.687-1.879-1.897-2.536-2.941
			c-0.658-1.046-1.829-2.191-0.386-3.704c0.451-0.473,0.177-1.557-0.414-2.415c-1.625-2.356-1.254-3.32,1.099-5.036
			c0.667-0.486,1.286-1.284,1.411-2.331c0.182-1.512,1.121-2.582,2.699-2.388c1.65,0.203,1.589,1.62,1.676,2.961
			c0.09,1.398-0.413,2.655-0.676,3.95c-0.122,0.594-0.21,2.02-1.802,1.385c-0.514-0.205-1,3.55-0.269,4.09
			c0.964,0.713,1.854,1.47,3.354,0.679c2.39-1.26,5.628,0.291,6.088,2.656c0.226,1.159-3.296,3.93-4.519,3.527
			c-0.439-0.145-0.899-0.352-1.237-0.656c-0.825-0.743-1.569-2.023-2.598-1.905C50.088,64.887,49.512,66.213,48.917,66.932z"/>
		<path style="fill-rule:evenodd;clip-rule:evenodd;fill:#7B491E;" d="M312.42,22.102c-0.088,4.474-1.15,4.357-4.205,5.015
			c-1.188,0.255-2.037,0.627-2.852,1.435c-1.821,1.806-3.242,1.508-4.743-0.616c-1.596-2.258-1.479-4.748-1.387-7.266
			c0.033-0.896,0.688-1.43,1.485-1.667c1.146-0.342,1.735,0.546,2.412,1.224c0.645,0.645,0.453,1.165,0.018,1.894
			c-1.068,1.789-0.739,2.403,1.346,2.321c1.69-0.066,3.196-0.931,4.381-2.1c0.9-0.889,0.659-2.093-0.016-3.056
			c-1.034-1.478-1.801-2.865,0.142-4.205c2.132-1.472,3.528,0.375,3.967,1.625c0.505,1.437,1.549,1.576,2.217,1.425
			c1.695-0.381,2.13,0.683,2.389,1.764c0.296,1.238-0.854,1.93-1.709,2.334C314.88,22.695,313.696,23.285,312.42,22.102z"/>
		<path style="fill-rule:evenodd;clip-rule:evenodd;fill:#7B491E;" d="M94.607,34.106c0-0.323-0.139-0.764,0.021-0.952
			c2.475-2.919-0.59-4.618-1.565-6.681c-0.614-1.299-0.549-2.48,0.229-3.279c0.725-0.744,1.825-1.034,3.063-0.02
			c1.396,1.144,3.682,0.436,5.091,2.068c0.847,0.981,1.925,1.654,0.984,3.164c-0.575,0.923-1.076,1.536-2.038,0.455
			c-0.697-0.785-1.383-0.986-2.235-0.132c-0.782,0.783-0.853,1.411-0.066,2.251c0.725,0.774,0.976,1.772,0.899,2.867
			c-0.045,0.655-0.203,1.297,0.728,1.768c1.862,0.942,1.273,2.812,1.074,4.309c-0.148,1.119-1.453,1.188-2.147,0.685
			C96.452,39.018,94.707,37.044,94.607,34.106z"/>
		<path style="fill-rule:evenodd;clip-rule:evenodd;fill:#7B491E;" d="M197.149,96.412c1.727-0.888,3.394-1.736,4.623,0.661
			c0.06,0.116,0.153,0.257,0.264,0.299c4.128,1.588,4.577,2.262,3.726,6.072c-0.144,0.644,0.112,1.01,0.476,1.183
			c1.685,0.801,1.437,2.254,1.274,3.638c-0.053,0.45-0.327,0.866,0.054,1.27c2.133,2.251-0.05,3.307-1.317,4.532
			c-0.55,0.531-1.191,1.133-2.14,0.174c-0.832-0.844-1.114-1.648-0.32-2.395c1.83-1.718,1.381-3.264-0.069-4.858
			c-0.322-0.355-0.662-0.63-0.292-1.217c0.609-0.969,0.313-1.816-0.542-2.53c-0.365-0.304-0.589-0.674-0.665-1.212
			c-0.165-1.17,0.823-3.076-1.544-3.022c-1.188,0.027-2.331-0.838-3.596,0.032c-0.819,0.562-4.381-1.017-4.445-1.95
			c-0.059-0.873-0.714-2.014,0.742-2.663c1.29-0.575,2.34-0.789,3.171,0.571C196.82,95.444,196.965,95.971,197.149,96.412z"/>
		<path style="fill-rule:evenodd;clip-rule:evenodd;fill:#7B491E;" d="M41.709,51.738c0.739,1.371-0.054,2.273-0.964,2.839
			c-1.223,0.759-2.481,0.219-3.491-0.628c-1.149-0.964-2.292-2.407-2.289,0.628c0,0.08,0.009,0.221-0.021,0.232
			c-1.483,0.504-2.951,1.069-4.463,1.463c-0.83,0.216-1.405-0.542-1.655-1.151c-0.521-1.269,0.072-2.46,1.13-3.057
			c1.054-0.595,0.575-1.379,0.628-2.072c0.191-2.476,1.923-3.603,4.225-2.794c1.803,0.634,3.172,2.251,5.614,1.549
			C41.616,48.404,41.906,50.474,41.709,51.738z"/>
		<path style="fill-rule:evenodd;clip-rule:evenodd;fill:#7B491E;" d="M290.45,26.25c0.049,3.214-0.313,3.432-3.367,2.206
			c-1.383-0.556-1.477,0.96-1.794,1.517c-1.464,2.566-4.813,3.285-6.979,1.317c-0.979-0.889-1.711-2.019-3.196-2.361
			c-0.82-0.189-1.331-1.131-1.095-2.159c0.242-1.052,1.062-1.037,1.888-1.013c1.025,0.029,2.012-0.001,3.025,0.456
			c1.528,0.688,3.079,1.403,4.176-0.965c0.631-1.364,4.398-1.307,5.933-0.18c0.51,0.375,0.97,0.816,1.453,1.227L290.45,26.25z"/>
		<path style="fill-rule:evenodd;clip-rule:evenodd;fill:#7B491E;" d="M224.568,23.308c-1.679,1.196-2.94,0.058-4.248-0.864
			c-0.24,1.017-0.33,1.929,0.769,2.322c1.556,0.557,1.115,1.876,0.958,2.852c-0.181,1.119-1.267,1.155-2.309,1.409
			c-2.316,0.564-4.002-0.965-5.963-1.457c-1.256-0.314-1.269-2.025-1.337-3.277c-0.067-1.249,0.947-1.918,1.814-2.323
			c0.975-0.455,1.582,0.518,2.009,1.288c0.225,0.406-0.137,1.341,0.861,0.892c0.744-0.335,0.508-0.816-0.008-1.225
			c-0.062-0.05-0.144-0.101-0.169-0.168c-0.188-0.499,2.313-5.13,2.837-5.215c0.314-0.051,0.692-0.103,0.954,0.025
			c0.338,0.164,0.853,0.527,0.834,0.77c-0.183,2.384,3.804,2.298,2.942,5.029L224.568,23.308z"/>
		<path style="fill-rule:evenodd;clip-rule:evenodd;fill:#7B491E;" d="M193.981,32.735c-1.375,1.409-0.744,3.338-1.01,5.112
			c-0.137,0.91-1.075,1.542-1.614,0.441c-0.909-1.858-2.867-2.798-3.682-4.682c-0.432-0.997-0.883-0.939-1.439,0.018
			c-1.905,3.279-4.098,3.399-6.274,0.277c-0.636-0.913-1.735-1.069-2.361-1.947c-0.668-0.937-0.95-1.877-0.175-2.746
			c0.801-0.899,1.872-0.434,2.484,0.219c1.68,1.793,3.38,1.82,5.784,1.415c2.005-0.339,4.267,0.272,6.471-0.12
			C192.989,30.576,193.731,31.581,193.981,32.735z"/>
		<path style="fill-rule:evenodd;clip-rule:evenodd;fill:#7B491E;" d="M139.555,122.257c2.974,2.01,1.669,5.014,2.721,7.266
			c0.322,0.689-0.884,1.315-1.585,1.375c-1.038,0.088-1.934-0.381-2.487-1.446c-1.141-2.196-0.737-4.997,0.596-7.168
			c0.728-1.185-0.582-2.367-1.263-3.358c-0.672-0.978-1.676-1.729-2.541-2.572c-1.107-1.08-0.914-2.581-0.413-3.576
			c0.505-1.002,1.776-1.896,3.125-0.549c0.875,0.873,1.343,1.88,1.643,3.069c0.379,1.506,0.222,3.359,2.529,3.77
			c0.587,0.104,1.036,1.466,0.666,2.328C142.072,122.497,141.026,122.559,139.555,122.257z"/>
		<path style="fill-rule:evenodd;clip-rule:evenodd;fill:#7B491E;" d="M239.415,13.614c0.497,0.204,0.994,0.3,1.347,0.579
			c0.492,0.392,1.384,0.636,1.517,0.373c1.314-2.592,4.014-1.52,5.956-2.377c0.282-0.125,0.66-0.272,0.77-0.512
			c0.468-1.023,1.003-1.379,1.953-0.491c0.814,0.76,1.211,1.736,0.366,2.478c-0.863,0.758-1.441,1.485-1.702,2.617
			c-0.108,0.473-0.881,1.196-1.249,1.139c-1.781-0.278-2.494,1.222-3.712,1.847c-1.779,0.914-3.664-0.319-5.388-0.966
			c-1.499-0.563-1.149-2.091-1.151-3.353C238.121,14.03,238.651,13.692,239.415,13.614z"/>
		<path style="fill-rule:evenodd;clip-rule:evenodd;fill:#7B491E;" d="M337.027,83.419c2.314,0.046,3.866,0.979,4.701,2.665
			c1.392,2.811,2.646,5.665,5.016,7.851c0.903,0.833,0.787,2.262,0.229,2.861c-0.651,0.698-1.967,0.74-2.898-0.228
			c-0.989-1.028-2.086-2.035-2.165-3.539c-0.087-1.637-1.023-2.594-2.312-3.225c-1.283-0.629-2.391-1.497-3.594-2.219
			c-1.128-0.678-1.629-1.585-1.331-2.7C335.007,83.637,336.1,83.248,337.027,83.419z"/>
		<path style="fill-rule:evenodd;clip-rule:evenodd;fill:#7B491E;" d="M249.494,46.385c0.377-0.485,1.04-0.951,1.092-1.478
			c0.155-1.577,1.379-2.55,2.431-2.48c0.967,0.064,2.074,1.271,2.718,2.241c1.132,1.704-0.812,2.389-1.571,2.275
			c-1.691-0.253-1.904,0.608-1.959,1.75c-0.052,1.076-0.846,1.425-1.562,1.511c-1.015,0.121-0.84-0.815-0.892-1.483
			c-0.033-0.427,0.218-1.032-0.52-1.122c-0.39-0.048-0.727-0.036-0.951,0.463c-0.254,0.565-0.331,0.927,0.198,1.406
			c1.675,1.514,0.982,2.95-0.166,4.43c-0.668,0.861-1.482,0.525-2.142,0.336c-0.776-0.223-0.821-0.897-0.613-1.757
			c0.499-2.069,1.092-4.097-0.488-6.175c-0.907-1.195,0.483-2.231,1.433-2.896c1.007-0.705,1.647,0.256,2.126,0.949
			C249.044,44.959,249.224,45.726,249.494,46.385z"/>
		<path style="fill-rule:evenodd;clip-rule:evenodd;fill:#7B491E;" d="M224.514,23.363c2.871-1.191,3.167-2.303,1.179-4.458
			c-0.381-0.414-0.781-0.81-1.185-1.201c-1.016-0.985-0.46-2.159,0.165-2.768c0.656-0.638,1.823-0.645,2.76,0.09
			c2.134,1.673,4.063,3.425,3.427,6.542c-0.029,0.147,0.011,0.324,0.062,0.471c1.152,3.319,1,3.618-1.918,4.871
			c-2.612,1.121-3.311-0.717-4.158-2.486c-0.182-0.379-0.319-0.708-0.276-1.115L224.514,23.363z"/>
		<path style="fill-rule:evenodd;clip-rule:evenodd;fill:#7B491E;" d="M77.975,40.798c0.708-0.161,1.165,0.264,1.633,0.732
			c1.006,1.006,1.813,2.387,3.666,1.718c0.601-0.217,1.062,0.454,1.304,0.894c0.689,1.25,1.589,2.326,2.417,3.467
			c0.742,1.023,0.728,2.447-0.464,3.424c-1.15,0.945-2.134,0.434-2.836-0.586c-1.908-2.771-5.35-3.595-7.518-6.023
			c-0.603-0.675-0.988-1.35-0.469-2.234C76.21,41.332,76.799,40.605,77.975,40.798z"/>
		<path style="fill-rule:evenodd;clip-rule:evenodd;fill:#7B491E;" d="M265.313,36.473c-0.616,1.121-0.825,1.894-0.138,2.3
			c0.558,0.331,0.725,0.737,0.527,1.122c-0.4,0.783-1.247,1.896-1.97,1.263c-1.292-1.131-4.18,1.156-4.284-2.106
			c-0.034-1.083,0.362-1.72,1.524-1.654c2.585,0.146,3.114-1.581,3.333-3.614c0.065-0.614-0.293-1.385,0.369-1.796
			c0.796-0.495,1.688-1.525,2.562-0.958c0.714,0.464,1.308,1.46,0.641,2.708c-0.301,0.562-1.691,2.845,1.233,1.772
			c1.293-0.475,1.845,1.032,1.851,1.691c0.013,1.4-1.007,2.582-2.31,3.028c-1.237,0.424-2.081-0.383-2.428-1.668
			C266.067,37.978,265.744,37.44,265.313,36.473z"/>
		<path style="fill-rule:evenodd;clip-rule:evenodd;fill:#7B491E;" d="M335.267,60.704c-0.079,1.049-0.236,2.036-0.869,2.751
			c-0.78,0.881-1.569,1.198-2.262-0.301c-0.713-1.543-0.802-3.997-3.737-3.041c-0.655,0.214-4.12-4.254-3.941-5.01
			c0.322-1.361,1.337-1.977,2.679-2.345c1.782-0.489,2.265,0.786,2.562,1.89c0.399,1.477,0.699,2.497,2.598,2.771
			C333.838,57.642,335.119,58.896,335.267,60.704z"/>
		<path style="fill-rule:evenodd;clip-rule:evenodd;fill:#7B491E;" d="M155.009,182.839c-0.581,0.075-1.068-0.098-1.565-0.424
			c-1.049-0.689-1.781-0.797-2.941,0.347c-1.456,1.434-3.16-0.035-4.289-1.031c-1.293-1.142-1.586-2.963-0.967-4.606
			c0.411-1.092,1.605-1.075,2.706-1.097c1.218-0.024,1.385,0.935,1.8,1.625c0.822,1.369,1.878,2.087,3.367,1.164
			c1.229-0.761,2.142-0.11,3.07,0.436c0.829,0.487,1.281,1.356,0.888,2.269C156.732,182.322,156.089,183.018,155.009,182.839z"/>
		<path style="fill-rule:evenodd;clip-rule:evenodd;fill:#7B491E;" d="M359.82,81.806c0.097,0.726-0.034,1.5-0.937,2.175
			c-0.754,0.563-1.14,0.766-1.555-0.216c-0.089-0.211-0.334-0.354-0.431-0.564c-1.118-2.41-3.075-3.775-5.554-4.509
			c-1.341-0.397-2.708-0.671-2.719-2.599c-0.007-1.199,0.515-1.747,1.501-2.114c1.764-0.656,3.261-0.02,4.165,1.382
			c0.799,1.238,1.454,1.909,3.083,2.172C359.187,77.825,359.909,79.659,359.82,81.806z"/>
		<path style="fill-rule:evenodd;clip-rule:evenodd;fill:#7B491E;" d="M318.122,16.678c0.062-1.905,0.701-2.262,2.369-1.412
			c1.919,0.978,3.735,0.857,5.254-0.793c0.742-0.807,1.822-1.366,2.462-0.55c0.771,0.983,1.997,1.998,1.248,3.743
			c-0.668,1.556-1.785,1.093-2.642,0.742c-1.188-0.486-1.536-0.541-2.162,0.854c-0.492,1.099-1.496,2.636-3.182,2.559
			C320.271,21.767,318.072,18.186,318.122,16.678z"/>
		<path style="fill-rule:evenodd;clip-rule:evenodd;fill:#7B491E;" d="M31.553,129.498c0.131-1.708,1.282-3.185,1.126-5.017
			c-0.058-0.676,0.852-0.924,1.52-0.764c1.167,0.279,2.535,0.71,2.634,2.021c0.149,1.962,0.933,3.377,2.469,4.49
			c1.042,0.756,0.501,1.915-0.04,2.26c-1.309,0.833-2.854,1.591-4.477,0.833C33.17,132.566,31.312,131.904,31.553,129.498z"/>
		<path style="fill-rule:evenodd;clip-rule:evenodd;fill:#7B491E;" d="M205.984,127.599c1.101,2.023,5.561,0.101,5.503,4.348
			c-0.005,0.382,0.33,0.479,0.687,0.473c0.463-0.009,0.62-0.203,0.763-0.68c0.416-1.379,1.085-2.24,2.765-1.318
			c0.793,0.436,0.939,0.695,0.643,1.536c-0.526,1.487-1.858,2.372-2.563,3.791c-0.639,1.285-3.144,0.6-3.615-1.209
			c-0.747-2.87-2.895-2.953-5.013-3.028c-1.405-0.05-2.524-0.364-2.336-1.808C202.983,128.426,203.995,127.474,205.984,127.599z"/>
		<path style="fill-rule:evenodd;clip-rule:evenodd;fill:#7B491E;" d="M28.182,108.896c0.372,1.216-0.353,2.394-1.452,2.771
			s-2.401-0.053-3.273-1.163c-0.941-1.2-1.852-2.377-1.577-4.034c0.169-1.017-0.308-1.843-0.748-2.692
			c-0.352-0.682-0.431-1.406,0.148-2.002c0.588-0.604,1.305-0.446,2.012-0.188C25.896,102.534,28.187,105.861,28.182,108.896z"/>
		<path style="fill-rule:evenodd;clip-rule:evenodd;fill:#7B491E;" d="M154.659,133.882c-0.947-0.227-1.991-0.497-2.552-1.81
			c-0.507-1.19,0.164-1.919,0.858-2.374c0.827-0.541,0.647-0.679-0.082-0.797c-2.539-0.412-2.092-2.321-2.01-3.996
			c0.05-1.005,0.782-2.103,1.604-1.945c0.933,0.179,2.461-0.03,2.748,1.574c0.122,0.682,0.541,1.265,0.496,2.032
			c-0.083,1.414-0.443,2.955,1.648,3.49c0.865,0.222,1.033,1.328,0.642,2.055C157.38,133.283,156.277,133.915,154.659,133.882z"/>
		<path style="fill-rule:evenodd;clip-rule:evenodd;fill:#7B491E;" d="M227.02,141.931c0.233,1.847-0.298,2.9-2.347,2.618
			c-1.065-0.146-1.622,0.589-2.039,1.364c-0.893,1.66-2.224,0.87-3.188,0.394c-1.021-0.504-1.32-1.896-1.062-2.875
			c0.239-0.903,1.056-1.781,2.426-1.02c0.795,0.442,2.055,1.496,2.629,0.226c0.44-0.972,0.61-2.517-0.661-3.519
			c-1.232-0.972-1.792-2.075-0.351-3.372c0.562-0.506,1.42-0.709,1.645-0.078C224.855,137.867,226.969,139.447,227.02,141.931z"/>
		<path style="fill-rule:evenodd;clip-rule:evenodd;fill:#7B491E;" d="M32.277,122.647c-1.5,0.806-3.185,0.586-4.257-0.524
			c-1.544-1.599-1.358-4.067-2.23-6.059c-0.273-0.624,0.127-1.23,0.792-1.546c0.569-0.27,0.946-0.245,1.619,0.126
			c2.381,1.312,3.442,4.063,5.977,5.199c0.606,0.271,0.541,1.365-0.001,1.923C33.709,122.245,33.526,123.51,32.277,122.647z"/>
		<path style="fill-rule:evenodd;clip-rule:evenodd;fill:#7B491E;" d="M218.441,126.753c-0.971-0.851-1.385-1.757-2.897-1.212
			c-1.549,0.558-1.786-0.864-1.644-2.085c0.085-0.732,0.583-1.512-0.686-1.704c-1.068-0.164-2.167-0.581-1.692-1.913
			c0.359-1.007,1.104-1.956,2.433-1.958c1.418-0.002,1.9,1.317,1.769,2.095c-0.404,2.394,0.848,2.791,2.694,2.745
			c0.779-0.019,1.179,0.544,1.529,1.024c0.644,0.881-0.841,5.616-1.827,6.103c-0.696,0.344-1.174,0.05-1.696-0.43
			c-0.703-0.647-0.765-1.376-0.46-2.175C216.455,125.954,217.475,127.333,218.441,126.753z"/>
		<path style="fill-rule:evenodd;clip-rule:evenodd;fill:#7B491E;" d="M29.674,105.089c-0.252-1.212,0.136-2.319,1.228-2.583
			c1.792-0.433,4.004-0.451,4.97,1.203c0.945,1.617,1.353,3.765,0.421,5.735c-0.192,0.406-0.659,0.683-0.999,1.019
			c-0.979-1.428-2.992-0.856-4.001-1.945C30.45,107.607,29.271,106.631,29.674,105.089z"/>
		<path style="fill-rule:evenodd;clip-rule:evenodd;fill:#7B491E;" d="M151.167,74.029c-0.468,1.324-0.753,2.585-0.887,3.942
			c-0.114,1.15-1.328,0.828-1.825,0.343c-2.101-2.048-3.208-4.758-4.271-7.405c-0.286-0.713,0.963-1.534,1.803-1.984
			c1.243-0.667,2.204,0.38,2.998,0.911C150.39,70.773,150.673,72.562,151.167,74.029z"/>
		<path style="fill-rule:evenodd;clip-rule:evenodd;fill:#7B491E;" d="M39.334,143.58c-2.725-0.049-4.779-1.503-4.849-3.214
			c-0.081-1.984,1.118-3.102,2.994-2.546c1.438,0.426,2.875,0.762,4.354,0.887c0.83,0.071,1.68,0.009,1.836,1.078
			c0.129,0.88,0.196,1.892-0.747,2.345C41.675,142.729,40.447,143.444,39.334,143.58z"/>
		<path style="fill-rule:evenodd;clip-rule:evenodd;fill:#7B491E;" d="M143.55,156.987c-0.035,0.776-0.644,0.938-1.218,1.25
			c-1.113,0.605-2.316,0.052-2.685-0.561c-0.92-1.527-2.199-2.78-2.975-4.458c-0.769-1.662,0.192-2.852,0.986-3.138
			c1.343-0.483,3.101-0.705,4.145,1.106C142.846,152.997,142.159,155.289,143.55,156.987z"/>
		<path style="fill-rule:evenodd;clip-rule:evenodd;fill:#7B491E;" d="M18.833,93.636c-2.193,0.031-3.743-1.479-3.742-3.643
			c0.001-1.591,1.985-4.056,3.311-4.113c1.535-0.066,3.517,2.865,3.455,5.292C21.809,93.073,20.58,93.719,18.833,93.636z"/>
		<path style="fill-rule:evenodd;clip-rule:evenodd;fill:#7B491E;" d="M49.029,128.982c0.062,1.361-2.353,5.23-3.52,5.725
			c-0.884,0.375-1.171-0.401-1.511-0.819c-1.565-1.92-1.289-5.963,0.417-7.756c0.376-0.395,0.774-0.515,1.277-0.496
			C46.718,125.673,48.981,127.935,49.029,128.982z"/>
		<path style="fill-rule:evenodd;clip-rule:evenodd;fill:#7B491E;" d="M343.344,65.727c-0.351,1.417-0.163,2.62,0.759,3.896
			c0.497,0.688,0.733,2.254-0.326,2.794c-0.616,0.313-1.493-0.575-2.048-1.371c-0.723-1.038-1.834-1.724-2.812-2.533
			c-1.134-0.939-2.2-2.221-0.8-3.854c1.672-1.948,3.151-2.288,4.507-1.104C343.334,64.176,343.41,64.902,343.344,65.727z"/>
		<path style="fill-rule:evenodd;clip-rule:evenodd;fill:#7B491E;" d="M331.109,71.551c0.089-0.167,0.204-0.657,0.386-0.683
			c1.679-0.244,1.954-1.247,1.687-2.712c-0.112-0.614,0.349-1.037,0.966-1.165c0.525-0.109,0.986,0.085,1.229,0.554
			c0.712,1.38,2.602,2.924-0.484,3.863c-0.447,0.136-0.716,0.561-0.786,1.112c-0.126,0.967-0.727,1.635-1.702,1.692
			c-1.136,0.067-1.174-0.97-1.349-2.019c-1.359,1.56-2.725,3.055-4.379,1.052c-0.94-1.139-0.325-2.428,0.84-3.299
			C329.655,68.346,329.863,70.795,331.109,71.551z"/>
		<path style="fill-rule:evenodd;clip-rule:evenodd;fill:#7B491E;" d="M48.059,69.866c-0.014,1.557-2.179,2.74-4.876,2.666
			c-0.506-0.014-2.738-2.902-2.713-3.51c0.045-1.131,2.556-3.503,3.709-3.504C45.466,65.515,48.072,68.436,48.059,69.866z"/>
		<path style="fill-rule:evenodd;clip-rule:evenodd;fill:#7B491E;" d="M34,64.22c0.258,1.041-0.389,1.6-1.399,2.004
			c-2.042,0.817-3.44-0.531-4.541-1.704c-0.971-1.034-2.029-2.555-0.696-4.208c0.935-1.159,1.843-1.579,3.219-0.455
			C33.966,62.622,34.006,62.572,34,64.22z"/>
		<path style="fill-rule:evenodd;clip-rule:evenodd;fill:#7B491E;" d="M138.62,136.303c2.203,0.035,3.139,1.564,2.014,3.45
			c-0.616,1.032-1.374,1.827-0.541,3.196c0.455,0.748-0.234,1.785-0.918,2.23c-0.522,0.339-1.212-0.245-1.741-0.703
			c-2.509-2.171-2.649-2.838-1.118-5.819C137.534,136.285,137.534,136.285,138.62,136.303z"/>
		<path style="fill-rule:evenodd;clip-rule:evenodd;fill:#7B491E;" d="M156.449,153.658c0.878-0.254,1.934,0.626,2.522,1.492
			c0.546,0.805,0.158,1.989-0.824,2.73c-0.746,0.562-0.627,1.566-0.967,2.346c-0.3,0.688-0.265,1.614-1.229,1.747
			c-0.881,0.122-1.498-0.689-1.969-1.146c-1.152-1.122-0.971-5.241-0.018-6.531C154.513,153.554,155.262,153.84,156.449,153.658z"/>
		<path style="fill-rule:evenodd;clip-rule:evenodd;fill:#7B491E;" d="M176.06,183.017c0.007-3.482,0.956-4.16,3.67-3.174
			c0.853,0.31,1.972-0.221,2.61,0.792c0.314,0.499,1.279,0.75,0.863,1.508c-0.318,0.581-0.795,1.287-1.658,1.178
			c-1.156-0.147-1.522,0.656-1.845,1.471c-0.364,0.919-0.344,2.149-1.871,1.935c-1.338-0.188-1.145-1.523-1.655-2.307
			C175.874,183.958,176.067,183.176,176.06,183.017z"/>
		<path style="fill-rule:evenodd;clip-rule:evenodd;fill:#7B491E;" d="M153.034,78.186c1.426-0.435,2.553,0.285,3.046,1.366
			c0.532,1.164-0.016,2.321-1.314,2.936c-0.843,0.4-0.808,1.414-1.251,2.097c-0.826,1.275-1.965,1.063-2.585,0.529
			c-1.484-1.277-1.297-3.195-0.869-4.878C150.406,78.876,151.144,77.531,153.034,78.186z"/>
		<path style="fill-rule:evenodd;clip-rule:evenodd;fill:#7B491E;" d="M135.816,91.579c0.006,1.851-1.268,2.624-2.66,1.966
			c-0.788-0.373-3.695-5.475-3.641-6.389c0.113-1.891,1.262-2.354,2.934-1.559C135.226,86.918,134.467,89.951,135.816,91.579z"/>
		<path style="fill-rule:evenodd;clip-rule:evenodd;fill:#7B491E;" d="M129.064,82.916c-0.212,1.18-0.626,2.523-1.634,3.146
			c-0.591,0.366-1.338-0.854-1.998-1.358c-0.978-0.747-2.501-0.77-2.996-2.257c-0.106-0.319-0.702-0.379-0.432-0.927
			c0.932-1.888,2.921-2.27,4.566-2.809c1.508-0.494,1.635,1.251,1.972,2.331C128.726,81.631,128.875,82.231,129.064,82.916z"/>
		<path style="fill-rule:evenodd;clip-rule:evenodd;fill:#7B491E;" d="M206.735,95.061c-0.235,1.046,0.169,1.75-0.642,1.94
			c-1.273,0.298-2.407-0.565-2.766-1.355c-0.969-2.132-1.776-4.25-3.624-5.875c-0.784-0.689-0.754-2.17-0.008-2.792
			c0.585-0.487,1.925-0.402,2.541,0.598C203.841,90.176,205.388,92.81,206.735,95.061z"/>
		<path style="fill-rule:evenodd;clip-rule:evenodd;fill:#7B491E;" d="M156.236,119.594c0.416,1.879-0.843,1.908-1.986,1.625
			c-2.462-0.608-4.276-5.431-2.807-7.494c0.335-0.472,0.158-1.729,1.437-1.338c0.83,0.254,1.697,0.258,1.936,1.407
			C155.221,115.741,155.756,117.661,156.236,119.594z"/>
		<path style="fill-rule:evenodd;clip-rule:evenodd;fill:#7B491E;" d="M309.339,79.64c-2.802,0.986-4.792-0.13-5.92-3.353
			c-0.478-1.363,0.646-2.271,1.212-3.203c0.405-0.665,1.579-1.138,2.563-0.672c1.062,0.503,1.421,1.462,1.226,2.603
			c-0.288,1.673,0.601,3.119,0.868,4.683L309.339,79.64z"/>
		<path style="fill-rule:evenodd;clip-rule:evenodd;fill:#7B491E;" d="M17.031,80.282c0.014-1.822,1.34-3.184,3.049-3.13
			c1.652,0.052,3.292,2.447,3.212,4.975c-0.038,1.21-0.96,2.12-2.105,2.21C19.481,84.472,17.019,81.905,17.031,80.282z"/>
		<path style="fill-rule:evenodd;clip-rule:evenodd;fill:#7B491E;" d="M85.28,24.457c-0.237-0.999,0.766-2.124,2.055-2.462
			c1.104-0.291,2.115,0.724,2.655,1.826c0.617,1.259,1.842,2.537,0.389,3.942c-0.785,0.758-0.858,2.592-2.385,2.172
			c-1.3-0.357-1.864-1.64-2.254-2.994C85.562,26.326,85.462,25.737,85.28,24.457z"/>
		<path style="fill-rule:evenodd;clip-rule:evenodd;fill:#7B491E;" d="M158.121,140.75c-0.112,0.845,0.418,2.173-1.188,2.314
			c-1.784,0.158-5.039-3.137-5.146-4.898c-0.102-1.654,0.992-2.161,2.158-2.295C156.147,135.618,158.118,137.986,158.121,140.75z"/>
		<path style="fill-rule:evenodd;clip-rule:evenodd;fill:#7B491E;" d="M260.533,76.666c-1.309-0.056-3.557-2.454-3.495-3.727
			c0.056-1.157,2.962-3.734,4.146-3.502c1.152,0.225,2.064,1.057,2.107,2.262C263.382,74.22,261.895,76.725,260.533,76.666z"/>
		<path style="fill-rule:evenodd;clip-rule:evenodd;fill:#7B491E;" d="M195.457,118.001c-0.071-0.551,0.048-1.086,0.609-1.413
			c0.688-0.401,1.191-0.075,1.683,0.425c1.08,1.1,2.24,1.492,3.682,0.542c0.919-0.606,1.641,0.159,1.969,0.821
			c0.581,1.171,1.946,2.006,1.693,3.525c-0.077,0.464-0.851,0.485-1.003,0.279c-1.37-1.837-3.258-0.68-4.885-0.876
			C197.173,121.062,195.416,119.669,195.457,118.001z"/>
		<path style="fill-rule:evenodd;clip-rule:evenodd;fill:#7B491E;" d="M198.439,111.521c-2.07,0.344-3.012-0.305-3.003-2.198
			c0.008-1.67,1.263-2.188,2.421-2.509c1.096-0.305,3.095,1.938,2.891,3.194c-0.174,1.072-0.247,2.062-0.002,3.14
			c0.166,0.726,0.309,1.684-0.604,2.154c-0.958,0.493-1.71-0.212-2.333-0.719c-0.698-0.567-0.603-1.41-0.058-2.144
			C197.892,112.25,198.034,112.062,198.439,111.521z"/>
		<path style="fill-rule:evenodd;clip-rule:evenodd;fill:#7B491E;" d="M136.301,68.322c-0.1-1.531,0.845-2.39,2.108-2.764
			c1.962-0.582,3.196,0.744,4.062,2.176c0.674,1.117,0.714,2.58-0.215,3.632c-0.873,0.988-1.714,0.182-2.69-0.286
			C136.322,69.526,136.277,69.619,136.301,68.322z"/>
		<path style="fill-rule:evenodd;clip-rule:evenodd;fill:#7B491E;" d="M277.877,80.674c-0.233-0.906,0.124-1.755,1.233-1.991
			c0.979-0.208,1.829,0.156,2.273,1.18c0.501,1.15,1.263,2.055,2.244,2.887c0.969,0.821,0.834,1.983-0.021,2.963
			c-0.826,0.947-1.853,0.865-2.824,0.365C279.8,85.571,277.887,81.975,277.877,80.674z"/>
		<path style="fill-rule:evenodd;clip-rule:evenodd;fill:#7B491E;" d="M173.098,174.121c1.642-0.35,2.333,0.808,2.427,2.268
			c0.115,1.77-2.698,4.746-4.187,4.461c-1.011-0.193-2.167-0.521-2.091-2.093C169.337,176.896,171.426,174.123,173.098,174.121z"/>
		<path style="fill-rule:evenodd;clip-rule:evenodd;fill:#7B491E;" d="M38.633,116.425c2.301,0.002,4.029,2.119,3.387,4.265
			c-0.141,0.47-0.288,0.912-0.253,1.385c0.053,0.716-0.151,1.315-0.826,1.574c-0.773,0.296-1.518-0.225-1.935-0.658
			c-0.912-0.948-1.685-2.067-2.344-3.215C35.742,118.174,36.824,116.423,38.633,116.425z"/>
		<path style="fill-rule:evenodd;clip-rule:evenodd;fill:#7B491E;" d="M63.138,50.506c-0.849,0.025-2.51-1.943-2.402-4.256
			c0.058-1.246,0.172-2.946,2.125-3.026c1.58-0.065,3.405,2.182,3.369,4.417C66.207,49.021,65.807,50.465,63.138,50.506z"/>
		<path style="fill-rule:evenodd;clip-rule:evenodd;fill:#7B491E;" d="M76.024,50.076c0.363,1.493-0.138,2.14-0.84,2.566
			c-0.841,0.511-1.49-0.07-1.893-0.715c-0.825-1.32-2.931-1.586-2.922-3.558c0.005-1.149-0.333-2.417,1.315-2.907
			c1.455-0.433,2.18,0.531,3.07,1.297C75.958,47.796,75.688,49.351,76.024,50.076z"/>
		<path style="fill-rule:evenodd;clip-rule:evenodd;fill:#7B491E;" d="M244.428,48.058c-0.031,2.71-0.919,3.376-3.338,2.743
			c-0.972-0.254-0.334,0.547-0.566,0.753c-0.629,0.558-0.811,1.72-2.04,1.474c-1.759-0.353-1.231-1.734-1.339-2.856
			c-0.148-1.557,0.999-1.192,1.758-1.112c1.311,0.139,1.637-0.839,1.993-1.653c0.451-1.028,1.041-1.635,2.208-1.407
			C244.473,46.267,244.567,47.268,244.428,48.058z"/>
		<path style="fill-rule:evenodd;clip-rule:evenodd;fill:#7B491E;" d="M299.395,66.882c-1.346,1.281-0.229,2.211,0.206,3.274
			c0.438,1.065-0.079,2.018-0.994,2.421c-0.869,0.383-1.942,0.688-2.565-0.723c-0.4-0.909-1.05-6.403-0.58-7.182
			c0.567-0.945,1.247-0.026,1.877-0.098C299.116,64.369,298.357,66.283,299.395,66.882z"/>
		<path style="fill-rule:evenodd;clip-rule:evenodd;fill:#7B491E;" d="M55.395,43.717c1.833-0.102,3.662,2.408,3.187,4.121
			c-0.147,0.53-0.151,1.135-0.388,1.57c-0.517,0.949-0.806,2.374-2.394,2.028c-1.303-0.284-1.823-1.312-1.904-2.534
			c-0.073-1.119-0.063-2.249,0.001-3.369C53.96,44.437,54.658,43.866,55.395,43.717z"/>
		<path style="fill-rule:evenodd;clip-rule:evenodd;fill:#7B491E;" d="M166.192,172.668c-2.074-0.04-5.259-2.459-5.137-3.906
			c0.111-1.316,1.001-2.231,2.249-2.344c1.68-0.151,5.118,3.064,4.848,4.521C167.981,171.856,167.496,172.988,166.192,172.668z"/>
		<path style="fill-rule:evenodd;clip-rule:evenodd;fill:#7B491E;" d="M156.678,104.978c-0.028,1.619-0.796,2.706-2.193,3.09
			c-0.927,0.254-3.447-2.656-3.653-3.825c-0.27-1.522,0.549-2.495,1.652-3.165c1.153-0.7,1.713,0.512,2.308,1.151
			C155.564,103.06,156.895,103.579,156.678,104.978z"/>
		<path style="fill-rule:evenodd;clip-rule:evenodd;fill:#7B491E;" d="M130.857,69.401c1.452-0.033,3.092,2.142,2.799,3.737
			c-0.224,1.22-0.503,2.753-2.153,2.99c-1.215,0.174-4.048-2.943-3.9-4.32C127.829,69.712,130.047,70.332,130.857,69.401z"/>
		<path style="fill-rule:evenodd;clip-rule:evenodd;fill:#7B491E;" d="M35.237,81.837c-0.58,0.283,0.209,1.549-0.874,1.58
			c-0.697,0.019-1.499,0.401-1.977-0.727c-0.476-1.124-1.268-2.146-2.062-3.095c-0.9-1.077-1.21-2.409-0.117-3.108
			c1.145-0.731,2.609-0.521,3.822,0.654C35.424,78.492,34.617,80.311,35.237,81.837z"/>
		<path style="fill-rule:evenodd;clip-rule:evenodd;fill:#7B491E;" d="M93.159,41.76c-0.022,1.548,0.222,2.584-0.953,2.863
			c-1.067,0.253-2.09,0.056-2.723-0.989c-0.817-1.35-1.192-2.887-1.427-4.396c-0.143-0.919,0.606-1.793,1.487-2.228
			c0.953-0.47,1.609,0.329,1.95,0.96C92.247,39.364,92.782,40.876,93.159,41.76z"/>
		<path style="fill-rule:evenodd;clip-rule:evenodd;fill:#7B491E;" d="M144.545,166.401c0.189,1.77-1.073,1.876-2.277,1.883
			c-1.878,0.011-4.124-2.203-3.85-4.02c0.164-1.083,0.775-2.288,2.307-2.264C142.512,162.028,144.572,164.397,144.545,166.401z"/>
		<path style="fill-rule:evenodd;clip-rule:evenodd;fill:#7B491E;" d="M83.95,33.95c0.024,2.179-0.701,3.009-2.311,2.956
			c-1.51-0.051-4.03-3.207-3.992-5.022c0.019-0.889,0.52-1.552,1.394-1.513C81.6,30.487,83.974,32.584,83.95,33.95z"/>
		<path style="fill-rule:evenodd;clip-rule:evenodd;fill:#7B491E;" d="M309.288,79.698c0.498-0.584,1.025-1.146,1.485-1.758
			c0.767-1.019,2.022-1.177,2.763-0.602c1.056,0.821,2.734,1.568,2.541,3.187c-0.118,0.987-1.264,1.519-2.34,2.037
			c-3.375,1.626-3.622-0.938-4.396-2.924C309.339,79.64,309.288,79.698,309.288,79.698z"/>
		<path style="fill-rule:evenodd;clip-rule:evenodd;fill:#7B491E;" d="M216.812,136.771c-0.858-2.802,1.883-3.502,3.018-5.104
			c0.472-0.667,1.297-0.086,1.798,0.516c0.768,0.921,0.78,1.894,0.067,2.797c-0.621,0.787-1.379,1.322-1.626,2.512
			c-0.187,0.898-0.809,2.541-2.372,2.128C216.185,139.221,216.994,137.747,216.812,136.771z"/>
		<path style="fill-rule:evenodd;clip-rule:evenodd;fill:#7B491E;" d="M238.605,20.819c0.104,0.667-0.153,1.309-0.837,1.477
			c-0.62,0.152-1.257,0.253-1.752-0.664c-0.615-1.137-2.325-1.639-1.813-3.451c0.189-0.67-0.573-0.503-0.934-0.717
			c-0.792-0.47-1.038-1.314-0.951-2.214c0.078-0.802,0.688-1.379,1.319-1.524c0.78-0.179,1.22,0.689,1.618,1.226
			c1.026,1.382,1.873,2.898,2.911,4.271C238.556,19.738,238.596,20.211,238.605,20.819z"/>
		<path style="fill-rule:evenodd;clip-rule:evenodd;fill:#7B491E;" d="M309.412,67.134c-0.332,1.28-0.317,3.12-2.529,1.481
			c-0.607-0.45-1.396-0.264-1.642,0.393c-0.4,1.073-1.195,1.099-1.875,0.726c-0.598-0.329-0.471-1.358-0.208-1.771
			c0.965-1.516,1.798-3.13,3.104-4.429c0.889-0.884,1.915-0.022,1.946,0.265C308.342,65.014,309.883,65.683,309.412,67.134z"/>
		<path style="fill-rule:evenodd;clip-rule:evenodd;fill:#7B491E;" d="M26.237,73.093c0.232,1.157-0.708,1.701-1.416,2.256
			c-0.74,0.58-1.211-0.449-1.672-0.722c-3.216-1.899-3.518-3.842-1.006-5.696c1.099-0.812,2.281-1.019,2.623,0.768
			C25.006,70.958,26.431,71.647,26.237,73.093z"/>
		<path style="fill-rule:evenodd;clip-rule:evenodd;fill:#7B491E;" d="M168.854,34.546c-0.321,1.56-1.145,2.945-1.337,4.617
			c-0.132,1.148-2.089,0.969-3.015,0.268c-1.648-1.25-1.41-3.364,0.409-4.444c0.57-0.339,0.333-0.815,0.562-1.166
			c0.554-0.849,1.417-1.358,2.387-1.213C168.884,32.761,168.823,33.713,168.854,34.546z"/>
		<path style="fill-rule:evenodd;clip-rule:evenodd;fill:#7B491E;" d="M71.819,57.639c-0.079,0.901,0.362,2.042-0.838,2.487
			c-1.052,0.39-1.794-0.278-2.448-1.036c-0.364-0.422-0.767-0.815-1.18-1.19c-0.913-0.828-1.493-1.92-1.037-3.032
			c0.565-1.378,2.022-1.084,3.164-0.954c1.272,0.145,2.072,1.02,2.322,2.289C71.892,56.665,71.815,57.159,71.819,57.639z"/>
		<path style="fill-rule:evenodd;clip-rule:evenodd;fill:#7B491E;" d="M142.583,102.583c0.75,2.51-1.572,3.211-2.731,4.5
			c-0.604,0.673-2.56-0.881-2.572-1.991c-0.014-1.335,2.365-4.824,3.671-5.036C143.21,99.689,142.409,101.523,142.583,102.583z"/>
		<path style="fill-rule:evenodd;clip-rule:evenodd;fill:#7B491E;" d="M198.853,91.97c0.051,0.522,0.019,1.169-0.652,1.529
			c-0.682,0.366-1.151-0.03-1.681-0.452c-0.494-0.393-0.997-0.797-1.826-0.487c-1.772,0.66-2.446-0.729-2.392-1.96
			c0.056-1.282,0.416-2.873,2.416-2.793C196.066,87.86,198.798,90.463,198.853,91.97z"/>
		<path style="fill-rule:evenodd;clip-rule:evenodd;fill:#7B491E;" d="M200.89,128.536c-1.234-0.43-2.629-0.695-2.525-2.486
			c0.043-0.754,2.758-4.452,3.191-4.258c1.323,0.595,2.546,1.415,2.599,3.048C204.196,126.151,201.95,128.565,200.89,128.536z"/>
		<path style="fill-rule:evenodd;clip-rule:evenodd;fill:#7B491E;" d="M272.071,35.816c-0.308-1.602,0.951-1.923,2.094-2.275
			c0.591-0.183,1.23,0.05,1.865-0.292c0.655-0.354,1.683-1.35,2.126-0.046c0.356,1.046,0.896,2.533-0.866,3.26
			c-0.714,0.295-1.313,0.857-1.982,1.27c-0.746,0.459-1.448,0.673-2.354,0.169C272.05,37.399,272.027,36.703,272.071,35.816z"/>
		<path style="fill-rule:evenodd;clip-rule:evenodd;fill:#7B491E;" d="M33.999,90.395c0.394,0.958-0.204,1.864-1.029,2.376
			c-0.837,0.52-2.034,1.273-2.427-0.694c-0.178-0.887-1.067-1.613-0.893-2.631c0.199-1.163-0.806-2.963,1.516-3.079
			c2.005-0.101,2.274,1.544,2.817,2.877C34.095,89.52,33.999,89.88,33.999,90.395z"/>
		<path style="fill-rule:evenodd;clip-rule:evenodd;fill:#7B491E;" d="M173.462,186.484c-0.438,1.1-0.46,2.524-2.015,2.649
			c-1.226,0.099-4.176-2.084-3.832-2.848c0.622-1.38,1.265-2.964,3.185-2.935C172.856,183.384,173.01,185.14,173.462,186.484z"/>
		<path style="fill-rule:evenodd;clip-rule:evenodd;fill:#7B491E;" d="M66.812,62.896c0.003-0.01,0.541,0.9-0.281,1.075
			c-0.627,0.134-1.297,0.232-2.103-0.439c-1.226-1.023-2.886-1.389-2.84-3.523c0.026-1.239,0.7-1.604,1.564-2.069
			c1.081-0.582,1.299,0.269,1.75,0.876C65.716,59.914,67.349,60.517,66.812,62.896z"/>
		<path style="fill-rule:evenodd;clip-rule:evenodd;fill:#7B491E;" d="M287.09,68.549c0.086,0.658,0.018,1.417-0.753,1.749
			c-0.663,0.286-1.242-0.081-1.642-0.649c-0.607-0.861-1.497-0.736-2.371-0.749c-1.215-0.017-1.883-0.665-2.021-1.875
			c-0.182-1.586,1.175-1.608,2.045-1.739C284.744,64.927,287.102,66.603,287.09,68.549z"/>
		<path style="fill-rule:evenodd;clip-rule:evenodd;fill:#7B491E;" d="M210.229,31.085c-1.413-0.014-2.449-1.507-1.642-2.618
			c0.646-0.891,0.123-1.167-0.262-1.778c-0.477-0.756-0.509-1.688,0.079-2.458c0.526-0.691,1.387-0.528,2.015-0.347
			c0.825,0.237,0.992,1.111,1.026,1.903c0.037,0.868,0.085,1.613,0.669,2.434C213.025,29.502,211.872,31.101,210.229,31.085z"/>
		<path style="fill-rule:evenodd;clip-rule:evenodd;fill:#7B491E;" d="M153.77,149.371c-0.088-1.427,0.123-2.654,1.267-3.274
			c0.826-0.447,1.837-0.084,2.233,0.804c0.699,1.568,1.184,3.315,0.736,4.974c-0.257,0.949-1.551,0.328-2.367,0.403
			c-1.126,0.104-1.408-0.958-1.833-1.675C153.596,150.249,153.77,149.667,153.77,149.371z"/>
		<path style="fill-rule:evenodd;clip-rule:evenodd;fill:#7B491E;" d="M321.065,59.34c-0.043,1.581-0.933,2.475-2.403,2.755
			c-0.807,0.154-3.029-2.922-2.947-4.061c0.112-1.559,1.799-2.001,2.559-1.959C319.948,56.169,320.837,57.612,321.065,59.34z"/>
		<path style="fill-rule:evenodd;clip-rule:evenodd;fill:#7B491E;" d="M366.604,95.818c-0.006,1.411-2.102,4.126-3.496,4.428
			c-1.342,0.29-1.54-0.713-1.312-1.572c0.478-1.797,1.17-3.537,1.773-5.301c0.265-0.772,0.811-0.315,1.155-0.185
			C365.906,93.637,366.691,94.432,366.604,95.818z"/>
		<path style="fill-rule:evenodd;clip-rule:evenodd;fill:#7B491E;" d="M363.694,89.765c0.002,0.564,0.155,1.19-0.043,1.673
			c-0.184,0.45,0.812,1.314-0.722,1.466c-1.105,0.11-1.342-0.043-1.672-0.923c-0.585-1.557-1.106-3.074-0.999-4.805
			c0.069-1.124,0.548-2.125,1.438-2.131c0.969-0.007,1.793,0.981,1.967,2.066C363.802,87.976,363.691,88.88,363.694,89.765z"/>
		<path style="fill-rule:evenodd;clip-rule:evenodd;fill:#7B491E;" d="M272.519,72.239c-0.114,0.733-0.691,1.498-1.941,1.508
			c-1.691,0.012-4.394-2.089-4.746-3.739c-0.156-0.73-0.354-1.933,0.962-1.531c1.846,0.563,3.593,1.457,5.362,2.254
			C272.557,70.912,272.561,71.388,272.519,72.239z"/>
		<path style="fill-rule:evenodd;clip-rule:evenodd;fill:#7B491E;" d="M275.738,66.496c1.078-0.054,1.502,0.392,1.725,1.191
			c0.269,0.964,0.446,2.03,0.997,2.819c0.642,0.92,0.166,1.662-0.29,2.056c-0.562,0.485-1.592,0.5-2.216-0.053
			c-1.404-1.244-2.298-2.782-1.944-4.772C274.205,66.639,275.179,66.701,275.738,66.496z"/>
		<path style="fill-rule:evenodd;clip-rule:evenodd;fill:#7B491E;" d="M37.034,73.773c-1.194,0.011-3.684-2.438-3.327-3.555
			c0.311-0.973,1.108-1.893,2.454-1.8c2.055,0.141,2.849,1.626,3.112,3.28C39.505,73.151,38.406,73.756,37.034,73.773z"/>
		<path style="fill-rule:evenodd;clip-rule:evenodd;fill:#7B491E;" d="M23.656,94.6c1.397,0.089,3.32,2.075,2.992,3.263
			c-0.175,0.636,0.017,1.938-1.572,1.718c-1.842-0.257-4.026-0.068-4.041-2.586C21.028,95.824,21.943,94.37,23.656,94.6z"/>
		<path style="fill-rule:evenodd;clip-rule:evenodd;fill:#7B491E;" d="M151.292,170.083c0.144,2.313-0.844,3.418-2.22,3.439
			c-1.135,0.017-2.252-1.017-2.525-2.321c-0.205-0.978,1.872-4.01,2.546-3.826C150.758,167.83,151.123,169.278,151.292,170.083z"/>
		<path style="fill-rule:evenodd;clip-rule:evenodd;fill:#7B491E;" d="M141.96,96.095c-1.906-0.269-2.812-1.318-2.777-3.335
			c0.023-1.342,0.301-2.19,1.858-2.039c0.746,0.073,3.585,2.963,3.443,3.746C144.248,95.773,143.256,96.183,141.96,96.095z"/>
		<path style="fill-rule:evenodd;clip-rule:evenodd;fill:#7B491E;" d="M346.265,10.585c-0.345,1.554-0.979,2.96-2.219,4.029
			c-0.191,0.165-0.323,0.517-0.74,0.204c-1.223-0.919-1.736-2.209-1.889-3.638c-0.128-1.195,0.697-1.469,1.71-1.438
			c0.321,0.01,0.573-0.075,0.702-0.473c0.259-0.797,0.959-1.315,1.633-0.824C346.028,8.859,346.409,9.701,346.265,10.585z"/>
		<path style="fill-rule:evenodd;clip-rule:evenodd;fill:#7B491E;" d="M274.483,85.699c0.012,0.957,0.14,2.409-1.552,2.05
			c-1.379-0.293-3.571,0.008-3.687-2.094c-0.089-1.62,1.213-2.614,2.941-2.679C273.952,82.908,274.562,83.917,274.483,85.699z"/>
		<path style="fill-rule:evenodd;clip-rule:evenodd;fill:#7B491E;" d="M331.214,15.137c-0.09-1.138,0.213-2.795,0.843-3.01
			c1.566-0.534,3.542,1.329,3.508,2.934c-0.029,1.374-0.146,2.81-1.979,2.917C332.107,18.064,331.228,16.931,331.214,15.137z"/>
		<path style="fill-rule:evenodd;clip-rule:evenodd;fill:#7B491E;" d="M251.13,94.647c1.661-0.589,2.779,0.707,2.822,1.852
			c0.052,1.341-0.956,2.513-2.827,2.521c-2.176,0.008-2.581-1.64-2.689-2.97C248.307,94.47,249.812,94.472,251.13,94.647z"/>
		<path style="fill-rule:evenodd;clip-rule:evenodd;fill:#7B491E;" d="M207.962,119.438c-1.486-0.207-1.979-0.795-2.261-1.428
			c-0.365-0.82,0.411-1.265,0.867-1.808c0.416-0.496,1.596,0.146,1.51-1.101c-0.057-0.818,0.114-1.819,1.252-1.413
			c1.209,0.431,2.004,1.45,2.107,2.803c0.079,1.025-0.609,1.617-1.499,1.342C208.401,117.36,208.549,119.539,207.962,119.438z"/>
		<path style="fill-rule:evenodd;clip-rule:evenodd;fill:#7B491E;" d="M292.499,80.566c1.722-0.152,3.154,0.335,3.231,2.02
			c0.072,1.575-1.431,2.251-2.776,2.261c-1.511,0.011-2.351-1.059-2.47-2.603C290.355,80.592,291.381,80.419,292.499,80.566z"/>
		<path style="fill-rule:evenodd;clip-rule:evenodd;fill:#7B491E;" d="M314.24,61.404c0.094,2.097-1.033,2.744-2.871,2.667
			c-0.825-0.035-1.606-0.338-1.435-1.169c0.303-1.458,0.606-3.086,1.776-4.068c0.674-0.565,1.629,0.051,2.24,0.808
			C314.421,60.222,314.146,60.864,314.24,61.404z"/>
		<path style="fill-rule:evenodd;clip-rule:evenodd;fill:#7B491E;" d="M240.083,55.822c-0.208-2.323,1.171-2.768,2.777-2.902
			c1.555-0.13,1.592,0.94,1.571,2.071c-0.028,1.52-0.854,2.545-2.225,2.779C240.715,58.025,239.621,57.42,240.083,55.822z"/>
		<path style="fill-rule:evenodd;clip-rule:evenodd;fill:#7B491E;" d="M161.896,180.909c1.223,0.06,3.082,2.255,2.84,3.525
			c-0.188,0.985-1.218,1.167-1.988,1.274c-1.244,0.174-3.238-1.818-3.169-2.975C159.646,181.593,160.593,180.847,161.896,180.909z"
			/>
		<path style="fill-rule:evenodd;clip-rule:evenodd;fill:#7B491E;" d="M289.379,65.09c0.986-0.05,3.549,1.91,3.52,2.82
			c-0.039,1.218-0.794,2.187-1.903,1.886c-1.345-0.365-3.055-0.63-3.421-2.507C287.305,65.902,288.389,65.579,289.379,65.09z"/>
		<path style="fill-rule:evenodd;clip-rule:evenodd;fill:#7B491E;" d="M269.166,74.747c1.378,0.093,3.584,2.276,3.339,3.28
			c-0.245,1.003-1.024,1.873-2.063,1.489c-1.395-0.515-3.085-1.011-3.209-2.948C267.141,75.146,268.497,75.211,269.166,74.747z"/>
		<path style="fill-rule:evenodd;clip-rule:evenodd;fill:#7B491E;" d="M171.645,42.483c0.22,1.404,0.094,2.572-1.437,2.9
			c-0.909,0.195-1.884-1.38-1.904-2.976c-0.008-0.563-0.003-1.126,0.001-1.689c0.005-0.854,0.396-1.317,1.287-1.391
			c1.064-0.089,1.697,0.534,2.012,1.366C171.817,41.254,171.645,41.961,171.645,42.483z"/>
		<path style="fill-rule:evenodd;clip-rule:evenodd;fill:#7B491E;" d="M207.617,30.487c-0.05,2.175-1.381,2.417-2.75,2.531
			c-1.224,0.103-2.178-0.612-2.06-1.73c0.147-1.414,1.035-2.9,2.533-3C206.631,28.203,207.412,29.453,207.617,30.487z"/>
		<path style="fill-rule:evenodd;clip-rule:evenodd;fill:#7B491E;" d="M300.251,79.665c0.502-0.699-0.139-1.584-0.086-2.478
			c0.043-0.707,0.212-1.428,0.949-1.398c0.617,0.025,1.448,0.543,1.2,1.327c-0.307,0.965,0.247,1.535,0.695,2.072
			c0.848,1.017,0.746,2.102,0.286,3.104c-0.121,0.263-1.249,0.295-1.784,0.09C300.429,81.968,299.961,81.049,300.251,79.665z"/>
		<path style="fill-rule:evenodd;clip-rule:evenodd;fill:#7B491E;" d="M152.303,93.796c0.523,1.332-0.883,1.618-1.543,1.543
			c-1.776-0.202-2.437-1.701-2.815-3.277c-0.337-1.402,0.969-1.765,1.719-2.138C150.397,89.56,152.304,92.338,152.303,93.796z"/>
		<path style="fill-rule:evenodd;clip-rule:evenodd;fill:#7B491E;" d="M259.178,100.9c-1.835,0.095-2.659-0.644-2.65-2.371
			c0.007-1.178,0.169-2.119,1.646-1.976c1.466,0.142,2.802,0.385,2.766,2.398C260.914,100.341,260.545,101.128,259.178,100.9z"/>
		<path style="fill-rule:evenodd;clip-rule:evenodd;fill:#7B491E;" d="M199.542,101.876c1.496,0.111,3.273,2.25,3.189,3.555
			c-0.068,1.06-0.9,1.659-1.58,1.225c-1.164-0.745-3.517-0.33-3.216-2.666C198.054,103.072,198.354,101.898,199.542,101.876z"/>
		<path style="fill-rule:evenodd;clip-rule:evenodd;fill:#7B491E;" d="M256.021,78.687c0.816,0.238,2.02,0.899,1.934,2.514
			c-0.063,1.193-1.053,2.278-2.136,2.154c-1.38-0.159-2.242-1.258-2.212-2.895C253.632,79.15,254.028,78.451,256.021,78.687z"/>
		<path style="fill-rule:evenodd;clip-rule:evenodd;fill:#7B491E;" d="M340.373,8.143c0.424,1.781-0.799,2.371-2.096,2.514
			c-0.881,0.097-1.968-0.322-1.718-1.654c0.293-1.561,0.687-3.409,2.241-3.848C339.445,4.974,340.847,6.587,340.373,8.143z"/>
		<path style="fill-rule:evenodd;clip-rule:evenodd;fill:#7B491E;" d="M171.219,32.506c-0.145-1.25,0.416-2.19,1.542-2.315
			c1.189-0.131,1.798,0.77,1.847,1.965c0.003,0.08-0.016,0.166,0.01,0.237c0.365,1.018,0.908,1.977-0.128,3.014
			c-0.577,0.578-1.006,0.26-1.385,0.017C172.042,34.742,170.954,34.016,171.219,32.506z"/>
		<path style="fill-rule:evenodd;clip-rule:evenodd;fill:#7B491E;" d="M339.938,75.166c-0.087-1.033,0.098-1.86,1.601-1.924
			c2.035-0.087,2.254,1.614,2.506,2.771c0.143,0.657-0.483,2.047-1.472,2.481C341.807,78.83,339.959,76.492,339.938,75.166z"/>
		<path style="fill-rule:evenodd;clip-rule:evenodd;fill:#7B491E;" d="M198.1,30.581c1.221,0.463,2.278,1.353,2.694,2.943
			c0.423,1.611-1.13,1.839-1.759,1.786c-1.29-0.111-2.64-0.691-2.611-2.457C196.441,31.832,196.204,30.659,198.1,30.581z"/>
		<path style="fill-rule:evenodd;clip-rule:evenodd;fill:#7B491E;" d="M179.065,40.809c-1.343-0.052-2.067-0.809-2.053-2.385
			c0.011-1.162,0.133-2.06,1.626-2.01c1.59,0.054,2.553,0.917,2.706,2.38C181.481,40.097,180.592,40.775,179.065,40.809z"/>
		<path style="fill-rule:evenodd;clip-rule:evenodd;fill:#7B491E;" d="M250.703,89.123c-0.242-1.455,0.895-2.185,1.754-2.024
			c1.268,0.238,2.544,1.09,2.611,2.703c0.048,1.141-0.713,1.851-1.775,1.858C251.671,91.671,251.003,90.515,250.703,89.123z"/>
		<path style="fill-rule:evenodd;clip-rule:evenodd;fill:#7B491E;" d="M339.599,13.632c1.026,0.085,1.823,0.729,1.774,2.065
			c-0.049,1.333-0.893,2.264-2.16,2.24c-1.391-0.026-2.253-1.023-2.156-2.477C337.145,14.135,338.042,13.584,339.599,13.632z"/>
		<path style="fill-rule:evenodd;clip-rule:evenodd;fill:#7B491E;" d="M254.885,9.749c2.127,0.063,2.674,1.586,3.006,2.963
			c0.179,0.739-0.735,1.775-1.565,1.707c-1.467-0.121-2.666-0.956-2.661-2.661C253.666,10.838,253.846,9.857,254.885,9.749z"/>
		<path style="fill-rule:evenodd;clip-rule:evenodd;fill:#7B491E;" d="M138.115,147.62c-0.201,1.092-0.721,1.935-1.906,2.071
			c-0.923,0.106-2.861-2.018-2.805-3.006c0.063-1.127,1.038-1.368,1.805-1.463C136.444,145.071,138.069,146.547,138.115,147.62z"/>
		<path style="fill-rule:evenodd;clip-rule:evenodd;fill:#7B491E;" d="M296.211,26.727c-2.277,0.104-1.931-1.706-2.282-2.833
			c-0.273-0.875,0.349-1.779,1.296-1.459c1.257,0.424,2.976,0.712,3.194,2.249C298.481,25.129,297.785,27.168,296.211,26.727z"/>
		<path style="fill-rule:evenodd;clip-rule:evenodd;fill:#7B491E;" d="M256.965,40.302c1.513-0.434,2.214,0.693,2.42,2.006
			c0.159,1.023-0.652,1.898-1.562,2.308c-0.677,0.305-2.966-2.105-2.912-2.923C254.991,40.446,255.174,40.309,256.965,40.302z"/>
		<path style="fill-rule:evenodd;clip-rule:evenodd;fill:#7B491E;" d="M172.184,40.796c-0.059-1.046,0.044-1.945,1.435-1.952
			c1.904-0.01,2.01,1.66,2.312,2.799c0.186,0.698-0.366,2.132-1.5,1.976C173.027,43.425,172.074,42.421,172.184,40.796z"/>
		<path style="fill-rule:evenodd;clip-rule:evenodd;fill:#7B491E;" d="M266.777,95.814c-0.261,1-0.109,2.201-1.766,2.212
			c-1.671,0.01-1.79-0.994-1.666-2.2c0.102-0.992-0.555-2.601,1.143-2.586C265.773,93.252,266.638,94.362,266.777,95.814z"/>
		<path style="fill-rule:evenodd;clip-rule:evenodd;fill:#7B491E;" d="M322.986,76.51c-0.49,0.746-0.386,2.142-1.975,2.095
			c-1.518-0.044-1.74-1.273-1.87-2.309c-0.129-1.026,0.33-2.382,1.378-2.409C321.809,73.854,322.722,74.939,322.986,76.51z"/>
		<path style="fill-rule:evenodd;clip-rule:evenodd;fill:#7B491E;" d="M272.999,29.875c0.095,1.463-0.188,2.264-1.386,2.168
			c-1.804-0.144-2.12-1.71-2.402-3.002c-0.256-1.171,0.759-1.341,1.739-1.355C272.834,27.659,272.557,29.272,272.999,29.875z"/>
		<path style="fill-rule:evenodd;clip-rule:evenodd;fill:#7B491E;" d="M270.607,91.359c-0.005,1.176,0.093,2.457-1.314,2.196
			c-1.159-0.214-2.071-1.096-2.099-2.55c-0.022-1.137,0.545-2.157,1.482-2.096C270.018,88.998,271.013,89.917,270.607,91.359z"/>
		<path style="fill-rule:evenodd;clip-rule:evenodd;fill:#7B491E;" d="M354.924,98.817c-0.21,0.44,0.643,1.677-0.82,1.58
			c-1.554-0.103-2.335-1.073-2.543-2.611c-0.172-1.276,0.789-2.071,1.562-1.938C354.393,96.069,355.215,97.146,354.924,98.817z"/>
		<path style="fill-rule:evenodd;clip-rule:evenodd;fill:#7B491E;" d="M224.506,129.646c-0.022,0.94-0.692,1.873-1.498,1.685
			c-1.035-0.242-2.338-0.733-2.346-2.291c-0.004-0.773,0.288-1.587,0.997-1.608C223.066,127.39,224.344,127.843,224.506,129.646z"/>
		<path style="fill-rule:evenodd;clip-rule:evenodd;fill:#7B491E;" d="M287.848,85.408c-1.768-0.027-2.384-1.267-2.574-2.289
			c-0.215-1.147,1.345-2.021,1.979-1.841c0.979,0.279,1.641,1.494,1.763,2.688C289.117,84.97,288.506,85.37,287.848,85.408z"/>
		<path style="fill-rule:evenodd;clip-rule:evenodd;fill:#7B491E;" d="M145.248,131.464c1.551-0.141,1.895,1.19,2.059,1.936
			c0.161,0.726-0.754,1.481-1.809,1.45c-1.155-0.035-1.885-0.736-1.854-1.755C143.669,132.235,143.994,131.123,145.248,131.464z"/>
		<path style="fill-rule:evenodd;clip-rule:evenodd;fill:#7B491E;" d="M290.493,26.294c0.605-0.411-0.048-0.813-0.03-1.23
			c0.034-0.761,0.086-1.638,0.944-1.626c0.607,0.008,1.597,0.207,1.515,1.367c-0.069,0.982-0.471,1.465-1.483,1.422
			c-0.325-0.014-0.677-0.545-0.988,0.022C290.45,26.25,290.493,26.294,290.493,26.294z"/>
		<path style="fill-rule:evenodd;clip-rule:evenodd;fill:#7B491E;" d="M188.669,28.47c0.006-0.619-0.15-1.223,0.875-1.293
			c1.014-0.069,1.337,0.659,1.34,1.214c0.005,0.772-0.633,1.513-1.462,1.509C188.633,29.896,188.651,29.098,188.669,28.47z"/>
		<path style="fill-rule:evenodd;clip-rule:evenodd;fill:none;" d="M345.288,136.277c-2.168,1.296-3.5,3.45-6.381,4.082
			c-3.028,0.663-5.793,0.88-8.831,0.382c-3.148-0.517-6.374,0.063-9.545,0.435c-1.628,0.191-2.619-0.618-3.325-1.826
			c-0.516-0.884-1.006-1.499-2.106-1.682c-0.403-0.067-1.544-0.222-1.243-1.054c0.233-0.646,0.396-1.727,1.413-1.729
			c1.64-0.006,2.585-1.032,3.303-2.22c1.445-2.388,4.116-1.68,6.157-2.48c2.293-0.899,4.867-1.884,7.402-0.195
			c0.979,0.652,2.108-0.073,3.185-0.019c2.608,0.131,4.892,1.728,5.705,4.177C341.476,135.518,341.729,135.63,345.288,136.277z"/>
		<path style="fill-rule:evenodd;clip-rule:evenodd;fill:none;" d="M285.104,121.23c1.967,0.487,3.883,1.347,5.992,1.071
			c1.243,3.454,4.811,3.923,7.295,5.792c1.195,0.898,0.81,2.372-0.733,2.819c-1.493,0.434-2.587,1.177-3.118,2.593
			c-0.468,1.248-1.627,1.109-2.508,1.296c-2.058,0.435-4.127,0.77-6.182,1.255c-1.774,0.419-4.175-0.236-5.445-1.709
			c-1.817-2.106-3.903-3.662-6.351-4.797c-0.987-0.457-1.888-0.982-1.937-2.067c-0.052-1.157,0.627-2.237,1.656-2.701
			c2.471-1.114,4.782-2.848,7.709-2.523C282.848,122.409,283.701,120.916,285.104,121.23z"/>
		<path style="fill-rule:evenodd;clip-rule:evenodd;fill:none;" d="M362.347,153.76c-0.198,1.106,0.191,1.955-0.9,1.931
			c-3.335-0.072-5.854,1.968-8.646,3.313c-1.396,0.673-2.555,0.929-4.23-0.013c-1.585-0.891-3.814-0.752-5.77-0.838
			c-2.384-0.105-3.947-1.736-5.824-2.789c-0.398-0.224-0.386-0.646-0.439-1.052c-0.29-2.207,2.938-7.603,4.986-8.093
			c0.433-0.104,1.09,0.143,1.396,0.901c0.474,1.179,1.566,1.479,2.79,1.305c3.717-0.528,6.716,1.811,10.117,2.528
			c1.604,0.339,2.978,1.338,4.691,1.394C361.574,152.382,362.58,152.853,362.347,153.76z"/>
		<path style="fill-rule:evenodd;clip-rule:evenodd;fill:none;" d="M89.628,145.033c0.839-0.045,1.757,0.244,1.97,0.941
			c0.229,0.75,0.516,1.855-0.254,2.494c-2.578,2.14-3.102,6.091-6.724,7.364c-1.17,0.412-7.304,1.358-8.342,0.601
			c-0.505-0.369-1.522-0.713-0.705-1.854c3.22-4.49,7.568-7.391,12.677-9.275c0.292-0.107,0.594-0.197,0.897-0.267
			C89.3,145.003,89.468,145.032,89.628,145.033z"/>
		<path style="fill-rule:evenodd;clip-rule:evenodd;fill:none;" d="M94.297,126.162c1.262-0.271,2.312-0.041,2.879,1.307
			c0.116,0.275,0.562,0.431,0.637,0.702c0.42,1.535,2.718,2.021,2.495,3.573c-0.21,1.463-2.36,1.574-3.223,2.804
			c-0.456,0.647-1.084,0.849-1.873,0.8c-0.962-0.062-1.931-0.02-2.897-0.014c-4.029,0.022-4.159-0.04-4.937-3.898
			c-0.199-0.987-0.216-1.957,1.131-2.53C90.466,128.07,91.664,125.646,94.297,126.162z"/>
		<path style="fill-rule:evenodd;clip-rule:evenodd;fill:none;" d="M70.752,90.727c-1.89,0.029-2.447-0.79-1.547-2.434
			c0.262-0.479,0.745-0.82,0.675-1.461c-0.451-4.13,2.857-5.495,5.497-7.229c1.357-0.891,3.191,1.127,3.193,3.392
			C78.574,87.067,74.94,90.662,70.752,90.727z"/>
		<path style="fill-rule:evenodd;clip-rule:evenodd;fill:none;" d="M80.896,126.147c-1.61,0.286-2.113-1.01-2.253-2.418
			c-0.151-1.515,0.048-3.062-0.055-4.585c-0.158-2.337,1.189-2.156,2.493-1.394c1.821,1.064,3.648,1.993,5.677,2.632
			c0.935,0.294,1.617,1.449,0.666,2.434C85.723,124.574,83.87,126.186,80.896,126.147z"/>
		<path style="fill-rule:evenodd;clip-rule:evenodd;fill:none;" d="M77.038,108.895c-1.459-4.143,0.954-7.173,1.978-10.455
			c0.311-0.995,1.555-2.284,2.543-0.155c0.644,1.388,2.551,1.794,2.706,3.633c0.068,0.814,0.372,1.568-0.376,2.181
			C81.722,105.868,78.932,106.648,77.038,108.895z"/>
	</g>
</g>
</svg>
