<?xml version="1.0" encoding="iso-8859-1"?>
<!-- Generator: Adobe Illustrator 16.0.0, SVG Export Plug-In . SVG Version: 6.00 Build 0)  -->
<!DOCTYPE svg PUBLIC "-//W3C//DTD SVG 1.1//EN" "http://www.w3.org/Graphics/SVG/1.1/DTD/svg11.dtd">
<svg version="1.1" id="Layer_1" xmlns="http://www.w3.org/2000/svg" xmlns:xlink="http://www.w3.org/1999/xlink" x="0px" y="0px"
	 width="401.137px" height="169.742px" viewBox="0 0 401.137 169.742" style="enable-background:new 0 0 401.137 169.742;"
	 xml:space="preserve">
<g>
	<g>
		<path style="fill:none;" d="M200.582,169.186c-65.892,0-131.783-0.012-197.675,0.056c-1.99,0.002-2.383-0.391-2.381-2.381
			c0.069-54.651,0.069-109.303,0-163.954c-0.002-1.99,0.391-2.381,2.381-2.38c131.783,0.061,263.566,0.061,395.349,0
			c1.99,0,2.384,0.39,2.381,2.38c-0.069,54.651-0.069,109.303,0,163.953c0.003,1.99-0.39,2.384-2.381,2.382
			C332.364,169.174,266.474,169.186,200.582,169.186z M19.713,83.76c0.069-1.132,0.974-2.105,0.635-3.315
			c-0.559-1.995-1.056-3.884-3.217-5.019c-1.545-0.811-2.622-0.231-3.689,0.439c-1.882,1.183-2.463,4.706-1.296,7.01
			c1.227,2.422,3.045,3.256,5.638,2.074c0.409-0.186,0.956-0.069,1.438-0.093c-0.202,0.421-0.511,0.823-0.585,1.266
			c-0.325,1.925,3.454,7.136,5.384,7.469c1.38,0.237,2.484-0.56,2.608-1.683c0.218-1.969,0.939-3.857,0.735-5.909
			c-0.271-2.717-2.535-4.286-5.062-3.316C21.427,83.018,20.848,84.061,19.713,83.76z M345.364,144.218
			c0.428-3.757,0.087-4.355-3.39-5.191c-1.529-0.367-2.89,0.656-4.271,0.914c-2.638,0.493-1.881,1.973-1.637,3.406
			c0.324,1.899,2.473,2.201,3.216,1.701c2.033-1.371,4.104-0.649,6.138-0.882c-0.429,0.51-0.759,1.285-1.303,1.488
			c-4.601,1.719-6.961,5.593-9.469,9.415c-1.365,2.083-1.424,4.257-0.689,6.341c0.692,1.963,2.737,1.295,4.318,1.385
			c1.604,0.091,3.209-0.215,4.805,0.499c0.876,0.393,2.108,0.126,2.213-1.15c0.256-3.157,1.507-1.651,2.574-0.582
			c0.902,0.904,1.426,0.737,1.741-0.405c0.938-3.396,2.996-5.903,5.97-7.736c0.581-0.357,0.917-0.959,0.818-1.729
			c-0.291-2.279,1.233-3.65,2.562-5.141c1.036-1.163,1.882-1.673,3.346-0.37c0.911,0.812,2.132,1.616,3.746,0.885
			c2.928-1.327,4.199-3.235,4.317-6.847c0.055-1.679-0.428-2.548-2.28-2.46c-1.162,0.056-2.416,0.319-3.613-0.306
			c0.459-1.121,1.158-1.609,2.047-2.085c1.789-0.957,1.884-2.48,0.89-4.123c-1.002-1.657-2.38-2.094-4.142-1.205
			c-1.689,0.853-3.211,2.082-4.853,2.879c-4.319,2.094-7.37,5.523-10.366,9C347.227,142.877,346.449,143.665,345.364,144.218z
			 M373.921,104c-2.117,2.9-1.838,4.46,1.134,6.2c0.557,0.326,0.871,0.661,1.193,1.335c1.753,3.675,3.512,7.413,7.215,9.659
			c-1.507,1.88-1.755,2.759-1.485,5.354c0.156,1.496,3.061,3.984,4.243,3.635c2.262-0.669,3.817-5.277,2.597-7.408
			c-0.598-1.042-1.603-1.951-1.091-3.466c1.413-4.187-2.115-9.381-6.525-9.356c-2.213,0.013-2.407-0.901-2.053-2.576
			c0.7-3.297-0.497-4.464-3.641-3.564c-0.535,0.153-1.107,0.175-1.662,0.257c-0.623-1.38,0.512-1.734,1.344-2.149
			c1.408-0.702,2.934-1.184,4.304-1.948c4.658-2.599,8.641-5.9,10.424-11.162c0.902-2.66,0.046-4.591-2.076-5.055
			c-3.329-0.729-6.535-0.062-9.289,1.756c-4.806,3.173-8.645,7.525-13.02,11.219c-2.285,1.93-3.945,4.862-7.063,5.605
			c-3.862,0.921-6.521,2.92-7.889,6.738c-0.841,2.343-1.653,0.919-2.523-0.184c-1.635-2.072-4.141-1.714-4.883,0.789
			c-0.353,1.189-0.69,2.735,0.361,3.849c1.142,1.209,0.496,1.786-0.459,2.655c-1.954,1.78-4.235,2.973-6.53,4.209
			c-2.149,1.159-2.519,3.273-2.097,5.431c0.256,1.304,1.159,2.569,2.7,2.364c2.55-0.34,5.175,0.298,7.646-1.382
			c2.747-1.865,6.207-2.529,8.701-4.984c4.938-4.858,9.951-9.644,14.985-14.403C370.052,105.935,371.446,104.079,373.921,104z
			 M143.023,108.981c-0.002,4.85,3.656,8.431,8.275,8.475c3.08,0.029,5.842-1.377,8.823-1.829c1.517-0.229,2.359-0.031,3.077,1.354
			c2.314,4.464,5.245,8.098,11.039,7.442c0.918-0.104,1.901,0.628,1.229,1.155c-1.47,1.152-0.692,2.927-1.766,4.249
			c-1.004,1.237-1.075,3.313-0.167,4.993c0.79,1.461,2.265,1.056,3.572,1.274c2.35,0.393,3.417-1.655,4.988-2.547
			c3.513-1.995,7.134-4.039,9.8-7.197c1.684-1.994,3.318-3.976,5.506-5.453c2.152-1.454,3.484-3.379,3.196-6.14
			c-0.047-0.446-0.082-0.912,0.322-1.32c1.557-1.574,6.649-2.427,8.604-1.238c1.864,1.134,2.98,0.455,4.459-0.884
			c2.311-2.091,4.59-4.188,7.542-5.625c5.225-2.543,11.165-3.318,15.993-6.784c4.561-3.274,8.869-2.617,12.875,1.145
			c0.961,0.903,2.452,0.963,3.104,0.097c1.636-2.175,4.51-1.829,6.381-3.523c0.537-0.485,1.835-1.065,2.949-0.667
			c3.247,1.16,6.891,1.47,9.53,3.964c1.982,1.875,4.953,0.46,6.812,2.262c1.437,1.393,2.047,0.587,2.729-0.677
			c2.211-4.095,4.837-7.836,9.035-10.161c1.734-0.96,3.891-1.33,4.433-3.787c0.155-0.706,1.055-0.954,1.933-0.949
			c4.769,0.029,6.925-2.224,6.766-7.019c-0.044-1.316,0.11-2.602-0.479-3.934c-0.625-1.416,0.428-2.262,1.73-2.76
			c3.575-1.368,7.336-1.86,10.87-3.87c2.362-1.343,5.108-2.563,7.623-3.933c4.434-2.414,7.002-5.574,6.062-11.309
			c-0.455-2.782,1.336-5.927,2.079-8.915c0.154-0.622,0.6-0.563,1.052-0.713c2.703-0.9,4.081-4.786,0.61-7.094
			c-1.566-1.042-1.678-1.914-1.621-3.266c0.095-2.235-0.897-4.26-1.831-6.048c-1.238-2.371-4.248-2.422-6.533-2.642
			c-6.553-0.632-13.17,0.521-19.757-1.134c-3.031-0.761-6.232,0.772-9.191,1.971c-0.663,0.269-1.325,0.361-1.926,0.039
			c-0.214-0.115-0.377-0.747-0.258-0.995c0.942-1.95,1.29-4.324,3.429-5.481c4.2-2.271,7.117-5.614,8.895-10.042
			c0.464-1.155,0.801-2.301-0.076-3.168c-0.853-0.844-1.996-1.3-3.392-0.92c-3.732,1.015-7.132,2.578-10.269,4.908
			c-2.249,1.671-4.887,2.81-7.31,4.256c-4.922,2.938-9.406,6.277-12.962,10.979c-2.163,2.86-4.213,6.191-8.322,7.208
			c-2.613,0.646-5.149,0.17-7.708,0.406c-5.067,0.466-9.885,1.544-13.557,5.433c-0.428,0.453-0.839,0.373-1.271,0.376
			c-2.713,0.023-5.604,0.611-8.099-0.126c-4.232-1.251-7.453,0.701-10.942,2.176c-4.393,1.856-8.208,4.785-12.708,6.537
			c-2.359,0.919-5.279,1.267-7.01,3.37c-4.725,5.742-11.777,8.066-17.545,12.259c-0.149,0.108-0.354,0.143-0.536,0.199
			c-4.606,1.412-7.394,4.437-8.095,9.244c-0.231,1.582-0.972,2.435-2.624,2.405c-1.259-0.022-2.537-0.14-3.775,0.02
			c-5.447,0.699-10.851,1.282-14.238,6.718c-1.129,1.812-1.187,2.886,0.021,4.367c0.426,0.522,1.305,0.742,1.059,1.761
			c-0.734,3.027-1.071,6.21-3.741,8.375c-2.736,2.218-4.496,5.21-6.457,8.062C144.195,105.852,142.248,106.905,143.023,108.981z
			 M60.09,92.847c0.355-3.364-2.014-5.913-2.332-9.085c-0.356-3.559-3.908-4.641-6.088-2.001c-0.454,0.549-1.115,0.618-1.719,0.874
			c-1.543,0.656-3.209,1.387-3.429,3.406c-0.252,2.313,1.605,3.025,3.136,3.939c1.264,0.754,3.104,0.649,3.775,2.261
			c0.738,1.771,2.464,2.347,3.851,2.393c2.043,0.068,2.049,0.957,2.05,2.462c0,2.13,2.849,3.849,4.729,2.849
			c1.533-0.816,2.313-2.231,2.208-4.017c-0.102-1.728-0.331-3.568-1.982-4.443C62.755,90.672,61.351,91.505,60.09,92.847z
			 M33.724,89.929c-0.064,1.499,0.179,3.151,1.685,3.567c2.024,0.559,4.693,2.274,6.173,0.335c1.288-1.687,2.821-3.681,3.156-6.02
			c0.237-1.653-0.499-2.784-2.311-2.921c-0.66-0.05-1.272-0.178-1.922-0.363C36.975,83.518,33.677,86.202,33.724,89.929z
			 M89.535,75.298c-0.002,2.211-0.002,2.211,0.841,3.176c1.621,1.854,4.411,1.755,7.532,0.115c1.983-1.042,2.845-2.634,3.21-4.633
			c0.302-1.656-1.241-3.484-2.551-2.889c-1.726,0.785-3.41,0.333-5.099,0.417C90.471,71.63,89.537,72.452,89.535,75.298z
			 M119.187,59.862c-0.012,3.089,1.771,4.441,4.645,3.483c0.969-0.322,1.918-0.714,2.849-1.136c1.703-0.772,2.816-6.76,1.482-8.033
			c-0.323-0.308-0.802-0.523-1.246-0.625C123.652,52.806,119.199,56.458,119.187,59.862z M118.604,37.745
			c-0.006,2.259,2.304,5.131,4.237,5.269c1.5,0.106,4.451-3.8,4.484-5.936c0.046-2.954-1.292-4.538-3.818-4.519
			C120.999,32.578,118.612,35.102,118.604,37.745z M99.736,48.023c-1.331-2.248-2.562-4.378-3.867-6.462
			c-0.142-0.227-0.695-0.227-1.064-0.275c-2.452-0.323-5.101,2.122-5.269,4.852c-0.088,1.44,0.011,2.474,1.933,2.85
			c1.532,0.299,3.322,0.494,4.569,1.19C98.989,51.826,98.706,49.353,99.736,48.023z M23.256,68.383
			c0.013-2.046-1.702-3.9-3.56-3.845c-2.209,0.065-5.682,3.119-5.743,5.05c-0.076,2.412,2.086,4.269,4.947,4.249
			C21.005,73.822,23.238,71.024,23.256,68.383z M75.583,79.665c-0.178,1.424,0.566,3.203,2.096,2.742
			c2.262-0.68,4.779-0.652,6.821-2.071c1.27-0.883,1.068-2.194,0.915-3.388c-0.143-1.116-0.926-1.829-2.123-1.944
			c-0.562-0.055-1.144-0.035-1.686-0.171C77.248,73.738,75.545,75.03,75.583,79.665z M379.582,131.949
			c-2.208,0.62-3.547,2.816-5.089,4.843c-0.703,0.926-0.744,1.479-0.086,2.499c2.792,4.326,4.423,4.317,6.978-0.194
			c0.275-0.486,0.702-0.89,0.952-1.386C383.666,135.068,382.51,132.107,379.582,131.949z M106.395,26.396
			c-0.024-2.662-1.913-4.903-4.115-4.885c-1.354,0.011-4.818,4.393-4.519,6.253c0.264,1.644,0.75,3.629,3.157,3.625
			C102.984,31.386,106.412,28.24,106.395,26.396z M69.185,79.465c0.013-2.288-2.562-3.896-4.696-2.965
			c-2.518,1.098-3.726,3.47-4.905,5.668c-0.59,1.101,0.522,2.429,1.481,3.265c0.981,0.854,1.955,0.798,2.979-0.278
			c1.307-1.371,2.847-2.52,4.287-3.762C68.945,80.863,69.361,80.25,69.185,79.465z M130.238,48.008
			c0.281-2.988-0.356-4.167-2.378-4.402c-3.136-0.365-5.462,1.259-5.766,4.023c-0.237,2.168,1.539,4.501,3.575,4.695
			C128.575,52.602,129.926,51.326,130.238,48.008z M107.677,30.817c-1.848-0.263-2.89,1.142-4.171,2.034
			c-2,1.392-1.427,3.198,0.16,3.958c1.79,0.857,3.155,2.133,4.663,3.264c0.943,0.708,1.603,0.858,2.479,0.009
			c0.789-0.762,1.059-1.429,0.44-2.503c-0.467-0.814-1.001-1.594-0.485-2.869C111.58,32.7,109.94,30.864,107.677,30.817z
			 M61.225,43.617c-2.707-0.094-5.319,1.766-5.41,3.607c-0.11,2.235,2.117,4.453,4.538,4.517c1.274,0.035,4.374-3.869,4.136-5.498
			C64.205,44.298,62.479,43.971,61.225,43.617z M86.603,35.472c-0.8,0-1.49-0.205-1.941,0.037c-1.489,0.797-3.73,0.488-4.38,2.51
			c-0.62,1.927,0.4,3.538,2.027,4.312c1.987,0.944,3.47-0.92,5.181-1.555c1.605-0.595,2.623-1.797,2.414-3.37
			C89.657,35.547,88.098,35.147,86.603,35.472z M330.232,141.153c-0.06-2.891-0.845-3.393-4.839-3.38
			c-2.082,0.006-3.284,0.83-3.294,2.996c-0.012,2.616,1.938,4.675,4.283,4.58C328.734,145.252,330.282,143.566,330.232,141.153z
			 M317.441,130.627c0.034,3.157,1.758,5.469,4.104,5.408c2.28-0.059,3.479-1.254,3.452-3.57c-0.03-2.611-2.533-5.127-5.31-5.087
			C317.655,127.408,317.319,128.937,317.441,130.627z M49.417,50.019c0.12-2.088-0.898-2.996-2.949-2.935
			c-1.89,0.056-5.701,2.814-5.759,4.23c-0.033,0.79,3.985,3.83,5.136,3.886C47.265,55.269,49.418,52.145,49.417,50.019z
			 M36.631,54.854c0.415-2.299-1.238-3.347-3.222-3.62c-2.259-0.31-4.352,1.975-4.339,4.287c0.006,0.987,2.951,3.725,4.033,3.748
			C34.599,59.301,36.603,56.92,36.631,54.854z M115.725,69.068c-0.004-1.732-2.207-4.074-3.852-3.921
			c-2.264,0.211-3.149,2.088-3.518,3.855c-0.437,2.093,1.91,4.552,3.897,4.188C114.353,72.806,115.628,71.326,115.725,69.068z
			 M73.246,40.117c-1.982-0.007-4.555,1.857-4.639,3.361c-0.1,1.783,3.014,4.172,5.581,3.99c1.839-0.13,2.259-1.925,2.452-3.313
			C76.919,42.149,75.014,40.123,73.246,40.117z M23.742,61.703c1.95-0.832,3.431-2.355,4.834-3.938c0.645-0.727,0-1.411-0.505-1.853
			c-1.097-0.958-2.605-1.498-3.604-0.308c-1.07,1.273-3.768,1.755-2.583,4.446C22.264,60.912,22.2,62.022,23.742,61.703z
			 M87.744,58.15c2.847,0.144,3.018-2.198,3.44-3.802c0.565-2.146-1.339-2.996-2.975-3.1c-2.469-0.157-2.264,2.37-2.511,3.738
			C85.521,55.968,85.565,58.221,87.744,58.15z M338.149,115.698c2.443,0.001,4.259-1.51,3.883-3.454
			c-0.248-1.284-2.119-2.198-2.938-1.985c-1.714,0.446-4.21,0.82-4.132,3.379C335.021,115.592,336.707,115.852,338.149,115.698z
			 M322.051,121.42c-0.004,3.652,2.898,2.825,4.329,3.841c0.42,0.298,2.334-1.246,1.948-2.228c-0.646-1.645-1.293-3.836-3.714-3.812
			C322.852,119.239,321.98,120.331,322.051,121.42z M101.803,34.951c-0.253-1.932-1.689-2.296-3.071-2.34
			c-1.431-0.045-2.33,0.957-2.176,2.385c0.164,1.52,0.814,3.236,2.507,3.273C101.007,38.312,101.307,36.37,101.803,34.951z
			 M47.083,79.952c0.396-1.837-1.151-2.361-2.492-2.546c-1.667-0.23-1.554,1.214-1.573,2.372c-0.028,1.693,0.702,2.735,2.461,2.761
			C47.158,82.564,47.129,81.323,47.083,79.952z M140.685,43.123c-0.092-0.139-0.282-0.483-0.316-0.468
			c-0.401,0.174-0.78,0.402-1.164,0.616c0.091,0.104,0.183,0.296,0.275,0.298C139.899,43.571,140.401,43.769,140.685,43.123z
			 M5.262,96.979c0.303-0.212,0.512-0.295,0.507-0.364c-0.024-0.338-0.104-0.672-0.165-1.008c-0.114,0.071-0.317,0.133-0.327,0.216
			C5.239,96.154,5.262,96.492,5.262,96.979z"/>
		<path style="fill-rule:evenodd;clip-rule:evenodd;fill:#7B491E;" d="M143.023,108.981c-0.776-2.076,1.172-3.129,2.235-4.675
			c1.961-2.852,3.72-5.844,6.457-8.062c2.67-2.165,3.007-5.348,3.741-8.375c0.247-1.019-0.633-1.238-1.059-1.761
			c-1.207-1.481-1.15-2.555-0.021-4.367c3.387-5.437,8.791-6.019,14.238-6.718c1.239-0.159,2.517-0.042,3.775-0.02
			c1.652,0.03,2.393-0.823,2.624-2.405c0.701-4.808,3.489-7.833,8.095-9.244c0.182-0.056,0.387-0.091,0.536-0.199
			c5.768-4.193,12.82-6.517,17.545-12.259c1.731-2.103,4.651-2.451,7.01-3.37c4.5-1.752,8.315-4.681,12.708-6.537
			c3.489-1.475,6.71-3.427,10.942-2.176c2.495,0.737,5.386,0.149,8.099,0.126c0.433-0.003,0.844,0.076,1.271-0.376
			c3.672-3.889,8.489-4.967,13.557-5.433c2.559-0.235,5.095,0.24,7.708-0.406c4.109-1.017,6.159-4.348,8.322-7.208
			c3.556-4.701,8.04-8.04,12.962-10.979c2.423-1.446,5.061-2.585,7.31-4.256c3.137-2.33,6.536-3.894,10.269-4.908
			c1.396-0.379,2.539,0.077,3.392,0.92c0.877,0.867,0.54,2.014,0.076,3.168c-1.777,4.428-4.694,7.771-8.895,10.042
			c-2.139,1.157-2.486,3.532-3.429,5.481c-0.119,0.248,0.044,0.88,0.258,0.995c0.601,0.322,1.263,0.23,1.926-0.039
			c2.959-1.199,6.16-2.732,9.191-1.971c6.587,1.655,13.204,0.501,19.757,1.134c2.285,0.22,5.295,0.271,6.533,2.642
			c0.934,1.788,1.926,3.813,1.831,6.048c-0.057,1.353,0.055,2.224,1.621,3.266c3.471,2.308,2.093,6.193-0.61,7.094
			c-0.452,0.15-0.897,0.091-1.052,0.713c-0.743,2.988-2.534,6.132-2.079,8.915c0.939,5.734-1.629,8.895-6.062,11.309
			c-2.515,1.369-5.261,2.59-7.623,3.933c-3.534,2.01-7.295,2.502-10.87,3.87c-1.303,0.499-2.355,1.345-1.73,2.76
			c0.589,1.333,0.435,2.618,0.479,3.934c0.159,4.795-1.997,7.048-6.766,7.019c-0.878-0.005-1.777,0.243-1.933,0.949
			c-0.542,2.457-2.698,2.827-4.433,3.787c-4.198,2.325-6.824,6.066-9.035,10.161c-0.682,1.264-1.292,2.069-2.729,0.677
			c-1.859-1.802-4.83-0.387-6.812-2.262c-2.64-2.494-6.283-2.804-9.53-3.964c-1.114-0.398-2.412,0.182-2.949,0.667
			c-1.871,1.694-4.745,1.349-6.381,3.523c-0.651,0.866-2.143,0.807-3.104-0.097c-4.006-3.762-8.314-4.419-12.875-1.145
			c-4.828,3.466-10.769,4.241-15.993,6.784c-2.952,1.437-5.231,3.534-7.542,5.625c-1.479,1.339-2.595,2.018-4.459,0.884
			c-1.954-1.188-7.047-0.336-8.604,1.238c-0.403,0.408-0.369,0.874-0.322,1.32c0.288,2.761-1.044,4.686-3.196,6.14
			c-2.188,1.478-3.822,3.459-5.506,5.453c-2.666,3.158-6.287,5.202-9.8,7.197c-1.57,0.892-2.638,2.939-4.988,2.547
			c-1.307-0.219-2.782,0.187-3.572-1.274c-0.907-1.68-0.837-3.756,0.167-4.993c1.074-1.322,0.295-3.097,1.766-4.249
			c0.672-0.527-0.311-1.259-1.229-1.155c-5.794,0.655-8.725-2.979-11.039-7.442c-0.718-1.385-1.56-1.583-3.077-1.354
			c-2.981,0.452-5.743,1.858-8.823,1.829C146.679,117.412,143.021,113.831,143.023,108.981z M251.522,50.068
			c-1.046,0.668-2.727-0.597-3.154,0.439c-1.706,4.127-5.436,4.011-8.85,4.746c-3.13,0.673-6.691,0.195-8.57,4.028
			c-0.772,1.576-3.024,1.619-4.697,0.919c-3.574-1.494-8.943-0.083-11.125,3.177c-2.6,3.883-7.688,3.024-10.893,5.762
			c-0.158,0.135-0.819-0.468-1.256-0.485c-1.722-0.066-3.775-1.255-4.555,1.709c-0.374,1.419-2.022,1.096-3.265,1.178
			c-0.889,0.059-2.145-0.607-2.621,0.462c-1.333,2.999-4.589,4.711-5.298,8.079c-0.179,0.853-0.804,1.389-1.405,1.766
			c-4.604,2.888-8.633,6.667-13.68,8.863c-1.153,0.502-1.934,1.238-1.8,2.601c0.135,1.377-0.278,2.576-0.867,3.822
			c-1.189,2.516-1.258,5.149,1.748,6.228c2.597,0.932,4.199,2.661,5.711,4.693c0.547,0.734,1.397,0.918,2.073,0.612
			c2.207-0.994,4.673-1.599,6.277-3.623c0.881-1.111,1.841-1.817,3.332-2.204c5.856-1.518,10.5-4.794,13.307-10.295
			c3.393-6.646,8.936-10.731,15.739-13.278c1.09-0.408,2.407-0.611,3.538,0.373c2.108,1.834,2.024,3.446-0.793,5.163
			c-1.546,0.942-1.869,2.481-1.417,3.447c0.646,1.38,1.907,0.366,3.137-0.054c2.18-0.743,4.312-1.987,6.835-1.607
			c1.382,0.209,2.613-0.242,3.991-0.979c4.403-2.35,8.425-5.81,14.127-4.93c1.741,0.27,3.654-1.195,5.433-2.052
			c4.627-2.228,9.313-3.882,14.687-2.655c2.372,0.541,4.987-0.046,6.225,2.876c0.107,0.252,1.238,0.396,1.618,0.155
			c3.45-2.188,7.624-2.478,11.197-4.367c1.28-0.676,1.855-1.614,2.087-2.802c0.855-4.418,6.562-10.343,10.91-10.721
			c3.313-0.289,6.033-2.002,8.999-3.085c1.527-0.557,2.786-1.803,1.428-3.995c-0.802-1.293-0.888-3.019-0.996-4.649
			c-0.225-3.391,0.265-6.467,3.299-8.734c-4.757-0.264-9.458,1.48-12.866-2.866c-0.694-0.885-1.438-0.084-1.906,0.263
			c-2.773,2.058-5.817,2.992-9.269,2.656c-5.024-0.49-9.459,0.559-13.402,4.092c-2.493,2.234-6.56,3.549-7.386,6.667
			c-1.254,4.73-4.445,5.989-8.235,7.462c-3.104,1.207-5.434,3.843-8.28,5.64c-3.951,2.494-8.074,3.594-12.389,4.747
			c-1.913,0.512-3.568,0.865-4.373-1.116c-0.816-2.013,0.254-3.589,2.044-4.831C241.497,59.493,246.424,54.82,251.522,50.068z"/>
		<path style="fill-rule:evenodd;clip-rule:evenodd;fill:#7B491E;" d="M373.923,104c-2.477,0.079-3.871,1.936-5.44,3.418
			c-5.034,4.76-10.047,9.545-14.985,14.403c-2.494,2.455-5.954,3.119-8.701,4.984c-2.472,1.68-5.097,1.042-7.646,1.382
			c-1.541,0.205-2.444-1.061-2.7-2.364c-0.422-2.157-0.053-4.271,2.097-5.431c2.295-1.236,4.576-2.429,6.53-4.209
			c0.955-0.869,1.601-1.446,0.459-2.655c-1.052-1.113-0.714-2.659-0.361-3.849c0.742-2.503,3.248-2.861,4.883-0.789
			c0.87,1.103,1.683,2.526,2.523,0.184c1.368-3.818,4.026-5.817,7.889-6.738c3.118-0.743,4.778-3.676,7.063-5.605
			c4.375-3.693,8.214-8.046,13.02-11.219c2.754-1.819,5.96-2.485,9.289-1.756c2.122,0.464,2.979,2.395,2.076,5.055
			c-1.783,5.262-5.766,8.563-10.424,11.162c-1.37,0.765-2.896,1.246-4.304,1.948c-0.832,0.415-1.967,0.77-1.344,2.149L373.923,104z"
			/>
		<path style="fill-rule:evenodd;clip-rule:evenodd;fill:#7B491E;" d="M345.366,144.217c1.083-0.553,1.86-1.34,2.687-2.299
			c2.996-3.477,6.047-6.906,10.366-9c1.642-0.797,3.163-2.026,4.853-2.879c1.762-0.889,3.14-0.452,4.142,1.205
			c0.994,1.643,0.899,3.166-0.89,4.123c-0.889,0.476-1.588,0.964-2.047,2.085c1.197,0.625,2.451,0.361,3.613,0.306
			c1.853-0.088,2.335,0.781,2.28,2.46c-0.118,3.611-1.39,5.52-4.317,6.847c-1.614,0.731-2.835-0.073-3.746-0.885
			c-1.464-1.303-2.31-0.793-3.346,0.37c-1.328,1.49-2.853,2.861-2.562,5.141c0.099,0.771-0.237,1.372-0.818,1.729
			c-2.974,1.833-5.032,4.34-5.97,7.736c-0.315,1.143-0.839,1.31-1.741,0.405c-1.067-1.069-2.318-2.575-2.574,0.582
			c-0.104,1.276-1.337,1.543-2.213,1.15c-1.596-0.714-3.201-0.408-4.805-0.499c-1.581-0.09-3.626,0.578-4.318-1.385
			c-0.734-2.084-0.676-4.258,0.689-6.341c2.508-3.822,4.868-7.696,9.469-9.415c0.544-0.203,0.874-0.979,1.303-1.488L345.366,144.217
			z"/>
		<path style="fill-rule:evenodd;clip-rule:evenodd;fill:#7B491E;" d="M373.846,104.07c0.555-0.082,1.127-0.104,1.662-0.257
			c3.144-0.899,4.341,0.268,3.641,3.564c-0.354,1.675-0.16,2.589,2.053,2.576c4.41-0.024,7.938,5.17,6.525,9.356
			c-0.512,1.515,0.493,2.424,1.091,3.466c1.221,2.131-0.335,6.739-2.597,7.408c-1.183,0.35-4.087-2.139-4.243-3.635
			c-0.27-2.596-0.021-3.475,1.485-5.354c-3.703-2.246-5.462-5.984-7.215-9.659c-0.322-0.674-0.637-1.009-1.193-1.335
			c-2.972-1.74-3.251-3.3-1.134-6.201C373.923,104,373.846,104.07,373.846,104.07z"/>
		<path style="fill-rule:evenodd;clip-rule:evenodd;fill:#7B491E;" d="M60.09,92.847c1.26-1.342,2.665-2.175,4.199-1.362
			c1.651,0.875,1.88,2.716,1.982,4.443c0.105,1.785-0.675,3.2-2.208,4.017c-1.88,1-4.729-0.719-4.729-2.849
			c0-1.505-0.007-2.394-2.05-2.462c-1.387-0.046-3.112-0.622-3.851-2.393c-0.672-1.611-2.511-1.507-3.775-2.261
			c-1.531-0.914-3.389-1.626-3.136-3.939c0.22-2.019,1.886-2.75,3.429-3.406c0.604-0.256,1.265-0.325,1.719-0.874
			c2.181-2.64,5.732-1.558,6.088,2.001C58.076,86.934,60.445,89.483,60.09,92.847z"/>
		<path style="fill-rule:evenodd;clip-rule:evenodd;fill:#7B491E;" d="M33.723,89.93c-0.045-3.729,3.252-6.412,6.783-5.402
			c0.65,0.186,1.263,0.313,1.922,0.363c1.812,0.137,2.547,1.268,2.311,2.921c-0.335,2.339-1.868,4.333-3.156,6.02
			c-1.48,1.939-4.149,0.224-6.173-0.335C33.903,93.081,33.66,91.428,33.723,89.93z"/>
		<path style="fill-rule:evenodd;clip-rule:evenodd;fill:#7B491E;" d="M89.535,75.298c0.002-2.846,0.937-3.668,3.934-3.814
			c1.689-0.083,3.374,0.369,5.099-0.417c1.31-0.595,2.853,1.233,2.551,2.889c-0.366,1.999-1.227,3.59-3.21,4.633
			c-3.121,1.64-5.912,1.738-7.532-0.115C89.533,77.509,89.533,77.509,89.535,75.298z"/>
		<path style="fill-rule:evenodd;clip-rule:evenodd;fill:#7B491E;" d="M119.187,59.862c0.013-3.404,4.466-7.056,7.73-6.311
			c0.443,0.101,0.922,0.316,1.246,0.625c1.334,1.273,0.221,7.261-1.482,8.033c-0.931,0.422-1.88,0.814-2.849,1.136
			C120.957,64.303,119.175,62.951,119.187,59.862z"/>
		<path style="fill-rule:evenodd;clip-rule:evenodd;fill:#7B491E;" d="M19.713,83.76c1.135,0.301,1.714-0.742,2.588-1.078
			c2.527-0.97,4.791,0.599,5.062,3.316c0.205,2.052-0.517,3.94-0.735,5.909c-0.124,1.123-1.228,1.92-2.608,1.683
			c-1.93-0.333-5.709-5.544-5.384-7.469c0.075-0.442,0.384-0.845,0.585-1.266l-0.065,0.066c0.547-0.245,1.192-0.44,0.622-1.244
			L19.713,83.76z"/>
		<path style="fill-rule:evenodd;clip-rule:evenodd;fill:#7B491E;" d="M19.222,84.856c-0.483,0.023-1.03-0.093-1.438,0.093
			c-2.593,1.183-4.412,0.349-5.638-2.074c-1.167-2.304-0.585-5.827,1.296-7.01c1.067-0.67,2.144-1.25,3.689-0.439
			c2.162,1.135,2.658,3.024,3.217,5.019c0.339,1.209-0.566,2.183-0.635,3.315l0.065-0.082c-0.741,0.148-0.548,0.762-0.622,1.244
			L19.222,84.856z"/>
		<path style="fill-rule:evenodd;clip-rule:evenodd;fill:#7B491E;" d="M118.604,37.745c0.007-2.643,2.394-5.167,4.903-5.186
			c2.525-0.019,3.864,1.565,3.818,4.519c-0.034,2.136-2.985,6.042-4.484,5.936C120.908,42.875,118.599,40.003,118.604,37.745z"/>
		<path style="fill-rule:evenodd;clip-rule:evenodd;fill:#7B491E;" d="M99.736,48.023c-1.031,1.329-0.748,3.802-3.699,2.154
			c-1.247-0.697-3.037-0.891-4.569-1.19c-1.922-0.376-2.021-1.41-1.933-2.85c0.168-2.729,2.817-5.174,5.269-4.852
			c0.37,0.049,0.923,0.048,1.064,0.275C97.174,43.646,98.406,45.775,99.736,48.023z"/>
		<path style="fill-rule:evenodd;clip-rule:evenodd;fill:#7B491E;" d="M23.256,68.383c-0.018,2.642-2.251,5.439-4.355,5.454
			c-2.861,0.021-5.023-1.836-4.947-4.249c0.061-1.932,3.534-4.985,5.743-5.05C21.554,64.482,23.269,66.336,23.256,68.383z"/>
		<path style="fill-rule:evenodd;clip-rule:evenodd;fill:#7B491E;" d="M75.583,79.665c-0.039-4.634,1.665-5.926,6.023-4.833
			c0.542,0.136,1.123,0.117,1.686,0.171c1.196,0.116,1.979,0.828,2.123,1.944c0.153,1.194,0.355,2.505-0.915,3.388
			c-2.042,1.419-4.559,1.391-6.821,2.071C76.149,82.867,75.406,81.088,75.583,79.665z"/>
		<path style="fill-rule:evenodd;clip-rule:evenodd;fill:#7B491E;" d="M379.582,131.949c2.928,0.158,4.084,3.119,2.755,5.762
			c-0.25,0.496-0.677,0.899-0.952,1.386c-2.555,4.512-4.186,4.521-6.978,0.194c-0.658-1.021-0.617-1.573,0.086-2.499
			C376.035,134.765,377.374,132.569,379.582,131.949z"/>
		<path style="fill-rule:evenodd;clip-rule:evenodd;fill:#7B491E;" d="M106.395,26.396c0.018,1.844-3.41,4.99-5.477,4.993
			c-2.407,0.004-2.893-1.981-3.157-3.625c-0.299-1.86,3.165-6.242,4.519-6.253C104.482,21.494,106.37,23.735,106.395,26.396z"/>
		<path style="fill-rule:evenodd;clip-rule:evenodd;fill:#7B491E;" d="M69.185,79.465c0.176,0.785-0.24,1.397-0.854,1.927
			c-1.44,1.243-2.98,2.391-4.287,3.762c-1.025,1.076-1.999,1.133-2.979,0.278c-0.959-0.836-2.071-2.165-1.481-3.265
			c1.179-2.198,2.388-4.57,4.905-5.668C66.623,75.569,69.198,77.178,69.185,79.465z"/>
		<path style="fill-rule:evenodd;clip-rule:evenodd;fill:#7B491E;" d="M130.238,48.008c-0.312,3.317-1.663,4.594-4.569,4.316
			c-2.036-0.194-3.812-2.527-3.575-4.695c0.303-2.765,2.629-4.388,5.766-4.023C129.882,43.841,130.519,45.02,130.238,48.008z"/>
		<path style="fill-rule:evenodd;clip-rule:evenodd;fill:#7B491E;" d="M107.677,30.815c2.264,0.049,3.903,1.885,3.087,3.896
			c-0.517,1.275,0.018,2.055,0.485,2.869c0.618,1.075,0.348,1.741-0.44,2.503c-0.877,0.849-1.536,0.698-2.479-0.009
			c-1.508-1.131-2.873-2.407-4.663-3.264c-1.587-0.76-2.16-2.567-0.16-3.958C104.787,31.959,105.829,30.554,107.677,30.815z"/>
		<path style="fill-rule:evenodd;clip-rule:evenodd;fill:#7B491E;" d="M61.225,43.617c1.254,0.354,2.98,0.681,3.264,2.626
			c0.238,1.629-2.862,5.532-4.136,5.498c-2.42-0.064-4.648-2.282-4.538-4.517C55.906,45.383,58.518,43.523,61.225,43.617z"/>
		<path style="fill-rule:evenodd;clip-rule:evenodd;fill:#7B491E;" d="M86.603,35.472c1.496-0.325,3.055,0.075,3.302,1.935
			c0.208,1.572-0.809,2.774-2.414,3.37c-1.711,0.635-3.194,2.5-5.181,1.555c-1.627-0.774-2.647-2.385-2.027-4.312
			c0.65-2.022,2.891-1.713,4.38-2.51C85.112,35.268,85.802,35.472,86.603,35.472z"/>
		<path style="fill-rule:evenodd;clip-rule:evenodd;fill:#7B491E;" d="M330.232,141.153c0.05,2.413-1.498,4.1-3.85,4.196
			c-2.345,0.095-4.295-1.964-4.283-4.58c0.01-2.166,1.212-2.99,3.294-2.996C329.388,137.76,330.173,138.262,330.232,141.153z"/>
		<path style="fill-rule:evenodd;clip-rule:evenodd;fill:#7B491E;" d="M317.443,130.628c-0.124-1.691,0.212-3.221,2.244-3.25
			c2.776-0.04,5.279,2.476,5.31,5.087c0.026,2.316-1.172,3.512-3.452,3.57C319.199,136.096,317.476,133.785,317.443,130.628z"/>
		<path style="fill-rule:evenodd;clip-rule:evenodd;fill:#7B491E;" d="M49.417,50.018c0.001,2.127-2.153,5.251-3.572,5.182
			c-1.151-0.056-5.169-3.096-5.136-3.886c0.058-1.416,3.869-4.174,5.759-4.23C48.519,47.023,49.537,47.931,49.417,50.018z"/>
		<path style="fill-rule:evenodd;clip-rule:evenodd;fill:#7B491E;" d="M345.421,144.167c-2.034,0.232-4.104-0.489-6.138,0.882
			c-0.743,0.5-2.892,0.198-3.216-1.701c-0.244-1.434-1.001-2.913,1.637-3.406c1.381-0.258,2.741-1.281,4.271-0.914
			c3.477,0.836,3.817,1.435,3.391,5.191C345.366,144.217,345.421,144.167,345.421,144.167z"/>
		<path style="fill-rule:evenodd;clip-rule:evenodd;fill:#7B491E;" d="M36.631,54.854c-0.028,2.065-2.032,4.447-3.528,4.415
			c-1.082-0.023-4.027-2.761-4.033-3.748c-0.013-2.312,2.08-4.597,4.339-4.287C35.393,51.507,37.045,52.556,36.631,54.854z"/>
		<path style="fill-rule:evenodd;clip-rule:evenodd;fill:#7B491E;" d="M115.725,69.068c-0.096,2.258-1.372,3.738-3.473,4.123
			c-1.987,0.364-4.334-2.095-3.897-4.188c0.369-1.767,1.254-3.644,3.518-3.855C113.518,64.994,115.721,67.335,115.725,69.068z"/>
		<path style="fill-rule:evenodd;clip-rule:evenodd;fill:#7B491E;" d="M73.246,40.117c1.768,0.006,3.673,2.033,3.394,4.038
			c-0.193,1.388-0.612,3.183-2.452,3.313c-2.567,0.182-5.681-2.207-5.581-3.99C68.691,41.974,71.264,40.11,73.246,40.117z"/>
		<path style="fill-rule:evenodd;clip-rule:evenodd;fill:#7B491E;" d="M23.742,61.703c-1.542,0.32-1.478-0.791-1.857-1.652
			c-1.186-2.691,1.512-3.173,2.583-4.446c0.999-1.19,2.507-0.651,3.604,0.308c0.505,0.441,1.15,1.125,0.505,1.853
			C27.172,59.348,25.692,60.871,23.742,61.703z"/>
		<path style="fill-rule:evenodd;clip-rule:evenodd;fill:#7B491E;" d="M87.744,58.15c-2.179,0.071-2.224-2.183-2.046-3.163
			c0.247-1.368,0.042-3.895,2.511-3.738c1.636,0.104,3.54,0.954,2.975,3.1C90.762,55.953,90.591,58.294,87.744,58.15z"/>
		<path style="fill-rule:evenodd;clip-rule:evenodd;fill:#7B491E;" d="M338.149,115.698c-1.442,0.154-3.129-0.105-3.188-2.061
			c-0.078-2.559,2.418-2.933,4.132-3.379c0.819-0.213,2.69,0.701,2.938,1.985C342.408,114.188,340.593,115.699,338.149,115.698z"/>
		<path style="fill-rule:evenodd;clip-rule:evenodd;fill:#7B491E;" d="M322.051,121.42c-0.07-1.09,0.801-2.182,2.563-2.199
			c2.421-0.023,3.068,2.168,3.714,3.812c0.386,0.981-1.528,2.525-1.948,2.228C324.949,124.246,322.047,125.073,322.051,121.42z"/>
		<path style="fill-rule:evenodd;clip-rule:evenodd;fill:#7B491E;" d="M101.803,34.951c-0.496,1.419-0.795,3.361-2.74,3.318
			c-1.692-0.037-2.343-1.753-2.507-3.273c-0.154-1.429,0.745-2.431,2.176-2.385C100.113,32.655,101.55,33.019,101.803,34.951z"/>
		<path style="fill-rule:evenodd;clip-rule:evenodd;fill:#7B491E;" d="M47.083,79.952c0.046,1.371,0.075,2.612-1.604,2.587
			c-1.759-0.026-2.489-1.068-2.461-2.761c0.019-1.158-0.094-2.602,1.573-2.372C45.932,77.591,47.479,78.115,47.083,79.952z"/>
		<path style="fill-rule:evenodd;clip-rule:evenodd;fill:#7B491E;" d="M140.685,43.123c-0.284,0.646-0.785,0.449-1.205,0.445
			c-0.093-0.001-0.184-0.193-0.275-0.298c0.384-0.213,0.762-0.441,1.164-0.616C140.402,42.64,140.592,42.983,140.685,43.123z"/>
		<path style="fill-rule:evenodd;clip-rule:evenodd;fill:#7B491E;" d="M5.262,96.979c0-0.487-0.022-0.825,0.016-1.156
			c0.009-0.083,0.213-0.145,0.327-0.216c0.061,0.336,0.141,0.67,0.165,1.008C5.773,96.684,5.565,96.767,5.262,96.979z"/>
		<path style="fill-rule:evenodd;clip-rule:evenodd;fill:none;" d="M251.522,50.068c-5.099,4.752-10.025,9.425-15.607,13.297
			c-1.79,1.242-2.86,2.818-2.044,4.831c0.805,1.981,2.46,1.628,4.373,1.116c4.314-1.153,8.438-2.252,12.389-4.747
			c2.847-1.797,5.176-4.433,8.28-5.64c3.79-1.473,6.981-2.731,8.235-7.462c0.826-3.118,4.893-4.433,7.386-6.667
			c3.943-3.533,8.378-4.582,13.402-4.092c3.451,0.336,6.495-0.599,9.269-2.656c0.468-0.347,1.212-1.148,1.906-0.263
			c3.408,4.347,8.109,2.603,12.866,2.866c-3.034,2.267-3.523,5.343-3.299,8.734c0.108,1.63,0.194,3.356,0.996,4.649
			c1.358,2.192,0.1,3.438-1.428,3.995c-2.966,1.083-5.686,2.796-8.999,3.085c-4.348,0.378-10.055,6.303-10.91,10.721
			c-0.231,1.188-0.807,2.126-2.087,2.802c-3.573,1.889-7.747,2.179-11.197,4.367c-0.38,0.241-1.511,0.097-1.618-0.155
			c-1.237-2.922-3.853-2.335-6.225-2.876c-5.373-1.227-10.06,0.427-14.687,2.655c-1.778,0.856-3.691,2.321-5.433,2.052
			c-5.702-0.88-9.724,2.58-14.127,4.93c-1.378,0.736-2.609,1.188-3.991,0.979c-2.523-0.38-4.655,0.864-6.835,1.607
			c-1.229,0.42-2.49,1.434-3.137,0.054c-0.452-0.966-0.129-2.505,1.417-3.447c2.817-1.716,2.901-3.329,0.793-5.163
			c-1.131-0.984-2.448-0.781-3.538-0.373c-6.804,2.546-12.347,6.631-15.739,13.278c-2.807,5.501-7.45,8.777-13.307,10.295
			c-1.491,0.387-2.451,1.093-3.332,2.204c-1.604,2.024-4.071,2.629-6.277,3.623c-0.676,0.306-1.526,0.122-2.073-0.612
			c-1.512-2.032-3.114-3.762-5.711-4.693c-3.006-1.078-2.937-3.712-1.748-6.228c0.589-1.246,1.002-2.445,0.867-3.822
			c-0.134-1.362,0.647-2.099,1.8-2.601c5.047-2.196,9.077-5.975,13.68-8.863c0.601-0.377,1.226-0.913,1.405-1.766
			c0.708-3.368,3.964-5.081,5.298-8.079c0.476-1.069,1.732-0.404,2.621-0.462c1.243-0.082,2.891,0.242,3.265-1.178
			c0.78-2.964,2.833-1.775,4.555-1.709c0.437,0.017,1.098,0.621,1.256,0.485c3.204-2.737,8.293-1.878,10.893-5.762
			c2.182-3.259,7.551-4.67,11.125-3.177c1.673,0.7,3.925,0.657,4.697-0.919c1.879-3.833,5.44-3.354,8.57-4.028
			c3.414-0.735,7.144-0.618,8.85-4.746C248.796,49.471,250.477,50.736,251.522,50.068z"/>
		<path style="fill-rule:evenodd;clip-rule:evenodd;fill:none;" d="M19.156,84.922c0.074-0.481-0.119-1.096,0.622-1.244
			C20.348,84.482,19.703,84.677,19.156,84.922z"/>
	</g>
</g>
</svg>
