<?xml version="1.0" encoding="iso-8859-1"?>
<!-- Generator: Adobe Illustrator 16.0.0, SVG Export Plug-In . SVG Version: 6.00 Build 0)  -->
<!DOCTYPE svg PUBLIC "-//W3C//DTD SVG 1.1//EN" "http://www.w3.org/Graphics/SVG/1.1/DTD/svg11.dtd">
<svg version="1.1" id="Layer_1" xmlns="http://www.w3.org/2000/svg" xmlns:xlink="http://www.w3.org/1999/xlink" x="0px" y="0px"
	 width="401.084px" height="146.898px" viewBox="0 0 401.084 146.898" style="enable-background:new 0 0 401.084 146.898;"
	 xml:space="preserve">
<g>
	<g>
		<path style="fill:none;" d="M200.542,146.356c-66.006,0-132.012-0.007-198.018,0.041c-1.652,0.002-2.026-0.371-2.024-2.023
			c0.051-47.356,0.051-94.713,0-142.07C0.499,0.795,0.796,0.499,2.304,0.5c132.159,0.044,264.317,0.044,396.476,0
			c1.508-0.001,1.806,0.295,1.804,1.803c-0.051,47.43-0.051,94.86,0,142.291c0.002,1.508-0.296,1.805-1.804,1.804
			C332.701,146.35,266.621,146.356,200.542,146.356z M370.446,44.197c1.992-0.455,3.918,0.19,5.831,0.469
			c4.021,0.587,4.251,0.739,3.928,5.018c-0.304,4.035-1.108,8.045-1.898,12.024c-0.309,1.549-1.046,2.682-3.304,2.372
			c-3.024-0.417-6.149-0.115-9.231-0.097c-0.997,0.006-2.215-0.043-2.202,1.371c0.021,2.539-0.98,4.679-2.172,6.818
			c-0.868,1.559-1.465,3.168-1.459,5.09c0.007,2.452-0.856,3.01-3.266,3.02c-1.39,0.005-2.761-0.317-4.176-0.04
			c-0.913,0.179-1.68,0.634-1.624,1.417c0.052,0.733,0.795,1.365,1.76,1.258c1.318-0.146,2.509,0.697,3.854,0.459
			c0.863-0.152,1.549,0.513,1.639,1.152c0.211,1.499,0.479,3.109-0.124,4.54c-1.095,2.59-0.861,4.162,1.107,5.968
			c0.995,0.914,1.675,1.029,2.267-0.403c1.037-2.513,1.954-5.051,1.702-7.817c-0.155-1.701,0.718-2.145,2.163-2.138
			c1.223,0.005,2.215,0.293,2.816,1.536c0.246,0.508,0.679,1.331,1.466,0.997c1.08-0.458,1.75-1.362,1.943-2.563
			c0.202-1.247-0.197-2.194-1.486-2.471c-1.326-0.286-2.63-0.751-4.038-0.591c-1.334,0.151-1.816-0.722-1.463-1.776
			c0.634-1.888,0.257-3.92,1.182-5.804c0.562-1.145,1.784-1.961,1.815-3.312c0.032-1.41,0.89-1.375,1.91-1.458
			c1.258-0.104,1.229,0.601,1.214,1.477c-0.017,0.955,0.614,1.132,1.454,1.222c1.105,0.118,1.381-0.631,1.571-1.366
			c0.189-0.732,0.079-1.487-0.868-1.729c-0.488-0.125-1.342,0.291-1.261-0.704c0.087-1.074,0.992-0.516,1.536-0.614
			c0.497-0.09,1.032,0.042,1.535-0.03c1.948-0.28,2.725-0.015,2.643,3.021c-0.063,2.369-0.241,4.768,0.831,7.016
			c0.327,0.685,0.716,1.384,1.512,1.382c0.781-0.002,1.731-0.306,1.927-1.116c0.218-0.904,0.711-1.709,0.386-2.87
			c-0.438-1.569-0.231-3.327-0.251-5.004c-0.008-0.756,0.824-1.516,1.14-1.336c1.265,0.721,3.445-0.745,3.989,1.943
			c0.272,1.342,1.987,1.126,3.223,0.718c1.089-0.36,1.725-1.301,2.492-2.059c0.624-0.615,1.306-1.423,0.948-2.263
			c-0.374-0.883-1.4-1.039-2.371-1.22c-1.942-0.364-3.9-0.27-5.833-0.472c-1.059-0.111-2.979-0.08-2.561-1.97
			c1.057-4.783,2.807-9.42,2.925-14.395c0.013-0.531,0.177-1.144,0.769-0.977c3.125,0.884,2.336-1.812,2.68-3.11
			c0.488-1.836-0.98-2.593-2.508-2.804c-5.751-0.792-11.517-1.481-17.272-2.244c-0.729-0.097-1.78-0.101-1.702-1.201
			c0.138-1.925-1.178-3.536-0.962-5.501c0.158-1.434-0.997-2.297-2.267-2.33c-1.283-0.033-1.967,1.063-2.062,2.295
			c-0.089,1.162,0.055,2.34,0.036,3.51c-0.019,1.095-0.081,2.733-1.538,2.228c-1.843-0.639-3.377,0.662-5.091,0.19
			c-0.492-0.135-0.905,0.429-0.906,1.013c-0.001,0.464-0.048,0.832,0.541,1.231c0.844,0.573,1.658,0.676,2.6,0.837
			c1.697,0.289,4.556,0.031,4.16,2.476c-0.462,2.861,0.396,5.373,0.587,8.042c0.066,0.931,0.573,1.277,1.304,1.477
			c0.666,0.182,1.263-0.125,1.605-0.644c0.712-1.078,1.165-2.372,0.594-3.552c-0.785-1.624,0.168-2.893,0.518-4.275
			C367.217,43.292,369.081,44.341,370.446,44.197z M343.932,53.845c2.056,0,4.12-0.122,6.163,0.039
			c1.567,0.124,1.65-0.637,1.557-1.804c-0.119-1.491-1.299-1.672-2.322-1.726c-3.387-0.176-6.741-0.051-10.15-0.759
			c-2.238-0.465-2.997-1.135-2.972-3.223c0.018-1.519-0.035-3.573-1.668-3.813c-1.811-0.267-2.076,1.685-2.31,3.224
			c-0.193,1.27-0.685,2.17-2.366,1.943c-1.664-0.225-3.382-0.053-5.076-0.046c-0.626,0.002-1.56-0.156-1.559,0.657
			c0.001,0.677,0.419,1.375,1.461,1.596c1.858,0.395,3.643,1.137,5.469,1.697c1.585,0.486,1.714,1.292,1.372,2.939
			c-0.577,2.786-1.723,5.534-1.108,8.537c0.205,0.997,0.106,2.612-0.939,2.958c-1.292,0.428-2.134,0.79-2.066,2.253
			c0.072,1.586,1.311,1.973,2.497,2.25c2.892,0.673,5.658,1.724,8.481,2.603c2.161,0.673,3.32,1.726,3.15,4.145
			c-0.159,2.265-0.017,4.549-0.04,6.824c-0.013,1.256-0.019,2.499,1.431,3.025c1.621,0.59,2.791-0.385,3.48-1.532
			c1.15-1.919,1.819-4.146,2.462-6.246c0.896-2.928,0.536-3.067,3.675-3.059c1.266,0.004,2.332-0.127,2.616-1.639
			c0.318-1.686-0.67-3.199-1.982-3.028c-4.418,0.575-4.045-2.506-4.701-5.189c-0.454-1.857,0.05-3.907-1.229-5.604
			c-0.898-1.192-3.48-1.601-3.918-0.408c-0.756,2.056-1.336,4.191-1.782,6.336c-0.214,1.031,0.021,2.067-1.554,2.046
			c-2.237-0.03-5.09-1.348-5.098-2.469c-0.001-0.146-0.021-0.298,0.008-0.439c0.562-2.838,0.733-5.714,0.871-8.595
			c0.125-2.636,0.982-3.492,3.524-3.493C340.85,53.845,342.391,53.845,343.932,53.845z M236.423,123.943
			c1.476,3.088,3.545,5.479,2.896,8.832c-0.173,0.896,0.193,1.457,1.134,1.807c1.077,0.4,1.508-0.612,1.588-0.971
			c0.455-2.039,1.876-3.525,2.766-5.303c0.859-1.718-0.226-3.195-0.682-4.706c-0.93-3.076-1.492-6.295-3.323-9.05
			c-1.549-2.329-1.46-3.08,0.52-5.229c0.547-0.593,1.146-1.138,1.713-1.712c3.111-3.155,4.241-7.139,4.616-11.384
			c0.157-1.765-1.047-2.596-2.465-1.679c-0.845,0.546-1.712,1.15-2.429,2.044c-1.892,2.357-2.986,5.221-5.147,7.421
			c-1.603,1.631-2.523,1.978-4.288,0.434c-1.073-0.94-1.963-2.035-3.407-2.568c-1.452-0.537-3.708,0.614-3.833,2.14
			c-0.2,2.439,1.959,3.313,3.215,4.684c1.349,1.473,1.34,2.749,0.838,4.514c-0.579,2.033-1.142,4.085-1.466,6.214
			c-0.499,3.268-1.628,6.417-2.214,9.696c-0.232,1.304-0.523,2.622-0.271,3.841c0.188,0.905,0.607,2.106,1.874,2.365
			c0.631,0.128,1.185-0.074,1.514-0.639C231.652,131.133,234.898,128.352,236.423,123.943z M292.612,54.446
			c0-0.506-0.02-0.801,0.004-1.092c0.095-1.179-0.084-2.255-1.43-2.562c-1.339-0.306-2.202,0.34-2.681,1.608
			c-0.324,0.861-0.72,1.697-1.12,2.527c-0.287,0.594-0.263,1.535-1.191,1.528c-0.804-0.006-1.092-0.771-1.551-1.332
			c-0.815-0.998-1.22-2.206-2.033-3.234c-2.479-3.135-6.646-3.516-9.441-6.133c-0.958-0.897-2.674-0.475-3.54,0.563
			c-0.944,1.131-0.473,2.508,0.529,3.488c0.977,0.955,1.92,1.938,3.059,2.751c2.622,1.871,5.858,3.113,6.955,6.647
			c0.377,1.213,1.231,2.207,2.139,3.156c0.633,0.662,0.948,1.677,0.156,2.519c-2.157,2.293-3.164,5.36-5.256,7.698
			c-1.041,1.163-1.456,5.027-0.746,6.304c0.513,0.924,1.656,1.349,2.353,1.257c1.079-0.145,2.115-0.703,2.923-1.834
			c2.231-3.124,3.711-6.716,6.272-9.645c0.81-0.926,1.115-0.799,1.818-0.198c3.554,3.044,8.53,3.936,11.617,7.782
			c0.639,0.797,1.98,1.137,2.152,2.392c0.211,1.534,1.648,1.663,2.561,1.941c0.828,0.253,1.796-0.634,2.321-1.603
			c1.16-2.143,0.05-5.705-2.294-6.559c-1.077-0.392-1.817-1.108-2.282-1.884c-0.538-0.9-1.298-1.226-2.062-1.729
			c-3.346-2.203-7.664-2.805-10.197-6.391c-0.775-1.098-1.022-1.877-0.368-3.084C292.125,57.763,292.956,56.135,292.612,54.446z
			 M310.233,94.524c0-2.346,0.148-4.706-0.059-7.033c-0.116-1.315-0.584-2.973-2.192-3.139c-1.192-0.124-2.375,0.731-2.557,2.111
			c-0.364,2.761-0.89,5.461-1.752,8.122c-0.606,1.87-0.87,2.07-2.666,0.942c-2.088-1.312-4.118-2.71-6.501-3.51
			c-1.532-0.515-3.166-0.264-3.867,0.817c-0.933,1.438-0.051,2.925,1.515,3.73c2.202,1.133,4.109,2.706,6.414,3.755
			c2.653,1.206,4.638,3.354,4.206,6.824c-0.31,2.48-1.029,4.881-1.178,7.407c-0.066,1.119,0.001,2.296-0.274,3.438
			c-0.619,2.575-0.812,5.059,1.185,7.308c0.611,0.689,0.944,1.318,1.988,1.256c1.139-0.069,1.97-0.902,2.073-1.652
			c0.263-1.895,1.515-3.583,1.052-5.631c-0.255-1.129,0.062-2.282,0.423-3.395c1.022-3.152,1.023-3.174,3.788-1.126
			c2.32,1.718,4.797,3.279,5.624,6.376c0.147,0.554,0.026,1.216,0.375,1.641c0.395,0.482,0.758,1.58,1.62,0.875
			c1.095-0.896,2.276-1.849,2.241-3.527c-0.064-3.036-1.497-5.28-4.048-6.79c-2.475-1.465-4.856-2.935-4.768-6.307
			c0.011-0.392-0.174-0.659-0.422-0.957c-1.887-2.266-2.545-4.877-2.242-7.799C310.341,97.028,310.233,95.771,310.233,94.524z
			 M274.58,128.166c-0.277,1.422,0.333,2.793,0.788,4.245c0.393,1.253,1.364,1.44,2.238,1.728c0.883,0.29,1.294-0.674,1.696-1.242
			c1.401-1.981,1.604-4.475,2.702-6.612c0.664-1.293,1.736-2.435,1.798-4.008c0.066-1.692,0.992-1.272,1.599-0.484
			c1.795,2.333,4.359,3.861,6.2,6.133c0.879,1.085,2.758,1.207,3.244,0.174c1.266-2.684,1.148-5.061-1.618-6.793
			c-1.274-0.798-2.562-1.748-3.089-2.966c-0.953-2.205-1.939-4.279-3.676-5.986c-0.455-0.448-1.025-0.968-0.918-1.858
			c0.592-4.892-0.933-9.667-0.848-14.533c0.021-1.22-0.206-2.21-1.566-2.452c-1.256-0.223-2.024,0.353-2.495,1.558
			c-1.216,3.117-1.781,6.33-1.68,9.668c0.022,0.731,0.145,1.586-0.691,1.906c-0.701,0.269-1.315-0.103-1.983-0.54
			c-1.774-1.162-3.043-2.986-5.238-3.632c-1.818-0.535-2.974,0.348-3.916,1.478c-0.923,1.108,0.074,2.188,0.952,2.595
			c2.364,1.094,4.051,3.093,6.328,4.316c4.342,2.334,5.328,3.667,2.973,8.877C276.196,122.352,274.148,124.815,274.58,128.166z
			 M229.617,78.193c0,0.807,0.006,1.613-0.002,2.42c-0.017,1.688,0.877,2.938,2.292,3.533c0.904,0.38,2.519-1.934,2.55-3.476
			c0.027-1.32,0.039-2.642-0.002-3.961c-0.062-1.982,0.811-3.586,2.349-4.619c1.843-1.237,3.582-2.579,4.985-4.255
			c2.504-2.99,5.107-5.313,9.274-2.986c0.057,0.032,0.146,0.017,0.218,0.006c3.728-0.554,7.051,0.752,10.384,2.156
			c1.425,0.601,2.66,0.154,3.175-1.432c0.553-1.701-0.444-3.345-1.986-3.824c-3.685-1.146-7.074-3.419-11.203-2.839
			c-0.251,0.036-0.53-0.207-0.8-0.214c-1.549-0.044-1.676-1.021-1.243-2.105c0.678-1.697,1.554-3.314,2.279-4.994
			c0.929-2.149,1.401-4.429,1.028-6.74c-0.23-1.423-0.876-2.337-2.847-1.736c-1.933,0.589-2.296,2.037-2.794,3.453
			c-0.814,2.317-1.592,4.629-2.618,6.877c-0.679,1.486-1.851,1.64-2.758,1.181c-3.013-1.527-5.851-0.476-8.814-0.005
			c-1.422,0.226-2.008,0.95-2.078,2.001c-0.088,1.314,1.212,1.654,2.203,2.021c0.453,0.167,1.017,0.046,1.53,0.035
			c1.855-0.04,3.397,0.818,4.887,1.763c0.725,0.459,1.132,0.962,0.64,2.049c-1.012,2.23-2.343,4.082-4.407,5.446
			C232.188,70.372,228.588,72.885,229.617,78.193z M205.828,104.708c0,1.163,0.045,1.973-0.012,2.775
			c-0.056,0.787,0.036,1.41,0.92,1.674c0.901,0.269,1.812-0.226,1.958-0.811c0.483-1.934,2.15-2.999,3.033-4.619
			c0.676-1.241,1.535-0.82,1.94,0.205c0.387,0.978,0.617,2.032,0.569,3.152c-0.038,0.919,0.165,1.811,1.521,1.863
			c1.17,0.046,1.894-0.429,1.904-1.457c0.013-1.167,0.761-1.859,1.313-2.632c0.889-1.242,0.766-2.673,0.289-3.728
			c-0.474-1.044-0.899-2.245-1.71-3.133c-3.468-3.801-2.166-7.921-0.893-12.062c0.305-0.986,0.488-2.111-0.069-2.962
			c-0.574-0.876-1.72-1.203-2.729-0.892c-1.305,0.403-2.432,1.059-2.793,2.661c-0.291,1.286-0.768,2.558-1.604,3.673
			c-0.347,0.462-0.396,0.893-1.057,0.398c-2.844-2.129-6.192-3.012-9.553-3.904c-1.166-0.311-2.285-0.488-2.865,0.654
			c-0.611,1.204,0.257,2.068,1.271,2.664c3.163,1.854,5.836,4.367,8.792,6.502c0.88,0.637,1.017,1.262,0.865,2.449
			C206.584,99.813,205.331,102.329,205.828,104.708z M267.225,28.023c0.912-0.438,1.262,0.143,1.656,0.555
			c1.255,1.31,2.459,2.768,4.103,3.511c1.273,0.576,2.216,1.115,2.564,2.568c0.132,0.546,0.693,1.188,1.471,1.105
			c0.797-0.085,1.418-0.655,1.453-1.387c0.086-1.825,0.538-3.904-0.146-5.439c-1.732-3.889-5.287-6.103-9.083-7.632
			c-3.507-1.414-4.118-1.381-3.937-4.696c0.104-1.92-0.501-3.544-2.402-4.107c-1.404-0.417-2.879,1.3-3.31,3.477
			c-0.056,0.283-0.046,0.588-0.016,0.877c0.141,1.357-0.515,1.986-1.799,1.727c-2.178-0.441-4.098,0.626-6.12,0.995
			c-1.201,0.219-2.201,1.42-1.723,2.834c0.523,1.545,1.511-0.097,2.325,0.056c0.523,0.098,1.146-0.583,1.752-0.642
			c3.285-0.318,4.339-0.538,5.243,2.965c0.707,2.737,1.037,5.451,1.429,8.208c0.163,1.147-0.084,2.096-0.587,2.67
			c-0.681,0.777-0.983,1.095-0.231,2.012c0.891,1.086,1.672,0.606,2.366,0.022c1.062-0.893,1.941-1.999,2.988-2.912
			C267.31,32.97,268.045,30.607,267.225,28.023z M89.484,88.391c0.306-0.525,1.971,1.323,2.215-0.592
			c0.243-1.909-1.016-2.362-2.629-2.231c-0.49,0.039-0.784-0.246-1.154-0.494c-2.986-2.008-6.55-2.212-9.907-2.967
			c-2.154-0.484-3.648-1.321-3.851-3.492c-0.117-1.253-0.627-2.336-0.973-3.481c-0.319-1.055-1.034-2.084-2.328-1.861
			c-1.299,0.224-1.116,1.428-1.158,2.415c-0.04,0.932,0.161,1.869-0.386,2.774c-0.364,0.602,0.529,1.958-1.09,1.808
			c-0.854-0.08-1.757,0.286-2.559-0.287c-0.289-0.206-0.629-0.58-0.892-0.538c-0.9,0.144-1.948-0.604-2.705,0.638
			c-0.564,0.925-0.196,1.822,0.287,2.122c1.227,0.765,2.181,1.975,3.869,2.09c2.175,0.147,3.427,2.208,2.801,4.343
			c-0.223,0.761-0.145,1.315,0.175,2.038c0.695,1.574,1.295,3.77,3.146,3.527c1.887-0.247,1.851-2.454,1.767-4.164
			c-0.067-1.383,0.437-2.208,1.969-2.286c2.795-0.144,5.557-0.763,8.389-0.029C85.967,88.11,87.362,89.199,89.484,88.391z
			 M61.229,103.905c-0.134-0.12-0.898,0.585-1.178-0.264c-0.218-0.664,0.315-0.784,0.752-1.071c0.507-0.334,0.96-0.994,0.675-1.574
			c-0.252-0.513-0.854-0.836-1.603-0.571c-0.958,0.338-1.686-0.057-1.595-1.102c0.213-2.456-1.863-2.633-3.152-2.596
			c-1.736,0.051-2.107,1.686-2.001,3.357c0.184,2.883,0.028,2.993-2.967,3.554c-0.338,0.063-0.64,0.305-0.978,0.386
			c-0.76,0.184-1.194,0.628-1.024,1.405c0.144,0.659,0.681,0.854,1.343,0.848c1.524-0.017,2.44,0.791,3.232,2.084
			c0.761,1.243,0.966,2.641,1.53,3.927c0.377,0.86,0.977,1.718,1.718,1.795c0.871,0.091,1.891-0.588,2.203-1.492
			c0.959-2.776,3.308-3.287,5.71-3.648c1.267-0.19,2.172-0.831,2.859-1.765c0.648-0.88,0.63-2.221,0.091-2.871
			c-0.507-0.612-1.508-1.397-2.801-0.776C63.341,103.867,62.486,104.368,61.229,103.905z M27.854,115.676
			c-0.079,1.492,0.349,3.02,1.842,3.254c1.371,0.215,2.49-0.91,2.997-2.313c0.373-1.031,1.076-1.839,1.723-2.68
			c0.873-1.133,4.009-2.093,4.748-1.26c0.851,0.958,1.576,0.757,2.387,0.331c1.02-0.536,1.004-1.423,0.907-2.52
			c-0.106-1.207-0.826-1.364-1.642-1.57c-1.833-0.464-3.664-0.951-5.52-1.304c-0.913-0.173-1.694-0.664-1.642-1.434
			c0.1-1.482-1.029-2.46-1.209-3.833c-0.139-1.058-0.754-2.19-2.335-1.808c-1.497,0.361-2.456,1.623-2.121,2.75
			c0.712,2.397-0.401,2.696-2.197,2.515c-1.38-0.14-1.51,0.513-1.495,1.645c0.017,1.168,0.795,1.874,1.559,2.167
			c1.229,0.474,1.429,1.519,2.083,2.356C29.051,113.396,27.583,114.459,27.854,115.676z M48.691,128.897
			c-0.125-1.141-3.401-10.008-3.967-10.926c-0.52-0.845-1.244-1.396-2.059-1.005c-0.775,0.373-1.644,0.986-1.602,2.145
			c0.035,0.952,0.066,1.912-0.009,2.86c-0.084,1.056,0.576,2.556-0.327,3.062c-0.979,0.549-2.125-0.539-3.002-1.222
			c-1.197-0.931-1.554-0.022-1.841,0.765c-0.648,1.778,0.669,2.783,1.832,3.563c2.004,1.346,3.382,2.766,2.5,5.422
			c-0.432,1.298,0.447,2.177,1.381,2.95c0.782,0.646,1.789,0.462,2.323,0.02C46.34,134.524,47.547,131.714,48.691,128.897z
			 M346.362,34.123c-0.07,0.568-0.1,1.134-0.201,1.708c-0.339,1.908-0.448,3.854-0.695,5.779c-0.122,0.952,0.35,1.591,1.07,1.976
			c0.968,0.517,1.473-0.371,1.956-0.946c0.687-0.817,0.936-1.914,1.451-2.811c1.211-2.107,0.764-5.718,4.711-5.549
			c0.243,0.01,0.54-0.465,0.758-0.756c0.986-1.322-0.179-4.132-2.134-4.745c-1.464-0.46-2.4-0.919-2.643-2.733
			c-0.162-1.215-1.307-2.366-2.996-2.163c-1.009,0.121-1.746,0.669-1.682,1.636c0.127,1.898-0.968,1.966-2.352,1.91
			c-0.943-0.039-1.916-0.043-2.831,0.15c-0.552,0.117-1.116,0.439-1.075,1.348c0.038,0.815,0.371,1.215,1.021,1.394
			c0.55,0.15,1.149,0.11,1.723,0.18C345.646,30.894,346.376,31.573,346.362,34.123z M55.283,53.513
			c0.162-0.442-0.36-1.684-0.611-1.79c-2.782-1.18-2.378-3.895-3.12-6.044c-0.115-0.333-0.266-0.655-0.352-0.994
			c-0.303-1.197-1.357-1.55-2.294-1.628c-0.983-0.083-1.247,1.045-1.551,1.771c-0.238,0.567,0.032,1.331-0.146,1.942
			c-0.357,1.231-0.344,2.78-2.608,1.909c-1.195-0.459-2.669-0.496-3.822-1.172c-0.918-0.539-1.347,0.182-1.909,0.442
			c-0.789,0.367-0.161,0.934-0.034,1.457c0.546,2.258,2.616,2.554,4.268,3.054c3.585,1.085,3.823,1.321,3.751,4.93
			c-0.021,1.035-0.21,2.63,1.177,2.997c1.44,0.38,2.131-0.513,2.376-2.062c0.163-1.031,0.878-2.086,2.391-1.851
			C54.776,56.781,54.979,55.331,55.283,53.513z M26.95,66.483c-0.759-0.634,0.029-2.076-1.073-2.436
			c-2.69-0.878-3.263-3.097-3.788-5.444c-0.261-1.169-0.499-2.437-1.141-3.397c-0.485-0.725-1.422-1.281-2.627-0.546
			c-1.442,0.879-1.792,2.059-1.309,3.447c0.625,1.794,0.055,2.48-1.732,2.336c-0.87-0.069-1.529,0.07-1.838,1.02
			c-0.329,1.008-0.072,1.902,0.706,2.47c2.033,1.483,3.429,3.184,3.182,5.926c-0.092,1.024,0.625,1.988,1.571,2.42
			c0.93,0.425,1.394-0.56,1.946-1.086c1.091-1.039,1.981-2.157,3.847-2.016C26.216,69.292,26.655,67.804,26.95,66.483z
			 M24.409,85.526c-1.782-0.167-2.579,1.237-2.159,2.274c1.09,2.691-0.652,2.142-2.044,2.167c-0.513,0.01-1.039-0.062-1.538,0.025
			c-1.013,0.178-1.682,0.853-1.788,1.842c-0.122,1.131,0.773,1.104,1.612,1.257c2.084,0.378,4.144,0.502,3.325,3.88
			c-0.559,2.307,1.312,3.187,3.484,2.265c1.496-0.634,3.639-0.353,3.189-3.023c-0.027-0.16,0.708-0.401,1.027-0.676
			c1.811-1.552,1.61-3.819-0.48-4.987c-0.854-0.477-1.306-1.038-1.72-1.997C26.779,87.308,26.115,85.78,24.409,85.526z
			 M68.371,64.918c-0.269-1.074-1.357-1.668-2.835-1.828c-1.453-0.156-2.798-0.416-2.953-2.329
			c-0.048-0.591-0.394-1.356-0.856-1.672c-0.741-0.505-1.268-1.751-2.518-1.109c-0.962,0.494-2.168,0.979-1.801,2.333
			c0.471,1.736-0.188,2.357-1.806,2.603c-0.648,0.099-1.372,0.468-1.331,1.445c0.027,0.655,0.204,1.135,0.843,1.356
			c2.131,0.74,3.577,2.124,4.561,4.198c0.761,1.604,2.81,1.646,3.674,0.074c0.654-1.188,1.499-1.565,2.693-1.755
			C67.579,67.99,68.42,67.054,68.371,64.918z M27.643,69.679c-1.875,0.008-2.515,0.814-2.444,2.352
			c0.042,0.921,0.243,2.142-1.23,2.04c-1.135-0.079-1.738,0.473-1.77,1.363c-0.034,0.978,0.272,2.013,1.573,2.21
			c1.242,0.189,1.612,0.967,1.455,2.154c-0.086,0.648-0.051,1.321-0.007,1.979c0.063,0.946-0.416,2.109,1.033,2.528
			c1.297,0.375,2.14-0.233,2.865-1.178c1.02-1.331,2.013-2.535,3.831-3.031c1.533-0.418,2.002-2.57,0.83-3.247
			c-2.373-1.37-3.667-3.422-4.625-5.844C28.855,70.25,28.311,69.63,27.643,69.679z M166.622,101.97c0-0.293,0.023-0.587-0.004-0.878
			c-0.155-1.666-0.579-3.116-2.652-3.194c-2.356-0.09-2.174,1.55-2.202,3.135c-0.062,3.409,0.42,6.886-1.267,10.11
			c-0.258,0.493-0.372,1.282-0.16,1.762c0.751,1.701,0.81,3.267-0.15,4.922c-0.679,1.172,0.472,1.827,1.169,2.207
			c0.637,0.347,1.336-0.229,1.754-1.002c0.629-1.169,1.102-2.447,1.508-3.646c0.633-1.865,1.309-3.997-0.271-5.895
			c-0.676-0.812-0.32-1.48,0.197-2.323C165.521,105.576,166.887,104.08,166.622,101.97z M150.291,54.049
			c0.067,1.064,0.476,2.271,1.942,2.915c0.814,0.358,1.578,0.12,2.004-0.427c0.812-1.042,1.151-2.19,0.097-3.429
			c-0.666-0.783-0.422-1.577,0.352-2.368c1.437-1.469,2.232-3.087,1.442-5.339c-0.536-1.526-2.096-2.857-1.022-4.895
			c0.635-1.206-0.457-2.225-1.469-2.823c-0.569-0.337-1.239,0.252-1.658,0.675c-0.836,0.842-0.968,1.837-0.296,2.905
			c0.637,1.009,0.804,1.863-0.183,2.965c-0.543,0.606-0.706,1.725-0.49,2.942c0.26,1.469,1.355,3.322,0.01,4.669
			C150.381,52.481,150.371,52.99,150.291,54.049z M34.051,65.739c2.371-0.015,4.314-2.985,3.056-5.006
			c-0.891-1.432-0.876-2.838-0.879-4.338c-0.001-0.723-0.152-1.387-0.368-2.091c-0.315-1.024-0.726-1.786-1.853-1.758
			c-1.244,0.03-1.528,0.887-1.826,2.006c-0.279,1.051,0.307,2.469-0.996,3.157c-0.866,0.457-2.066,1.081-1.44,2.007
			c1.319,1.953,1.494,4.601,3.655,6.005C33.554,65.822,33.831,65.735,34.051,65.739z M139.656,107.149
			c0.74,0.608,0.376,1.37,0.557,2.009c0.322,1.14,0.502,2.408,1.969,2.771c0.565,0.141,1.179,0.068,1.317-0.43
			c0.327-1.182,1.193-2.323,0.297-3.669c-0.761-1.144-1.245-2.583-2.985-1.116c-0.792,0.668-1.074-0.11-1.023-0.666
			c0.078-0.847-0.25-1.562-0.507-2.283c-0.57-1.593-1.8-2.09-3.437-1.916c-1.57,0.168-1.572,1.338-1.843,2.466
			c-0.501,2.09,0.391,4.031,0.588,6.036c0.154,1.563,2.33,1.805,3.443,0.474C138.899,109.787,139.52,108.606,139.656,107.149z
			 M135.503,125.042c3.308-2.38,3.537-5.435,2.982-8.891c-0.237-1.478-1.168-2.076-2.208-2.306c-1.236-0.272-2.545,0.68-2.487,1.806
			c0.136,2.636,0.08,5.248,0.087,7.853c0.003,1.17,0.425,2.57,0.167,3.955c-0.208,1.117,0.096,2.189,1.039,2.908
			c0.448,0.342,0.944,0.115,1.356-0.298c0.877-0.882,1.41-1.976,1.03-3.127C137.195,126.108,136.64,125.188,135.503,125.042z
			 M170.142,77.536c-0.096-1.107,0.442-2.486-0.877-3.146c-1.149-0.573-0.903-1.158-0.457-2.032c0.981-1.918,0.471-3.75-0.503-5.52
			c-0.347-0.629-1.015-0.945-1.575-0.894c-0.461,0.043-1.106,0.32-1.377,0.919c-0.659,1.461,0.086,5.694,1.467,6.649
			c0.775,0.537,0.264,0.603,0.097,1.011c-0.661,1.614-0.892,3.318-0.711,5.05c0.071,0.681,0.29,1.33,1.073,1.681
			c0.866,0.389,1.281-0.232,1.836-0.596C170.282,79.892,170.232,78.723,170.142,77.536z M173.67,114.058
			c0-0.365,0.009-0.729-0.001-1.094c-0.057-2.011-0.82-2.167-2.848-2.03c-2.676,0.181-3.11,1.52-2.885,3.686
			c0.079,0.768-0.534,1.301-0.756,1.967c-0.561,1.682,0.267,2.828,2.048,2.897C171.673,119.578,173.669,117.14,173.67,114.058z
			 M164.443,59.914c-0.366,1.094,0.341,2.144,0.525,3.257c0.126,0.764,0.91,1.611,1.809,1.624c0.802,0.011,1.584-0.373,2.076-1.252
			c0.634-1.134,1.151-2.397,1.186-3.572c0.044-1.5-0.423-3.163-1.742-4.155c-1.007-0.757-1.904,0.344-2.704,0.757
			C164.374,57.202,164.325,58.549,164.443,59.914z M119.925,89.342c0-0.292,0.001-0.585,0-0.878
			c-0.009-1.549-1.116-2.508-2.29-2.801c-1.38-0.344-2.14,0.884-2.377,2.164c-0.403,2.165-0.178,4.364-0.114,6.545
			c0.018,0.602,0.625,1.117,1.294,1.301c0.598,0.164,1.04-0.226,1.273-0.654C118.688,93.225,120.045,91.567,119.925,89.342z
			 M153.42,72.276c-0.355,0.991,0.278,1.991,0.495,3.015c0.222,1.053,0.992,2.014,2.294,1.875c1.204-0.129,1.537-0.981,1.65-2.149
			c0.108-1.114,0.216-2.129,0.065-3.297c-0.243-1.874-0.926-2.624-2.741-2.457C153.303,69.436,153.354,70.787,153.42,72.276z
			 M126.112,90.402c1.632,0.126,2.032-0.722,1.601-2.028c-0.145-0.438-0.405-0.765,0.009-1.124c1.827-1.589,1.909-3.724,1.993-5.918
			c0.048-1.247-0.197-2.553-1.352-2.689c-1.232-0.146-1.848,1.046-1.833,2.352c0.018,1.607-0.053,3.218,0.026,4.82
			c0.046,0.913,0.275,1.698-1.001,2.007c-1.02,0.245-0.831,1.246-0.757,2.019C124.889,90.796,125.7,90.248,126.112,90.402z
			 M148.98,41.351c0.248-1.675-0.298-2.977-2.118-3.342c-1.569-0.315-2.702,0.431-3.117,1.946c-0.456,1.665,0.779,4.627,1.944,4.988
			c0.492,0.152,0.981,0.142,1.477-0.062C148.756,44.228,149.132,42.952,148.98,41.351z M129.177,38.658
			c-0.011,1.381,0.299,2.147,1.271,2.623c0.616,0.302,1.056,0.288,1.567-0.171c0.694-0.623,0.879-1.198,0.344-2.077
			c-0.338-0.556-0.028-1.212,0.302-1.825c0.468-0.868,0.9-1.8,1.1-2.756c0.267-1.272-0.377-2.532-1.421-2.971
			c-1.18-0.496-1.828,0.817-2.063,1.723C129.779,35.117,130.39,37.25,129.177,38.658z M146.305,119.512
			c0.764-1.082-0.71-1.597-0.892-2.596c-0.266-1.463-1.563-1.547-2.772-1.378c-1.276,0.179-1.435,1.273-1.548,2.256
			c-0.128,1.099,0.407,2.086,0.883,3.023c0.493,0.971,0.867,2.612,2.28,2.059C145.403,122.425,146.688,121.415,146.305,119.512z
			 M119.924,80.137c0.248-0.785-0.321-1.482-0.555-2.193c-0.326-0.991-1.338-1.562-2.369-1.582
			c-1.004-0.019-1.403,0.952-1.698,1.742c-0.495,1.326-0.377,2.771-0.116,4.09c0.279,1.403,2.591,2.328,3.287,1.474
			C119.279,82.678,120.012,81.593,119.924,80.137z M123.018,46.847c-0.005,1.014-0.017,1.839,0.416,2.668
			c0.95,1.819,2.491,2.237,3.661,0.896c0.665-0.762,0.019-1.744,0.423-2.509c0.841-1.591-0.427-2.541-1.145-3.554
			c-0.297-0.419-1.155-1.015-1.92-0.481C123.382,44.616,122.639,45.565,123.018,46.847z M130.498,56.857
			c0.098-1.732-0.434-2.971-2.421-3.007c-1.18-0.021-2.85,2.18-2.859,3.728c-0.01,1.631,1.142,2.937,2.534,2.874
			C129.534,60.372,130.511,59.094,130.498,56.857z M113.605,52.972c-1.886,0.243-2.385,1.599-2.478,3.196
			c-0.108,1.863,1.334,3.967,2.742,3.791c1.833-0.23,2.138-1.981,2.477-3.373C116.662,55.291,114.755,53.021,113.605,52.972z
			 M129.626,20.77c-0.3,1.527,0.085,3.047,2.036,3.388c1.219,0.212,2.449-1.974,2.357-3.869c-0.08-1.66-0.839-3.309-2.443-3.33
			C129.409,16.93,129.596,18.947,129.626,20.77z M139.306,80.296c0.02-2.023-1.245-3.142-3.469-3.075
			c-1.476,0.045-2.612,0.918-3.083,2.289c-0.327,0.952,2.603,2.89,4.238,2.979C138.752,82.586,138.969,81.288,139.306,80.296z
			 M159.579,42.159c-0.393,1.929,0.681,3.182,2.292,3.177c1.481-0.004,2.565-1.298,2.538-3.022
			c-0.036-2.294-0.919-3.419-2.595-3.449C159.345,38.821,159.709,40.669,159.579,42.159z M119.033,53.997
			c0.395,0.767,0.226,1.883,0.622,2.743c0.486,1.055,1.474,1.584,2.677,0.645c1.856-1.449,1.657-5.134-0.31-6.508
			c-1.173-0.82-1.903,0.069-2.424,0.692C119.155,52.098,119.226,53.054,119.033,53.997z M154.746,32.519
			c0.074-0.911-0.368-1.696-0.714-2.444c-0.412-0.888-1.338-1.066-2.261-0.879c-0.768,0.156-1.362,0.671-1.413,1.44
			c-0.085,1.307-0.163,2.653,0.055,3.932c0.288,1.686,1.721,2.231,2.79,1.153C154.06,34.855,154.581,33.751,154.746,32.519z
			 M119.925,100.27c0-0.617-0.008-1.126,0.001-1.636c0.03-1.632-0.905-2.229-2.365-2.035c-1.494,0.198-1.894,1.376-1.534,2.57
			c0.319,1.058,0.842,1.928,0.451,3.159c-0.201,0.629,0.036,1.786,0.893,2.122c1.02,0.399,1.364-0.541,1.95-1.206
			C120.201,102.248,119.776,101.19,119.925,100.27z M111.996,102.743c0.055-1.896-0.839-2.949-2.459-3.099
			c-1.771-0.163-2.273,0.916-2.369,2.323c-0.148,2.192,1.001,3.499,3.007,3.567C111.198,105.569,111.947,104.42,111.996,102.743z
			 M158.251,126.431c0,0.22,0.015,0.44-0.002,0.659c-0.086,1.096-0.118,1.954,1.343,2.397c1.599,0.483,1.67-0.777,2.18-1.472
			c0.795-1.082,0.583-4.383-0.352-5.082c-0.73-0.546-1.529-0.752-2.39,0.228C158.118,124.199,158.291,125.294,158.251,126.431z
			 M140.182,29.38c0.173-1.328-0.547-2.26-1.672-3.027c-0.975-0.665-1.725,0.001-2.302,0.485c-1.155,0.969-0.262,2.087-0.059,3.214
			c0.236,1.312,0.546,2.346,2.057,2.175C139.744,32.052,140.289,30.953,140.182,29.38z M152.991,114.923
			c-0.042-0.204-0.154-0.689-0.24-1.179c-0.241-1.371-1.124-1.867-2.419-1.742c-1.449,0.14-1.16,1.419-1.279,2.266
			c-0.102,0.727,0.424,1.534,0.348,2.272c-0.133,1.287,0.771,1.753,1.588,1.952c0.869,0.211,1.19-0.745,1.626-1.41
			C153.023,116.46,152.917,115.852,152.991,114.923z M118.62,70.954c-0.441,1.84,0.741,2.976,2.358,2.953
			c1.564-0.021,1.645-1.643,1.596-2.982c-0.051-1.403-0.002-2.9-1.965-2.968C118.551,67.886,118.536,69.353,118.62,70.954z
			 M131.371,73.955c0-0.715,0.108-1.327-0.024-1.881c-0.217-0.908-0.783-1.526-1.837-1.488c-1.123,0.04-1.231,0.779-1.219,1.66
			c0.021,1.465,0.027,2.931-0.004,4.395c-0.014,0.647,0.143,1.211,0.781,1.385c0.748,0.203,1.122-0.242,1.478-0.925
			C131.093,76.05,131.584,75.042,131.371,73.955z M129.623,96.428c0.011-1.746-1.129-3.016-2.689-2.925
			c-1.112,0.065-1.709,0.72-1.712,1.83c-0.004,1.601,1.652,4.016,2.697,3.863C129.515,98.963,129.596,97.686,129.623,96.428z
			 M173.454,68.388c-1.257,0.027-1.695,1.025-1.842,1.935c-0.224,1.385,1.387,3.935,2.208,3.737c1.42-0.34,1.962-1.629,2.365-2.807
			C176.469,70.423,174.365,68.392,173.454,68.388z M119.616,61.772c-1.319-0.178-1.893,0.284-1.927,1.679
			c-0.044,1.818,1.121,2.562,2.5,2.647c1.314,0.081,2.399-1.024,2.301-2.33C122.374,62.238,120.917,61.929,119.616,61.772z
			 M119.044,109.203c0-0.437-0.057-0.882,0.011-1.307c0.18-1.114-0.51-1.743-1.377-1.806c-0.883-0.065-1.397,0.803-1.686,1.591
			c-0.142,0.385-0.014,0.864-0.034,1.299c-0.069,1.459,0.034,3.278,1.688,3.315C119.332,112.333,119.054,110.483,119.044,109.203z
			 M127.402,119.151c0.048,1.323-0.244,2.639,1.28,2.945c1.047,0.211,2.696-1.645,2.699-2.848c0.003-1.392-0.91-2.297-2.051-2.32
			C128.007,116.901,127.068,117.792,127.402,119.151z M129.613,27.209c0.133,1.237-0.01,2.725,1.829,2.823
			c1.01,0.054,1.837-0.714,1.619-1.587c-0.308-1.232-0.671-2.814-2.286-3.01C129.704,25.305,129.471,26.24,129.613,27.209z
			 M123.42,29.146c-0.551-0.929-0.391-2.611-2.058-2.553c-0.905,0.032-1.547,0.815-1.422,1.848c0.148,1.218,0.781,2.257,2.052,2.3
			C122.573,30.759,123.613,30.329,123.42,29.146z M166.183,85.833c-0.003,0.891-0.128,1.842,1.019,1.902
			c1.016,0.054,1.768-0.859,1.849-1.562c0.074-0.643-0.487-1.576-1.691-1.53C166.371,84.68,166.016,84.978,166.183,85.833z
			 M118.161,117.368c0.014-0.808,0.113-1.74-1.016-1.815c-1.131-0.076-1.203,0.782-1.189,1.645c0.014,0.804-0.107,1.738,1.023,1.813
			C118.111,119.085,118.198,118.227,118.161,117.368z"/>
		<path style="fill-rule:evenodd;clip-rule:evenodd;fill:#7B491E;" d="M370.446,44.197c-1.365,0.144-3.229-0.906-3.794,1.329
			c-0.35,1.382-1.303,2.651-0.518,4.275c0.571,1.18,0.118,2.474-0.594,3.552c-0.343,0.52-0.939,0.826-1.605,0.644
			c-0.73-0.2-1.237-0.545-1.304-1.477c-0.191-2.67-1.049-5.181-0.587-8.042c0.396-2.445-2.463-2.187-4.16-2.476
			c-0.941-0.161-1.756-0.264-2.6-0.837c-0.589-0.399-0.542-0.767-0.541-1.231c0.001-0.584,0.414-1.148,0.906-1.013
			c1.714,0.472,3.248-0.829,5.091-0.19c1.457,0.505,1.52-1.132,1.538-2.228c0.019-1.17-0.125-2.348-0.036-3.51
			c0.095-1.231,0.778-2.328,2.062-2.295c1.27,0.032,2.425,0.896,2.267,2.33c-0.216,1.966,1.1,3.577,0.962,5.501
			c-0.078,1.101,0.973,1.104,1.702,1.201c5.756,0.763,11.521,1.452,17.272,2.244c1.527,0.21,2.996,0.967,2.508,2.804
			c-0.344,1.298,0.445,3.994-2.68,3.11c-0.592-0.167-0.756,0.446-0.769,0.977c-0.118,4.975-1.868,9.612-2.925,14.395
			c-0.418,1.89,1.502,1.859,2.561,1.97c1.933,0.202,3.891,0.107,5.833,0.472c0.971,0.182,1.997,0.337,2.371,1.22
			c0.357,0.84-0.324,1.648-0.948,2.263c-0.768,0.757-1.403,1.698-2.492,2.059c-1.235,0.408-2.95,0.624-3.223-0.718
			c-0.544-2.688-2.725-1.222-3.989-1.943c-0.315-0.18-1.147,0.58-1.14,1.336c0.02,1.677-0.188,3.435,0.251,5.004
			c0.325,1.161-0.168,1.966-0.386,2.87c-0.195,0.811-1.146,1.114-1.927,1.116c-0.796,0.002-1.185-0.697-1.512-1.382
			c-1.072-2.248-0.895-4.646-0.831-7.016c0.082-3.036-0.694-3.302-2.643-3.021c-0.503,0.072-1.038-0.06-1.535,0.03
			c-0.544,0.098-1.449-0.46-1.536,0.614c-0.081,0.995,0.772,0.579,1.261,0.704c0.947,0.242,1.058,0.998,0.868,1.729
			c-0.19,0.734-0.466,1.483-1.571,1.366c-0.84-0.09-1.471-0.267-1.454-1.222c0.016-0.876,0.044-1.58-1.214-1.477
			c-1.021,0.084-1.878,0.048-1.91,1.458c-0.031,1.351-1.254,2.167-1.815,3.312c-0.925,1.884-0.548,3.916-1.182,5.804
			c-0.354,1.055,0.129,1.928,1.463,1.776c1.408-0.16,2.712,0.305,4.038,0.591c1.289,0.276,1.688,1.224,1.486,2.471
			c-0.193,1.201-0.863,2.105-1.943,2.563c-0.787,0.334-1.22-0.489-1.466-0.997c-0.602-1.243-1.594-1.531-2.816-1.536
			c-1.445-0.007-2.318,0.437-2.163,2.138c0.252,2.767-0.665,5.305-1.702,7.817c-0.592,1.433-1.271,1.317-2.267,0.403
			c-1.969-1.806-2.202-3.378-1.107-5.968c0.604-1.431,0.335-3.041,0.124-4.54c-0.09-0.64-0.775-1.305-1.639-1.152
			c-1.346,0.238-2.536-0.604-3.854-0.459c-0.965,0.107-1.708-0.524-1.76-1.258c-0.056-0.783,0.711-1.238,1.624-1.417
			c1.415-0.277,2.786,0.045,4.176,0.04c2.409-0.01,3.272-0.567,3.266-3.02c-0.006-1.922,0.591-3.531,1.459-5.09
			c1.191-2.14,2.193-4.279,2.172-6.818c-0.013-1.414,1.205-1.365,2.202-1.371c3.082-0.018,6.207-0.32,9.231,0.097
			c2.258,0.311,2.995-0.822,3.304-2.372c0.79-3.979,1.595-7.99,1.898-12.024c0.323-4.279,0.094-4.431-3.928-5.018
			C374.364,44.387,372.438,43.742,370.446,44.197z"/>
		<path style="fill-rule:evenodd;clip-rule:evenodd;fill:#7B491E;" d="M343.932,53.845c-1.541,0-3.082,0-4.624,0
			c-2.542,0-3.399,0.856-3.524,3.493c-0.138,2.88-0.31,5.757-0.871,8.595c-0.028,0.142-0.009,0.293-0.008,0.439
			c0.008,1.121,2.86,2.439,5.098,2.469c1.574,0.021,1.34-1.015,1.554-2.046c0.446-2.145,1.026-4.281,1.782-6.336
			c0.438-1.192,3.02-0.784,3.918,0.408c1.279,1.697,0.775,3.748,1.229,5.604c0.656,2.683,0.283,5.764,4.701,5.189
			c1.312-0.171,2.301,1.342,1.982,3.028c-0.284,1.512-1.351,1.643-2.616,1.639c-3.139-0.009-2.779,0.131-3.675,3.059
			c-0.643,2.1-1.312,4.327-2.462,6.246c-0.689,1.147-1.859,2.122-3.48,1.532c-1.449-0.526-1.443-1.77-1.431-3.025
			c0.023-2.275-0.119-4.56,0.04-6.824c0.17-2.419-0.989-3.472-3.15-4.145c-2.823-0.879-5.59-1.93-8.481-2.603
			c-1.187-0.276-2.425-0.663-2.497-2.25c-0.067-1.463,0.774-1.825,2.066-2.253c1.046-0.346,1.145-1.961,0.939-2.958
			c-0.614-3.003,0.531-5.751,1.108-8.537c0.342-1.646,0.213-2.453-1.372-2.939c-1.826-0.561-3.61-1.302-5.469-1.697
			c-1.042-0.221-1.46-0.918-1.461-1.596c-0.001-0.813,0.933-0.655,1.559-0.657c1.694-0.007,3.412-0.178,5.076,0.046
			c1.682,0.227,2.173-0.673,2.366-1.943c0.233-1.539,0.499-3.491,2.31-3.224c1.633,0.24,1.686,2.294,1.668,3.813
			c-0.025,2.087,0.733,2.757,2.972,3.223c3.409,0.708,6.764,0.583,10.15,0.759c1.023,0.053,2.203,0.234,2.322,1.726
			c0.094,1.167,0.011,1.927-1.557,1.804C348.052,53.724,345.987,53.845,343.932,53.845z M346.356,68.406
			c-0.029-0.326,0.089-0.771-0.365-0.847c-0.497-0.083-0.534,0.34-0.503,0.69c0.031,0.366-0.198,0.941,0.455,0.95
			C346.439,69.205,346.307,68.722,346.356,68.406z"/>
		<path style="fill-rule:evenodd;clip-rule:evenodd;fill:#7B491E;" d="M236.423,123.943c-1.524,4.409-4.771,7.19-6.852,10.75
			c-0.329,0.564-0.883,0.767-1.514,0.639c-1.267-0.259-1.687-1.46-1.874-2.365c-0.253-1.219,0.038-2.537,0.271-3.841
			c0.586-3.279,1.715-6.429,2.214-9.696c0.324-2.129,0.887-4.181,1.466-6.214c0.502-1.765,0.511-3.041-0.838-4.514
			c-1.256-1.37-3.415-2.244-3.215-4.684c0.125-1.525,2.381-2.677,3.833-2.14c1.444,0.533,2.334,1.628,3.407,2.568
			c1.765,1.544,2.686,1.197,4.288-0.434c2.161-2.2,3.256-5.063,5.147-7.421c0.717-0.894,1.584-1.498,2.429-2.044
			c1.418-0.917,2.622-0.086,2.465,1.679c-0.375,4.245-1.505,8.229-4.616,11.384c-0.566,0.574-1.166,1.119-1.713,1.712
			c-1.979,2.149-2.068,2.9-0.52,5.229c1.831,2.755,2.394,5.974,3.323,9.05c0.456,1.511,1.541,2.988,0.682,4.706
			c-0.89,1.777-2.311,3.264-2.766,5.303c-0.08,0.358-0.511,1.371-1.588,0.971c-0.94-0.35-1.307-0.911-1.134-1.807
			C239.968,129.422,237.898,127.031,236.423,123.943z"/>
		<path style="fill-rule:evenodd;clip-rule:evenodd;fill:#7B491E;" d="M292.612,54.446c0.344,1.689-0.487,3.317-1.334,4.881
			c-0.654,1.207-0.407,1.986,0.368,3.084c2.533,3.586,6.852,4.188,10.197,6.391c0.765,0.503,1.524,0.829,2.062,1.729
			c0.465,0.776,1.205,1.493,2.282,1.884c2.344,0.854,3.454,4.417,2.294,6.559c-0.525,0.969-1.493,1.855-2.321,1.603
			c-0.912-0.278-2.35-0.407-2.561-1.941c-0.172-1.255-1.514-1.595-2.152-2.392c-3.087-3.847-8.063-4.738-11.617-7.782
			c-0.703-0.602-1.009-0.728-1.818,0.198c-2.562,2.929-4.041,6.521-6.272,9.645c-0.808,1.131-1.844,1.689-2.923,1.834
			c-0.696,0.092-1.84-0.333-2.353-1.257c-0.71-1.276-0.295-5.141,0.746-6.304c2.092-2.338,3.099-5.405,5.256-7.698
			c0.792-0.842,0.477-1.857-0.156-2.519c-0.907-0.949-1.762-1.942-2.139-3.156c-1.097-3.534-4.333-4.776-6.955-6.647
			c-1.139-0.813-2.082-1.797-3.059-2.751c-1.002-0.979-1.474-2.356-0.529-3.488c0.866-1.038,2.582-1.46,3.54-0.563
			c2.796,2.618,6.962,2.999,9.441,6.133c0.813,1.028,1.218,2.236,2.033,3.234c0.459,0.562,0.747,1.326,1.551,1.332
			c0.929,0.007,0.904-0.934,1.191-1.528c0.4-0.83,0.796-1.666,1.12-2.527c0.479-1.268,1.342-1.914,2.681-1.608
			c1.346,0.307,1.524,1.383,1.43,2.562C292.593,53.645,292.612,53.94,292.612,54.446z"/>
		<path style="fill-rule:evenodd;clip-rule:evenodd;fill:#7B491E;" d="M310.233,94.524c0,1.247,0.107,2.504-0.021,3.737
			c-0.303,2.922,0.355,5.533,2.242,7.799c0.248,0.298,0.433,0.565,0.422,0.957c-0.089,3.372,2.293,4.842,4.768,6.307
			c2.551,1.51,3.983,3.754,4.048,6.79c0.035,1.679-1.146,2.632-2.241,3.527c-0.862,0.705-1.226-0.393-1.62-0.875
			c-0.349-0.425-0.228-1.087-0.375-1.641c-0.827-3.097-3.304-4.658-5.624-6.376c-2.765-2.048-2.766-2.026-3.788,1.126
			c-0.361,1.112-0.678,2.266-0.423,3.395c0.463,2.048-0.789,3.736-1.052,5.631c-0.104,0.75-0.935,1.583-2.073,1.652
			c-1.044,0.062-1.377-0.566-1.988-1.256c-1.996-2.249-1.804-4.732-1.185-7.308c0.275-1.142,0.208-2.318,0.274-3.438
			c0.148-2.526,0.868-4.927,1.178-7.407c0.432-3.471-1.553-5.618-4.206-6.824c-2.305-1.049-4.212-2.622-6.414-3.755
			c-1.565-0.806-2.447-2.292-1.515-3.73c0.701-1.081,2.335-1.332,3.867-0.817c2.383,0.8,4.413,2.197,6.501,3.51
			c1.796,1.128,2.06,0.928,2.666-0.942c0.862-2.661,1.388-5.361,1.752-8.122c0.182-1.38,1.364-2.235,2.557-2.111
			c1.608,0.166,2.076,1.823,2.192,3.139C310.382,89.818,310.233,92.178,310.233,94.524z"/>
		<path style="fill-rule:evenodd;clip-rule:evenodd;fill:#7B491E;" d="M274.58,128.166c-0.432-3.351,1.616-5.813,2.8-8.431
			c2.355-5.21,1.369-6.543-2.973-8.877c-2.277-1.224-3.964-3.223-6.328-4.316c-0.878-0.406-1.875-1.486-0.952-2.595
			c0.942-1.13,2.098-2.013,3.916-1.478c2.195,0.646,3.464,2.47,5.238,3.632c0.668,0.438,1.282,0.809,1.983,0.54
			c0.836-0.32,0.714-1.175,0.691-1.906c-0.102-3.338,0.464-6.551,1.68-9.668c0.471-1.205,1.239-1.78,2.495-1.558
			c1.36,0.242,1.588,1.232,1.566,2.452c-0.085,4.866,1.439,9.642,0.848,14.533c-0.107,0.891,0.463,1.41,0.918,1.858
			c1.736,1.707,2.723,3.781,3.676,5.986c0.526,1.218,1.814,2.168,3.089,2.966c2.767,1.732,2.884,4.109,1.618,6.793
			c-0.486,1.033-2.365,0.911-3.244-0.174c-1.841-2.271-4.405-3.8-6.2-6.133c-0.606-0.788-1.532-1.208-1.599,0.484
			c-0.062,1.573-1.134,2.715-1.798,4.008c-1.099,2.138-1.301,4.631-2.702,6.612c-0.402,0.568-0.813,1.532-1.696,1.242
			c-0.874-0.287-1.846-0.475-2.238-1.728C274.913,130.958,274.303,129.587,274.58,128.166z"/>
		<path style="fill-rule:evenodd;clip-rule:evenodd;fill:#7B491E;" d="M229.617,78.193c-1.029-5.308,2.571-7.821,6.241-10.246
			c2.064-1.364,3.396-3.216,4.407-5.446c0.492-1.087,0.085-1.59-0.64-2.049c-1.489-0.945-3.031-1.803-4.887-1.763
			c-0.514,0.011-1.077,0.132-1.53-0.035c-0.991-0.366-2.291-0.706-2.203-2.021c0.07-1.051,0.656-1.775,2.078-2.001
			c2.964-0.471,5.802-1.521,8.814,0.005c0.907,0.459,2.079,0.306,2.758-1.181c1.026-2.248,1.804-4.56,2.618-6.877
			c0.498-1.417,0.861-2.864,2.794-3.453c1.971-0.601,2.616,0.313,2.847,1.736c0.373,2.312-0.1,4.591-1.028,6.74
			c-0.726,1.68-1.602,3.296-2.279,4.994c-0.433,1.084-0.306,2.062,1.243,2.105c0.27,0.008,0.549,0.25,0.8,0.214
			c4.129-0.58,7.519,1.694,11.203,2.839c1.542,0.479,2.539,2.123,1.986,3.824c-0.515,1.585-1.75,2.032-3.175,1.432
			c-3.333-1.404-6.656-2.71-10.384-2.156c-0.071,0.011-0.161,0.025-0.218-0.006c-4.167-2.327-6.771-0.004-9.274,2.986
			c-1.403,1.676-3.143,3.019-4.985,4.255c-1.538,1.033-2.411,2.636-2.349,4.619c0.041,1.319,0.029,2.641,0.002,3.961
			c-0.031,1.542-1.646,3.855-2.55,3.476c-1.415-0.595-2.309-1.846-2.292-3.533C229.623,79.806,229.617,79,229.617,78.193z"/>
		<path style="fill-rule:evenodd;clip-rule:evenodd;fill:#7B491E;" d="M205.828,104.708c-0.497-2.38,0.756-4.896,1.092-7.526
			c0.151-1.188,0.015-1.812-0.865-2.449c-2.955-2.135-5.629-4.647-8.792-6.502c-1.015-0.596-1.882-1.46-1.271-2.664
			c0.581-1.143,1.7-0.965,2.865-0.654c3.361,0.893,6.709,1.775,9.553,3.904c0.66,0.494,0.71,0.063,1.057-0.398
			c0.837-1.115,1.313-2.387,1.604-3.673c0.361-1.603,1.488-2.258,2.793-2.661c1.01-0.312,2.155,0.016,2.729,0.892
			c0.558,0.851,0.374,1.976,0.069,2.962c-1.273,4.141-2.575,8.261,0.893,12.062c0.811,0.888,1.236,2.089,1.71,3.133
			c0.477,1.055,0.6,2.485-0.289,3.728c-0.553,0.772-1.301,1.465-1.313,2.632c-0.011,1.028-0.734,1.503-1.904,1.457
			c-1.356-0.053-1.56-0.944-1.521-1.863c0.048-1.12-0.183-2.175-0.569-3.152c-0.405-1.025-1.265-1.446-1.94-0.205
			c-0.883,1.62-2.55,2.686-3.033,4.619c-0.146,0.585-1.057,1.079-1.958,0.811c-0.884-0.264-0.976-0.887-0.92-1.674
			C205.873,106.681,205.828,105.872,205.828,104.708z"/>
		<path style="fill-rule:evenodd;clip-rule:evenodd;fill:#7B491E;" d="M267.225,28.023c0.82,2.584,0.085,4.947-2.003,6.769
			c-1.047,0.913-1.927,2.019-2.988,2.912c-0.694,0.584-1.476,1.063-2.366-0.022c-0.752-0.917-0.449-1.235,0.231-2.012
			c0.503-0.574,0.75-1.522,0.587-2.67c-0.392-2.757-0.722-5.472-1.429-8.208c-0.904-3.502-1.958-3.283-5.243-2.965
			c-0.605,0.059-1.229,0.74-1.752,0.642c-0.814-0.153-1.802,1.489-2.325-0.056c-0.479-1.414,0.521-2.616,1.723-2.834
			c2.022-0.369,3.942-1.436,6.12-0.995c1.284,0.26,1.939-0.37,1.799-1.727c-0.03-0.29-0.04-0.595,0.016-0.877
			c0.431-2.177,1.905-3.894,3.31-3.477c1.901,0.563,2.507,2.188,2.402,4.107c-0.182,3.314,0.43,3.282,3.937,4.696
			c3.796,1.529,7.351,3.744,9.083,7.632c0.685,1.536,0.232,3.615,0.146,5.439c-0.035,0.732-0.656,1.302-1.453,1.387
			c-0.777,0.083-1.339-0.559-1.471-1.105c-0.349-1.453-1.291-1.992-2.564-2.568c-1.644-0.744-2.848-2.201-4.103-3.511
			C268.486,28.166,268.137,27.584,267.225,28.023z"/>
		<path style="fill-rule:evenodd;clip-rule:evenodd;fill:#7B491E;" d="M89.484,88.391c-2.122,0.808-3.518-0.281-5.016-0.669
			c-2.832-0.733-5.594-0.114-8.389,0.029c-1.532,0.078-2.036,0.903-1.969,2.286c0.084,1.71,0.121,3.917-1.767,4.164
			c-1.851,0.242-2.45-1.953-3.146-3.527c-0.319-0.723-0.398-1.277-0.175-2.038c0.626-2.135-0.625-4.195-2.801-4.343
			c-1.688-0.115-2.642-1.325-3.869-2.09c-0.482-0.3-0.851-1.197-0.287-2.122c0.757-1.241,1.805-0.494,2.705-0.638
			c0.262-0.042,0.603,0.332,0.892,0.538c0.802,0.573,1.706,0.207,2.559,0.287c1.62,0.15,0.727-1.206,1.09-1.808
			c0.547-0.905,0.346-1.843,0.386-2.774c0.042-0.987-0.141-2.191,1.158-2.415c1.294-0.223,2.009,0.807,2.328,1.861
			c0.346,1.146,0.856,2.229,0.973,3.481c0.203,2.171,1.697,3.008,3.851,3.492c3.357,0.755,6.921,0.959,9.907,2.967
			c0.37,0.248,0.664,0.533,1.154,0.494c1.613-0.131,2.872,0.322,2.629,2.231C91.455,89.714,89.79,87.866,89.484,88.391z"/>
		<path style="fill-rule:evenodd;clip-rule:evenodd;fill:#7B491E;" d="M61.229,103.905c1.257,0.463,2.112-0.038,2.814-0.375
			c1.293-0.621,2.294,0.164,2.801,0.776c0.539,0.65,0.557,1.991-0.091,2.871c-0.687,0.934-1.592,1.574-2.859,1.765
			c-2.402,0.361-4.751,0.872-5.71,3.648c-0.312,0.904-1.333,1.583-2.203,1.492c-0.741-0.077-1.341-0.935-1.718-1.795
			c-0.564-1.286-0.769-2.684-1.53-3.927c-0.792-1.293-1.708-2.101-3.232-2.084c-0.662,0.007-1.2-0.188-1.343-0.848
			c-0.169-0.777,0.264-1.222,1.024-1.405c0.338-0.081,0.64-0.322,0.978-0.386c2.995-0.561,3.15-0.671,2.967-3.554
			c-0.106-1.672,0.265-3.307,2.001-3.357c1.289-0.037,3.366,0.14,3.152,2.596c-0.09,1.045,0.637,1.439,1.595,1.102
			c0.75-0.265,1.351,0.059,1.603,0.571c0.285,0.58-0.168,1.24-0.675,1.574c-0.437,0.287-0.97,0.407-0.752,1.071
			C60.331,104.49,61.095,103.785,61.229,103.905z"/>
		<path style="fill-rule:evenodd;clip-rule:evenodd;fill:#7B491E;" d="M27.855,115.676c-0.272-1.217,1.196-2.28,0.085-3.703
			c-0.654-0.838-0.854-1.883-2.083-2.356c-0.764-0.293-1.542-0.999-1.559-2.167c-0.016-1.132,0.115-1.784,1.495-1.645
			c1.795,0.182,2.909-0.117,2.197-2.515c-0.334-1.127,0.625-2.389,2.121-2.75c1.581-0.383,2.196,0.75,2.335,1.808
			c0.181,1.373,1.31,2.351,1.209,3.833c-0.052,0.77,0.729,1.261,1.642,1.434c1.855,0.353,3.686,0.84,5.52,1.304
			c0.816,0.206,1.535,0.363,1.642,1.57c0.097,1.097,0.112,1.983-0.907,2.52c-0.811,0.426-1.536,0.627-2.387-0.331
			c-0.739-0.833-3.875,0.127-4.748,1.26c-0.647,0.841-1.351,1.648-1.723,2.68c-0.507,1.403-1.626,2.528-2.997,2.313
			C28.204,118.696,27.775,117.168,27.855,115.676z"/>
		<path style="fill-rule:evenodd;clip-rule:evenodd;fill:#7B491E;" d="M48.691,128.897c-1.144,2.817-2.351,5.627-4.771,7.634
			c-0.534,0.442-1.541,0.627-2.323-0.02c-0.934-0.773-1.812-1.652-1.381-2.95c0.883-2.656-0.496-4.076-2.5-5.422
			c-1.163-0.78-2.48-1.785-1.832-3.563c0.287-0.787,0.644-1.695,1.841-0.765c0.877,0.683,2.023,1.771,3.002,1.222
			c0.903-0.506,0.243-2.006,0.327-3.062c0.076-0.948,0.044-1.908,0.009-2.86c-0.042-1.158,0.827-1.771,1.602-2.145
			c0.815-0.392,1.539,0.16,2.059,1.005C45.29,118.889,48.566,127.756,48.691,128.897z"/>
		<path style="fill-rule:evenodd;clip-rule:evenodd;fill:#7B491E;" d="M346.359,34.123c0.017-2.55-0.713-3.229-3.915-3.622
			c-0.573-0.07-1.173-0.03-1.723-0.18c-0.65-0.178-0.983-0.579-1.021-1.394c-0.041-0.909,0.523-1.231,1.075-1.348
			c0.915-0.193,1.888-0.189,2.831-0.15c1.384,0.057,2.479-0.011,2.352-1.91c-0.064-0.967,0.673-1.515,1.682-1.636
			c1.689-0.203,2.834,0.948,2.996,2.163c0.242,1.814,1.179,2.273,2.643,2.733c1.955,0.613,3.12,3.422,2.134,4.745
			c-0.218,0.291-0.515,0.767-0.758,0.756c-3.947-0.169-3.5,3.442-4.711,5.549c-0.516,0.897-0.765,1.994-1.451,2.811
			c-0.483,0.575-0.988,1.463-1.956,0.946c-0.721-0.385-1.192-1.024-1.07-1.976c0.247-1.925,0.356-3.872,0.695-5.779
			C346.263,35.257,346.292,34.691,346.359,34.123z"/>
		<path style="fill-rule:evenodd;clip-rule:evenodd;fill:#7B491E;" d="M55.283,53.513c-0.304,1.818-0.507,3.269-2.484,2.96
			c-1.513-0.235-2.228,0.82-2.391,1.851c-0.245,1.549-0.936,2.443-2.376,2.062c-1.387-0.366-1.197-1.961-1.177-2.997
			c0.072-3.609-0.166-3.845-3.751-4.93c-1.652-0.5-3.722-0.796-4.268-3.054c-0.127-0.523-0.755-1.09,0.034-1.457
			c0.562-0.261,0.991-0.981,1.909-0.442c1.153,0.676,2.626,0.713,3.822,1.172c2.264,0.871,2.251-0.678,2.608-1.909
			c0.178-0.612-0.092-1.375,0.146-1.942c0.304-0.725,0.568-1.853,1.551-1.771c0.937,0.078,1.991,0.431,2.294,1.628
			c0.085,0.339,0.237,0.662,0.352,0.994c0.742,2.149,0.338,4.865,3.12,6.044C54.923,51.829,55.445,53.071,55.283,53.513z"/>
		<path style="fill-rule:evenodd;clip-rule:evenodd;fill:#7B491E;" d="M26.95,66.483c-0.295,1.321-0.734,2.809-2.256,2.694
			c-1.866-0.141-2.755,0.978-3.847,2.016c-0.553,0.526-1.017,1.511-1.946,1.086c-0.946-0.432-1.664-1.396-1.571-2.42
			c0.247-2.742-1.149-4.443-3.182-5.926c-0.778-0.568-1.035-1.461-0.706-2.47c0.309-0.95,0.969-1.089,1.838-1.02
			c1.787,0.144,2.357-0.542,1.732-2.336c-0.483-1.388-0.133-2.567,1.309-3.447c1.205-0.735,2.142-0.179,2.627,0.546
			c0.642,0.96,0.88,2.228,1.141,3.397c0.525,2.347,1.098,4.566,3.788,5.444C26.979,64.407,26.191,65.85,26.95,66.483z"/>
		<path style="fill-rule:evenodd;clip-rule:evenodd;fill:#7B491E;" d="M24.409,85.526c1.706,0.254,2.37,1.782,2.908,3.026
			c0.415,0.959,0.867,1.521,1.72,1.997c2.091,1.168,2.291,3.436,0.48,4.987c-0.319,0.274-1.054,0.516-1.027,0.676
			c0.45,2.671-1.693,2.39-3.189,3.023c-2.172,0.922-4.043,0.042-3.484-2.265c0.819-3.378-1.24-3.502-3.325-3.88
			c-0.839-0.153-1.734-0.126-1.612-1.257c0.106-0.989,0.775-1.664,1.788-1.842c0.499-0.088,1.024-0.016,1.538-0.025
			c1.393-0.025,3.135,0.524,2.044-2.167C21.83,86.763,22.627,85.359,24.409,85.526z"/>
		<path style="fill-rule:evenodd;clip-rule:evenodd;fill:#7B491E;" d="M68.371,64.918c0.049,2.136-0.792,3.072-2.328,3.316
			c-1.194,0.19-2.039,0.566-2.693,1.755c-0.864,1.572-2.914,1.53-3.674-0.074c-0.984-2.075-2.43-3.458-4.561-4.198
			c-0.639-0.222-0.816-0.701-0.843-1.356c-0.041-0.977,0.682-1.346,1.331-1.445c1.617-0.246,2.277-0.867,1.806-2.603
			c-0.367-1.354,0.839-1.839,1.801-2.333c1.25-0.642,1.777,0.604,2.518,1.109c0.462,0.315,0.808,1.081,0.856,1.672
			c0.155,1.914,1.5,2.173,2.953,2.329C67.014,63.25,68.102,63.844,68.371,64.918z"/>
		<path style="fill-rule:evenodd;clip-rule:evenodd;fill:#7B491E;" d="M27.643,69.679c0.667-0.048,1.212,0.572,1.51,1.326
			c0.958,2.422,2.252,4.474,4.625,5.844c1.172,0.677,0.704,2.829-0.83,3.247c-1.818,0.496-2.811,1.7-3.831,3.031
			c-0.725,0.944-1.568,1.553-2.865,1.178c-1.448-0.419-0.97-1.582-1.033-2.528c-0.044-0.657-0.079-1.33,0.007-1.979
			c0.157-1.188-0.213-1.965-1.455-2.154c-1.301-0.197-1.607-1.232-1.573-2.21c0.031-0.891,0.635-1.442,1.77-1.363
			c1.474,0.103,1.273-1.118,1.23-2.04C25.128,70.493,25.769,69.687,27.643,69.679z"/>
		<path style="fill-rule:evenodd;clip-rule:evenodd;fill:#7B491E;" d="M166.621,101.97c0.267,2.109-1.1,3.605-2.077,5.197
			c-0.517,0.843-0.873,1.511-0.197,2.323c1.58,1.897,0.903,4.029,0.271,5.895c-0.407,1.199-0.879,2.478-1.508,3.646
			c-0.417,0.773-1.117,1.349-1.754,1.002c-0.698-0.38-1.849-1.035-1.169-2.207c0.96-1.655,0.902-3.221,0.15-4.922
			c-0.211-0.479-0.098-1.269,0.16-1.762c1.687-3.225,1.206-6.701,1.267-10.11c0.028-1.585-0.154-3.225,2.202-3.135
			c2.074,0.078,2.498,1.528,2.652,3.194C166.645,101.383,166.622,101.677,166.621,101.97z"/>
		<path style="fill-rule:evenodd;clip-rule:evenodd;fill:#7B491E;" d="M150.291,54.049c0.08-1.059,0.09-1.568,0.729-2.209
			c1.345-1.348,0.25-3.201-0.01-4.669c-0.216-1.218-0.053-2.336,0.49-2.942c0.987-1.103,0.82-1.957,0.183-2.965
			c-0.672-1.067-0.54-2.063,0.296-2.905c0.419-0.423,1.089-1.012,1.658-0.675c1.012,0.598,2.104,1.617,1.469,2.823
			c-1.073,2.038,0.486,3.369,1.022,4.895c0.791,2.251-0.005,3.87-1.442,5.339c-0.774,0.791-1.018,1.585-0.352,2.368
			c1.054,1.239,0.714,2.387-0.097,3.429c-0.426,0.547-1.19,0.785-2.004,0.427C150.767,56.32,150.358,55.113,150.291,54.049z"/>
		<path style="fill-rule:evenodd;clip-rule:evenodd;fill:#7B491E;" d="M34.051,65.737c-0.22-0.002-0.497,0.085-0.651-0.016
			c-2.161-1.404-2.335-4.052-3.655-6.005c-0.626-0.926,0.574-1.551,1.44-2.007c1.303-0.688,0.716-2.105,0.996-3.157
			c0.298-1.119,0.582-1.976,1.826-2.006c1.127-0.028,1.538,0.734,1.853,1.758c0.216,0.705,0.367,1.369,0.368,2.091
			c0.003,1.5-0.012,2.906,0.879,4.338C38.365,62.754,36.421,65.724,34.051,65.737z"/>
		<path style="fill-rule:evenodd;clip-rule:evenodd;fill:#7B491E;" d="M139.656,107.149c-0.137,1.457-0.757,2.638-1.625,3.675
			c-1.113,1.331-3.289,1.09-3.443-0.474c-0.197-2.005-1.089-3.946-0.588-6.036c0.271-1.128,0.272-2.298,1.843-2.466
			c1.637-0.174,2.867,0.323,3.437,1.916c0.258,0.721,0.585,1.437,0.507,2.283c-0.051,0.556,0.231,1.334,1.023,0.666
			c1.74-1.467,2.224-0.027,2.985,1.116c0.896,1.346,0.03,2.487-0.297,3.669c-0.138,0.498-0.752,0.57-1.317,0.43
			c-1.467-0.362-1.647-1.631-1.969-2.771C140.033,108.519,140.396,107.757,139.656,107.149z"/>
		<path style="fill-rule:evenodd;clip-rule:evenodd;fill:#7B491E;" d="M135.503,125.042c1.137,0.146,1.692,1.066,1.967,1.9
			c0.379,1.151-0.153,2.245-1.03,3.127c-0.412,0.413-0.908,0.64-1.356,0.298c-0.943-0.719-1.247-1.791-1.039-2.908
			c0.258-1.385-0.163-2.785-0.167-3.955c-0.008-2.604,0.049-5.217-0.087-7.853c-0.058-1.126,1.251-2.078,2.487-1.806
			c1.039,0.229,1.971,0.828,2.208,2.306C139.041,119.607,138.812,122.662,135.503,125.042z"/>
		<path style="fill-rule:evenodd;clip-rule:evenodd;fill:#7B491E;" d="M170.142,77.536c0.09,1.188,0.14,2.356-1.028,3.123
			c-0.555,0.363-0.97,0.984-1.836,0.596c-0.783-0.351-1.002-1-1.073-1.681c-0.18-1.731,0.051-3.436,0.711-5.05
			c0.167-0.408,0.678-0.474-0.097-1.011c-1.38-0.955-2.126-5.188-1.467-6.649c0.271-0.6,0.916-0.876,1.377-0.919
			c0.56-0.052,1.228,0.264,1.575,0.894c0.974,1.77,1.484,3.601,0.503,5.52c-0.447,0.874-0.692,1.458,0.457,2.032
			C170.584,75.049,170.046,76.428,170.142,77.536z"/>
		<path style="fill-rule:evenodd;clip-rule:evenodd;fill:#7B491E;" d="M173.67,114.058c-0.001,3.082-1.997,5.52-4.442,5.426
			c-1.782-0.069-2.609-1.216-2.048-2.897c0.222-0.666,0.835-1.199,0.756-1.967c-0.225-2.166,0.209-3.505,2.885-3.686
			c2.027-0.137,2.791,0.02,2.848,2.03C173.679,113.329,173.67,113.693,173.67,114.058z"/>
		<path style="fill-rule:evenodd;clip-rule:evenodd;fill:#7B491E;" d="M164.443,59.914c-0.119-1.365-0.069-2.711,1.15-3.341
			c0.8-0.413,1.697-1.514,2.704-0.757c1.318,0.992,1.786,2.655,1.742,4.155c-0.035,1.175-0.552,2.438-1.186,3.572
			c-0.492,0.879-1.274,1.263-2.076,1.252c-0.898-0.013-1.682-0.86-1.809-1.624C164.785,62.057,164.077,61.008,164.443,59.914z"/>
		<path style="fill-rule:evenodd;clip-rule:evenodd;fill:#7B491E;" d="M119.925,89.342c0.12,2.225-1.237,3.883-2.213,5.677
			c-0.234,0.429-0.676,0.818-1.273,0.654c-0.67-0.184-1.276-0.699-1.294-1.301c-0.064-2.181-0.289-4.38,0.114-6.545
			c0.238-1.28,0.998-2.508,2.377-2.164c1.173,0.293,2.281,1.252,2.29,2.801C119.926,88.757,119.925,89.05,119.925,89.342z"/>
		<path style="fill-rule:evenodd;clip-rule:evenodd;fill:#7B491E;" d="M153.42,72.276c-0.066-1.489-0.117-2.841,1.763-3.013
			c1.814-0.167,2.498,0.583,2.741,2.457c0.151,1.168,0.043,2.183-0.065,3.297c-0.113,1.168-0.446,2.021-1.65,2.149
			c-1.303,0.139-2.072-0.822-2.294-1.875C153.698,74.267,153.065,73.267,153.42,72.276z"/>
		<path style="fill-rule:evenodd;clip-rule:evenodd;fill:#7B491E;" d="M126.112,90.402c-0.412-0.154-1.223,0.395-1.314-0.562
			c-0.074-0.772-0.263-1.773,0.757-2.019c1.276-0.309,1.047-1.094,1.001-2.007c-0.08-1.603-0.009-3.213-0.026-4.82
			c-0.014-1.306,0.602-2.497,1.833-2.352c1.155,0.137,1.4,1.442,1.352,2.689c-0.084,2.194-0.166,4.329-1.993,5.918
			c-0.414,0.359-0.154,0.687-0.009,1.124C128.144,89.68,127.744,90.528,126.112,90.402z"/>
		<path style="fill-rule:evenodd;clip-rule:evenodd;fill:#7B491E;" d="M148.98,41.351c0.152,1.601-0.224,2.877-1.813,3.529
			c-0.496,0.204-0.985,0.214-1.477,0.062c-1.166-0.361-2.4-3.323-1.944-4.988c0.416-1.515,1.548-2.261,3.117-1.946
			C148.682,38.374,149.228,39.676,148.98,41.351z"/>
		<path style="fill-rule:evenodd;clip-rule:evenodd;fill:#7B491E;" d="M129.177,38.658c1.213-1.407,0.603-3.541,1.101-5.454
			c0.235-0.906,0.883-2.219,2.063-1.723c1.044,0.439,1.688,1.699,1.421,2.971c-0.2,0.956-0.632,1.888-1.1,2.756
			c-0.331,0.613-0.641,1.269-0.302,1.825c0.535,0.878,0.35,1.454-0.344,2.077c-0.511,0.458-0.951,0.473-1.567,0.171
			C129.476,40.805,129.166,40.039,129.177,38.658z"/>
		<path style="fill-rule:evenodd;clip-rule:evenodd;fill:#7B491E;" d="M146.305,119.512c0.383,1.902-0.901,2.913-2.05,3.364
			c-1.413,0.554-1.787-1.088-2.28-2.059c-0.476-0.938-1.011-1.925-0.883-3.023c0.114-0.982,0.272-2.077,1.548-2.256
			c1.208-0.169,2.506-0.085,2.772,1.378C145.594,117.916,147.069,118.43,146.305,119.512z"/>
		<path style="fill-rule:evenodd;clip-rule:evenodd;fill:#7B491E;" d="M119.924,80.137c0.087,1.456-0.646,2.541-1.451,3.53
			c-0.695,0.854-3.008-0.07-3.287-1.474c-0.262-1.319-0.379-2.764,0.116-4.09c0.294-0.79,0.693-1.761,1.698-1.742
			c1.03,0.02,2.043,0.591,2.369,1.582C119.603,78.655,120.172,79.352,119.924,80.137z"/>
		<path style="fill-rule:evenodd;clip-rule:evenodd;fill:#7B491E;" d="M123.018,46.847c-0.379-1.282,0.364-2.231,1.435-2.979
			c0.765-0.534,1.623,0.062,1.92,0.481c0.718,1.013,1.986,1.963,1.145,3.554c-0.405,0.766,0.241,1.748-0.423,2.509
			c-1.17,1.341-2.71,0.923-3.661-0.896C123.001,48.687,123.013,47.861,123.018,46.847z"/>
		<path style="fill-rule:evenodd;clip-rule:evenodd;fill:#7B491E;" d="M130.498,56.857c0.013,2.237-0.963,3.515-2.747,3.595
			c-1.393,0.063-2.544-1.243-2.534-2.874c0.01-1.547,1.68-3.749,2.859-3.728C130.063,53.887,130.595,55.125,130.498,56.857z"/>
		<path style="fill-rule:evenodd;clip-rule:evenodd;fill:#7B491E;" d="M113.605,52.972c1.15,0.05,3.056,2.319,2.741,3.614
			c-0.339,1.391-0.644,3.142-2.477,3.373c-1.407,0.177-2.85-1.928-2.742-3.791C111.22,54.571,111.72,53.214,113.605,52.972z"/>
		<path style="fill-rule:evenodd;clip-rule:evenodd;fill:#7B491E;" d="M129.626,20.77c-0.031-1.822-0.218-3.84,1.949-3.811
			c1.604,0.021,2.363,1.67,2.443,3.33c0.092,1.895-1.138,4.081-2.357,3.869C129.711,23.816,129.327,22.297,129.626,20.77z"/>
		<path style="fill-rule:evenodd;clip-rule:evenodd;fill:#7B491E;" d="M139.306,80.296c-0.337,0.991-0.554,2.29-2.315,2.193
			c-1.635-0.09-4.565-2.027-4.238-2.979c0.471-1.371,1.607-2.244,3.083-2.289C138.062,77.155,139.326,78.273,139.306,80.296z"/>
		<path style="fill-rule:evenodd;clip-rule:evenodd;fill:#7B491E;" d="M159.579,42.159c0.13-1.49-0.234-3.337,2.235-3.294
			c1.676,0.029,2.559,1.155,2.595,3.449c0.027,1.725-1.057,3.019-2.538,3.022C160.26,45.341,159.187,44.087,159.579,42.159z"/>
		<path style="fill-rule:evenodd;clip-rule:evenodd;fill:#7B491E;" d="M119.033,53.997c0.192-0.943,0.122-1.899,0.564-2.428
			c0.521-0.624,1.251-1.512,2.424-0.692c1.967,1.374,2.167,5.059,0.31,6.508c-1.203,0.939-2.19,0.411-2.677-0.645
			C119.259,55.88,119.428,54.764,119.033,53.997z"/>
		<path style="fill-rule:evenodd;clip-rule:evenodd;fill:#7B491E;" d="M154.746,32.519c-0.165,1.232-0.686,2.336-1.543,3.203
			c-1.068,1.078-2.502,0.532-2.79-1.153c-0.218-1.278-0.141-2.625-0.055-3.932c0.05-0.77,0.645-1.285,1.413-1.44
			c0.922-0.187,1.849-0.009,2.261,0.879C154.378,30.823,154.82,31.608,154.746,32.519z"/>
		<path style="fill-rule:evenodd;clip-rule:evenodd;fill:#7B491E;" d="M119.925,100.27c-0.149,0.92,0.275,1.978-0.604,2.975
			c-0.586,0.665-0.93,1.605-1.95,1.206c-0.856-0.336-1.093-1.493-0.893-2.122c0.391-1.231-0.132-2.102-0.451-3.159
			c-0.36-1.194,0.04-2.372,1.534-2.57c1.459-0.193,2.395,0.403,2.365,2.035C119.917,99.144,119.925,99.653,119.925,100.27z"/>
		<path style="fill-rule:evenodd;clip-rule:evenodd;fill:#7B491E;" d="M111.996,102.743c-0.048,1.678-0.798,2.826-1.821,2.792
			c-2.005-0.068-3.155-1.375-3.007-3.567c0.095-1.407,0.598-2.486,2.369-2.323C111.156,99.793,112.051,100.846,111.996,102.743z"/>
		<path style="fill-rule:evenodd;clip-rule:evenodd;fill:#7B491E;" d="M158.25,126.43c0.041-1.136-0.132-2.231,0.779-3.269
			c0.861-0.979,1.66-0.773,2.39-0.228c0.936,0.699,1.147,4,0.352,5.082c-0.509,0.694-0.581,1.955-2.18,1.472
			c-1.461-0.443-1.43-1.302-1.343-2.397C158.266,126.872,158.251,126.651,158.25,126.43z"/>
		<path style="fill-rule:evenodd;clip-rule:evenodd;fill:#7B491E;" d="M140.182,29.38c0.107,1.572-0.438,2.671-1.976,2.846
			c-1.51,0.171-1.82-0.863-2.057-2.175c-0.203-1.127-1.097-2.245,0.059-3.214c0.577-0.484,1.327-1.15,2.302-0.485
			C139.635,27.121,140.355,28.052,140.182,29.38z"/>
		<path style="fill-rule:evenodd;clip-rule:evenodd;fill:#7B491E;" d="M152.991,114.923c-0.074,0.929,0.032,1.537-0.376,2.159
			c-0.437,0.665-0.758,1.621-1.626,1.41c-0.817-0.199-1.721-0.665-1.588-1.952c0.076-0.738-0.45-1.546-0.348-2.272
			c0.119-0.847-0.17-2.126,1.279-2.266c1.295-0.125,2.178,0.371,2.419,1.742C152.837,114.234,152.949,114.719,152.991,114.923z"/>
		<path style="fill-rule:evenodd;clip-rule:evenodd;fill:#7B491E;" d="M118.62,70.954c-0.083-1.602-0.068-3.068,1.989-2.997
			c1.962,0.068,1.914,1.564,1.965,2.968c0.049,1.339-0.031,2.96-1.596,2.982C119.361,73.93,118.179,72.794,118.62,70.954z"/>
		<path style="fill-rule:evenodd;clip-rule:evenodd;fill:#7B491E;" d="M131.371,73.955c0.213,1.088-0.278,2.096-0.825,3.145
			c-0.356,0.683-0.73,1.128-1.478,0.925c-0.638-0.174-0.795-0.737-0.781-1.385c0.031-1.464,0.025-2.93,0.004-4.395
			c-0.013-0.881,0.096-1.62,1.219-1.66c1.055-0.038,1.62,0.58,1.837,1.488C131.479,72.627,131.371,73.24,131.371,73.955z"/>
		<path style="fill-rule:evenodd;clip-rule:evenodd;fill:#7B491E;" d="M129.623,96.428c-0.027,1.258-0.108,2.535-1.704,2.769
			c-1.045,0.152-2.702-2.263-2.697-3.863c0.003-1.11,0.6-1.765,1.712-1.83C128.493,93.413,129.634,94.682,129.623,96.428z"/>
		<path style="fill-rule:evenodd;clip-rule:evenodd;fill:#7B491E;" d="M173.454,68.388c0.911,0.004,3.015,2.036,2.731,2.864
			c-0.403,1.178-0.945,2.467-2.365,2.807c-0.821,0.198-2.433-2.352-2.208-3.737C171.759,69.413,172.197,68.415,173.454,68.388z"/>
		<path style="fill-rule:evenodd;clip-rule:evenodd;fill:#7B491E;" d="M119.616,61.772c1.301,0.156,2.758,0.466,2.874,1.996
			c0.099,1.306-0.987,2.411-2.301,2.33c-1.379-0.085-2.544-0.829-2.5-2.647C117.723,62.056,118.296,61.594,119.616,61.772z"/>
		<path style="fill-rule:evenodd;clip-rule:evenodd;fill:#7B491E;" d="M119.044,109.203c0.01,1.28,0.288,3.13-1.398,3.093
			c-1.653-0.037-1.756-1.856-1.688-3.315c0.02-0.435-0.108-0.914,0.034-1.299c0.289-0.788,0.803-1.656,1.686-1.591
			c0.867,0.062,1.557,0.691,1.377,1.806C118.987,108.321,119.044,108.766,119.044,109.203z"/>
		<path style="fill-rule:evenodd;clip-rule:evenodd;fill:#7B491E;" d="M127.402,119.151c-0.333-1.358,0.605-2.25,1.928-2.223
			c1.141,0.023,2.054,0.929,2.051,2.32c-0.002,1.203-1.652,3.059-2.699,2.848C127.158,121.79,127.45,120.474,127.402,119.151z"/>
		<path style="fill-rule:evenodd;clip-rule:evenodd;fill:#7B491E;" d="M129.613,27.209c-0.142-0.969,0.091-1.904,1.162-1.774
			c1.615,0.195,1.978,1.777,2.286,3.01c0.218,0.874-0.609,1.641-1.619,1.587C129.603,29.935,129.746,28.446,129.613,27.209z"/>
		<path style="fill-rule:evenodd;clip-rule:evenodd;fill:#7B491E;" d="M123.42,29.146c0.193,1.183-0.847,1.613-1.428,1.594
			c-1.271-0.042-1.904-1.082-2.052-2.3c-0.125-1.033,0.517-1.815,1.422-1.848C123.029,26.535,122.869,28.217,123.42,29.146z"/>
		<path style="fill-rule:evenodd;clip-rule:evenodd;fill:#7B491E;" d="M166.183,85.833c-0.167-0.854,0.188-1.152,1.176-1.19
			c1.204-0.046,1.765,0.888,1.691,1.53c-0.081,0.703-0.833,1.616-1.849,1.562C166.054,87.674,166.179,86.723,166.183,85.833z"/>
		<path style="fill-rule:evenodd;clip-rule:evenodd;fill:#7B491E;" d="M118.161,117.367c0.037,0.86-0.05,1.719-1.182,1.644
			c-1.13-0.075-1.009-1.01-1.023-1.813c-0.014-0.862,0.058-1.721,1.189-1.645C118.273,115.627,118.175,116.56,118.161,117.367z"/>
		<path style="fill-rule:evenodd;clip-rule:evenodd;fill:none;" d="M346.358,68.408c-0.052,0.314,0.081,0.797-0.415,0.791
			c-0.653-0.008-0.424-0.584-0.455-0.95c-0.031-0.35,0.006-0.773,0.503-0.69C346.445,67.635,346.327,68.08,346.358,68.408z"/>
	</g>
</g>
</svg>
