<?xml version="1.0" encoding="iso-8859-1"?>
<!-- Generator: Adobe Illustrator 16.0.0, SVG Export Plug-In . SVG Version: 6.00 Build 0)  -->
<!DOCTYPE svg PUBLIC "-//W3C//DTD SVG 1.1//EN" "http://www.w3.org/Graphics/SVG/1.1/DTD/svg11.dtd">
<svg version="1.1" id="Layer_1" xmlns="http://www.w3.org/2000/svg" xmlns:xlink="http://www.w3.org/1999/xlink" x="0px" y="0px"
	 width="401.468px" height="132.833px" viewBox="0 0 401.468 132.833" style="enable-background:new 0 0 401.468 132.833;"
	 xml:space="preserve">
<g>
	<g>
		<path style="fill:none;" d="M200.733,132.297c-66.142,0-132.284-0.006-198.426,0.036c-1.475,0.002-1.809-0.331-1.807-1.807
			C0.546,87.722,0.545,44.916,0.5,2.11C0.499,0.764,0.764,0.5,2.111,0.5c132.415,0.04,264.831,0.04,397.246,0
			c1.346,0,1.612,0.263,1.611,1.61c-0.046,42.871-0.046,85.742,0,128.612c0.001,1.347-0.265,1.612-1.611,1.611
			C333.149,132.291,266.941,132.297,200.733,132.297z M38.686,68.966c-1.166-0.21-0.917-1.695-1.896-2.094
			c-0.732-0.299-1.276-0.891-2.285-0.369c-0.936,0.485-0.896,1.105-0.94,1.888c-0.101,1.768,1.158,2.539,2.38,3.33
			c1.06,0.688,1.913,0.217,2.285-0.773c0.228-0.607,0.717-1.271,0.413-2.027c0.927,0.449,1.396,1.471,2.404,1.848
			c1.344,0.502,2.256-0.188,2.978-1.1c0.391-0.494,0.383-1.302-0.303-1.705c-0.865-0.508-1.759-1.042-2.713-1.308
			C39.135,66.133,38.352,66.972,38.686,68.966z M287.557,98.159c0.271,1.412,0.048,2.558-0.376,3.64
			c-1.271,3.242-2.076,6.56-1.889,10.072c0.059,1.098-0.541,1.939-1.568,1.897c-4.093-0.165-8.062,1.423-12.165,0.817
			c-2.271-0.335-4.333-0.982-5.76-3.101c-1.624-2.41-3.464-4.609-5.807-6.497c-1.964-1.582-4.416-2.738-5.826-4.879
			c-1.876-2.851-4.989-4.255-7.204-6.687c-0.931-1.021-2.224-0.574-3.194,0.072c-0.875,0.583-1.511,1.232-1.182,2.714
			c0.556,2.513,2.04,4.476,3.24,6.577c1.771,3.103,5.006,4.909,7.344,7.529c1.759,1.971,4.193,3.174,5.799,5.292
			c1.501,1.98,2.65,4.192,4.143,6.192c0.84,1.126,2.294,0.77,3.079,1.802c1.136,1.49,2.123,3.564,4.519,1.622
			c0.04-0.032,0.136-0.023,0.192-0.001c3.073,1.236,5.634-0.737,8.427-1.302c2.229-0.45,4.432-2.05,6.798-0.435
			c0.474,0.323,0.662-0.132,0.991-0.263c2.574-1.019,5.01-3.063,8.02-1.179c0.143,0.089,0.427,0.092,0.576,0.01
			c1.702-0.925,3.415,0.026,5.076-0.066c6.071-0.339,12.044,0.791,18.078,0.927c2.634,0.06,4.332-0.954,5.486-3.126
			c0.941-1.772,1.633-3.689,2.688-5.386c1.804-2.903,3.2-6.061,5.637-8.596c0.702-0.731,1.275-1.851,1.82-2.856
			c2.17-4.005,1.403-8.321,1.531-12.545c0.054-1.771-1.084-3.542-2.256-3.876c-1.384-0.394-3.444-0.185-4.702,1.375
			c-0.298,0.369-0.56,0.688-0.518,1.198c0.092,1.104-0.668,1.889-1.092,2.803c-0.907,1.962-2.825,3.043-4.079,4.733
			c-1.032,1.393-1.668,3.022-2.752,4.308c-2.91,3.454-4.856,7.359-6.287,11.609c-0.453,1.346-1.64,2.446-3.213,2.386
			c-1.444-0.055-2.889-0.428-4.307-0.771c-3.43-0.832-6.822-1.739-10.413-0.815c-1.147,0.295-2.194-0.05-2.086-1.678
			c0.078-1.153-0.035-2.315,0.422-3.428c1.492-3.637,1.716-7.317,0.404-11.07c-0.354-1.014-0.606-2.074-0.793-3.133
			c-0.221-1.259,0.193-2.001,1.677-1.891c1.078,0.08,2.143,0.064,3.223-0.405c3.517-1.532,7.297-2.101,11.052-2.679
			c1.066-0.165,1.984-0.274,2.104-1.5c0.154-1.575,0.162-3.417-1.579-3.976c-4.578-1.472-9.136-1.639-13.733,0.422
			c-2.269,1.017-4.561,2.383-7.22,2.239c-0.937-0.05-1.819,0.132-2.634,0.451c-4.521,1.776-8.888,1.847-13.449-0.181
			c-2.003-0.892-4.183-1.87-6.677-1.485c-2.674,0.413-4.075,2.709-2.399,4.799c2.801,3.494,6.031,6.576,10.099,8.621
			c1.818,0.914,3.618,1.674,5.793,1.651C283.141,100.088,285.359,99.37,287.557,98.159z M159.051,46.287
			c0.344,0.113,0.621,0.145,0.829,0.282c1.1,0.721,1.997,0.468,2.616-0.612c0.609-1.064,0.959-2.251-0.302-3.081
			c-0.777-0.51-1.061-1.13-1.243-1.978c-0.299-1.395-0.994-2.805-2.056-3.577c-3.737-2.72-6.064-6.342-7.372-10.657
			c-0.769-2.54-2.476-4.626-3.146-7.22c-0.481-1.864-1.274-3.697-3.013-4.835c-1.191-0.78-2.492-0.054-2.327,0.907
			c0.43,2.497-1.408,3.607-2.512,5.168c-0.994,1.405-2.565,1.911-4.086,1.413c-1.431-0.469-2.898-1.373-3.323-3
			c-0.655-2.511-1.052-5.088-1.652-7.614c-0.373-1.571-2.121-2.718-3.329-2.34c-2.381,0.746-6.183,5.543-6.47,8.05
			c-0.304,2.64-2.824,4.142-5.131,3.875c-2.687-0.31-4.735-1.167-5.866-3.768c-0.296-0.682-0.927-1.218-1.396-1.827
			c-1.79-2.326-4.134-1.116-4.833,0.87c-0.962,2.73-2.12,5.36-3.211,8.03c-1.315,3.219-2.735,6.331-4.543,9.311
			c-1.494,2.461-2.608,5.153-3.89,7.743c-0.588,1.189-0.295,3.961,0.587,4.521c3.131,1.985,5.99,4.351,9.028,6.451
			c3.646,2.519,8.078,1.96,12.235,2.373c0.211,0.021,0.437-0.26,0.675-0.332c1.952-0.591,3.845-1.365,5.973-1.22
			c2.327,0.158,4.665,0.223,6.991,0.331c5.731,0.265,11.475,0.038,17.158,1.21c1.821,0.376,3.529-0.528,4.774-1.957
			c1.707-1.96,3.662-2.626,6.045-1.351c1.127,0.604,1.511-0.25,1.973-0.923C159.106,49.261,159.122,47.79,159.051,46.287z
			 M203.006,73.598c0.754,0.208,1.377-0.11,1.845,0.478c1.1,1.377,2.359,2.646,3.317,4.112c0.909,1.393,1.887,2.5,3.538,3.011
			c1.746,0.539,3.524,0.963,5.211,1.743c1.455,0.674,3.018,0.199,4.143-0.814c1.065-0.959,1.128-2.225,0.442-3.662
			c-0.495-1.04-1.354-1.609-1.971-2.416c-2.659-3.481-7.554-3.554-10.216-6.934c-0.066-0.086-0.232-0.116-0.357-0.129
			c-0.791-0.08-1.867,0.276-1.907-1.048c-0.024-0.831-0.213-1.689,0.166-2.508c0.608-1.313,1.215-2.629,1.787-3.958
			c1.337-3.104,0.867-6.636,2.317-9.731c0.408-0.871,0.846-2.172-0.254-2.732c-1.015-0.517-2.372-0.388-3.396,0.29
			c-3.672,2.431-5.435,6.257-6.425,10.248c-0.657,2.651-0.924,5.298-2.707,7.536c-0.777,0.976-1.558,1.391-2.824,1.573
			c-1.804,0.261-3.578-0.396-5.296,0.016c-1.155,0.277-1.698-0.062-2.306-0.942c-0.854-1.238-1.174-2.647-1.523-4.043
			c-0.515-2.058-0.689-4.261-2.404-5.786c-1.167-1.038-2.303-2.044-3.003-3.504c-0.286-0.597-0.958-0.99-1.623-1.326
			c-1.276-0.645-2.289,0.003-3.225,0.608c-0.807,0.522-0.733,1.311-0.46,2.322c0.659,2.434,1.001,4.942,3.021,6.761
			c0.187,0.169,0.132,0.598,0.206,0.902c0.509,2.096,1.042,4.193,2.651,5.771c0.492,0.481,0.613,1.022,0.449,1.595
			c-0.197,0.688-0.819,0.706-1.437,0.706c-1.718,0-3.378-0.185-5.089-0.486c-1.59-0.279-2.135-1.099-2.398-2.038
			c-0.544-1.938-1.284-3.768-2.594-5.226c-2.55-2.838-6.767-5.442-11.167-3.326c-0.942,0.454-2.116,0.833-3.176,0.277
			c-1.133-0.595-1.631,0.187-1.959,0.895c-0.361,0.779-0.484,1.853,0.491,2.299c1.705,0.777,2.846,2.537,5.016,2.593
			c0.751,0.02,1.675,0.836,1.902,1.905c0.419,1.974,1.615,3.523,3.263,4.483c1.745,1.016,0.673,1.433-0.226,1.718
			c-1.155,0.367-1.424,1.049-1.492,2.146c-0.084,1.369,0.023,3.033-0.318,4.034c-0.659,1.933-0.732,4.087-1.896,5.895
			c-0.667,1.037,0.985,3.083,2.2,2.672c2.271-0.769,4.548-1.706,5.549-4.225c0.777-1.953,2.154-3.767,3.92-4.428
			c3.028-1.134,6.53-0.831,9.362-2.828c0.313-0.221,0.902-0.121,1.35-0.065c3,0.373,5.948-0.006,8.805-0.84
			c1.839-0.537,3.825-0.182,5.567-1.734C199.175,74.297,201.369,74.145,203.006,73.598z M323.862,37.898
			c-0.827,0.18-1.782,0.537-2.466,1.413c-0.93,1.191-0.682,4.253,0.658,5.59c0.834,0.832,1.26,1.708,0.976,2.763
			c-0.801,2.981,0.272,5.798,0.961,8.545c0.306,1.22,0.03,3.002,1.365,3.787c1.348,0.792,2.603,2.003,4.56,1.191
			c1.037-0.43,2.518,0.221,3.04-1.426c0.046-0.145,0.652-0.29,0.863-0.178c2.521,1.325,5.23,0.515,7.843,0.737
			c1.363,0.115,2.982-0.588,3.679,1.468c0.143,0.423,1.205,0.796,1.927,0.4c1.175-0.646,2.404-1.272,3.205-2.395
			c0.966-1.354,0.311-3.96-1.221-4.466c-0.89-0.294-1.943-0.081-2.923-0.121c-1.363-0.057-2.141,0.522-2.024,1.944
			c0.107,1.314-0.519,1.408-1.526,1.059c-0.722-0.249-1.184-0.459-1.338-1.468c-0.244-1.582-1.604-2.463-3.143-2.654
			c-0.861-0.106-1.979-0.54-2.634,0.617c-0.727,1.286-1.882,2.208-2.812,3.288c-1.207,1.399-1.533,0.563-1.949-0.281
			c-0.732-1.487-1.875-1.772-3.151-1.046c-1.296,0.736-1.527-0.583-1.372-0.866c0.442-0.811-0.003-1.731,0.689-2.554
			c0.751-0.893,0.775-2.025-0.391-3.026c-0.891-0.764-1.515-1.739-0.954-3.253c0.667-1.8,0.841-3.785,1.212-5.692
			C327.177,40.029,325.386,37.928,323.862,37.898z M344.513,10.401c-1.084-0.205-2.079,0.224-3.082,0.661
			c-1.199,0.524-1.521,1.697-0.977,2.524c2.436,3.708-0.749,8.047,1.461,11.723c0.023,0.037-0.011,0.138-0.05,0.179
			c-1.261,1.322,0.442,3.101-0.691,4.477c-0.201,0.245-0.021,0.751,0.346,1.03c0.564,0.427,0.29,0.765-0.007,1.287
			c-1.303,2.285-1.009,3.375,1.277,4.264c1.223,0.476,2.486,0.379,3.516-0.808c1.056-1.217,0.597-2.41-0.241-3.154
			c-0.82-0.729-0.453-0.977-0.158-1.689c0.54-1.305,1.163-3.24,0.219-4.057c-2.095-1.812-0.648-3.558-0.258-5.125
			c0.374-1.501,0.737-2.674-0.53-3.813c-0.506-0.454-1.021-0.97-0.415-1.646c0.705-0.784,0.865-1.877,1.514-2.633
			c0.643-0.75,0.826-1.512,0.474-2.313C346.474,10.32,345.52,10.252,344.513,10.401z M364.345,19.064
			c-1.255-0.365-1.953,0.292-2.326,1.397c-0.431,1.277-1.104,2.396-1.886,3.491c-0.347,0.486-0.872,1.116-0.192,1.907
			c0.735,0.855,0.338,3.974-0.136,4.961c-0.749,1.559-2.812,2.772-1.43,5.019c0.497,0.809-0.548,2.395,0.759,2.729
			c1.182,0.302,1.529-1.296,2.344-1.946c0.864-0.69,2.09-1.16,2.073-2.54c-0.017-1.43,0.781-2.491,1.657-3.396
			c1.192-1.233,1.084-2.427,0.029-3.441c-1.471-1.414-0.901-2.159,0.594-2.835c1.511-0.683,1.444-1.983,1.154-3.263
			C366.682,19.812,366.102,18.66,364.345,19.064z M55.857,75.288c0.968-0.148,1.925,0.08,2.906-0.196
			c2.96-0.831,5.815-2.044,8.958-2.237c1.102-0.068,2.33-0.404,3.037-1.527c0.707-1.124-0.255-1.854-0.732-2.567
			c-0.87-1.301-2.057-0.601-3.192-0.251c-1.528,0.47-2.471,2.727-4.577,1.506c-0.146-0.085-0.6,0.207-0.811,0.421
			c-0.531,0.542-1.005,0.62-1.711,0.236c-0.402-0.218-1.253-0.283-1.483-0.033c-1.516,1.652-3.359,0.546-5.002,0.591
			c-0.931,0.025-2.03-0.307-2.272,0.671c-0.226,0.911-0.598,2.089,1.177,2.759C53.449,75.148,54.629,75.102,55.857,75.288z
			 M322.308,13.605c-1.802-0.246-3.243-0.24-3.802,1.516c-0.53,1.668,0.353,2.592,1.597,3.691c1.152,1.019,1.945,2.724,1.756,4.392
			c-0.168,1.482,0.662,4.502,1.888,5.344c1.021,0.702,2.049,0.323,2.021-0.875c-0.03-1.265,0.275-2.36,0.821-3.465
			c0.623-1.259,0.397-2.041-1.246-2.056c-2.285-0.021-2.285-0.072-1.145-2.173c0.15-0.277,0.338-0.536,0.467-0.822
			c0.775-1.715,0.357-3.355-0.313-4.986C323.836,12.919,322.749,13.825,322.308,13.605z M371.171,57.985
			c-0.184-0.103-0.426-0.152-0.481-0.281c-1.239-2.861-1.54-3.002-4.433-2.266c-0.616,0.158-1.299,0.051-1.923,0.192
			c-1.228,0.277-1.67,1.469-0.997,2.138c1.114,1.107,1.87,2.727,4.084,2.642c2.877-0.11,5.562-1.386,8.514-1.022
			c1.07,0.132,2.206-0.741,2.155-2.162c-0.067-1.886-2.4-3.784-4.301-3.591C371.868,53.83,371.082,55.116,371.171,57.985z
			 M370.635,12.488c0.255-0.896-0.215-1.428-1.15-1.731c-1.077-0.349-2.104-0.89-3.2-1.132c-1.553-0.343-2.759,0.742-3.679,1.644
			c-0.912,0.895,0.24,1.904,0.896,2.583c0.833,0.861,0.344,1.798,0.417,2.684c0.042,0.518-0.476,1.161,0.47,1.287
			c0.576,0.077,1.256,0.684,1.611-0.508c0.241-0.811,1.076-1.319,2.053-0.979c0.904,0.315,1.456-0.1,1.792-0.837
			C370.259,14.583,370.719,13.662,370.635,12.488z M382.698,20.642c0.308-0.077,0.627-0.123,0.92-0.237
			c1.408-0.552,3.729-4.173,3.341-5.579c-0.22-0.795-0.362-1.963-1.645-2.1c-1.703-0.182-3.438-0.042-4.817,0.879
			c-0.803,0.536-2.049,1.458-1.501,2.79c0.496,1.204,1.32,2.282,2.058,3.375C381.42,20.312,381.915,20.771,382.698,20.642z
			 M66.974,61.104c-0.825-0.004-1.291,0.53-1.484,1.12c-0.25,0.764,0.014,1.591,0.72,2.004c1.737,1.014,3.488,1.064,5.474,0.393
			c1.146-0.387,2.15-1.837,3.471-1.107c1.754,0.968,2.16-0.481,2.714-1.372c0.644-1.035-0.261-2.002-0.781-2.788
			c-0.359-0.542-1.226-0.755-2.095-0.521c-1.122,0.301-0.901,1.103-0.899,1.845c0.001,0.59-0.218,1.219-0.77,1.16
			c-1.843-0.195-3.776,1.108-5.541-0.33C67.544,61.314,67.221,61.224,66.974,61.104z M326.829,29.249
			c-0.784,0-1.242,0.006-1.7-0.001c-0.65-0.01-1.391-0.111-1.636,0.685c-0.201,0.655,0.293,0.943,0.787,1.35
			c0.528,0.435,1.24,1.028,1.114,1.884c-0.165,1.129,0.671,1.611,1.277,2.255c0.486,0.515,1.175,0.73,1.203,1.752
			c0.023,0.848,0.995,1.264,1.969,1.123c1.169-0.169,0.819-1.075,0.732-1.699c-0.217-1.556-0.39-3.146-0.632-4.676
			C329.552,29.448,328.569,28.967,326.829,29.249z M354.519,57.569c0.001,2.858,1.624,3.971,4.024,2.722
			c0.673-0.351,1.231-0.458,1.98-0.129c1.577,0.692,1.603-0.422,1.422-1.458c-0.117-0.667-0.628-1.207-0.769-1.93
			c-0.313-1.622-2.218-2.901-3.881-2.745C355.695,54.179,354.519,55.68,354.519,57.569z M351.924,45.375
			c2.215,0.001,2.573-0.298,3.435-1.737c0.891-1.484-0.021-2.66-0.811-3.414c-1.358-1.298-3.091-1.056-4.76-0.18
			c-2.437,1.279-2.543,2.086-0.576,4.186C350.037,45.11,350.885,45.615,351.924,45.375z M48.964,40.381
			c-0.416-1.508-1.624-2.999-2.808-3.077c-1.396-0.091-2.478-1.677-3.973-0.733c-1.702,1.075-1.811-1.779-3.27-1.345
			c-0.107,0.032-0.266-0.098-0.369-0.062c-0.705,0.243-1.623,0.282-1.787,1.208c-0.147,0.83,0.439,1.035,1.179,1.198
			c0.43,0.095,0.805,0.618,1.118,1.017c0.511,0.65,1.129,0.977,1.815,0.449c0.587-0.451,0.975-0.21,1.568-0.057
			c1.539,0.398,2.71,1.352,3.506,2.546c0.619,0.93,1.293,0.809,1.943,0.593C48.557,41.896,49.067,41.295,48.964,40.381z
			 M374.999,32.386c-1.072,0.121-2.252,0.898-2.97,2.136c-0.429,0.738,1.196,4.218,1.938,4.445c0.473,0.146,1.189,0.267,1.501,0.022
			c1.008-0.791,1.914-1.533,3.315-1.695c0.587-0.068,1.086-1.117,0.764-2.098C379.086,33.793,377.18,32.432,374.999,32.386z
			 M341.895,45.771c1.167-0.544,2.599-0.38,4.012-0.394c0.589-0.006,1.039-0.223,1.113-0.832c0.087-0.707-0.291-1.125-1.009-1.126
			c-0.644-0.001-1.168-0.125-1.314-0.85c-0.323-1.592-1.791-2.108-2.873-2.931c-0.741-0.564-3.752,1.206-3.821,2.116
			C337.863,43.603,339.826,45.735,341.895,45.771z M28.095,55.163c-0.38,0.059-0.808,0.025-1.132,0.192
			c-2.222,1.139-3.576,4.488-2.793,6.929c0.201,0.626,0.641,1.147,1.386,1.172c0.616,0.021,1.094,0.047,1.557-0.716
			c0.825-1.361,0.892-3.322,2.872-3.936c0.23-0.071,1.054-1.063,0.469-1.95C29.873,55.973,29.365,55.077,28.095,55.163z
			 M377.331,27.794c-0.095,1.035-0.054,2.098,1.423,2.788c1.113,0.521,2.397,0.098,2.641-0.323c0.824-1.421,2.06-2.708,1.886-4.651
			c-0.146-1.651-1.166-2.064-2.379-2.023C378.905,23.654,377.334,25.542,377.331,27.794z M367.104,43.203
			c-0.371-3.306-0.846-4.68-4.6-3.652c-1.013,0.277-2.356,0.772-2.492,2.33c-0.128,1.471,1.027,1.748,1.935,2.322
			c0.645,0.409,1.387,0.516,2.06,0.931C365.646,46.147,367.106,45.152,367.104,43.203z M32.078,34.569
			c-0.167,1.373-0.188,2.251,1.097,2.342c1.398,0.1,3.685-3.027,3.168-4.386c-0.524-1.379-1.238-2.672-2.27-3.731
			c-0.532-0.546-1.012-1.649-2.043-0.908c-0.918,0.659-1.545,1.641-0.791,2.771C32.154,32.027,32.911,33.353,32.078,34.569z
			 M22.161,66.599c0.137-0.998-0.318-1.749-1.237-1.9c-0.972-0.16-1.924,0.143-2.287,1.268c-0.375,1.165-0.388,2.477-1.792,3.131
			c-0.334,0.155-0.479,0.897-0.343,1.659c0.311,1.741,1.547,2.11,2.812,2.688c1.332,0.608,1.727-0.198,2.065-1.19
			c0.374-1.095-0.604-1.622-1.131-2.156c-1.142-1.159-0.528-1.727,0.57-1.856C21.98,68.104,22.264,67.59,22.161,66.599z
			 M336.033,42.25c0.005-1.56-1.039-3.15-2.326-3.542c-1.165-0.354-3.413,0.542-3.841,1.668c-0.585,1.54,0.336,2.5,1.513,3.298
			c0.158,0.107,0.279,0.272,0.417,0.411c0.68,0.685,1.525,1.648,2.411,1.152C335.21,44.677,336.28,43.761,336.033,42.25z
			 M318.615,41.448c1.312-0.023,1.714-0.382,1.334-0.735c-0.743-0.693-0.214-1.325,0.004-1.812c0.562-1.262,0.642-2.336-0.555-3.234
			c-1.744-1.309-3.555-1.168-5.193,0.247c-1.456,1.256,0.156,1.793,0.561,2.555C315.654,40.143,317.416,40.677,318.615,41.448z
			 M313.998,31.858c-0.191-0.784-0.663-2.09-1.82-2.482c-1.552-0.526-3.165,0.164-4.642,0.76c-0.467,0.188-0.269,0.983-0.183,1.469
			c0.313,1.783,1.308,2.669,3.196,3.112C312.81,35.247,314.056,34.631,313.998,31.858z M34.755,50.16
			c0.288-1.407-0.893-2.05-1.776-2.68c-0.561-0.399-1.568-0.402-2.09,0.408c-1.224,1.901-1.554,4.039-1.149,6.205
			c0.134,0.718,0.96,1.304,1.945,0.864C32.555,54.568,34.766,51.181,34.755,50.16z M45.42,50.839
			c-0.527,1.362,0.28,2.439,1.454,3.267c0.53,0.374,0.908,0.823,1.275,1.314c0.943,1.264,1.675,1.084,2.375-0.259
			c0.352-0.675,0.421-1.34,0.325-2.044c-0.225-1.64-1.006-2.804-2.557-3.612c-0.664-0.346-0.819-1.74-2-1.236
			C45.292,48.696,45.288,49.679,45.42,50.839z M44.986,45.761c0.063-1.33-0.695-2.144-1.742-2.287
			c-1.151-0.157-2.215-0.357-3.321-0.774c-1.235-0.466-1.926,0.426-1.579,1.608c0.296,1.008,0.568,2.064,0.983,3.008
			c1.011,2.295,1.763,2.318,3.489,0.462c0.334-0.359,0.819-0.641,1.288-0.796C44.786,46.755,45.024,46.337,44.986,45.761z
			 M372.844,44.588c0.72,0.033,1.821,0.206,2.424-0.959c0.497-0.959-0.267-1.616-0.732-2.226c-0.529-0.692-1.218-1.408-1.996-1.729
			c-1.001-0.415-2.082-1.042-3.288-0.286c-1.053,0.662-0.519,1.62-0.538,2.417C368.67,43.625,370.07,44.585,372.844,44.588z
			 M31.424,78.802c0.946-0.172,2.106,0.271,3.244-0.317c0.501-0.259,1.177-0.202,1.248-0.945c0.075-0.781-0.542-1.133-1.088-1.462
			c-2.179-1.314-4.304-2.742-6.637-0.081c-0.417,0.476-0.996,0.729-0.892,1.438c0.114,0.775,0.604,1.295,1.4,1.354
			C29.542,78.85,30.393,78.802,31.424,78.802z M45.028,76.839c0-0.026,0-0.054,0-0.081c1.11,0,2.248,0.146,3.32-0.055
			c0.657-0.122,1.555-0.496,1.35-1.576c-0.17-0.895-0.904-0.943-1.586-1.03c-0.386-0.05-0.795-0.068-1.176,0.002
			c-1.052,0.193-1.923,0.271-2.454-1.023c-0.36-0.88-1.505-0.819-2.061-0.418c-0.825,0.596-2.06,1.199-1.725,2.565
			c0.206,0.838,0.517,1.765,1.778,1.634C43.318,76.769,44.177,76.839,45.028,76.839z M12.48,67.4c-2.72,0-4.128,0.766-4.055,2.031
			c0.066,1.144,2.223,2.656,3.833,2.688c1.469,0.029,3.843-1.631,3.577-2.63C15.345,67.65,14.031,66.963,12.48,67.4z M20.62,48.09
			c0.159-1.218-0.699-1.85-1.529-2.259c-0.796-0.393-1.328,0.477-1.685,1.015c-0.828,1.246-1.945,2.277-2.428,3.809
			c-0.265,0.841-0.278,1.307,0.347,1.832c0.729,0.612,1.392,0.498,2.047-0.138c0.454-0.441,0.859-0.902,1.495-1.179
			C20.173,50.602,20.471,49.361,20.62,48.09z M70.94,53.423c0.006-2.247-2.458-4.385-4.532-4.12
			c-0.679,0.086-1.038,0.563-1.31,1.048c-0.235,0.42,0.034,0.845,0.398,1.196c0.545,0.527,0.87,1.229,1.273,1.839
			c0.65,0.983,1.347,2.441,2.926,2.166C70.854,55.35,71.087,54.341,70.94,53.423z M15.876,79.914
			c0.192-1.147-0.602-1.681-1.54-2.062c-1.207-0.491-2.415-1.138-3.668-1.264c-0.394-0.04-1.355,1.203-1.252,2.21
			c0.154,1.505,3.356,2.911,4.826,2.752c0.821-0.089,1.73-0.148,1.635-1.369C15.872,80.116,15.876,80.051,15.876,79.914z
			 M56.779,44.403c0.095-2.249-1.681-3.911-4.408-4.13c-0.685-0.055-1.516-0.214-1.839,0.651c-0.286,0.766,0.346,1.261,0.861,1.575
			c1.191,0.726,1.644,2.027,2.526,2.986c0.543,0.589,1.159,0.922,1.869,0.576C56.428,45.749,56.948,45.207,56.779,44.403z
			 M53.035,56.018c-1.093-0.277-1.622,0.307-1.751,1.359c-0.123,0.997,2.654,4.398,3.646,4.509c0.358,0.04,0.583-0.167,0.855-0.358
			c1.069-0.75,1.37-1.915,0.88-2.9C55.976,57.239,55.092,55.759,53.035,56.018z M379.301,47.268
			c-0.033-1.372-1.537-2.659-2.933-2.675c-1.03-0.012-3.013,1.68-2.943,2.512c0.106,1.297,2.471,2.749,4.456,2.564
			C379.446,49.523,378.76,47.929,379.301,47.268z M306.028,22.169c-2.128-0.005-2.61,0.341-2.641,1.898
			c-0.028,1.518,1.366,2.913,2.991,2.682c1.201-0.171,2.646-0.469,2.875-2.034C309.437,23.469,307.687,22.173,306.028,22.169z
			 M22.269,79.986c2.332,0.036,3.917-1.548,3.007-3.205c-0.544-0.993-1.802-1.365-2.624-1.028c-1.25,0.515-3.053,0.438-3.536,2.11
			c-0.171,0.593,0.275,1.398,0.991,1.667C20.748,79.771,21.458,79.824,22.269,79.986z M25.258,22.588
			c-0.899,0.494-2.053,0.788-1.915,2.246c0.076,0.802,2.111,2.928,2.284,2.612c0.812-1.491,3.533,0.336,3.605-2.139
			C29.256,24.472,26.361,22.534,25.258,22.588z M24.403,46.112c1.204,0.309,2.49-0.265,1.962-1.484
			c-0.51-1.177,0.995-3.507-1.723-3.58c-1.295-0.035-2.987,1.698-2.848,3.044C21.945,45.538,22.662,46.45,24.403,46.112z
			 M62.598,50.881c1.249,0.022,1.686-0.341,1.205-1.456c-0.661-1.532-0.541-3.579-3.09-4.003c-1.335-0.223-1.732,0.056-1.938,1.042
			C58.482,47.869,61.143,50.854,62.598,50.881z M29.642,17.894c0.005,2.038,0.948,3.276,2.46,3.044
			c0.981-0.15,2.494,0.196,2.641-1.51c0.072-0.831-2.732-3.698-3.478-3.518C30.201,16.165,29.297,16.671,29.642,17.894z
			 M48.38,69.761c1.01,0.115,1.919-0.181,2.086-1.39c0.303-2.193-1.827-2.12-2.958-2.889c-0.77-0.522-1.806-0.318-2.442,0.566
			c-0.129,0.18-0.096,0.506-0.074,0.76C45.107,68.18,46.88,69.754,48.38,69.761z M74.337,65.434c-1.362-0.033-1.715,0.5-1.741,3.394
			c-0.011,1.222,0.935,2.101,2.1,2.048c1.361-0.061,2.12-1.065,2.14-2.483C76.857,66.969,75.572,65.463,74.337,65.434z
			 M6.807,62.028c0.127,1.371,0.406,2.916,2.033,2.916c1.158,0,2.37-0.683,2.359-2.424c-0.012-1.795-1.023-2.412-2.483-2.567
			C7.286,59.8,6.757,60.684,6.807,62.028z M29.009,37.107c-1.621,0.06-1.782,1.145-1.734,2.431c0.048,1.34,0.031,2.786,1.916,2.651
			c1.143-0.081,2.353-0.482,2.402-1.98C31.641,38.721,30.232,37.097,29.009,37.107z M39.477,24.845
			c-0.013-1.721-1.104-3.168-2.332-3.04c-1.302,0.137-2.025,0.958-1.999,2.336c0.019,0.95,1.981,2.854,2.938,2.639
			C39.078,26.557,39.806,25.905,39.477,24.845z M34.749,25.981c0.018-0.941-2.586-3.755-3.277-3.809
			c-0.551-0.042-0.879,0.275-1.02,0.722c-0.247,0.78-1.119,1.566-0.512,2.37c0.817,1.083,2.001,1.862,3.387,1.976
			C34.188,27.312,34.659,26.604,34.749,25.981z M27.671,72.017c0.016-0.52,0.08-1.061-0.424-1.266
			c-1.223-0.499-2.466-0.953-3.722-1.361c-0.427-0.14-0.677,0.303-0.955,0.566c-0.563,0.532-0.593,1.192-0.188,1.758
			c0.962,1.341,2.492,1.71,3.982,1.806C26.979,73.559,27.898,73.034,27.671,72.017z M63.062,65.751
			c0.056-1.382-1.173-2.198-2.977-2.29c-1.093-0.056-2.117,0.246-2.062,1.44c0.066,1.426,1.316,2.263,2.541,2.416
			C61.649,67.454,62.695,66.741,63.062,65.751z M54.089,68.968c0.756-0.351,1.969-0.428,1.903-1.902
			c-0.032-0.719-2.375-2.166-3.424-1.985c-0.618,0.106-1.409,0.251-1.303,1.279C51.388,67.577,52.766,69.001,54.089,68.968z
			 M10.774,56.675c-0.269,0.97,0.219,1.682,1.238,1.896c0.877,0.184,2.678-1.896,2.661-3.038c-0.018-1.196-1.058-1.505-1.872-1.449
			C11.428,54.178,10.642,55.069,10.774,56.675z M32.399,70.46c0.061-1.802-1.344-1.969-2.363-2.175
			c-0.721-0.146-1.25,0.509-1.219,1.524c0.051,1.646,1.27,2.052,2.384,2.246C32.346,72.256,32.243,71.073,32.399,70.46z
			 M74.032,56.396c0.462-0.972-0.378-1.503-1.047-1.479c-0.798,0.028-1.673,0.392-1.692,1.646c-0.017,1.133,0.748,1.654,1.444,1.632
			C73.43,58.172,74.377,57.646,74.032,56.396z M331.567,54.506c-0.459,0.196-0.714,0.518-0.635,1.027
			c0.077,0.497,0.386,0.896,0.878,0.799c0.436-0.085,0.698-0.479,0.687-1.019C332.483,54.65,331.768,54.898,331.567,54.506z"/>
		<path style="fill-rule:evenodd;clip-rule:evenodd;fill:#7B491E;" d="M287.557,98.159c-2.197,1.211-4.416,1.929-6.943,1.955
			c-2.175,0.022-3.975-0.737-5.793-1.651c-4.067-2.045-7.298-5.127-10.099-8.621c-1.676-2.09-0.274-4.386,2.399-4.799
			c2.494-0.385,4.674,0.594,6.677,1.485c4.562,2.027,8.929,1.957,13.449,0.181c0.814-0.319,1.697-0.501,2.634-0.451
			c2.659,0.144,4.951-1.223,7.22-2.239c4.598-2.061,9.155-1.894,13.733-0.422c1.741,0.559,1.733,2.4,1.579,3.976
			c-0.119,1.226-1.037,1.335-2.104,1.5c-3.755,0.578-7.535,1.146-11.052,2.679c-1.08,0.47-2.145,0.485-3.223,0.405
			c-1.483-0.11-1.897,0.632-1.677,1.891c0.187,1.059,0.438,2.119,0.793,3.133c1.312,3.753,1.088,7.434-0.404,11.07
			c-0.457,1.112-0.344,2.274-0.422,3.428c-0.108,1.628,0.938,1.973,2.086,1.678c3.591-0.924,6.983-0.017,10.413,0.815
			c1.418,0.344,2.862,0.717,4.307,0.771c1.573,0.061,2.76-1.04,3.213-2.386c1.431-4.25,3.377-8.155,6.287-11.609
			c1.084-1.285,1.72-2.915,2.752-4.308c1.254-1.69,3.172-2.771,4.079-4.733c0.424-0.914,1.184-1.698,1.092-2.803
			c-0.042-0.511,0.22-0.829,0.518-1.198c1.258-1.56,3.318-1.769,4.702-1.375c1.172,0.334,2.31,2.105,2.256,3.876
			c-0.128,4.224,0.639,8.54-1.531,12.545c-0.545,1.006-1.118,2.125-1.82,2.856c-2.437,2.535-3.833,5.692-5.637,8.596
			c-1.055,1.696-1.746,3.613-2.688,5.386c-1.154,2.172-2.853,3.186-5.486,3.126c-6.034-0.136-12.007-1.266-18.078-0.927
			c-1.661,0.093-3.374-0.858-5.076,0.066c-0.149,0.082-0.434,0.079-0.576-0.01c-3.01-1.885-5.445,0.16-8.02,1.179
			c-0.329,0.131-0.518,0.586-0.991,0.263c-2.366-1.615-4.569-0.016-6.798,0.435c-2.793,0.564-5.354,2.538-8.427,1.302
			c-0.057-0.022-0.152-0.031-0.192,0.001c-2.396,1.942-3.383-0.132-4.519-1.622c-0.785-1.032-2.239-0.676-3.079-1.802
			c-1.492-2-2.642-4.212-4.143-6.192c-1.605-2.118-4.04-3.321-5.799-5.292c-2.338-2.62-5.573-4.427-7.344-7.529
			c-1.2-2.102-2.685-4.064-3.24-6.577c-0.329-1.481,0.307-2.131,1.182-2.714c0.971-0.646,2.264-1.093,3.194-0.072
			c2.215,2.432,5.328,3.836,7.204,6.687c1.41,2.141,3.862,3.297,5.826,4.879c2.343,1.888,4.183,4.087,5.807,6.497
			c1.427,2.118,3.489,2.766,5.76,3.101c4.103,0.605,8.072-0.982,12.165-0.817c1.027,0.042,1.627-0.8,1.568-1.897
			c-0.188-3.513,0.617-6.83,1.889-10.072C287.604,100.717,287.828,99.571,287.557,98.159z"/>
		<path style="fill-rule:evenodd;clip-rule:evenodd;fill:#7B491E;" d="M159.051,46.287c0.071,1.502,0.055,2.974-0.816,4.242
			c-0.462,0.673-0.846,1.526-1.973,0.923c-2.383-1.276-4.338-0.609-6.045,1.351c-1.245,1.429-2.953,2.333-4.774,1.957
			c-5.683-1.172-11.426-0.945-17.158-1.21c-2.326-0.108-4.664-0.173-6.991-0.331c-2.128-0.145-4.021,0.629-5.973,1.22
			c-0.239,0.072-0.464,0.353-0.675,0.332c-4.158-0.413-8.59,0.146-12.235-2.373c-3.038-2.1-5.896-4.465-9.028-6.451
			c-0.883-0.56-1.176-3.332-0.587-4.521c1.282-2.589,2.396-5.281,3.89-7.743c1.809-2.979,3.228-6.092,4.543-9.311
			c1.091-2.67,2.25-5.3,3.211-8.03c0.699-1.985,3.044-3.195,4.833-0.87c0.469,0.609,1.099,1.145,1.396,1.827
			c1.131,2.602,3.18,3.458,5.866,3.768c2.308,0.266,4.828-1.236,5.131-3.875c0.288-2.507,4.089-7.304,6.47-8.05
			c1.208-0.378,2.956,0.77,3.329,2.34c0.6,2.526,0.997,5.104,1.652,7.614c0.425,1.627,1.893,2.531,3.323,3
			c1.521,0.499,3.092-0.007,4.086-1.413c1.104-1.561,2.942-2.671,2.512-5.168c-0.165-0.961,1.135-1.687,2.327-0.907
			c1.739,1.138,2.532,2.972,3.013,4.835c0.669,2.593,2.376,4.68,3.146,7.22c1.307,4.315,3.634,7.938,7.372,10.657
			c1.062,0.772,1.756,2.182,2.056,3.577c0.182,0.847,0.466,1.467,1.243,1.978c1.261,0.83,0.912,2.017,0.302,3.081
			c-0.619,1.081-1.517,1.333-2.616,0.612C159.672,46.432,159.396,46.4,159.051,46.287z M154.152,42.677
			c-0.099-0.775-0.549-1.222-0.894-1.758c-0.906-1.41-2.257-2.38-3.325-3.621c-2.894-3.361-3.677-7.843-6.08-11.502
			c-0.828-1.261-0.958-0.796-1.739-0.305c-3.757,2.362-7.928,1.741-11.196-1.187c-1.391-1.247-2.108-2.771-2.844-4.303
			c-0.708-1.478-1.528-1.032-1.857-0.122c-0.76,2.099-2.251,3.097-4.121,4.15c-4.155,2.34-8.354,2.398-12.141-0.421
			c-0.956-0.711-1.753-0.575-1.998,0.517c-0.627,2.806-2.011,5.298-3.041,7.936c-0.755,1.935-1.502,3.873-2.29,5.795
			c-0.312,0.76-0.375,1.54-0.023,2.228c0.111,0.216,0.902,0.292,1.257,0.14c1.858-0.796,3.961-0.921,5.735-1.688
			c4.36-1.885,8.913-3.455,12.806-6.303c1.521-1.112,2.885-0.964,4.062,0.445c1.318,1.576,2.722,3.082,4.53,4.047
			c1.41,0.752,3.005,1.161,4.508,1.723c3.232,1.207,6.293,3.254,10.029,2.618c0.489-0.083,0.993,0.15,1.485,0.26
			C149.363,41.85,151.685,42.571,154.152,42.677z M106.82,45.467c2.102,0.968,4.209,1.02,6.271,1.339
			c1.881,0.292,3.693,0.888,5.599-0.098c0.833-0.431,1.95-0.341,2.873-0.003c1.551,0.567,3.133,0.605,4.75,0.655
			c4.689,0.145,9.385-0.373,14.074,0.323c1.438,0.213,3.01,0.302,4.499-0.496c-1.892,0.168-3.573-0.942-5.316-0.866
			c-2.142,0.093-4.174,0.056-6.07-0.955c-3.554-1.895-7.054-3.887-10.027-6.659c-0.44-0.41-0.834-0.554-1.379-0.231
			c-2.055,1.219-4.463,1.638-6.521,2.902c-0.487,0.299-0.909,0.832-1.656,0.878C111.171,42.426,108.979,43.873,106.82,45.467z"/>
		<path style="fill-rule:evenodd;clip-rule:evenodd;fill:#7B491E;" d="M203.006,73.598c-1.637,0.547-3.831,0.699-5.129,1.857
			c-1.743,1.553-3.728,1.197-5.567,1.734c-2.857,0.834-5.805,1.213-8.805,0.84c-0.448-0.056-1.037-0.155-1.35,0.065
			c-2.832,1.997-6.333,1.694-9.362,2.828c-1.766,0.661-3.143,2.475-3.92,4.428c-1.001,2.519-3.277,3.456-5.549,4.225
			c-1.215,0.411-2.868-1.635-2.2-2.672c1.164-1.808,1.237-3.962,1.896-5.895c0.341-1.001,0.234-2.665,0.318-4.034
			c0.067-1.098,0.336-1.779,1.492-2.146c0.899-0.285,1.971-0.702,0.226-1.718c-1.648-0.96-2.844-2.51-3.263-4.483
			c-0.228-1.068-1.151-1.885-1.902-1.905c-2.169-0.057-3.311-1.816-5.016-2.593c-0.976-0.446-0.852-1.52-0.491-2.299
			c0.328-0.708,0.826-1.49,1.959-0.895c1.06,0.556,2.233,0.177,3.176-0.277c4.401-2.117,8.618,0.488,11.167,3.326
			c1.311,1.458,2.05,3.288,2.594,5.226c0.263,0.939,0.808,1.759,2.398,2.038c1.711,0.302,3.371,0.486,5.089,0.486
			c0.618,0,1.24-0.018,1.437-0.706c0.164-0.572,0.042-1.113-0.449-1.595c-1.609-1.577-2.143-3.674-2.651-5.771
			c-0.074-0.304-0.019-0.733-0.206-0.902c-2.02-1.819-2.362-4.328-3.021-6.761c-0.273-1.011-0.347-1.8,0.46-2.322
			c0.936-0.605,1.948-1.253,3.225-0.608c0.665,0.336,1.337,0.729,1.623,1.326c0.7,1.459,1.836,2.466,3.003,3.504
			c1.714,1.525,1.889,3.728,2.404,5.786c0.349,1.396,0.669,2.805,1.523,4.043c0.608,0.881,1.151,1.22,2.306,0.942
			c1.718-0.412,3.492,0.245,5.296-0.016c1.266-0.183,2.046-0.598,2.824-1.573c1.783-2.238,2.05-4.885,2.707-7.536
			c0.99-3.991,2.753-7.816,6.425-10.248c1.023-0.678,2.381-0.807,3.396-0.29c1.1,0.561,0.662,1.861,0.254,2.732
			c-1.45,3.096-0.98,6.628-2.317,9.731c-0.572,1.33-1.179,2.645-1.787,3.958c-0.379,0.819-0.19,1.677-0.166,2.508
			c0.04,1.324,1.116,0.968,1.907,1.048c0.125,0.013,0.291,0.043,0.357,0.129c2.662,3.38,7.557,3.452,10.216,6.934
			c0.616,0.807,1.476,1.376,1.971,2.416c0.686,1.438,0.623,2.703-0.442,3.662c-1.125,1.014-2.688,1.488-4.143,0.814
			c-1.687-0.78-3.465-1.204-5.211-1.743c-1.651-0.511-2.629-1.618-3.538-3.011c-0.958-1.467-2.218-2.735-3.317-4.112
			C204.383,73.487,203.76,73.806,203.006,73.598z"/>
		<path style="fill-rule:evenodd;clip-rule:evenodd;fill:#7B491E;" d="M323.862,37.898c1.523,0.03,3.314,2.131,3.073,3.373
			c-0.371,1.908-0.545,3.892-1.212,5.692c-0.561,1.514,0.063,2.489,0.954,3.253c1.166,1.001,1.142,2.133,0.391,3.026
			c-0.692,0.823-0.247,1.744-0.689,2.554c-0.155,0.283,0.076,1.602,1.372,0.866c1.276-0.726,2.419-0.44,3.151,1.046
			c0.416,0.844,0.742,1.681,1.949,0.281c0.931-1.08,2.086-2.002,2.812-3.288c0.654-1.156,1.772-0.723,2.634-0.617
			c1.539,0.191,2.898,1.073,3.143,2.654c0.154,1.009,0.616,1.219,1.338,1.468c1.008,0.349,1.634,0.255,1.526-1.059
			c-0.116-1.422,0.661-2.001,2.024-1.944c0.979,0.041,2.033-0.173,2.923,0.121c1.531,0.506,2.187,3.113,1.221,4.466
			c-0.801,1.123-2.03,1.749-3.205,2.395c-0.722,0.396-1.784,0.023-1.927-0.4c-0.696-2.056-2.315-1.353-3.679-1.468
			c-2.612-0.222-5.321,0.588-7.843-0.737c-0.211-0.111-0.817,0.033-0.863,0.178c-0.522,1.646-2.003,0.996-3.04,1.426
			c-1.957,0.812-3.212-0.399-4.56-1.191c-1.335-0.785-1.06-2.567-1.365-3.787c-0.688-2.747-1.762-5.564-0.961-8.545
			c0.284-1.055-0.142-1.931-0.976-2.763c-1.34-1.336-1.588-4.398-0.658-5.59C322.08,38.435,323.035,38.078,323.862,37.898z"/>
		<path style="fill-rule:evenodd;clip-rule:evenodd;fill:#7B491E;" d="M344.513,10.401c1.007-0.149,1.961-0.081,2.396,0.906
			c0.353,0.802,0.169,1.564-0.474,2.313c-0.648,0.756-0.809,1.849-1.514,2.633c-0.606,0.676-0.091,1.193,0.415,1.646
			c1.268,1.139,0.904,2.312,0.53,3.813c-0.391,1.566-1.837,3.312,0.258,5.125c0.944,0.817,0.321,2.752-0.219,4.057
			c-0.295,0.712-0.662,0.96,0.158,1.689c0.838,0.744,1.297,1.937,0.241,3.154c-1.029,1.187-2.293,1.284-3.516,0.808
			c-2.286-0.889-2.58-1.979-1.277-4.264c0.297-0.522,0.571-0.86,0.007-1.287c-0.366-0.278-0.547-0.785-0.346-1.03
			c1.134-1.376-0.569-3.155,0.691-4.477c0.039-0.042,0.073-0.142,0.05-0.179c-2.21-3.676,0.975-8.015-1.461-11.723
			c-0.544-0.827-0.223-2,0.977-2.524C342.434,10.625,343.429,10.196,344.513,10.401z"/>
		<path style="fill-rule:evenodd;clip-rule:evenodd;fill:#7B491E;" d="M364.345,19.064c1.757-0.404,2.337,0.747,2.641,2.081
			c0.29,1.28,0.356,2.58-1.154,3.263c-1.495,0.676-2.064,1.422-0.594,2.835c1.055,1.014,1.163,2.208-0.029,3.441
			c-0.876,0.905-1.674,1.967-1.657,3.396c0.017,1.38-1.209,1.85-2.073,2.54c-0.814,0.65-1.162,2.248-2.344,1.946
			c-1.307-0.334-0.262-1.92-0.759-2.729c-1.382-2.247,0.681-3.46,1.43-5.019c0.474-0.987,0.871-4.106,0.136-4.961
			c-0.68-0.791-0.154-1.421,0.192-1.907c0.781-1.095,1.455-2.213,1.886-3.491C362.392,19.357,363.09,18.699,364.345,19.064z"/>
		<path style="fill-rule:evenodd;clip-rule:evenodd;fill:#7B491E;" d="M55.857,75.288c-1.228-0.187-2.408-0.14-3.703-0.629
			c-1.775-0.67-1.403-1.848-1.177-2.759c0.242-0.978,1.341-0.646,2.272-0.671c1.643-0.045,3.487,1.062,5.002-0.591
			c0.23-0.25,1.081-0.185,1.483,0.033c0.706,0.384,1.181,0.306,1.711-0.236c0.21-0.214,0.665-0.506,0.811-0.421
			c2.106,1.221,3.049-1.036,4.577-1.506c1.135-0.35,2.322-1.05,3.192,0.251c0.478,0.714,1.439,1.443,0.732,2.567
			c-0.707,1.123-1.935,1.459-3.037,1.527c-3.142,0.193-5.998,1.406-8.958,2.237C57.782,75.368,56.825,75.14,55.857,75.288z"/>
		<path style="fill-rule:evenodd;clip-rule:evenodd;fill:#7B491E;" d="M322.308,13.605c0.441,0.219,1.528-0.686,2.043,0.565
			c0.671,1.631,1.089,3.271,0.313,4.986c-0.129,0.286-0.316,0.545-0.467,0.822c-1.141,2.102-1.141,2.152,1.145,2.173
			c1.644,0.015,1.869,0.797,1.246,2.056c-0.546,1.105-0.852,2.2-0.821,3.465c0.028,1.199-0.999,1.578-2.021,0.875
			c-1.226-0.842-2.056-3.862-1.888-5.344c0.189-1.668-0.604-3.373-1.756-4.392c-1.244-1.099-2.127-2.023-1.597-3.691
			C319.064,13.366,320.506,13.359,322.308,13.605z"/>
		<path style="fill-rule:evenodd;clip-rule:evenodd;fill:#7B491E;" d="M371.171,57.985c-0.089-2.869,0.697-4.155,2.618-4.35
			c1.9-0.193,4.233,1.706,4.301,3.591c0.051,1.421-1.085,2.294-2.155,2.162c-2.951-0.364-5.637,0.912-8.514,1.022
			c-2.214,0.084-2.97-1.535-4.084-2.642c-0.673-0.668-0.23-1.86,0.997-2.138c0.624-0.141,1.307-0.035,1.923-0.192
			c2.893-0.737,3.193-0.596,4.433,2.266C370.745,57.833,370.987,57.882,371.171,57.985z"/>
		<path style="fill-rule:evenodd;clip-rule:evenodd;fill:#7B491E;" d="M370.635,12.488c0.084,1.174-0.376,2.095-0.791,3.01
			c-0.336,0.737-0.888,1.152-1.792,0.837c-0.977-0.34-1.812,0.167-2.053,0.979c-0.355,1.191-1.035,0.584-1.611,0.508
			c-0.945-0.125-0.428-0.769-0.47-1.287c-0.073-0.886,0.416-1.823-0.417-2.684c-0.655-0.679-1.808-1.688-0.896-2.583
			c0.92-0.902,2.126-1.987,3.679-1.644c1.097,0.242,2.123,0.784,3.2,1.132C370.42,11.06,370.89,11.591,370.635,12.488z"/>
		<path style="fill-rule:evenodd;clip-rule:evenodd;fill:#7B491E;" d="M382.698,20.642c-0.783,0.128-1.278-0.331-1.645-0.873
			c-0.737-1.093-1.562-2.171-2.058-3.375c-0.548-1.331,0.698-2.254,1.501-2.79c1.38-0.92,3.114-1.061,4.817-0.879
			c1.282,0.137,1.425,1.305,1.645,2.1c0.389,1.406-1.933,5.027-3.341,5.579C383.325,20.52,383.006,20.565,382.698,20.642z"/>
		<path style="fill-rule:evenodd;clip-rule:evenodd;fill:#7B491E;" d="M66.974,61.104c0.248,0.12,0.571,0.21,0.809,0.404
			c1.765,1.438,3.698,0.134,5.541,0.33c0.552,0.059,0.771-0.57,0.77-1.16c-0.001-0.742-0.222-1.544,0.899-1.845
			c0.869-0.234,1.736-0.021,2.095,0.521c0.52,0.786,1.424,1.753,0.781,2.788c-0.554,0.891-0.959,2.34-2.714,1.372
			c-1.32-0.729-2.325,0.721-3.471,1.107c-1.986,0.671-3.737,0.621-5.474-0.393c-0.707-0.413-0.971-1.24-0.72-2.004
			C65.683,61.634,66.148,61.1,66.974,61.104z"/>
		<path style="fill-rule:evenodd;clip-rule:evenodd;fill:#7B491E;" d="M326.829,29.249c1.74-0.282,2.723,0.2,3.115,2.672
			c0.242,1.53,0.415,3.12,0.632,4.676c0.087,0.625,0.437,1.53-0.732,1.699c-0.974,0.141-1.945-0.275-1.969-1.123
			c-0.028-1.021-0.717-1.237-1.203-1.752c-0.606-0.644-1.442-1.126-1.277-2.255c0.126-0.856-0.586-1.45-1.114-1.884
			c-0.494-0.406-0.988-0.695-0.787-1.35c0.245-0.795,0.985-0.695,1.636-0.685C325.587,29.254,326.045,29.249,326.829,29.249z"/>
		<path style="fill-rule:evenodd;clip-rule:evenodd;fill:#7B491E;" d="M354.519,57.569c0-1.889,1.177-3.391,2.777-3.541
			c1.663-0.156,3.567,1.124,3.881,2.745c0.141,0.723,0.651,1.262,0.769,1.93c0.181,1.036,0.155,2.15-1.422,1.458
			c-0.749-0.328-1.308-0.221-1.98,0.129C356.143,61.54,354.52,60.428,354.519,57.569z"/>
		<path style="fill-rule:evenodd;clip-rule:evenodd;fill:#7B491E;" d="M351.924,45.375c-1.039,0.24-1.887-0.265-2.712-1.145
			c-1.967-2.1-1.86-2.907,0.576-4.186c1.669-0.876,3.401-1.118,4.76,0.18c0.789,0.754,1.701,1.93,0.811,3.414
			C354.497,45.076,354.139,45.376,351.924,45.375z"/>
		<path style="fill-rule:evenodd;clip-rule:evenodd;fill:#7B491E;" d="M48.964,40.381c0.103,0.914-0.407,1.514-1.077,1.737
			c-0.65,0.216-1.324,0.336-1.943-0.593c-0.796-1.195-1.967-2.148-3.506-2.546c-0.593-0.154-0.981-0.395-1.568,0.057
			c-0.686,0.528-1.304,0.201-1.815-0.449c-0.312-0.399-0.688-0.922-1.118-1.017c-0.74-0.163-1.327-0.368-1.179-1.198
			c0.165-0.925,1.082-0.965,1.787-1.208c0.103-0.036,0.261,0.094,0.369,0.062c1.459-0.434,1.568,2.42,3.27,1.345
			c1.495-0.944,2.577,0.642,3.973,0.733C47.34,37.382,48.548,38.874,48.964,40.381z"/>
		<path style="fill-rule:evenodd;clip-rule:evenodd;fill:#7B491E;" d="M374.999,32.386c2.181,0.045,4.087,1.407,4.548,2.811
			c0.322,0.981-0.177,2.03-0.764,2.098c-1.401,0.162-2.308,0.904-3.315,1.695c-0.312,0.245-1.028,0.124-1.501-0.022
			c-0.741-0.228-2.366-3.708-1.938-4.445C372.747,33.284,373.927,32.507,374.999,32.386z"/>
		<path style="fill-rule:evenodd;clip-rule:evenodd;fill:#7B491E;" d="M341.895,45.771c-2.068-0.036-4.031-2.168-3.893-4.016
			c0.069-0.91,3.08-2.68,3.821-2.116c1.082,0.823,2.55,1.339,2.873,2.931c0.146,0.725,0.671,0.848,1.314,0.85
			c0.718,0.001,1.096,0.419,1.009,1.126c-0.074,0.609-0.524,0.826-1.113,0.832C344.493,45.39,343.062,45.226,341.895,45.771z"/>
		<path style="fill-rule:evenodd;clip-rule:evenodd;fill:#7B491E;" d="M28.095,55.163c1.27-0.086,1.777,0.81,2.359,1.691
			c0.585,0.887-0.239,1.878-0.469,1.95c-1.98,0.613-2.047,2.574-2.872,3.936c-0.463,0.763-0.941,0.737-1.557,0.716
			c-0.746-0.025-1.185-0.545-1.386-1.172c-0.783-2.441,0.571-5.79,2.793-6.929C27.288,55.188,27.715,55.222,28.095,55.163z"/>
		<path style="fill-rule:evenodd;clip-rule:evenodd;fill:#7B491E;" d="M377.331,27.794c0.003-2.253,1.574-4.141,3.57-4.209
			c1.213-0.042,2.232,0.372,2.379,2.023c0.174,1.943-1.062,3.23-1.886,4.651c-0.243,0.42-1.527,0.844-2.641,0.323
			C377.277,29.892,377.236,28.829,377.331,27.794z"/>
		<path style="fill-rule:evenodd;clip-rule:evenodd;fill:#7B491E;" d="M367.104,43.203c0.002,1.949-1.458,2.944-3.098,1.932
			c-0.673-0.415-1.415-0.522-2.06-0.931c-0.907-0.574-2.062-0.852-1.935-2.322c0.136-1.558,1.479-2.053,2.492-2.33
			C366.259,38.522,366.733,39.897,367.104,43.203z"/>
		<path style="fill-rule:evenodd;clip-rule:evenodd;fill:#7B491E;" d="M32.078,34.569c0.833-1.216,0.076-2.542-0.839-3.913
			c-0.754-1.129-0.127-2.111,0.791-2.771c1.031-0.741,1.511,0.362,2.043,0.908c1.032,1.059,1.746,2.352,2.27,3.731
			c0.517,1.359-1.771,4.486-3.168,4.386C31.89,36.82,31.911,35.942,32.078,34.569z"/>
		<path style="fill-rule:evenodd;clip-rule:evenodd;fill:#7B491E;" d="M22.161,66.599c0.103,0.991-0.181,1.505-1.343,1.643
			c-1.098,0.13-1.712,0.697-0.57,1.856c0.527,0.534,1.505,1.062,1.131,2.156c-0.339,0.992-0.733,1.799-2.065,1.19
			c-1.264-0.577-2.501-0.946-2.812-2.688c-0.136-0.762,0.009-1.504,0.343-1.659c1.404-0.654,1.417-1.967,1.792-3.131
			c0.362-1.125,1.315-1.428,2.287-1.268C21.843,64.85,22.298,65.601,22.161,66.599z"/>
		<path style="fill-rule:evenodd;clip-rule:evenodd;fill:#7B491E;" d="M336.033,42.25c0.247,1.511-0.823,2.427-1.826,2.988
			c-0.886,0.496-1.731-0.468-2.411-1.152c-0.138-0.139-0.259-0.303-0.417-0.411c-1.177-0.797-2.098-1.758-1.513-3.298
			c0.428-1.127,2.676-2.023,3.841-1.668C334.994,39.1,336.038,40.69,336.033,42.25z"/>
		<path style="fill-rule:evenodd;clip-rule:evenodd;fill:#7B491E;" d="M318.615,41.448c-1.199-0.771-2.961-1.305-3.85-2.98
			c-0.404-0.762-2.017-1.298-0.561-2.555c1.639-1.416,3.449-1.556,5.193-0.247c1.196,0.898,1.116,1.973,0.555,3.234
			c-0.218,0.488-0.747,1.12-0.004,1.812C320.329,41.066,319.928,41.425,318.615,41.448z"/>
		<path style="fill-rule:evenodd;clip-rule:evenodd;fill:#7B491E;" d="M313.998,31.858c0.058,2.772-1.188,3.389-3.448,2.859
			c-1.889-0.442-2.883-1.329-3.196-3.112c-0.086-0.485-0.284-1.28,0.183-1.469c1.477-0.597,3.09-1.286,4.642-0.76
			C313.335,29.769,313.807,31.074,313.998,31.858z"/>
		<path style="fill-rule:evenodd;clip-rule:evenodd;fill:#7B491E;" d="M34.755,50.16c0.011,1.021-2.2,4.408-3.07,4.797
			c-0.985,0.44-1.812-0.146-1.945-0.864c-0.404-2.167-0.074-4.304,1.149-6.205c0.521-0.811,1.529-0.807,2.09-0.408
			C33.862,48.11,35.043,48.753,34.755,50.16z"/>
		<path style="fill-rule:evenodd;clip-rule:evenodd;fill:#7B491E;" d="M45.42,50.839c-0.132-1.16-0.128-2.143,0.872-2.57
			c1.181-0.504,1.336,0.89,2,1.236c1.55,0.809,2.332,1.972,2.557,3.612c0.096,0.704,0.027,1.369-0.325,2.044
			c-0.7,1.343-1.432,1.523-2.375,0.259c-0.367-0.492-0.745-0.941-1.275-1.314C45.7,53.278,44.893,52.201,45.42,50.839z"/>
		<path style="fill-rule:evenodd;clip-rule:evenodd;fill:#7B491E;" d="M44.986,45.761c0.038,0.577-0.201,0.995-0.881,1.221
			c-0.469,0.156-0.954,0.437-1.288,0.796c-1.726,1.855-2.478,1.833-3.489-0.462c-0.415-0.943-0.688-2-0.983-3.008
			c-0.347-1.183,0.343-2.075,1.579-1.608c1.106,0.417,2.17,0.617,3.321,0.774C44.291,43.617,45.049,44.431,44.986,45.761z"/>
		<path style="fill-rule:evenodd;clip-rule:evenodd;fill:#7B491E;" d="M372.844,44.588c-2.773-0.003-4.174-0.963-4.131-2.783
			c0.02-0.796-0.515-1.755,0.538-2.417c1.206-0.757,2.287-0.129,3.288,0.286c0.778,0.321,1.467,1.037,1.996,1.729
			c0.466,0.609,1.229,1.267,0.732,2.226C374.665,44.794,373.563,44.621,372.844,44.588z"/>
		<path style="fill-rule:evenodd;clip-rule:evenodd;fill:#7B491E;" d="M31.424,78.802c-1.032,0-1.882,0.048-2.725-0.014
			c-0.796-0.059-1.287-0.578-1.4-1.354c-0.104-0.71,0.475-0.963,0.892-1.438c2.333-2.661,4.458-1.233,6.637,0.081
			c0.546,0.329,1.164,0.681,1.088,1.462c-0.071,0.743-0.747,0.687-1.248,0.945C33.53,79.073,32.37,78.63,31.424,78.802z"/>
		<path style="fill-rule:evenodd;clip-rule:evenodd;fill:#7B491E;" d="M45.028,76.839c-0.851,0-1.71-0.07-2.552,0.018
			c-1.261,0.131-1.573-0.796-1.778-1.634c-0.335-1.366,0.899-1.97,1.725-2.565c0.555-0.401,1.701-0.462,2.061,0.418
			c0.53,1.295,1.401,1.217,2.454,1.023c0.38-0.07,0.79-0.052,1.176-0.002c0.682,0.087,1.417,0.136,1.586,1.03
			c0.205,1.08-0.693,1.454-1.35,1.576c-1.072,0.201-2.21,0.055-3.32,0.055C45.028,76.785,45.028,76.812,45.028,76.839z"/>
		<path style="fill-rule:evenodd;clip-rule:evenodd;fill:#7B491E;" d="M12.48,67.4c1.551-0.438,2.865,0.25,3.355,2.09
			c0.266,0.999-2.108,2.659-3.577,2.63c-1.61-0.032-3.767-1.545-3.833-2.688C8.352,68.166,9.76,67.4,12.48,67.4z"/>
		<path style="fill-rule:evenodd;clip-rule:evenodd;fill:#7B491E;" d="M20.62,48.09c-0.148,1.271-0.447,2.512-1.753,3.08
			c-0.636,0.277-1.041,0.738-1.495,1.179c-0.655,0.636-1.317,0.75-2.047,0.138c-0.625-0.525-0.611-0.991-0.347-1.832
			c0.483-1.532,1.6-2.563,2.428-3.809c0.357-0.538,0.888-1.407,1.685-1.015C19.92,46.24,20.779,46.872,20.62,48.09z"/>
		<path style="fill-rule:evenodd;clip-rule:evenodd;fill:#7B491E;" d="M70.94,53.423c0.147,0.918-0.085,1.926-1.245,2.128
			c-1.579,0.275-2.275-1.183-2.926-2.166c-0.403-0.61-0.728-1.312-1.273-1.839c-0.364-0.351-0.634-0.775-0.398-1.196
			c0.271-0.484,0.631-0.961,1.31-1.048C68.482,49.039,70.946,51.176,70.94,53.423z"/>
		<path style="fill-rule:evenodd;clip-rule:evenodd;fill:#7B491E;" d="M15.876,79.914c0,0.137-0.004,0.202,0.001,0.267
			c0.096,1.221-0.814,1.28-1.635,1.369c-1.47,0.159-4.672-1.247-4.826-2.752c-0.103-1.007,0.858-2.25,1.252-2.21
			c1.253,0.126,2.461,0.772,3.668,1.264C15.274,78.233,16.068,78.767,15.876,79.914z"/>
		<path style="fill-rule:evenodd;clip-rule:evenodd;fill:#7B491E;" d="M56.779,44.403c0.169,0.804-0.351,1.346-0.991,1.658
			c-0.71,0.346-1.326,0.013-1.869-0.576c-0.883-0.959-1.335-2.26-2.526-2.986c-0.515-0.314-1.147-0.809-0.861-1.575
			c0.323-0.865,1.154-0.706,1.839-0.651C55.098,40.492,56.874,42.154,56.779,44.403z"/>
		<path style="fill-rule:evenodd;clip-rule:evenodd;fill:#7B491E;" d="M53.035,56.018c2.057-0.259,2.941,1.221,3.631,2.609
			c0.49,0.985,0.189,2.151-0.88,2.9c-0.272,0.191-0.497,0.398-0.855,0.358c-0.992-0.111-3.769-3.512-3.646-4.509
			C51.413,56.324,51.942,55.741,53.035,56.018z"/>
		<path style="fill-rule:evenodd;clip-rule:evenodd;fill:#7B491E;" d="M379.301,47.268c-0.541,0.661,0.146,2.256-1.42,2.401
			c-1.985,0.185-4.35-1.268-4.456-2.564c-0.069-0.832,1.913-2.523,2.943-2.512C377.764,44.609,379.268,45.896,379.301,47.268z"/>
		<path style="fill-rule:evenodd;clip-rule:evenodd;fill:#7B491E;" d="M306.028,22.169c1.658,0.004,3.408,1.3,3.226,2.546
			c-0.229,1.564-1.674,1.863-2.875,2.034c-1.625,0.231-3.02-1.164-2.991-2.682C303.418,22.51,303.9,22.164,306.028,22.169z"/>
		<path style="fill-rule:evenodd;clip-rule:evenodd;fill:#7B491E;" d="M38.642,68.919c0.306,0.757-0.183,1.421-0.411,2.028
			c-0.372,0.99-1.225,1.461-2.285,0.773c-1.222-0.791-2.481-1.562-2.38-3.33c0.045-0.782,0.004-1.402,0.94-1.888
			c1.009-0.522,1.552,0.07,2.285,0.369c0.978,0.398,0.729,1.884,1.896,2.094L38.642,68.919z"/>
		<path style="fill-rule:evenodd;clip-rule:evenodd;fill:#7B491E;" d="M22.269,79.986c-0.811-0.162-1.521-0.216-2.162-0.456
			c-0.715-0.269-1.162-1.074-0.991-1.667c0.483-1.672,2.286-1.596,3.536-2.11c0.822-0.337,2.079,0.035,2.624,1.028
			C26.186,78.438,24.601,80.022,22.269,79.986z"/>
		<path style="fill-rule:evenodd;clip-rule:evenodd;fill:#7B491E;" d="M25.258,22.588c1.103-0.054,3.999,1.884,3.974,2.718
			c-0.072,2.476-2.792,0.648-3.605,2.139c-0.173,0.316-2.208-1.81-2.284-2.612C23.205,23.376,24.359,23.082,25.258,22.588z"/>
		<path style="fill-rule:evenodd;clip-rule:evenodd;fill:#7B491E;" d="M24.403,46.112c-1.741,0.338-2.458-0.574-2.608-2.02
			c-0.14-1.347,1.552-3.079,2.848-3.044c2.717,0.073,1.213,2.403,1.723,3.58C26.893,45.847,25.606,46.421,24.403,46.112z"/>
		<path style="fill-rule:evenodd;clip-rule:evenodd;fill:#7B491E;" d="M62.598,50.881c-1.455-0.026-4.116-3.012-3.823-4.417
			c0.206-0.986,0.603-1.264,1.938-1.042c2.549,0.424,2.43,2.471,3.09,4.003C64.284,50.54,63.847,50.903,62.598,50.881z"/>
		<path style="fill-rule:evenodd;clip-rule:evenodd;fill:#7B491E;" d="M29.642,17.894c-0.345-1.222,0.559-1.729,1.623-1.984
			c0.746-0.18,3.549,2.688,3.478,3.518c-0.147,1.706-1.66,1.359-2.641,1.51C30.59,21.17,29.647,19.932,29.642,17.894z"/>
		<path style="fill-rule:evenodd;clip-rule:evenodd;fill:#7B491E;" d="M48.38,69.761c-1.5-0.007-3.272-1.581-3.388-2.952
			c-0.021-0.253-0.055-0.58,0.074-0.76c0.636-0.885,1.673-1.088,2.442-0.566c1.131,0.769,3.261,0.695,2.958,2.889
			C50.299,69.58,49.39,69.876,48.38,69.761z"/>
		<path style="fill-rule:evenodd;clip-rule:evenodd;fill:#7B491E;" d="M74.337,65.434c1.235,0.029,2.52,1.535,2.499,2.958
			c-0.021,1.418-0.779,2.423-2.14,2.483c-1.165,0.053-2.11-0.826-2.1-2.048C72.622,65.935,72.975,65.401,74.337,65.434z"/>
		<path style="fill-rule:evenodd;clip-rule:evenodd;fill:#7B491E;" d="M6.807,62.028c-0.05-1.345,0.479-2.228,1.91-2.076
			c1.46,0.155,2.471,0.772,2.483,2.567c0.011,1.741-1.202,2.424-2.359,2.424C7.213,64.944,6.934,63.399,6.807,62.028z"/>
		<path style="fill-rule:evenodd;clip-rule:evenodd;fill:#7B491E;" d="M29.009,37.107c1.223-0.01,2.632,1.614,2.583,3.103
			c-0.049,1.498-1.259,1.899-2.402,1.98c-1.885,0.135-1.868-1.312-1.916-2.651C27.227,38.251,27.388,37.167,29.009,37.107z"/>
		<path style="fill-rule:evenodd;clip-rule:evenodd;fill:#7B491E;" d="M38.686,68.966c-0.334-1.994,0.449-2.833,2.323-2.311
			c0.954,0.266,1.848,0.8,2.713,1.308c0.686,0.403,0.694,1.211,0.303,1.705c-0.721,0.912-1.634,1.602-2.978,1.1
			c-1.008-0.377-1.478-1.398-2.405-1.848C38.642,68.919,38.686,68.966,38.686,68.966z"/>
		<path style="fill-rule:evenodd;clip-rule:evenodd;fill:#7B491E;" d="M39.477,24.845c0.329,1.06-0.398,1.712-1.392,1.936
			c-0.957,0.215-2.92-1.688-2.938-2.639c-0.027-1.379,0.696-2.199,1.999-2.336C38.372,21.676,39.464,23.124,39.477,24.845z"/>
		<path style="fill-rule:evenodd;clip-rule:evenodd;fill:#7B491E;" d="M34.749,25.981c-0.09,0.624-0.561,1.331-1.422,1.26
			c-1.386-0.114-2.569-0.894-3.387-1.976c-0.607-0.804,0.265-1.59,0.512-2.37c0.141-0.447,0.469-0.764,1.02-0.722
			C32.163,22.226,34.767,25.04,34.749,25.981z"/>
		<path style="fill-rule:evenodd;clip-rule:evenodd;fill:#7B491E;" d="M27.671,72.017c0.227,1.018-0.692,1.542-1.308,1.503
			c-1.49-0.096-3.02-0.465-3.982-1.806c-0.405-0.565-0.375-1.226,0.188-1.758c0.278-0.264,0.528-0.706,0.955-0.566
			c1.256,0.408,2.5,0.862,3.722,1.361C27.75,70.956,27.687,71.497,27.671,72.017z"/>
		<path style="fill-rule:evenodd;clip-rule:evenodd;fill:#7B491E;" d="M63.062,65.751c-0.367,0.99-1.413,1.703-2.499,1.566
			c-1.224-0.153-2.475-0.99-2.541-2.416c-0.055-1.195,0.969-1.496,2.062-1.44C61.889,63.553,63.118,64.369,63.062,65.751z"/>
		<path style="fill-rule:evenodd;clip-rule:evenodd;fill:#7B491E;" d="M54.089,68.968c-1.323,0.033-2.701-1.391-2.825-2.608
			c-0.105-1.028,0.686-1.173,1.303-1.279c1.049-0.181,3.392,1.266,3.424,1.985C56.058,68.54,54.845,68.617,54.089,68.968z"/>
		<path style="fill-rule:evenodd;clip-rule:evenodd;fill:#7B491E;" d="M10.774,56.675c-0.132-1.606,0.654-2.498,2.027-2.591
			c0.814-0.056,1.854,0.253,1.872,1.449c0.017,1.141-1.784,3.222-2.661,3.038C10.993,58.357,10.505,57.645,10.774,56.675z"/>
		<path style="fill-rule:evenodd;clip-rule:evenodd;fill:#7B491E;" d="M32.399,70.46c-0.156,0.613-0.053,1.796-1.198,1.596
			c-1.114-0.194-2.333-0.6-2.384-2.246c-0.031-1.016,0.498-1.671,1.219-1.524C31.055,68.491,32.459,68.658,32.399,70.46z"/>
		<path style="fill-rule:evenodd;clip-rule:evenodd;fill:#7B491E;" d="M74.032,56.396c0.345,1.25-0.602,1.776-1.296,1.798
			c-0.696,0.022-1.461-0.5-1.444-1.632c0.019-1.253,0.894-1.618,1.692-1.646C73.654,54.892,74.494,55.424,74.032,56.396z"/>
		<path style="fill-rule:evenodd;clip-rule:evenodd;fill:#7B491E;" d="M331.567,54.506c0.2,0.392,0.916,0.144,0.93,0.808
			c0.012,0.539-0.251,0.933-0.687,1.019c-0.492,0.096-0.801-0.302-0.878-0.799C330.854,55.023,331.108,54.702,331.567,54.506z"/>
		<path style="fill-rule:evenodd;clip-rule:evenodd;fill:none;" d="M154.152,42.677c-2.467-0.106-4.789-0.828-7.135-1.353
			c-0.493-0.11-0.996-0.344-1.485-0.26c-3.736,0.637-6.797-1.411-10.029-2.618c-1.503-0.562-3.098-0.97-4.508-1.723
			c-1.808-0.965-3.212-2.471-4.53-4.047c-1.178-1.409-2.542-1.557-4.062-0.445c-3.893,2.848-8.446,4.417-12.806,6.303
			c-1.774,0.767-3.877,0.893-5.735,1.688c-0.355,0.152-1.146,0.076-1.257-0.14c-0.352-0.688-0.288-1.467,0.023-2.228
			c0.788-1.922,1.535-3.86,2.29-5.795c1.03-2.637,2.414-5.13,3.041-7.936c0.245-1.092,1.042-1.228,1.998-0.517
			c3.787,2.819,7.985,2.762,12.141,0.421c1.87-1.053,3.361-2.052,4.121-4.15c0.33-0.91,1.149-1.355,1.857,0.122
			c0.735,1.533,1.453,3.057,2.844,4.303c3.268,2.928,7.439,3.549,11.196,1.187c0.781-0.491,0.912-0.956,1.739,0.305
			c2.403,3.659,3.186,8.141,6.08,11.502c1.068,1.24,2.418,2.211,3.325,3.621C153.603,41.455,154.053,41.902,154.152,42.677z"/>
		<path style="fill-rule:evenodd;clip-rule:evenodd;fill:none;" d="M106.82,45.467c2.159-1.594,4.351-3.042,7.097-3.21
			c0.747-0.046,1.169-0.579,1.656-0.878c2.058-1.264,4.467-1.683,6.521-2.902c0.545-0.323,0.939-0.179,1.379,0.231
			c2.973,2.771,6.473,4.764,10.027,6.659c1.896,1.011,3.928,1.048,6.07,0.955c1.743-0.076,3.424,1.034,5.316,0.866
			c-1.489,0.798-3.062,0.709-4.499,0.496c-4.689-0.696-9.385-0.178-14.074-0.323c-1.617-0.05-3.199-0.088-4.75-0.655
			c-0.923-0.338-2.04-0.428-2.873,0.003c-1.906,0.986-3.718,0.39-5.599,0.098C111.029,46.487,108.922,46.435,106.82,45.467z"/>
	</g>
</g>
</svg>
