<?xml version="1.0" encoding="iso-8859-1"?>
<!-- Generator: Adobe Illustrator 16.0.0, SVG Export Plug-In . SVG Version: 6.00 Build 0)  -->
<!DOCTYPE svg PUBLIC "-//W3C//DTD SVG 1.1//EN" "http://www.w3.org/Graphics/SVG/1.1/DTD/svg11.dtd">
<svg version="1.1" id="Layer_1" xmlns="http://www.w3.org/2000/svg" xmlns:xlink="http://www.w3.org/1999/xlink" x="0px" y="0px"
	 width="401.078px" height="206.482px" viewBox="0 0 401.078 206.482" style="enable-background:new 0 0 401.078 206.482;"
	 xml:space="preserve">
<g>
	<g>
		<path style="fill:none;" d="M200.539,205.943c-66.043,0-132.086-0.006-198.129,0.039c-1.559,0.002-1.911-0.351-1.91-1.91
			C0.545,136.852,0.545,69.631,0.5,2.41C0.499,0.851,0.851,0.499,2.41,0.5c132.086,0.042,264.172,0.042,396.258,0
			c1.559-0.001,1.911,0.351,1.91,1.91c-0.046,67.221-0.046,134.442,0,201.663c0.001,1.56-0.352,1.912-1.91,1.91
			C332.625,205.938,266.582,205.943,200.539,205.943z M94.948,153.578c-1.511-0.041-0.841-1.244-0.8-1.832
			c0.104-1.484-0.394-2.93-1.701-3.046c-1.652-0.146-3.672-1.146-5.084,0.881c-0.906,1.3-1.921,2.56-3.69,2.749
			c0.424-1.246,0.917-2.474,1.259-3.742c0.653-2.42-1.465-3.604-2.446-5.299c-0.23-0.397-0.24-0.95-0.908-0.697
			c-0.57,0.217-1.201,0.394-1.201,1.193c0,0.484,0.015,0.971-0.01,1.454c-0.029,0.568,0.239,1.314-0.83,1.255
			c-0.862-0.048-1.261-0.429-1.246-1.284c0.013-0.692,0.146-1.425-0.029-2.07c-0.403-1.487-1.298-2.45-3.012-2.494
			c-2.011-0.051-1.447,1.383-1.526,2.458c-0.03,0.413-0.073,0.845,0.008,1.244c0.22,1.087-0.44,1.546-1.294,1.679
			c-1.01,0.158-1.894,0.003-2.612-1.025c-0.651-0.934-0.343-1.598,0.271-2.069c1.497-1.153,1.864-2.831,2.37-4.464
			c0.396-1.275-0.287-2.291-1.328-2.528c-0.857-0.194-1.833,0.463-2.274,1.483c-0.348,0.806-0.589,1.975-1.409,2.146
			c-1.862,0.39-2.073,1.676-2.227,3.139c-0.12,1.133-0.079,2.305-1.289,3.037c-0.25,0.151-0.15,0.893-0.199,1.362
			c-0.064,0.611,0.061,1.316-0.203,1.82c-1.422,2.72-0.464,5.058,1.046,7.318c0.333,0.499,1.025,0.823,0.783,1.561
			c-0.238,0.722-0.875,0.722-1.525,0.75c-1.552,0.066-2.412,0.786-2.193,2.477c0.07,0.545,0.132,1.148-0.029,1.652
			c-0.491,1.527,0.083,2.864,1.374,3.24c1.651,0.481,2.067-1.09,2.405-2.375c0.034-0.13-0.012-0.282,0.021-0.413
			c0.639-2.551,2.897-3.586,5.394-2.772c2.106,0.687,4.159-0.974,6.34-0.514c0.15,0.032,0.383-0.364,0.587-0.551
			c0.575-0.526,1.074-1.226,1.75-1.538c1.852-0.856,2.726-2.322,2.942-4.235c0.096-0.851,0.45-1.249,1.287-1.244
			c-1.252,1.965,0.035,5.472-3.643,5.994c-0.211,0.03-0.462,0.504-0.512,0.802c-0.146,0.857-0.686,1.264-1.428,1.578
			c-1.531,0.648-1.383,1.846-0.737,2.976c1.264,2.214,2.319,4.349,0.207,6.673c-0.325,0.357-0.696,0.935,0.013,1.553
			c0.583,0.508,1.021,0.763,1.721,0.35c0.727-0.428,1.182-0.456,2.04,0.219c1.109,0.874,2.561,0.253,3.324-1.003
			c0.74-1.217-0.3-1.664-1.177-2.123c-0.132-0.069-0.162-0.333-0.313-0.674c1.642,0.048,3.072,0.826,4.564,0.581
			c0.168,0.356-0.128,0.521-0.257,0.745c-0.516,0.9-0.776,1.743,0.287,2.479c1.043,0.721,1.454-0.224,2.055-0.713
			c0.31-0.253,0.623-0.57,0.988-0.676c2.282-0.666,3.087-1.798,2.573-4.184c-0.171-0.794,0.09-0.692,0.597-0.861
			c2.49-0.83,3.433-2.693,3.418-5.216c-0.005-0.91-0.489-1.69-1.165-1.714c-1.523-0.051-3.085-0.811-4.584,0.217
			c-0.229-3.045-0.82-3.591-3.831-3.688l0.037,0.036c1.334-1.045,1.005-3.011,2.362-4.271c0.891,2.073,1.531,4.128,3.21,5.682
			c0.697,0.646,1.194,0.887,1.825,0.436c0.794-0.567,0.742-1.63,0.174-2.165c-0.622-0.585-0.706-1.088-0.571-1.788
			c1.182,0.438,1.985,0.979,1.549,2.541c-0.231,0.827,0.367,1.729,1.342,1.823c0.225,0.021,1.357,0.197,1.295-0.839
			c-0.087-1.468,0.22-2.945-0.593-4.367c-0.562-0.982-1.281-1.739-2.314-1.552C94.972,151.353,94.78,152.465,94.948,153.578z
			 M117.724,97.698c2.784,0.789,5.292,1.841,7.957,2.189c1.586,0.207,2.269,1.932,3.818,2.102c3.756,0.411,7.252,2.037,10.991,2.433
			c3.175,0.336,5.563,2.704,8.568,3.159c3.391,0.515,6.103,2.528,9.191,3.674c2.557,0.948,4.82,2.917,7.325,4.271
			c3.465,1.872,6.809,3.966,10.229,5.921c1.029,0.588,2.169,0.92,3.262,0.13c1.197-0.864,0.705-2.187,0.605-3.27
			c-0.062-0.672-0.645-1.358-1.351-1.849c-3.222-2.233-5.941-4.958-8.192-8.202c-1.126-1.626-2.209-3.368-4.073-4.394
			c-1.573-0.865-3.353-1.228-4.888-2.214c-0.632-0.406-0.779-0.777-0.692-1.354c0.12-0.795,0.917-1.268,1.434-1.119
			c1.772,0.513,3.616,0.57,5.331,1.613c2.351,1.43,4.167,3.624,6.839,4.566c5.505,1.94,10.76,4.455,15.705,7.532
			c1.55,0.964,3.004,0.632,4.521,0.707c0.599,0.03,0.842-0.923,1.597-0.793c1.434,0.246,2.526-0.408,2.912-1.693
			c0.403-1.343-0.027-2.664-1.096-3.689c-1.556-1.493-2.765-3.412-4.955-4.123c-0.55-0.179-0.58-0.51-0.495-0.936
			c0.098-0.486,0.522-0.354,0.832-0.358c1.316-0.017,2.656,0.145,3.943-0.051c1.38-0.209,2.986-0.534,3.43-2.1
			c0.381-1.344-0.448-2.363-1.529-3.3c-1.348-1.168-2.733-1.846-4.514-1.625c-0.917,0.114-1.846,0-2.511-0.604
			c-0.407-0.369-1.564,0.196-1.253-0.88c0.202-0.697,0.995-0.537,1.612-0.611c3.669-0.443,7.375-0.457,10.852-2.213
			c1.572-0.794,2.461-1.841,3.061-3.253c0.819-1.929,0.032-3.363-1.838-3.664c-6.886-1.105-13.78-2.09-20.79-1.676
			c-0.702,0.042-1.413-0.053-2.12-0.084c2.428-1.488,4.89-2.537,7.505-3.252c2.893-0.792,5.78-1.66,8.327-3.323
			c2.359-1.54,2.181-3.115-0.256-4.635c-1.288-0.803-2.619-0.952-3.929-0.716c-5.858,1.055-11.778,1.894-17.271,4.419
			c-1.124,0.517-2.454,0.159-3.317-0.478c-0.967-0.712,0.393-1.376,0.672-2.033c0.372-0.874,0.686-1.73,0.897-2.657
			c0.421-1.853-1.204-3.695-3.062-3.436c-3.267,0.455-6.452,1.191-9.446,2.617c-1.639,0.779-3.255,1.606-4.907,2.355
			c-3.166,1.434-6.57,2.299-9.553,4.185c-1.983,1.253-3.981,2.532-6.233,3.273c-0.337,0.111-0.788,0.651-1.248,0.042
			c-0.46-0.609,0.11-0.822,0.349-1.199c0.969-1.528,2.27-2.603,3.912-3.404c1.985-0.967,2.416-2.29,1.778-4.296
			c-0.571-1.798-1.498-3.032-3.651-2.781c-0.432,0.05-1.155,0.393-1.338-0.48c-0.172-0.817,0.64-0.772,0.999-1.089
			c0.926-0.816,2.33-0.704,3.267-1.662c0.285-0.291,1.326-0.206,1.774,0.086c3.044,1.983,6.38,2.696,9.965,2.802
			c1.845,0.056,3.021-0.853,3.712-2.214c0.574-1.131,1.243-2.215,1.796-3.359c1.232-2.551,3.424-3.971,6.075-3.11
			c3.786,1.228,6.05-1.438,8.878-2.717c0.481-0.218,0.448-0.762,0.555-1.244c0.467-2.1-2.915-4.885-5.51-4.154
			c-0.915,0.258-1.783,0.101-2.228-0.499c-0.468-0.631-0.256-1.474,0.327-2.248c0.925-1.228,1.717-2.575,2.412-3.949
			c0.533-1.055,0.926-2.231-0.221-3.242c-1.174-1.035-2.497-1.137-3.726-0.298c-1.175,0.803-2.28,1.762-3.237,2.814
			c-1.102,1.21-1.853,1.059-2.779-0.169c-1.085-1.437-2.467-1.355-3.331,0.201c-0.749,1.35-1.384,2.759-1.302,4.404
			c0.042,0.853-0.112,2.109-1.297,1.8c-2.284-0.595-4.402-0.427-6.539,0.455c-0.246,0.102-0.701,0.141-0.993-0.909
			c0.625-0.5,1.533-1.122,2.316-1.873c3.298-3.164,7.312-5.47,10.469-8.801c1.457-1.536,1.399-3.661-0.138-5.201
			c-0.571-0.572-0.859-0.634-1.673-0.164c-2.382,1.376-4.567,3.202-7.001,4.277c-2.343,1.035-4.506,2.264-6.719,3.499
			c-3.441,1.92-7.037,3.562-10.535,5.384c-0.497,0.258-0.974,0.803-1.415,0.295c-0.406-0.468,0.217-1.012,0.466-1.41
			c1.043-1.669,2.765-2.709,4.017-4.237c2.304-2.811,4.741-5.562,7.454-7.964c1.266-1.121,2.631-2.099,3.741-3.427
			c0.806-0.965,1.248-1.832,0.409-2.894c-0.779-0.987-1.704-0.532-2.764-0.349c-2.847,0.491-5.217,2.754-8.323,2.179
			c-0.914-0.169-1.542,0.45-1.762,1.127c-0.516,1.594-1.939,2.146-3.077,3.038c-1.308,1.026-2.573,2.1-3.83,3.191
			c-2.956,2.566-3.868,6.745-7.29,8.891c-1.609,1.01-2.906,2.44-4.27,3.717c-4.574,4.287-8.938,8.789-11.575,14.647
			c-0.491,1.09-1.482,1.95-2.006,3.031c-1.169,2.411-3.245,4.166-4.56,6.429c-2.946,5.071-5.713,10.246-8.582,15.361
			c-0.349,0.622-0.941,0.917-1.739,0.87c-2.081-0.125-3.743,0.95-5.318,2.105c-0.823,0.604-1.844,1.591-1.333,2.521
			c0.601,1.093,1.401,2.467,3.055,2.416c1.792-0.056,3.514,0.255,5.198,0.828c0.661,0.225,1.497-0.425,2.031,0.466
			c1.074,1.792,2.528,1.477,4.057,0.684c1.672-0.867,4.518-0.265,4.991,1.268c0.275,0.895,0.751,1.499,1.373,1.952
			c4.466,3.25,8.606,6.889,12.681,10.599c3.052,2.777,5.813,5.871,9.491,7.913c1.456,0.809,2.912,1.669,3.779,3.266
			c0.373,0.687,1.081,1.358,1.796,1.661c2.931,1.242,4.799,3.067,4.249,6.539c-0.063,0.397-0.058,0.861,0.084,1.229
			c1.528,3.969,3.539,7.757,5.464,11.498c2.148,4.176,6.251,7.099,9.778,10.273c2.64,2.376,6.227,3.433,8.686,6.235
			c1.217,1.386,3.444,1.344,5.156,0.524c1.687-0.808,1.634-2.754,1.99-4.333c0.592-2.631-0.776-5.078-0.839-7.664
			c-0.036-1.449,0.646-1.905,1.661-1.095c1.355,1.082,2.974,1.245,4.485,1.695c1.12,0.334,2.347,0.336,3.38-0.81
			c1.699-1.884,1.94-6.345,0.176-8.193c-2.22-2.326-4.5-4.595-6.752-6.891c-0.421-0.43-1.087-0.795-0.785-1.53
			c0.285-0.692,0.97-0.233,1.465-0.334c0.333-0.068,0.712,0.063,1.033-0.027c1.666-0.473,3.236-1.099,3.667-3.051
			c0.377-1.709-0.387-2.98-1.755-3.838c-0.947-0.593-2.015-1.116-3.099-1.348c-4.498-0.962-8.639-3.348-13.479-3.089
			c-1.306,0.069-2.823-0.709-4.26-1.01c-2.425-0.509-4.857-1.027-7.311-1.344c-2.741-0.354-5.399-0.736-7.874-2.179
			c-1.325-0.771-2.604-1.634-3.969-2.341c-4.793-2.479-9.469-5.176-12.536-9.78C120.263,100.724,118.202,100.055,117.724,97.698z
			 M356.457,72.104c0-0.741,0.177-1.426-0.035-1.955c-0.532-1.329-0.787-2.917-2.689-3.192c-1.502-0.217-1.757,1.096-2.454,1.827
			c-0.264,0.277-0.144,0.909-0.225,1.375c-0.725,4.191-0.726,4.191-3.592,3.751c0.59-1.433,1.323-2.776,1.741-4.291
			c0.481-1.743,1.472-3.218,3.561-3.677c1.282-0.282,2.753-0.748,3.624-1.637c1.495-1.524,3.271-2.47,5.054-3.5
			c0.925-0.534,1.334-1.073,1.792,0.579c0.714,2.582,3.703,3.806,5.84,2.696c1.853-0.961,3.091-2.455,3.167-4.623
			c0.041-1.183,0.695-1.652,1.607-1.327c1.365,0.488,2.256-0.097,3.074-0.947c1.327-1.379,2.639-2.8,3.993-4.122
			c1.029-1.005,1.46-1.934,1.296-3.155c-0.2-1.497,0.044-2.895,0.536-4.264c0.968-2.693,2.149-5.318,2.964-8.055
			c1.514-5.092,3.284-9.993,6.343-14.451c1.375-2.002,2.192-4.834,1.281-7.213c-1.161-3.03-1.699-6.198-2.737-9.237
			c-0.227-0.666-0.398-1.155-1.164-1.156c-2.286-0.005-4.573-0.04-6.857,0.016c-0.889,0.021-1.188,0.323-0.904,1.45
			c0.502,1.992,0.461,4.254-0.721,5.925c-3.046,4.312-3.662,9.704-6.585,14.048c-1.345,1.999-2.837,3.945-3.681,6.227
			c-0.359,0.973-0.991,1.619-1.786,2.036c-1.293,0.68-2.118,1.686-2.544,3.015c-0.584,1.827-1.573,1.899-3.06,0.971
			c-1.437-0.897-3.105-0.55-4.598-0.268c-1.098,0.208-2.206,0.901-2.299,2.426c-0.043,0.715-0.684,0.648-1.191,0.319
			c-1.882-1.221-3.404-0.316-4.795,0.892c-1.096,0.95-2.046,2.065-3.106,3.059c-0.393,0.368-0.438,1.462-1.248,0.971
			c-0.557-0.337-0.939-1.098-1.193-1.75c-0.188-0.482-0.02-1.096-0.048-1.648c-0.088-1.695-1.841-4.174-3.112-4.426
			c-3.449-0.684-7.067,1.654-8.127,5.194c-0.322,1.076-0.91,1.95-2.225,1.131c-1.207-0.751-2.528-0.415-3.808-0.517
			c-0.852-0.068-0.962,0.335-1.045,1.086c-0.372,3.346,0.427,6.037,3.605,7.778c1.45,0.794,1.402,2.231-0.023,3.115
			c-1.491,0.926-2.546,2.2-3.559,3.583c-0.43,0.586-0.538,1.131-0.316,1.712c0.99,2.588,1.305,3.857,4.548,3.539
			c0.961-0.094,2.021,0.231,2.893-0.062c2.523-0.847,4.323,0.093,6.263,1.654c1.84,1.482,1.638,3.537,2.209,5.377
			c0.094,0.302-0.303,0.871-1.056,0.963c-1.488,0.182-2.96,0.377-4.468,0.4c-0.929,0.014-1.876,0.235-2.188,1.424
			c-0.276,1.052-0.437,1.914,0.544,2.804c0.424,0.384,0.881,0.772,1.332,1.106c2.589,1.917,2.604,1.896,1.169,4.744
			c-1.15,2.282-0.729,3.011,1.599,4.095c1.736,0.809,3.838,0.655,5.273,2.425c0.786,0.97,2.223,0.668,3.235-0.428
			c0.672-0.727,1.019-1.611,1.388-2.46c0.946-2.178,2.485-2.825,4.808-2.572c1.982,0.216,3.658,1.262,5.604,1.556
			c2.978,0.451,5.641-0.065,7.982-1.95c1.245-1.002,1.058-2.995-0.382-3.832c-2.528-1.47-5.329-1.744-8.14-1.523
			c-0.151-1.083,0.625-1.371,1.271-1.65c2.001-0.868,3.671-2.238,5.403-3.501c1.244-0.907,1.252-2.764,0.145-3.772
			c-1.597-1.453-4.407-1.485-5.918,0.08C358.883,71.167,357.953,71.72,356.457,72.104z M239.976,146.332
			c-1.645,0.487-3.466,2.23-3.656,3.51c-0.153,1.035,0.353,1.855,1.084,2.523c2.445,2.23,4.628,4.723,7.524,6.491
			c1.219,0.743,2.333,1.654,3.695,2.196c1.646,0.654,2.527-0.086,3.046-1.548c0.124-0.348-0.116-0.801,0.492-0.96
			c1.905-0.497,3.774-0.954,5.802-0.882c2.449,0.088,4.007,1.713,5.86,2.854c0.409,0.252,0.375,0.709,0.281,1.124
			c-0.818,3.599-3.276,4.563-6.005,3.795c-1.473-0.414-2.668-0.07-3.92,0.396c-3.164,1.179-6.267,2.551-9.631,3.093
			c-0.863,0.14-1.416,0.587-1.563,1.379c-0.131,0.71-0.044,1.279,0.776,1.844c1.396,0.959,2.809,0.359,4.197,0.482
			c0.511,0.044,1.137-0.84,1.573-0.032c0.284,0.526,0.024,1.133-0.442,1.678c-1.201,1.404-0.863,2.604,0.795,3.331
			c0.518,0.227,0.71,0.611,0.502,0.904c-0.58,0.818-0.125,1.507,0.016,2.29c0.351,1.956-0.161,3.832-1.294,5.383
			c-0.779,1.068-1.217,1.919-0.02,2.773c1.21,0.865,2.39,0.349,3.276-0.604c0.727-0.777,1.176-1.81,1.874-2.619
			c1.475-1.71,1.647-3.754,0.549-5.425c-1.166-1.771-0.105-2.505,0.872-3.376c0.322-0.286,0.777-0.515,1.127-0.834
			c0.493-0.451,1.044-1.347,1.668-0.818c0.588,0.498,0.489,1.439-0.122,2.196c-1.022,1.269-1.385,2.748-1.27,4.391
			c0.057,0.806,0.229,1.665-0.172,2.448c-0.348,0.677-0.425,1.359,0.213,1.848c0.605,0.463,1.226,0.219,1.896-0.114
			c1.194-0.594,1.821-1.539,2.262-2.735c0.272-0.742,0.383-1.524,0.886-2.222c1.752-2.429,2.442-5.346,2.288-8.178
			c-0.105-1.927,0.473-3.068,1.539-4.423c0.846-1.075,1.955-2.609,1.737-3.697c-0.306-1.521,0.813-1.386,1.286-2.114
			c-0.521,2.609,0.785,3.58,2.974,4.432c2.409,0.938,3.786,3.095,3.787,5.779c0.001,1.456-0.371,3.003-2.051,3.495
			c-2.463,0.722-4.43,2.204-5.896,4.159c-1.488,1.983-3.646,3.764-3.238,6.706c0.115,0.83,0.329,1.771,1.174,1.979
			c0.876,0.217,1.896,0.35,2.654-0.596c0.518-0.646,0.885-1.313,1.189-2.086c0.742-1.881,1.682-3.622,3.479-4.803
			c0.95-0.624,1.854-0.531,2.137,0.312c0.263,0.782,1.043,2.028-0.412,2.709c-1.304,0.61-2.452,1.444-3.477,2.452
			c-2.162,2.127-4.769,3.913-5.384,7.209c-0.24,1.287-0.052,2.474,1.34,2.722c1.286,0.229,2.912,0.45,3.116-1.644
			c0.321-3.298,3.137-4.883,4.914-7.18c0.657-0.851,1.525-0.783,2.434-0.56c-0.611,2.573-2.336,4.892-1.174,7.8
			c0.741,1.854,1.426,2.301,2.958,1.003c0.917-0.776,1.634-0.861,2.494-0.023c0.76,0.74,1.704,1.267,2.261,2.246
			c0.438,0.772,1.219,1.195,2.11,0.84c0.802-0.319,0.743-1.147,0.618-1.809c-0.479-2.54-0.59-5.341-3.911-6.093
			c-0.361-0.082-0.71-0.454-0.565-1.025c0.778-0.176,1.435-0.128,2.275,0.265c3.054,1.426,5.284,3.963,8.073,5.735
			c0.733,0.466,1.445,0.682,2.095,0.424c0.597-0.237,0.683-1.039,0.806-1.728c0.534-2.992-1.593-4.447-3.405-6.099
			c-1.949-1.776-4.486-2.371-6.843-3.273c-1.503-0.575-2.256-1.606-1.716-2.881c0.421-0.993,1.669-0.414,2.658-0.147
			c1.315,0.354,2.558,0.836,3.746,1.451c0.868,0.449,1.497,0.354,2.212-0.307c0.809-0.748,0.248-1.392-0.032-2.026
			c-1.286-2.923-3.352-4.568-6.748-4.515c-1.521,0.024-2.665-0.58-2.878-2.73c-0.518-5.229-2.521-9.626-8.158-11.385
			c-2.284-0.713-3.452-3.932-2.046-5.22c2.303-2.107,4.257-2.064,6.124,0.197c1.361,1.649,3.039,2.121,4.806,2.518
			c1.547,0.348,2.64,1.049,3.222,2.465c0.454,1.106,0.747,2.278,1.14,3.412c0.81,2.338,1.29,4.786,3.365,6.549
			c1.755,1.492,3.741,2.718,5.182,4.614c0.705,0.928,1.924,0.777,2.66-0.175c0.69-0.893,1.248-1.883,1.289-3.126
			c0.061-1.77,0.594-3.507,0.402-5.305c-0.04-0.38,0.004-0.661,0.515-0.932c1.922-1.019,2.99-5.043,1.973-7.007
			c-1.057-2.039-1.054-2.137,1.129-2.076c1.765,0.048,2.571-1.13,2.9-2.389c0.335-1.275-0.64-2.198-1.864-2.786
			c-1.211-0.583-2.457-0.65-3.754-0.713c-0.718-0.035-2.11,0.344-1.066-1.474c0.769-1.34-0.535-2.226-1.799-2.622
			c-0.5-0.157-1.041-0.156-1.579-0.317c-3.396-1.015-6.658-0.822-9.602,1.398c-0.393-0.979-0.514-2.628-1.753-2.495
			c-1.539,0.164-2.225,1.612-2.162,3.23c0.017,0.415,0.003,0.831,0.003,1.247c0,0.832-0.028,1.664,0.009,2.494
			c0.026,0.593-0.053,1.217-0.622,1.378c-0.365,0.104-1.015-0.123-1.271-0.426c-1.635-1.929-3.825-2.563-6.194-2.783
			c-0.765-0.07-0.776-0.59-0.625-1.002c0.647-1.762,1.616-3.379,2.767-4.838c0.727-0.921,1.955-0.256,2.947-0.399
			c0.407-0.059,0.895,0.12,1.235-0.041c3.047-1.44,6.069-0.442,9.109-0.009c1.353,0.192,2.585-0.037,3.193-1.532
			c0.282-0.692,0.646-1.326,1.485-1.538c2.375-0.602,2.629-2.385,2.553-4.454c-0.036-0.971-0.397-1.667-1.204-1.939
			c-0.882-0.297-1.429,0.457-1.709,1.15c-0.506,1.251-1.638,2.147-2.651,1.9c-1.301-0.316-1.785,0.678-2.728,0.896
			c-0.248-1.775,0.158-3.727-1.396-5.138c-1.144-1.039-0.552-1.352,0.604-1.357c1.862-0.009,2.48-1.062,2.402-2.756
			c-0.028-0.622,0.172-1.314-0.037-1.859c-0.85-2.221-0.276-3.806,1.832-4.909c0.478-0.25,0.872-0.749,0.667-1.386
			c-0.219-0.686-0.965-1.032-1.453-0.963c-1.894,0.268-3.763,0.506-4.896,2.549c-1.222,2.205-1.514,4.809-3.168,6.819
			c-0.609,0.741-0.681,1.731-0.129,2.69c0.178,0.309,0.223,0.955,0.024,1.178c-1.544,1.73-1.727,3.781-1.598,5.946
			c0.033,0.545-0.328,0.908-0.869,0.975c-0.394,0.048-0.815,0.126-1.159-0.229c-0.695-0.717-1.316-5.339-0.59-5.87
			c1.49-1.088,1.928-2.532,2.559-4.188c0.774-2.029,0.854-3.618-0.086-5.462c-0.549-1.074-0.967-1.911-2.507-1.75
			c-1.402,0.146-1.557,1.045-1.912,1.987c-0.315,0.837-0.405,1.784-1.426,2.244c-0.723,0.326-0.652,1.115-0.648,1.821
			c0.024,4.885-0.384,9.607-3.01,14.011c-1.004,1.682-2.502,2.732-3.593,4.227c-0.454,0.622-1.315,0.439-1.523-0.218
			c-0.678-2.133-2.522-3.714-2.34-6.312c0.247-3.518-3.359-5.989-6.399-4.71c-1.123,0.474-1.547,1.982-0.559,2.528
			c1.576,0.869,1.688,2.15,1.63,3.625c-0.021,0.553-0.029,1.077,0.461,1.502c1.811,1.573,2.34,3.815,3.086,5.95
			c0.191,0.548,0.426,1.193-0.012,1.524c-0.471,0.356-1.062,0.094-1.674-0.221c-2.313-1.19-3.419-3.98-6.548-4.292
			c-1.51-0.15-3.062-1.328-4.802-1.135c-1.659,0.183-2.119-0.606-2.174-2.109c-0.147-4.075-3.07-6.308-6.936-5.387
			C239.271,141.275,238.217,144.3,239.976,146.332z M304.988,80.195c-0.317,2.16-1.186,4.267-1.947,6.409
			c-0.496,1.395-0.162,3.468-2.744,2.964c-0.428-0.083-0.401,0.472-0.354,0.797c0.071,0.487,0.619,0.531,0.781,0.363
			c1.113-1.152,2.349-0.637,3.588-0.381c3.535,0.73,6.857,1.664,8.543,5.436c0.864,1.934,2.162,3.678,3.301,5.484
			c0.503,0.799,1.316,1.277,2.23,1.06c0.788-0.188,1.427-0.836,1.461-1.714c0.065-1.685,0.269-3.281,0.759-4.948
			c0.705-2.402,1.256-3.12,3.598-1.923c2.291,1.169,3.283,0.175,4.562-1.514c0.807-1.065,1.19-2.666,2.663-3.098
			c1.979-0.581,2.458-1.941,0.995-3.453c-0.973-1.006-1.342-2.148-1.327-3.49c0.016-1.385,0.107-2.78-0.023-4.153
			c-0.158-1.661-0.132-3.62-1.767-4.529c-1.665-0.926-3.048-2.243-4.739-3.075c-0.892-0.438-1.206-1.022-1.424-2.003
			c-0.425-1.909-0.32-3.808-0.359-5.717c-0.034-1.69-1.391-3.791-2.681-3.933c-2.07-0.229-2.926,1.36-3.489,2.863
			c-0.596,1.59-1.398,3.055-2.162,4.543c-0.877,1.708-3.172,1.826-4.076,0.157c-0.494-0.914-1.113-1.688-1.71-2.504
			c-0.872-1.192-2.5-1.35-3.302-0.117c-1.151,1.772-2.126,3.669-1.037,5.906c0.339,0.695,0.393,1.593,0.034,2.213
			c-0.953,1.65-0.405,3.222-0.055,4.84C304.55,77.796,304.745,78.927,304.988,80.195z M31.503,141.55
			c0.58,1.548,0.648,3.543,2.887,3.22c1.395-0.202,1.672-1.43,1.382-2.694c-0.517-2.25-1.967-2.018-3.632-1.09
			c0-0.687-0.029-1.173,0.006-1.653c0.075-1.049-0.396-1.761-1.392-1.964c-0.919-0.188-1.78-0.054-2.081,1.105
			c-0.167,0.642-0.539,0.698-1.261,0.588c-1.382-0.21-1.749,0.624-1.552,1.953c0.2,1.354,1.081,2.156,1.961,3.008
			c0.302,0.293,0.669,0.65,0.955,0.062c0.231-0.478,0.464-0.758,0.802-0.22c0.173,0.276,0.183,0.725-0.368,0.984
			c-0.742,0.35-1.15,1.133-1.714,1.683c-0.634,0.62-0.403,2.385-1.546,1.899c-1.041-0.443-0.354-1.931-0.375-2.963
			c-0.002-0.113,0.212-0.242,0.197-0.344c-0.176-1.135,0.139-2.451-1.104-3.211c-1.004-0.613-2.363-0.831-3.104-0.209
			c-1.016,0.854-0.917,2.342-0.368,3.602c0.374,0.858,0.803,1.676,0.413,2.663c-0.416-0.473-0.803-0.923-1.199-1.363
			c-0.736-0.819-1.511-1.497-2.61-0.541c-1.055,0.917-0.733,1.967-0.192,2.965c0.538,0.991,1.311,1.684,2.488,0.931
			c0.416-0.266,0.658-0.652,1.118-0.092c0.312,0.382,0.68,0.721,0.486,1.265c-0.196,0.547-0.702,0.349-1.06,0.324
			c-1.802-0.121-2.621,0.746-2.163,2.435c0.241,0.886-0.148,1.229-0.628,1.679c-1.352,1.267-0.382,2.353,0.356,3.344
			c0.465,0.625,1.107,1.524,2.083,0.849c1.249-0.864,1.394-2.086,0.703-3.412c-0.062-0.118-0.206-0.194-0.27-0.312
			c-0.277-0.511-0.427-0.901,0.292-1.302c0.729-0.408,1.045,0.043,1.28,0.453c0.326,0.566,0.416,1.264,0.708,1.856
			c0.826,1.674,0.221,3.862,1.22,5.202c1.055,1.413,2.967,2.262,4.626,3.122c0.968,0.502,1.851-0.317,2.672-0.897
			c0.239-0.169,0.669-0.111,1.008-0.091c3.298,0.207,5.711,2.552,7.955,4.335c2.081,1.654,4.044,3.131,6.525,3.967
			c1.5,0.505,4.512,5.464,4.077,6.977c-0.406,1.411,0.115,2.505,1.253,2.926c1.391,0.514,2.437-0.345,3.093-1.671
			c0.548-1.107,0.325-2.322,0.453-3.455c1.086,0.005,1.424,0.889,2.018,1.336c0.588,0.441,0.992,0.361,1.393,0.064
			c0.594-0.439,0.337-0.984-0.115-1.374c-0.617-0.533-1.25-1.301-0.751-1.921c0.54-0.671,1.764-0.948,2.527-0.68
			c1.06,0.373,1.394,0.137,1.529-0.812c0.193-1.357-0.841-0.905-1.498-0.975c-1.49-0.158-3.452,0.796-3.877-1.795
			c-0.08-0.486-0.726-0.792-1.364-0.71c-0.511,0.064-0.78-0.168-0.732-0.708c0.162-1.827-1.098-2.317-2.509-2.603
			c-1.673-0.338-1.94,1.141-2.244,2.108c-0.488,1.555-0.957,1.451-2.053,0.536c-0.504-0.42-1.073-0.807-1.575-1.259
			c-1.409-1.27-2.855-2.791-4.604-3.207c-1.772-0.422-2.694-1.357-3.361-2.735c-0.502-1.038-1.388-1.371-2.263-1.858
			c-0.328-0.183-1.255-0.225-0.833-0.867c0.782-1.191-0.163-2.577,0.651-3.771c0.361-0.53,0.123-1.331-0.513-1.837
			c-0.706-0.562-1.351-1.601-2.352-0.936c-0.741,0.492-1.629,0.981-2.046,2.531c0-1.443,0-2.274,0-3.104
			c0-1.377-0.197-2.839,2.002-1.504c0.84,0.509,1.915,0.092,2.462-0.907c0.573-1.046,0.946-2.173,0.172-3.254
			c-0.634-0.886-1.539-1.169-2.622-0.742c-0.331,0.13-0.906,0.733-1,0.255c-0.269-1.372-1.741-1.847-2.048-2.949
			C30.117,143.216,31.032,142.351,31.503,141.55z M59.925,143.021c1.624-0.706,2.198-1.946,2.063-3.209
			c-0.119-1.123-0.942-2.056-2.313-2.23c-0.421-0.055-0.935-0.383-1.167-0.74c-0.897-1.382-1.915-0.983-2.925-0.264
			c-0.72,0.514-0.974,0.332-1.62-0.286c-0.549-0.525-1.238-1.717-2.493-1.044c-1.152,0.617-2.413,0.35-3.483-0.057
			c-1.064-0.403-1.792,0.373-1.964,0.757c-0.338,0.757-0.264,1.774-0.125,2.646c0.128,0.803,0.09,1.227-0.724,1.672
			c-1.998,1.09-2.506,2.791-1.344,4.731c0.475,0.795,0.257,1.22-0.304,1.479c-1.476,0.68-1.211,2.036-0.882,2.968
			c0.416,1.178,0.655,2.301,0.77,3.536c0.169,1.805,1.97,2.667,3.528,1.726c0.78-0.472,1.277-0.355,1.771,0.25
			c0.99,1.211,2.775,2.189,1.407,4.176c-1.223,1.775,1.448,3.386,0.305,4.93c-0.933,1.26,0.13,1.757,0.5,2.481
			c0.327,0.64,1.29,0.485,1.649,0.233c0.739-0.518,1.065-1.433,0.593-2.332c-0.304-0.578-0.294-0.989,0.12-1.483
			c1.342-1.601,1.322-2.668-0.301-3.944c-0.706-0.555,0.257-0.772,0.001-1.132c0.95-0.438,1.069-1.345,1.437-2.199
			c0.393-0.912,1.128-1.83,2.452-1.729c0.939,0.071,2.127-0.321,2.184-1.124c0.176-2.477,2.464-3.726,3.059-6.034
			C62.709,144.507,62.571,143.438,59.925,143.021z M253.234,130.831c-0.788-1.577-2.683-2.325-2.437-4.493
			c0.099-0.875-0.668-1.456-1.634-1.471c-1.107-0.017-2.226-0.099-3.32,0.021c-1.331,0.145-2.114,1.137-1.855,2.345
			c0.21,0.977,0.676,2.149,1.795,2.593c2.344,0.928,3.039,3.501,3.556,5.183c0.738,2.406,1.874,3.586,3.898,4.585
			c1.546,0.763,2.415,0.184,3.22-1.006c0.866-1.279,1.649-2.627,2.621-3.822c1.276-1.569,1.315-4.565-0.071-6.115
			c-1.486-1.661-1.454-3.123,0.146-4.795c0.614-0.642,1.295-1.233,1.587-2.1c0.48-1.426-0.36-2.815-1.844-2.654
			c-1.637,0.177-3.38,0.302-4.84,1.16c-1.106,0.649-1.727,1.533-1.293,3.115C253.403,125.714,255.381,127.986,253.234,130.831z
			 M261.247,134.124c0,1.031-0.002,1.723,0.001,2.414c0.005,1.189,1.024,1.599,1.646,1.132c1.368-1.025,3.236-1.384,3.862-3.526
			c0.532-1.823,0.81-3.904,2.414-5.332c1.096-0.975,1.362-2.229,0.783-3.605c-0.434-1.031,0.066-1.597,0.934-2.019
			c0.664-0.324,1.367-0.599,1.967-1.018c1.47-1.026,1.468-2.865-0.053-3.808c-1.278-0.792-2.701-0.895-4.064-0.146
			c-1.23,0.676-0.958,1.795-0.885,2.943c0.083,1.316,0.667,3.084-1.872,2.93c-0.834-0.051-1.425,0.708-1.41,1.693
			c0.016,0.968-0.033,1.937,0.015,2.901c0.035,0.69-0.107,1.176-0.847,1.378C261.44,130.691,260.828,132.291,261.247,134.124z
			 M63.53,179.008c-0.341-0.911-0.094-1.287,0.292-1.636c0.829-0.749-0.117-1.606-0.348-1.664c-1.354-0.341-1.73,1.074-2.565,1.7
			c-0.673,0.504-0.775,1.202-0.038,1.715c1.173,0.816,0.468,1.087-0.309,1.471c-0.898,0.442-1.771,0.94-2.631,1.455
			c-0.82,0.491-0.961,1.287-0.832,2.16c0.138,0.926,0.907,0.759,1.535,0.997c1.417,0.538,2.135-0.504,3.024-1.109
			c2.891-1.968,5.959-3.751,8.543-6.068c2.071-1.858,4.016-3.886,6.139-5.713c0.555-0.478,0.34-1.192,0.24-1.761
			c-0.132-0.75-0.81-0.792-1.473-0.793c-2.483-0.005-4.3,1.82-5.816,3.12C67.249,174.632,65.211,176.629,63.53,179.008z
			 M10.934,156.846c-0.007-2.241-1.109-3.317-3.375-3.293c-1.865,0.021-3.396,1.41-3.251,3.154c0.145,1.728,1.171,3.708,3.583,3.528
			C10.094,160.071,10.941,159.255,10.934,156.846z M58.865,171.016c1.37,0.015,2.731-1.604,2.801-3.203
			c0.056-1.273-0.361-2.132-1.772-2.199c-1.499-0.07-2.775,1.662-2.638,3.844C57.309,170.297,57.722,171.2,58.865,171.016z
			 M79.565,138.178c-1.312-0.21-1.712,0.682-1.645,1.661c0.079,1.153,0.564,2.455,1.915,2.397c0.944-0.04,1.904-0.905,1.75-2.114
			C81.449,139.035,81.065,137.963,79.565,138.178z"/>
		<path style="fill-rule:evenodd;clip-rule:evenodd;fill:#7B491E;" d="M117.724,97.698c0.478,2.356,2.539,3.025,3.573,4.577
			c3.067,4.604,7.743,7.302,12.536,9.78c1.365,0.707,2.645,1.569,3.969,2.341c2.475,1.442,5.133,1.825,7.874,2.179
			c2.454,0.316,4.886,0.835,7.311,1.344c1.437,0.301,2.954,1.079,4.26,1.01c4.84-0.259,8.981,2.127,13.479,3.089
			c1.083,0.231,2.151,0.755,3.099,1.348c1.369,0.857,2.133,2.129,1.755,3.838c-0.431,1.952-2.002,2.578-3.667,3.051
			c-0.321,0.091-0.7-0.041-1.033,0.027c-0.495,0.101-1.18-0.358-1.465,0.334c-0.302,0.735,0.364,1.101,0.785,1.53
			c2.252,2.296,4.532,4.564,6.752,6.891c1.764,1.849,1.523,6.31-0.176,8.193c-1.033,1.146-2.26,1.144-3.38,0.81
			c-1.511-0.45-3.129-0.613-4.485-1.695c-1.015-0.811-1.697-0.354-1.661,1.095c0.063,2.586,1.432,5.033,0.839,7.664
			c-0.355,1.579-0.303,3.525-1.99,4.333c-1.711,0.819-3.939,0.861-5.156-0.524c-2.459-2.803-6.046-3.859-8.686-6.235
			c-3.526-3.175-7.63-6.098-9.778-10.273c-1.925-3.741-3.936-7.529-5.464-11.498c-0.142-0.368-0.147-0.832-0.084-1.229
			c0.551-3.472-1.317-5.297-4.249-6.539c-0.715-0.303-1.423-0.975-1.796-1.661c-0.868-1.597-2.324-2.457-3.779-3.266
			c-3.677-2.042-6.439-5.136-9.491-7.913c-4.075-3.71-8.215-7.349-12.681-10.599c-0.622-0.453-1.098-1.057-1.373-1.952
			c-0.473-1.533-3.318-2.135-4.991-1.268c-1.529,0.793-2.983,1.108-4.057-0.684c-0.534-0.891-1.37-0.242-2.031-0.466
			c-1.685-0.572-3.406-0.884-5.198-0.828c-1.654,0.051-2.454-1.323-3.055-2.416c-0.511-0.931,0.51-1.918,1.333-2.521
			c1.576-1.156,3.237-2.23,5.318-2.105c0.798,0.047,1.39-0.249,1.739-0.87c2.869-5.116,5.636-10.291,8.582-15.361
			c1.315-2.263,3.39-4.018,4.56-6.429c0.524-1.081,1.515-1.94,2.006-3.031c2.637-5.859,7.001-10.361,11.575-14.647
			c1.363-1.277,2.661-2.708,4.27-3.717c3.422-2.146,4.334-6.325,7.29-8.891c1.256-1.091,2.521-2.165,3.83-3.191
			c1.138-0.892,2.561-1.444,3.077-3.038c0.22-0.678,0.848-1.296,1.762-1.127c3.106,0.575,5.476-1.688,8.323-2.179
			c1.06-0.183,1.985-0.638,2.764,0.349c0.838,1.062,0.396,1.929-0.409,2.894c-1.11,1.329-2.475,2.306-3.741,3.427
			c-2.713,2.402-5.15,5.153-7.454,7.964c-1.252,1.527-2.973,2.567-4.017,4.237c-0.249,0.398-0.872,0.942-0.466,1.41
			c0.441,0.508,0.918-0.037,1.415-0.295c3.498-1.822,7.094-3.463,10.535-5.384c2.213-1.235,4.376-2.464,6.719-3.499
			c2.434-1.075,4.62-2.901,7.001-4.277c0.814-0.47,1.102-0.408,1.673,0.164c1.537,1.54,1.595,3.665,0.138,5.201
			c-3.157,3.331-7.171,5.638-10.469,8.801c-0.783,0.751-1.691,1.373-2.316,1.873c0.292,1.049,0.748,1.01,0.993,0.909
			c2.136-0.882,4.254-1.05,6.539-0.455c1.186,0.309,1.34-0.947,1.297-1.8c-0.083-1.645,0.553-3.054,1.302-4.404
			c0.864-1.556,2.246-1.638,3.331-0.201c0.926,1.228,1.677,1.38,2.779,0.169c0.958-1.052,2.062-2.012,3.237-2.814
			c1.229-0.839,2.552-0.737,3.726,0.298c1.147,1.011,0.754,2.187,0.221,3.242c-0.695,1.374-1.487,2.722-2.412,3.949
			c-0.583,0.774-0.794,1.617-0.327,2.248c0.445,0.6,1.313,0.757,2.228,0.499c2.595-0.731,5.977,2.055,5.51,4.154
			c-0.107,0.481-0.074,1.026-0.555,1.244c-2.828,1.279-5.092,3.945-8.878,2.717c-2.65-0.86-4.842,0.56-6.075,3.11
			c-0.553,1.145-1.222,2.229-1.796,3.359c-0.691,1.361-1.868,2.27-3.712,2.214c-3.585-0.106-6.921-0.819-9.965-2.802
			c-0.448-0.292-1.49-0.377-1.774-0.086c-0.938,0.958-2.341,0.845-3.267,1.662c-0.359,0.317-1.171,0.272-0.999,1.089
			c0.184,0.873,0.906,0.531,1.338,0.48c2.153-0.251,3.08,0.983,3.651,2.781c0.637,2.007,0.207,3.329-1.778,4.296
			c-1.643,0.801-2.943,1.876-3.912,3.404c-0.239,0.377-0.809,0.589-0.349,1.199c0.46,0.609,0.911,0.069,1.248-0.042
			c2.252-0.741,4.25-2.02,6.233-3.273c2.983-1.886,6.387-2.751,9.553-4.185c1.652-0.749,3.269-1.576,4.907-2.355
			c2.995-1.426,6.18-2.162,9.446-2.617c1.858-0.259,3.483,1.583,3.062,3.436c-0.211,0.927-0.525,1.783-0.897,2.657
			c-0.279,0.657-1.639,1.321-0.672,2.033c0.864,0.637,2.194,0.994,3.317,0.478c5.493-2.526,11.412-3.365,17.271-4.419
			c1.311-0.236,2.641-0.087,3.929,0.716c2.437,1.521,2.615,3.096,0.256,4.635c-2.547,1.663-5.435,2.531-8.327,3.323
			c-2.615,0.716-5.077,1.764-7.505,3.252c0.707,0.031,1.417,0.126,2.12,0.084c7.009-0.414,13.904,0.571,20.79,1.676
			c1.87,0.3,2.657,1.734,1.838,3.664c-0.6,1.412-1.488,2.458-3.061,3.253c-3.476,1.756-7.183,1.771-10.852,2.213
			c-0.617,0.074-1.41-0.086-1.612,0.611c-0.312,1.076,0.846,0.511,1.253,0.88c0.665,0.604,1.594,0.717,2.511,0.604
			c1.78-0.221,3.166,0.457,4.514,1.625c1.081,0.938,1.91,1.956,1.529,3.3c-0.444,1.566-2.05,1.891-3.43,2.1
			c-1.287,0.195-2.626,0.034-3.943,0.051c-0.31,0.004-0.734-0.128-0.832,0.358c-0.085,0.426-0.056,0.757,0.495,0.936
			c2.19,0.711,3.399,2.63,4.955,4.123c1.069,1.025,1.5,2.347,1.096,3.689c-0.386,1.285-1.478,1.939-2.912,1.693
			c-0.754-0.13-0.998,0.823-1.597,0.793c-1.517-0.075-2.972,0.257-4.521-0.707c-4.944-3.077-10.2-5.592-15.705-7.532
			c-2.673-0.942-4.489-3.137-6.839-4.566c-1.715-1.043-3.559-1.1-5.331-1.613c-0.517-0.149-1.314,0.324-1.434,1.119
			c-0.087,0.577,0.061,0.948,0.692,1.354c1.535,0.986,3.314,1.349,4.888,2.214c1.864,1.025,2.946,2.768,4.073,4.394
			c2.251,3.244,4.97,5.969,8.192,8.202c0.706,0.49,1.289,1.177,1.351,1.849c0.1,1.083,0.591,2.405-0.605,3.27
			c-1.093,0.79-2.233,0.458-3.262-0.13c-3.42-1.955-6.764-4.049-10.229-5.921c-2.505-1.354-4.768-3.322-7.325-4.271
			c-3.088-1.146-5.8-3.159-9.191-3.674c-3.004-0.455-5.393-2.823-8.568-3.159c-3.739-0.396-7.235-2.022-10.991-2.433
			c-1.549-0.169-2.231-1.895-3.818-2.102C123.016,99.54,120.508,98.487,117.724,97.698z M144.701,54.312
			c-0.333-0.365-0.458-0.774-1.067-1.039c-1.763-0.767-2.945,0.409-4.333,0.903c-3.394,1.209-6.833,2.461-8.944,5.602
			c-1.219,1.814-3.079,2.48-4.722,3.61c-1.61,1.108-3.674,1.112-5.094,2.424c-2.354,2.177-4.29,4.903-7.714,5.622
			c-0.226,0.047-0.438,0.346-0.582,0.575c-2.974,4.744-7.215,8.581-9.753,13.619c-0.265,0.525-1.359,0.994-0.705,1.654
			c0.579,0.584,1.438,0.645,2.444,0.358c1.209-0.344,1.983-0.802,2.632-1.904c0.94-1.597,2.838-2.516,3.277-4.528
			c0.096-0.44,0.781-0.266,1.052-0.47c0.566-0.426,1.315-0.238,1.846-0.786c2.051-2.122,4.31-4.062,6.198-6.316
			c1.464-1.748,3.218-3.23,5.049-4.284c2.449-1.409,4.446-3.222,6.151-5.284c1.465-1.772,3.137-3.21,5.02-4.346
			c2.437-1.471,5.068-2.623,7.643-3.858C143.84,55.507,144.539,55.201,144.701,54.312z"/>
		<path style="fill-rule:evenodd;clip-rule:evenodd;fill:#7B491E;" d="M356.457,72.104c1.496-0.384,2.426-0.938,3.265-1.806
			c1.511-1.565,4.321-1.533,5.918-0.08c1.107,1.008,1.1,2.865-0.145,3.772c-1.732,1.263-3.402,2.633-5.403,3.501
			c-0.646,0.28-1.422,0.567-1.271,1.65c2.811-0.221,5.611,0.053,8.14,1.523c1.439,0.837,1.627,2.83,0.382,3.832
			c-2.342,1.885-5.005,2.401-7.982,1.95c-1.945-0.294-3.621-1.34-5.604-1.556c-2.322-0.253-3.861,0.394-4.808,2.572
			c-0.369,0.849-0.716,1.733-1.388,2.46c-1.013,1.096-2.449,1.397-3.235,0.428c-1.436-1.77-3.537-1.617-5.273-2.425
			c-2.327-1.084-2.749-1.813-1.599-4.095c1.436-2.848,1.42-2.827-1.169-4.744c-0.451-0.334-0.908-0.722-1.332-1.106
			c-0.98-0.89-0.82-1.752-0.544-2.804c0.312-1.189,1.259-1.41,2.188-1.424c1.508-0.023,2.979-0.218,4.468-0.4
			c0.753-0.092,1.149-0.662,1.056-0.963c-0.571-1.84-0.369-3.896-2.209-5.377c-1.939-1.561-3.739-2.501-6.263-1.654
			c-0.872,0.293-1.932-0.033-2.893,0.062c-3.243,0.318-3.558-0.951-4.548-3.539c-0.222-0.581-0.113-1.125,0.316-1.712
			c1.013-1.383,2.067-2.657,3.559-3.583c1.426-0.884,1.474-2.321,0.023-3.115c-3.179-1.741-3.978-4.432-3.605-7.778
			c0.083-0.75,0.193-1.154,1.045-1.086c1.279,0.103,2.601-0.234,3.808,0.517c1.314,0.818,1.902-0.056,2.225-1.131
			c1.06-3.54,4.678-5.878,8.127-5.194c1.271,0.252,3.024,2.731,3.112,4.426c0.028,0.552-0.14,1.166,0.048,1.648
			c0.254,0.652,0.637,1.413,1.193,1.75c0.81,0.492,0.855-0.603,1.248-0.971c1.061-0.993,2.011-2.108,3.106-3.059
			c1.391-1.208,2.913-2.113,4.795-0.892c0.508,0.33,1.148,0.396,1.191-0.319c0.093-1.524,1.201-2.218,2.299-2.426
			c1.492-0.282,3.161-0.63,4.598,0.268c1.486,0.928,2.476,0.855,3.06-0.971c0.426-1.33,1.251-2.335,2.544-3.015
			c0.795-0.417,1.427-1.063,1.786-2.036c0.844-2.282,2.336-4.229,3.681-6.227c2.923-4.344,3.539-9.736,6.585-14.048
			c1.182-1.671,1.223-3.933,0.721-5.925c-0.283-1.127,0.016-1.429,0.904-1.45c2.284-0.055,4.571-0.021,6.857-0.016
			c0.766,0.001,0.938,0.491,1.164,1.156c1.038,3.039,1.576,6.207,2.737,9.237c0.911,2.379,0.094,5.21-1.281,7.213
			c-3.059,4.458-4.829,9.359-6.343,14.451c-0.814,2.736-1.996,5.362-2.964,8.055c-0.492,1.369-0.736,2.767-0.536,4.264
			c0.164,1.222-0.267,2.15-1.296,3.155c-1.354,1.322-2.666,2.743-3.993,4.122c-0.818,0.85-1.709,1.436-3.074,0.947
			c-0.912-0.326-1.566,0.144-1.607,1.327c-0.076,2.167-1.314,3.661-3.167,4.623c-2.137,1.109-5.126-0.114-5.84-2.696
			c-0.458-1.652-0.867-1.113-1.792-0.579c-1.783,1.03-3.559,1.975-5.054,3.5c-0.871,0.889-2.342,1.354-3.624,1.637
			c-2.089,0.458-3.079,1.934-3.561,3.677c-0.418,1.515-1.151,2.857-1.741,4.291c2.866,0.44,2.867,0.44,3.592-3.751
			c0.081-0.466-0.039-1.098,0.225-1.375c0.697-0.731,0.952-2.044,2.454-1.827c1.902,0.274,2.157,1.863,2.689,3.192
			C356.634,70.678,356.457,71.363,356.457,72.104z M360.967,53.643c-0.822-1.462-1.322-2.865-1.221-4.508
			c0.083-1.336-1.158-1.825-2.187-1.966c-1.206-0.166-0.959,0.944-1.134,1.727c-0.185,0.825-0.479,1.762-1.046,2.332
			c-0.856,0.861-0.098,1.425,0.323,1.493C357.405,52.995,358.946,54.139,360.967,53.643z M364.854,56.303
			c-0.169-0.182-0.274-0.393-0.403-0.409c-0.146-0.018-0.415,0.113-0.448,0.229c-0.072,0.257,0.019,0.54,0.371,0.502
			C364.519,56.611,364.649,56.446,364.854,56.303z"/>
		<path style="fill-rule:evenodd;clip-rule:evenodd;fill:#7B491E;" d="M239.976,146.332c-1.759-2.032-0.704-5.057,1.841-5.663
			c3.865-0.921,6.788,1.312,6.936,5.387c0.055,1.503,0.515,2.292,2.174,2.109c1.74-0.193,3.292,0.984,4.802,1.135
			c3.129,0.312,4.234,3.102,6.548,4.292c0.611,0.314,1.203,0.577,1.674,0.221c0.438-0.331,0.203-0.977,0.012-1.524
			c-0.746-2.135-1.275-4.377-3.086-5.95c-0.49-0.425-0.482-0.949-0.461-1.502c0.059-1.475-0.054-2.756-1.63-3.625
			c-0.988-0.546-0.564-2.055,0.559-2.528c3.04-1.279,6.646,1.192,6.399,4.71c-0.183,2.599,1.662,4.18,2.34,6.312
			c0.208,0.657,1.069,0.84,1.523,0.218c1.091-1.494,2.589-2.545,3.593-4.227c2.626-4.403,3.034-9.126,3.01-14.011
			c-0.004-0.706-0.074-1.495,0.648-1.821c1.021-0.46,1.11-1.407,1.426-2.244c0.355-0.942,0.51-1.842,1.912-1.987
			c1.54-0.161,1.958,0.676,2.507,1.75c0.94,1.844,0.86,3.433,0.086,5.462c-0.631,1.655-1.068,3.1-2.559,4.188
			c-0.727,0.531-0.105,5.153,0.59,5.87c0.344,0.354,0.766,0.276,1.159,0.229c0.541-0.066,0.902-0.43,0.869-0.975
			c-0.129-2.165,0.054-4.216,1.598-5.946c0.198-0.223,0.153-0.869-0.024-1.178c-0.552-0.959-0.48-1.949,0.129-2.69
			c1.654-2.011,1.946-4.614,3.168-6.819c1.133-2.043,3.002-2.281,4.896-2.549c0.488-0.069,1.234,0.277,1.453,0.963
			c0.205,0.637-0.189,1.136-0.667,1.386c-2.108,1.104-2.682,2.688-1.832,4.909c0.209,0.545,0.009,1.237,0.037,1.859
			c0.078,1.694-0.54,2.747-2.402,2.756c-1.155,0.006-1.747,0.318-0.604,1.357c1.554,1.411,1.147,3.362,1.396,5.138
			c0.942-0.218,1.427-1.212,2.728-0.896c1.014,0.247,2.146-0.649,2.651-1.9c0.28-0.693,0.827-1.447,1.709-1.15
			c0.807,0.272,1.168,0.969,1.204,1.939c0.076,2.069-0.178,3.853-2.553,4.454c-0.839,0.212-1.203,0.846-1.485,1.538
			c-0.608,1.495-1.841,1.725-3.193,1.532c-3.04-0.434-6.062-1.432-9.109,0.009c-0.341,0.161-0.828-0.018-1.235,0.041
			c-0.992,0.144-2.221-0.521-2.947,0.399c-1.15,1.459-2.119,3.076-2.767,4.838c-0.151,0.412-0.14,0.932,0.625,1.002
			c2.369,0.22,4.56,0.854,6.194,2.783c0.257,0.303,0.906,0.529,1.271,0.426c0.569-0.161,0.648-0.785,0.622-1.378
			c-0.037-0.83-0.009-1.662-0.009-2.494c0-0.416,0.014-0.832-0.003-1.247c-0.062-1.618,0.623-3.066,2.162-3.23
			c1.239-0.133,1.36,1.516,1.753,2.495c2.943-2.221,6.205-2.413,9.602-1.398c0.538,0.161,1.079,0.16,1.579,0.317
			c1.264,0.396,2.567,1.282,1.799,2.622c-1.044,1.817,0.349,1.438,1.066,1.474c1.297,0.062,2.543,0.13,3.754,0.713
			c1.225,0.588,2.199,1.511,1.864,2.786c-0.329,1.259-1.136,2.437-2.9,2.389c-2.183-0.061-2.186,0.037-1.129,2.076
			c1.018,1.964-0.051,5.988-1.973,7.007c-0.511,0.271-0.555,0.552-0.515,0.932c0.191,1.798-0.342,3.535-0.402,5.305
			c-0.041,1.243-0.599,2.233-1.289,3.126c-0.736,0.952-1.955,1.103-2.66,0.175c-1.44-1.896-3.427-3.122-5.182-4.614
			c-2.075-1.763-2.556-4.211-3.365-6.549c-0.393-1.134-0.686-2.306-1.14-3.412c-0.582-1.416-1.675-2.117-3.222-2.465
			c-1.767-0.396-3.444-0.868-4.806-2.518c-1.867-2.262-3.821-2.305-6.124-0.197c-1.406,1.288-0.238,4.507,2.046,5.22
			c5.638,1.759,7.641,6.155,8.158,11.385c0.213,2.15,1.356,2.755,2.878,2.73c3.396-0.054,5.462,1.592,6.748,4.515
			c0.28,0.635,0.841,1.278,0.032,2.026c-0.715,0.661-1.344,0.756-2.212,0.307c-1.188-0.615-2.431-1.098-3.746-1.451
			c-0.989-0.267-2.237-0.846-2.658,0.147c-0.54,1.274,0.213,2.306,1.716,2.881c2.356,0.902,4.894,1.497,6.843,3.273
			c1.812,1.651,3.939,3.106,3.405,6.099c-0.123,0.688-0.209,1.49-0.806,1.728c-0.649,0.258-1.361,0.042-2.095-0.424
			c-2.789-1.772-5.02-4.31-8.073-5.735c-0.841-0.393-1.497-0.44-2.275-0.265c-0.145,0.571,0.204,0.943,0.565,1.025
			c3.321,0.752,3.432,3.553,3.911,6.093c0.125,0.661,0.184,1.489-0.618,1.809c-0.892,0.355-1.672-0.067-2.11-0.84
			c-0.557-0.979-1.501-1.506-2.261-2.246c-0.86-0.838-1.577-0.753-2.494,0.023c-1.532,1.298-2.217,0.852-2.958-1.003
			c-1.162-2.908,0.562-5.227,1.174-7.8c-0.908-0.224-1.776-0.291-2.434,0.56c-1.777,2.297-4.593,3.882-4.914,7.18
			c-0.204,2.094-1.83,1.872-3.116,1.644c-1.392-0.248-1.58-1.435-1.34-2.722c0.615-3.296,3.222-5.082,5.384-7.209
			c1.024-1.008,2.173-1.842,3.477-2.452c1.455-0.681,0.675-1.927,0.412-2.709c-0.283-0.843-1.187-0.936-2.137-0.312
			c-1.798,1.181-2.737,2.922-3.479,4.803c-0.305,0.772-0.672,1.439-1.189,2.086c-0.759,0.945-1.778,0.812-2.654,0.596
			c-0.845-0.209-1.059-1.149-1.174-1.979c-0.408-2.942,1.75-4.723,3.238-6.706c1.467-1.955,3.434-3.438,5.896-4.159
			c1.68-0.492,2.052-2.039,2.051-3.495c-0.001-2.685-1.378-4.842-3.787-5.779c-2.188-0.852-3.495-1.822-2.974-4.432
			c-0.473,0.729-1.592,0.594-1.286,2.114c0.218,1.088-0.892,2.622-1.737,3.697c-1.066,1.354-1.645,2.496-1.539,4.423
			c0.154,2.832-0.536,5.749-2.288,8.178c-0.503,0.697-0.613,1.479-0.886,2.222c-0.44,1.196-1.067,2.142-2.262,2.735
			c-0.671,0.333-1.291,0.577-1.896,0.114c-0.638-0.488-0.561-1.171-0.213-1.848c0.4-0.783,0.229-1.643,0.172-2.448
			c-0.115-1.643,0.247-3.122,1.27-4.391c0.611-0.757,0.71-1.698,0.122-2.196c-0.624-0.528-1.175,0.367-1.668,0.818
			c-0.35,0.319-0.805,0.548-1.127,0.834c-0.978,0.871-2.038,1.604-0.872,3.376c1.099,1.671,0.926,3.715-0.549,5.425
			c-0.698,0.81-1.147,1.842-1.874,2.619c-0.887,0.952-2.066,1.469-3.276,0.604c-1.197-0.854-0.76-1.705,0.02-2.773
			c1.133-1.551,1.645-3.427,1.294-5.383c-0.141-0.783-0.596-1.472-0.016-2.29c0.208-0.293,0.016-0.678-0.502-0.904
			c-1.658-0.728-1.996-1.927-0.795-3.331c0.467-0.545,0.727-1.151,0.442-1.678c-0.437-0.808-1.062,0.076-1.573,0.032
			c-1.389-0.123-2.801,0.477-4.197-0.482c-0.82-0.564-0.907-1.134-0.776-1.844c0.147-0.792,0.7-1.239,1.563-1.379
			c3.364-0.542,6.467-1.914,9.631-3.093c1.252-0.467,2.447-0.811,3.92-0.396c2.729,0.769,5.187-0.196,6.005-3.795
			c0.094-0.415,0.128-0.872-0.281-1.124c-1.854-1.141-3.411-2.766-5.86-2.854c-2.027-0.072-3.896,0.385-5.802,0.882
			c-0.608,0.159-0.368,0.612-0.492,0.96c-0.519,1.462-1.399,2.202-3.046,1.548c-1.362-0.542-2.477-1.453-3.695-2.196
			c-2.896-1.769-5.079-4.261-7.524-6.491c-0.731-0.668-1.237-1.488-1.084-2.523C236.51,148.562,238.331,146.819,239.976,146.332z
			 M291.577,159.398c-0.011-0.311,0.146-0.712-0.314-0.814c-0.314-0.071-0.524,0.14-0.454,0.454
			c0.104,0.459,0.505,0.303,0.815,0.313c-0.268,0.937,0.636,0.898,1.06,1.201c0.946,0.676,2.037,1.626,1.28,2.633
			c-1.041,1.387-0.473,2.144,0.47,3.167c0.082-1.059,0.01-2.08,1.009-2.757c0.537-0.364,0.41-0.752-0.299-0.958
			c-0.346-0.101-0.667-0.482-0.629-0.97C294.688,159.42,293.26,159.244,291.577,159.398z M242.665,147.882
			c-0.547,1.021,0.012,1.941,0.787,2.467c1.357,0.918,2.156,1.988,2,3.666c-0.032,0.348-0.004,0.734,0.453,0.76
			c2.138,0.123,4.331-0.324,6.426,0.993C249.58,152.356,246.959,149.187,242.665,147.882z M253.115,155.571
			c0.878,0.196,1.541-0.402,2.291-0.587c0.274-0.068,0.932-0.104,0.798-0.695c-0.09-0.396-0.42-0.646-0.87-0.734
			C253.82,153.256,253.255,154.104,253.115,155.571z M242.058,146.547c0-0.899,0-1.637,0-2.346
			c-0.789,0.008-1.357,0.455-1.407,1.139C240.608,145.927,241.189,146.295,242.058,146.547z M297.493,153.185
			c-0.168-0.182-0.273-0.393-0.402-0.408c-0.146-0.018-0.415,0.112-0.448,0.229c-0.072,0.256,0.019,0.54,0.37,0.502
			C297.159,153.492,297.29,153.328,297.493,153.185z"/>
		<path style="fill-rule:evenodd;clip-rule:evenodd;fill:#7B491E;" d="M304.988,80.195c-0.243-1.268-0.438-2.398-0.682-3.518
			c-0.351-1.618-0.898-3.19,0.055-4.84c0.358-0.62,0.305-1.518-0.034-2.213c-1.089-2.237-0.114-4.134,1.037-5.906
			c0.802-1.233,2.43-1.075,3.302,0.117c0.597,0.816,1.216,1.591,1.71,2.504c0.904,1.668,3.199,1.551,4.076-0.157
			c0.764-1.488,1.566-2.953,2.162-4.543c0.563-1.503,1.419-3.092,3.489-2.863c1.29,0.142,2.646,2.243,2.681,3.933
			c0.039,1.909-0.065,3.808,0.359,5.717c0.218,0.981,0.532,1.565,1.424,2.003c1.691,0.832,3.074,2.149,4.739,3.075
			c1.635,0.909,1.608,2.868,1.767,4.529c0.131,1.373,0.039,2.768,0.023,4.153c-0.015,1.342,0.354,2.484,1.327,3.49
			c1.463,1.512,0.984,2.873-0.995,3.453c-1.473,0.432-1.856,2.033-2.663,3.098c-1.279,1.689-2.271,2.684-4.562,1.514
			c-2.342-1.196-2.893-0.479-3.598,1.923c-0.49,1.667-0.693,3.263-0.759,4.948c-0.034,0.878-0.673,1.527-1.461,1.714
			c-0.914,0.217-1.728-0.261-2.23-1.06c-1.139-1.806-2.437-3.55-3.301-5.484c-1.686-3.772-5.008-4.706-8.543-5.436
			c-1.239-0.256-2.475-0.771-3.588,0.381c-0.162,0.167-0.71,0.124-0.781-0.363c-0.047-0.325-0.073-0.88,0.354-0.797
			c2.582,0.503,2.248-1.57,2.744-2.964C303.803,84.462,304.671,82.354,304.988,80.195z"/>
		<path style="fill-rule:evenodd;clip-rule:evenodd;fill:#7B491E;" d="M31.503,141.55c-0.471,0.801-1.386,1.666-1.228,2.233
			c0.307,1.103,1.78,1.577,2.048,2.949c0.093,0.479,0.668-0.125,1-0.255c1.083-0.427,1.987-0.144,2.622,0.742
			c0.774,1.081,0.401,2.208-0.172,3.254c-0.547,0.999-1.622,1.416-2.462,0.907c-2.2-1.335-2.002,0.127-2.002,1.504
			c0,0.83,0,1.661,0,3.104c0.417-1.55,1.305-2.039,2.046-2.531c1.001-0.665,1.646,0.373,2.352,0.936
			c0.635,0.506,0.874,1.307,0.513,1.837c-0.814,1.194,0.131,2.58-0.651,3.771c-0.422,0.643,0.505,0.685,0.833,0.867
			c0.875,0.487,1.761,0.82,2.263,1.858c0.667,1.378,1.589,2.313,3.361,2.735c1.75,0.416,3.195,1.938,4.604,3.207
			c0.502,0.452,1.071,0.839,1.575,1.259c1.096,0.915,1.565,1.019,2.053-0.536c0.304-0.968,0.571-2.446,2.244-2.108
			c1.411,0.285,2.67,0.775,2.509,2.603c-0.048,0.54,0.222,0.772,0.732,0.708c0.638-0.082,1.285,0.224,1.364,0.71
			c0.426,2.591,2.387,1.637,3.877,1.795c0.657,0.069,1.691-0.383,1.498,0.975c-0.135,0.949-0.469,1.186-1.529,0.812
			c-0.763-0.269-1.988,0.009-2.527,0.68c-0.499,0.62,0.134,1.388,0.751,1.921c0.452,0.39,0.709,0.935,0.115,1.374
			c-0.4,0.297-0.804,0.377-1.393-0.064c-0.594-0.447-0.932-1.331-2.018-1.336c-0.128,1.133,0.095,2.348-0.453,3.455
			c-0.656,1.326-1.702,2.185-3.093,1.671c-1.138-0.421-1.659-1.515-1.253-2.926c0.436-1.513-2.577-6.472-4.077-6.977
			c-2.481-0.836-4.445-2.312-6.525-3.967c-2.243-1.783-4.656-4.128-7.955-4.335c-0.338-0.021-0.769-0.078-1.008,0.091
			c-0.821,0.58-1.704,1.399-2.672,0.897c-1.659-0.86-3.571-1.709-4.626-3.122c-1-1.34-0.394-3.528-1.22-5.202
			c-0.292-0.593-0.382-1.29-0.708-1.856c-0.235-0.41-0.551-0.861-1.28-0.453c-0.718,0.4-0.569,0.791-0.292,1.302
			c0.064,0.118,0.208,0.194,0.27,0.312c0.691,1.326,0.546,2.548-0.703,3.412c-0.975,0.676-1.618-0.224-2.083-0.849
			c-0.738-0.991-1.708-2.077-0.356-3.344c0.48-0.45,0.869-0.793,0.628-1.679c-0.458-1.688,0.361-2.556,2.163-2.435
			c0.357,0.024,0.864,0.223,1.06-0.324c0.194-0.544-0.173-0.883-0.486-1.265c-0.459-0.561-0.702-0.174-1.118,0.092
			c-1.178,0.753-1.95,0.061-2.488-0.931c-0.541-0.998-0.862-2.048,0.192-2.965c1.1-0.956,1.875-0.278,2.61,0.541
			c0.396,0.44,0.784,0.891,1.199,1.363c0.39-0.987-0.04-1.805-0.413-2.663c-0.549-1.26-0.647-2.748,0.368-3.602
			c0.741-0.622,2.1-0.404,3.104,0.209c1.242,0.76,0.928,2.076,1.104,3.211c0.016,0.102-0.199,0.23-0.197,0.344
			c0.021,1.032-0.667,2.52,0.375,2.963c1.143,0.485,0.912-1.279,1.546-1.899c0.564-0.55,0.973-1.333,1.714-1.683
			c0.55-0.26,0.541-0.708,0.368-0.984c-0.337-0.538-0.57-0.258-0.802,0.22c-0.286,0.588-0.653,0.23-0.955-0.062
			c-0.88-0.852-1.761-1.654-1.961-3.008c-0.197-1.329,0.17-2.163,1.552-1.953c0.722,0.11,1.094,0.054,1.261-0.588
			c0.301-1.159,1.162-1.293,2.081-1.105c0.997,0.203,1.467,0.915,1.392,1.964c-0.035,0.48-0.006,0.967-0.006,1.653
			c1.665-0.928,3.115-1.16,3.632,1.09c0.29,1.265,0.013,2.492-1.382,2.694C32.151,145.093,32.083,143.098,31.503,141.55z
			 M28.16,158.832c0.054-1.941-0.532-3.664-1.538-5.241C26.067,155.705,27.042,157.294,28.16,158.832z M26.49,149.807
			c-0.5,1.422,0.097,2.329,0.976,3.154C27.772,151.796,27.463,150.823,26.49,149.807z"/>
		<path style="fill-rule:evenodd;clip-rule:evenodd;fill:#7B491E;" d="M83.719,152.283c-0.836-0.005-1.19,0.394-1.286,1.244
			c-0.216,1.913-1.09,3.379-2.942,4.235c-0.676,0.312-1.174,1.012-1.75,1.538c-0.204,0.187-0.438,0.583-0.587,0.551
			c-2.181-0.46-4.233,1.2-6.34,0.514c-2.497-0.813-4.755,0.222-5.394,2.772c-0.032,0.131,0.014,0.283-0.021,0.413
			c-0.337,1.285-0.753,2.856-2.405,2.375c-1.291-0.376-1.865-1.713-1.374-3.24c0.162-0.504,0.099-1.107,0.029-1.652
			c-0.218-1.69,0.642-2.41,2.193-2.477c0.65-0.028,1.287-0.028,1.525-0.75c0.243-0.737-0.45-1.062-0.783-1.561
			c-1.51-2.261-2.468-4.599-1.046-7.318c0.264-0.504,0.139-1.209,0.203-1.82c0.049-0.47-0.051-1.211,0.199-1.362
			c1.21-0.732,1.169-1.904,1.289-3.037c0.154-1.463,0.365-2.749,2.227-3.139c0.82-0.172,1.061-1.341,1.409-2.146
			c0.441-1.021,1.417-1.678,2.274-1.483c1.041,0.237,1.723,1.253,1.328,2.528c-0.506,1.633-0.873,3.311-2.37,4.464
			c-0.614,0.472-0.922,1.136-0.271,2.069c0.718,1.028,1.602,1.184,2.612,1.025c0.854-0.133,1.514-0.592,1.294-1.679
			c-0.081-0.399-0.039-0.831-0.008-1.244c0.08-1.075-0.484-2.509,1.526-2.458c1.714,0.044,2.609,1.007,3.012,2.494
			c0.175,0.646,0.042,1.378,0.029,2.07c-0.015,0.855,0.384,1.236,1.246,1.284c1.068,0.06,0.801-0.687,0.83-1.255
			c0.024-0.483,0.01-0.97,0.01-1.454c0-0.8,0.63-0.977,1.201-1.193c0.667-0.253,0.678,0.3,0.908,0.697
			c0.981,1.695,3.099,2.879,2.446,5.299c-0.342,1.269-0.835,2.496-1.259,3.742L83.719,152.283z M81.371,152.33
			c0.161-1.49-1.011-1.175-1.743-1.417c-1.006-0.332-2.173-0.422-2.991-1.008c-0.708-0.508-1.216-0.257-1.502,0.079
			c-0.524,0.612,0.029,1.135,0.521,1.534C77.413,152.948,79.474,152.04,81.371,152.33z M72.913,156.122
			c-0.052-0.502-0.02-0.788-0.362-0.89c-1.001-0.298-1.655-1.123-2.508-1.632c-0.348-0.207-0.832-0.854-1.404-0.17
			c-0.498,0.595-0.392,1.059,0.1,1.602c0.443,0.489,1.2,0.798,1.218,1.564c0.021,0.927,0.72,0.817,1.135,0.653
			C71.78,156.977,72.375,156.469,72.913,156.122z"/>
		<path style="fill-rule:evenodd;clip-rule:evenodd;fill:#7B491E;" d="M59.925,143.021c2.646,0.418,2.784,1.486,2.195,3.776
			c-0.594,2.309-2.882,3.558-3.059,6.034c-0.057,0.803-1.245,1.195-2.184,1.124c-1.323-0.101-2.059,0.817-2.452,1.729
			c-0.368,0.854-0.487,1.761-1.437,2.199c0.256,0.359-0.707,0.577-0.001,1.132c1.623,1.276,1.643,2.344,0.301,3.944
			c-0.414,0.494-0.423,0.905-0.12,1.483c0.473,0.899,0.146,1.814-0.593,2.332c-0.359,0.252-1.322,0.406-1.649-0.233
			c-0.371-0.725-1.433-1.222-0.5-2.481c1.143-1.544-1.528-3.154-0.305-4.93c1.368-1.986-0.417-2.965-1.407-4.176
			c-0.494-0.605-0.991-0.722-1.771-0.25c-1.558,0.941-3.359,0.079-3.528-1.726c-0.115-1.235-0.354-2.358-0.77-3.536
			c-0.329-0.932-0.594-2.288,0.882-2.968c0.562-0.26,0.779-0.685,0.304-1.479c-1.163-1.94-0.654-3.642,1.344-4.731
			c0.814-0.445,0.852-0.869,0.724-1.672c-0.139-0.871-0.212-1.889,0.125-2.646c0.171-0.384,0.9-1.16,1.964-0.757
			c1.07,0.406,2.331,0.674,3.483,0.057c1.255-0.673,1.944,0.519,2.493,1.044c0.646,0.618,0.9,0.8,1.62,0.286
			c1.01-0.72,2.027-1.118,2.925,0.264c0.232,0.357,0.746,0.686,1.167,0.74c1.371,0.175,2.194,1.107,2.313,2.23
			C62.123,141.074,61.549,142.314,59.925,143.021z M59.886,143.672c-1.301-0.096-2.578-0.342-2.78-1.961
			c-0.074-0.585-0.383-0.713-0.822-0.602c-0.726,0.184-0.466,0.715-0.286,1.143c0.779,1.851,0.476,3.513-1.295,4.231
			c-1.979,0.804-1.762,3.052-3.807,4.032c2.026,0.257,3.323,0.036,3.884-1.534c0.309-0.866,0.903-0.964,1.597-0.821
			c1.931,0.396,2.59-0.76,2.754-2.322C59.213,145.04,59.664,144.456,59.886,143.672z M49.245,139.752
			c2.089,1.445,4.092,0.685,6.02,0.946c-0.256-0.705-0.155-1.415-0.641-1.956c-0.123-0.136-0.094-0.624-0.407-0.216
			C52.984,140.134,51.141,138.988,49.245,139.752z M46.734,147.188c1.461,0.467,1.834-0.55,2.738-1.516
			C48.08,145.784,47.393,146.285,46.734,147.188z"/>
		<path style="fill-rule:evenodd;clip-rule:evenodd;fill:#7B491E;" d="M83.672,152.33c1.769-0.189,2.784-1.449,3.69-2.749
			c1.413-2.027,3.432-1.027,5.084-0.881c1.308,0.116,1.805,1.562,1.701,3.046c-0.041,0.588-0.711,1.791,0.8,1.832l-0.052-0.053
			c-0.134,0.701-0.051,1.204,0.571,1.789c0.568,0.535,0.621,1.598-0.174,2.165c-0.631,0.451-1.127,0.21-1.825-0.436
			c-1.679-1.554-2.32-3.608-3.21-5.682c-1.357,1.261-1.028,3.227-2.363,4.271c-1.978-0.011-2.901,1.296-2.828,3.937
			c2.554-0.161,1.819-2.657,2.792-3.973c3.01,0.097,3.602,0.643,3.831,3.688c1.499-1.027,3.061-0.268,4.584-0.217
			c0.676,0.023,1.16,0.804,1.165,1.714c0.015,2.522-0.928,4.386-3.418,5.216c-0.507,0.169-0.769,0.067-0.597,0.861
			c0.514,2.386-0.291,3.518-2.573,4.184c-0.365,0.105-0.678,0.423-0.988,0.676c-0.602,0.489-1.012,1.434-2.055,0.713
			c-1.063-0.735-0.803-1.578-0.287-2.479c0.129-0.225,0.426-0.389,0.257-0.745c-1.492,0.245-2.922-0.533-4.564-0.581
			c0.151,0.341,0.182,0.604,0.313,0.674c0.877,0.459,1.917,0.906,1.177,2.123c-0.763,1.256-2.215,1.877-3.324,1.003
			c-0.857-0.675-1.312-0.646-2.04-0.219c-0.7,0.413-1.138,0.158-1.721-0.35c-0.709-0.618-0.338-1.195-0.013-1.553
			c2.112-2.324,1.058-4.459-0.207-6.673c-0.646-1.13-0.794-2.327,0.737-2.976c0.742-0.314,1.282-0.721,1.428-1.578
			c0.05-0.298,0.301-0.771,0.512-0.802c3.677-0.522,2.39-4.029,3.642-5.994L83.672,152.33z M93.104,162.236
			c-0.802-1.464-1.402-1.451-2.669-0.498c-1.308,0.983-3.398,1.612-4.8,0.757c-1.203-0.734-1.629-0.076-2.435,0.167
			c-0.442,0.134-0.778,0.159-0.746,0.718c0.046,0.805,0.663,0.558,1.078,0.555c1.12-0.009,2.42-0.443,3.305,0.175
			c1.026,0.717,1.589,0.376,2.172-0.302C90.088,162.554,91.504,162.274,93.104,162.236z M88.281,168.834
			c0.821-0.356,1.383-0.799,1.178-1.698c-0.03-0.133-0.49-0.312-0.662-0.244C87.796,167.288,88.47,168.129,88.281,168.834z"/>
		<path style="fill-rule:evenodd;clip-rule:evenodd;fill:#7B491E;" d="M253.234,130.831c2.146-2.845,0.169-5.117-0.471-7.454
			c-0.434-1.582,0.187-2.466,1.293-3.115c1.46-0.858,3.203-0.983,4.84-1.16c1.483-0.161,2.324,1.229,1.844,2.654
			c-0.292,0.866-0.973,1.458-1.587,2.1c-1.601,1.672-1.633,3.134-0.146,4.795c1.387,1.55,1.348,4.546,0.071,6.115
			c-0.972,1.195-1.755,2.543-2.621,3.822c-0.805,1.189-1.674,1.769-3.22,1.006c-2.024-0.999-3.16-2.179-3.898-4.585
			c-0.517-1.682-1.212-4.255-3.556-5.183c-1.119-0.443-1.585-1.616-1.795-2.593c-0.259-1.208,0.524-2.2,1.855-2.345
			c1.095-0.12,2.213-0.038,3.32-0.021c0.966,0.015,1.732,0.596,1.634,1.471C250.552,128.506,252.446,129.254,253.234,130.831z"/>
		<path style="fill-rule:evenodd;clip-rule:evenodd;fill:#7B491E;" d="M261.247,134.124c-0.419-1.833,0.193-3.433,2.49-4.062
			c0.739-0.202,0.882-0.688,0.847-1.378c-0.048-0.965,0.001-1.934-0.015-2.901c-0.015-0.985,0.576-1.744,1.41-1.693
			c2.539,0.154,1.955-1.613,1.872-2.93c-0.073-1.148-0.346-2.268,0.885-2.943c1.363-0.749,2.786-0.646,4.064,0.146
			c1.521,0.942,1.522,2.781,0.053,3.808c-0.6,0.419-1.303,0.693-1.967,1.018c-0.867,0.422-1.367,0.987-0.934,2.019
			c0.579,1.377,0.312,2.631-0.783,3.605c-1.604,1.428-1.882,3.509-2.414,5.332c-0.626,2.143-2.494,2.501-3.862,3.526
			c-0.621,0.467-1.641,0.058-1.646-1.132C261.245,135.847,261.247,135.155,261.247,134.124z"/>
		<path style="fill-rule:evenodd;clip-rule:evenodd;fill:#7B491E;" d="M63.53,179.008c1.681-2.379,3.719-4.376,5.761-6.126
			c1.516-1.3,3.333-3.125,5.816-3.12c0.663,0.001,1.341,0.043,1.473,0.793c0.1,0.568,0.315,1.283-0.24,1.761
			c-2.123,1.827-4.067,3.854-6.139,5.713c-2.584,2.317-5.652,4.101-8.543,6.068c-0.889,0.605-1.606,1.647-3.024,1.109
			c-0.627-0.238-1.397-0.071-1.535-0.997c-0.13-0.873,0.011-1.669,0.832-2.16c0.86-0.515,1.733-1.013,2.631-1.455
			c0.777-0.384,1.482-0.654,0.309-1.471c-0.737-0.513-0.635-1.211,0.038-1.715c0.834-0.626,1.211-2.041,2.565-1.7
			c0.231,0.058,1.177,0.915,0.348,1.664C63.436,177.721,63.188,178.097,63.53,179.008z"/>
		<path style="fill-rule:evenodd;clip-rule:evenodd;fill:#7B491E;" d="M10.934,156.846c0.007,2.409-0.84,3.226-3.042,3.39
			c-2.412,0.18-3.439-1.801-3.583-3.528c-0.146-1.744,1.386-3.134,3.251-3.154C9.825,153.528,10.927,154.604,10.934,156.846z"/>
		<path style="fill-rule:evenodd;clip-rule:evenodd;fill:#7B491E;" d="M94.948,153.578c-0.167-1.113,0.024-2.226,1.228-2.445
			c1.033-0.188,1.752,0.569,2.314,1.552c0.813,1.422,0.506,2.899,0.593,4.367c0.062,1.036-1.071,0.859-1.295,0.839
			c-0.976-0.094-1.574-0.996-1.342-1.823c0.436-1.562-0.367-2.104-1.549-2.542L94.948,153.578z"/>
		<path style="fill-rule:evenodd;clip-rule:evenodd;fill:#7B491E;" d="M58.865,171.016c-1.144,0.185-1.556-0.719-1.609-1.559
			c-0.137-2.182,1.14-3.914,2.638-3.844c1.411,0.067,1.828,0.926,1.772,2.199C61.597,169.412,60.235,171.03,58.865,171.016z"/>
		<path style="fill-rule:evenodd;clip-rule:evenodd;fill:#7B491E;" d="M79.565,138.178c1.5-0.215,1.883,0.857,2.021,1.944
			c0.153,1.209-0.807,2.074-1.75,2.114c-1.351,0.058-1.836-1.244-1.915-2.397C77.854,138.859,78.253,137.968,79.565,138.178z"/>
		<path style="fill-rule:evenodd;clip-rule:evenodd;fill:none;" d="M144.701,54.312c-0.163,0.889-0.861,1.195-1.602,1.551
			c-2.574,1.235-5.206,2.387-7.643,3.858c-1.883,1.136-3.555,2.574-5.02,4.346c-1.705,2.062-3.702,3.875-6.151,5.284
			c-1.831,1.054-3.585,2.537-5.049,4.284c-1.888,2.253-4.146,4.194-6.198,6.316c-0.53,0.548-1.279,0.36-1.846,0.786
			c-0.271,0.204-0.957,0.029-1.052,0.47c-0.439,2.013-2.337,2.932-3.277,4.528c-0.648,1.102-1.422,1.56-2.632,1.904
			c-1.007,0.287-1.866,0.226-2.444-0.358c-0.654-0.66,0.44-1.128,0.705-1.654c2.538-5.039,6.779-8.875,9.753-13.619
			c0.144-0.229,0.355-0.528,0.582-0.575c3.424-0.718,5.359-3.444,7.714-5.622c1.42-1.312,3.484-1.316,5.094-2.424
			c1.643-1.129,3.503-1.796,4.722-3.61c2.111-3.14,5.55-4.392,8.944-5.602c1.388-0.494,2.57-1.669,4.333-0.903
			C144.243,53.538,144.368,53.947,144.701,54.312z"/>
		<path style="fill-rule:evenodd;clip-rule:evenodd;fill:none;" d="M360.967,53.643c-2.021,0.496-3.562-0.648-5.264-0.923
			c-0.421-0.067-1.18-0.631-0.323-1.493c0.566-0.57,0.861-1.507,1.046-2.332c0.175-0.782-0.072-1.892,1.134-1.727
			c1.028,0.141,2.27,0.63,2.187,1.966C359.645,50.778,360.145,52.181,360.967,53.643z"/>
		<path style="fill-rule:evenodd;clip-rule:evenodd;fill:none;" d="M364.854,56.303c-0.204,0.143-0.335,0.308-0.48,0.323
			c-0.353,0.038-0.443-0.246-0.371-0.502c0.033-0.117,0.303-0.247,0.448-0.229C364.579,55.911,364.685,56.122,364.854,56.303z"/>
		<path style="fill-rule:evenodd;clip-rule:evenodd;fill:none;" d="M242.665,147.882c4.294,1.305,6.915,4.475,9.666,7.886
			c-2.095-1.317-4.288-0.87-6.426-0.993c-0.457-0.025-0.485-0.412-0.453-0.76c0.156-1.678-0.643-2.748-2-3.666
			C242.677,149.823,242.118,148.902,242.665,147.882z"/>
		<path style="fill-rule:evenodd;clip-rule:evenodd;fill:none;" d="M291.577,159.398c1.683-0.154,3.111,0.021,2.938,2.27
			c-0.038,0.487,0.283,0.869,0.629,0.97c0.709,0.206,0.836,0.594,0.299,0.958c-0.999,0.677-0.927,1.698-1.009,2.757
			c-0.942-1.023-1.511-1.78-0.47-3.167c0.757-1.007-0.334-1.957-1.28-2.633c-0.424-0.303-1.327-0.265-1.06-1.201L291.577,159.398z"
			/>
		<path style="fill-rule:evenodd;clip-rule:evenodd;fill:none;" d="M253.115,155.571c0.14-1.468,0.705-2.315,2.219-2.017
			c0.45,0.089,0.78,0.338,0.87,0.734c0.134,0.591-0.523,0.627-0.798,0.695C254.656,155.169,253.993,155.768,253.115,155.571z"/>
		<path style="fill-rule:evenodd;clip-rule:evenodd;fill:none;" d="M242.058,146.547c-0.868-0.252-1.449-0.62-1.407-1.207
			c0.05-0.684,0.618-1.131,1.407-1.139C242.058,144.91,242.058,145.647,242.058,146.547z"/>
		<path style="fill-rule:evenodd;clip-rule:evenodd;fill:none;" d="M291.624,159.352c-0.311-0.011-0.712,0.146-0.815-0.313
			c-0.07-0.314,0.14-0.525,0.454-0.454c0.46,0.103,0.304,0.504,0.314,0.814L291.624,159.352z"/>
		<path style="fill-rule:evenodd;clip-rule:evenodd;fill:none;" d="M297.493,153.185c-0.203,0.144-0.334,0.308-0.48,0.323
			c-0.352,0.038-0.442-0.246-0.37-0.502c0.033-0.117,0.303-0.247,0.448-0.229C297.22,152.792,297.325,153.003,297.493,153.185z"/>
		<path style="fill-rule:evenodd;clip-rule:evenodd;fill:none;" d="M28.16,158.832c-1.118-1.538-2.093-3.127-1.538-5.241
			C27.628,155.168,28.214,156.891,28.16,158.832z"/>
		<path style="fill-rule:evenodd;clip-rule:evenodd;fill:none;" d="M26.49,149.807c0.974,1.017,1.283,1.989,0.976,3.154
			C26.587,152.136,25.99,151.229,26.49,149.807z"/>
		<path style="fill-rule:evenodd;clip-rule:evenodd;fill:none;" d="M81.371,152.33c-1.897-0.29-3.958,0.618-5.715-0.812
			c-0.491-0.399-1.044-0.922-0.521-1.534c0.287-0.336,0.795-0.587,1.502-0.079c0.817,0.586,1.984,0.676,2.991,1.008
			C80.359,151.155,81.532,150.84,81.371,152.33z"/>
		<path style="fill-rule:evenodd;clip-rule:evenodd;fill:none;" d="M72.913,156.122c-0.538,0.347-1.133,0.854-1.822,1.128
			c-0.415,0.164-1.113,0.273-1.135-0.653c-0.018-0.767-0.774-1.075-1.218-1.564c-0.492-0.543-0.598-1.007-0.1-1.602
			c0.573-0.685,1.057-0.037,1.404,0.17c0.853,0.509,1.507,1.334,2.508,1.632C72.894,155.334,72.861,155.62,72.913,156.122z"/>
		<path style="fill-rule:evenodd;clip-rule:evenodd;fill:none;" d="M59.886,143.672c-0.222,0.784-0.673,1.368-0.756,2.166
			c-0.164,1.562-0.823,2.719-2.754,2.322c-0.693-0.143-1.288-0.045-1.597,0.821c-0.561,1.57-1.858,1.791-3.884,1.534
			c2.045-0.98,1.828-3.229,3.807-4.032c1.771-0.719,2.074-2.381,1.295-4.231c-0.18-0.428-0.44-0.959,0.286-1.143
			c0.438-0.111,0.748,0.017,0.822,0.602C57.309,143.33,58.585,143.576,59.886,143.672z"/>
		<path style="fill-rule:evenodd;clip-rule:evenodd;fill:none;" d="M49.245,139.752c1.896-0.764,3.739,0.382,4.972-1.226
			c0.313-0.408,0.285,0.08,0.407,0.216c0.485,0.541,0.384,1.251,0.641,1.956C53.337,140.437,51.334,141.197,49.245,139.752z"/>
		<path style="fill-rule:evenodd;clip-rule:evenodd;fill:none;" d="M46.734,147.188c0.659-0.902,1.346-1.403,2.738-1.516
			C48.568,146.638,48.195,147.654,46.734,147.188z"/>
		<path style="fill-rule:evenodd;clip-rule:evenodd;fill:none;" d="M93.104,162.236c-1.6,0.038-3.017,0.317-4.095,1.571
			c-0.583,0.678-1.146,1.019-2.172,0.302c-0.885-0.618-2.186-0.184-3.305-0.175c-0.416,0.003-1.032,0.25-1.078-0.555
			c-0.032-0.559,0.304-0.584,0.746-0.718c0.805-0.243,1.231-0.901,2.435-0.167c1.402,0.855,3.492,0.227,4.8-0.757
			C91.703,160.785,92.303,160.772,93.104,162.236z"/>
		<path style="fill-rule:evenodd;clip-rule:evenodd;fill:none;" d="M87.859,155.598c-0.973,1.315-0.238,3.812-2.792,3.973
			c-0.073-2.641,0.851-3.947,2.828-3.937C87.896,155.634,87.859,155.598,87.859,155.598z"/>
		<path style="fill-rule:evenodd;clip-rule:evenodd;fill:none;" d="M88.281,168.834c0.188-0.705-0.485-1.546,0.516-1.942
			c0.171-0.068,0.632,0.111,0.662,0.244C89.664,168.035,89.102,168.478,88.281,168.834z"/>
	</g>
</g>
</svg>
