<?xml version="1.0" encoding="iso-8859-1"?>
<!-- Generator: Adobe Illustrator 16.0.0, SVG Export Plug-In . SVG Version: 6.00 Build 0)  -->
<!DOCTYPE svg PUBLIC "-//W3C//DTD SVG 1.1//EN" "http://www.w3.org/Graphics/SVG/1.1/DTD/svg11.dtd">
<svg version="1.1" id="Layer_1" xmlns="http://www.w3.org/2000/svg" xmlns:xlink="http://www.w3.org/1999/xlink" x="0px" y="0px"
	 width="401.086px" height="168.591px" viewBox="0 0 401.086 168.591" style="enable-background:new 0 0 401.086 168.591;"
	 xml:space="preserve">
<g>
	<g>
		<path style="fill:none;" d="M200.543,168.048c-65.98,0-131.96-0.008-197.94,0.043c-1.716,0.001-2.104-0.386-2.103-2.103
			c0.053-54.462,0.053-108.924,0-163.387C0.498,0.886,0.887,0.5,2.603,0.5c131.96,0.047,263.921,0.047,395.881,0
			c1.716,0,2.104,0.386,2.103,2.102c-0.053,54.462-0.053,108.925,0,163.387c0.001,1.717-0.387,2.104-2.103,2.103
			C332.503,168.041,266.524,168.048,200.543,168.048z M264.797,105.256c-0.225-1.95-0.08-2.321,1.504-5.104
			c0.545-0.958,1.342-2.411-0.108-2.899c-2.016-0.679-0.362-1.028-0.087-1.539c0.612-1.132,1.93-2.263,0.979-3.587
			c-1.032-1.44-0.727-2.692-0.054-3.966c0.398-0.754,0.47-1.505,0.245-2.186c-0.671-2.031-1.428-4.04-2.281-6
			c-0.185-0.423-0.236-1.321-1.138-1.165c-3.562,0.62-6.519-1.71-9.949-2.014c-3.382-0.3-6.731,0.08-8.815,2.396
			c-3.112,3.458-7.394,4.595-11.071,6.853c-4.124,2.532-9.152,3.282-13.163,6.292c-1.013,0.76-2.231,1.688-3.61,2.013
			c-2.543,0.598-5.734,0.149-6.166,4.005c-0.091,0.808-0.999,1.052-1.45,1.214c-0.854,0.309-1.547,0.846-2.345,1.209
			c-2.813,1.277-5.103,2.943-4.457,6.58c0.211,1.19-0.204,2.193-0.93,3.112c-1.458,1.85-0.875,3.774,1.351,4.489
			c1.558,0.499,2.02,2.215,0.672,3.173c-1.812,1.287-1.272,2.771-0.418,4.011c1.05,1.522,0.815,2.4-0.528,3.525
			c-1.794,1.501-1.321,3.274,0.899,3.925c0.345,0.101,0.701,0.162,1.053,0.241c-0.052,0.114-0.128,0.225-0.152,0.345
			c-0.355,1.717,0.267,3.57-0.993,5.188c-0.73,0.938-1.463,2.069-0.546,3.452c0.341,0.516-0.263,1.153-0.583,1.604
			c-1.397,1.964-0.729,5.987,1.388,7.096c1.717,0.898,1.186,1.971,0.148,2.609c-1.387,0.854-1.603,3.004-3.624,3.08
			c-0.344,0.013-0.423,0.539-0.491,0.938c-0.395,2.313,2.649,4.64,4.971,3.574c1.4-0.643,2.763-0.763,4.166-0.628
			c2.283,0.22,4.527,0.347,6.83,0.024c1.632-0.229,3.536-0.432,4.963,0.182c2.957,1.271,5.733,0.678,8.62,0.143
			c2.622-0.486,5.136-1.477,7.899-1.33c2.81,0.148,5.798,0.584,8.421-0.144c5.979-1.658,12.161-1.747,18.183-2.985
			c6.496-1.335,13.131-1.487,19.756-1.412c0.749,0.009,1.46,0.001,2.171-0.418c1.074-0.633,2.202-0.713,3.435-0.174
			c1.369,0.6,2.567,0.151,3.466-1.078c1.708-2.337,1.326-3.641-1.337-5.253c-0.851-0.516-0.74-1.669,0.098-1.999
			c2.718-1.073,0.539-2.549,0.204-3.563c-0.366-1.109-1.338-1.964-3.049-1.565c-2.607,0.606-5.411,1.521-7.98,0.566
			c-1.889-0.7-3.728-0.922-5.511-0.63c-3.617,0.593-7.289,0.547-10.891,1.186c-0.868,0.153-1.093-0.118-0.895-1.098
			c0.326-1.615,1.509-3.253,0.136-4.964c-0.222-0.277,0.171-0.695,0.464-0.953c1.312-1.159,1.614-2.857,2.205-4.363
			c1.179-3.005,0.844-3.422-2.395-3.694c-0.091-0.008-0.166-0.197-0.248-0.304c1.64-2.379,1.337-5.529,3.112-7.864
			c0.149-0.195,0.134-0.644,0.018-0.893c-1.117-2.402,0.624-4.555,0.606-6.905C267.478,105.194,267.225,104.608,264.797,105.256z
			 M361.506,123.158c2.468,0.426,5.027-0.254,7.531-0.574c2.016-0.259,4.22-0.49,6.174-1.591c1.417-0.799,1.708-2.043,1.698-3.249
			c-0.011-1.289-0.863-1.965-2.363-2.46c-2.627-0.867-4.911-0.692-7.168,0.651c-0.896,0.534-1.927,0.536-2.854,1.141
			c-0.98,0.639-1.998,0.369-2.029-1.443c-0.058-3.412,0.938-6.589,2.119-9.624c0.952-2.445,0.071-5.438,2.419-7.483
			c0.499-0.436,0.145-1.645-0.615-2.424c-1.07-1.1-2.177-2.176-2.981-3.544c-2.146-3.652-3.888-7.525-7.158-10.512
			c-1.146-1.047-2.708-1.661-3.544-3.156c-1.572-2.807-5.125-3.159-7.483-0.855c-1.071,1.046-2.3,1.839-3.569,2.626
			c-5.417,3.357-11.736,5.494-15.405,11.247c-3.571,1.256-2.971,4.678-3.403,7.285c-0.34,2.052-0.603,4.312-1.386,6.021
			c-1.443,3.149,0.815,5.598,0.679,8.404c-0.021,0.469,1.009,1.138,0.285,1.693c-0.487,0.374-1.129,0.646-2.048,0.371
			c-2.715-0.813-5.521-1.359-8.399-1.179c-2.548,0.159-4.78,2.139-4.824,4.264c-0.043,2.038,1.356,2.618,4.47,3.155
			c2.886,0.497,6.357-0.912,8.595,2.192c0.188,0.262,0.429,0.228,0.771,0.167c2.259-0.399,4.602,0.054,6.844-0.972
			c0.664-0.304,1.633-0.901,2.756-0.339c2.311,1.155,4.812,1.003,7.207,0.213c1.466-0.483,2.597-0.1,3.97,0.435
			c3.38,1.315,6.861,2.642,10.402,0.205c0.626-0.43,1.554-0.414,2.335-0.629C356.816,122.566,359.099,123.451,361.506,123.158z
			 M358.894,25.888c0.128,0.958,0.081,2.356,1.252,2.927c1.118,0.545,2.096-0.174,2.941-1.079c1.084-1.159,1.635-1.032,1.809,0.746
			c0.226,2.311,1.681,2.945,3.454,1.753c0.694-0.467,4.233-0.106,4.522,0.591c0.692,1.672,2.443,2.319,3.396,3.731
			c0.241,0.358,1.076,0.951,1.333,0.278c0.535-1.407,1.716-2.925,1.21-4.305c-0.466-1.273-2.062-2.64-3.447-2.412
			c-2.341,0.386-3.396-0.984-4.686-2.291c-0.362-0.367-0.862-1.01-1.184-0.945c-2.824,0.563-4.976-1.366-7.489-1.889
			C359.963,22.569,358.914,23.516,358.894,25.888z M39.202,70.562c1.387,1.575,2.197,1.664,3.136,0.581
			c1.139-1.313,2.422-2.588,1.99-4.465c-0.206-0.896-1.27-1.551-2.183-1.075c-1.04,0.542-2.244,0.683-3.177,1.515
			c-1.24,1.107,0.808,2.285-0.207,3.311c-1.077-0.79-2.749,0.298-3.666-1.205c-0.398-0.653-1.269-1.531-1.915-1.082
			c-0.757,0.526-0.858,1.731-0.472,2.702c0.296,0.746,0.697,1.471,1.164,2.124c0.829,1.16,1.884,1.743,3.399,1.253
			C38.747,73.745,39.955,73.176,39.202,70.562z M387.41,43.563c1.453,0.085,2.548-0.249,2.616-2.013
			c0.068-1.783-0.56-2.414-2.47-2.199c-1.103,0.124-1.856-0.968-2.14-2.199c-0.246-1.064-0.538-2.179-1.101-3.092
			c-0.736-1.192-1.783-1.539-2.988-0.364c-1.325,1.293-1.374,2.556-0.215,3.957c0.559,0.675,1.378,1.075,1.612,2.099
			C383.376,42.597,384.614,43.531,387.41,43.563z M244.001,39.166c0.562,1.722,2.047,3.231,3.476,4.745
			c0.357,0.378,0.933,0.01,1.39-0.367c1.943-1.602,2.506-4.291,0.899-6.21c-0.747-0.893-1.776-1.968-3.458-1.385
			C244.846,36.456,244.05,37.229,244.001,39.166z M287.045,19.24c0,0.948-0.18,1.766,0.04,2.457c0.36,1.135,0.741,2.614,2.516,1.736
			c1.105-0.548,2.147-1.23,3.194-1.89c0.586-0.369,0.987-1.062,0.919-1.639c-0.142-1.202-3.278-4.001-5.179-3.814
			C286.003,16.339,287.496,18.299,287.045,19.24z M182.243,44.991c0.231-0.535-0.23-0.969-0.661-1.404
			c-1.015-1.026-2.058-2.025-3.06-3.064c-0.88-0.913-1.777-1.198-2.822-0.266c-0.988,0.882-1.316,1.744-0.483,3.023
			c0.831,1.275,2.118,2.121,2.865,3.514c0.348,0.648,1.645,1.219,2.788,0.671C181.854,46.993,182.24,46.209,182.243,44.991z
			 M281.539,17.019c1.319,0.251,2.111-0.921,3.25-1.225c0.896-0.239,2.191-0.521,1.783-2.021c-0.331-1.217-1.023-2.147-2.227-2.717
			c-2.392-1.131-3.444,0.503-4.642,2.056c-0.564,0.731-1.243,1.189-0.562,2.312C279.741,16.412,280.282,17.163,281.539,17.019z
			 M77.862,68.958c0.419-2.587-1.539-3.506-3.156-4.228c-1.294-0.578-2.593-0.008-2.804,1.908c-0.236,2.133,0.274,3.674,2.482,4.24
			c0.758,0.195,1.017,1.755,2.113,0.825C77.349,70.979,78.31,70.229,77.862,68.958z M87.074,71.94
			c0.401,0.879,0.582,2.293,0.406,3.711c-0.15,1.205,0.624,1.818,1.383,2.39c0.657,0.495,1.027-0.407,1.365-0.674
			c0.756-0.599,1.666-1.691,1.181-2.528c-0.962-1.664-0.616-3.352-0.688-5.041c-0.028-0.665-0.149-1.272-0.794-1.459
			c-0.646-0.187-1.32-0.14-1.849,0.493C87.432,69.603,86.975,70.412,87.074,71.94z M54.535,122.283
			c1.482,0.099,2.909-0.16,2.729-2.203c-0.161-1.828-0.836-2.756-3.095-2.042c-1.13,0.357-3.014,1.179-4.116-0.725
			c-0.126-0.218-0.978-0.183-1.476,0.178c-0.586,0.423-0.069,0.766,0.014,1.127C49.016,120.462,51.888,122.258,54.535,122.283z
			 M290.093,44.021c-1.558-0.378-2.427,0.55-2.552,2.119c-0.125,1.57,2.561,4.87,3.812,4.705c1.853-0.244,2.204-1.954,2.394-3.345
			C294.007,45.598,292.257,44.026,290.093,44.021z M362.557,36.649c0-0.538-0.001-0.84,0-1.143c0.004-1.037,0.051-2.167-1.26-2.443
			c-1.324-0.279-2.114,0.462-2.515,1.687c-0.731,2.238-0.557,4.402,0.731,6.371c0.69,1.055,1.698,0.871,2.058-0.221
			C362.046,39.457,363.05,38.082,362.557,36.649z M152.493,47.776c0.267,1.071,0.566,2.456,2.241,2.628
			c1.555,0.16,3.282-1.562,2.999-3.124c-0.287-1.582-0.075-3.666-2.284-4.13C154.227,42.894,152.459,45.636,152.493,47.776z
			 M87.534,82.218c-0.221,1.126,0.263,2.039,0.619,2.888c0.692,1.65,1.809,1.802,3.234,0.608c1.073-0.898,1.467-2.01,1.089-3.194
			c-0.469-1.467-1.135-2.941-2.67-3.68c-0.205-0.098-0.756,0.035-0.803,0.175C88.618,80.175,86.893,80.733,87.534,82.218z
			 M164.018,41.282c-2.233-0.055-3.138,1.241-2.38,3.13c0.382,0.952,0.887,1.857,1.374,2.764c0.995,1.853,2.165,1.891,3.339,0.128
			c0.771-1.156-0.429-5.351-1.71-5.914C164.377,41.274,164.057,41.288,164.018,41.282z M382.237,47.49
			c-0.031,2.176,1.631,3.51,4.304,3.377c1.27-0.063,1.53-1.195,1.592-2.08c0.121-1.734-2.01-3.82-3.624-3.861
			C382.691,44.881,382.127,45.869,382.237,47.49z M183.323,49.327c0.306,1.41,0.146,3.193,2.198,3.337
			c1.296,0.092,3.188-2.901,3.061-4.919c-0.087-1.377-1.146-2.06-2.388-2.219C185.132,45.391,183.258,47.968,183.323,49.327z
			 M187.724,65.714c-0.193-1.085-0.981-1.62-2.324-1.569c-1.808,0.068-3.674,1.628-3.603,3.212c0.071,1.588,1.078,2.66,2.485,3.076
			C185.317,70.739,187.739,67.444,187.724,65.714z M16.914,124.994c1.674,0.303,2.848-0.421,3.267-1.978
			c0.479-1.779-0.806-2.267-2.235-2.611c-0.457-0.109-0.857-0.571-1.214-0.94c-0.366-0.377-0.985-0.586-1.198-0.323
			c-0.895,1.104-1.608,2.407-1.212,3.857C14.647,124.193,15.249,125.392,16.914,124.994z M158.489,65.475
			c-0.077-1.798-1.453-2.829-2.749-3.493c-1.136-0.582-1.905,0.773-2.479,1.669c-0.879,1.371,0.217,2.291,0.861,3.361
			c0.553,0.92,1.037,1.805,2.248,1.314C157.582,67.835,158.587,67.064,158.489,65.475z M38.719,119.379
			c-0.912,1.309-0.812,2.555-0.469,3.686c0.396,1.303,1.553,1.647,2.291,0.5c0.777-1.207,1.333-1.409,2.672-0.937
			c0.609,0.216,1.844-0.026,2.348-1.122c0.312-0.678,0.486-1.338,0.08-1.912c-0.565-0.797-1.645-0.357-2.278-0.621
			C41.568,118.226,40.75,122.251,38.719,119.379z M33.689,122.737c1.473-0.076,3.95-2.766,3.916-4.12
			c-0.03-1.207-0.793-1.855-1.74-1.118c-1.024,0.797-1.652,0.813-2.485-0.081c-0.259-0.278-0.855-0.324-1.027-0.035
			c-0.644,1.075-1.346,2.266-1.077,3.517C31.533,122.096,32.75,122.455,33.689,122.737z M277.496,17.514
			c-0.523-1.358-0.431-3.201-2.168-3.726c-1.17-0.354-2.49-0.229-3.439,0.935c-0.656,0.804-0.668,1.801,0.151,2.027
			c1.253,0.346,1.564,1.468,2.407,2.108c0.583,0.443,1.021,1.286,1.899,0.766C277.079,19.191,277.646,18.552,277.496,17.514z
			 M339.618,52.415c0.019,0,0.037,0,0.056,0c0-0.38-0.027-0.763,0.005-1.14c0.115-1.358-0.815-2.233-1.64-2.997
			c-0.4-0.371-1.166,0.352-1.722,0.695c-1.305,0.806-0.621,1.891-0.251,2.763c0.374,0.879,0.483,1.743,0.383,2.622
			c-0.142,1.24,0.771,1.714,1.566,1.83c0.795,0.115,1.424-0.687,1.574-1.503C339.725,53.952,339.618,53.173,339.618,52.415z
			 M34.377,79.729c0.162,1.39,0.739,2.667,1.443,3.85c0.396,0.666,1.023,1.499,2.008,1.109c0.852-0.338,0.748-1.224,0.695-1.978
			c-0.053-0.767,0.296-1.449,0.403-2.158c0.229-1.516-0.614-2.853-2.054-2.888C36.044,77.642,34.093,77.687,34.377,79.729z
			 M357.033,27.349c0.125-1.5-0.601-2.729-1.414-2.408c-1.355,0.535-2.735,1.448-3.37,3.04c-0.51,1.274-0.072,2.287,0.568,3.325
			c0.659,1.068,1.719,0.89,2.179,0.198C355.908,30.134,356.474,28.534,357.033,27.349z M90.703,94.377c0-2.38-0.013-2.35-1.1-2.833
			c-0.847-0.376-1.572-0.01-2.167,0.423c-0.972,0.709-1.212,4.235-0.467,5.277c0.845,1.181,1.567,1.518,2.798,0.22
			C90.702,96.479,90.71,95.499,90.703,94.377z M88.416,55.099c0,0.777-0.001,1.458,0,2.138c0.003,1.062,0.599,1.664,1.575,1.87
			c1.003,0.212,1.319-0.515,1.834-1.23c0.838-1.166,0.003-1.992-0.155-2.995c-0.226-1.424,0.163-3.534-1.827-3.394
			C87.833,51.629,88.537,53.787,88.416,55.099z M293.906,37.391c0.014-2.503-0.926-3.892-2.632-3.875
			c-1.404,0.014-2.21,0.933-2.37,2.235c-0.175,1.417,1.95,3.609,3.33,3.704C294.004,39.576,293.971,38.428,293.906,37.391z
			 M245.486,26.529c0.124,2,1.478,2.397,2.915,2.894c1.127,0.389,2.094,0.352,2.701-0.573c0.595-0.906,0.655-1.975-0.15-2.973
			c-0.651-0.806-1.284-1.386-2.354-0.834c-0.428,0.221-0.823,0.303-1.267,0.057C245.25,23.945,246.166,26.307,245.486,26.529z
			 M342.336,31.116c-1.415,0.456-2.03,1.641-2.187,3.083c-0.183,1.679,0.748,2.792,2.226,3.352c0.661,0.25,2.983-2.275,2.704-3.072
			C344.617,33.157,344.278,31.569,342.336,31.116z M56.31,54.575c-1.85,0.06-4.734,1.555-4.424,2.326
			c0.491,1.219,0.823,2.879,2.535,2.963c1.6,0.079,3.881-2.101,3.727-3.452C58.033,55.413,57.307,54.766,56.31,54.575z
			 M264.675,16.43c-0.697,0.83-2.512,1.339-2.301,3.113c0.272,2.279,2.559,1.482,3.873,1.94c1.564,0.545,1.995-1.517,1.878-2.301
			C267.9,17.671,266.876,16.35,264.675,16.43z M35.17,91.163c-1.271-0.052-2.496,0.663-2.563,1.343
			c-0.067,0.669,2.153,3.594,2.792,3.679c0.829,0.11,3.181-2.211,3.114-3.179C38.337,90.474,36.821,90.417,35.17,91.163z
			 M146.574,45.363c-2.061,0.022-2.986,0.742-2.737,2.215c0.255,1.506,0.323,3.729,2.368,3.613c1.727-0.097,2.412-2.148,2.53-3.698
			C148.857,45.894,147.511,45.312,146.574,45.363z M244.338,51.095c0.458,0.894,0.248,2.274,1.696,2.503
			c1.255,0.199,1.699-0.641,2.174-1.745c0.789-1.838-0.346-3.062-0.972-4.477c-0.215-0.487-0.249-1.269-1.009-1.177
			c-0.953,0.114-1.361,0.741-1.309,1.744C244.974,48.973,245.128,50.045,244.338,51.095z M249.056,58.44
			c0-1.707-1.093-3.062-2.641-2.937c-1.501,0.122-2.427,1.035-2.398,2.683c0.021,1.187,1.792,2.802,3.159,2.754
			C248.778,60.883,249.144,59.812,249.056,58.44z M253.164,23.671c-0.158,1.256,0.627,1.95,1.88,1.502
			c1.078-0.385,1.856-0.618,3.005-0.057c0.719,0.351,1.571-0.66,1.481-1.513c-0.152-1.438-0.726-2.79-2.483-2.9
			C255.797,20.625,253.237,22.544,253.164,23.671z M293.904,25.623c-0.015-0.809,0.254-1.875-0.78-2.117
			c-0.979-0.228-2.06,0.226-2.344,1.256c-0.206,0.748-0.465,0.831-1.129,0.997c-1.541,0.384-0.678,1.72-0.714,2.596
			c-0.039,0.942,0.946,1.264,1.711,1.222C291.929,29.506,293.917,26.964,293.904,25.623z M335.59,40.083
			c-0.367,1.465,0.814,2.49,1.068,3.795c0.135,0.691,0.945,0.563,1.552,0.614c0.816,0.067,0.824-0.426,1.102-1.012
			c0.34-0.72,0.376-1.451,0.49-2.156c0.262-1.628-1.153-3.27-2.778-3.194C335.929,38.182,335.292,38.873,335.59,40.083z
			 M191.562,51.127c0.46,1.151,0.143,2.903,2.097,2.957c1.026,0.028,2.965-1.878,2.682-2.866c-0.377-1.313-0.452-3.146-2.523-3.049
			C191.975,48.256,191.855,49.84,191.562,51.127z M38.994,110.154c0.029-0.653-0.027-1.721-1.113-2.012
			c-1.097-0.293-4.405,2.17-4.374,3.109c0.054,1.624,1.348,2.047,2.569,2.297C37.296,113.798,38.956,111.933,38.994,110.154z
			 M90.755,104.692c-0.21-1.677,0.077-3.873-1.992-4.222c-1.387-0.234-2.346,1.399-2.494,2.875
			c-0.135,1.344,2.021,3.333,3.315,3.389C91.451,106.813,90.387,105.385,90.755,104.692z M135.963,50.721
			c0.378,1.187,0.488,2.702,1.982,3.325c0.674,0.282,3.531-2.562,3.504-3.492c-0.059-1.977-1.896-1.631-2.978-1.862
			C137.348,48.451,136.081,48.956,135.963,50.721z M87.5,62.375c0.016,1.455,1.592,3.738,2.549,3.485
			c1.229-0.325,2.109-1.311,1.982-2.625c-0.151-1.567-0.637-3.401-2.445-3.537C88.335,59.604,87.392,60.84,87.5,62.375z
			 M50.434,62.728c-0.019-1.596-0.642-2.256-1.692-2.221c-1.825,0.06-3.446,1.495-3.333,3.045c0.105,1.449,1,2.559,2.396,2.361
			C49.666,65.65,50.055,63.878,50.434,62.728z M350.633,31.881c0.07-1.823,0.147-3.401-1.811-3.372
			c-1.672,0.026-2.346,1.492-2.69,2.868c-0.267,1.07,1.833,3.117,3.061,3C351.073,34.198,350.563,32.638,350.633,31.881z
			 M243.105,67.746c0.023,2.141,1.039,2.728,4.664,2.806c0.986,0.021,1.332-0.547,1.284-1.451c-0.055-1.051-2.839-3.063-4.161-3.13
			C243.47,65.898,242.936,66.52,243.105,67.746z M136.649,72.054c-0.444,0.395-1.41,0.358-1.468,1.104
			c-0.123,1.573-0.201,3.184,0.023,4.732c0.085,0.59,0.908,1.212,1.906,0.54c1.03-0.694,1.129-1.868,1.741-2.766
			C139.735,74.368,138.302,72.086,136.649,72.054z M65.148,51.805c-0.279-1.103-0.786-1.879-1.845-1.804
			c-1.431,0.102-2.863,0.468-3.21,2.161c-0.209,1.02,2.07,3.511,3.083,3.247C65.042,54.921,64.013,52.726,65.148,51.805z
			 M292.067,61.094c0.059-1.565-1.969-4.335-2.986-4.238c-1.252,0.12-1.416,1.26-1.539,2.134c-0.25,1.782,1.341,3.679,2.978,3.792
			C291.953,62.88,291.886,61.766,292.067,61.094z M155.694,97.08c0.07-2.568-1.808-2.511-2.649-2.539
			c-1.262-0.043-2.286,1.411-2.261,2.604c0.027,1.329,1.282,2.33,2.433,3.016C153.723,100.461,155.695,97.461,155.694,97.08z
			 M36.353,101.713c-1.232-0.197-2.118-0.132-1.99,1.642c0.135,1.874,1.115,3.029,2.727,3.291c1.583,0.257,1.863-1.251,1.864-2.443
			C38.955,102.609,38.34,101.407,36.353,101.713z M74.021,46.404c-0.931-0.898-0.144-2.89-1.901-2.751
			c-1.372,0.109-2.89,0.981-2.863,2.65c0.028,1.747,1.8,2.863,3.008,3.018C74.058,49.551,72.776,47.164,74.021,46.404z
			 M142.862,93.148c0.371-1.608-0.723-2.413-2.086-2.354c-1.123,0.049-2.418,0.995-2.358,2.212c0.069,1.412,1.098,2.966,2.518,3.033
			C142.176,96.099,143.054,94.786,142.862,93.148z M88.416,45.815c-0.052,1.018-0.136,2.306,0.812,3.354
			c0.405,0.448,0.805,0.978,1.518,0.772c0.672-0.194,0.714-0.779,0.914-1.379c0.668-2.012-1.021-3.343-1.321-5.065
			c-0.097-0.558-0.903-0.417-1.419-0.36c-0.68,0.077-0.468,0.647-0.497,1.053C88.391,44.644,88.416,45.1,88.416,45.815z
			 M162.087,97.73c0.403-1.407-0.678-2.495-1.768-2.29c-1.257,0.237-2.344,1.366-2.384,3.095c-0.032,1.377,0.396,2.276,1.746,2.188
			C161.292,100.617,162.217,99.612,162.087,97.73z M203.289,55.129c0.332-1.983-1.335-2.541-2.535-2.755
			c-1.201-0.214-2.029,1.28-1.918,2.291c0.163,1.487,1.183,2.596,2.948,2.638C203.443,57.341,203.311,56.215,203.289,55.129z
			 M276.027,29.362c-0.03,1.034,0.112,1.859,1.418,1.848c1.501-0.014,3.341-1.729,3.107-3.188c-0.137-0.854-0.475-2.029-1.817-1.834
			C276.923,26.45,276.224,27.716,276.027,29.362z M137.353,59.678c-0.326,1.41,0.978,2.897,2.029,2.794
			c1.057-0.103,1.611-1.961,1.688-3.433c0.088-1.681-1.174-2.552-2.256-2.508C137.465,56.585,137.41,58.156,137.353,59.678z
			 M133.282,91.711c-0.338,1.381,0.476,2.845,1.638,2.876c1.783,0.05,1.859-2.108,2.287-3.366c0.162-0.477-0.535-2.483-2.13-2.309
			C133.599,89.075,133.107,90.178,133.282,91.711z M27.049,122.937c-0.642-0.797,0.376-3.051-2.084-2.93
			c-1.907,0.094-1.791,1.928-1.875,2.966c-0.11,1.363,1.391,2.231,2.567,2.384C26.65,125.486,27.219,124.377,27.049,122.937z
			 M288.169,69.589c1.28,0.826-0.222,3.426,2.056,3.148c1.44-0.176,1.531-2.135,1.811-3.43c0.286-1.326-0.576-2.26-1.824-2.354
			C288.394,66.817,289.09,68.718,288.169,69.589z M292.956,82.688c0.63-2.072-1.095-2.096-2.335-2.287
			c-1.414-0.218-2.222,0.955-2.086,2.055c0.145,1.184,0.837,2.344,2.53,2.336C292.567,84.785,293.207,84.269,292.956,82.688z
			 M136.47,84.066c0.089-1.367-0.283-2.512-1.868-2.485c-2.139,0.038-1.297,2.059-1.7,3.123c-0.502,1.323,1.131,2.6,1.853,2.505
			C136.16,87.024,136.538,85.49,136.47,84.066z M139.264,68.794c-0.299-1.074,0.664-2.748-1.567-2.826
			c-1.373-0.048-1.995,0.725-1.86,1.829c0.179,1.471-0.174,3.623,2.208,3.621C139.845,71.416,138.972,69.75,139.264,68.794z
			 M91.613,37.57c-0.009-1.39,0.351-2.737-1.761-2.756c-1.536-0.013-1.463,0.742-1.453,1.794c0.015,1.455,0.132,3.003,1.834,3.229
			C92.072,40.082,91.49,38.442,91.613,37.57z M81.521,40.524c0.118-1.32-0.183-1.966-1.443-2.019
			c-1.684-0.07-2.149,1.103-2.116,2.28c0.031,1.062,0.333,2.697,1.661,2.684C81.5,43.452,80.952,41.396,81.521,40.524z M86.1,33.495
			c-1.34-0.094-2.572,0.491-2.594,1.757c-0.021,1.214,1.008,2.747,2.227,2.66c1.374-0.098,1.781-1.91,2.143-3.097
			C88.244,33.605,87.079,33.444,86.1,33.495z M169.878,40.195c-0.132,1.084,0.16,2.28,1.53,2.38c1.101,0.08,2.045-0.917,2.059-1.975
			c0.017-1.366-0.981-2.354-2.366-2.481C169.756,37.996,169.883,39.13,169.878,40.195z M149.292,94.829
			c0.256-1.628-1.379-1.546-2.219-1.72c-1.246-0.257-1.355,1.559-1.268,1.897c0.281,1.093,0.417,2.912,1.848,2.81
			C148.71,97.741,149.316,96.274,149.292,94.829z M246.286,32.551c1.45,0.526,0.629-1.125,1.241-1.489
			c-0.403-0.481-0.139-1.623-1.218-1.412c-0.969,0.189-1.44,0.803-1.409,1.912C244.928,32.569,245.405,32.663,246.286,32.551z
			 M211.49,93.75c0.145-0.927-0.119-1.295-0.952-1.228c-0.677,0.055-1.356,0.316-1.213,0.982c0.149,0.694,0.733,1.349,1.63,1.298
			C211.825,94.753,211.411,94.029,211.49,93.75z"/>
		<path style="fill-rule:evenodd;clip-rule:evenodd;fill:#7B491E;" d="M264.797,105.256c2.428-0.648,2.681-0.062,2.697,2.348
			c0.018,2.351-1.724,4.503-0.606,6.905c0.116,0.249,0.132,0.697-0.018,0.893c-1.775,2.335-1.473,5.485-3.112,7.865
			c0.082,0.105,0.157,0.295,0.248,0.303c3.238,0.272,3.573,0.689,2.395,3.694c-0.591,1.506-0.893,3.204-2.205,4.363
			c-0.293,0.258-0.686,0.676-0.464,0.953c1.373,1.711,0.19,3.349-0.136,4.964c-0.198,0.979,0.026,1.251,0.895,1.098
			c3.602-0.639,7.273-0.593,10.891-1.186c1.783-0.292,3.622-0.07,5.511,0.63c2.569,0.954,5.373,0.04,7.98-0.566
			c1.711-0.398,2.683,0.456,3.049,1.565c0.335,1.015,2.514,2.49-0.204,3.563c-0.838,0.33-0.948,1.483-0.098,1.999
			c2.663,1.612,3.045,2.916,1.337,5.253c-0.898,1.229-2.097,1.678-3.466,1.078c-1.232-0.539-2.36-0.459-3.435,0.174
			c-0.711,0.419-1.422,0.427-2.171,0.418c-6.625-0.075-13.26,0.077-19.756,1.412c-6.021,1.238-12.203,1.327-18.183,2.985
			c-2.623,0.728-5.611,0.292-8.421,0.144c-2.764-0.146-5.277,0.844-7.899,1.33c-2.887,0.535-5.663,1.129-8.62-0.143
			c-1.427-0.613-3.331-0.41-4.963-0.182c-2.303,0.322-4.547,0.195-6.83-0.024c-1.403-0.135-2.766-0.015-4.166,0.628
			c-2.321,1.065-5.365-1.261-4.971-3.574c0.068-0.398,0.146-0.925,0.491-0.938c2.021-0.076,2.237-2.227,3.624-3.08
			c1.037-0.639,1.568-1.711-0.148-2.609c-2.117-1.108-2.785-5.132-1.388-7.096c0.32-0.451,0.924-1.089,0.583-1.604
			c-0.917-1.383-0.185-2.514,0.546-3.452c1.26-1.618,0.638-3.472,0.993-5.188c0.024-0.12,0.101-0.23,0.152-0.345
			c-0.352-0.079-0.708-0.141-1.053-0.241c-2.221-0.65-2.693-2.424-0.899-3.925c1.344-1.125,1.578-2.003,0.528-3.525
			c-0.854-1.239-1.394-2.724,0.418-4.011c1.348-0.958,0.886-2.674-0.672-3.173c-2.226-0.715-2.809-2.64-1.351-4.489
			c0.726-0.919,1.141-1.922,0.93-3.112c-0.646-3.637,1.644-5.303,4.457-6.58c0.798-0.363,1.491-0.9,2.345-1.209
			c0.451-0.162,1.359-0.406,1.45-1.214c0.432-3.855,3.623-3.407,6.166-4.005c1.379-0.325,2.598-1.253,3.61-2.013
			c4.011-3.01,9.039-3.76,13.163-6.292c3.678-2.258,7.959-3.395,11.071-6.853c2.084-2.315,5.434-2.695,8.815-2.396
			c3.431,0.304,6.387,2.634,9.949,2.014c0.901-0.157,0.953,0.741,1.138,1.165c0.854,1.96,1.61,3.968,2.281,6
			c0.225,0.681,0.153,1.432-0.245,2.186c-0.673,1.273-0.979,2.525,0.054,3.966c0.95,1.324-0.367,2.455-0.979,3.587
			c-0.275,0.511-1.929,0.86,0.087,1.539c1.45,0.488,0.653,1.941,0.108,2.899C264.717,102.935,264.573,103.306,264.797,105.256z
			 M233.193,118.523c-1.597-0.047-3.101,0.546-4.682,0.642c-2.317,0.141-2.376,2.613-3.13,4.141c-0.43,0.868,0.766,2.016,1.78,2.432
			c3.538,1.449,6.925,3.544,11.103,1.688c1.102-0.489,2.069-1.332,3.374-1.535c1.875-0.291,2.965-1.799,2.733-3.505
			c-0.237-1.75-1.453-3.221-3.532-3.291C238.283,119.008,235.708,119.266,233.193,118.523z M245.899,105.752
			c-0.26-1.831,0.538-3.621-0.446-5.064c-2.092-3.068-7.339-2.909-9.521,0.097c-0.439,0.605-0.998,1.943-2.171,0.57
			c-0.225-0.263-0.93-0.336-1.13,0.229c-0.134,0.376-0.189,0.882,0.48,1.049c0.417,0.104,0.783,0.411,1.18,0.631
			c-0.365,0.517-0.629,1.272-1.144,1.535c-1.034,0.527-0.606,1.376-0.488,1.964c0.14,0.697,0.734,1.37,1.62,1.317
			c2.731-0.161,5.52-0.552,7.895-1.781C243.464,105.632,244.382,104.878,245.899,105.752z M264.584,147.922
			c0.316-0.1,0.943,0.159,0.88-0.544c-0.042-0.472-0.533-0.379-0.872-0.371c-0.332,0.006-0.796-0.099-0.832,0.417
			C263.722,147.974,264.201,147.86,264.584,147.922z"/>
		<path style="fill-rule:evenodd;clip-rule:evenodd;fill:#7B491E;" d="M361.506,123.158c-2.407,0.293-4.69-0.592-6.977,0.037
			c-0.781,0.215-1.709,0.199-2.335,0.629c-3.541,2.437-7.022,1.11-10.402-0.205c-1.373-0.534-2.504-0.918-3.97-0.435
			c-2.395,0.79-4.896,0.942-7.207-0.213c-1.123-0.562-2.092,0.035-2.756,0.339c-2.242,1.025-4.585,0.572-6.844,0.972
			c-0.343,0.061-0.583,0.095-0.771-0.167c-2.237-3.104-5.709-1.695-8.595-2.192c-3.113-0.537-4.513-1.117-4.47-3.155
			c0.044-2.125,2.276-4.104,4.824-4.264c2.878-0.181,5.685,0.365,8.399,1.179c0.919,0.274,1.561,0.003,2.048-0.371
			c0.724-0.556-0.307-1.225-0.285-1.693c0.137-2.807-2.122-5.255-0.679-8.404c0.783-1.71,1.046-3.97,1.386-6.021
			c0.433-2.607-0.168-6.029,3.403-7.285c3.669-5.753,9.988-7.89,15.405-11.247c1.27-0.787,2.498-1.58,3.569-2.626
			c2.358-2.304,5.911-1.952,7.483,0.855c0.836,1.495,2.397,2.108,3.544,3.156c3.271,2.986,5.013,6.859,7.158,10.512
			c0.805,1.368,1.911,2.444,2.981,3.544c0.76,0.779,1.114,1.988,0.615,2.424c-2.348,2.046-1.467,5.038-2.419,7.483
			c-1.182,3.035-2.177,6.212-2.119,9.624c0.031,1.812,1.049,2.082,2.029,1.443c0.927-0.604,1.957-0.606,2.854-1.141
			c2.257-1.344,4.541-1.519,7.168-0.651c1.5,0.495,2.353,1.171,2.363,2.46c0.01,1.206-0.281,2.45-1.698,3.249
			c-1.954,1.101-4.158,1.332-6.174,1.591C366.534,122.904,363.974,123.583,361.506,123.158z M353.86,111.081
			c0-1.143-0.021-2.285,0.008-3.427c0.017-0.652-0.406-1.281-0.853-0.867c-1.366,1.269-3.034,0.602-4.517,0.988
			c-3.75,0.98-7.576,2.115-11.424,1.585c-3.055-0.422-4.107,1.345-5.375,3.285c-0.507,0.775-0.43,1.718-0.162,2.405
			c0.282,0.723,1.222,0.062,1.771,0.174c2.382,0.486,4.868-0.304,7.207,0.793c2.92,1.369,5.896,2.062,9.247,1.298
			c3.916-0.895,4.099-0.824,4.099-4.863C353.861,111.995,353.861,111.538,353.86,111.081z M338.967,93.526
			c2.148-0.562,3.085,0.705,4.166,1.761c1.995,1.947,2.983,1.826,4.553-0.465c0.711-1.037,1.468-2.044,2.149-3.101
			c0.608-0.944,0.707-1.921-0.562-2.353C345.938,88.235,341.414,89.954,338.967,93.526z"/>
		<path style="fill-rule:evenodd;clip-rule:evenodd;fill:#7B491E;" d="M358.894,25.888c0.02-2.372,1.069-3.319,3.111-2.894
			c2.514,0.523,4.665,2.452,7.489,1.889c0.321-0.064,0.821,0.578,1.184,0.945c1.29,1.307,2.345,2.676,4.686,2.291
			c1.386-0.229,2.981,1.138,3.447,2.412c0.506,1.379-0.675,2.898-1.21,4.305c-0.257,0.673-1.092,0.081-1.333-0.278
			c-0.952-1.412-2.703-2.059-3.396-3.731c-0.289-0.697-3.828-1.058-4.522-0.591c-1.773,1.192-3.229,0.558-3.454-1.753
			c-0.174-1.778-0.725-1.905-1.809-0.746c-0.846,0.904-1.823,1.624-2.941,1.079C358.975,28.244,359.022,26.846,358.894,25.888z"/>
		<path style="fill-rule:evenodd;clip-rule:evenodd;fill:#7B491E;" d="M39.202,70.562c0.753,2.614-0.455,3.183-1.93,3.66
			c-1.515,0.49-2.57-0.093-3.399-1.253c-0.467-0.653-0.868-1.378-1.164-2.124c-0.386-0.971-0.286-2.176,0.472-2.702
			c0.646-0.45,1.516,0.429,1.915,1.082c0.917,1.502,2.589,0.415,3.666,1.205c1.015-1.026-1.033-2.203,0.207-3.311
			c0.934-0.833,2.137-0.973,3.177-1.515c0.913-0.476,1.977,0.178,2.183,1.075c0.432,1.876-0.852,3.152-1.99,4.465
			C41.399,72.226,40.589,72.137,39.202,70.562z"/>
		<path style="fill-rule:evenodd;clip-rule:evenodd;fill:#7B491E;" d="M387.41,43.563c-2.796-0.032-4.033-0.966-4.685-3.81
			c-0.234-1.024-1.054-1.424-1.612-2.099c-1.159-1.401-1.11-2.664,0.215-3.957c1.205-1.175,2.252-0.828,2.988,0.364
			c0.562,0.913,0.854,2.028,1.101,3.092c0.283,1.23,1.037,2.323,2.14,2.199c1.91-0.215,2.538,0.416,2.47,2.199
			C389.958,43.314,388.863,43.648,387.41,43.563z"/>
		<path style="fill-rule:evenodd;clip-rule:evenodd;fill:#7B491E;" d="M244.001,39.166c0.049-1.937,0.845-2.71,2.307-3.216
			c1.682-0.583,2.711,0.492,3.458,1.385c1.606,1.919,1.044,4.608-0.899,6.21c-0.457,0.377-1.032,0.745-1.39,0.367
			C246.048,42.397,244.563,40.888,244.001,39.166z"/>
		<path style="fill-rule:evenodd;clip-rule:evenodd;fill:#7B491E;" d="M287.045,19.24c0.45-0.94-1.042-2.901,1.49-3.15
			c1.9-0.187,5.037,2.612,5.179,3.814c0.068,0.577-0.333,1.27-0.919,1.639c-1.047,0.66-2.089,1.342-3.194,1.89
			c-1.774,0.878-2.155-0.601-2.516-1.736C286.866,21.006,287.045,20.188,287.045,19.24z"/>
		<path style="fill-rule:evenodd;clip-rule:evenodd;fill:#7B491E;" d="M182.243,44.991c-0.003,1.219-0.389,2.002-1.374,2.474
			c-1.143,0.548-2.44-0.023-2.788-0.671c-0.747-1.393-2.034-2.239-2.865-3.514c-0.833-1.279-0.505-2.141,0.483-3.023
			c1.045-0.933,1.942-0.647,2.822,0.266c1.002,1.039,2.045,2.038,3.06,3.064C182.013,44.021,182.475,44.456,182.243,44.991z"/>
		<path style="fill-rule:evenodd;clip-rule:evenodd;fill:#7B491E;" d="M281.54,17.017c-1.258,0.146-1.799-0.605-2.398-1.594
			c-0.681-1.123-0.002-1.58,0.562-2.312c1.197-1.552,2.25-3.187,4.642-2.056c1.203,0.569,1.896,1.5,2.227,2.717
			c0.408,1.5-0.887,1.782-1.783,2.021C283.65,16.097,282.858,17.27,281.54,17.017z"/>
		<path style="fill-rule:evenodd;clip-rule:evenodd;fill:#7B491E;" d="M77.862,68.958c0.448,1.271-0.513,2.021-1.365,2.745
			c-1.097,0.931-1.355-0.63-2.113-0.825c-2.208-0.566-2.718-2.107-2.482-4.24c0.211-1.916,1.51-2.485,2.804-1.908
			C76.324,65.452,78.282,66.371,77.862,68.958z"/>
		<path style="fill-rule:evenodd;clip-rule:evenodd;fill:#7B491E;" d="M87.074,71.94c-0.099-1.528,0.358-2.337,1.003-3.109
			c0.529-0.632,1.203-0.679,1.849-0.493c0.645,0.187,0.766,0.795,0.794,1.459c0.072,1.689-0.274,3.377,0.688,5.041
			c0.485,0.837-0.424,1.929-1.181,2.528c-0.338,0.267-0.708,1.169-1.365,0.674c-0.759-0.572-1.533-1.185-1.383-2.39
			C87.655,74.233,87.475,72.819,87.074,71.94z"/>
		<path style="fill-rule:evenodd;clip-rule:evenodd;fill:#7B491E;" d="M54.535,122.283c-2.647-0.024-5.519-1.82-5.945-3.665
			c-0.083-0.361-0.6-0.704-0.014-1.127c0.499-0.36,1.35-0.396,1.476-0.178c1.103,1.903,2.986,1.082,4.116,0.725
			c2.259-0.714,2.935,0.214,3.095,2.042C57.444,122.123,56.017,122.381,54.535,122.283z"/>
		<path style="fill-rule:evenodd;clip-rule:evenodd;fill:#7B491E;" d="M290.093,44.021c2.164,0.006,3.914,1.577,3.653,3.478
			c-0.189,1.392-0.541,3.101-2.394,3.345c-1.251,0.165-3.937-3.134-3.812-4.705C287.667,44.571,288.536,43.643,290.093,44.021z"/>
		<path style="fill-rule:evenodd;clip-rule:evenodd;fill:#7B491E;" d="M362.557,36.649c0.493,1.433-0.511,2.808-0.985,4.25
			c-0.359,1.092-1.367,1.276-2.058,0.221c-1.288-1.969-1.463-4.133-0.731-6.371c0.4-1.224,1.19-1.965,2.515-1.687
			c1.311,0.276,1.264,1.406,1.26,2.443C362.556,35.809,362.557,36.111,362.557,36.649z"/>
		<path style="fill-rule:evenodd;clip-rule:evenodd;fill:#7B491E;" d="M152.493,47.776c-0.034-2.141,1.734-4.883,2.955-4.625
			c2.209,0.464,1.998,2.548,2.284,4.13c0.283,1.562-1.443,3.284-2.999,3.124C153.06,50.232,152.76,48.847,152.493,47.776z"/>
		<path style="fill-rule:evenodd;clip-rule:evenodd;fill:#7B491E;" d="M87.534,82.218c-0.641-1.485,1.084-2.043,1.47-3.203
			c0.046-0.14,0.598-0.273,0.803-0.175c1.535,0.739,2.201,2.212,2.67,3.68c0.378,1.184-0.016,2.296-1.089,3.194
			c-1.426,1.193-2.542,1.042-3.234-0.608C87.796,84.257,87.312,83.344,87.534,82.218z"/>
		<path style="fill-rule:evenodd;clip-rule:evenodd;fill:#7B491E;" d="M164.018,41.282c0.039,0.005,0.36-0.008,0.623,0.108
			c1.282,0.563,2.481,4.758,1.71,5.914c-1.175,1.763-2.345,1.725-3.339-0.128c-0.487-0.907-0.992-1.812-1.374-2.764
			C160.88,42.523,161.784,41.227,164.018,41.282z"/>
		<path style="fill-rule:evenodd;clip-rule:evenodd;fill:#7B491E;" d="M382.237,47.491c-0.109-1.622,0.454-2.61,2.271-2.565
			c1.614,0.041,3.745,2.127,3.624,3.861c-0.062,0.885-0.322,2.017-1.592,2.08C383.868,51,382.206,49.666,382.237,47.491z"/>
		<path style="fill-rule:evenodd;clip-rule:evenodd;fill:#7B491E;" d="M183.323,49.327c-0.065-1.359,1.809-3.937,2.872-3.8
			c1.241,0.159,2.301,0.841,2.388,2.219c0.127,2.018-1.765,5.011-3.061,4.919C183.469,52.52,183.629,50.737,183.323,49.327z"/>
		<path style="fill-rule:evenodd;clip-rule:evenodd;fill:#7B491E;" d="M187.724,65.714c0.015,1.729-2.407,5.025-3.442,4.719
			c-1.407-0.416-2.414-1.488-2.485-3.076c-0.071-1.584,1.795-3.144,3.603-3.212C186.743,64.095,187.531,64.629,187.724,65.714z"/>
		<path style="fill-rule:evenodd;clip-rule:evenodd;fill:#7B491E;" d="M16.914,124.994c-1.665,0.398-2.267-0.801-2.592-1.995
			c-0.396-1.45,0.317-2.754,1.212-3.857c0.213-0.263,0.832-0.054,1.198,0.323c0.356,0.369,0.757,0.831,1.214,0.94
			c1.429,0.345,2.713,0.832,2.235,2.611C19.762,124.573,18.587,125.296,16.914,124.994z"/>
		<path style="fill-rule:evenodd;clip-rule:evenodd;fill:#7B491E;" d="M158.489,65.475c0.099,1.589-0.907,2.36-2.119,2.851
			c-1.211,0.491-1.695-0.394-2.248-1.314c-0.645-1.071-1.74-1.99-0.861-3.361c0.574-0.896,1.344-2.251,2.479-1.669
			C157.036,62.646,158.412,63.677,158.489,65.475z"/>
		<path style="fill-rule:evenodd;clip-rule:evenodd;fill:#7B491E;" d="M38.719,119.379c2.031,2.872,2.85-1.153,4.644-0.406
			c0.634,0.264,1.713-0.176,2.278,0.621c0.407,0.574,0.233,1.234-0.08,1.912c-0.504,1.096-1.739,1.338-2.348,1.122
			c-1.339-0.473-1.896-0.271-2.672,0.937c-0.738,1.147-1.895,0.803-2.291-0.5C37.906,121.934,37.807,120.688,38.719,119.379z"/>
		<path style="fill-rule:evenodd;clip-rule:evenodd;fill:#7B491E;" d="M33.689,122.737c-0.938-0.282-2.156-0.641-2.413-1.838
			c-0.269-1.251,0.434-2.441,1.077-3.517c0.172-0.289,0.768-0.243,1.027,0.035c0.833,0.895,1.46,0.878,2.485,0.081
			c0.946-0.737,1.709-0.089,1.74,1.118C37.639,119.971,35.162,122.661,33.689,122.737z"/>
		<path style="fill-rule:evenodd;clip-rule:evenodd;fill:#7B491E;" d="M277.496,17.514c0.15,1.038-0.417,1.677-1.149,2.11
			c-0.879,0.521-1.316-0.322-1.899-0.766c-0.843-0.64-1.154-1.762-2.407-2.108c-0.819-0.226-0.808-1.223-0.151-2.027
			c0.949-1.164,2.27-1.289,3.439-0.935C277.065,14.313,276.972,16.156,277.496,17.514z"/>
		<path style="fill-rule:evenodd;clip-rule:evenodd;fill:#7B491E;" d="M339.618,52.415c0,0.758,0.107,1.537-0.028,2.27
			c-0.15,0.816-0.779,1.618-1.574,1.503c-0.796-0.116-1.708-0.589-1.566-1.83c0.101-0.879-0.009-1.743-0.383-2.622
			c-0.37-0.872-1.054-1.958,0.251-2.763c0.556-0.343,1.321-1.066,1.722-0.695c0.824,0.764,1.755,1.639,1.64,2.997
			c-0.032,0.377-0.005,0.76-0.005,1.14C339.655,52.415,339.636,52.415,339.618,52.415z"/>
		<path style="fill-rule:evenodd;clip-rule:evenodd;fill:#7B491E;" d="M34.377,79.729c-0.284-2.042,1.667-2.086,2.495-2.065
			c1.439,0.036,2.282,1.372,2.054,2.888c-0.106,0.708-0.456,1.391-0.403,2.158c0.052,0.754,0.156,1.64-0.695,1.978
			c-0.984,0.39-1.612-0.443-2.008-1.109C35.116,82.396,34.539,81.118,34.377,79.729z"/>
		<path style="fill-rule:evenodd;clip-rule:evenodd;fill:#7B491E;" d="M357.033,27.349c-0.559,1.186-1.125,2.786-2.037,4.156
			c-0.46,0.691-1.52,0.87-2.179-0.198c-0.641-1.039-1.078-2.051-0.568-3.325c0.635-1.592,2.015-2.505,3.37-3.04
			C356.432,24.62,357.158,25.849,357.033,27.349z"/>
		<path style="fill-rule:evenodd;clip-rule:evenodd;fill:#7B491E;" d="M90.7,94.376c0.01,1.122,0.002,2.103-0.932,3.088
			c-1.231,1.298-1.953,0.961-2.798-0.22c-0.746-1.042-0.505-4.568,0.467-5.277c0.594-0.433,1.319-0.799,2.167-0.423
			C90.69,92.028,90.704,91.998,90.7,94.376z"/>
		<path style="fill-rule:evenodd;clip-rule:evenodd;fill:#7B491E;" d="M88.416,55.099c0.121-1.312-0.583-3.469,1.427-3.611
			c1.99-0.14,1.601,1.97,1.827,3.394c0.159,1.003,0.994,1.829,0.155,2.995c-0.515,0.715-0.831,1.442-1.834,1.23
			c-0.976-0.206-1.572-0.808-1.575-1.87C88.415,56.557,88.416,55.876,88.416,55.099z"/>
		<path style="fill-rule:evenodd;clip-rule:evenodd;fill:#7B491E;" d="M293.906,37.391c0.065,1.037,0.099,2.185-1.672,2.064
			c-1.38-0.094-3.505-2.286-3.33-3.704c0.16-1.302,0.966-2.222,2.37-2.235C292.98,33.499,293.919,34.888,293.906,37.391z"/>
		<path style="fill-rule:evenodd;clip-rule:evenodd;fill:#7B491E;" d="M245.486,26.529c0.68-0.222-0.236-2.583,1.845-1.429
			c0.443,0.246,0.839,0.164,1.267-0.057c1.07-0.552,1.703,0.028,2.354,0.834c0.806,0.998,0.745,2.067,0.15,2.973
			c-0.607,0.925-1.574,0.962-2.701,0.573C246.963,28.926,245.61,28.528,245.486,26.529z"/>
		<path style="fill-rule:evenodd;clip-rule:evenodd;fill:#7B491E;" d="M342.336,31.116c1.941,0.454,2.28,2.042,2.743,3.362
			c0.279,0.797-2.043,3.322-2.704,3.072c-1.478-0.559-2.408-1.672-2.226-3.352C340.306,32.757,340.921,31.572,342.336,31.116z"/>
		<path style="fill-rule:evenodd;clip-rule:evenodd;fill:#7B491E;" d="M56.31,54.575c0.997,0.191,1.724,0.837,1.838,1.838
			c0.154,1.351-2.127,3.53-3.727,3.452c-1.712-0.084-2.044-1.744-2.535-2.963C51.576,56.13,54.46,54.635,56.31,54.575z"/>
		<path style="fill-rule:evenodd;clip-rule:evenodd;fill:#7B491E;" d="M264.675,16.43c2.201-0.08,3.225,1.241,3.45,2.751
			c0.117,0.784-0.313,2.846-1.878,2.301c-1.314-0.458-3.601,0.339-3.873-1.94C262.164,17.769,263.978,17.26,264.675,16.43z"/>
		<path style="fill-rule:evenodd;clip-rule:evenodd;fill:#7B491E;" d="M35.17,91.163c1.651-0.746,3.167-0.688,3.343,1.843
			c0.067,0.968-2.285,3.289-3.114,3.179c-0.639-0.085-2.859-3.01-2.792-3.679C32.674,91.826,33.898,91.111,35.17,91.163z"/>
		<path style="fill-rule:evenodd;clip-rule:evenodd;fill:#7B491E;" d="M146.574,45.363c0.937-0.051,2.283,0.531,2.161,2.131
			c-0.118,1.549-0.804,3.601-2.53,3.698c-2.045,0.116-2.113-2.107-2.368-3.613C143.588,46.105,144.514,45.386,146.574,45.363z"/>
		<path style="fill-rule:evenodd;clip-rule:evenodd;fill:#7B491E;" d="M244.338,51.095c0.79-1.049,0.636-2.122,0.581-3.152
			c-0.053-1.002,0.355-1.629,1.309-1.744c0.76-0.091,0.794,0.69,1.009,1.177c0.626,1.415,1.761,2.638,0.972,4.477
			c-0.475,1.104-0.919,1.944-2.174,1.745C244.586,53.369,244.796,51.988,244.338,51.095z"/>
		<path style="fill-rule:evenodd;clip-rule:evenodd;fill:#7B491E;" d="M249.056,58.44c0.088,1.372-0.278,2.443-1.88,2.5
			c-1.367,0.048-3.139-1.567-3.159-2.754c-0.028-1.647,0.897-2.561,2.398-2.683C247.963,55.378,249.056,56.734,249.056,58.44z"/>
		<path style="fill-rule:evenodd;clip-rule:evenodd;fill:#7B491E;" d="M253.164,23.671c0.073-1.127,2.634-3.046,3.883-2.968
			c1.758,0.11,2.331,1.462,2.483,2.9c0.09,0.853-0.763,1.863-1.481,1.513c-1.148-0.561-1.927-0.328-3.005,0.057
			C253.791,25.621,253.005,24.927,253.164,23.671z"/>
		<path style="fill-rule:evenodd;clip-rule:evenodd;fill:#7B491E;" d="M293.905,25.622c0.013,1.342-1.976,3.884-3.257,3.954
			c-0.765,0.042-1.75-0.28-1.711-1.222c0.036-0.875-0.827-2.211,0.714-2.596c0.664-0.166,0.923-0.249,1.129-0.997
			c0.284-1.03,1.365-1.483,2.344-1.256C294.158,23.748,293.889,24.814,293.905,25.622z"/>
		<path style="fill-rule:evenodd;clip-rule:evenodd;fill:#7B491E;" d="M335.59,40.083c-0.299-1.21,0.339-1.902,1.434-1.953
			c1.625-0.076,3.04,1.565,2.778,3.194c-0.114,0.705-0.15,1.436-0.49,2.156c-0.277,0.586-0.285,1.08-1.102,1.012
			c-0.606-0.051-1.417,0.078-1.552-0.614C336.405,42.573,335.223,41.549,335.59,40.083z"/>
		<path style="fill-rule:evenodd;clip-rule:evenodd;fill:#7B491E;" d="M191.562,51.127c0.293-1.287,0.413-2.871,2.255-2.958
			c2.072-0.098,2.146,1.736,2.523,3.049c0.283,0.987-1.656,2.894-2.682,2.866C191.705,54.031,192.022,52.278,191.562,51.127z"/>
		<path style="fill-rule:evenodd;clip-rule:evenodd;fill:#7B491E;" d="M38.994,110.154c-0.039,1.779-1.698,3.645-2.918,3.395
			c-1.221-0.25-2.515-0.673-2.569-2.297c-0.032-0.939,3.277-3.402,4.374-3.109C38.967,108.433,39.023,109.5,38.994,110.154z"/>
		<path style="fill-rule:evenodd;clip-rule:evenodd;fill:#7B491E;" d="M90.755,104.692c-0.368,0.693,0.696,2.121-1.17,2.042
			c-1.294-0.056-3.451-2.045-3.315-3.389c0.148-1.476,1.107-3.109,2.494-2.875C90.832,100.819,90.544,103.015,90.755,104.692z"/>
		<path style="fill-rule:evenodd;clip-rule:evenodd;fill:#7B491E;" d="M135.963,50.721c0.118-1.765,1.385-2.27,2.509-2.029
			c1.081,0.231,2.919-0.114,2.978,1.862c0.027,0.93-2.83,3.774-3.504,3.492C136.451,53.423,136.341,51.908,135.963,50.721z"/>
		<path style="fill-rule:evenodd;clip-rule:evenodd;fill:#7B491E;" d="M87.5,62.375c-0.108-1.535,0.835-2.771,2.086-2.676
			c1.808,0.136,2.294,1.969,2.445,3.537c0.127,1.314-0.753,2.299-1.982,2.625C89.092,66.113,87.516,63.83,87.5,62.375z"/>
		<path style="fill-rule:evenodd;clip-rule:evenodd;fill:#7B491E;" d="M50.434,62.728c-0.378,1.15-0.768,2.922-2.628,3.186
			c-1.396,0.198-2.291-0.913-2.396-2.361c-0.113-1.55,1.508-2.985,3.333-3.045C49.792,60.472,50.415,61.132,50.434,62.728z"/>
		<path style="fill-rule:evenodd;clip-rule:evenodd;fill:#7B491E;" d="M350.633,31.881c-0.07,0.757,0.439,2.316-1.44,2.496
			c-1.228,0.118-3.327-1.93-3.061-3c0.345-1.375,1.019-2.842,2.69-2.868C350.781,28.48,350.704,30.059,350.633,31.881z"/>
		<path style="fill-rule:evenodd;clip-rule:evenodd;fill:#7B491E;" d="M243.105,67.746c-0.169-1.226,0.365-1.848,1.787-1.775
			c1.322,0.067,4.106,2.079,4.161,3.13c0.048,0.904-0.298,1.472-1.284,1.451C244.144,70.474,243.128,69.887,243.105,67.746z"/>
		<path style="fill-rule:evenodd;clip-rule:evenodd;fill:#7B491E;" d="M136.649,72.054c1.652,0.032,3.086,2.313,2.202,3.61
			c-0.612,0.898-0.711,2.072-1.741,2.766c-0.998,0.673-1.821,0.051-1.906-0.54c-0.224-1.549-0.146-3.16-0.023-4.732
			C135.24,72.413,136.206,72.449,136.649,72.054z"/>
		<path style="fill-rule:evenodd;clip-rule:evenodd;fill:#7B491E;" d="M65.148,51.805c-1.135,0.92-0.105,3.116-1.972,3.604
			c-1.013,0.264-3.292-2.228-3.083-3.247c0.347-1.692,1.779-2.059,3.21-2.161C64.362,49.926,64.869,50.702,65.148,51.805z"/>
		<path style="fill-rule:evenodd;clip-rule:evenodd;fill:#7B491E;" d="M292.067,61.094c-0.181,0.672-0.114,1.787-1.548,1.688
			c-1.637-0.113-3.228-2.01-2.978-3.792c0.123-0.874,0.287-2.014,1.539-2.134C290.098,56.758,292.125,59.529,292.067,61.094z"/>
		<path style="fill-rule:evenodd;clip-rule:evenodd;fill:#7B491E;" d="M155.694,97.08c0.001,0.382-1.971,3.382-2.477,3.08
			c-1.151-0.686-2.406-1.687-2.433-3.016c-0.025-1.192,0.999-2.646,2.261-2.604C153.886,94.569,155.764,94.511,155.694,97.08z"/>
		<path style="fill-rule:evenodd;clip-rule:evenodd;fill:#7B491E;" d="M36.353,101.713c1.987-0.307,2.602,0.896,2.6,2.489
			c-0.001,1.192-0.28,2.7-1.864,2.443c-1.612-0.262-2.592-1.417-2.727-3.291C34.235,101.582,35.121,101.516,36.353,101.713z"/>
		<path style="fill-rule:evenodd;clip-rule:evenodd;fill:#7B491E;" d="M74.021,46.404c-1.245,0.759,0.037,3.147-1.756,2.917
			c-1.208-0.155-2.98-1.271-3.008-3.018c-0.027-1.668,1.491-2.541,2.863-2.65C73.877,43.515,73.09,45.506,74.021,46.404z"/>
		<path style="fill-rule:evenodd;clip-rule:evenodd;fill:#7B491E;" d="M142.862,93.148c0.192,1.638-0.686,2.951-1.927,2.892
			c-1.42-0.067-2.448-1.621-2.518-3.033c-0.06-1.217,1.236-2.163,2.358-2.212C142.139,90.735,143.232,91.54,142.862,93.148z"/>
		<path style="fill-rule:evenodd;clip-rule:evenodd;fill:#7B491E;" d="M88.416,45.815c0-0.715-0.025-1.171,0.007-1.625
			c0.028-0.406-0.183-0.976,0.497-1.053c0.516-0.058,1.322-0.198,1.419,0.36c0.3,1.723,1.989,3.054,1.321,5.065
			c-0.199,0.6-0.241,1.185-0.914,1.379c-0.712,0.206-1.113-0.324-1.518-0.772C88.28,48.121,88.364,46.833,88.416,45.815z"/>
		<path style="fill-rule:evenodd;clip-rule:evenodd;fill:#7B491E;" d="M162.087,97.73c0.13,1.882-0.795,2.887-2.406,2.992
			c-1.35,0.089-1.778-0.811-1.746-2.188c0.04-1.729,1.126-2.857,2.384-3.095C161.41,95.235,162.491,96.323,162.087,97.73z"/>
		<path style="fill-rule:evenodd;clip-rule:evenodd;fill:#7B491E;" d="M203.287,55.127c0.024,1.088,0.156,2.214-1.504,2.175
			c-1.765-0.042-2.785-1.15-2.948-2.638c-0.111-1.011,0.717-2.504,1.918-2.291C201.954,52.588,203.621,53.146,203.287,55.127z"/>
		<path style="fill-rule:evenodd;clip-rule:evenodd;fill:#7B491E;" d="M276.027,29.362c0.197-1.646,0.896-2.913,2.708-3.175
			c1.343-0.194,1.681,0.98,1.817,1.834c0.233,1.46-1.606,3.175-3.107,3.188C276.139,31.222,275.997,30.396,276.027,29.362z"/>
		<path style="fill-rule:evenodd;clip-rule:evenodd;fill:#7B491E;" d="M137.353,59.678c0.057-1.522,0.112-3.093,1.461-3.147
			c1.083-0.044,2.344,0.828,2.256,2.508c-0.078,1.472-0.632,3.331-1.688,3.433C138.331,62.575,137.027,61.088,137.353,59.678z"/>
		<path style="fill-rule:evenodd;clip-rule:evenodd;fill:#7B491E;" d="M133.282,91.711c-0.175-1.533,0.317-2.637,1.794-2.799
			c1.595-0.175,2.292,1.832,2.13,2.309c-0.428,1.258-0.504,3.416-2.287,3.366C133.758,94.556,132.944,93.092,133.282,91.711z"/>
		<path style="fill-rule:evenodd;clip-rule:evenodd;fill:#7B491E;" d="M27.049,122.937c0.169,1.44-0.399,2.549-1.392,2.42
			c-1.176-0.152-2.677-1.021-2.567-2.384c0.084-1.038-0.032-2.872,1.875-2.966C27.426,119.886,26.407,122.14,27.049,122.937z"/>
		<path style="fill-rule:evenodd;clip-rule:evenodd;fill:#7B491E;" d="M288.169,69.589c0.921-0.871,0.225-2.771,2.042-2.636
			c1.248,0.094,2.11,1.028,1.824,2.354c-0.279,1.295-0.37,3.254-1.811,3.43C287.948,73.015,289.45,70.415,288.169,69.589z"/>
		<path style="fill-rule:evenodd;clip-rule:evenodd;fill:#7B491E;" d="M292.956,82.688c0.251,1.581-0.389,2.097-1.891,2.104
			c-1.693,0.008-2.386-1.152-2.53-2.336c-0.136-1.1,0.672-2.273,2.086-2.055C291.861,80.592,293.585,80.616,292.956,82.688z"/>
		<path style="fill-rule:evenodd;clip-rule:evenodd;fill:#7B491E;" d="M136.469,84.066c0.069,1.424-0.309,2.958-1.714,3.143
			c-0.722,0.095-2.355-1.182-1.853-2.505c0.403-1.063-0.439-3.085,1.7-3.123C136.187,81.554,136.559,82.699,136.469,84.066z"/>
		<path style="fill-rule:evenodd;clip-rule:evenodd;fill:#7B491E;" d="M139.264,68.794c-0.292,0.956,0.581,2.622-1.219,2.624
			c-2.383,0.002-2.029-2.149-2.208-3.621c-0.135-1.104,0.487-1.877,1.86-1.829C139.928,66.046,138.965,67.72,139.264,68.794z"/>
		<path style="fill-rule:evenodd;clip-rule:evenodd;fill:#7B491E;" d="M91.613,37.57c-0.123,0.873,0.459,2.512-1.38,2.268
			c-1.702-0.226-1.819-1.774-1.834-3.229c-0.01-1.052-0.083-1.808,1.453-1.794C91.964,34.833,91.604,36.18,91.613,37.57z"/>
		<path style="fill-rule:evenodd;clip-rule:evenodd;fill:#7B491E;" d="M81.521,40.524c-0.569,0.872-0.022,2.928-1.898,2.946
			c-1.328,0.013-1.63-1.622-1.661-2.684c-0.034-1.177,0.432-2.35,2.116-2.28C81.338,38.558,81.639,39.204,81.521,40.524z"/>
		<path style="fill-rule:evenodd;clip-rule:evenodd;fill:#7B491E;" d="M86.098,33.497c0.981-0.053,2.146,0.108,1.778,1.318
			c-0.361,1.187-0.769,2.999-2.143,3.097c-1.219,0.087-2.249-1.446-2.227-2.66C83.528,33.986,84.76,33.401,86.098,33.497z"/>
		<path style="fill-rule:evenodd;clip-rule:evenodd;fill:#7B491E;" d="M169.878,40.195c0.005-1.064-0.122-2.199,1.223-2.075
			c1.385,0.127,2.383,1.115,2.366,2.481c-0.014,1.058-0.958,2.055-2.059,1.975C170.039,42.475,169.747,41.279,169.878,40.195z"/>
		<path style="fill-rule:evenodd;clip-rule:evenodd;fill:#7B491E;" d="M149.292,94.829c0.024,1.445-0.582,2.912-1.639,2.987
			c-1.431,0.103-1.567-1.717-1.848-2.81c-0.087-0.339,0.022-2.154,1.268-1.897C147.913,93.283,149.548,93.201,149.292,94.829z"/>
		<path style="fill-rule:evenodd;clip-rule:evenodd;fill:#7B491E;" d="M246.286,32.551c-0.881,0.111-1.357,0.018-1.386-0.989
			c-0.031-1.109,0.44-1.723,1.409-1.912c1.079-0.211,0.814,0.93,1.218,1.412C246.915,31.426,247.736,33.077,246.286,32.551z"/>
		<path style="fill-rule:evenodd;clip-rule:evenodd;fill:#7B491E;" d="M211.49,93.75c-0.079,0.278,0.335,1.003-0.535,1.053
			c-0.896,0.051-1.48-0.604-1.63-1.298c-0.144-0.666,0.536-0.928,1.213-0.982C211.371,92.456,211.634,92.824,211.49,93.75z"/>
		<path style="fill-rule:evenodd;clip-rule:evenodd;fill:none;" d="M233.193,118.523c2.516,0.743,5.09,0.485,7.646,0.57
			c2.079,0.07,3.295,1.541,3.532,3.291c0.231,1.706-0.858,3.214-2.733,3.505c-1.305,0.203-2.272,1.046-3.374,1.535
			c-4.178,1.856-7.564-0.238-11.103-1.688c-1.015-0.416-2.21-1.563-1.78-2.432c0.754-1.527,0.812-4,3.13-4.141
			C230.092,119.069,231.596,118.476,233.193,118.523z"/>
		<path style="fill-rule:evenodd;clip-rule:evenodd;fill:none;" d="M245.899,105.752c-1.517-0.874-2.435-0.12-3.725,0.546
			c-2.375,1.229-5.163,1.62-7.895,1.781c-0.886,0.053-1.48-0.62-1.62-1.317c-0.118-0.588-0.546-1.437,0.488-1.964
			c0.515-0.263,0.778-1.019,1.144-1.535c-0.396-0.22-0.763-0.527-1.18-0.631c-0.67-0.167-0.614-0.673-0.48-1.049
			c0.2-0.564,0.905-0.491,1.13-0.229c1.173,1.373,1.731,0.035,2.171-0.57c2.182-3.006,7.429-3.165,9.521-0.097
			C246.437,102.131,245.639,103.921,245.899,105.752z"/>
		<path style="fill-rule:evenodd;clip-rule:evenodd;fill:none;" d="M264.584,147.922c-0.384-0.062-0.862,0.052-0.824-0.498
			c0.036-0.516,0.5-0.411,0.832-0.417c0.339-0.008,0.83-0.101,0.872,0.371C265.528,148.082,264.901,147.823,264.584,147.922z"/>
		<path style="fill-rule:evenodd;clip-rule:evenodd;fill:none;" d="M353.861,111.081c0,0.457,0,0.914,0,1.371
			c0,4.039-0.183,3.969-4.099,4.863c-3.351,0.765-6.327,0.071-9.247-1.298c-2.339-1.097-4.825-0.307-7.207-0.793
			c-0.549-0.112-1.488,0.549-1.771-0.174c-0.268-0.688-0.345-1.63,0.162-2.405c1.268-1.94,2.32-3.707,5.375-3.285
			c3.848,0.53,7.674-0.604,11.424-1.585c1.482-0.387,3.15,0.28,4.517-0.988c0.446-0.414,0.869,0.215,0.853,0.867
			C353.839,108.795,353.86,109.938,353.861,111.081z"/>
		<path style="fill-rule:evenodd;clip-rule:evenodd;fill:none;" d="M338.967,93.526c2.446-3.572,6.971-5.291,10.306-4.157
			c1.27,0.432,1.171,1.408,0.562,2.353c-0.682,1.057-1.438,2.063-2.149,3.101c-1.569,2.291-2.558,2.412-4.553,0.465
			C342.052,94.231,341.116,92.964,338.967,93.526z"/>
	</g>
</g>
</svg>
