<?xml version="1.0" encoding="iso-8859-1"?>
<!-- Generator: Adobe Illustrator 16.0.0, SVG Export Plug-In . SVG Version: 6.00 Build 0)  -->
<!DOCTYPE svg PUBLIC "-//W3C//DTD SVG 1.1//EN" "http://www.w3.org/Graphics/SVG/1.1/DTD/svg11.dtd">
<svg version="1.1" id="Layer_1" xmlns="http://www.w3.org/2000/svg" xmlns:xlink="http://www.w3.org/1999/xlink" x="0px" y="0px"
	 width="401.137px" height="276.137px" viewBox="0 0 401.137 276.137" style="enable-background:new 0 0 401.137 276.137;"
	 xml:space="preserve">
<g>
	<g>
		<path style="fill:none;" d="M200.582,275.582c-65.892,0-131.783-0.012-197.675,0.056c-1.99,0.002-2.382-0.391-2.38-2.382
			c0.063-90.116,0.063-180.232,0-270.349c-0.001-1.99,0.39-2.381,2.38-2.38c131.783,0.061,263.566,0.061,395.349,0
			c1.99,0,2.382,0.39,2.381,2.38c-0.063,90.117-0.063,180.232,0,270.349c0.001,1.991-0.391,2.384-2.381,2.382
			C332.364,275.57,266.473,275.582,200.582,275.582z M106.396,113.075c-0.001-2.73-1.148-4.034-3.34-3.758
			c-7.362,0.927-14.094,3.801-20.63,7.059c-3.608,1.799-6.692,4.672-11.201,4.032c-1.243-0.176-2.289,0.917-3.162,1.717
			c-2.494,2.286-5.608,3.52-8.424,5.254c-0.962,0.592-2.208,0.949-2.607,2.128c-1.852,5.47-5.241,9.027-11.292,9.576
			c-0.747,0.067-1.711,0.696-2.09,1.347c-2.031,3.483-5.885,5.289-7.898,8.828c-0.624,1.096-2.456,1.586-2.553,3.136
			c-0.146,2.313-0.541,4.807,0.125,6.922c0.72,2.283-0.329,2.82-1.803,3.704c-3.592,2.154-4.579,3.448-2.8,7.304
			c1.247,2.701,0.331,5.401-1.907,6.65c-3.982,2.222-6.338,8.401-4.562,12.72c0.427,1.037,0.915,2.548,2.51,2.853
			c4.692,0.896,4.017,6.126,6.844,8.542c0.544,0.466-0.041,0.899-0.237,1.206c-1.982,3.099-1.643,6.049,0.484,8.899
			c0.393,0.527,0.82,0.796,0.383,1.69c-1.812,3.707-1.11,6.739,1.748,9.812c2.242,2.41,5.2,4.195,6.206,7.706
			c0.945,3.297,2.323,6.435,6.519,6.719c0.352,0.023,0.718,0.246,1.026,0.454c4.262,2.876,9.095,4.992,12.28,9.313
			c0.417,0.565,1.184,0.973,1.872,1.226c4.812,1.762,8.139,5.352,11.233,9.172c1.133,1.398,2.308,2.585,4.111,2.797
			c4.61,0.542,7.979,3.477,11.693,5.797c0.917,0.572,1.656,1.78,2.926,1.539c3.902-0.739,7.22,0.758,10.644,2.324
			c3.555,1.626,7.285,2.298,11.304,1.29c1.832-0.46,3.873,0.087,5.879,0.551c3.474,0.805,7.334,1.563,10.704,0.831
			c5.916-1.286,11.891-2.352,17.774-3.812c2.802-0.695,4.469-2.541,3.948-4.552c-0.927-3.581-4.116-6.432-6.53-5.188
			c-2.832,1.459-5.605,0.757-8.398,1.013c-2.406,0.221-4.367-0.502-5.836-2.591c-0.774-1.101-1.899-2.403-3.446-1.657
			c-1.916,0.924-3.447,0.958-5.274-0.301c-1-0.689-2.482-0.7-3.849-0.716c-4.389-0.05-8.436-1.174-11.473-4.608
			c-0.998-1.129-2.325-1.876-3.599-2.162c-2.475-0.556-4.509-1.912-6.561-3.143c-2.288-1.372-5.601-1.753-6.154-5.184
			c-0.407-2.521-2.173-3.301-4.303-4.159c-2.017-0.812-4.145,0.032-6.104-1.08c-2.995-1.7-4.942-4.55-7.631-6.584
			c-0.642-0.487-1.597-1.543-1.465-2.927c0.356-3.739-1.049-7.135-2.953-10.144c-1.67-2.64-2.115-5.413-1.57-8.16
			c0.802-4.045-0.815-6.757-3.665-9.172c-0.819-0.694-1.459-1.342-0.697-2.674c3.045-5.326,2.891-6.061-1.274-10.339
			c-0.638-0.654-1.918-1.28-1.364-2.321c2.292-4.299,0.556-8.865,1.071-13.27c0.179-1.526-0.222-3.203,0.264-4.595
			c1.477-4.235,3.151-8.31,3.457-12.951c0.124-1.886,0.871-4.631,2.277-6.017c3.476-3.429,5.888-7.712,9.5-11.016
			c1.528-1.398,2.336-3.692,4.544-4.272c1.219-0.32,2.103-0.902,2.796-1.806c3.331-4.344,7.894-5.762,13.087-5.318
			C102.555,123.188,106.285,117.392,106.396,113.075z M226.744,64.66c0.082-3.612-4.315-6.446-7.683-4.951
			c-2.971,1.319-3.773,4.238-2.059,7.048c1.086,1.778,3.183,3.696,1.806,5.792c-2.694,4.101-2.689,5.295,1.477,7.896
			c1.246,0.778,1.479,3.478,3.788,2.206c1.713-0.944,1.234-3.069,1.979-4.59c1.642-3.351,1.006-4.952-1.517-6.168
			c-2.415-1.166-2.554-2.361-0.309-3.815C225.539,67.227,226.885,66.527,226.744,64.66z M226.079,16.39
			c0.15-0.895,0.231-1.341,0.299-1.79c0.106-0.708,1.47-1.447,0.232-2.061c-0.677-0.336-1.303,0.398-1.827,1.19
			c-0.986,1.491-2.483,2.593-3.476,4.151c-0.946,1.486-0.539,4.536,1.343,5.52c1.627,0.851,2.65-0.626,3.51-1.867
			c1.653-2.386,2.084-2.329,3.501,0.462c1.37,2.696,3.36,3.31,5.915,1.825c3.165-1.84,4.48-7.665,2.354-10.556
			c-0.591-0.803-1.353-1.545-2.418-0.785C232.79,14.423,229.372,14.629,226.079,16.39z M335.085,224.063
			c-1.291-1.997-1.319-4.696-3.753-6.075c-1.953-1.107-3.867-2.327-5.637-3.706c-2.399-1.867-5.946-2.425-7.654-4.462
			c-2.932-3.498-7.07-4.005-10.521-6.066c-0.33-0.197-0.725-0.47-0.961,0.018c-0.15,0.308-0.218,0.806-0.07,1.086
			c1.323,2.52,2.923,4.703,5.511,6.232c2.801,1.655,6.319,2.028,8.357,5.245c0.759,1.196,2.172,2.622,3.58,3.332
			c2.425,1.223,5.201,1.659,7.114,3.948c0.642,0.767,1.973,1.012,3.037,1.34C334.427,225.059,335.656,225.424,335.085,224.063z
			 M217.368,50.274c0.419,3.01,2.957,5.156,4.873,7.647c0.24,0.312,1.198,0.386,1.64,0.178c2.318-1.088,4.57-2.332,5.79-4.754
			c1.451-2.885-1.011-4.918-1.819-7.244c-0.927-2.668-5.536-4.891-6.547-3.423C219.797,44.869,217.376,46.764,217.368,50.274z
			 M232.558,30.061c0.01-2.166-0.13-2.432-1.407-2.724c-3.715-0.849-8.571,1.524-10.426,5.094c-1.324,2.55-0.855,3.422,2.086,3.593
			c1.654,0.097,3.129,0.658,4.417,1.574c0.376,0.268-0.156,1.436,1.212,0.885c0.842-0.339,1.101-0.524,1.266-1.429
			c0.33-1.815,0.634-3.73,2.362-4.922C232.857,31.588,232.452,30.726,232.558,30.061z M398.22,41.933
			c-0.063-3.147-5.305-5.433-8.144-3.725c-1.134,0.681-3.099,1.349-2.544,2.97c1.02,2.985-0.867,2.4-2.436,2.425
			c-0.482,0.008-0.966-0.003-1.448,0.004c-1.489,0.026-2.168,1.212-2.745,2.236c-0.396,0.701-0.194,1.715,0.683,2.289
			c1.097,0.719,2.01,0.272,3.003-0.332c0.845-0.514,1.743-1.117,2.69,0.152c0.506,0.679,1.357,0.333,2.001-0.297
			c0.677-0.663,1.247-1.375,0.586-2.239c-1.562-2.04,0.15-2.213,1.396-2.346c1.314-0.14,2.688-0.033,3.999,0.192
			C396.767,43.521,397.679,43.005,398.22,41.933z M339.119,139.308c-0.713,1.904,1.47,2.665,1.039,4.286
			c-0.139,0.521-0.41,1.425,0.501,1.702c1.058,0.321,1.939-0.561,2.06-1.198c0.317-1.688,1.097-3.568-0.59-5.069
			c-0.19-0.17-0.918-0.483-0.411-0.521c1.521-0.111,0.182-3.667,3.01-2.221c1.04,0.532,2.195-2.244,1.206-3.375
			c-0.881-1.007-1.7-2.008-2.359-3.194c-0.861-1.547-2.595-1.728-3.521-0.562c-1.567,1.974-1.938,4.672-3.337,6.848
			c-0.339,0.527,0.737,1.512,1.37,1.606C339.68,137.848,339.752,138.473,339.119,139.308z M253.451,148.43
			c-0.101,1.479,0.426,2.793,1.064,4.035c1.117,2.168,3.081,2.76,5.242,2.12c1.841-0.545,2.502-2.179,2.441-4.035
			c-0.05-1.52-0.673-2.807-1.428-4.148c-1.162-2.063-2.656-3.454-4.979-2.703C253.688,144.378,253.745,146.602,253.451,148.43z
			 M226.221,110.462c1.426-0.011,5.104-2.886,5.14-4.018c0.076-2.387-4.28-6.456-6.898-6.442c-1.714,0.008-3.536,3.004-3.529,5.801
			C220.938,107.969,223.791,110.481,226.221,110.462z M316.647,82.684c-1.19-0.55-2.075-0.87-2.869-1.344
			c-1.255-0.752-1.812,0.267-1.485,0.942c0.938,1.942,2.181,3.947,3.989,5.018c1.417,0.839,1.894-1.049,2.448-2.136
			c0.097-0.191,0.498-0.214,0.742-0.345c2.145-1.145,2.616-2.788,1.36-4.861c-0.313-0.518-0.715-1.438-0.421-1.532
			c2.752-0.872,0.851-3.888,2.547-5.281c0.845-0.694,0.117-1.538-0.534-2.185c-0.729-0.725-1.5-0.947-2.233-0.132
			c-1.195,1.331-3.043,3.024-2.038,4.614c1.674,2.648,0.331,4.027-1.176,5.713C316.711,81.452,316.773,82.044,316.647,82.684z
			 M221.843,97.092c2.202-0.007,5.521-3.039,5.482-5.007c-0.047-2.424-2.795-4.928-5.351-4.876c-2.52,0.051-3.989,1.486-3.951,3.858
			C218.082,94.721,219.59,97.101,221.843,97.092z M227.326,117.783c-0.013,4.014,2.664,7.523,5.576,7.137
			c1.812-0.24,3.295-1.224,3.186-3.62c-0.141-3.09-2.689-6.155-5.453-6.184C228.676,115.095,226.845,115.218,227.326,117.783z
			 M76.192,92.188c-0.088-0.926-0.131-1.541-0.36-2.206c-0.624-1.81-1.324-3.285-3.576-3.378c-1.948-0.08-3.854,0.299-4.616,2.094
			c-0.779,1.834-0.13,3.732,1.482,5.125c0.29,0.25,0.509,0.593,0.82,0.809c1.05,0.728,1.482,2.588,3.491,1.518
			C75.237,95.191,76.083,93.862,76.192,92.188z M337.243,129.915c-0.047-0.379,0.052-0.926-0.163-1.111
			c-2.239-1.935-3.011-4.684-4.248-7.198c-0.365-0.742-1.127-2.139-2.352-1.664c-1.268,0.491-1.562,1.771-1.472,3.15
			c0.018,0.279,1.312,1.416-0.271,1.166c-1.789-0.283-2.25,0.535-1.931,1.954c0.317,1.404,1.173,3.358,2.746,2.451
			c2.979-1.719,3.279-0.02,3.952,2.107c0.181,0.569,0.758,1.789,2.047,1.406C336.705,131.833,337.412,131.226,337.243,129.915z
			 M266.86,157.59c0,0.388,0.066,0.788-0.012,1.159c-0.375,1.808,0.58,3.106,1.951,3.819c1.685,0.876,3.308-0.076,4.754-1.01
			c1.452-0.938,1.079-2.564,0.774-3.709c-0.618-2.313-2.475-3.918-4.571-4.844c-1.396-0.616-2.596,0.396-2.863,1.976
			C266.75,155.829,266.868,156.719,266.86,157.59z M116.517,83.141c-0.567,0.011-1.053,0.063-1.584,0.45
			c-2.941,2.145-2.762,7.996,0.299,10.044c1.75,1.172,2.769,0.244,3.303-1.202c0.604-1.637,0.902-3.404,1.184-5.139
			C120.065,85.163,118.419,83.113,116.517,83.141z M136.039,52.055c0.001-1.845-1.71-3.735-3.053-3.102
			c-1.761,0.829-3.753,1.388-5.042,3.049c-1.251,1.614-0.164,5.24,1.673,5.533C133.081,58.087,136.037,55.564,136.039,52.055z
			 M371.162,47.119c-1.276-0.081-2.261,0.054-3.307,0.848c-1.062,0.805-2.322,1.629-3.88,1.466c-1.726-0.18-2.271,1.425-2.186,2.381
			c0.116,1.281,1.511,2.134,2.849,1.587c1.385-0.565,2.145-0.702,2.954,0.858c0.35,0.674,1.524,1.42,2.729,0.732
			c1.206-0.69,0.927-1.663,0.581-2.618c-0.38-1.053-0.518-2.079,0.827-2.328c1.445-0.267,1.713-1.161,1.474-2.278
			C372.924,46.461,371.75,47.386,371.162,47.119z M127.622,103.035c-1.713,0.01-4.391,2.64-4.358,4.28
			c0.03,1.54,4.071,5.711,5.499,5.306c1.221-0.347,2.726-1.008,2.642-2.891C131.265,106.655,129.252,103.025,127.622,103.035z
			 M337.203,89.061c0.112-1.747-0.006-3.539-2.264-3.54c-2.386,0-1.593,1.901-1.915,3.4c-0.611,2.852,1.212,5.878-0.936,8.637
			c-0.726,0.931,0.578,1.986,1.531,2.364c0.911,0.36,1.444-0.294,1.876-1.24C336.903,95.6,336.925,92.313,337.203,89.061z
			 M253.371,142.232c0.124-3.124-1.891-5.9-4.078-6.24c-2.587-0.402-3.742,1.285-4.379,3.028c-0.642,1.756,1.77,5.593,2.704,5.06
			C249.459,143.033,252.18,144.896,253.371,142.232z M117.541,69.743c-0.194,0.103-0.505,0.308-0.843,0.444
			c-4.289,1.728-2.691,6.316,0.012,8.964c1.49,1.46,3.22,0.81,3.588-1.259c0.311-1.748,0.135-3.534,0.441-5.331
			C120.972,71.187,119.378,70.041,117.541,69.743z M116.863,98.412c-0.014,3.256,1.878,4.992,4.794,5.075
			c1.726,0.049,2.704-0.722,2.761-2.514c0.087-2.724-2.072-5.479-4.221-5.652C117.292,95.088,116.968,96.947,116.863,98.412z
			 M261.771,199.944c0.561,0.519,0.863,0.749,1.104,1.032c0.685,0.801,0.882,2.429,2.417,1.841c0.947-0.362,1.768-1.193,1.566-2.48
			c-0.225-1.446-1.063-2.604-2.47-2.569c-1.363,0.033-2.097-0.867-3.011-1.395c-1.421-0.818-2.47,0.063-3.294,0.634
			c-0.958,0.665-1.581,2.074-0.93,3.29c0.573,1.071,0.15,2.853,1.847,3.161C261.622,203.933,261.504,201.911,261.771,199.944z
			 M245.349,129.894c-0.004-3.407-0.685-4.37-3.051-4.312c-1.8,0.043-4.55,2.752-4.498,4.429c0.051,1.667,2.247,3.695,4.016,3.71
			C244.621,133.744,245.353,132.952,245.349,129.894z M67.751,77.906c-2.376-0.022-3.736,1.316-3.79,3.873
			c-0.041,1.941,0.477,3.869,2.6,4.142c2.164,0.278,5.096-2.453,4.912-4.26C71.26,79.551,70.54,77.69,67.751,77.906z
			 M134.908,112.234c-3.255-0.098-5.714,1.692-5.827,3.629c-0.098,1.696,2.56,4.488,4.261,4.478c1.447-0.01,3.2-2.791,3.299-5.095
			C136.718,113.413,136.024,112.321,134.908,112.234z M350.595,50.648c-0.281,1.145,0.331,1.995,1.262,2.598
			c0.673,0.436,1.752,0.556,2.132-0.058c1.413-2.282,3.792-3.233,5.854-4.626c0.793-0.536,0.826-1.428,0.538-2.068
			c-0.325-0.721-1.209-1.361-2.025-0.964c-2.155,1.046-4.781,0.735-6.687,2.659C350.892,48.973,350.527,49.581,350.595,50.648z
			 M57.558,66.576c0.003-1.684-2.108-3.707-3.949-3.783c-2.08-0.086-3.589,1.52-3.615,3.784c-0.028,2.428,1.089,3.755,3.565,3.764
			C55.862,70.351,57.553,68.729,57.558,66.576z M18.024,77.179c0.073,2.08,1.113,3.184,2.874,3.052
			c1.697-0.126,4.858-3.692,4.622-5.533c-0.178-1.38-0.698-2.771-2.686-2.628C20.473,72.239,17.941,74.83,18.024,77.179z
			 M63.003,69.187c-2.726-0.011-4.264,1.166-4.282,3.169c-0.015,1.58,2.068,3.811,3.552,3.805c2.035-0.009,4.793-2.546,4.538-4.421
			C66.51,69.528,64.838,69.023,63.003,69.187z M138.841,122.688c-1.685-0.052-2.425,1.112-2.03,2.731
			c0.99,4.059,2.266,4.556,6.361,3.378c1.583-0.455,1.951-1.505,1.876-2.443c-0.096-1.194-0.452-2.78-2.055-3.045
			C141.522,123.065,139.948,123.523,138.841,122.688z M327.908,115.503c-0.039-1.207,0.278-2.467-1.617-2.774
			c-1.712-0.277-2.943-1.053-1.456-3.155c0.694-0.98-0.377-1.933-0.922-2.771c-0.353-0.542-1.031-0.546-1.559-0.283
			c-1.094,0.545-0.63,1.669-0.889,2.537c-0.354,1.178,1.405,1.622,0.796,2.702c-1.632,2.887,0.207,4.205,2.296,5.606
			c0.898,0.603,1.676,0.897,2.604,0.445C328.141,117.333,327.883,116.348,327.908,115.503z M18.039,81.212
			c0.057-1.996-1.497-2.44-2.923-2.669c-1.471-0.236-4.286,3.025-3.979,4.852c0.27,1.608,0.422,3.739,2.942,3.819
			C15.715,87.265,17.961,83.877,18.039,81.212z M34.83,69.335c0.275-1.37-0.198-2.834-1.551-2.742
			c-2.114,0.144-4.268,0.813-5.164,3.232c-0.587,1.586,0.187,2.724,1.097,3.86c0.722,0.903,1.733,1.049,2.574,0.526
			C33.549,73.114,35.377,71.932,34.83,69.335z M125.569,61.205c-0.062-1.25-1.423-3.016-2.336-3.029
			c-1.876-0.027-4.875,2.466-4.563,4.079c0.333,1.719,0.352,4.024,3.043,4C123.244,66.241,125.656,62.969,125.569,61.205z
			 M81.943,100.813c0.143-1.55,0.154-3.729-1.935-3.497c-1.584,0.176-4.885-0.261-4.321,3.038c0.296,1.729,0.278,4.302,3.313,4.321
			C81.708,104.692,82.175,103.125,81.943,100.813z M342.93,152.985c0.668-1.829-0.68-3.179-1.822-3.12
			c-0.944,0.047-2.642,1.247-2.191,3.221c0.204,0.897,0.105,1.824-0.695,2.663c-0.868,0.909-0.643,2.273-0.236,3.295
			c0.445,1.119,1.572,1.846,2.839,1.341c1.213-0.483,1.512-1.454,0.474-2.487c-0.655-0.652,0.032-0.668,0.279-1.088
			C342.262,155.645,343.651,154.644,342.93,152.985z M338.078,74.256c-1.111,0.462-2.034,1.261-2.453,2.261
			c-0.427,1.02-0.385,2.199,0.666,3.132c1.085,0.962,1.775,0.528,2.692-0.255c0.769-0.656,1.949-0.59,2.719-0.103
			c1.373,0.869,1.722-0.369,2.242-0.955c0.599-0.675,0.023-1.307-0.406-2.004C342.214,74.185,339.724,75.643,338.078,74.256z
			 M139.91,202.308c0.904-0.016,2.048,0.31,2.403-0.925c0.375-1.302,0.332-2.722-0.516-3.844c-0.674-0.893-1.776-0.546-2.648-0.255
			c-0.874,0.292-1.669,0.769-2.58,1.056c-1.288,0.403-2.168,1.581-1.587,2.925c0.516,1.194,1.431,2.399,3.146,1.143
			C138.486,202.146,139.231,201.52,139.91,202.308z M2.33,89.962c-0.048,1.954,0.157,3.528,2.095,4.405
			c0.918,0.416,1.503,0.481,2.304-0.185c1.789-1.489,0.239-2.96,0.083-4.434c-0.018-0.167-0.282-0.305-0.308-0.475
			c-0.214-1.434-0.769-2.845-2.412-2.549C2.403,87.028,2.112,88.578,2.33,89.962z M334.881,114.689c0.04,2.489,2.693,6,4.196,5.562
			c1.127-0.329,2.013-1.402,1.58-2.693c-0.659-1.97-1.046-4.416-3.394-5C336.326,112.325,334.411,112.852,334.881,114.689z
			 M130.361,206.924c2.285,0.141,3.422-0.615,3.757-1.932c0.36-1.416-2.49-4.47-3.878-4.397c-1.817,0.095-2.352,1.241-2.348,2.899
			C127.897,205.715,129.166,206.66,130.361,206.924z M374.238,43.125c2.542-0.202,4.489-0.78,4.742-2.967
			c0.229-1.991-1.619-2.289-3.176-2.346c-1.603-0.058-4.548,2.139-4.202,3.14C372.085,42.348,372.933,43.557,374.238,43.125z
			 M41.279,64.902c-0.001,2.613,0.864,4.175,2.224,4.249c1.176,0.063,3.545-2.616,3.323-3.947c-0.288-1.718-1.508-2.805-3.164-2.939
			C41.784,62.112,40.899,63.2,41.279,64.902z M354.652,56.579c-0.021,1.194,3.525,5.017,4.618,5.05
			c1.016,0.031,1.604-0.368,1.782-1.433c0.295-1.751-2.272-5.375-4.01-5.539C355.611,54.523,354.501,54.824,354.652,56.579z
			 M281.358,197.198c-0.575-1.187-0.571-3.422-2.009-3.333c-1.568,0.097-3.396,1.208-3.738,3.293
			c-0.206,1.255,1.996,4.077,3.133,3.975C281.133,200.917,280.505,198.567,281.358,197.198z M164.496,198.821
			c1.443,0.203,2.626-0.206,2.343-2.117c-0.29-1.951-1.3-3.938-3.258-3.992c-1.985-0.054-2.443,2.174-2.472,3.842
			C161.072,198.582,162.621,198.967,164.496,198.821z M255.293,201.257c-0.178-1.423-0.104-2.963-1.743-2.937
			c-1.849,0.028-3.13,1.333-2.883,3.162c0.213,1.571,0.257,4.114,2.226,4.192C256.155,205.803,253.682,202.245,255.293,201.257z
			 M289.521,200.458c0-0.722,0.134-1.429-0.027-2.061c-0.398-1.572-1.174-3.063-3.104-2.402c-1.487,0.51-1.584,2.103-1.446,3.476
			c0.062,0.607,0.513,1.2,0.871,1.745c0.539,0.819,0.581,2.222,2.207,1.821C289.509,202.67,289.66,201.645,289.521,200.458z
			 M294.126,206.889c0.187,2.52,1.259,4.015,3.29,4.063c1.546,0.037,1.98-1.365,2.043-2.898c0.088-2.158-1.429-3.052-2.93-3.236
			C295.442,204.684,293.849,205.464,294.126,206.889z M336.529,58.403c-0.098-2.248-1.513-2.335-2.785-1.917
			c-1.218,0.398-0.8,1.814-0.419,2.466c0.7,1.198,1.717,1.532,2.868,0.125c0.707-0.863,1.589-0.303,2.082,0.538
			c0.828,1.414,1.659,1.373,2.478,0.047c0.38-0.616,1.403-1.021,0.562-2.103c-0.657-0.843-1.114-1.699-2.377-1.768
			C337.237,55.699,337.373,57.129,336.529,58.403z M183.137,203.526c0-1.593-4.064-4.919-5.555-4.703
			c-1.304,0.188-0.949,1.211-0.771,1.753c0.6,1.818,2.011,3.154,3.222,4.577c0.177,0.207,1.071,1.019,1.636,0.094
			C182.078,204.581,183.529,204.779,183.137,203.526z M188.948,204.624c0.183-2.375-1.614-3.334-3.218-3.776
			c-0.622-0.172-2.245,1.328-2.009,2.98c0.273,1.92,1.244,3.076,3.306,3.158C188.836,207.057,189.062,205.957,188.948,204.624z
			 M331.978,63.183c0.152-1.423-0.065-3.181-2.043-3.184c-1.396-0.002-2.757,1.249-2.542,2.901c0.209,1.604,0.735,3.339,2.817,3.605
			C331.422,66.661,331.972,65.65,331.978,63.183z M340.981,74.125c1.795-0.231,4.044-3.255,3.748-4.801
			c-0.188-0.985-0.854-1.771-1.915-1.819c-1.122-0.05-3.495,3.206-3.187,4.533C339.817,72.852,340.578,73.533,340.981,74.125z
			 M174.996,200.118c0.025-1.585-1.835-3.541-3.342-3.604c-1.354-0.058-2.186,0.704-2.392,1.905
			c-0.171,0.996,2.902,3.969,3.822,3.672C173.958,201.809,175.211,201.498,174.996,200.118z M305.771,212.322
			c0.722-1.805-0.72-2.652-2.264-2.91c-1.551-0.26-2.14,1.43-2.075,2.425c0.1,1.544,0.333,3.698,2.491,3.734
			C305.461,215.597,305.971,214.125,305.771,212.322z M318.828,102.783c2.55,0.352,3.196-1.233,3.1-2.136
			c-0.156-1.451-0.898-3.233-2.664-3.416c-0.863-0.09-2.604,0.478-2.306,1.871C317.276,100.6,317.608,102.458,318.828,102.783z
			 M157.614,196.431c0.219-0.994-0.242-2.683-1.877-2.631c-1.174,0.036-2.343,1.412-2.285,3.184
			c0.055,1.663,0.502,2.981,2.313,2.963C157.582,199.928,157.491,198.352,157.614,196.431z M333.851,103.456
			c-1.721,0.106-1.765,1.386-1.868,2.594c-0.146,1.698,0.269,3.021,2.265,3.253c1.892,0.22,2.03-1.462,2.049-2.425
			C336.326,105.369,335.851,103.735,333.851,103.456z M343.991,49.972c-1.708,0.321-3.048,1.239-3.104,2.65
			c-0.051,1.294,1.339,2.529,2.622,2.467c1.291-0.063,2.952-0.83,2.92-2.506C346.401,51.186,345.089,50.456,343.991,49.972z
			 M292.075,198.484c-1.432,0.482-1.712,2.089-1.793,3.288c-0.064,0.959,0.552,2.527,2.272,2.285
			c1.456-0.205,2.76-1.245,2.631-2.487C295.041,200.164,293.9,198.857,292.075,198.484z M377.234,48.305
			c-1.873-0.225-2.167,1.053-2.157,1.913c0.021,1.772,1.231,2.938,2.929,3.208c1.47,0.234,1.543-1.201,1.597-2.113
			C379.71,49.499,378.319,48.793,377.234,48.305z M367.519,42.457c-1.846-0.167-2.969,0.942-3.16,2.281
			c-0.16,1.115,0.915,1.948,2.373,1.796c1.667-0.174,2.757-1.161,2.874-2.62C369.679,43.003,368.76,41.989,367.519,42.457z
			 M350.571,71.46c-0.029-1.917-1.498-2.828-2.743-3.29c-1.207-0.448-1.825,1.403-1.744,2.079c0.158,1.325,0.815,2.73,2.534,3.007
			C350.154,73.504,350.123,72.197,350.571,71.46z M268.027,197.191c-0.06,1.133,0.051,2.135,1.528,2.229
			c1.37,0.088,2.298-0.666,2.461-1.854c0.179-1.307-0.817-2.049-2.08-2.199C268.631,195.21,267.971,195.86,268.027,197.191z
			 M326.745,66.506c0.124-1.136-0.276-2.018-1.841-1.976c-1.486,0.041-1.654,1.284-1.556,2.159c0.115,1.009,0.443,2.384,1.851,2.448
			C326.892,69.215,326.744,67.864,326.745,66.506z M383.637,38.959c-1.549-0.416-2.039,0.746-2.195,1.998
			c-0.126,1.023,0.633,1.605,1.628,1.455c1.26-0.189,2.792-0.342,2.922-1.996C386.105,38.955,384.876,38.92,383.637,38.959z
			 M340.697,124.735c-0.007-1.225,0.211-2.595-1.48-2.6c-1.47-0.005-1.337,1.204-1.456,2.271c-0.171,1.544,0.575,2.559,1.909,2.585
			C341.22,127.022,340.516,125.518,340.697,124.735z M147.102,196.975c-0.31,1.137,0.627,2.193,1.487,2.208
			c1.033,0.02,1.946-1.12,1.945-2.331c-0.001-1.173-0.836-1.979-1.99-2.039C147.256,194.746,147.041,195.741,147.102,196.975z
			 M304.495,201.396c-1.209-1.568-2.648-2.632-4.741-2.68c-0.419-0.01-1.198-0.282-1.096,0.101c0.347,1.308,1.489,1.92,2.711,2.404
			c0.589,0.234,1.033,0.851,1.626,1.056C303.681,202.514,304.221,202.102,304.495,201.396z M319.205,90.692
			c-1.17-0.008-1.76,0.518-1.77,1.708c-0.009,1.175,0.585,2.112,1.655,2.041c0.92-0.061,1.957-0.632,1.858-2.04
			C320.867,91.221,320.34,90.682,319.205,90.692z M228.568,10.155c2.318,0.079,2.793-2.126,4.21-3.152
			c0.438-0.318,1.4-0.843,0.729-1.538c-0.634-0.657-1.322-0.045-1.967,0.458C230.128,7.026,229.976,9.003,228.568,10.155z
			 M278.597,191.938c0.413,0.929,0.929,1.237,1.511,1.069c0.858-0.248,1.459,2.067,2.087,0.422c0.396-1.034-1.292-1.178-2.142-1.529
			C279.665,191.74,279.141,191.913,278.597,191.938z M285.398,194.858c0.117-0.447-0.133-0.594-0.43-0.624
			c-0.167-0.018-0.349,0.104-0.524,0.164c0.242,0.269,0.483,0.537,0.725,0.806C285.259,195.069,285.35,194.933,285.398,194.858z"/>
		<path style="fill-rule:evenodd;clip-rule:evenodd;fill:#7B491E;" d="M106.396,113.075c-0.11,4.317-3.84,10.112-9.443,9.634
			c-5.193-0.444-9.756,0.974-13.087,5.318c-0.693,0.904-1.577,1.486-2.796,1.806c-2.208,0.58-3.016,2.874-4.544,4.272
			c-3.612,3.304-6.024,7.587-9.5,11.016c-1.406,1.386-2.153,4.131-2.277,6.017c-0.305,4.642-1.979,8.716-3.457,12.951
			c-0.485,1.392-0.085,3.068-0.264,4.595c-0.516,4.404,1.221,8.971-1.071,13.27c-0.555,1.041,0.726,1.667,1.364,2.321
			c4.165,4.278,4.319,5.013,1.274,10.339c-0.762,1.332-0.122,1.979,0.697,2.674c2.849,2.415,4.467,5.127,3.665,9.172
			c-0.545,2.747-0.1,5.521,1.57,8.16c1.904,3.009,3.309,6.404,2.953,10.144c-0.132,1.384,0.823,2.439,1.465,2.927
			c2.689,2.034,4.637,4.884,7.631,6.584c1.958,1.112,4.086,0.268,6.104,1.08c2.13,0.858,3.896,1.638,4.303,4.159
			c0.553,3.431,3.866,3.812,6.154,5.184c2.051,1.23,4.086,2.587,6.561,3.143c1.274,0.286,2.601,1.033,3.599,2.162
			c3.037,3.435,7.084,4.559,11.473,4.608c1.366,0.016,2.849,0.026,3.849,0.716c1.827,1.259,3.358,1.225,5.274,0.301
			c1.547-0.746,2.671,0.557,3.446,1.657c1.47,2.089,3.43,2.812,5.836,2.591c2.793-0.256,5.566,0.446,8.398-1.013
			c2.415-1.243,5.603,1.607,6.53,5.188c0.521,2.011-1.146,3.856-3.948,4.552c-5.883,1.461-11.858,2.526-17.774,3.812
			c-3.37,0.732-7.23-0.026-10.704-0.831c-2.006-0.464-4.047-1.011-5.879-0.551c-4.019,1.008-7.749,0.336-11.304-1.29
			c-3.424-1.566-6.742-3.063-10.644-2.324c-1.27,0.241-2.009-0.967-2.926-1.539c-3.713-2.32-7.083-5.255-11.693-5.797
			c-1.803-0.212-2.978-1.398-4.111-2.797c-3.094-3.82-6.422-7.41-11.233-9.172c-0.688-0.253-1.455-0.66-1.872-1.226
			c-3.185-4.321-8.018-6.438-12.28-9.313c-0.308-0.208-0.674-0.431-1.026-0.454c-4.195-0.284-5.574-3.422-6.519-6.719
			c-1.006-3.511-3.964-5.296-6.206-7.706c-2.858-3.073-3.56-6.105-1.748-9.812c0.438-0.895,0.01-1.163-0.383-1.69
			c-2.127-2.851-2.466-5.801-0.484-8.899c0.196-0.307,0.781-0.74,0.237-1.206c-2.827-2.416-2.152-7.646-6.844-8.542
			c-1.596-0.305-2.083-1.815-2.51-2.853c-1.776-4.318,0.58-10.498,4.562-12.72c2.238-1.249,3.154-3.949,1.907-6.65
			c-1.779-3.855-0.792-5.149,2.8-7.304c1.475-0.884,2.523-1.421,1.803-3.704c-0.667-2.115-0.271-4.608-0.125-6.922
			c0.097-1.55,1.929-2.04,2.553-3.136c2.013-3.539,5.867-5.345,7.898-8.828c0.379-0.65,1.344-1.279,2.09-1.347
			c6.051-0.549,9.44-4.105,11.292-9.576c0.399-1.179,1.645-1.536,2.607-2.128c2.816-1.734,5.93-2.968,8.424-5.254
			c0.873-0.801,1.919-1.894,3.162-1.717c4.508,0.641,7.592-2.233,11.201-4.032c6.536-3.258,13.269-6.132,20.63-7.059
			C105.247,109.041,106.395,110.345,106.396,113.075z"/>
		<path style="fill-rule:evenodd;clip-rule:evenodd;fill:#7B491E;" d="M226.745,64.661c0.14,1.866-1.206,2.566-2.519,3.417
			c-2.245,1.454-2.106,2.649,0.309,3.815c2.522,1.217,3.158,2.818,1.517,6.168c-0.744,1.521-0.266,3.646-1.979,4.59
			c-2.31,1.272-2.542-1.428-3.788-2.206c-4.166-2.601-4.171-3.795-1.477-7.896c1.377-2.097-0.72-4.014-1.806-5.792
			c-1.715-2.811-0.912-5.729,2.059-7.048C222.429,58.214,226.826,61.048,226.745,64.661z"/>
		<path style="fill-rule:evenodd;clip-rule:evenodd;fill:#7B491E;" d="M226.079,16.39c3.293-1.761,6.711-1.967,9.434-3.911
			c1.065-0.76,1.827-0.018,2.418,0.785c2.126,2.891,0.811,8.716-2.354,10.556c-2.555,1.485-4.545,0.871-5.915-1.825
			c-1.417-2.791-1.848-2.848-3.501-0.462c-0.859,1.241-1.883,2.718-3.51,1.867c-1.882-0.984-2.289-4.034-1.343-5.52
			c0.992-1.559,2.489-2.66,3.476-4.151c0.524-0.792,1.15-1.526,1.827-1.19c1.237,0.614-0.126,1.353-0.232,2.061
			C226.311,15.049,226.229,15.495,226.079,16.39z"/>
		<path style="fill-rule:evenodd;clip-rule:evenodd;fill:#7B491E;" d="M335.085,224.063c0.571,1.361-0.658,0.996-0.997,0.892
			c-1.064-0.328-2.396-0.573-3.037-1.34c-1.913-2.289-4.689-2.726-7.114-3.948c-1.408-0.71-2.821-2.136-3.58-3.332
			c-2.038-3.217-5.557-3.59-8.357-5.245c-2.588-1.529-4.188-3.713-5.511-6.232c-0.147-0.28-0.08-0.778,0.07-1.086
			c0.236-0.487,0.631-0.215,0.961-0.018c3.451,2.062,7.59,2.568,10.521,6.066c1.708,2.037,5.255,2.595,7.654,4.462
			c1.77,1.379,3.684,2.599,5.637,3.706C333.766,219.367,333.794,222.066,335.085,224.063z"/>
		<path style="fill-rule:evenodd;clip-rule:evenodd;fill:#7B491E;" d="M217.368,50.274c0.008-3.51,2.429-5.406,3.937-7.596
			c1.011-1.468,5.62,0.755,6.547,3.423c0.809,2.325,3.271,4.359,1.819,7.244c-1.22,2.422-3.472,3.667-5.79,4.754
			c-0.441,0.208-1.399,0.134-1.64-0.178C220.325,55.431,217.787,53.285,217.368,50.274z"/>
		<path style="fill-rule:evenodd;clip-rule:evenodd;fill:#7B491E;" d="M232.558,30.061c-0.105,0.665,0.3,1.527-0.49,2.072
			c-1.729,1.192-2.032,3.107-2.362,4.922c-0.165,0.905-0.424,1.09-1.266,1.429c-1.368,0.551-0.836-0.618-1.212-0.885
			c-1.288-0.917-2.763-1.478-4.417-1.574c-2.941-0.171-3.41-1.043-2.086-3.593c1.854-3.57,6.711-5.943,10.426-5.094
			C232.428,27.629,232.567,27.895,232.558,30.061z"/>
		<path style="fill-rule:evenodd;clip-rule:evenodd;fill:#7B491E;" d="M398.22,41.933c-0.541,1.072-1.453,1.588-2.958,1.33
			c-1.311-0.225-2.685-0.332-3.999-0.192c-1.246,0.133-2.958,0.307-1.396,2.346c0.661,0.864,0.091,1.577-0.586,2.239
			c-0.644,0.63-1.495,0.976-2.001,0.297c-0.947-1.269-1.846-0.666-2.69-0.152c-0.993,0.604-1.906,1.051-3.003,0.332
			c-0.877-0.574-1.078-1.588-0.683-2.289c0.577-1.023,1.256-2.21,2.745-2.236c0.482-0.008,0.966,0.003,1.448-0.004
			c1.568-0.025,3.455,0.56,2.436-2.425c-0.555-1.622,1.41-2.289,2.544-2.97C392.915,36.5,398.156,38.786,398.22,41.933z"/>
		<path style="fill-rule:evenodd;clip-rule:evenodd;fill:#7B491E;" d="M339.119,139.308c0.633-0.835,0.561-1.46-1.032-1.697
			c-0.633-0.094-1.709-1.079-1.37-1.606c1.399-2.175,1.77-4.874,3.337-6.848c0.926-1.166,2.659-0.985,3.521,0.562
			c0.659,1.186,1.479,2.187,2.359,3.194c0.989,1.13-0.166,3.907-1.206,3.375c-2.828-1.446-1.488,2.109-3.01,2.221
			c-0.507,0.037,0.221,0.351,0.411,0.521c1.687,1.501,0.907,3.382,0.59,5.069c-0.12,0.638-1.002,1.52-2.06,1.198
			c-0.911-0.277-0.64-1.182-0.501-1.702C340.589,141.973,338.406,141.212,339.119,139.308z"/>
		<path style="fill-rule:evenodd;clip-rule:evenodd;fill:#7B491E;" d="M253.451,148.43c0.294-1.828,0.237-4.052,2.342-4.731
			c2.322-0.751,3.816,0.64,4.979,2.703c0.755,1.342,1.378,2.629,1.428,4.148c0.061,1.856-0.601,3.49-2.441,4.035
			c-2.161,0.64-4.125,0.048-5.242-2.12C253.877,151.223,253.351,149.909,253.451,148.43z"/>
		<path style="fill-rule:evenodd;clip-rule:evenodd;fill:#7B491E;" d="M226.221,110.462c-2.43,0.019-5.282-2.494-5.288-4.658
			c-0.007-2.797,1.815-5.793,3.529-5.801c2.618-0.014,6.975,4.055,6.898,6.442C231.325,107.576,227.646,110.452,226.221,110.462z"/>
		<path style="fill-rule:evenodd;clip-rule:evenodd;fill:#7B491E;" d="M316.647,82.684c0.126-0.639,0.063-1.231,0.33-1.53
			c1.507-1.686,2.85-3.064,1.176-5.713c-1.005-1.59,0.843-3.284,2.038-4.614c0.733-0.815,1.504-0.593,2.233,0.132
			c0.651,0.647,1.379,1.491,0.534,2.185c-1.696,1.394,0.205,4.41-2.547,5.281c-0.294,0.094,0.107,1.014,0.421,1.532
			c1.256,2.074,0.784,3.717-1.36,4.861c-0.244,0.131-0.646,0.154-0.742,0.345c-0.555,1.087-1.031,2.975-2.448,2.136
			c-1.809-1.071-3.051-3.076-3.989-5.018c-0.327-0.675,0.23-1.694,1.485-0.942C314.572,81.814,315.457,82.134,316.647,82.684z"/>
		<path style="fill-rule:evenodd;clip-rule:evenodd;fill:#7B491E;" d="M221.843,97.092c-2.253,0.008-3.761-2.372-3.819-6.024
			c-0.038-2.372,1.432-3.807,3.951-3.858c2.556-0.052,5.304,2.452,5.351,4.876C227.363,94.054,224.045,97.085,221.843,97.092z"/>
		<path style="fill-rule:evenodd;clip-rule:evenodd;fill:#7B491E;" d="M227.326,117.783c-0.481-2.564,1.35-2.688,3.309-2.667
			c2.764,0.029,5.312,3.094,5.453,6.184c0.109,2.396-1.373,3.379-3.186,3.62C229.99,125.306,227.313,121.796,227.326,117.783z"/>
		<path style="fill-rule:evenodd;clip-rule:evenodd;fill:#7B491E;" d="M76.192,92.188c-0.109,1.674-0.955,3.002-2.759,3.962
			c-2.009,1.07-2.441-0.791-3.491-1.518c-0.311-0.215-0.53-0.558-0.82-0.809c-1.612-1.393-2.261-3.291-1.482-5.125
			c0.763-1.795,2.668-2.174,4.616-2.094c2.252,0.093,2.953,1.568,3.576,3.378C76.062,90.648,76.104,91.263,76.192,92.188z"/>
		<path style="fill-rule:evenodd;clip-rule:evenodd;fill:#7B491E;" d="M337.243,129.915c0.169,1.312-0.538,1.918-1.69,2.261
			c-1.289,0.383-1.866-0.837-2.047-1.406c-0.673-2.127-0.974-3.826-3.952-2.107c-1.573,0.908-2.429-1.046-2.746-2.451
			c-0.319-1.419,0.142-2.237,1.931-1.954c1.582,0.25,0.288-0.887,0.271-1.166c-0.09-1.38,0.204-2.66,1.472-3.15
			c1.225-0.475,1.986,0.922,2.352,1.664c1.237,2.515,2.009,5.264,4.248,7.198C337.295,128.989,337.196,129.535,337.243,129.915z
			 M330.8,124.898c-0.223,0.266-0.489,0.445-0.492,0.628c-0.002,0.195,0.213,0.524,0.389,0.565c0.405,0.095,0.722-0.135,0.634-0.589
			C331.293,125.306,331.032,125.151,330.8,124.898z"/>
		<path style="fill-rule:evenodd;clip-rule:evenodd;fill:#7B491E;" d="M266.864,157.59c0.004-0.871-0.114-1.762,0.029-2.608
			c0.268-1.58,1.467-2.592,2.863-1.976c2.097,0.926,3.953,2.53,4.571,4.844c0.305,1.145,0.678,2.771-0.774,3.709
			c-1.446,0.934-3.069,1.886-4.754,1.01c-1.371-0.713-2.326-2.012-1.951-3.819C266.927,158.378,266.86,157.978,266.864,157.59z"/>
		<path style="fill-rule:evenodd;clip-rule:evenodd;fill:#7B491E;" d="M116.517,83.141c1.902-0.028,3.549,2.022,3.202,4.154
			c-0.282,1.735-0.579,3.502-1.184,5.139c-0.534,1.446-1.553,2.374-3.303,1.202c-3.061-2.049-3.24-7.9-0.299-10.044
			C115.464,83.204,115.95,83.152,116.517,83.141z"/>
		<path style="fill-rule:evenodd;clip-rule:evenodd;fill:#7B491E;" d="M136.039,52.055c-0.002,3.509-2.958,6.032-6.422,5.48
			c-1.837-0.293-2.924-3.919-1.673-5.533c1.289-1.661,3.281-2.22,5.042-3.049C134.329,48.32,136.04,50.21,136.039,52.055z"/>
		<path style="fill-rule:evenodd;clip-rule:evenodd;fill:#7B491E;" d="M371.162,47.119c0.588,0.267,1.762-0.658,2.041,0.647
			c0.239,1.118-0.028,2.011-1.474,2.278c-1.345,0.249-1.207,1.274-0.827,2.328c0.346,0.956,0.625,1.928-0.581,2.618
			c-1.204,0.688-2.379-0.058-2.729-0.732c-0.81-1.56-1.569-1.423-2.954-0.858c-1.338,0.547-2.732-0.307-2.849-1.587
			c-0.086-0.956,0.46-2.561,2.186-2.381c1.558,0.163,2.818-0.661,3.88-1.466C368.901,47.173,369.886,47.039,371.162,47.119z"/>
		<path style="fill-rule:evenodd;clip-rule:evenodd;fill:#7B491E;" d="M127.622,103.035c1.631-0.01,3.644,3.621,3.782,6.695
			c0.084,1.883-1.42,2.544-2.642,2.891c-1.428,0.405-5.469-3.766-5.499-5.306C123.231,105.674,125.908,103.045,127.622,103.035z"/>
		<path style="fill-rule:evenodd;clip-rule:evenodd;fill:#7B491E;" d="M337.203,89.061c-0.278,3.252-0.3,6.539-1.707,9.621
			c-0.432,0.946-0.965,1.601-1.876,1.24c-0.953-0.378-2.257-1.433-1.531-2.364c2.147-2.758,0.324-5.785,0.936-8.637
			c0.322-1.499-0.471-3.401,1.915-3.4C337.197,85.522,337.315,87.314,337.203,89.061z"/>
		<path style="fill-rule:evenodd;clip-rule:evenodd;fill:#7B491E;" d="M253.371,142.232c-1.191,2.664-3.912,0.801-5.753,1.848
			c-0.935,0.533-3.346-3.304-2.704-5.06c0.637-1.743,1.792-3.43,4.379-3.028C251.48,136.332,253.495,139.108,253.371,142.232z"/>
		<path style="fill-rule:evenodd;clip-rule:evenodd;fill:#7B491E;" d="M117.541,69.743c1.838,0.297,3.432,1.444,3.198,2.819
			c-0.306,1.797-0.13,3.583-0.441,5.331c-0.369,2.069-2.098,2.719-3.588,1.259c-2.703-2.648-4.301-7.236-0.012-8.964
			C117.036,70.051,117.347,69.846,117.541,69.743z"/>
		<path style="fill-rule:evenodd;clip-rule:evenodd;fill:#7B491E;" d="M116.863,98.412c0.104-1.465,0.428-3.324,3.334-3.091
			c2.149,0.172,4.309,2.928,4.221,5.652c-0.058,1.792-1.035,2.563-2.761,2.514C118.742,103.404,116.85,101.668,116.863,98.412z"/>
		<path style="fill-rule:evenodd;clip-rule:evenodd;fill:#7B491E;" d="M261.771,199.944c-0.267,1.967-0.148,3.989-2.77,3.514
			c-1.696-0.309-1.273-2.09-1.847-3.161c-0.651-1.216-0.028-2.625,0.93-3.29c0.824-0.57,1.873-1.452,3.294-0.634
			c0.914,0.527,1.647,1.428,3.011,1.395c1.406-0.034,2.245,1.123,2.47,2.569c0.201,1.287-0.619,2.118-1.566,2.48
			c-1.535,0.588-1.732-1.04-2.417-1.841C262.634,200.693,262.331,200.462,261.771,199.944z"/>
		<path style="fill-rule:evenodd;clip-rule:evenodd;fill:#7B491E;" d="M245.349,129.894c0.004,3.058-0.728,3.85-3.533,3.827
			c-1.769-0.015-3.965-2.043-4.016-3.71c-0.052-1.677,2.698-4.386,4.498-4.429C244.664,125.524,245.345,126.487,245.349,129.894z"/>
		<path style="fill-rule:evenodd;clip-rule:evenodd;fill:#7B491E;" d="M67.751,77.906c2.788-0.216,3.508,1.645,3.722,3.754
			c0.184,1.807-2.749,4.538-4.912,4.26c-2.123-0.272-2.641-2.2-2.6-4.142C64.015,79.222,65.375,77.884,67.751,77.906z"/>
		<path style="fill-rule:evenodd;clip-rule:evenodd;fill:#7B491E;" d="M134.908,112.234c1.117,0.087,1.811,1.179,1.733,3.012
			c-0.099,2.304-1.852,5.085-3.299,5.095c-1.701,0.011-4.359-2.782-4.261-4.478C129.194,113.927,131.653,112.137,134.908,112.234z"
			/>
		<path style="fill-rule:evenodd;clip-rule:evenodd;fill:#7B491E;" d="M350.595,50.648c-0.067-1.067,0.297-1.675,1.074-2.459
			c1.905-1.924,4.531-1.613,6.687-2.659c0.816-0.396,1.7,0.244,2.025,0.964c0.288,0.64,0.255,1.532-0.538,2.068
			c-2.062,1.393-4.441,2.344-5.854,4.626c-0.38,0.613-1.459,0.494-2.132,0.058C350.926,52.643,350.313,51.793,350.595,50.648z"/>
		<path style="fill-rule:evenodd;clip-rule:evenodd;fill:#7B491E;" d="M57.558,66.576c-0.004,2.153-1.696,3.774-3.999,3.765
			c-2.476-0.009-3.593-1.336-3.565-3.764c0.026-2.265,1.535-3.871,3.615-3.784C55.449,62.87,57.561,64.893,57.558,66.576z"/>
		<path style="fill-rule:evenodd;clip-rule:evenodd;fill:#7B491E;" d="M18.024,77.179c-0.083-2.349,2.449-4.94,4.81-5.109
			c1.987-0.142,2.508,1.249,2.686,2.628c0.237,1.841-2.924,5.406-4.622,5.533C19.137,80.363,18.097,79.259,18.024,77.179z"/>
		<path style="fill-rule:evenodd;clip-rule:evenodd;fill:#7B491E;" d="M63.003,69.187c1.834-0.164,3.506,0.341,3.808,2.552
			c0.256,1.875-2.503,4.412-4.538,4.421c-1.484,0.006-3.567-2.225-3.552-3.805C58.74,70.352,60.278,69.175,63.003,69.187z"/>
		<path style="fill-rule:evenodd;clip-rule:evenodd;fill:#7B491E;" d="M138.841,122.688c1.107,0.836,2.681,0.377,4.152,0.621
			c1.603,0.265,1.959,1.851,2.055,3.045c0.074,0.938-0.294,1.988-1.876,2.443c-4.095,1.178-5.371,0.681-6.361-3.378
			C136.416,123.8,137.156,122.635,138.841,122.688z"/>
		<path style="fill-rule:evenodd;clip-rule:evenodd;fill:#7B491E;" d="M327.907,115.503c-0.024,0.845,0.233,1.83-0.745,2.307
			c-0.929,0.453-1.706,0.158-2.604-0.445c-2.089-1.401-3.928-2.72-2.296-5.606c0.609-1.08-1.149-1.524-0.796-2.702
			c0.259-0.868-0.205-1.992,0.889-2.537c0.527-0.263,1.206-0.259,1.559,0.283c0.545,0.838,1.616,1.791,0.922,2.771
			c-1.487,2.103-0.256,2.878,1.456,3.155C328.187,113.036,327.869,114.296,327.907,115.503z"/>
		<path style="fill-rule:evenodd;clip-rule:evenodd;fill:#7B491E;" d="M18.039,81.212c-0.077,2.666-2.323,6.053-3.959,6.001
			c-2.52-0.08-2.673-2.21-2.942-3.819c-0.307-1.826,2.508-5.088,3.979-4.852C16.542,78.771,18.096,79.216,18.039,81.212z"/>
		<path style="fill-rule:evenodd;clip-rule:evenodd;fill:#7B491E;" d="M34.83,69.335c0.547,2.597-1.281,3.779-3.044,4.876
			c-0.841,0.523-1.852,0.377-2.574-0.526c-0.91-1.137-1.684-2.274-1.097-3.86c0.896-2.419,3.05-3.089,5.164-3.232
			C34.632,66.501,35.105,67.965,34.83,69.335z"/>
		<path style="fill-rule:evenodd;clip-rule:evenodd;fill:#7B491E;" d="M125.569,61.205c0.086,1.764-2.326,5.037-3.856,5.05
			c-2.691,0.024-2.71-2.281-3.043-4c-0.312-1.613,2.687-4.106,4.563-4.079C124.146,58.189,125.508,59.955,125.569,61.205z"/>
		<path style="fill-rule:evenodd;clip-rule:evenodd;fill:#7B491E;" d="M81.943,100.813c0.232,2.311-0.235,3.878-2.943,3.862
			c-3.035-0.019-3.017-2.592-3.313-4.321c-0.564-3.299,2.737-2.862,4.321-3.038C82.097,97.084,82.086,99.264,81.943,100.813z"/>
		<path style="fill-rule:evenodd;clip-rule:evenodd;fill:#7B491E;" d="M342.93,152.985c0.722,1.659-0.668,2.66-1.354,3.824
			c-0.247,0.42-0.935,0.436-0.279,1.088c1.038,1.033,0.739,2.004-0.474,2.487c-1.267,0.505-2.394-0.222-2.839-1.341
			c-0.406-1.021-0.632-2.386,0.236-3.295c0.801-0.839,0.899-1.766,0.695-2.663c-0.45-1.974,1.247-3.174,2.191-3.221
			C342.25,149.806,343.598,151.156,342.93,152.985z"/>
		<path style="fill-rule:evenodd;clip-rule:evenodd;fill:#7B491E;" d="M338.078,74.256c1.646,1.387,4.136-0.071,5.46,2.076
			c0.43,0.697,1.005,1.329,0.406,2.004c-0.521,0.586-0.869,1.824-2.242,0.955c-0.77-0.487-1.95-0.554-2.719,0.103
			c-0.917,0.784-1.607,1.218-2.692,0.255c-1.051-0.933-1.093-2.112-0.666-3.132C336.044,75.517,336.967,74.718,338.078,74.256z"/>
		<path style="fill-rule:evenodd;clip-rule:evenodd;fill:#7B491E;" d="M139.91,202.308c-0.679-0.788-1.424-0.162-1.782,0.1
			c-1.715,1.257-2.629,0.052-3.146-1.143c-0.581-1.344,0.299-2.521,1.587-2.925c0.911-0.287,1.706-0.764,2.58-1.056
			c0.872-0.291,1.974-0.638,2.648,0.255c0.848,1.122,0.891,2.542,0.516,3.844C141.958,202.618,140.814,202.292,139.91,202.308z"/>
		<path style="fill-rule:evenodd;clip-rule:evenodd;fill:#7B491E;" d="M2.33,89.962c-0.218-1.384,0.073-2.934,1.762-3.237
			c1.644-0.296,2.198,1.116,2.412,2.549c0.025,0.169,0.29,0.308,0.308,0.475c0.156,1.474,1.705,2.945-0.083,4.434
			c-0.8,0.666-1.385,0.601-2.304,0.185C2.487,93.49,2.282,91.916,2.33,89.962z"/>
		<path style="fill-rule:evenodd;clip-rule:evenodd;fill:#7B491E;" d="M334.881,114.689c-0.47-1.837,1.445-2.364,2.383-2.131
			c2.348,0.583,2.734,3.029,3.394,5c0.433,1.291-0.453,2.364-1.58,2.693C337.574,120.689,334.921,117.178,334.881,114.689z"/>
		<path style="fill-rule:evenodd;clip-rule:evenodd;fill:#7B491E;" d="M130.361,206.924c-1.195-0.265-2.463-1.209-2.469-3.43
			c-0.004-1.658,0.53-2.805,2.348-2.899c1.388-0.072,4.238,2.981,3.878,4.397C133.783,206.309,132.646,207.065,130.361,206.924z"/>
		<path style="fill-rule:evenodd;clip-rule:evenodd;fill:#7B491E;" d="M374.238,43.125c-1.306,0.432-2.153-0.777-2.636-2.174
			c-0.346-1.001,2.6-3.197,4.202-3.14c1.557,0.057,3.405,0.355,3.176,2.346C378.728,42.345,376.78,42.924,374.238,43.125z"/>
		<path style="fill-rule:evenodd;clip-rule:evenodd;fill:#7B491E;" d="M41.279,64.902c-0.38-1.702,0.505-2.79,2.383-2.638
			c1.655,0.134,2.876,1.221,3.164,2.939c0.223,1.332-2.146,4.01-3.323,3.947C42.143,69.077,41.278,67.515,41.279,64.902z"/>
		<path style="fill-rule:evenodd;clip-rule:evenodd;fill:#7B491E;" d="M354.652,56.579c-0.151-1.755,0.959-2.056,2.391-1.921
			c1.737,0.164,4.305,3.788,4.01,5.539c-0.179,1.065-0.767,1.463-1.782,1.433C358.178,61.596,354.631,57.773,354.652,56.579z"/>
		<path style="fill-rule:evenodd;clip-rule:evenodd;fill:#7B491E;" d="M281.358,197.198c-0.854,1.369-0.226,3.719-2.614,3.935
			c-1.137,0.103-3.339-2.72-3.133-3.975c0.343-2.085,2.17-3.196,3.738-3.293C280.787,193.776,280.783,196.011,281.358,197.198z"/>
		<path style="fill-rule:evenodd;clip-rule:evenodd;fill:#7B491E;" d="M164.496,198.821c-1.875,0.146-3.423-0.239-3.387-2.268
			c0.029-1.668,0.487-3.896,2.472-3.842c1.958,0.054,2.968,2.041,3.258,3.992C167.122,198.615,165.938,199.024,164.496,198.821z"/>
		<path style="fill-rule:evenodd;clip-rule:evenodd;fill:#7B491E;" d="M255.293,201.257c-1.611,0.987,0.862,4.546-2.4,4.418
			c-1.969-0.078-2.013-2.621-2.226-4.192c-0.247-1.829,1.034-3.134,2.883-3.162C255.188,198.294,255.115,199.834,255.293,201.257z"
			/>
		<path style="fill-rule:evenodd;clip-rule:evenodd;fill:#7B491E;" d="M289.521,200.458c0.139,1.188-0.013,2.213-1.5,2.579
			c-1.626,0.4-1.668-1.002-2.207-1.821c-0.358-0.545-0.81-1.138-0.871-1.745c-0.138-1.373-0.041-2.966,1.446-3.476
			c1.931-0.661,2.706,0.83,3.104,2.402C289.655,199.029,289.521,199.736,289.521,200.458z"/>
		<path style="fill-rule:evenodd;clip-rule:evenodd;fill:#7B491E;" d="M294.126,206.889c-0.277-1.425,1.316-2.205,2.403-2.071
			c1.501,0.185,3.018,1.078,2.93,3.236c-0.062,1.533-0.497,2.936-2.043,2.898C295.385,210.904,294.312,209.409,294.126,206.889z"/>
		<path style="fill-rule:evenodd;clip-rule:evenodd;fill:#7B491E;" d="M336.529,58.403c0.844-1.274,0.708-2.705,2.408-2.612
			c1.263,0.069,1.72,0.925,2.377,1.768c0.842,1.082-0.182,1.487-0.562,2.103c-0.818,1.326-1.649,1.367-2.478-0.047
			c-0.493-0.841-1.375-1.401-2.082-0.538c-1.151,1.407-2.168,1.073-2.868-0.125c-0.381-0.652-0.799-2.067,0.419-2.466
			C335.017,56.068,336.432,56.156,336.529,58.403z"/>
		<path style="fill-rule:evenodd;clip-rule:evenodd;fill:#7B491E;" d="M183.137,203.526c0.392,1.253-1.059,1.055-1.467,1.721
			c-0.565,0.925-1.459,0.113-1.636-0.094c-1.211-1.423-2.623-2.759-3.222-4.577c-0.178-0.542-0.533-1.565,0.771-1.753
			C179.073,198.607,183.137,201.933,183.137,203.526z"/>
		<path style="fill-rule:evenodd;clip-rule:evenodd;fill:#7B491E;" d="M188.948,204.624c0.113,1.333-0.112,2.434-1.921,2.362
			c-2.062-0.082-3.032-1.238-3.306-3.158c-0.236-1.652,1.387-3.152,2.009-2.98C187.334,201.29,189.131,202.249,188.948,204.624z"/>
		<path style="fill-rule:evenodd;clip-rule:evenodd;fill:#7B491E;" d="M331.978,63.183c-0.006,2.467-0.556,3.478-1.768,3.323
			c-2.082-0.266-2.608-2.001-2.817-3.605c-0.215-1.653,1.146-2.903,2.542-2.901C331.912,60.002,332.13,61.759,331.978,63.183z"/>
		<path style="fill-rule:evenodd;clip-rule:evenodd;fill:#7B491E;" d="M340.981,74.125c-0.403-0.593-1.164-1.273-1.354-2.087
			c-0.309-1.327,2.064-4.583,3.187-4.533c1.061,0.047,1.727,0.834,1.915,1.819C345.025,70.87,342.776,73.895,340.981,74.125z"/>
		<path style="fill-rule:evenodd;clip-rule:evenodd;fill:#7B491E;" d="M174.996,200.118c0.215,1.38-1.038,1.691-1.912,1.973
			c-0.92,0.297-3.994-2.676-3.822-3.672c0.207-1.201,1.039-1.963,2.392-1.905C173.161,196.577,175.021,198.533,174.996,200.118z"/>
		<path style="fill-rule:evenodd;clip-rule:evenodd;fill:#7B491E;" d="M305.771,212.322c0.2,1.803-0.31,3.275-1.848,3.249
			c-2.158-0.036-2.392-2.19-2.491-3.734c-0.064-0.995,0.524-2.685,2.075-2.425C305.051,209.669,306.492,210.517,305.771,212.322z"/>
		<path style="fill-rule:evenodd;clip-rule:evenodd;fill:#7B491E;" d="M318.828,102.783c-1.22-0.325-1.552-2.183-1.87-3.681
			c-0.298-1.393,1.442-1.96,2.306-1.871c1.766,0.183,2.508,1.964,2.664,3.416C322.024,101.55,321.378,103.135,318.828,102.783z"/>
		<path style="fill-rule:evenodd;clip-rule:evenodd;fill:#7B491E;" d="M157.614,196.431c-0.123,1.921-0.032,3.497-1.85,3.516
			c-1.811,0.019-2.258-1.3-2.313-2.963c-0.058-1.771,1.111-3.147,2.285-3.184C157.372,193.749,157.833,195.437,157.614,196.431z"/>
		<path style="fill-rule:evenodd;clip-rule:evenodd;fill:#7B491E;" d="M333.851,103.456c2,0.28,2.476,1.913,2.445,3.422
			c-0.019,0.963-0.157,2.645-2.049,2.425c-1.996-0.232-2.41-1.555-2.265-3.253C332.086,104.842,332.13,103.562,333.851,103.456z"/>
		<path style="fill-rule:evenodd;clip-rule:evenodd;fill:#7B491E;" d="M343.991,49.972c1.098,0.484,2.41,1.213,2.438,2.611
			c0.032,1.676-1.629,2.443-2.92,2.506c-1.283,0.062-2.673-1.173-2.622-2.467C340.943,51.211,342.283,50.293,343.991,49.972z"/>
		<path style="fill-rule:evenodd;clip-rule:evenodd;fill:#7B491E;" d="M292.075,198.484c1.825,0.373,2.966,1.68,3.11,3.086
			c0.129,1.242-1.175,2.282-2.631,2.487c-1.721,0.242-2.337-1.326-2.272-2.285C290.363,200.573,290.644,198.966,292.075,198.484z"/>
		<path style="fill-rule:evenodd;clip-rule:evenodd;fill:#7B491E;" d="M377.234,48.305c1.085,0.488,2.476,1.193,2.368,3.008
			c-0.054,0.912-0.127,2.347-1.597,2.113c-1.697-0.27-2.908-1.435-2.929-3.208C375.067,49.358,375.361,48.081,377.234,48.305z"/>
		<path style="fill-rule:evenodd;clip-rule:evenodd;fill:#7B491E;" d="M367.519,42.457c1.241-0.468,2.16,0.547,2.087,1.458
			c-0.117,1.459-1.207,2.446-2.874,2.62c-1.458,0.152-2.533-0.681-2.373-1.796C364.55,43.398,365.673,42.29,367.519,42.457z"/>
		<path style="fill-rule:evenodd;clip-rule:evenodd;fill:#7B491E;" d="M350.571,71.46c-0.448,0.736-0.417,2.044-1.953,1.797
			c-1.719-0.277-2.376-1.682-2.534-3.007c-0.081-0.676,0.537-2.527,1.744-2.079C349.073,68.633,350.542,69.543,350.571,71.46z"/>
		<path style="fill-rule:evenodd;clip-rule:evenodd;fill:#7B491E;" d="M268.023,197.189c-0.053-1.329,0.607-1.979,1.913-1.822
			c1.263,0.15,2.259,0.893,2.08,2.199c-0.163,1.188-1.091,1.941-2.461,1.854C268.078,199.326,267.968,198.324,268.023,197.189z"/>
		<path style="fill-rule:evenodd;clip-rule:evenodd;fill:#7B491E;" d="M326.745,66.506c-0.001,1.357,0.146,2.708-1.546,2.632
			c-1.407-0.064-1.735-1.439-1.851-2.448c-0.099-0.875,0.069-2.119,1.556-2.159C326.469,64.489,326.869,65.371,326.745,66.506z"/>
		<path style="fill-rule:evenodd;clip-rule:evenodd;fill:#7B491E;" d="M383.637,38.959c1.239-0.04,2.469-0.004,2.354,1.457
			c-0.13,1.654-1.662,1.807-2.922,1.996c-0.995,0.15-1.754-0.432-1.628-1.455C381.598,39.705,382.088,38.543,383.637,38.959z"/>
		<path style="fill-rule:evenodd;clip-rule:evenodd;fill:#7B491E;" d="M340.697,124.735c-0.182,0.782,0.522,2.287-1.027,2.256
			c-1.334-0.026-2.08-1.041-1.909-2.585c0.119-1.068-0.014-2.276,1.456-2.271C340.908,122.14,340.69,123.51,340.697,124.735z"/>
		<path style="fill-rule:evenodd;clip-rule:evenodd;fill:#7B491E;" d="M147.102,196.975c-0.061-1.234,0.154-2.229,1.442-2.162
			c1.154,0.061,1.989,0.866,1.99,2.039c0.001,1.211-0.912,2.351-1.945,2.331C147.729,199.168,146.792,198.112,147.102,196.975z"/>
		<path style="fill-rule:evenodd;clip-rule:evenodd;fill:#7B491E;" d="M304.495,201.396c-0.274,0.706-0.814,1.118-1.5,0.881
			c-0.593-0.205-1.037-0.821-1.626-1.056c-1.222-0.484-2.364-1.097-2.711-2.404c-0.103-0.383,0.677-0.11,1.096-0.101
			C301.847,198.764,303.286,199.828,304.495,201.396z"/>
		<path style="fill-rule:evenodd;clip-rule:evenodd;fill:#7B491E;" d="M319.205,90.692c1.135-0.01,1.662,0.529,1.744,1.709
			c0.099,1.408-0.938,1.979-1.858,2.04c-1.07,0.071-1.664-0.866-1.655-2.041C317.445,91.21,318.035,90.684,319.205,90.692z"/>
		<path style="fill-rule:evenodd;clip-rule:evenodd;fill:#7B491E;" d="M228.568,10.155c1.407-1.152,1.56-3.129,2.973-4.232
			c0.645-0.503,1.333-1.115,1.967-0.458c0.671,0.695-0.291,1.22-0.729,1.538C231.361,8.029,230.887,10.234,228.568,10.155z"/>
		<path style="fill-rule:evenodd;clip-rule:evenodd;fill:#7B491E;" d="M278.597,191.938c0.544-0.025,1.068-0.198,1.456-0.038
			c0.85,0.352,2.537,0.495,2.142,1.529c-0.628,1.646-1.229-0.67-2.087-0.422C279.525,193.175,279.01,192.867,278.597,191.938z"/>
		<path style="fill-rule:evenodd;clip-rule:evenodd;fill:#7B491E;" d="M285.398,194.858c-0.049,0.075-0.14,0.211-0.229,0.346
			c-0.241-0.269-0.482-0.537-0.725-0.806c0.176-0.06,0.357-0.182,0.524-0.164C285.266,194.264,285.516,194.411,285.398,194.858z"/>
		<path style="fill-rule:evenodd;clip-rule:evenodd;fill:none;" d="M330.8,124.898c0.232,0.253,0.493,0.408,0.53,0.604
			c0.088,0.454-0.229,0.684-0.634,0.589c-0.176-0.041-0.391-0.37-0.389-0.565C330.311,125.343,330.577,125.165,330.8,124.898z"/>
	</g>
</g>
</svg>
