<?xml version="1.0" encoding="iso-8859-1"?>
<!-- Generator: Adobe Illustrator 16.0.0, SVG Export Plug-In . SVG Version: 6.00 Build 0)  -->
<!DOCTYPE svg PUBLIC "-//W3C//DTD SVG 1.1//EN" "http://www.w3.org/Graphics/SVG/1.1/DTD/svg11.dtd">
<svg version="1.1" id="Layer_1" xmlns="http://www.w3.org/2000/svg" xmlns:xlink="http://www.w3.org/1999/xlink" x="0px" y="0px"
	 width="401.088px" height="216.654px" viewBox="0 0 401.088 216.654" style="enable-background:new 0 0 401.088 216.654;"
	 xml:space="preserve">
<g>
	<g>
		<path style="fill:none;" d="M200.544,216.11c-65.959,0-131.918-0.009-197.877,0.044c-1.768,0.001-2.168-0.398-2.167-2.167
			c0.052-70.44,0.052-140.88,0-211.321C0.499,0.898,0.898,0.499,2.667,0.5c131.918,0.048,263.836,0.048,395.754,0
			c1.769-0.001,2.169,0.397,2.167,2.167c-0.052,70.44-0.052,140.88,0,211.321c0.002,1.768-0.397,2.169-2.167,2.167
			C332.462,216.102,266.504,216.11,200.544,216.11z M283.547,167.465c0.924,0.082,1.861-0.306,2.172-1.011
			c1.545-3.518,3.035-7.143,1.434-11.02c-0.48-1.162-1.264-2.363-3.142-2.131c-1.609,0.198-1.927,1.247-2.33,2.344
			c-0.857,2.333-0.6,4.749-0.256,7.122c0.254,1.754,0.507,3.588,2.162,4.741c-1.501,0.533-3.52,0.329-3.73,2.68
			c-0.187,2.075,0.104,4.175-0.502,6.238c-0.284,0.97,0.543,1.603,1.366,1.899c0.827,0.299,1.465-0.413,1.676-0.987
			c1.155-3.135,4.2-6.119,0.997-9.71C283.389,167.626,283.494,167.522,283.547,167.465z M300.098,186.894
			c-1.125,0.052-1.855-1.121-3.015-0.973c-2.578,0.33-2.26-1.378-2.14-3c0.127-1.718,2.045-2.266,2.46-3.602
			c1.066-3.438,2.966-6.564,1.495-10.715c-0.823-2.323-1.581-3.314-3.726-4.012c-1.585-0.516-2.977-0.619-3.481,0.962
			c-0.493,1.549,1.199,1.63,2.24,1.98c1.186,0.399,1.99,1.049,1.164,2.338c-0.826,1.288-0.573,2.677-0.708,4.05
			c-0.147,1.489,0.117,3.566-1.145,4.239c-2.372,1.265-2.615,3.181-2.571,5.328c0.027,1.408-0.182,2.289-1.854,1.963
			c-0.886-0.172-0.894,0.438-1.094,1.077c-0.551,1.754,1.124,1.49,1.717,1.67c3.237,0.988,6.933-0.091,9.92,2.284
			c0.613,0.487,1.1-0.312,1.158-0.968c0.082-0.92,0.163-1.871-0.475-2.677c1.295,0.212,1.989-0.316,2.784-1.446
			c1.985-2.82,1.222-6.23,2.317-9.243c0.451-1.24,0.896-2.574,1.333-3.853c0.395-1.151,0.164-2.235-0.553-2.727
			c-0.771-0.527-1.703-1.536-2.896-0.926c-1.055,0.54-1.15,1.548-1.087,2.625c0.05,0.836-0.11,1.567-0.57,2.398
			c-0.592,1.067-1.081,2.414-1.203,3.584C299.837,180.442,299.01,183.68,300.098,186.894z M200.613,87.385
			c1.196,0.779,1.592,1.37,0.976,2.632c-1.226,2.509,0.24,6.912,2.536,8.759c0.729,0.587,1.388,0.858,2.3,0.84
			c2.437-0.048,4.877,0.062,7.309-0.047c1.308-0.059,2.455,0.172,3.427,0.999c2.221,1.889,4.004,0.901,4.607-1.852
			c1.067-4.869,0.353-9.745-0.046-14.607c-0.079-0.976-0.761-1.847-1.678-2.4c-2.158-1.305-4.68-1.602-7.022-2.295
			c-3.559-1.051-7.22-1.08-10.733,0.817c-1.728,0.932-2.403,0.256-2.27-1.676c0.076-1.095,0.108-2.203,0.041-3.297
			c-0.17-2.782-3.019-5.436-5.651-5.384c-1.004,0.02-2.404,0.614-2.86,0.326c-1.463-0.924,0.925-1.634,0.509-2.701
			c-0.027-0.068-0.003-0.156-0.003-0.234c0-2.515-0.005-5.031,0.002-7.546c0.004-1.405-1.13-2.551-0.922-3.988
			c0.294-2.035-3.165-5.807-5.219-5.654c-0.231,0.017-0.492-0.005-0.686,0.095c-1.962,1.013-4.147,1.45-6.09,2.572
			c-2.624,1.515-3.639,3.415-2.805,6.393c0.517,1.846-0.329,3.344-1.327,4.575c-1.745,2.152-0.862,5.626,1.934,6.073
			c1.256,0.201,2.524,0.533,4.006,0.249c2.335-0.447,4.866-0.352,7.301,0.04c-0.04,0.309-0.033,0.438-0.061,0.446
			c-2.732,0.777-4.764,2.572-5.508,5.173c-0.718,2.508-2.11,5.274,0.116,7.841c0.154,0.178,0.018,0.381,0.012,0.569
			c-0.096,3.151,1.138,4.011,4.211,3.428c1.969-0.374,4.186-0.972,5.383,1.724c0.386,0.87,1.289,1.637,2.138,2.146
			c1.436,0.858,3.069,1.549,4.717,0.602C201.007,90.994,200.425,89.127,200.613,87.385z M367.398,74.29
			c-1.012,0.76-2.034,1.439-2.952,2.24c-0.964,0.841-1.817,1.808-2.737,2.702c-3.181,3.09-4.514,2.996-6.928-0.557
			c-0.555-0.816-1.413-1.169-2.14-1.727c-1.43-1.094-2.905-0.303-3.68,0.596c-1.043,1.212-1.952,2.896-2.098,4.454
			c-0.42,4.468-1.222,8.92-1.03,13.436c0.05,1.184-0.12,2.261-0.762,3.313c-0.752,1.231-0.534,2.247,1.008,2.754
			c0.641,0.211,1.281,0.513,1.829,0.903c1.535,1.095,3.098,0.593,3.832-0.658c0.788-1.341,1.896-1.747,3.085-2.103
			c2.801-0.839,5.726-0.665,8.57-0.429c1.5,0.125,3.36,0.213,4.429,1.486c1.164,1.386,2.54,1.311,4.017,1.253
			c1.616-0.063,3.306-1.741,3.21-3.307c-0.107-1.78-1.069-2.429-2.924-2.404c-2.795,0.038-3.312-0.522-3.16-3.25
			c0.308-5.556,2.326-10.645,4.738-15.564c0.82-1.671,2.941-1.561,4.027,0.155c0.738,1.168,1.565,2.309,2.621,3.059
			c0.839,0.598,2.155,0.495,3.041-0.46c1.151-1.242,1.407-2.625,0.842-4.263c-0.281-0.815-0.996-1.278-1.191-2.198
			c-0.979-4.61-1.304-9.365-2.828-13.844c-0.694-2.04-0.86-4.291-2.488-6.023c-1.77-1.881-3.354-1.654-4.563,0.728
			c-2.248,4.422-4.929,8.575-7.834,12.606c-2.217,3.075-2.554,3.738,1.186,6.179C366.887,73.611,367.147,74.022,367.398,74.29z
			 M332.622,60.767c-0.009-2.316,0.528-2.628,2.629-2.705c3.307-0.119,6.344,0.519,9.271,2.138c1.04,0.575,2.009,0.954,2.496,2.124
			c0.649,1.559,1.895,2.442,3.47,1.641c1.555-0.791,2.377-2.011,1.687-4.139c-0.695-2.141-2.629-2.275-3.935-3.394
			c-4.101-3.511-7.495-7.732-11.225-11.62c-2.767-2.885-4.495-6.754-8.43-8.548c-1.897-0.866-2.995-0.646-3.883,1.274
			c-2.18,4.717-4.37,9.43-6.592,14.128c-1.39,2.94,0.148,5.425,3.45,5.478c1.414,0.022,2.836-0.077,4.238,0.047
			c0.699,0.062,1.365,0.505,2.045,0.776c-0.431,0.651-0.437,1.411-1.001,2.122c-3.364,4.238-6.223,8.799-8.098,13.932
			c-0.602,1.646-0.293,3.259,1.034,3.881c2.727,1.278,4.505,3.77,7.215,5.039c1.98,0.927,4.194,2.21,4.988,4.111
			c0.858,2.053,1.674,2.59,3.554,1.854c2.207-0.865,3.595-3.041,2.567-4.572c-0.912-1.359-0.633-2.653-0.772-4.003
			c-0.103-0.993,0.129-1.968-0.262-2.993c-1.259-3.299-2.528-6.6-3.158-10.106C333.494,64.909,333.369,62.529,332.622,60.767z
			 M248.605,62.957c0.941-3.26-1.207-6.18-0.964-9.406c0.104-1.387-1.501-1.871-2.815-1.121c-0.636,0.363-1.068,0.976-2.004,0.987
			c-3.462,0.041-6.886-0.185-10.369,0.779c-3.149,0.871-6.789,3.591-3.652,7.928c1.487,2.056,3.77,3.183,5.257,5.176
			c0.41,0.55,1.285,1.023,0.837,1.736c-0.433,0.688-1.435,1.187-2.205,0.78c-0.959-0.506-1.96-0.334-2.921-0.602
			c-2.567-0.717-4.861,1.443-5.063,3.926c-0.303,3.722,0.261,7.458-0.877,11.196c-1.581,5.19,2.055,8.544,7.438,7.262
			c1.834-0.436,3.782-1.424,5.492-1.119c2.802,0.499,4.951-0.549,7.135-1.748c3.835-2.104,5.059-4.3,3.774-6.98
			c-1.391-2.9-3.353-5.407-6.245-7.03c-0.458-0.257-1.515,0.102-1.213-0.935c0.305-1.047,1.753-0.968,2.264-1.965
			c0.1-0.194,0.707-0.015,1.052,0.507c1.098,1.658,2.897,0.933,4.274,0.703c1.204-0.202,1.409-1.687,1.322-2.893
			C248.95,67.744,248.351,65.376,248.605,62.957z M205.733,29.257c0,4.963,1.429,7.141,5.818,8.879
			c0.875,0.346,1.736,0.621,2.584-0.411c1.387-1.688,3.184-1.857,4.89-0.486c0.877,0.704,2.224,0.917,2.525,0.373
			c1.771-3.184,5.592-4.275,7.283-7.571c1.239-2.417,1.753-6.146-1.201-7.698c-0.503-0.264-0.58-0.535-0.694-1.021
			c-1.076-4.606-5.745-7.631-9.877-6.48c-2.795,0.779-5.643,1.61-8.372,2.693c-2.95,1.171-4.931,4.351-3.772,6.964
			C205.666,26.189,205.64,27.757,205.733,29.257z M75.97,73.657c3.254,0.01,4.284-1.63,2.89-4.643
			c-0.288-0.62-0.685-1.189-1.021-1.788c-1.111-1.979-2.481-3.766-3.371-5.932c-0.879-2.14-1.313-4.59-3.175-6.31
			c-1.054-0.973-2.001-2-2.673-3.418c-0.606-1.279-2.227-2.353-3.751-2.334c-1.377,0.017-1.96,1.54-2.536,2.731
			c-0.525,1.085-0.871,2.368-1.678,3.187c-3.935,3.99-5.511,9.31-8.067,14.062c-1.02,1.896,0.9,4.883,2.563,4.367
			c1.637-0.507,3.229-0.284,4.839-0.386c0.62-0.04,1.347,0.12,1.673-0.555c0.818-1.695,1.996-2.048,3.736-1.393
			c0.676,0.254,1.651,0.227,2.306-0.073c1.874-0.859,3.215-0.02,4.542,1.093C73.326,73.172,74.495,73.82,75.97,73.657z
			 M376.403,48.106c0.587-1.259-0.34-2.041-1.212-2.875c-3.437-3.292-6.198-7.176-9.364-10.701
			c-2.305-2.566-4.722-5.074-7.541-7.119c-1.397-1.015-2.73-0.178-2.903,0.965c-0.331,2.192-1.151,4.257-1.156,6.57
			c-0.008,3.914-0.247,7.861-1.27,11.701c-0.493,1.853,0.499,5.623,1.652,6.174c1.736,0.829,3.463,1.224,5.53,0.765
			c4.828-1.072,9.441-3.187,14.53-3.07C376.066,50.549,376.819,49.765,376.403,48.106z M41.723,113.272
			c3.125,0.048,4.816-1.687,4.587-4.395c-0.046-0.552,0.024-1.029,0.442-1.507c1.184-1.353,0.355-2.323-0.822-3.01
			c-0.796-0.464-1.793-0.7-2.261-1.529c-2.171-3.853-4.039-7.903-7.299-11.027c-0.478-0.458-0.333-0.99-0.476-1.494
			c-0.375-1.325-1.002-2.972-2.478-2.737c-1.55,0.247-3.471,0.4-4.304,2.458c-0.427,1.055,0.594,1.693,0.22,2.635
			c-1.726,4.349-1.869,9.272-4.76,13.197c-0.638,0.866-1.405,1.625-1.86,2.632c-0.822,1.824,0.311,4.172,2.279,4.276
			c3.276,0.176,6.474,1.818,9.879,0.098C37.159,111.714,39.676,112.242,41.723,113.272z M47.652,88.439
			c-0.239,0.65,0.615,1.035,1.115,1.597c1.124,1.264,2.711,2.191,3.167,3.945c1.018,3.912,3.422,7.078,5.544,10.381
			c1.253,1.952,2.577,1.736,3.845-0.217c2.441-3.757,4.406-7.815,7.402-11.228c2.776-3.161,5.493-6.393,4.031-11.198
			c-0.588-1.932-2.81-3.671-4.529-2.698c-2.218,1.255-4.612,1.845-6.94,2.715c-3.755,1.402-7.429,2.992-11.402,3.748
			C48.586,85.73,47.753,86.649,47.652,88.439z M151.465,184.75c-1.48,0.27-2.397,0.088-3.382,0.002
			c-2.47-0.216-4.884-2.894-7.482-0.298c-0.125,0.125-0.698-0.162-1.046-0.301c-1.477-0.591-2.804-1.521-4.455-1.727
			c-0.864-0.108-1.16-0.798-1.083-1.715c0.143-1.718,0.263-3.464-1.505-4.59c-0.462-0.294-0.511-0.885-0.284-1.271
			c1.308-2.227,1.663-4.407,0.485-6.881c-0.404-0.849,0.478-1.912,1.325-2.501c0.484-0.337,1.266,0.131,1.289,0.458
			c0.249,3.601,3.681,4.892,5.346,7.459c1.57,2.421,4.84,3.354,5.704,6.588c0.319,1.193,2.253,0.716,2.595-0.794
			c0.438-1.936,0.454-3.775-1.644-5.102c-1.169-0.739-2.808-0.922-3.417-2.487c-0.701-1.801-2.075-2.895-3.825-3.646
			c-0.536-0.23-1.472-0.288-1.329-1.299c0.345-2.441-0.852-3.803-2.969-4.857c-1.75-0.871-1.674-1.856,0.173-2.714
			c1.578-0.733,2.531-1.95,3.433-3.29c0.72-1.07,0.147-1.8-0.591-2.641c-0.884-1.008-1.468-0.287-2.08,0.162
			c-0.931,0.683-1.798,1.451-2.679,2.2c-0.412,0.35-0.747,0.832-1.396,0.674c-0.835-0.203-0.393-0.884-0.487-1.354
			c-0.061-0.304,0.06-0.655-0.039-0.937c-0.68-1.943-2.353-1.546-3.759-1.395c-0.921,0.099-1.331,1.044-0.688,1.775
			c1.241,1.406,0.989,3.154,1.424,4.745c0.318,1.163,0.562,1.97-1.117,1.947c-0.726-0.01-1.042,0.594-1.019,1.32
			c0.016,0.466-0.061,1.012,0.65,0.981c1.933-0.082,2.214,1.588,3.199,2.67c1.599,1.757-0.039,2.469-0.596,3.536
			c-0.343,0.655-0.27,1.353-0.46,1.987c-0.636,2.118,0.239,4.27-0.193,6.323c-0.397,1.888-0.31,3.76-0.155,5.595
			c0.1,1.183,0.824,3.08,2.418,2.379c2.155-0.948,3.527,0.204,5.149,0.948c1.207,0.553,2.384,1.228,3.621,0.006
			c0.234-0.23,0.745-0.366,1.07-0.292c2.779,0.636,5.568,1.251,8.307,2.037c1.473,0.422,2.441,0.506,2.478-1.425
			c0.014-0.741-0.159-1.465,0.361-2.235c1.202-1.782,0.625-3.257-1.45-3.91c-0.875-0.274-1.944-0.535-2.547,0.478
			c-0.608,1.023,0.384,1.531,0.958,2.108C150.135,183.835,150.595,184.102,151.465,184.75z M195.218,52.962
			c2.445-0.536,4.974-0.788,7.442-1.213c3.545-0.61,4.119-3.027,3.18-6.554c-0.64-2.399,0.217-5.125-0.438-7.676
			c-0.032-0.128,0.316-0.326,0.43-0.524c0.635-1.117,0.576-1.794-0.771-2.556c-1.912-1.082-4.212-0.167-5.765-1.02
			c-3.307-1.816-5.852,0.1-8.662,0.867c-1.298,0.354-1.819,1.491-2.37,2.63c-0.776,1.605,0.245,3.25-0.102,4.676
			c-0.731,3.014,0.325,5.506,1.996,7.588C191.416,50.747,192.097,53.623,195.218,52.962z M248.658,39.352
			c0-2.12,0.002-4.24-0.001-6.36c-0.003-2.795-0.945-4.229-3.515-4.952c-1.017-0.286-2.024-0.644-2.997-0.902
			c-1.605-0.427-3.471-0.361-5.117-0.003c-1.447,0.315-2.89,1.67-2.4,3.2c1.41,4.419-1.06,8.543-0.603,12.84
			c0.048,0.444-0.327,0.575-0.578,0.849c-1.13,1.237-0.777,2.831-0.107,3.951c0.576,0.963,1.619,1.936,3.325,1.217
			c2.417-1.018,5.059-0.776,7.46,0.096c1.249,0.455,2.065,0.663,3.239-0.129c1.267-0.854,1.338-1.925,1.309-3.212
			C248.621,43.75,248.658,41.55,248.658,39.352z M34.507,51.009c-0.018,3.382,1.284,4.716,4.533,4.723
			c2.037,0.004,4.081,0.106,6.107-0.035c1.481-0.104,2.678,0.334,3.857,1.125c1.963,1.315,3.871,1.105,4.819-0.473
			c0.942-1.569,0.228-4.509-1.537-5.306c-2.093-0.946-3.331-2.844-3.891-4.604c-1.004-3.157-2.815-5.345-5.356-7.243
			c-1.399-1.044-2.321-1.062-3.457,0.339c-1.632,2.015-2.123,4.521-3.151,6.787C35.728,47.872,34.113,49.097,34.507,51.009z
			 M29.343,68.83c-0.082-2.89,0.046-5.148-0.873-7.42c-0.553-1.367-0.568-3.017-2.307-3.267c-1.849-0.266-2.008,1.57-2.665,2.707
			c-0.183,0.316-0.192,0.728-0.317,1.083c-1.154,3.262-2.327,6.519-3.475,9.783c-1.207,3.432-2.635,6.876,0.652,10.036
			c0.687,0.661,1.24,1.459,1.875,2.176c1.209,1.368,2.73,2.355,4.541,1.816c1.854-0.552,2.738-1.941,2.604-4.088
			c-0.111-1.778-0.619-3.481-0.586-5.295C28.84,73.638,29.788,70.983,29.343,68.83z M129.462,140.225
			c1.965,1.71,4.591,2.394,5.422,5.162c0.27,0.899,1.301,0.47,1.912-0.195c1.184-1.288,0.654-5.21-0.984-5.749
			c-1.523-0.501-3.196-1.232-4.819-0.717c-1.723,0.547-2.184-0.436-2.611-1.638c-0.812-2.283-1.587-4.579-2.372-6.872
			c-0.315-0.923-0.913-1.668-1.862-1.794c-1.988-0.266-3.959-0.714-6.003-0.544c-1.097,0.091-1.783,0.587-2,1.578
			c-0.232,1.058,0.807,1.409,1.432,1.508c1.812,0.288,3.388,1.576,5.349,1.2c0.629-0.12,1.053-0.017,1.25,0.895
			c0.588,2.729,1.156,5.434,0.912,8.251c-0.046,0.525-0.084,1.196,0.186,1.581c1.402,1.998,0.802,4.332,1.196,6.49
			c0.149,0.818-0.185,1.798,0.992,2.085c0.995,0.242,1.652-0.305,2.168-1.045c1.963-2.812,1.398-5.121-1.627-6.726
			C128.471,142.581,128.939,141.467,129.462,140.225z M297.527,141.935c-1.173,0.277-2.327,0.208-3.35-0.438
			c-1.07-0.675-2.056-0.463-3.045,0.089c-0.643,0.359-1.028,1.034-0.826,1.664c0.118,0.369,0.171,1.077,0.93,1.166
			c2.352,0.274,4.694,0.622,7.041,0.935c0.524,0.069,1.17-0.219,1.129-0.607c-0.229-2.142,1.521-3.417,2.157-5.171
			c0.451-1.245,0.654-2.364-0.045-3.501c-0.46-0.748-0.053-1.132,0.327-1.754c1.14-1.862,2.752-3.462,3.302-5.666
			c0.467-1.873-0.493-3.284-1.629-4.551c-0.784-0.874-2.004-0.661-2.837-0.249c-1.375,0.682-1.789,2.039-1.559,3.57
			c0.103,0.68,0.308,1.479,0.24,2.022c-0.229,1.855,1.822,4.702-1.982,5.245c-0.45,0.064-0.439,0.755-0.654,1.13
			C295.422,138.096,297.19,139.912,297.527,141.935z M248.235,125.535c1.303,0.121,3-0.383,4.738-0.644
			c3.117-0.468,6.352-1.794,9.502,0.035c0.537,0.312,0.999,0.128,1.478-0.27c0.691-0.576,0.963-1.29,0.674-2.079
			c-0.437-1.192-1.697-1.667-2.649-1.523c-3.666,0.553-7.332-0.005-10.981,0.269c-1.427,0.106-2.069-0.382-2.362-1.783
			c-0.607-2.913-1.867-3.432-5.6-2.485c-2.736,0.693-1.549,2.886-1.181,4.168C243.256,126.097,243.5,125.622,248.235,125.535z
			 M233.362,175.095c0.787-0.014,1.942,0.131,1.96-0.805c0.032-1.651,0.903-1.708,2.072-1.571c0.648,0.076,0.979-0.364,1.382-0.725
			c2.917-2.606,2.697-7.409-0.462-9.853c-0.473-0.366-1.193-0.553-1.382,0.063c-0.529,1.726-2.071,2.933-2.016,5.018
			c0.115,4.284-0.869,4.867-4.969,3.471c-1.724-0.587-3.431-1.23-5.18-1.721c-0.737-0.207-1.684-0.175-1.99,0.761
			c-0.211,0.644-0.261,1.519,0.537,1.869C226.57,173.032,229.72,174.784,233.362,175.095z M88.279,191.528
			c-0.067,1.664,0.598,2.209,2.347,2.015c2.442-0.272,4.755-1.406,7.289-1.031c0.833,0.122,1.644-0.074,1.66-1.131
			c0.013-0.89-0.649-1.457-1.417-1.641c-1.017-0.243-2.111-0.449-3.127-0.319c-0.725,0.094-1.286-0.145-1.451-0.563
			c-0.236-0.602-0.449-1.674,0.178-1.96c2.453-1.123,2.344-3.816,3.696-5.562c0.983-1.271,1.141-2.488-0.233-3.087
			c-1.286-0.56-2.664,0.143-3.255,1.609c-0.601,1.488-1.214,2.979-0.998,4.673c0.063,0.494,0.329,1.126-0.672,1.431
			C89.726,186.745,88.306,188.865,88.279,191.528z M117.72,191.231c1.516-0.38,1.837,0.214,1.696,1.3
			c-0.152,1.171,0.243,3.396-0.284,3.368c-4.076-0.214-3.931,3.711-5.833,5.548c-0.595,0.574-0.303,1.328,0.171,1.76
			c0.444,0.402,0.94,0.41,1.723,0.042c1.683-0.792,1.977-2.48,3.013-3.653c1.435-1.625,2.952-3.234,4.055-5.077
			c0.837-1.398,1.175-3.089,2.466-4.259c0.681-0.617,0.818-1.49,0.27-2.178c-0.563-0.707-1.389-0.652-2.17-0.137
			c-0.825,0.544-2.143,1.668-2.456,1.442c-1.949-1.405-4.139-0.134-6.069-0.824c-1.045-0.373-2.098-0.645-2.38,0.75
			c-0.282,1.39,0.532,2.261,1.958,2.244C115.265,191.541,116.646,191.329,117.72,191.231z M317.044,144.321
			c0.224,0.941-0.229,1.999,0.337,3.09c0.464,0.894,0.929,1.037,1.559,0.494c1.405-1.211,2.825-2.498,3.636-4.169
			c1.309-2.695,0.248-4.793-2.739-5.96c-0.493-0.192-0.887-0.329-0.492-1.136c1.212-2.474,0.444-3.796-1.94-5.056
			c-1.657-0.875-2.98-1.185-3.85,0.602c-0.745,1.533,1.111,1.815,1.782,2.676c1.263,1.619,3.634,2.799,2.187,5.497
			C316.866,141.584,317.096,142.919,317.044,144.321z M265.633,175.546c-2.677-0.039-4.881,1.94-4.13,3.592
			c1.032,2.271,5.469,3.797,7.646,2.503c0.933-0.554,1.779-0.609,2.627-0.176c1.096,0.562,1.884-0.115,2.451-0.694
			c0.674-0.687,0.487-1.641-0.001-2.562c-0.877-1.653-2.385-2.156-3.862-1.615c-1.256,0.459-2.115,0.218-2.922-0.484
			C266.826,175.572,266.212,175.52,265.633,175.546z M126.017,123.469c-0.358-0.68-0.268-1.921-1.258-2.724
			c-0.53-0.429-0.703-0.924-0.554-1.637c0.602-2.864-0.413-4.748-3.13-5.277c-0.973-0.189-1.432-0.673-1.573-1.321
			c-0.26-1.192-0.554-1.945-1.978-1.372c-1.772,0.713-2.26,2.146-1.257,4.333c0.405,0.885,0.807,2.387,2.276,1.221
			c1.47-1.166,1.862,0.265,2.079,0.953c0.68,2.164,1.201,4.393,1.579,6.631c0.204,1.21,0.469,2.54,1.741,2.453
			C125.351,126.632,126.037,125.334,126.017,123.469z M238.757,135.756c-0.256,1.367,0.725,2.648,0.861,4.05
			c0.144,1.479,0.747,1.828,2.069,1.796c1.898-0.045,3.535-1.993,3.175-4.058c-0.403-2.313-0.914-4.607-1.4-6.905
			c-0.186-0.875-0.232-1.839-1.576-1.815c-1.19,0.021-1.894,0.525-2.185,1.644C239.263,132.154,238.694,133.819,238.757,135.756z
			 M148.644,151.245c0.207-1.043-0.434-1.506-1.314-1.827c-1.281-0.466-2.093-1.095-2.049-2.766
			c0.044-1.703-3.961-3.815-5.436-3.017c-0.498,0.27-1.051,0.688-1.089,1.42c-0.062,1.193,1.029,1.424,1.696,1.614
			c2.357,0.673,2.211,3.272,3.704,4.656c0.554,0.514-1.415,1.414-2.119,2.257c-0.732,0.877-0.95,1.703-0.217,2.578
			c0.962,1.148,2.095,0.467,2.884-0.133c1.253-0.952,2.278-2.2,3.429-3.292C148.574,152.318,148.729,151.853,148.644,151.245z
			 M141.582,199.66c0.065-2.431-2.381-4.852-5.555-5.776c-0.844-0.247-1.257-0.072-1.707,0.486
			c-0.576,0.714-0.289,1.302,0.313,1.813c0.844,0.716,1.698,1.421,2.55,2.127c1.703,1.412,1.54,2.208-0.533,3.227
			c-1.271,0.625-2.57,0.852-3.969,0.969c-0.707,0.061-1.899,0.348-1.856,1.384c0.042,1.019,1.091,0.81,1.844,0.936
			c1.847,0.31,3.437-0.544,5.149-0.906C141.259,203.191,141.489,203.146,141.582,199.66z M231.711,137.983
			c-0.173-1.447-0.226-2.924-0.564-4.332c-0.193-0.805-0.383-1.857-1.617-1.983c-1.375-0.14-1.81,1.11-1.98,1.821
			c-0.678,2.807-1.105,5.68-1.5,8.545c-0.124,0.905-0.386,1.989,1.1,2.422c1.361,0.396,2.343-0.065,2.896-1.078
			C230.947,141.723,231.934,140.023,231.711,137.983z M239.023,156.251c0.815,1.658,0.517,3.314,0.726,4.909
			c0.155,1.186,0.906,1.607,2.246,1.054c2.842-1.173,3.447-3.681,3.771-6.209c0.292-2.292-2.161-3.907-4.45-3.633
			C238.423,152.72,240.497,155.348,239.023,156.251z M260.936,162.912c0.321-1.682-0.501-2.977-1.908-3.3
			c-1.509-0.347-2.704,0.787-3.25,2.215c-0.975,2.551-0.335,5.109,0.26,7.628c0.149,0.635,0.415,1.358,1.334,1.372
			c0.752,0.012,1.235-0.54,1.447-1.032C259.777,167.578,260.714,165.338,260.936,162.912z M259.506,153.56
			c-0.391,1.785,0.927,3.302,1.429,5.039c0.239,0.829,0.92,0.887,1.671,0.932c0.755,0.045,1.193-0.216,1.346-0.915
			c0.469-2.154,1.347-4.218,1.244-6.501c-0.046-1.027-0.551-1.704-1.348-1.978C261.764,149.422,259.507,151.163,259.506,153.56z
			 M102.972,159.035c-1.044-0.222-1.976,0.25-2.34,1.297c-0.329,0.946-0.016,1.713,0.956,2.485c1.375,1.094,3.152,2.128,2.796,4.497
			c-0.104,0.688,0.223,1.754,1.45,1.622c1.404-0.151,1.793-1.296,1.691-2.318c-0.081-0.815-0.161-1.487,0-2.356
			C108.042,161.455,105.838,159.016,102.972,159.035z M277.422,165.041c0.188-2.16-1.126-3.144-2.829-3.329
			s-2.575,1.259-2.759,2.694c-0.236,1.85-0.095,3.753-0.046,5.631c0.029,1.145,0.998,1.731,1.708,1.08
			C275.32,169.442,277.667,167.975,277.422,165.041z M221.771,153.98c0,0.708,0.02,1.416-0.004,2.122
			c-0.041,1.253,0.917,1.601,1.759,2.178c1.085,0.744,1.443-0.336,1.931-0.697c1.418-1.053,2.02-6.034,1.04-7.494
			c-1.299-1.936-3.079-1.788-4.209,0.26C221.635,151.53,221.817,152.754,221.771,153.98z M249.665,114.687
			c1.928-0.034,4.307-2.347,4.1-4.696c-0.129-1.465-0.875-2.783-2.692-2.836c-2.175-0.065-4.427,2.052-4.257,4.232
			C246.929,112.858,246.705,114.857,249.665,114.687z M310.495,119.998c-0.725,0.798-1.389,1.373-1.856,2.077
			c-0.921,1.389-0.415,3.404,1.141,3.912c1.402,0.457,2.158-0.654,2.779-1.804c0.374-0.691,0.263-1.377,0.222-2.05
			c-0.044-0.729-0.188-1.323,0.359-2.04c0.561-0.732,1.053-1.678,0.233-2.738c-0.896-1.16-2.122-1.516-3.385-1.426
			c-1.531,0.109-1.996,1.513-1.004,2.696C309.382,119.102,309.907,119.472,310.495,119.998z M284.444,116.29
			c0.798,1.376,0.359,2.961,0.574,4.469c0.257,1.799,1.688,2.496,2.922,1.573c2.062-1.542,2.586-5.845,0.882-7.766
			c-0.627-0.708-1.28-1.485-2.509-1.018C285.032,114.036,284.698,115.043,284.444,116.29z M254.833,174.601
			c-1.59-0.151-2.96,0.18-2.881,2.418c0.06,1.702,2.651,4.186,4.613,4.158c2.365-0.033,2.521-1.743,2.48-3.571
			C258.996,175.291,258.105,174.6,254.833,174.601z M289.695,129.34c0-0.572,0.029-0.967-0.006-1.355
			c-0.193-2.139-1.229-3.111-3.146-2.905c-2.221,0.238-2.133,1.953-1.992,3.477c0.116,1.266,0.611,2.492,0.89,3.747
			c0.229,1.029,0.779,1.614,1.862,1.74c1.186,0.138,1.476-0.808,1.725-1.536C289.392,131.439,289.994,130.375,289.695,129.34z
			 M268,152.269c0,1.184-0.003,2.122,0,3.061c0.004,0.828,0.38,1.302,1.247,1.348c0.785,0.042,1.318-0.18,1.582-1.021
			c0.606-1.931,1.236-3.856,1.952-5.748c0.556-1.469-0.102-2.625-1.245-3.046c-1.236-0.455-2.535-0.141-3.109,1.55
			C267.959,149.787,268.046,151.139,268,152.269z M283.562,137.438c0.019,2.99,1.284,5.554,2.648,5.552
			c1.214-0.002,3.428-2.791,3.477-4.381c0.036-1.165-2.318-4.012-3.298-3.792C284.935,135.144,283.127,135.317,283.562,137.438z
			 M309.973,139.58c0.042-2.073-1.358-3.71-2.91-3.656c-1.834,0.063-2.517,1.158-2.285,3.512c0.12,1.217,0.716,2.351,0.505,3.632
			c-0.151,0.921,0.606,1.424,1.276,1.759c0.659,0.329,1.114-0.276,1.593-0.689C309.635,142.855,309.531,140.993,309.973,139.58z
			 M224.129,165.231c0.038-2.476-0.968-4.15-2.522-4.199c-1.597-0.051-3.51,1.87-3.494,3.507c0.019,1.911,1.686,4.393,2.955,4.4
			C222.54,168.949,224.101,167.057,224.129,165.231z M107.122,210.013c-0.444,1.056,0.168,2.325,0.802,2.165
			c1.143-0.291,1.686,0.431,2.367,0.777c1.418,0.72,2.521,0.239,3.608-0.554c0.573-0.418,1.119-0.986,0.664-1.767
			c-0.398-0.685-0.989-0.877-1.77-0.421c-0.696,0.407-1.692,0.554-2.164-0.024c-0.618-0.756,0.094-1.368,0.684-2.035
			c0.511-0.576,1.164-1.597,0.123-2.395c-0.817-0.626-1.536-0.606-2.448,0.169C107.653,207.062,107.115,208.393,107.122,210.013z
			 M281.205,184.09c0.01-3.078-0.738-3.963-3.081-3.828c-1.74,0.1-2.935,1.826-2.556,3.876c0.209,1.135,0.97,2.032,1.758,2.846
			c1.25,1.288,2.406,1.117,3.354-0.427C281.184,185.734,281.314,184.846,281.205,184.09z M307.046,130.311
			c0.621,1.033,0.405,2.236,0.66,3.335c0.36,1.551,2.213,1.802,3.29,0.547c0.77-0.896,0.847-2.095,1.335-3.113
			c0.627-1.307,0.485-2.457-0.557-3.523c-0.928-0.95-2.093-0.8-3.034-0.417C307.474,127.652,307.529,129.134,307.046,130.311z
			 M301.03,149.425c-0.104,1.933,0.342,3.894,2.057,4.293c2.222,0.519,2.461-1.893,3.067-3.339c0.573-1.368,0.27-2.745-0.889-3.879
			c-0.716-0.7-1.481-0.956-2.301-0.463C301.673,146.815,300.64,147.824,301.03,149.425z M317.27,148.673
			c-0.808-0.195-1.466,0.23-1.749,0.855c-0.865,1.916-1.518,3.926-0.681,6.025c0.357,0.898,0.94,1.884,2.152,1.375
			c1.604-0.674,3.182-5.516,2.338-7.038C318.912,149.135,318.321,148.474,317.27,148.673z M275.943,149.555
			c-1.987,0.102-2.638,1.461-2.716,3.102c-0.054,1.129,0.368,2.273,0.402,3.416c0.028,0.952,0.446,1.374,1.278,1.679
			c0.915,0.335,1.5-0.189,1.886-0.76c0.905-1.34,1.453-2.924,1.509-4.49C278.351,151.104,277.672,149.797,275.943,149.555z
			 M99.125,137.271c0-0.76,0.092-1.405-0.019-2.013c-0.25-1.377-1.417-1.937-2.501-2.496c-0.93-0.479-1.73,0.167-2.258,0.721
			c-0.775,0.813-0.442,1.806,0.02,2.783c0.45,0.952,0.796,1.994,0.952,3.031c0.137,0.917,0.661,1.469,1.35,1.754
			c0.914,0.377,1.343-0.562,1.919-1.045C99.552,139.198,98.949,138.094,99.125,137.271z M268.468,108.308
			c0-0.561,0.073-1.046-0.013-1.501c-0.301-1.575-1.05-3.143-2.711-3.2c-1.894-0.064-2.088,1.601-1.998,3.161
			c0.045,0.782-0.143,1.623,0.085,2.339c0.377,1.182,1.072,2.317,2.322,2.704c1.006,0.312,1.436-0.771,2.015-1.348
			C268.803,109.83,268.324,108.964,268.468,108.308z M270.33,118.19c0.284-1.385-0.526-2.45-1.175-3.423
			c-0.848-1.271-2.279-1.224-3.481-0.492c-0.997,0.607-1.263,1.64-0.751,2.79c0.338,0.761,0.637,1.539,0.918,2.322
			c0.443,1.234,1.465,2.088,2.59,1.807C269.718,120.873,270.649,119.77,270.33,118.19z M253.869,106.505
			c-0.331,1.071,0.177,1.838,0.945,2.261c0.812,0.448,1.684,0.447,2.604-0.181c1.037-0.708,1.914-1.558,2.829-2.388
			c0.741-0.672,1.021-1.537,0.431-2.27c-0.452-0.563-1.146-1.207-2.152-0.777c-0.477,0.203-1.065,0.244-1.593,0.208
			C254.606,103.204,254.142,104.794,253.869,106.505z M98.187,141.983c-1.451,0.341-2.283,1.25-1.808,2.518
			c0.712,1.9,1.756,3.676,2.575,5.552c0.643,1.471,1.842,0.998,2.377-0.161c0.844-1.829,0.393-5.497-1.286-6.68
			C99.43,142.779,98.792,142.382,98.187,141.983z M103.336,170.955c0.077-1.454,0.069-2.247-0.961-2.47
			c-1.36-0.293-2.309,0.707-2.566,1.59c-0.517,1.77-1.239,3.397-2.022,5.044c-0.278,0.584-0.463,1.777,0.23,2.174
			c0.642,0.368,1.738,0.466,2.336-0.4C101.741,174.881,102.872,172.737,103.336,170.955z M121.297,183.939
			c0.083-3.4-0.891-3.935-3.963-4.576c-0.539-0.112-1.349-0.449-1.774,0.559c-0.35,0.829,0.009,1.901,0.292,2.011
			c1.952,0.752,2.266,2.446,2.574,4.109c0.142,0.766,0.49,0.84,1.089,0.827c0.614-0.014,1.091,0.025,1.467-0.745
			C121.365,185.339,121.196,184.604,121.297,183.939z M314.25,157.194c-0.263-0.468-0.454-1.254-0.952-1.61
			c-1.799-1.287-3.628-2.588-6.074-2.23c-0.762,0.112-1.674-0.1-1.91,0.882c-0.249,1.029,0.526,1.693,1.33,1.912
			c1.844,0.504,3.591,0.975,5.124,2.315C312.568,159.163,313.981,159.054,314.25,157.194z M112.73,174.363
			c0.254-2.276-0.2-3.746-2.036-4.354c-0.875-0.289-1.757-0.279-2.572,0.492c-0.979,0.926-0.046,1.522,0.226,2.196
			c0.477,1.179,1.196,2.27,1.577,3.473c0.232,0.731,0.077,1.736,1.129,1.647c0.824-0.07,1.199-0.836,1.506-1.69
			C112.843,175.338,112.687,174.603,112.73,174.363z M83.383,156.204c1.351-0.025,4.751-3.5,4.766-4.871
			c0.013-1.261-1.485-2.183-2.635-1.543c-1.562,0.869-2.794,2.151-3.666,3.687C81.018,154.938,81.818,156.233,83.383,156.204z
			 M89.223,146.371c-0.236,0.991,0.347,1.727,1.211,2.197c0.648,0.354,1.324-0.032,1.579-0.619c0.755-1.743,1.952-3.147,3.151-4.573
			c0.388-0.461,0.267-1.017-0.189-1.471c-0.447-0.445-0.845-0.951-1.59-0.778C91.81,141.492,89.238,144.661,89.223,146.371z
			 M108.52,133.781c0.112-1.186,0.276-2.425-1.32-2.74c-1.266-0.25-2.057,0.688-2.483,1.529c-0.816,1.614-0.608,3.47-0.137,5.134
			c0.2,0.705,1.266,1.368,2.154,0.278C107.743,136.748,108.956,135.608,108.52,133.781z M303.097,114.179
			c-1.151,0.51-2.271,0.838-3.195,1.457c-1.202,0.804-1.018,2.356,0.403,2.652c1.292,0.268,2.425,0.876,3.657,1.236
			c0.72,0.211,1.511-0.077,1.54-0.268c0.127-0.813,1.043-1.476,0.295-2.518C305.022,115.66,304.315,114.631,303.097,114.179z
			 M133.069,193.767c0.264-2.689-1.35-3.439-3.313-4.16c-0.984-0.362-1.714-0.257-2.18,0.369c-0.57,0.766-0.089,1.933,0.489,2.283
			c1.379,0.838,1.986,1.986,2.385,3.441c0.098,0.355,0.531,1.051,1.165,0.831c0.445-0.155,0.863-0.374,1.154-0.968
			C133.112,194.862,133.004,194.219,133.069,193.767z M293.741,113.286c-1.085-0.23-2.432,0.162-2.516,1.276
			c-0.194,2.611,2.824,2.351,4.03,3.847c0.7,0.871,1.384-0.065,1.978-0.629c1.093-1.038-0.104-1.826-0.314-2.657
			C296.547,113.653,295.298,113.221,293.741,113.286z M91.78,160.42c0.523-0.5,1.095-0.927,1.506-1.475
			c0.353-0.469,0.187-0.967-0.187-1.486c-1.286-1.791-3.28-1.899-5.121-1.999c-1.317-0.072-2.255,1.943-1.341,2.484
			C88.247,158.899,90.254,159.085,91.78,160.42z M100.113,154.798c0.403-1.081-0.696-1.881-1.277-2.811
			c-0.604-0.969-1.873-0.699-2.581-0.384c-0.877,0.391-0.654,1.638-0.127,2.216c0.697,0.765,0.712,1.554,0.621,2.386
			c-0.121,1.105,0.383,2.035,1.259,2.24c0.892,0.209,1.267-0.832,1.719-1.583C100.098,156.247,100.004,155.679,100.113,154.798z
			 M237.728,147.704c-1.591,0.026-2.765-0.205-2.745,1.402c0.017,1.334,1.061,1.413,1.952,1.407c1.481-0.009,2.918,0.17,4.358,0.483
			c0.731,0.159,1.479-0.029,1.661-0.887c0.175-0.82-0.257-1.289-1.109-1.463C240.281,148.33,238.731,147.938,237.728,147.704z
			 M109.96,127.953c0.107,1.455,0.525,3.088,2.093,3.141c1.699,0.057,2.038-1.934,2.028-3.102c-0.01-1.052-0.014-3.075-2.071-2.87
			C110.47,125.276,109.882,126.439,109.96,127.953z M116.582,121.084c-0.151-0.935,0.348-2.492-1.508-2.59
			c-1.877-0.099-2.161,1.306-2.261,2.761c-0.021,0.311,0.02,0.626-0.007,0.937c-0.107,1.246,0.386,2.355,1.625,2.324
			c1.163-0.029,2.008-1.002,2.147-2.309C116.609,121.898,116.582,121.583,116.582,121.084z M106.524,191.55
			c1.237,0.232,2.33-0.243,2.43-1.466c0.118-1.443-1.033-1.912-2.359-1.798c-0.644,0.056-1.165-0.235-1.744-0.426
			c-1.035-0.339-1.867,0.218-2.287,1.108c-0.5,1.057,0.334,1.427,1.15,1.827C104.611,191.237,105.448,191.771,106.524,191.55z
			 M123.995,205.26c-0.474-0.099-1.245-0.092-1.707,0.722c-0.333,0.586-0.384,1.229-0.012,1.84c0.356,0.584,0.885,0.917,1.562,0.701
			c1.282-0.407,2.527-0.938,3.817-1.312c0.907-0.264,1.428-0.773,1.113-1.66c-0.321-0.903-1.226-0.941-1.98-0.672
			C125.975,205.169,125.239,205.67,123.995,205.26z M269.075,161.348c-0.861,0.522-2.263,0.558-1.993,2.063
			c0.214,1.202,0.662,2.564,2.08,2.63c1.354,0.062,1.602-1.314,1.609-2.321C270.779,162.695,270.412,161.622,269.075,161.348z
			 M377.117,213.265c0.629,0.087,0.854-0.248,0.771-0.801c-0.044-0.294,0.227-0.891-0.31-0.809c-0.405,0.062-1.125,0.078-1.093,0.89
			C376.505,213.003,376.634,213.268,377.117,213.265z"/>
		<path style="fill-rule:evenodd;clip-rule:evenodd;fill:#7B491E;" d="M200.613,87.385c-0.188,1.742,0.394,3.609-1.357,4.615
			c-1.648,0.947-3.281,0.256-4.717-0.602c-0.85-0.508-1.752-1.276-2.138-2.146c-1.197-2.696-3.415-2.097-5.383-1.724
			c-3.073,0.583-4.307-0.276-4.211-3.428c0.006-0.188,0.142-0.391-0.012-0.569c-2.226-2.567-0.833-5.333-0.116-7.841
			c0.744-2.602,2.776-4.396,5.508-5.173c0.027-0.008,0.021-0.137,0.061-0.446c-2.435-0.392-4.966-0.487-7.301-0.04
			c-1.481,0.284-2.75-0.048-4.006-0.249c-2.795-0.447-3.678-3.921-1.934-6.073c0.998-1.231,1.844-2.729,1.327-4.575
			c-0.833-2.979,0.182-4.878,2.805-6.393c1.942-1.122,4.128-1.559,6.09-2.572c0.193-0.1,0.454-0.078,0.686-0.095
			c2.054-0.153,5.513,3.62,5.219,5.654c-0.208,1.437,0.926,2.583,0.922,3.988c-0.007,2.515-0.002,5.031-0.002,7.546
			c0,0.079-0.023,0.166,0.003,0.234c0.417,1.067-1.972,1.777-0.509,2.701c0.456,0.288,1.855-0.307,2.86-0.326
			c2.633-0.052,5.481,2.603,5.651,5.384c0.067,1.095,0.035,2.202-0.041,3.297c-0.134,1.933,0.542,2.608,2.27,1.676
			c3.514-1.897,7.175-1.868,10.733-0.817c2.343,0.693,4.864,0.99,7.022,2.295c0.917,0.554,1.599,1.424,1.678,2.4
			c0.398,4.862,1.113,9.738,0.046,14.607c-0.604,2.753-2.387,3.741-4.607,1.852c-0.972-0.827-2.119-1.058-3.427-0.999
			c-2.432,0.109-4.872,0-7.309,0.047c-0.912,0.018-1.57-0.253-2.3-0.84c-2.296-1.847-3.762-6.25-2.536-8.759
			C202.205,88.755,201.809,88.165,200.613,87.385z"/>
		<path style="fill-rule:evenodd;clip-rule:evenodd;fill:#7B491E;" d="M367.398,74.29c-0.251-0.268-0.511-0.679-0.881-0.92
			c-3.739-2.441-3.402-3.104-1.186-6.179c2.905-4.031,5.586-8.184,7.834-12.606c1.21-2.382,2.794-2.609,4.563-0.728
			c1.628,1.732,1.794,3.983,2.488,6.023c1.524,4.479,1.85,9.234,2.828,13.844c0.195,0.92,0.91,1.383,1.191,2.198
			c0.565,1.638,0.31,3.021-0.842,4.263c-0.886,0.955-2.202,1.058-3.041,0.46c-1.056-0.75-1.883-1.891-2.621-3.059
			c-1.086-1.716-3.207-1.826-4.027-0.155c-2.412,4.919-4.431,10.008-4.738,15.564c-0.151,2.728,0.365,3.288,3.16,3.25
			c1.854-0.025,2.816,0.624,2.924,2.404c0.096,1.566-1.594,3.244-3.21,3.307c-1.477,0.057-2.853,0.133-4.017-1.253
			c-1.068-1.273-2.929-1.362-4.429-1.486c-2.845-0.236-5.77-0.41-8.57,0.429c-1.189,0.356-2.297,0.762-3.085,2.103
			c-0.734,1.251-2.297,1.753-3.832,0.658c-0.548-0.391-1.188-0.692-1.829-0.903c-1.542-0.507-1.76-1.523-1.008-2.754
			c0.642-1.052,0.812-2.129,0.762-3.313c-0.191-4.516,0.61-8.968,1.03-13.436c0.146-1.559,1.055-3.242,2.098-4.454
			c0.774-0.899,2.25-1.69,3.68-0.596c0.727,0.557,1.585,0.911,2.14,1.727c2.414,3.552,3.747,3.647,6.928,0.557
			c0.92-0.894,1.773-1.861,2.737-2.702C365.364,75.729,366.386,75.05,367.398,74.29z"/>
		<path style="fill-rule:evenodd;clip-rule:evenodd;fill:#7B491E;" d="M332.622,60.767c0.747,1.763,0.872,4.143,1.289,6.466
			c0.63,3.506,1.899,6.807,3.158,10.106c0.391,1.024,0.159,2,0.262,2.993c0.14,1.35-0.14,2.645,0.772,4.003
			c1.027,1.531-0.36,3.707-2.567,4.572c-1.88,0.737-2.695,0.2-3.554-1.854c-0.794-1.9-3.008-3.184-4.988-4.111
			c-2.71-1.269-4.488-3.76-7.215-5.039c-1.327-0.622-1.636-2.236-1.034-3.881c1.875-5.133,4.733-9.694,8.098-13.932
			c0.564-0.711,0.57-1.47,1.001-2.122c-0.68-0.271-1.346-0.714-2.045-0.776c-1.402-0.125-2.824-0.025-4.238-0.047
			c-3.302-0.053-4.84-2.538-3.45-5.478c2.222-4.698,4.412-9.411,6.592-14.128c0.888-1.92,1.985-2.14,3.883-1.274
			c3.935,1.793,5.663,5.663,8.43,8.548c3.729,3.888,7.124,8.109,11.225,11.62c1.306,1.118,3.239,1.252,3.935,3.394
			c0.69,2.127-0.132,3.348-1.687,4.139c-1.575,0.801-2.82-0.082-3.47-1.641c-0.487-1.17-1.456-1.549-2.496-2.124
			c-2.927-1.619-5.964-2.256-9.271-2.138C333.15,58.138,332.613,58.45,332.622,60.767z"/>
		<path style="fill-rule:evenodd;clip-rule:evenodd;fill:#7B491E;" d="M248.605,62.957c-0.254,2.42,0.345,4.787,0.517,7.182
			c0.087,1.206-0.118,2.69-1.322,2.893c-1.377,0.23-3.177,0.956-4.274-0.703c-0.345-0.521-0.952-0.701-1.052-0.507
			c-0.511,0.998-1.959,0.918-2.264,1.965c-0.302,1.037,0.755,0.678,1.213,0.935c2.893,1.623,4.854,4.13,6.245,7.03
			c1.284,2.68,0.061,4.876-3.774,6.98c-2.184,1.199-4.333,2.247-7.135,1.748c-1.71-0.305-3.658,0.683-5.492,1.119
			c-5.384,1.282-9.02-2.072-7.438-7.262c1.138-3.738,0.574-7.474,0.877-11.196c0.202-2.482,2.496-4.643,5.063-3.926
			c0.961,0.268,1.962,0.096,2.921,0.602c0.771,0.407,1.772-0.092,2.205-0.78c0.448-0.713-0.427-1.187-0.837-1.736
			c-1.487-1.993-3.77-3.12-5.257-5.176c-3.137-4.337,0.503-7.057,3.652-7.928c3.483-0.964,6.907-0.738,10.369-0.779
			c0.936-0.012,1.368-0.625,2.004-0.987c1.314-0.75,2.92-0.266,2.815,1.121C247.398,56.776,249.546,59.697,248.605,62.957z"/>
		<path style="fill-rule:evenodd;clip-rule:evenodd;fill:#7B491E;" d="M205.733,29.257c-0.093-1.5-0.067-3.068-0.816-4.758
			c-1.158-2.613,0.822-5.793,3.772-6.964c2.729-1.083,5.577-1.915,8.372-2.693c4.132-1.151,8.801,1.874,9.877,6.48
			c0.114,0.486,0.191,0.758,0.694,1.021c2.954,1.552,2.44,5.281,1.201,7.698c-1.691,3.296-5.513,4.387-7.283,7.571
			c-0.302,0.544-1.648,0.332-2.525-0.373c-1.706-1.371-3.503-1.202-4.89,0.486c-0.848,1.032-1.709,0.757-2.584,0.411
			C207.162,36.398,205.733,34.221,205.733,29.257z"/>
		<path style="fill-rule:evenodd;clip-rule:evenodd;fill:#7B491E;" d="M75.971,73.656c-1.476,0.165-2.645-0.484-3.725-1.389
			c-1.327-1.113-2.668-1.952-4.542-1.093c-0.655,0.3-1.63,0.327-2.306,0.073c-1.74-0.655-2.918-0.302-3.736,1.393
			c-0.326,0.674-1.053,0.515-1.673,0.555c-1.61,0.103-3.202-0.121-4.839,0.386c-1.663,0.516-3.583-2.471-2.563-4.367
			c2.556-4.752,4.133-10.072,8.067-14.062c0.807-0.819,1.153-2.102,1.678-3.187c0.576-1.191,1.159-2.714,2.536-2.731
			c1.524-0.019,3.145,1.055,3.751,2.334c0.672,1.417,1.62,2.445,2.673,3.418c1.862,1.72,2.296,4.17,3.175,6.31
			c0.89,2.166,2.26,3.953,3.371,5.932c0.336,0.599,0.733,1.167,1.021,1.788C80.254,72.027,79.224,73.667,75.971,73.656z"/>
		<path style="fill-rule:evenodd;clip-rule:evenodd;fill:#7B491E;" d="M376.403,48.106c0.416,1.659-0.337,2.443-1.733,2.411
			c-5.089-0.117-9.702,1.998-14.53,3.07c-2.067,0.459-3.794,0.064-5.53-0.765c-1.153-0.551-2.146-4.321-1.652-6.174
			c1.022-3.84,1.262-7.788,1.27-11.701c0.005-2.313,0.825-4.378,1.156-6.57c0.173-1.144,1.506-1.98,2.903-0.965
			c2.819,2.045,5.236,4.553,7.541,7.119c3.166,3.524,5.928,7.408,9.364,10.701C376.063,46.066,376.99,46.847,376.403,48.106z"/>
		<path style="fill-rule:evenodd;clip-rule:evenodd;fill:#7B491E;" d="M41.723,113.272c-2.047-1.03-4.564-1.559-6.853-0.402
			c-3.405,1.721-6.603,0.078-9.879-0.098c-1.968-0.104-3.101-2.452-2.279-4.276c0.455-1.007,1.222-1.766,1.86-2.632
			c2.891-3.924,3.034-8.848,4.76-13.197c0.374-0.942-0.647-1.581-0.22-2.635c0.833-2.057,2.754-2.211,4.304-2.458
			c1.476-0.235,2.104,1.412,2.478,2.737c0.143,0.504-0.001,1.037,0.476,1.494c3.26,3.124,5.127,7.174,7.299,11.027
			c0.467,0.829,1.465,1.064,2.261,1.529c1.177,0.688,2.006,1.657,0.822,3.01c-0.418,0.478-0.489,0.955-0.442,1.507
			C46.54,111.586,44.848,113.32,41.723,113.272z"/>
		<path style="fill-rule:evenodd;clip-rule:evenodd;fill:#7B491E;" d="M47.652,88.439c0.101-1.79,0.935-2.709,2.233-2.956
			c3.973-0.755,7.647-2.345,11.402-3.748c2.328-0.87,4.723-1.46,6.94-2.715c1.719-0.973,3.941,0.767,4.529,2.698
			c1.462,4.806-1.255,8.037-4.031,11.198c-2.996,3.413-4.961,7.47-7.402,11.228c-1.269,1.953-2.592,2.169-3.845,0.217
			c-2.122-3.304-4.526-6.47-5.544-10.381c-0.457-1.754-2.043-2.682-3.167-3.945C48.267,89.475,47.413,89.09,47.652,88.439z"/>
		<path style="fill-rule:evenodd;clip-rule:evenodd;fill:#7B491E;" d="M151.465,184.75c-0.87-0.648-1.33-0.915-1.693-1.278
			c-0.574-0.577-1.566-1.085-0.958-2.108c0.603-1.013,1.672-0.752,2.547-0.478c2.074,0.653,2.651,2.128,1.45,3.91
			c-0.52,0.771-0.347,1.494-0.361,2.235c-0.037,1.931-1.005,1.847-2.478,1.425c-2.739-0.786-5.527-1.401-8.307-2.037
			c-0.325-0.074-0.836,0.062-1.07,0.292c-1.237,1.222-2.414,0.547-3.621-0.006c-1.623-0.744-2.994-1.896-5.149-0.948
			c-1.594,0.701-2.318-1.196-2.418-2.379c-0.154-1.835-0.242-3.707,0.155-5.595c0.432-2.054-0.443-4.205,0.193-6.323
			c0.191-0.635,0.118-1.332,0.46-1.987c0.557-1.067,2.195-1.779,0.596-3.536c-0.985-1.082-1.266-2.752-3.199-2.67
			c-0.711,0.03-0.635-0.516-0.65-0.981c-0.023-0.727,0.293-1.33,1.019-1.32c1.679,0.022,1.436-0.784,1.117-1.947
			c-0.435-1.591-0.183-3.339-1.424-4.745c-0.644-0.731-0.233-1.677,0.688-1.775c1.406-0.151,3.079-0.549,3.759,1.395
			c0.099,0.281-0.022,0.633,0.039,0.937c0.095,0.47-0.348,1.15,0.487,1.354c0.65,0.158,0.984-0.324,1.396-0.674
			c0.881-0.749,1.749-1.518,2.679-2.2c0.612-0.449,1.195-1.17,2.08-0.162c0.738,0.841,1.311,1.57,0.591,2.641
			c-0.902,1.34-1.855,2.557-3.433,3.29c-1.847,0.857-1.923,1.843-0.173,2.714c2.118,1.055,3.314,2.416,2.969,4.857
			c-0.143,1.011,0.792,1.068,1.329,1.299c1.75,0.751,3.125,1.845,3.825,3.646c0.609,1.565,2.249,1.748,3.417,2.487
			c2.097,1.326,2.081,3.166,1.644,5.102c-0.341,1.51-2.276,1.987-2.595,0.794c-0.863-3.233-4.134-4.167-5.704-6.588
			c-1.666-2.567-5.098-3.858-5.346-7.459c-0.023-0.327-0.805-0.795-1.289-0.458c-0.847,0.589-1.729,1.652-1.325,2.501
			c1.178,2.474,0.823,4.654-0.485,6.881c-0.227,0.386-0.178,0.977,0.284,1.271c1.768,1.126,1.648,2.872,1.505,4.59
			c-0.077,0.917,0.219,1.606,1.083,1.715c1.651,0.206,2.979,1.136,4.455,1.727c0.348,0.139,0.921,0.426,1.046,0.301
			c2.598-2.596,5.013,0.082,7.482,0.298C149.067,184.838,149.985,185.02,151.465,184.75z"/>
		<path style="fill-rule:evenodd;clip-rule:evenodd;fill:#7B491E;" d="M195.218,52.962c-3.121,0.66-3.803-2.216-5.06-3.781
			c-1.671-2.083-2.728-4.574-1.996-7.588c0.347-1.427-0.675-3.071,0.102-4.676c0.551-1.14,1.072-2.276,2.37-2.63
			c2.811-0.767,5.355-2.683,8.662-0.867c1.553,0.853,3.853-0.062,5.765,1.02c1.348,0.762,1.406,1.439,0.771,2.556
			c-0.113,0.198-0.462,0.396-0.43,0.524c0.654,2.551-0.202,5.277,0.438,7.676c0.939,3.527,0.365,5.943-3.18,6.554
			C200.192,52.174,197.664,52.426,195.218,52.962z"/>
		<path style="fill-rule:evenodd;clip-rule:evenodd;fill:#7B491E;" d="M248.658,39.352c0,2.199-0.037,4.398,0.015,6.596
			c0.029,1.287-0.042,2.358-1.309,3.212c-1.174,0.792-1.99,0.584-3.239,0.129c-2.401-0.873-5.043-1.114-7.46-0.096
			c-1.706,0.718-2.749-0.254-3.325-1.217c-0.67-1.121-1.022-2.714,0.107-3.951c0.251-0.274,0.626-0.405,0.578-0.849
			c-0.457-4.297,2.013-8.421,0.603-12.84c-0.489-1.53,0.953-2.885,2.4-3.2c1.646-0.358,3.512-0.424,5.117,0.003
			c0.973,0.259,1.98,0.616,2.997,0.902c2.569,0.724,3.512,2.157,3.515,4.952C248.66,35.111,248.658,37.231,248.658,39.352z"/>
		<path style="fill-rule:evenodd;clip-rule:evenodd;fill:#7B491E;" d="M34.507,51.009c-0.395-1.913,1.22-3.138,1.924-4.687
			c1.028-2.266,1.52-4.772,3.151-6.787c1.136-1.402,2.058-1.384,3.457-0.339c2.541,1.897,4.352,4.085,5.356,7.243
			c0.56,1.759,1.798,3.658,3.891,4.604c1.765,0.797,2.479,3.737,1.537,5.306c-0.948,1.578-2.855,1.789-4.819,0.473
			c-1.179-0.79-2.376-1.228-3.857-1.125c-2.027,0.141-4.071,0.039-6.107,0.035C35.791,55.725,34.49,54.391,34.507,51.009z"/>
		<path style="fill-rule:evenodd;clip-rule:evenodd;fill:#7B491E;" d="M29.343,68.83c0.445,2.154-0.502,4.809-0.551,7.531
			c-0.033,1.814,0.476,3.518,0.586,5.295c0.134,2.147-0.75,3.536-2.604,4.088c-1.811,0.539-3.332-0.449-4.541-1.816
			c-0.635-0.717-1.188-1.516-1.875-2.176c-3.287-3.16-1.858-6.604-0.652-10.036c1.148-3.264,2.321-6.521,3.475-9.783
			c0.125-0.355,0.135-0.767,0.317-1.083c0.656-1.137,0.815-2.973,2.665-2.707c1.739,0.25,1.754,1.9,2.307,3.267
			C29.389,63.682,29.261,65.939,29.343,68.83z"/>
		<path style="fill-rule:evenodd;clip-rule:evenodd;fill:#7B491E;" d="M300.045,186.84c0.638,0.806,0.557,1.757,0.475,2.677
			c-0.059,0.655-0.545,1.455-1.158,0.968c-2.987-2.375-6.683-1.296-9.92-2.284c-0.593-0.18-2.268,0.084-1.717-1.67
			c0.2-0.64,0.208-1.249,1.094-1.077c1.672,0.326,1.881-0.555,1.854-1.963c-0.044-2.147,0.199-4.063,2.571-5.328
			c1.262-0.673,0.997-2.75,1.145-4.239c0.135-1.373-0.118-2.762,0.708-4.05c0.826-1.289,0.021-1.938-1.164-2.338
			c-1.041-0.351-2.733-0.432-2.24-1.98c0.505-1.581,1.896-1.478,3.481-0.962c2.145,0.697,2.902,1.688,3.726,4.012
			c1.471,4.15-0.429,7.277-1.495,10.715c-0.415,1.336-2.333,1.884-2.46,3.602c-0.12,1.622-0.438,3.33,2.14,3
			c1.159-0.148,1.89,1.024,3.015,0.973L300.045,186.84z"/>
		<path style="fill-rule:evenodd;clip-rule:evenodd;fill:#7B491E;" d="M129.462,140.225c-0.522,1.242-0.991,2.356-1.459,3.471
			c3.025,1.604,3.59,3.914,1.627,6.726c-0.517,0.74-1.173,1.287-2.168,1.045c-1.177-0.287-0.843-1.267-0.992-2.085
			c-0.394-2.158,0.206-4.492-1.196-6.49c-0.27-0.385-0.231-1.056-0.186-1.581c0.245-2.817-0.323-5.522-0.912-8.251
			c-0.197-0.911-0.621-1.015-1.25-0.895c-1.961,0.376-3.538-0.912-5.349-1.2c-0.625-0.099-1.664-0.45-1.432-1.508
			c0.217-0.991,0.903-1.487,2-1.578c2.043-0.17,4.015,0.278,6.003,0.544c0.949,0.126,1.546,0.871,1.862,1.794
			c0.785,2.293,1.56,4.589,2.372,6.872c0.427,1.202,0.888,2.185,2.611,1.638c1.623-0.516,3.296,0.216,4.819,0.717
			c1.638,0.539,2.168,4.461,0.984,5.749c-0.611,0.665-1.643,1.095-1.912,0.195C134.053,142.618,131.427,141.935,129.462,140.225z"/>
		<path style="fill-rule:evenodd;clip-rule:evenodd;fill:#7B491E;" d="M297.528,141.934c-0.338-2.021-2.105-3.838-0.802-6.114
			c0.215-0.375,0.204-1.065,0.654-1.13c3.805-0.543,1.754-3.39,1.982-5.245c0.067-0.543-0.138-1.343-0.24-2.022
			c-0.23-1.531,0.184-2.889,1.559-3.57c0.833-0.412,2.053-0.625,2.837,0.249c1.136,1.267,2.096,2.678,1.629,4.551
			c-0.55,2.204-2.162,3.804-3.302,5.666c-0.38,0.622-0.787,1.006-0.327,1.754c0.699,1.137,0.496,2.256,0.045,3.501
			c-0.637,1.754-2.387,3.029-2.157,5.171c0.041,0.389-0.604,0.677-1.129,0.607c-2.347-0.312-4.689-0.66-7.041-0.935
			c-0.759-0.089-0.812-0.797-0.93-1.166c-0.202-0.63,0.184-1.305,0.826-1.664c0.989-0.552,1.975-0.764,3.045-0.089
			C295.2,142.143,296.354,142.212,297.528,141.934z"/>
		<path style="fill-rule:evenodd;clip-rule:evenodd;fill:#7B491E;" d="M248.235,125.535c-4.735,0.087-4.979,0.562-6.382-4.312
			c-0.368-1.282-1.556-3.475,1.181-4.168c3.732-0.946,4.992-0.428,5.6,2.485c0.293,1.401,0.936,1.89,2.362,1.783
			c3.649-0.273,7.315,0.284,10.981-0.269c0.952-0.144,2.213,0.331,2.649,1.523c0.289,0.789,0.018,1.503-0.674,2.079
			c-0.479,0.397-0.94,0.582-1.478,0.27c-3.15-1.829-6.385-0.503-9.502-0.035C251.235,125.152,249.538,125.656,248.235,125.535z"/>
		<path style="fill-rule:evenodd;clip-rule:evenodd;fill:#7B491E;" d="M233.362,175.095c-3.642-0.311-6.792-2.062-10.047-3.492
			c-0.798-0.351-0.748-1.226-0.537-1.869c0.307-0.936,1.253-0.968,1.99-0.761c1.749,0.49,3.456,1.134,5.18,1.721
			c4.1,1.396,5.084,0.813,4.969-3.471c-0.056-2.085,1.486-3.292,2.016-5.018c0.188-0.616,0.909-0.43,1.382-0.063
			c3.159,2.443,3.379,7.246,0.462,9.853c-0.402,0.36-0.733,0.801-1.382,0.725c-1.169-0.137-2.04-0.08-2.072,1.571
			C235.304,175.226,234.149,175.081,233.362,175.095z"/>
		<path style="fill-rule:evenodd;clip-rule:evenodd;fill:#7B491E;" d="M88.28,191.527c0.026-2.662,1.446-4.782,4.016-5.565
			c1-0.305,0.735-0.937,0.672-1.431c-0.216-1.693,0.397-3.185,0.998-4.673c0.592-1.467,1.97-2.169,3.255-1.609
			c1.374,0.599,1.217,1.816,0.233,3.087c-1.352,1.745-1.243,4.438-3.696,5.562c-0.627,0.286-0.415,1.358-0.178,1.96
			c0.165,0.419,0.726,0.657,1.451,0.563c1.016-0.13,2.11,0.076,3.127,0.319c0.767,0.184,1.43,0.751,1.417,1.641
			c-0.016,1.057-0.827,1.253-1.66,1.131c-2.533-0.375-4.847,0.759-7.289,1.031C88.876,193.737,88.211,193.192,88.28,191.527z"/>
		<path style="fill-rule:evenodd;clip-rule:evenodd;fill:#7B491E;" d="M117.72,191.231c-1.073,0.098-2.455,0.31-3.84,0.326
			c-1.426,0.017-2.241-0.854-1.958-2.244c0.283-1.395,1.335-1.123,2.38-0.75c1.93,0.69,4.12-0.581,6.069,0.824
			c0.313,0.226,1.631-0.898,2.456-1.442c0.781-0.516,1.606-0.57,2.17,0.137c0.548,0.688,0.411,1.561-0.27,2.178
			c-1.291,1.17-1.629,2.86-2.466,4.259c-1.103,1.843-2.62,3.452-4.055,5.077c-1.036,1.173-1.331,2.861-3.013,3.653
			c-0.783,0.368-1.279,0.36-1.723-0.042c-0.475-0.432-0.767-1.186-0.171-1.76c1.903-1.837,1.758-5.762,5.833-5.548
			c0.526,0.028,0.132-2.197,0.284-3.368C119.557,191.445,119.236,190.852,117.72,191.231z"/>
		<path style="fill-rule:evenodd;clip-rule:evenodd;fill:#7B491E;" d="M300.098,186.894c-1.088-3.214-0.261-6.451,0.072-9.641
			c0.122-1.17,0.611-2.517,1.203-3.584c0.46-0.831,0.62-1.562,0.57-2.398c-0.063-1.077,0.032-2.085,1.087-2.625
			c1.193-0.61,2.126,0.398,2.896,0.926c0.717,0.491,0.947,1.575,0.553,2.727c-0.438,1.278-0.882,2.612-1.333,3.853
			c-1.096,3.013-0.332,6.423-2.317,9.243c-0.795,1.13-1.489,1.658-2.784,1.446L300.098,186.894z"/>
		<path style="fill-rule:evenodd;clip-rule:evenodd;fill:#7B491E;" d="M317.044,144.321c0.052-1.402-0.179-2.737,0.479-3.962
			c1.447-2.698-0.924-3.878-2.187-5.497c-0.671-0.86-2.527-1.143-1.782-2.676c0.869-1.786,2.192-1.477,3.85-0.602
			c2.385,1.26,3.152,2.582,1.94,5.056c-0.395,0.807-0.001,0.943,0.492,1.136c2.987,1.167,4.048,3.265,2.739,5.96
			c-0.811,1.671-2.23,2.958-3.636,4.169c-0.63,0.543-1.095,0.399-1.559-0.494C316.815,146.32,317.268,145.263,317.044,144.321z"/>
		<path style="fill-rule:evenodd;clip-rule:evenodd;fill:#7B491E;" d="M283.586,167.509c-1.654-1.151-1.907-2.985-2.161-4.739
			c-0.344-2.373-0.602-4.789,0.256-7.122c0.403-1.097,0.721-2.146,2.33-2.344c1.878-0.232,2.661,0.969,3.142,2.131
			c1.602,3.877,0.111,7.502-1.434,11.02c-0.311,0.705-1.248,1.093-2.172,1.011L283.586,167.509z"/>
		<path style="fill-rule:evenodd;clip-rule:evenodd;fill:#7B491E;" d="M265.633,175.546c0.579-0.026,1.192,0.026,1.809,0.562
			c0.807,0.702,1.666,0.943,2.922,0.484c1.478-0.541,2.985-0.038,3.862,1.615c0.488,0.922,0.675,1.876,0.001,2.562
			c-0.567,0.579-1.355,1.256-2.451,0.694c-0.848-0.434-1.694-0.378-2.627,0.176c-2.177,1.294-6.613-0.232-7.646-2.503
			C260.752,177.486,262.957,175.507,265.633,175.546z"/>
		<path style="fill-rule:evenodd;clip-rule:evenodd;fill:#7B491E;" d="M126.017,123.469c0.02,1.865-0.666,3.163-2.075,3.26
			c-1.271,0.087-1.537-1.243-1.741-2.453c-0.378-2.238-0.899-4.467-1.579-6.631c-0.216-0.688-0.609-2.119-2.079-0.953
			c-1.469,1.166-1.871-0.336-2.276-1.221c-1.003-2.188-0.516-3.62,1.257-4.333c1.423-0.573,1.717,0.18,1.978,1.372
			c0.141,0.648,0.6,1.132,1.573,1.321c2.717,0.529,3.732,2.413,3.13,5.277c-0.149,0.713,0.024,1.208,0.554,1.637
			C125.75,121.548,125.659,122.789,126.017,123.469z"/>
		<path style="fill-rule:evenodd;clip-rule:evenodd;fill:#7B491E;" d="M238.757,135.756c-0.063-1.937,0.506-3.602,0.944-5.289
			c0.291-1.118,0.994-1.622,2.185-1.644c1.344-0.023,1.391,0.94,1.576,1.815c0.486,2.298,0.997,4.592,1.4,6.905
			c0.36,2.064-1.276,4.013-3.175,4.058c-1.322,0.032-1.926-0.317-2.069-1.796C239.482,138.404,238.501,137.123,238.757,135.756z"/>
		<path style="fill-rule:evenodd;clip-rule:evenodd;fill:#7B491E;" d="M148.644,151.245c0.085,0.607-0.07,1.073-0.512,1.491
			c-1.151,1.092-2.176,2.34-3.429,3.292c-0.789,0.6-1.922,1.281-2.884,0.133c-0.733-0.875-0.515-1.701,0.217-2.578
			c0.704-0.843,2.673-1.743,2.119-2.257c-1.493-1.384-1.346-3.983-3.704-4.656c-0.667-0.19-1.757-0.421-1.696-1.614
			c0.038-0.731,0.592-1.15,1.089-1.42c1.475-0.799,5.48,1.313,5.436,3.017c-0.044,1.671,0.768,2.3,2.049,2.766
			C148.21,149.739,148.851,150.202,148.644,151.245z"/>
		<path style="fill-rule:evenodd;clip-rule:evenodd;fill:#7B491E;" d="M141.582,199.66c-0.093,3.486-0.323,3.531-3.764,4.259
			c-1.712,0.362-3.302,1.216-5.149,0.906c-0.753-0.126-1.802,0.083-1.844-0.936c-0.043-1.036,1.149-1.323,1.856-1.384
			c1.399-0.117,2.698-0.344,3.969-0.969c2.072-1.019,2.236-1.814,0.533-3.227c-0.852-0.706-1.706-1.411-2.55-2.127
			c-0.603-0.512-0.889-1.1-0.313-1.813c0.45-0.559,0.863-0.733,1.707-0.486C139.201,194.809,141.647,197.229,141.582,199.66z"/>
		<path style="fill-rule:evenodd;clip-rule:evenodd;fill:#7B491E;" d="M231.711,137.983c0.223,2.04-0.765,3.739-1.667,5.395
			c-0.553,1.013-1.534,1.475-2.896,1.078c-1.485-0.433-1.224-1.517-1.1-2.422c0.395-2.865,0.822-5.738,1.5-8.545
			c0.171-0.711,0.605-1.961,1.98-1.821c1.234,0.126,1.424,1.179,1.617,1.983C231.486,135.06,231.539,136.536,231.711,137.983z"/>
		<path style="fill-rule:evenodd;clip-rule:evenodd;fill:#7B491E;" d="M239.023,156.251c1.474-0.903-0.6-3.531,2.292-3.879
			c2.289-0.274,4.742,1.341,4.45,3.633c-0.323,2.528-0.929,5.036-3.771,6.209c-1.34,0.554-2.091,0.132-2.246-1.054
			C239.54,159.565,239.838,157.909,239.023,156.251z"/>
		<path style="fill-rule:evenodd;clip-rule:evenodd;fill:#7B491E;" d="M260.936,162.912c-0.222,2.426-1.159,4.666-2.117,6.883
			c-0.212,0.492-0.695,1.044-1.447,1.032c-0.919-0.014-1.185-0.737-1.334-1.372c-0.595-2.519-1.234-5.077-0.26-7.628
			c0.546-1.428,1.741-2.562,3.25-2.215C260.435,159.936,261.257,161.23,260.936,162.912z"/>
		<path style="fill-rule:evenodd;clip-rule:evenodd;fill:#7B491E;" d="M259.506,153.56c0.001-2.396,2.258-4.138,4.342-3.423
			c0.797,0.273,1.302,0.95,1.348,1.978c0.103,2.283-0.775,4.347-1.244,6.501c-0.152,0.699-0.591,0.96-1.346,0.915
			c-0.751-0.045-1.432-0.103-1.671-0.932C260.433,156.861,259.116,155.345,259.506,153.56z"/>
		<path style="fill-rule:evenodd;clip-rule:evenodd;fill:#7B491E;" d="M102.972,159.035c2.867-0.02,5.071,2.42,4.553,5.227
			c-0.161,0.869-0.081,1.541,0,2.356c0.102,1.022-0.288,2.167-1.691,2.318c-1.227,0.132-1.553-0.934-1.45-1.622
			c0.356-2.369-1.422-3.403-2.796-4.497c-0.972-0.772-1.285-1.539-0.956-2.485C100.996,159.285,101.927,158.813,102.972,159.035z"/>
		<path style="fill-rule:evenodd;clip-rule:evenodd;fill:#7B491E;" d="M283.547,167.465c-0.054,0.058-0.158,0.161-0.153,0.166
			c3.203,3.591,0.158,6.575-0.997,9.71c-0.211,0.574-0.849,1.286-1.676,0.987c-0.823-0.297-1.65-0.93-1.366-1.899
			c0.605-2.063,0.315-4.163,0.502-6.238c0.211-2.351,2.229-2.146,3.729-2.681C283.586,167.509,283.547,167.465,283.547,167.465z"/>
		<path style="fill-rule:evenodd;clip-rule:evenodd;fill:#7B491E;" d="M277.422,165.041c0.245,2.934-2.103,4.401-3.926,6.076
			c-0.71,0.651-1.679,0.064-1.708-1.08c-0.049-1.878-0.19-3.781,0.046-5.631c0.184-1.436,1.056-2.88,2.759-2.694
			S277.611,162.881,277.422,165.041z"/>
		<path style="fill-rule:evenodd;clip-rule:evenodd;fill:#7B491E;" d="M221.769,153.98c0.048-1.227-0.134-2.45,0.519-3.632
			c1.13-2.048,2.91-2.195,4.209-0.26c0.979,1.46,0.378,6.441-1.04,7.494c-0.487,0.361-0.846,1.441-1.931,0.697
			c-0.842-0.577-1.8-0.925-1.759-2.178C221.791,155.396,221.771,154.688,221.769,153.98z"/>
		<path style="fill-rule:evenodd;clip-rule:evenodd;fill:#7B491E;" d="M249.665,114.687c-2.96,0.171-2.735-1.828-2.85-3.301
			c-0.17-2.18,2.082-4.297,4.257-4.232c1.817,0.054,2.563,1.372,2.692,2.836C253.971,112.34,251.592,114.652,249.665,114.687z"/>
		<path style="fill-rule:evenodd;clip-rule:evenodd;fill:#7B491E;" d="M310.495,119.998c-0.588-0.526-1.112-0.896-1.511-1.372
			c-0.992-1.184-0.527-2.587,1.004-2.696c1.263-0.09,2.489,0.266,3.385,1.426c0.819,1.061,0.327,2.006-0.233,2.738
			c-0.548,0.717-0.403,1.311-0.359,2.04c0.041,0.673,0.152,1.358-0.222,2.05c-0.621,1.149-1.377,2.261-2.779,1.804
			c-1.556-0.508-2.062-2.523-1.141-3.912C309.106,121.371,309.77,120.796,310.495,119.998z"/>
		<path style="fill-rule:evenodd;clip-rule:evenodd;fill:#7B491E;" d="M284.444,116.29c0.254-1.247,0.588-2.254,1.869-2.741
			c1.229-0.468,1.882,0.31,2.509,1.018c1.704,1.921,1.181,6.224-0.882,7.766c-1.234,0.923-2.665,0.226-2.922-1.573
			C284.803,119.251,285.242,117.666,284.444,116.29z"/>
		<path style="fill-rule:evenodd;clip-rule:evenodd;fill:#7B491E;" d="M254.833,174.601c3.272-0.001,4.163,0.69,4.213,3.005
			c0.04,1.828-0.115,3.538-2.48,3.571c-1.962,0.027-4.554-2.456-4.613-4.158C251.873,174.78,253.243,174.449,254.833,174.601z"/>
		<path style="fill-rule:evenodd;clip-rule:evenodd;fill:#7B491E;" d="M289.695,129.34c0.299,1.035-0.303,2.1-0.668,3.167
			c-0.249,0.729-0.539,1.674-1.725,1.536c-1.083-0.126-1.634-0.711-1.862-1.74c-0.278-1.255-0.773-2.481-0.89-3.747
			c-0.141-1.523-0.229-3.238,1.992-3.477c1.917-0.206,2.953,0.767,3.146,2.905C289.724,128.373,289.695,128.768,289.695,129.34z"/>
		<path style="fill-rule:evenodd;clip-rule:evenodd;fill:#7B491E;" d="M268,152.269c0.046-1.13-0.041-2.481,0.427-3.856
			c0.574-1.69,1.873-2.005,3.109-1.55c1.144,0.421,1.801,1.577,1.245,3.046c-0.716,1.892-1.346,3.817-1.952,5.748
			c-0.264,0.841-0.797,1.062-1.582,1.021c-0.867-0.046-1.243-0.52-1.247-1.348C267.998,154.391,268,153.452,268,152.269z"/>
		<path style="fill-rule:evenodd;clip-rule:evenodd;fill:#7B491E;" d="M283.562,137.438c-0.435-2.121,1.373-2.295,2.827-2.621
			c0.979-0.22,3.334,2.627,3.298,3.792c-0.049,1.59-2.263,4.379-3.477,4.381C284.846,142.992,283.581,140.429,283.562,137.438z"/>
		<path style="fill-rule:evenodd;clip-rule:evenodd;fill:#7B491E;" d="M309.973,139.58c-0.442,1.413-0.338,3.275-1.821,4.557
			c-0.479,0.413-0.934,1.019-1.593,0.689c-0.67-0.335-1.428-0.838-1.276-1.759c0.211-1.281-0.385-2.415-0.505-3.632
			c-0.231-2.354,0.451-3.448,2.285-3.512C308.615,135.87,310.015,137.507,309.973,139.58z"/>
		<path style="fill-rule:evenodd;clip-rule:evenodd;fill:#7B491E;" d="M224.129,165.231c-0.028,1.825-1.59,3.718-3.062,3.708
			c-1.27-0.008-2.937-2.489-2.955-4.4c-0.016-1.637,1.897-3.558,3.494-3.507C223.162,161.081,224.167,162.756,224.129,165.231z"/>
		<path style="fill-rule:evenodd;clip-rule:evenodd;fill:#7B491E;" d="M107.122,210.013c-0.006-1.62,0.532-2.95,1.866-4.084
			c0.912-0.775,1.631-0.795,2.448-0.169c1.041,0.798,0.388,1.818-0.123,2.395c-0.59,0.667-1.302,1.279-0.684,2.035
			c0.472,0.578,1.468,0.432,2.164,0.024c0.78-0.456,1.371-0.264,1.77,0.421c0.455,0.78-0.091,1.349-0.664,1.767
			c-1.087,0.793-2.189,1.273-3.608,0.554c-0.682-0.347-1.225-1.068-2.367-0.777C107.29,212.338,106.677,211.068,107.122,210.013z"/>
		<path style="fill-rule:evenodd;clip-rule:evenodd;fill:#7B491E;" d="M281.205,184.09c0.109,0.756-0.021,1.645-0.524,2.467
			c-0.948,1.544-2.104,1.715-3.354,0.427c-0.788-0.813-1.549-1.711-1.758-2.846c-0.379-2.05,0.815-3.776,2.556-3.876
			C280.466,180.127,281.214,181.012,281.205,184.09z"/>
		<path style="fill-rule:evenodd;clip-rule:evenodd;fill:#7B491E;" d="M307.046,130.311c0.482-1.177,0.428-2.658,1.694-3.172
			c0.941-0.383,2.106-0.533,3.034,0.417c1.042,1.066,1.184,2.217,0.557,3.523c-0.488,1.019-0.565,2.218-1.335,3.113
			c-1.077,1.255-2.93,1.004-3.29-0.547C307.452,132.547,307.667,131.344,307.046,130.311z"/>
		<path style="fill-rule:evenodd;clip-rule:evenodd;fill:#7B491E;" d="M301.03,149.425c-0.39-1.601,0.644-2.609,1.935-3.388
			c0.819-0.493,1.585-0.237,2.301,0.463c1.158,1.134,1.462,2.511,0.889,3.879c-0.606,1.446-0.846,3.857-3.067,3.339
			C301.372,153.318,300.925,151.357,301.03,149.425z"/>
		<path style="fill-rule:evenodd;clip-rule:evenodd;fill:#7B491E;" d="M317.27,148.673c1.051-0.199,1.642,0.462,2.061,1.218
			c0.844,1.522-0.733,6.364-2.338,7.038c-1.212,0.509-1.795-0.477-2.152-1.375c-0.837-2.1-0.185-4.109,0.681-6.025
			C315.804,148.903,316.462,148.478,317.27,148.673z"/>
		<path style="fill-rule:evenodd;clip-rule:evenodd;fill:#7B491E;" d="M275.943,149.555c1.729,0.242,2.408,1.55,2.359,2.946
			c-0.056,1.566-0.604,3.15-1.509,4.49c-0.386,0.57-0.971,1.095-1.886,0.76c-0.832-0.305-1.25-0.727-1.278-1.679
			c-0.034-1.143-0.456-2.287-0.402-3.416C273.305,151.016,273.956,149.656,275.943,149.555z"/>
		<path style="fill-rule:evenodd;clip-rule:evenodd;fill:#7B491E;" d="M99.125,137.271c-0.176,0.823,0.427,1.928-0.537,2.735
			c-0.576,0.483-1.005,1.422-1.919,1.045c-0.689-0.285-1.213-0.837-1.35-1.754c-0.155-1.037-0.502-2.079-0.952-3.031
			c-0.462-0.978-0.795-1.97-0.02-2.783c0.527-0.554,1.328-1.2,2.258-0.721c1.085,0.56,2.252,1.119,2.501,2.496
			C99.216,135.865,99.125,136.511,99.125,137.271z"/>
		<path style="fill-rule:evenodd;clip-rule:evenodd;fill:#7B491E;" d="M268.468,108.308c-0.145,0.656,0.335,1.522-0.3,2.155
			c-0.579,0.577-1.009,1.659-2.015,1.348c-1.25-0.387-1.945-1.522-2.322-2.704c-0.228-0.716-0.04-1.557-0.085-2.339
			c-0.09-1.56,0.104-3.225,1.998-3.161c1.661,0.057,2.41,1.625,2.711,3.2C268.542,107.262,268.468,107.747,268.468,108.308z"/>
		<path style="fill-rule:evenodd;clip-rule:evenodd;fill:#7B491E;" d="M270.33,118.19c0.319,1.579-0.611,2.683-1.899,3.004
			c-1.125,0.281-2.146-0.572-2.59-1.807c-0.281-0.783-0.58-1.562-0.918-2.322c-0.512-1.15-0.246-2.183,0.751-2.79
			c1.202-0.731,2.634-0.778,3.481,0.492C269.803,115.74,270.614,116.806,270.33,118.19z"/>
		<path style="fill-rule:evenodd;clip-rule:evenodd;fill:#7B491E;" d="M253.869,106.505c0.273-1.711,0.737-3.301,3.064-3.146
			c0.527,0.036,1.116-0.005,1.593-0.208c1.006-0.43,1.7,0.214,2.152,0.777c0.59,0.733,0.311,1.598-0.431,2.27
			c-0.915,0.83-1.792,1.68-2.829,2.388c-0.921,0.628-1.793,0.629-2.604,0.181C254.045,108.343,253.538,107.576,253.869,106.505z"/>
		<path style="fill-rule:evenodd;clip-rule:evenodd;fill:#7B491E;" d="M98.187,141.983c0.605,0.398,1.244,0.796,1.858,1.229
			c1.679,1.183,2.13,4.851,1.286,6.68c-0.535,1.159-1.735,1.632-2.377,0.161c-0.819-1.876-1.863-3.651-2.575-5.552
			C95.904,143.233,96.736,142.324,98.187,141.983z"/>
		<path style="fill-rule:evenodd;clip-rule:evenodd;fill:#7B491E;" d="M103.336,170.955c-0.464,1.782-1.595,3.926-2.983,5.938
			c-0.598,0.866-1.694,0.769-2.336,0.4c-0.693-0.396-0.508-1.59-0.23-2.174c0.784-1.646,1.505-3.274,2.022-5.044
			c0.258-0.883,1.206-1.883,2.566-1.59C103.405,168.708,103.413,169.501,103.336,170.955z"/>
		<path style="fill-rule:evenodd;clip-rule:evenodd;fill:#7B491E;" d="M121.297,183.939c-0.101,0.664,0.068,1.399-0.315,2.185
			c-0.375,0.771-0.853,0.731-1.467,0.745c-0.599,0.013-0.947-0.062-1.089-0.827c-0.308-1.663-0.622-3.357-2.574-4.109
			c-0.284-0.109-0.643-1.182-0.292-2.011c0.426-1.008,1.235-0.671,1.774-0.559C120.406,180.005,121.38,180.539,121.297,183.939z"/>
		<path style="fill-rule:evenodd;clip-rule:evenodd;fill:#7B491E;" d="M314.25,157.194c-0.269,1.859-1.682,1.969-2.482,1.269
			c-1.533-1.341-3.28-1.812-5.124-2.315c-0.804-0.219-1.579-0.883-1.33-1.912c0.236-0.981,1.148-0.77,1.91-0.882
			c2.446-0.357,4.275,0.943,6.074,2.23C313.795,155.94,313.987,156.727,314.25,157.194z"/>
		<path style="fill-rule:evenodd;clip-rule:evenodd;fill:#7B491E;" d="M112.73,174.363c-0.044,0.239,0.112,0.975-0.171,1.765
			c-0.307,0.854-0.682,1.62-1.506,1.69c-1.052,0.089-0.897-0.916-1.129-1.647c-0.381-1.203-1.1-2.294-1.577-3.473
			c-0.272-0.674-1.205-1.271-0.226-2.196c0.815-0.771,1.697-0.781,2.572-0.492C112.531,170.617,112.985,172.087,112.73,174.363z"/>
		<path style="fill-rule:evenodd;clip-rule:evenodd;fill:#7B491E;" d="M83.383,156.204c-1.565,0.029-2.366-1.266-1.535-2.728
			c0.872-1.535,2.104-2.817,3.666-3.687c1.15-0.64,2.648,0.282,2.635,1.543C88.135,152.704,84.734,156.179,83.383,156.204z"/>
		<path style="fill-rule:evenodd;clip-rule:evenodd;fill:#7B491E;" d="M89.223,146.371c0.016-1.71,2.587-4.879,4.162-5.244
			c0.745-0.173,1.143,0.333,1.59,0.778c0.456,0.454,0.577,1.01,0.189,1.471c-1.199,1.426-2.396,2.83-3.151,4.573
			c-0.254,0.587-0.931,0.974-1.579,0.619C89.57,148.098,88.986,147.362,89.223,146.371z"/>
		<path style="fill-rule:evenodd;clip-rule:evenodd;fill:#7B491E;" d="M108.52,133.781c0.436,1.827-0.777,2.967-1.786,4.201
			c-0.889,1.09-1.955,0.427-2.154-0.278c-0.471-1.664-0.679-3.52,0.137-5.134c0.426-0.841,1.217-1.779,2.483-1.529
			C108.796,131.356,108.632,132.596,108.52,133.781z"/>
		<path style="fill-rule:evenodd;clip-rule:evenodd;fill:#7B491E;" d="M303.097,114.179c1.218,0.452,1.925,1.481,2.7,2.561
			c0.748,1.042-0.168,1.704-0.295,2.518c-0.029,0.19-0.82,0.479-1.54,0.268c-1.232-0.36-2.365-0.969-3.657-1.236
			c-1.421-0.296-1.605-1.849-0.403-2.652C300.827,115.017,301.946,114.688,303.097,114.179z"/>
		<path style="fill-rule:evenodd;clip-rule:evenodd;fill:#7B491E;" d="M133.069,193.767c-0.065,0.452,0.043,1.096-0.3,1.797
			c-0.291,0.594-0.709,0.812-1.154,0.968c-0.634,0.22-1.067-0.476-1.165-0.831c-0.399-1.455-1.006-2.604-2.385-3.441
			c-0.578-0.351-1.059-1.518-0.489-2.283c0.466-0.626,1.196-0.731,2.18-0.369C131.719,190.327,133.333,191.077,133.069,193.767z"/>
		<path style="fill-rule:evenodd;clip-rule:evenodd;fill:#7B491E;" d="M293.741,113.286c1.558-0.065,2.807,0.367,3.178,1.837
			c0.21,0.831,1.407,1.619,0.314,2.657c-0.594,0.563-1.277,1.5-1.978,0.629c-1.206-1.496-4.225-1.235-4.03-3.847
			C291.309,113.448,292.656,113.056,293.741,113.286z"/>
		<path style="fill-rule:evenodd;clip-rule:evenodd;fill:#7B491E;" d="M91.78,160.42c-1.526-1.335-3.533-1.521-5.143-2.476
			c-0.914-0.541,0.024-2.557,1.341-2.484c1.841,0.1,3.835,0.208,5.121,1.999c0.373,0.52,0.539,1.018,0.187,1.486
			C92.875,159.493,92.303,159.92,91.78,160.42z"/>
		<path style="fill-rule:evenodd;clip-rule:evenodd;fill:#7B491E;" d="M100.113,154.798c-0.108,0.881-0.015,1.449-0.386,2.064
			c-0.452,0.751-0.827,1.792-1.719,1.583c-0.876-0.205-1.38-1.135-1.259-2.24c0.091-0.832,0.076-1.621-0.621-2.386
			c-0.527-0.578-0.75-1.825,0.127-2.216c0.708-0.315,1.976-0.585,2.581,0.384C99.417,152.917,100.516,153.717,100.113,154.798z"/>
		<path style="fill-rule:evenodd;clip-rule:evenodd;fill:#7B491E;" d="M237.728,147.704c1.003,0.233,2.553,0.626,4.117,0.943
			c0.853,0.174,1.284,0.643,1.109,1.463c-0.183,0.857-0.93,1.046-1.661,0.887c-1.44-0.313-2.877-0.492-4.358-0.483
			c-0.892,0.006-1.936-0.073-1.952-1.407C234.963,147.499,236.137,147.73,237.728,147.704z"/>
		<path style="fill-rule:evenodd;clip-rule:evenodd;fill:#7B491E;" d="M109.96,127.953c-0.078-1.514,0.51-2.677,2.05-2.831
			c2.058-0.205,2.062,1.818,2.071,2.87c0.01,1.168-0.329,3.158-2.028,3.102C110.485,131.041,110.067,129.408,109.96,127.953z"/>
		<path style="fill-rule:evenodd;clip-rule:evenodd;fill:#7B491E;" d="M116.582,121.084c0,0.499,0.028,0.814-0.005,1.123
			c-0.139,1.307-0.984,2.279-2.147,2.309c-1.239,0.031-1.732-1.078-1.625-2.324c0.027-0.311-0.014-0.626,0.007-0.937
			c0.101-1.455,0.384-2.859,2.261-2.761C116.929,118.592,116.43,120.149,116.582,121.084z"/>
		<path style="fill-rule:evenodd;clip-rule:evenodd;fill:#7B491E;" d="M106.524,191.55c-1.076,0.222-1.913-0.312-2.811-0.754
			c-0.816-0.4-1.649-0.771-1.15-1.827c0.42-0.891,1.252-1.447,2.287-1.108c0.579,0.19,1.1,0.481,1.744,0.426
			c1.327-0.114,2.478,0.354,2.359,1.798C108.854,191.307,107.762,191.782,106.524,191.55z"/>
		<path style="fill-rule:evenodd;clip-rule:evenodd;fill:#7B491E;" d="M123.995,205.26c1.245,0.41,1.98-0.091,2.792-0.382
			c0.754-0.27,1.659-0.231,1.98,0.672c0.315,0.887-0.206,1.396-1.113,1.66c-1.291,0.374-2.535,0.905-3.817,1.312
			c-0.677,0.216-1.206-0.117-1.562-0.701c-0.372-0.61-0.321-1.254,0.012-1.84C122.75,205.168,123.521,205.161,123.995,205.26z"/>
		<path style="fill-rule:evenodd;clip-rule:evenodd;fill:#7B491E;" d="M269.075,161.348c1.337,0.274,1.704,1.348,1.696,2.372
			c-0.008,1.007-0.256,2.384-1.609,2.321c-1.418-0.065-1.866-1.428-2.08-2.63C266.812,161.905,268.213,161.87,269.075,161.348z"/>
		<path style="fill-rule:evenodd;clip-rule:evenodd;fill:#7B491E;" d="M377.119,213.267c-0.484,0.001-0.613-0.264-0.633-0.722
			c-0.032-0.812,0.688-0.827,1.093-0.89c0.536-0.082,0.266,0.515,0.31,0.809C377.97,213.017,377.746,213.352,377.119,213.267z"/>
	</g>
</g>
</svg>
