<?xml version="1.0" encoding="iso-8859-1"?>
<!-- Generator: Adobe Illustrator 16.0.0, SVG Export Plug-In . SVG Version: 6.00 Build 0)  -->
<!DOCTYPE svg PUBLIC "-//W3C//DTD SVG 1.1//EN" "http://www.w3.org/Graphics/SVG/1.1/DTD/svg11.dtd">
<svg version="1.1" id="Layer_1" xmlns="http://www.w3.org/2000/svg" xmlns:xlink="http://www.w3.org/1999/xlink" x="0px" y="0px"
	 width="401.124px" height="209.338px" viewBox="0 0 401.124 209.338" style="enable-background:new 0 0 401.124 209.338;"
	 xml:space="preserve">
<g>
	<g>
		<path style="fill:none;" d="M200.588,208.794c-65.895,0-131.79-0.009-197.685,0.044c-1.798,0.001-2.4-0.167-2.397-2.246
			C0.581,138.618,0.577,70.643,0.519,2.668C0.517,0.832,1.013,0.527,2.721,0.528c131.884,0.043,263.769,0.046,395.652-0.022
			c2.095-0.001,2.238,0.624,2.237,2.405c-0.051,67.88-0.055,135.76,0.014,203.64c0.003,1.996-0.467,2.295-2.353,2.293
			C332.378,208.785,266.482,208.794,200.588,208.794z M298.011,54.89c0.664,1.1,0.224,1.846-0.022,2.756
			c-0.832,3.079-1.987,6.047-2.48,9.259c-0.589,3.834-0.828,7.706-1.47,11.54c-0.484,2.892-1.805,5.68-1.309,8.767
			c0.382,2.375,2.448,4.73,5.228,4.96c2.231,0.184,3.59-1.324,4.313-3.326c1.121-3.106,2.32-6.188,3.991-9.035
			c2.562-4.368,3.72-9.28,5.088-14.022c1.492-5.174,2.127-10.642,1.282-16.118c-0.204-1.325,0.336-2.061,1.544-2.893
			c1.173-0.807,3.088-0.865,3.517-2.5c0.902-3.434,3.351-4.754,6.552-4.997c1.555-0.118,2.771-0.917,4.13-1.447
			c4.926-1.92,9.739-4.35,14.839-5.521c3.128-0.717,6.178-1.112,9.096-2.674c1.315-0.704,3.131-0.49,4.59,1.163
			c1.997,2.264,3.019,5.235,5.36,7.164c2.396,1.974,3.768,5.585,7.36,5.613c2.258,0.018,2.749,0.993,3.169,2.74
			c0.562,2.341,2.013,3.756,4.509,4.208c4.381,0.794,10.517-4.133,11.64-6.845c0.737-1.779-0.176-5.924-1.645-6.624
			c-3.181-1.515-5.225-4.512-6.922-7.045c-3.702-5.522-7.897-10.824-10.521-17.068c-0.756-1.799-2.276-2.403-4.611-1.92
			c-3.352,0.694-6.39,2.268-10.092,2.219c-5.369-0.07-10.16,2.484-13.768,6.62c-1.035,1.187-2.179,1.885-3.551,2.231
			c-3.116,0.785-6.037,1.975-8.91,3.413c-2.724,1.364-5.054,3.859-8.489,3.419c-4.438-0.568-7.822,1.83-11.024,4.208
			c-3.096,2.298-6.594,3.298-10.161,3.615c-2.962,0.263-5.421,1.437-7.996,2.522c-4.426,1.865-8.15,4.89-12.076,7.56
			c-4.218,2.87-8.416,5.798-11.697,9.807c-1.185,1.449-2.868,1.639-4.428,1.093c-2.653-0.928-5.536-0.388-7.569,0.531
			c-6.639,3.001-12.225,7.332-12.664,15.599c-0.033,0.611-0.364,1.218-0.61,1.805c-0.525,1.252-1.326,2.44-1.59,3.742
			c-1.016,5.018-2.521,9.914-3.397,14.979c-0.814,4.707-1.932,9.328-1.179,14.138c0.431,2.753,2.561,5.219,5.14,5.448
			c2.554,0.228,3.848-1.683,5.152-3.6c1.116-1.639,1.443-3.545,2.216-5.285c1.584-3.574,2.349-7.58,2.385-11.364
			c0.028-2.968,1.033-5.855,0.542-8.833c-0.069-0.414,0.37-1.12,0.773-1.371c3.018-1.881,4.794-4.905,7.068-7.47
			c0.584-0.659,1.312-1.423,2.104-1.625c3.038-0.776,5.636-2.543,8.561-3.585c2.358-0.841,4.766-1.77,6.743-3.472
			c1.741-1.5,3.969-2.198,5.891-3.355c2.996-1.804,6.841-1.923,9.294-4.592C293.676,57.492,296.03,56.561,298.011,54.89z
			 M328.455,118.328c0.245-0.056,0.491-0.112,0.736-0.168c1.284,3.25,2.863,6.42,3.775,9.771c1.103,4.048,3.052,7.312,6.744,9.284
			c0.985,0.526,1.321,1.282,1.708,2.044c2.757,5.431,4.137,11.25,5.422,17.193c0.874,4.037-0.211,7.623-1.027,11.152
			c-1.192,5.16-3.242,10.14-3.067,15.542c0.059,1.808-0.53,3.228-1.448,4.624c-1.771,2.691-0.912,7.707,1.659,9.563
			c3.39,2.45,7.671,0.594,9.438-3.806c1.676-4.173,1.615-8.773,3.479-12.876c1.212-2.667,2.144-5.416,2.152-8.407
			c0.004-1.475-0.074-2.916,0.489-4.401c1.014-2.669,1.532-5.477,0.415-8.284c-0.18-0.451-0.316-0.722-0.099-1.244
			c1.675-4.011,0.468-7.682-1.359-11.312c-1.491-2.963-3.761-5.596-4.941-8.551c-1.955-4.891-5.608-8.818-7.162-13.88
			c-0.362-1.18-1.421-2.556-2.508-3.011c-1.794-0.752-2.184-2.27-3.034-3.62c-2.001-3.176-3.161-6.969-6.597-9.116
			c-1.821-1.139-3.445-2.497-4.855-4.148c-1.401-1.642-3.103-1.449-4.954-0.623c-1.824,0.814-3.748,1.871-5.656,1.929
			c-3.071,0.094-5.84,0.073-6.916,3.674c-0.054,0.181-0.401,0.334-0.638,0.39c-2.493,0.588-5,1.658-7.486,1.617
			c-4.911-0.08-8.605,1.854-11.624,5.477c-1.094,1.312-2.455,2.688-3.933,2.98c-2.774,0.551-5.122,1.871-7.602,3.006
			c-2.272,1.04-3.538,2.64-3.256,5.239c0.127,1.174-0.08,2.095-1.324,2.705c-0.577,0.283-1.229,1.147-1.229,1.748
			c-0.001,2.763-1.746,5.04-1.965,7.705c-0.057,0.694-0.059,1.498-0.753,1.682c-3.826,1.015-3.812,4.021-3.81,7.064
			c0.001,1.454,0.037,2.607-1.569,3.761c-1.565,1.123-3.32,3.355-2.815,5.388c0.666,2.676-0.508,4.66-1.375,6.727
			c-1.239,2.951-2.404,6.152-5.072,8.13c-1.977,1.465-1.965,2.912-0.902,4.663c0.444,0.733,0.643,1.026,0.204,2.02
			c-0.67,1.516-1.078,3.477,0.44,4.948c1.659,1.609,3.201,0.417,4.439-0.588c3.276-2.657,6.31-5.619,9.633-8.211
			c2.241-1.747,3.97-3.595,5.052-6.343c2.259-5.734,3.077-11.599,2.762-17.691c-0.062-1.199-0.296-2.539,0.592-3.498
			c1.888-2.042,1.78-5.015,0.875-6.612c-1.863-3.285,0.359-3.995,2.172-5.075c3.028-1.806,5.766-4.586,9.476-4.587
			c3.298-0.001,6.196-0.964,8.212-3.166c3.28-3.585,7.431-5.342,11.668-7.238c2.128-0.952,4.328-2.021,5.946-3.912
			c0.531-0.621,1.346-1.358,2.307-0.543c0.84,0.713-0.081,1.261-0.254,1.886c-0.389,1.405-1.292,2.951-0.997,4.207
			c0.768,3.266-0.214,6.259-0.92,9.256c-0.907,3.853-0.937,7.941-3.542,11.395c-1.2,1.59-1.821,3.919-0.252,6.02
			c0.815,1.093,0.565,2.232-0.073,3.378c-1.341,2.403-2.609,4.848-3.922,7.268c-3.082,5.684-2.816,12.403-5.667,18.2
			c-0.786,1.6-0.127,3.173,2.482,3.158c2.977-0.018,4.655-1.796,5.826-3.888c1.731-3.095,3.658-5.832,6.729-7.724
			c2.054-1.266,3.518-3.464,3.94-5.534c0.402-1.972,1.209-3.619,2.018-5.312c0.904-1.895,2.315-3.616,0.588-5.764
			c-0.188-0.232-0.162-0.761-0.052-1.09c1.72-5.147,0.565-10.625,2.083-15.878C329.006,130.977,328.69,124.607,328.455,118.328z
			 M45.474,52.958c0.594,0.17,0.977,0.215,1.297,0.381c1.895,0.988,3.505,0.381,4.552-1.204c0.921-1.396,0.353-3.061-0.786-4.039
			c-1.372-1.177-3.072-1.773-4.736-0.115c-0.179,0.179-0.769,1.252-1.655,0.064c-1.579-2.117-3.532-1.233-5.516-0.208
			c-1.386,0.716-1.86,1.533-1.79,3.041c0.071,1.52,0.786,1.918,2.137,1.925c0.885,0.004,1.301,0.641,1.302,1.514
			c0.001,1.763,0.801,3.404,0.612,5.228c-0.211,2.05,0.355,3.725,2.614,4.631c1.684,0.675,3.318,0.744,4.256-0.604
			c1.12-1.61,0.443-3.465-0.396-5.235C46.572,56.663,45.064,55.168,45.474,52.958z M110.071,123
			c0.044-2.614-0.849-3.314-3.477-2.731c-4.324,0.959-8.681,6.062-9.006,10.528c-0.098,1.343,0.702,1.978,1.754,2.565
			c1.001,0.56,1.786,0.781,2.708-0.19c2.032-2.143,4.231-4.129,6.206-6.318C109.201,125.805,110.348,124.694,110.071,123z
			 M16.3,80.571c-1.245,0.215-1.817,1.476-2.184,3.268c-0.346,1.694,1.171,3.693,0.079,4.768c-2.898,2.851-1.767,5.5-0.354,8.335
			c0.637,1.278,1.542,1.68,2.984,1.298c2.97-0.786,3.739-3.139,2.193-6.914c-0.361-0.882-1.567-1.903-0.55-2.736
			c1.372-1.122,1.285-2.585,1.619-3.992C20.622,82.346,19.263,80.556,16.3,80.571z M13.635,67.347
			c0.078,0.931,0.726,2.218,2.008,2.875c0.984,0.505,2.22,0.749,3.225-0.287c0.773-0.797,1.929-1.91,1.332-2.757
			c-1.864-2.646-0.374-3.876,1.551-5.333c0.816-0.618,1.717-1.196,2.388-2.144c0.804-1.134,1.308-2.342,0.541-3.284
			c-0.808-0.991-2.277-1.116-3.612-0.613C18.207,56.884,13.527,63.777,13.635,67.347z M118.657,117.446
			c2.386,0.019,7.989-3.743,8.797-5.722c0.572-1.402,0.079-2.47-1.052-3.141c-2.354-1.396-8.654,0.278-9.833,2.733
			c-0.695,1.447-1.38,3.167-0.615,4.818C116.458,117.223,117.527,117.716,118.657,117.446z M178.017,89.071
			c2.019,0.042,4.146,0.293,4.121-2.761c-0.02-2.416-3.005-5.771-5.195-5.743c-1.993,0.025-4.372,2.38-4.458,4.413
			C172.385,87.327,174.746,89.074,178.017,89.071z M135.638,107.326c2.112-0.628,4.694-1.498,6.2-4.093
			c1.292-2.229,0.383-3.76-2.159-3.954c-3.194-0.244-5.489,0.976-7.04,3.813c-0.655,1.198-0.628,2.357-0.17,3.451
			C132.928,107.637,134.115,107.126,135.638,107.326z M189.311,99.858c-2.251-0.022-3.788,1.379-3.776,3.444
			c0.02,3.414,1.859,5.643,4.605,5.641c2.277-0.001,3.342-1.114,3.342-3.372C193.48,102.12,191.868,99.884,189.311,99.858z
			 M186.116,96.839c0.009-2.612-2.25-4.746-4.865-4.964c-2.533-0.21-3.528,0.869-3.684,3.268c-0.214,3.312,2.906,5.054,5.273,5.224
			C185.116,100.529,186.095,99.005,186.116,96.839z M154.326,92.115c0.056-1.527-1.7-3.516-3.104-3.518
			c-2.109-0.002-5.981,3.496-5.951,5.495c0.03,2.041,1.243,3.219,3.198,3.468C150.421,97.809,154.252,94.153,154.326,92.115z
			 M95.938,154.471c1.161,2.053,1.978,4.989,4.221,7.098c0.227,0.213,0.947,1.035,1.613,0.212c0.401-0.495,1.212-0.923,0.878-1.606
			c-1.141-2.333-0.143-4.897-0.987-7.319c-0.522-1.497-1.03-3.193-2.516-2.892C97.484,150.301,95.665,151.434,95.938,154.471z
			 M99.974,164.575c-2.209-0.488-4.223,0.491-3.888,2.714c0.287,1.899,1.129,3.979,2.277,5.807c0.654,1.04,1.297,1.145,2.238,1.082
			c1.242-0.082,1.295-1.142,1.499-1.983c0.232-0.958-0.239-1.985,0.623-2.923c0.865-0.942,1.62-2.155,0.843-3.535
			C102.787,164.348,101.408,164.444,99.974,164.575z M146.517,131.631c2.86-0.024,3.932-0.926,3.814-3.454
			c-0.097-2.076-0.705-3.883-3.309-3.922c-2.289-0.034-5.128,1.938-5.178,3.599C141.769,130.4,143.325,131.658,146.517,131.631z
			 M79.838,75.459c0.63,0.085,1.135-0.188,1.688-0.644c2.634-2.169,0.833-4.362,0.015-6.463c-0.481-1.234-1.051-2.685-2.882-2.535
			c-1.996,0.164-2.119,1.957-2.506,3.231C75.358,71.668,77.661,75.494,79.838,75.459z M145.706,118.016
			c1.953,0.101,2.984-0.715,2.961-2.784c-0.029-2.551-1.818-4.71-4.197-4.532c-1.41,0.104-3.481-0.109-3.696,1.995
			C140.5,115.351,143.107,117.969,145.706,118.016z M59.787,55.056c1.52,0.153,2.041-0.86,2.709-1.953
			c0.867-1.418,0.648-2.754-0.174-3.86c-0.701-0.941-1.949-1.446-3.179-0.784c-0.634,0.341-1.245,0.335-1.886,0.327
			c-0.862-0.01-1.887-0.077-2.091,0.933c-0.209,1.033-0.558,2.235,0.328,3.179C56.659,54.137,58.162,54.751,59.787,55.056z
			 M78.866,81.767c-0.006,2.489,1.797,5.31,3.181,4.821c1.733-0.611,3.286-1.687,3.093-4.066c-0.167-2.066-1.793-4.172-3.596-4.219
			C78.96,78.236,78.751,79.959,78.866,81.767z M20.401,78.314c0.115-3.853-1.041-5.558-3.19-5.703
			c-2.464-0.167-3.302,1.436-3.546,3.383c-0.235,1.866,1.916,3.923,3.791,4.017C19.251,80.1,20.317,79.409,20.401,78.314z
			 M161.702,83.596c-0.163,1.386,0.063,2.909,1.981,3.167c1.893,0.254,5.352-2.868,5.412-4.542c0.082-2.267-1.508-2.176-2.986-2.211
			C162.567,79.925,161.71,80.597,161.702,83.596z M102.47,141.672c-0.493-1.934-0.417-4.167-3.018-4.357
			c-1.437-0.105-3.53,2.052-3.565,3.616c-0.043,1.949,1.883,4.433,3.562,4.262C101.545,144.98,102.041,143.146,102.47,141.672z
			 M30.697,56.175c2.413,0.112,2.654-1.805,3.264-3.077c0.435-0.907-3.239-4.283-4.373-4.041c-1.691,0.362-3.156,1.026-2.949,3.284
			C26.823,54.337,28.812,56.21,30.697,56.175z M146.953,137.328c-0.044,2.872,1.179,4.502,3.52,4.463
			c1.896-0.031,3.048-1.278,3.241-3.121c0.151-1.442-2.823-3.727-4.579-3.617C147.673,135.144,146.6,135.7,146.953,137.328z
			 M47.248,65.801c-1.814-0.032-2.947,0.931-2.986,2.541c-0.04,1.616,2.123,4.7,3.468,4.536c1.961-0.239,2.771-1.943,2.687-3.643
			C50.329,67.452,49.551,65.777,47.248,65.801z M70.383,56.206c1.583-0.483,3.425-0.852,3.386-3.353
			c-0.034-2.169-2.106-2.677-3.184-2.581c-1.643,0.148-3.431,1.575-3.498,3.389C67.035,55.064,68.41,56.202,70.383,56.206z
			 M78.852,58.744c0.306-1.45,0.522-3.009-1.8-3.136c-1.67-0.091-2.695,0.682-2.703,2.391c-0.008,1.762-0.644,4.106,2.088,4.346
			C78.774,62.55,78.958,60.682,78.852,58.744z M314.863,9.053c-0.328-0.988-0.955-2.086-1.91-2.02
			c-0.93,0.064-2.186,0.562-2.046,2.112c0.109,1.204,0.798,2.124,1.833,2.084C313.816,11.188,314.575,10.2,314.863,9.053z"/>
		<path style="fill-rule:evenodd;clip-rule:evenodd;fill:#7B491E;" d="M298.011,54.89c-1.98,1.671-4.335,2.602-6.106,4.529
			c-2.453,2.669-6.298,2.788-9.294,4.592c-1.922,1.157-4.149,1.855-5.891,3.355c-1.978,1.702-4.385,2.631-6.743,3.472
			c-2.925,1.042-5.522,2.809-8.561,3.585c-0.793,0.203-1.521,0.966-2.104,1.625c-2.274,2.565-4.051,5.589-7.068,7.47
			c-0.403,0.251-0.843,0.957-0.773,1.371c0.491,2.977-0.514,5.865-0.542,8.833c-0.036,3.784-0.801,7.79-2.385,11.364
			c-0.772,1.74-1.1,3.646-2.216,5.285c-1.305,1.917-2.599,3.827-5.152,3.6c-2.579-0.229-4.709-2.695-5.14-5.448
			c-0.753-4.81,0.364-9.432,1.179-14.138c0.877-5.064,2.382-9.96,3.397-14.979c0.264-1.301,1.064-2.49,1.59-3.742
			c0.246-0.586,0.577-1.193,0.61-1.805c0.439-8.268,6.025-12.598,12.664-15.599c2.033-0.919,4.916-1.458,7.569-0.531
			c1.56,0.546,3.243,0.356,4.428-1.093c3.281-4.009,7.479-6.938,11.697-9.807c3.926-2.67,7.65-5.695,12.076-7.56
			c2.575-1.085,5.034-2.259,7.996-2.522c3.567-0.317,7.065-1.316,10.161-3.615c3.202-2.377,6.587-4.776,11.024-4.208
			c3.436,0.44,5.766-2.055,8.489-3.419c2.873-1.438,5.794-2.628,8.91-3.413c1.372-0.346,2.516-1.044,3.551-2.231
			c3.607-4.136,8.398-6.689,13.768-6.62c3.702,0.049,6.74-1.525,10.092-2.219c2.335-0.482,3.855,0.122,4.611,1.92
			c2.624,6.244,6.819,11.545,10.521,17.068c1.697,2.533,3.741,5.53,6.922,7.045c1.469,0.7,2.382,4.844,1.645,6.624
			c-1.123,2.712-7.259,7.639-11.64,6.845c-2.496-0.453-3.947-1.868-4.509-4.208c-0.42-1.747-0.911-2.722-3.169-2.74
			c-3.593-0.028-4.964-3.639-7.36-5.613c-2.342-1.929-3.363-4.9-5.36-7.164c-1.459-1.653-3.274-1.867-4.59-1.163
			c-2.918,1.562-5.968,1.957-9.096,2.674c-5.1,1.17-9.913,3.6-14.839,5.521c-1.358,0.53-2.575,1.33-4.13,1.447
			c-3.201,0.243-5.649,1.563-6.552,4.997c-0.429,1.635-2.344,1.694-3.517,2.5c-1.208,0.832-1.748,1.568-1.544,2.893
			c0.845,5.476,0.21,10.943-1.282,16.118c-1.368,4.743-2.526,9.654-5.088,14.022c-1.671,2.847-2.87,5.929-3.991,9.035
			c-0.724,2.002-2.082,3.51-4.313,3.326c-2.779-0.229-4.846-2.585-5.228-4.96c-0.496-3.087,0.824-5.875,1.309-8.767
			c0.642-3.834,0.881-7.706,1.47-11.54c0.493-3.211,1.648-6.18,2.48-9.259C298.234,56.736,298.675,55.99,298.011,54.89z"/>
		<path style="fill-rule:evenodd;clip-rule:evenodd;fill:#7B491E;" d="M328.455,118.328c0.235,6.279,0.551,12.649-1.194,18.691
			c-1.518,5.253-0.363,10.73-2.083,15.878c-0.11,0.329-0.136,0.857,0.052,1.09c1.728,2.147,0.316,3.869-0.588,5.764
			c-0.809,1.693-1.615,3.341-2.018,5.312c-0.423,2.07-1.887,4.269-3.94,5.534c-3.071,1.892-4.998,4.629-6.729,7.724
			c-1.171,2.092-2.85,3.87-5.826,3.888c-2.609,0.015-3.269-1.559-2.482-3.158c2.851-5.797,2.585-12.517,5.667-18.2
			c1.312-2.42,2.581-4.864,3.922-7.268c0.639-1.146,0.889-2.285,0.073-3.378c-1.569-2.101-0.948-4.43,0.252-6.02
			c2.605-3.453,2.635-7.542,3.542-11.395c0.706-2.997,1.688-5.99,0.92-9.256c-0.295-1.256,0.608-2.802,0.997-4.207
			c0.173-0.625,1.094-1.173,0.254-1.886c-0.961-0.815-1.775-0.078-2.307,0.543c-1.618,1.891-3.818,2.96-5.946,3.912
			c-4.237,1.896-8.388,3.653-11.668,7.238c-2.016,2.202-4.914,3.165-8.212,3.166c-3.71,0.001-6.447,2.781-9.476,4.587
			c-1.812,1.08-4.035,1.79-2.172,5.075c0.905,1.598,1.013,4.57-0.875,6.612c-0.888,0.959-0.654,2.299-0.592,3.498
			c0.315,6.093-0.503,11.957-2.762,17.691c-1.082,2.748-2.811,4.596-5.052,6.343c-3.323,2.592-6.356,5.554-9.633,8.211
			c-1.238,1.005-2.78,2.197-4.439,0.588c-1.519-1.472-1.11-3.433-0.44-4.948c0.438-0.993,0.24-1.286-0.204-2.02
			c-1.062-1.751-1.074-3.198,0.902-4.663c2.668-1.978,3.833-5.179,5.072-8.13c0.867-2.066,2.041-4.051,1.375-6.727
			c-0.505-2.032,1.25-4.265,2.815-5.388c1.606-1.153,1.57-2.307,1.569-3.761c-0.002-3.043-0.017-6.05,3.81-7.064
			c0.694-0.184,0.696-0.987,0.753-1.682c0.219-2.665,1.964-4.942,1.965-7.705c0-0.601,0.652-1.465,1.229-1.748
			c1.244-0.61,1.451-1.531,1.324-2.705c-0.282-2.6,0.983-4.199,3.256-5.239c2.479-1.135,4.827-2.455,7.602-3.006
			c1.478-0.293,2.839-1.668,3.933-2.98c3.019-3.623,6.713-5.557,11.624-5.477c2.486,0.041,4.993-1.029,7.486-1.617
			c0.236-0.056,0.584-0.209,0.638-0.39c1.076-3.601,3.845-3.58,6.916-3.674c1.908-0.058,3.832-1.114,5.656-1.929
			c1.852-0.826,3.553-1.019,4.954,0.623c1.41,1.651,3.034,3.01,4.855,4.148c3.436,2.147,4.596,5.94,6.597,9.116
			c0.851,1.351,1.24,2.868,3.034,3.62c1.087,0.455,2.146,1.831,2.508,3.011c1.554,5.062,5.207,8.989,7.162,13.88
			c1.181,2.955,3.45,5.588,4.941,8.551c1.827,3.63,3.034,7.301,1.359,11.312c-0.218,0.522-0.081,0.793,0.099,1.244
			c1.117,2.808,0.599,5.615-0.415,8.284c-0.563,1.485-0.485,2.927-0.489,4.401c-0.009,2.991-0.94,5.74-2.152,8.407
			c-1.863,4.103-1.803,8.703-3.479,12.876c-1.768,4.399-6.049,6.256-9.438,3.806c-2.571-1.856-3.43-6.872-1.659-9.563
			c0.918-1.396,1.507-2.816,1.448-4.624c-0.175-5.402,1.875-10.382,3.067-15.542c0.816-3.529,1.901-7.115,1.027-11.152
			c-1.285-5.943-2.665-11.763-5.422-17.193c-0.387-0.762-0.723-1.518-1.708-2.044c-3.692-1.972-5.642-5.236-6.744-9.284
			c-0.912-3.352-2.491-6.521-3.775-9.771C328.946,118.215,328.7,118.272,328.455,118.328z"/>
		<path style="fill-rule:evenodd;clip-rule:evenodd;fill:#7B491E;" d="M45.474,52.958c-0.41,2.21,1.098,3.705,1.892,5.38
			c0.839,1.77,1.516,3.625,0.396,5.235c-0.938,1.348-2.572,1.279-4.256,0.604c-2.259-0.906-2.826-2.581-2.614-4.631
			c0.188-1.824-0.611-3.465-0.612-5.228c-0.001-0.873-0.417-1.51-1.302-1.514c-1.352-0.006-2.066-0.405-2.137-1.925
			c-0.07-1.508,0.404-2.325,1.79-3.041c1.984-1.025,3.938-1.909,5.516,0.208c0.886,1.188,1.476,0.114,1.655-0.064
			c1.665-1.659,3.365-1.062,4.736,0.115c1.139,0.978,1.707,2.643,0.786,4.039c-1.046,1.585-2.657,2.192-4.552,1.204
			C46.451,53.173,46.068,53.128,45.474,52.958z M45.39,50.526c-0.039-0.419,0.113-0.992-0.471-1.09
			c-0.64-0.107-0.688,0.438-0.648,0.889c0.042,0.471-0.254,1.213,0.587,1.223C45.497,51.555,45.325,50.934,45.39,50.526z"/>
		<path style="fill-rule:evenodd;clip-rule:evenodd;fill:#7B491E;" d="M110.067,122.999c0.281,1.695-0.866,2.807-1.811,3.854
			c-1.975,2.189-4.174,4.176-6.206,6.318c-0.922,0.972-1.707,0.75-2.708,0.19c-1.052-0.588-1.852-1.223-1.754-2.565
			c0.325-4.466,4.682-9.569,9.006-10.528C109.222,119.685,110.115,120.385,110.067,122.999z"/>
		<path style="fill-rule:evenodd;clip-rule:evenodd;fill:#7B491E;" d="M16.3,80.571c2.963-0.016,4.322,1.775,3.787,4.027
			c-0.334,1.407-0.248,2.87-1.619,3.992c-1.017,0.833,0.189,1.854,0.55,2.736c1.546,3.775,0.777,6.128-2.193,6.914
			c-1.441,0.382-2.347-0.021-2.984-1.298c-1.412-2.835-2.544-5.484,0.354-8.335c1.092-1.074-0.425-3.074-0.079-4.768
			C14.483,82.047,15.055,80.787,16.3,80.571z"/>
		<path style="fill-rule:evenodd;clip-rule:evenodd;fill:#7B491E;" d="M13.635,67.347c-0.107-3.57,4.572-10.463,7.433-11.542
			c1.335-0.503,2.804-0.378,3.612,0.613c0.768,0.942,0.263,2.15-0.541,3.284c-0.671,0.948-1.572,1.526-2.388,2.144
			c-1.925,1.457-3.416,2.687-1.551,5.333c0.597,0.847-0.559,1.959-1.332,2.757c-1.005,1.036-2.241,0.792-3.225,0.287
			C14.361,69.565,13.712,68.278,13.635,67.347z"/>
		<path style="fill-rule:evenodd;clip-rule:evenodd;fill:#7B491E;" d="M118.657,117.446c-1.129,0.271-2.199-0.223-2.704-1.311
			c-0.765-1.651-0.08-3.371,0.615-4.818c1.18-2.455,7.48-4.13,9.833-2.733c1.131,0.671,1.624,1.738,1.052,3.141
			C126.646,113.703,121.043,117.464,118.657,117.446z"/>
		<path style="fill-rule:evenodd;clip-rule:evenodd;fill:#7B491E;" d="M178.019,89.075c-3.273,0-5.634-1.748-5.534-4.094
			c0.086-2.033,2.465-4.388,4.458-4.413c2.189-0.028,5.175,3.327,5.195,5.743C182.163,89.364,180.036,89.112,178.019,89.075z"/>
		<path style="fill-rule:evenodd;clip-rule:evenodd;fill:#7B491E;" d="M135.638,107.326c-1.523-0.199-2.71,0.312-3.169-0.783
			c-0.458-1.094-0.485-2.253,0.17-3.451c1.551-2.837,3.846-4.057,7.04-3.813c2.542,0.194,3.452,1.725,2.159,3.954
			C140.332,105.828,137.75,106.698,135.638,107.326z"/>
		<path style="fill-rule:evenodd;clip-rule:evenodd;fill:#7B491E;" d="M189.311,99.858c2.557,0.026,4.169,2.262,4.171,5.713
			c0,2.258-1.064,3.371-3.342,3.372c-2.746,0.002-4.585-2.227-4.605-5.641C185.523,101.237,187.059,99.835,189.311,99.858z"/>
		<path style="fill-rule:evenodd;clip-rule:evenodd;fill:#7B491E;" d="M186.116,96.839c-0.021,2.167-1,3.69-3.276,3.527
			c-2.367-0.169-5.487-1.911-5.273-5.224c0.156-2.398,1.15-3.478,3.684-3.268C183.866,92.093,186.125,94.227,186.116,96.839z"/>
		<path style="fill-rule:evenodd;clip-rule:evenodd;fill:#7B491E;" d="M154.326,92.115c-0.074,2.038-3.905,5.694-5.857,5.446
			c-1.955-0.25-3.167-1.427-3.198-3.468c-0.03-1.999,3.842-5.498,5.951-5.495C152.626,88.599,154.382,90.588,154.326,92.115z"/>
		<path style="fill-rule:evenodd;clip-rule:evenodd;fill:#7B491E;" d="M95.938,154.471c-0.274-3.037,1.545-4.17,3.209-4.508
			c1.486-0.302,1.994,1.395,2.516,2.892c0.844,2.422-0.153,4.986,0.987,7.319c0.334,0.684-0.477,1.111-0.878,1.606
			c-0.666,0.823-1.387,0.001-1.613-0.212C97.916,159.46,97.1,156.524,95.938,154.471z"/>
		<path style="fill-rule:evenodd;clip-rule:evenodd;fill:#7B491E;" d="M99.974,164.575c1.434-0.131,2.812-0.227,3.593,1.161
			c0.776,1.38,0.022,2.593-0.843,3.535c-0.862,0.938-0.391,1.965-0.623,2.923c-0.204,0.842-0.257,1.901-1.499,1.983
			c-0.941,0.062-1.584-0.042-2.238-1.082c-1.148-1.827-1.99-3.907-2.277-5.807C95.751,165.066,97.765,164.086,99.974,164.575z"/>
		<path style="fill-rule:evenodd;clip-rule:evenodd;fill:#7B491E;" d="M146.517,131.631c-3.192,0.026-4.748-1.231-4.672-3.777
			c0.05-1.661,2.889-3.633,5.178-3.599c2.604,0.039,3.211,1.846,3.309,3.922C150.449,130.706,149.376,131.607,146.517,131.631z"/>
		<path style="fill-rule:evenodd;clip-rule:evenodd;fill:#7B491E;" d="M79.838,75.459c-2.177,0.034-4.479-3.792-3.685-6.411
			c0.387-1.275,0.511-3.068,2.506-3.231c1.831-0.15,2.401,1.301,2.882,2.535c0.818,2.101,2.619,4.294-0.015,6.463
			C80.973,75.271,80.468,75.544,79.838,75.459z"/>
		<path style="fill-rule:evenodd;clip-rule:evenodd;fill:#7B491E;" d="M145.705,118.015c-2.598-0.046-5.204-2.664-4.932-5.32
			c0.215-2.104,2.286-1.891,3.696-1.995c2.379-0.178,4.168,1.981,4.197,4.532C148.69,117.301,147.658,118.117,145.705,118.015z"/>
		<path style="fill-rule:evenodd;clip-rule:evenodd;fill:#7B491E;" d="M59.787,55.056c-1.625-0.305-3.128-0.919-4.292-2.158
			c-0.886-0.943-0.538-2.146-0.328-3.179c0.204-1.009,1.229-0.942,2.091-0.933c0.641,0.008,1.252,0.014,1.886-0.327
			c1.229-0.662,2.478-0.158,3.179,0.784c0.822,1.105,1.041,2.442,0.174,3.86C61.828,54.196,61.307,55.209,59.787,55.056z"/>
		<path style="fill-rule:evenodd;clip-rule:evenodd;fill:#7B491E;" d="M78.866,81.767c-0.115-1.808,0.094-3.531,2.678-3.464
			c1.802,0.047,3.428,2.153,3.596,4.219c0.193,2.379-1.36,3.455-3.093,4.066C80.663,87.076,78.859,84.255,78.866,81.767z"/>
		<path style="fill-rule:evenodd;clip-rule:evenodd;fill:#7B491E;" d="M20.401,78.314c-0.084,1.095-1.15,1.786-2.945,1.697
			c-1.875-0.093-4.026-2.15-3.791-4.017c0.245-1.947,1.083-3.55,3.546-3.383C19.36,72.756,20.516,74.461,20.401,78.314z"/>
		<path style="fill-rule:evenodd;clip-rule:evenodd;fill:#7B491E;" d="M161.702,83.596c0.008-3,0.866-3.671,4.407-3.587
			c1.479,0.035,3.068-0.056,2.986,2.211c-0.06,1.675-3.519,4.797-5.412,4.542C161.765,86.505,161.539,84.982,161.702,83.596z"/>
		<path style="fill-rule:evenodd;clip-rule:evenodd;fill:#7B491E;" d="M102.47,141.672c-0.429,1.474-0.925,3.308-3.021,3.521
			c-1.679,0.171-3.606-2.312-3.562-4.262c0.035-1.564,2.128-3.722,3.565-3.616C102.053,137.505,101.978,139.739,102.47,141.672z"/>
		<path style="fill-rule:evenodd;clip-rule:evenodd;fill:#7B491E;" d="M30.697,56.175c-1.885,0.035-3.875-1.838-4.058-3.834
			c-0.208-2.257,1.257-2.922,2.949-3.284c1.134-0.243,4.808,3.133,4.373,4.041C33.352,54.37,33.11,56.287,30.697,56.175z"/>
		<path style="fill-rule:evenodd;clip-rule:evenodd;fill:#7B491E;" d="M146.953,137.328c-0.353-1.628,0.721-2.184,2.183-2.275
			c1.756-0.109,4.73,2.175,4.579,3.617c-0.193,1.843-1.345,3.09-3.241,3.121C148.132,141.83,146.909,140.2,146.953,137.328z"/>
		<path style="fill-rule:evenodd;clip-rule:evenodd;fill:#7B491E;" d="M47.248,65.801c2.304-0.024,3.082,1.65,3.169,3.433
			c0.084,1.7-0.726,3.404-2.687,3.643c-1.345,0.164-3.508-2.919-3.468-4.536C44.301,66.732,45.434,65.769,47.248,65.801z"/>
		<path style="fill-rule:evenodd;clip-rule:evenodd;fill:#7B491E;" d="M70.383,56.206c-1.973-0.004-3.348-1.142-3.295-2.545
			c0.067-1.813,1.855-3.241,3.498-3.389c1.077-0.097,3.149,0.411,3.184,2.581C73.808,55.354,71.966,55.723,70.383,56.206z"/>
		<path style="fill-rule:evenodd;clip-rule:evenodd;fill:#7B491E;" d="M78.852,58.744c0.106,1.938-0.078,3.806-2.415,3.601
			c-2.732-0.24-2.096-2.584-2.088-4.346c0.008-1.709,1.032-2.481,2.703-2.391C79.375,55.735,79.158,57.294,78.852,58.744z"/>
		<path style="fill-rule:evenodd;clip-rule:evenodd;fill:#7B491E;" d="M314.862,9.053c-0.287,1.146-1.046,2.135-2.122,2.176
			c-1.035,0.039-1.724-0.881-1.833-2.084c-0.14-1.55,1.116-2.047,2.046-2.112C313.908,6.966,314.535,8.064,314.862,9.053z"/>
		<path style="fill-rule:evenodd;clip-rule:evenodd;fill:none;" d="M45.391,50.529c-0.066,0.405,0.105,1.026-0.534,1.019
			c-0.841-0.01-0.545-0.752-0.587-1.223c-0.039-0.451,0.008-0.996,0.648-0.889C45.503,49.534,45.351,50.107,45.391,50.529z"/>
	</g>
</g>
</svg>
