<?xml version="1.0" encoding="iso-8859-1"?>
<!-- Generator: Adobe Illustrator 16.0.0, SVG Export Plug-In . SVG Version: 6.00 Build 0)  -->
<!DOCTYPE svg PUBLIC "-//W3C//DTD SVG 1.1//EN" "http://www.w3.org/Graphics/SVG/1.1/DTD/svg11.dtd">
<svg version="1.1" id="Layer_1" xmlns="http://www.w3.org/2000/svg" xmlns:xlink="http://www.w3.org/1999/xlink" x="0px" y="0px"
	 width="401.092px" height="190.642px" viewBox="0 0 401.092 190.642" style="enable-background:new 0 0 401.092 190.642;"
	 xml:space="preserve">
<g>
	<g>
		<path style="fill:none;" d="M200.545,190.096c-65.938,0-131.875-0.008-197.812,0.046c-1.823,0.002-2.235-0.41-2.233-2.232
			c0.055-61.726,0.055-123.451,0-185.176C0.498,0.911,0.911,0.5,2.733,0.5c131.875,0.05,263.75,0.05,395.625,0
			c1.822,0,2.234,0.411,2.233,2.233c-0.056,61.725-0.056,123.451,0,185.176c0.001,1.822-0.411,2.234-2.233,2.232
			C332.421,190.088,266.483,190.096,200.545,190.096z M85.143,128.403l-0.055-0.055c-0.047,4.987-0.743,9.953-0.471,14.952
			c0.065,1.209,0.205,2.479-0.066,3.631c-0.979,4.169,0.098,8.207,0.58,12.284c0.044,0.373,0.312,0.714,0.445,1.08
			c0.601,1.645,2.216,1.58,2.878,0.783c1.67-2.012,3.549-4.258,3.344-7.003c-0.135-1.812-0.127-3.67-0.446-5.463
			c-0.203-1.139,0.289-1.604,1.021-2.296c1.449-1.37,3.41-1.075,4.981-1.856c0.77-0.383,1.323-0.754,1.701,0.151
			c0.337,0.811,0.498,1.644-0.964,1.822c-2.238,0.274-2.787,1.97-2.772,3.957c0.012,1.701,0.014,3.402,0,5.104
			c-0.017,1.865,0.246,3.604,2.499,3.956c1.466,0.229,3.653-1.824,3.779-3.61c0.072-1.022,0.526-1.586,1.345-2.13
			c0.614,1.494,0.134,2.918-0.107,4.343c-0.364,2.153,1.729,4.345,3.234,3.219c1.525-1.141,3.738-2.262,3.766-4.52
			c0.045-3.683,0.76-7.509-1.389-10.94c-0.559-0.894-0.243-1.928,0.709-1.722c1.505,0.327,1.682-0.706,2.157-1.469
			c1.691-2.711,1.287-5.812,1.469-8.777c0.13-2.118,0.408-4.263-0.236-6.408c0.885,0.396,1.235,1.022,1.22,1.717
			c-0.03,1.384,0.938,2.13,1.894,2.556c2.028,0.903,2.27,2.186,1.695,4.167c-0.995,3.424,0.69,5.137,4.103,4.268
			c0.125,0.978,0.51,1.967-1.182,1.854c-1.439-0.096-2.381,0.929-2.521,2.104c-0.263,2.209-0.787,4.402-0.585,6.674
			c0.22,2.478,1.323,3.382,3.86,2.882c0.91-0.18,1.82-0.43,2.402,0.63c0.846,1.539,2.24,1.892,3.502,0.919
			c1.437-1.107,3.29-2.421,1.846-4.709c-1.504-2.386-2.699-4.685-2.436-7.753c0.345-4.03,0.085-4.053-4.145-4.241
			c3.7-4.875,0.636-10.751,2.357-15.932c0.933,2.904,1.153,5.893,1.773,8.809c0.75,3.529,1.996,6.926,2.556,10.493
			c0.181,1.148,1.274,1.368,2.175,1.52c0.821,0.139,1.285-0.641,1.616-1.254c0.621-1.147,0.46-0.814,1.606-0.479
			c2.184,0.639,1.312,1.729,0.631,2.727c-1.183,1.733-1.48,3.771-2.128,5.68c-0.315,0.929-0.719,2.332-0.28,2.917
			c1.239,1.651,1.78,3.695,3.149,5.212c0.463,0.513,0.836,1.66,1.847,1.075c0.844-0.487,1.755-0.657,2.177-2.08
			c1.056-3.563,1.589-7.018,0.889-10.715c-0.455-2.401-1.623-3.82-3.908-4.184c2.335-3.114,0.498-6.572,0.256-9.755
			c-0.264-3.464-0.129-6.854-0.342-10.953c1.481,2.236,1.629,2.253,1.495,3.455c-0.581,5.197,2.003,9.912,2.193,14.983
			c0.084,2.236,1.609,4.127,1.673,6.323c0.054,1.879,0.67,3.309,2.564,3.337c2.067,0.031,1.982-1.777,1.832-3.223
			c-0.195-1.863,0.181-3.028,2.397-2.614c0,2.312,0.478,4.782-0.103,6.972c-1.096,4.133-1.681,8.164-0.868,12.41
			c0.251,1.311,0.392,2.424,1.916,2.546c1.561,0.124,2.797-0.514,3.471-1.991c0.908-1.992,1.518-4.006,0.011-6.148
			c0.686-0.038,1.258-0.169,1.795-0.084c2.021,0.321,3.067,0.091,2.213-2.436c-0.323-0.958-0.954-2.225-0.543-3.226
			c1.343-3.269-0.731-6.614,0.385-9.868c0.143-0.414-0.228-1.05-0.456-1.539c-2.424-5.22-4.895-10.436-6.084-16.102
			c-0.539-2.568-1.906-5.209-1.249-7.757c1.235-4.789-0.766-8.806-2.502-12.82c-2.208-5.105-4.966-9.828-2.432-15.797
			c1.353-3.188-0.158-5.53-3.342-6.536c-1.39-0.439-2.51-0.592-2.547-2.443c-0.012-0.562-0.975-1.316-1.662-1.618
			c-2.889-1.27-3.646-2.63-2.9-5.674c0.801-3.268,0.431-6.209-2.317-8.51c-0.445-0.372-0.628-0.836-0.755-1.436
			c-0.936-4.446-4.227-7.901-5.243-12.329c-0.084-0.367-0.292-0.896-0.571-0.998c-2.063-0.754-2.03-2.407-1.93-4.146
			c0.056-0.969,0.037-1.944,0.005-2.915c-0.104-3.204-2.86-5.143-5.883-4.096c-0.721,0.25-1.354,0.269-1.672-0.396
			c-1.214-2.542-3.116-4.858-2.23-8.057c0.473-1.709-0.837-2.641-2.121-3.586c-1.356-0.999-1.854,0.066-2.591,0.724
			c-0.583,0.521-1.207,1.391-1.969,0.451c-1.036-1.277-2.508-1.798-3.848-2.534c-1.778-0.976-3.431-2.146-3.912-4.154
			c-0.331-1.383-0.91-2.675-1.306-4.021c-0.534-1.816-1.277-3.727-3.397-4.578c-1.96-0.787-2.858-0.368-2.615,1.685
			c0.21,1.779,0.742,3.528,1.233,5.262c0.24,0.848,0.312,1.636-0.789,1.358c-2.677-0.675-5.708,2.115-8.131-0.854
			c-0.106-0.129-0.521-0.157-0.694-0.058c-1.787,1.022-3.965-0.092-5.763,1.154c-0.935,0.647-2.221,0.485-3.267,0.077
			c-0.812-0.316-1.618-0.458-2.326-0.141c-2.116,0.948-3.876,3.05-6.613,1.86c-0.146-0.064-0.512,0.325-0.75,0.532
			c-0.477,0.417-0.85,1.001-1.624,0.873c-1.792-0.296-3.227,0.575-4.673,1.429c-0.875,0.516-1.762,1.374-2.67,1.41
			c-4.693,0.189-6.85,3.828-9.805,6.583c-3.654,3.408-4.298,8.338-6.999,12.22c-3.305,4.751-5.57,10.191-9.404,14.63
			c-1.008,1.167-0.486,3.829,0.912,4.675c1.275,0.772,2.297,0.615,2.551-1.152c0.076-0.528,0.602-0.46,0.979-0.385
			c0.546,0.108,0.429,0.595,0.432,0.974c0.012,1.637-2.676,5.668-4.22,6.228c-1.63,0.591-3.424,1.071-4.331,2.625
			c-1.776,3.041-3.378,6.187-4.956,9.338c-0.895,1.788-1.288,3.87-3.069,5.095c-0.347,0.238-0.434,0.446-0.332,0.75
			c0.872,2.597,0.142,5.269,0.393,7.893c0.051,0.539-0.093,1.063,0.278,1.611c1.208,1.784,2.213,1.791,4.305,0.004
			c0.354-0.303,0.509-1.129,1.262-0.711c0.186,0.104,0.445,0.428,0.399,0.545c-0.641,1.635-0.141,3.855-2.07,4.801
			c-0.921,0.451-1.26,1.16-1.667,1.89c-2.301,4.11-3.817,8.544-4.781,13.117c-0.642,3.043-1.987,6.121,0.226,9.308
			c1.632,2.353,2.645,2.792,5.237,0.498c-0.985,3.037-1.896,5.583-2.632,8.179c-0.927,3.268-2.751,6.542-0.329,9.936
			c0.19,0.266,0.25,0.507,0.13,0.869c-0.708,2.134-1.331,4.298-2.08,6.416c-0.114,0.323-0.112,1.13-0.824,0.928
			c-0.33-0.095-0.623-0.484-0.832-0.807c-0.659-1.017-0.422-1.992-0.111-3.139c0.403-1.485,0.122-3.045-1.682-3.688
			c-1.983-0.707-2.568,0.836-2.969,2.136c-1.534,4.976-1.795,9.938,0.568,14.795c0.426,0.875,1.087,1.331,1.962,1.439
			c1.094,0.134,1.31-0.918,1.523-1.569c0.555-1.691,0.889-3.454,1.429-5.675c1.934,2.447,3.749,2.22,5.475,0.093
			c0.131,0.865-0.052,1.425-0.233,2.054c-0.863,2.995,0.783,4.746,3.717,3.839c0.969-0.3,1.549,0.144,2.216,0.355
			c1.771,0.562,2.363-0.63,2.594-1.816c0.261-1.348,0.052-2.785,0.067-4.183c0.024-2.231,1.727-3.637,3.931-3.258
			c2.965,0.51,5.175-1.112,5.057-4.133c-0.039-0.993,0.112-1.759,0.638-2.294c2.017-2.054,2.024-4.878,2.961-7.335
			c0.249-0.651,0.081-1.73,0.922-1.703c1.065,0.035,0.478,1.126,0.566,1.741c0.662,4.638-2.246,8.684-2.246,13.236
			c0,0.693-0.621,1.436-1.077,2.066c-0.743,1.029-1.632,1.953-2.375,2.981c-0.925,1.28-0.37,2.8,0.906,2.572
			c3.001-0.538,6.039-1.429,8.749-2.796c1.223-0.617,1.838-2.607,2.418-4.193c1.364-3.729,2.152-7.67,4.017-11.256
			c2.134,3.725,3.243,4.274,6.992,3.481c0.711,4.852,0.917,9.678,0.198,14.572c-0.333,2.27-0.169,4.645,0.35,6.964
			c0.287,1.283,0.836,2.365,2.108,2.004c1.165-0.331,2.229-1.268,2.02-2.909c-0.161-1.27-0.183-2.566-0.147-3.848
			c0.022-0.761,0.192-1.645,1.099-1.856c2.834-0.662,3.486-2.824,4.322-5.273c1.118-3.275-0.566-6.108-0.895-9.09
			c-0.271-2.451,0.655-4.089,1.577-5.939c0.03-0.062,0.433-1.271,1.231-0.742c0.563,0.372,0.464,0.92,0.256,1.498
			c-1.052,2.93-0.858,5.985-0.791,9.011c0.055,2.51,1.335,3.673,3.801,3.704c3.766,0.048,5.219-1.152,6.899-5.209
			c1.938-4.68,0.706-9.564,0.96-14.333c0.11-2.064,1.385-3.673,1.235-5.658C84.661,128.43,84.902,128.417,85.143,128.403z
			 M343.149,100.974c0.264,2.308-0.422,4.742,0.927,7.019c0.405,0.685,0.52,2.126-0.146,2.784c-2.106,2.086-1.617,4.997-2.609,7.436
			c-2.037,5.003-1.557,10.369-1.508,15.633c0.024,2.604,1.375,3.441,4.017,2.826c0.493-0.114,1.095-0.74,1.691,0.059
			c0.334,0.449,0.344,0.701,0.174,1.222c-0.316,0.969-1.045,0.629-1.591,0.602c-1.569-0.08-3.045,0.341-3.66,1.747
			c-0.649,1.48-1.077,3.188-1.085,4.798c-0.034,6.991-0.097,13.97-0.988,20.924c-0.235,1.832-0.128,3.727-0.012,5.583
			c0.145,2.31,1.774,3.362,3.307,2.265c1.655-1.187,3.696-7.579,3.693-9.473c-0.003-2.927-1.854-6.253,1.349-8.731
			c0.256-0.198,0.207-0.75,0.41-1.066c0.712-1.11,0.436-2.337,0.432-3.515c-0.002-0.821,0.573-0.991,1.067-1.012
			c0.755-0.034,0.4,0.676,0.387,1.009c-0.092,2.187,0.737,4.607-1.758,6.19c-0.566,0.359-1.019,1.352-1.03,2.062
			c-0.063,3.944-0.488,7.914,0.198,11.83c0.25,1.422,0.206,3.595,2.033,3.752c2.193,0.188,2.379-2.133,3.011-3.677
			c1.558-3.808,1.586-7.976,2.81-11.896c1.011-3.236,1.354-6.706,1.095-10.178c-0.25-3.354-1.253-4.044-4.34-2.855
			c-0.391,0.15-0.907-0.026-1.6-0.063c1.272-1.067,0.453-3.757,2.998-3.257c1.666,0.327,2.514-0.293,2.914-1.784
			c0.116-0.436,0.389-0.962,0.697-0.562c0.83,1.074,2.597,1.979,1.693,3.645c-1.366,2.52-0.817,5.158-0.893,7.756
			c-0.039,1.329,2.549,4.649,3.483,4.459c1.876-0.381,2.516-1.869,2.845-3.646c0.342-1.844,1-3.626,1.42-5.458
			c1.003-4.376,0.977-8.679-1.657-12.533c-0.591-0.866-0.638-1.378-0.29-2.277c2.223-5.754,4.561-11.501,1.086-17.652
			c-0.404-0.717-0.395-2.191,1.113-1.966c1.732,0.258,1.909-0.872,2.161-1.956c0.738-3.191,1.368-6.456,0.923-9.701
			c-0.435-3.174-1.023-6.158,0.44-9.316c0.652-1.405-0.191-3.44,0.244-5.025c0.678-2.462-0.243-4.548-1.249-6.452
			c-0.738-1.399-0.924-2.528-0.059-3.588c0.72-0.883,0.682-1.743,0.687-2.689c0.009-1.782-0.328-3.644,0.077-5.328
			c0.676-2.813,0.231-5.94,2.675-8.331c1.994-1.952,3.087-4.525,1.927-7.417c-0.583-1.452-1.467-2.78-2.162-4.191
			c-0.705-1.431-2.03-2.687-1.395-4.531c1.765-5.123-0.023-9.726-2.108-14.274c-0.375-0.817-0.934-1.503-2.008-1.437
			c-1.038,0.064-1.418,0.802-1.911,1.572c-0.567,0.887-0.344,2.196-1.792,2.8c1.728-3.063-1.409-5.601-0.582-8.549
			c0.043-0.153,0.044-0.324,0.112-0.463c1.096-2.23-0.165-3.742-1.761-4.882c-0.859-0.614-1.71-1.232-2.331-2.026
			c-1.534-1.964-3.635-2.583-5.783-1.941c-2.231,0.667-4.921,1.346-4.428,4.983c-1.392-0.729-2.022-2.096-3.505-1.788
			c0.567-1.715,1.734-2.714,2.837-3.748c0.854-0.801,0.976-1.427,0.137-2.437c-1.334-1.603-2.646-1.869-4.205-0.297
			c-2.41,2.432-4.166,5.391-5.737,8.374c-0.987,1.872-2.306,2.499-3.961,1.998c-1.688-0.511-2.703,0.169-3.34,1.322
			c-2.248,4.07-3.564,8.475-4.54,13.025c-0.849,3.959,0.233,8.176-2.314,11.958c-2.529,3.755-1.964,8.508-2.925,12.784
			c-0.555,2.467,0.703,3.646,3.293,3.765c0.705,0.032,1.485-0.17,1.646,0.879c0.156,1.014-0.504,1.312-1.28,1.556
			c-1.3,0.41-2.244,0.949-2.858,2.468c-1.078,2.669-1.669,5.332-1.906,8.188c-0.257,3.085-0.081,5.888,2.197,8.255
			c1.277,1.326,0.995,2.642-0.577,3.64c-0.795,0.504-1.896,0.578-2.398,1.463c-1.631,2.881-3.106,5.796-3.065,9.271
			c0.039,3.263-0.909,6.433-1.188,9.69c-0.218,2.55,0.094,4.336,2.25,5.614c0.978,0.579,1.434,1.467,1.841,2.402
			c0.2,0.458-0.029,0.94-0.469,1.272c-0.397,0.301-0.658,0.097-1.051-0.092c-2.96-1.422-4.653-0.4-4.726,3.026
			c-0.065,3.119-0.378,6.169-0.862,9.259c-0.338,2.155-1.162,4.839,1.267,6.726c1.792,1.391,1.471,3.762-0.599,4.613
			c-1.185,0.487-1.838,1.225-2.331,2.441c-1.164,2.87-0.987,5.903-1.379,8.863c-0.297,2.247,0.247,4.414,0.962,6.533
			c0.802,2.376,2.512,2.799,4.21,1.045c0.349-0.361,0.654-0.764,1.051-1.229c0.521,3.783-1.283,7.299-0.441,10.961
			c0.271,1.18,0.711,1.936,1.946,2.021c1.025,0.07,1.936,0.209,2.216-1.352c0.325-1.807,0.945-3.616,1.759-5.266
			c0.958-1.943,0.387-4.229,1.639-6.076c0.39-0.575,0.713-1.244,1.395-0.822c0.593,0.366,0.492,1.238,0.104,1.743
			c-0.458,0.6-0.571,1.248-0.817,1.907c-1.389,3.721-1.599,7.773-3.503,11.379c-0.841,1.593-1.184,3.643-0.69,5.577
			c0.522,2.047,2.195,1.662,3.691,1.675c1.59,0.015,1.48-1.051,1.548-2.149c0.142-2.319,0.272-4.658,0.545-6.947
			c0.496-4.159,1.498-8.254,3.216-12.87c1.195,2.915,1.949,5.23,1.358,7.822c-0.444,1.95-0.707,3.771,1.875,4.536
			c0.624,0.185,1.012,0.862,1.3,1.612c0.574,1.494,0.296,3.002,0.462,4.494c0.131,1.171,0.527,2.406,1.961,2.484
			c1.502,0.082,1.832-1.27,1.855-2.312c0.118-5.312,0.946-10.61,0.479-15.922c-0.15-1.712-0.002-4.135-3.057-3.616
			c-0.428,0.072-0.681-0.128-0.799-0.643c-0.313-1.37-1.109-2.563-1.019-4.113c0.076-1.29,0.739-2.864-0.833-3.922
			c-0.176-0.119-0.048-0.955,0.177-1.309c0.135-0.212,0.733-0.191,1.116-0.168c0.734,0.045,0.629,0.672,0.558,1.093
			c-0.249,1.476,0.367,2.833,0.552,4.243c0.152,1.154,0.679,2.432,1.861,2.813c1.234,0.399,2.006-0.555,2.893-1.456
			c1.86-1.892,1.728-4.002,1.283-6.245c-0.577-2.908-1.434-5.711-0.809-8.815c0.716-3.554,2.598-6.976,1.14-10.892
			c-0.573-1.538,0.042-3.444,0.308-5.196c0.245-1.619,1.513-2.999,0.754-4.999c-0.302-0.797,1.238-2.434,1.263-3.903
			c0.068-3.993-0.923-7.86-1.448-11.783c-0.073-0.55-0.512-0.518-0.822-0.721c-2.685-1.756-2.809-2.434-0.781-5.306
			c-0.002,1.745,1.163,2.714,2.246,3.245C340.635,102.445,341.747,100.741,343.149,100.974z M201.272,110.057
			c0.036,2.785-1.46,5.115-2.017,7.672c-0.211,0.971-0.582,2.423-2.426,1.493c-0.669-0.338-1.896,0.248-2.191,1.073
			c-0.982,2.75-3.791,4.24-4.68,7.007c-0.876,2.726-3.026,4.99-2.813,8.128c0.071,1.05,0.517,1.78,1.345,2.068
			c0.783,0.271,1.758,0.374,2.44-0.477c1.383-1.723,2.64-3.521,3.057-5.744c0.422-2.249,2.19-3.999,2.306-6.371
			c0.013-0.274,0.458-0.769,1.04-0.644c0.02,0.779,0.144,1.463-0.179,2.188c-3.301,7.418-4.05,15.461-5.539,23.308
			c-0.912,4.807-1.024,9.75-1.964,14.575c-0.295,1.514,0.719,2.531,1.745,3.472c0.776,0.711,1.775,0.646,2.47,0.214
			c1.121-0.696,1.441-1.815,1.146-3.235c-0.348-1.678-0.534-3.434,0.215-5.108c2.605,1.572,3.583,1.09,3.769-1.823
			c0.02-0.302,0.144-0.684,0.358-0.871c1.839-1.608,1.464-4.098,0.765-5.473c-1.162-2.282-2.09-4.129-2.031-6.938
			c0.034-1.646-0.542-3.451,0.017-5.268c0.352,0.442,0.787,0.764,0.906,1.178c0.41,1.411,1.202,2.731,2.7,2.365
			c1.589-0.389,3.162-1.09,3.683-3.205c1.209-4.909,0.824-9.561-1.425-14.044c1.71-0.688,4.035-0.577,4.403-3.14
			c0.279-1.947,1.098-3.729,1.319-5.746c0.221-2.011,0.23-4.083,0.729-6.122c0.749-3.061,1.234-6.26-0.367-9.32
			c-1.061-2.023-0.539-3.948,0.621-6.051c0.186,1.043,0.993,1.284,1.472,1.795c1.397,1.492,4.068,0.575,4.104-1.457
			c0.032-1.795,0.876-3.178,1.333-4.758c1.008-3.486,1.984-6.956,1.79-10.736c-0.123-2.39,1.079-4.857-1.034-6.953
			c-0.141-0.139-0.068-0.693,0.098-0.898c0.353-0.437,0.682-0.075,0.979,0.191c0.756,0.68,1.502,1.371,2.28,2.024
			c1.596,1.34,3.571,1.151,4.337-0.45c1.142-2.386,2.517-4.693,2.754-7.416c0.304-3.48,2.862-7.104-0.666-10.353
			c-0.264-0.243,0.209-0.634,0.17-0.839c-0.438-2.274,1.147-3.742,2.036-5.651c0,1.641,0.334,3.197-0.083,4.516
			c-0.55,1.744-0.145,3.129,0.768,4.429c0.993,1.414,1.673,2.649,0.97,4.532c-0.451,1.208-0.167,2.729-0.061,4.097
			c0.104,1.334,1.377,1.837,2.196,2.655c0.646-0.68,2.315-0.484,1.81-2.254c-0.066-0.23,0.746-1.784,2.518-1.341
			c-1.462,0.7-1.272,1.769-1.182,2.741c0.112,1.213-0.382,1.625-1.509,1.438c-2.182-0.362-3.264,0.963-4.399,2.555
			c-2.055,2.881-3.348,6.177-5.261,9.131c-0.659,1.019-1.017,1.899-2.55,2.032c-1.789,0.156-3.253,1.377-3.745,3.209
			c-1.029,3.836-2.649,7.474-3.532,11.371c-1.011,4.458-1.708,8.914-1.349,13.477c0.1,1.256,0.654,2.269,2.376,1.778
			c1.745-0.498,3.087,0.838,2.368,2.547c-0.849,2.021-1.36,4.189-2.389,6.093c-0.742,1.375-0.495,2.874-1.552,4.339
			c-2.437,3.38-5.804,6.136-7.227,10.254c-0.763,2.205,0.092,7.267,1.703,7.923c2.404,0.979,4.036,2.266,3.771,5.205
			c-0.099,1.094,0.984,1.779,1.946,2.184c0.596,0.251,1.167-0.185,1.322-0.762c0.546-2.036,1.589-4.169,1.341-6.126
			c-0.264-2.09-0.072-4.146-0.285-6.203c-0.065-0.637-0.111-1.325,0.548-1.735c0.84-0.521,1.089,0.372,1.558,0.704
			c1.181,0.836,2.034,0.946,2.83-0.613c0.982-1.927,1.748-3.934,1.812-6.037c0.132-4.396,1.948-8.391,2.793-12.613
			c0.419-2.099-0.926-6.446-2.424-7.273c-2.902-1.602-2.899-1.605-1.046-4.354c0.432,1.101,0.698,2.347,2.251,2.286
			c1.593-0.062,1.823-1.371,2.13-2.47c0.333-1.199,0.717-2.361,1.132-3.535c1.766-5.006,2.782-10.263,4.943-15.143
			c1.092-2.464,1.403-5.269,3.094-7.52c0.981,0.765,0.78,1.527,0.567,2.464c-0.365,1.606-1.815,2.572-2.2,4.108
			c-0.733,2.934-1.857,5.746-2.45,8.734c-0.805,4.06-3.312,7.56-4.024,11.697c-0.495,2.875-1.715,5.526-0.506,8.675
			c0.58,1.513-0.305,3.471,2.166,4.115c0.472,0.123,1.07,1.696,0.83,2.28c-1.261,3.062,0.265,4.384,2.92,5.025
			c-0.913,0.866-1.7,1.629-2.508,2.37c-0.325,0.299-0.666,0.908-1.158,0.366c-0.3-0.33-0.335-0.951-0.871-0.258
			c-0.282,0.365-0.329,0.681,0.164,0.955c0.962,0.533,0.844,1.37,0.167,1.892c-2.25,1.735-2.974,4.469-4.565,6.612
			c-0.757,1.019-1.387,2.143-0.604,2.982c0.897,0.962,2.344,1.153,3.46-0.302c0.374,1.243-0.282,1.915-0.759,2.604
			c-1.044,1.513-1.758,3.144-1.989,4.971c-0.067,0.529,0.15,1.208-0.774,1.165c-0.924-0.042-0.747-0.767-0.662-1.242
			c0.178-0.999-0.557-1.213-1.16-1.531c-0.69-0.363-1.401-0.111-1.647,0.511c-0.769,1.944-2.422,3.542-2.531,5.709
			c-0.139,2.747,0.054,5.51-0.07,8.259c-0.062,1.35,0.645,2.124,1.664,2.187c0.782,0.049,1.547-0.534,1.852-1.741
			c0.623-2.474,0.449-5.021,1.656-7.527c0.937-1.942,1.643-0.937,2.398-0.686c1.297,0.432,1.771-1.347,2.885-0.889
			c0.233,0.097,0.258,0.863,0.263,1.322c0.025,2.269,0.13,4.545-0.03,6.802c-0.107,1.508,0.801,2.062,1.849,2.377
			c1.268,0.382,2.11-0.815,2.385-1.618c0.504-1.47,1.002-3.288,0.568-4.666c-1.338-4.25,1.094-8.19,0.602-12.312
			c-0.053-0.436,0.104-0.765,0.656-0.774c0.659-0.012,0.835,0.344,0.779,0.907c-0.031,0.316-0.096,0.631-0.152,0.944
			c-0.326,1.819,0.69,3.411,2.552,3.654c1.676,0.219,1.688-1.072,2.141-2.306c0.453-1.234,0.255-2.47,0.712-3.707
			c1.528-4.136,1.041-8.526,1.088-12.842c0.008-0.732-0.316-1.009-0.877-1.453c-1.451-1.149-0.029-2.292,0.369-3.336
			c0.499-1.307,1.168-0.243,1.772,0.088c2.093,1.148,3.929,0.337,4.542-1.993c0.238-0.906,0.588-1.808,0.667-2.729
			c0.342-3.94,2.2-7.949-0.438-11.782c-0.297-0.433-0.371-0.948-0.001-1.335c1.017-1.061,1.128-2.446,1.196-3.74
			c0.09-1.701,1.264-1.547,1.884-0.94c1.261,1.234,1.942,0.422,2.403-0.494c1.483-2.95,2.617-6.169,2.9-9.357
			c0.317-3.57,0.942-7.111,1.102-10.692c0.036-0.811,0.276-0.997,1.089-1.142c2.488-0.441,5.084-3.236,5.264-5.342
			c0.263-3.086,0.491-6.186,1.01-9.233c0.334-1.963,0.657-4.276,1.863-5.674c3.384-3.924,4.357-8.573,4.285-13.338
			c-0.071-4.622,0.649-8.822,3.06-12.738c0.291-0.472,0.547-0.966,0.83-1.442c0.958-1.608,0.822-4.301,3.86-3.873
			c0.199,0.027,0.523-0.373,0.687-0.638c0.752-1.223,1.534-1.717,2.801-0.521c0.694,0.656,1.739,0.606,2.464,0.066
			c0.84-0.625,0.518-1.466,0.138-2.374c-1.072-2.565-1.991-5.214-4.042-7.198c-3.934-3.807-8.162-7.078-14.134-6.164
			c-3.884,0.595-7.592,1.898-11.25,3.288c-1.627,0.618-3.139,1.338-4.91,0.53c-0.975-0.445-1.994-0.112-2.801,0.421
			c-4.23,2.799-8.531,5.509-11.685,9.645c-0.705,0.925-1.018,1.577-0.589,2.771c0.662,1.848-0.15,2.3-2.231,2.373
			c-2.063,0.073-4.342,0.144-5.815,2.098c-2.314,3.072-5.271,5.59-7.34,8.899c-1.544,2.467-3.29,4.679-1.47,7.735
			c0.307,0.515-0.23,0.831-0.679,1.25c-4.513,4.231-9.276,8.24-12.693,13.502c-1.596,2.456-0.545,5.568,2.278,6.219
			c1.159,0.267,1.198,1.17,0.872,1.48c-2.373,2.25-3.208,5.462-5.313,7.959c-2.944,3.493-5.479,7.577-4.437,12.66
			c0.151,0.738-0.279,1.348-0.628,1.679c-1.288,1.221-1.508,2.904-2.208,4.376c-0.707,1.486-1.417,2.942-2.41,4.311
			c-2.3,3.167-4.233,6.577-5.551,10.3c-0.614,1.736,0.446,2.605,1.65,3.476c1.121,0.811,2.026,0.239,2.668-0.539
			c2.211-2.679,5.352-4.68,6.176-8.401C200.01,110.684,200.504,110.234,201.272,110.057z M356.317,166.923
			c0,1.156-0.029,1.643,0.007,2.125c0.09,1.202,0.512,2.47,1.509,2.973c1.254,0.632,2.093-0.649,2.699-1.506
			c2.148-3.037,2.732-6.595,3.071-10.201c0.134-1.425-0.194-2.657-1.88-2.753c-1.63-0.094-3.243-0.263-4.021,1.931
			C356.763,162.145,356.604,164.866,356.317,166.923z M188.26,150.469c-0.311-1.348,0.482-2.784-1.216-3.117
			c-1.543-0.303-2.133,0.905-2.574,1.996c-0.96,2.38-1.308,4.967-2.562,7.274c-0.394,0.725-0.328,1.889,1.036,2.239
			c1.344,0.345,2.657-0.034,3.086-1.103C187.013,155.312,187.601,152.708,188.26,150.469z M213.426,153.243
			c0-0.458-0.048-0.789,0.007-1.103c0.347-1.978-1.002-3.289-2.389-3.698c-1.639-0.484-2.278,1.404-2.869,2.647
			c-0.266,0.557-0.602,1.098-0.813,1.64c-0.814,2.085,0.274,3.408,2.036,4.428c1.631,0.943,2.715,0.199,3.687-1.02
			C213.821,155.213,213.224,154.109,213.426,153.243z M51.63,164.36c1.395-0.075,2.806-0.578,2.186-2.184
			c-0.507-1.312-1.827-2.397-3.408-2.676c-1.426-0.251-2.844,1.405-2.108,2.56C49.021,163.194,49.838,164.562,51.63,164.36z
			 M272.053,174.337c-1.282-0.688-1.282-0.688-2.523,0.064C270.391,174.592,271.236,175.184,272.053,174.337z M280.464,119.581
			c0.124,0.163,0.223,0.371,0.389,0.48c0.087,0.058,0.288-0.057,0.439-0.094c-0.164-0.228-0.326-0.455-0.49-0.682
			C280.709,119.367,280.615,119.449,280.464,119.581z"/>
		<path style="fill-rule:evenodd;clip-rule:evenodd;fill:#7B491E;" d="M85.143,128.403c-0.241,0.014-0.482,0.026-0.723,0.04
			c0.15,1.985-1.125,3.594-1.235,5.658c-0.254,4.769,0.978,9.653-0.96,14.333c-1.68,4.057-3.133,5.257-6.899,5.209
			c-2.466-0.031-3.746-1.194-3.801-3.704c-0.067-3.025-0.261-6.081,0.791-9.011c0.208-0.578,0.307-1.126-0.256-1.498
			c-0.798-0.528-1.201,0.681-1.231,0.742c-0.921,1.851-1.847,3.488-1.577,5.939c0.329,2.981,2.013,5.814,0.895,9.09
			c-0.836,2.449-1.488,4.611-4.322,5.273c-0.907,0.212-1.077,1.096-1.099,1.856c-0.036,1.281-0.014,2.578,0.147,3.848
			c0.208,1.642-0.855,2.578-2.02,2.909c-1.271,0.361-1.821-0.721-2.108-2.004c-0.519-2.319-0.683-4.694-0.35-6.964
			c0.718-4.895,0.513-9.721-0.198-14.572c-3.749,0.793-4.857,0.243-6.992-3.481c-1.865,3.586-2.653,7.526-4.017,11.256
			c-0.58,1.586-1.196,3.576-2.418,4.193c-2.71,1.367-5.747,2.258-8.749,2.796c-1.275,0.228-1.831-1.292-0.906-2.572
			c0.743-1.028,1.632-1.952,2.375-2.981c0.456-0.631,1.077-1.373,1.077-2.066c0-4.553,2.908-8.599,2.246-13.236
			c-0.088-0.615,0.499-1.706-0.566-1.741c-0.842-0.027-0.673,1.052-0.922,1.703c-0.937,2.457-0.944,5.281-2.961,7.335
			c-0.526,0.535-0.677,1.301-0.638,2.294c0.118,3.021-2.092,4.643-5.057,4.133c-2.204-0.379-3.907,1.026-3.931,3.258
			c-0.015,1.397,0.194,2.835-0.067,4.183c-0.23,1.187-0.823,2.379-2.594,1.816c-0.667-0.212-1.247-0.655-2.216-0.355
			c-2.934,0.907-4.581-0.844-3.717-3.839c0.182-0.629,0.364-1.188,0.233-2.054c-1.726,2.127-3.541,2.354-5.475-0.093
			c-0.541,2.221-0.875,3.983-1.429,5.675c-0.213,0.651-0.429,1.703-1.523,1.569c-0.875-0.108-1.536-0.564-1.962-1.439
			c-2.363-4.856-2.102-9.819-0.568-14.795c0.401-1.3,0.985-2.843,2.969-2.136c1.803,0.644,2.085,2.203,1.682,3.688
			c-0.312,1.146-0.548,2.122,0.111,3.139c0.209,0.322,0.502,0.712,0.832,0.807c0.712,0.202,0.71-0.604,0.824-0.928
			c0.749-2.118,1.371-4.282,2.08-6.416c0.12-0.362,0.06-0.604-0.13-0.869c-2.422-3.394-0.598-6.668,0.329-9.936
			c0.736-2.596,1.647-5.142,2.632-8.179c-2.592,2.294-3.604,1.854-5.237-0.498c-2.212-3.187-0.867-6.265-0.226-9.308
			c0.964-4.573,2.48-9.007,4.781-13.117c0.408-0.729,0.747-1.438,1.667-1.89c1.93-0.945,1.43-3.166,2.07-4.801
			c0.046-0.117-0.213-0.441-0.399-0.545c-0.753-0.418-0.908,0.408-1.262,0.711c-2.092,1.787-3.098,1.78-4.305-0.004
			c-0.371-0.548-0.227-1.072-0.278-1.611c-0.25-2.624,0.479-5.296-0.393-7.893c-0.102-0.304-0.015-0.513,0.332-0.75
			c1.781-1.225,2.174-3.307,3.069-5.095c1.577-3.151,3.18-6.297,4.956-9.338c0.906-1.553,2.7-2.033,4.331-2.625
			c1.544-0.56,4.231-4.591,4.22-6.228c-0.003-0.379,0.114-0.865-0.432-0.974c-0.376-0.075-0.903-0.143-0.979,0.385
			c-0.254,1.768-1.276,1.924-2.551,1.152c-1.398-0.846-1.92-3.508-0.912-4.675c3.834-4.438,6.099-9.879,9.404-14.63
			c2.7-3.881,3.344-8.812,6.999-12.22c2.955-2.755,5.111-6.394,9.805-6.583c0.908-0.037,1.795-0.894,2.67-1.41
			c1.446-0.854,2.881-1.725,4.673-1.429c0.774,0.128,1.147-0.456,1.624-0.873c0.238-0.207,0.603-0.596,0.75-0.532
			c2.737,1.189,4.497-0.913,6.613-1.86c0.708-0.317,1.514-0.176,2.326,0.141c1.046,0.408,2.333,0.57,3.267-0.077
			c1.798-1.246,3.976-0.132,5.763-1.154c0.172-0.099,0.588-0.071,0.694,0.058c2.423,2.969,5.455,0.179,8.131,0.854
			c1.101,0.278,1.028-0.51,0.789-1.358c-0.491-1.734-1.022-3.483-1.233-5.262c-0.243-2.053,0.655-2.472,2.615-1.685
			c2.12,0.851,2.863,2.762,3.397,4.578c0.396,1.345,0.975,2.637,1.306,4.021c0.481,2.007,2.133,3.178,3.912,4.154
			c1.34,0.736,2.812,1.257,3.848,2.534c0.763,0.94,1.387,0.07,1.969-0.451c0.737-0.658,1.235-1.723,2.591-0.724
			c1.283,0.945,2.594,1.877,2.121,3.586c-0.886,3.199,1.016,5.515,2.23,8.057c0.318,0.666,0.951,0.646,1.672,0.396
			c3.023-1.047,5.78,0.892,5.883,4.096c0.031,0.971,0.05,1.946-0.005,2.915c-0.1,1.739-0.133,3.391,1.93,4.146
			c0.279,0.102,0.486,0.631,0.571,0.998c1.016,4.428,4.307,7.883,5.243,12.329c0.126,0.6,0.31,1.063,0.755,1.436
			c2.748,2.3,3.118,5.242,2.317,8.51c-0.746,3.043,0.012,4.404,2.9,5.674c0.687,0.302,1.65,1.056,1.662,1.618
			c0.038,1.851,1.158,2.003,2.547,2.443c3.184,1.006,4.695,3.348,3.342,6.536c-2.534,5.969,0.224,10.692,2.432,15.797
			c1.736,4.015,3.737,8.031,2.502,12.82c-0.658,2.548,0.71,5.188,1.249,7.757c1.189,5.666,3.66,10.882,6.084,16.102
			c0.228,0.489,0.598,1.125,0.456,1.539c-1.117,3.254,0.958,6.6-0.385,9.868c-0.411,1.001,0.22,2.268,0.543,3.226
			c0.854,2.526-0.193,2.757-2.213,2.436c-0.538-0.085-1.109,0.046-1.795,0.084c1.506,2.143,0.897,4.156-0.011,6.148
			c-0.674,1.478-1.911,2.115-3.471,1.991c-1.524-0.122-1.665-1.235-1.916-2.546c-0.813-4.246-0.228-8.277,0.868-12.41
			c0.58-2.189,0.103-4.66,0.103-6.972c-2.216-0.414-2.592,0.751-2.397,2.614c0.151,1.445,0.236,3.254-1.832,3.223
			c-1.894-0.028-2.51-1.458-2.564-3.337c-0.063-2.196-1.588-4.087-1.673-6.323c-0.19-5.071-2.774-9.786-2.193-14.983
			c0.134-1.202-0.014-1.219-1.495-3.455c0.213,4.099,0.079,7.489,0.342,10.953c0.242,3.183,2.08,6.641-0.256,9.755
			c2.285,0.363,3.454,1.782,3.908,4.184c0.7,3.697,0.167,7.151-0.889,10.715c-0.421,1.423-1.333,1.593-2.177,2.08
			c-1.011,0.585-1.383-0.562-1.847-1.075c-1.369-1.517-1.91-3.561-3.149-5.212c-0.439-0.585-0.036-1.988,0.28-2.917
			c0.648-1.909,0.945-3.946,2.128-5.68c0.682-0.998,1.553-2.088-0.631-2.727c-1.146-0.336-0.986-0.669-1.606,0.479
			c-0.331,0.613-0.795,1.393-1.616,1.254c-0.9-0.151-1.994-0.371-2.175-1.52c-0.561-3.567-1.807-6.964-2.556-10.493
			c-0.62-2.916-0.84-5.904-1.773-8.809c-1.721,5.181,1.343,11.057-2.357,15.932c4.229,0.188,4.49,0.211,4.145,4.241
			c-0.263,3.068,0.932,5.367,2.436,7.753c1.444,2.288-0.409,3.602-1.846,4.709c-1.263,0.973-2.657,0.62-3.502-0.919
			c-0.582-1.06-1.492-0.81-2.402-0.63c-2.537,0.5-3.64-0.404-3.86-2.882c-0.202-2.271,0.323-4.465,0.585-6.674
			c0.139-1.175,1.082-2.199,2.521-2.104c1.692,0.112,1.308-0.877,1.182-1.854c-3.413,0.869-5.098-0.844-4.103-4.268
			c0.575-1.981,0.333-3.264-1.695-4.167c-0.957-0.426-1.924-1.172-1.894-2.556c0.015-0.694-0.335-1.321-1.22-1.717
			c0.644,2.146,0.366,4.29,0.236,6.408c-0.182,2.966,0.222,6.066-1.469,8.777c-0.475,0.763-0.652,1.796-2.157,1.469
			c-0.953-0.206-1.269,0.828-0.709,1.722c2.149,3.432,1.434,7.258,1.389,10.94c-0.028,2.258-2.241,3.379-3.766,4.52
			c-1.506,1.126-3.599-1.065-3.234-3.219c0.241-1.425,0.721-2.849,0.107-4.343c-0.819,0.544-1.272,1.107-1.345,2.13
			c-0.126,1.786-2.313,3.839-3.779,3.61c-2.253-0.353-2.515-2.091-2.499-3.956c0.015-1.701,0.013-3.402,0-5.104
			c-0.015-1.987,0.534-3.683,2.772-3.957c1.462-0.179,1.301-1.012,0.964-1.822c-0.377-0.905-0.931-0.534-1.701-0.151
			c-1.571,0.781-3.532,0.486-4.981,1.856c-0.731,0.691-1.224,1.157-1.021,2.296c0.319,1.793,0.311,3.651,0.446,5.463
			c0.205,2.745-1.674,4.991-3.344,7.003c-0.662,0.797-2.278,0.861-2.878-0.783c-0.134-0.366-0.401-0.707-0.445-1.08
			c-0.482-4.077-1.558-8.115-0.58-12.284c0.271-1.152,0.132-2.422,0.066-3.631c-0.271-4.999,0.424-9.965,0.471-14.952
			c2.081-1.063,0.615-2.5,0.537-3.789C84.902,125.788,85.19,127.111,85.143,128.403z M79.25,93.411
			c-1.09-0.911,2.208-0.949,0.391-1.921c-0.333-0.179-1.192-0.378-1.297,0.507c-0.083,0.691-0.241,1.533,0.961,1.36
			c0.14,1.181-1.423,1.959-0.833,3.298C80.062,95.694,80.123,95.42,79.25,93.411z M144.71,127.037
			c-0.259-0.263-0.438-0.701-0.907-0.55c-0.149,0.049-0.329,0.326-0.317,0.485c0.042,0.574,0.553,0.371,0.886,0.464
			c0.208,1.915-0.267,3.919,0.674,5.749C145.038,131.12,146.107,128.999,144.71,127.037z M95.833,102.154
			c-0.292,0.065-0.844,0.175-0.842,0.19c0.362,2.157-1.313,3.947-1.114,6.042c0.262,2.752-0.24,5.46,0.741,8.313
			c0.649,1.889-0.815,4.467-1.184,6.76c-0.151,0.943-1.197,1.901-0.248,2.882c1.035,1.067,1.858-0.263,2.692-0.5
			c2.363-0.675,3.096-4.086,1.428-5.914c-0.795-0.873-1.995-1.849-1.835-2.901c0.753-4.978,0.107-9.957,0.306-14.927
			c0.362-0.014,0.833,0.17,0.953-0.368c0.083-0.367-0.165-0.613-0.532-0.53C95.663,101.322,95.846,101.792,95.833,102.154z
			 M90.049,88.436c-0.345,3.796,0.625,7.598-0.052,11.397c-0.071,0.399-0.268,1.096,0.358,1.219
			c0.662,0.131,0.954-0.416,1.073-1.029c0.778-4.003,1.103-7.946-1.43-11.538c-0.512-2.575,2.078-6.183-2.473-7.429
			c-0.187-0.051-0.398-0.345-0.437-0.555c-0.492-2.673-3.073-4.415-3.264-7.179c-0.136-1.974-0.026-3.965-0.026-6.066
			c-1.18,0.262-1.466,1.164-1.485,1.685c-0.141,3.817-1.38,7.465-1.605,11.267c-0.078,1.316,0.271,2.041,1.579,2.315
			c1.837,0.386,3.024,1.344,2.84,3.44c-0.039,0.445-0.088,1.215,0.584,1.04C87.521,86.532,88.632,87.895,90.049,88.436z
			 M104.556,125.548c0,2.523-0.027,4.627,0.019,6.729c0.012,0.538-0.393,1.451,0.73,1.416c1.079-0.033,0.706-0.926,0.686-1.46
			c-0.083-2.188,0.066-4.336,1.547-6.062c0.999-1.165,1.27-2.451,1.413-3.897c0.365-3.681-2.247-6.635-2.276-10.32
			c-0.024-3.003-0.264-5.792,1.834-8.243c0.438-0.512,0.887-1.264,0.858-1.883c-0.197-4.112,1.697-8.104,0.592-12.289
			c-0.313-1.187-0.082-2.58,0.165-3.826c0.141-0.715,0.522-1.386-0.076-1.958c-0.214-0.205-0.841-0.191-1.158-0.033
			c-0.864,0.43-0.634,1.566-0.38,1.895c1.058,1.376,0.187,2.235-0.495,3.271c-0.378,0.574-0.48,1.286-0.582,2.014
			c-0.553,3.973-0.828,7.994-1.911,11.881c-0.299,1.076-0.931,2.344-2.102,1.794c-2.73-1.281-2.93,0.049-2.766,2.19
			c0.08,1.045,0.109,2.112-0.014,3.149c-0.117,0.989,0.387,1.406,1.124,1.809c2.29,1.248,3.803,3.678,3.206,6.101
			C104.294,120.56,104.807,123.265,104.556,125.548z M76.429,37.653c0.114,1.89-0.775,3.403-1.55,4.928
			c-0.448,0.884-0.938,1.27,0.553,1.795c3.188,1.122,5.175,5.537,3.593,8.514c-1.21,2.278-0.412,4.43-0.674,6.618
			c-0.092,0.768,3.701,2.459,4.322,2.017c0.359-0.256,0.533-0.604,0.484-1.038c-0.501-4.482-0.917-8.977-1.577-13.435
			c-0.165-1.111-0.04-3.151-2.516-2.352c-0.885,0.287-1.135-0.939-1.205-1.666c-0.114-1.203-0.108-2.428-0.013-3.634
			C77.923,38.434,77.588,37.892,76.429,37.653z M132.243,101.998c-0.088-3.534,0.084-6.264-1.723-9.207
			c-2.021-3.292-2.427-7.522-3.132-11.451c-0.408-2.276-1.501-4.192-3.392-6.261c0,2.813-0.158,5.072,0.051,7.295
			c0.159,1.691-0.056,3.764,2.491,4.274c0.795,0.159,1.197,1.025,1.403,2.026c0.491,2.382,0.644,4.789,0.37,7.144
			C127.956,98.88,129.938,100.154,132.243,101.998z M70.047,89.365c-1.236,2.457-3.471,4.266-3.58,7.43
			c-0.073,2.122-0.26,4.398-0.657,6.596c-0.404,2.233-0.976,4.478-1.141,6.774c-0.071,0.985,0.514,1.38,1.159,1.479
			c0.611,0.094,0.665-0.623,0.847-1.159c0.555-1.637,0.242-3.44,1.189-5.015c2.037-3.388,2.527-7.111,2.206-11.01
			C69.932,92.772,70.047,91.064,70.047,89.365z M88.233,56.206c1.682-0.579,1.165-2.024,1.258-3.236
			c0.188-2.431-0.34-5.144,2.697-6.433c0.369-0.156,0.712-0.977,0.655-1.439c-0.479-3.916,1.288-7.977-1.078-12.403
			C89.891,40.744,86.98,48.051,88.233,56.206z M88.531,116.299c-0.266-1.488-0.227-3.498-1.714-4.888
			c-0.885-0.826-2.041-1.691-2.717,0.418c-0.416,1.295-1.615,2.04-2.821,2.379c-1.314,0.37-1.722,1.229-1.364,2.225
			c0.386,1.073,1.521,1.321,2.493,0.709c1.493-0.939,2.584-0.677,3.744,0.595c0.445,0.487,0.859,1.546,1.645,1.273
			C88.828,118.651,88.477,117.524,88.531,116.299z M96.697,96.16c1.924-0.603,2.51-1.834,2.528-3.568
			c0.031-3.009-0.448-6.076,0.965-8.949c1.206-2.451-0.002-4.218-1.725-5.842c-0.401-0.378-0.8-0.56-1.291-0.399
			c-0.646,0.213-0.272,0.817-0.4,1.232c-0.665,2.161,0.947,3.901,1.073,5.985C98.083,88.505,96.812,92.188,96.697,96.16z
			 M36.858,70.948c0.087,2.008-2.042,3.236-2.05,4.554c-0.013,2.071-1.053,3.419-1.723,5.071c-0.547,1.35-2.049,2.83-1.294,4.095
			c1.102,1.847,1.26,3.674,1.362,5.654c0.044,0.847,0.719,1.415,1.574,1.566c0.365,0.064,0.908,0.041,1.125-0.183
			c0.348-0.355,0.277-0.946-0.125-1.278c-2.728-2.253-1.774-5.004-0.946-7.636c0.801-2.549,0.988-5.233,1.806-7.744
			C37.024,73.711,37.93,72.561,36.858,70.948z M117.598,61.5c0.353,1.218,0.746,3.417,1.68,2.855
			c1.772-1.066,2.763-0.51,4.159,0.277c0.717,0.404,1.282-0.195,0.979-1.005c-0.299-0.799-0.767-1.526-1.429-2.15
			c-1.374-1.294-2.837-2.558-3.369-4.487c-0.105-0.382-0.321-0.632-0.629-0.477c-0.318,0.16-0.73,0.523-0.75,0.821
			C118.146,58.757,118.202,60.191,117.598,61.5z M48.243,105.161c-0.005,1.521-0.225,2.897-1.414,3.912
			c-0.797,0.681-0.794,1.48-0.306,2.371c0.322,0.588,0.07,1.205,0.011,1.838c-0.184,1.977-1.507,3.671-1.295,5.735
			c0.072,0.702,0.178,1.427,0.898,1.49c0.932,0.083,0.486-0.8,0.584-1.266c0.662-3.147,1.076-6.369,2.028-9.423
			C49.292,108.077,49.903,106.66,48.243,105.161z M115.738,106.146c-0.189,2.185,1.64,2.498,2.973,2.681
			c1.735,0.238,0.656-1.378,0.866-2.126c0.147-0.527,0.359-1.045,0.467-1.562c0.208-0.999,0.089-1.815-1.293-2.082
			C116.489,102.622,115.799,103.231,115.738,106.146z M115.831,91.044c1.443-2.635,0.232-5.652,1.798-8.103
			c0.175-0.273,0.947-1.383-0.155-1.416c-0.609-0.018-2.004-0.199-2.078,0.514C115.095,84.987,112.783,88.059,115.831,91.044z
			 M57.748,96.285c0.588,0.021,1.267,0.042,1.097-0.813c-0.188-0.951,0.196-1.837,0.577-2.506c1.42-2.498,1.798-5.458,3.532-7.787
			c0.514-0.69,0.151-1.121-0.35-1.348c-0.995-0.454-0.654,0.458-0.836,0.901c-0.622,1.511-1.08,3.162-2.022,4.451
			c-1.449,1.98-1.152,4.604-2.723,6.504C56.706,96.069,57.338,96.267,57.748,96.285z M111.412,69.295
			c0.035-0.298-0.656-0.374-1.143-0.185c-0.928,0.36-2.604-1.074-2.78,1.054c-0.125,1.512-0.041,3.042-0.187,4.551
			c-0.03,0.31-1.322,0.412-0.485,1.052c0.548,0.42,0.937-0.01,1.226-0.825c0.43-1.214,1.344-2.258,2.061-3.369
			C110.483,70.987,111.283,70.71,111.412,69.295z M49.026,99.651c1.542-2.173,2.729-4.44,2.564-7.205
			c-0.039-0.649-0.343-1.386-0.862-0.936c-0.677,0.587-3.135,0.266-1.592,2.395c0.247,0.34,0.142,0.803,0.126,1.255
			C49.215,96.646,48.89,98.093,49.026,99.651z M72.878,47.282c-1.102,0.598-1.5,1.358-1.371,2.409
			c0.207,1.677-0.266,3.285-0.477,4.921c-0.157,1.219,1.019,1.246,1.683,1.69c0.099,0.066,0.603-0.317,0.482-0.874
			C72.633,52.829,73.17,50.181,72.878,47.282z M29.243,138.81c-0.135-1.477-1.196-2.709-1.126-4.291
			c0.022-0.495-1.006-0.437-1.149-0.116c-0.439,0.979-1.421,1.854-1.107,3.024c0.279,1.038,0.942,1.939,1.969,2.426
			C28.864,140.341,29.352,139.972,29.243,138.81z M95.966,69.666c1.31-1.674,0.662-3.013,1.084-4.209
			c0.535-1.514,0.622-3.209,1.175-4.765c0.396-1.116-0.832-1.325-1.148-2.043c-0.244,0.342-0.714,0.697-0.695,1.023
			C96.569,62.799,95.509,65.886,95.966,69.666z M137.141,119.556c-0.284-3.354,2.021-6.558-1.8-8.573
			C136.379,113.538,134.606,116.638,137.141,119.556z M36.586,123.377c2.17-2.642,2.157-7.736,0-9.353
			C36.586,117.137,36.586,120.212,36.586,123.377z M58.107,96.46c-0.482,2.633,0.091,4.699-0.438,6.729
			c-0.19,0.729,0.329,0.825,1.01,0.475c1.617-0.83,2.226-3.401,1.052-4.81C59.233,98.257,58.501,97.85,58.107,96.46z M73.93,65.746
			c-0.003,0-0.005,0-0.008,0c0-0.969,0.016-1.938-0.006-2.907c-0.013-0.564-0.446-0.591-0.859-0.543
			c-0.507,0.058-0.548,0.292-0.447,0.812c0.317,1.631,0.148,3.192-0.893,4.605c-0.385,0.522-0.418,1.24,0.066,1.759
			c0.23,0.247,0.824,0.501,1.006,0.381c0.504-0.335,1.13-0.683,1.139-1.441C73.938,67.524,73.93,66.635,73.93,65.746z
			 M124.432,118.011c-1.091-0.582-0.148-2.864-1.653-3.103c-1.13-0.179-2.615,1.411-2.516,2.464
			c0.144,1.527,2.446,0.519,3.366,1.711C123.864,119.388,124.546,119.044,124.432,118.011z M69.865,82.586
			c0.862,0.236,1.772,0.381,1.658-1.322c-0.084-1.257,0.241-2.511,0.348-3.74c0.097-1.116,1.394-2.403-0.029-3.778
			C71.171,76.747,70.552,79.518,69.865,82.586z M57.45,106.795c-3.143-0.245-5.081,1.308-4.367,4.136
			C53.509,108.03,56.768,109.073,57.45,106.795z M144.82,120.729c0.175-1.962,0.047-3.507-1.283-4.397
			c-0.58-0.389-1.489,0.724-1.54,1.176C141.789,119.339,144.042,119.114,144.82,120.729z M42.976,86.442
			c1.245,1.863,2.146,3.479,2.002,5.394c-0.016,0.215,0.473,0.705,0.937,0.493c0.268-0.122,0.452-0.428,0.674-0.65
			C45.056,90.321,46.549,87.327,42.976,86.442z M104.902,32.474c0.594-1.86-0.322-2.867-1.863-3.571
			c-0.433-0.198-0.745-1.104-1.299-0.353c-0.349,0.472-0.04,1.042,0.435,1.455C103.098,30.808,103.99,31.644,104.902,32.474z
			 M40.586,81.635c1.863-1.084,2.198-2.492,1.021-4.09C40.621,78.641,40.034,79.882,40.586,81.635z M105.752,36.649
			c-0.838,1.178,0.823,2.168,0.053,3.219c-0.744,1.015,0.236,1.078,0.696,1.197c0.808,0.209,0.949-0.416,0.971-1.065
			C107.519,38.616,106.41,37.832,105.752,36.649z M59.841,131.229c0.236,0.014,0.472,0.027,0.708,0.041
			c0.249-1.101,0.528-2.195,0.736-3.304c0.134-0.712-0.18-1.416-0.881-1.461c-0.882-0.056-0.523,0.802-0.545,1.271
			C59.805,128.926,59.841,130.078,59.841,131.229z M77.861,97.313c0.036,1.377-2.19,2.152-1.173,3.904
			C78.655,100.3,78.434,98.842,77.861,97.313z M47.45,58.004c-0.548,1.022-1.241,2.023-0.948,3.132
			c0.11,0.415,1.013,0.192,1.406-0.323C48.714,59.755,48.54,58.843,47.45,58.004z M54.416,120.523
			c0.979-1.269,1.041-2.527-0.149-4.438C53.92,118.018,53.929,119.261,54.416,120.523z M73.933,125.536
			c-0.172-1.368,0.509-2.522-0.522-3.435c-0.126-0.112-0.775,0.062-0.815,0.206C72.244,123.556,72.748,124.509,73.933,125.536z
			 M106.961,41.921c-0.424,1.287-0.839,2.591,0.219,4.188C107.571,44.419,107.625,43.161,106.961,41.921z M29.281,108.602
			c-1.002,1.112-2.058,1.588-1.252,2.753c0.237,0.343,0.943,0.815,0.976,0.781C29.925,111.194,29.005,110.161,29.281,108.602z
			 M64.686,66.792c0.015-0.484-0.572-0.958-0.6-0.926c-0.48,0.56-0.953,1.147-1.286,1.801c-0.138,0.272-0.167,0.928,0.451,0.866
			C64.248,68.434,64.149,67.333,64.686,66.792z M74.504,133.465c-1.901-0.622-2.316,0.047-1.85,1.683
			C73.657,135.028,74.077,134.409,74.504,133.465z M78.207,28.04c0.179-0.481-0.015-0.758-0.522-0.741
			c-0.433,0.014-1.021-0.257-1.241,0.33c-0.209,0.558,0.411,0.508,0.678,0.733C77.678,28.831,77.916,28.426,78.207,28.04z
			 M102.618,53.433c-0.076-0.283,0.089-0.79-0.464-0.823c-0.579-0.034-0.508,0.468-0.5,0.824c0.009,0.414-0.173,1.051,0.557,0.986
			C102.711,54.376,102.572,53.849,102.618,53.433z M45.258,56.521c-0.022-0.367,0.108-0.898-0.348-0.979
			c-0.709-0.125-0.612,0.495-0.61,0.928c0.001,0.354-0.1,0.845,0.449,0.877C45.335,57.381,45.199,56.869,45.258,56.521z
			 M48.809,66.782c-0.077-0.407,0.943,0.112,0.554-0.59c-0.193-0.348-0.087-1.105-0.821-0.942c-0.537,0.12-0.36,0.645-0.346,1.002
			C48.208,66.529,47.974,67.205,48.809,66.782z M86.545,123.479c0.557-0.055,0.5-0.488,0.503-0.852
			c0.003-0.365,0.125-0.861-0.337-0.988c-0.515-0.143-0.641,0.29-0.612,0.698C86.128,122.748,85.892,123.29,86.545,123.479z
			 M136.633,120.62c-0.033-0.359,0.097-0.851-0.403-0.935c-0.548-0.092-0.589,0.376-0.555,0.762
			c0.035,0.403-0.218,1.039,0.502,1.047C136.724,121.501,136.578,120.969,136.633,120.62z M96.864,97.738
			c-0.223-0.186-0.373-0.408-0.525-0.411c-0.164-0.002-0.438,0.179-0.473,0.324c-0.08,0.34,0.112,0.604,0.492,0.531
			C96.523,98.151,96.652,97.934,96.864,97.738z M105.134,34.977c-0.229,0.183-0.49,0.292-0.515,0.438
			c-0.029,0.174,0.108,0.505,0.244,0.549c0.292,0.093,0.629-0.003,0.611-0.409C105.466,35.382,105.282,35.218,105.134,34.977z"/>
		<path style="fill-rule:evenodd;clip-rule:evenodd;fill:#7B491E;" d="M343.149,100.974c-1.402-0.232-2.515,1.472-3.688,0.896
			c-1.083-0.531-2.248-1.5-2.246-3.245c-2.027,2.872-1.903,3.55,0.781,5.306c0.311,0.203,0.749,0.171,0.822,0.721
			c0.525,3.923,1.517,7.79,1.448,11.783c-0.024,1.47-1.564,3.106-1.263,3.903c0.759,2-0.509,3.38-0.754,4.999
			c-0.266,1.752-0.881,3.658-0.308,5.196c1.458,3.916-0.424,7.338-1.14,10.892c-0.625,3.104,0.231,5.907,0.809,8.815
			c0.444,2.243,0.577,4.354-1.283,6.245c-0.887,0.901-1.658,1.855-2.893,1.456c-1.183-0.382-1.709-1.659-1.861-2.813
			c-0.185-1.41-0.801-2.768-0.552-4.243c0.071-0.421,0.177-1.048-0.558-1.093c-0.383-0.023-0.981-0.044-1.116,0.168
			c-0.225,0.354-0.353,1.189-0.177,1.309c1.572,1.058,0.909,2.632,0.833,3.922c-0.091,1.55,0.705,2.743,1.019,4.113
			c0.118,0.515,0.371,0.715,0.799,0.643c3.055-0.519,2.906,1.904,3.057,3.616c0.467,5.312-0.361,10.61-0.479,15.922
			c-0.023,1.042-0.354,2.394-1.855,2.312c-1.434-0.078-1.83-1.313-1.961-2.484c-0.166-1.492,0.112-3-0.462-4.494
			c-0.288-0.75-0.676-1.428-1.3-1.612c-2.582-0.765-2.319-2.586-1.875-4.536c0.591-2.592-0.163-4.907-1.358-7.822
			c-1.718,4.616-2.72,8.711-3.216,12.87c-0.272,2.289-0.403,4.628-0.545,6.947c-0.067,1.099,0.042,2.164-1.548,2.149
			c-1.496-0.013-3.169,0.372-3.691-1.675c-0.493-1.935-0.15-3.984,0.69-5.577c1.904-3.605,2.114-7.658,3.503-11.379
			c0.246-0.659,0.359-1.308,0.817-1.907c0.388-0.505,0.488-1.377-0.104-1.743c-0.682-0.422-1.005,0.247-1.395,0.822
			c-1.252,1.848-0.681,4.133-1.639,6.076c-0.813,1.649-1.434,3.459-1.759,5.266c-0.28,1.561-1.19,1.422-2.216,1.352
			c-1.235-0.086-1.675-0.842-1.946-2.021c-0.842-3.662,0.963-7.178,0.441-10.961c-0.396,0.466-0.702,0.868-1.051,1.229
			c-1.698,1.754-3.408,1.331-4.21-1.045c-0.715-2.119-1.259-4.286-0.962-6.533c0.392-2.96,0.215-5.993,1.379-8.863
			c0.493-1.217,1.146-1.954,2.331-2.441c2.069-0.852,2.391-3.223,0.599-4.613c-2.429-1.887-1.604-4.57-1.267-6.726
			c0.484-3.09,0.797-6.14,0.862-9.259c0.072-3.427,1.766-4.448,4.726-3.026c0.393,0.188,0.653,0.393,1.051,0.092
			c0.439-0.332,0.669-0.814,0.469-1.272c-0.407-0.936-0.863-1.823-1.841-2.402c-2.156-1.278-2.468-3.064-2.25-5.614
			c0.278-3.258,1.227-6.428,1.188-9.69c-0.041-3.475,1.435-6.39,3.065-9.271c0.502-0.886,1.604-0.959,2.398-1.463
			c1.572-0.998,1.854-2.313,0.577-3.64c-2.278-2.367-2.454-5.169-2.197-8.255c0.237-2.856,0.828-5.519,1.906-8.188
			c0.614-1.519,1.559-2.059,2.858-2.468c0.776-0.244,1.437-0.542,1.28-1.556c-0.16-1.049-0.94-0.847-1.646-0.879
			c-2.59-0.119-3.848-1.298-3.293-3.765c0.961-4.276,0.396-9.028,2.925-12.784c2.548-3.782,1.466-7.999,2.314-11.958
			c0.976-4.55,2.292-8.955,4.54-13.025c0.637-1.153,1.652-1.833,3.34-1.322c1.655,0.501,2.974-0.126,3.961-1.998
			c1.571-2.983,3.327-5.942,5.737-8.374c1.559-1.572,2.871-1.305,4.205,0.297c0.839,1.01,0.718,1.636-0.137,2.437
			c-1.103,1.034-2.27,2.032-2.837,3.748c1.482-0.308,2.113,1.059,3.505,1.788c-0.493-3.637,2.196-4.315,4.428-4.983
			c2.148-0.642,4.249-0.023,5.783,1.941c0.621,0.794,1.472,1.412,2.331,2.026c1.596,1.14,2.856,2.651,1.761,4.882
			c-0.068,0.139-0.069,0.31-0.112,0.463c-0.827,2.949,2.31,5.486,0.582,8.549c1.448-0.604,1.225-1.913,1.792-2.8
			c0.493-0.77,0.873-1.507,1.911-1.572c1.074-0.066,1.633,0.62,2.008,1.437c2.085,4.548,3.873,9.151,2.108,14.274
			c-0.636,1.844,0.689,3.1,1.395,4.531c0.695,1.411,1.579,2.739,2.162,4.191c1.16,2.892,0.067,5.465-1.927,7.417
			c-2.443,2.39-1.999,5.517-2.675,8.331c-0.405,1.685-0.068,3.546-0.077,5.328c-0.005,0.947,0.033,1.807-0.687,2.689
			c-0.865,1.06-0.68,2.189,0.059,3.588c1.006,1.904,1.927,3.99,1.249,6.452c-0.436,1.584,0.408,3.62-0.244,5.025
			c-1.464,3.158-0.875,6.143-0.44,9.316c0.445,3.245-0.185,6.51-0.923,9.701c-0.252,1.084-0.429,2.214-2.161,1.956
			c-1.508-0.226-1.518,1.249-1.113,1.966c3.475,6.151,1.137,11.898-1.086,17.652c-0.348,0.899-0.301,1.411,0.29,2.277
			c2.634,3.854,2.66,8.157,1.657,12.533c-0.42,1.832-1.078,3.614-1.42,5.458c-0.329,1.777-0.969,3.266-2.845,3.646
			c-0.935,0.19-3.522-3.13-3.483-4.459c0.075-2.598-0.474-5.236,0.893-7.756c0.903-1.666-0.863-2.57-1.693-3.645
			c-0.309-0.399-0.581,0.127-0.697,0.562c-0.4,1.491-1.248,2.111-2.914,1.784c-2.545-0.5-1.726,2.189-2.998,3.257
			c0.692,0.037,1.209,0.214,1.6,0.063c3.087-1.188,4.09-0.499,4.34,2.855c0.26,3.472-0.084,6.941-1.095,10.178
			c-1.224,3.921-1.252,8.089-2.81,11.896c-0.632,1.544-0.817,3.865-3.011,3.677c-1.827-0.157-1.783-2.33-2.033-3.752
			c-0.687-3.916-0.262-7.886-0.198-11.83c0.012-0.71,0.464-1.702,1.03-2.062c2.495-1.583,1.666-4.004,1.758-6.19
			c0.014-0.333,0.368-1.043-0.387-1.009c-0.494,0.021-1.069,0.19-1.067,1.012c0.004,1.178,0.28,2.404-0.432,3.515
			c-0.203,0.316-0.154,0.868-0.41,1.066c-3.203,2.479-1.352,5.805-1.349,8.731c0.003,1.894-2.038,8.286-3.693,9.473
			c-1.532,1.098-3.162,0.045-3.307-2.265c-0.116-1.856-0.224-3.751,0.012-5.583c0.892-6.954,0.954-13.933,0.988-20.924
			c0.008-1.61,0.436-3.317,1.085-4.798c0.615-1.406,2.091-1.827,3.66-1.747c0.546,0.027,1.274,0.367,1.591-0.602
			c0.17-0.521,0.16-0.772-0.174-1.222c-0.597-0.799-1.198-0.173-1.691-0.059c-2.642,0.615-3.992-0.222-4.017-2.826
			c-0.049-5.264-0.529-10.63,1.508-15.633c0.992-2.438,0.503-5.35,2.609-7.436c0.666-0.658,0.552-2.1,0.146-2.784
			C342.728,105.716,343.413,103.281,343.149,100.974z M354.657,53.403c-0.916,2.602-0.366,5.122-0.97,7.639
			c-1.05,4.375,0.12,9.158-1.245,13.654c-0.066,0.22-0.093,0.549,0.023,0.713c1.869,2.636,0.582,5.611,0.904,8.41
			c0.103,0.891-0.799,2.184,0.953,2.236c1.448,0.042,1.391-1.196,1.505-2.19c0.261-2.261-0.783-4.391-0.866-6.535
			c-0.226-5.766-0.9-11.601,0.494-17.296c0.226-0.921-0.427-1.815,0.198-2.536C357.234,55.676,356.096,54.632,354.657,53.403z
			 M348.026,59.273c-0.038-0.241,0.205-0.837-0.579-0.86c-1.646-0.047-2.922,1.709-2.57,3.368c0.893,4.218,1.294,8.475,0.695,12.777
			c-0.048,0.342-0.496,0.652-0.005,1.005c0.643,0.463,0.743-0.267,1.069-0.479c1.762-1.144,1.193-2.65,1.034-4.386
			C347.33,66.971,347.231,63.181,348.026,59.273z M347.465,126.544c0.316,1-0.412,1.982,0.896,2.486
			c0.624,0.241,0.98-0.057,1.232-0.25c0.793-0.608,0.18-1.339,0.08-2.086c-0.326-2.448-0.426-4.927-0.651-7.39
			c-0.268-2.904,0.534-5.678,0.947-8.502c0.063-0.431,0.392-1.299-0.519-1.299c-0.592-0.001-0.97,0.571-0.896,1.218
			c0.158,1.396-0.317,2.766-0.592,4.037C347.093,118.785,349.087,122.849,347.465,126.544z M354.317,112.506
			c-0.024,1.797,1.547,3.379,1.153,5.397c-0.057,0.291,0.68,0.81,1.135,1.074c0.104,0.061,0.722-0.441,0.838-0.776
			c0.56-1.615,1.333-3.247,1.42-4.904c0.055-1.054-1.704-1.243-2.449-2.074c-0.427-0.477-0.889-1.106-1.609-0.766
			C353.947,110.862,354.557,111.745,354.317,112.506z M351.442,26.918c1.945-1.525,2.493-3.465,3.355-5.157
			c0.376-0.738,0.113-1.705-0.729-2.344c-0.759-0.575-1.801,0.155-1.835,0.237c-0.561,1.314-2.252,2.324-1.259,4.1
			C351.453,24.61,351.537,25.552,351.442,26.918z M320.363,132.018c2.207-1.016,1.129-3.155,1.883-4.71
			c0.945-1.947,1.413-4.12,2.192-6.156c0.22-0.576-0.117-0.689-0.377-0.904c-0.3-0.249-0.623-0.125-0.822,0.165
			c-0.309,0.45-0.728,0.901-0.826,1.405c-0.512,2.622-1.414,5.112-2.346,7.602C319.728,130.325,319.568,131.284,320.363,132.018z
			 M330.608,45.259c-0.917,0.32-0.651,0.961-0.16,1.577c1.009,1.263,1.876,2.551,1.583,4.298c-0.062,0.365-0.089,0.848,0.494,0.902
			c0.392,0.036,0.691,0.02,0.965-0.442c0.682-1.159,1.386-2.324,2.435-3.214c0.318-0.27,0.651-0.657,0.296-0.985
			c-0.213-0.197-0.817-0.208-1.105-0.047c-1.512,0.844-2.43,0.182-3.089-1.136C331.752,45.662,331.435,45.271,330.608,45.259z
			 M327.534,140.978c0.377-2.491,0.743-4.813,1.059-7.143c0.036-0.275,0.274-0.948-0.38-0.808c-0.334,0.071-1.225,0.122-0.987,0.725
			c0.661,1.679-0.61,2.999-1.227,3.957C324.59,139.901,325.219,140.554,327.534,140.978z M329.509,70.296
			c-0.439,2.411-0.967,4.988-1.324,7.587c-0.057,0.414-0.824,1.002-0.076,1.351c0.884,0.413,1.199-0.546,1.267-1.003
			c0.398-2.727,0.585-5.479,1.636-8.086c0.316-0.783-0.24-1.139-1.07-1.076C329.161,69.126,328.879,69.376,329.509,70.296z
			 M350.225,50.498c-0.64-0.539,0.368-1.546-0.812-1.806c-0.414-0.091-0.951,0.052-0.827,0.537c0.698,2.712-1.875,4.601-1.754,7.167
			c0.016,0.333-0.431,0.754,0.12,0.945c0.423,0.146,0.94,0.206,1.114-0.479C348.615,54.71,349.205,52.569,350.225,50.498z
			 M338.086,27.549c0.146-0.219,0.365-0.488,0.517-0.79c0.497-0.99,0.795-2.195,1.814-2.733c2.081-1.099,1.443-3.378,2.353-4.967
			c0.182-0.318-0.071-0.456-0.27-0.489c-0.311-0.051-0.592,0.007-0.739,0.404c-1.004,2.717-2.739,5.007-4.436,7.3
			c-0.272,0.368-0.549,0.564-0.217,0.906C337.307,27.385,337.688,27.41,338.086,27.549z M349.912,95.756
			c0.244-1.637,0.391-3.181,0.743-4.676c0.125-0.528-0.024-0.72-0.329-0.961c-0.312-0.246-0.58-0.08-0.843,0.136
			c-1.233,1.014-1.338,2.627-1.785,3.95C347.389,95.121,349.073,95.115,349.912,95.756z M324.879,103.109
			c-0.204-0.417-0.275-0.843-0.476-0.916c-0.449-0.166-0.903-0.045-1.305,0.324c-1.479,1.357-0.556,3.256-1.067,4.848
			c-0.144,0.446,0.695,0.518,1.126-0.06C324.112,106.021,323.264,104.1,324.879,103.109z M316.539,151.02
			c1.498-0.72,2.487-3.522,2.088-5.917C317.098,146.813,316.187,148.674,316.539,151.02z M364.622,52.954
			c-0.427-2.044,0.792-4.16-1.134-6.029C362.934,49.623,363.329,51.825,364.622,52.954z M345.563,94.495
			c-2.984-0.778-3.174-0.544-2.549,3.25C343.87,96.655,344.634,95.681,345.563,94.495z M326.758,150.583
			c-1.423,1.581-1.764,3.031-2.394,4.522C327.731,154.949,326.367,152.57,326.758,150.583z M352.926,133.292
			c-0.564,1.272-0.737,2.538,0.11,3.774C353.403,135.81,353.569,134.557,352.926,133.292z M360.775,92.598
			c0.926,0.886,1.121,1.953,2.256,1.543c0.301-0.108,0.428-0.396,0.251-0.912C362.833,91.916,362.026,92.467,360.775,92.598z
			 M361.831,123.44c0.039-0.938,0.823-2.014-0.426-3.021C361.135,121.612,360.957,122.563,361.831,123.44z M325.415,113.118
			c-0.702,1.322-1.451,1.842-1.064,2.807c0.176,0.438,0.346-0.028,0.51-0.068C326.179,115.536,325.671,114.646,325.415,113.118z
			 M328.124,109.983c-0.02-0.367,0.109-0.898-0.347-0.979c-0.709-0.126-0.612,0.494-0.61,0.927c0.002,0.354-0.1,0.845,0.449,0.878
			C328.202,110.845,328.066,110.332,328.124,109.983z M331.045,144.862c-0.046-0.352,0.084-0.845-0.459-0.879
			c-0.578-0.037-0.508,0.467-0.5,0.823c0.009,0.414-0.173,1.052,0.557,0.986C331.144,145.749,331.005,145.222,331.045,144.862z
			 M344.653,78.828c-0.038-0.356,0.103-0.848-0.397-0.936c-0.548-0.097-0.595,0.369-0.562,0.755c0.034,0.404-0.22,1.039,0.498,1.052
			C344.735,79.709,344.605,79.182,344.653,78.828z M350.132,97.333c0.13-0.244,0.315-0.435,0.29-0.592
			c-0.024-0.155-0.251-0.371-0.411-0.392c-0.408-0.055-0.518,0.278-0.438,0.581C349.612,97.081,349.891,97.169,350.132,97.333z
			 M326.099,144.421c0.223,0.187,0.372,0.409,0.524,0.412c0.164,0.002,0.439-0.179,0.474-0.324c0.079-0.34-0.113-0.604-0.492-0.53
			C326.439,144.01,326.311,144.228,326.099,144.421z M349.015,147.727c-0.186,0.223-0.409,0.372-0.411,0.525
			c-0.002,0.163,0.179,0.438,0.324,0.473c0.34,0.079,0.604-0.112,0.53-0.492C349.427,148.067,349.209,147.938,349.015,147.727z"/>
		<path style="fill-rule:evenodd;clip-rule:evenodd;fill:#7B491E;" d="M201.272,110.057c-0.768,0.178-1.262,0.627-1.371,1.118
			c-0.824,3.722-3.965,5.723-6.176,8.401c-0.642,0.778-1.547,1.35-2.668,0.539c-1.204-0.87-2.265-1.739-1.65-3.476
			c1.318-3.723,3.251-7.133,5.551-10.3c0.993-1.368,1.703-2.824,2.41-4.311c0.7-1.472,0.92-3.155,2.208-4.376
			c0.349-0.331,0.779-0.94,0.628-1.679c-1.042-5.083,1.492-9.167,4.437-12.66c2.105-2.498,2.94-5.71,5.313-7.959
			c0.326-0.31,0.287-1.213-0.872-1.48c-2.823-0.651-3.874-3.763-2.278-6.219c3.417-5.262,8.181-9.271,12.693-13.502
			c0.448-0.42,0.985-0.736,0.679-1.25c-1.82-3.056-0.074-5.268,1.47-7.735c2.069-3.309,5.025-5.828,7.34-8.899
			c1.474-1.955,3.752-2.025,5.815-2.098c2.081-0.073,2.894-0.525,2.231-2.373c-0.429-1.193-0.116-1.846,0.589-2.771
			c3.153-4.135,7.454-6.846,11.685-9.645c0.807-0.533,1.826-0.866,2.801-0.421c1.771,0.808,3.283,0.088,4.91-0.53
			c3.658-1.389,7.366-2.693,11.25-3.288c5.972-0.914,10.2,2.357,14.134,6.164c2.051,1.984,2.97,4.633,4.042,7.198
			c0.38,0.907,0.702,1.748-0.138,2.374c-0.725,0.54-1.77,0.59-2.464-0.066c-1.267-1.196-2.049-0.703-2.801,0.521
			c-0.163,0.265-0.487,0.666-0.687,0.638c-3.038-0.428-2.902,2.265-3.86,3.873c-0.283,0.477-0.539,0.97-0.83,1.442
			c-2.41,3.916-3.131,8.116-3.06,12.738c0.072,4.765-0.901,9.414-4.285,13.338c-1.206,1.398-1.529,3.711-1.863,5.674
			c-0.519,3.047-0.747,6.147-1.01,9.233c-0.18,2.106-2.775,4.901-5.264,5.342c-0.812,0.145-1.053,0.331-1.089,1.142
			c-0.159,3.581-0.784,7.122-1.102,10.692c-0.283,3.188-1.417,6.407-2.9,9.357c-0.461,0.916-1.143,1.729-2.403,0.494
			c-0.62-0.606-1.794-0.761-1.884,0.94c-0.068,1.294-0.18,2.68-1.196,3.74c-0.37,0.387-0.296,0.902,0.001,1.335
			c2.639,3.833,0.78,7.842,0.438,11.782c-0.079,0.922-0.429,1.823-0.667,2.729c-0.613,2.33-2.449,3.142-4.542,1.993
			c-0.604-0.331-1.273-1.395-1.772-0.088c-0.398,1.044-1.82,2.187-0.369,3.336c0.561,0.444,0.885,0.721,0.877,1.453
			c-0.047,4.315,0.44,8.706-1.088,12.842c-0.457,1.237-0.259,2.473-0.712,3.707c-0.453,1.233-0.465,2.524-2.141,2.306
			c-1.861-0.243-2.878-1.835-2.552-3.654c0.057-0.313,0.121-0.628,0.152-0.944c0.056-0.563-0.12-0.919-0.779-0.907
			c-0.552,0.01-0.709,0.339-0.656,0.774c0.492,4.122-1.939,8.062-0.602,12.312c0.434,1.378-0.064,3.196-0.568,4.666
			c-0.274,0.803-1.117,2-2.385,1.618c-1.048-0.315-1.956-0.869-1.849-2.377c0.16-2.257,0.056-4.533,0.03-6.802
			c-0.005-0.459-0.029-1.226-0.263-1.322c-1.113-0.458-1.588,1.32-2.885,0.889c-0.756-0.251-1.462-1.257-2.398,0.686
			c-1.207,2.506-1.033,5.054-1.656,7.527c-0.305,1.207-1.069,1.79-1.852,1.741c-1.02-0.062-1.726-0.837-1.664-2.187
			c0.124-2.749-0.068-5.512,0.07-8.259c0.109-2.167,1.763-3.765,2.531-5.709c0.246-0.622,0.957-0.874,1.647-0.511
			c0.604,0.318,1.338,0.532,1.16,1.531c-0.085,0.476-0.262,1.2,0.662,1.242c0.925,0.043,0.707-0.636,0.774-1.165
			c0.231-1.827,0.945-3.458,1.989-4.971c0.477-0.688,1.133-1.36,0.759-2.604c-1.116,1.455-2.562,1.264-3.46,0.302
			c-0.782-0.84-0.152-1.964,0.604-2.982c1.592-2.144,2.315-4.877,4.565-6.612c0.677-0.521,0.795-1.358-0.167-1.892
			c-0.493-0.274-0.446-0.59-0.164-0.955c0.536-0.693,0.571-0.072,0.871,0.258c0.492,0.542,0.833-0.067,1.158-0.366
			c0.808-0.741,1.595-1.504,2.508-2.37c-2.655-0.642-4.181-1.963-2.92-5.025c0.24-0.584-0.358-2.157-0.83-2.28
			c-2.471-0.645-1.586-2.603-2.166-4.115c-1.209-3.148,0.011-5.8,0.506-8.675c0.713-4.138,3.22-7.638,4.024-11.697
			c0.593-2.988,1.717-5.8,2.45-8.734c0.385-1.537,1.835-2.502,2.2-4.108c0.213-0.937,0.414-1.699-0.567-2.464
			c-1.69,2.251-2.002,5.055-3.094,7.52c-2.161,4.879-3.178,10.137-4.943,15.143c-0.415,1.174-0.799,2.336-1.132,3.535
			c-0.307,1.099-0.537,2.408-2.13,2.47c-1.553,0.061-1.819-1.186-2.251-2.286c-1.854,2.749-1.856,2.753,1.046,4.354
			c1.498,0.827,2.843,5.175,2.424,7.273c-0.845,4.223-2.661,8.218-2.793,12.613c-0.063,2.104-0.829,4.11-1.812,6.037
			c-0.796,1.56-1.649,1.449-2.83,0.613c-0.469-0.332-0.718-1.226-1.558-0.704c-0.659,0.41-0.613,1.099-0.548,1.735
			c0.213,2.057,0.021,4.113,0.285,6.203c0.248,1.957-0.795,4.09-1.341,6.126c-0.155,0.577-0.727,1.013-1.322,0.762
			c-0.962-0.404-2.045-1.09-1.946-2.184c0.265-2.939-1.367-4.227-3.771-5.205c-1.611-0.656-2.466-5.718-1.703-7.923
			c1.423-4.118,4.79-6.874,7.227-10.254c1.057-1.465,0.81-2.964,1.552-4.339c1.028-1.903,1.54-4.071,2.389-6.093
			c0.719-1.709-0.623-3.045-2.368-2.547c-1.722,0.49-2.276-0.522-2.376-1.778c-0.359-4.562,0.338-9.019,1.349-13.477
			c0.883-3.896,2.503-7.534,3.532-11.371c0.492-1.832,1.956-3.054,3.745-3.209c1.533-0.133,1.891-1.014,2.55-2.032
			c1.913-2.954,3.206-6.25,5.261-9.131c1.136-1.592,2.218-2.917,4.399-2.555c1.127,0.187,1.621-0.225,1.509-1.438
			c-0.091-0.972-0.28-2.041,1.182-2.741c-1.771-0.443-2.584,1.11-2.518,1.341c0.506,1.77-1.164,1.574-1.81,2.254
			c-0.819-0.818-2.093-1.321-2.196-2.655c-0.106-1.369-0.391-2.889,0.061-4.097c0.703-1.883,0.023-3.118-0.97-4.532
			c-0.912-1.299-1.317-2.685-0.768-4.429c0.417-1.319,0.083-2.875,0.083-4.516c-0.889,1.909-2.475,3.377-2.036,5.651
			c0.039,0.205-0.434,0.597-0.17,0.839c3.528,3.249,0.97,6.872,0.666,10.353c-0.237,2.722-1.612,5.03-2.754,7.416
			c-0.766,1.601-2.741,1.79-4.337,0.45c-0.778-0.654-1.524-1.345-2.28-2.024c-0.297-0.266-0.626-0.627-0.979-0.191
			c-0.166,0.206-0.238,0.759-0.098,0.898c2.113,2.096,0.911,4.562,1.034,6.953c0.194,3.78-0.782,7.25-1.79,10.736
			c-0.457,1.58-1.301,2.962-1.333,4.758c-0.036,2.032-2.707,2.949-4.104,1.457c-0.479-0.511-1.286-0.752-1.472-1.795
			c-1.16,2.103-1.682,4.027-0.621,6.051c1.602,3.061,1.116,6.26,0.367,9.32c-0.499,2.039-0.509,4.111-0.729,6.122
			c-0.222,2.017-1.04,3.799-1.319,5.746c-0.368,2.562-2.693,2.452-4.403,3.14c2.249,4.483,2.634,9.135,1.425,14.044
			c-0.521,2.115-2.094,2.816-3.683,3.205c-1.498,0.366-2.291-0.954-2.7-2.365c-0.12-0.414-0.554-0.735-0.906-1.178
			c-0.559,1.816,0.018,3.621-0.017,5.268c-0.059,2.809,0.87,4.655,2.031,6.938c0.699,1.375,1.074,3.864-0.765,5.473
			c-0.214,0.188-0.338,0.569-0.358,0.871c-0.187,2.913-1.164,3.396-3.769,1.823c-0.75,1.675-0.563,3.431-0.215,5.108
			c0.295,1.42-0.025,2.539-1.146,3.235c-0.695,0.432-1.694,0.497-2.47-0.214c-1.026-0.94-2.041-1.958-1.745-3.472
			c0.94-4.825,1.053-9.769,1.964-14.575c1.489-7.847,2.238-15.89,5.539-23.308c0.323-0.725,0.199-1.408,0.179-2.188
			c-0.581-0.125-1.026,0.369-1.04,0.644c-0.116,2.372-1.884,4.122-2.306,6.371c-0.417,2.223-1.674,4.021-3.057,5.744
			c-0.683,0.851-1.658,0.748-2.44,0.477c-0.828-0.288-1.274-1.019-1.345-2.068c-0.213-3.138,1.937-5.402,2.813-8.128
			c0.889-2.767,3.698-4.257,4.68-7.007c0.295-0.825,1.521-1.411,2.191-1.073c1.844,0.93,2.215-0.522,2.426-1.493
			C199.812,115.172,201.308,112.842,201.272,110.057z M230.896,150.698c0.362-0.009,0.83,0.174,0.95-0.364
			c0.082-0.366-0.163-0.612-0.53-0.53c-0.538,0.119-0.355,0.587-0.365,0.95c-0.363,0.013-0.832-0.17-0.953,0.367
			c-0.082,0.367,0.164,0.613,0.531,0.531C231.066,151.531,230.884,151.062,230.896,150.698z M252.321,37.986
			c-0.359,0.023-0.833-0.161-0.94,0.387c-0.074,0.378,0.188,0.607,0.543,0.519c0.528-0.132,0.348-0.594,0.344-0.96
			c0.801,0.162,1.129-0.159,0.985-0.963c2.122-2.026,3.724-4.591,6.356-6.091c0.699-0.397,0.399-1.15,0.48-1.767
			c0.076-0.576-0.231-1.013-0.655-1.163c-0.203-0.072-0.666,0.377-0.91,0.673c-1.398,1.7-2.836,3.374-4.113,5.162
			c-0.66,0.924-1.537,1.894-1.104,3.242C252.523,36.878,252.196,37.199,252.321,37.986z M250.378,54.511
			c-1.863,0.266-0.746,1.149-0.857,2.334c1.135-1.006,0.743-1.736,0.803-2.388c0.801,0.162,1.129-0.159,0.985-0.963
			c1.508-0.195,1.853-1.439,2.319-2.572c1.621-0.573,1.621-0.573,1.041-2.35c-0.047,1.041-1.513,0.84-1.427,1.997
			c-1.46,0.467-2.116,1.441-1.878,2.98C250.58,53.403,250.252,53.724,250.378,54.511z M216.304,65.149
			c-1.809,1.262-2.039,3.315-3.099,5.307c2.722-0.968,2.446-3.378,3.497-4.967c0.647-0.965,1.332-1.908,1.926-2.905
			c0.293-0.493,0.221-1.081-0.035-1.614c-0.467,0.333-1.205,0.207-1.361,1.081C217.044,63.105,216.623,64.118,216.304,65.149z
			 M250.253,88.218c-1.017,0.598-0.645,1.326-0.905,1.682c-0.801,1.097-1.44,2.947-3.136,2.306c-1.607-0.607-1.473-2.27-0.908-3.739
			c0.113-0.294,0.252-0.579,0.386-0.865c1.14-2.431,2.698-4.604,4.176-6.83c1.857-2.8,1.834-2.817-1.234-4.979
			c-0.237,1.889-1.446,3.279-2.272,4.812c-1.607,2.987-1.484,7.087-5.295,8.779c-0.405,0.18-0.816,0.922-0.795,1.384
			c0.087,1.931-1.467,3.652-0.625,5.681c0.305,0.736-0.214,1.353-0.772,1.89c-0.445,0.43-1.2,0.759-1.117,1.486
			c0.43,3.767-1.847,7.009-2.004,10.653c-0.014,0.33-0.578,0.595-0.049,1.002c0.507,0.392,0.745-0.059,0.965-0.283
			c0.593-0.607,1.269-1.312,2.022-0.523c1.99,2.081,2.05,0.229,2.57-1.094c0.497-1.266,0.949-2.493,0.85-3.886
			c-0.31-4.307,2.252-7.603,4.832-10.278C248.978,93.304,249.965,91.321,250.253,88.218z M250.29,39.938
			c-1.461-0.027-2.646,0.016-3.764-0.947c-2.173-1.875-3.392-1.295-3.938,1.616c-0.801,4.282-2.773,8.044-5.228,11.586
			c-0.311,0.449-0.579,0.927-0.896,1.371c-0.553,0.772-0.015,1.427,0.345,1.96c0.409,0.609,0.853-0.248,1.319-0.224
			c2.314,0.113,3.314-2.9,5.963-2.336c1.722,0.367,3.903-2.382,3.208-4.06c-0.641-1.543-0.041-2.765,0.16-4.127
			C247.74,42.881,249.538,41.871,250.29,39.938z M256.634,62.161c0.166-1.33-0.525-1.878-1.218-2.22
			c-0.812-0.401-1.726,0.172-2.05,0.749c-0.65,1.156-1.431,2.249-2.12,3.36c-0.987,1.589-1.247,3.972-3.952,4.193
			c-0.902,0.074-1.252,1.51-1.749,2.387c-0.097,0.171,0.093,0.683,0.289,0.794c0.225,0.127,0.793,0.096,0.886-0.06
			c0.912-1.537,2.821-1.683,3.945-2.904c1.839-1.997,2.423-5.244,5.754-5.783C256.571,62.652,256.645,62.135,256.634,62.161z
			 M271.03,19.46c-0.732,0.333-1.711-0.518-2.307,0.695c-0.328,0.667-0.057,1.211,0.209,1.441c0.715,0.619,1.586,0.421,2.425,0.044
			c0.757-0.34,1.523-0.151,2.33-0.006c2.244,0.404,3.76,1.843,5.277,3.347c0.248,0.246,0.482,1.022,0.978,0.463
			c0.206-0.233,0.688-0.724,0.081-1.379C277.572,21.416,274.772,19.562,271.03,19.46z M220.014,96.972
			c0.213,0.087,0.416,0.222,0.633,0.247c0.478,0.056,0.837-0.308,0.907-0.651c0.265-1.299,1.266-2.152,1.821-3.245
			c0.894-1.76,2.035-1.906,3.424-0.858c1.044,0.788,1.544,0.476,1.949-0.563c0.282-0.725,0.851-1.345,0.73-2.217
			c-0.084-0.616,1.071-1.431-0.036-1.804c-0.803-0.271-1.205,0.57-1.49,1.356c-0.662,1.826-2.017,2.501-3.95,2.229
			c-0.56-0.079-1.269-0.32-1.776,0.306C221.052,93.219,221.585,95.339,220.014,96.972z M202.839,104.21
			c0.742-1.943,1.407-3.724,2.106-5.49c0.181-0.456,0.442-0.985-0.014-1.275c-0.344-0.219-1.044-0.301-1.345-0.094
			c-1.668,1.147-1.789,3.2-2.49,4.869C200.778,102.978,202.053,103.577,202.839,104.21z M218.729,108.874
			c0.584-1.801,1.407-3.571,0.746-5.849C218.161,105.047,218.033,106.907,218.729,108.874z M256.736,72.695
			c-0.675,1.097-1.448,1.862-1.253,3.056c0.013,0.078,0.744,0.203,0.848,0.073C256.992,74.995,257.543,74.095,256.736,72.695z
			 M271.188,33.241c-1.046,0.415-2.1,0.71-2.281,1.951c-0.053,0.356,0.464,0.418,0.729,0.324
			C270.636,35.159,271.434,34.617,271.188,33.241z M234.012,114.051c0.688-0.626,1.805-0.886,1.624-2.054
			c-0.016-0.104-0.753-0.216-1.104-0.125C233.214,112.216,234.113,113.28,234.012,114.051z M268.83,24.969
			c-0.57,0.209-1.376,0.505-2.679,0.983C268.624,26.599,269.199,26.069,268.83,24.969z M219.497,101.364
			c1.177-1.126,0.68-2.1,0.309-3.064C219.048,99.19,219.209,100.141,219.497,101.364z M238.15,124.259
			c0.758-0.217,1.215-0.625,1.03-1.484c-0.06-0.279,0.021-0.533-0.483-0.47c-0.879,0.11-0.968,0.891-1.317,1.418
			C237.301,123.844,237.667,124.406,238.15,124.259z M221.767,52.474c1.334-0.039,2.054-0.186,2.329-1.115
			c0.081-0.275-0.111-0.826-0.357-0.673C223.127,51.066,222.643,51.65,221.767,52.474z M228.007,95.408
			c-0.076-0.4,0.192-1.06-0.566-0.989c-0.501,0.046-0.402,0.566-0.395,0.926c0.007,0.354-0.104,0.846,0.443,0.884
			C228.072,96.271,227.951,95.763,228.007,95.408z M202.234,123.426c-0.186,0.223-0.409,0.372-0.411,0.524
			c-0.002,0.163,0.179,0.438,0.325,0.473c0.339,0.08,0.603-0.112,0.529-0.492C202.646,123.767,202.429,123.637,202.234,123.426z
			 M233.924,115.236c-0.223-0.187-0.372-0.409-0.525-0.412c-0.163-0.002-0.438,0.179-0.473,0.324
			c-0.079,0.34,0.112,0.604,0.492,0.531C233.583,115.648,233.712,115.431,233.924,115.236z"/>
		<path style="fill-rule:evenodd;clip-rule:evenodd;fill:#7B491E;" d="M356.317,166.923c0.287-2.057,0.445-4.778,1.385-7.432
			c0.778-2.193,2.392-2.024,4.021-1.931c1.686,0.096,2.014,1.328,1.88,2.753c-0.339,3.606-0.923,7.164-3.071,10.201
			c-0.606,0.856-1.445,2.138-2.699,1.506c-0.997-0.503-1.419-1.771-1.509-2.973C356.288,168.565,356.317,168.079,356.317,166.923z"
			/>
		<path style="fill-rule:evenodd;clip-rule:evenodd;fill:#7B491E;" d="M188.26,150.469c-0.659,2.239-1.247,4.844-2.23,7.29
			c-0.43,1.068-1.743,1.447-3.086,1.103c-1.364-0.351-1.429-1.515-1.036-2.239c1.254-2.308,1.602-4.895,2.562-7.274
			c0.44-1.091,1.031-2.299,2.574-1.996C188.742,147.685,187.949,149.121,188.26,150.469z"/>
		<path style="fill-rule:evenodd;clip-rule:evenodd;fill:#7B491E;" d="M213.426,153.243c-0.202,0.866,0.396,1.97-0.342,2.895
			c-0.972,1.219-2.056,1.963-3.687,1.02c-1.762-1.02-2.851-2.343-2.036-4.428c0.212-0.542,0.548-1.083,0.813-1.64
			c0.591-1.243,1.23-3.132,2.869-2.647c1.387,0.409,2.735,1.721,2.389,3.698C213.378,152.454,213.426,152.785,213.426,153.243z"/>
		<path style="fill-rule:evenodd;clip-rule:evenodd;fill:#7B491E;" d="M51.63,164.36c-1.792,0.202-2.609-1.166-3.331-2.3
			c-0.735-1.154,0.683-2.811,2.108-2.56c1.582,0.278,2.901,1.363,3.408,2.676C54.436,163.782,53.025,164.285,51.63,164.36z"/>
		<path style="fill-rule:evenodd;clip-rule:evenodd;fill:#7B491E;" d="M272.053,174.338c-0.816,0.846-1.662,0.254-2.523,0.063
			C270.771,173.648,270.771,173.648,272.053,174.338z"/>
		<path style="fill-rule:evenodd;clip-rule:evenodd;fill:#7B491E;" d="M280.464,119.581c0.151-0.132,0.245-0.214,0.338-0.295
			c0.164,0.227,0.326,0.454,0.49,0.682c-0.151,0.037-0.353,0.151-0.439,0.094C280.687,119.952,280.588,119.744,280.464,119.581z"/>
		<path style="fill-rule:evenodd;clip-rule:evenodd;fill:none;" d="M104.556,125.548c0.251-2.283-0.261-4.988,0.413-7.724
			c0.597-2.423-0.916-4.853-3.206-6.101c-0.736-0.402-1.241-0.819-1.124-1.809c0.123-1.037,0.093-2.104,0.014-3.149
			c-0.164-2.142,0.036-3.472,2.766-2.19c1.171,0.55,1.802-0.718,2.102-1.794c1.083-3.887,1.358-7.908,1.911-11.881
			c0.102-0.729,0.204-1.44,0.582-2.014c0.682-1.036,1.553-1.895,0.495-3.271c-0.253-0.329-0.483-1.465,0.38-1.895
			c0.317-0.158,0.944-0.171,1.158,0.033c0.598,0.572,0.217,1.243,0.076,1.958c-0.246,1.246-0.478,2.64-0.165,3.826
			c1.105,4.185-0.789,8.176-0.592,12.289c0.029,0.619-0.42,1.371-0.858,1.883c-2.098,2.451-1.858,5.24-1.834,8.243
			c0.029,3.686,2.642,6.64,2.276,10.32c-0.144,1.446-0.415,2.732-1.413,3.897c-1.48,1.727-1.63,3.875-1.547,6.062
			c0.021,0.534,0.393,1.427-0.686,1.46c-1.124,0.035-0.719-0.878-0.73-1.416C104.528,130.175,104.556,128.071,104.556,125.548z"/>
		<path style="fill-rule:evenodd;clip-rule:evenodd;fill:none;" d="M90.053,88.433c-1.42-0.538-2.532-1.901-4.342-1.429
			c-0.673,0.175-0.624-0.595-0.584-1.04c0.184-2.096-1.002-3.054-2.84-3.44c-1.309-0.275-1.657-0.999-1.579-2.315
			c0.225-3.801,1.464-7.45,1.605-11.267c0.019-0.521,0.305-1.423,1.485-1.685c0,2.101-0.11,4.092,0.026,6.066
			c0.191,2.764,2.772,4.506,3.264,7.179c0.039,0.21,0.25,0.504,0.437,0.555c4.55,1.246,1.96,4.854,2.473,7.429L90.053,88.433z"/>
		<path style="fill-rule:evenodd;clip-rule:evenodd;fill:none;" d="M76.429,37.653c1.159,0.238,1.494,0.78,1.418,1.748
			c-0.095,1.206-0.101,2.431,0.013,3.634c0.069,0.727,0.32,1.953,1.205,1.666c2.476-0.8,2.351,1.24,2.516,2.352
			c0.66,4.458,1.076,8.953,1.577,13.435c0.049,0.434-0.125,0.782-0.484,1.038c-0.621,0.442-4.414-1.249-4.322-2.017
			c0.262-2.188-0.536-4.34,0.674-6.618c1.582-2.977-0.405-7.392-3.593-8.514c-1.492-0.525-1.001-0.912-0.553-1.795
			C75.654,41.056,76.543,39.543,76.429,37.653z"/>
		<path style="fill-rule:evenodd;clip-rule:evenodd;fill:none;" d="M132.243,101.998c-2.306-1.844-4.287-3.118-3.931-6.179
			c0.274-2.355,0.121-4.762-0.37-7.144c-0.206-1.001-0.608-1.867-1.403-2.026c-2.546-0.51-2.332-2.583-2.491-4.274
			c-0.209-2.224-0.051-4.482-0.051-7.295c1.89,2.068,2.983,3.984,3.392,6.261c0.705,3.928,1.11,8.159,3.132,11.451
			C132.328,95.734,132.155,98.464,132.243,101.998z"/>
		<path style="fill-rule:evenodd;clip-rule:evenodd;fill:none;" d="M70.047,89.365c0,1.699-0.116,3.407,0.023,5.095
			c0.321,3.898-0.169,7.622-2.206,11.01c-0.947,1.574-0.634,3.378-1.189,5.015c-0.182,0.536-0.235,1.253-0.847,1.159
			c-0.645-0.099-1.229-0.493-1.159-1.479c0.165-2.297,0.736-4.541,1.141-6.774c0.397-2.197,0.584-4.474,0.657-6.596
			C66.577,93.631,68.811,91.821,70.047,89.365z"/>
		<path style="fill-rule:evenodd;clip-rule:evenodd;fill:none;" d="M88.233,56.206c-1.253-8.155,1.658-15.461,3.533-23.511
			c2.366,4.426,0.6,8.487,1.078,12.403c0.057,0.462-0.286,1.283-0.655,1.439c-3.038,1.289-2.51,4.001-2.697,6.433
			C89.398,54.182,89.916,55.626,88.233,56.206z"/>
		<path style="fill-rule:evenodd;clip-rule:evenodd;fill:none;" d="M95.778,102.1c-0.199,4.97,0.447,9.949-0.306,14.927
			c-0.16,1.053,1.04,2.028,1.835,2.901c1.668,1.828,0.935,5.239-1.428,5.914c-0.834,0.237-1.658,1.567-2.692,0.5
			c-0.949-0.98,0.097-1.938,0.248-2.882c0.368-2.293,1.833-4.871,1.184-6.76c-0.981-2.854-0.479-5.562-0.741-8.313
			c-0.199-2.095,1.477-3.885,1.114-6.042c-0.002-0.016,0.549-0.125,0.842-0.19L95.778,102.1z"/>
		<path style="fill-rule:evenodd;clip-rule:evenodd;fill:none;" d="M88.531,116.299c-0.055,1.226,0.297,2.353-0.734,2.711
			c-0.786,0.272-1.2-0.786-1.645-1.273c-1.16-1.271-2.251-1.534-3.744-0.595c-0.972,0.612-2.107,0.364-2.493-0.709
			c-0.357-0.995,0.05-1.854,1.364-2.225c1.206-0.339,2.405-1.084,2.821-2.379c0.677-2.109,1.833-1.244,2.717-0.418
			C88.305,112.801,88.265,114.811,88.531,116.299z"/>
		<path style="fill-rule:evenodd;clip-rule:evenodd;fill:none;" d="M96.697,96.16c0.115-3.972,1.385-7.655,1.151-11.541
			c-0.126-2.084-1.738-3.824-1.073-5.985c0.128-0.416-0.246-1.02,0.4-1.232c0.491-0.161,0.889,0.021,1.291,0.399
			c1.723,1.624,2.93,3.391,1.725,5.842c-1.413,2.873-0.935,5.94-0.965,8.949C99.207,94.326,98.622,95.558,96.697,96.16z"/>
		<path style="fill-rule:evenodd;clip-rule:evenodd;fill:none;" d="M36.858,70.948c1.072,1.613,0.166,2.763-0.27,4.1
			c-0.818,2.51-1.005,5.194-1.806,7.744c-0.828,2.632-1.781,5.383,0.946,7.636c0.401,0.332,0.472,0.922,0.125,1.278
			c-0.217,0.223-0.76,0.247-1.125,0.183c-0.855-0.151-1.53-0.719-1.574-1.566c-0.103-1.98-0.261-3.808-1.362-5.654
			c-0.755-1.266,0.747-2.745,1.294-4.095c0.67-1.652,1.71-3,1.723-5.071C34.816,74.185,36.945,72.956,36.858,70.948z"/>
		<path style="fill-rule:evenodd;clip-rule:evenodd;fill:none;" d="M117.598,61.5c0.604-1.309,0.548-2.743,0.642-4.166
			c0.02-0.298,0.432-0.661,0.75-0.821c0.308-0.155,0.524,0.095,0.629,0.477c0.532,1.929,1.995,3.192,3.369,4.487
			c0.662,0.624,1.13,1.351,1.429,2.15c0.303,0.81-0.263,1.409-0.979,1.005c-1.396-0.787-2.387-1.343-4.159-0.277
			C118.344,64.917,117.951,62.718,117.598,61.5z"/>
		<path style="fill-rule:evenodd;clip-rule:evenodd;fill:none;" d="M48.243,105.161c1.66,1.499,1.05,2.916,0.507,4.658
			c-0.953,3.054-1.366,6.275-2.028,9.423c-0.098,0.466,0.348,1.349-0.584,1.266c-0.721-0.063-0.827-0.788-0.898-1.49
			c-0.212-2.064,1.112-3.759,1.295-5.735c0.059-0.633,0.311-1.25-0.011-1.838c-0.488-0.891-0.491-1.69,0.306-2.371
			C48.018,108.059,48.237,106.682,48.243,105.161z"/>
		<path style="fill-rule:evenodd;clip-rule:evenodd;fill:none;" d="M115.736,106.147c0.063-2.916,0.752-3.525,3.014-3.091
			c1.382,0.267,1.501,1.083,1.293,2.082c-0.107,0.518-0.319,1.035-0.467,1.562c-0.21,0.748,0.869,2.364-0.866,2.126
			C117.378,108.645,115.548,108.331,115.736,106.147z"/>
		<path style="fill-rule:evenodd;clip-rule:evenodd;fill:none;" d="M115.831,91.044c-3.048-2.985-0.735-6.057-0.434-9.004
			c0.073-0.713,1.469-0.532,2.078-0.514c1.102,0.032,0.33,1.143,0.155,1.416C116.063,85.392,117.274,88.41,115.831,91.044z"/>
		<path style="fill-rule:evenodd;clip-rule:evenodd;fill:none;" d="M89.998,88.485c2.533,3.591,2.208,7.535,1.43,11.538
			c-0.119,0.613-0.411,1.16-1.073,1.029c-0.626-0.123-0.429-0.819-0.358-1.219c0.678-3.8-0.292-7.602,0.054-11.398
			C90.053,88.433,89.998,88.485,89.998,88.485z"/>
		<path style="fill-rule:evenodd;clip-rule:evenodd;fill:none;" d="M57.749,96.286c-0.411-0.02-1.043-0.217-0.727-0.6
			c1.571-1.9,1.274-4.523,2.723-6.504c0.943-1.29,1.4-2.94,2.022-4.451c0.183-0.443-0.159-1.354,0.836-0.901
			c0.501,0.228,0.864,0.658,0.35,1.348c-1.734,2.329-2.112,5.289-3.532,7.787c-0.38,0.668-0.765,1.555-0.577,2.506
			C59.014,96.327,58.336,96.306,57.749,96.286z"/>
		<path style="fill-rule:evenodd;clip-rule:evenodd;fill:none;" d="M111.412,69.295c-0.129,1.415-0.929,1.692-1.308,2.279
			c-0.717,1.111-1.631,2.154-2.061,3.369c-0.289,0.815-0.677,1.245-1.226,0.825c-0.837-0.64,0.456-0.742,0.485-1.052
			c0.146-1.509,0.062-3.039,0.187-4.551c0.175-2.128,1.852-0.694,2.78-1.054C110.756,68.921,111.447,68.997,111.412,69.295z"/>
		<path style="fill-rule:evenodd;clip-rule:evenodd;fill:none;" d="M49.026,99.651c-0.137-1.559,0.188-3.006,0.237-4.491
			c0.015-0.452,0.12-0.915-0.126-1.255c-1.543-2.128,0.915-1.807,1.592-2.395c0.52-0.45,0.824,0.287,0.862,0.936
			C51.755,95.211,50.568,97.479,49.026,99.651z"/>
		<path style="fill-rule:evenodd;clip-rule:evenodd;fill:none;" d="M72.878,47.282c0.292,2.899-0.245,5.546,0.317,8.146
			c0.12,0.557-0.384,0.94-0.482,0.874c-0.664-0.444-1.84-0.471-1.683-1.69c0.211-1.636,0.684-3.244,0.477-4.921
			C71.377,48.64,71.776,47.88,72.878,47.282z"/>
		<path style="fill-rule:evenodd;clip-rule:evenodd;fill:none;" d="M29.243,138.81c0.108,1.162-0.379,1.531-1.413,1.043
			c-1.027-0.486-1.69-1.388-1.969-2.426c-0.314-1.17,0.667-2.045,1.107-3.024c0.144-0.32,1.171-0.379,1.149,0.116
			C28.047,136.101,29.108,137.333,29.243,138.81z"/>
		<path style="fill-rule:evenodd;clip-rule:evenodd;fill:none;" d="M95.966,69.666c-0.457-3.779,0.604-6.866,0.416-9.994
			c-0.02-0.326,0.451-0.682,0.695-1.023c0.316,0.719,1.545,0.928,1.148,2.043c-0.553,1.555-0.64,3.251-1.175,4.765
			C96.628,66.652,97.275,67.992,95.966,69.666z"/>
		<path style="fill-rule:evenodd;clip-rule:evenodd;fill:none;" d="M137.141,119.556c-2.535-2.918-0.762-6.018-1.8-8.573
			C139.162,112.998,136.856,116.201,137.141,119.556z"/>
		<path style="fill-rule:evenodd;clip-rule:evenodd;fill:none;" d="M36.586,123.377c0-3.165,0-6.24,0-9.353
			C38.743,115.641,38.756,120.735,36.586,123.377z"/>
		<path style="fill-rule:evenodd;clip-rule:evenodd;fill:none;" d="M58.107,96.46c0.394,1.39,1.126,1.797,1.625,2.395
			c1.173,1.408,0.564,3.979-1.052,4.81c-0.681,0.351-1.201,0.255-1.01-0.475C58.198,101.159,57.625,99.093,58.107,96.46z"/>
		<path style="fill-rule:evenodd;clip-rule:evenodd;fill:none;" d="M73.93,65.746c0,0.889,0.008,1.778-0.002,2.666
			c-0.008,0.758-0.634,1.106-1.139,1.441c-0.182,0.12-0.775-0.135-1.006-0.381c-0.484-0.52-0.451-1.237-0.066-1.759
			c1.041-1.413,1.21-2.974,0.893-4.605c-0.101-0.52-0.061-0.754,0.447-0.812c0.413-0.048,0.846-0.021,0.859,0.543
			c0.022,0.969,0.006,1.938,0.006,2.907C73.924,65.746,73.927,65.746,73.93,65.746z"/>
		<path style="fill-rule:evenodd;clip-rule:evenodd;fill:none;" d="M124.432,118.011c0.114,1.033-0.568,1.377-0.803,1.072
			c-0.919-1.192-3.222-0.184-3.366-1.711c-0.099-1.053,1.385-2.643,2.516-2.464C124.284,115.146,123.341,117.429,124.432,118.011z"
			/>
		<path style="fill-rule:evenodd;clip-rule:evenodd;fill:none;" d="M69.865,82.586c0.687-3.068,1.306-5.839,1.978-8.84
			c1.423,1.375,0.126,2.662,0.029,3.778c-0.107,1.229-0.432,2.483-0.348,3.74C71.637,82.967,70.728,82.822,69.865,82.586z"/>
		<path style="fill-rule:evenodd;clip-rule:evenodd;fill:none;" d="M57.45,106.795c-0.683,2.278-3.941,1.235-4.367,4.136
			C52.37,108.103,54.307,106.55,57.45,106.795z"/>
		<path style="fill-rule:evenodd;clip-rule:evenodd;fill:none;" d="M144.82,120.729c-0.778-1.614-3.031-1.39-2.823-3.222
			c0.051-0.452,0.96-1.564,1.54-1.176C144.868,117.222,144.995,118.767,144.82,120.729z"/>
		<path style="fill-rule:evenodd;clip-rule:evenodd;fill:none;" d="M42.976,86.442c3.574,0.885,2.081,3.879,3.613,5.237
			c-0.222,0.223-0.406,0.528-0.674,0.65c-0.464,0.211-0.953-0.278-0.937-0.493C45.122,89.92,44.221,88.305,42.976,86.442z"/>
		<path style="fill-rule:evenodd;clip-rule:evenodd;fill:none;" d="M104.902,32.474c-0.913-0.83-1.805-1.666-2.727-2.469
			c-0.475-0.413-0.784-0.983-0.435-1.455c0.554-0.751,0.866,0.155,1.299,0.353C104.58,29.606,105.497,30.613,104.902,32.474z"/>
		<path style="fill-rule:evenodd;clip-rule:evenodd;fill:none;" d="M40.586,81.635c-0.553-1.753,0.034-2.995,1.021-4.09
			C42.784,79.143,42.45,80.551,40.586,81.635z"/>
		<path style="fill-rule:evenodd;clip-rule:evenodd;fill:none;" d="M105.752,36.649c0.658,1.183,1.767,1.967,1.72,3.351
			c-0.022,0.649-0.163,1.274-0.971,1.065c-0.46-0.119-1.439-0.182-0.696-1.197C106.575,38.817,104.914,37.827,105.752,36.649z"/>
		<path style="fill-rule:evenodd;clip-rule:evenodd;fill:none;" d="M144.71,127.037c1.397,1.962,0.328,4.083,0.336,6.148
			c-0.941-1.83-0.466-3.834-0.674-5.749C144.485,127.303,144.598,127.17,144.71,127.037z"/>
		<path style="fill-rule:evenodd;clip-rule:evenodd;fill:none;" d="M59.841,131.229c0-1.151-0.037-2.304,0.018-3.452
			c0.022-0.47-0.336-1.327,0.545-1.271c0.701,0.045,1.015,0.749,0.881,1.461c-0.208,1.108-0.487,2.203-0.736,3.304
			C60.313,131.257,60.077,131.243,59.841,131.229z"/>
		<path style="fill-rule:evenodd;clip-rule:evenodd;fill:none;" d="M77.861,97.313c0.573,1.528,0.794,2.986-1.173,3.904
			C75.671,99.466,77.897,98.69,77.861,97.313z"/>
		<path style="fill-rule:evenodd;clip-rule:evenodd;fill:none;" d="M47.45,58.004c1.09,0.838,1.264,1.751,0.458,2.809
			c-0.394,0.516-1.296,0.738-1.406,0.323C46.209,60.027,46.902,59.026,47.45,58.004z"/>
		<path style="fill-rule:evenodd;clip-rule:evenodd;fill:none;" d="M54.416,120.523c-0.487-1.263-0.496-2.506-0.149-4.438
			C55.457,117.996,55.395,119.255,54.416,120.523z"/>
		<path style="fill-rule:evenodd;clip-rule:evenodd;fill:none;" d="M73.933,125.536c-1.185-1.027-1.689-1.98-1.337-3.229
			c0.041-0.145,0.689-0.318,0.815-0.206C74.442,123.014,73.761,124.168,73.933,125.536z"/>
		<path style="fill-rule:evenodd;clip-rule:evenodd;fill:none;" d="M106.961,41.921c0.664,1.24,0.61,2.498,0.219,4.188
			C106.122,44.513,106.537,43.208,106.961,41.921z"/>
		<path style="fill-rule:evenodd;clip-rule:evenodd;fill:none;" d="M29.281,108.602c-0.276,1.56,0.645,2.593-0.276,3.534
			c-0.033,0.034-0.739-0.438-0.976-0.781C27.223,110.189,28.278,109.714,29.281,108.602z"/>
		<path style="fill-rule:evenodd;clip-rule:evenodd;fill:none;" d="M85.143,128.403c0.047-1.292-0.241-2.615,0.481-3.844
			c0.078,1.289,1.544,2.726-0.537,3.789L85.143,128.403z"/>
		<path style="fill-rule:evenodd;clip-rule:evenodd;fill:none;" d="M64.686,66.792c-0.536,0.541-0.438,1.641-1.435,1.741
			c-0.618,0.062-0.588-0.594-0.451-0.866c0.333-0.654,0.805-1.242,1.286-1.801C64.113,65.835,64.701,66.308,64.686,66.792z"/>
		<path style="fill-rule:evenodd;clip-rule:evenodd;fill:none;" d="M74.504,133.465c-0.427,0.944-0.847,1.563-1.85,1.683
			C72.188,133.512,72.603,132.843,74.504,133.465z"/>
		<path style="fill-rule:evenodd;clip-rule:evenodd;fill:none;" d="M79.25,93.411c0.873,2.009,0.812,2.283-0.777,3.244
			c-0.59-1.339,0.973-2.117,0.833-3.298L79.25,93.411z"/>
		<path style="fill-rule:evenodd;clip-rule:evenodd;fill:none;" d="M79.305,93.357c-1.202,0.173-1.044-0.668-0.961-1.36
			c0.105-0.886,0.963-0.687,1.297-0.507c1.817,0.972-1.481,1.01-0.391,1.921C79.25,93.411,79.305,93.357,79.305,93.357z"/>
		<path style="fill-rule:evenodd;clip-rule:evenodd;fill:none;" d="M78.207,28.04c-0.291,0.386-0.529,0.791-1.085,0.322
			c-0.267-0.225-0.887-0.175-0.678-0.733c0.219-0.587,0.808-0.316,1.241-0.33C78.191,27.282,78.385,27.559,78.207,28.04z"/>
		<path style="fill-rule:evenodd;clip-rule:evenodd;fill:none;" d="M102.618,53.433c-0.046,0.417,0.093,0.943-0.408,0.987
			c-0.729,0.065-0.547-0.572-0.557-0.986c-0.008-0.356-0.078-0.858,0.5-0.824C102.708,52.643,102.542,53.15,102.618,53.433z"/>
		<path style="fill-rule:evenodd;clip-rule:evenodd;fill:none;" d="M45.26,56.522c-0.061,0.346,0.075,0.859-0.512,0.824
			c-0.548-0.033-0.447-0.523-0.449-0.877c-0.002-0.433-0.099-1.053,0.61-0.928C45.366,55.622,45.236,56.153,45.26,56.522z"/>
		<path style="fill-rule:evenodd;clip-rule:evenodd;fill:none;" d="M48.809,66.782c-0.835,0.423-0.601-0.253-0.613-0.53
			c-0.014-0.358-0.191-0.882,0.346-1.002c0.733-0.164,0.627,0.594,0.821,0.942C49.752,66.894,48.732,66.375,48.809,66.782z"/>
		<path style="fill-rule:evenodd;clip-rule:evenodd;fill:none;" d="M86.545,123.479c-0.654-0.188-0.417-0.73-0.446-1.142
			c-0.029-0.408,0.097-0.841,0.612-0.698c0.461,0.127,0.34,0.623,0.337,0.988C87.045,122.99,87.103,123.424,86.545,123.479z"/>
		<path style="fill-rule:evenodd;clip-rule:evenodd;fill:none;" d="M136.634,120.622c-0.056,0.347,0.09,0.879-0.457,0.872
			c-0.721-0.008-0.467-0.644-0.502-1.047c-0.034-0.386,0.007-0.854,0.555-0.762C136.73,119.77,136.6,120.261,136.634,120.622z"/>
		<path style="fill-rule:evenodd;clip-rule:evenodd;fill:none;" d="M144.372,127.437c-0.333-0.093-0.844,0.11-0.886-0.464
			c-0.012-0.159,0.168-0.437,0.317-0.485c0.468-0.151,0.648,0.287,0.907,0.55C144.598,127.17,144.485,127.303,144.372,127.437z"/>
		<path style="fill-rule:evenodd;clip-rule:evenodd;fill:none;" d="M96.864,97.738c-0.212,0.195-0.341,0.413-0.506,0.444
			c-0.379,0.073-0.571-0.191-0.492-0.531c0.034-0.146,0.309-0.326,0.473-0.324C96.492,97.33,96.641,97.553,96.864,97.738z"/>
		<path style="fill-rule:evenodd;clip-rule:evenodd;fill:none;" d="M105.134,34.977c0.148,0.242,0.333,0.406,0.34,0.578
			c0.019,0.406-0.319,0.502-0.611,0.409c-0.136-0.044-0.272-0.375-0.244-0.549C104.644,35.268,104.905,35.16,105.134,34.977z"/>
		<path style="fill-rule:evenodd;clip-rule:evenodd;fill:none;" d="M95.833,102.154c0.013-0.362-0.17-0.832,0.366-0.953
			c0.367-0.083,0.614,0.163,0.532,0.53c-0.12,0.538-0.59,0.354-0.953,0.368L95.833,102.154z"/>
		<path style="fill-rule:evenodd;clip-rule:evenodd;fill:none;" d="M354.657,53.403c1.438,1.229,2.577,2.273,0.997,4.095
			c-0.625,0.721,0.027,1.615-0.198,2.536c-1.395,5.696-0.72,11.53-0.494,17.296c0.083,2.144,1.127,4.274,0.866,6.535
			c-0.114,0.995-0.057,2.232-1.505,2.19c-1.752-0.052-0.851-1.345-0.953-2.236c-0.322-2.798,0.965-5.774-0.904-8.41
			c-0.116-0.164-0.09-0.494-0.023-0.713c1.365-4.496,0.195-9.279,1.245-13.654C354.291,58.525,353.741,56.005,354.657,53.403z"/>
		<path style="fill-rule:evenodd;clip-rule:evenodd;fill:none;" d="M348.026,59.273c-0.795,3.908-0.696,7.698-0.355,11.426
			c0.159,1.735,0.728,3.242-1.034,4.386c-0.326,0.212-0.427,0.942-1.069,0.479c-0.491-0.354-0.043-0.664,0.005-1.005
			c0.599-4.303,0.197-8.56-0.695-12.777c-0.352-1.659,0.924-3.416,2.57-3.368C348.231,58.436,347.988,59.032,348.026,59.273z"/>
		<path style="fill-rule:evenodd;clip-rule:evenodd;fill:none;" d="M347.465,126.544c1.622-3.695-0.372-7.759,0.497-11.785
			c0.274-1.271,0.75-2.641,0.592-4.037c-0.073-0.646,0.305-1.219,0.896-1.218c0.91,0,0.582,0.868,0.519,1.299
			c-0.413,2.824-1.215,5.598-0.947,8.502c0.226,2.463,0.325,4.941,0.651,7.39c0.1,0.747,0.713,1.478-0.08,2.086
			c-0.252,0.193-0.608,0.491-1.232,0.25C347.053,128.526,347.781,127.544,347.465,126.544z"/>
		<path style="fill-rule:evenodd;clip-rule:evenodd;fill:none;" d="M354.317,112.506c0.239-0.761-0.37-1.644,0.487-2.049
			c0.721-0.341,1.183,0.289,1.609,0.766c0.745,0.831,2.504,1.021,2.449,2.074c-0.087,1.657-0.86,3.289-1.42,4.904
			c-0.116,0.335-0.733,0.837-0.838,0.776c-0.455-0.265-1.191-0.783-1.135-1.074C355.864,115.885,354.293,114.303,354.317,112.506z"
			/>
		<path style="fill-rule:evenodd;clip-rule:evenodd;fill:none;" d="M351.442,26.918c0.095-1.366,0.011-2.308-0.468-3.164
			c-0.993-1.776,0.698-2.786,1.259-4.1c0.034-0.082,1.076-0.812,1.835-0.237c0.843,0.639,1.105,1.605,0.729,2.344
			C353.936,23.453,353.388,25.393,351.442,26.918z"/>
		<path style="fill-rule:evenodd;clip-rule:evenodd;fill:none;" d="M320.363,132.018c-0.795-0.733-0.636-1.692-0.296-2.599
			c0.932-2.489,1.834-4.979,2.346-7.602c0.099-0.504,0.518-0.955,0.826-1.405c0.199-0.29,0.522-0.414,0.822-0.165
			c0.26,0.215,0.597,0.328,0.377,0.904c-0.779,2.036-1.247,4.209-2.192,6.156C321.492,128.862,322.57,131.002,320.363,132.018z"/>
		<path style="fill-rule:evenodd;clip-rule:evenodd;fill:none;" d="M330.608,45.259c0.826,0.012,1.144,0.403,1.418,0.952
			c0.659,1.318,1.577,1.979,3.089,1.136c0.288-0.16,0.893-0.15,1.105,0.047c0.355,0.328,0.022,0.715-0.296,0.985
			c-1.049,0.89-1.753,2.055-2.435,3.214c-0.273,0.462-0.573,0.479-0.965,0.442c-0.583-0.054-0.556-0.537-0.494-0.902
			c0.293-1.747-0.574-3.035-1.583-4.298C329.957,46.221,329.691,45.58,330.608,45.259z"/>
		<path style="fill-rule:evenodd;clip-rule:evenodd;fill:none;" d="M327.534,140.978c-2.315-0.424-2.944-1.076-1.535-3.269
			c0.616-0.958,1.888-2.278,1.227-3.957c-0.237-0.603,0.653-0.653,0.987-0.725c0.654-0.141,0.416,0.532,0.38,0.808
			C328.277,136.164,327.911,138.486,327.534,140.978z"/>
		<path style="fill-rule:evenodd;clip-rule:evenodd;fill:none;" d="M329.509,70.296c-0.63-0.92-0.348-1.169,0.432-1.228
			c0.83-0.063,1.387,0.293,1.07,1.076c-1.051,2.607-1.237,5.36-1.636,8.086c-0.067,0.457-0.383,1.416-1.267,1.003
			c-0.748-0.349,0.02-0.937,0.076-1.351C328.542,75.284,329.069,72.707,329.509,70.296z"/>
		<path style="fill-rule:evenodd;clip-rule:evenodd;fill:none;" d="M350.225,50.498c-1.02,2.071-1.609,4.212-2.158,6.364
			c-0.174,0.684-0.691,0.624-1.114,0.479c-0.551-0.19-0.104-0.612-0.12-0.945c-0.121-2.566,2.452-4.455,1.754-7.167
			c-0.124-0.485,0.413-0.628,0.827-0.537C350.593,48.952,349.585,49.959,350.225,50.498z"/>
		<path style="fill-rule:evenodd;clip-rule:evenodd;fill:none;" d="M338.086,27.549c-0.397-0.14-0.779-0.165-0.978-0.369
			c-0.332-0.342-0.056-0.538,0.217-0.906c1.696-2.293,3.432-4.583,4.436-7.3c0.147-0.397,0.429-0.455,0.739-0.404
			c0.198,0.033,0.451,0.171,0.27,0.489c-0.909,1.589-0.271,3.868-2.353,4.967c-1.02,0.538-1.317,1.743-1.814,2.733
			C338.451,27.062,338.231,27.33,338.086,27.549z"/>
		<path style="fill-rule:evenodd;clip-rule:evenodd;fill:none;" d="M349.912,95.756c-0.839-0.641-2.523-0.635-2.214-1.55
			c0.447-1.323,0.552-2.937,1.785-3.95c0.263-0.216,0.53-0.382,0.843-0.136c0.305,0.241,0.454,0.433,0.329,0.961
			C350.303,92.575,350.156,94.119,349.912,95.756z"/>
		<path style="fill-rule:evenodd;clip-rule:evenodd;fill:none;" d="M324.879,103.109c-1.615,0.99-0.767,2.912-1.722,4.196
			c-0.431,0.577-1.27,0.506-1.126,0.06c0.512-1.592-0.411-3.49,1.067-4.848c0.401-0.369,0.855-0.49,1.305-0.324
			C324.604,102.267,324.675,102.692,324.879,103.109z"/>
		<path style="fill-rule:evenodd;clip-rule:evenodd;fill:none;" d="M316.539,151.02c-0.353-2.346,0.559-4.206,2.088-5.917
			C319.026,147.497,318.037,150.3,316.539,151.02z"/>
		<path style="fill-rule:evenodd;clip-rule:evenodd;fill:none;" d="M364.622,52.954c-1.293-1.129-1.688-3.331-1.134-6.029
			C365.414,48.794,364.195,50.91,364.622,52.954z"/>
		<path style="fill-rule:evenodd;clip-rule:evenodd;fill:none;" d="M345.563,94.495c-0.93,1.186-1.693,2.16-2.549,3.25
			C342.39,93.951,342.579,93.717,345.563,94.495z"/>
		<path style="fill-rule:evenodd;clip-rule:evenodd;fill:none;" d="M326.758,150.583c-0.391,1.987,0.974,4.366-2.394,4.522
			C324.994,153.614,325.335,152.164,326.758,150.583z"/>
		<path style="fill-rule:evenodd;clip-rule:evenodd;fill:none;" d="M352.926,133.292c0.644,1.265,0.478,2.518,0.11,3.774
			C352.188,135.83,352.361,134.564,352.926,133.292z"/>
		<path style="fill-rule:evenodd;clip-rule:evenodd;fill:none;" d="M360.775,92.598c1.251-0.13,2.058-0.682,2.507,0.631
			c0.177,0.516,0.05,0.803-0.251,0.912C361.896,94.55,361.701,93.483,360.775,92.598z"/>
		<path style="fill-rule:evenodd;clip-rule:evenodd;fill:none;" d="M361.831,123.44c-0.874-0.877-0.696-1.828-0.426-3.021
			C362.654,121.427,361.87,122.503,361.831,123.44z"/>
		<path style="fill-rule:evenodd;clip-rule:evenodd;fill:none;" d="M325.415,113.118c0.256,1.527,0.764,2.418-0.555,2.738
			c-0.164,0.04-0.334,0.507-0.51,0.068C323.964,114.96,324.713,114.44,325.415,113.118z"/>
		<path style="fill-rule:evenodd;clip-rule:evenodd;fill:none;" d="M328.127,109.985c-0.061,0.347,0.075,0.859-0.511,0.824
			c-0.549-0.033-0.447-0.524-0.449-0.878c-0.002-0.433-0.099-1.053,0.61-0.927C328.233,109.085,328.104,109.616,328.127,109.985z"/>
		<path style="fill-rule:evenodd;clip-rule:evenodd;fill:none;" d="M331.045,144.864c-0.04,0.357,0.099,0.885-0.402,0.929
			c-0.729,0.065-0.548-0.572-0.557-0.986c-0.008-0.356-0.078-0.86,0.5-0.823C331.129,144.018,330.999,144.511,331.045,144.864z"/>
		<path style="fill-rule:evenodd;clip-rule:evenodd;fill:none;" d="M344.653,78.83c-0.048,0.352,0.082,0.879-0.461,0.869
			c-0.718-0.014-0.464-0.648-0.498-1.052c-0.033-0.387,0.014-0.852,0.562-0.755C344.756,77.979,344.615,78.472,344.653,78.83z"/>
		<path style="fill-rule:evenodd;clip-rule:evenodd;fill:none;" d="M350.132,97.333c-0.241-0.164-0.52-0.252-0.56-0.402
			c-0.079-0.303,0.03-0.636,0.438-0.581c0.16,0.021,0.387,0.236,0.411,0.392C350.447,96.898,350.262,97.089,350.132,97.333z"/>
		<path style="fill-rule:evenodd;clip-rule:evenodd;fill:none;" d="M326.099,144.421c0.212-0.193,0.341-0.411,0.506-0.442
			c0.379-0.073,0.571,0.19,0.492,0.53c-0.034,0.146-0.31,0.326-0.474,0.324C326.471,144.83,326.321,144.607,326.099,144.421z"/>
		<path style="fill-rule:evenodd;clip-rule:evenodd;fill:none;" d="M349.015,147.727c0.194,0.212,0.412,0.341,0.443,0.506
			c0.073,0.38-0.19,0.571-0.53,0.492c-0.146-0.034-0.326-0.31-0.324-0.473C348.605,148.099,348.829,147.949,349.015,147.727z"/>
		<path style="fill-rule:evenodd;clip-rule:evenodd;fill:none;" d="M250.253,88.218c-0.288,3.103-1.275,5.085-3.312,7.199
			c-2.58,2.676-5.142,5.972-4.832,10.278c0.1,1.393-0.353,2.62-0.85,3.886c-0.521,1.322-0.58,3.175-2.57,1.094
			c-0.754-0.789-1.43-0.084-2.022,0.523c-0.22,0.225-0.458,0.675-0.965,0.283c-0.529-0.407,0.035-0.672,0.049-1.002
			c0.157-3.645,2.434-6.887,2.004-10.653c-0.083-0.728,0.672-1.057,1.117-1.486c0.559-0.537,1.077-1.153,0.772-1.89
			c-0.842-2.029,0.712-3.75,0.625-5.681c-0.021-0.462,0.39-1.205,0.795-1.384c3.811-1.692,3.688-5.792,5.295-8.779
			c0.826-1.533,2.035-2.923,2.272-4.812c3.068,2.163,3.092,2.179,1.234,4.979c-1.478,2.226-3.036,4.399-4.176,6.83
			c-0.134,0.286-0.272,0.57-0.386,0.865c-0.564,1.469-0.699,3.131,0.908,3.739c1.695,0.642,2.335-1.209,3.136-2.306
			C249.608,89.544,249.236,88.816,250.253,88.218z"/>
		<path style="fill-rule:evenodd;clip-rule:evenodd;fill:none;" d="M250.29,39.938c-0.752,1.933-2.55,2.943-2.83,4.838
			c-0.201,1.362-0.801,2.583-0.16,4.127c0.695,1.678-1.486,4.427-3.208,4.06c-2.648-0.564-3.648,2.449-5.963,2.336
			c-0.467-0.023-0.91,0.833-1.319,0.224c-0.359-0.533-0.897-1.188-0.345-1.96c0.317-0.443,0.586-0.922,0.896-1.371
			c2.454-3.542,4.427-7.304,5.228-11.586c0.546-2.911,1.765-3.49,3.938-1.616C247.645,39.954,248.829,39.911,250.29,39.938z"/>
		<path style="fill-rule:evenodd;clip-rule:evenodd;fill:none;" d="M256.634,62.161c0.011-0.026-0.062,0.491-0.215,0.515
			c-3.331,0.539-3.915,3.786-5.754,5.783c-1.124,1.221-3.033,1.367-3.945,2.904c-0.093,0.156-0.661,0.187-0.886,0.06
			c-0.196-0.111-0.386-0.624-0.289-0.794c0.497-0.877,0.847-2.312,1.749-2.387c2.705-0.221,2.965-2.604,3.952-4.193
			c0.689-1.111,1.47-2.204,2.12-3.36c0.324-0.577,1.237-1.15,2.05-0.749C256.108,60.283,256.8,60.831,256.634,62.161z"/>
		<path style="fill-rule:evenodd;clip-rule:evenodd;fill:none;" d="M271.03,19.46c3.742,0.103,6.542,1.956,8.993,4.605
			c0.606,0.655,0.125,1.146-0.081,1.379c-0.495,0.56-0.729-0.217-0.978-0.463c-1.518-1.504-3.033-2.943-5.277-3.347
			c-0.807-0.146-1.573-0.334-2.33,0.006c-0.839,0.377-1.71,0.574-2.425-0.044c-0.266-0.229-0.537-0.774-0.209-1.441
			C269.319,18.942,270.298,19.793,271.03,19.46z"/>
		<path style="fill-rule:evenodd;clip-rule:evenodd;fill:none;" d="M220.014,96.972c1.571-1.633,1.038-3.752,2.212-5.201
			c0.508-0.626,1.217-0.385,1.776-0.306c1.934,0.272,3.288-0.402,3.95-2.229c0.285-0.786,0.688-1.626,1.49-1.356
			c1.107,0.373-0.048,1.188,0.036,1.804c0.12,0.873-0.448,1.493-0.73,2.217c-0.405,1.039-0.905,1.351-1.949,0.563
			c-1.389-1.048-2.53-0.902-3.424,0.858c-0.556,1.093-1.557,1.946-1.821,3.245c-0.07,0.344-0.43,0.707-0.907,0.651
			C220.43,97.193,220.227,97.059,220.014,96.972z"/>
		<path style="fill-rule:evenodd;clip-rule:evenodd;fill:none;" d="M253.308,37.024c-0.434-1.348,0.443-2.318,1.104-3.242
			c1.277-1.788,2.715-3.462,4.113-5.162c0.244-0.296,0.707-0.745,0.91-0.673c0.424,0.15,0.731,0.587,0.655,1.163
			c-0.081,0.616,0.219,1.369-0.48,1.767c-2.633,1.5-4.234,4.065-6.356,6.091L253.308,37.024z"/>
		<path style="fill-rule:evenodd;clip-rule:evenodd;fill:none;" d="M202.839,104.21c-0.786-0.633-2.061-1.232-1.742-1.99
			c0.701-1.669,0.822-3.722,2.49-4.869c0.301-0.207,1.001-0.125,1.345,0.094c0.456,0.29,0.194,0.819,0.014,1.275
			C204.246,100.486,203.581,102.267,202.839,104.21z"/>
		<path style="fill-rule:evenodd;clip-rule:evenodd;fill:none;" d="M216.702,65.489c-1.051,1.589-0.775,3.999-3.497,4.967
			c1.06-1.991,1.29-4.044,3.099-5.307C216.437,65.263,216.569,65.375,216.702,65.489z"/>
		<path style="fill-rule:evenodd;clip-rule:evenodd;fill:none;" d="M218.729,108.874c-0.696-1.967-0.568-3.827,0.746-5.849
			C220.137,105.303,219.313,107.073,218.729,108.874z"/>
		<path style="fill-rule:evenodd;clip-rule:evenodd;fill:none;" d="M216.304,65.149c0.319-1.031,0.74-2.044,0.928-3.099
			c0.156-0.874,0.895-0.748,1.361-1.081c0.256,0.533,0.328,1.121,0.035,1.614c-0.594,0.997-1.278,1.939-1.926,2.905
			C216.569,65.375,216.437,65.263,216.304,65.149z"/>
		<path style="fill-rule:evenodd;clip-rule:evenodd;fill:none;" d="M256.736,72.695c0.807,1.4,0.256,2.3-0.405,3.129
			c-0.104,0.13-0.835,0.005-0.848-0.073C255.288,74.557,256.062,73.792,256.736,72.695z"/>
		<path style="fill-rule:evenodd;clip-rule:evenodd;fill:none;" d="M253.628,50.921c-0.467,1.133-0.812,2.377-2.319,2.572
			l0.056,0.055c-0.238-1.539,0.418-2.513,1.878-2.98C253.371,50.686,253.499,50.804,253.628,50.921z"/>
		<path style="fill-rule:evenodd;clip-rule:evenodd;fill:none;" d="M271.188,33.241c0.246,1.375-0.552,1.918-1.553,2.274
			c-0.265,0.094-0.781,0.033-0.729-0.324C269.088,33.951,270.142,33.656,271.188,33.241z"/>
		<path style="fill-rule:evenodd;clip-rule:evenodd;fill:none;" d="M234.012,114.051c0.102-0.771-0.798-1.835,0.521-2.179
			c0.351-0.091,1.088,0.021,1.104,0.125C235.816,113.165,234.7,113.425,234.012,114.051z"/>
		<path style="fill-rule:evenodd;clip-rule:evenodd;fill:none;" d="M268.83,24.969c0.369,1.1-0.206,1.629-2.679,0.983
			C267.454,25.475,268.26,25.179,268.83,24.969z"/>
		<path style="fill-rule:evenodd;clip-rule:evenodd;fill:none;" d="M219.497,101.364c-0.288-1.224-0.449-2.174,0.309-3.064
			C220.177,99.265,220.674,100.238,219.497,101.364z"/>
		<path style="fill-rule:evenodd;clip-rule:evenodd;fill:none;" d="M253.242,50.569c-0.086-1.157,1.38-0.957,1.427-1.997
			c0.58,1.777,0.58,1.777-1.041,2.35C253.499,50.804,253.371,50.686,253.242,50.569z"/>
		<path style="fill-rule:evenodd;clip-rule:evenodd;fill:none;" d="M238.15,124.259c-0.483,0.147-0.85-0.415-0.771-0.536
			c0.35-0.527,0.438-1.308,1.317-1.418c0.505-0.063,0.424,0.19,0.483,0.47C239.365,123.634,238.908,124.042,238.15,124.259z"/>
		<path style="fill-rule:evenodd;clip-rule:evenodd;fill:none;" d="M221.767,52.474c0.876-0.823,1.36-1.408,1.972-1.788
			c0.246-0.153,0.438,0.398,0.357,0.673C223.82,52.288,223.101,52.435,221.767,52.474z"/>
		<path style="fill-rule:evenodd;clip-rule:evenodd;fill:none;" d="M250.323,54.457c-0.06,0.652,0.332,1.382-0.803,2.389
			c0.111-1.185-1.006-2.068,0.857-2.334C250.378,54.512,250.323,54.457,250.323,54.457z"/>
		<path style="fill-rule:evenodd;clip-rule:evenodd;fill:none;" d="M228.008,95.411c-0.057,0.352,0.064,0.859-0.519,0.818
			c-0.547-0.038-0.437-0.53-0.443-0.884c-0.008-0.36-0.106-0.88,0.395-0.926C228.199,94.349,227.931,95.008,228.008,95.411z"/>
		<path style="fill-rule:evenodd;clip-rule:evenodd;fill:none;" d="M251.309,53.494c0.144,0.804-0.185,1.125-0.985,0.963
			c0,0,0.055,0.055,0.055,0.054c-0.126-0.787,0.202-1.108,0.986-0.962L251.309,53.494z"/>
		<path style="fill-rule:evenodd;clip-rule:evenodd;fill:none;" d="M202.234,123.426c0.194,0.211,0.412,0.341,0.443,0.505
			c0.073,0.38-0.19,0.572-0.529,0.492c-0.146-0.034-0.327-0.31-0.325-0.473C201.825,123.798,202.049,123.648,202.234,123.426z"/>
		<path style="fill-rule:evenodd;clip-rule:evenodd;fill:none;" d="M252.268,37.932c0.004,0.366,0.185,0.828-0.344,0.96
			c-0.355,0.088-0.617-0.141-0.543-0.519c0.107-0.548,0.581-0.364,0.941-0.387C252.322,37.987,252.268,37.932,252.268,37.932z"/>
		<path style="fill-rule:evenodd;clip-rule:evenodd;fill:none;" d="M230.951,150.754c0.01-0.363-0.173-0.831,0.365-0.95
			c0.367-0.082,0.612,0.164,0.53,0.53c-0.12,0.538-0.588,0.355-0.95,0.364L230.951,150.754z"/>
		<path style="fill-rule:evenodd;clip-rule:evenodd;fill:none;" d="M230.896,150.698c-0.013,0.363,0.17,0.833-0.367,0.954
			c-0.367,0.082-0.613-0.164-0.531-0.531c0.121-0.537,0.59-0.354,0.953-0.367L230.896,150.698z"/>
		<path style="fill-rule:evenodd;clip-rule:evenodd;fill:none;" d="M253.253,36.969c0.144,0.804-0.185,1.125-0.985,0.963
			c0,0,0.055,0.055,0.055,0.054c-0.126-0.787,0.201-1.108,0.985-0.962L253.253,36.969z"/>
		<path style="fill-rule:evenodd;clip-rule:evenodd;fill:none;" d="M233.924,115.236c-0.212,0.194-0.341,0.412-0.506,0.443
			c-0.38,0.073-0.571-0.191-0.492-0.531c0.034-0.146,0.31-0.326,0.473-0.324C233.552,114.827,233.701,115.05,233.924,115.236z"/>
	</g>
</g>
</svg>
