<?xml version="1.0" encoding="iso-8859-1"?>
<!-- Generator: Adobe Illustrator 16.0.0, SVG Export Plug-In . SVG Version: 6.00 Build 0)  -->
<!DOCTYPE svg PUBLIC "-//W3C//DTD SVG 1.1//EN" "http://www.w3.org/Graphics/SVG/1.1/DTD/svg11.dtd">
<svg version="1.1" id="Layer_1" xmlns="http://www.w3.org/2000/svg" xmlns:xlink="http://www.w3.org/1999/xlink" x="0px" y="0px"
	 width="401.089px" height="196.549px" viewBox="0 0 401.089 196.549" style="enable-background:new 0 0 401.089 196.549;"
	 xml:space="preserve">
<g>
	<g>
		<path style="fill:none;" d="M200.544,196.004c-65.95,0-131.899-0.008-197.849,0.045c-1.792,0.002-2.197-0.403-2.195-2.195
			c0.054-63.72,0.054-127.439,0-191.159C0.499,0.903,0.904,0.499,2.695,0.5c131.899,0.048,263.799,0.048,395.698,0
			c1.792-0.001,2.197,0.403,2.195,2.195c-0.054,63.719-0.054,127.439,0,191.159c0.002,1.792-0.403,2.197-2.195,2.195
			C332.444,195.996,266.494,196.004,200.544,196.004z M288.745,22.559c-0.39-0.03-0.826,0.043-1.16-0.109
			c-1.242-0.567-1.565,0.457-1.68,1.152c-0.26,1.572,0.782,2.668,1.963,3.421c0.504,0.321,1.523-0.255,1.647-0.833
			c0.276-1.282,0.64-2.732-0.824-3.686c0.317,0.007,0.636,0,0.951,0.023c1.42,0.107,0.931-0.959,0.966-1.634
			c0.055-1.083-0.832-0.812-1.347-0.71c-0.742,0.146-1.353,0.542-0.727,1.486C288.692,21.909,288.68,22.26,288.745,22.559z
			 M316.519,100.099c0.252-1.784-0.237-3.467-1.468-4.328c-1.045-0.731-1.926-1.572-2.58-2.522
			c-0.693-1.006-1.288-1.172-2.273-0.689c-1.861,0.914-3.772,1.005-5.6,0.014c-0.796-0.432-1.295-0.063-1.96,0.167
			c-3.646,1.264-7.307,2.509-11.242,2.422c-2.829-0.062-5.605-0.022-8.062,1.732c-0.886,0.632-1.656-0.185-2.302-0.638
			c-0.742-0.521,0.056-1.084,0.294-1.529c0.688-1.28,1.524-2.479,2.237-3.747c0.746-1.329,1.359-2.981-0.367-3.746
			c-1.302-0.576-3.073-0.74-3.921,1.332c-0.834,2.037-2.713,3.188-4.419,4.42c-0.632,0.456-0.943,0.349-1.523-0.529
			c-1.626-2.46-2.356-5.874-6.098-6.424c-0.899-0.132-1.789-0.899-2.581,0.026c-0.739,0.865-1.071,1.965-0.708,3.082
			c0.611,1.883,0.758,3.943,2.074,5.573c0.394,0.487,0.241,0.965-0.083,1.51c-2.476,4.155-4.924,8.326-7.349,12.51
			c-1.885,3.254-2.9,6.771-2.823,10.542c0.027,1.371,0.711,2.844,2.021,3.031c2.182,0.313,4.479,0.288,6.652-0.063
			c0.913-0.147,2.026-0.621,2.922-1.491c3.333-3.238,6.193-7.063,10.666-8.984c0.812-0.349,1.4-0.313,2.208-0.078
			c1.912,0.558,3.618,1.655,5.748,1.697c2.319,0.045,4.731,0.193,6.464,2.261c0.388,0.463,1.252,0.47,1.956,0.593
			c2.059,0.36,3.645-0.86,5.295-1.562c2.206-0.937,4.742-1.15,6.536-3.201c1.064-1.217,2.534-2.145,4.104-2.973
			C313.634,106.767,315.582,103.679,316.519,100.099z M371.638,60.281c2.859,0.003,4.789-1.666,5.478-4.303
			c0.719-2.755,2.374-5.488,0.048-8.282c-0.197-0.237-0.04-0.774-0.034-1.172c0.02-1.323-0.255-2.461-1.64-3.058
			c-0.346-0.149-0.694-0.311-0.415-1.021c1.19-3.025,1.065-6.172,0.452-9.308c-0.486-2.491-0.734-4.94,0.641-7.268
			c1.75-2.961,2.456-6.413,4.347-9.31c0.127-0.196,0.334-0.376,0.374-0.588c0.199-1.059,0.12-2.027-0.867-2.748
			c-0.968-0.707-1.814,0.001-2.32,0.463c-1.086,0.992-2.299,1.893-3.008,3.292c-1.65,3.259-4.554,5.02-7.729,6.603
			c-1.652,0.824-2.419-0.353-2.615-1.044c-0.562-1.974-0.809-4.076-0.875-6.137c-0.039-1.212-0.319-2.068-1.439-2.366
			c-1.374-0.366-2.892-0.152-3.476,1.229c-2.409,5.698-4.425,11.489-4.434,17.834c-0.003,2.53-0.772,5.053-1.104,7.59
			c-0.498,3.825-3.378,6.317-5.134,9.439c-1.005,1.787-2.504,2.989-4.223,3.917c-1.997,1.078-3.677,2.576-5.537,3.825
			c-1.204,0.809-1.571,1.729-0.866,2.88c0.729,1.191,1.893,1.236,3.121,0.69c2.459-1.095,4.872-2.488,6.953-4.002
			c2.109-1.535,3.233-1.43,5.129-0.142c3.792,2.579,5.727,1.971,6.973-2.006c0.274-0.875,0.828-1.924,1.651-1.548
			c1.593,0.726,3.915,1.645,4.274,2.944C366.451,60.613,369.622,59.584,371.638,60.281z M371.801,171.422
			c-1.069-0.622-1.579-1.251-1.926-2.367c-0.775-2.495-2.671-4.53-4.708-5.883c-2.077-1.379-4.201-3.273-7.086-3.035
			c-0.367,0.03-0.478-0.251-0.555-0.603c-0.391-1.776-1.456-1.457-2.657-0.856c-0.518,0.258-1.03,0.361-1.699,0.093
			c-2.85-1.146-5.693-0.352-8.425,0.452c-3.676,1.082-7.524,0.951-11.207,1.886c-1.601,0.407-3.244,0.691-4.895,0.465
			c-1.202-0.164-3.397-0.497-3.406-0.804c-0.073-2.665-2.346-4.657-2.105-7.331c0.134-1.497-0.578-1.905-1.977-1.912
			c-1.549-0.008-2.006,1.092-2.292,2.144c-0.899,3.306-2.669,5.758-5.831,7.298c-2.622,1.276-3.536,4.263-5.561,6.21
			c-1.089,1.047-2.105,2.358-2.412,4.1c-0.319,1.812,0.614,2.84,1.739,3.825c1.07,0.936,1.938-0.035,2.665-0.609
			c1.234-0.975,2.721-1.063,4.123-1.379c0.694-0.157,1.237-0.417,1.546-0.938c0.879-1.484,2.433-2.071,3.76-2.928
			c2.698-1.742,4.117,0.881,5.854,2.005c1.172,0.759,0.067,1.989-0.017,3.029c-0.158,1.979-1.135,3.775-1.081,5.709
			c0.049,1.747,1.111,3.206,2.83,3.495c1.518,0.255,1.867-1.168,2.516-2.41c1.008-1.932,0.823-4.057,1.646-6.011
			c0.659-1.566,1.42-2.29,2.907-1.945c1.462,0.34,2.316,0.972,1.754,3.016c-0.79,2.87,0.876,4.237,3.339,3.747
			c2.609-0.52,1.959-3.095,3.278-4.363c1.135-1.09-0.977-0.896-0.739-1.737c0.072-0.255-0.422-0.545,0.271-0.734
			c3.596-0.979,6.695-3.602,10.819-2.903c2.307,0.391,4.127,1.319,3.764,2.815c-0.402,1.656,0.062,3.2,0.128,4.772
			c0.127,3.07,3.165,4.609,5.714,3.438c2.654-1.221,2.279-3.066,2.418-5.108c0.776,0.341,1.222,1.017,2.048,0.841
			c0.833-0.177,1.127,0.743,1.802,1.003c0.845,0.325,1.647,0.784,2.375,0.047c0.708-0.719,0.419-1.474-0.093-2.33
			C369.192,173.557,369.603,172.418,371.801,171.422z M36.719,54.484c-0.051-1.864,0.875-3.889-0.483-5.575
			c-3.253-4.039-3.16-5.034,1.048-7.916c0.19-0.13,0.404-0.235,0.619-0.319c0.958-0.375,1.008-1.187,0.821-1.973
			c-0.204-0.856-0.977-0.809-1.712-0.906c-2.114-0.281-3.634,0.635-4.942,2.155c-0.206,0.239-0.366,0.786-0.86,0.522
			c-0.366-0.197-0.432-0.452-0.199-0.938c0.61-1.271,1.193-2.428-0.906-3.238c-2.17-0.837-2.741,0.375-3.412,1.851
			c-1.515,3.331-3.645,6.002-6.957,7.87c-2.344,1.32-4.436,3.203-6.354,5.12c-1.192,1.192-2.374,2.776-1.672,4.758
			c0.47,1.328,1.486,2.368,2.884,2.418c2.259,0.08,4.474,0.105,6.621,0.981c0.76,0.31,1.593,0.806,2.489,0.497
			c2.959-1.023,5.938,0.389,7.724,1.821c4.944,3.965,10.235,2.963,15.657,2.624c3.986-0.25,7.044-2.984,10.824-3.778
			c1.41-0.296,3.844-4.33,3.805-5.758c-0.013-0.474-0.069-0.872-0.413-1.297c-1.345-1.661-3.032-2.722-5.132-2.128
			c-1.582,0.448-3.117,0.373-4.677,0.39c-1.823,0.02-3.476,0.557-5.15,1.224c-2.116,0.843-4.17,2.834-6.638,0.696
			c-0.457-0.397-0.943-0.368-1.371,0.193C37.95,54.282,37.476,54.75,36.719,54.484z M117.647,140.057
			c-0.04-2.398-2.195-2.027-3.8-2.326c-0.775-0.145-1.42,0.082-1.529-1.162c-0.184-2.116-1.215-2.502-3.293-1.486
			c-0.763,0.373-1.806,0.525-2.247,0.038c-1.48-1.634-2.56,0.025-2.631,0.672c-0.217,1.983-1.577,3.471-1.902,5.377
			c-0.153,0.897-0.173,1.822,0.483,2.157c0.672,0.341,1.637,0.29,2.385-0.462c0.985-0.99,2.094-1.863,3.188-2.739
			c0.71-0.569,1.423-1.243,1.709,0.447c0.474,2.798,3.257,1.209,4.744,2.293c0.95,0.692,1.798-0.509,2.528-1.229
			C117.688,141.235,117.6,140.777,117.647,140.057z M134.251,133.291c-0.037,1.493,1.718,1.875,2.118,3.204
			c0.121,0.4,0.802,0.329,1.256,0.058c1.163-0.696,1.036-1.817,1.046-2.936c0.011-1.133,0.136-2.637-1.099-2.822
			c-1.794-0.271-2.283-1.453-3.081-2.689c-1.237-1.916-1.94-1.681-3.047,0.302c-1.149,2.059-1.597,4.175-2.083,6.462
			c-0.513,2.412,0.758,4.454,0.235,6.681c-0.247,1.056-0.005,2.092,1.057,2.655c0.654,0.348,1.342,0.327,1.972-0.222
			c1.004-0.876,0.728-1.851,0.548-2.996C132.758,138.334,129.981,135.336,134.251,133.291z M100.04,132.64
			c0.015,1.203,0.254,2.34,1.606,2.756c1.367,0.42,1.886-0.814,2.016-1.567c0.14-0.812,0.739-0.911,1.082-1.334
			c1.319-1.622,1.134-2.789-0.658-3.969c-0.982-0.646-2.323-1.357-2.192-2.853c0.112-1.273-0.484-2.036-1.275-2.87
			c-1.709-1.801-3.864-3.181-5.078-5.464c-0.266-0.501-1.012-0.797-1.387-1.203c-1.541-1.664-2.491-0.363-3.088,0.69
			c-0.708,1.25,0.115,2.125,1.367,2.735c1.72,0.838,3.845,1.327,4.005,3.866c0.031,0.491,0.378,0.867,1.094,0.952
			c1.049,0.124,1.763,1.246,1.74,1.99C99.206,128.515,100.312,130.497,100.04,132.64z M303.429,32.58
			c-1.434-0.077-2.912,1.862-2.146,2.519c1.794,1.535,2.263,4.306,4.239,5.251c2.444,1.169,4.098,2.562,4.733,5.191
			c0.199,0.821,1.088,1.247,1.763,1.102c0.58-0.125,0.95-0.835,1.121-1.638c0.366-1.711-0.426-2.916-1.65-3.637
			c-1.282-0.756-0.752-1.269,0.019-1.567c1.704-0.66,1.287-2.346,1.785-3.524c0.328-0.778-0.544-1.804-1.41-2.152
			c-0.949-0.381-0.895,0.921-1.387,1.16c-0.584,0.284,0.405,1.827-1.038,1.164c-1.143-0.525-2.93,0.903-3.566-1.273
			C305.504,33.851,304.465,33.019,303.429,32.58z M368.525,97.918c-0.007,2.185,1.295,3.638,3.578,3.915
			c0.866,0.105,1.591,0.173,1.673,1.234c0.235,3.007,1.706,4.999,4.571,6.138c0.793,0.314,1.158,0.734,1.831-0.081
			c0.539-0.654,0.699-0.947,0.269-1.934c-1.208-2.765-3.723-4.692-4.577-7.684c-0.248-0.868-1.475-1.815-2.625-1.107
			c-1.447,0.892-2.032,0.616-2.423-0.985c-0.146-0.6-0.738-1.415-1.548-1.197C368.476,96.433,368.451,97.276,368.525,97.918z
			 M226.615,121.901c-0.018-1.52-0.921-2.273-2.25-2.86c-2.962-1.31-6.442-1.318-8.999-3.686c-0.583-0.54-1.592-0.67-2.118,0.27
			c-0.394,0.703-1.103,1.79,0.023,2.22c1.812,0.691,2.964,2.503,4.644,2.968c2.087,0.576,4.111,0.905,5.914,2.315
			C225.12,124.137,226.586,123.332,226.615,121.901z M69.417,108.531c1.854,1.387,4.301,1.062,5.758,3.077
			c0.667,0.922,1.521-0.407,1.674-0.915c0.275-0.911,0.295-1.882-0.301-2.916c-1.37-2.376-3.651-0.291-5.339-1.327
			c-1.216-0.747-1.561,1.168-2.618,1.479c-0.815-0.311-1.334-2.14-2.581-0.96c-1.01,0.956-2.347,2.038-1.759,3.763
			c0.284,0.834,0.641,1.873,1.939,1.638C68.227,112.001,69.493,110.926,69.417,108.531z M270.557,23.001
			c-0.006,1.552,1.072,3.095,2.353,3.328c1.04,0.189,1.438-0.557,1.627-1.329c0.621-2.551,1.746-1.93,2.997-0.518
			c0.684,0.771,1.595,1.45,2.394,0.659c0.715-0.707,1.027-1.75,0.177-2.945c-1.11-1.56-2.765-1.696-4.278-2.34
			C273.435,18.838,270.565,20.46,270.557,23.001z M210.34,33.86c0.036-2.011-1.085-2.909-2.87-2.214
			c-1.58,0.614-3.06,1.387-4.837,1.474c-0.922,0.045-1.605,0.78-1.386,1.986c0.303,1.649,2.536,3.195,4.074,2.592
			c1.359-0.532,2.665-1.228,3.927-1.967C209.915,35.339,210.539,34.756,210.34,33.86z M184.062,135.595
			c0.096,0.725-0.159,1.562,0.384,2.395c0.474,0.726,1.012,1.196,1.804,0.999c1.159-0.29,2.756-4.846,1.818-5.501
			c-1.932-1.352-1.424-2.688-0.56-4.23c0.114-0.204,0.326-0.396,0.341-0.604c0.071-1.025,0.069-2.139-1.205-2.389
			c-1.317-0.259-2.373,0.255-2.56,1.722c-0.116,0.91-0.224,1.89,0.706,2.588c0.991,0.744,0.972,1.582-0.012,2.319
			C183.847,133.591,184.076,134.562,184.062,135.595z M62.153,149.594c0.07,2.094,1.5,3.12,2.679,3.18
			c1.039,0.053,2.505-1.007,2.594-2.589c0.066-1.183,0.108-2.24,0.866-3.319c0.471-0.671,0.292-1.843-0.652-2.532
			c-0.875-0.638-2.019-0.774-2.58-0.069C63.735,145.93,62.625,147.79,62.153,149.594z M200.292,65.033
			c-0.031,1.87,1.346,3.037,2.401,4.249c0.413,0.474,1.481,1.512,2.359,0.724c0.738-0.663,1.439-1.61,0.632-2.863
			c-0.292-0.454-0.283-1.297-0.081-1.84c0.755-2.037-0.253-3.12-1.999-3.529C201.83,61.357,200.318,62.983,200.292,65.033z
			 M162.786,159.574c-0.454-1.692-0.799-3.428-1.425-5.055c-0.208-0.541-0.736-1.463-1.687-1.229
			c-0.57,0.141-1.407,0.361-1.354,1.081c0.111,1.517-0.572,2.914-0.523,4.381c0.067,1.999,1.614,3.867,3.068,3.782
			C162.811,162.423,162.51,160.908,162.786,159.574z M154.906,138.283c-0.825-0.728-0.231-2.473-1.779-2.959
			c-1.464-0.46-2.145,0.873-2.33,1.689c-0.277,1.221-0.912,1.661-1.82,2.317c-0.73,0.527-1.693,1.586-1.165,2.815
			c0.394,0.917,1.172,1.444,2.292,1.298C151.307,143.286,154.842,139.68,154.906,138.283z M98.033,97.487
			c0.08-1.885-1.254-2.833-2.924-1.998c-1.573,0.788-3.055,1.76-4.567,2.667c-0.744,0.447-0.898,1.322-0.547,1.869
			c0.653,1.015,1.342,2.172,2.771,2.302c0.829,0.075,1.311-0.302,1.46-1.171c0.18-1.046,0.882-1.47,1.911-1.758
			C97.015,99.153,98.234,98.881,98.033,97.487z M366.611,133.088c-0.297,1.576,0.909,2.657,1.865,3.865
			c0.562,0.712,1.301,0.937,2.099,0.7c0.929-0.275,1.537-0.957,1.762-1.935c0.412-1.794-0.603-3.062-1.693-4.213
			c-0.729-0.769-1.335-2.029-2.767-1.542C366.43,130.457,366.631,131.734,366.611,133.088z M158.164,126.236
			c-2.738-0.475-2.896,2.218-4.195,3.557c-0.798,0.822-0.72,1.817-0.241,2.589c0.674,1.085,1.016-0.469,1.631-0.405
			c0.234,0.023,0.489-0.061,0.708,0.001c1.824,0.507,2.852-0.174,3.983-1.744c0.804-1.116,0.632-2.085,0.484-2.977
			C160.371,126.267,159.187,126.2,158.164,126.236z M296.841,71.313c-0.018,0-0.035,0-0.053,0c0,0.711,0.04,1.424-0.008,2.131
			c-0.12,1.753,0.364,2.19,1.969,1.633c3.817-1.327,4.017-3.643,1.889-6.467c-0.741-0.982-1.699-1.444-2.876-1.117
			c-1.28,0.355-0.859,1.5-0.916,2.392C296.816,70.36,296.841,70.837,296.841,71.313z M137.221,26.318
			c-0.008-0.464-2.801-5.476-3.205-5.66c-1.064-0.483-2.218-1.106-3.208-0.013c-0.889,0.982-0.509,2.072,0.182,3.04
			c0.807,1.128,1.495,2.41,2.521,3.29c0.733,0.629,1.876,1.104,2.998,0.696C137.084,27.46,137.297,26.935,137.221,26.318z
			 M52.16,143.158c0.181-1.503-0.812-1.636-2.071-1.652c-3.493-0.047-4.502,0.453-4.621,2.455c-0.118,2.006,1.141,3.174,3.557,3.297
			C50.534,147.335,52.098,145.344,52.16,143.158z M370.439,71.275c0.693,0.821-1.279,3.156,1.565,3.315
			c0.901,0.05,2.09,0.521,2.506-0.943c0.564-1.979,1.649-3.979-0.487-5.734c-0.589-0.484-1.058-1.317-1.975-0.806
			c-0.691,0.385-1.711,0.523-1.619,1.714C370.484,69.525,370.439,70.238,370.439,71.275z M350.433,75.242
			c-0.235,2.127,1.104,2.818,2.046,3.076c1.025,0.282,1.688-0.783,1.736-1.991c0.023-0.594,0.13-1.338,0.498-1.738
			c1.848-2.006,0.271-3.171-0.959-4.469c-1.091-1.151-2.212-0.363-2.277,0.514C351.34,72.44,350.929,74.126,350.433,75.242z
			 M292.104,66.984c0.939,0.138,2.302,0.085,2.683-1.249c0.305-1.067-0.383-2.14-1.061-3.138c-1.126-1.657-2.411-0.227-3.594-0.399
			c-1.19-0.174-2.106,0.379-2.31,1.491c-0.221,1.203,0.296,2.206,1.489,2.871C290.141,67.024,290.958,66.938,292.104,66.984z
			 M201.762,115.714c-0.155-1.388-0.577-2.729-0.558-4.167c0.015-1.055-1.038-1.55-1.928-1.786c-0.642-0.17-1.339,0.254-1.697,0.849
			c-1.45,2.41-0.871,4.668,1.454,6.508c0.658,0.521,1.307,0.657,1.958,0.427C201.788,117.261,201.808,116.463,201.762,115.714z
			 M278.188,61.188c0.194-1.55-0.712-2.3-1.943-1.764c-1.236,0.539-1.822,0.155-2.652-0.58c-0.788-0.696-1.778-1.001-2.562,0.103
			c-0.854,1.201-0.454,2.103,0.708,2.858c0.573,0.372,1.343,0.463,1.675,1.208c0.822,1.843,2.283,0.69,3.369,0.524
			C277.862,63.372,278.401,62.367,278.188,61.188z M379.814,110.874c-1.323,0.433-2.041,1.253-1.651,2.645
			c0.647,2.311,2.459,3.7,4.259,5.063c0.759,0.575,1.423,0.112,1.982-0.378c0.573-0.502,0.486-1.078,0.011-1.658
			c-0.782-0.952-1.225-2.114-1.843-3.146C381.974,112.399,381.06,111.399,379.814,110.874z M368.046,121.269
			c0.27-1.316-0.664-1.938-1.796-2c-1.789-0.098-4.47,2.281-4.413,3.693c0.03,0.783,2.188,3.118,2.817,3.052
			C365.92,125.877,368.068,122.951,368.046,121.269z M252.403,38.468c-0.014-1.145-0.517-2.259-1.277-2.878
			c-0.836-0.679-1.724,0.123-2.413,0.857c-0.233,0.25-0.683,0.309-1.043,0.426c-1.063,0.345-1.368,1.266-1.363,2.171
			c0.006,1.222,1.954,3.422,2.728,3.311C250.172,42.193,252.414,39.602,252.403,38.468z M175.017,57.429
			c-2.808-0.044-4.131,1.482-3.169,2.739c0.781,1.021,1.6,2.216,2.982,2.595c1.301,0.356,2.52,0.118,3.519-0.848
			c0.67-0.649,0.749-1.541,0.14-2.116C177.262,58.639,175.951,57.499,175.017,57.429z M293.898,24.38
			c-0.189,0.229-0.36,0.341-0.363,0.456c-0.081,3.276,2.313,5.397,3.829,7.9c0.403,0.667,1.689,0.594,2.368-0.021
			c0.791-0.716,0.803-1.977,0.093-2.532c-1.001-0.781-1.317-1.758-1.817-2.778c-0.248-0.504-0.462-1.51-1.272-1.485
			C295.458,25.958,294.665,25.21,293.898,24.38z M128.603,161.072c-0.207,0.931,0.194,1.93,1.241,2.315
			c1.55,0.571,1.657-1.353,2.676-1.839c0.815-0.391,1.43-1.074,0.941-2.188c-0.458-1.043-1.011-2.084-1.007-3.26
			c0.002-0.674-0.534-0.635-0.885-0.885c-0.514-0.365-0.788,0.054-0.883,0.331C130.067,157.343,128.527,158.781,128.603,161.072z
			 M216.481,110.885c0.187,1.653,0.701,2.688,2.25,2.312c2.168-0.526,3.461-5.553,1.814-7.044c-0.919-0.833-2.467-0.913-2.782,0.199
			C217.314,107.934,217.313,109.662,216.481,110.885z M157.764,136.739c0.148,1.271,0.137,2.84,1.63,3.168
			c1.16,0.256,2.196-0.449,2.292-1.952c0.027-0.417,0.467-0.792,0.634-1.218c0.61-1.559-0.336-3.759-1.99-4.193
			c-2.078-0.546-1.845,1.141-2.153,2.397C158.03,135.533,157.711,136.084,157.764,136.739z M228.496,141.163
			c-0.002,0.804,0.4,1.762,1.481,2.023c2.125,0.515,2.974-2.065,4.957-2.238c0.483-0.042,0.302-1.405,0.108-2.172
			c-0.016-0.066-0.095-0.123-0.153-0.173c-0.959-0.821-2.987-1.51-3.189-1.175C230.848,138.839,228.378,138.709,228.496,141.163z
			 M259.575,167.747c0.684,0.87,0.011,1.462-0.639,1.799c-0.722,0.374-1.927,0.222-1.712,1.464c0.166,0.964,0.615,1.837,1.751,2.255
			c1.255,0.461,1.796-0.44,2.577-0.981c1.303-0.902,1.434-2.432,1.66-3.704c0.257-1.449-1.393-2.126-2.387-2.565
			C259.795,165.558,259.513,166.741,259.575,167.747z M41.817,168.801c-1.676-0.267-2.669,0.075-2.615,2.159
			c0.056,2.172,1.314,2.827,3.059,3.037c1.28,0.153,3.443-1.894,3.151-3.102C44.983,169.122,43.612,168.477,41.817,168.801z
			 M279.552,62.202c0.3,1.55,0.587,3.288,2.575,3.261c1.368-0.019,2.946-0.725,2.707-2.528c-0.198-1.494-0.295-3.456-2.488-3.577
			C280.508,59.256,279.797,60.518,279.552,62.202z M229.123,128.621c-1.67,0.02-3.062,0.92-2.985,1.931
			c0.085,1.102,2.984,4.04,3.886,3.727c1.231-0.429,2.454-1.022,2.329-2.795C232.224,129.654,231.146,128.597,229.123,128.621z
			 M56.458,155.005c0.015,2.02,1.074,3.452,2.47,3.537c0.921,0.057,2.787-2.228,2.788-3.414c0.001-1.521-0.92-2.82-2.004-2.743
			C57.942,152.51,56.093,152.595,56.458,155.005z M290.63,174.521c-0.894,0.271-2.409,0.379-2.404,2.418
			c0.006,1.896,1.088,3.547,2.64,3.548c1.553,0.001,2.634-1.65,2.646-3.546C293.521,175.291,292.855,174.417,290.63,174.521z
			 M211.727,180.135c-1.534,0.978-3.577,1.198-4.416,3.291c-0.309,0.769-0.477,1.325,0.216,1.842
			c0.613,0.457,1.407,0.773,2.005,0.175c0.821-0.823,1.867-1.145,2.871-1.318c1.075-0.186,1.931-0.352,1.738-1.629
			C213.949,181.22,213.036,180.536,211.727,180.135z M338.437,111.736c0.089-0.727-0.097-1.464-1.254-1.889
			c-1.36-0.5-0.971,0.835-1.473,1.21c-0.403,0.302-0.609,0.854-0.949,1.258c-1.49,1.769-1.116,4.101,0.844,5.128
			c0.758,0.396,1.771,0.149,1.687-0.529C337.062,115.085,338.582,113.765,338.437,111.736z M245.705,47.188
			c0.091-1.646-0.908-2.094-2.101-1.585c-1.239,0.528-2.479,1.098-3.692,1.686c-1.35,0.653-1.44,1.689-0.303,2.877
			c1.234,1.289,2.412,1.587,3.45,0.01c0.469-0.712,1.021-1.087,1.717-1.356C245.589,48.505,245.771,47.906,245.705,47.188z
			 M332.214,124.506c-0.446,1.12,0.412,2.19,1.013,3.237c0.416,0.724,1.346,1.031,2.258,0.851c0.75-0.148,1.051-1.117,0.938-1.4
			c-0.584-1.47,0-3.12-0.816-4.526c-0.396-0.682-0.309-1.797-1.533-1.683c-1.226,0.115-1.394,1.254-1.833,2.077
			C332.076,123.371,332.214,123.842,332.214,124.506z M147.262,177.608c0.008-1.426-0.678-2.402-2.077-2.593
			c-1.458-0.199-3.639,2.396-3.678,4.068c-0.034,1.482,0.809,1.672,1.989,1.637C145.444,180.664,147.247,179.207,147.262,177.608z
			 M269.563,12.4c-2.287,0.182-3.928,0.266-3.779,2.552c0.101,1.553,0.688,2.829,2.339,3.252c0.549,0.141,3.509-2.842,3.34-3.451
			C271.119,13.507,270.61,12.258,269.563,12.4z M366.482,81.304c0.995-0.133,2.321-0.313,2.566-2.339
			c0.264-2.18-0.998-2.008-2.396-1.981c-0.43,0.008-0.89-0.207-1.291-0.409c-1.66-0.835-2.277,0.297-2.517,1.518
			C362.557,79.557,364.406,81.324,366.482,81.304z M197.434,54.542c0.025,1.913,1.356,3.322,2.839,3.348
			c0.928,0.016,2.292-2.371,2.141-3.835c-0.176-1.697-1.269-2.403-2.856-2.362C197.396,51.749,197.527,53.411,197.434,54.542z
			 M128.143,64.484c0-2.858-0.518-3.748-2.272-3.699c-1.994,0.056-1.976,1.643-2.018,3.052c-0.052,1.764,1.523,3.72,2.919,3.596
			C129.06,67.229,127.756,65.377,128.143,64.484z M127.222,21.634c0.816,0.069,0.908-1.416,0.541-1.947
			c-0.866-1.255-0.595-2.038,0.214-3.113c0.459-0.611,0.385-1.622-0.512-2.017c-0.685-0.301-1.478-0.469-1.87,0.637
			c-0.223,0.628-0.665,1.259-1.177,1.685c-0.751,0.622-1.87,1.151-1.258,2.249C123.844,20.359,124.806,21.532,127.222,21.634z
			 M240.06,149.17c1.843-0.032,2.752-0.719,2.778-2.099c0.028-1.482-2.033-3.169-4.011-3.126c-1.195,0.026-2.093,0.797-2.132,1.986
			C236.641,147.536,238.508,149.197,240.06,149.17z M133.84,172.751c0.468-2.051-0.367-3.774-2.298-3.822
			c-1.719-0.042-2.123,2.037-2.238,3.51c-0.136,1.739,1.896,3.282,3.946,2.914C134.876,175.061,133.656,173.618,133.84,172.751z
			 M257.602,28.495c-0.954,0.14-1.405,0.97-1.666,1.757c-0.575,1.737,0.285,3.241,1.342,4.453c0.489,0.56,1.658,0.539,2.391-0.125
			c1.454-1.318,0.259-2.917,0.281-4.36C259.967,29.142,258.786,28.688,257.602,28.495z M205.106,117.198
			c0,0.457-0.096,0.955,0.02,1.399c0.253,0.983,1.213,1.123,1.986,1.384c0.616,0.208,1.302-0.326,1.234-0.784
			c-0.179-1.22,0.707-1.576,1.374-2.141c0.545-0.461,0.655-0.831,0.274-1.58c-0.612-1.202-1.392-1.984-2.725-1.636
			C205.635,114.269,204.849,115.437,205.106,117.198z M281.071,171.852c-0.023-1.668-1.117-2.186-2.576-1.791
			c-1.361,0.367-2.051,1.999-3.512,1.854c-0.941-0.094-1.082,0.357-1.045,0.951c0.035,0.565,0.179,1.287,1.122,0.792
			c0.55-0.289,1.077-0.131,1.47,0.366c0.644,0.815,1.51,1.38,2.441,0.79C280.094,174.104,280.688,172.888,281.071,171.852z
			 M250.959,63.795c-0.1,1.453,0.896,2.119,1.825,2.625c0.951,0.517,1.502-0.279,1.97-1.056c0.341-0.567,0.982-0.648,1.582-0.87
			c0.769-0.284,1.702-1.002,1.219-1.981c-0.449-0.909-1.501-1.562-2.543-1.129c-1.021,0.424-1.972,0.808-3.105,0.871
			C251.038,62.302,250.895,63.124,250.959,63.795z M355.803,120.062c-0.79-0.141-1.472,0.076-1.576,0.947
			c-0.169,1.422-0.112,2.883,1.284,3.729c0.401,0.243,1.012,1.012,1.625,0.203c0.456-0.6,1.647-1.01,1.24-1.816
			c-0.586-1.161-0.355-1.631,0.693-2.222c0.709-0.4,0.454-1.226,0.117-1.864c-0.234-0.442-0.313-1.106-1.104-0.92
			c-0.731,0.172-1.054,0.631-1.024,1.358C357.102,120.618,356.64,120.712,355.803,120.062z M22.499,143.998
			c0.362-1.504-0.429-2.661-1.854-2.626c-1.433,0.035-3.795-0.284-3.726,2.062c0.059,1.976,2.073,2.521,3.759,2.839
			C22.401,146.598,22.672,145.452,22.499,143.998z M211.969,165.418c1.55,0.024,2.848-1.479,2.06-2.583
			c-0.949-1.33-2.248-2.431-3.492-3.521c-0.447-0.393-1.16-0.118-1.417,0.43c-0.66,1.41-0.115,2.828,0.461,4.052
			C209.965,164.612,210.688,165.602,211.969,165.418z M161.408,32.397c-0.327-1.032-0.337-2.418-1.884-2.674
			c-1.166-0.193-3.167,1.654-3.152,2.948c0.02,1.866,1.569,2.959,2.913,3.1C161.32,35.984,160.811,33.72,161.408,32.397z
			 M46.384,162.473c0.719,0.797,0.151,2.664,2.151,2.475c1.547-0.146,3.593-2.138,3.627-3.563c0.045-1.85-1.571-1.676-2.454-1.608
			C48.206,159.889,46.706,160.511,46.384,162.473z M35.177,118.914c-0.676-0.932-0.996-2.169-2.182-1.875
			c-1.534,0.381-2.957,1.216-3.269,2.993c-0.146,0.829,2.409,3.531,3.106,3.291C35.012,122.572,33.415,119.946,35.177,118.914z
			 M248.835,152.55c-1.614-0.21-2.807-0.067-2.696,2.116c0.099,1.94,1.184,2.603,2.79,2.591c1.548-0.012,2.537-0.649,2.572-2.564
			C251.54,152.551,250.47,152.312,248.835,152.55z M195.128,134.336c-1.617-0.03-2.516,0.863-3.233,1.664
			c-0.545,0.607-0.426,1.854,0.676,2.09c1.333,0.283,2.748-0.052,3.978,0.98c0.53,0.445,1.101-0.382,1.525-0.826
			c0.502-0.526,0.515-1.275,0.176-1.761C197.435,135.314,196.243,134.608,195.128,134.336z M152.995,176.063
			c-0.017-1.833-0.91-3.016-2.126-2.992c-1.204,0.023-2.57,2.319-2.672,4.229c-0.091,1.71,1.445,1.802,2.207,1.764
			C152.162,178.978,153.134,177.769,152.995,176.063z M269.886,172.568c2.282,0.062,3.21-1.578,3.384-2.673
			c0.257-1.616-1.524-0.971-2.503-1.13c-1.065-0.174-2.187,0.332-3.229-0.346c-0.342-0.223-0.876-0.323-1.232,0.196
			c-0.388,0.564-0.466,1.189-0.021,1.662C267.398,171.462,268.666,172.535,269.886,172.568z M152.425,31.173
			c1.062,0.395,2.361-0.368,2.23-1.693c-0.133-1.343-1.13-2.776-3.021-2.651c-1.461,0.096-3.318,0.203-3.3,1.973
			C148.354,30.811,150.26,31.088,152.425,31.173z M250.008,165.68c0.009,1.299,2.543,4.11,3.648,3.887
			c1.148-0.231,1.881-1.165,2.02-2.275c0.181-1.431-2.23-3.282-4.017-3.318C250.432,163.946,249.902,164.477,250.008,165.68z
			 M180.264,30.182c-1.675-0.266-3.198,0.018-3.31,1.971c-0.125,2.176,2.159,2.2,3.223,2.127c1.293-0.088,3.325-0.806,3.311-2.601
			C183.471,29.599,181.5,30.355,180.264,30.182z M141.031,62.27c0.186,1.472,0.508,2.935,2.302,3.242
			c1.142,0.195,3.176-2.272,2.935-3.618c-0.285-1.593-1.567-1.633-2.896-1.637C141.957,60.253,140.767,60.327,141.031,62.27z
			 M26.365,120.113c0.104-2.352-1.244-2.79-2.914-2.974c-1.996-0.221-1.322,1.23-1.389,2.168c-0.128,1.807,0.357,3.787,2.237,3.885
			C25.653,123.263,26.439,121.458,26.365,120.113z M29.129,147.722c1.674,0.073,2.59-0.606,2.888-1.829
			c0.243-0.999-2.671-2.988-4.215-2.92c-1.333,0.059-2.079,0.854-1.902,2.166C26.171,147.162,28,147.241,29.129,147.722z
			 M336.044,134.205c0.024-1.341-1.612-3.867-2.466-3.59c-1.226,0.397-2.384,0.979-2.373,2.733c0.013,2.002,1.385,2.954,2.796,3.237
			C335.001,136.786,335.977,135.549,336.044,134.205z M246.759,66.006c0.933,0.053,2.429-1.658,2.584-2.954
			c0.117-0.979-2.361-2.779-3.937-2.704c-0.931,0.044-1.548,0.731-1.59,1.693C243.758,63.395,245.705,65.946,246.759,66.006z
			 M201.26,134.289c0.021,1.6,2.229,3.935,3.579,3.875c1.244-0.055,1.201-0.979,1.204-1.871c0.009-2.551-1.007-3.813-2.946-3.871
			C201.599,132.377,201.093,133.042,201.26,134.289z M118.607,39.458c-0.116-1.722-1.392-2.615-2.781-2.48
			c-1.396,0.135-3.161,0.517-3.002,2.801c0.206,2.946,2.756,0.535,3.86,1.713C116.955,41.782,118.786,41.019,118.607,39.458z
			 M357.059,110.177c-0.098,1.697,1.728,4.464,3.116,4.466c1.958,0.004,1.433-2.03,1.497-2.841c0.12-1.521-0.895-2.951-2.703-3.235
			C357.769,108.377,356.921,108.774,357.059,110.177z M360.812,97.072c-1.209-0.319-1.714,0.564-1.808,1.652
			c-0.109,1.283,2.261,3.017,4.075,3.135c1.14,0.074,1.812-0.544,2.066-1.542C365.407,99.289,363.074,97.173,360.812,97.072z
			 M97.35,36.958c-1.563,0.656-2.615,1.695-2.661,3.493c-0.031,1.211,0.552,2.015,1.73,2.112c1.419,0.117,3.611-1.739,3.513-2.884
			C99.797,38.098,98.413,37.633,97.35,36.958z M106.709,41.698c-0.397-1.296-1.082-2.641-2.605-2.374
			c-2.226,0.391-1.876,2.726-2.381,4.26c-0.327,0.995,0.827,1.607,1.792,1.362C105.127,44.537,106.52,43.732,106.709,41.698z
			 M345.106,88.551c-1.392-0.185-1.832,0.463-2.212,1.028c-0.413,0.615,0.06,0.925,0.497,1.459c0.754,0.921,2.242,1.894,0.69,3.545
			c-0.834,0.888,0.484,1.021,0.988,1.21c0.874,0.327,1.396-0.56,1.211-1.014c-0.441-1.086,0.296-1.62,0.761-2.231
			c0.629-0.828,0.583-1.515,0.072-2.36C346.519,89.203,345.666,88.698,345.106,88.551z M211.657,133.877
			c2.074,0.138,2.717-1.243,2.936-2.741c0.188-1.286-0.736-2.241-1.98-1.966c-1.341,0.297-3.551,0.033-3.459,2.129
			C209.198,132.322,209.698,134.262,211.657,133.877z M336.537,45.233c-0.153-1.852-1.517-2.771-3.034-3.008
			c-1.028-0.161-2.343,0.368-2.261,2.015c0.095,1.935,1.509,2.785,3.012,3.032C335.273,47.44,336.619,46.897,336.537,45.233z
			 M354.021,62.158c-1.354-0.142-1.962,1.132-1.646,1.671c0.909,1.553-0.729,4.337,1.677,4.737c1.566,0.261,2.384-1.94,2.419-3.384
			C356.504,63.847,355.829,62.347,354.021,62.158z M199.396,118.186c-2.498,0.176-4.205,1.09-3.784,2.214
			c0.412,1.101,0.44,2.791,2.165,2.929c0.994,0.079,3.731-2.749,3.383-3.487C200.847,119.181,200.777,118.021,199.396,118.186z
			 M340.991,134.348c-1.319,0.023-2.059,0.684-2.083,2.02c-0.02,0.99,2.824,3.823,3.76,3.661c0.801-0.138,1.412-0.724,1.468-1.613
			C344.224,137.021,342.114,134.337,340.991,134.348z M210.821,172.395c-0.078,1.224,0.663,2.221,1.594,2.479
			c0.939,0.262,1.642-0.646,1.762-1.729c0.078-0.703,0.826-0.93,1.108-1.465c0.613-1.169-0.295-1.837-0.992-2.502
			c-0.705-0.672-2.253-0.534-2.257-0.204C212.021,170.318,210.618,171.073,210.821,172.395z M41.174,117.938
			c-0.426,1.614,0.723,2.747,1.656,3.978c0.471,0.622,1.125,0.57,1.724,0.445c0.712-0.148,0.863-0.737,0.934-1.437
			c0.179-1.774-0.922-2.861-1.941-4.035c-0.494-0.569-1.224-1.078-1.783-0.948C40.971,116.125,41.162,117.083,41.174,117.938z
			 M127.333,40.865c-1.114-0.445,1.22-2.69-1.354-2.517c-1.436,0.097-3.125,0.659-3.015,2.476c0.094,1.562,1.021,3.117,2.852,3.153
			C127.939,44.02,126.89,42.163,127.333,40.865z M17.749,126.254c-0.206-0.776,0.534-2.038-0.474-2.514
			c-0.883-0.417-1.801,0.314-2.619,0.938c-1.421,1.082-1.398,2.345,0.36,4.274c0.324,0.356,0.645,1.317,1.376,0.698
			c0.517-0.438,1.599-0.472,1.374-1.618C17.661,127.497,17.749,126.924,17.749,126.254z M173.088,49.785
			c-0.888-0.041-3.293,1.531-3.358,2.03c-0.133,1.021,1.977,2.638,3.606,2.724c1.348,0.071,2.086-0.666,2.094-1.954
			C175.441,50.921,174.012,50.44,173.088,49.785z M138.185,139.27c0,0.593-0.131,1.116,0.025,1.531
			c0.425,1.126,1.058,2.21,2.259,2.597c0.91,0.293,1.704-0.423,1.588-1.228c-0.182-1.272,0.71-2.764-0.964-3.86
			c-0.739-0.483-1.216-1.32-2.24-1.069C137.514,137.569,138.528,138.708,138.185,139.27z M159.924,146.062
			c-0.88,0.076-2.792,2.78-2.426,3.403c0.556,0.944,1.182,2.358,2.493,2.009c1.328-0.354,2.542-1.353,2.536-2.991
			C162.52,146.696,160.419,147.169,159.924,146.062z M142.914,141.298c0.113,1.705-0.32,3.328,1.599,3.027
			c1.199-0.188,2.973-0.091,2.784-2.333c-0.143-1.69-0.949-2.752-2.512-2.796C143.134,139.15,142.844,140.488,142.914,141.298z
			 M206.549,192.958c-0.886-1.081,0.065-3.575-1.858-3.779c-1.592-0.168-2.565,1.979-2.719,3.272
			c-0.15,1.272,1.354,2.438,2.856,2.535C205.832,195.051,206.463,194.222,206.549,192.958z M100.091,28.703
			c-1.436-0.089-2.502,0.423-2.489,1.898c0.014,1.658,1.36,2.586,2.742,2.628c0.773,0.023,2.574,0.295,2.491-1.686
			C102.757,29.678,101.685,28.966,100.091,28.703z M144.236,55.505c0.814,0.056,1.694-0.159,1.562-1.361
			c-0.182-1.652-0.97-3.073-2.714-3.37c-1.374-0.233-2.19,0.897-2.459,2.063C140.328,54.118,142.2,55.468,144.236,55.505z
			 M360.412,89.184c-0.057-1.381-2.225-3.708-3.158-3.542c-1.33,0.237-1.823,1.387-2.065,2.515
			c-0.201,0.939,2.358,2.852,3.596,2.675C359.811,90.685,360.387,89.962,360.412,89.184z M60.227,139.156
			c-1.436-0.092-2.294,0.785-2.334,2.05c-0.048,1.525,1.505,3.229,3.024,3.15c1.043-0.056,1.926-0.759,1.698-1.824
			C62.298,141.046,61.609,139.637,60.227,139.156z M295.354,12.047c1.128-0.348,2.788-0.673,2.823-2.259
			c0.036-1.644-1.411-2.094-2.97-2.101c-1.364-0.005-2.285,0.164-2.222,1.886C293.041,11.081,293.548,11.964,295.354,12.047z
			 M107.471,23.027c-1.327-0.108-2.484,0.002-2.241,1.633c0.229,1.54,0.566,3.043,2.685,3.155c1.844,0.097,1.929-1.559,1.91-2.345
			C109.797,24.255,109.513,22.462,107.471,23.027z M116.091,15.852c0.71,0.976,0.421,2.978,2.181,3.227
			c1.14,0.162,2.265-0.996,2.156-2.257c-0.127-1.478-0.69-3.044-2.487-3.346C116.342,13.208,116.376,14.542,116.091,15.852z
			 M57.892,111.272c-0.079-1.715-1.782-3.778-2.951-3.653c-0.889,0.096-2.142,0.252-1.772,1.538
			c0.426,1.479,0.349,3.535,2.671,3.683C57.069,112.918,57.646,112.157,57.892,111.272z M167.956,30.633
			c-1.319,0.39-2.443,1.143-2.516,2.776c-0.078,1.757,1.547,1.997,2.65,2.433c1.004,0.397,2.216-0.604,1.957-1.39
			C169.616,33.149,170.301,31.078,167.956,30.633z M265.328,59.318c-0.809,0.634-2.884-0.158-2.821,1.77
			c0.076,2.305,2.395,1.991,3.846,2.467c1.217,0.399,1.762-1.126,1.684-1.738C267.875,60.56,267.25,59.252,265.328,59.318z
			 M39.525,142.839c-1.171,0.581-1.271,1.081-1.229,1.662c0.054,0.747,0.077,1.453-1.039,1.333c-0.82-0.088-1.553,0.007-1.826,1.03
			c-0.312,1.172,0.732,1.61,1.266,2.17c0.517,0.542,1.462,0.936,2.362,0.488c0.557-0.276,0.943-0.895,0.62-1.356
			c-0.794-1.133-0.194-1.817,0.459-2.661c0.213-0.276,0.702-0.824,0.08-1.398C39.829,143.749,39.678,143.135,39.525,142.839z
			 M354.824,129.141c-0.956-0.485,1.075-2.448-1.307-2.419c-1.548,0.02-2.622,0.907-2.614,2.405
			c0.009,1.583,0.651,3.302,2.557,3.234C355.478,132.291,354.322,130.406,354.824,129.141z M156.073,174.977
			c1.063,0.019,3.209-2.337,3-3.514c-0.178-1.007-0.875-2.12-1.946-2.019c-2.153,0.204-2.047,2.388-2.606,3.818
			C154.239,173.983,154.76,175.113,156.073,174.977z M297.415,18.222c-0.198-1.999-0.604-3.595-2.182-3.715
			c-1.543-0.117-2.138,1.478-2.161,2.799c-0.026,1.545,1.357,2.422,2.577,2.587C296.659,20.03,297.666,19.123,297.415,18.222z
			 M323.318,43.609c-1.418-0.555-2.061,0.57-1.985,1.311c0.157,1.556,1.219,3.029,2.718,3.26c0.986,0.151,2.527-0.683,2.385-2.279
			C326.269,44.035,324.698,43.793,323.318,43.609z M63.584,107.771c0.417-1.673-0.73-2.514-1.98-2.431
			c-0.971,0.065-2.28,0.734-2.278,2.261c0.003,1.793,1.43,2.846,2.655,3.075C62.767,110.823,64,109.318,63.584,107.771z
			 M201.733,44.175c0.119-1.459-0.318-2.579-2.169-2.53c-1.306,0.034-2.221,0.351-2.158,2.009c0.074,1.961,1.375,2.535,2.888,2.729
			C201.85,46.583,201.759,45.339,201.733,44.175z M351.284,135.554c-0.692-0.374-0.433-1.145-0.429-1.836
			c0.004-0.764-0.052-1.522-0.915-1.705c-0.956-0.203-1.838,0.084-2.438,0.932c-0.996,1.408-0.438,3.031,1.36,3.981
			C350.287,137.68,351.257,137.202,351.284,135.554z M134.393,179.055c-0.15,1.206-0.158,2.284,1.39,2.349
			c0.663,0.027,3.345-2.591,3.34-3.23c-0.013-1.644-1.671-1.644-2.378-1.606C135.487,176.634,133.762,177.007,134.393,179.055z
			 M112.661,21.619c1.257-0.158,2.119-0.682,2.075-1.926c-0.061-1.714-1.083-2.698-2.768-2.882c-1.142-0.125-1.992,0.68-1.907,1.624
			C110.199,19.963,111.197,21.098,112.661,21.619z M341.227,104.229c1.329,0.15,2.058-0.265,1.981-1.684
			c-0.068-1.258-1.854-3.09-3.086-3.069c-1.521,0.025-1.567,1.583-1.472,2.196C338.852,102.957,339.261,104.599,341.227,104.229z
			 M225.189,178.751c-0.487-0.408-0.297-1.356-1.111-1.351c-0.954,0.006-2.223-0.499-2.658,0.79
			c-0.241,0.713-0.205,1.094-1.055,0.633c-0.458-0.249-1.004-0.916-1.59-0.087c-0.511,0.721-0.532,1.614-0.125,2.194
			c0.398,0.569,1.543,1.181,2.017,0.669c1.174-1.27,2.487-2.023,4.16-2.279C224.968,179.298,225.061,178.964,225.189,178.751z
			 M267.854,23.867c0.089-1.097-1.312-2.661-2.63-2.764c-1.318-0.103-1.487,1.057-1.754,1.831c-0.293,0.851,1.914,3.375,2.756,3.415
			C267.993,26.433,267.556,24.986,267.854,23.867z M83.11,102.371c-0.938,0.167-0.814,1.08-0.855,1.95
			c-0.065,1.386,0.152,2.738,1.812,2.741c2.009,0.004,2.23-1.885,2.658-3.287C87.014,102.825,85.943,102.399,83.11,102.371z
			 M191.33,32.081c-1.227-0.178-1.551,0.604-1.557,1.86c-0.01,1.906,1.486,2.392,2.771,2.872c1.231,0.461,1.681-0.812,1.882-1.618
			C194.729,33.982,192.849,32.12,191.33,32.081z M129.577,150.922c-0.1,1.469,0.412,2.606,2.03,2.51
			c2.164-0.129,1.311-2.189,1.696-3.332c0.356-1.058-0.649-1.916-1.853-1.858C129.776,148.321,129.47,149.514,129.577,150.922z
			 M128.248,47.113c-0.59-0.552,0.649-1.774-0.719-2.07c-0.643-0.14-1.45-0.384-1.945,0.706c-0.519,1.142-1.751,1.905-0.846,3.504
			c0.567,1.001,1.273,1.086,2.126,0.973C128.911,49.954,127.83,48.279,128.248,47.113z M14.447,135.832
			c0.201,0.77,0.282,2.258,2.158,2.338c1.345,0.058,2.217-0.709,2.044-1.98c-0.2-1.47-1.29-2.496-2.768-2.754
			C14.556,133.205,14.335,134.19,14.447,135.832z M144.868,27.2c-0.058-0.997-2.343-3.23-3.31-3.237
			c-1.337-0.009-1.37,1.066-1.436,1.92c-0.095,1.246,2.064,2.937,3.438,2.862C144.578,28.69,144.913,28.122,144.868,27.2z
			 M86.774,110.485c-1.571-0.315-2.167,0.648-2.072,1.949c0.091,1.249,0.514,2.353,2.244,2.371c1.644,0.019,1.996-0.854,2-2.15
			C88.951,111.249,88.545,110.178,86.774,110.485z M53.148,115.126c-0.333-1.447-1.811-2.027-2.763-3.081
			c-0.564-0.626-0.981-0.809-1.479-0.422c-0.549,0.428-1.11,1.01-0.675,1.917c0.611,1.276,1.724,2.157,2.748,2.947
			C51.79,117.114,53.003,116.8,53.148,115.126z M194.114,124.563c-0.07-1.422-0.958-2.55-2.195-2.521
			c-1.202,0.027-2.102,1.093-2.148,2.589c-0.048,1.521,1.108,1.966,2.081,1.985C192.941,126.639,194.212,126.205,194.114,124.563z
			 M271.188,7.219c1.26,0.093,2.361,0.041,2.237-1.641c-0.114-1.543-0.941-2.553-2.462-2.599c-1.331-0.04-1.912,0.923-1.836,2.225
			C269.205,6.521,269.603,7.532,271.188,7.219z M350.443,78.034c-1.036,0.193-1.695,0.835-1.873,1.608
			c-0.225,0.982,2.184,3.76,2.991,3.535c1.019-0.284,1.682-1.235,1.61-2.213C353.05,79.297,351.52,78.727,350.443,78.034z
			 M209.864,151.829c-0.148,1.808,0.803,2.824,2.478,3.037c1.208,0.154,1.223-1.01,1.314-1.784c0.15-1.273-1.637-3.517-2.651-3.415
			C209.598,149.808,209.909,150.93,209.864,151.829z M127.201,56.659c0.242-2.303-0.522-3.462-2.16-3.468
			c-0.849-0.003-2.097,0.304-2.137,1.669c-0.033,1.092,2.308,3.057,3.452,2.871C127.307,57.576,127.203,56.657,127.201,56.659z
			 M359.923,83.132c0.004,1.478,1.303,3.619,2.053,3.354c0.892-0.315,1.922-0.657,1.801-2.079c-0.137-1.608-0.891-2.764-2.391-2.993
			C360.516,81.282,359.615,81.993,359.923,83.132z M140.638,157.346c-0.186-1.443,0.375-2.851-1.396-2.901
			c-1.386-0.039-2.319,0.951-2.408,2.086c-0.111,1.426,0.977,2.541,2.409,2.567C140.423,159.118,140.836,158.072,140.638,157.346z
			 M119.521,6.785c-0.735,0.321-1.541,0.498-1.441,1.687c0.136,1.612,1.066,2.535,2.473,2.784c0.827,0.146,1.793-0.269,1.859-1.483
			C122.467,8.756,120.619,6.804,119.521,6.785z M214.643,142.446c-0.127,1.199,0.341,2.262,1.604,2.354
			c1.271,0.093,2.23-0.851,2.152-2.131c-0.069-1.14-0.702-2.422-1.999-2.504C215.119,140.084,214.573,141.128,214.643,142.446z
			 M234.676,60.873c0.113,1.477,0.879,2.481,2.355,2.724c1.123,0.185,2.013-0.679,1.897-1.597c-0.168-1.35-1.253-2.333-2.627-2.64
			C235.25,59.125,234.667,59.729,234.676,60.873z M317.863,44.229c0.153-1.61-1.002-2.506-2.284-2.811
			c-0.653-0.155-1.69,0.599-1.555,1.867c0.162,1.525,0.933,2.439,2.409,2.635C317.568,46.07,317.929,45.319,317.863,44.229z
			 M79.557,110.008c1.399-0.255,1.867-1.406,2.21-2.605c0.334-1.171-0.683-1.637-1.405-1.641c-1.399-0.01-2.167,0.96-2.404,2.349
			C77.746,109.349,78.568,109.683,79.557,110.008z M238.544,56.429c-0.25,1.635,1.047,2.057,2.062,2.352
			c1.146,0.334,1.718-1.276,1.555-1.592c-0.486-0.94,0.04-2.713-1.94-2.671C238.788,54.547,238.413,55.23,238.544,56.429z
			 M260.36,61.859c-0.759,0.263-1.309,0.493-1.318,1.526c-0.016,1.614,1.079,2.451,2.179,2.864c0.471,0.176,1.761-0.937,1.668-2.124
			C262.771,62.612,261.245,62.562,260.36,61.859z M349.026,83.213c-1.136,0.344-1.598,0.861-1.583,2.032
			c0.017,1.288,0.316,2.206,1.661,2.225c0.897,0.013,1.773-0.293,1.77-1.613C350.87,84.393,349.781,83.935,349.026,83.213z
			 M283.306,23.342c0.759-0.278,1.534-0.896,1.5-1.706c-0.047-1.161-0.935-1.935-2.133-1.932c-0.839,0.002-1.619,0.714-1.509,1.476
			C281.319,22.25,282.092,23.099,283.306,23.342z M284.377,174.415c-1.25-0.583,0.61-2.926-1.595-3.148
			c-0.38-0.039-1.449,0.293-1.237,1.342c0.256,1.267,0.691,2.41,2.061,2.817C284.195,175.602,284.473,175.23,284.377,174.415z
			 M363.824,93.259c-1.034-0.024-2.042-0.001-1.941,1.226c0.084,1.025,0.823,1.639,1.937,1.637c1.196-0.002,1.319-0.769,1.384-1.738
			C365.288,93.108,364.503,93.218,363.824,93.259z M231.732,186.479c0.774-0.332,1.506-0.785,1.491-1.607
			c-0.014-0.759-0.087-1.76-1.301-1.771c-0.858-0.008-1.869-0.122-1.95,1.07C229.892,185.355,231.054,185.746,231.732,186.479z
			 M160.5,165.604c-0.446-0.873-0.789-1.958-1.82-1.995c-0.596-0.021-1.479,0.302-1.419,1.444c0.062,1.187,0.994,1.436,1.705,1.597
			C159.333,166.734,160.351,166.429,160.5,165.604z M160.634,144.32c-0.014-1.286-0.99-1.411-1.613-1.651
			c-0.299-0.114-1.244,0.489-0.969,1.224c0.213,0.569-0.065,1.694,1.259,1.478C160.134,145.235,160.6,144.931,160.634,144.32z
			 M113.349,10.952c0.065-0.485-0.187-1.208-0.853-1.238c-0.832-0.036-1.4,0.657-1.528,1.492c-0.113,0.736,0.335,1.209,1.064,1.262
			C112.91,12.531,113.298,12.004,113.349,10.952z M137.676,141.021c-0.124-0.554-0.526-0.95-1.282-0.921
			c-0.744,0.029-0.586,0.595-0.598,1.037c-0.02,0.72,0.292,1.326,1.041,1.269C137.392,142.363,137.756,141.837,137.676,141.021z
			 M98.641,163.016c0.39,0.004,0.769,0.001,0.812-0.534c0.04-0.517-0.067-0.894-0.701-0.883c-0.448,0.008-0.694,0.184-0.708,0.658
			C98.03,162.689,98.14,162.998,98.641,163.016z M313.014,59.113c-0.23-0.111-0.432-0.179-0.6-0.294
			c-0.395-0.271-0.907-0.587-0.662,0.269C311.868,59.495,312.523,59.383,313.014,59.113z M102.058,161.67
			c-0.215,0.444-0.331,0.833,0.081,1.287C102.355,162.513,102.466,162.125,102.058,161.67z"/>
		<path style="fill-rule:evenodd;clip-rule:evenodd;fill:#7B491E;" d="M316.519,100.099c-0.937,3.58-2.885,6.668-6.181,8.408
			c-1.569,0.828-3.039,1.756-4.104,2.973c-1.794,2.051-4.33,2.265-6.536,3.201c-1.65,0.701-3.236,1.922-5.295,1.562
			c-0.704-0.123-1.568-0.13-1.956-0.593c-1.732-2.067-4.145-2.216-6.464-2.261c-2.13-0.042-3.836-1.14-5.748-1.697
			c-0.808-0.235-1.396-0.271-2.208,0.078c-4.473,1.921-7.333,5.746-10.666,8.984c-0.896,0.87-2.009,1.344-2.922,1.491
			c-2.173,0.352-4.471,0.377-6.652,0.063c-1.311-0.188-1.994-1.66-2.021-3.031c-0.077-3.771,0.938-7.288,2.823-10.542
			c2.425-4.185,4.873-8.355,7.349-12.51c0.324-0.545,0.477-1.022,0.083-1.51c-1.316-1.63-1.463-3.689-2.074-5.573
			c-0.363-1.117-0.031-2.217,0.708-3.082c0.792-0.926,1.682-0.159,2.581-0.026c3.741,0.55,4.472,3.964,6.098,6.424
			c0.58,0.878,0.892,0.985,1.523,0.529c1.706-1.232,3.585-2.383,4.419-4.42c0.848-2.072,2.619-1.907,3.921-1.332
			c1.727,0.765,1.113,2.417,0.367,3.746c-0.713,1.268-1.55,2.467-2.237,3.747c-0.238,0.444-1.036,1.008-0.294,1.529
			c0.646,0.453,1.416,1.271,2.302,0.638c2.456-1.754,5.232-1.794,8.062-1.732c3.936,0.087,7.597-1.159,11.242-2.422
			c0.665-0.23,1.164-0.599,1.96-0.167c1.827,0.991,3.738,0.899,5.6-0.014c0.985-0.483,1.58-0.317,2.273,0.689
			c0.654,0.951,1.535,1.791,2.58,2.522C316.281,96.631,316.771,98.314,316.519,100.099z"/>
		<path style="fill-rule:evenodd;clip-rule:evenodd;fill:#7B491E;" d="M371.638,60.281c-2.016-0.696-5.187,0.332-6.275-3.596
			c-0.359-1.299-2.682-2.218-4.274-2.944c-0.823-0.376-1.377,0.674-1.651,1.548c-1.246,3.978-3.181,4.585-6.973,2.006
			c-1.896-1.288-3.02-1.393-5.129,0.142c-2.081,1.514-4.494,2.907-6.953,4.002c-1.229,0.546-2.393,0.501-3.121-0.69
			c-0.705-1.151-0.338-2.071,0.866-2.88c1.86-1.25,3.54-2.747,5.537-3.825c1.719-0.928,3.218-2.129,4.223-3.917
			c1.756-3.122,4.636-5.614,5.134-9.439c0.331-2.538,1.101-5.061,1.104-7.59c0.009-6.345,2.024-12.136,4.434-17.834
			c0.584-1.381,2.102-1.595,3.476-1.229c1.12,0.298,1.4,1.154,1.439,2.366c0.066,2.061,0.312,4.163,0.875,6.137
			c0.196,0.691,0.963,1.868,2.615,1.044c3.176-1.583,6.079-3.344,7.729-6.603c0.709-1.399,1.922-2.3,3.008-3.292
			c0.506-0.462,1.353-1.17,2.32-0.463c0.987,0.721,1.066,1.689,0.867,2.748c-0.04,0.212-0.247,0.392-0.374,0.588
			c-1.891,2.897-2.597,6.348-4.347,9.31c-1.375,2.327-1.127,4.776-0.641,7.268c0.613,3.136,0.738,6.283-0.452,9.308
			c-0.279,0.709,0.069,0.871,0.415,1.021c1.385,0.597,1.659,1.735,1.64,3.058c-0.006,0.397-0.163,0.935,0.034,1.172
			c2.326,2.794,0.671,5.527-0.048,8.282C376.427,58.615,374.497,60.284,371.638,60.281z"/>
		<path style="fill-rule:evenodd;clip-rule:evenodd;fill:#7B491E;" d="M371.801,171.422c-2.198,0.996-2.608,2.135-1.376,4.2
			c0.512,0.856,0.801,1.611,0.093,2.33c-0.728,0.737-1.53,0.278-2.375-0.047c-0.675-0.26-0.969-1.18-1.802-1.003
			c-0.826,0.176-1.271-0.5-2.048-0.841c-0.139,2.042,0.236,3.888-2.418,5.108c-2.549,1.172-5.587-0.367-5.714-3.438
			c-0.065-1.572-0.53-3.116-0.128-4.772c0.363-1.496-1.457-2.425-3.764-2.815c-4.124-0.698-7.224,1.924-10.819,2.903
			c-0.692,0.189-0.198,0.479-0.271,0.734c-0.237,0.842,1.874,0.647,0.739,1.737c-1.319,1.269-0.669,3.844-3.278,4.363
			c-2.463,0.49-4.129-0.877-3.339-3.747c0.562-2.044-0.292-2.676-1.754-3.016c-1.487-0.345-2.248,0.379-2.907,1.945
			c-0.822,1.954-0.638,4.079-1.646,6.011c-0.648,1.242-0.998,2.665-2.516,2.41c-1.719-0.289-2.781-1.748-2.83-3.495
			c-0.054-1.934,0.923-3.729,1.081-5.709c0.084-1.04,1.188-2.271,0.017-3.029c-1.737-1.124-3.156-3.747-5.854-2.005
			c-1.327,0.856-2.881,1.443-3.76,2.928c-0.309,0.521-0.852,0.781-1.546,0.938c-1.402,0.315-2.889,0.404-4.123,1.379
			c-0.727,0.574-1.595,1.545-2.665,0.609c-1.125-0.985-2.059-2.014-1.739-3.825c0.307-1.741,1.323-3.053,2.412-4.1
			c2.024-1.947,2.938-4.934,5.561-6.21c3.162-1.54,4.932-3.992,5.831-7.298c0.286-1.052,0.743-2.151,2.292-2.144
			c1.398,0.007,2.11,0.415,1.977,1.912c-0.24,2.674,2.032,4.666,2.105,7.331c0.009,0.307,2.204,0.64,3.406,0.804
			c1.65,0.227,3.294-0.058,4.895-0.465c3.683-0.935,7.531-0.804,11.207-1.886c2.731-0.804,5.575-1.599,8.425-0.452
			c0.669,0.269,1.182,0.165,1.699-0.093c1.201-0.601,2.267-0.92,2.657,0.856c0.077,0.352,0.188,0.633,0.555,0.603
			c2.885-0.238,5.009,1.656,7.086,3.035c2.037,1.353,3.933,3.388,4.708,5.883C370.222,170.171,370.731,170.8,371.801,171.422z"/>
		<path style="fill-rule:evenodd;clip-rule:evenodd;fill:#7B491E;" d="M36.719,54.484c0.756,0.265,1.23-0.202,1.616-0.707
			c0.428-0.561,0.914-0.59,1.371-0.193c2.467,2.138,4.522,0.147,6.638-0.696c1.674-0.667,3.328-1.204,5.15-1.224
			c1.56-0.017,3.095,0.059,4.677-0.39c2.1-0.594,3.787,0.467,5.132,2.128c0.344,0.425,0.4,0.823,0.413,1.297
			c0.039,1.429-2.396,5.462-3.805,5.758c-3.78,0.793-6.838,3.528-10.824,3.778c-5.422,0.34-10.712,1.341-15.657-2.624
			c-1.787-1.432-4.765-2.845-7.724-1.821c-0.896,0.31-1.729-0.187-2.489-0.497c-2.147-0.876-4.362-0.902-6.621-0.981
			c-1.398-0.05-2.414-1.09-2.884-2.418c-0.701-1.981,0.48-3.565,1.672-4.758c1.918-1.917,4.01-3.8,6.354-5.12
			c3.312-1.867,5.442-4.539,6.957-7.87c0.671-1.476,1.241-2.688,3.412-1.851c2.099,0.81,1.516,1.968,0.906,3.238
			c-0.233,0.486-0.167,0.741,0.199,0.938c0.494,0.264,0.654-0.283,0.86-0.522c1.309-1.52,2.828-2.437,4.942-2.155
			c0.735,0.098,1.508,0.05,1.712,0.906c0.187,0.786,0.137,1.598-0.821,1.973c-0.215,0.084-0.429,0.188-0.619,0.319
			c-4.208,2.881-4.302,3.876-1.048,7.916C37.595,50.595,36.668,52.621,36.719,54.484z"/>
		<path style="fill-rule:evenodd;clip-rule:evenodd;fill:#7B491E;" d="M117.647,140.057c-0.047,0.721,0.042,1.179-0.365,1.579
			c-0.73,0.721-1.578,1.922-2.528,1.229c-1.487-1.084-4.27,0.505-4.744-2.293c-0.286-1.69-0.999-1.017-1.709-0.447
			c-1.093,0.876-2.202,1.749-3.188,2.739c-0.748,0.752-1.712,0.803-2.385,0.462c-0.656-0.335-0.637-1.26-0.483-2.157
			c0.325-1.906,1.685-3.394,1.902-5.377c0.071-0.646,1.151-2.306,2.631-0.672c0.441,0.487,1.484,0.335,2.247-0.038
			c2.078-1.016,3.109-0.63,3.293,1.486c0.108,1.244,0.754,1.018,1.529,1.162C115.452,138.029,117.607,137.658,117.647,140.057z"/>
		<path style="fill-rule:evenodd;clip-rule:evenodd;fill:#7B491E;" d="M134.251,133.291c-4.27,2.045-1.493,5.043-1.077,7.696
			c0.18,1.146,0.457,2.12-0.548,2.996c-0.63,0.549-1.318,0.569-1.972,0.222c-1.062-0.563-1.304-1.6-1.057-2.655
			c0.522-2.227-0.748-4.269-0.235-6.681c0.486-2.287,0.934-4.403,2.083-6.462c1.107-1.982,1.811-2.218,3.047-0.302
			c0.798,1.236,1.287,2.418,3.081,2.689c1.234,0.186,1.11,1.689,1.099,2.822c-0.011,1.118,0.117,2.239-1.046,2.936
			c-0.455,0.271-1.136,0.343-1.256-0.058C135.969,135.166,134.214,134.784,134.251,133.291z"/>
		<path style="fill-rule:evenodd;clip-rule:evenodd;fill:#7B491E;" d="M100.04,132.64c0.272-2.143-0.834-4.125-0.769-6.27
			c0.023-0.744-0.691-1.866-1.74-1.99c-0.716-0.085-1.063-0.461-1.094-0.952c-0.161-2.539-2.285-3.028-4.005-3.866
			c-1.252-0.61-2.075-1.485-1.367-2.735c0.598-1.054,1.547-2.354,3.088-0.69c0.375,0.406,1.122,0.702,1.387,1.203
			c1.214,2.283,3.369,3.663,5.078,5.464c0.792,0.834,1.387,1.597,1.275,2.87c-0.131,1.495,1.21,2.206,2.192,2.853
			c1.792,1.18,1.977,2.347,0.658,3.969c-0.343,0.423-0.942,0.522-1.082,1.334c-0.13,0.753-0.649,1.987-2.016,1.567
			C100.294,134.979,100.055,133.843,100.04,132.64z"/>
		<path style="fill-rule:evenodd;clip-rule:evenodd;fill:#7B491E;" d="M303.429,32.58c1.036,0.438,2.075,1.271,2.463,2.596
			c0.637,2.177,2.424,0.748,3.566,1.273c1.443,0.664,0.454-0.88,1.038-1.164c0.492-0.239,0.438-1.542,1.387-1.16
			c0.866,0.348,1.738,1.374,1.41,2.152c-0.498,1.178-0.081,2.864-1.785,3.524c-0.771,0.299-1.301,0.812-0.019,1.567
			c1.225,0.721,2.017,1.925,1.65,3.637c-0.171,0.803-0.541,1.512-1.121,1.638c-0.675,0.146-1.563-0.281-1.763-1.102
			c-0.636-2.63-2.289-4.022-4.733-5.191c-1.977-0.945-2.445-3.716-4.239-5.251C300.517,34.442,301.995,32.503,303.429,32.58z"/>
		<path style="fill-rule:evenodd;clip-rule:evenodd;fill:#7B491E;" d="M368.525,97.918c-0.074-0.642-0.05-1.485,0.749-1.7
			c0.81-0.218,1.401,0.597,1.548,1.197c0.391,1.601,0.976,1.876,2.423,0.985c1.15-0.708,2.377,0.239,2.625,1.107
			c0.854,2.991,3.369,4.919,4.577,7.684c0.431,0.986,0.271,1.279-0.269,1.934c-0.673,0.815-1.038,0.396-1.831,0.081
			c-2.865-1.139-4.336-3.131-4.571-6.138c-0.082-1.062-0.807-1.129-1.673-1.234C369.82,101.556,368.519,100.103,368.525,97.918z"/>
		<path style="fill-rule:evenodd;clip-rule:evenodd;fill:#7B491E;" d="M226.615,121.901c-0.029,1.431-1.495,2.235-2.786,1.227
			c-1.803-1.41-3.827-1.739-5.914-2.315c-1.68-0.465-2.831-2.276-4.644-2.968c-1.126-0.43-0.417-1.517-0.023-2.22
			c0.526-0.939,1.535-0.81,2.118-0.27c2.557,2.367,6.037,2.376,8.999,3.686C225.694,119.628,226.598,120.382,226.615,121.901z"/>
		<path style="fill-rule:evenodd;clip-rule:evenodd;fill:#7B491E;" d="M69.417,108.531c0.076,2.395-1.19,3.47-3.228,3.838
			c-1.298,0.235-1.655-0.804-1.939-1.638c-0.587-1.725,0.749-2.807,1.759-3.763c1.247-1.18,1.766,0.649,2.581,0.96
			c1.057-0.311,1.401-2.226,2.618-1.479c1.688,1.036,3.97-1.049,5.339,1.327c0.596,1.034,0.576,2.005,0.301,2.916
			c-0.153,0.508-1.007,1.837-1.674,0.915C73.717,109.594,71.271,109.918,69.417,108.531z"/>
		<path style="fill-rule:evenodd;clip-rule:evenodd;fill:#7B491E;" d="M270.557,23.001c0.009-2.541,2.878-4.163,5.269-3.145
			c1.514,0.645,3.168,0.78,4.278,2.34c0.851,1.196,0.538,2.238-0.177,2.945c-0.799,0.791-1.71,0.112-2.394-0.659
			c-1.251-1.412-2.376-2.033-2.997,0.518c-0.188,0.771-0.587,1.518-1.627,1.329C271.629,26.096,270.551,24.553,270.557,23.001z"/>
		<path style="fill-rule:evenodd;clip-rule:evenodd;fill:#7B491E;" d="M210.34,33.86c0.199,0.896-0.425,1.479-1.092,1.871
			c-1.262,0.739-2.567,1.435-3.927,1.967c-1.538,0.603-3.771-0.943-4.074-2.592c-0.22-1.206,0.464-1.94,1.386-1.986
			c1.777-0.087,3.257-0.86,4.837-1.474C209.255,30.951,210.376,31.849,210.34,33.86z"/>
		<path style="fill-rule:evenodd;clip-rule:evenodd;fill:#7B491E;" d="M184.062,135.595c0.014-1.033-0.215-2.004,0.716-2.702
			c0.983-0.737,1.003-1.575,0.012-2.319c-0.93-0.698-0.821-1.678-0.706-2.588c0.187-1.467,1.243-1.98,2.56-1.722
			c1.274,0.25,1.276,1.363,1.205,2.389c-0.015,0.209-0.227,0.4-0.341,0.604c-0.864,1.542-1.372,2.879,0.56,4.23
			c0.938,0.655-0.66,5.211-1.818,5.501c-0.792,0.197-1.33-0.273-1.804-0.999C183.903,137.157,184.157,136.319,184.062,135.595z"/>
		<path style="fill-rule:evenodd;clip-rule:evenodd;fill:#7B491E;" d="M62.153,149.594c0.473-1.804,1.583-3.664,2.907-5.33
			c0.561-0.705,1.705-0.568,2.58,0.069c0.944,0.689,1.123,1.861,0.652,2.532c-0.757,1.079-0.799,2.137-0.866,3.319
			c-0.088,1.582-1.555,2.642-2.594,2.589C63.653,152.714,62.223,151.688,62.153,149.594z"/>
		<path style="fill-rule:evenodd;clip-rule:evenodd;fill:#7B491E;" d="M200.292,65.033c0.026-2.049,1.538-3.676,3.312-3.26
			c1.746,0.41,2.754,1.492,1.999,3.529c-0.202,0.543-0.211,1.386,0.081,1.84c0.808,1.253,0.106,2.201-0.632,2.863
			c-0.878,0.788-1.946-0.25-2.359-0.724C201.638,68.069,200.261,66.902,200.292,65.033z"/>
		<path style="fill-rule:evenodd;clip-rule:evenodd;fill:#7B491E;" d="M162.786,159.574c-0.276,1.334,0.025,2.849-1.92,2.961
			c-1.454,0.085-3.001-1.783-3.068-3.782c-0.049-1.467,0.634-2.864,0.523-4.381c-0.053-0.72,0.784-0.94,1.354-1.081
			c0.95-0.234,1.478,0.688,1.687,1.229C161.986,156.146,162.332,157.882,162.786,159.574z"/>
		<path style="fill-rule:evenodd;clip-rule:evenodd;fill:#7B491E;" d="M154.906,138.283c-0.064,1.396-3.599,5.003-4.802,5.161
			c-1.12,0.146-1.898-0.381-2.292-1.298c-0.528-1.229,0.435-2.288,1.165-2.815c0.908-0.656,1.542-1.097,1.82-2.317
			c0.186-0.816,0.866-2.149,2.33-1.689C154.675,135.811,154.081,137.556,154.906,138.283z"/>
		<path style="fill-rule:evenodd;clip-rule:evenodd;fill:#7B491E;" d="M98.033,97.487c0.201,1.394-1.018,1.667-1.896,1.912
			c-1.029,0.288-1.731,0.712-1.911,1.758c-0.149,0.869-0.631,1.246-1.46,1.171c-1.43-0.13-2.119-1.287-2.771-2.302
			c-0.352-0.547-0.197-1.422,0.547-1.869c1.512-0.908,2.994-1.879,4.567-2.667C96.778,94.653,98.113,95.602,98.033,97.487z"/>
		<path style="fill-rule:evenodd;clip-rule:evenodd;fill:#7B491E;" d="M366.611,133.088c0.02-1.354-0.182-2.631,1.266-3.124
			c1.432-0.487,2.037,0.773,2.767,1.542c1.091,1.15,2.105,2.419,1.693,4.213c-0.225,0.978-0.833,1.659-1.762,1.935
			c-0.798,0.236-1.537,0.012-2.099-0.7C367.521,135.745,366.314,134.664,366.611,133.088z"/>
		<path style="fill-rule:evenodd;clip-rule:evenodd;fill:#7B491E;" d="M158.164,126.236c1.023-0.036,2.208,0.03,2.371,1.021
			c0.147,0.892,0.319,1.86-0.484,2.977c-1.131,1.57-2.16,2.251-3.983,1.744c-0.219-0.062-0.474,0.022-0.708-0.001
			c-0.615-0.063-0.958,1.49-1.631,0.405c-0.479-0.771-0.557-1.767,0.241-2.589C155.268,128.454,155.425,125.762,158.164,126.236z"/>
		<path style="fill-rule:evenodd;clip-rule:evenodd;fill:#7B491E;" d="M296.841,71.313c0-0.476-0.024-0.953,0.005-1.427
			c0.057-0.892-0.364-2.037,0.916-2.392c1.177-0.327,2.135,0.134,2.876,1.117c2.128,2.824,1.929,5.14-1.889,6.467
			c-1.604,0.557-2.089,0.12-1.969-1.633c0.048-0.708,0.008-1.42,0.008-2.131C296.806,71.313,296.823,71.313,296.841,71.313z"/>
		<path style="fill-rule:evenodd;clip-rule:evenodd;fill:#7B491E;" d="M137.218,26.316c0.079,0.619-0.134,1.144-0.71,1.354
			c-1.122,0.409-2.264-0.066-2.998-0.696c-1.026-0.88-1.714-2.162-2.521-3.29c-0.691-0.967-1.071-2.058-0.182-3.04
			c0.99-1.093,2.144-0.471,3.208,0.013C134.42,20.842,137.212,25.854,137.218,26.316z"/>
		<path style="fill-rule:evenodd;clip-rule:evenodd;fill:#7B491E;" d="M52.16,143.158c-0.062,2.186-1.626,4.177-3.135,4.1
			c-2.416-0.123-3.675-1.291-3.557-3.297c0.118-2.002,1.127-2.502,4.621-2.455C51.348,141.522,52.341,141.655,52.16,143.158z"/>
		<path style="fill-rule:evenodd;clip-rule:evenodd;fill:#7B491E;" d="M370.439,71.275c0-1.037,0.045-1.75-0.01-2.455
			c-0.092-1.19,0.928-1.329,1.619-1.714c0.917-0.511,1.386,0.322,1.975,0.806c2.137,1.755,1.052,3.756,0.487,5.734
			c-0.416,1.464-1.604,0.993-2.506,0.943C369.16,74.431,371.133,72.096,370.439,71.275z"/>
		<path style="fill-rule:evenodd;clip-rule:evenodd;fill:#7B491E;" d="M350.433,75.242c0.496-1.116,0.907-2.801,1.044-4.609
			c0.065-0.877,1.187-1.665,2.277-0.514c1.229,1.298,2.807,2.463,0.959,4.469c-0.368,0.4-0.475,1.145-0.498,1.738
			c-0.048,1.208-0.711,2.273-1.736,1.991C351.537,78.06,350.197,77.369,350.433,75.242z"/>
		<path style="fill-rule:evenodd;clip-rule:evenodd;fill:#7B491E;" d="M292.104,66.984c-1.146-0.046-1.963,0.04-2.792-0.423
			c-1.193-0.665-1.71-1.668-1.489-2.871c0.203-1.111,1.119-1.665,2.31-1.491c1.183,0.172,2.468-1.258,3.594,0.399
			c0.678,0.998,1.365,2.071,1.061,3.138C294.405,67.069,293.043,67.122,292.104,66.984z"/>
		<path style="fill-rule:evenodd;clip-rule:evenodd;fill:#7B491E;" d="M201.762,115.714c0.046,0.749,0.026,1.547-0.771,1.83
			c-0.651,0.23-1.3,0.094-1.958-0.427c-2.325-1.84-2.904-4.098-1.454-6.508c0.358-0.595,1.055-1.019,1.697-0.849
			c0.89,0.236,1.943,0.731,1.928,1.786C201.185,112.984,201.606,114.326,201.762,115.714z"/>
		<path style="fill-rule:evenodd;clip-rule:evenodd;fill:#7B491E;" d="M278.188,61.188c0.214,1.179-0.325,2.185-1.406,2.35
			c-1.086,0.166-2.547,1.319-3.369-0.524c-0.332-0.745-1.102-0.836-1.675-1.208c-1.162-0.755-1.562-1.657-0.708-2.858
			c0.784-1.104,1.774-0.799,2.562-0.103c0.83,0.735,1.416,1.119,2.652,0.58C277.476,58.888,278.382,59.638,278.188,61.188z"/>
		<path style="fill-rule:evenodd;clip-rule:evenodd;fill:#7B491E;" d="M379.814,110.874c1.245,0.525,2.159,1.525,2.758,2.525
			c0.618,1.032,1.061,2.194,1.843,3.146c0.476,0.58,0.562,1.156-0.011,1.658c-0.56,0.49-1.224,0.953-1.982,0.378
			c-1.8-1.363-3.611-2.753-4.259-5.063C377.773,112.127,378.491,111.307,379.814,110.874z"/>
		<path style="fill-rule:evenodd;clip-rule:evenodd;fill:#7B491E;" d="M368.046,121.269c0.022,1.683-2.126,4.608-3.392,4.745
			c-0.63,0.066-2.787-2.269-2.817-3.052c-0.057-1.412,2.624-3.791,4.413-3.693C367.382,119.33,368.315,119.952,368.046,121.269z"/>
		<path style="fill-rule:evenodd;clip-rule:evenodd;fill:#7B491E;" d="M252.403,38.468c0.011,1.134-2.231,3.726-3.369,3.887
			c-0.773,0.111-2.722-2.089-2.728-3.311c-0.005-0.905,0.3-1.827,1.363-2.171c0.36-0.117,0.81-0.176,1.043-0.426
			c0.689-0.734,1.577-1.536,2.413-0.857C251.887,36.209,252.39,37.323,252.403,38.468z"/>
		<path style="fill-rule:evenodd;clip-rule:evenodd;fill:#7B491E;" d="M175.017,57.429c0.934,0.07,2.245,1.21,3.472,2.37
			c0.608,0.575,0.53,1.466-0.14,2.116c-0.999,0.966-2.217,1.205-3.519,0.848c-1.383-0.379-2.201-1.574-2.982-2.595
			C170.886,58.911,172.209,57.384,175.017,57.429z"/>
		<path style="fill-rule:evenodd;clip-rule:evenodd;fill:#7B491E;" d="M293.898,24.38c0.767,0.83,1.56,1.578,2.837,1.539
			c0.811-0.024,1.024,0.981,1.272,1.485c0.5,1.02,0.816,1.997,1.817,2.778c0.71,0.555,0.698,1.816-0.093,2.532
			c-0.679,0.616-1.965,0.688-2.368,0.021c-1.516-2.503-3.91-4.624-3.829-7.9C293.538,24.721,293.709,24.609,293.898,24.38z"/>
		<path style="fill-rule:evenodd;clip-rule:evenodd;fill:#7B491E;" d="M128.603,161.072c-0.076-2.291,1.464-3.729,2.083-5.525
			c0.095-0.277,0.37-0.696,0.883-0.331c0.352,0.25,0.888,0.211,0.885,0.885c-0.004,1.176,0.549,2.217,1.007,3.26
			c0.489,1.114-0.126,1.798-0.941,2.188c-1.019,0.486-1.126,2.41-2.676,1.839C128.797,163.002,128.396,162.003,128.603,161.072z"/>
		<path style="fill-rule:evenodd;clip-rule:evenodd;fill:#7B491E;" d="M216.481,110.885c0.832-1.223,0.833-2.951,1.282-4.532
			c0.315-1.112,1.863-1.032,2.782-0.199c1.646,1.491,0.354,6.518-1.814,7.044C217.183,113.572,216.668,112.538,216.481,110.885z"/>
		<path style="fill-rule:evenodd;clip-rule:evenodd;fill:#7B491E;" d="M157.764,136.739c-0.053-0.655,0.266-1.206,0.412-1.798
			c0.309-1.257,0.076-2.943,2.153-2.397c1.654,0.435,2.601,2.635,1.99,4.193c-0.167,0.426-0.607,0.801-0.634,1.218
			c-0.096,1.503-1.132,2.208-2.292,1.952C157.901,139.579,157.912,138.011,157.764,136.739z"/>
		<path style="fill-rule:evenodd;clip-rule:evenodd;fill:#7B491E;" d="M228.496,141.163c-0.118-2.454,2.352-2.324,3.204-3.734
			c0.202-0.335,2.23,0.354,3.189,1.175c0.059,0.05,0.138,0.106,0.153,0.173c0.193,0.767,0.375,2.13-0.108,2.172
			c-1.983,0.173-2.832,2.753-4.957,2.238C228.896,142.925,228.494,141.967,228.496,141.163z"/>
		<path style="fill-rule:evenodd;clip-rule:evenodd;fill:#7B491E;" d="M259.575,167.747c-0.062-1.006,0.22-2.189,1.251-1.733
			c0.994,0.439,2.644,1.116,2.387,2.565c-0.227,1.272-0.357,2.802-1.66,3.704c-0.781,0.541-1.322,1.442-2.577,0.981
			c-1.136-0.418-1.585-1.291-1.751-2.255c-0.215-1.242,0.99-1.09,1.712-1.464C259.586,169.209,260.259,168.617,259.575,167.747z"/>
		<path style="fill-rule:evenodd;clip-rule:evenodd;fill:#7B491E;" d="M41.817,168.801c1.795-0.324,3.166,0.321,3.595,2.095
			c0.292,1.208-1.871,3.255-3.151,3.102c-1.745-0.21-3.002-0.865-3.059-3.037C39.148,168.876,40.142,168.534,41.817,168.801z"/>
		<path style="fill-rule:evenodd;clip-rule:evenodd;fill:#7B491E;" d="M279.552,62.202c0.245-1.684,0.956-2.946,2.794-2.844
			c2.193,0.121,2.29,2.083,2.488,3.577c0.239,1.804-1.339,2.509-2.707,2.528C280.139,65.49,279.852,63.752,279.552,62.202z"/>
		<path style="fill-rule:evenodd;clip-rule:evenodd;fill:#7B491E;" d="M229.123,128.621c2.023-0.024,3.101,1.033,3.229,2.862
			c0.125,1.772-1.098,2.366-2.329,2.795c-0.901,0.313-3.801-2.625-3.886-3.727C226.062,129.541,227.453,128.641,229.123,128.621z"/>
		<path style="fill-rule:evenodd;clip-rule:evenodd;fill:#7B491E;" d="M56.458,155.005c-0.365-2.41,1.485-2.495,3.254-2.62
			c1.084-0.077,2.005,1.223,2.004,2.743c-0.001,1.187-1.867,3.471-2.788,3.414C57.531,158.457,56.472,157.024,56.458,155.005z"/>
		<path style="fill-rule:evenodd;clip-rule:evenodd;fill:#7B491E;" d="M290.63,174.521c2.226-0.104,2.891,0.771,2.881,2.42
			c-0.012,1.896-1.093,3.547-2.646,3.546c-1.552-0.001-2.634-1.652-2.64-3.548C288.221,174.899,289.736,174.791,290.63,174.521z"/>
		<path style="fill-rule:evenodd;clip-rule:evenodd;fill:#7B491E;" d="M211.727,180.135c1.31,0.401,2.223,1.085,2.414,2.36
			c0.192,1.277-0.663,1.443-1.738,1.629c-1.004,0.174-2.05,0.495-2.871,1.318c-0.598,0.599-1.392,0.282-2.005-0.175
			c-0.692-0.517-0.524-1.073-0.216-1.842C208.149,181.333,210.192,181.112,211.727,180.135z"/>
		<path style="fill-rule:evenodd;clip-rule:evenodd;fill:#7B491E;" d="M338.437,111.736c0.146,2.028-1.374,3.349-1.146,5.178
			c0.084,0.679-0.929,0.926-1.687,0.529c-1.96-1.027-2.334-3.359-0.844-5.128c0.34-0.403,0.546-0.956,0.949-1.258
			c0.502-0.375,0.112-1.71,1.473-1.21C338.34,110.272,338.525,111.01,338.437,111.736z"/>
		<path style="fill-rule:evenodd;clip-rule:evenodd;fill:#7B491E;" d="M245.705,47.188c0.066,0.718-0.116,1.317-0.929,1.631
			c-0.695,0.27-1.248,0.644-1.717,1.356c-1.038,1.578-2.216,1.279-3.45-0.01c-1.138-1.188-1.047-2.224,0.303-2.877
			c1.214-0.588,2.453-1.158,3.692-1.686C244.797,45.094,245.796,45.542,245.705,47.188z"/>
		<path style="fill-rule:evenodd;clip-rule:evenodd;fill:#7B491E;" d="M332.214,124.506c0-0.664-0.138-1.135,0.026-1.444
			c0.439-0.823,0.607-1.962,1.833-2.077c1.225-0.114,1.138,1.001,1.533,1.683c0.816,1.406,0.232,3.057,0.816,4.526
			c0.112,0.283-0.188,1.252-0.938,1.4c-0.912,0.181-1.842-0.127-2.258-0.851C332.626,126.696,331.768,125.626,332.214,124.506z"/>
		<path style="fill-rule:evenodd;clip-rule:evenodd;fill:#7B491E;" d="M147.262,177.608c-0.015,1.599-1.818,3.056-3.766,3.112
			c-1.18,0.035-2.023-0.154-1.989-1.637c0.039-1.673,2.22-4.268,3.678-4.068C146.584,175.206,147.271,176.183,147.262,177.608z"/>
		<path style="fill-rule:evenodd;clip-rule:evenodd;fill:#7B491E;" d="M269.563,12.4c1.047-0.143,1.556,1.107,1.899,2.354
			c0.169,0.609-2.791,3.591-3.34,3.451c-1.651-0.423-2.238-1.699-2.339-3.252C265.636,12.667,267.276,12.582,269.563,12.4z"/>
		<path style="fill-rule:evenodd;clip-rule:evenodd;fill:#7B491E;" d="M366.482,81.304c-2.076,0.021-3.926-1.747-3.638-3.211
			c0.239-1.221,0.856-2.353,2.517-1.518c0.401,0.202,0.861,0.417,1.291,0.409c1.398-0.027,2.66-0.199,2.396,1.981
			C368.804,80.991,367.478,81.171,366.482,81.304z"/>
		<path style="fill-rule:evenodd;clip-rule:evenodd;fill:#7B491E;" d="M197.434,54.542c0.093-1.131-0.038-2.792,2.124-2.849
			c1.588-0.041,2.681,0.665,2.856,2.362c0.15,1.464-1.213,3.851-2.141,3.835C198.79,57.863,197.459,56.454,197.434,54.542z"/>
		<path style="fill-rule:evenodd;clip-rule:evenodd;fill:#7B491E;" d="M128.143,64.484c-0.387,0.894,0.917,2.746-1.371,2.949
			c-1.396,0.124-2.972-1.832-2.919-3.596c0.042-1.409,0.023-2.996,2.018-3.052C127.625,60.736,128.143,61.626,128.143,64.484z"/>
		<path style="fill-rule:evenodd;clip-rule:evenodd;fill:#7B491E;" d="M127.222,21.634c-2.417-0.103-3.378-1.275-4.062-2.507
			c-0.611-1.098,0.507-1.627,1.258-2.249c0.513-0.425,0.955-1.057,1.177-1.685c0.392-1.106,1.186-0.938,1.87-0.637
			c0.897,0.395,0.972,1.406,0.512,2.017c-0.81,1.075-1.081,1.858-0.214,3.113C128.13,20.218,128.039,21.703,127.222,21.634z"/>
		<path style="fill-rule:evenodd;clip-rule:evenodd;fill:#7B491E;" d="M240.06,149.17c-1.552,0.027-3.419-1.634-3.364-3.238
			c0.039-1.189,0.937-1.96,2.132-1.986c1.978-0.043,4.039,1.644,4.011,3.126C242.812,148.451,241.902,149.138,240.06,149.17z"/>
		<path style="fill-rule:evenodd;clip-rule:evenodd;fill:#7B491E;" d="M133.84,172.751c-0.184,0.867,1.037,2.31-0.59,2.602
			c-2.05,0.368-4.082-1.175-3.946-2.914c0.115-1.473,0.519-3.552,2.238-3.51C133.473,168.977,134.308,170.7,133.84,172.751z"/>
		<path style="fill-rule:evenodd;clip-rule:evenodd;fill:#7B491E;" d="M257.602,28.495c1.185,0.193,2.365,0.646,2.348,1.725
			c-0.022,1.442,1.173,3.042-0.281,4.36c-0.732,0.664-1.901,0.686-2.391,0.125c-1.057-1.211-1.917-2.715-1.342-4.453
			C256.196,29.465,256.647,28.635,257.602,28.495z"/>
		<path style="fill-rule:evenodd;clip-rule:evenodd;fill:#7B491E;" d="M205.106,117.198c-0.258-1.762,0.528-2.93,2.164-3.357
			c1.333-0.349,2.112,0.434,2.725,1.636c0.381,0.749,0.271,1.119-0.274,1.58c-0.667,0.564-1.553,0.921-1.374,2.141
			c0.067,0.458-0.618,0.992-1.234,0.784c-0.773-0.261-1.733-0.4-1.986-1.384C205.011,118.153,205.106,117.655,205.106,117.198z"/>
		<path style="fill-rule:evenodd;clip-rule:evenodd;fill:#7B491E;" d="M281.071,171.852c-0.383,1.036-0.978,2.252-2.1,2.962
			c-0.932,0.59-1.798,0.025-2.441-0.79c-0.393-0.497-0.92-0.655-1.47-0.366c-0.943,0.495-1.087-0.227-1.122-0.792
			c-0.037-0.594,0.104-1.045,1.045-0.951c1.461,0.146,2.15-1.486,3.512-1.854C279.954,169.666,281.048,170.184,281.071,171.852z"/>
		<path style="fill-rule:evenodd;clip-rule:evenodd;fill:#7B491E;" d="M250.959,63.795c-0.064-0.671,0.079-1.493,0.947-1.542
			c1.134-0.063,2.084-0.447,3.105-0.871c1.042-0.433,2.094,0.22,2.543,1.129c0.483,0.979-0.45,1.697-1.219,1.981
			c-0.6,0.222-1.241,0.303-1.582,0.87c-0.468,0.777-1.019,1.573-1.97,1.056C251.854,65.914,250.859,65.248,250.959,63.795z"/>
		<path style="fill-rule:evenodd;clip-rule:evenodd;fill:#7B491E;" d="M355.803,120.062c0.837,0.649,1.299,0.556,1.255-0.585
			c-0.029-0.728,0.293-1.187,1.024-1.358c0.791-0.187,0.87,0.478,1.104,0.92c0.337,0.639,0.592,1.464-0.117,1.864
			c-1.049,0.591-1.279,1.061-0.693,2.222c0.407,0.807-0.784,1.217-1.24,1.816c-0.613,0.809-1.224,0.04-1.625-0.203
			c-1.396-0.846-1.453-2.307-1.284-3.729C354.331,120.139,355.013,119.922,355.803,120.062z"/>
		<path style="fill-rule:evenodd;clip-rule:evenodd;fill:#7B491E;" d="M22.499,143.998c0.173,1.454-0.098,2.6-1.821,2.275
			c-1.687-0.317-3.701-0.863-3.759-2.839c-0.069-2.347,2.293-2.027,3.726-2.062C22.07,141.337,22.861,142.494,22.499,143.998z"/>
		<path style="fill-rule:evenodd;clip-rule:evenodd;fill:#7B491E;" d="M211.971,165.416c-1.283,0.186-2.006-0.804-2.391-1.62
			c-0.576-1.224-1.121-2.642-0.461-4.052c0.257-0.548,0.97-0.822,1.417-0.43c1.244,1.09,2.543,2.19,3.492,3.521
			C214.816,163.939,213.519,165.442,211.971,165.416z"/>
		<path style="fill-rule:evenodd;clip-rule:evenodd;fill:#7B491E;" d="M161.408,32.397c-0.597,1.323-0.088,3.586-2.124,3.374
			c-1.344-0.141-2.894-1.234-2.913-3.1c-0.014-1.293,1.986-3.141,3.152-2.948C161.071,29.979,161.081,31.365,161.408,32.397z"/>
		<path style="fill-rule:evenodd;clip-rule:evenodd;fill:#7B491E;" d="M46.384,162.473c0.321-1.962,1.821-2.584,3.324-2.697
			c0.883-0.067,2.499-0.241,2.454,1.608c-0.035,1.426-2.081,3.417-3.627,3.563C46.536,165.137,47.104,163.27,46.384,162.473z"/>
		<path style="fill-rule:evenodd;clip-rule:evenodd;fill:#7B491E;" d="M35.177,118.914c-1.763,1.032-0.166,3.658-2.345,4.409
			c-0.697,0.24-3.251-2.462-3.106-3.291c0.312-1.777,1.734-2.612,3.269-2.993C34.182,116.745,34.501,117.982,35.177,118.914z"/>
		<path style="fill-rule:evenodd;clip-rule:evenodd;fill:#7B491E;" d="M248.835,152.55c1.635-0.237,2.705,0.001,2.666,2.143
			c-0.035,1.915-1.024,2.553-2.572,2.564c-1.606,0.012-2.691-0.65-2.79-2.591C246.028,152.482,247.221,152.34,248.835,152.55z"/>
		<path style="fill-rule:evenodd;clip-rule:evenodd;fill:#7B491E;" d="M195.128,134.336c1.114,0.272,2.307,0.979,3.123,2.147
			c0.338,0.485,0.326,1.234-0.176,1.761c-0.425,0.444-0.996,1.271-1.525,0.826c-1.23-1.032-2.644-0.697-3.978-0.98
			c-1.102-0.235-1.221-1.482-0.676-2.09C192.613,135.199,193.511,134.306,195.128,134.336z"/>
		<path style="fill-rule:evenodd;clip-rule:evenodd;fill:#7B491E;" d="M152.995,176.063c0.139,1.705-0.833,2.914-2.592,3
			c-0.762,0.038-2.298-0.054-2.207-1.764c0.102-1.909,1.469-4.205,2.672-4.229C152.085,173.048,152.978,174.23,152.995,176.063z"/>
		<path style="fill-rule:evenodd;clip-rule:evenodd;fill:#7B491E;" d="M269.886,172.568c-1.22-0.033-2.487-1.106-3.602-2.29
			c-0.444-0.473-0.366-1.098,0.021-1.662c0.356-0.52,0.891-0.419,1.232-0.196c1.042,0.678,2.163,0.172,3.229,0.346
			c0.979,0.159,2.76-0.486,2.503,1.13C273.096,170.99,272.168,172.63,269.886,172.568z"/>
		<path style="fill-rule:evenodd;clip-rule:evenodd;fill:#7B491E;" d="M152.425,31.173c-2.166-0.085-4.071-0.362-4.091-2.371
			c-0.019-1.77,1.838-1.877,3.3-1.973c1.892-0.125,2.889,1.309,3.021,2.651C154.786,30.805,153.487,31.568,152.425,31.173z"/>
		<path style="fill-rule:evenodd;clip-rule:evenodd;fill:#7B491E;" d="M250.01,165.683c-0.107-1.206,0.422-1.736,1.649-1.71
			c1.786,0.036,4.197,1.888,4.017,3.318c-0.139,1.11-0.871,2.044-2.02,2.275C252.551,169.79,250.017,166.979,250.01,165.683z"/>
		<path style="fill-rule:evenodd;clip-rule:evenodd;fill:#7B491E;" d="M180.264,30.182c1.236,0.173,3.207-0.583,3.224,1.498
			c0.014,1.794-2.018,2.513-3.311,2.601c-1.064,0.072-3.348,0.049-3.223-2.127C177.066,30.2,178.588,29.916,180.264,30.182z"/>
		<path style="fill-rule:evenodd;clip-rule:evenodd;fill:#7B491E;" d="M141.031,62.27c-0.264-1.943,0.926-2.017,2.34-2.013
			c1.329,0.003,2.611,0.044,2.896,1.637c0.241,1.345-1.792,3.813-2.935,3.618C141.539,65.205,141.217,63.742,141.031,62.27z"/>
		<path style="fill-rule:evenodd;clip-rule:evenodd;fill:#7B491E;" d="M26.365,120.113c0.075,1.345-0.712,3.149-2.065,3.079
			c-1.88-0.098-2.365-2.078-2.237-3.885c0.067-0.938-0.607-2.389,1.389-2.168C25.121,117.323,26.469,117.762,26.365,120.113z"/>
		<path style="fill-rule:evenodd;clip-rule:evenodd;fill:#7B491E;" d="M29.129,147.722c-1.128-0.48-2.958-0.56-3.229-2.583
			c-0.176-1.312,0.569-2.107,1.902-2.166c1.544-0.068,4.458,1.921,4.215,2.92C31.719,147.115,30.803,147.795,29.129,147.722z"/>
		<path style="fill-rule:evenodd;clip-rule:evenodd;fill:#7B491E;" d="M336.044,134.205c-0.067,1.344-1.043,2.581-2.043,2.381
			c-1.411-0.283-2.783-1.235-2.796-3.237c-0.011-1.754,1.147-2.336,2.373-2.733C334.432,130.338,336.068,132.864,336.044,134.205z"
			/>
		<path style="fill-rule:evenodd;clip-rule:evenodd;fill:#7B491E;" d="M246.759,66.006c-1.054-0.06-3.001-2.611-2.942-3.965
			c0.042-0.962,0.659-1.649,1.59-1.693c1.575-0.075,4.054,1.725,3.937,2.704C249.188,64.348,247.691,66.059,246.759,66.006z"/>
		<path style="fill-rule:evenodd;clip-rule:evenodd;fill:#7B491E;" d="M201.26,134.289c-0.167-1.247,0.339-1.912,1.837-1.867
			c1.939,0.058,2.955,1.32,2.946,3.871c-0.003,0.893,0.04,1.816-1.204,1.871C203.489,138.224,201.281,135.889,201.26,134.289z"/>
		<path style="fill-rule:evenodd;clip-rule:evenodd;fill:#7B491E;" d="M118.607,39.458c0.179,1.561-1.652,2.323-1.923,2.034
			c-1.104-1.178-3.654,1.233-3.86-1.713c-0.159-2.285,1.605-2.666,3.002-2.801C117.215,36.843,118.491,37.736,118.607,39.458z"/>
		<path style="fill-rule:evenodd;clip-rule:evenodd;fill:#7B491E;" d="M357.059,110.177c-0.138-1.402,0.71-1.8,1.91-1.61
			c1.809,0.284,2.823,1.714,2.703,3.235c-0.064,0.811,0.461,2.845-1.497,2.841C358.786,114.641,356.961,111.874,357.059,110.177z"/>
		<path style="fill-rule:evenodd;clip-rule:evenodd;fill:#7B491E;" d="M360.812,97.072c2.263,0.102,4.596,2.217,4.334,3.245
			c-0.255,0.998-0.927,1.616-2.066,1.542c-1.814-0.118-4.185-1.852-4.075-3.135C359.098,97.636,359.603,96.752,360.812,97.072z"/>
		<path style="fill-rule:evenodd;clip-rule:evenodd;fill:#7B491E;" d="M97.35,36.958c1.063,0.674,2.448,1.139,2.583,2.721
			c0.098,1.145-2.094,3.001-3.513,2.884c-1.179-0.098-1.762-0.901-1.73-2.112C94.735,38.654,95.786,37.615,97.35,36.958z"/>
		<path style="fill-rule:evenodd;clip-rule:evenodd;fill:#7B491E;" d="M106.709,41.698c-0.19,2.034-1.583,2.839-3.194,3.249
			c-0.965,0.245-2.119-0.367-1.792-1.362c0.504-1.535,0.155-3.87,2.381-4.26C105.628,39.058,106.312,40.402,106.709,41.698z"/>
		<path style="fill-rule:evenodd;clip-rule:evenodd;fill:#7B491E;" d="M345.106,88.551c0.56,0.147,1.412,0.652,2.008,1.637
			c0.511,0.845,0.557,1.532-0.072,2.36c-0.465,0.612-1.202,1.145-0.761,2.231c0.185,0.455-0.337,1.341-1.211,1.014
			c-0.504-0.189-1.822-0.322-0.988-1.21c1.552-1.652,0.063-2.625-0.69-3.545c-0.438-0.534-0.91-0.844-0.497-1.459
			C343.274,89.014,343.715,88.366,345.106,88.551z"/>
		<path style="fill-rule:evenodd;clip-rule:evenodd;fill:#7B491E;" d="M211.657,133.877c-1.959,0.385-2.459-1.555-2.504-2.578
			c-0.092-2.096,2.118-1.832,3.459-2.129c1.244-0.275,2.168,0.68,1.98,1.966C214.374,132.634,213.731,134.015,211.657,133.877z"/>
		<path style="fill-rule:evenodd;clip-rule:evenodd;fill:#7B491E;" d="M336.537,45.233c0.082,1.664-1.264,2.207-2.283,2.039
			c-1.503-0.248-2.917-1.098-3.012-3.032c-0.082-1.647,1.232-2.175,2.261-2.015C335.021,42.462,336.384,43.381,336.537,45.233z"/>
		<path style="fill-rule:evenodd;clip-rule:evenodd;fill:#7B491E;" d="M354.021,62.158c1.808,0.189,2.482,1.689,2.449,3.025
			c-0.035,1.443-0.853,3.645-2.419,3.384c-2.406-0.4-0.768-3.184-1.677-4.737C352.06,63.29,352.668,62.016,354.021,62.158z"/>
		<path style="fill-rule:evenodd;clip-rule:evenodd;fill:#7B491E;" d="M199.396,118.186c1.381-0.165,1.451,0.995,1.763,1.655
			c0.349,0.738-2.389,3.566-3.383,3.487c-1.725-0.138-1.753-1.828-2.165-2.929C195.191,119.275,196.898,118.361,199.396,118.186z"/>
		<path style="fill-rule:evenodd;clip-rule:evenodd;fill:#7B491E;" d="M340.991,134.348c1.123-0.011,3.232,2.673,3.145,4.067
			c-0.056,0.89-0.667,1.476-1.468,1.613c-0.936,0.162-3.779-2.671-3.76-3.661C338.933,135.031,339.672,134.371,340.991,134.348z"/>
		<path style="fill-rule:evenodd;clip-rule:evenodd;fill:#7B491E;" d="M210.822,172.396c-0.204-1.322,1.199-2.077,1.214-3.421
			c0.004-0.33,1.552-0.468,2.257,0.204c0.697,0.665,1.605,1.333,0.992,2.502c-0.282,0.535-1.03,0.762-1.108,1.465
			c-0.12,1.083-0.822,1.99-1.762,1.729C211.484,174.615,210.743,173.618,210.822,172.396z"/>
		<path style="fill-rule:evenodd;clip-rule:evenodd;fill:#7B491E;" d="M41.174,117.938c-0.012-0.855-0.203-1.813,0.59-1.997
			c0.559-0.13,1.289,0.379,1.783,0.948c1.019,1.174,2.12,2.261,1.941,4.035c-0.071,0.699-0.221,1.288-0.934,1.437
			c-0.598,0.125-1.252,0.177-1.724-0.445C41.897,120.686,40.748,119.553,41.174,117.938z"/>
		<path style="fill-rule:evenodd;clip-rule:evenodd;fill:#7B491E;" d="M127.333,40.865c-0.444,1.298,0.606,3.155-1.518,3.112
			c-1.83-0.037-2.758-1.592-2.852-3.153c-0.109-1.817,1.58-2.379,3.015-2.476C128.554,38.175,126.22,40.42,127.333,40.865z"/>
		<path style="fill-rule:evenodd;clip-rule:evenodd;fill:#7B491E;" d="M17.749,126.254c0,0.67-0.087,1.243,0.018,1.779
			c0.225,1.146-0.857,1.181-1.374,1.618c-0.732,0.619-1.052-0.342-1.376-0.698c-1.758-1.93-1.781-3.192-0.36-4.274
			c0.817-0.624,1.736-1.355,2.619-0.938C18.283,124.216,17.543,125.478,17.749,126.254z"/>
		<path style="fill-rule:evenodd;clip-rule:evenodd;fill:#7B491E;" d="M173.088,49.785c0.923,0.656,2.353,1.136,2.342,2.8
			c-0.008,1.288-0.746,2.025-2.094,1.954c-1.629-0.085-3.739-1.702-3.606-2.724C169.795,51.315,172.201,49.744,173.088,49.785z"/>
		<path style="fill-rule:evenodd;clip-rule:evenodd;fill:#7B491E;" d="M138.185,139.27c0.343-0.562-0.671-1.7,0.669-2.029
			c1.024-0.251,1.501,0.586,2.24,1.069c1.674,1.097,0.782,2.588,0.964,3.86c0.115,0.805-0.679,1.521-1.588,1.228
			c-1.201-0.387-1.834-1.471-2.259-2.597C138.054,140.386,138.185,139.862,138.185,139.27z"/>
		<path style="fill-rule:evenodd;clip-rule:evenodd;fill:#7B491E;" d="M159.924,146.062c0.495,1.107,2.596,0.635,2.603,2.421
			c0.006,1.639-1.208,2.638-2.536,2.991c-1.311,0.35-1.937-1.064-2.493-2.009C157.131,148.842,159.044,146.138,159.924,146.062z"/>
		<path style="fill-rule:evenodd;clip-rule:evenodd;fill:#7B491E;" d="M142.914,141.298c-0.07-0.81,0.22-2.147,1.871-2.102
			c1.562,0.044,2.369,1.105,2.512,2.796c0.189,2.242-1.584,2.145-2.784,2.333C142.594,144.626,143.027,143.003,142.914,141.298z"/>
		<path style="fill-rule:evenodd;clip-rule:evenodd;fill:#7B491E;" d="M206.549,192.958c-0.086,1.264-0.717,2.093-1.721,2.028
			c-1.502-0.097-3.007-1.263-2.856-2.535c0.153-1.294,1.127-3.44,2.719-3.272C206.614,189.383,205.663,191.877,206.549,192.958z"/>
		<path style="fill-rule:evenodd;clip-rule:evenodd;fill:#7B491E;" d="M100.091,28.703c1.593,0.263,2.666,0.975,2.744,2.84
			c0.083,1.981-1.718,1.709-2.491,1.686c-1.382-0.042-2.729-0.97-2.742-2.628C97.589,29.126,98.656,28.614,100.091,28.703z"/>
		<path style="fill-rule:evenodd;clip-rule:evenodd;fill:#7B491E;" d="M144.236,55.505c-2.036-0.037-3.908-1.387-3.612-2.667
			c0.27-1.167,1.086-2.297,2.459-2.063c1.744,0.297,2.532,1.717,2.714,3.37C145.93,55.346,145.05,55.561,144.236,55.505z"/>
		<path style="fill-rule:evenodd;clip-rule:evenodd;fill:#7B491E;" d="M360.412,89.184c-0.025,0.778-0.602,1.501-1.628,1.648
			c-1.237,0.177-3.797-1.735-3.596-2.675c0.242-1.128,0.735-2.278,2.065-2.515C358.188,85.476,360.355,87.803,360.412,89.184z"/>
		<path style="fill-rule:evenodd;clip-rule:evenodd;fill:#7B491E;" d="M60.227,139.156c1.382,0.48,2.071,1.89,2.389,3.376
			c0.228,1.065-0.655,1.769-1.698,1.824c-1.519,0.079-3.072-1.625-3.024-3.15C57.933,139.941,58.791,139.064,60.227,139.156z"/>
		<path style="fill-rule:evenodd;clip-rule:evenodd;fill:#7B491E;" d="M295.354,12.047c-1.806-0.083-2.312-0.967-2.368-2.474
			c-0.063-1.723,0.857-1.892,2.222-1.886c1.559,0.007,3.006,0.457,2.97,2.101C298.142,11.375,296.481,11.7,295.354,12.047z"/>
		<path style="fill-rule:evenodd;clip-rule:evenodd;fill:#7B491E;" d="M107.471,23.027c2.042-0.564,2.326,1.228,2.354,2.443
			c0.019,0.786-0.066,2.441-1.91,2.345c-2.118-0.111-2.455-1.615-2.685-3.155C104.987,23.029,106.145,22.918,107.471,23.027z"/>
		<path style="fill-rule:evenodd;clip-rule:evenodd;fill:#7B491E;" d="M116.091,15.852c0.285-1.31,0.25-2.644,1.85-2.376
			c1.797,0.301,2.36,1.868,2.487,3.346c0.108,1.262-1.016,2.419-2.156,2.257C116.513,18.83,116.801,16.828,116.091,15.852z"/>
		<path style="fill-rule:evenodd;clip-rule:evenodd;fill:#7B491E;" d="M57.892,111.272c-0.246,0.885-0.823,1.646-2.051,1.567
			c-2.323-0.147-2.246-2.204-2.671-3.683c-0.37-1.286,0.883-1.442,1.772-1.538C56.109,107.494,57.812,109.558,57.892,111.272z"/>
		<path style="fill-rule:evenodd;clip-rule:evenodd;fill:#7B491E;" d="M167.956,30.633c2.346,0.445,1.66,2.516,2.091,3.818
			c0.259,0.786-0.952,1.788-1.957,1.39c-1.103-0.436-2.728-0.676-2.65-2.433C165.512,31.776,166.636,31.023,167.956,30.633z"/>
		<path style="fill-rule:evenodd;clip-rule:evenodd;fill:#7B491E;" d="M265.328,59.318c1.922-0.066,2.547,1.242,2.708,2.499
			c0.078,0.612-0.467,2.137-1.684,1.738c-1.451-0.476-3.77-0.162-3.846-2.467C262.444,59.16,264.52,59.952,265.328,59.318z"/>
		<path style="fill-rule:evenodd;clip-rule:evenodd;fill:#7B491E;" d="M39.525,142.839c0.153,0.296,0.304,0.91,0.692,1.268
			c0.622,0.574,0.133,1.122-0.08,1.398c-0.653,0.844-1.253,1.528-0.459,2.661c0.324,0.462-0.062,1.08-0.62,1.356
			c-0.899,0.447-1.845,0.054-2.362-0.488c-0.534-0.56-1.578-0.998-1.266-2.17c0.273-1.023,1.006-1.118,1.826-1.03
			c1.116,0.12,1.093-0.586,1.039-1.333C38.253,143.92,38.354,143.42,39.525,142.839z"/>
		<path style="fill-rule:evenodd;clip-rule:evenodd;fill:#7B491E;" d="M354.824,129.141c-0.502,1.266,0.653,3.15-1.364,3.221
			c-1.905,0.067-2.548-1.651-2.557-3.234c-0.008-1.498,1.066-2.386,2.614-2.405C355.899,126.692,353.868,128.655,354.824,129.141z"
			/>
		<path style="fill-rule:evenodd;clip-rule:evenodd;fill:#7B491E;" d="M156.073,174.977c-1.313,0.137-1.834-0.993-1.552-1.714
			c0.559-1.431,0.453-3.614,2.606-3.818c1.071-0.102,1.768,1.012,1.946,2.019C159.282,172.64,157.137,174.995,156.073,174.977z"/>
		<path style="fill-rule:evenodd;clip-rule:evenodd;fill:#7B491E;" d="M297.415,18.222c0.251,0.901-0.756,1.808-1.766,1.671
			c-1.22-0.165-2.604-1.042-2.577-2.587c0.023-1.322,0.618-2.917,2.161-2.799C296.812,14.627,297.217,16.223,297.415,18.222z"/>
		<path style="fill-rule:evenodd;clip-rule:evenodd;fill:#7B491E;" d="M323.318,43.609c1.38,0.184,2.95,0.426,3.117,2.292
			c0.143,1.596-1.398,2.43-2.385,2.279c-1.499-0.231-2.561-1.704-2.718-3.26C321.258,44.179,321.9,43.055,323.318,43.609z"/>
		<path style="fill-rule:evenodd;clip-rule:evenodd;fill:#7B491E;" d="M63.584,107.771c0.416,1.548-0.817,3.053-1.603,2.905
			c-1.226-0.229-2.652-1.282-2.655-3.075c-0.002-1.526,1.307-2.195,2.278-2.261C62.854,105.257,64.001,106.098,63.584,107.771z"/>
		<path style="fill-rule:evenodd;clip-rule:evenodd;fill:#7B491E;" d="M201.733,44.175c0.025,1.165,0.116,2.408-1.439,2.208
			c-1.513-0.195-2.813-0.768-2.888-2.729c-0.063-1.658,0.852-1.975,2.158-2.009C201.415,41.596,201.853,42.715,201.733,44.175z"/>
		<path style="fill-rule:evenodd;clip-rule:evenodd;fill:#7B491E;" d="M351.284,135.554c-0.027,1.648-0.997,2.126-2.422,1.372
			c-1.798-0.95-2.356-2.573-1.36-3.981c0.601-0.848,1.482-1.135,2.438-0.932c0.863,0.183,0.919,0.941,0.915,1.705
			C350.852,134.409,350.592,135.18,351.284,135.554z"/>
		<path style="fill-rule:evenodd;clip-rule:evenodd;fill:#7B491E;" d="M134.393,179.055c-0.63-2.048,1.095-2.421,2.351-2.488
			c0.708-0.037,2.366-0.037,2.378,1.606c0.005,0.64-2.677,3.258-3.34,3.23C134.234,181.339,134.242,180.261,134.393,179.055z"/>
		<path style="fill-rule:evenodd;clip-rule:evenodd;fill:#7B491E;" d="M112.661,21.619c-1.464-0.521-2.462-1.655-2.6-3.184
			c-0.085-0.943,0.766-1.749,1.907-1.624c1.684,0.184,2.707,1.168,2.768,2.882C114.78,20.937,113.918,21.461,112.661,21.619z"/>
		<path style="fill-rule:evenodd;clip-rule:evenodd;fill:#7B491E;" d="M341.227,104.229c-1.966,0.37-2.375-1.271-2.576-2.557
			c-0.096-0.613-0.05-2.171,1.472-2.196c1.232-0.021,3.018,1.812,3.086,3.069C343.284,103.964,342.556,104.379,341.227,104.229z"/>
		<path style="fill-rule:evenodd;clip-rule:evenodd;fill:#7B491E;" d="M225.189,178.751c-0.129,0.213-0.222,0.547-0.362,0.569
			c-1.673,0.256-2.986,1.01-4.16,2.279c-0.474,0.512-1.618-0.1-2.017-0.669c-0.407-0.58-0.386-1.474,0.125-2.194
			c0.586-0.829,1.132-0.162,1.59,0.087c0.85,0.461,0.813,0.08,1.055-0.633c0.436-1.289,1.704-0.784,2.658-0.79
			C224.893,177.395,224.702,178.343,225.189,178.751z"/>
		<path style="fill-rule:evenodd;clip-rule:evenodd;fill:#7B491E;" d="M267.854,23.867c-0.299,1.119,0.139,2.565-1.628,2.482
			c-0.842-0.039-3.049-2.564-2.756-3.415c0.267-0.774,0.436-1.934,1.754-1.831C266.543,21.207,267.943,22.77,267.854,23.867z"/>
		<path style="fill-rule:evenodd;clip-rule:evenodd;fill:#7B491E;" d="M83.11,102.371c2.833,0.028,3.904,0.454,3.614,1.404
			c-0.428,1.402-0.648,3.291-2.658,3.287c-1.659-0.003-1.876-1.355-1.812-2.741C82.296,103.451,82.171,102.538,83.11,102.371z"/>
		<path style="fill-rule:evenodd;clip-rule:evenodd;fill:#7B491E;" d="M191.33,32.081c1.519,0.039,3.399,1.901,3.097,3.114
			c-0.202,0.807-0.651,2.08-1.882,1.618c-1.285-0.48-2.781-0.966-2.771-2.872C189.779,32.686,190.103,31.903,191.33,32.081z"/>
		<path style="fill-rule:evenodd;clip-rule:evenodd;fill:#7B491E;" d="M129.579,150.923c-0.109-1.409,0.197-2.602,1.872-2.682
			c1.204-0.058,2.208,0.801,1.853,1.858c-0.385,1.143,0.468,3.203-1.696,3.332C129.988,153.528,129.477,152.391,129.579,150.923z"/>
		<path style="fill-rule:evenodd;clip-rule:evenodd;fill:#7B491E;" d="M128.248,47.113c-0.418,1.166,0.663,2.841-1.383,3.113
			c-0.853,0.113-1.559,0.028-2.126-0.973c-0.906-1.599,0.327-2.362,0.846-3.504c0.495-1.09,1.302-0.846,1.945-0.706
			C128.897,45.339,127.658,46.561,128.248,47.113z"/>
		<path style="fill-rule:evenodd;clip-rule:evenodd;fill:#7B491E;" d="M14.447,135.832c-0.112-1.642,0.109-2.627,1.434-2.396
			c1.478,0.258,2.567,1.284,2.768,2.754c0.173,1.271-0.699,2.038-2.044,1.98C14.729,138.09,14.647,136.602,14.447,135.832z"/>
		<path style="fill-rule:evenodd;clip-rule:evenodd;fill:#7B491E;" d="M144.87,27.201c0.043,0.92-0.292,1.489-1.309,1.544
			c-1.374,0.075-3.532-1.616-3.438-2.862c0.065-0.854,0.098-1.929,1.436-1.92C142.525,23.97,144.811,26.203,144.87,27.201z"/>
		<path style="fill-rule:evenodd;clip-rule:evenodd;fill:#7B491E;" d="M86.774,110.485c1.771-0.308,2.177,0.764,2.172,2.17
			c-0.004,1.296-0.356,2.169-2,2.15c-1.729-0.019-2.153-1.122-2.244-2.371C84.607,111.134,85.203,110.17,86.774,110.485z"/>
		<path style="fill-rule:evenodd;clip-rule:evenodd;fill:#7B491E;" d="M53.148,115.126c-0.145,1.674-1.358,1.988-2.169,1.361
			c-1.024-0.79-2.137-1.671-2.748-2.947c-0.435-0.907,0.126-1.489,0.675-1.917c0.498-0.387,0.915-0.204,1.479,0.422
			C51.337,113.099,52.815,113.679,53.148,115.126z"/>
		<path style="fill-rule:evenodd;clip-rule:evenodd;fill:#7B491E;" d="M194.114,124.563c0.098,1.642-1.173,2.075-2.263,2.054
			c-0.973-0.02-2.129-0.464-2.081-1.985c0.047-1.496,0.946-2.562,2.148-2.589C193.156,122.014,194.044,123.142,194.114,124.563z"/>
		<path style="fill-rule:evenodd;clip-rule:evenodd;fill:#7B491E;" d="M271.188,7.219c-1.585,0.312-1.982-0.698-2.061-2.014
			c-0.076-1.302,0.505-2.265,1.836-2.225c1.521,0.046,2.348,1.056,2.462,2.599C273.549,7.26,272.447,7.312,271.188,7.219z"/>
		<path style="fill-rule:evenodd;clip-rule:evenodd;fill:#7B491E;" d="M350.443,78.034c1.076,0.693,2.606,1.263,2.729,2.93
			c0.071,0.978-0.592,1.929-1.61,2.213c-0.808,0.225-3.216-2.552-2.991-3.535C348.748,78.869,349.407,78.227,350.443,78.034z"/>
		<path style="fill-rule:evenodd;clip-rule:evenodd;fill:#7B491E;" d="M209.862,151.828c0.047-0.898-0.265-2.021,1.143-2.161
			c1.015-0.102,2.802,2.142,2.651,3.415c-0.092,0.774-0.106,1.938-1.314,1.784C210.667,154.653,209.716,153.637,209.862,151.828z"/>
		<path style="fill-rule:evenodd;clip-rule:evenodd;fill:#7B491E;" d="M127.201,56.659c0.001-0.002,0.106,0.917-0.845,1.072
			c-1.144,0.187-3.484-1.778-3.452-2.871c0.04-1.366,1.289-1.673,2.137-1.669C126.679,53.197,127.443,54.356,127.201,56.659z"/>
		<path style="fill-rule:evenodd;clip-rule:evenodd;fill:#7B491E;" d="M359.923,83.132c-0.308-1.14,0.593-1.851,1.463-1.718
			c1.5,0.229,2.254,1.385,2.391,2.993c0.121,1.422-0.909,1.764-1.801,2.079C361.226,86.751,359.927,84.61,359.923,83.132z"/>
		<path style="fill-rule:evenodd;clip-rule:evenodd;fill:#7B491E;" d="M140.638,157.346c0.198,0.727-0.215,1.772-1.395,1.752
			c-1.432-0.026-2.52-1.142-2.409-2.567c0.088-1.135,1.022-2.125,2.408-2.086C141.013,154.495,140.453,155.902,140.638,157.346z"/>
		<path style="fill-rule:evenodd;clip-rule:evenodd;fill:#7B491E;" d="M119.521,6.785c1.098,0.02,2.946,1.972,2.891,2.987
			c-0.065,1.214-1.032,1.629-1.859,1.483c-1.407-0.249-2.337-1.172-2.473-2.784C117.98,7.283,118.786,7.106,119.521,6.785z"/>
		<path style="fill-rule:evenodd;clip-rule:evenodd;fill:#7B491E;" d="M288.691,22.505c1.464,0.953,1.101,2.403,0.824,3.685
			c-0.124,0.578-1.144,1.154-1.647,0.833c-1.181-0.753-2.223-1.849-1.963-3.421c0.114-0.696,0.438-1.72,1.68-1.152
			c0.334,0.152,0.771,0.079,1.16,0.109L288.691,22.505z"/>
		<path style="fill-rule:evenodd;clip-rule:evenodd;fill:#7B491E;" d="M214.643,142.446c-0.069-1.318,0.477-2.362,1.757-2.281
			c1.297,0.082,1.93,1.364,1.999,2.504c0.078,1.28-0.881,2.224-2.152,2.131C214.983,144.708,214.516,143.646,214.643,142.446z"/>
		<path style="fill-rule:evenodd;clip-rule:evenodd;fill:#7B491E;" d="M234.676,60.873c-0.009-1.144,0.574-1.748,1.626-1.513
			c1.374,0.307,2.459,1.29,2.627,2.64c0.115,0.918-0.774,1.781-1.897,1.597C235.555,63.354,234.789,62.349,234.676,60.873z"/>
		<path style="fill-rule:evenodd;clip-rule:evenodd;fill:#7B491E;" d="M317.863,44.229c0.065,1.09-0.295,1.84-1.43,1.69
			c-1.477-0.195-2.247-1.11-2.409-2.635c-0.136-1.268,0.901-2.022,1.555-1.867C316.861,41.724,318.017,42.62,317.863,44.229z"/>
		<path style="fill-rule:evenodd;clip-rule:evenodd;fill:#7B491E;" d="M79.557,110.008c-0.989-0.325-1.811-0.659-1.599-1.897
			c0.238-1.389,1.005-2.358,2.404-2.349c0.722,0.004,1.739,0.47,1.405,1.641C81.424,108.602,80.956,109.753,79.557,110.008z"/>
		<path style="fill-rule:evenodd;clip-rule:evenodd;fill:#7B491E;" d="M238.544,56.429c-0.131-1.198,0.244-1.881,1.676-1.911
			c1.98-0.042,1.454,1.731,1.94,2.671c0.163,0.316-0.409,1.926-1.555,1.592C239.591,58.485,238.294,58.063,238.544,56.429z"/>
		<path style="fill-rule:evenodd;clip-rule:evenodd;fill:#7B491E;" d="M260.36,61.859c0.885,0.703,2.41,0.753,2.528,2.266
			c0.093,1.187-1.197,2.3-1.668,2.124c-1.1-0.413-2.194-1.25-2.179-2.864C259.052,62.352,259.602,62.122,260.36,61.859z"/>
		<path style="fill-rule:evenodd;clip-rule:evenodd;fill:#7B491E;" d="M349.026,83.213c0.755,0.722,1.844,1.18,1.848,2.644
			c0.004,1.32-0.872,1.626-1.77,1.613c-1.345-0.019-1.645-0.937-1.661-2.225C347.429,84.074,347.891,83.557,349.026,83.213z"/>
		<path style="fill-rule:evenodd;clip-rule:evenodd;fill:#7B491E;" d="M283.306,23.342c-1.214-0.243-1.986-1.091-2.142-2.162
			c-0.11-0.762,0.67-1.474,1.509-1.476c1.198-0.002,2.086,0.771,2.133,1.932C284.84,22.446,284.064,23.064,283.306,23.342z"/>
		<path style="fill-rule:evenodd;clip-rule:evenodd;fill:#7B491E;" d="M284.377,174.415c0.096,0.815-0.182,1.187-0.771,1.011
			c-1.369-0.407-1.805-1.551-2.061-2.817c-0.212-1.049,0.857-1.381,1.237-1.342C284.987,171.489,283.127,173.832,284.377,174.415z"
			/>
		<path style="fill-rule:evenodd;clip-rule:evenodd;fill:#7B491E;" d="M363.824,93.259c0.679-0.042,1.464-0.151,1.379,1.124
			c-0.064,0.969-0.188,1.736-1.384,1.738c-1.113,0.002-1.853-0.611-1.937-1.637C361.782,93.258,362.79,93.235,363.824,93.259z"/>
		<path style="fill-rule:evenodd;clip-rule:evenodd;fill:#7B491E;" d="M231.732,186.479c-0.679-0.733-1.841-1.124-1.76-2.308
			c0.081-1.192,1.092-1.078,1.95-1.07c1.214,0.011,1.287,1.012,1.301,1.771C233.238,185.694,232.507,186.147,231.732,186.479z"/>
		<path style="fill-rule:evenodd;clip-rule:evenodd;fill:#7B491E;" d="M160.5,165.604c-0.149,0.824-1.167,1.13-1.535,1.046
			c-0.71-0.161-1.643-0.41-1.705-1.597c-0.06-1.143,0.823-1.466,1.419-1.444C159.711,163.646,160.055,164.731,160.5,165.604z"/>
		<path style="fill-rule:evenodd;clip-rule:evenodd;fill:#7B491E;" d="M160.634,144.32c-0.034,0.61-0.5,0.915-1.324,1.05
			c-1.324,0.217-1.046-0.908-1.259-1.478c-0.275-0.734,0.67-1.338,0.969-1.224C159.644,142.909,160.62,143.034,160.634,144.32z"/>
		<path style="fill-rule:evenodd;clip-rule:evenodd;fill:#7B491E;" d="M113.349,10.952c-0.051,1.052-0.439,1.58-1.316,1.516
			c-0.729-0.053-1.177-0.525-1.064-1.262c0.128-0.835,0.696-1.528,1.528-1.492C113.162,9.743,113.414,10.466,113.349,10.952z"/>
		<path style="fill-rule:evenodd;clip-rule:evenodd;fill:#7B491E;" d="M288.745,22.559c-0.065-0.299-0.053-0.65-0.21-0.889
			c-0.626-0.944-0.016-1.34,0.727-1.486c0.515-0.102,1.401-0.372,1.347,0.71c-0.035,0.675,0.454,1.741-0.966,1.634
			c-0.315-0.024-0.634-0.017-0.951-0.023L288.745,22.559z"/>
		<path style="fill-rule:evenodd;clip-rule:evenodd;fill:#7B491E;" d="M137.676,141.021c0.081,0.815-0.284,1.342-0.839,1.385
			c-0.748,0.058-1.06-0.549-1.041-1.269c0.012-0.442-0.146-1.008,0.598-1.037C137.149,140.071,137.552,140.468,137.676,141.021z"/>
		<path style="fill-rule:evenodd;clip-rule:evenodd;fill:#7B491E;" d="M98.639,163.016c-0.499-0.018-0.608-0.326-0.596-0.759
			c0.014-0.475,0.26-0.65,0.708-0.658c0.634-0.011,0.741,0.366,0.701,0.883C99.41,163.017,99.03,163.02,98.639,163.016z"/>
		<path style="fill-rule:evenodd;clip-rule:evenodd;fill:#7B491E;" d="M313.014,59.113c-0.49,0.27-1.146,0.381-1.262-0.025
			c-0.245-0.856,0.268-0.541,0.662-0.269C312.582,58.935,312.783,59.002,313.014,59.113z"/>
		<path style="fill-rule:evenodd;clip-rule:evenodd;fill:#7B491E;" d="M102.058,161.67c0.409,0.455,0.298,0.843,0.081,1.287
			C101.727,162.503,101.843,162.114,102.058,161.67z"/>
	</g>
</g>
</svg>
