<?xml version="1.0" encoding="iso-8859-1"?>
<!-- Generator: Adobe Illustrator 16.0.0, SVG Export Plug-In . SVG Version: 6.00 Build 0)  -->
<!DOCTYPE svg PUBLIC "-//W3C//DTD SVG 1.1//EN" "http://www.w3.org/Graphics/SVG/1.1/DTD/svg11.dtd">
<svg version="1.1" id="Layer_1" xmlns="http://www.w3.org/2000/svg" xmlns:xlink="http://www.w3.org/1999/xlink" x="0px" y="0px"
	 width="401.103px" height="210.912px" viewBox="0 0 401.103 210.912" style="enable-background:new 0 0 401.103 210.912;"
	 xml:space="preserve">
<g>
	<g>
		<path style="fill:none;" d="M200.551,210.36c-65.85,0-131.698-0.012-197.548,0.052c-2.043,0.001-2.505-0.461-2.503-2.504
			c0.062-68.302,0.062-136.604,0-204.905C0.498,0.96,0.96,0.5,3.003,0.5c131.698,0.057,263.397,0.057,395.095,0
			c2.043,0,2.506,0.46,2.504,2.503c-0.062,68.301-0.062,136.603,0,204.905c0.002,2.043-0.46,2.505-2.504,2.504
			C332.25,210.349,266.4,210.36,200.551,210.36z M112.268,44.2c0-3.161,0.152-5.714-0.04-8.241c-0.22-2.892-0.863-5.756-2.231-8.339
			c-0.997-1.881-3.181-2.501-4.769-3.765c-5.292-4.212-10.906-7.827-18.134-7.527c-1.698,0.07-3.4,0.564-5.017,0.476
			c-3.556-0.194-6.668,0.443-9.396,2.837c-0.898,0.789-1.824,1.27-3.342,0.688c-2.001-0.768-4.328-1.103-5.777,1.395
			c-0.493,0.85-1.432,0.53-2.213,0.641c-2.538,0.36-5.105,0.398-7.628,0.979c-5.182,1.193-9.149,4.281-13.157,7.576
			c-5.118,4.207-10.307,8.282-14.428,13.532c-3.976,5.065-7.595,10.402-10.25,16.247c-3.01,6.625-3.177,13.517-2.555,20.898
			c0.729,8.653,6.666,12.42,12.172,16.853c1.493,1.202,3.007,2.777,4.942,3.411c2.144,0.702,3.575,2.16,4.995,3.785
			c2.738,3.131,5.389,6.381,8.906,8.707c3.386,2.237,7.427,3.152,10.899,5.139c1.902,1.089,3.444,1.2,5.226,0.398
			c2.551-1.147,5.125-1.855,7.994-1.681c2.186,0.133,4.322,0.063,6.57-0.815c2.324-0.909,4.691-1.98,7.223-2.402
			c4.708-0.786,8.284-3.593,11.807-6.552c2.648-2.224,4.375-5.552,7.596-6.987c3.759-1.676,5.978-4.956,8.133-7.934
			c5.636-7.786,6.736-16.658,4.383-25.957c-1.079-4.264-3.324-8.384-2.391-12.929C112.545,50.934,112.007,47.256,112.268,44.2z
			 M216.325,200.601c5.645-0.397,10.792-2.964,16.338-3.903c3.957-0.669,6.94-3.576,10.407-5.367
			c3.164-1.635,7.109-2.522,9.337-5.142c3.097-3.643,6.438-6.843,10.104-9.853c1.638-1.345,2.437-3.677,4-5.156
			c2.968-2.811,4.935-6.282,5.856-10.034c1.306-5.316-2.381-9.429-4.821-13.616c-2.104-3.611-6.562-3.417-10.035-4.668
			c-3.899-1.406-8.317-0.788-12.184-2.341c-3.614-1.449-7.363-1.409-10.875-0.82c-3.661,0.613-7.293,1.183-10.921,0.823
			c-3.813-0.378-7.815-0.414-11.3-2.273c-5.134-2.737-10.645-2.485-15.958-1.681c-7.675,1.161-15.055,4.254-23.029,3.479
			c-1.287-0.125-2.164,0.475-2.592,1.514c-0.42,1.018,0.096,1.939,1.008,2.559c2.02,1.372,1.447,2.663-0.095,3.948
			c-3.643,3.036-6.108,6.985-8.308,11.081c-1.839,3.424-2.927,7.336-1.25,10.905c2.183,4.644,3.818,9.502,6.064,14.105
			c2.308,4.729,6.331,7.536,11.017,9.24c6.083,2.212,12.529,1.839,18.883,1.679c4.564-0.114,8.724,0.854,12.463,3.601
			C212.129,199.925,213.996,201.022,216.325,200.601z M171.048,77.056c0.08,1.71-0.101,2.868,0.221,3.865
			c1.67,5.179,3.95,9.741,9.082,12.725c3.472,2.019,6.861,4.61,10.566,5.672c3.489,1,5.89,2.562,7.75,5.365
			c1.33,2.004,3.392,2.808,5.366,3.942c2.571,1.477,5.782,1.806,7.791,4.266c0.57,0.698,1.368,0.574,2.003,0.385
			c0.762-0.227,0.915-0.977,0.913-1.778c-0.002-1.276-0.092-2.339-1.121-3.404c-3.555-3.68-8.833-5.506-11.197-10.488
			c-0.33-0.697-1.326-1.171-2.111-1.542c-2.515-1.189-5.072-2.29-7.62-3.41c-5.793-2.548-10.549-6.005-12.168-12.658
			c-0.754-3.101-0.818-3.272,2.503-2.969c1.446,0.133,2.656-0.331,3.247-1.614c0.584-1.269,0.739-2.644-0.472-3.814
			c-1.088-1.053-2.21-1.006-3.433-0.33c-0.307,0.169-0.632,0.303-0.95,0.453c-1.208,0.565-1.771,0.109-1.554-1.135
			c0.717-4.112,0.598-8.388,4.646-11.388c2.607-1.932,2.488-6.174,0.58-8.401c-1.271-1.483-4.381-1.669-4.575-0.208
			c-0.451,3.409-2.297,5.952-4.523,8.206c-2.947,2.984-2.355,6.965-3.037,10.456C172.404,72.071,170.075,74.55,171.048,77.056z
			 M220.397,41.428c-1.151,0-1.911-0.14-2.596,0.028c-1.642,0.402-2.662,1.591-2.202,3.22c0.534,1.897,1.698,3.639,3.647,4.371
			c4.642,1.741,5.389,5.784,5.76,9.85c0.309,3.381-0.622,6.935-0.225,10.174c0.416,3.406,1.053,6.479-0.827,9.546
			c-0.377,0.616-0.889,1.287-0.269,1.942c0.503,0.531-0.168,1.759,1.211,1.766c1.077,0.005,2.211-0.102,2.533-1.109
			c0.521-1.626,1.655-2.763,2.587-4.071c0.926-1.301,1.233-2.507,0.593-4.19c-0.976-2.56-2.021-5.113-1.293-8.129
			c0.42-1.741,0.857-3.791,0.537-5.532c-0.85-4.614-1.437-9.398-4.266-13.382C224.167,43.91,223.93,40.294,220.397,41.428z
			 M356.411,60.399c0-0.034-0.076,0.612,0.013,1.234c0.367,2.567,2.15,3.791,4.453,4.269c2.127,0.442,4.611,0.205,4.973-2.206
			c0.381-2.54,1.762-4.911,1.427-7.517c-0.328-2.554-2.04-4.062-4.432-4.734c-2.185-0.614-4.021,0.549-5.061,2.122
			C356.635,55.306,356.033,57.489,356.411,60.399z M345.51,55.329c0-0.726,0.012-1.452-0.002-2.177
			c-0.041-2.203-1.89-3.767-3.894-2.913c-3.17,1.352-6.349,2.83-8.608,5.618c-1.164,1.437-0.979,4.961,0.535,5.303
			c2.381,0.539,4.88,1.56,7.324,1.005C345.292,61.159,345.51,60.626,345.51,55.329z M317.172,68.211
			c0.014-2.365-0.698-3.568-3.076-5.108c-3.954-2.561-4.828-1.716-6.15,2.191c-0.984,2.912,0.343,5.875-0.198,8.831
			c-0.166,0.904,0.735,1.597,1.994,1.67C313.902,76.039,317.146,72.808,317.172,68.211z M192.377,30.452
			c0.507,4.459,1.738,6.588,4.809,6.106c2.813-0.443,7.032-6.859,6.007-9.478c-0.123-0.314-0.387-0.608-0.654-0.827
			c-2.064-1.696-4.411-2.408-6.851-1.12C193.665,26.202,192.141,27.848,192.377,30.452z M370.577,31.387
			c0-1.429-0.062-2.428,0.016-3.415c0.114-1.45-0.963-2.254-1.896-2.68c-1.054-0.481-2.448-0.634-3.486,0.481
			c-0.676,0.726-1.547,1.315-2.067,2.133c-2.819,4.425-3.14,7.894,2.463,10.494c1.165,0.541,2,0.322,2.866-0.563
			C370.376,35.89,370.858,33.547,370.577,31.387z M380.688,62.214c-0.625,0.706-1.758,0.256-2.358,1.135
			c-1.882,2.758-3.837,5.491-4.534,8.828c-0.405,1.941,1.198,3.347,3.116,2.901c3.443-0.802,5.689-3.147,7.131-6.144
			C385.552,65.798,383.623,62.239,380.688,62.214z M331.886,14.127c-0.002,3.828,1.902,5.04,5.703,4.007
			c1.19-0.323,2.069-0.992,2.997-1.571c1.604-1.003,2.286-2.727,2.146-4.584c-0.156-2.067-2.021-2.205-3.504-2.581
			C334.915,8.306,331.889,10.289,331.886,14.127z M315.827,27.797c0.791-0.026,1.698,0.233,2.218-0.617
			c1.471-2.405,3.562-4.299,5.258-6.494c1.177-1.523,0.438-3.403-0.91-4.816c-1.287-1.349-2.554-0.462-3.588,0.272
			c-2.404,1.708-4.107,4.043-5.196,6.784C312.55,25.587,313.536,27.679,315.827,27.797z M340.98,87.745
			c1.983-0.023,3.891-1.378,4.757-3.184c0.767-1.598,0.04-2.769-0.975-3.796c-2.23-2.259-6.183-2.711-8.981-1.232
			c-0.711,0.376-1.144,0.734-1.18,1.577C334.5,83.472,338.604,87.772,340.98,87.745z M312.695,31.067
			c-2.733,0.02-3.975,0.846-5.545,4.41c-0.785,1.785-0.746,3.892,0.355,5.668c0.621,1,1.687,1.199,2.907,0.915
			c3.58-0.832,6.196-6.095,4.785-9.494C314.625,31.186,313.745,30.888,312.695,31.067z M372.962,10.361
			c-2.319,0.04-5.638,3.232-5.62,5.404c0.006,0.778,4.828,4.462,5.754,4.395c1.248-0.09,5.104-3.581,5.106-4.623
			C378.209,12.855,375.638,10.315,372.962,10.361z M311.722,50.439c0.015-2.18-1.853-4.082-4.032-4.111
			c-2.176-0.028-5.251,3.526-5.231,6.046c0.019,2.348,2.105,4.371,4.44,4.305C308.97,56.622,311.706,53.083,311.722,50.439z
			 M322.651,75.755c-3.98,0-4.307,0.277-4.407,2.983c-0.142,3.799,2.572,5.033,5.488,5.163c2.763,0.124,4.862-1.605,4.881-3.761
			C328.64,77.233,326.631,75.755,322.651,75.755z M211.342,29.434c-2.986,0.055-4.878,2.145-4.796,5.298
			c0.072,2.778,1.519,4.567,3.646,4.51c2.352-0.062,5.137-2.844,5.072-5.068C215.186,31.432,213.5,29.394,211.342,29.434z
			 M387.011,19.625c-3.686-0.003-5.047,1.072-4.988,3.938c0.056,2.717,1.829,4.133,4.989,4.26c3.473,0.14,4.537-0.871,4.78-4.136
			C391.974,21.252,389.903,19.627,387.011,19.625z M188.191,44.693c2.674,0.027,4.775-2.444,4.709-5.705
			c-0.038-1.894-0.734-3.146-3.047-3.056c-3.178,0.123-6.616,2.184-6.705,4.307C183.059,42.413,185.61,44.667,188.191,44.693z
			 M214.335,103.003c3.025,0.009,4.653-1.557,4.755-4.456c0.095-2.692-0.778-4.016-4.175-4.233
			c-1.957-0.125-5.051,3.119-5.092,5.104C209.785,101.24,211.996,102.997,214.335,103.003z M338.426,33.466
			c-0.005-2.974-1.894-5.516-4.188-5.633c-1.866-0.096-3.449,2.312-3.441,5.238c0.009,3.058,1.716,5.136,4.174,5.082
			C337.163,38.104,338.43,36.386,338.426,33.466z M361.09,84.426c1.407,0.377,2.429-0.505,3.492-1.068
			c1.462-0.774,2.739-1.992,2.643-3.716c-0.093-1.64-1.564-2.334-3.008-2.953c-2.288-0.979-3.849,0.568-5.528,1.482
			c-1.564,0.851-2.389,2.578-1.602,4.119C357.777,83.641,359.142,84.93,361.09,84.426z M352.846,16.354
			c3.306,0.017,5.703-1.618,5.741-3.763c0.034-1.915-2.542-4.983-4.159-4.954c-2.341,0.042-4.756,2.674-4.506,5.255
			C350.092,14.65,350.155,16.911,352.846,16.354z M393.552,38.523c0.117-1.1-1.002-2.432-2.393-3.405
			c-1.275-0.89-2.353,0.449-3.347,0.975c-2.215,1.173-3.389,4.79-2.469,6.242c1.438,2.268,3.434,1.963,5.355,1.202
			C392.441,42.846,393.406,41.327,393.552,38.523z M391.286,53.192c0.483-1.717-0.6-2.674-2.267-3
			c-1.48-0.29-4.762,2.271-5.069,3.76c-0.361,1.745,1.084,4.659,2.332,4.702C388.547,58.731,391.287,55.865,391.286,53.192z
			 M351.582,86.655c2.728-0.001,4.758-1.509,4.826-3.416c0.051-1.399-2.522-3.11-4.788-3.114c-2.137-0.004-3.481,0.635-3.453,3.25
			C348.195,86.068,349.335,86.959,351.582,86.655z M222.6,92.104c1.994,0.02,3.872-2.189,3.489-4.604
			c-0.272-1.717-1.631-2.405-3.515-2.553c-2.445-0.193-4.032,1.085-4.3,3.917C218.171,89.958,221.126,92.089,222.6,92.104z
			 M196.338,80.216c2.59-0.192,3.615-1.668,4.852-3.072c1.009-1.145,0.758-2.207,0.105-2.953c-0.655-0.749-1.628-1.611-3.016-0.861
			c-1.413,0.764-3.006,1.361-3.64,2.9c-0.3,0.727-1.798,1.105-0.894,2.204C194.528,79.385,195.308,80.51,196.338,80.216z
			 M208.852,59.392c0.68-0.722,2.524-0.98,2.599-3.121c0.067-1.938-1.495-2.549-2.784-2.524c-1.725,0.034-3.064,1.199-3.192,3.139
			C205.354,58.712,206.391,59.472,208.852,59.392z M194.246,56.685c-1.842-0.041-4.032,1.775-4.047,3.247
			c-0.014,1.302,0.78,2.015,1.919,2.16c1.426,0.182,4.835-2.322,4.534-3.303C196.306,57.663,195.856,56.298,194.246,56.685z
			 M201.967,93.747c0.503-0.052,0.938-0.187,0.663-0.789c-0.136-0.298-0.456-0.512-0.693-0.764c-0.2,0.374-0.47,0.728-0.583,1.125
			C201.166,93.979,201.794,93.557,201.967,93.747z"/>
		<path style="fill-rule:evenodd;clip-rule:evenodd;fill:#7B491E;" d="M112.268,44.2c-0.26,3.056,0.277,6.734-0.482,10.432
			c-0.933,4.544,1.312,8.665,2.391,12.929c2.353,9.299,1.253,18.171-4.383,25.957c-2.155,2.978-4.374,6.258-8.133,7.934
			c-3.221,1.436-4.948,4.764-7.596,6.987c-3.523,2.959-7.099,5.766-11.807,6.552c-2.532,0.422-4.899,1.493-7.223,2.402
			c-2.248,0.879-4.384,0.948-6.57,0.815c-2.869-0.175-5.443,0.533-7.994,1.681c-1.782,0.802-3.324,0.69-5.226-0.398
			c-3.472-1.986-7.513-2.901-10.899-5.139c-3.518-2.326-6.168-5.576-8.906-8.707c-1.42-1.625-2.852-3.083-4.995-3.785
			c-1.936-0.634-3.449-2.209-4.942-3.411c-5.506-4.433-11.443-8.2-12.172-16.853c-0.622-7.381-0.455-14.273,2.555-20.898
			c2.655-5.845,6.275-11.182,10.25-16.247c4.121-5.25,9.31-9.326,14.428-13.532c4.008-3.294,7.975-6.382,13.157-7.576
			c2.523-0.581,5.091-0.619,7.628-0.979c0.782-0.111,1.721,0.209,2.213-0.641c1.449-2.498,3.776-2.163,5.777-1.395
			c1.518,0.582,2.444,0.102,3.342-0.688c2.727-2.395,5.839-3.031,9.396-2.837c1.617,0.088,3.319-0.406,5.017-0.476
			c7.228-0.3,12.841,3.315,18.134,7.527c1.588,1.264,3.772,1.884,4.769,3.765c1.368,2.583,2.012,5.447,2.231,8.339
			C112.419,38.486,112.268,41.039,112.268,44.2z M101.914,43.009c0-1.546-0.048-2.638,0.011-3.724
			c0.086-1.578-0.031-2.725-1.892-3.53c-1.459-0.631-2.588-2.16-3.582-3.586c-2.198-3.156-5.326-5.271-8.837-6.472
			c-4.367-1.495-8.475,0.021-12.274,2.306c-1.418,0.854-2.756,1.977-4.479,1.949c-4.497-0.074-8.717,1.374-13.025,2.296
			c-0.82,0.176-1.876,0.671-2.275,1.9c-2.271,6.985-6.886,11.251-14.35,12.229c-1.08,0.142-2.335,0.653-3.07,1.416
			c-3.442,3.578-7.438,6.764-9.595,11.35c-0.783,1.665-1.395,3.493-2.535,4.867c-1.855,2.236-2.558,4.958-2.958,7.53
			c-0.475,3.05-1.131,6.708,1.868,9.025c2.264,1.75,4.96,2.947,7.49,4.345c4.756,2.63,8.97,5.833,12.049,10.439
			c1.312,1.962,2.226,4.276,4.131,5.766c2.395,1.873,4.678,3.859,6.937,5.889c3.205,2.881,7.222,3.152,11.126,2.604
			c6.051-0.85,10.887-4.722,16.096-7.527c2.416-1.301,4.741-3.533,5.955-6.096c1.344-2.839,3.369-4.753,5.676-6.667
			c2.168-1.799,4.629-3.27,6.453-5.474c3.58-4.323,4.013-9.022,1.429-13.934c-2.516-4.785-1.221-10.022-1.771-15.015
			C100.047,50.865,102.444,46.812,101.914,43.009z"/>
		<path style="fill-rule:evenodd;clip-rule:evenodd;fill:#7B491E;" d="M216.325,200.601c-2.329,0.422-4.196-0.676-5.891-1.921
			c-3.739-2.747-7.899-3.715-12.463-3.601c-6.354,0.16-12.8,0.533-18.883-1.679c-4.686-1.704-8.709-4.512-11.017-9.24
			c-2.247-4.604-3.882-9.462-6.064-14.105c-1.677-3.569-0.59-7.481,1.25-10.905c2.2-4.096,4.666-8.045,8.308-11.081
			c1.542-1.285,2.115-2.576,0.095-3.948c-0.912-0.619-1.428-1.541-1.008-2.559c0.429-1.039,1.305-1.639,2.592-1.514
			c7.975,0.775,15.354-2.317,23.029-3.479c5.313-0.805,10.824-1.057,15.958,1.681c3.484,1.859,7.486,1.896,11.3,2.273
			c3.628,0.359,7.26-0.21,10.921-0.823c3.512-0.589,7.261-0.629,10.875,0.82c3.866,1.553,8.284,0.935,12.184,2.341
			c3.474,1.251,7.931,1.057,10.035,4.668c2.44,4.188,6.127,8.3,4.821,13.616c-0.922,3.752-2.889,7.224-5.856,10.034
			c-1.563,1.479-2.362,3.812-4,5.156c-3.666,3.01-7.007,6.21-10.104,9.853c-2.228,2.619-6.173,3.507-9.337,5.142
			c-3.467,1.791-6.45,4.698-10.407,5.367C227.117,197.637,221.97,200.203,216.325,200.601z M224.584,188.12
			c3.258,0.774,7.089-0.934,10.639-3.514c2.983-2.171,6.061-4.227,9.494-5.546c3.89-1.494,7.378-3.712,10.71-6.043
			c4.088-2.86,7.455-6.5,9.452-11.344c1.373-3.328-0.923-9.61-4.5-10.1c-4.704-0.645-8.936-4.257-14.059-2.274
			c-0.277,0.107-0.701-0.084-1.03-0.206c-3.737-1.396-7.457-1.557-11.479-1.035c-2.874,0.372-5.761,2.052-8.822,0.734
			c-1.327-0.57-2.804-0.403-4.198-0.611c-3.305-0.494-6.999-0.217-9.783-1.966c-3.611-2.268-7.409-2.497-11.348-2.922
			c-4.154-0.447-7.816,1.261-11.667,2.197c-3.101,0.754-6.646,0.752-7.172,5.128c-0.052,0.437-0.607,0.959-1.058,1.177
			c-3.292,1.594-4.98,4.373-6.641,7.544c-2.173,4.148-2.606,7.922-0.987,12.37c1.663,4.567,5.023,7.289,9.131,8.51
			c4.605,1.368,9.604,0.885,14.386,0.106c6.922-1.128,13.274-0.828,17.799,5.569c0.403,0.569,1.128,0.766,1.735,1.102
			C217.796,188.443,220.569,187.884,224.584,188.12z"/>
		<path style="fill-rule:evenodd;clip-rule:evenodd;fill:#7B491E;" d="M171.048,77.056c-0.973-2.506,1.356-4.985,1.906-7.805
			c0.682-3.49,0.09-7.471,3.037-10.456c2.226-2.254,4.073-4.797,4.523-8.206c0.194-1.462,3.303-1.275,4.575,0.208
			c1.908,2.227,2.027,6.469-0.58,8.401c-4.048,3-3.93,7.275-4.646,11.388c-0.217,1.244,0.347,1.7,1.554,1.135
			c0.318-0.149,0.644-0.283,0.95-0.453c1.223-0.676,2.345-0.723,3.433,0.33c1.21,1.17,1.056,2.545,0.472,3.814
			c-0.591,1.283-1.801,1.747-3.247,1.614c-3.321-0.303-3.257-0.132-2.503,2.969c1.62,6.653,6.375,10.11,12.168,12.658
			c2.548,1.121,5.105,2.221,7.62,3.41c0.785,0.371,1.781,0.845,2.111,1.542c2.364,4.982,7.643,6.808,11.197,10.488
			c1.029,1.065,1.119,2.128,1.121,3.404c0.002,0.802-0.151,1.552-0.913,1.778c-0.635,0.189-1.433,0.313-2.003-0.385
			c-2.009-2.46-5.22-2.789-7.791-4.266c-1.974-1.135-4.036-1.938-5.366-3.942c-1.86-2.803-4.26-4.366-7.75-5.365
			c-3.705-1.062-7.095-3.654-10.566-5.672c-5.132-2.984-7.412-7.546-9.082-12.725C170.947,79.924,171.128,78.766,171.048,77.056z"/>
		<path style="fill-rule:evenodd;clip-rule:evenodd;fill:#7B491E;" d="M220.397,41.428c3.532-1.134,3.77,2.482,5.191,4.483
			c2.829,3.984,3.416,8.768,4.266,13.382c0.32,1.742-0.117,3.792-0.537,5.532c-0.728,3.016,0.317,5.569,1.293,8.129
			c0.641,1.683,0.333,2.889-0.593,4.19c-0.932,1.308-2.065,2.444-2.587,4.071c-0.322,1.007-1.456,1.114-2.533,1.109
			c-1.379-0.007-0.708-1.235-1.211-1.766c-0.62-0.656-0.108-1.327,0.269-1.942c1.88-3.068,1.243-6.14,0.827-9.546
			c-0.397-3.239,0.533-6.792,0.225-10.174c-0.371-4.066-1.118-8.109-5.76-9.85c-1.949-0.731-3.113-2.473-3.647-4.371
			c-0.46-1.629,0.561-2.817,2.202-3.22C218.486,41.288,219.246,41.428,220.397,41.428z"/>
		<path style="fill-rule:evenodd;clip-rule:evenodd;fill:#7B491E;" d="M356.411,60.399c-0.378-2.91,0.224-5.093,1.373-6.832
			c1.04-1.572,2.876-2.735,5.061-2.122c2.392,0.672,4.104,2.18,4.432,4.734c0.335,2.606-1.046,4.977-1.427,7.517
			c-0.361,2.411-2.846,2.648-4.973,2.206c-2.303-0.479-4.086-1.702-4.453-4.269C356.335,61.011,356.411,60.365,356.411,60.399z"/>
		<path style="fill-rule:evenodd;clip-rule:evenodd;fill:#7B491E;" d="M345.51,55.329c0,5.298-0.218,5.83-4.645,6.836
			c-2.444,0.555-4.943-0.466-7.324-1.005c-1.514-0.342-1.699-3.866-0.535-5.303c2.26-2.788,5.438-4.266,8.608-5.618
			c2.004-0.854,3.853,0.71,3.894,2.913C345.521,53.877,345.51,54.603,345.51,55.329z"/>
		<path style="fill-rule:evenodd;clip-rule:evenodd;fill:#7B491E;" d="M317.172,68.211c-0.026,4.597-3.27,7.828-7.431,7.584
			c-1.259-0.074-2.16-0.766-1.994-1.67c0.541-2.956-0.786-5.919,0.198-8.831c1.322-3.907,2.196-4.752,6.15-2.191
			C316.474,64.643,317.186,65.846,317.172,68.211z"/>
		<path style="fill-rule:evenodd;clip-rule:evenodd;fill:#7B491E;" d="M192.377,30.452c-0.236-2.604,1.288-4.25,3.31-5.318
			c2.44-1.288,4.786-0.576,6.851,1.12c0.268,0.219,0.531,0.513,0.654,0.827c1.025,2.619-3.194,9.035-6.007,9.478
			C194.115,37.04,192.884,34.911,192.377,30.452z"/>
		<path style="fill-rule:evenodd;clip-rule:evenodd;fill:#7B491E;" d="M370.577,31.387c0.281,2.16-0.201,4.503-2.104,6.45
			c-0.866,0.885-1.701,1.104-2.866,0.563c-5.603-2.6-5.282-6.068-2.463-10.494c0.521-0.818,1.392-1.407,2.067-2.133
			c1.038-1.116,2.433-0.963,3.486-0.481c0.933,0.426,2.01,1.23,1.896,2.68C370.515,28.959,370.577,29.958,370.577,31.387z"/>
		<path style="fill-rule:evenodd;clip-rule:evenodd;fill:#7B491E;" d="M380.689,62.217c2.934,0.022,4.862,3.582,3.354,6.717
			c-1.441,2.996-3.688,5.341-7.131,6.144c-1.918,0.446-3.521-0.959-3.116-2.901c0.697-3.337,2.652-6.069,4.534-8.828
			C378.931,62.47,380.063,62.919,380.689,62.217z"/>
		<path style="fill-rule:evenodd;clip-rule:evenodd;fill:#7B491E;" d="M331.886,14.127c0.003-3.838,3.029-5.821,7.343-4.729
			c1.482,0.375,3.348,0.513,3.504,2.581c0.14,1.857-0.542,3.581-2.146,4.584c-0.928,0.58-1.807,1.248-2.997,1.571
			C333.788,19.167,331.884,17.955,331.886,14.127z"/>
		<path style="fill-rule:evenodd;clip-rule:evenodd;fill:#7B491E;" d="M315.827,27.798c-2.291-0.12-3.277-2.211-2.219-4.873
			c1.089-2.74,2.792-5.076,5.196-6.784c1.034-0.734,2.301-1.621,3.588-0.272c1.348,1.413,2.087,3.293,0.91,4.816
			c-1.695,2.195-3.787,4.089-5.258,6.494C317.525,28.03,316.618,27.771,315.827,27.798z"/>
		<path style="fill-rule:evenodd;clip-rule:evenodd;fill:#7B491E;" d="M340.98,87.745c-2.376,0.028-6.48-4.272-6.379-6.635
			c0.036-0.843,0.469-1.201,1.18-1.577c2.799-1.479,6.751-1.027,8.981,1.232c1.015,1.027,1.741,2.198,0.975,3.796
			C344.871,86.367,342.964,87.722,340.98,87.745z"/>
		<path style="fill-rule:evenodd;clip-rule:evenodd;fill:#7B491E;" d="M312.695,31.067c1.05-0.18,1.93,0.119,2.503,1.499
			c1.411,3.398-1.205,8.662-4.785,9.494c-1.221,0.284-2.286,0.085-2.907-0.915c-1.102-1.776-1.141-3.883-0.355-5.668
			C308.721,31.913,309.962,31.087,312.695,31.067z"/>
		<path style="fill-rule:evenodd;clip-rule:evenodd;fill:#7B491E;" d="M372.962,10.361c2.676-0.046,5.247,2.494,5.24,5.177
			c-0.003,1.042-3.858,4.533-5.106,4.623c-0.926,0.067-5.748-3.617-5.754-4.395C367.324,13.593,370.643,10.401,372.962,10.361z"/>
		<path style="fill-rule:evenodd;clip-rule:evenodd;fill:#7B491E;" d="M311.722,50.439c-0.016,2.643-2.752,6.182-4.823,6.24
			c-2.335,0.065-4.422-1.957-4.44-4.305c-0.02-2.52,3.056-6.075,5.231-6.046C309.869,46.357,311.736,48.26,311.722,50.439z"/>
		<path style="fill-rule:evenodd;clip-rule:evenodd;fill:#7B491E;" d="M322.651,75.755c3.979,0,5.988,1.478,5.962,4.385
			c-0.019,2.155-2.118,3.884-4.881,3.761c-2.916-0.13-5.63-1.364-5.488-5.163C318.345,76.032,318.671,75.755,322.651,75.755z"/>
		<path style="fill-rule:evenodd;clip-rule:evenodd;fill:#7B491E;" d="M211.342,29.434c2.158-0.04,3.844,1.998,3.923,4.741
			c0.064,2.224-2.721,5.005-5.072,5.068c-2.128,0.057-3.574-1.732-3.646-4.51C206.464,31.579,208.355,29.489,211.342,29.434z"/>
		<path style="fill-rule:evenodd;clip-rule:evenodd;fill:#7B491E;" d="M387.011,19.625c2.893,0.002,4.963,1.627,4.781,4.062
			c-0.243,3.266-1.308,4.276-4.78,4.136c-3.16-0.127-4.934-1.543-4.989-4.26C381.964,20.697,383.325,19.622,387.011,19.625z"/>
		<path style="fill-rule:evenodd;clip-rule:evenodd;fill:#7B491E;" d="M188.191,44.693c-2.581-0.026-5.132-2.28-5.042-4.453
			c0.088-2.123,3.527-4.184,6.705-4.307c2.313-0.09,3.009,1.162,3.047,3.056C192.967,42.249,190.866,44.72,188.191,44.693z"/>
		<path style="fill-rule:evenodd;clip-rule:evenodd;fill:#7B491E;" d="M214.335,103.003c-2.339-0.007-4.55-1.764-4.512-3.585
			c0.041-1.984,3.135-5.228,5.092-5.104c3.396,0.217,4.27,1.541,4.175,4.233C218.988,101.446,217.36,103.013,214.335,103.003z"/>
		<path style="fill-rule:evenodd;clip-rule:evenodd;fill:#7B491E;" d="M338.426,33.466c0.004,2.92-1.263,4.638-3.456,4.687
			c-2.458,0.054-4.165-2.024-4.174-5.082c-0.008-2.925,1.575-5.334,3.441-5.238C336.532,27.951,338.421,30.492,338.426,33.466z"/>
		<path style="fill-rule:evenodd;clip-rule:evenodd;fill:#7B491E;" d="M361.09,84.426c-1.948,0.503-3.312-0.786-4.003-2.136
			c-0.787-1.541,0.037-3.268,1.602-4.119c1.68-0.915,3.24-2.462,5.528-1.482c1.443,0.619,2.915,1.313,3.008,2.953
			c0.097,1.724-1.181,2.942-2.643,3.716C363.519,83.921,362.497,84.804,361.09,84.426z"/>
		<path style="fill-rule:evenodd;clip-rule:evenodd;fill:#7B491E;" d="M352.846,16.354c-2.69,0.557-2.754-1.704-2.924-3.462
			c-0.25-2.582,2.165-5.213,4.506-5.255c1.617-0.029,4.193,3.04,4.159,4.954C358.549,14.736,356.151,16.371,352.846,16.354z"/>
		<path style="fill-rule:evenodd;clip-rule:evenodd;fill:#7B491E;" d="M393.552,38.523c-0.146,2.804-1.11,4.323-2.853,5.013
			c-1.922,0.761-3.917,1.066-5.355-1.202c-0.92-1.452,0.254-5.069,2.469-6.242c0.994-0.526,2.071-1.865,3.347-0.975
			C392.55,36.091,393.669,37.423,393.552,38.523z"/>
		<path style="fill-rule:evenodd;clip-rule:evenodd;fill:#7B491E;" d="M391.286,53.192c0.001,2.673-2.739,5.539-5.004,5.461
			c-1.248-0.042-2.693-2.957-2.332-4.702c0.308-1.488,3.589-4.05,5.069-3.76C390.687,50.518,391.77,51.475,391.286,53.192z"/>
		<path style="fill-rule:evenodd;clip-rule:evenodd;fill:#7B491E;" d="M351.582,86.655c-2.247,0.305-3.387-0.587-3.415-3.279
			c-0.028-2.616,1.316-3.255,3.453-3.25c2.266,0.004,4.839,1.714,4.788,3.114C356.34,85.146,354.31,86.654,351.582,86.655z"/>
		<path style="fill-rule:evenodd;clip-rule:evenodd;fill:#7B491E;" d="M222.6,92.104c-1.474-0.015-4.429-2.146-4.325-3.24
			c0.268-2.832,1.854-4.11,4.3-3.917c1.884,0.148,3.242,0.836,3.515,2.553C226.472,89.915,224.594,92.124,222.6,92.104z"/>
		<path style="fill-rule:evenodd;clip-rule:evenodd;fill:#7B491E;" d="M196.338,80.216c-1.031,0.294-1.811-0.831-2.593-1.782
			c-0.904-1.099,0.594-1.477,0.894-2.204c0.634-1.539,2.227-2.137,3.64-2.9c1.388-0.75,2.361,0.113,3.016,0.861
			c0.652,0.746,0.903,1.808-0.105,2.953C199.953,78.548,198.929,80.024,196.338,80.216z"/>
		<path style="fill-rule:evenodd;clip-rule:evenodd;fill:#7B491E;" d="M208.852,59.392c-2.461,0.08-3.498-0.68-3.378-2.505
			c0.128-1.94,1.468-3.105,3.192-3.139c1.289-0.025,2.852,0.586,2.784,2.524C211.376,58.412,209.531,58.67,208.852,59.392z"/>
		<path style="fill-rule:evenodd;clip-rule:evenodd;fill:#7B491E;" d="M194.246,56.685c1.61-0.387,2.06,0.978,2.406,2.104
			c0.301,0.981-3.108,3.485-4.534,3.303c-1.139-0.146-1.933-0.858-1.919-2.16C190.214,58.46,192.404,56.644,194.246,56.685z"/>
		<path style="fill-rule:evenodd;clip-rule:evenodd;fill:#7B491E;" d="M201.967,93.747c-0.173-0.19-0.801,0.231-0.613-0.427
			c0.113-0.398,0.383-0.752,0.583-1.125c0.237,0.251,0.558,0.466,0.693,0.764C202.904,93.561,202.47,93.695,201.967,93.747z"/>
		<path style="fill-rule:evenodd;clip-rule:evenodd;fill:none;" d="M101.914,43.009c0.53,3.804-1.867,7.856-1.422,11.889
			c0.551,4.993-0.745,10.23,1.771,15.015c2.583,4.912,2.15,9.611-1.429,13.934c-1.823,2.204-4.285,3.675-6.453,5.474
			c-2.307,1.915-4.332,3.829-5.676,6.667c-1.214,2.563-3.54,4.795-5.955,6.096c-5.209,2.805-10.045,6.677-16.096,7.527
			c-3.904,0.548-7.921,0.276-11.126-2.604c-2.258-2.03-4.542-4.016-6.937-5.889c-1.905-1.49-2.819-3.804-4.131-5.766
			c-3.08-4.606-7.293-7.809-12.049-10.439c-2.529-1.398-5.226-2.595-7.49-4.345c-2.999-2.317-2.342-5.976-1.868-9.025
			c0.4-2.572,1.104-5.293,2.958-7.53c1.14-1.374,1.752-3.202,2.535-4.867c2.156-4.585,6.153-7.771,9.595-11.35
			c0.734-0.763,1.99-1.274,3.07-1.416c7.464-0.978,12.079-5.245,14.35-12.229c0.399-1.229,1.455-1.725,2.275-1.9
			c4.308-0.922,8.528-2.37,13.025-2.296c1.722,0.028,3.06-1.095,4.479-1.949c3.799-2.285,7.907-3.801,12.274-2.306
			c3.511,1.201,6.639,3.316,8.837,6.472c0.993,1.426,2.122,2.955,3.582,3.586c1.861,0.805,1.978,1.952,1.892,3.53
			C101.866,40.371,101.914,41.463,101.914,43.009z M76.845,43.079c-0.067,1.565,0.01,3.454,1.02,5.266
			c1.721,3.089,4.992,4.744,7.01,3.249c3.012-2.23,3.975-5.271,3.445-8.962c-0.439-3.065-2.636-3.782-5.099-4.498
			C79.096,36.935,76.848,38.477,76.845,43.079z M81.462,64.312c-3.582,0-6.165,1.865-6.25,4.515
			c-0.121,3.722,3.197,6.943,7.137,6.929c2.411-0.008,4.743-3.591,4.738-7.28C87.083,65.716,85.187,64.312,81.462,64.312z
			 M60.197,78.48c-3.352,0.002-6.207,2.577-6.24,5.625c-0.032,3.012,2.585,5.297,6.036,5.274c2.765-0.019,4.889-2.924,4.863-6.652
			C64.834,79.498,63.714,78.477,60.197,78.48z M47.125,55.592c-3.764,0.002-5.165,1.491-5.157,5.48
			c0.005,2.75,3.014,4.773,7.251,4.873c2.088,0.049,4.235-1.819,4.192-3.646C53.35,59.694,49.503,55.59,47.125,55.592z"/>
		<path style="fill-rule:evenodd;clip-rule:evenodd;fill:none;" d="M224.584,188.12c-4.015-0.236-6.788,0.323-9.398-1.123
			c-0.607-0.336-1.332-0.532-1.735-1.102c-4.524-6.397-10.877-6.697-17.799-5.569c-4.781,0.778-9.781,1.262-14.386-0.106
			c-4.107-1.221-7.468-3.942-9.131-8.51c-1.62-4.448-1.186-8.222,0.987-12.37c1.661-3.171,3.35-5.95,6.641-7.544
			c0.45-0.218,1.005-0.74,1.058-1.177c0.526-4.376,4.071-4.374,7.172-5.128c3.851-0.937,7.514-2.645,11.667-2.197
			c3.938,0.425,7.736,0.654,11.348,2.922c2.784,1.749,6.479,1.472,9.783,1.966c1.395,0.208,2.871,0.041,4.198,0.611
			c3.062,1.317,5.948-0.362,8.822-0.734c4.021-0.521,7.741-0.36,11.479,1.035c0.329,0.122,0.753,0.313,1.03,0.206
			c5.123-1.982,9.354,1.63,14.059,2.274c3.577,0.489,5.873,6.771,4.5,10.1c-1.997,4.844-5.364,8.483-9.452,11.344
			c-3.332,2.331-6.82,4.549-10.71,6.043c-3.434,1.319-6.511,3.375-9.494,5.546C231.673,187.187,227.842,188.895,224.584,188.12z
			 M194.064,154.336c0.139-0.635,0.321-0.979,0.225-1.097c-1.076-1.328-2.348-2.453-4.063-2.798
			c-1.427-0.288-2.447,0.237-3.338,1.58c-3.953,5.961-4.001,5.906,2.86,7.479c1.445,0.331,2.331-0.326,3.161-1.335
			C193.936,156.917,194.242,155.49,194.064,154.336z M207.636,167.852c-0.001,1.814,2.059,4.025,3.726,3.775
			c3.398-0.508,5.521-1.739,5.544-4.197c0.021-2.149-2.387-4.521-4.589-4.475C210.259,162.998,207.637,165.741,207.636,167.852z
			 M186.032,173.303c2.335,0.027,3.878-1.505,3.994-3.967c0.111-2.376-1.569-4.136-4.019-4.207
			c-2.247-0.065-3.436,1.436-3.437,4.338C182.569,171.229,184.424,173.284,186.032,173.303z M232.069,159.311
			c1.609,0.098,2.685-1.065,2.801-3.026c0.131-2.236-1.161-4.224-2.753-4.231c-2.311-0.013-4.864,2.237-4.839,4.452
			C227.317,159.979,230.259,158.728,232.069,159.311z"/>
		<path style="fill-rule:evenodd;clip-rule:evenodd;fill:#7B491E;" d="M76.845,43.079c0.002-4.602,2.251-6.144,6.376-4.945
			c2.463,0.715,4.66,1.433,5.099,4.498c0.529,3.691-0.434,6.732-3.445,8.962c-2.018,1.495-5.289-0.16-7.01-3.249
			C76.855,46.532,76.778,44.644,76.845,43.079z"/>
		<path style="fill-rule:evenodd;clip-rule:evenodd;fill:#7B491E;" d="M81.462,64.312c3.724,0,5.621,1.404,5.625,4.164
			c0.005,3.689-2.327,7.272-4.738,7.28c-3.94,0.014-7.258-3.208-7.137-6.929C75.298,66.177,77.88,64.312,81.462,64.312z"/>
		<path style="fill-rule:evenodd;clip-rule:evenodd;fill:#7B491E;" d="M60.197,78.48c3.518-0.003,4.637,1.018,4.66,4.247
			c0.026,3.728-2.098,6.633-4.863,6.652c-3.451,0.023-6.068-2.262-6.036-5.274C53.99,81.058,56.845,78.483,60.197,78.48z"/>
		<path style="fill-rule:evenodd;clip-rule:evenodd;fill:#7B491E;" d="M47.125,55.592c2.378-0.002,6.224,4.102,6.286,6.707
			c0.043,1.828-2.104,3.695-4.192,3.646c-4.237-0.1-7.247-2.123-7.251-4.873C41.961,57.083,43.361,55.595,47.125,55.592z"/>
		<path style="fill-rule:evenodd;clip-rule:evenodd;fill:#7B491E;" d="M194.064,154.336c0.178,1.154-0.129,2.581-1.155,3.829
			c-0.83,1.009-1.715,1.666-3.161,1.335c-6.862-1.572-6.813-1.518-2.86-7.479c0.891-1.343,1.911-1.868,3.338-1.58
			c1.715,0.345,2.987,1.47,4.063,2.798C194.385,153.357,194.204,153.701,194.064,154.336z"/>
		<path style="fill-rule:evenodd;clip-rule:evenodd;fill:#7B491E;" d="M207.636,167.852c0.001-2.11,2.623-4.854,4.681-4.896
			c2.202-0.047,4.609,2.325,4.589,4.475c-0.022,2.458-2.146,3.689-5.544,4.197C209.694,171.877,207.635,169.666,207.636,167.852z"/>
		<path style="fill-rule:evenodd;clip-rule:evenodd;fill:#7B491E;" d="M186.032,173.303c-1.608-0.019-3.463-2.073-3.462-3.836
			c0.001-2.902,1.19-4.403,3.437-4.338c2.449,0.071,4.13,1.831,4.019,4.207C189.91,171.798,188.367,173.33,186.032,173.303z"/>
		<path style="fill-rule:evenodd;clip-rule:evenodd;fill:#7B491E;" d="M232.069,159.311c-1.811-0.583-4.752,0.669-4.791-2.806
			c-0.025-2.215,2.528-4.465,4.839-4.452c1.592,0.008,2.884,1.995,2.753,4.231C234.754,158.245,233.679,159.408,232.069,159.311z"/>
	</g>
</g>
</svg>
