<?xml version="1.0" encoding="iso-8859-1"?>
<!-- Generator: Adobe Illustrator 16.0.0, SVG Export Plug-In . SVG Version: 6.00 Build 0)  -->
<!DOCTYPE svg PUBLIC "-//W3C//DTD SVG 1.1//EN" "http://www.w3.org/Graphics/SVG/1.1/DTD/svg11.dtd">
<svg version="1.1" id="Layer_1" xmlns="http://www.w3.org/2000/svg" xmlns:xlink="http://www.w3.org/1999/xlink" x="0px" y="0px"
	 width="401.101px" height="204.572px" viewBox="0 0 401.101 204.572" style="enable-background:new 0 0 401.101 204.572;"
	 xml:space="preserve">
<g>
	<g>
		<path style="fill:none;" d="M200.55,204.021c-65.866,0-131.731-0.01-197.597,0.051c-2.002,0.002-2.455-0.451-2.453-2.453
			c0.061-66.222,0.061-132.444,0-198.665C0.498,0.951,0.951,0.5,2.953,0.5c131.731,0.055,263.462,0.055,395.194,0
			c2.002,0,2.455,0.451,2.454,2.454c-0.062,66.221-0.062,132.443,0,198.665c0.001,2.002-0.451,2.455-2.454,2.453
			C332.282,204.011,266.416,204.021,200.55,204.021z M44.164,98.304c3.133-0.102,6.315,0.811,8.028-1.421
			c1.903-2.481,4.39-3.448,6.951-4.58c1.47-0.65,3.311-1.009,4.383-1.92c4.454-3.783,7.437-8.563,6.875-14.679
			c-0.152-1.656,0.106-2.984,0.721-4.345c1.693-3.75,4.117-7.26,3.67-11.683c-0.047-0.467,0.303-0.783,0.485-1.169
			c1.517-3.218,2.134-6.976,0.376-9.804c-1.964-3.16-1.954-6.221-1.917-9.5c0.019-1.645-0.551-2.972-1.875-3.829
			c-3.939-2.548-8.902-3.136-12.459-6.453c-0.15-0.14-0.518-0.078-0.781-0.061c-2.756,0.176-5.481-0.625-8.281-0.078
			c-1.122,0.218-2.014,1.451-3.103,0.981c-4.256-1.835-7.846-0.199-11.359,1.96c-0.417,0.256-0.808,0.392-1.226,0.322
			c-1.99-0.334-3.783,0.317-5.479,1.18c-3.237,1.646-6.854,2.788-8.704,6.375c-0.366,0.709-1.081,1.195-1.999,1.001
			c-1.853-0.394-2.981,0.916-3.634,2.12c-1.381,2.549-3.322,4.647-4.938,6.997c-0.578,0.84-1.144,1.824-1.288,2.805
			c-1.196,8.12-2.561,16.231-2.197,24.494c0.035,0.79,0.172,1.725-0.172,2.357c-2.532,4.643,0.055,9.315,4.814,10.515
			c1.312,0.331,3.62,0.703,3.695,1.285c0.438,3.386,3.586,3.881,5.488,5.562c2.283,2.018,4.668,4.488,8.256,3.655
			c2.561-0.595,5.191-0.292,7.764-0.953C38.998,98.732,41.739,97.574,44.164,98.304z M168.646,91.361
			c-3.548-0.107-6.641-0.147-9.273,1.269c-2.602,1.399-5.407,2.689-7.167,5.354c-0.703,1.065-2.066,1.216-3.257,1.346
			c-4.811,0.527-9.65,0.765-14.46,1.207c-3.14,0.288-6.396,1.116-8.412,4.304c-1.463,2.314-2.671,4.809-4.591,6.853
			c-3.231,3.44-3.139,9.763-0.018,13.28c0.793,0.895,1.491,1.932,1.991,3.016c0.832,1.802,2.276,3.213,3.651,4.357
			c2.681,2.231,5.846,1.422,8.839,0.165c0.915-0.384,1.706-0.93,2.836,0.048c4.776,4.13,4.947,4.066,10.317,0.618
			c1.546-0.992,3.056-1.66,5.083-0.835c1.511,0.613,3.224,0.247,4.926-0.336c3.174-1.088,5.948-3.055,9.225-3.901
			c0.94-0.243,1.874-1.021,2.521-1.797c2.083-2.496,4.852-3.678,7.854-4.551c2.367-0.688,4.638-1.65,4.99-4.504
			c0.708-5.737,3.72-10.558,6.052-15.652c0.32-0.7,1.043-1.3,0.889-2.118c-0.633-3.352-0.75-6.773-3.223-9.655
			c-2.4-2.797-4.26-3.612-7.651-2.158C175.998,89.288,172.612,92.135,168.646,91.361z M292.123,38.381
			c0.665-5.974-2.735-9.587-7.343-12.853c-2.283-1.618-5.063-2.607-6.917-4.563c-1.856-1.957-3.931-3.261-6.222-4.465
			c-0.678-0.356-1.509-0.763-1.96-0.397c-3.307,2.679-7.207,1.07-10.76,1.36c-3.514,0.286-6.597,1.304-9.362,3.079
			c-3.698,2.374-5.933,6.134-7.591,10.135c-1.804,4.353-3.054,8.919-5.325,13.098c-1.891,3.477-1.674,6.816,1.351,9.685
			c0.46,0.436,0.765,0.895,0.76,1.603c-0.017,2.057,1.284,3.142,2.83,4.341c1.691,1.312,4.174,0.817,5.387,2.235
			c2.481,2.902,5.742,2.912,9.009,3.641c3.517,0.784,7.192,1.565,10.125,4.021c2.364,1.979,5.215,1.142,7.447-0.994
			c3.021-2.892,7.076-4.61,9.809-7.941c0.037-0.046,0.181,0.01,0.258-0.023c4.376-1.84,6.405-5.917,8.972-9.471
			c0.217-0.299,0.238-0.964,0.055-1.294C290.62,45.959,292.408,42.186,292.123,38.381z M276.126,110.292
			c-0.094,2.095,0.971,4.07,2.487,5.041c1.786,1.145,3.304,0.337,4.783-0.587c3.149-1.967,3.118-5.216-0.042-8.423
			c-2.457-2.494-5.635-1.767-6.965,1.507C276.022,108.736,276.847,109.666,276.126,110.292z M50.214,126.79
			c0.591-1.302-0.764-2.052-1.73-2.076c-1.561-0.039-3.517-1.113-4.707,0.953c-0.535,0.929-0.284,1.748,0.685,1.925
			c1.07,0.196,1.281,1.118,0.775,1.363c-1.365,0.661-2.427,2.745-4.413,1.325c-1.344-0.962-2.273-0.578-2.3,0.99
			c-0.024,1.393-0.405,1.853-1.792,1.755c-1.345-0.095-1.491,0.906-1.48,1.984c0.01,1.049,0.363,1.708,1.51,1.722
			c0.984,0.012,2.205,0.125,2.192-1.246c-0.032-3.227,1.776-1.938,3.25-1.416c1.693,0.602,3.369,1.455,4.871-0.355
			c1.484-1.791,0.798-4.705,3.131-6.071C50.282,127.597,50.214,127.305,50.214,126.79z M253.435,153.807
			c1.662-0.583,3.618-1.479,5.346-2.777c0.326-0.244,0.448-0.912,0.488-1.551c0.272-4.355-4.694-2.732-5.933-5.319
			c-0.316-0.664-1.106-0.59-1.682-0.437c-0.469,0.125-0.858,0.553-1.277,0.854c-2.213,1.593-0.914,3.788-0.942,5.733
			C249.402,152.523,250.861,153.884,253.435,153.807z M277.342,124.196c-0.505-0.67-0.76-1.238-1.196-1.539
			c-0.853-0.586-1.846-0.564-2.717-0.023c-0.579,0.36-0.828,1.148-0.334,1.599c1.271,1.156,0.809,2.599,0.879,3.954
			c0.12,2.323,1.675,3.226,3.992,2.72c2.78-0.607,3.243-3.131,4.562-4.94c0.887-1.215,0.87-2.773,0.284-4.003
			c-0.66-1.387-2.227-0.56-3.39-0.703C277.407,121.012,277.929,122.918,277.342,124.196z M280.417,96.524
			c0.003-2.389-1.422-4.513-3.384-4.602c-2.016-0.092-2.269,1.66-3.221,3.026c-2.044,2.932-0.201,5.102,0.416,7.583
			c0.293,1.176,1.131,1.057,2.029,1.114c1.251,0.081,2.771-0.16,2.823-1.321C279.174,100.26,280.344,98.528,280.417,96.524z
			 M214.703,97.272c0.007-2.025-0.746-3.361-2.097-4.062c-1.908-0.989-2.678,0.597-3.726,1.552c-0.653,0.596-1.32,1.197-1.867,1.886
			c-1.682,2.118-1.484,4.136,0.71,5.859c0.694,0.545,1.029,1.901,2.563,1.174C213.054,102.37,214.692,100.199,214.703,97.272z
			 M130.397,155.2c3.102-0.73,4.283-2.21,2.959-4.234c-0.882-1.349-1.805-2.712-2.757-4.033c-0.489-0.679-1.259-1.677-2.133-0.932
			c-0.729,0.622-1.147,1.719-0.645,2.87c1.306,2.992,1.23,4.172-0.076,6.293c-0.321,0.521-0.753,1.254-0.097,1.872
			c1.354,1.273,1.001,2.925,1.087,4.493c0.056,1.009,0.756,1.685,1.626,1.828c0.645,0.106,1.644,0.59,2.074-0.467
			c0.336-0.825,1.806-1.474,0.875-2.483C131.898,158.875,131.43,156.896,130.397,155.2z M236.457,154.923
			c1.763-0.424,3.741-0.571,4.925-2.213c1.007-1.395,0.742-2.968-0.046-4.424c-0.47-0.868-6.174-2.816-7.039-2.389
			c-0.358,0.177-0.593,0.598-0.892,0.899c-2.452,2.475-0.091,4.57,0.566,6.778C234.314,154.727,235.209,155.169,236.457,154.923z
			 M247.315,86.531c3.364-0.001,5.322-1.3,5.298-3.512c-0.029-2.649-2.032-4.464-4.962-4.498c-2.926-0.034-5.169,2.025-5.176,4.751
			C242.471,85.061,244.657,86.533,247.315,86.531z M388.339,133.528c2.041-0.031,4.459,0.362,4.692-2.615
			c0.238-3.044-2.301-6.465-4.498-6.464c-2.095,0.001-4.739,4.023-4.375,7.139C384.458,134.145,386.666,133.458,388.339,133.528z
			 M230.724,86.028c0.206-1.719-0.893-2.615-2.215-3.201c-2.866-1.27-4.913,0.287-6.838,3.418c-1.13,1.837-0.531,3.827,1.427,4.704
			C225.8,92.16,230.706,88.994,230.724,86.028z M219,152.729c1.791-0.74,3.656-1.083,4.288-3.188
			c0.427-1.419,0.104-2.806-1.044-3.268c-1.551-0.625-2.532-1.754-3.715-2.747c-1.312-1.101-2.41-0.841-3.315,0.671
			c-0.737,1.229-0.142,2.489-0.319,3.673C214.513,150.407,216.515,152.884,219,152.729z M355.512,147.959
			c-1.268-0.115-2.812-0.237-3.46,1.407c-0.61,1.551,0.329,2.659,1.467,3.631c1.413,1.206,2.935,0.911,3.848-0.308
			c1.407-1.879,2.742-1.275,4.262-0.463c0.44,0.235,0.771,0.463,1.333-0.002c1.112-0.918,2.862-1.423,2.264-3.351
			c-0.403-1.301-4.029-2.731-4.968-1.812C358.789,148.501,357.234,147.85,355.512,147.959z M274.537,140.391
			c0.061-1.644-1.072-2.509-1.812-3.515c-0.687-0.935-1.943-2.335-2.914-1.393c-1.421,1.378-4.367,1.968-3.632,4.813
			c0.253,0.978,0.25,1.892,0.312,2.833c0.133,2.022,1.504,2.976,3.139,1.871c1.385-0.935,2.635-2.082,4.09-2.952
			C274.359,141.668,274.668,141.009,274.537,140.391z M374.919,150.622c-0.073-2.892-3.173-6.024-5.662-5.871
			c-1.273,0.079-3.427,2.621-3.42,4.036c0.015,2.691,2.749,4.676,6.453,4.458C373.836,153.155,375.255,152.539,374.919,150.622z
			 M142.619,45.849c0.132-0.745-0.176-1.461-0.881-2.15c-2.071-2.021-5.174-1.922-7.463,0.111c-1.416,1.257-1.741,2.715-0.984,4.22
			c0.794,1.58,2.439,2.094,4.076,1.559c0.865-0.283,1.675-0.396,2.546-0.45C141.833,49.019,142.638,47.888,142.619,45.849z
			 M313.037,64.074c-0.108-2.844-1.764-2.75-3.196-2.596c-1.227,0.133-2.917,0.309-2.659,2.116c0.173,1.211,0.858,2.444,1.608,3.448
			c0.61,0.816,0.802,1.032-0.144,1.774c-1.062,0.833-1.526,2.388-0.832,3.557c0.61,1.029,1.428,2.452,2.933,2.342
			c1.24-0.09,2.251-0.95,2.579-2.238c0.457-1.794-0.604-3.514-1.879-3.925c-1.893-0.611-0.475-1.455-0.277-1.651
			C312.153,65.923,313.146,65.022,313.037,64.074z M269.706,86.868c0.108-1.139-0.354-2.161-1.172-2.782
			c-2.007-1.524-4.521-1.938-6.855-1.685c-1.72,0.188-2.128,2.066-1.267,3.579c1.123,1.974,2.859,3.378,5.072,4.064
			C267.726,90.739,269.667,89.257,269.706,86.868z M383.46,138.758c0.384-1.445-0.288-2.733-2.086-3.303
			c-1.787-0.564-2.638,0.901-3.581,1.914c-1.651,1.773-1.419,4.05-1.214,6.204c0.094,0.985,0.887,1.604,2.035,1.722
			C381.201,145.562,383.458,142.75,383.46,138.758z M48.155,118.073c-0.314,2.454,1.216,3.239,2.352,4.055
			c0.647,0.465,1.715-0.314,2.144-1.005c0.565-0.907,1.531-2.252,0.398-3.063c-2.013-1.442-1.523-2.998-0.584-4.538
			c0.97-1.591-0.123-2.458-0.896-3.427c-0.794-0.993-1.962-0.815-2.903-0.334c-1.324,0.677-1.53,2.187-1.038,3.248
			C48.513,114.91,49.077,116.674,48.155,118.073z M201.886,139.603c-0.044,2.487,2.132,5.114,4.254,5.137
			c1.654,0.019,4.012-1.883,4.088-3.297c0.057-1.044-3.593-5.237-4.564-5.245C203.577,136.181,201.919,137.675,201.886,139.603z
			 M287.865,175.396c0.033-2.903-1.931-6.042-3.713-6.085c-1.648-0.041-3.715,1.996-3.76,3.707
			c-0.047,1.781,2.854,5.809,4.188,5.674C286.597,178.489,288.034,177.598,287.865,175.396z M124.449,82.907
			c0.015,2.077,1.893,3.658,4.301,3.622c1.741-0.025,4.176-2.395,4.154-4.039c-0.026-1.867-2.064-3.438-4.457-3.436
			C125.604,79.059,124.429,80.191,124.449,82.907z M198.147,127.262c-0.032,2.464,0.814,3.378,3.117,3.025
			c1.561-0.238,2.96-1.059,3.743-2.492c0.929-1.7,0.826-3.562-0.124-5.174c-0.229-0.389-0.938-1.307-2.004-1.064
			C200.354,122.132,198.181,124.675,198.147,127.262z M371.176,113.842c0.01,3.026,1.282,4.574,3.616,4.696
			c1.758,0.092,3.934-1.937,3.85-3.59c-0.112-2.181-2.927-5.009-5.039-4.897C370.862,110.197,371.246,112.333,371.176,113.842z
			 M21.566,117.521c1.665,0.032,2.398-1.118,3.08-2.39c0.703-1.311,1.475-2.539,2.997-3.128c1.624-0.628,1.652-1.948,0.78-3.114
			c-0.805-1.078-1.609-1.89-3.428-0.779c-2.588,1.58-3.295,4.349-5.03,6.429C18.903,115.813,19.952,117.457,21.566,117.521z
			 M302.036,150.617c2.247-0.004,4.611-2.016,4.497-3.995c-0.132-2.31-1.624-3.041-3.769-2.963
			c-2.107,0.078-5.104,2.029-5.248,3.532C297.419,148.206,300.603,150.62,302.036,150.617z M341.271,135.139
			c0.006,1.724,1.856,3.788,3.341,3.727c1.748-0.072,4.742-3.067,4.669-4.674c-0.115-2.513-2.334-2.693-3.927-3.097
			C343.661,130.666,341.265,133.321,341.271,135.139z M358.948,120.71c1.773-0.019,4.202-1.888,4.188-3.224
			c-0.02-1.877-2.923-4.579-4.86-4.191c-1.786,0.358-3.064,1.582-3.114,3.621C355.114,118.931,356.932,120.732,358.948,120.71z
			 M20.294,121.427c-0.499-0.675-0.344-1.955-0.687-3.091c-0.178-0.591-1.051-2.033-1.876-1.052
			c-1.414,1.68-3.106,3.009-4.627,4.539c-0.523,0.525-0.363,1.318-0.074,1.999c0.595,1.403,1.585,2.354,3.176,2.175
			C18.225,125.771,20.362,123.533,20.294,121.427z M353.554,123.975c-0.002-2.465-1.698-4.292-3.934-4.332
			c-1.761-0.031-3.512,1.795-3.51,3.663c0,1.379,2.693,4.011,4.097,3.772C351.951,126.783,353.989,126.554,353.554,123.975z
			 M284.663,164.446c-0.008,2.2,1.298,3.846,3.005,3.786c1.505-0.053,3.443-2.846,3.403-4.902c-0.038-1.964-1.562-3.667-3.247-3.632
			C286.147,159.733,284.67,161.95,284.663,164.446z M355.383,32.067c-3.058-0.047-3.878,1.221-4.051,5.677
			c-0.062,1.583,0.97,2.069,2.354,2.354c1.742,0.36,4.063-2.611,4.146-4.719C357.915,33.326,356.756,32.409,355.383,32.067z
			 M130.855,177.906c0.132-1.433-0.404-2.561-1.886-2.679c-3.79-0.304-5.785,0.709-5.519,2.854c0.208,1.677,0.32,3.863,2.803,4.021
			C128.964,182.273,130.838,180.483,130.855,177.906z M295.345,191.042c-0.104,1.54,0.526,2.912,1.216,4.181
			c0.975,1.796,2.753,1.924,4.146,0.484c2.412-2.493,2.011-3.88-1.696-6.486c-0.874-0.614-1.541-1.244-2.716-0.677
			C295.103,189.118,295.385,190.108,295.345,191.042z M107.421,183.029c-1.744-0.128-2.485,0.899-1.797,2.454
			c1.352,3.051,3.89,3.96,6.815,2.598c1.261-0.588,2.295-1.388,1.777-2.729c-0.555-1.438-1.803-2.791-3.505-2.45
			C109.56,183.133,108.523,183.155,107.421,183.029z M388.801,116.396c0-3.264-1.071-4.943-3.054-4.736
			c-2.325,0.242-2.811,1.977-2.82,3.96c-0.009,2.163,1.825,4.788,3.395,4.487C388.316,119.725,389.087,118.192,388.801,116.396z
			 M163.204,64.102c-2.379-0.012-4.493,1.525-4.575,3.326c-0.072,1.584,1.722,3.61,3.203,3.617c2.015,0.009,4.309-2.481,4.254-4.738
			C166.041,64.46,164.809,63.995,163.204,64.102z M167.619,55.316c0.19-1.208-0.095-1.758-0.578-2.354
			c-1.458-1.8-3.81-1.644-5.647-2.638c-1.227-0.663-1.725,0.529-1.111,1.743c0.459,0.908,1.637,2.017,1.405,2.616
			c-1.145,2.968,1.224,3.26,2.766,3.434C166.416,58.337,166.821,56.177,167.619,55.316z M325.769,149.548
			c0.48,0,0.657,0.007,0.833-0.001c1.833-0.08,2.788-1.402,3.36-2.818c0.264-0.65,0.623-1.863-0.501-2.534
			c-1.484-0.888-2.694-0.65-4.034,0.463c-0.865,0.718-1.899,1.531-3.292,1.174c-0.756-0.193-1.396,0.179-1.65,0.943
			c-0.223,0.672,0.179,1.154,0.646,1.606C322.552,149.757,324.449,149.066,325.769,149.548z M314.568,181.995
			c0.068-2.012-2.747-4.192-5.53-4.1c-1.179,0.039-2.096,0.88-2.154,2.095c-0.081,1.701,2.68,5.028,4.065,5.138
			C312.663,185.262,314.511,183.662,314.568,181.995z M201.351,112.219c0.008,2.325,1.45,4.674,2.913,4.745
			c1.571,0.077,3.421-2.445,3.346-4.562c-0.062-1.753-2.157-3.623-4.134-3.69C202.266,108.671,201.344,110.193,201.351,112.219z
			 M328.988,77.092c0.128-1.133-0.692-1.914-1.085-2.849c-0.653-1.561-2.148-2.147-3.546-1.894c-1.677,0.304-1.541,1.838-1.269,3.23
			c0.117,0.595,0.052,1.233,0.02,1.849c-0.077,1.522-0.069,2.839,2.114,2.724C327.443,80.036,329.023,78.876,328.988,77.092z
			 M322.583,164.956c0.033-1.487-2.008-3.673-4.156-4.159c-1.75-0.397-1.918,1.371-2.512,2.212c-1.11,1.574,0.605,2.671,1.33,3.827
			c0.517,0.824,0.772,2.52,2.357,1.817C321.078,167.998,322.686,167.243,322.583,164.956z M314.131,175.211
			c1.805-0.094,2.943-1.056,3.066-2.849c0.096-1.398-3.865-4.118-5.776-4.116c-1.828,0.001-2.016,1.479-2.145,2.714
			C309.128,172.379,312.521,175.206,314.131,175.211z M115.08,74.762c-1.499,0.082-2.313,1.668-2.858,3.343
			c-0.321,0.985,2.62,4.076,3.688,4.097c0.854,0.017,3.745-2.489,3.73-3.235C119.605,77.221,117.379,74.835,115.08,74.762z
			 M144.531,80.913c-0.183-1.782-0.666-3.371-2.792-3.433c-1.961-0.058-4.297,2.113-4.122,3.77c0.184,1.734,0.538,3.302,2.907,3.169
			C142.858,84.289,144.654,82.821,144.531,80.913z M357.814,24.923c0.592-2.707-1.634-2.743-3.364-2.968
			c-2.338-0.303-2.889,1.45-2.999,3.271c-0.086,1.43,2.417,4.373,3.508,4.113C357.11,28.826,357.969,27.244,357.814,24.923z
			 M348.393,148.48c2.119,0.223,3.179-0.728,3.042-3.046c-0.105-1.771-1.962-4.076-3.516-3.836
			c-1.668,0.259-3.145,1.179-3.124,3.156C344.823,147.502,345.831,148.49,348.393,148.48z M287.865,185.003
			c0.015-3.311-1.132-5.143-3.1-4.966c-2.049,0.184-2.546,1.986-2.727,3.628c-0.227,2.062,1.581,4.271,3.28,4.33
			C287.802,188.082,287.629,186.167,287.865,185.003z M352.465,18.137c-0.776-1.125-1.392-2.744-3.422-2.624
			c-1.866,0.111-4.592,2.365-4.537,3.698c0.035,0.839,3.62,3.073,4.858,3.029C350.277,22.207,352.534,19.423,352.465,18.137z
			 M325.914,32.082c-0.51-1.296-1.089-2.708-2.57-1.971c-4.526,2.251-5.045,3.292-1.912,7.469c1.036,1.38,2.377,1.173,2.893-0.185
			C324.977,35.678,325.001,33.725,325.914,32.082z M327.383,156.093c0.121-1.321-0.607-1.798-1.921-1.749
			c-1.213,0.045-2.403,0.055-3.572-0.522c-1.601-0.788-2.598-0.064-2.513,1.677c0.067,1.373,2.731,4.102,4.097,4.195
			C325.7,159.846,327.427,158.294,327.383,156.093z M316.359,40.615c-2.851,0.282-4.392,1.332-4.3,3.047
			c0.1,1.856,2.126,3.17,4.579,2.793c2.299-0.353,2.773-2.089,2.734-4.084C319.334,40.367,318.064,40.292,316.359,40.615z
			 M307.001,186.398c-1.759,0.034-2.083,0.346-2.044,1.968c0.055,2.308,1.772,4.464,3.537,4.44c2.088-0.028,3.486-1.428,3.404-3.407
			C311.812,187.333,310.185,186.337,307.001,186.398z M310.297,142.512c-0.112,1.222,0.048,2.302,1.878,2.25
			c2.347-0.068,5.024-2.083,5.062-3.952c0.04-1.987-1.112-2.527-2.883-2.492C311.973,138.366,310.289,139.987,310.297,142.512z
			 M153.594,45.944c-1.277-0.273-2.685-0.136-2.775,1.875c-0.086,1.932,2.144,3.895,4.101,4.03c2.149,0.149,2.971-1.049,3.146-2.847
			C158.26,47.006,156.726,45.946,153.594,45.944z M320.454,76.39c-0.06-2.114-1.896-4.292-3.27-4.247
			c-1.278,0.042-3.177,3.314-2.972,5.467c0.166,1.739,1.426,2.049,3.026,2.017C319.737,79.575,320.074,77.829,320.454,76.39z
			 M32.968,136.134c0.168-1.032,1.597,0.14,1.756-1.125c0.111-0.878-0.112-1.644-0.857-2.052c-2.015-1.101-4.049-2.179-6.144-3.113
			c-0.695-0.311-2.065-0.009-1.843,0.797c0.417,1.51,0.108,3.288,1.975,4.449C29.533,136.134,31.345,134.981,32.968,136.134z
			 M331.169,25.445c-0.107-2.108,0.024-3.934-2.386-4.057c-1.716-0.087-3.533,1.91-3.538,3.769
			c-0.005,2.019,1.119,3.572,2.924,3.569C330.108,28.723,331.584,27.4,331.169,25.445z M130.365,173.046
			c2.001-0.015,2.673-1.258,2.388-3.277c-0.271-1.923-2.027-2.432-2.86-3.776c-0.525-0.847-1.342-1.465-2.412-0.53
			c-0.911,0.795-1.374,1.797-0.567,2.751c0.656,0.776,0.762,1.523,0.745,2.418C127.623,172.474,128.668,173.131,130.365,173.046z
			 M83.722,160.587c2.343-0.097,5.233-2.206,4.9-3.74c-0.334-1.544-1.231-2.894-3.018-2.98c-1.485-0.071-4.405,3.003-4.281,4.453
			C81.441,159.689,82.307,160.482,83.722,160.587z M115.208,52.89c-1.917,0.049-3.16,1.83-3.026,4.275
			c0.082,1.486,0.153,3.136,2.247,3.176c1.371,0.026,3.717-2.842,3.596-4.35C117.878,54.19,116.737,53.259,115.208,52.89z
			 M293.628,158.621c2.065,0.044,4.425-2.56,4.186-4.628c-0.155-1.34-1.19-1.876-2.681-1.815c-2.528,0.101-3.903,1.321-4.073,3.871
			C290.917,158.176,292.486,158.293,293.628,158.621z M157.564,76.794c-0.384-1.05-0.387-2.604-2.384-2.559
			c-1.782,0.04-3.825,1.806-3.912,3.496c-0.079,1.539,1.656,3.48,3.09,3.458C155.81,81.166,157.496,78.972,157.564,76.794z
			 M325.285,142.355c1.269-0.08,2.514-1.159,2.554-2.842c0.049-2.056-1.733-3.112-3.468-3.208c-1.446-0.08-3.088,0.647-3.372,2.521
			C320.72,140.655,322.302,142.081,325.285,142.355z M308.708,52.65c-0.075,2.244,1.669,4.485,3.318,4.471
			c2.08-0.018,2.54-1.807,3.016-3.303c0.313-0.987-2.315-3.598-3.513-3.578C309.749,50.27,309.037,51.511,308.708,52.65z
			 M97.193,147.605c-0.309-1.183-1.336-2.408-2.897-2.794c-1.365-0.337-3.487,2.93-3.516,4.903c-0.022,1.508,0.6,2.084,2.059,1.978
			C94.591,151.566,97.261,149.401,97.193,147.605z M287.243,195.479c2.804,0.087,2.432-2.007,2.684-3.32
			c0.267-1.389-2.204-3.755-3.46-3.426c-1.609,0.422-2.687,1.664-2.824,3.342C283.509,193.686,285.764,195.493,287.243,195.479z
			 M345.063,68.935c0.151-1.71-2.494-4.131-4.319-4.279c-1.607-0.131-1.861,1.239-2.074,2.234c-0.335,1.567,2.353,4.768,3.857,4.639
			C344.162,71.388,345.402,70.611,345.063,68.935z M115.893,137.23c-0.33-1.343-0.642-3.473-2.794-3.595
			c-2.225-0.126-2.832,1.957-3.014,3.76c-0.14,1.381,0.22,3.142,2.023,2.975C113.651,140.227,115.968,140.392,115.893,137.23z
			 M116.391,65.437c0.439-2.048-0.772-3.569-2.442-3.316c-2.198,0.334-2.637,2.58-2.883,4.661c-0.245,2.07,1.296,2.476,2.519,2.406
			C115.692,69.066,116.879,67.745,116.391,65.437z M339.037,16.037c-2.454,0.01-4.689,1.596-4.706,3.186
			c-0.011,1.09,2.081,3.292,3.053,3.213c1.026-0.083,3.784-3.282,3.647-4.474C340.897,16.789,340.648,15.413,339.037,16.037z
			 M347.724,61.431c1.395-0.003,3.878-1.832,3.609-3.095c-0.435-2.045-2.553-2.386-4.05-2.599c-1.256-0.178-2.945,0.766-2.785,2.706
			C344.642,60.188,345.297,61.595,347.724,61.431z M97.9,180.524c-1.977,0.027-2.34,0.339-2.289,1.963
			c0.063,2.021,2.041,3.93,4.03,3.914c1.633-0.014,2.403-0.835,2.378-2.45C101.992,182.144,100.012,180.494,97.9,180.524z
			 M123.942,51.832c2.767,0.331,2.764-2.237,2.958-3.532c0.207-1.375-1.297-2.462-3.109-2.377c-1.937,0.09-2.985,1.145-3.033,2.919
			C120.703,50.859,122.043,51.751,123.942,51.832z M84.93,181.373c-0.13,1.133,0.707,1.906,1.065,2.858
			c0.423,1.122,1.556,1.789,2.396,1.427c1.125-0.484,2.267-1.509,1.837-3.12c-0.196-0.735-0.62-1.407-0.85-2.137
			c-0.423-1.345-1.437-2.048-2.683-1.797C85.396,178.865,84.86,180.024,84.93,181.373z M82.295,165.875
			c-0.204-1.743-1.113-2.852-2.944-2.96c-1.978-0.116-1.794,1.421-1.889,2.678c-0.052,0.698,0.005,1.404-0.013,2.106
			c-0.022,0.896-0.063,1.814,1.05,2.11c1.021,0.271,2.129-0.135,2.562-0.842C81.608,168.076,82.401,167.129,82.295,165.875z
			 M81.725,178.246c-0.053-2.19-1.751-4.181-3.585-3.935c-1.023,0.137-1.976,0.593-1.801,2.151c0.263,2.342,1.827,4.746,3.378,4.576
			C81.353,180.859,81.842,179.744,81.725,178.246z M353.507,48.594c0.488-2.3-0.992-3.405-2.798-3.606
			c-1.304-0.146-2.36,1.086-2.469,2.545c-0.152,2.064,1.289,3.747,3.118,3.736C353.108,51.259,353.901,50.366,353.507,48.594z
			 M32.96,108.962c2.616-0.011,3.715-0.61,3.903-2.011c0.289-2.144-1.101-2.81-4.076-2.312c-1.632,0.273-3.283,1.033-3.142,2.425
			C29.775,108.354,31.401,109.409,32.96,108.962z M21.228,132.459c2.364,0.086,2.655-1.395,2.775-2.748
			c0.124-1.403-2.471-2.951-4.452-3.173c-1.745-0.195-1.574,1.216-1.665,1.946C17.683,130.104,20.098,132.462,21.228,132.459z
			 M330.597,73.081c-0.043,1.988,1.826,4.522,3.042,4.117c1.094-0.364,2.539-0.84,2.792-2.28c0.289-1.645-1.937-3.742-3.807-3.889
			C330.806,70.886,330.757,72.144,330.597,73.081z M123.917,183.814c-0.024-1.74-4.28-4.419-5.634-3.701
			c-0.492,0.262-0.736,0.677-0.787,1.274c-0.153,1.772,2.831,4.77,4.55,4.455C123.211,185.629,124.294,185.227,123.917,183.814z
			 M129.465,145.253c0.37-0.543,1.405,0.733,1.986-0.688c0.572-1.4-0.303-1.879-0.974-2.603c-0.421-0.454-0.849-0.905-1.313-1.313
			c-0.685-0.603-1.204-1.724-2.393-1.089c-1.154,0.617-1.46,1.71-1.247,2.938C125.884,144.566,127.158,145.459,129.465,145.253z
			 M99.849,141.227c0.132,1.591-0.604,3.236,1.896,3.039c1.936-0.153,3.266-0.841,3.428-2.755c0.175-2.068-1.704-2.919-3.147-3.016
			C100.438,138.39,99.432,139.72,99.849,141.227z M40.597,105.887c-0.055,1.77,1.688,4.217,3.042,3.926
			c0.978-0.21,2.511-0.264,2.341-2.14c-0.144-1.586-2.059-4.435-3.487-4.353C41.146,103.398,40.635,104.586,40.597,105.887z
			 M121.315,140.059c1.815-0.323,3.984,0.56,3.606-2.018c-0.342-2.339-2.4-1.769-4.006-1.85c-1.904-0.098-1.863,1.179-1.804,2.477
			C119.208,140.788,120.672,140.042,121.315,140.059z"/>
		<path style="fill-rule:evenodd;clip-rule:evenodd;fill:#7B491E;" d="M44.164,98.304c-2.425-0.73-5.166,0.428-7.905,1.132
			c-2.573,0.661-5.203,0.358-7.764,0.953c-3.587,0.833-5.973-1.637-8.256-3.655c-1.902-1.682-5.051-2.177-5.488-5.562
			c-0.075-0.582-2.383-0.954-3.695-1.285c-4.759-1.2-7.346-5.872-4.814-10.515c0.345-0.632,0.207-1.567,0.172-2.357
			C6.05,68.753,7.415,60.642,8.61,52.522c0.144-0.981,0.71-1.965,1.288-2.805c1.616-2.349,3.556-4.447,4.938-6.997
			c0.653-1.205,1.781-2.514,3.634-2.12c0.918,0.194,1.633-0.292,1.999-1.001c1.85-3.587,5.467-4.729,8.704-6.375
			c1.696-0.862,3.489-1.514,5.479-1.18c0.418,0.07,0.809-0.066,1.226-0.322c3.513-2.159,7.103-3.795,11.359-1.96
			c1.089,0.469,1.98-0.763,3.103-0.981c2.799-0.546,5.525,0.254,8.281,0.078c0.263-0.017,0.631-0.079,0.781,0.061
			c3.557,3.316,8.52,3.905,12.459,6.453c1.324,0.857,1.894,2.184,1.875,3.829c-0.036,3.28-0.046,6.34,1.917,9.5
			c1.757,2.828,1.14,6.586-0.376,9.804c-0.182,0.386-0.532,0.702-0.485,1.169c0.447,4.423-1.977,7.933-3.67,11.683
			c-0.615,1.361-0.873,2.689-0.721,4.345c0.562,6.115-2.42,10.896-6.875,14.679c-1.072,0.911-2.914,1.27-4.383,1.92
			c-2.561,1.132-5.047,2.099-6.951,4.58C50.479,99.115,47.297,98.203,44.164,98.304z M48.479,79.355
			c1.615-0.146,2.725-1.722,4.258-2.522c2.295-1.198,3.751-2.682,3.363-5.447c-0.119-0.849,0.057-1.815,1.018-1.873
			c1.521-0.091,1.029-1.105,1.106-1.884c0.205-2.081-0.453-4.23,0.519-6.253c0.94-1.957,1.516-3.843-1.072-5.078
			c-0.437-0.208-0.506-0.677-0.514-1.147c-0.06-3.505-3.983-4.464-4.92-7.408c-0.041-0.128-0.479-0.187-0.73-0.183
			c-3.667,0.062-7.1-1.402-10.726-1.634c-1.294-0.083-2.635-1.016-3.853-0.461c-6.979,3.179-14.354,6.043-15.045,15.397
			c-0.017,0.239-0.231,0.461-0.345,0.695c-1.475,3.027-2.143,6.132-0.526,9.3c0.804,1.576-0.409,3.75,1.264,4.899
			c2.474,1.7,5.164,3.207,8.256,3.246c2.424,0.031,4.653,0.393,6.758,1.623c1.528,0.893,3.696,1.222,4.743,0.24
			C43.987,79.033,45.871,78.736,48.479,79.355z"/>
		<path style="fill-rule:evenodd;clip-rule:evenodd;fill:#7B491E;" d="M168.646,91.361c3.966,0.774,7.352-2.074,11.122-3.69
			c3.392-1.454,5.251-0.64,7.651,2.158c2.473,2.881,2.589,6.303,3.223,9.655c0.154,0.818-0.569,1.418-0.889,2.118
			c-2.332,5.095-5.344,9.915-6.052,15.652c-0.352,2.854-2.623,3.816-4.99,4.504c-3.002,0.873-5.771,2.055-7.854,4.551
			c-0.647,0.775-1.58,1.554-2.521,1.797c-3.277,0.847-6.051,2.813-9.225,3.901c-1.702,0.583-3.415,0.949-4.926,0.336
			c-2.027-0.825-3.537-0.157-5.083,0.835c-5.37,3.448-5.541,3.512-10.317-0.618c-1.131-0.978-1.921-0.432-2.836-0.048
			c-2.994,1.257-6.158,2.066-8.839-0.165c-1.375-1.145-2.819-2.556-3.651-4.357c-0.5-1.084-1.198-2.121-1.991-3.016
			c-3.122-3.518-3.214-9.84,0.018-13.28c1.92-2.044,3.128-4.538,4.591-6.853c2.016-3.188,5.272-4.016,8.412-4.304
			c4.81-0.441,9.65-0.679,14.46-1.207c1.191-0.13,2.554-0.28,3.257-1.346c1.76-2.665,4.565-3.955,7.167-5.354
			C162.005,91.214,165.098,91.254,168.646,91.361z M147.742,118.075c3.18-0.105,5.546,0.015,7.96-0.979
			c1.579-0.65,1.51-2.636,3.201-2.859c2.582-0.341,4.61-1.863,6.813-3.098c3.37-1.887,6.723-3.775,9.985-5.853
			c1.351-0.859,1.377-2.034,0.922-2.878c-0.437-0.811-1.649-0.382-2.612-0.068c-1.355,0.44-2.14,1.57-3.071,2.413
			c-2.354,2.132-5.548,1.74-8.128,3.112c-1.115,0.593-2.009,1.511-3.448,1.69c-4.864,0.607-9.806,0.596-14.509,2.515
			c-2.316,0.945-4.69,1.57-6.607,3.298c-0.419,0.378-0.43,0.69-0.405,1.106c0.03,0.501,0.445,0.477,0.78,0.486
			C141.942,117.049,145.083,118.777,147.742,118.075z"/>
		<path style="fill-rule:evenodd;clip-rule:evenodd;fill:#7B491E;" d="M292.123,38.381c0.285,3.804-1.503,7.578,0.521,11.198
			c0.184,0.33,0.162,0.995-0.055,1.294c-2.566,3.554-4.596,7.631-8.972,9.471c-0.077,0.033-0.221-0.023-0.258,0.023
			c-2.732,3.331-6.787,5.049-9.809,7.941c-2.232,2.136-5.083,2.974-7.447,0.994c-2.933-2.456-6.608-3.237-10.125-4.021
			c-3.267-0.729-6.527-0.739-9.009-3.641c-1.213-1.418-3.695-0.923-5.387-2.235c-1.546-1.2-2.847-2.285-2.83-4.341
			c0.005-0.708-0.3-1.167-0.76-1.603c-3.024-2.869-3.241-6.208-1.351-9.685c2.271-4.178,3.521-8.745,5.325-13.098
			c1.658-4.001,3.893-7.762,7.591-10.135c2.766-1.775,5.849-2.793,9.362-3.079c3.553-0.29,7.453,1.318,10.76-1.36
			c0.451-0.366,1.282,0.041,1.96,0.397c2.291,1.204,4.365,2.508,6.222,4.465c1.854,1.956,4.634,2.945,6.917,4.563
			C289.387,28.794,292.788,32.407,292.123,38.381z M263.213,51.347c4.311-0.635,8.502-2.249,12.788-3.479
			c0.782-0.225,0.875-1.024,0.692-2.085c-0.688-4.006-3.152-6.984-5.282-10.19c-0.751-1.13-1.773-2.166-2.943-2.233
			c-2.256-0.127-3.845-1.463-5.691-2.361c-2.565-1.249-3.583-0.743-4.308,1.976c-0.105,0.396-0.386,0.767-0.65,1.096
			c-1.549,1.929-3.164,3.806-4.657,5.776c-0.591,0.78-1.397,1.554-0.901,2.801c0.659,1.655,2.284,2.896,2.035,4.96
			c-0.066,0.55,0.67,0.546,1.043,0.45c2.312-0.597,3.962,0.65,5.006,2.305C261.174,51.679,262.145,51.068,263.213,51.347z"/>
		<path style="fill-rule:evenodd;clip-rule:evenodd;fill:#7B491E;" d="M276.126,110.292c0.721-0.627-0.104-1.557,0.264-2.462
			c1.33-3.273,4.508-4.001,6.965-1.507c3.16,3.207,3.191,6.456,0.042,8.423c-1.479,0.924-2.997,1.731-4.783,0.587
			C277.097,114.363,276.033,112.387,276.126,110.292z"/>
		<path style="fill-rule:evenodd;clip-rule:evenodd;fill:#7B491E;" d="M50.214,126.79c0,0.516,0.067,0.808-0.01,0.853
			c-2.333,1.366-1.646,4.28-3.131,6.071c-1.501,1.811-3.178,0.957-4.871,0.355c-1.474-0.522-3.282-1.811-3.25,1.416
			c0.013,1.371-1.208,1.258-2.192,1.246c-1.147-0.014-1.5-0.673-1.51-1.722c-0.01-1.078,0.135-2.079,1.48-1.984
			c1.388,0.098,1.769-0.362,1.792-1.755c0.027-1.568,0.957-1.952,2.3-0.99c1.985,1.42,3.047-0.664,4.413-1.325
			c0.506-0.245,0.295-1.167-0.775-1.363c-0.969-0.177-1.22-0.996-0.685-1.925c1.19-2.066,3.146-0.992,4.707-0.953
			C49.45,124.738,50.805,125.488,50.214,126.79z"/>
		<path style="fill-rule:evenodd;clip-rule:evenodd;fill:#7B491E;" d="M253.435,153.807c-2.574,0.077-4.033-1.284-4-3.497
			c0.028-1.945-1.271-4.141,0.942-5.733c0.419-0.301,0.809-0.729,1.277-0.854c0.575-0.153,1.365-0.228,1.682,0.437
			c1.238,2.587,6.205,0.964,5.933,5.319c-0.04,0.639-0.162,1.307-0.488,1.551C257.053,152.329,255.097,153.224,253.435,153.807z"/>
		<path style="fill-rule:evenodd;clip-rule:evenodd;fill:#7B491E;" d="M277.342,124.196c0.587-1.277,0.064-3.184,2.08-2.937
			c1.163,0.144,2.729-0.684,3.39,0.703c0.586,1.229,0.603,2.788-0.284,4.003c-1.318,1.81-1.781,4.333-4.562,4.94
			c-2.317,0.506-3.872-0.396-3.992-2.72c-0.07-1.355,0.393-2.798-0.879-3.954c-0.494-0.45-0.245-1.238,0.334-1.599
			c0.871-0.541,1.864-0.562,2.717,0.023C276.583,122.958,276.837,123.526,277.342,124.196z"/>
		<path style="fill-rule:evenodd;clip-rule:evenodd;fill:#7B491E;" d="M280.417,96.524c-0.073,2.004-1.243,3.736-1.336,5.8
			c-0.053,1.161-1.572,1.402-2.823,1.321c-0.898-0.058-1.736,0.062-2.029-1.114c-0.617-2.48-2.46-4.65-0.416-7.583
			c0.952-1.367,1.205-3.118,3.221-3.026C278.996,92.011,280.42,94.135,280.417,96.524z"/>
		<path style="fill-rule:evenodd;clip-rule:evenodd;fill:#7B491E;" d="M214.703,97.272c-0.011,2.927-1.648,5.098-4.416,6.409
			c-1.534,0.728-1.869-0.629-2.563-1.174c-2.194-1.724-2.392-3.741-0.71-5.859c0.547-0.689,1.214-1.29,1.867-1.886
			c1.048-0.955,1.817-2.541,3.726-1.552C213.957,93.911,214.709,95.247,214.703,97.272z"/>
		<path style="fill-rule:evenodd;clip-rule:evenodd;fill:#7B491E;" d="M130.397,155.2c1.032,1.696,1.501,3.675,2.915,5.207
			c0.931,1.01-0.539,1.658-0.875,2.483c-0.43,1.057-1.429,0.573-2.074,0.467c-0.87-0.144-1.57-0.819-1.626-1.828
			c-0.086-1.568,0.267-3.22-1.087-4.493c-0.656-0.618-0.224-1.351,0.097-1.872c1.306-2.121,1.381-3.301,0.076-6.293
			c-0.502-1.151-0.085-2.248,0.645-2.87c0.874-0.745,1.644,0.253,2.133,0.932c0.952,1.321,1.875,2.685,2.757,4.033
			C134.681,152.99,133.5,154.469,130.397,155.2z"/>
		<path style="fill-rule:evenodd;clip-rule:evenodd;fill:#7B491E;" d="M236.457,154.923c-1.247,0.246-2.143-0.196-2.485-1.348
			c-0.657-2.208-3.019-4.304-0.566-6.778c0.299-0.302,0.533-0.723,0.892-0.899c0.865-0.428,6.569,1.521,7.039,2.389
			c0.788,1.456,1.053,3.029,0.046,4.424C240.198,154.352,238.219,154.5,236.457,154.923z"/>
		<path style="fill-rule:evenodd;clip-rule:evenodd;fill:#7B491E;" d="M247.315,86.531c-2.658,0.002-4.844-1.471-4.84-3.259
			c0.007-2.726,2.25-4.785,5.176-4.751c2.93,0.034,4.933,1.849,4.962,4.498C252.637,85.231,250.679,86.53,247.315,86.531z"/>
		<path style="fill-rule:evenodd;clip-rule:evenodd;fill:#7B491E;" d="M388.339,133.529c-1.674-0.071-3.882,0.616-4.181-1.941
			c-0.364-3.115,2.28-7.138,4.375-7.139c2.197-0.001,4.736,3.42,4.498,6.464C392.798,133.89,390.38,133.497,388.339,133.529z"/>
		<path style="fill-rule:evenodd;clip-rule:evenodd;fill:#7B491E;" d="M230.724,86.028c-0.019,2.966-4.924,6.132-7.626,4.921
			c-1.958-0.877-2.557-2.867-1.427-4.704c1.925-3.132,3.972-4.688,6.838-3.418C229.832,83.413,230.93,84.31,230.724,86.028z"/>
		<path style="fill-rule:evenodd;clip-rule:evenodd;fill:#7B491E;" d="M219,152.729c-2.484,0.155-4.486-2.322-4.105-4.858
			c0.178-1.184-0.418-2.444,0.319-3.673c0.905-1.512,2.004-1.771,3.315-0.671c1.183,0.993,2.164,2.122,3.715,2.747
			c1.147,0.462,1.471,1.849,1.044,3.268C222.656,151.646,220.791,151.989,219,152.729z"/>
		<path style="fill-rule:evenodd;clip-rule:evenodd;fill:#7B491E;" d="M355.512,147.959c1.722-0.109,3.276,0.542,4.745-0.897
			c0.938-0.919,4.564,0.512,4.968,1.812c0.599,1.928-1.151,2.433-2.264,3.351c-0.562,0.465-0.893,0.237-1.333,0.002
			c-1.52-0.812-2.854-1.416-4.262,0.463c-0.913,1.219-2.435,1.514-3.848,0.308c-1.138-0.972-2.077-2.08-1.467-3.631
			C352.701,147.722,354.245,147.844,355.512,147.959z"/>
		<path style="fill-rule:evenodd;clip-rule:evenodd;fill:#7B491E;" d="M274.537,140.391c0.132,0.618-0.178,1.277-0.816,1.658
			c-1.455,0.87-2.705,2.018-4.09,2.952c-1.635,1.104-3.006,0.151-3.139-1.871c-0.062-0.941-0.06-1.855-0.312-2.833
			c-0.735-2.846,2.211-3.436,3.632-4.813c0.971-0.942,2.228,0.458,2.914,1.393C273.464,137.882,274.597,138.748,274.537,140.391z"/>
		<path style="fill-rule:evenodd;clip-rule:evenodd;fill:#7B491E;" d="M374.919,150.622c0.336,1.917-1.083,2.533-2.629,2.623
			c-3.704,0.218-6.438-1.767-6.453-4.458c-0.007-1.415,2.146-3.957,3.42-4.036C371.747,144.597,374.846,147.73,374.919,150.622z"/>
		<path style="fill-rule:evenodd;clip-rule:evenodd;fill:#7B491E;" d="M142.619,45.849c0.019,2.039-0.785,3.17-2.706,3.291
			c-0.872,0.054-1.682,0.167-2.546,0.45c-1.637,0.536-3.282,0.021-4.076-1.559c-0.756-1.505-0.431-2.963,0.984-4.22
			c2.289-2.033,5.392-2.132,7.463-0.111C142.443,44.387,142.75,45.104,142.619,45.849z"/>
		<path style="fill-rule:evenodd;clip-rule:evenodd;fill:#7B491E;" d="M313.037,64.074c0.109,0.948-0.884,1.849-1.867,2.827
			c-0.197,0.196-1.615,1.04,0.277,1.651c1.274,0.412,2.336,2.131,1.879,3.925c-0.328,1.288-1.339,2.148-2.579,2.238
			c-1.505,0.109-2.322-1.313-2.933-2.342c-0.694-1.169-0.229-2.724,0.832-3.557c0.945-0.742,0.754-0.958,0.144-1.774
			c-0.75-1.004-1.436-2.237-1.608-3.448c-0.258-1.808,1.433-1.983,2.659-2.116C311.273,61.324,312.928,61.23,313.037,64.074z"/>
		<path style="fill-rule:evenodd;clip-rule:evenodd;fill:#7B491E;" d="M269.707,86.867c-0.039,2.39-1.98,3.872-4.223,3.177
			c-2.213-0.686-3.949-2.09-5.072-4.064c-0.861-1.513-0.453-3.392,1.267-3.579c2.334-0.253,4.849,0.161,6.855,1.685
			C269.351,84.707,269.814,85.729,269.707,86.867z"/>
		<path style="fill-rule:evenodd;clip-rule:evenodd;fill:#7B491E;" d="M383.46,138.758c-0.002,3.992-2.26,6.804-4.846,6.537
			c-1.148-0.118-1.941-0.736-2.035-1.722c-0.205-2.154-0.438-4.431,1.214-6.204c0.943-1.013,1.794-2.479,3.581-1.914
			C383.172,136.025,383.844,137.313,383.46,138.758z"/>
		<path style="fill-rule:evenodd;clip-rule:evenodd;fill:#7B491E;" d="M48.155,118.073c0.922-1.398,0.358-3.163-0.526-5.064
			c-0.493-1.062-0.286-2.571,1.038-3.248c0.941-0.481,2.109-0.659,2.903,0.334c0.773,0.969,1.866,1.836,0.896,3.427
			c-0.939,1.54-1.429,3.096,0.584,4.538c1.132,0.812,0.167,2.156-0.398,3.063c-0.429,0.69-1.497,1.47-2.144,1.005
			C49.371,121.312,47.84,120.527,48.155,118.073z"/>
		<path style="fill-rule:evenodd;clip-rule:evenodd;fill:#7B491E;" d="M201.886,139.603c0.033-1.928,1.69-3.422,3.777-3.405
			c0.972,0.008,4.621,4.201,4.564,5.245c-0.076,1.414-2.434,3.315-4.088,3.297C204.018,144.717,201.842,142.09,201.886,139.603z"/>
		<path style="fill-rule:evenodd;clip-rule:evenodd;fill:#7B491E;" d="M287.865,175.396c0.169,2.202-1.268,3.093-3.285,3.296
			c-1.334,0.135-4.234-3.893-4.188-5.674c0.045-1.711,2.111-3.748,3.76-3.707C285.934,169.354,287.898,172.493,287.865,175.396z"/>
		<path style="fill-rule:evenodd;clip-rule:evenodd;fill:#7B491E;" d="M124.449,82.907c-0.02-2.715,1.156-3.848,3.998-3.852
			c2.392-0.003,4.431,1.568,4.457,3.436c0.022,1.644-2.413,4.013-4.154,4.039C126.341,86.565,124.464,84.984,124.449,82.907z"/>
		<path style="fill-rule:evenodd;clip-rule:evenodd;fill:#7B491E;" d="M198.147,127.262c0.034-2.587,2.207-5.13,4.731-5.705
			c1.066-0.242,1.774,0.676,2.004,1.064c0.95,1.612,1.053,3.474,0.124,5.174c-0.782,1.434-2.182,2.254-3.743,2.492
			C198.961,130.64,198.115,129.726,198.147,127.262z"/>
		<path style="fill-rule:evenodd;clip-rule:evenodd;fill:#7B491E;" d="M371.176,113.842c0.069-1.51-0.314-3.646,2.427-3.791
			c2.112-0.111,4.927,2.717,5.039,4.897c0.084,1.653-2.092,3.682-3.85,3.59C372.458,118.417,371.186,116.869,371.176,113.842z"/>
		<path style="fill-rule:evenodd;clip-rule:evenodd;fill:#7B491E;" d="M21.566,117.521c-1.614-0.064-2.663-1.708-1.601-2.982
			c1.734-2.08,2.441-4.849,5.03-6.429c1.818-1.11,2.623-0.299,3.428,0.779c0.872,1.166,0.844,2.486-0.78,3.114
			c-1.522,0.589-2.294,1.817-2.997,3.128C23.964,116.403,23.23,117.553,21.566,117.521z"/>
		<path style="fill-rule:evenodd;clip-rule:evenodd;fill:#7B491E;" d="M302.036,150.617c-1.433,0.003-4.616-2.411-4.52-3.426
			c0.144-1.503,3.141-3.454,5.248-3.532c2.145-0.078,3.637,0.653,3.769,2.963C306.647,148.601,304.283,150.613,302.036,150.617z"/>
		<path style="fill-rule:evenodd;clip-rule:evenodd;fill:#7B491E;" d="M341.271,135.139c-0.006-1.818,2.39-4.474,4.083-4.044
			c1.593,0.403,3.812,0.584,3.927,3.097c0.073,1.606-2.921,4.602-4.669,4.674C343.127,138.927,341.277,136.863,341.271,135.139z"/>
		<path style="fill-rule:evenodd;clip-rule:evenodd;fill:#7B491E;" d="M358.948,120.71c-2.016,0.021-3.834-1.779-3.786-3.794
			c0.05-2.039,1.328-3.263,3.114-3.621c1.938-0.388,4.841,2.314,4.86,4.191C363.15,118.823,360.721,120.692,358.948,120.71z"/>
		<path style="fill-rule:evenodd;clip-rule:evenodd;fill:#7B491E;" d="M20.294,121.427c0.068,2.105-2.069,4.344-4.089,4.57
			c-1.591,0.179-2.582-0.771-3.176-2.175c-0.289-0.681-0.449-1.474,0.074-1.999c1.521-1.53,3.214-2.859,4.627-4.539
			c0.826-0.981,1.698,0.461,1.876,1.052C19.95,119.472,19.795,120.752,20.294,121.427z"/>
		<path style="fill-rule:evenodd;clip-rule:evenodd;fill:#7B491E;" d="M353.554,123.975c0.435,2.579-1.604,2.808-3.347,3.104
			c-1.403,0.238-4.097-2.394-4.097-3.772c-0.002-1.868,1.749-3.694,3.51-3.663C351.856,119.683,353.552,121.51,353.554,123.975z"/>
		<path style="fill-rule:evenodd;clip-rule:evenodd;fill:#7B491E;" d="M284.663,164.446c0.008-2.496,1.484-4.713,3.161-4.748
			c1.686-0.035,3.209,1.668,3.247,3.632c0.04,2.057-1.898,4.85-3.403,4.902C285.96,168.292,284.655,166.646,284.663,164.446z"/>
		<path style="fill-rule:evenodd;clip-rule:evenodd;fill:#7B491E;" d="M355.383,32.067c1.373,0.342,2.531,1.259,2.45,3.312
			c-0.083,2.108-2.404,5.079-4.146,4.719c-1.385-0.286-2.416-0.772-2.354-2.354C351.505,33.288,352.326,32.02,355.383,32.067z"/>
		<path style="fill-rule:evenodd;clip-rule:evenodd;fill:#7B491E;" d="M130.856,177.905c-0.018,2.578-1.892,4.368-4.603,4.197
			c-2.483-0.157-2.595-2.344-2.803-4.021c-0.266-2.146,1.729-3.158,5.519-2.854C130.451,175.345,130.987,176.473,130.856,177.905z"
			/>
		<path style="fill-rule:evenodd;clip-rule:evenodd;fill:#7B491E;" d="M295.344,191.042c0.041-0.934-0.241-1.924,0.95-2.498
			c1.175-0.567,1.842,0.062,2.716,0.677c3.707,2.606,4.108,3.993,1.696,6.486c-1.393,1.439-3.171,1.312-4.146-0.484
			C295.872,193.954,295.242,192.582,295.344,191.042z"/>
		<path style="fill-rule:evenodd;clip-rule:evenodd;fill:#7B491E;" d="M107.421,183.029c1.102,0.126,2.139,0.104,3.29-0.127
			c1.702-0.341,2.95,1.012,3.505,2.45c0.518,1.341-0.517,2.141-1.777,2.729c-2.925,1.362-5.463,0.453-6.815-2.598
			C104.936,183.928,105.677,182.901,107.421,183.029z"/>
		<path style="fill-rule:evenodd;clip-rule:evenodd;fill:#7B491E;" d="M388.801,116.396c0.286,1.796-0.485,3.329-2.479,3.711
			c-1.569,0.301-3.403-2.324-3.395-4.487c0.01-1.983,0.495-3.718,2.82-3.96C387.73,111.453,388.801,113.132,388.801,116.396z"/>
		<path style="fill-rule:evenodd;clip-rule:evenodd;fill:#7B491E;" d="M163.204,64.102c1.605-0.107,2.837,0.358,2.882,2.204
			c0.055,2.257-2.239,4.748-4.254,4.738c-1.481-0.006-3.275-2.033-3.203-3.617C158.71,65.626,160.825,64.089,163.204,64.102z"/>
		<path style="fill-rule:evenodd;clip-rule:evenodd;fill:#7B491E;" d="M167.619,55.316c-0.797,0.86-1.203,3.021-3.166,2.8
			c-1.542-0.174-3.911-0.465-2.766-3.434c0.231-0.599-0.946-1.708-1.405-2.616c-0.614-1.214-0.116-2.406,1.111-1.743
			c1.838,0.994,4.19,0.838,5.647,2.638C167.523,53.558,167.809,54.109,167.619,55.316z"/>
		<path style="fill-rule:evenodd;clip-rule:evenodd;fill:#7B491E;" d="M325.769,149.548c-1.32-0.482-3.217,0.209-4.639-1.167
			c-0.467-0.452-0.868-0.935-0.646-1.606c0.254-0.765,0.895-1.137,1.65-0.943c1.393,0.357,2.427-0.456,3.292-1.174
			c1.34-1.113,2.55-1.351,4.034-0.463c1.124,0.671,0.765,1.884,0.501,2.534c-0.572,1.416-1.527,2.738-3.36,2.818
			C326.426,149.555,326.25,149.548,325.769,149.548z"/>
		<path style="fill-rule:evenodd;clip-rule:evenodd;fill:#7B491E;" d="M314.568,181.995c-0.057,1.667-1.905,3.268-3.619,3.133
			c-1.386-0.109-4.146-3.437-4.065-5.138c0.059-1.215,0.976-2.056,2.154-2.095C311.821,177.802,314.636,179.983,314.568,181.995z"/>
		<path style="fill-rule:evenodd;clip-rule:evenodd;fill:#7B491E;" d="M201.351,112.219c-0.007-2.026,0.915-3.548,2.125-3.507
			c1.977,0.067,4.072,1.938,4.134,3.69c0.075,2.116-1.774,4.639-3.346,4.562C202.801,116.893,201.359,114.544,201.351,112.219z"/>
		<path style="fill-rule:evenodd;clip-rule:evenodd;fill:#7B491E;" d="M328.988,77.092c0.035,1.784-1.545,2.943-3.766,3.061
			c-2.184,0.115-2.191-1.202-2.114-2.724c0.032-0.616,0.098-1.254-0.02-1.849c-0.272-1.392-0.408-2.926,1.269-3.23
			c1.397-0.253,2.893,0.333,3.546,1.894C328.295,75.179,329.116,75.959,328.988,77.092z"/>
		<path style="fill-rule:evenodd;clip-rule:evenodd;fill:#7B491E;" d="M322.583,164.956c0.103,2.287-1.506,3.042-2.98,3.697
			c-1.585,0.702-1.841-0.993-2.357-1.817c-0.725-1.156-2.44-2.253-1.33-3.827c0.594-0.841,0.762-2.609,2.512-2.212
			C320.576,161.283,322.617,163.468,322.583,164.956z"/>
		<path style="fill-rule:evenodd;clip-rule:evenodd;fill:#7B491E;" d="M314.131,175.211c-1.61-0.006-5.003-2.832-4.854-4.251
			c0.129-1.234,0.316-2.713,2.145-2.714c1.911-0.002,5.872,2.718,5.776,4.116C317.075,174.156,315.936,175.118,314.131,175.211z"/>
		<path style="fill-rule:evenodd;clip-rule:evenodd;fill:#7B491E;" d="M115.08,74.762c2.3,0.073,4.525,2.458,4.56,4.205
			c0.015,0.746-2.875,3.252-3.73,3.235c-1.069-0.021-4.009-3.112-3.688-4.097C112.766,76.431,113.581,74.844,115.08,74.762z"/>
		<path style="fill-rule:evenodd;clip-rule:evenodd;fill:#7B491E;" d="M144.531,80.913c0.123,1.908-1.673,3.376-4.006,3.506
			c-2.37,0.133-2.724-1.435-2.907-3.169c-0.175-1.656,2.16-3.827,4.122-3.77C143.865,77.542,144.348,79.131,144.531,80.913z"/>
		<path style="fill-rule:evenodd;clip-rule:evenodd;fill:#7B491E;" d="M357.814,24.923c0.155,2.321-0.704,3.903-2.855,4.416
			c-1.091,0.26-3.594-2.683-3.508-4.113c0.11-1.821,0.661-3.574,2.999-3.271C356.18,22.18,358.406,22.216,357.814,24.923z"/>
		<path style="fill-rule:evenodd;clip-rule:evenodd;fill:#7B491E;" d="M348.393,148.48c-2.562,0.01-3.57-0.978-3.598-3.726
			c-0.021-1.978,1.456-2.897,3.124-3.156c1.554-0.24,3.41,2.064,3.516,3.836C351.572,147.752,350.512,148.703,348.393,148.48z"/>
		<path style="fill-rule:evenodd;clip-rule:evenodd;fill:#7B491E;" d="M287.865,185.003c-0.235,1.164-0.062,3.078-2.546,2.992
			c-1.699-0.06-3.507-2.269-3.28-4.33c0.181-1.642,0.678-3.444,2.727-3.628C286.733,179.861,287.879,181.693,287.865,185.003z"/>
		<path style="fill-rule:evenodd;clip-rule:evenodd;fill:#7B491E;" d="M352.465,18.137c0.068,1.286-2.188,4.07-3.101,4.103
			c-1.238,0.044-4.823-2.19-4.858-3.029c-0.055-1.333,2.671-3.586,4.537-3.698C351.074,15.393,351.689,17.012,352.465,18.137z"/>
		<path style="fill-rule:evenodd;clip-rule:evenodd;fill:#7B491E;" d="M325.914,32.082c-0.912,1.643-0.937,3.597-1.59,5.313
			c-0.516,1.358-1.856,1.564-2.893,0.185c-3.133-4.177-2.614-5.217,1.912-7.469C324.825,29.373,325.404,30.785,325.914,32.082z"/>
		<path style="fill-rule:evenodd;clip-rule:evenodd;fill:#7B491E;" d="M327.383,156.093c0.044,2.201-1.684,3.753-3.909,3.601
			c-1.365-0.094-4.029-2.822-4.097-4.195c-0.085-1.741,0.912-2.465,2.513-1.677c1.169,0.577,2.359,0.567,3.572,0.522
			C326.776,154.295,327.504,154.772,327.383,156.093z"/>
		<path style="fill-rule:evenodd;clip-rule:evenodd;fill:#7B491E;" d="M316.359,40.615c1.705-0.323,2.976-0.248,3.014,1.756
			c0.039,1.995-0.436,3.731-2.734,4.084c-2.453,0.376-4.479-0.937-4.579-2.793C311.967,41.946,313.508,40.896,316.359,40.615z"/>
		<path style="fill-rule:evenodd;clip-rule:evenodd;fill:#7B491E;" d="M307.001,186.398c3.184-0.061,4.811,0.936,4.897,3.001
			c0.082,1.979-1.316,3.379-3.404,3.407c-1.765,0.023-3.482-2.133-3.537-4.44C304.918,186.744,305.243,186.432,307.001,186.398z"/>
		<path style="fill-rule:evenodd;clip-rule:evenodd;fill:#7B491E;" d="M310.297,142.512c-0.009-2.525,1.676-4.146,4.058-4.194
			c1.771-0.035,2.923,0.505,2.883,2.492c-0.038,1.869-2.716,3.884-5.062,3.952C310.345,144.814,310.185,143.734,310.297,142.512z"/>
		<path style="fill-rule:evenodd;clip-rule:evenodd;fill:#7B491E;" d="M153.594,45.944c3.132,0.002,4.667,1.062,4.472,3.058
			c-0.175,1.798-0.997,2.997-3.146,2.847c-1.957-0.135-4.187-2.098-4.101-4.03C150.909,45.808,152.317,45.671,153.594,45.944z"/>
		<path style="fill-rule:evenodd;clip-rule:evenodd;fill:#7B491E;" d="M320.454,76.39c-0.38,1.439-0.717,3.185-3.215,3.237
			c-1.601,0.033-2.86-0.277-3.026-2.017c-0.205-2.152,1.693-5.425,2.972-5.467C318.558,72.098,320.394,74.276,320.454,76.39z"/>
		<path style="fill-rule:evenodd;clip-rule:evenodd;fill:#7B491E;" d="M32.968,136.134c-1.623-1.153-3.435,0-5.113-1.044
			c-1.866-1.161-1.558-2.939-1.975-4.449c-0.222-0.806,1.148-1.107,1.843-0.797c2.095,0.935,4.129,2.013,6.144,3.113
			c0.745,0.408,0.968,1.174,0.857,2.052C34.564,136.274,33.136,135.102,32.968,136.134z"/>
		<path style="fill-rule:evenodd;clip-rule:evenodd;fill:#7B491E;" d="M331.169,25.445c0.415,1.956-1.062,3.278-3,3.281
			c-1.805,0.003-2.929-1.55-2.924-3.569c0.005-1.859,1.822-3.856,3.538-3.769C331.194,21.511,331.062,23.336,331.169,25.445z"/>
		<path style="fill-rule:evenodd;clip-rule:evenodd;fill:#7B491E;" d="M130.365,173.046c-1.696,0.085-2.742-0.572-2.707-2.415
			c0.017-0.895-0.089-1.642-0.745-2.418c-0.807-0.954-0.344-1.956,0.567-2.751c1.07-0.935,1.887-0.316,2.412,0.53
			c0.833,1.345,2.588,1.854,2.86,3.776C133.038,171.789,132.366,173.032,130.365,173.046z"/>
		<path style="fill-rule:evenodd;clip-rule:evenodd;fill:#7B491E;" d="M83.723,160.586c-1.416-0.104-2.281-0.897-2.398-2.267
			c-0.124-1.45,2.795-4.524,4.281-4.453c1.786,0.087,2.683,1.437,3.018,2.98C88.955,158.381,86.065,160.491,83.723,160.586z"/>
		<path style="fill-rule:evenodd;clip-rule:evenodd;fill:#7B491E;" d="M115.208,52.89c1.529,0.369,2.671,1.3,2.816,3.101
			c0.122,1.508-2.225,4.376-3.596,4.35c-2.094-0.04-2.166-1.69-2.247-3.176C112.047,54.72,113.291,52.939,115.208,52.89z"/>
		<path style="fill-rule:evenodd;clip-rule:evenodd;fill:#7B491E;" d="M293.628,158.621c-1.143-0.327-2.711-0.444-2.568-2.572
			c0.17-2.55,1.545-3.771,4.073-3.871c1.49-0.061,2.525,0.476,2.681,1.815C298.053,156.061,295.694,158.665,293.628,158.621z"/>
		<path style="fill-rule:evenodd;clip-rule:evenodd;fill:#7B491E;" d="M157.564,76.794c-0.068,2.178-1.754,4.372-3.206,4.395
			c-1.434,0.022-3.168-1.918-3.09-3.458c0.086-1.689,2.13-3.456,3.912-3.496C157.177,74.19,157.18,75.744,157.564,76.794z"/>
		<path style="fill-rule:evenodd;clip-rule:evenodd;fill:#7B491E;" d="M325.285,142.355c-2.982-0.274-4.564-1.7-4.286-3.529
			c0.284-1.873,1.926-2.601,3.372-2.521c1.734,0.096,3.517,1.152,3.468,3.208C327.798,141.196,326.553,142.275,325.285,142.355z"/>
		<path style="fill-rule:evenodd;clip-rule:evenodd;fill:#7B491E;" d="M308.708,52.65c0.328-1.14,1.04-2.38,2.821-2.41
			c1.197-0.02,3.826,2.591,3.513,3.578c-0.476,1.496-0.936,3.285-3.016,3.303C310.377,57.135,308.633,54.894,308.708,52.65z"/>
		<path style="fill-rule:evenodd;clip-rule:evenodd;fill:#7B491E;" d="M97.193,147.605c0.068,1.796-2.602,3.961-4.354,4.087
			c-1.459,0.106-2.081-0.47-2.059-1.978c0.029-1.974,2.151-5.24,3.516-4.903C95.856,145.197,96.884,146.422,97.193,147.605z"/>
		<path style="fill-rule:evenodd;clip-rule:evenodd;fill:#7B491E;" d="M287.243,195.479c-1.479,0.014-3.733-1.793-3.601-3.404
			c0.138-1.678,1.215-2.92,2.824-3.342c1.256-0.329,3.727,2.037,3.46,3.426C289.674,193.472,290.046,195.566,287.243,195.479z"/>
		<path style="fill-rule:evenodd;clip-rule:evenodd;fill:#7B491E;" d="M345.063,68.935c0.339,1.676-0.901,2.453-2.536,2.593
			c-1.505,0.129-4.192-3.072-3.857-4.639c0.213-0.995,0.467-2.365,2.074-2.234C342.569,64.804,345.214,67.225,345.063,68.935z"/>
		<path style="fill-rule:evenodd;clip-rule:evenodd;fill:#7B491E;" d="M115.893,137.23c0.076,3.162-2.241,2.997-3.785,3.14
			c-1.803,0.167-2.163-1.594-2.023-2.975c0.182-1.803,0.79-3.886,3.014-3.76C115.251,133.757,115.562,135.887,115.893,137.23z"/>
		<path style="fill-rule:evenodd;clip-rule:evenodd;fill:#7B491E;" d="M116.391,65.437c0.489,2.309-0.699,3.63-2.806,3.75
			c-1.223,0.07-2.764-0.336-2.519-2.406c0.246-2.081,0.685-4.327,2.883-4.661C115.618,61.867,116.83,63.389,116.391,65.437z"/>
		<path style="fill-rule:evenodd;clip-rule:evenodd;fill:#7B491E;" d="M339.037,16.037c1.611-0.624,1.86,0.752,1.994,1.925
			c0.137,1.192-2.621,4.391-3.647,4.474c-0.972,0.079-3.063-2.124-3.053-3.213C334.347,17.632,336.583,16.046,339.037,16.037z"/>
		<path style="fill-rule:evenodd;clip-rule:evenodd;fill:#7B491E;" d="M347.724,61.431c-2.427,0.165-3.082-1.242-3.226-2.988
			c-0.16-1.94,1.529-2.884,2.785-2.706c1.497,0.213,3.615,0.553,4.05,2.599C351.602,59.599,349.119,61.428,347.724,61.431z"/>
		<path style="fill-rule:evenodd;clip-rule:evenodd;fill:#7B491E;" d="M97.9,180.524c2.112-0.03,4.092,1.62,4.12,3.427
			c0.024,1.615-0.746,2.437-2.378,2.45c-1.99,0.016-3.967-1.894-4.03-3.914C95.56,180.863,95.923,180.551,97.9,180.524z"/>
		<path style="fill-rule:evenodd;clip-rule:evenodd;fill:#7B491E;" d="M123.942,51.832c-1.898-0.08-3.239-0.972-3.184-2.99
			c0.048-1.774,1.096-2.829,3.033-2.919c1.812-0.085,3.315,1.002,3.109,2.377C126.706,49.595,126.708,52.163,123.942,51.832z"/>
		<path style="fill-rule:evenodd;clip-rule:evenodd;fill:#7B491E;" d="M84.931,181.374c-0.07-1.35,0.466-2.509,1.765-2.77
			c1.246-0.251,2.26,0.452,2.683,1.797c0.229,0.729,0.653,1.401,0.85,2.137c0.43,1.611-0.711,2.636-1.837,3.12
			c-0.841,0.362-1.973-0.305-2.396-1.427C85.637,183.279,84.799,182.505,84.931,181.374z"/>
		<path style="fill-rule:evenodd;clip-rule:evenodd;fill:#7B491E;" d="M82.295,165.875c0.106,1.255-0.687,2.201-1.233,3.093
			c-0.433,0.707-1.541,1.113-2.562,0.842c-1.114-0.296-1.073-1.214-1.05-2.11c0.018-0.702-0.039-1.408,0.013-2.106
			c0.094-1.257-0.089-2.794,1.889-2.678C81.182,163.023,82.091,164.131,82.295,165.875z"/>
		<path style="fill-rule:evenodd;clip-rule:evenodd;fill:#7B491E;" d="M81.725,178.246c0.118,1.498-0.372,2.613-2.008,2.793
			c-1.551,0.17-3.115-2.234-3.378-4.576c-0.175-1.559,0.778-2.015,1.801-2.151C79.974,174.065,81.671,176.055,81.725,178.246z"/>
		<path style="fill-rule:evenodd;clip-rule:evenodd;fill:#7B491E;" d="M353.507,48.594c0.394,1.772-0.399,2.665-2.148,2.675
			c-1.829,0.011-3.271-1.671-3.118-3.736c0.108-1.459,1.165-2.69,2.469-2.545C352.515,45.189,353.996,46.294,353.507,48.594z"/>
		<path style="fill-rule:evenodd;clip-rule:evenodd;fill:#7B491E;" d="M32.96,108.962c-1.559,0.446-3.185-0.608-3.315-1.898
			c-0.141-1.392,1.51-2.151,3.142-2.425c2.975-0.497,4.364,0.169,4.076,2.312C36.675,108.352,35.576,108.952,32.96,108.962z"/>
		<path style="fill-rule:evenodd;clip-rule:evenodd;fill:#7B491E;" d="M21.228,132.459c-1.13,0.003-3.545-2.355-3.342-3.975
			c0.091-0.73-0.08-2.142,1.665-1.946c1.981,0.222,4.576,1.77,4.452,3.173C23.883,131.065,23.592,132.545,21.228,132.459z"/>
		<path style="fill-rule:evenodd;clip-rule:evenodd;fill:#7B491E;" d="M330.597,73.081c0.16-0.937,0.209-2.195,2.027-2.052
			c1.87,0.147,4.096,2.245,3.807,3.889c-0.253,1.44-1.698,1.916-2.792,2.28C332.423,77.603,330.554,75.068,330.597,73.081z"/>
		<path style="fill-rule:evenodd;clip-rule:evenodd;fill:#7B491E;" d="M123.917,183.814c0.377,1.413-0.706,1.815-1.872,2.028
			c-1.719,0.314-4.703-2.683-4.55-4.455c0.051-0.598,0.295-1.013,0.787-1.274C119.636,179.395,123.893,182.074,123.917,183.814z"/>
		<path style="fill-rule:evenodd;clip-rule:evenodd;fill:#7B491E;" d="M129.465,145.253c-2.307,0.206-3.581-0.688-3.94-2.754
			c-0.213-1.229,0.093-2.321,1.247-2.938c1.188-0.635,1.708,0.486,2.393,1.089c0.464,0.408,0.892,0.859,1.313,1.313
			c0.671,0.724,1.546,1.202,0.974,2.603C130.87,145.987,129.834,144.71,129.465,145.253z"/>
		<path style="fill-rule:evenodd;clip-rule:evenodd;fill:#7B491E;" d="M99.849,141.227c-0.417-1.507,0.589-2.837,2.176-2.731
			c1.444,0.097,3.323,0.947,3.147,3.016c-0.162,1.914-1.492,2.602-3.428,2.755C99.245,144.463,99.98,142.818,99.849,141.227z"/>
		<path style="fill-rule:evenodd;clip-rule:evenodd;fill:#7B491E;" d="M40.597,105.887c0.038-1.301,0.549-2.489,1.896-2.566
			c1.428-0.082,3.343,2.767,3.487,4.353c0.17,1.876-1.363,1.93-2.341,2.14C42.285,110.104,40.542,107.657,40.597,105.887z"/>
		<path style="fill-rule:evenodd;clip-rule:evenodd;fill:#7B491E;" d="M121.315,140.059c-0.643-0.018-2.107,0.729-2.204-1.391
			c-0.06-1.298-0.101-2.574,1.804-2.477c1.606,0.081,3.664-0.489,4.006,1.85C125.299,140.619,123.13,139.736,121.315,140.059z"/>
		<path style="fill-rule:evenodd;clip-rule:evenodd;fill:none;" d="M48.479,79.355c-2.608-0.619-4.491-0.322-6.445,1.511
			c-1.047,0.982-3.215,0.653-4.743-0.24c-2.105-1.229-4.334-1.592-6.758-1.623c-3.092-0.039-5.782-1.546-8.256-3.246
			c-1.673-1.149-0.459-3.323-1.264-4.899c-1.617-3.168-0.948-6.273,0.526-9.3c0.114-0.234,0.328-0.457,0.345-0.695
			c0.691-9.354,8.065-12.218,15.045-15.397c1.217-0.555,2.558,0.378,3.853,0.461c3.626,0.231,7.059,1.696,10.726,1.634
			c0.251-0.004,0.689,0.054,0.73,0.183c0.937,2.943,4.86,3.903,4.92,7.408c0.008,0.47,0.077,0.938,0.514,1.147
			c2.587,1.234,2.012,3.121,1.072,5.078c-0.972,2.023-0.314,4.172-0.519,6.253c-0.077,0.778,0.415,1.793-1.106,1.884
			c-0.96,0.058-1.137,1.024-1.018,1.873c0.388,2.766-1.068,4.249-3.363,5.447C51.203,77.633,50.093,79.209,48.479,79.355z"/>
		<path style="fill-rule:evenodd;clip-rule:evenodd;fill:none;" d="M147.742,118.075c-2.659,0.702-5.799-1.025-9.119-1.114
			c-0.335-0.01-0.75,0.015-0.78-0.486c-0.025-0.416-0.014-0.729,0.405-1.106c1.917-1.728,4.292-2.353,6.607-3.298
			c4.703-1.919,9.645-1.907,14.509-2.515c1.439-0.18,2.333-1.098,3.448-1.69c2.58-1.372,5.774-0.98,8.128-3.112
			c0.931-0.843,1.716-1.973,3.071-2.413c0.962-0.313,2.175-0.742,2.612,0.068c0.455,0.844,0.429,2.019-0.922,2.878
			c-3.262,2.077-6.615,3.966-9.985,5.853c-2.204,1.234-4.232,2.757-6.813,3.098c-1.691,0.224-1.622,2.209-3.201,2.859
			C153.288,118.089,150.921,117.969,147.742,118.075z"/>
		<path style="fill-rule:evenodd;clip-rule:evenodd;fill:none;" d="M263.213,51.347c-1.068-0.279-2.039,0.332-2.869-0.984
			c-1.044-1.655-2.694-2.902-5.006-2.305c-0.373,0.096-1.109,0.1-1.043-0.45c0.249-2.065-1.376-3.306-2.035-4.96
			c-0.496-1.247,0.311-2.021,0.901-2.801c1.493-1.97,3.108-3.848,4.657-5.776c0.265-0.33,0.545-0.7,0.65-1.096
			c0.725-2.719,1.742-3.225,4.308-1.976c1.847,0.898,3.436,2.234,5.691,2.361c1.17,0.067,2.192,1.103,2.943,2.233
			c2.13,3.206,4.595,6.185,5.282,10.19c0.183,1.061,0.09,1.86-0.692,2.085C271.715,49.098,267.524,50.712,263.213,51.347z"/>
	</g>
</g>
</svg>
