<?xml version="1.0" encoding="iso-8859-1"?>
<!-- Generator: Adobe Illustrator 16.0.0, SVG Export Plug-In . SVG Version: 6.00 Build 0)  -->
<!DOCTYPE svg PUBLIC "-//W3C//DTD SVG 1.1//EN" "http://www.w3.org/Graphics/SVG/1.1/DTD/svg11.dtd">
<svg version="1.1" id="Layer_1" xmlns="http://www.w3.org/2000/svg" xmlns:xlink="http://www.w3.org/1999/xlink" x="0px" y="0px"
	 width="401.087px" height="203.636px" viewBox="0 0 401.087 203.636" style="enable-background:new 0 0 401.087 203.636;"
	 xml:space="preserve">
<g>
	<g>
		<path style="fill:none;" d="M200.543,203.092c-65.971,0-131.943-0.008-197.914,0.044c-1.738,0.001-2.131-0.392-2.129-2.13
			C0.551,134.88,0.551,68.755,0.5,2.629C0.499,0.891,0.892,0.499,2.629,0.5c131.943,0.047,263.885,0.047,395.829,0
			c1.737-0.001,2.13,0.391,2.129,2.129c-0.052,66.126-0.052,132.251,0,198.377c0.001,1.738-0.392,2.131-2.129,2.13
			C332.486,203.084,266.515,203.092,200.543,203.092z M235.075,15.371c-0.324,0.504-0.812,0.107-0.943-0.028
			c-1.519-1.565-2.324-0.348-3.161,0.761c-0.267,0.354-0.527,0.721-0.733,1.113c-0.94,1.782,0.365,3.011,1.19,4.281
			c0.372,0.573,1.214,1.138,1.947,0.742c1.191-0.644,1.912-1.646,1.726-3.179c-0.149-1.236-0.063-2.5-0.081-3.75
			c1.17,1.498,3.224,1.035,4.588,2.061c0.893,0.67,1.779,0.797,2.49-0.051c0.692-0.826,0.626-1.775-0.097-2.682
			c-0.744-0.935-1.805-1.34-2.8-1.846C236.454,11.399,235.215,12.189,235.075,15.371z M31.298,157.539
			c-0.732,2.308,1.032,3.694,2.069,5.285c0.575,0.882,2.862,0.354,2.779-0.566c-0.145-1.612,0.039-3.467-1.006-4.758
			c-0.812-1.005-2.268-0.855-3.507-0.329c1.298-1.266,0.176-2.487,0.005-3.764c-0.228-1.698-1.014-2.482-2.713-2.727
			c-1.789-0.258-2.541,0.659-2.769,2.125c-0.238,1.529,0.052,2.85,1.825,3.531C29.081,156.757,30.366,156.68,31.298,157.539z
			 M365.182,84.419c-2.436,0.083-4.276,1.889-6.603,2.413c-1.147,0.258-2.477,0.802-2.856,2.012
			c-0.543,1.725-1.765,2.664-3.194,3.406c-0.593,0.308-0.829,0.771-1.226,1.194c-2.972,3.171-5.643,6.828-9.445,8.925
			c-3.019,1.665-5.687,3.846-8.772,5.368c-1.583,0.781-2.061,2.968-1.105,4.301c1.517,2.116,1.254,3.325-0.907,5.056
			c-1.004,0.804-1.583,1.855-1.981,3.198c-0.925,3.115-2.842,5.757-4.863,8.286c-0.19,0.238-0.421,0.572-0.674,0.614
			c-2.746,0.457-4.514,2.629-6.622,4.059c-3.177,2.153-6.806,3.242-10.098,5.087c-2.355,1.319-4.588,3.346-7.637,3.259
			c-0.321-0.009-0.732,0.547-0.98,0.922c-1.105,1.668-2.963,2.26-4.644,2.493c-2.156,0.3-4.059,1.025-5.94,1.961
			c-2.073,1.031-5.104,1.011-4.986,4.522c0.011,0.311-0.555,0.788-0.948,0.94c-4.361,1.687-7.932,4.257-10.369,8.388
			c-0.545,0.925-1.333,1.633-0.862,2.705c0.46,1.05,1.483,1.087,2.544,1.124c2.229,0.078,4.434-1.044,6.597-0.424
			c3.515,1.008,6.247-0.168,8.796-2.425c0.693-0.614,1.333-1.477,2.448-1.348c1.658,0.193,2.897-0.463,4.059-1.629
			c2.243-2.253,5.221-3.363,8.014-4.702c1.907-0.914,3.699-1.837,4.934-3.63c0.765-1.112,2.049-1.518,3.205-2.047
			c0.331-0.151,1.023-0.27,1.179,0.19c0.095,0.28-0.274,0.906-0.601,1.102c-0.872,0.524-1.847,1.094-1.89,2.11
			c-0.092,2.188-1.26,3.69-2.755,5.028c-2.381,2.131-5.18,3.917-7.118,6.386c-2.147,2.736-4.49,5.458-5.883,8.713
			c-0.61,1.427-2.374,2.642-1.816,4.205c0.746,2.088,0.809,4.14,0.854,6.261c0.019,0.869,0.654,1.374,1.409,1.616
			c1.471,0.472,6.758-1.781,7.572-3.177c3.557-6.094,7.803-11.653,12.603-16.832c3.262-3.519,6.625-6.987,9.235-11.052
			c2.415-3.761,4.549-7.749,9.05-9.534c0.372-0.147,0.677-0.632,0.876-1.027c2.477-4.931,6.947-7.178,11.937-8.311
			c2.817-0.64,5.24-1.881,7.328-3.574c1.699-1.378,3.413-2.738,5.472-2.506c3.174,0.356,5.212-1.333,7.582-2.869
			c5.818-3.77,11.536-7.639,16.826-12.146c1.74-1.482,3.629-2.852,5.43-4.211c1.886-1.423,3.747-2.887,5.606-4.371
			c1.608-1.284,1.363-2.979,1.065-4.335c-0.35-1.598-1.826-1.295-3.312-0.934c-2.44,0.595-4.091,2.737-6.688,2.996
			c-1.46,0.145-2.675,1.18-3.983,1.879c-2.445,1.306-4.442,3.692-7.771,3.218c-0.947-0.136-2.515,0.137-3.32,1.092
			c-1.684,1.996-4.092,2.579-6.343,3.317c-1.703,0.559-3.172,1.824-4.957,1.916c-4.599,0.237-7.944,2.835-11.173,5.665
			c-0.434,0.38-0.655,1.207-1.316,0.783c-0.647-0.415-0.539-1.54-0.204-1.881c2.399-2.443,2.45-6.09,4.54-8.64
			c1.254-1.529,3.034-2.863,3.422-4.769c0.487-2.392,2.044-3.556,3.836-4.587c1.113-0.641,1.828-1.519,2.491-2.538
			c0.89-1.368,1.812-2.649,3.147-3.72c1.648-1.32,3.24-2.817,4.319-4.715c0.647-1.14,0.583-2.317,0.045-3.463
			C367.258,84.672,366.442,84.125,365.182,84.419z M72.318,109.794c0.024,2.135-1.324,2.319-2.047,2.801
			c-4.104,2.732-7.2,6.45-10.445,10.063c-2.857,3.183-4.42,7.865-9.532,8.57c-1.001,0.138-1.596,1.279-1.285,1.758
			c1.256,1.933,0.32,3.342-0.563,4.987c-0.505,0.941-0.551,2.186-0.599,3.302c-0.08,1.84,1.687,3.05,2.993,1.857
			c2.479-2.263,5.947-3.032,8.1-5.649c1.457-1.771,3.204-2.887,5.385-3.69c1.253-0.461,2.244,0.162,3.431-0.067
			c2.164-0.419,3.79-2.141,6.114-2.049c2.625,0.104,4.365-1.61,4.515-4.264c0.051-0.893,0.465-1.557,0.826-2.299
			c1.67-3.43,4.958-5.56,6.957-8.742c0.847-1.35,2.013-2.349,4.022-1.446c0.854,0.383,2.146,0.312,3.294-0.315
			c2.671-1.462,5.239-3.43,8.704-2.163c0.56,0.205,1.873,0.058,2.629-0.819c0.468-0.542,1.194-0.934,1.879-1.203
			c3.477-1.365,6.884-2.808,9.533-5.601c1.055-1.112,2.481-2.257,3.96-1.74c2.496,0.871,4.659-0.093,6.781-0.8
			c3.724-1.239,3.767-1.736,2.925-5.678c-0.294-1.38-0.907-2.07-2.284-1.96c-1.072,0.085-1.886-0.462-2.749-0.926
			c-1.055-0.567-2.133-0.607-3.288-0.288c-3.906,1.084-7.957,0.825-11.941,1.107c-1.035,0.074-1.869,0.062-2.535,0.849
			c-0.901,1.066-1.659,2.214-3.276,2.412c-0.483,0.06-1.07,0.883-1.547,0.361c-0.321-0.351-0.311-1.203-0.154-1.746
			c0.223-0.774,0.538-1.701,1.127-2.158c1.885-1.462,3.036-3.461,4.416-5.315c0.986-1.325,1.445-3.232,2.995-3.918
			c2.678-1.186,4.466-3.443,6.784-5.014c2.183-1.479,2.392-3.448,2.219-5.703c-0.14-1.817-1.415-3.078-2.604-4.063
			c-1.161-0.961-2.112,0.606-3.171,1.161c-2.903,1.519-5.803,3.161-8.255,5.215c-5.088,4.265-10.102,8.705-13.679,14.441
			c-1.458,2.338-3.502,4.14-5.539,5.91c-1.247,1.083-3.052,1.762-4.217,0.153c-0.906-1.249-1.743-1.737-3.163-1.581
			c-0.41,0.045-0.738-0.027-1.13-0.465c-2.124-2.374-5.447-2.027-7.29,0.759c-0.528,0.798-1.011,1.299-1.978,1.638
			c-5.723,2.006-11.07,4.787-15.95,8.396c-0.917,0.679-2.193,1.328-2.075,2.825c0.102,1.296-0.27,2.233-1.592,2.67
			c-0.925,0.305-0.553,1.358-1.041,1.927c0.565,0.419,1.363,1.319,1.658,1.177c1.767-0.851,3.71,0.055,5.536-0.865
			c1.348-0.68,3.278-2.076,4.644,0.437c0.195,0.36,1.085,0.439,1.834,0.424c2.923-0.06,4.913-2.435,7.697-2.829
			C70.274,111.507,71.49,111.496,72.318,109.794z M363.281,178.519c4.058,0.364,5.854-2.058,7.223-5.334
			c1.24-2.968-1.248-4.183-2.436-6.027c-0.204-0.316-0.519-0.57-0.81-0.822c-1.489-1.291-1.015-2.295,0.348-3.35
			c1.043-0.807,2.265-1.269,3.44-1.548c4.993-1.182,8.241-4.393,10.536-8.724c0.762-1.438,1.06-3.191-0.399-4.39
			c-3.486-2.862-10.26-2.765-13.443,0.251c-2.271,2.15-4.762,3.786-7.647,4.993c-3.543,1.483-3.343,1.531-5.081-1.903
			c-0.516-1.019-0.429-3.373-2.606-2.75c-1.91,0.547-4.152,0.206-5.308,2.876c-1.206,2.79-0.764,5.337-0.168,7.957
			c0.247,1.086-0.1,1.521-0.772,2.155c-2.155,2.028-5.111,2.673-7.411,4.53c-3.147,2.541-4.268,6.176-2.453,9.705
			c1.335,2.598,3.831,3.267,6.3,1.715c1.766-1.111,3.095-2.603,4.197-4.369c1.496-2.397,2.306-2.324,4.412-0.553
			C354.715,175.885,358.305,178.838,363.281,178.519z M318.863,24.483c-1.624-0.438-2.201-1.471-2.213-2.909
			c-0.005-0.681,0.001-1.289-0.526-1.905c-1.943-2.271-3.916-2.019-5.793,0.95c-0.383,0.607-1.19,1.427-0.304,2.238
			c0.665,0.608,1.123,1.869,2.414,1.104c0.731-0.433,1.025-0.172,0.946,0.563c-0.082,0.764,0.281,1.49,0.686,1.867
			c1.404,1.309,2.556,2.614,2.165,4.731c-0.046,0.248,0.411,0.846,0.638,0.847c2.056,0.013,1.737,1.399,1.627,2.677
			c-0.113,1.321,0.86,2.093,1.771,2.416c1.13,0.4,1.861-0.598,2.35-1.586c0.819-1.66,0.912-3.21-0.749-4.44
			c-0.967-0.716-1.109-2.002-1.898-2.772c-1.039-1.017-0.232-1.755,0.412-1.953c2.879-0.882,5.19-3.449,8.612-2.826
			c0.622,0.114,1.506-0.453,1.588-1.594c0.158-2.21-1.336-3.517-3.496-2.659c-1.154,0.458-2.269,0.661-3.476,0.837
			C318.574,20.809,319.21,21.851,318.863,24.483z M292.828,92.748c-1.748,0.107-2.652,1.5-3.387,2.719
			c-0.465,0.772-0.596,2.509,0.621,2.829c2.203,0.579,2.71,1.766,2.285,3.766c-0.07,0.328,0.047,0.926,0.271,1.051
			c2.2,1.22,2.401,3.671,3.455,5.574c0.596,1.077,1.284,0.97,2.011,0.516c0.638-0.397,1.186-1,1.643-1.61
			c1.315-1.753,0.674-3.303-1.521-3.669c-0.569-0.095-1.202-0.082-1.001-0.831c0.818-3.049-1.591-5.223-2.136-7.91
			C294.879,94.243,294.608,92.618,292.828,92.748z M232.291,39.014c-0.061,1.371,0.606,1.875,1.471,2.351
			c1.292,0.709,2.026,1.769,1.794,3.374c-0.166,1.148-0.016,2.285,0.814,3.208c0.411,0.458,0.829,0.985,1.549,0.769
			c0.683-0.206,0.877-0.741,0.877-1.429c0-0.597-0.251-1.298,0.236-1.777c1.398-1.373,0.49-2.49-0.366-3.575
			c-1.03-1.305-1.505-2.873-2.215-4.331c-0.632-1.298-2.106-2.435-0.483-4.043c0.233-0.231,0.002-0.832-0.375-1.223
			c-0.903-0.938-1.953-1.618-3.135-2.141c-1.062-0.47-1.831-0.146-2.431,0.773c-1.25,1.916-0.515,3.524,1.771,3.873
			c2.045,0.312,2.044,0.391,1.099,2.083C232.509,37.621,232.435,38.491,232.291,39.014z M226.457,17.288
			c0.137-2.254-1.335-3.949-3.283-3.764c-1.883,0.179-1.899,1.929-2.352,3.112c-0.661,1.729,0.262,2.781,2.124,2.925
			c0.521,0.04,1.498-0.377,1.421,0.603c-0.224,2.802,2.548,4.348,2.76,6.952c0.086,1.057,1.101,1.704,1.842,1.386
			c0.988-0.424,1.998-1.402,1.317-2.758c-0.489-0.976-0.535-2.043-0.875-2.99c-0.562-1.563,0.263-4.111-2.62-4.356
			C226.465,18.37,226.032,17.825,226.457,17.288z M208.2,114.632c0.234-1.34-0.431-1.699-1.586-2.05
			c-1.512-0.459-2.561-0.096-3.515,1.002c-0.632,0.726-0.725,2.099-2.137,1.896c-1.292-0.186-2.069,0.38-2.37,1.565
			c-0.385,1.514,0.703,2.386,1.659,3.209c0.982,0.845,1.77,0.145,2.601-0.478c0.837-0.627,1.657-1.312,2.768-1.521
			C207.635,117.877,207.895,116.197,208.2,114.632z M237.68,91.829c-0.962-0.369-1.96,0.497-3.123,0.528
			c-2.427,0.068-4.057,3.805-2.783,5.902c0.408,0.672,0.846,0.498,1.319,0.538c2.933,0.249,4.556-1.779,6.323-3.609
			c0.727-0.753,0.905-1.411,0.54-2.436C239.54,91.584,238.692,91.91,237.68,91.829z M165.55,145.082
			c0.128,0.772-0.389,1.879,0.666,2.224c0.973,0.317,1.943,0.264,3.004-0.391c2.498-1.538,3.431-4.151,4.91-6.396
			c0.329-0.499,0.357-1.002-0.086-1.461c-0.513-0.532-1.009-0.427-1.641-0.112c-1.807,0.899-3.582,1.835-5.271,2.954
			C165.94,142.691,165.348,143.647,165.55,145.082z M214.551,151.877c0.283-2.533,0.249-4.363-1.452-5.792
			c-1.395-1.171-3.04-1.089-3.309,0.624c-0.298,1.9-1.587,4.075,0.484,5.918c1.056,0.939,1.044,3.361,3.282,2.586
			C215.579,154.514,214.321,152.608,214.551,151.877z M209.582,134.951c-0.354,1.491,0.533,2.84,1.202,4.291
			c0.558,1.209,1.587,2.029,2.607,1.609c1.293-0.533,2.594-2.011,2.087-3.392c-0.541-1.473-0.632-3.065-1.329-4.438
			c-0.559-1.099-1.417-2.059-2.902-1.764c-1.258,0.249-1.771,1.065-1.67,2.319C209.607,133.96,209.582,134.349,209.582,134.951z
			 M271.078,57.554c-1.811-0.021-4.256,1.562-4.801,3.448c-0.481,1.668,0.514,3.178,1.303,4.57c0.141,0.247,0.686,1.277,1.325,0.917
			c0.601-0.338,1.451-0.849,1.357-1.696c-0.181-1.618,0.721-2.384,1.996-2.897c1.285-0.518,2.077-1.369,1.714-2.779
			C273.599,57.666,272.34,57.531,271.078,57.554z M244.808,82.939c-0.035,1.651,2.257,4.352,3.052,3.627
			c1.642-1.495,3.675-2.704,4.561-4.892c0.393-0.969,0.179-1.778-1.101-1.876c-0.452-0.035-0.944-0.019-1.342-0.196
			C246.956,78.255,244.881,79.58,244.808,82.939z M146.738,68.214c-1.735,0.024-3.562,2.061-3.216,4.045
			c0.248,1.428-0.249,3.606,2.216,3.812c1.505,0.125,5.034-2.505,4.978-3.623C150.633,70.792,148.193,68.194,146.738,68.214z
			 M210.545,118.506c-0.424,1.656,0.58,3.033,1.226,4.407c0.767,1.632,2.015,1.524,2.906-0.098c0.534-0.973,0.901-2.033,1.386-3.034
			c0.646-1.334,0.101-2.351-0.708-3.405c-1.003-1.309-2.394-1.056-3.57-0.766C210.454,115.937,210.361,117.24,210.545,118.506z
			 M216.157,93.064c-0.283-1.075-0.37-2.18-0.852-3.072c-1.018-1.888-2.863-1.871-4.046-0.086c-0.989,1.494-0.464,4.944,1.079,6.779
			c0.438,0.52,0.592,1.52,1.649,1.184c0.956-0.304,1.348-1.202,1.556-1.984C215.791,94.96,215.479,93.903,216.157,93.064z
			 M156.401,60.816c0.848,0.275,1.412-0.564,2.21-0.497c1.101,0.093,2.059-0.927,2-1.524c-0.136-1.405-0.149-3.045-1.419-4.079
			c-0.855-0.696-1.862-0.726-2.676,0.096c-0.442,0.446-1.025,0.277-1.456,0.558c-1.2,0.782-2.485,1.517-2.027,3.341
			C153.492,60.542,155.137,60.362,156.401,60.816z M208.686,162.768c-1.675-0.63-2.049,0.747-2.154,1.989
			c-0.104,1.232-0.094,2.641,0.416,3.71c0.462,0.971,1.236,2.26,2.881,1.796c1.946-0.548,2.917-2.078,2.9-3.802
			C212.705,163.945,211.213,162.765,208.686,162.768z M210.509,105.752c-0.001,1.753,1.938,5.564,2.814,5.534
			c0.553-0.019,3.695-3.656,3.673-4.25c-0.062-1.589-2.673-4.029-4.347-4.06C210.694,102.943,210.409,104.2,210.509,105.752z
			 M259.229,75.63c1.129-0.014,4.153-3.292,4.054-4.579c-0.094-1.227-0.723-2.225-2.142-2.21c-3.206,0.035-5.202,1.503-5.209,3.748
			C255.928,74.091,257.617,75.649,259.229,75.63z M217.061,80.246c0.128-1.709-0.592-2.828-2.088-3.665
			c-1.508-0.844-2.111-0.736-2.696,1.107c-0.682,2.144,0.541,3.931,0.532,5.917c-0.003,0.469,0.479,1.951,1.728,1.717
			c0.768-0.144,1.727-0.377,1.943-1.303C216.77,82.784,216.876,81.506,217.061,80.246z M145.511,79.802
			c-1.641-0.058-3.086,1.671-3.137,3.75c-0.05,2.092,1.063,3.697,2.542,3.66c0.928-0.022,3.811-2.999,3.921-4.048
			C148.999,81.613,147.269,79.864,145.511,79.802z M154.447,35.751c0.008-1.906-0.791-3.227-1.903-4.41
			c-0.706-0.751-1.475-1.166-2.516-0.636c-1.092,0.556-1.855,1.398-1.594,2.637c0.332,1.572,0.825,3.097,2.301,4.119
			c0.753,0.521,1.567,1.105,2.333,0.717C154.005,37.704,154.756,36.819,154.447,35.751z M79.791,65.659
			c0.166-1.764-0.387-3.278-1.887-3.833c-1.098-0.406-2.509-0.395-3.542,0.87c-0.7,0.857-0.937,2.031-0.421,2.487
			c1.292,1.143,1.592,3.328,3.625,3.59c0.376,0.049,1.02,0.047,1.435-0.744C79.436,67.202,79.94,66.515,79.791,65.659z
			 M315.669,90.524c0.652-2.299-1.584-2.151-2.759-2.89c-0.867-0.545-1.748-1.369-2.996-0.441c-1.378,1.023-1.356,2.414-1.07,3.725
			c0.27,1.237,1.386,1.266,2.498,0.964c0.317-0.086,0.979,0.042,1.037,0.22c0.434,1.312,1.353,1.425,2.356,0.917
			C315.643,92.561,315.908,91.651,315.669,90.524z M221.981,108.082c1.188,0.021,4.802-2.354,4.568-3.507
			c-0.392-1.937-2.181-1.989-3.754-2.049c-2.351-0.09-3.408,0.918-3.488,3.119C219.25,107.242,219.894,108.119,221.981,108.082z
			 M167.729,58.48c1.752,0.017,3.924-2.087,3.834-3.777c-0.071-1.344-0.834-2.366-2.101-2.592c-1.554-0.276-4.363,2.558-4.385,4.118
			C165.05,58.093,166.114,58.592,167.729,58.48z M45.833,51.527c-1.944,0.004-4.406,1.626-4.424,2.542
			c-0.031,1.606,1.641,3.47,3.125,3.484c1.75,0.017,4.023-1.621,3.693-2.861C47.834,53.217,47.159,51.729,45.833,51.527z
			 M289.305,123.339c-0.292,1.6,0.826,2.229,2.216,2.298c1.603,0.081,3.88-2.269,3.676-3.866c-0.188-1.471-1.05-2.582-2.802-2.579
			C290.768,119.196,289.287,121.083,289.305,123.339z M304.042,122.908c1.729-0.007,2.8-0.604,2.83-1.498
			c0.092-2.654-1.354-5.304-2.838-4.935c-1.735,0.433-2.713,1.641-2.723,3.652C301.301,122.229,302.099,123.15,304.042,122.908z
			 M307.383,101.761c0.49-2.193-1.524-2.386-2.882-2.882c-1.057-0.386-3.296,2.629-3.117,4.17c0.144,1.232,0.98,2.162,2.223,2.194
			C305.827,105.3,307.352,103.847,307.383,101.761z M54.042,56.626c1.112,0.016,2.332-0.953,2.334-1.854
			c0.004-1.806-2.194-4.044-4.019-4.181c-1.864-0.141-2.265,1.414-2.598,2.552C49.357,54.516,52.11,56.599,54.042,56.626z
			 M145.619,56.806c0.003,2.102,1.631,4.763,2.763,4.37c1.658-0.577,2.212-2.277,2.26-3.805c0.049-1.541-0.555-3.368-2.404-3.42
			C146.716,53.907,145.35,54.875,145.619,56.806z M15.367,173.239c0.092-0.659-0.409-0.982-0.816-1.294
			c-1.47-1.126-4.6,0.233-4.705,2.093c-0.055,0.973-0.106,1.72-1.18,2.129c-1.355,0.516-0.795,1.38-0.208,2.141
			c0.623,0.806,1.747,1.125,2.024,0.142c0.62-2.198,2.939-2.375,4.028-3.917C14.809,174.108,15.394,173.878,15.367,173.239z
			 M298.573,112.531c-0.089,1.781,0.606,2.873,2.526,2.966c2.107,0.102,2.691-1.373,2.905-2.978
			c0.202-1.505-1.444-3.566-2.552-3.507C300.064,109.086,298.562,110.922,298.573,112.531z M185.011,132.954
			c0.217-1.603-1.014-2.005-2.088-2.113c-1.958-0.198-3.95,1.678-3.931,3.445c0.016,1.489,0.745,2.407,2.249,2.509
			C182.904,136.907,184.981,134.736,185.011,132.954z M36.697,156.458c-0.35,1.799,1.285,2.02,2.481,2.447
			c0.695,0.248,3.623-3.125,3.522-4.004c-0.156-1.356-0.967-2.241-2.355-2.307C38.765,152.52,36.693,154.698,36.697,156.458z
			 M65.839,56.744c0.492-1.824-1.012-2.259-2.209-2.875c-0.632-0.326-1.243-0.818-2.068-0.137c-1.121,0.925-1.011,2.231-0.67,3.17
			c0.492,1.353,0.868,3.502,2.75,3.276C65.004,60.016,66.281,58.703,65.839,56.744z M299.029,118.161
			c0.024-1.214-2.705-4.379-3.652-4.503c-0.382-0.05-0.712,0.038-1.062,0.277c-1.285,0.882-1.981,3.116-1.285,4.297
			c0.203,0.345,5.154,1.565,5.352,1.271C298.702,119.023,298.892,118.458,299.029,118.161z M151.181,45.328
			c-1.732-0.574,1.267-3.906-2.198-3.997c-1.305-0.035-2.93,1.841-2.872,3.313c0.067,1.699,1.917,3.399,3.635,3.341
			C150.309,47.967,151.179,46.589,151.181,45.328z M66.361,59.785c-0.033,1.605,1.775,3.488,3.396,3.167
			c1.218-0.241,2.434-1.023,2.611-2.527c0.154-1.305-1.875-3.57-3.16-3.216C68.022,57.536,66.167,57.694,66.361,59.785z
			 M37.633,73.708c-0.275,1.719,1.119,2.483,2.272,3.276c1.292,0.888,2.568,0.069,2.854-1.463c0.23-1.236-0.616-1.971-0.988-2.916
			c-0.434-1.099-1.309-2.228-2.469-1.98C38,70.902,37.506,72.228,37.633,73.708z M66.361,48.95
			c-0.012,2.354,1.051,3.505,3.032,3.508c1.466,0.002,2.18-0.56,2.096-2.167c-0.102-1.933-1.482-3.894-3.135-3.789
			C66.88,46.597,66.025,47.501,66.361,48.95z M130.11,64.052c1.65,0.036,1.974-1.202,2.03-2.401c0.082-1.734-1.59-3.061-3.737-2.96
			c-1.368,0.065-2.015,1.237-2.195,2.365C125.954,62.648,127.931,64.062,130.11,64.052z M222.224,28.816
			c2.802,0.006,3.161-0.177,3.115-1.488c-0.049-1.424-2.346-3.85-3.598-3.551c-1.325,0.317-2.504,0.952-2.458,2.762
			C219.341,28.809,220.758,28.909,222.224,28.816z M50.231,64.034c-1.946-0.047-2.223,1.138-2.38,2.26
			c-0.149,1.063,3.001,2.726,5.127,2.624c0.851-0.041,1.865-0.325,1.776-1.584C54.656,65.914,51.775,63.996,50.231,64.034z
			 M58.254,64.048c1.288,0.012,2.037-0.614,2.065-1.914c0.026-1.231-2.314-3.144-3.714-3.204c-1.392-0.06-2.453,0.058-2.32,1.915
			C54.414,62.626,56.083,64.059,58.254,64.048z M77.486,43.521c-0.199-1.308-0.94-2.648-2.547-3.06
			c-1.215-0.312-3.029,1.502-3.015,2.719c0.014,1.191,2.493,3.503,3.66,3.165C76.672,46.029,77.56,45.204,77.486,43.521z
			 M310.579,29.185c-1.205-0.169-1.725,1.079-1.793,2.673c-0.056,1.297,2.207,3.558,3.442,3.312
			c1.051-0.209,2.017-0.904,1.618-2.234C313.411,31.48,313.94,29.293,310.579,29.185z M45.716,72.826
			c1.422,0.099,2.73,0.208,2.591-1.864c-0.123-1.815-1.189-2.601-3.344-2.795c-2.091-0.188-2.653,1.4-2.579,2.575
			C42.492,72.468,44.031,73.104,45.716,72.826z M33.339,138.919c-0.005-1.173-1.807-4.128-2.836-3.905
			c-1.374,0.297-2.379,1.3-2.58,2.755c-0.143,1.037,2.468,3.698,3.451,3.667C32.659,141.396,33.028,140.426,33.339,138.919z
			 M35.333,122.166c0.035-1.326-1.102-1.823-2.418-2.022c-1.379-0.209-3.807,1.461-3.472,2.527c0.345,1.102,0.73,2.578,2.291,2.834
			C33.127,125.733,35.178,123.972,35.333,122.166z M215.607,31.86c0.008,0.131-0.063,0.77,0.098,1.343
			c0.567,2.009,2.297,2.729,3.497,1.513c0.929-0.941,0.282-5.521-0.871-6.171C216.804,27.685,215.605,28.933,215.607,31.86z
			 M33.56,148.068c-0.59-1.511-1.589-2.883-2.893-3.723c-0.828-0.533-2.296-0.381-3.008,0.836c-0.406,0.694-0.526,1.589,0.27,2.023
			c1.1,0.601,1.777,1.646,2.766,2.297c0.454,0.299,0.997,1.104,1.757,0.549C33.073,149.598,33.648,149.065,33.56,148.068z
			 M305.027,95.509c-0.171,2.36,1.713,2.468,3.169,2.786c1.443,0.315,2.106-1.274,1.842-1.962c-0.488-1.273-0.027-3.486-2.345-3.535
			C305.903,92.76,305.219,93.935,305.027,95.509z M31.972,126.616c-1.593-0.225-2.093,0.944-2.174,2.172
			c-0.102,1.525,1.965,2.92,3.917,2.939c1.192,0.013,1.634-0.506,1.603-1.658C35.271,128.354,33.661,126.614,31.972,126.616z
			 M29.28,166.174c0.263-1.835-1.459-1.53-2.416-1.955c-0.605-0.269-2.315,3.093-2.196,4.412c0.086,0.957,0.71,1.728,1.587,1.88
			C27.419,170.714,29.288,167.955,29.28,166.174z M24.112,163.981c0.222-1.532-0.231-2.07-1.574-2.179
			c-2.311-0.188-2.627,1.515-2.936,3.007c-0.35,1.69,1.189,2.472,2.349,2.493C24.308,167.344,23.381,164.89,24.112,163.981z
			 M193.348,122.924c-1.842-0.352-2.468,1.107-2.508,2.398c-0.039,1.259,0.837,2.232,2.473,2.26
			c1.784,0.028,2.688-1.137,2.679-2.416C195.984,124.044,195.136,122.689,193.348,122.924z M30.692,160.706
			c-0.051-1.726-1.317-2.448-2.39-2.46c-1.402-0.015-2.454,1.172-2.689,2.604c-0.24,1.456,1.119,1.789,2.074,1.854
			C29.12,162.8,30.273,162.076,30.692,160.706z M27.791,178.568c0.859,0.157,1.578-0.3,1.501-1.791
			c-0.104-2.028-1.805-2.184-3.087-2.326c-1.187-0.133-2.09,0.933-1.986,2.214C24.373,178.553,25.919,178.481,27.791,178.568z
			 M15.373,168.673c0.031,1.761,1.259,2.796,2.948,2.931c1.146,0.091,1.501-0.646,1.623-1.404c0.19-1.186-1.938-3.771-2.943-3.561
			C15.958,166.857,14.992,167.455,15.373,168.673z M137.782,60.292c-0.208,2.082,1.234,2.091,2.177,2.096
			c1.063,0.005,2.435-0.57,2.18-1.902c-0.226-1.182-1.064-2.448-2.58-2.436C137.892,58.064,138.011,59.548,137.782,60.292z
			 M311.281,95.169c-0.209,0.431-0.32,0.808,0.077,1.249C311.569,95.987,311.677,95.61,311.281,95.169z"/>
		<path style="fill-rule:evenodd;clip-rule:evenodd;fill:#7B491E;" d="M365.182,84.419c1.261-0.293,2.076,0.253,2.575,1.315
			c0.538,1.146,0.603,2.323-0.045,3.463c-1.079,1.898-2.671,3.395-4.319,4.715c-1.336,1.07-2.258,2.352-3.147,3.72
			c-0.663,1.02-1.378,1.897-2.491,2.538c-1.792,1.031-3.349,2.195-3.836,4.587c-0.388,1.905-2.168,3.239-3.422,4.769
			c-2.09,2.55-2.141,6.196-4.54,8.64c-0.335,0.341-0.443,1.466,0.204,1.881c0.661,0.424,0.883-0.403,1.316-0.783
			c3.229-2.83,6.574-5.428,11.173-5.665c1.785-0.092,3.254-1.357,4.957-1.916c2.251-0.738,4.659-1.321,6.343-3.317
			c0.806-0.955,2.373-1.228,3.32-1.092c3.329,0.475,5.326-1.912,7.771-3.218c1.309-0.699,2.523-1.734,3.983-1.879
			c2.597-0.259,4.247-2.401,6.688-2.996c1.485-0.362,2.962-0.665,3.312,0.934c0.298,1.357,0.543,3.051-1.065,4.335
			c-1.859,1.484-3.721,2.948-5.606,4.371c-1.801,1.359-3.689,2.729-5.43,4.211c-5.29,4.508-11.008,8.377-16.826,12.146
			c-2.37,1.536-4.408,3.226-7.582,2.869c-2.059-0.232-3.772,1.128-5.472,2.506c-2.088,1.693-4.511,2.935-7.328,3.574
			c-4.989,1.133-9.46,3.38-11.937,8.311c-0.199,0.396-0.504,0.88-0.876,1.027c-4.501,1.785-6.635,5.773-9.05,9.534
			c-2.61,4.064-5.974,7.533-9.235,11.052c-4.8,5.179-9.046,10.738-12.603,16.832c-0.814,1.396-6.102,3.648-7.572,3.177
			c-0.755-0.242-1.391-0.747-1.409-1.616c-0.045-2.121-0.107-4.173-0.854-6.261c-0.558-1.563,1.206-2.778,1.816-4.205
			c1.393-3.255,3.735-5.977,5.883-8.713c1.938-2.469,4.737-4.255,7.118-6.386c1.495-1.338,2.663-2.84,2.755-5.028
			c0.043-1.017,1.018-1.586,1.89-2.11c0.326-0.195,0.695-0.821,0.601-1.102c-0.155-0.46-0.848-0.342-1.179-0.19
			c-1.156,0.529-2.44,0.935-3.205,2.047c-1.234,1.793-3.026,2.716-4.934,3.63c-2.793,1.339-5.771,2.449-8.014,4.702
			c-1.161,1.166-2.4,1.822-4.059,1.629c-1.115-0.129-1.755,0.733-2.448,1.348c-2.549,2.257-5.281,3.433-8.796,2.425
			c-2.163-0.62-4.368,0.502-6.597,0.424c-1.061-0.037-2.084-0.074-2.544-1.124c-0.471-1.072,0.317-1.78,0.862-2.705
			c2.438-4.131,6.008-6.701,10.369-8.388c0.394-0.152,0.959-0.63,0.948-0.94c-0.117-3.512,2.913-3.491,4.986-4.522
			c1.882-0.936,3.784-1.661,5.94-1.961c1.681-0.233,3.538-0.825,4.644-2.493c0.248-0.375,0.659-0.931,0.98-0.922
			c3.049,0.087,5.281-1.939,7.637-3.259c3.292-1.845,6.921-2.934,10.098-5.087c2.108-1.43,3.876-3.602,6.622-4.059
			c0.253-0.042,0.483-0.376,0.674-0.614c2.021-2.529,3.938-5.171,4.863-8.286c0.398-1.343,0.978-2.395,1.981-3.198
			c2.161-1.73,2.424-2.939,0.907-5.056c-0.955-1.333-0.478-3.52,1.105-4.301c3.086-1.522,5.754-3.703,8.772-5.368
			c3.803-2.097,6.474-5.754,9.445-8.925c0.396-0.423,0.633-0.886,1.226-1.194c1.43-0.742,2.651-1.681,3.194-3.406
			c0.38-1.209,1.709-1.754,2.856-2.012C360.905,86.308,362.746,84.501,365.182,84.419z"/>
		<path style="fill-rule:evenodd;clip-rule:evenodd;fill:#7B491E;" d="M72.318,109.794c-0.828,1.701-2.043,1.713-2.969,1.844
			c-2.785,0.395-4.774,2.77-7.697,2.829c-0.749,0.016-1.639-0.063-1.834-0.424c-1.366-2.513-3.296-1.116-4.644-0.437
			c-1.826,0.92-3.769,0.015-5.536,0.865c-0.295,0.143-1.093-0.758-1.658-1.177c0.488-0.568,0.116-1.622,1.041-1.927
			c1.323-0.437,1.694-1.374,1.592-2.67c-0.118-1.497,1.157-2.146,2.075-2.825c4.88-3.609,10.227-6.39,15.95-8.396
			c0.967-0.339,1.45-0.84,1.978-1.638c1.842-2.787,5.166-3.133,7.29-0.759c0.392,0.438,0.72,0.51,1.13,0.465
			c1.419-0.156,2.257,0.332,3.163,1.581c1.166,1.608,2.971,0.93,4.217-0.153c2.037-1.77,4.081-3.572,5.539-5.91
			c3.578-5.736,8.591-10.176,13.679-14.441c2.452-2.055,5.352-3.697,8.255-5.215c1.06-0.555,2.011-2.123,3.171-1.161
			c1.19,0.985,2.465,2.246,2.604,4.063c0.173,2.255-0.036,4.224-2.219,5.703c-2.318,1.57-4.106,3.828-6.784,5.014
			c-1.55,0.686-2.009,2.593-2.995,3.918c-1.38,1.854-2.53,3.854-4.416,5.315c-0.589,0.457-0.904,1.384-1.127,2.158
			c-0.157,0.543-0.167,1.395,0.154,1.746c0.477,0.522,1.063-0.301,1.547-0.361c1.617-0.198,2.375-1.346,3.276-2.412
			c0.666-0.787,1.5-0.775,2.535-0.849c3.984-0.282,8.036-0.023,11.941-1.107c1.154-0.32,2.232-0.279,3.288,0.288
			c0.863,0.464,1.677,1.011,2.749,0.926c1.376-0.11,1.989,0.58,2.284,1.96c0.841,3.942,0.798,4.438-2.925,5.678
			c-2.122,0.707-4.285,1.671-6.781,0.8c-1.479-0.517-2.905,0.628-3.96,1.74c-2.649,2.793-6.056,4.235-9.533,5.601
			c-0.685,0.27-1.412,0.661-1.879,1.203c-0.756,0.877-2.069,1.024-2.629,0.819c-3.465-1.267-6.033,0.701-8.704,2.163
			c-1.147,0.628-2.44,0.698-3.294,0.315c-2.009-0.902-3.175,0.097-4.022,1.446c-1.999,3.183-5.287,5.312-6.957,8.742
			c-0.361,0.742-0.775,1.406-0.826,2.299c-0.15,2.653-1.89,4.368-4.515,4.264c-2.324-0.092-3.95,1.63-6.114,2.049
			c-1.187,0.229-2.177-0.394-3.431,0.067c-2.182,0.804-3.929,1.919-5.385,3.69c-2.153,2.617-5.621,3.387-8.1,5.649
			c-1.307,1.192-3.073-0.018-2.993-1.857c0.048-1.116,0.094-2.36,0.599-3.302c0.883-1.646,1.819-3.055,0.563-4.987
			c-0.311-0.479,0.284-1.62,1.285-1.758c5.111-0.705,6.674-5.388,9.532-8.57c3.245-3.613,6.341-7.331,10.445-10.063
			C70.994,112.114,72.342,111.929,72.318,109.794z"/>
		<path style="fill-rule:evenodd;clip-rule:evenodd;fill:#7B491E;" d="M363.281,178.519c-4.977,0.319-8.566-2.634-12.079-5.587
			c-2.106-1.771-2.916-1.845-4.412,0.553c-1.103,1.767-2.432,3.258-4.197,4.369c-2.469,1.552-4.965,0.883-6.3-1.715
			c-1.814-3.529-0.694-7.164,2.453-9.705c2.3-1.857,5.256-2.502,7.411-4.53c0.673-0.634,1.02-1.069,0.772-2.155
			c-0.596-2.62-1.038-5.167,0.168-7.957c1.155-2.67,3.397-2.329,5.308-2.876c2.178-0.623,2.091,1.731,2.606,2.75
			c1.738,3.435,1.538,3.387,5.081,1.903c2.886-1.207,5.377-2.843,7.647-4.993c3.184-3.016,9.957-3.113,13.443-0.251
			c1.459,1.198,1.161,2.952,0.399,4.39c-2.295,4.331-5.543,7.542-10.536,8.724c-1.176,0.279-2.397,0.741-3.44,1.548
			c-1.362,1.055-1.837,2.059-0.348,3.35c0.291,0.252,0.605,0.506,0.81,0.822c1.188,1.845,3.676,3.06,2.436,6.027
			C369.136,176.461,367.339,178.883,363.281,178.519z"/>
		<path style="fill-rule:evenodd;clip-rule:evenodd;fill:#7B491E;" d="M318.863,24.483c0.347-2.633-0.289-3.674,4.754-4.415
			c1.207-0.177,2.321-0.379,3.476-0.837c2.16-0.858,3.654,0.449,3.496,2.659c-0.082,1.141-0.966,1.708-1.588,1.594
			c-3.422-0.623-5.733,1.944-8.612,2.826c-0.645,0.198-1.451,0.936-0.412,1.953c0.789,0.771,0.932,2.056,1.898,2.772
			c1.661,1.23,1.568,2.781,0.749,4.44c-0.488,0.988-1.22,1.986-2.35,1.586c-0.911-0.322-1.885-1.095-1.771-2.416
			c0.11-1.278,0.429-2.664-1.627-2.677c-0.227-0.001-0.684-0.599-0.638-0.847c0.391-2.118-0.761-3.423-2.165-4.731
			c-0.404-0.377-0.768-1.103-0.686-1.867c0.079-0.736-0.215-0.996-0.946-0.563c-1.291,0.765-1.749-0.496-2.414-1.104
			c-0.887-0.811-0.079-1.63,0.304-2.238c1.877-2.969,3.85-3.221,5.793-0.95c0.527,0.616,0.521,1.225,0.526,1.905
			C316.662,23.012,317.239,24.046,318.863,24.483z"/>
		<path style="fill-rule:evenodd;clip-rule:evenodd;fill:#7B491E;" d="M292.828,92.748c1.78-0.13,2.051,1.495,2.242,2.434
			c0.545,2.688,2.954,4.861,2.136,7.91c-0.201,0.749,0.432,0.736,1.001,0.831c2.194,0.366,2.836,1.916,1.521,3.669
			c-0.457,0.61-1.005,1.213-1.643,1.61c-0.727,0.454-1.415,0.562-2.011-0.516c-1.054-1.903-1.255-4.354-3.455-5.574
			c-0.225-0.125-0.342-0.723-0.271-1.051c0.425-2-0.082-3.188-2.285-3.766c-1.217-0.32-1.086-2.057-0.621-2.829
			C290.176,94.248,291.08,92.855,292.828,92.748z"/>
		<path style="fill-rule:evenodd;clip-rule:evenodd;fill:#7B491E;" d="M232.291,39.014c0.144-0.523,0.218-1.394,0.605-2.088
			c0.945-1.693,0.946-1.771-1.099-2.083c-2.285-0.349-3.021-1.957-1.771-3.873c0.6-0.919,1.369-1.243,2.431-0.773
			c1.182,0.522,2.231,1.203,3.135,2.141c0.377,0.391,0.608,0.992,0.375,1.223c-1.623,1.608-0.148,2.745,0.483,4.043
			c0.71,1.458,1.185,3.026,2.215,4.331c0.856,1.084,1.765,2.202,0.366,3.575c-0.487,0.479-0.236,1.18-0.236,1.777
			c0,0.688-0.194,1.224-0.877,1.429c-0.72,0.217-1.138-0.311-1.549-0.769c-0.83-0.922-0.98-2.06-0.814-3.208
			c0.232-1.605-0.502-2.665-1.794-3.374C232.897,40.89,232.23,40.385,232.291,39.014z"/>
		<path style="fill-rule:evenodd;clip-rule:evenodd;fill:#7B491E;" d="M226.457,17.288c-0.425,0.537,0.008,1.082,0.334,1.109
			c2.883,0.245,2.059,2.793,2.62,4.356c0.34,0.946,0.386,2.014,0.875,2.99c0.681,1.356-0.329,2.334-1.317,2.758
			c-0.741,0.318-1.756-0.329-1.842-1.386c-0.212-2.604-2.983-4.149-2.76-6.952c0.077-0.98-0.899-0.562-1.421-0.603
			c-1.862-0.145-2.785-1.196-2.124-2.925c0.452-1.184,0.469-2.933,2.352-3.112C225.122,13.339,226.594,15.034,226.457,17.288z"/>
		<path style="fill-rule:evenodd;clip-rule:evenodd;fill:#7B491E;" d="M208.2,114.632c-0.306,1.564-0.565,3.245-2.58,3.624
			c-1.11,0.209-1.931,0.894-2.768,1.521c-0.831,0.622-1.618,1.322-2.601,0.478c-0.956-0.823-2.043-1.695-1.659-3.209
			c0.301-1.186,1.078-1.751,2.37-1.565c1.412,0.203,1.505-1.17,2.137-1.896c0.954-1.098,2.003-1.461,3.515-1.002
			C207.77,112.933,208.435,113.292,208.2,114.632z"/>
		<path style="fill-rule:evenodd;clip-rule:evenodd;fill:#7B491E;" d="M237.68,91.829c1.013,0.081,1.86-0.245,2.276,0.923
			c0.365,1.024,0.187,1.683-0.54,2.436c-1.768,1.83-3.391,3.858-6.323,3.609c-0.474-0.041-0.911,0.134-1.319-0.538
			c-1.273-2.097,0.356-5.834,2.783-5.902C235.72,92.326,236.718,91.46,237.68,91.829z"/>
		<path style="fill-rule:evenodd;clip-rule:evenodd;fill:#7B491E;" d="M165.55,145.082c-0.203-1.435,0.39-2.391,1.583-3.182
			c1.689-1.119,3.463-2.055,5.271-2.954c0.632-0.314,1.128-0.42,1.641,0.112c0.443,0.459,0.415,0.962,0.086,1.461
			c-1.479,2.244-2.412,4.857-4.91,6.396c-1.062,0.654-2.032,0.708-3.004,0.391C165.161,146.96,165.678,145.854,165.55,145.082z"/>
		<path style="fill-rule:evenodd;clip-rule:evenodd;fill:#7B491E;" d="M214.551,151.877c-0.229,0.73,1.028,2.637-0.994,3.336
			c-2.238,0.775-2.227-1.646-3.282-2.586c-2.071-1.843-0.782-4.018-0.484-5.918c0.269-1.713,1.914-1.795,3.309-0.624
			C214.8,147.514,214.834,149.344,214.551,151.877z"/>
		<path style="fill-rule:evenodd;clip-rule:evenodd;fill:#7B491E;" d="M209.582,134.951c0-0.602,0.025-0.99-0.005-1.373
			c-0.101-1.254,0.412-2.07,1.67-2.319c1.485-0.295,2.344,0.665,2.902,1.764c0.697,1.372,0.788,2.965,1.329,4.438
			c0.507,1.381-0.794,2.858-2.087,3.392c-1.021,0.42-2.05-0.4-2.607-1.609C210.115,137.791,209.228,136.442,209.582,134.951z"/>
		<path style="fill-rule:evenodd;clip-rule:evenodd;fill:#7B491E;" d="M271.078,57.553c1.262-0.022,2.521,0.112,2.895,1.563
			c0.363,1.41-0.429,2.261-1.714,2.779c-1.275,0.514-2.177,1.279-1.996,2.897c0.094,0.847-0.757,1.358-1.357,1.696
			c-0.64,0.359-1.185-0.671-1.325-0.917c-0.789-1.392-1.784-2.902-1.303-4.57C266.822,59.115,269.268,57.533,271.078,57.553z"/>
		<path style="fill-rule:evenodd;clip-rule:evenodd;fill:#7B491E;" d="M244.808,82.939c0.073-3.359,2.148-4.685,5.17-3.337
			c0.397,0.177,0.89,0.161,1.342,0.196c1.279,0.099,1.493,0.907,1.101,1.876c-0.886,2.188-2.919,3.397-4.561,4.892
			C247.064,87.291,244.772,84.591,244.808,82.939z"/>
		<path style="fill-rule:evenodd;clip-rule:evenodd;fill:#7B491E;" d="M146.738,68.214c1.455-0.02,3.895,2.578,3.978,4.234
			c0.056,1.118-3.473,3.749-4.978,3.623c-2.465-0.205-1.968-2.384-2.216-3.812C143.176,70.275,145.003,68.238,146.738,68.214z"/>
		<path style="fill-rule:evenodd;clip-rule:evenodd;fill:#7B491E;" d="M210.545,118.506c-0.184-1.267-0.091-2.569,1.239-2.896
			c1.177-0.29,2.567-0.543,3.57,0.766c0.809,1.055,1.354,2.071,0.708,3.405c-0.484,1.001-0.852,2.062-1.386,3.034
			c-0.892,1.622-2.14,1.729-2.906,0.098C211.125,121.54,210.121,120.163,210.545,118.506z"/>
		<path style="fill-rule:evenodd;clip-rule:evenodd;fill:#7B491E;" d="M216.157,93.064c-0.678,0.839-0.366,1.896-0.613,2.821
			c-0.208,0.782-0.6,1.68-1.556,1.984c-1.058,0.336-1.212-0.665-1.649-1.184c-1.543-1.834-2.068-5.285-1.079-6.779
			c1.183-1.785,3.028-1.802,4.046,0.086C215.787,90.884,215.874,91.989,216.157,93.064z"/>
		<path style="fill-rule:evenodd;clip-rule:evenodd;fill:#7B491E;" d="M156.401,60.816c-1.265-0.455-2.909-0.274-3.367-2.104
			c-0.458-1.825,0.827-2.559,2.027-3.341c0.43-0.281,1.013-0.112,1.456-0.558c0.814-0.822,1.821-0.792,2.676-0.096
			c1.27,1.034,1.283,2.674,1.419,4.079c0.058,0.598-0.899,1.617-2,1.524C157.813,60.252,157.249,61.092,156.401,60.816z"/>
		<path style="fill-rule:evenodd;clip-rule:evenodd;fill:#7B491E;" d="M208.686,162.768c2.527-0.003,4.02,1.177,4.043,3.693
			c0.017,1.724-0.954,3.254-2.9,3.802c-1.645,0.464-2.419-0.825-2.881-1.796c-0.51-1.069-0.521-2.478-0.416-3.71
			C206.637,163.515,207.011,162.138,208.686,162.768z"/>
		<path style="fill-rule:evenodd;clip-rule:evenodd;fill:#7B491E;" d="M210.51,105.752c-0.101-1.553,0.185-2.81,2.14-2.775
			c1.674,0.03,4.285,2.471,4.347,4.06c0.022,0.594-3.12,4.231-3.673,4.25C212.446,111.317,210.508,107.505,210.51,105.752z"/>
		<path style="fill-rule:evenodd;clip-rule:evenodd;fill:#7B491E;" d="M259.229,75.63c-1.612,0.02-3.302-1.539-3.297-3.041
			c0.007-2.245,2.003-3.713,5.209-3.748c1.419-0.015,2.048,0.983,2.142,2.21C263.383,72.338,260.358,75.616,259.229,75.63z"/>
		<path style="fill-rule:evenodd;clip-rule:evenodd;fill:#7B491E;" d="M217.061,80.246c-0.185,1.26-0.291,2.538-0.581,3.774
			c-0.217,0.925-1.176,1.159-1.943,1.303c-1.249,0.233-1.73-1.248-1.728-1.717c0.009-1.986-1.214-3.773-0.532-5.917
			c0.585-1.843,1.188-1.951,2.696-1.107C216.469,77.418,217.188,78.537,217.061,80.246z"/>
		<path style="fill-rule:evenodd;clip-rule:evenodd;fill:#7B491E;" d="M145.511,79.802c1.757,0.062,3.488,1.811,3.326,3.362
			c-0.11,1.049-2.993,4.025-3.921,4.048c-1.479,0.037-2.592-1.568-2.542-3.66C142.425,81.473,143.871,79.745,145.511,79.802z"/>
		<path style="fill-rule:evenodd;clip-rule:evenodd;fill:#7B491E;" d="M154.447,35.751c0.309,1.068-0.442,1.953-1.378,2.427
			c-0.766,0.388-1.581-0.197-2.333-0.717c-1.477-1.022-1.969-2.547-2.301-4.119c-0.262-1.239,0.502-2.082,1.594-2.637
			c1.041-0.529,1.81-0.115,2.516,0.636C153.657,32.524,154.456,33.846,154.447,35.751z"/>
		<path style="fill-rule:evenodd;clip-rule:evenodd;fill:#7B491E;" d="M79.791,65.659c0.149,0.856-0.355,1.543-0.79,2.37
			c-0.415,0.791-1.059,0.792-1.435,0.744c-2.033-0.262-2.333-2.447-3.625-3.59c-0.516-0.456-0.278-1.629,0.421-2.487
			c1.033-1.264,2.444-1.276,3.542-0.87C79.404,62.38,79.957,63.895,79.791,65.659z"/>
		<path style="fill-rule:evenodd;clip-rule:evenodd;fill:#7B491E;" d="M315.669,90.524c0.239,1.127-0.026,2.036-0.934,2.495
			c-1.004,0.508-1.923,0.395-2.356-0.917c-0.059-0.178-0.72-0.306-1.037-0.22c-1.112,0.302-2.229,0.273-2.498-0.964
			c-0.286-1.311-0.308-2.701,1.07-3.725c1.248-0.928,2.129-0.104,2.996,0.441C314.085,88.373,316.321,88.226,315.669,90.524z"/>
		<path style="fill-rule:evenodd;clip-rule:evenodd;fill:#7B491E;" d="M221.981,108.082c-2.088,0.037-2.731-0.84-2.674-2.437
			c0.08-2.201,1.138-3.209,3.488-3.119c1.573,0.06,3.362,0.112,3.754,2.049C226.783,105.728,223.17,108.102,221.981,108.082z"/>
		<path style="fill-rule:evenodd;clip-rule:evenodd;fill:#7B491E;" d="M167.729,58.48c-1.615,0.111-2.679-0.387-2.653-2.251
			c0.022-1.56,2.832-4.394,4.385-4.118c1.267,0.226,2.03,1.248,2.101,2.592C171.653,56.394,169.481,58.498,167.729,58.48z"/>
		<path style="fill-rule:evenodd;clip-rule:evenodd;fill:#7B491E;" d="M31.298,157.539c-0.932-0.858-2.218-0.781-3.317-1.202
			c-1.773-0.682-2.063-2.002-1.825-3.531c0.229-1.466,0.98-2.383,2.769-2.125c1.7,0.244,2.485,1.028,2.713,2.727
			c0.171,1.276,1.293,2.498-0.005,3.764C31.522,157.292,31.41,157.416,31.298,157.539z"/>
		<path style="fill-rule:evenodd;clip-rule:evenodd;fill:#7B491E;" d="M235.02,15.31c0.018,1.251-0.068,2.515,0.081,3.751
			c0.187,1.532-0.534,2.535-1.726,3.179c-0.733,0.396-1.575-0.169-1.947-0.742c-0.825-1.271-2.131-2.499-1.19-4.281
			c0.206-0.392,0.467-0.759,0.733-1.113c0.837-1.109,1.643-2.327,3.161-0.761c0.131,0.136,0.619,0.532,0.943,0.028L235.02,15.31z"/>
		<path style="fill-rule:evenodd;clip-rule:evenodd;fill:#7B491E;" d="M45.833,51.527c1.325,0.201,2,1.689,2.394,3.166
			c0.33,1.24-1.943,2.877-3.693,2.861c-1.484-0.015-3.155-1.878-3.125-3.484C41.427,53.154,43.889,51.532,45.833,51.527z"/>
		<path style="fill-rule:evenodd;clip-rule:evenodd;fill:#7B491E;" d="M289.305,123.339c-0.018-2.256,1.463-4.144,3.09-4.147
			c1.752-0.003,2.614,1.108,2.802,2.579c0.204,1.598-2.073,3.947-3.676,3.866C290.131,125.568,289.013,124.939,289.305,123.339z"/>
		<path style="fill-rule:evenodd;clip-rule:evenodd;fill:#7B491E;" d="M304.042,122.908c-1.943,0.242-2.741-0.679-2.73-2.78
			c0.01-2.012,0.987-3.22,2.723-3.652c1.483-0.369,2.93,2.28,2.838,4.935C306.842,122.303,305.771,122.901,304.042,122.908z"/>
		<path style="fill-rule:evenodd;clip-rule:evenodd;fill:#7B491E;" d="M307.383,101.761c-0.031,2.086-1.556,3.54-3.776,3.483
			c-1.242-0.032-2.079-0.962-2.223-2.194c-0.179-1.541,2.061-4.557,3.117-4.17C305.858,99.375,307.873,99.568,307.383,101.761z"/>
		<path style="fill-rule:evenodd;clip-rule:evenodd;fill:#7B491E;" d="M54.042,56.626c-1.931-0.027-4.684-2.11-4.283-3.482
			c0.333-1.139,0.734-2.693,2.598-2.552c1.825,0.137,4.022,2.375,4.019,4.181C56.374,55.673,55.154,56.642,54.042,56.626z"/>
		<path style="fill-rule:evenodd;clip-rule:evenodd;fill:#7B491E;" d="M235.075,15.371c0.14-3.182,1.379-3.971,4.126-2.577
			c0.995,0.505,2.056,0.911,2.8,1.846c0.723,0.907,0.789,1.856,0.097,2.682c-0.711,0.848-1.598,0.721-2.49,0.051
			c-1.364-1.025-3.418-0.562-4.588-2.061C235.02,15.31,235.075,15.371,235.075,15.371z"/>
		<path style="fill-rule:evenodd;clip-rule:evenodd;fill:#7B491E;" d="M145.619,56.806c-0.27-1.93,1.097-2.898,2.619-2.855
			c1.849,0.052,2.454,1.879,2.404,3.42c-0.048,1.528-0.602,3.229-2.26,3.805C147.25,61.569,145.623,58.908,145.619,56.806z"/>
		<path style="fill-rule:evenodd;clip-rule:evenodd;fill:#7B491E;" d="M15.37,173.24c0.024,0.639-0.561,0.868-0.86,1.292
			c-1.089,1.542-3.408,1.719-4.028,3.917c-0.277,0.983-1.402,0.664-2.024-0.142c-0.587-0.761-1.147-1.625,0.208-2.141
			c1.074-0.409,1.125-1.156,1.18-2.129c0.105-1.859,3.235-3.219,4.705-2.093C14.958,172.256,15.459,172.58,15.37,173.24z"/>
		<path style="fill-rule:evenodd;clip-rule:evenodd;fill:#7B491E;" d="M298.573,112.531c-0.012-1.608,1.491-3.444,2.88-3.519
			c1.107-0.06,2.754,2.002,2.552,3.507c-0.214,1.604-0.798,3.079-2.905,2.978C299.18,115.404,298.484,114.312,298.573,112.531z"/>
		<path style="fill-rule:evenodd;clip-rule:evenodd;fill:#7B491E;" d="M185.014,132.951c-0.032,1.785-2.11,3.956-3.772,3.844
			c-1.504-0.102-2.233-1.02-2.249-2.509c-0.019-1.768,1.973-3.644,3.931-3.445C183.997,130.949,185.228,131.351,185.014,132.951z"/>
		<path style="fill-rule:evenodd;clip-rule:evenodd;fill:#7B491E;" d="M36.697,156.458c-0.003-1.761,2.068-3.938,3.648-3.863
			c1.388,0.065,2.199,0.95,2.355,2.307c0.101,0.879-2.827,4.252-3.522,4.004C37.981,158.478,36.347,158.257,36.697,156.458z"/>
		<path style="fill-rule:evenodd;clip-rule:evenodd;fill:#7B491E;" d="M65.839,56.744c0.442,1.958-0.835,3.272-2.197,3.435
			c-1.882,0.226-2.259-1.924-2.75-3.276c-0.341-0.939-0.45-2.245,0.67-3.17c0.826-0.682,1.436-0.189,2.068,0.137
			C64.827,54.485,66.331,54.92,65.839,56.744z"/>
		<path style="fill-rule:evenodd;clip-rule:evenodd;fill:#7B491E;" d="M299.029,118.161c-0.138,0.297-0.327,0.862-0.647,1.342
			c-0.197,0.295-5.148-0.926-5.352-1.271c-0.696-1.181,0-3.415,1.285-4.297c0.35-0.239,0.68-0.327,1.062-0.277
			C296.324,113.782,299.054,116.947,299.029,118.161z"/>
		<path style="fill-rule:evenodd;clip-rule:evenodd;fill:#7B491E;" d="M151.181,45.328c-0.001,1.261-0.872,2.639-1.435,2.658
			c-1.718,0.058-3.568-1.642-3.635-3.341c-0.058-1.472,1.567-3.348,2.872-3.313C152.447,41.422,149.449,44.754,151.181,45.328z"/>
		<path style="fill-rule:evenodd;clip-rule:evenodd;fill:#7B491E;" d="M66.358,59.782c-0.191-2.087,1.664-2.246,2.85-2.573
			c1.285-0.354,3.314,1.912,3.16,3.216c-0.178,1.503-1.394,2.286-2.611,2.527C68.136,63.272,66.328,61.39,66.358,59.782z"/>
		<path style="fill-rule:evenodd;clip-rule:evenodd;fill:#7B491E;" d="M37.633,73.708c-0.127-1.479,0.368-2.806,1.668-3.083
			c1.161-0.248,2.036,0.882,2.469,1.98c0.372,0.944,1.218,1.679,0.988,2.916c-0.285,1.532-1.562,2.351-2.854,1.463
			C38.751,76.191,37.358,75.427,37.633,73.708z"/>
		<path style="fill-rule:evenodd;clip-rule:evenodd;fill:#7B491E;" d="M66.361,48.95c-0.336-1.449,0.519-2.353,1.993-2.447
			c1.652-0.105,3.033,1.855,3.135,3.789c0.084,1.606-0.63,2.169-2.096,2.167C67.412,52.455,66.349,51.304,66.361,48.95z"/>
		<path style="fill-rule:evenodd;clip-rule:evenodd;fill:#7B491E;" d="M130.11,64.052c-2.179,0.01-4.156-1.404-3.902-2.996
			c0.18-1.128,0.828-2.3,2.195-2.365c2.147-0.101,3.819,1.226,3.737,2.96C132.083,62.851,131.76,64.088,130.11,64.052z"/>
		<path style="fill-rule:evenodd;clip-rule:evenodd;fill:#7B491E;" d="M222.224,28.816c-1.466,0.093-2.883-0.007-2.94-2.277
			c-0.046-1.81,1.133-2.445,2.458-2.762c1.252-0.299,3.549,2.127,3.598,3.551C225.385,28.639,225.025,28.822,222.224,28.816z"/>
		<path style="fill-rule:evenodd;clip-rule:evenodd;fill:#7B491E;" d="M50.231,64.034c1.543-0.038,4.425,1.88,4.523,3.3
			c0.088,1.259-0.926,1.543-1.776,1.584c-2.126,0.103-5.276-1.561-5.127-2.624C48.009,65.172,48.285,63.986,50.231,64.034z"/>
		<path style="fill-rule:evenodd;clip-rule:evenodd;fill:#7B491E;" d="M58.254,64.048c-2.172,0.011-3.841-1.421-3.969-3.203
			c-0.133-1.856,0.928-1.974,2.32-1.915c1.4,0.06,3.74,1.972,3.714,3.204C60.292,63.434,59.542,64.06,58.254,64.048z"/>
		<path style="fill-rule:evenodd;clip-rule:evenodd;fill:#7B491E;" d="M77.486,43.521c0.074,1.684-0.814,2.508-1.902,2.824
			c-1.167,0.338-3.646-1.974-3.66-3.165c-0.014-1.217,1.8-3.031,3.015-2.719C76.546,40.873,77.287,42.213,77.486,43.521z"/>
		<path style="fill-rule:evenodd;clip-rule:evenodd;fill:#7B491E;" d="M31.634,157.17c1.239-0.526,2.694-0.676,3.507,0.329
			c1.044,1.291,0.861,3.146,1.006,4.758c0.083,0.92-2.204,1.448-2.779,0.566c-1.037-1.591-2.801-2.978-2.069-5.285
			C31.41,157.416,31.522,157.292,31.634,157.17z"/>
		<path style="fill-rule:evenodd;clip-rule:evenodd;fill:#7B491E;" d="M310.579,29.185c3.361,0.108,2.832,2.295,3.268,3.751
			c0.398,1.33-0.567,2.025-1.618,2.234c-1.235,0.246-3.498-2.015-3.442-3.312C308.854,30.264,309.374,29.016,310.579,29.185z"/>
		<path style="fill-rule:evenodd;clip-rule:evenodd;fill:#7B491E;" d="M45.716,72.826c-1.685,0.277-3.224-0.358-3.332-2.084
			c-0.074-1.174,0.488-2.763,2.579-2.575c2.155,0.194,3.221,0.979,3.344,2.795C48.446,73.034,47.138,72.925,45.716,72.826z"/>
		<path style="fill-rule:evenodd;clip-rule:evenodd;fill:#7B491E;" d="M33.339,138.919c-0.311,1.507-0.68,2.477-1.966,2.517
			c-0.983,0.031-3.594-2.63-3.451-3.667c0.201-1.455,1.207-2.458,2.58-2.755C31.533,134.792,33.334,137.747,33.339,138.919z"/>
		<path style="fill-rule:evenodd;clip-rule:evenodd;fill:#7B491E;" d="M35.333,122.166c-0.155,1.807-2.206,3.567-3.6,3.339
			c-1.561-0.256-1.946-1.732-2.291-2.834c-0.334-1.066,2.093-2.736,3.472-2.527C34.231,120.342,35.367,120.839,35.333,122.166z"/>
		<path style="fill-rule:evenodd;clip-rule:evenodd;fill:#7B491E;" d="M215.607,31.86c-0.002-2.928,1.196-4.176,2.724-3.316
			c1.153,0.65,1.8,5.23,0.871,6.171c-1.2,1.216-2.93,0.496-3.497-1.513C215.544,32.63,215.615,31.992,215.607,31.86z"/>
		<path style="fill-rule:evenodd;clip-rule:evenodd;fill:#7B491E;" d="M33.56,148.068c0.088,0.997-0.487,1.53-1.108,1.982
			c-0.761,0.556-1.303-0.25-1.757-0.549c-0.989-0.65-1.666-1.696-2.766-2.297c-0.796-0.435-0.675-1.329-0.27-2.023
			c0.712-1.217,2.18-1.369,3.008-0.836C31.971,145.185,32.97,146.557,33.56,148.068z"/>
		<path style="fill-rule:evenodd;clip-rule:evenodd;fill:#7B491E;" d="M305.027,95.509c0.191-1.574,0.876-2.749,2.666-2.711
			c2.317,0.049,1.856,2.262,2.345,3.535c0.265,0.688-0.398,2.277-1.842,1.962C306.74,97.977,304.856,97.869,305.027,95.509z"/>
		<path style="fill-rule:evenodd;clip-rule:evenodd;fill:#7B491E;" d="M31.972,126.616c1.689-0.002,3.3,1.738,3.345,3.453
			c0.031,1.152-0.411,1.671-1.603,1.658c-1.951-0.02-4.018-1.414-3.917-2.939C29.879,127.56,30.379,126.391,31.972,126.616z"/>
		<path style="fill-rule:evenodd;clip-rule:evenodd;fill:#7B491E;" d="M29.28,166.174c0.008,1.78-1.86,4.54-3.025,4.337
			c-0.877-0.152-1.5-0.923-1.587-1.88c-0.119-1.319,1.59-4.681,2.196-4.412C27.82,164.644,29.542,164.339,29.28,166.174z"/>
		<path style="fill-rule:evenodd;clip-rule:evenodd;fill:#7B491E;" d="M24.112,163.981c-0.73,0.909,0.196,3.363-2.161,3.321
			c-1.16-0.021-2.699-0.803-2.349-2.493c0.309-1.492,0.625-3.195,2.936-3.007C23.881,161.911,24.333,162.449,24.112,163.981z"/>
		<path style="fill-rule:evenodd;clip-rule:evenodd;fill:#7B491E;" d="M193.348,122.924c1.788-0.235,2.636,1.12,2.644,2.242
			c0.009,1.279-0.896,2.444-2.679,2.416c-1.636-0.027-2.512-1.001-2.473-2.26C190.88,124.032,191.506,122.573,193.348,122.924z"/>
		<path style="fill-rule:evenodd;clip-rule:evenodd;fill:#7B491E;" d="M30.692,160.706c-0.419,1.37-1.572,2.095-3.005,1.998
			c-0.956-0.064-2.314-0.397-2.074-1.854c0.236-1.433,1.287-2.619,2.689-2.604C29.375,158.257,30.641,158.98,30.692,160.706z"/>
		<path style="fill-rule:evenodd;clip-rule:evenodd;fill:#7B491E;" d="M27.791,178.568c-1.872-0.087-3.418-0.015-3.572-1.903
			c-0.104-1.281,0.799-2.347,1.986-2.214c1.282,0.143,2.982,0.298,3.087,2.326C29.369,178.268,28.65,178.725,27.791,178.568z"/>
		<path style="fill-rule:evenodd;clip-rule:evenodd;fill:#7B491E;" d="M15.373,168.673c-0.381-1.219,0.586-1.816,1.627-2.034
			c1.006-0.21,3.133,2.375,2.943,3.561c-0.121,0.758-0.477,1.495-1.623,1.404C16.631,171.469,15.404,170.434,15.373,168.673z"/>
		<path style="fill-rule:evenodd;clip-rule:evenodd;fill:#7B491E;" d="M137.782,60.292c0.229-0.744,0.109-2.229,1.778-2.242
			c1.516-0.013,2.354,1.253,2.58,2.436c0.254,1.332-1.117,1.908-2.18,1.902C139.017,62.383,137.575,62.375,137.782,60.292z"/>
		<path style="fill-rule:evenodd;clip-rule:evenodd;fill:#7B491E;" d="M311.281,95.169c0.396,0.441,0.288,0.818,0.077,1.249
			C310.961,95.977,311.072,95.6,311.281,95.169z"/>
	</g>
</g>
</svg>
