<?xml version="1.0" encoding="iso-8859-1"?>
<!-- Generator: Adobe Illustrator 16.0.0, SVG Export Plug-In . SVG Version: 6.00 Build 0)  -->
<!DOCTYPE svg PUBLIC "-//W3C//DTD SVG 1.1//EN" "http://www.w3.org/Graphics/SVG/1.1/DTD/svg11.dtd">
<svg version="1.1" id="Layer_1" xmlns="http://www.w3.org/2000/svg" xmlns:xlink="http://www.w3.org/1999/xlink" x="0px" y="0px"
	 width="401.558px" height="177.145px" viewBox="0 0 401.558 177.145" style="enable-background:new 0 0 401.558 177.145;"
	 xml:space="preserve">
<g>
	<g>
		<path style="fill:none;" d="M200.779,176.6c-66.041,0-132.082-0.008-198.122,0.045c-1.76,0.001-2.158-0.396-2.157-2.157
			C0.554,117.21,0.554,59.934,0.5,2.656C0.499,0.896,0.897,0.499,2.657,0.5c132.082,0.048,264.163,0.048,396.244,0
			c1.76-0.001,2.158,0.396,2.157,2.156c-0.054,57.277-0.054,114.554,0,171.831c0.001,1.761-0.397,2.158-2.157,2.157
			C332.86,176.592,266.82,176.6,200.779,176.6z M26.449,75.97c0.921-3.083,0.48-6.266,1.023-9.263
			c0.481-2.655,0.496-5.335,1.01-7.958c0.826-4.216,1.556-8.461,2.627-12.616c0.987-3.83,1.131-7.949,3.669-11.313
			c0.607-0.805,0.731-1.971,1.071-2.944c0.966-2.771,0.512-5.729,1.563-8.502c0.874-2.306,1.322-4.825,1.399-7.348
			c0.04-1.307-1.986-2.544-2.946-1.647c-1.322,1.234-2.985,2.211-3.996,3.598c-1.203,1.65-2.095,3.447-3.505,5.078
			c-4.28,4.947-6.757,11.08-9.985,16.723c-3.234,5.655-4.181,12.045-5.5,18.239c-1.14,5.349-2.938,10.446-4.502,15.638
			c-0.388,1.289-0.643,2.483,0.2,3.72c0.864,1.269,2.247,1.5,3.306,1.01c2.471-1.142,2.018,0.776,1.738,1.7
			c-0.952,3.136-1.149,6.429-2.045,9.535c-1.119,3.877-0.833,7.875-1.469,11.792c-0.563,3.469-1.229,7.169-0.202,10.789
			c0.183,0.644,0.216,1.51-0.072,2.074c-1.082,2.122-0.777,4.365-0.846,6.588c-0.055,1.763,0.226,3.533-0.422,5.281
			c-0.395,1.067,0.208,1.995,1.186,2.495c0.358,0.184,0.879,0.741,1.378,0.065c0.638-0.863,1.555-1.443,2.123-2.429
			c1.278-2.219,1.255-5.231,4.005-6.594c0.363-0.18,0.594-0.925,0.625-1.425c0.137-2.207,1.241-3.989,2.398-5.749
			c0.902-1.372,1.521-2.762,1.422-4.492c-0.17-2.965,1.075-5.428,3.09-7.539c0.785-0.821,1.644-1.479,1.673-2.891
			c0.016-0.79,0.698-2.068,2.059-1.596c1.281,0.445,1.883-0.202,2.562-1.101c1.019-1.352,1.432-3.019,2.335-4.39
			c1.958-2.975,2.543-6.882,5.955-8.876c2.83-6.13,7.121-11.56,8.707-18.302c0.19-0.808,1.085-2.29,1.899-1.951
			c1.915,0.795,2.53-0.552,3.184-1.568c0.706-1.098,1.399-2.37,0.492-3.826c-0.227-0.364-0.255-1.091,0.266-1.506
			c2.03-1.619,2.942-4.15,4.646-5.936c2.584-2.71,4.031-6.114,6.305-8.971c1.468-1.844,1.605-4.633,3.262-6.006
			c2.416-2.002,2.99-4.21,2.861-7.05c-0.143-3.125-1.35-3.969-4.426-3.086c-1.435,0.412-2.494,1.419-3.835,1.935
			c-2.874,1.106-5.261,2.858-6.861,5.523c-0.908,1.512-2.004,2.772-3.256,4.047c-2.292,2.334-4.234,5.073-5.996,7.851
			c-1.645,2.592-2.615,5.611-4.586,8.014c-1.47,1.791-2.18,3.949-2.917,6.012c-1.395,3.901-3.33,7.505-6.154,10.397
			c-1.295,1.326-2.775,2.596-3.178,4.233C29.272,73.514,27.548,74.387,26.449,75.97z M323.897,86.222
			c-0.295,0.841,0.542,2.202,0.708,3.647c0.194,1.692,1.424,1.859,2.734,0.985c0.511-0.34,0.989-0.809,1.319-1.323
			c2.15-3.346,4.364-6.658,6.348-10.102c2.67-4.632,4.765-9.585,8.241-13.758c1.935-2.322,3.995-4.597,6.076-6.7
			c1.822-1.842,4.285-3.328,6.41-5.014c4.159-3.299,8.224-6.717,12.363-10.045c4.013-3.226,8.216-6.079,12.9-8.103
			c2.416-1.044,3.264-2.812,3.028-4.946c-0.289-2.613,1.127-4.021,2.741-5.497c1.185-1.084,2.403-2.133,3.548-3.258
			c0.759-0.746,1.28-1.865,0.95-2.768c-0.354-0.973-1.387-1.379-2.633-1.488c-2.573-0.227-4.017,1.271-5.559,2.885
			c-3.652,3.824-7.908,6.957-11.974,10.307c-3,2.471-5.672,5.376-9.539,6.645c-1.218,0.4-2.651,2.047-3.546,0.961
			c-0.989-1.2,1.075-2.13,1.687-3.242c1.02-1.858,2.034-3.89,4.086-4.698c1.281-0.504,1.887-1.341,2.659-2.307
			c2.022-2.527,3.018-5.924,5.838-7.706c2.069-1.307,2.905-3.217,3.648-5.242c0.372-1.013,0.809-2.534-0.63-3.064
			c-1.213-0.447-2.664-0.339-3.379,1.195c-0.674,1.446-1.98,2.301-3.377,2.382c-2.731,0.159-4.756,1.562-6.585,3.258
			c-3.492,3.237-5.995,7.471-10.122,10.089c-0.807,0.512-1.134,1.419-1.54,2.248c-1.374,2.804-2.938,5.468-4.845,7.978
			c-1.44,1.896-3.689,3.177-4.364,5.667c-0.935,3.451-3.221,6.278-4.465,9.596c-0.494,1.32-1.079,2.676-1.93,3.779
			c-2.301,2.984-3.881,6.283-5.08,9.835c-1.057,3.129-2.429,6.151-3.548,9.26C325.149,80.231,324.154,82.784,323.897,86.222z
			 M326.534,129.7c1.806-2.51,1.807-2.53,4.856-2.384c0.717,0.034,1.202-0.256,1.594-0.765c1.963-2.551,4.881-3.536,7.594-4.997
			c5.072-2.731,10.515-4.469,15.804-6.604c3.139-1.268,6.343-2.335,9.226-4.164c1.46-0.926,2.086-3.55,4.638-2.332
			c0.062,0.029,0.312-0.157,0.347-0.28c0.564-1.982,2.968-3.195,2.271-5.732c-0.815-2.969-1.46-6.008-2.306-8.939
			c-0.816-2.829-1.526-5.521-1.516-8.494c0.018-5.185-0.204-10.353,0.939-15.482c0.47-2.109-1.623-4.454-4.101-5.097
			c-1.924-0.499-3.865,0.698-4.768,2.947c-1.734,4.324-3.145,8.713-2.826,13.472c0.224,3.342,0.659,6.674,1.705,9.839
			c1.001,3.032,2.399,5.937,3.676,8.875c0.401,0.925,0.354,1.154-0.77,1.517c-3.907,1.258-7.817,2.502-11.733,3.735
			c-2.038,0.643-3.995,1.685-5.826,2.811c-2.559,1.575-5.915,1.142-8.193,3.607c-0.666,0.721-1.065,1.635-1.802,2.352
			c-2.46,2.394-5.663,4.105-7.179,7.437c-0.461,1.015-0.327,2.349-1.353,3.046C324.292,125.78,325.337,127.629,326.534,129.7z
			 M265.78,53.771c-0.26,0.927,0.402,1.648,0.563,2.464c0.585,2.982,3.578,3.934,5.85,1.997c2.759-2.352,3.507-4.801,2.024-7.047
			c-0.607-0.919-1.51-1.636-2.206-2.504c-1.319-1.646-2.845-1.497-4.46-0.064C265.877,50.101,266.65,52.171,265.78,53.771z
			 M175.241,156.882c4.95-0.004,6.485-2.521,4.715-7.057c-1.594-4.085-4.281-1.393-6.515-1.362
			c-1.796,0.023-2.917,1.206-3.605,2.782c-0.091,0.206,0.112,0.528,0.141,0.801C170.289,155.002,172.333,156.884,175.241,156.882z
			 M263.785,36.694c-2.776-0.01-4.538,1.643-4.555,4.271c-0.013,2.018,2.424,5.887,3.693,5.866c3.229-0.055,6.671-3.265,6.635-6.188
			C269.531,38.476,266.942,36.705,263.785,36.694z M295.849,64.264c-0.339,1.376,0.605,2.504,1.722,2.778
			c1.502,0.369,3.299,1.624,4.739,0.007c1.733-1.945,2.897-4.239,2.918-6.937c0.015-2.003-1.011-3.108-3.048-3.233
			C298.97,56.683,295.864,60.23,295.849,64.264z M262.046,29.704c0.279-2.71-1.928-5.205-5.268-5.224
			c-2.871-0.016-4.497,1.922-4.589,5.551c-0.041,1.637,3.004,4.312,4.912,4.315C259.968,34.352,262.036,32.41,262.046,29.704z
			 M213.925,116.024c-1.368-0.03-2.35,0.88-2.493,1.963c-0.264,1.987-0.253,4.06-0.007,6.053c0.252,2.039,2.325,3.539,3.979,3.257
			c1.925-0.328,3.111-2.032,2.985-4.258c-0.031-0.543-0.066-1.1,0.013-1.633C218.83,118.525,216.781,116.046,213.925,116.024z
			 M95.612,88.807c-1.53-0.378-2.585-0.106-2.583,1.708c0,0.648-0.5,0.983-0.902,1.283c-0.947,0.702-1.001,1.628-0.991,2.676
			c0.012,1.265,0.948,2.32,0.896,3.484c-0.074,1.673,1.208,1.597,2.095,1.95c1.068,0.425,1.675-0.326,2.377-1.092
			c1.1-1.2,1.665-2.698,2.439-4.047C100.216,92.55,98.125,89.105,95.612,88.807z M273.783,71.421
			c0.203-1.041-0.589-2.017-0.806-3.089c-0.308-1.516-1.268-1.856-2.383-2.025c-1.184-0.179-2.264,0.201-2.917,1.36
			c-0.551,0.979-1.205,1.903-1.695,2.91c-0.966,1.984,0.445,5.813,2.164,6.021C271.818,77.043,273.792,75.294,273.783,71.421z
			 M308.962,32.355c-0.163,1.386,0.195,3.129,2.334,3.331c1.892,0.179,3.731-0.373,3.791-2.884c0.013-0.535,0.354-0.812,0.615-1.192
			c1.818-2.64,1.713-4.672-0.308-7.029c-0.685-0.798-1.62-0.916-2.223-0.204C311.299,26.591,308.872,28.542,308.962,32.355z
			 M116.04,80.268c-1.216-0.075-1.942,0.055-2.472,1.656c-0.599,1.812,0.263,3.305,0.203,4.953
			c-0.041,1.127,1.114,1.108,1.982,0.915c2.4-0.535,4.379-1.979,6.37-3.278c1.171-0.764,2.112-2.159,1.114-3.716
			c-0.891-1.39-3.893-1.904-5.438-0.955C117.228,80.193,116.733,80.417,116.04,80.268z M101.38,50.778
			c-0.67,0.071-1.432-0.037-2.232,0.6c-1.999,1.587-2.422,3.312-1.171,6.456c0.577,1.451,1.286,2.651,3.169,2.854
			c1.957,0.21,2.576-1.157,3.301-2.353C106.419,55.084,104.721,50.791,101.38,50.778z M293.75,74.722
			c-3.08-0.001-5.472,2.095-5.41,4.741c0.044,1.918,1.65,3.87,3.284,3.677c3.753-0.441,6.169-1.771,6.104-4.751
			C297.679,76.124,296.166,74.723,293.75,74.722z M177.107,44.712c0.016-1.864-1.625-2.666-2.121-4.123
			c-0.406-1.195-1.832-1.497-2.75-0.948c-0.749,0.447-0.503,1.771-0.125,2.585c0.279,0.599,1.039,1.017,0.603,1.808
			c-0.851,1.544-0.174,2.61,0.973,3.621c0.676,0.595,1.484,1.141,0.735,2.32c-1.305,2.054-0.738,3.792,1.158,5.187
			c0.857,0.63,1.599,1.918,2.832,0.594c1.219-1.309,0.464-2.366-0.693-3.03c-1.219-0.699-1.134-1.573-0.395-2.279
			c1.241-1.186,0.95-1.856-0.412-2.526c-0.746-0.367-0.924-0.866-0.406-1.677C176.803,45.776,177.286,45.239,177.107,44.712z
			 M163.456,140.68c-0.003,1.939,1.843,3.899,3.63,3.852c2.37-0.062,4.768-1.745,4.812-3.379c0.062-2.265-1.964-6.222-3.165-6.18
			C166.585,135.046,163.458,138.427,163.456,140.68z M155.041,133.247c-0.538,1.412,0.911,2.507,0.859,3.852
			c-0.072,1.846,0.91,2.083,2.341,1.941c1.313-0.13,4.62-3.595,4.754-4.895c0.271-2.608-2.059-2.602-3.444-3.623
			c-1.052-0.776-1.841-1.092-3.1-0.445C155.068,130.787,154.874,131.838,155.041,133.247z M262.516,88.584
			c0.002,3.304,1.175,4.141,4.273,3.05c2.481-0.873,3.377-2.505,3.238-5.898c-0.074-1.806-1.485-2.941-3.177-2.553
			C264.5,83.721,262.514,86.196,262.516,88.584z M265.818,99.553c-0.021-1.812-0.969-3.348-2.246-3.175
			c-1.35,0.184-3.162,0.413-3.333,2.129c-0.254,2.562-0.098,5.166-0.055,7.752c0.018,1.079,0.723,1.573,1.751,1.815
			c1.229,0.289,2.318-0.826,2.271-1.259C263.913,104.167,265.915,102.092,265.818,99.553z M184.424,159.23
			c-1.83,0.028-2.563,0.711-3.677,3.086c-0.922,1.966,0.156,3.476,1.138,4.861c0.607,0.855,1.223,2.149,2.944,1.565
			c2.922-0.992,3.813-2.812,2.247-6.206C186.529,161.35,187.033,158.968,184.424,159.23z M312.281,44.701
			c0.402-1.602-1.014-2.443-2.088-3.126c-1.178-0.749-2.192,0.211-3.218,1.054c-2.695,2.214-1.273,5.193-1.598,7.818
			c-0.061,0.484,0.717,1.688,1.862,1.393C309,51.387,312.29,46.791,312.281,44.701z M140.538,76.6
			c3.451-0.004,4.367-1.005,3.618-4.389c-0.339-1.532-1.666-3.143-3.063-2.961c-1.683,0.22-3.225,1.482-5.143,1.416
			c-0.541-0.019-0.628,0.738-0.678,1.319C135.042,74.705,137.187,76.604,140.538,76.6z M202.422,144.743
			c0.011-2.333-1.247-3.733-3.428-3.814c-1.773-0.066-3.607,2.292-3.614,4.648c-0.006,2.135,1.378,3.82,3.118,3.792
			C200.785,149.334,202.41,147.419,202.422,144.743z M43.28,124.439c-0.258-0.922,0.199-1.901-0.335-2.907
			c-0.846-1.595-1.625-2.457-3.265-0.844c-0.988,0.972-2.188,1.667-2.933,2.955c-0.575,0.994-0.566,1.783-0.254,2.798
			c0.675,2.191,1.749,1.709,3.757,1.59C43.273,127.854,43.525,126.742,43.28,124.439z M153.793,126.879
			c0.627,0.019,1.068-0.159,1.521-0.564c1.658-1.482,2.172-3.562,2.403-5.531c0.242-2.072-1.606-2.857-3.568-1.795
			c-0.322,0.175-0.794,0.139-1.048,0.366c-1.166,1.043-3.287,1.864-2.646,3.649C150.988,124.495,151.667,126.51,153.793,126.879z
			 M205.849,137.145c1.087,0.075,1.702-0.121,2.352-1.11c1.352-2.062,0.923-4.207,0.719-6.306c-0.136-1.395-1.469-1.732-2.711-1.449
			c-1.832,0.417-3.656,5.718-2.733,7.402C204.06,136.75,204.649,137.489,205.849,137.145z M99.605,66.167
			c0,0.234,0.011,0.468-0.001,0.702c-0.084,1.636,0.444,3.434,1.772,3.932c1.366,0.511,2.242-1.174,2.956-2.364
			c0.351-0.584,0.989-1.092,1.098-1.706c0.235-1.318,1.056-2.797-0.796-3.807c-1.212-0.661-2.186-1.03-3.569-0.275
			C99.492,63.507,99.607,64.799,99.605,66.167z M276.125,99.551c0.004-1.076,0.163-2.359-1.328-2.932
			c-1.297-0.497-1.687,0.698-2.471,1.234c-1.094,0.75-1.943,1.728-2.914,2.591c-1.24,1.104-0.994,2.072,0.091,3.125
			c1.202,1.165,2.561,0.95,3.848,0.42C275.208,103.225,276.261,101.807,276.125,99.551z M104.74,79.325
			c-0.012-1.311-2.427-4.627-3.332-4.576c-0.999,0.057-3.692,3.323-3.674,4.458c0.017,1.091,2.742,4.467,3.574,4.428
			C102.264,83.591,104.75,80.469,104.74,79.325z M196.318,156.063c-0.077-2.182-1.721-3.274-3.696-2.458
			c-1.899,0.786-3.477,4.605-2.7,6.514c0.298,0.731,0.797,1.268,1.597,1.258C193.277,161.356,196.382,157.87,196.318,156.063z
			 M201.013,47.426c0.021-2.281-1.047-3.806-2.054-3.067c-1.004,0.737-2.02,0.549-3.004,0.845c-1.878,0.566-2.317,2.168-1.943,3.893
			c0.306,1.414,1.265,1.881,2.709,1.265c0.437-0.187,1.101-0.236,1.526,0.244c1.19,1.345,1.874,0.164,2.174-0.649
			C200.719,49.149,201.321,48.307,201.013,47.426z M128.342,74.716c-1.35-0.295-2.611,0.181-2.845,1.873
			c-0.273,1.979,2.588,5.8,4.246,5.568c1.972-0.277,2.075-2.196,2.219-3.722C132.163,76.314,130.646,74.774,128.342,74.716z
			 M287.86,90.699c0.082-0.897,0.109-1.885-0.894-2.563c-0.521-0.352-1.023-0.418-1.465,0.006c-1.136,1.092-2.412,2.103-3.29,3.382
			c-0.834,1.215-0.922,2.859,0.08,4.033c0.984,1.153,2.233,0.746,3.422-0.1C287.351,94.292,288,92.762,287.86,90.699z
			 M93.973,148.445c-0.238,1.728,0.872,2.815,1.86,3.975c0.892,1.047,1.8,0.94,2.446-0.123c1.153-1.901,1.766-3.925,0.912-6.185
			c-0.192-0.509-0.186-1.15-0.754-1.315C96.745,144.306,93.97,146.611,93.973,148.445z M90.016,162.033
			c-1.201-0.227-1.924,0.65-2.261,1.385c-0.954,2.083-2.287,4.235-0.235,6.52c0.486,0.541,0.87,1.479,1.56,1.28
			c0.627-0.181,1.521-1.07,1.491-1.6c-0.109-1.874,0.871-3.335,1.395-4.974C92.493,162.989,91.565,162.211,90.016,162.033z
			 M108.525,90.825c0.01-1.268-2.193-3.195-3.721-2.856c-1.58,0.352-2.01,2.048-2.314,3.401c-0.308,1.368,1.532,3.521,2.679,3.54
			C107.139,94.941,108.506,93.277,108.525,90.825z M90.218,139.843c-0.578-0.708-0.035-2.127-1.415-2.688
			c-2.229-0.908-2.44,1.987-4.17,2.169c-0.591,0.062-1.294,0.921-0.898,1.855c0.5,1.182,0.619,2.743,2.361,2.856
			C87.965,144.154,90.168,141.974,90.218,139.843z M181.516,68.144c1.194,0.067,1.862-0.693,2.731-0.947
			c1.486-0.435,1.927-1.391,1.458-2.934c-0.477-1.569-1.224-2.129-2.794-1.388c-0.387,0.183-0.909,0.079-1.369,0.11
			c-1.504,0.103-2.525,0.919-2.543,2.391C178.976,67.044,180.134,67.896,181.516,68.144z M344.195,143.747
			c-1.427-0.202-2.303,0.521-2.64,1.97c-0.351,1.512,0.544,2.387,1.632,3.177c0.681,0.492,1.627,0.321,2.245,0.986
			c0.562,0.606,1.214,1.477,2.088,0.569c0.774-0.803,0.617-1.743,0.01-2.712c-0.583-0.93-1.507-1.665-1.5-2.977
			C346.035,143.748,345.112,143.692,344.195,143.747z M72.845,134.89c0.377-1.874-0.629-2.975-2.599-2.832
			c-1.481,0.106-2.993,0.659-3.036,2.648c-0.022,1.061,2.061,3.804,2.912,3.829C71.766,138.585,72.842,137.224,72.845,134.89z
			 M45.617,128.41c-0.008,1.483-0.073,3.5,2.008,2.914c1.388-0.392,2.603-2.036,3.479-3.389c0.601-0.93-0.972-1.42-1.364-2.258
			c-0.363-0.774-0.647-1.959-1.659-1.91c-1.174,0.058-1.535,1.258-2.055,2.198C45.578,126.775,45.643,127.581,45.617,128.41z
			 M300.101,120.413c-0.021-1.904-0.873-2.732-2.404-1.963c-1.083,0.544-1.507,0.07-2.105-0.542
			c-0.579-0.594-1.164-1.479-2.099-0.633c-0.8,0.723-0.597,1.684-0.171,2.543c0.266,0.537,0.581,1.108,1.026,1.486
			c1.159,0.984,2.604,1.837,4.046,1.584C299.354,122.72,300.38,121.634,300.101,120.413z M96.391,143.733
			c1.742,0.157,2.887-0.435,2.738-2.436c-0.153-2.058-1.466-2.65-3.339-2.756c-1.929-0.108-2.691,1.008-2.708,2.569
			C93.061,143.163,94.453,143.869,96.391,143.733z M54.929,128.266c-1.77-0.569-2.481,0.445-2.712,1.826
			c-0.293,1.757,1.135,4.387,2.253,4.212c1.655-0.26,2.755-1.318,2.865-3.075C57.441,129.515,57.408,127.794,54.929,128.266z
			 M90.214,158.195c-0.434,1.84,1.037,2.411,2.48,2.718c1.202,0.255,2.789-2.335,2.604-4.429c-0.104-1.169-0.739-2.115-2.306-1.981
			C91.243,154.653,90.232,155.797,90.214,158.195z M337.279,145.351c-0.643-0.756-0.313-1.932-1.234-2.419
			c-1.032-0.547-1.471,0.464-2.099,0.965c-0.591,0.471-1.236,0.874-1.815,1.357c-1.232,1.03-0.476,2.107,0.064,3.075
			c0.485,0.869,1.44,1.503,2.325,0.918C335.876,148.35,336.474,146.774,337.279,145.351z M310.526,144.73
			c-0.752-1.221-0.962-3.172-2.871-3.271c-1.828-0.094-2.431,1.56-2.346,3.027c0.081,1.384,0.602,2.926,2.451,2.982
			C309.429,147.521,310.172,146.432,310.526,144.73z M60.639,132.95c-0.175,1.812,0.613,3.174,2.41,3.201
			c1.946,0.029,2.479-1.987,2.424-3.286c-0.048-1.146-0.827-2.776-2.715-2.752C60.778,130.139,60.55,131.412,60.639,132.95z
			 M189.397,57.019c-1.921,0.007-3.298,1.365-3.448,3.032c-0.127,1.412,0.623,2.112,1.688,2.353c1.258,0.285,4.02-1.785,3.953-2.838
			C191.505,58.231,190.76,57.323,189.397,57.019z M81.307,137.634c-0.031-1.464-2.497-4.045-3.138-3.699
			c-1.086,0.584-1.938,1.69-1.501,2.928c0.389,1.103-0.568,3.184,1.853,3.12C80.423,139.933,81.25,138.877,81.307,137.634z
			 M304.728,124.795c0.169-1.654-0.019-3.264-1.631-3.38c-0.985-0.072-2.621,0.433-2.569,2.274c0.039,1.383,1.643,3.085,3.029,3.154
			C305.621,126.947,304.418,125.361,304.728,124.795z M329.812,145.928c-0.448-0.793-0.833-1.903-1.89-1.646
			c-1.282,0.313-3.258,0.429-2.886,2.497c0.189,1.059,0.276,2.731,2.194,2.597C329.4,149.222,329.091,147.316,329.812,145.928z
			 M308.433,154.501c-1.58-0.115-2.246,1.217-2.141,2.124c0.169,1.458,1.485,2.632,2.859,2.967c1.04,0.254,2.265-0.978,2.077-1.955
			C310.962,156.252,310.211,154.768,308.433,154.501z M307.586,129.994c0-0.386-0.008-0.772,0.001-1.157
			c0.018-0.771,0.121-1.625-0.795-1.951c-0.926-0.329-1.329,0.544-1.917,0.997c-0.656,0.507-0.5,1.207-0.594,1.882
			c-0.227,1.646,0.367,3.399,1.812,3.464C307.886,133.307,307.595,131.348,307.586,129.994z M304.23,156.687
			c-1.413,0.143-2.457,0.479-2.682,1.556c-0.271,1.298-0.014,2.569,1.315,3.331c0.712,0.407,1.508,1.327,2.091-0.008
			c0.409-0.937,0.684-2.004,0.701-3.019C305.675,157.499,304.675,157.076,304.23,156.687z M189.753,54.304
			c-0.355,1.597,0.865,2.364,2.086,2.476c1.015,0.093,2.315-0.444,2.129-2.045c-0.167-1.428-0.613-2.822-2.24-2.966
			C190.171,51.631,189.651,52.763,189.753,54.304z M316.981,154.161c-0.06-1.611-1.375-3.121-2.535-2.878
			c-1.174,0.248-2.454,0.643-2.602,2.142c-0.089,0.902,2.794,2.723,3.979,2.485C316.799,155.716,316.873,154.797,316.981,154.161z
			 M175.665,59.513c-0.074,1.502,0.43,2.843,2.019,2.922c1.167,0.058,2.05-0.961,2.183-2.239c0.11-1.062-1.793-2.87-2.859-2.845
			C175.444,57.387,175.68,58.528,175.665,59.513z M305.581,148.912c-1.473-0.523-1.714,1.396-1.555,1.599
			c0.742,0.944-0.606,3.129,1.576,3.011c1.089-0.059,2.186-0.642,2.011-2.233C307.474,150.023,307.558,148.743,305.581,148.912z
			 M306.145,136.656c0.029,2.005,1.378,2.678,2.614,3.139c0.368,0.138,1.751-0.978,1.529-1.741
			c-0.358-1.235-0.795-2.874-2.402-3.012C306.991,134.965,305.932,135.575,306.145,136.656z M322.608,150.838
			c0.053-1.185-1.545-3.304-2.49-3.183c-0.897,0.116-1.271,1.276-1.151,1.648c0.375,1.17,0.094,2.999,1.908,3.146
			C321.639,152.513,322.667,152.059,322.608,150.838z"/>
		<path style="fill-rule:evenodd;clip-rule:evenodd;fill:#7B491E;" d="M26.449,75.97c1.099-1.583,2.824-2.456,3.336-4.541
			c0.403-1.637,1.882-2.907,3.178-4.233c2.824-2.892,4.759-6.496,6.154-10.397c0.737-2.062,1.448-4.221,2.917-6.012
			c1.971-2.402,2.941-5.422,4.586-8.014c1.762-2.777,3.704-5.516,5.996-7.851c1.252-1.274,2.348-2.535,3.256-4.047
			c1.601-2.666,3.987-4.417,6.861-5.523c1.342-0.516,2.4-1.523,3.835-1.935c3.076-0.882,4.283-0.039,4.426,3.086
			c0.129,2.84-0.446,5.048-2.861,7.05c-1.657,1.374-1.794,4.163-3.262,6.006c-2.274,2.857-3.721,6.261-6.305,8.971
			c-1.703,1.786-2.615,4.317-4.646,5.936c-0.521,0.416-0.493,1.143-0.266,1.506c0.907,1.456,0.214,2.728-0.492,3.826
			c-0.654,1.016-1.269,2.364-3.184,1.568c-0.814-0.338-1.709,1.143-1.899,1.951c-1.585,6.743-5.876,12.172-8.707,18.302
			c-3.412,1.994-3.997,5.901-5.955,8.876c-0.903,1.371-1.316,3.038-2.335,4.39c-0.679,0.898-1.281,1.546-2.562,1.101
			c-1.36-0.473-2.042,0.806-2.059,1.596c-0.029,1.411-0.889,2.069-1.673,2.891c-2.015,2.111-3.26,4.574-3.09,7.539
			c0.1,1.73-0.52,3.12-1.422,4.492c-1.157,1.76-2.261,3.542-2.398,5.749c-0.031,0.5-0.262,1.245-0.625,1.425
			c-2.75,1.362-2.727,4.375-4.005,6.594c-0.568,0.985-1.484,1.565-2.123,2.429c-0.499,0.676-1.02,0.118-1.378-0.065
			c-0.978-0.5-1.581-1.428-1.186-2.495c0.648-1.748,0.368-3.519,0.422-5.281c0.069-2.223-0.236-4.466,0.846-6.588
			c0.288-0.564,0.255-1.431,0.072-2.074c-1.027-3.62-0.361-7.32,0.202-10.789c0.636-3.917,0.351-7.915,1.469-11.792
			c0.896-3.106,1.093-6.399,2.045-9.535c0.28-0.924,0.733-2.842-1.738-1.7c-1.06,0.49-2.442,0.259-3.306-1.01
			c-0.843-1.236-0.588-2.431-0.2-3.72c1.564-5.192,3.362-10.29,4.502-15.638c1.319-6.193,2.266-12.584,5.5-18.239
			c3.228-5.644,5.705-11.776,9.985-16.723c1.41-1.63,2.302-3.428,3.505-5.078c1.011-1.386,2.674-2.363,3.996-3.598
			c0.96-0.896,2.985,0.341,2.946,1.647c-0.077,2.523-0.525,5.042-1.399,7.348c-1.052,2.773-0.597,5.731-1.563,8.502
			c-0.339,0.973-0.464,2.139-1.071,2.944c-2.538,3.365-2.682,7.484-3.669,11.313c-1.071,4.155-1.801,8.4-2.627,12.616
			c-0.514,2.623-0.529,5.303-1.01,7.958C26.929,69.705,27.37,72.888,26.449,75.97z"/>
		<path style="fill-rule:evenodd;clip-rule:evenodd;fill:#7B491E;" d="M323.897,86.222c0.257-3.438,1.252-5.991,2.172-8.545
			c1.119-3.109,2.491-6.131,3.548-9.26c1.199-3.552,2.779-6.851,5.08-9.835c0.851-1.104,1.436-2.459,1.93-3.779
			c1.244-3.318,3.53-6.146,4.465-9.596c0.675-2.49,2.924-3.77,4.364-5.667c1.906-2.51,3.471-5.173,4.845-7.978
			c0.406-0.829,0.733-1.736,1.54-2.248c4.127-2.618,6.63-6.852,10.122-10.089c1.829-1.695,3.854-3.099,6.585-3.258
			c1.396-0.081,2.703-0.937,3.377-2.382c0.715-1.534,2.166-1.642,3.379-1.195c1.438,0.53,1.002,2.051,0.63,3.064
			c-0.743,2.025-1.579,3.935-3.648,5.242c-2.82,1.782-3.815,5.179-5.838,7.706c-0.772,0.965-1.378,1.802-2.659,2.307
			c-2.052,0.808-3.066,2.839-4.086,4.698c-0.611,1.112-2.676,2.042-1.687,3.242c0.895,1.086,2.328-0.561,3.546-0.961
			c3.867-1.269,6.539-4.173,9.539-6.645c4.065-3.35,8.321-6.483,11.974-10.307c1.542-1.614,2.985-3.112,5.559-2.885
			c1.246,0.109,2.278,0.516,2.633,1.488c0.33,0.903-0.191,2.021-0.95,2.768c-1.145,1.125-2.363,2.174-3.548,3.258
			c-1.614,1.476-3.03,2.884-2.741,5.497c0.235,2.134-0.612,3.902-3.028,4.946c-4.685,2.024-8.888,4.877-12.9,8.103
			c-4.14,3.328-8.204,6.747-12.363,10.045c-2.125,1.686-4.588,3.172-6.41,5.014c-2.081,2.104-4.142,4.378-6.076,6.7
			c-3.477,4.172-5.571,9.126-8.241,13.758c-1.983,3.444-4.197,6.756-6.348,10.102c-0.33,0.515-0.809,0.983-1.319,1.323
			c-1.311,0.874-2.54,0.707-2.734-0.985C324.439,88.424,323.602,87.063,323.897,86.222z"/>
		<path style="fill-rule:evenodd;clip-rule:evenodd;fill:#7B491E;" d="M326.534,129.7c-1.196-2.071-2.242-3.92,0.278-5.635
			c1.025-0.697,0.892-2.031,1.353-3.046c1.516-3.331,4.719-5.043,7.179-7.437c0.736-0.717,1.136-1.631,1.802-2.352
			c2.278-2.466,5.635-2.032,8.193-3.607c1.831-1.126,3.788-2.168,5.826-2.811c3.916-1.233,7.826-2.478,11.733-3.735
			c1.124-0.362,1.171-0.592,0.77-1.517c-1.276-2.938-2.675-5.843-3.676-8.875c-1.046-3.165-1.481-6.497-1.705-9.839
			c-0.318-4.759,1.092-9.148,2.826-13.472c0.902-2.249,2.844-3.445,4.768-2.947c2.478,0.643,4.57,2.988,4.101,5.097
			c-1.144,5.13-0.922,10.297-0.939,15.482c-0.011,2.973,0.699,5.665,1.516,8.494c0.846,2.932,1.49,5.971,2.306,8.939
			c0.696,2.537-1.707,3.75-2.271,5.732c-0.034,0.123-0.285,0.31-0.347,0.28c-2.552-1.218-3.178,1.406-4.638,2.332
			c-2.883,1.829-6.087,2.896-9.226,4.164c-5.289,2.136-10.731,3.873-15.804,6.604c-2.713,1.461-5.631,2.446-7.594,4.997
			c-0.392,0.509-0.877,0.799-1.594,0.765C328.34,127.17,328.339,127.19,326.534,129.7z"/>
		<path style="fill-rule:evenodd;clip-rule:evenodd;fill:#7B491E;" d="M265.78,53.771c0.87-1.599,0.098-3.67,1.771-5.154
			c1.615-1.432,3.141-1.582,4.46,0.064c0.696,0.868,1.599,1.585,2.206,2.504c1.482,2.246,0.734,4.695-2.024,7.047
			c-2.271,1.937-5.265,0.985-5.85-1.997C266.182,55.418,265.52,54.698,265.78,53.771z"/>
		<path style="fill-rule:evenodd;clip-rule:evenodd;fill:#7B491E;" d="M175.241,156.882c-2.908,0.002-4.953-1.88-5.265-4.836
			c-0.029-0.272-0.231-0.595-0.141-0.801c0.689-1.576,1.809-2.759,3.605-2.782c2.234-0.03,4.921-2.723,6.515,1.362
			C181.726,154.361,180.191,156.878,175.241,156.882z"/>
		<path style="fill-rule:evenodd;clip-rule:evenodd;fill:#7B491E;" d="M263.785,36.694c3.157,0.011,5.746,1.782,5.773,3.949
			c0.036,2.923-3.405,6.133-6.635,6.188c-1.27,0.021-3.706-3.848-3.693-5.866C259.247,38.336,261.008,36.684,263.785,36.694z"/>
		<path style="fill-rule:evenodd;clip-rule:evenodd;fill:#7B491E;" d="M295.849,64.264c0.015-4.034,3.121-7.581,6.331-7.384
			c2.037,0.125,3.062,1.229,3.048,3.233c-0.021,2.697-1.185,4.991-2.918,6.937c-1.44,1.617-3.237,0.362-4.739-0.007
			C296.455,66.769,295.51,65.64,295.849,64.264z"/>
		<path style="fill-rule:evenodd;clip-rule:evenodd;fill:#7B491E;" d="M262.046,29.704c-0.011,2.706-2.078,4.647-4.944,4.643
			c-1.908-0.003-4.953-2.678-4.912-4.315c0.092-3.628,1.718-5.567,4.589-5.551C260.119,24.5,262.326,26.994,262.046,29.704z"/>
		<path style="fill-rule:evenodd;clip-rule:evenodd;fill:#7B491E;" d="M213.925,116.024c2.855,0.021,4.904,2.501,4.478,5.382
			c-0.079,0.533-0.044,1.09-0.013,1.633c0.126,2.226-1.061,3.93-2.985,4.258c-1.654,0.282-3.728-1.218-3.979-3.257
			c-0.246-1.993-0.257-4.065,0.007-6.053C211.576,116.904,212.557,115.994,213.925,116.024z"/>
		<path style="fill-rule:evenodd;clip-rule:evenodd;fill:#7B491E;" d="M95.612,88.807c2.514,0.299,4.604,3.743,3.33,5.963
			c-0.774,1.349-1.339,2.847-2.439,4.047c-0.702,0.766-1.309,1.517-2.377,1.092c-0.887-0.354-2.169-0.277-2.095-1.95
			c0.052-1.164-0.885-2.22-0.896-3.484c-0.01-1.048,0.044-1.974,0.991-2.676c0.403-0.3,0.903-0.635,0.902-1.283
			C93.026,88.7,94.082,88.429,95.612,88.807z"/>
		<path style="fill-rule:evenodd;clip-rule:evenodd;fill:#7B491E;" d="M273.783,71.421c0.01,3.873-1.965,5.622-5.637,5.177
			c-1.719-0.208-3.13-4.037-2.164-6.021c0.49-1.006,1.145-1.931,1.695-2.91c0.653-1.16,1.733-1.54,2.917-1.36
			c1.115,0.169,2.075,0.509,2.383,2.025C273.194,69.405,273.986,70.381,273.783,71.421z"/>
		<path style="fill-rule:evenodd;clip-rule:evenodd;fill:#7B491E;" d="M308.962,32.355c-0.091-3.813,2.337-5.765,4.21-7.979
			c0.603-0.712,1.538-0.595,2.223,0.204c2.021,2.357,2.126,4.389,0.308,7.029c-0.262,0.379-0.603,0.657-0.615,1.192
			c-0.06,2.512-1.899,3.063-3.791,2.884C309.158,35.484,308.799,33.741,308.962,32.355z"/>
		<path style="fill-rule:evenodd;clip-rule:evenodd;fill:#7B491E;" d="M116.04,80.268c0.694,0.149,1.188-0.075,1.76-0.425
			c1.546-0.949,4.548-0.436,5.438,0.955c0.998,1.557,0.057,2.952-1.114,3.716c-1.991,1.299-3.97,2.743-6.37,3.278
			c-0.869,0.194-2.023,0.213-1.982-0.915c0.06-1.647-0.802-3.141-0.203-4.953C114.097,80.323,114.824,80.193,116.04,80.268z"/>
		<path style="fill-rule:evenodd;clip-rule:evenodd;fill:#7B491E;" d="M101.38,50.778c3.341,0.013,5.039,4.306,3.066,7.556
			c-0.726,1.196-1.345,2.563-3.301,2.353c-1.883-0.202-2.592-1.402-3.169-2.854c-1.25-3.144-0.827-4.868,1.171-6.456
			C99.949,50.741,100.71,50.849,101.38,50.778z"/>
		<path style="fill-rule:evenodd;clip-rule:evenodd;fill:#7B491E;" d="M293.75,74.722c2.415,0.001,3.929,1.401,3.979,3.667
			c0.064,2.981-2.352,4.31-6.104,4.751c-1.634,0.192-3.24-1.759-3.284-3.677C288.279,76.817,290.67,74.721,293.75,74.722z"/>
		<path style="fill-rule:evenodd;clip-rule:evenodd;fill:#7B491E;" d="M177.107,44.712c0.179,0.527-0.304,1.064-0.602,1.531
			c-0.518,0.811-0.34,1.31,0.406,1.677c1.362,0.669,1.653,1.34,0.412,2.526c-0.74,0.706-0.825,1.581,0.395,2.279
			c1.157,0.664,1.913,1.721,0.693,3.03c-1.233,1.324-1.975,0.036-2.832-0.594c-1.896-1.394-2.463-3.132-1.158-5.187
			c0.75-1.179-0.059-1.725-0.735-2.32c-1.147-1.01-1.824-2.076-0.973-3.621c0.436-0.791-0.324-1.208-0.603-1.808
			c-0.378-0.814-0.624-2.139,0.125-2.585c0.918-0.548,2.344-0.247,2.75,0.948C175.482,42.046,177.123,42.848,177.107,44.712z"/>
		<path style="fill-rule:evenodd;clip-rule:evenodd;fill:#7B491E;" d="M163.456,140.68c0.003-2.253,3.129-5.634,5.277-5.707
			c1.201-0.042,3.228,3.915,3.165,6.18c-0.044,1.634-2.443,3.317-4.812,3.379C165.298,144.579,163.452,142.619,163.456,140.68z"/>
		<path style="fill-rule:evenodd;clip-rule:evenodd;fill:#7B491E;" d="M155.041,133.247c-0.167-1.409,0.028-2.46,1.411-3.17
			c1.258-0.646,2.048-0.331,3.1,0.445c1.385,1.021,3.714,1.015,3.444,3.623c-0.135,1.3-3.441,4.765-4.754,4.895
			c-1.431,0.142-2.413-0.096-2.341-1.941C155.951,135.754,154.502,134.659,155.041,133.247z"/>
		<path style="fill-rule:evenodd;clip-rule:evenodd;fill:#7B491E;" d="M262.516,88.584c-0.002-2.388,1.984-4.863,4.335-5.401
			c1.691-0.388,3.103,0.747,3.177,2.553c0.139,3.394-0.757,5.025-3.238,5.898C263.691,92.725,262.518,91.888,262.516,88.584z"/>
		<path style="fill-rule:evenodd;clip-rule:evenodd;fill:#7B491E;" d="M265.818,99.553c0.097,2.539-1.905,4.614-1.612,7.263
			c0.048,0.433-1.041,1.548-2.271,1.259c-1.028-0.242-1.733-0.736-1.751-1.815c-0.043-2.586-0.199-5.19,0.055-7.752
			c0.171-1.716,1.983-1.945,3.333-2.129C264.849,96.205,265.796,97.74,265.818,99.553z"/>
		<path style="fill-rule:evenodd;clip-rule:evenodd;fill:#7B491E;" d="M184.424,159.23c2.608-0.263,2.104,2.119,2.652,3.307
			c1.566,3.394,0.675,5.214-2.247,6.206c-1.721,0.584-2.337-0.71-2.944-1.565c-0.982-1.386-2.06-2.896-1.138-4.861
			C181.861,159.941,182.594,159.259,184.424,159.23z"/>
		<path style="fill-rule:evenodd;clip-rule:evenodd;fill:#7B491E;" d="M312.281,44.701c0.009,2.09-3.281,6.686-5.041,7.139
			c-1.146,0.294-1.923-0.909-1.862-1.393c0.324-2.625-1.098-5.604,1.598-7.818c1.025-0.843,2.04-1.803,3.218-1.054
			C311.267,42.258,312.683,43.1,312.281,44.701z"/>
		<path style="fill-rule:evenodd;clip-rule:evenodd;fill:#7B491E;" d="M140.538,76.6c-3.351,0.004-5.497-1.896-5.266-4.616
			c0.049-0.581,0.137-1.338,0.678-1.319c1.918,0.066,3.46-1.195,5.143-1.416c1.398-0.182,2.725,1.429,3.063,2.961
			C144.905,75.595,143.989,76.596,140.538,76.6z"/>
		<path style="fill-rule:evenodd;clip-rule:evenodd;fill:#7B491E;" d="M202.422,144.743c-0.013,2.676-1.637,4.591-3.924,4.626
			c-1.74,0.028-3.125-1.657-3.118-3.792c0.007-2.356,1.841-4.715,3.614-4.648C201.175,141.01,202.433,142.41,202.422,144.743z"/>
		<path style="fill-rule:evenodd;clip-rule:evenodd;fill:#7B491E;" d="M43.28,124.439c0.246,2.303-0.007,3.414-3.029,3.592
			c-2.009,0.119-3.082,0.602-3.757-1.59c-0.312-1.015-0.321-1.804,0.254-2.798c0.745-1.288,1.945-1.983,2.933-2.955
			c1.64-1.613,2.418-0.751,3.265,0.844C43.479,122.538,43.022,123.518,43.28,124.439z"/>
		<path style="fill-rule:evenodd;clip-rule:evenodd;fill:#7B491E;" d="M153.793,126.879c-2.126-0.369-2.805-2.384-3.338-3.875
			c-0.641-1.785,1.48-2.606,2.646-3.649c0.254-0.228,0.726-0.191,1.048-0.366c1.962-1.062,3.81-0.277,3.568,1.795
			c-0.23,1.969-0.745,4.049-2.403,5.531C154.861,126.72,154.42,126.897,153.793,126.879z"/>
		<path style="fill-rule:evenodd;clip-rule:evenodd;fill:#7B491E;" d="M205.849,137.145c-1.2,0.345-1.789-0.395-2.374-1.463
			c-0.923-1.685,0.901-6.985,2.733-7.402c1.242-0.283,2.575,0.055,2.711,1.449c0.204,2.099,0.633,4.244-0.719,6.306
			C207.551,137.023,206.936,137.22,205.849,137.145z"/>
		<path style="fill-rule:evenodd;clip-rule:evenodd;fill:#7B491E;" d="M99.606,66.167c0.001-1.368-0.114-2.66,1.459-3.52
			c1.383-0.755,2.357-0.386,3.569,0.275c1.852,1.01,1.031,2.489,0.796,3.807c-0.109,0.614-0.747,1.122-1.098,1.706
			c-0.714,1.19-1.59,2.875-2.956,2.364c-1.328-0.498-1.857-2.295-1.772-3.932C99.616,66.635,99.605,66.401,99.606,66.167z"/>
		<path style="fill-rule:evenodd;clip-rule:evenodd;fill:#7B491E;" d="M276.125,99.551c0.137,2.256-0.917,3.674-2.774,4.438
			c-1.287,0.53-2.646,0.745-3.848-0.42c-1.085-1.053-1.331-2.021-0.091-3.125c0.971-0.863,1.82-1.841,2.914-2.591
			c0.784-0.536,1.174-1.731,2.471-1.234C276.288,97.191,276.128,98.475,276.125,99.551z"/>
		<path style="fill-rule:evenodd;clip-rule:evenodd;fill:#7B491E;" d="M104.74,79.325c0.011,1.145-2.476,4.266-3.433,4.311
			c-0.832,0.039-3.557-3.337-3.574-4.428c-0.018-1.135,2.675-4.401,3.674-4.458C102.313,74.698,104.728,78.014,104.74,79.325z"/>
		<path style="fill-rule:evenodd;clip-rule:evenodd;fill:#7B491E;" d="M196.318,156.063c0.064,1.807-3.041,5.293-4.799,5.313
			c-0.8,0.01-1.299-0.526-1.597-1.258c-0.777-1.908,0.8-5.728,2.7-6.514C194.597,152.789,196.241,153.882,196.318,156.063z"/>
		<path style="fill-rule:evenodd;clip-rule:evenodd;fill:#7B491E;" d="M201.013,47.426c0.308,0.88-0.293,1.723-0.592,2.531
			c-0.301,0.813-0.984,1.994-2.174,0.649c-0.425-0.48-1.089-0.431-1.526-0.244c-1.445,0.616-2.403,0.149-2.709-1.265
			c-0.374-1.724,0.065-3.326,1.943-3.893c0.984-0.296,2-0.108,3.004-0.845C199.965,43.621,201.033,45.146,201.013,47.426z"/>
		<path style="fill-rule:evenodd;clip-rule:evenodd;fill:#7B491E;" d="M128.342,74.716c2.304,0.058,3.82,1.598,3.621,3.719
			c-0.144,1.526-0.248,3.445-2.219,3.722c-1.658,0.232-4.52-3.589-4.246-5.568C125.731,74.897,126.992,74.421,128.342,74.716z"/>
		<path style="fill-rule:evenodd;clip-rule:evenodd;fill:#7B491E;" d="M287.86,90.699c0.141,2.062-0.509,3.593-2.146,4.759
			c-1.188,0.846-2.438,1.253-3.422,0.1c-1.002-1.174-0.914-2.818-0.08-4.033c0.878-1.279,2.154-2.29,3.29-3.382
			c0.441-0.425,0.944-0.358,1.465-0.006C287.969,88.814,287.942,89.802,287.86,90.699z"/>
		<path style="fill-rule:evenodd;clip-rule:evenodd;fill:#7B491E;" d="M93.972,148.446c-0.002-1.835,2.772-4.141,4.464-3.649
			c0.568,0.165,0.562,0.807,0.754,1.315c0.854,2.26,0.241,4.283-0.912,6.185c-0.646,1.063-1.554,1.17-2.446,0.123
			C94.845,151.261,93.734,150.173,93.972,148.446z"/>
		<path style="fill-rule:evenodd;clip-rule:evenodd;fill:#7B491E;" d="M90.016,162.033c1.549,0.178,2.478,0.956,1.949,2.611
			c-0.524,1.639-1.504,3.1-1.395,4.974c0.031,0.529-0.864,1.419-1.491,1.6c-0.69,0.198-1.074-0.739-1.56-1.28
			c-2.052-2.284-0.719-4.437,0.235-6.52C88.091,162.684,88.814,161.807,90.016,162.033z"/>
		<path style="fill-rule:evenodd;clip-rule:evenodd;fill:#7B491E;" d="M108.525,90.825c-0.02,2.452-1.386,4.116-3.355,4.085
			c-1.147-0.02-2.987-2.172-2.679-3.54c0.304-1.354,0.734-3.05,2.314-3.401C106.332,87.63,108.536,89.558,108.525,90.825z"/>
		<path style="fill-rule:evenodd;clip-rule:evenodd;fill:#7B491E;" d="M90.218,139.843c-0.049,2.131-2.252,4.312-4.122,4.192
			c-1.743-0.113-1.861-1.675-2.361-2.856c-0.396-0.935,0.307-1.794,0.898-1.855c1.73-0.182,1.942-3.077,4.17-2.169
			C90.183,137.716,89.64,139.135,90.218,139.843z"/>
		<path style="fill-rule:evenodd;clip-rule:evenodd;fill:#7B491E;" d="M181.516,68.144c-1.382-0.248-2.54-1.1-2.518-2.768
			c0.019-1.472,1.04-2.289,2.543-2.391c0.46-0.031,0.982,0.073,1.369-0.11c1.57-0.742,2.317-0.181,2.794,1.388
			c0.469,1.543,0.029,2.5-1.458,2.934C183.377,67.451,182.709,68.211,181.516,68.144z"/>
		<path style="fill-rule:evenodd;clip-rule:evenodd;fill:#7B491E;" d="M344.195,143.747c0.917-0.055,1.84,0.001,1.835,1.014
			c-0.007,1.312,0.917,2.047,1.5,2.977c0.607,0.969,0.765,1.909-0.01,2.712c-0.874,0.907-1.525,0.037-2.088-0.569
			c-0.618-0.665-1.564-0.494-2.245-0.986c-1.088-0.79-1.982-1.665-1.632-3.177C341.892,144.269,342.768,143.545,344.195,143.747z"/>
		<path style="fill-rule:evenodd;clip-rule:evenodd;fill:#7B491E;" d="M72.845,134.89c-0.002,2.334-1.079,3.695-2.723,3.646
			c-0.852-0.025-2.934-2.769-2.912-3.829c0.042-1.989,1.554-2.542,3.036-2.648C72.215,131.915,73.222,133.016,72.845,134.89z"/>
		<path style="fill-rule:evenodd;clip-rule:evenodd;fill:#7B491E;" d="M45.614,128.411c0.029-0.83-0.036-1.636,0.412-2.445
			c0.52-0.94,0.88-2.141,2.055-2.198c1.012-0.049,1.296,1.136,1.659,1.91c0.392,0.838,1.965,1.328,1.364,2.258
			c-0.876,1.353-2.09,2.997-3.479,3.389C45.543,131.91,45.609,129.894,45.614,128.411z"/>
		<path style="fill-rule:evenodd;clip-rule:evenodd;fill:#7B491E;" d="M300.101,120.413c0.279,1.221-0.747,2.307-1.707,2.476
			c-1.442,0.253-2.887-0.6-4.046-1.584c-0.445-0.378-0.761-0.949-1.026-1.486c-0.426-0.859-0.629-1.82,0.171-2.543
			c0.935-0.846,1.52,0.039,2.099,0.633c0.599,0.612,1.022,1.086,2.105,0.542C299.228,117.681,300.08,118.509,300.101,120.413z"/>
		<path style="fill-rule:evenodd;clip-rule:evenodd;fill:#7B491E;" d="M96.391,143.733c-1.938,0.136-3.331-0.57-3.31-2.622
			c0.017-1.562,0.779-2.678,2.708-2.569c1.874,0.105,3.186,0.698,3.339,2.756C99.278,143.299,98.133,143.891,96.391,143.733z"/>
		<path style="fill-rule:evenodd;clip-rule:evenodd;fill:#7B491E;" d="M54.929,128.266c2.479-0.472,2.512,1.249,2.406,2.963
			c-0.109,1.757-1.209,2.815-2.865,3.075c-1.119,0.175-2.547-2.455-2.253-4.212C52.448,128.711,53.159,127.696,54.929,128.266z"/>
		<path style="fill-rule:evenodd;clip-rule:evenodd;fill:#7B491E;" d="M90.214,158.195c0.018-2.398,1.029-3.542,2.778-3.692
			c1.567-0.134,2.203,0.812,2.306,1.981c0.185,2.094-1.402,4.684-2.604,4.429C91.251,160.606,89.78,160.035,90.214,158.195z"/>
		<path style="fill-rule:evenodd;clip-rule:evenodd;fill:#7B491E;" d="M337.279,145.351c-0.805,1.424-1.402,2.999-2.759,3.896
			c-0.885,0.585-1.84-0.049-2.325-0.918c-0.54-0.968-1.297-2.045-0.064-3.075c0.579-0.483,1.225-0.887,1.815-1.357
			c0.628-0.501,1.066-1.512,2.099-0.965C336.965,143.419,336.636,144.595,337.279,145.351z"/>
		<path style="fill-rule:evenodd;clip-rule:evenodd;fill:#7B491E;" d="M310.526,144.73c-0.354,1.701-1.097,2.79-2.766,2.738
			c-1.85-0.057-2.37-1.599-2.451-2.982c-0.085-1.468,0.518-3.121,2.346-3.027C309.564,141.559,309.774,143.51,310.526,144.73z"/>
		<path style="fill-rule:evenodd;clip-rule:evenodd;fill:#7B491E;" d="M60.64,132.952c-0.09-1.54,0.138-2.813,2.118-2.839
			c1.888-0.024,2.667,1.605,2.715,2.752c0.055,1.299-0.479,3.315-2.424,3.286C61.251,136.124,60.464,134.762,60.64,132.952z"/>
		<path style="fill-rule:evenodd;clip-rule:evenodd;fill:#7B491E;" d="M189.396,57.02c1.364,0.304,2.109,1.211,2.194,2.545
			c0.067,1.053-2.695,3.123-3.953,2.838c-1.066-0.241-1.815-0.941-1.688-2.353C186.099,58.384,187.477,57.025,189.396,57.02z"/>
		<path style="fill-rule:evenodd;clip-rule:evenodd;fill:#7B491E;" d="M81.307,137.634c-0.058,1.243-0.884,2.299-2.787,2.349
			c-2.42,0.063-1.463-2.018-1.853-3.12c-0.437-1.237,0.415-2.344,1.501-2.928C78.811,133.589,81.276,136.17,81.307,137.634z"/>
		<path style="fill-rule:evenodd;clip-rule:evenodd;fill:#7B491E;" d="M304.728,124.795c-0.31,0.566,0.893,2.152-1.171,2.049
			c-1.387-0.069-2.99-1.771-3.029-3.154c-0.052-1.842,1.584-2.347,2.569-2.274C304.709,121.531,304.897,123.141,304.728,124.795z"/>
		<path style="fill-rule:evenodd;clip-rule:evenodd;fill:#7B491E;" d="M329.812,145.928c-0.721,1.389-0.412,3.294-2.581,3.447
			c-1.918,0.135-2.005-1.538-2.194-2.597c-0.372-2.068,1.604-2.184,2.886-2.497C328.979,144.024,329.364,145.135,329.812,145.928z"
			/>
		<path style="fill-rule:evenodd;clip-rule:evenodd;fill:#7B491E;" d="M308.433,154.501c1.778,0.267,2.529,1.751,2.796,3.136
			c0.188,0.978-1.037,2.209-2.077,1.955c-1.374-0.335-2.69-1.509-2.859-2.967C306.187,155.718,306.853,154.386,308.433,154.501z"/>
		<path style="fill-rule:evenodd;clip-rule:evenodd;fill:#7B491E;" d="M307.586,129.994c0.009,1.354,0.3,3.312-1.492,3.234
			c-1.445-0.064-2.039-1.818-1.812-3.464c0.094-0.675-0.062-1.375,0.594-1.882c0.588-0.453,0.991-1.326,1.917-0.997
			c0.916,0.326,0.812,1.181,0.795,1.951C307.579,129.222,307.586,129.608,307.586,129.994z"/>
		<path style="fill-rule:evenodd;clip-rule:evenodd;fill:#7B491E;" d="M304.23,156.687c0.445,0.39,1.445,0.812,1.426,1.86
			c-0.018,1.015-0.292,2.082-0.701,3.019c-0.583,1.335-1.379,0.415-2.091,0.008c-1.329-0.762-1.586-2.033-1.315-3.331
			C301.773,157.165,302.817,156.829,304.23,156.687z"/>
		<path style="fill-rule:evenodd;clip-rule:evenodd;fill:#7B491E;" d="M189.753,54.304c-0.102-1.541,0.418-2.673,1.975-2.535
			c1.627,0.144,2.074,1.539,2.24,2.966c0.186,1.601-1.114,2.138-2.129,2.045C190.619,56.668,189.398,55.901,189.753,54.304z"/>
		<path style="fill-rule:evenodd;clip-rule:evenodd;fill:#7B491E;" d="M316.981,154.161c-0.108,0.636-0.182,1.555-1.158,1.749
			c-1.185,0.237-4.067-1.583-3.979-2.485c0.147-1.499,1.428-1.894,2.602-2.142C315.606,151.04,316.921,152.55,316.981,154.161z"/>
		<path style="fill-rule:evenodd;clip-rule:evenodd;fill:#7B491E;" d="M175.663,59.514c0.017-0.986-0.219-2.127,1.344-2.163
			c1.065-0.024,2.969,1.783,2.859,2.845c-0.133,1.278-1.016,2.297-2.183,2.239C176.095,62.356,175.591,61.016,175.663,59.514z"/>
		<path style="fill-rule:evenodd;clip-rule:evenodd;fill:#7B491E;" d="M305.581,148.912c1.978-0.169,1.894,1.111,2.032,2.376
			c0.175,1.592-0.922,2.175-2.011,2.233c-2.183,0.118-0.834-2.066-1.576-3.011C303.867,150.309,304.108,148.389,305.581,148.912z"/>
		<path style="fill-rule:evenodd;clip-rule:evenodd;fill:#7B491E;" d="M306.145,136.656c-0.213-1.081,0.846-1.691,1.741-1.614
			c1.607,0.138,2.044,1.776,2.402,3.012c0.222,0.764-1.161,1.879-1.529,1.741C307.523,139.334,306.174,138.661,306.145,136.656z"/>
		<path style="fill-rule:evenodd;clip-rule:evenodd;fill:#7B491E;" d="M322.608,150.839c0.059,1.22-0.969,1.674-1.733,1.611
			c-1.814-0.147-1.533-1.977-1.908-3.146c-0.119-0.372,0.254-1.532,1.151-1.648C321.063,147.534,322.661,149.653,322.608,150.839z"
			/>
	</g>
</g>
</svg>
