<?xml version="1.0" encoding="iso-8859-1"?>
<!-- Generator: Adobe Illustrator 16.0.0, SVG Export Plug-In . SVG Version: 6.00 Build 0)  -->
<!DOCTYPE svg PUBLIC "-//W3C//DTD SVG 1.1//EN" "http://www.w3.org/Graphics/SVG/1.1/DTD/svg11.dtd">
<svg version="1.1" id="Layer_1" xmlns="http://www.w3.org/2000/svg" xmlns:xlink="http://www.w3.org/1999/xlink" x="0px" y="0px"
	 width="101.027px" height="36.25px" viewBox="0 0 101.027 36.25" style="enable-background:new 0 0 101.027 36.25;"
	 xml:space="preserve">
<g>
	<g>
		<path style="fill:none;" d="M50.521,35.74c-16.478,0-32.955-0.002-49.433,0.01c-0.432,0-0.588-0.046-0.588-0.549
			c0.019-11.39,0.018-22.78,0.001-34.17C0.5,0.57,0.614,0.5,1.045,0.5c32.976,0.012,65.952,0.011,98.927,0.003
			c0.397,0,0.56,0.021,0.559,0.516c-0.021,11.411-0.02,22.822-0.004,34.232c0.001,0.435-0.101,0.5-0.512,0.5
			C83.517,35.738,67.019,35.74,50.521,35.74z M50.229,21.458c0.249-0.073,0.4-0.29,0.698-0.328c0.464-0.06,0.895-0.107,1.366,0.009
			c0.582,0.145,1.165-0.13,1.76-0.118c0.39,0.008,0.757,0.245,1.143,0.126c0.914-0.282,1.85-0.248,2.785-0.237
			c0.357,0.005,0.667-0.121,0.825-0.416c0.141-0.262,0.295-0.335,0.571-0.338c0.314-0.003,0.457-0.214,0.473-0.524
			c0.015-0.314-0.134-0.551-0.428-0.565c-0.56-0.026-1.096-0.213-1.685-0.091c-1.174,0.242-2.331-0.051-3.492-0.241
			c-0.785-0.129-1.604-0.461-2.348,0.254c-0.193,0.187-0.625,0.35-0.963,0.11c-0.956-0.675-2.124-0.581-3.176-0.727
			c-1.236-0.171-2.525-0.17-3.794-0.192c-1.288-0.023-2.562,0.057-3.856-0.321c-1.339-0.39-2.799-0.144-4.19-0.496
			c-0.465-0.118-0.826-0.431-1.244-0.492c-1.033-0.149-2.058-0.318-3.082-0.518c-0.743-0.146-1.525-0.273-2.215-0.487
			c-0.937-0.29-1.873-0.352-2.79-0.363c-1.606-0.02-3.25-0.269-4.821,0.33c-0.036,0.013-0.091,0.016-0.121-0.002
			c-0.475-0.28-0.942,0.049-1.417,0.036c-0.386-0.01-0.616,0.396-0.656,0.764c-0.025,0.231,0.09,0.504,0.423,0.57
			c1.017,0.201,2.137-0.021,3.021,0.73c0.025,0.021,0.083,0.016,0.121,0.007c0.748-0.165,1.424,0.23,2.155,0.27
			c2.044,0.112,4.07,0.49,6.124,0.461c0.378-0.005,0.546,0.186,0.812,0.467c-0.22,0.014-0.362,0.051-0.49,0.024
			c-1.05-0.217-2.139-0.28-3.183-0.295c-1.148-0.017-2.273-0.333-3.425-0.189c-0.672,0.084-1.363-0.305-2-0.085
			c-0.646,0.223-1.277,0.213-1.922,0.209c-1.401-0.008-2.788,0.137-4.167,0.367c-0.135,0.022-0.288,0.004-0.419-0.038
			c-0.362-0.116-0.706-0.092-1.074,0c-0.347,0.087-0.724,0.155-1.012-0.201c-0.167-0.207-0.428-0.176-0.622-0.081
			c-0.521,0.255-1.071,0.177-1.614,0.213c-0.313,0.021-0.44-0.104-0.473-0.384c-0.087-0.739-0.638-1.02-1.242-1.228
			c-0.665-0.229-1.386-0.26-2.045-0.431c-1.217-0.316-2.398-0.695-3.665-0.863c-0.849-0.112-1.436,0.156-2.059,0.546
			c-0.352,0.22-0.591,0.576-0.424,0.985c0.127,0.31,0.446,0.461,0.82,0.514c0.448,0.063,0.882,0.228,1.323,0.344
			c0.174,0.045,0.337,0.127,0.284,0.324c-0.036,0.133-0.188,0.202-0.354,0.186c-0.251-0.026-0.45,0.075-0.678,0.192
			c-0.232,0.119-0.506,0.232-0.857,0.105c-0.686-0.248-1.934,0.93-1.782,1.646c0.046,0.218,0.054,0.511,0.294,0.635
			c0.683,0.351,1.334,0.841,2.187,0.522c0.138-0.052,0.313,0.002,0.478,0.042c1.197,0.292,2.363,0.341,3.524-0.251
			c0.438-0.223,0.98-0.289,1.518-0.322c1.142-0.07,2.127,0.637,3.264,0.56c0.146-0.01,0.653,0.283,0.128,0.617
			c-0.228,0.145-0.362,0.359-0.267,0.625c0.086,0.24,0.326,0.198,0.532,0.203c0.14,0.003,0.361-0.018,0.406,0.058
			c0.333,0.545,0.861,0.402,1.35,0.439c0.725,0.056,1.508-0.499,2.184,0.226c0.096,0.103,0.397,0.022,0.603,0.015
			c0.524-0.021,1.047,0.008,1.523-0.325c0.176-0.124,0.465-0.078,0.708,0.03c0.479,0.214,0.991,0.219,1.507,0.175
			c0.559-0.047,0.808-0.468,0.538-0.951c-0.052-0.093-0.103-0.174-0.094-0.279c0.056-0.704-0.388-0.856-0.959-0.875
			c-0.11-0.003-0.264,0.046-0.262-0.222c0.559-0.054,1.151,0.037,1.682-0.265c0.36-0.204,0.667-0.602,1.103-0.563
			c1.249,0.109,2.504,0.208,3.75,0.272c1.874,0.097,3.736,0.466,5.626,0.301c0.297-0.025,0.558-0.199,0.888-0.113
			c0.859,0.225,1.784-0.029,2.633,0.338c0.12,0.052,0.271-0.021,0.412-0.064c0.188-0.059,0.419-0.09,0.602-0.034
			c0.545,0.167,1.066,0.12,1.613-0.006c0.89-0.204,1.811-0.278,2.714-0.227c0.382,0.021,0.87-0.16,1.227,0.453
			c0.266,0.456,1.016,0.729,1.542,0.94c0.988,0.398,2.116,0.412,3.188,0.572c0.545,0.082,1.17-0.264,1.638,0.252
			c0.264,0.29,0.571,0.272,0.891,0.165c0.384-0.129,0.808-0.149,1.149-0.031c0.621,0.214,1.248,0.147,1.869,0.219
			c0.716,0.083,1.148-0.261,1.473-0.839c0.269-0.479,0.108-0.812-0.405-1.039c-0.445-0.197-0.897-0.295-1.357-0.22
			c-0.689,0.111-1.28-0.362-1.961-0.271C50.42,21.781,50.333,21.583,50.229,21.458z M46.91,4.21
			c-0.326,0.032-0.592-0.039-0.85,0.074c-0.049,0.021-0.169-0.034-0.207-0.088c-0.105-0.153,0.095-0.104,0.14-0.165
			c0.31-0.424,0.714-0.674,1.268-0.685c0.424-0.009,0.84-0.136,0.833-0.671c-0.006-0.5-0.431-0.748-0.996-0.599
			c-0.156,0.041-0.279,0.053-0.394-0.051c-0.389-0.352-0.869-0.24-1.326-0.287c-0.783-0.079-1.541,0.077-2.276,0.271
			c-0.876,0.231-1.798,0.179-2.649,0.491c-0.262,0.096-0.52,0.285-0.501,0.62c0.019,0.344-0.152,0.42-0.45,0.518
			c-0.584,0.19-1.189,0.039-1.787,0.247c-0.898,0.313-1.86,0.42-2.788,0.667c-1.489,0.396-3.055,0.379-4.598,0.406
			c-0.68,0.012-1.365-0.048-2.038,0.02c-0.462,0.047-0.899,0.138-1.364-0.01c-0.544-0.173-1.078-0.454-1.673-0.375
			c-1.08,0.145-2.163,0.126-3.247,0.118c-1.405-0.011-2.81,0.06-4.209-0.226c-0.815-0.167-1.669-0.175-2.381,0.439
			c-0.111,0.096-0.294,0.141-0.448,0.151c-0.985,0.063-1.887,0.579-2.899,0.521c-0.206-0.012-0.518,0.085-0.541,0.386
			c-0.017,0.228-0.138,0.613,0.083,0.671c0.508,0.134,0.784,0.552,1.188,0.802c0.235,0.146,0.309-0.042,0.46-0.072
			c0.229-0.046,0.281-0.397,0.617-0.257c0.985,0.413,2.036,0.296,3.069,0.311c0.176,0.002,0.384-0.084,0.522,0.09
			c0.409,0.515,1.026,0.446,1.562,0.51c1.874,0.224,3.756,0.358,5.647,0.243c0.098-0.006,0.189,0,0.292-0.023
			c1.341-0.304,2.719-0.281,4.077-0.448c0.111-0.014,0.256-0.031,0.267,0.158c0.009,0.162-0.093,0.168-0.219,0.218
			c-0.5,0.196-1.04,0.296-1.545,0.399c-0.766,0.156-1.275,0.824-2.083,0.859c-0.289,0.012-0.444,0.382-0.477,0.706
			c-0.019,0.188,0.062,0.314,0.246,0.372c1.189,0.371,2.379,0.471,3.552-0.044c0.311-0.136,0.584-0.124,0.894-0.023
			c0.695,0.227,1.688,0.047,1.892-0.417c0.44-0.997,1.304-1.155,2.217-1.235c0.409-0.036,0.74-0.167,1.003-0.48
			c0.297-0.355,2.016-0.826,2.386-0.589c0.583,0.373,1.212,0.235,1.786,0.165c1.268-0.155,2.527-0.368,3.811-0.339
			c0.161,0.003,0.311,0.079,0.454,0.11c0.618,0.134,1.224,0.533,1.884,0.209c0.205-0.101,0.401-0.042,0.6-0.073
			c1.108-0.171,2.216,0.373,3.325,0.002c0.037-0.012,0.087-0.014,0.123,0c0.744,0.298,1.487,0.006,2.229-0.017
			c0.578-0.018,1.191-0.069,1.718-0.282c0.573-0.232,0.695-0.065,0.681,0.445c-0.006,0.225,0.147,0.368,0.298,0.43
			c0.352,0.145,0.624,0.375,0.867,0.649c0.108,0.124,0.24,0.157,0.386,0.13c0.707-0.131,1.419-0.242,2.117-0.412
			c0.521-0.126,1.061-0.278,1.204-0.926c0.064-0.288,0.324-0.347,0.517-0.251c0.421,0.208,0.792,0.032,1.161-0.083
			c0.663-0.206,1.344-0.244,2.024-0.3c0.518-0.042,1.031-0.059,1.359,0.467c0.052,0.084,0.133,0.147,0.254,0.143
			c0.632-0.023,1.28,0.158,1.89-0.125c0.294-0.136,0.599-0.152,0.895-0.109c0.87,0.126,1.668-0.384,2.532-0.256
			c0.146,0.021,0.232-0.081,0.307-0.172c0.428-0.523,1.005-0.561,1.577-0.407c0.532,0.144,1.073,0.145,1.569,0.035
			c0.326-0.072,0.299-0.648,0.516-0.888c0.373-0.415,0.067-0.778-0.134-0.853c-0.553-0.204-1.12-0.453-1.734-0.428
			c-0.806,0.033-1.627-0.248-2.418,0.116c-0.051,0.023-0.133,0.022-0.183-0.003c-0.894-0.457-1.851-0.174-2.776-0.231
			c-0.403-0.025-0.826-0.097-1.22,0.052c-0.627,0.239-1.283,0.145-1.917,0.138c-0.512-0.006-1.028-0.182-1.553-0.198
			c-0.552-0.017-0.756-0.302-0.42-0.726c0.42-0.529,0.896-1.046,1.644-1.131c0.372-0.042,0.603-0.261,0.627-0.625
			c0.024-0.37-0.049-0.765-0.486-0.84c-0.395-0.067-0.844-0.112-1.192,0.121c-0.475,0.317-0.987,0.31-1.515,0.368
			c-0.728,0.081-1.486,0.118-2.098,0.606c-0.405,0.324-0.814,0.598-1.373,0.498c-0.245-0.043-0.381,0.147-0.472,0.325
			c-0.059,0.113-0.093,0.325,0.048,0.39c0.219,0.101,0.393,0.231,0.261,0.452c-0.14,0.234-0.335,0.4-0.672,0.455
			c-1.077,0.175-2.232-0.054-3.229,0.586c-0.08,0.051-0.286,0.031-0.346-0.035c-0.214-0.237-0.482-0.166-0.738-0.207
			c-0.271-0.043-0.619-0.079-0.778-0.256c-0.433-0.484-0.977-0.417-1.522-0.49C48.291,3.855,47.614,4.408,46.91,4.21z
			 M68.189,30.173c-0.431,0-0.893,0.104-1.284-0.019c-1.34-0.419-2.707-0.458-4.088-0.479c-1.185-0.019-2.383,0.157-3.551-0.126
			c-0.757-0.185-1.483-0.046-2.226,0.03c-0.364,0.038-0.728,0.03-1.015-0.309c-0.819-0.967-1.143-1.062-2.271-0.567
			c-0.567,0.249-1.256,0.032-1.698,0.294c-0.735,0.436-1.517,0.519-2.288,0.632c-0.804,0.117-1.71,0.236-2.441-0.021
			c-0.926-0.323-1.792-0.564-2.77-0.432c-0.39,0.053-0.656,0.19-0.916,0.49c-0.291,0.336-0.55,0.601-1.183,0.572
			c-1.024-0.046-2-0.266-2.981-0.458c-0.832-0.164-1.72,0.008-2.493-0.366c-0.605-0.293-1.149-0.185-1.632,0.12
			c-0.809,0.509-1.672,0.519-2.573,0.534c-0.7,0.012-1.167-0.321-1.611-0.769c-0.113-0.114-0.202-0.267-0.335-0.345
			c-0.67-0.389-1.426-0.376-2.16-0.357c-0.35,0.009-0.652,0.337-0.779,0.628c-0.119,0.273-0.288,0.731,0.332,0.837
			c0.498,0.085,0.91,0.632,1.502,0.248c0.12-0.078,0.197,0.061,0.208,0.21c0.016,0.222-0.081,0.3-0.286,0.272
			c-0.565-0.074-1.065,0.119-1.549,0.375c-0.354,0.187-0.43,0.562-0.499,0.888c-0.072,0.345,0.317,0.339,0.525,0.473
			c0.638,0.411,1.384,0.356,2.009,0.205c1.446-0.35,2.873,0.034,4.303-0.079c0.072-0.006,0.146,0.061,0.224,0.079
			c0.721,0.166,1.315,0.637,2.033,0.824c0.746,0.195,1.062,0.011,1.152-0.751c0.032-0.278,0.071-0.604,0.425-0.646
			c1.363-0.16,2.738-0.419,4.038,0.31c0.098,0.055,0.282,0.092,0.35,0.039c0.347-0.267,0.775-0.19,1.154-0.312
			c0.917-0.293,1.884-0.266,2.794-0.131c1.152,0.17,2.231,0.15,3.321-0.256c0.191-0.071,0.444-0.104,0.697,0.152
			c0.593,0.601,1.423,0.804,2.19,0.559c0.453-0.146,0.88-0.276,1.335-0.236c0.864,0.075,1.674-0.301,2.57-0.177
			c0.788,0.108,0.821-0.006,1.037,0.822c0.128,0.49,0.449,0.858,0.983,1.037c0.462,0.154,0.612-0.195,0.868-0.401
			c0.292-0.235,0.506-0.524,0.597-0.887c0.085-0.337,0.281-0.41,0.613-0.415c0.676-0.011,1.341,0.113,2.009,0.162
			c0.857,0.062,1.711,0.082,2.568,0.102c0.335,0.007,0.469,0.187,0.217,0.459c-0.464,0.502-0.549,1.141-0.689,1.759
			c-0.062,0.275,0.05,0.543,0.277,0.695c0.212,0.142,0.416,0.031,0.598-0.144c0.499-0.483,1.111-0.814,1.684-1.195
			c0.237-0.158,0.529-0.282,0.57-0.585c0.086-0.642,0.558-0.817,1.068-0.932c0.43-0.098,0.887-0.234,1.309-0.177
			c0.74,0.1,1.445,0.366,2.171-0.112c0.21-0.138,0.479-0.21,0.454-0.477c-0.026-0.275-0.206-0.499-0.474-0.66
			c-0.522-0.317-1.089-0.233-1.646-0.243c-0.748-0.014-1.142-0.572-0.844-1.268c0.134-0.312,0.047-0.433-0.226-0.52
			c-0.208-0.067-0.415-0.171-0.627-0.187c-0.427-0.031-0.938-0.162-1.257,0.124c-0.371,0.334,0.102,0.682,0.205,1.024
			C68.194,30.113,68.189,30.135,68.189,30.173z M94.197,11.77c-0.27,0.501-0.022,0.8,0.307,1.091
			c0.229,0.202,0.421,0.138,0.663,0.022c0.426-0.204,0.49-0.476,0.293-0.886c-0.082-0.17,0.061-0.226,0.236-0.244
			c0.588-0.058,0.666-0.512,0.723-1.023c0.096,0.079,0.161,0.161,0.246,0.199c0.204,0.092,0.398,0.359,0.644,0.127
			c0.224-0.211,0.175-0.528,0.06-0.744c-0.102-0.189-0.24-0.58-0.565-0.394c-0.397,0.229-0.747,0.453-1.197,0.149
			c-0.035-0.023-0.146,0.051-0.213,0.094c-0.382,0.243-0.403,0.605-0.256,0.968c0.15,0.368-0.163,0.383-0.326,0.43
			c-0.115,0.034-0.175-0.153-0.154-0.311c0.046-0.35-0.221-0.522-0.476-0.582c-0.211-0.049-0.381-0.102-0.523-0.263
			c-0.176-0.2-0.337-0.153-0.523,0.013c-0.181,0.161-0.161,0.294-0.038,0.467c0.151,0.211,0.291,0.432,0.32,0.714
			c-0.144,0.096-0.386-0.031-0.526,0.179c-0.176,0.264-0.358-0.103-0.546-0.015c-0.155,0.073-0.327,0.191-0.335,0.334
			c-0.016,0.301,0.076,0.595,0.321,0.808c0.25,0.218,0.403,0.025,0.564-0.138c0.084-0.084,0.15-0.152,0.312-0.109
			c0.22,0.059,0.423-0.116,0.489-0.284c0.071-0.18,0.095-0.434-0.227-0.604C93.758,11.77,93.942,11.77,94.197,11.77z M88.896,8.145
			c0,0.355,0.005,0.619-0.002,0.882c-0.007,0.27,0.157,0.468,0.375,0.489c0.599,0.057,0.374,0.43,0.33,0.741
			c-0.066,0.474-0.143,0.946-0.206,1.421c-0.021,0.165,0.081,0.27,0.229,0.321c0.399,0.137,1.148-0.501,0.979-0.881
			c-0.222-0.497-0.042-0.857,0.226-1.218c0.118-0.158,0.246-0.285,0.115-0.482c-0.5-0.754-0.984-1.527-1.965-1.736
			c-0.104-0.022-0.204-0.021-0.203-0.163c0.005-0.472-0.423-0.587-0.669-0.862c-0.213-0.239-0.393-0.312-0.585-0.113
			c-0.197,0.204-0.194,0.493,0.029,0.71c0.222,0.215,0.396,0.45,0.506,0.743C88.215,8.423,88.459,8.627,88.896,8.145z
			 M74.045,13.081c-0.182-0.059-0.302-0.169-0.351-0.332c-0.164-0.54-0.545-0.58-1.025-0.509c-0.186,0.027-0.344,0.141-0.521,0.13
			c-0.343-0.019-0.41,0.22-0.425,0.459c-0.018,0.272-0.168,0.582,0.183,0.795c0.259,0.158,0.491,0.186,0.722-0.008
			c0.141-0.118,0.268-0.182,0.427-0.072c0.074,0.269-0.445,0.456-0.097,0.749c0.182,0.153,0.29,0.473,0.566,0.416
			c0.367-0.076,0.573-0.465,0.628-0.739c0.112-0.556,0.311-0.439,0.687-0.286c0.257,0.105,0.605,0.186,0.826-0.16
			c0.241-0.378,0.154-1.102-0.185-1.4c-0.445-0.391-0.721-0.086-1.102,0.179C74.052,12.533,74.077,12.786,74.045,13.081z
			 M81.011,24.686c0.522-0.379,0.612-1.025,0.22-1.491c-0.319-0.381-0.719-0.354-1.071-0.132c-0.324,0.204-0.165,0.531-0.042,0.815
			c0.114,0.266,0.279,0.49,0.499,0.676c0.1,0.086,0.395,0.095,0.157,0.314c-0.099,0.091-0.201,0.312-0.451,0.06
			c-0.18-0.18-0.441-0.302-0.602-0.528c-0.145-0.204-0.359-0.155-0.561-0.152c-0.141,0.003-0.131,0.108-0.157,0.21
			c-0.165,0.636,0.8,1.336,1.244,1.116c0.2-0.099,0.264-0.081,0.442-0.005c0.188,0.081,0.509,0.142,0.627-0.045
			c0.116-0.184,0.099-0.476-0.138-0.659C81.116,24.816,81.067,24.747,81.011,24.686z M71.459,13.135
			c0.038-0.276,0.023-0.545-0.251-0.695c-0.321-0.175-0.512,0.096-0.734,0.249c-0.241,0.166-0.564,0.489-0.779,0.288
			c-0.566-0.529-0.949-0.151-1.401,0.123c-0.306,0.185-0.188,0.441-0.094,0.619c0.084,0.159,0.293,0.347,0.527,0.109
			c0.169-0.172,0.421-0.138,0.576-0.074c0.564,0.234,1.072,0.197,1.664,0.021C71.389,13.647,71.513,13.519,71.459,13.135z
			 M72.921,21.524c-0.452-0.107-0.662,0.169-0.713,0.614c-0.035,0.314-0.539,0.477-0.313,0.841c0.212,0.341,0.636,0.133,0.96,0.245
			c0.602,0.21,1.163-0.165,1.251-0.696C74.148,22.276,73.303,21.527,72.921,21.524z M78.986,22.884c0.041,0,0.082,0,0.123,0
			c0.501,0.001,0.857-0.227,1.003-0.706c0.088-0.294-0.07-0.605-0.342-0.626c-0.6-0.047-1.207-0.658-1.809-0.026
			c-0.049,0.052-0.056,0.149-0.065,0.228C77.833,22.286,78.454,22.928,78.986,22.884z M88.897,20.937
			c-0.035,0.344,0.082,0.653,0.187,0.947c0.122,0.344,0.427,0.474,0.774,0.335c0.356-0.143,0.685-0.603,0.595-0.793
			c-0.218-0.462-0.234-1.057-0.716-1.374c-0.067-0.044-0.236-0.03-0.291,0.024C89.198,20.323,88.803,20.488,88.897,20.937z
			 M82.744,22.644c0.412-0.045,0.747-0.24,1.049-0.521c0.217-0.2,0.207-0.446,0.118-0.669c-0.109-0.271-0.417-0.234-0.591-0.155
			c-0.343,0.155-0.685,0.123-1.015,0.074c-0.229-0.034-0.408,0-0.513,0.162c-0.122,0.189-0.134,0.435,0.022,0.624
			C82.05,22.446,82.329,22.678,82.744,22.644z M91.121,10.476c0,0.225,0.008,0.451-0.002,0.675c-0.017,0.38,0.038,0.739,0.513,0.721
			c0.473-0.018,0.726-0.487,0.663-0.792c-0.101-0.488-0.251-0.986-0.411-1.472c-0.077-0.236-0.274-0.324-0.452-0.294
			c-0.22,0.038-0.365,0.205-0.318,0.487C91.15,10.02,91.121,10.25,91.121,10.476z M78.134,11.633
			c0.651,0.055,0.947-0.201,0.721-0.639c-0.146-0.283-0.354-0.596-0.772-0.602c-0.143-0.002-0.334,0.103-0.43-0.107
			c-0.113-0.249-0.305-0.384-0.512-0.161c-0.159,0.17-0.354,0.387-0.144,0.692C77.292,11.243,77.51,11.745,78.134,11.633z
			 M76.512,11.64c-0.241,0.12-0.335,0.372-0.346,0.659c-0.02,0.518,0.468,1.297,0.798,1.298c0.238,0.001,0.805-0.64,0.805-0.91
			C77.77,12.382,76.941,11.661,76.512,11.64z M97.426,19.768c-0.009-0.764-0.42-1.202-0.945-1.215
			c-0.32-0.008-0.618,0.065-0.642,0.405c-0.039,0.548,0.451,1.208,0.83,1.204C97.057,20.16,97.404,20.089,97.426,19.768z
			 M86.475,22.637c0.346,0.004,0.606-0.23,0.645-0.653c0.025-0.289-0.078-0.568-0.435-0.575c-0.222-0.004-0.383-0.119-0.442-0.27
			c-0.09-0.229-0.235-0.262-0.422-0.225c-0.191,0.039-0.32,0.183-0.379,0.361C85.302,21.704,86.013,22.631,86.475,22.637z
			 M99.909,21.178c-0.011-0.571-0.229-0.977-0.447-1.375c-0.114-0.21-0.323-0.321-0.569-0.246c-0.29,0.088-0.271,0.354-0.22,0.56
			c0.09,0.365,0.224,0.714,0.273,1.096c0.034,0.268,0.24,0.538,0.557,0.498C99.827,21.67,99.975,21.424,99.909,21.178z
			 M80.123,9.958c-0.052-0.592-0.44-0.836-0.967-0.971c-0.195-0.05-0.374-0.177-0.518,0.059c-0.131,0.213-0.221,0.429-0.015,0.661
			c0.191,0.215,0.356,0.452,0.548,0.667c0.13,0.146,0.277,0.38,0.496,0.248C79.896,10.482,80.165,10.314,80.123,9.958z
			 M84.637,10.424c-0.297,0.026-0.516,0.592-0.327,0.883c0.194,0.303,0.448,0.575,0.599,0.897c0.123,0.262,0.288,0.342,0.524,0.286
			c0.302-0.072,0.386-0.345,0.421-0.607c0.029-0.225-0.062-0.438-0.309-0.486c-0.338-0.066-0.489-0.249-0.486-0.588
			C85.061,10.539,84.781,10.552,84.637,10.424z M98.894,10.493c0.106-0.417-0.146-0.655-0.436-0.805
			c-0.332-0.173-0.585,0.133-0.788,0.315c-0.215,0.194-0.254,0.493,0.08,0.699c0.045,0.028,0.053,0.153,0.041,0.227
			c-0.043,0.27,0.104,0.47,0.308,0.546c0.229,0.086,0.416-0.166,0.529-0.303C98.776,10.992,99.035,10.792,98.894,10.493z
			 M97.44,12.328c-0.075-0.37-0.157-0.749-0.599-0.804c-0.357-0.044-0.897,0.562-0.898,0.957c-0.002,0.616,0.561,0.567,0.885,0.604
			C97.26,13.134,97.355,12.687,97.44,12.328z M82.343,12.705c0.004-0.481-0.464-1.201-0.757-1.186
			c-0.242,0.012-0.84,0.64-0.849,0.893c-0.017,0.433,0.366,0.597,1.302,0.588C82.28,12.999,82.386,12.928,82.343,12.705z
			 M83.489,20.906c0.613,0.042,0.767-0.339,0.829-0.79c0.043-0.305-0.097-0.48-0.419-0.442c-0.479,0.055-1.037-0.054-1.297,0.521
			c-0.069,0.155,0.067,0.354,0.175,0.421C83.004,20.753,83.2,21.031,83.489,20.906z M79.363,13.119
			c0.767,0.003,1.01-0.174,1.004-0.689c-0.005-0.39-0.25-0.613-0.583-0.654c-0.393-0.048-1.035,0.544-1.022,0.871
			C78.777,13.079,79.04,13.178,79.363,13.119z M92.04,22.142c0.339,0.005,0.822-0.447,0.811-0.759
			c-0.009-0.244-0.582-0.871-0.803-0.844c-0.944,0.118-0.127,0.85-0.408,1.24C91.494,21.981,91.768,22.161,92.04,22.142z
			 M97.05,20.54c-0.251,0.021-0.69-0.118-0.729,0.424c-0.019,0.265,0.617,0.82,0.856,0.802c0.192-0.016,0.767-0.696,0.738-0.894
			C97.839,20.343,97.444,20.534,97.05,20.54z M76.424,22.885c0.247,0.018,0.484-0.01,0.485-0.4c0.001-0.469-0.737-1.062-1.192-0.966
			c-0.216,0.045-0.247,0.23-0.271,0.344C75.367,22.226,75.987,22.875,76.424,22.885z M88.895,11.108
			c0.002-0.468,0.029-0.977-0.538-1.027c-0.38-0.034-0.48,0.319-0.457,0.69c0.028,0.447,0.398,1.022,0.701,0.981
			C89.041,11.691,88.847,11.323,88.895,11.108z M96.517,23.128c0.413,0.102,0.603-0.247,0.633-0.518
			c0.049-0.445-0.447-0.454-0.726-0.567c-0.255-0.104-0.622-0.206-0.83,0.165c-0.026,0.048-0.043,0.141-0.016,0.174
			C95.833,22.695,95.937,23.197,96.517,23.128z M94.394,20.544c-0.367-0.031-0.555,0.043-0.559,0.383
			c-0.004,0.377,0.394,0.995,0.677,0.959c0.362-0.047,0.627-0.373,0.621-0.649C95.124,20.806,94.688,20.657,94.394,20.544z
			 M72.708,14.286c-0.008-0.111,0.007-0.214-0.021-0.227c-0.317-0.153-0.632-0.099-0.916,0.078c-0.348,0.216-0.287,0.56-0.115,0.816
			c0.146,0.218,0.332,0.515,0.695,0.423c0.068-0.018,0.176-0.12,0.168-0.164C72.448,14.858,72.515,14.538,72.708,14.286z
			 M83.54,12.503c0.298-0.002,0.396-0.297,0.251-0.536c-0.202-0.33-0.512-0.61-0.825-0.845c-0.08-0.06-0.479-0.129-0.501,0.263
			C82.446,11.72,83.109,12.492,83.54,12.503z M70.802,14.589c-0.511,0.024-0.703,0.201-0.696,0.58
			c0.007,0.379,0.2,0.548,0.572,0.547c0.365,0,0.625-0.244,0.627-0.527C71.307,14.87,71.098,14.552,70.802,14.589z M87.327,12.131
			c0.162-0.071,0.461-0.023,0.456-0.381c-0.004-0.248-0.57-0.85-0.802-0.857c-0.228-0.007-0.416,0.036-0.432,0.312
			C86.529,11.581,86.956,12.118,87.327,12.131z M67.559,13.966c0.412-0.241,0.418-0.612,0.249-0.96
			c-0.116-0.239-0.394-0.436-0.621-0.104C66.845,13.397,67.268,13.668,67.559,13.966z"/>
		<path style="fill-rule:evenodd;clip-rule:evenodd;fill:#7B491E;" d="M50.229,21.458c0.104,0.125,0.191,0.322,0.355,0.3
			c0.681-0.091,1.271,0.383,1.961,0.271c0.46-0.075,0.912,0.022,1.357,0.22c0.514,0.227,0.674,0.561,0.405,1.039
			c-0.324,0.578-0.757,0.922-1.473,0.839c-0.621-0.071-1.248-0.005-1.869-0.219c-0.342-0.118-0.765-0.098-1.149,0.031
			c-0.319,0.107-0.626,0.125-0.891-0.165c-0.468-0.516-1.093-0.17-1.638-0.252c-1.072-0.16-2.2-0.174-3.188-0.572
			c-0.527-0.212-1.276-0.484-1.542-0.94c-0.357-0.613-0.845-0.432-1.227-0.453c-0.904-0.052-1.824,0.022-2.714,0.227
			c-0.547,0.126-1.068,0.173-1.613,0.006c-0.182-0.056-0.414-0.024-0.602,0.034c-0.141,0.044-0.292,0.116-0.412,0.064
			c-0.849-0.367-1.773-0.113-2.633-0.338c-0.33-0.086-0.59,0.088-0.888,0.113c-1.891,0.165-3.752-0.204-5.626-0.301
			c-1.246-0.064-2.501-0.163-3.75-0.272c-0.436-0.038-0.743,0.359-1.103,0.563c-0.531,0.302-1.123,0.211-1.682,0.265
			c-0.002,0.268,0.152,0.219,0.262,0.222c0.571,0.019,1.015,0.171,0.959,0.875c-0.008,0.105,0.042,0.187,0.094,0.279
			c0.271,0.483,0.021,0.904-0.538,0.951c-0.516,0.044-1.027,0.039-1.507-0.175c-0.243-0.108-0.532-0.154-0.708-0.03
			c-0.476,0.333-0.999,0.304-1.523,0.325c-0.206,0.008-0.506,0.088-0.603-0.015c-0.676-0.725-1.458-0.17-2.184-0.226
			c-0.489-0.037-1.017,0.105-1.35-0.439c-0.045-0.075-0.266-0.055-0.406-0.058c-0.206-0.005-0.445,0.037-0.532-0.203
			c-0.095-0.266,0.04-0.48,0.267-0.625c0.524-0.334,0.018-0.627-0.128-0.617c-1.136,0.077-2.122-0.63-3.264-0.56
			c-0.538,0.033-1.08,0.1-1.518,0.322c-1.162,0.592-2.328,0.543-3.524,0.251c-0.165-0.04-0.34-0.094-0.478-0.042
			c-0.853,0.318-1.504-0.172-2.187-0.522c-0.24-0.124-0.248-0.417-0.294-0.635c-0.152-0.716,1.096-1.894,1.782-1.646
			c0.351,0.127,0.625,0.014,0.857-0.105c0.228-0.117,0.426-0.219,0.678-0.192c0.165,0.017,0.317-0.053,0.354-0.186
			c0.054-0.197-0.11-0.278-0.284-0.324c-0.441-0.116-0.875-0.281-1.323-0.344c-0.374-0.053-0.693-0.204-0.82-0.514
			c-0.167-0.41,0.072-0.765,0.424-0.985c0.623-0.39,1.21-0.658,2.059-0.546c1.267,0.168,2.448,0.547,3.665,0.863
			c0.659,0.171,1.38,0.202,2.045,0.431c0.604,0.208,1.154,0.489,1.242,1.228c0.033,0.28,0.16,0.405,0.473,0.384
			c0.543-0.036,1.093,0.042,1.614-0.213c0.194-0.095,0.455-0.126,0.622,0.081c0.288,0.356,0.665,0.288,1.012,0.201
			c0.368-0.092,0.712-0.116,1.074,0c0.131,0.042,0.285,0.061,0.419,0.038c1.38-0.23,2.766-0.375,4.167-0.367
			c0.645,0.003,1.276,0.013,1.922-0.209c0.637-0.22,1.328,0.169,2,0.085c1.151-0.144,2.277,0.172,3.425,0.189
			c1.044,0.015,2.133,0.078,3.183,0.295c0.128,0.026,0.271-0.011,0.49-0.024c-0.266-0.281-0.434-0.472-0.812-0.467
			c-2.054,0.029-4.08-0.349-6.124-0.461c-0.731-0.04-1.407-0.435-2.155-0.27c-0.039,0.008-0.096,0.014-0.121-0.007
			c-0.884-0.752-2.004-0.53-3.021-0.73c-0.333-0.066-0.448-0.339-0.423-0.57c0.041-0.367,0.271-0.774,0.656-0.764
			c0.475,0.013,0.942-0.315,1.417-0.036c0.03,0.018,0.085,0.015,0.121,0.002c1.571-0.599,3.214-0.35,4.821-0.33
			c0.917,0.011,1.853,0.073,2.79,0.363c0.69,0.214,1.472,0.342,2.215,0.487c1.024,0.2,2.049,0.369,3.082,0.518
			c0.417,0.061,0.778,0.374,1.244,0.492c1.391,0.352,2.851,0.105,4.19,0.496c1.294,0.377,2.568,0.297,3.856,0.321
			c1.269,0.022,2.559,0.021,3.794,0.192c1.052,0.146,2.22,0.051,3.176,0.727c0.338,0.239,0.77,0.076,0.963-0.11
			c0.743-0.715,1.562-0.383,2.348-0.254c1.161,0.19,2.318,0.483,3.492,0.241c0.589-0.122,1.125,0.064,1.685,0.091
			c0.294,0.015,0.442,0.251,0.428,0.565c-0.016,0.311-0.158,0.521-0.473,0.524c-0.276,0.003-0.431,0.076-0.571,0.338
			c-0.158,0.295-0.468,0.421-0.825,0.416c-0.936-0.011-1.871-0.045-2.785,0.237c-0.386,0.119-0.753-0.118-1.143-0.126
			c-0.595-0.012-1.178,0.263-1.76,0.118c-0.471-0.116-0.901-0.068-1.366-0.009C50.629,21.168,50.478,21.385,50.229,21.458z
			 M13.391,22.51c-0.057-0.048-0.095-0.104-0.133-0.104c-0.042,0-0.112,0.045-0.12,0.082c-0.021,0.087,0.028,0.154,0.125,0.136
			C13.305,22.615,13.337,22.56,13.391,22.51z"/>
		<path style="fill-rule:evenodd;clip-rule:evenodd;fill:#7B491E;" d="M46.91,4.21c0.704,0.198,1.381-0.355,2.154-0.251
			c0.545,0.073,1.089,0.006,1.522,0.49c0.159,0.177,0.507,0.212,0.778,0.256c0.256,0.041,0.524-0.03,0.738,0.207
			c0.06,0.066,0.266,0.086,0.346,0.035c0.996-0.64,2.151-0.411,3.229-0.586c0.337-0.055,0.532-0.221,0.672-0.455
			c0.132-0.221-0.042-0.351-0.261-0.452c-0.141-0.064-0.106-0.276-0.048-0.39c0.091-0.178,0.227-0.368,0.472-0.325
			c0.559,0.1,0.968-0.174,1.373-0.498c0.611-0.488,1.37-0.526,2.098-0.606c0.527-0.058,1.04-0.051,1.515-0.368
			c0.349-0.232,0.798-0.188,1.192-0.121c0.438,0.075,0.511,0.47,0.486,0.84c-0.024,0.364-0.255,0.583-0.627,0.625
			c-0.748,0.085-1.224,0.603-1.644,1.131c-0.336,0.423-0.132,0.709,0.42,0.726c0.524,0.016,1.041,0.192,1.553,0.198
			c0.634,0.007,1.29,0.101,1.917-0.138c0.394-0.149,0.816-0.077,1.22-0.052c0.926,0.057,1.883-0.226,2.776,0.231
			c0.05,0.025,0.132,0.026,0.183,0.003c0.791-0.364,1.612-0.083,2.418-0.116c0.614-0.025,1.182,0.225,1.734,0.428
			c0.201,0.074,0.507,0.438,0.134,0.853c-0.217,0.24-0.189,0.816-0.516,0.888c-0.496,0.11-1.037,0.108-1.569-0.035
			c-0.572-0.154-1.149-0.116-1.577,0.407c-0.074,0.091-0.161,0.193-0.307,0.172c-0.864-0.127-1.662,0.383-2.532,0.256
			c-0.296-0.043-0.601-0.026-0.895,0.109c-0.609,0.282-1.258,0.101-1.89,0.125c-0.121,0.004-0.202-0.059-0.254-0.143
			c-0.328-0.526-0.842-0.51-1.359-0.467c-0.681,0.056-1.361,0.094-2.024,0.3c-0.369,0.115-0.74,0.291-1.161,0.083
			c-0.192-0.095-0.452-0.036-0.517,0.251c-0.144,0.648-0.684,0.799-1.204,0.926c-0.698,0.17-1.41,0.281-2.117,0.412
			c-0.146,0.027-0.277-0.006-0.386-0.13c-0.243-0.274-0.516-0.504-0.867-0.649c-0.15-0.062-0.304-0.205-0.298-0.43
			c0.015-0.51-0.107-0.677-0.681-0.445c-0.526,0.213-1.14,0.264-1.718,0.282c-0.741,0.023-1.485,0.315-2.229,0.017
			c-0.036-0.014-0.085-0.013-0.123,0c-1.109,0.371-2.217-0.173-3.325-0.002c-0.198,0.031-0.395-0.028-0.6,0.073
			c-0.66,0.324-1.266-0.075-1.884-0.209c-0.143-0.031-0.293-0.106-0.454-0.11c-1.284-0.029-2.542,0.184-3.811,0.339
			c-0.574,0.07-1.203,0.208-1.786-0.165c-0.37-0.237-2.088,0.234-2.386,0.589C34.531,8.633,34.2,8.764,33.792,8.8
			c-0.913,0.08-1.777,0.238-2.217,1.235c-0.205,0.464-1.197,0.644-1.892,0.417c-0.31-0.101-0.583-0.113-0.894,0.023
			c-1.172,0.515-2.363,0.415-3.552,0.044c-0.184-0.057-0.265-0.184-0.246-0.372c0.033-0.324,0.188-0.694,0.477-0.706
			c0.808-0.035,1.317-0.703,2.083-0.859c0.505-0.103,1.045-0.204,1.545-0.399c0.126-0.049,0.228-0.056,0.219-0.218
			c-0.01-0.188-0.155-0.172-0.267-0.158c-1.357,0.167-2.735,0.145-4.077,0.448c-0.103,0.023-0.194,0.018-0.292,0.023
			c-1.891,0.115-3.773-0.02-5.647-0.243c-0.536-0.064-1.153,0.005-1.562-0.51c-0.139-0.174-0.347-0.087-0.522-0.09
			c-1.033-0.015-2.084,0.102-3.069-0.311c-0.336-0.141-0.388,0.211-0.617,0.257c-0.151,0.03-0.225,0.218-0.46,0.072
			c-0.405-0.25-0.68-0.668-1.188-0.802c-0.221-0.058-0.101-0.443-0.083-0.671c0.023-0.301,0.335-0.397,0.541-0.386
			c1.013,0.058,1.914-0.458,2.899-0.521c0.154-0.01,0.337-0.055,0.448-0.151c0.712-0.614,1.566-0.605,2.381-0.439
			c1.399,0.286,2.804,0.215,4.209,0.226c1.083,0.008,2.167,0.027,3.247-0.118c0.595-0.08,1.129,0.202,1.673,0.375
			c0.465,0.148,0.902,0.057,1.364,0.01c0.673-0.067,1.358-0.007,2.038-0.02c1.543-0.027,3.109-0.011,4.598-0.406
			c0.928-0.247,1.89-0.354,2.788-0.667c0.597-0.208,1.203-0.057,1.787-0.247c0.298-0.097,0.469-0.173,0.45-0.518
			c-0.019-0.335,0.239-0.524,0.501-0.62c0.852-0.312,1.773-0.26,2.649-0.491c0.736-0.194,1.493-0.35,2.276-0.271
			c0.457,0.046,0.937-0.065,1.326,0.287c0.115,0.104,0.237,0.092,0.394,0.051c0.564-0.149,0.99,0.098,0.996,0.599
			c0.007,0.535-0.41,0.662-0.833,0.671c-0.554,0.011-0.958,0.261-1.268,0.685c-0.045,0.062-0.245,0.012-0.14,0.165
			c0.038,0.054,0.158,0.11,0.207,0.088C46.318,4.171,46.583,4.242,46.91,4.21z"/>
		<path style="fill-rule:evenodd;clip-rule:evenodd;fill:#7B491E;" d="M68.189,30.173c0-0.038,0.005-0.061-0.001-0.079
			c-0.104-0.343-0.576-0.69-0.205-1.024c0.319-0.286,0.83-0.155,1.257-0.124c0.212,0.016,0.419,0.119,0.627,0.187
			c0.272,0.087,0.359,0.208,0.226,0.52c-0.298,0.695,0.096,1.254,0.844,1.268c0.558,0.01,1.124-0.074,1.646,0.243
			c0.268,0.161,0.447,0.385,0.474,0.66c0.024,0.267-0.244,0.339-0.454,0.477c-0.726,0.479-1.431,0.212-2.171,0.112
			c-0.422-0.058-0.879,0.079-1.309,0.177c-0.511,0.114-0.982,0.29-1.068,0.932c-0.041,0.303-0.333,0.427-0.57,0.585
			c-0.572,0.381-1.185,0.712-1.684,1.195c-0.182,0.175-0.386,0.285-0.598,0.144c-0.228-0.152-0.34-0.42-0.277-0.695
			c0.141-0.618,0.226-1.257,0.689-1.759c0.252-0.272,0.118-0.452-0.217-0.459c-0.857-0.02-1.711-0.04-2.568-0.102
			c-0.668-0.049-1.333-0.173-2.009-0.162c-0.332,0.005-0.528,0.078-0.613,0.415c-0.091,0.362-0.305,0.651-0.597,0.887
			c-0.256,0.206-0.406,0.556-0.868,0.401c-0.534-0.179-0.855-0.547-0.983-1.037c-0.216-0.828-0.249-0.714-1.037-0.822
			c-0.896-0.124-1.706,0.252-2.57,0.177c-0.455-0.04-0.882,0.091-1.335,0.236c-0.767,0.245-1.597,0.042-2.19-0.559
			c-0.253-0.256-0.505-0.224-0.697-0.152c-1.09,0.406-2.169,0.426-3.321,0.256c-0.91-0.135-1.877-0.162-2.794,0.131
			c-0.379,0.121-0.807,0.045-1.154,0.312c-0.068,0.053-0.252,0.016-0.35-0.039c-1.299-0.729-2.674-0.47-4.038-0.31
			c-0.354,0.042-0.393,0.367-0.425,0.646c-0.09,0.762-0.406,0.946-1.152,0.751c-0.718-0.188-1.312-0.658-2.033-0.824
			c-0.077-0.019-0.152-0.085-0.224-0.079c-1.43,0.113-2.856-0.271-4.303,0.079c-0.625,0.151-1.371,0.206-2.009-0.205
			c-0.208-0.134-0.597-0.128-0.525-0.473c0.068-0.325,0.144-0.701,0.499-0.888c0.484-0.256,0.984-0.449,1.549-0.375
			c0.205,0.027,0.302-0.051,0.286-0.272c-0.011-0.149-0.088-0.288-0.208-0.21c-0.592,0.384-1.004-0.163-1.502-0.248
			c-0.619-0.105-0.45-0.563-0.332-0.837c0.126-0.291,0.429-0.619,0.779-0.628c0.734-0.019,1.489-0.031,2.16,0.357
			c0.133,0.078,0.222,0.23,0.335,0.345c0.444,0.447,0.911,0.78,1.611,0.769c0.901-0.016,1.765-0.025,2.573-0.534
			c0.483-0.305,1.027-0.413,1.632-0.12c0.772,0.374,1.661,0.202,2.493,0.366c0.98,0.192,1.957,0.412,2.981,0.458
			c0.633,0.028,0.892-0.236,1.183-0.572c0.26-0.3,0.525-0.438,0.916-0.49c0.978-0.133,1.843,0.108,2.77,0.432
			c0.731,0.257,1.637,0.138,2.441,0.021c0.771-0.113,1.552-0.196,2.288-0.632c0.442-0.262,1.131-0.045,1.698-0.294
			c1.129-0.494,1.452-0.399,2.271,0.567c0.287,0.339,0.65,0.347,1.015,0.309c0.742-0.076,1.469-0.215,2.226-0.03
			c1.168,0.283,2.366,0.107,3.551,0.126c1.381,0.021,2.748,0.061,4.088,0.479C67.296,30.277,67.758,30.173,68.189,30.173z"/>
		<path style="fill-rule:evenodd;clip-rule:evenodd;fill:#7B491E;" d="M94.197,11.77c-0.255,0-0.438,0-0.729,0
			c0.321,0.17,0.298,0.424,0.227,0.604c-0.066,0.168-0.27,0.343-0.489,0.284c-0.161-0.043-0.228,0.025-0.312,0.109
			c-0.161,0.163-0.314,0.356-0.564,0.138c-0.245-0.213-0.337-0.507-0.321-0.808c0.008-0.143,0.18-0.261,0.335-0.334
			c0.188-0.088,0.37,0.278,0.546,0.015c0.141-0.209,0.383-0.083,0.526-0.179c-0.029-0.282-0.169-0.502-0.32-0.714
			c-0.123-0.172-0.143-0.306,0.038-0.467c0.187-0.166,0.348-0.213,0.523-0.013c0.143,0.161,0.312,0.213,0.523,0.263
			c0.255,0.06,0.521,0.231,0.476,0.582c-0.021,0.158,0.039,0.344,0.154,0.311c0.163-0.047,0.477-0.062,0.326-0.43
			c-0.147-0.362-0.126-0.725,0.256-0.968c0.066-0.042,0.178-0.117,0.213-0.094c0.45,0.304,0.8,0.08,1.197-0.149
			c0.325-0.187,0.464,0.204,0.565,0.394c0.115,0.215,0.164,0.532-0.06,0.744c-0.245,0.232-0.439-0.035-0.644-0.127
			c-0.085-0.038-0.15-0.12-0.246-0.199c-0.057,0.511-0.135,0.965-0.723,1.023c-0.176,0.018-0.318,0.074-0.236,0.244
			c0.197,0.41,0.133,0.682-0.293,0.886c-0.242,0.116-0.434,0.18-0.663-0.022C94.174,12.57,93.927,12.271,94.197,11.77z"/>
		<path style="fill-rule:evenodd;clip-rule:evenodd;fill:#7B491E;" d="M88.896,8.145c-0.437,0.483-0.681,0.279-0.841-0.147
			c-0.109-0.292-0.284-0.527-0.506-0.743c-0.224-0.218-0.227-0.507-0.029-0.71c0.192-0.199,0.372-0.125,0.585,0.113
			c0.246,0.274,0.674,0.39,0.669,0.862c-0.001,0.141,0.099,0.141,0.203,0.163c0.98,0.208,1.465,0.982,1.965,1.736
			c0.131,0.197,0.003,0.325-0.115,0.482c-0.268,0.36-0.447,0.721-0.226,1.218c0.169,0.379-0.58,1.018-0.979,0.881
			c-0.147-0.051-0.25-0.156-0.229-0.321c0.063-0.475,0.14-0.947,0.206-1.421c0.044-0.311,0.269-0.685-0.33-0.741
			c-0.218-0.021-0.382-0.22-0.375-0.489C88.901,8.764,88.896,8.5,88.896,8.145z"/>
		<path style="fill-rule:evenodd;clip-rule:evenodd;fill:#7B491E;" d="M74.045,13.081c0.031-0.294,0.007-0.547,0.333-0.775
			c0.381-0.265,0.656-0.57,1.102-0.179c0.339,0.298,0.426,1.022,0.185,1.4c-0.221,0.345-0.569,0.265-0.826,0.16
			c-0.376-0.154-0.574-0.271-0.687,0.286c-0.055,0.274-0.261,0.664-0.628,0.739c-0.276,0.057-0.385-0.263-0.566-0.416
			c-0.349-0.293,0.171-0.48,0.097-0.749c-0.159-0.11-0.286-0.046-0.427,0.072c-0.23,0.193-0.463,0.166-0.722,0.008
			c-0.351-0.214-0.2-0.523-0.183-0.795c0.015-0.24,0.082-0.478,0.425-0.459c0.178,0.01,0.336-0.104,0.521-0.13
			c0.48-0.071,0.861-0.031,1.025,0.509C73.744,12.912,73.864,13.021,74.045,13.081z"/>
		<path style="fill-rule:evenodd;clip-rule:evenodd;fill:#7B491E;" d="M81.011,24.686c0.056,0.061,0.104,0.13,0.168,0.179
			c0.236,0.184,0.254,0.476,0.138,0.659c-0.118,0.187-0.439,0.126-0.627,0.045c-0.179-0.076-0.242-0.094-0.442,0.005
			c-0.444,0.22-1.409-0.48-1.244-1.116c0.026-0.102,0.017-0.207,0.157-0.21c0.201-0.003,0.416-0.052,0.561,0.152
			c0.16,0.227,0.422,0.349,0.602,0.528c0.25,0.252,0.353,0.031,0.451-0.06c0.237-0.22-0.058-0.229-0.157-0.314
			c-0.22-0.186-0.385-0.41-0.499-0.676c-0.123-0.284-0.282-0.611,0.042-0.815c0.353-0.222,0.752-0.249,1.071,0.132
			C81.624,23.661,81.534,24.307,81.011,24.686z"/>
		<path style="fill-rule:evenodd;clip-rule:evenodd;fill:#7B491E;" d="M71.459,13.135c0.054,0.384-0.07,0.513-0.492,0.639
			c-0.592,0.176-1.1,0.213-1.664-0.021c-0.155-0.064-0.407-0.098-0.576,0.074c-0.234,0.238-0.443,0.05-0.527-0.109
			c-0.095-0.178-0.212-0.434,0.094-0.619c0.452-0.274,0.835-0.652,1.401-0.123c0.215,0.201,0.538-0.122,0.779-0.288
			c0.223-0.153,0.413-0.424,0.734-0.249C71.483,12.589,71.498,12.859,71.459,13.135z"/>
		<path style="fill-rule:evenodd;clip-rule:evenodd;fill:#7B491E;" d="M72.921,21.524c0.382,0.003,1.227,0.752,1.185,1.004
			c-0.088,0.531-0.649,0.906-1.251,0.696c-0.324-0.112-0.748,0.096-0.96-0.245c-0.226-0.364,0.278-0.526,0.313-0.841
			C72.259,21.693,72.469,21.417,72.921,21.524z"/>
		<path style="fill-rule:evenodd;clip-rule:evenodd;fill:#7B491E;" d="M78.986,22.884c-0.532,0.044-1.153-0.599-1.09-1.131
			c0.01-0.078,0.017-0.176,0.065-0.228c0.602-0.632,1.209-0.021,1.809,0.026c0.271,0.021,0.43,0.332,0.342,0.626
			c-0.146,0.479-0.502,0.707-1.003,0.706C79.068,22.884,79.027,22.884,78.986,22.884z"/>
		<path style="fill-rule:evenodd;clip-rule:evenodd;fill:#7B491E;" d="M88.897,20.937c-0.094-0.449,0.301-0.614,0.549-0.86
			c0.055-0.055,0.224-0.068,0.291-0.024c0.481,0.317,0.498,0.912,0.716,1.374c0.09,0.19-0.238,0.65-0.595,0.793
			c-0.348,0.139-0.652,0.009-0.774-0.335C88.979,21.59,88.862,21.281,88.897,20.937z"/>
		<path style="fill-rule:evenodd;clip-rule:evenodd;fill:#7B491E;" d="M82.744,22.644c-0.415,0.034-0.693-0.198-0.929-0.484
			c-0.156-0.189-0.145-0.435-0.022-0.624c0.104-0.162,0.284-0.196,0.513-0.162c0.33,0.049,0.672,0.081,1.015-0.074
			c0.174-0.079,0.481-0.115,0.591,0.155c0.089,0.223,0.099,0.469-0.118,0.669C83.491,22.404,83.156,22.599,82.744,22.644z"/>
		<path style="fill-rule:evenodd;clip-rule:evenodd;fill:#7B491E;" d="M91.121,10.476c0-0.225,0.029-0.456-0.008-0.674
			c-0.047-0.283,0.099-0.45,0.318-0.487c0.178-0.03,0.375,0.058,0.452,0.294c0.16,0.485,0.311,0.983,0.411,1.472
			c0.062,0.306-0.19,0.775-0.663,0.792c-0.475,0.018-0.529-0.341-0.513-0.721C91.128,10.926,91.121,10.701,91.121,10.476z"/>
		<path style="fill-rule:evenodd;clip-rule:evenodd;fill:#7B491E;" d="M78.134,11.633c-0.624,0.111-0.843-0.391-1.137-0.816
			c-0.21-0.305-0.016-0.522,0.144-0.692c0.207-0.223,0.398-0.088,0.512,0.161c0.096,0.21,0.287,0.105,0.43,0.107
			c0.418,0.005,0.626,0.318,0.772,0.602C79.082,11.432,78.786,11.688,78.134,11.633z"/>
		<path style="fill-rule:evenodd;clip-rule:evenodd;fill:#7B491E;" d="M76.512,11.64c0.429,0.021,1.258,0.742,1.257,1.047
			c0,0.27-0.566,0.911-0.805,0.91c-0.33-0.001-0.817-0.78-0.798-1.298C76.177,12.012,76.271,11.76,76.512,11.64z"/>
		<path style="fill-rule:evenodd;clip-rule:evenodd;fill:#7B491E;" d="M97.426,19.768c-0.022,0.321-0.369,0.392-0.757,0.395
			c-0.379,0.004-0.869-0.656-0.83-1.204c0.023-0.34,0.321-0.413,0.642-0.405C97.006,18.566,97.417,19.004,97.426,19.768z"/>
		<path style="fill-rule:evenodd;clip-rule:evenodd;fill:#7B491E;" d="M86.475,22.637c-0.462-0.006-1.173-0.934-1.033-1.361
			c0.059-0.179,0.188-0.322,0.379-0.361c0.187-0.037,0.332-0.005,0.422,0.225c0.06,0.15,0.221,0.266,0.442,0.27
			c0.356,0.007,0.46,0.286,0.435,0.575C87.082,22.407,86.821,22.641,86.475,22.637z"/>
		<path style="fill-rule:evenodd;clip-rule:evenodd;fill:#7B491E;" d="M99.909,21.178c0.066,0.246-0.082,0.492-0.406,0.532
			c-0.316,0.04-0.522-0.23-0.557-0.498c-0.05-0.382-0.184-0.73-0.273-1.096c-0.051-0.206-0.07-0.472,0.22-0.56
			c0.246-0.075,0.455,0.036,0.569,0.246C99.679,20.202,99.898,20.607,99.909,21.178z"/>
		<path style="fill-rule:evenodd;clip-rule:evenodd;fill:#7B491E;" d="M80.123,9.958c0.042,0.355-0.227,0.524-0.455,0.663
			c-0.219,0.133-0.366-0.102-0.496-0.248c-0.191-0.215-0.356-0.452-0.548-0.667c-0.206-0.232-0.116-0.448,0.015-0.661
			c0.144-0.235,0.322-0.108,0.518-0.059C79.682,9.123,80.071,9.367,80.123,9.958z"/>
		<path style="fill-rule:evenodd;clip-rule:evenodd;fill:#7B491E;" d="M84.637,10.424c0.144,0.128,0.424,0.115,0.422,0.385
			c-0.003,0.339,0.148,0.521,0.486,0.588c0.246,0.048,0.338,0.262,0.309,0.486c-0.035,0.262-0.119,0.536-0.421,0.607
			c-0.236,0.056-0.401-0.024-0.524-0.286c-0.15-0.322-0.404-0.595-0.599-0.897C84.122,11.016,84.34,10.45,84.637,10.424z"/>
		<path style="fill-rule:evenodd;clip-rule:evenodd;fill:#7B491E;" d="M98.894,10.493c0.141,0.299-0.118,0.499-0.266,0.679
			c-0.113,0.137-0.3,0.39-0.529,0.303c-0.203-0.076-0.351-0.276-0.308-0.546c0.012-0.074,0.004-0.199-0.041-0.227
			c-0.334-0.206-0.295-0.505-0.08-0.699c0.203-0.182,0.456-0.488,0.788-0.315C98.748,9.838,99,10.077,98.894,10.493z"/>
		<path style="fill-rule:evenodd;clip-rule:evenodd;fill:#7B491E;" d="M97.44,12.328c-0.085,0.359-0.18,0.807-0.612,0.757
			c-0.324-0.037-0.887,0.012-0.885-0.604c0.001-0.395,0.541-1.001,0.898-0.957C97.283,11.579,97.365,11.958,97.44,12.328z"/>
		<path style="fill-rule:evenodd;clip-rule:evenodd;fill:#7B491E;" d="M82.343,12.705c0.043,0.223-0.063,0.293-0.304,0.295
			c-0.936,0.008-1.318-0.156-1.302-0.588c0.009-0.253,0.606-0.881,0.849-0.893C81.879,11.504,82.347,12.224,82.343,12.705z"/>
		<path style="fill-rule:evenodd;clip-rule:evenodd;fill:#7B491E;" d="M83.489,20.906c-0.289,0.125-0.484-0.152-0.712-0.291
			c-0.107-0.066-0.244-0.266-0.175-0.421c0.26-0.574,0.818-0.466,1.297-0.521c0.322-0.038,0.462,0.138,0.419,0.442
			C84.255,20.567,84.102,20.948,83.489,20.906z"/>
		<path style="fill-rule:evenodd;clip-rule:evenodd;fill:#7B491E;" d="M79.363,13.119c-0.323,0.059-0.586-0.04-0.602-0.472
			c-0.013-0.327,0.63-0.919,1.022-0.871c0.333,0.041,0.578,0.265,0.583,0.654C80.373,12.944,80.129,13.122,79.363,13.119z"/>
		<path style="fill-rule:evenodd;clip-rule:evenodd;fill:#7B491E;" d="M92.04,22.142c-0.271,0.019-0.546-0.161-0.4-0.362
			c0.281-0.391-0.536-1.122,0.408-1.24c0.221-0.027,0.794,0.6,0.803,0.844C92.862,21.695,92.378,22.147,92.04,22.142z"/>
		<path style="fill-rule:evenodd;clip-rule:evenodd;fill:#7B491E;" d="M97.05,20.54c0.394-0.006,0.789-0.196,0.866,0.332
			c0.028,0.197-0.546,0.878-0.738,0.894c-0.239,0.019-0.875-0.537-0.856-0.802C96.36,20.421,96.799,20.56,97.05,20.54z"/>
		<path style="fill-rule:evenodd;clip-rule:evenodd;fill:#7B491E;" d="M76.424,22.885c-0.438-0.011-1.058-0.659-0.979-1.022
			c0.024-0.113,0.056-0.299,0.271-0.344c0.455-0.096,1.193,0.497,1.192,0.966C76.909,22.875,76.671,22.903,76.424,22.885z"/>
		<path style="fill-rule:evenodd;clip-rule:evenodd;fill:#7B491E;" d="M88.895,11.108c-0.048,0.215,0.146,0.583-0.294,0.644
			c-0.303,0.042-0.673-0.534-0.701-0.981c-0.023-0.371,0.077-0.725,0.457-0.69C88.924,10.131,88.897,10.64,88.895,11.108z"/>
		<path style="fill-rule:evenodd;clip-rule:evenodd;fill:#7B491E;" d="M96.517,23.128c-0.58,0.068-0.685-0.434-0.938-0.746
			c-0.027-0.033-0.011-0.126,0.016-0.174c0.208-0.371,0.575-0.269,0.83-0.165c0.278,0.113,0.774,0.122,0.726,0.567
			C97.12,22.881,96.93,23.23,96.517,23.128z"/>
		<path style="fill-rule:evenodd;clip-rule:evenodd;fill:#7B491E;" d="M94.394,20.544c0.294,0.112,0.729,0.262,0.739,0.692
			c0.006,0.276-0.259,0.603-0.621,0.649c-0.283,0.036-0.681-0.582-0.677-0.959C93.839,20.587,94.027,20.513,94.394,20.544z"/>
		<path style="fill-rule:evenodd;clip-rule:evenodd;fill:#7B491E;" d="M72.708,14.286c-0.192,0.252-0.26,0.572-0.188,0.926
			c0.008,0.044-0.1,0.146-0.168,0.164c-0.363,0.092-0.549-0.205-0.695-0.423c-0.172-0.256-0.232-0.6,0.115-0.816
			c0.284-0.177,0.599-0.231,0.916-0.078C72.714,14.072,72.7,14.174,72.708,14.286z"/>
		<path style="fill-rule:evenodd;clip-rule:evenodd;fill:#7B491E;" d="M83.54,12.503c-0.431-0.011-1.094-0.783-1.075-1.118
			c0.021-0.392,0.421-0.323,0.501-0.263c0.313,0.235,0.623,0.515,0.825,0.845C83.936,12.206,83.837,12.5,83.54,12.503z"/>
		<path style="fill-rule:evenodd;clip-rule:evenodd;fill:#7B491E;" d="M70.802,14.589c0.296-0.038,0.505,0.281,0.503,0.6
			c-0.002,0.283-0.262,0.527-0.627,0.527c-0.372,0-0.565-0.168-0.572-0.547C70.099,14.791,70.292,14.613,70.802,14.589z"/>
		<path style="fill-rule:evenodd;clip-rule:evenodd;fill:#7B491E;" d="M87.327,12.131c-0.371-0.013-0.798-0.55-0.777-0.926
			c0.016-0.276,0.204-0.319,0.432-0.312c0.231,0.007,0.798,0.609,0.802,0.857C87.788,12.108,87.489,12.06,87.327,12.131z"/>
		<path style="fill-rule:evenodd;clip-rule:evenodd;fill:#7B491E;" d="M67.559,13.966c-0.291-0.298-0.714-0.569-0.372-1.065
			c0.228-0.332,0.505-0.135,0.621,0.104C67.977,13.354,67.971,13.725,67.559,13.966z"/>
		<path style="fill-rule:evenodd;clip-rule:evenodd;fill:none;" d="M13.391,22.51c-0.054,0.05-0.086,0.104-0.128,0.113
			c-0.097,0.019-0.146-0.049-0.125-0.136c0.008-0.037,0.079-0.082,0.12-0.082C13.296,22.406,13.334,22.462,13.391,22.51z"/>
	</g>
</g>
</svg>
