<?xml version="1.0" encoding="iso-8859-1"?>
<!-- Generator: Adobe Illustrator 16.0.0, SVG Export Plug-In . SVG Version: 6.00 Build 0)  -->
<!DOCTYPE svg PUBLIC "-//W3C//DTD SVG 1.1//EN" "http://www.w3.org/Graphics/SVG/1.1/DTD/svg11.dtd">
<svg version="1.1" id="Layer_1" xmlns="http://www.w3.org/2000/svg" xmlns:xlink="http://www.w3.org/1999/xlink" x="0px" y="0px"
	 width="401.516px" height="215.226px" viewBox="0 0 401.516 215.226" style="enable-background:new 0 0 401.516 215.226;"
	 xml:space="preserve">
<g>
	<g>
		<path style="fill:none;" d="M200.758,214.686c-66.086,0-132.173-0.007-198.259,0.04c-1.632,0.002-2-0.367-2-1.999
			c0.047-70.076,0.047-140.152,0-210.228c-0.001-1.632,0.368-2,2-1.999c132.172,0.043,264.345,0.043,396.518,0
			c1.632-0.001,2,0.367,1.999,1.999c-0.048,70.076-0.048,140.152,0,210.228c0.001,1.632-0.367,2.001-1.999,1.999
			C332.931,214.679,266.844,214.686,200.758,214.686z M198.607,138.488c-0.94,1.943-0.234,3.433,1.339,4.627
			c0.424,0.321,0.559,1.229,1.506,0.709c0.732-0.401,0.94-1.003,1.033-1.685c0.284-2.104-1.396-3.626-3.928-3.602
			c0.247-0.815,0.429-1.568,1.051-2.313c0.636-0.762,0.722-2.159-0.779-2.518c-0.875-0.209-1.595-0.353-2.206-1.158
			c-0.487-0.643-1.665-0.424-2.051-0.023c-0.569,0.592-0.912,1.559-0.752,2.501c0.091,0.539,0.534,1.038,1.042,0.84
			c1.307-0.513,1.066,0.315,1.12,1.064C196.114,138.752,196.861,139.175,198.607,138.488z M252.098,140.714
			c-0.159-1.007,0.572-2.27-0.642-2.961c-0.84-0.479-1.678,0.095-2.361,0.559c-0.938,0.637-1.233,1.496-0.565,2.59
			c0.357,0.585,0.666,1.233,0.553,2.003c-0.156,1.067,0.345,2.08,1.36,2.02c1.167-0.068,0.629-1.341,0.829-2.108
			c0.194-0.741-0.771-2.002,0.876-2.151c-0.197,1.442,0.673,2.775,0.427,4.233c-0.082,0.487,0.318,0.826,0.71,0.968
			c0.52,0.189,1.007-0.009,1.305-0.504c0.979-1.632,1.901-3.412,1.775-5.269c-0.087-1.282,0.426-1.84,1.21-2.36
			c2.665-1.768,2.921-2.795,1.531-5.626c-0.496-1.012-1.226-0.421-1.837-0.53c-0.648-0.116-1.405,0.408-1.166,0.904
			c0.949,1.962-0.367,3.375-0.93,4.98c-0.127,0.362,0.158,1.074-0.46,1.003C252.957,138.263,252.812,139.79,252.098,140.714z
			 M205.974,90.189c-0.361,0.005-0.733-0.042-1.083,0.025c-2.516,0.479-2.477,0.493-1.991-2.175
			c0.241-1.322,0.386-2.671,0.448-4.014c0.06-1.278-0.92-1.225-1.821-1.229c-0.763-0.003-1.907,0.26-1.545,0.95
			c1.116,2.126-0.998,3.769-0.543,5.719c0.168,0.72-0.072,1.117-0.959,1.255c-1.34,0.209-2.167,1.33-1.572,2.486
			c1.061,2.062,1.414,4.046,0.844,6.289c-0.2,0.784,0.567,1.327,1.242,1.537c0.735,0.229,1.037-0.348,1.401-0.975
			c1.027-1.766,1.905-3.725,3.581-4.955c1.782-1.309,2.48-2.847,1.951-4.966c0.745,0.44,1.509,0.885,2.313,0.168
			c0.313-0.279,0.698-0.455,0.5-1.156c-0.289-1.02-0.573-1.818-1.788-1.533C205.442,87.972,205.512,89.03,205.974,90.189z
			 M186.028,88.405c-1.707,2.536,0.411,3.468,1.988,4.636c-2.384,0.514-3.383,2.021-3.355,5.065c0.006,0.69-0.278,1.752,0.536,1.881
			c0.715,0.114,1.262-0.581,1.739-1.461c1.01-1.868,1.438-4.463,4.337-4.717c1.01-0.088,0.934-0.972,0.681-1.646
			c-1.375-3.651-2.311-4.212-5.976-3.71c-0.646-2.781,0.034-5.084,2.06-7.195c0.858-0.893,2.043-1.666,2.418-3.037
			c0.054-0.197,0.821-0.777,1.097-0.245c0.326,0.63,1.572,1.313,0.792,1.972c-2.489,2.101-0.312,3.174,0.766,4.651
			c0.549-0.602,1.476-1.179,1.42-1.637c-0.204-1.686,0.097-3.324,0.112-4.981c0.018-1.917-0.969-2.53-2.73-1.723
			c-0.467,0.214-0.585,0.426-0.826-0.212c-0.231-0.614-1.141-1.074-1.488-0.868c-0.668,0.397-1.544,0.904-1.458,1.957
			c0.065,0.792-0.063,1.204-1.03,1.449c-1.078,0.273-1.818,1.315-1.968,2.434c-0.194,1.444-1.373,1.285-2.206,1.468
			c-0.882,0.194-1.2-0.562-1.365-1.392c-0.174-0.88-0.863-1.569-0.895-2.571c-0.022-0.717-0.658-1.2-1.441-1.38
			c-1.002-0.231-1.181,0.574-1.494,1.154c-0.776,1.436-0.733,2.853,0.284,4.173c0.736,0.955,1.77,1.782,2.192,2.855
			c0.646,1.641,1.337,1.832,2.542,0.567C183.172,88.365,184.029,88.996,186.028,88.405z M173.233,98.56
			c0.287-0.708,1.455-0.608,1.422-1.664c-0.057-1.803,0.083-3.616-0.05-5.41c-0.081-1.101-1.125-1.501-2.063-1.691
			c-1.113-0.226-1.295,0.795-1.346,1.477c-0.197,2.65-0.033,5.244,2.087,7.247c-0.639,1.731-1.011,3.437-0.372,5.307
			c0.431,1.261,1.569,1.846,2.219,2.9c1.889,3.066,4.515,5.439,7.649,7.33c-1.503,0.044-2.881,0.578-2.396,2.227
			c0.439,1.492-2.034,4.399,1.867,4.388c0.837-0.003,0.562,0.653,0.732,1.058c0.281,0.664,1.042,1.011,1.499,0.929
			c0.502-0.091,1.069-0.661,1.059-1.459c-0.008-0.629-0.257-1.352,0.251-1.881c2.203-2.293,0.01-4.914,0.561-7.336
			c0.125-0.552-0.74-0.704-0.924-0.659c-2.934,0.729-2.694-1.513-2.913-3.161c-0.113-0.859-0.435-1.301-1.205-1.528
			c-1.325-0.392-2.631-0.857-3.973-1.177c-1.281-0.304-2.153-1.833-1.618-3.034C177.048,99.436,176.357,98.366,173.233,98.56z
			 M67.606,61.881c2.795-0.009,5.409,0.612,8.056,1.602c2.046,0.765,3.777,2.185,5.932,2.616c1.266,0.253,1.81,0.862,2.335,2.172
			c0.75,1.868,0.407,3.673,0.629,5.493c0.376,3.071,1.115,3.764,4.063,2.755c1.564-0.535,2.67-1.308,4.073,0.093
			c0.26,0.259,1.063,0.246,1.462,0.049c2.04-1.009,2.8,0.131,3.49,1.793c0.493,1.187,1.744,2.102,2.638,0.859
			c1.214-1.689,2.058-3.835,1.643-5.997c-0.551-2.875-1.608-5.631-2.128-8.542c-0.722-4.037-2.766-7.737-2.758-12.025
			c0.003-1.994-0.852-4.169-2.11-5.843c-3.855-5.129-9.279-7.266-15.519-7.62c-2.864-0.163-5.731,0.189-8.603-0.395
			c-2.14-0.435-3.128-1.186-3.231-3.362c-0.051-1.085,0.236-2.248-0.059-3.249c-0.649-2.199-0.167-3.966,1.33-5.619
			c0.458-0.507,0.684-1.176,0.144-1.94c-1.095-1.55-0.179-2.737,0.592-4.187c1.109-2.082,2.629-3.99,1.582-6.941
			c-2.405-6.782-9.679-6.836-13.984-4.069c-3.62,2.327-5.536,6.306-7.363,10.111c-0.383,0.798-0.739,1.336-1.455,1.6
			c-0.956,0.353-1.202,0.939-1.298,1.934c-0.167,1.73,0.826,2.418,2.121,3.048c2.646,1.285,4.446,3.083,4.05,6.375
			c-0.181,1.501-0.008,3.043-0.045,4.565c-0.011,0.44,0.272,1.023-0.461,1.257c-1.786,0.569-3.466,1.507-5.353,1.72
			c-2.319,0.263-4.314-0.343-6.404-1.618c-2.985-1.822-3.185-1.632-1.355-4.614c0.695-1.133,1.028-2.303,0.054-3.378
			c-0.963-1.062-2.238-1.101-3.49-0.542c-0.949,0.424-1.844,0.971-2.864,1.517c-0.048-0.359-0.22-0.744-0.101-0.889
			c0.902-1.091,1.241-2.098-0.196-3.021c-0.992-0.638-1.824-1.548-3.209-1.39c-1.264,0.144-2.152,0.895-2.222,1.957
			c-0.178,2.712-1.649,4.904-2.497,7.343c-0.82,2.363-2.713,4.37-2.361,7.144c0.281,2.215-0.122,4.404-0.322,6.613
			c-0.216,2.386-1.119,5.168,1.458,7.004c1.311,0.934,2.703,1.838,4.189,2.419c1.407,0.55,3.245,1.299,4.429,0.818
			c1.89-0.77,3.805-2.204,4.951-3.877c1.188-1.735,2.577-2.267,4.36-2.396c2.39-0.174,3.539,0.957,3.571,3.356
			c0.029,2.081-0.58,4.1-0.475,6.209c0.109,2.198,1.037,3.648,3.082,4.344c1.104,0.375,1.979,1.044,1.94,2.185
			c-0.091,2.612,1.549,4.816,1.56,7.384c0.004,0.886,0.338,1.714,1.296,1.926c0.85,0.188,1.297-0.648,1.56-1.17
			c0.98-1.945,2.356-3.782,2.068-6.207c0.625,1.029,1.354,1.931,1.162,3.163c-0.1,0.643,0.15,1.146,0.766,1.394
			c0.482,0.193,5.286-1.236,5.5-1.69c1.85-3.914,4.15-7.693,3.822-12.285L67.606,61.881z M78.309,113.178
			c-0.716,0.079-1.393,0.219-2.106-0.151c-0.764-0.395-1.364,0.21-1.823,0.672c-0.491,0.495-0.355,1.152-0.031,1.791
			c1.289,2.539,0.627,4.705-1.864,6.01c-0.402,0.21-0.651,0.552-0.989,0.758c-1.307,0.794-0.61,2.433-1.625,3.438
			c-1.256,1.244-1.275,2.796-0.461,4.491c0.466,0.969,1.436,1.854,1.191,3.077c-0.318,1.594,0.346,3,1.092,4.193
			c0.604,0.967,0.715,1.848,0.651,2.831c-0.199,3.084-2.289,5.806-1.753,9.046c0.079,0.475-0.528,0.398-0.725,0.636
			c-1.053,1.267-2.434,0.725-3.715,0.733c-2.341,0.015-4.735,0.321-6.726-1.403c-0.608-0.527-1.303-0.518-1.967-0.013
			c-0.311,0.236-0.626,0.84-1.025,0.361c-0.22-0.265-0.565-0.653-0.317-1.289c0.325-0.829,0.145-1.805,0.614-2.672
			c1.341-2.477,1.587-5.213,1.179-7.896c-0.242-1.589-1.02-3.118-0.772-4.786c0.292-1.966-1.037-3.247-2.112-4.415
			c-1.464-1.588-4.409-1.282-5.496,0.374c-1.196,1.822-2.142,3.808-3.317,5.646c-1.464,2.29-2.48,4.889-4.511,6.9
			c-1.097-2.854-1.063-5.761-1.532-8.576c-0.286-1.721-0.457-3.671-2.52-3.922c-2.585-0.313-5.425,0.368-5.965,3.066
			c-0.412,2.06-1.244,4.059-1.146,6.255c0.119,2.679,0.958,5.373,0.03,8.056c-0.576,1.664-1.005,3.2-0.512,5.112
			c0.751,2.908,1.792,6.136-1.52,8.435c-0.352,0.245-0.426,0.708-0.619,1.072c-1.09,2.064-2.498,4.211-4.92,4.394
			c-3.512,0.265-6.664,1.521-9.931,2.533c-1.172,0.362-1.822,1.12-2.592,1.994c-0.967,1.096-0.287,2.586-0.901,3.364
			c-1.278,1.619-0.4,1.753,0.87,2.021c0.072,0.015,0.129,0.735,0.043,0.771c-1.7,0.714-1.691,3.486-4.083,3.365
			c-0.681-0.034-1.058,0.421-1.063,1.102c-0.003,0.394-0.168,0.894,0.455,1.038c1.573,0.365,3.056,0.884,4.709-0.07
			c2.309-1.333,3.361-3.621,4.617-5.694c0.954-1.575,1.83-1.856,3.459-1.221c1.643,0.64,1.066,1.656,0.841,2.769
			c-0.17,0.836-0.369,1.798-0.122,2.564c1.136,3.517,2.518,6.97,4.782,9.918c1.91,2.486,4.933,2.493,7.693,2.553
			c1.501,0.032,2.862-1.01,2.687-2.843c-0.274-2.868,1.991-4.021,3.599-5.612c0.299-0.296,0.836-0.371,1.24,0.269
			c1.252,1.982,1.718,4.643,1.334,6.377c-0.805,3.639-0.742,6.668,1.699,9.505c0.443,0.515,0.628,1.006,0.192,1.531
			c-1.03,1.242-0.409,2.172,0.668,2.744c0.981,0.522,2.069,0.719,2.95-0.513c0.369-0.517,1.01-1.458,1.858-0.886
			c1.761,1.187,2.186-0.182,3.231-1.162c1.489-1.396,1.475-2.92,1.575-4.658c0.132-2.286-0.965-4.251-1.322-6.393
			c-0.343-2.062-1.34-3.978-1.33-6.112c0.007-1.601-0.063-3.204,0.024-4.799c0.056-1.021-0.349-1.843-1.186-2.081
			c-1.487-0.423-1.564-1.392-1.458-2.604c0.051-0.574,0.244-1.361-0.043-1.706c-2.071-2.489-1.027-4.538,0.643-6.663
			c0.643-0.818,0.622-2.195,0.055-2.844c-0.621-0.71-1.722,0.118-2.152,0.735c-1.387,1.99-3.538,1.018-5.379,1.849
			c0.205-0.606,0.219-1.041,0.443-1.248c3.294-3.053,3.897-7.104,3.232-11.085c-0.434-2.598,0.172-4.257,1.869-5.842
			c0.607-0.566,1.24-1.894,2.215-0.803c0.702,0.786,0.984,1.913-0.306,2.88c-1.276,0.957-1.211,2.235-0.168,3.5
			c0.713,0.864,2.078,1.024,2.53,1.838c1.089,1.959,2.321,1.395,3.951,0.925c3.037-0.873,6.132-1.324,9.37-0.854
			c2.258,0.327,4.169,1.667,6.43,1.809c3.485,0.218,6.82,1.386,10.497,0.59c2.443-0.529,5.18,0.182,7.817-0.092
			c1.682-0.175,3.493-0.453,5.137,0.192c4.94,1.936,7.899,9.14,5.564,13.774c-0.511,1.015-0.548,1.585-0.117,2.592
			c0.551,1.286,0.556,2.688-1.209,3.317c-0.52,0.186-0.979,0.539-1.468,0.817c-0.22-0.463-0.449-0.978-0.705-1.478
			c-0.926-1.809-2.584-2.196-4.31-1.808c-1.437,0.323-1.646,1.732-1.654,3.032c-0.003,0.596-0.209,1.091-0.412,1.636
			c-0.904,2.436-0.753,5.016-0.206,7.423c0.624,2.746,0.959,5.524,1.438,8.283c0.24,1.383,0.303,2.749,0.688,4.156
			c0.537,1.96,2.073,3.478,2.137,5.649c0.021,0.735,0.938,1.984,1.965,1.87c1.137-0.126,1.575-1.309,1.767-2.397
			c0.195-1.11-0.091-2.211,0.344-3.379c0.757-2.027,1.764-4.065,1.403-6.359c-0.161-1.024,0.392-1.673,1.181-2.089
			c1.891-0.995,3.498-2.431,5.815-2.745c2.167-0.294,4.457-5.78,3.821-9.105c-0.72-3.767-0.333-7.569-0.723-11.347
			c-0.262-2.534,0.399-5.127,0.397-7.725c-0.003-3.415-0.783-6.358-3.57-8.6c-0.815-0.656-1.763-1.315-2.131-2.393
			c-0.512-1.496-1.778-2.074-3.035-2.761c-2.729-1.49-5.479-2.523-8.66-1.536c-0.584,0.181-1.229,0.326-1.84,0.424
			c-1.482,0.238-2.551-0.189-2.584-2c-0.031-1.704,0.191-3.407-0.364-5.116c-0.331-1.018,0.363-1.908,1.399-2.296
			c2.137-0.802,3.839-2.2,5.451-3.763c1.89-1.833,3.607-4.022,3.855-6.516c0.47-4.729,0.297-9.516-2.299-13.832
			c-1.903-3.165-4.604-4.788-8.303-5.237c-2.478-0.301-4.64,0.248-6.963,0.864C77.318,110.516,77.167,110.434,78.309,113.178z
			 M358.667,113.852c0.15,3.288,1.009,4.86,2.866,5.065c1.235,0.136,2.336,0.42,3.478,0.887c1.213,0.496,2.161,0.173,2.026-1.479
			c-0.07-0.864,0.165-1.787-0.053-2.6c-0.464-1.728,0.847-3.086,0.839-4.597c-0.012-2.469,1.716-2.343,3.241-2.711
			c0.143-0.033,0.188-0.376,0.342-0.468c2.511-1.496,4.697-3.728,8.006-3.426c0.478,0.044,1.048-0.356,1.496-0.665
			c1.512-1.041,2.068-2.697,2.655-4.319c0.312-0.863,0.773-1.711,1.799-1.436c0.855,0.229,1.354,0.971,1.265,2.003
			c-0.075,0.864-0.07,1.743-0.001,2.608c0.094,1.188,0.55,2.504,1.754,2.589c0.984,0.069,1.499-1.222,1.666-2.204
			c0.099-0.573,0.39-1.08,0.444-1.617c0.228-2.199,0.817-4.405-1.478-6.147c-1.386-1.052-2.299-2.664-2.412-4.562
			c-0.149-2.496-1.768-3.646-3.955-4.329c-2.621-0.819-5.242-1.63-7.989-1.896c-2.99-0.29-5.228-2.192-7.782-3.447
			c-1.786-0.877-1.991-1.794-1.196-3.383c0.242-0.484,0.358-1.07,0.523-1.597c1.654-5.3,3.271-10.621,6.033-15.496
			c0.976-1.723,1.479-3.68,1.693-5.587c0.408-3.632-3.373-8.896-6.98-9.571c-1.69-0.316-2.768-1.656-4.422-1.852
			c-2.479-0.292-4.67,1.262-7.139,1.063c-0.199-0.016-0.815,0.157-0.968,0.676c-0.569,1.946-1.516,3.854-1.676,5.83
			c-0.242,2.979-2.194,4.322-4.398,5.439c-1.868,0.948-2.328,1.713-1.265,3.382c0.638,1.001,0.607,1.92,0.519,3.134
			c-0.172,2.353-1.396,4.489-1.072,6.929c0.295,2.226,0.511,4.646-2.843,4.888c-0.311,0.022-0.585,0.379-0.901,0.527
			c-1.77,0.826-3.326,2.021-5.444,2.171c-3.573,0.254-6.982-0.735-10.477-1.031c-0.466-0.04-0.867-0.469-0.622-1.123
			c0.605-1.612,0.349-3.203-0.119-4.804c-0.59-2.02-0.927-3.98-0.365-6.172c0.41-1.603-0.259-3.299-2.234-3.925
			c-1.567-0.497-3.84-0.258-4.157,0.727c-0.762,2.358-2.645,2.941-4.297,4.039c-1.235,0.82-1.932,2.244-2.332,3.481
			c-0.865,2.67-0.954,5.663-4.335,6.676c-0.361,0.108-0.676,0.56-0.896,0.922c-1.411,2.336-2.992,4.552-4.084,7.104
			c-0.772,1.804,1.503,5.978,3.403,5.704c2.932-0.422,6.146,0.053,8.659-2.131c1.622-1.41,3.137-0.85,4.565,0.299
			c0.609,0.49,1.057,1.281,1.992,1.027c1.334-0.362,1.854,0.882,2.778,1.321c1.794,0.852,0.109,1.724,0.017,2.593
			c-0.054,0.502,0.033,1.021-0.04,1.519c-0.262,1.796-0.562,3.692-1.133,5.301c-0.837,2.361-1.714,4.736-2.248,7.157
			c-0.486,2.203-0.121,4.451,1.336,6.447c1.405,1.926,2.636,0.14,3.942,0.051c0.217-0.015,0.438-0.03,0.651,0.002
			c1.458,0.223,2.872-0.16,4.2-0.588c1.227-0.394,1.983-0.456,2.564,0.881c0.43,0.986,1.433,1.261,2.395,0.964
			c0.96-0.296,1.615-0.627,2.578,0.333c0.651,0.65,2.253,0.234,2.479-0.858c0.302-1.448,1.339-2.683,1.107-4.28
			c-0.308-2.12,0.424-4.06,1.283-5.948c0.299-0.657,0.528-1.305,0.446-2.05c-0.23-2.11,0.412-2.556,2.1-1.103
			c0.635,0.547,1.474,0.398,2.253,0.476c2.097,0.208,3.616,1.833,2.975,3.483c-1.534,3.94-0.488,7.986-0.784,11.969
			c-0.113,1.51,0.942,1.832,2.185,1.678C355.444,117.505,357.421,116.638,358.667,113.852z M71.275,187.796
			c1.515,2.298,1.017,5.18,1.081,8.002c0.011,0.516,0.343,0.891,0.674,1.03c1.975,0.838,2.272,2.643,2.893,4.395
			c0.475,1.342,1.948,2.352,3.225,2.451c1.295,0.1,2.15-1.386,2.297-2.679c0.19-1.672,0.354-3.274,0.827-4.945
			c1.211-4.286,0.129-8.521-1.381-12.58c-0.955-2.564-1.957-5.09-1.994-7.866c-0.02-1.486-1-2.256-2.187-2.389
			c-0.992-0.111-2.006,0.7-2.463,1.58C72.201,178.734,72.474,183.21,71.275,187.796z M64.895,200.986
			c0.435-6.838-1.245-12.762-0.959-18.838c0.077-1.622,0.179-3.331,0.156-5.001c-0.035-2.378-1.543-3.35-3.494-2.034
			c-2.314,1.561-3.84,3.872-3.849,6.678c-0.011,3.768-0.148,7.508,0.624,11.329c0.584,2.893-0.5,6.062,1.005,9.051
			c1.082,2.148,1.314,4.694,2.786,6.705c0.422,0.576,0.885,1.12,1.766,1.036c0.962-0.093,0.882-0.853,1.236-1.45
			C65.75,205.791,64.501,202.919,64.895,200.986z M160.833,63.613c1.17,1.364,2.16,2.27,2.793,3.378
			c0.255,0.448,0.8,1.633-0.739,1.952c-1.402,0.29-0.882,1.659-0.801,2.567c0.081,0.904,3.9,3.966,4.826,3.854
			c1.453-0.174,2.208,0.318,2.52,1.735c0.116,0.526,0.44,1.057,0.805,1.465c0.461,0.515,0.801,1.354,1.853,0.77
			c0.912-0.507,1.024-1.242,0.689-1.977c-0.419-0.919-0.372-1.791-0.346-2.752c0.075-2.855-0.698-3.343-3.504-2.434
			c-1.455,0.472-2.141-0.419-2.059-1.604c0.268-3.846-0.321-7.478-2.076-10.925c-0.82-1.612-2.063-2.356-3.856-2.068
			c-0.725,0.117-3.263,3.424-3.268,4.181c-0.007,1.159-0.027,2.318,0.006,3.477c0.029,1.012,0.408,2.069-1.307,2.157
			c-1.08,0.055-1.319,0.992-1.353,2.065c-0.042,1.358,1.08,1.775,1.695,2.602c0.541,0.726,1.281,0.994,2.08,0.615
			c0.929-0.441,0.82-1.491,0.539-2.107c-0.441-0.969-0.511-1.835,0.108-2.588C160.371,66.841,160.807,65.569,160.833,63.613z
			 M270.382,129.207c0.336-1.771-0.559-2.626-2.34-2.922c-0.388-0.064-0.855,0.956-1.106-0.063
			c-0.121-0.494,0.171-0.853,0.564-1.068c1.99-1.096,1.476-2.417,0.247-3.653c-0.505-0.508-0.586-0.837-0.351-1.48
			c1.111-3.04-0.091-5.312-3.184-5.845c-1.104-0.19-0.744-0.874-0.761-1.43c-0.02-0.686-0.025-1.432-0.79-1.589
			c-0.737-0.15-1.55-0.258-2.195,0.496c-0.817,0.955-1.306,4.185-0.545,5.215c0.458,0.621,0.783,1.278,1.678,1.742
			c1.421,0.737,4.413,0.672,3.154,3.799c-0.07,0.175-0.05,0.531,0.065,0.616c2.081,1.535,0.038,1.814-0.75,2.004
			c-2.203,0.53-2.245,1.783-1.496,3.483c0.198,0.448,0.506,0.847,0.438,1.404c-0.117,0.963,0.693,1.267,1.339,1.388
			c0.664,0.125,1.545-0.235,1.605-0.938c0.074-0.866,0.882-1.389,1.105-1.229c0.718,0.513,0.054,1.016-0.313,1.528
			c-0.455,0.638-0.509,1.395,0.172,1.92c0.379,0.291,0.888,0.876,1.424,0.334C269.343,131.91,270.673,131.052,270.382,129.207z
			 M140.151,98.155c-0.369,2.062,0.733,3.251,2.292,4.248c0.832,0.532,1.674,1.281,2.487,0.188c0.726-0.976,0.944-2.085-0.269-2.991
			c-0.992-0.741-0.858-1.685-0.792-2.836c0.146-2.484,1.266-4.794,1.159-7.283c-0.075-1.748,0.039-3.375,1.324-4.741
			c0.806-0.856,0.497-1.457-0.512-1.963c-1.652-0.829-4.591,1.19-4.675,3.503C141.021,90.265,141.433,94.282,140.151,98.155z
			 M203.24,40.973c-1.136-0.15-2.359,0.29-2.263,1.5c0.074,0.929,1.104,1.727,2.412,1.623c0.676-0.054,1.698-0.411,2.02,0.231
			c0.688,1.378,1.959,1.722,3.124,2.375c1.827,1.026,2.371,2.663,1.145,3.368c-1.864,1.071-1.834,2.106-0.524,3.477
			c0.277,0.292,0.201,0.491-0.055,0.666c-1.643,1.126-0.674,2.321-0.132,3.532c0.194,0.434,0.231,1.091,0.87,0.894
			c0.563-0.174,1.386-0.348,1.336-1.176c-0.062-1.043,0.463-2.197-0.379-3.112c-0.546-0.593-0.226-0.968,0.28-1.085
			c1.992-0.46,1.987-1.903,1.887-3.48c-0.049-0.765-0.013-1.463,0.525-2.219c0.752-1.058,0.557-2.185-1.079-2.162
			c-1.213,0.017-1.94-1.236-3.166-1.009c-0.547-3.089-4.748-0.591-5.415-3.529C203.793,40.723,203.477,40.637,203.24,40.973z
			 M238.189,131.642c0.161-1.841-0.464-2.914-1.711-3.857c-0.717-0.542-1.137-0.297-1.639-0.024
			c-0.688,0.374-0.854,1.407-0.493,1.68c1.882,1.414,2.736,4.297,4.821,4.822c2.298,0.58,3.116,1.812,3.908,3.594
			c0.215,0.481,0.643,1.122,1.27,1.027c0.812-0.123,1.122-1.021,1.155-1.615c0.09-1.611,0.81-3.992-0.642-4.633
			C242.962,131.799,240.997,129.376,238.189,131.642z M246.594,95.722c0.908-1.915,0.604-4.04,1.125-6.021
			c0.346-1.315-0.731-2.432-1.818-2.387c-0.893,0.036-2.376,0.508-2.086,2.3c0.35,2.154,0.385,4.372,2.128,6.015
			c-1.619,1.823-1.418,4.273,0.515,5.642c0.637,0.451,1.57,0.528,1.896-0.203c0.628-1.406,0.349-2.981,0.184-4.459
			C248.419,95.556,247.236,96.031,246.594,95.722z M202.548,71.223c-0.599-0.878-0.023-1.533,0.519-2.329
			c0.68-0.998,0.453-2.047-0.546-2.819c-0.829-0.641-1.953,0.009-2.002,0.407c-0.224,1.818,0.426,3.882-1.9,4.871
			c0.645,2.17-0.985,4.588,0.772,6.69c0.283,0.339,0.229,0.864,0.9,0.854c0.659-0.009,1.338-0.256,1.279-0.857
			C201.34,75.716,202.484,73.609,202.548,71.223z M155.964,89.444c0.304,0.584-0.738,2.109,0.72,2.208
			c1.231,0.083,1.736-1.202,1.871-2.431c0.052-0.477,0.422-0.946,0.386-1.399c-0.131-1.676,0.529-1.868,1.82-1.096
			c0.632,0.378,1.342,0.816,1.871-0.018c0.429-0.677,0.832-1.617,0.209-2.279c-0.995-1.058-1.236-1.995-0.322-3.202
			c0.508-0.671,0.036-1.252-0.563-1.425c-0.919-0.264-0.772,0.514-0.813,1.071c-0.025,0.348-0.051,0.956-0.199,0.997
			c-2.158,0.586-2.781,2.361-3.831,4.062C156.419,87.053,155.845,87.926,155.964,89.444z M179.006,113.972
			c-0.306-0.271-0.52-0.819-1.125-0.685c-1.74,0.387-2.57-0.445-2.923-2.035c-0.04-0.182-0.296-0.306-0.415-0.481
			c-0.695-1.032-1.548-1.179-2.456-0.343c-0.886,0.815-0.704,1.699,0.164,2.386c0.954,0.755,1.24,1.695,1.085,2.836
			c-0.134,0.984,0.304,1.771,0.786,2.582c0.871,1.464,1.772,1.549,2.586,0.042c0.685-1.269,0.696-2.906,2.123-3.77
			C178.921,114.45,178.921,114.246,179.006,113.972z M247.919,108.941c-1.156-0.215-1.755,0.395-2.377,1.324
			c-0.761,1.136,0.162,1.477,0.645,2.097c0.256,0.328,0.528,0.705,0.608,1.098c0.705,3.464,3.867-1.006,4.915,1.518
			c0.104,0.25,0.772-0.086,1.094-0.417c0.354-0.367,0.622-0.716,0.638-1.291c0.039-1.467-0.788-2.297-2.048-2.556
			c-0.7-0.145-1.337-0.332-1.588-0.897C249.396,108.891,248.73,108.84,247.919,108.941z M154.529,85.488
			c1.19,0.264,1.867-0.628,1.736-1.361c-0.239-1.334-0.38-2.992-2.095-3.471c-1.754-0.49-3.952,0.43-4.275,1.943
			c-0.228,1.065-0.182,0.816-0.886,0.297c-0.533-0.393-1.497-0.186-1.744,0.691c-0.327,1.158,0.178,2.078,1.125,2.773
			c0.616,0.452,1.26-0.027,1.345-0.373c0.646-2.628,2.145-1.759,3.66-0.996C153.763,85.178,154.15,85.324,154.529,85.488z
			 M215.122,80.914c-0.286-0.146-0.354-0.162-0.395-0.204c-0.784-0.802-1.563-1.5-2.616-0.335c-0.807,0.893-0.687,1.721,0.194,2.413
			c1.079,0.848,1.952,0.691,2.497-0.676c0.125-0.313,0.408-0.554,0.828-0.595c2.129-0.208,3.317-1.607,3.414-3.918
			c0.052-1.233-0.07-2.595-1.556-2.54c-1.232,0.047-2.479,0.749-2.379,2.465C215.172,78.605,215.122,79.695,215.122,80.914z
			 M244.719,81.861c0-0.433-0.007-0.866,0.001-1.3c0.019-1.058-0.235-2.137-1.265-2.478c-1.31-0.433-2.542,0.283-3.466,1.137
			c-0.854,0.79-0.513,1.863,0.156,2.673c0.835,1.011,1.389,2.172,1.865,3.351c0.324,0.803,0.876,0.541,1.395,0.604
			c0.644,0.078,0.707-0.317,0.941-0.833C244.824,83.965,244.665,82.917,244.719,81.861z M210.892,128.095
			c-0.954-0.219-1.497,0.473-1.803,1.167c-0.36,0.817,0.433,1.268,0.959,1.739c2.134,1.911,5.066,1.608,7.52,2.674
			c1.018,0.442,1.571-0.72,2.161-1.411c-0.777-0.348-0.748-1.762-1.88-1.561c-2.099,0.371-3.558-0.598-4.964-1.978
			C212.44,128.289,211.714,127.89,210.892,128.095z M188.136,60.123c-0.006,2.302,2.929,5.609,4.923,5.684
			c0.649,0.024,1.328-0.254,1.548-0.851c0.213-0.578-0.065-1.009-0.68-1.527c-1.423-1.198-2.531-2.867-2.679-4.739
			c-0.153-1.944-1.186-1.36-2.079-0.983C188.057,58.178,188.033,59.261,188.136,60.123z M151.436,67.939
			c-0.81-0.223-1.247,0.708-1.406,1.476c-0.222,1.069-0.405,1.758-1.742,1.803c-0.537,0.018-1.32,0.798-1.024,1.639
			c0.381,1.082,1.009,2.198,2.245,2.316c0.918,0.088,1.057-1.014,1.146-1.682c0.115-0.871,0.22-1.49,1.237-0.974
			c0.897,0.455,1.616,0.396,2.292-0.371c0.62-0.702,0.544-1.345,0.102-2.134C153.711,68.988,153.144,68.055,151.436,67.939z
			 M172.03,87.523c0.022-2.6-0.692-3.343-3.006-2.726c-0.965,0.258-1.132-0.359-1.549-0.705c-0.515-0.427-1.012-0.634-1.524-0.184
			c-0.519,0.455-0.803,1.003-0.532,1.803c0.209,0.618,0.379,1.654,0.98,1.361c1.795-0.875,1.841,0.74,2.398,1.496
			c0.544,0.738,0.945,1.992,1.952,1.519C171.563,89.704,172.305,88.658,172.03,87.523z M211.219,95.074
			c-0.06-1.04,0.247-2.101-1.016-2.23c-1.167-0.12-1.511,1.049-1.523,1.709c-0.032,1.631-0.745,1.707-1.982,1.325
			c-0.328-0.102-0.758-0.111-1.067,0.017c-0.688,0.285-1.674,0.378-1.773,1.289c-0.09,0.815-0.474,1.943,0.238,2.436
			c0.593,0.409,1.585,0.293,2.44-0.123c0.975-0.475,1.884-0.892,2.057-2.097c0.053-0.364,0.004-0.523,0.588-0.392
			C210.894,97.39,211.186,96.197,211.219,95.074z M208.766,141.448c2.481-1.312,1.26-3.646,1.576-5.563
			c0.376-2.285-1.254-1.671-2.422-1.717c-1.599-0.063-2.086,1.221-1.84,2.255C206.523,138.28,207.055,140.237,208.766,141.448z
			 M197.712,151.912c0,0.547-0.045,0.913,0.009,1.265c0.149,0.972,0.242,2.222,1.456,2.245c1.323,0.026,1.68-1.08,1.582-2.287
			c-0.082-1.011,0.174-1.912,0.599-2.854c0.461-1.02,0.809-2.6-0.204-3.116c-1.133-0.578-2.034,0.679-2.719,1.688
			C197.754,149.858,197.611,150.941,197.712,151.912z M222.913,70.181c-2.95,0.001-3.474,0.515-3.441,2.944
			c0.009,0.647-0.117,1.359,0.584,1.73c0.726,0.384,1.19-0.128,1.665-0.591c0.329-0.32,0.636-0.937,1.219-0.37
			c0.693,0.675,1.53,1.087,2.242,0.295c0.784-0.873,0.578-2.112,0.178-3.062C224.849,69.919,223.57,70.169,222.913,70.181z
			 M231.631,73.29c0.01,0,0.02,0,0.029,0c0-0.43-0.006-0.86,0.001-1.291c0.019-1.2-0.858-1.939-1.732-2.163
			c-1.054-0.269-2.217,0.139-3.023,1.031c-0.832,0.922-0.118,1.663,0.415,2.344c0.608,0.78,1.346,1.46,1.965,2.233
			c0.288,0.36,0.302,0.998,1.007,0.815c0.669-0.173,1.145-0.644,1.309-1.26C231.744,74.466,231.631,73.863,231.631,73.29z
			 M182.917,137.047c0,0.577-0.041,1.157,0.009,1.729c0.078,0.892,0.939,1.2,1.423,1.791c0.416-0.354,1.104-0.646,1.198-1.072
			c0.333-1.51,1.309-2.76,1.65-4.206c0.246-1.044-0.114-2.09-1.681-2.019C183.595,133.359,182.912,134.269,182.917,137.047z
			 M185.089,156.057c-0.002-2.562-0.854-3.476-2.399-2.618c-1.167,0.648-1.989,1.729-1.375,3.196
			c0.355,0.848,0.818,1.613,0.756,2.599c-0.047,0.733,0.595,1.248,1.146,1.396c0.744,0.201,0.708-0.732,0.963-1.152
			C184.841,158.39,185.354,157.215,185.089,156.057z M242.586,159.643c-0.335-0.81-0.729-1.493-0.893-2.228
			c-0.236-1.062-1.138-1.386-1.87-1.409c-0.834-0.027-1.608,0.401-2.158,1.354c-0.562,0.972,0.031,1.472,0.367,2.061
			c0.31,0.543,1.056,0.865,1.284,1.419c0.367,0.886,1.16,1.659,1.775,1.375C242.006,161.792,242.166,160.512,242.586,159.643z
			 M155.061,95.615c-0.008,0.639-0.077,1.272,0.38,1.834c0.451,0.554,0.337,1.751,1.261,1.675c0.988-0.081,1.583-0.827,1.417-1.993
			c-0.158-1.113,0.741-0.739,1.309-0.843c0.482-0.087,1.246,0.351,1.286-0.652c0.032-0.811-0.15-1.462-1.106-1.504
			c-0.521-0.022-0.91-0.208-1.366-0.477C156.441,92.6,155.066,93.481,155.061,95.615z M182.622,128.652
			c0.453,0.603,0.012,1.85,1.183,1.99c1.037,0.124,1.425-0.655,1.744-1.531c0.281-0.772,0.408-1.586,0.954-2.307
			c0.658-0.868,0.515-1.855-0.337-2.677c-0.981-0.947-1.731-0.098-2.445,0.345C182.106,125.473,183.459,127.345,182.622,128.652z
			 M193.783,141.141c0.079-1.168,0.141-2.291-1.674-2.214c-1.902,0.081-2.843,0.818-2.613,2.718
			c0.133,1.096-0.205,2.907,1.649,2.893C192.749,144.524,194.155,142.868,193.783,141.141z M237.721,76.787c0.011,0,0.022,0,0.033,0
			c0-0.217-0.019-0.436,0.003-0.65c0.123-1.191-0.237-2.073-1.451-2.52c-0.978-0.359-1.716,0.024-2.396,0.639
			c-1.111,1.006-0.333,1.979,0.157,2.875c0.38,0.696,0.958,1.286,1.46,1.914c1.098,1.373,1.716,0.35,2.153-0.544
			C237.909,78.034,237.721,77.364,237.721,76.787z M183.648,74.98c-0.875-0.872-1.873-1.535-2.416-0.055
			c-0.415,1.13-0.582,2.731,0.63,3.377c1.095,0.583,1.73-0.486,1.954-1.612c0.07-0.352,0.234-0.853,0.828-0.621
			c1.488,0.581,2.062-0.396,2.127-1.523c0.056-0.946-0.257-2.1-1.55-2.164C183.552,72.299,183.934,73.719,183.648,74.98z
			 M263.492,156.829c-0.144-1.312,0.302-2.472-1.136-2.622c-0.69-0.071-1.627-0.246-1.841,0.657
			c-0.24,1.012-0.388,2.108,0.261,3.101c0.504,0.771,1.247,1.49-0.28,2.151c-0.608,0.264-0.256,1.244-0.082,1.899
			c0.198,0.743,0.819,0.362,1.257,0.427c0.441,0.065,1.024-0.021,0.86-0.602C261.969,159.856,263.493,158.254,263.492,156.829z
			 M266.05,140.672c0.056-1.4-0.545-2.187-2.022-2.156c-1.354,0.028-1.892,0.766-1.909,2.064c-0.019,1.448,0.98,2.574,1.177,3.992
			c0.088,0.639,1.581,0.875,1.774-0.021C265.351,143.247,266.167,142.071,266.05,140.672z M250.553,130.689
			c-1.691-0.045-1.389,1.139-1.576,1.982c-0.164,0.736-0.122,1.59,0.575,1.858c0.76,0.294,1.648,0.073,1.683-1.05
			c0.02-0.624,0.503-0.607,0.851-0.783c0.696-0.352,0.332,0.319,0.477,0.505c0.465,0.598,0.544,1.727,1.825,1.138
			c0.804-0.369,1.427-0.779,1.19-1.734c-0.235-0.953-1.073-2.022-1.806-1.81C252.526,131.157,251.472,131.253,250.553,130.689z
			 M191.45,101c-1.992,0.452-1.269,3.502-3.57,3.652c-0.514,0.033-0.682,0.832-0.623,1.458c0.046,0.5-0.107,1.051,0.049,1.504
			c0.371,1.083,1.865,1.179,1.97,0.624c0.433-2.297,2.376-3.511,3.314-5.375C193.015,102.019,192.294,101.388,191.45,101z
			 M258.204,157.673c0-0.654,0.136-1.208-0.028-1.648c-0.322-0.865-0.901-1.787-1.884-1.736c-0.938,0.048-1.297,0.893-1.134,1.864
			c0.07,0.421-0.112,1.05,0.113,1.247c1.054,0.923,0.767,1.837,0.171,2.803c-0.665,1.078,0.376,1.566,0.907,1.706
			c0.528,0.139,1.814-0.378,1.61-0.928C257.482,159.696,258.701,158.689,258.204,157.673z M204.669,147.489
			c0.042,1.124-0.246,2.536,1.255,2.722c1.507,0.187,1.778-1.058,1.878-2.298c0.038-0.472,0.251-0.948,0.467-1.383
			c0.582-1.173-0.15-2.077-0.947-2.41c-0.827-0.345-1.707,0.239-2.3,1.129C204.515,146.008,204.787,146.772,204.669,147.489z
			 M182.042,147.099c0,0.676,0.007,1.037-0.001,1.397c-0.018,0.728-0.085,1.543,0.84,1.729c0.887,0.177,1.16-0.396,1.398-1.217
			c0.233-0.806,0.84-1.513,1.326-2.233c0.591-0.877,0.566-1.664-0.154-2.462c-0.673-0.745-1.17-0.518-2.021-0.1
			C181.908,144.96,181.963,146.119,182.042,147.099z M212.176,85.946c0.165-1.84-0.239-2.022-3.532-2.263
			c-1.338-0.098-1.349,1.036-1.767,1.788c-0.108,0.195,3.271,2.961,3.574,2.833C211.671,87.787,212.238,86.798,212.176,85.946z
			 M261.267,148.781c-0.037,0.934,0.065,1.72,0.687,2.58c0.599,0.829,1.137,0.757,1.743,0.473c0.638-0.298,1.397-4.233,1.001-4.829
			c-0.553-0.83-1.342-1.393-2.347-1.061C260.929,146.415,261.329,147.721,261.267,148.781z M193.146,145.92
			c-0.812-0.071-1.216,0.256-1.596,1.045c-0.808,1.677-0.169,2.99,0.799,4.215c0.733,0.927,2.151,0.594,2.257-0.552
			c0.103-1.119,0.541-2.204,0.125-3.438C194.416,146.251,194.072,145.854,193.146,145.92z M211.638,91.34
			c-0.052,0.951,0.307,1.518,1.353,1.475c1.049-0.042,3.075-2.672,2.991-3.959c-0.071-1.094-0.707-1.696-1.804-1.688
			C212.918,87.179,211.595,89.392,211.638,91.34z M252.089,150.098c0.01,0,0.019,0,0.028,0c0-0.29-0.03-0.583,0.006-0.868
			c0.157-1.247-0.762-1.872-1.591-2.334c-0.748-0.417-1.619,0.181-2.035,0.763c-0.558,0.779-0.511,1.718,0.245,2.535
			c0.471,0.51,0.861,1.122,1.168,1.748c0.238,0.483,0.483,1.023,1.033,0.862c0.514-0.15,1.003-0.609,1.125-1.192
			C252.17,151.126,252.089,150.604,252.089,150.098z M257.261,148.872c0.418-1.211-0.14-1.936-1.328-2.395
			c-0.774-0.299-1.247,0.012-1.643,0.56c-0.687,0.951-0.714,2.009-0.025,2.915c0.504,0.662,0.719,2.091,1.675,1.779
			C256.972,151.396,257.711,150.298,257.261,148.872z M191.13,160.853c0.402-1.291-0.771-2.407-1.342-2.091
			c-1.105,0.613-3.319,0.306-3.181,2.097c0.103,1.331,1.827,2.109,3.074,2.255C190.734,163.236,191.518,162.181,191.13,160.853z
			 M170.309,118.667c0.376-1.082-0.511-1.95-1.247-2.716c-0.446-0.463-1.281-0.918-2.052-0.077c-0.612,0.667-0.954,1.206-0.197,1.99
			c0.431,0.447,0.992,0.98,1.054,1.524c0.136,1.197,1.094,1.651,1.806,1.532C170.591,120.769,170.234,119.64,170.309,118.667z
			 M207.683,154.525c0-0.43,0.115-0.901-0.022-1.281c-0.379-1.046-1.063-2.003-2.295-1.549c-1.009,0.372-1.491,1.317-0.936,2.463
			c0.359,0.738,0.745,1.463,1.114,2.196c0.18,0.356,0.298,0.875,0.839,0.649c0.495-0.207,1.168-0.308,1.281-0.977
			C207.748,155.54,207.681,155.026,207.683,154.525z M223.457,79.977c0.156-1.08-0.298-1.879-1.207-2.328
			c-0.717-0.354-1.341,0.201-1.584,0.759c-0.344,0.789-0.646,1.722-0.546,2.542c0.1,0.807,0.286,1.869,1.497,2.029
			c1.204,0.16,0.818-1.243,1.582-1.599C223.449,81.264,223.379,80.464,223.457,79.977z M222.757,129.305
			c1.012,0.152,1.581,0.021,1.857-0.564c0.282-0.599-0.026-1.099-0.507-1.482c-0.71-0.565-1.375-1.22-2.16-1.651
			c-0.875-0.479-1.677-0.089-2.212,0.699c-0.438,0.646-0.537,1.501,0.158,1.896C220.888,128.763,222.043,129.042,222.757,129.305z
			 M195.117,53.409c-0.005,0-0.011,0-0.017,0c0,0.217,0.033,0.439-0.005,0.649c-0.186,1.008,0.318,1.864,1.123,2.092
			c1.026,0.292,1.19-0.915,1.394-1.543c0.251-0.775,0.778-1.55,0.534-2.449c-0.157-0.58,0.473-1.512-0.818-1.581
			c-1.087-0.057-1.839,0.344-2.183,1.326C194.986,52.353,195.117,52.904,195.117,53.409z M194.794,69.459
			c-0.727,0.879-1.969,1.196-1.841,2.5c0.125,1.269,0.055,2.732,1.733,3.245c0.51,0.156,0.656-0.212,0.747-0.454
			c0.364-0.969,0.815-1.95,0.917-2.959C196.443,70.862,195.62,70.267,194.794,69.459z M216.862,84.62
			c0.004,2.1,0.103,2.378,0.87,2.277c1.694-0.223,2.36-1.548,2.531-2.951c0.093-0.764-0.273-2.033-1.445-1.962
			C217.152,82.085,216.556,83.207,216.862,84.62z M178.573,90.427c-0.166,1.57,0.672,2.633,1.896,2.733
			c1.626,0.134,1.353-1.633,1.477-2.548c0.125-0.917-0.234-2.203-1.723-2.139C178.929,88.53,178.271,89.175,178.573,90.427z
			 M245.164,143.892c0.117-1.203-0.184-1.882-1.604-1.934c-1.479-0.055-1.858,0.712-1.876,1.899
			c-0.021,1.293,0.533,2.757,1.723,2.77C244.634,146.639,245.054,145.128,245.164,143.892z M241.25,151.837
			c-0.153,1.251-0.04,2.617,1.404,2.696c1.48,0.082,1.538-1.372,1.625-2.512c0.111-1.469-0.775-2.511-2.024-2.535
			C240.732,149.458,241.416,150.972,241.25,151.837z M223.145,131.113c-0.66-0.014-1.901,0.072-1.859,1.256
			c0.066,1.908,1.998,1.751,3.247,2.184c0.859,0.298,1.542-0.244,1.46-1.278C225.871,131.75,224.961,131.086,223.145,131.113z
			 M182.034,103.041c0.03,1.251-0.1,2.867,1.132,2.691c1.43-0.204,1.831-1.883,1.92-3.333c0.057-0.937-0.043-1.813-1.292-1.738
			C182.115,100.762,181.962,101.953,182.034,103.041z M191.618,98.393c0.388,0.594-0.75,1.929,0.6,2.172
			c0.99,0.178,1.567-0.75,1.63-1.82c0.01-0.175,0.249-0.337,0.384-0.503c0.674-0.824,0.717-1.72,0.031-2.492
			c-0.356-0.401-0.874-0.682-1.605-0.42c-1.094,0.39-1.075,1.17-1.041,2.044C191.627,97.66,191.618,97.946,191.618,98.393z
			 M187.708,70.204c-0.025,1.147-0.071,2.263,0.951,2.514c0.938,0.229,1.517-0.595,1.647-1.542c0.066-0.485,0.5-0.681,0.682-1.041
			c0.657-1.304-0.035-2.229-1.522-2.133C187.88,68.104,187.966,69.391,187.708,70.204z M193.355,48.647
			c0.147-1.033-0.107-2.252-1.397-2.271c-0.683-0.01-1.71,0.902-1.621,2.003c0.113,1.377,0.593,3.123,1.912,3.218
			C193.363,51.676,193.383,49.932,193.355,48.647z M192.919,155.841c-0.018,1.112,0.305,2.535,1.148,2.45
			c1.771-0.179,1.466-2.284,2.169-3.48c0.257-0.437-0.819-1.58-1.673-1.41C193.348,153.643,192.799,154.657,192.919,155.841z
			 M233.213,128.862c-0.014-0.804-2.359-2.556-3.402-2.363c-0.705,0.129-1.323,0.692-1.164,1.495
			c0.361,1.824,2.118,1.747,3.395,2.218C233.191,130.634,232.8,129.333,233.213,128.862z M244.694,106.046
			c-0.317,1.293,0.798,1.789,1.931,1.954c1.396,0.205,0.912-1.347,1.499-1.944c-0.753-0.631,0.192-2.396-1.556-2.354
			C245.238,103.733,244.711,104.52,244.694,106.046z M201.628,159.167c0.09-1.324-0.306-2.278-1.817-2.368
			c-0.865-0.052-1.731,0.062-1.635,1.176c0.114,1.319,0.546,2.567,2.158,2.723C201.409,160.801,201.688,160.094,201.628,159.167z
			 M256.124,111.521c-1.022,0.21-1.412,1.255-1.307,2.044c0.136,1.009,0.304,2.54,1.743,2.528c1.126-0.01,1.44-1.52,1.438-2.228
			C257.994,113.011,257.669,111.68,256.124,111.521z M193.795,54.362c-0.027-0.904,0.22-2.019-1.221-2.009
			c-1.177,0.008-1.813,0.655-1.831,1.873c-0.017,1.173,0.472,1.932,1.694,2.016C193.843,56.339,193.828,55.342,193.795,54.362z
			 M231.346,131.542c-0.851-0.196-1.799,0.515-1.729,1.235c0.1,1.015,0.975,1.825,2.265,1.837c1.015,0.01,1.952-0.536,1.827-1.343
			C233.575,132.395,232.751,131.523,231.346,131.542z M147.645,77.016c0.417-1.316-0.974-1.737-1.654-1.906
			c-0.79-0.196-1.393,0.743-1.389,1.756c0.004,1.197,0.513,1.933,1.739,2.008C147.595,78.952,147.712,78.094,147.645,77.016z
			 M149.486,102.82c1.132,0.131,1.614-0.328,1.692-1.568c0.091-1.439-1.296-1.35-1.623-1.219c-0.793,0.316-2.387-0.306-2.283,1.289
			C147.348,102.488,148.295,102.937,149.486,102.82z M169.538,121.907c-0.53-0.102-0.641,0.49-0.549,1.223
			c0.18,1.445,1.684,1.712,2.408,2.677c0.521-0.462,1.23-0.834,1.06-1.694C172.193,122.775,171.383,122.021,169.538,121.907z
			 M209.453,60.77c0.019-0.865,0.151-1.479-0.897-1.497c-1.522-0.026-1.845,1.098-2.095,2.12c-0.241,0.986,0.605,1.865,1.397,1.732
			C209.057,62.924,209.124,61.548,209.453,60.77z M199.488,42.798c-0.486-0.826-0.641-1.971-2.149-1.808
			c-0.996,0.108-1.445,0.499-1.364,1.475c0.114,1.376,1.27,1.658,2.255,1.809C198.941,44.382,199.37,43.647,199.488,42.798z
			 M224.802,78.28c0.351,0.245-0.755,1.534,0.548,1.41c1.404-0.133,1.716-1.438,1.969-2.65c0.195-0.934-0.499-1.55-1.051-1.481
			C224.939,75.724,224.395,76.697,224.802,78.28z M249.882,154.64c-0.827,0.292-1.216,1.174-1.148,1.791
			c0.109,1.016,0.816,1.952,2.021,1.882c0.85-0.051,1.478-1.005,1.259-1.593C251.683,155.833,251.092,154.849,249.882,154.64z
			 M197.38,104.019c-0.379-1.03-1.018-1.886-1.888-1.949c-0.678-0.05-1.347,0.739-1.256,1.675c0.093,0.952,0.653,1.913,1.44,2.035
			C196.734,105.945,196.759,104.594,197.38,104.019z M165.094,114.178c0.229-1.22-0.929-1.52-1.957-1.739
			c-0.949-0.203-1.405,0.887-1.319,1.345c0.207,1.095,1.187,1.61,2.292,1.817C165.127,115.792,165.03,115.095,165.094,114.178z
			 M206.856,65.007c0.187-1.251-0.927-1.558-1.6-1.682c-0.787-0.145-1.373,0.631-1.441,1.516c-0.081,1.028,0.539,1.734,1.442,1.799
			C206.213,66.71,206.758,65.968,206.856,65.007z M215.127,127.034c-0.27,1.088,0.638,1.658,1.389,1.67
			c0.781,0.012,1.569-0.808,1.595-1.672c0.027-0.927-0.637-1.535-1.66-1.572C215.397,125.421,215.062,126.012,215.127,127.034z
			 M152.451,101.938c-0.01,0.654-0.196,1.393,0.987,1.349c1.066-0.041,1.966-0.449,1.939-1.454
			c-0.017-0.631-0.397-1.665-1.588-1.636C152.574,100.226,152.386,100.927,152.451,101.938z M165.924,108.877
			c-0.837,0.496-2.107,0.888-1.987,1.555c0.159,0.88,1.28,1.521,2.301,1.48c0.798-0.031,1.547-0.705,1.376-1.546
			C167.453,109.575,166.49,109.325,165.924,108.877z M192.445,42.766c-0.635-0.021-1.559-0.134-1.662,0.947
			c-0.12,1.257,1.039,1.454,1.848,1.599c0.851,0.152,1.477-0.581,1.556-1.393C194.293,42.823,193.435,42.729,192.445,42.766z
			 M190.612,113.644c0.405-0.859,2.216-1.16,1.078-2.629c-0.529-0.682-1.747-0.646-2.103-0.126
			C188.862,111.948,189.393,112.966,190.612,113.644z M247.329,160.037c-0.042,0.64-0.005,1.41,0.951,1.517
			c0.93,0.104,1.229-0.502,1.233-1.351c0.003-0.753,0.003-1.526-0.955-1.634C247.625,158.464,247.31,159.077,247.329,160.037z
			 M173.038,120.236c-0.563,0.003-1.476,0.115-1.173,0.698c0.365,0.703,0.517,1.94,1.752,1.895c0.815-0.031,1.042-0.615,1.029-1.356
			C174.625,120.371,173.936,120.176,173.038,120.236z M168.224,110.413c0.647,0.747,0.934,2.111,2.368,1.401
			c0.576-0.285,0.831-0.897,0.416-1.448C170.103,109.168,169.158,109.952,168.224,110.413z M203.026,162.053
			c0.393-0.464,1.188-0.658,1.198-1.527c0.01-0.816-0.507-1.066-1.252-1.129c-0.847-0.071-0.925,0.381-0.92,1.044
			C202.056,161.121,202.107,161.726,203.026,162.053z M374.984,205.502c0.866-1.025,1.064-1.89-0.063-2.744
			c-0.469-0.355-0.828-0.271-1.082,0.132C372.921,204.344,374.521,204.623,374.984,205.502z M177.256,126.499
			c0.027-0.811-0.193-1.386-1.009-1.456c-0.679-0.059-1.112,0.319-1.148,0.994c-0.042,0.806,0.443,1.14,1.213,1.166
			C176.883,127.222,177.341,127.159,177.256,126.499z M3.503,181.117c0.14,0.076,0.515,0.445,0.752,0.372
			c0.37-0.113,0.714-0.488,0.633-1.01c-0.042-0.274-0.018-0.637-0.438-0.573C3.995,179.974,3.706,180.274,3.503,181.117z
			 M207.72,133.162c-0.246-0.274-0.356-0.476-0.527-0.571c-0.357-0.2-0.456,0.184-0.58,0.364c-0.243,0.354,0.159,0.304,0.288,0.312
			C207.133,133.285,207.372,133.212,207.72,133.162z"/>
		<path style="fill-rule:evenodd;clip-rule:evenodd;fill:#7B491E;" d="M78.309,113.178c-1.141-2.744-0.99-2.662,2.043-3.467
			c2.323-0.616,4.485-1.165,6.963-0.864c3.699,0.449,6.399,2.072,8.303,5.237c2.596,4.316,2.769,9.104,2.299,13.832
			c-0.248,2.493-1.965,4.683-3.855,6.516c-1.612,1.562-3.314,2.961-5.451,3.763c-1.036,0.388-1.729,1.278-1.399,2.296
			c0.556,1.709,0.333,3.412,0.364,5.116c0.033,1.811,1.102,2.238,2.584,2c0.611-0.098,1.256-0.243,1.84-0.424
			c3.181-0.987,5.932,0.046,8.66,1.536c1.257,0.687,2.523,1.265,3.035,2.761c0.368,1.077,1.315,1.736,2.131,2.393
			c2.787,2.241,3.566,5.185,3.57,8.6c0.002,2.598-0.659,5.19-0.397,7.725c0.391,3.777,0.003,7.58,0.723,11.347
			c0.635,3.325-1.654,8.812-3.821,9.105c-2.317,0.314-3.924,1.75-5.815,2.745c-0.79,0.416-1.342,1.064-1.181,2.089
			c0.361,2.294-0.646,4.332-1.403,6.359c-0.435,1.168-0.149,2.269-0.344,3.379c-0.192,1.089-0.629,2.271-1.767,2.397
			c-1.027,0.114-1.944-1.135-1.965-1.87c-0.064-2.172-1.6-3.689-2.137-5.649c-0.385-1.407-0.449-2.773-0.688-4.156
			c-0.479-2.759-0.814-5.537-1.438-8.283c-0.547-2.407-0.698-4.987,0.206-7.423c0.203-0.545,0.409-1.04,0.412-1.636
			c0.008-1.3,0.217-2.709,1.654-3.032c1.726-0.389,3.384-0.001,4.31,1.808c0.256,0.5,0.485,1.015,0.705,1.478
			c0.489-0.278,0.948-0.632,1.468-0.817c1.765-0.629,1.76-2.031,1.209-3.317c-0.431-1.007-0.394-1.577,0.117-2.592
			c2.335-4.635-0.624-11.839-5.564-13.774c-1.645-0.646-3.455-0.367-5.137-0.192c-2.637,0.273-5.374-0.438-7.817,0.092
			c-3.676,0.796-7.012-0.372-10.497-0.59c-2.261-0.142-4.172-1.481-6.43-1.809c-3.238-0.471-6.333-0.02-9.37,0.854
			c-1.63,0.47-2.861,1.034-3.951-0.925c-0.453-0.813-1.817-0.974-2.53-1.838c-1.042-1.265-1.108-2.543,0.168-3.5
			c1.29-0.967,1.008-2.094,0.306-2.88c-0.975-1.091-1.607,0.236-2.215,0.803c-1.697,1.585-2.303,3.244-1.869,5.842
			c0.666,3.981,0.062,8.032-3.232,11.085c-0.224,0.207-0.238,0.642-0.443,1.248c1.841-0.831,3.992,0.142,5.379-1.849
			c0.43-0.617,1.531-1.445,2.152-0.735c0.567,0.648,0.588,2.025-0.055,2.844c-1.669,2.125-2.713,4.174-0.643,6.663
			c0.287,0.345,0.094,1.132,0.043,1.706c-0.106,1.212-0.029,2.181,1.458,2.604c0.837,0.238,1.242,1.061,1.186,2.081
			c-0.088,1.595-0.018,3.198-0.024,4.799c-0.01,2.135,0.987,4.05,1.33,6.112c0.357,2.142,1.454,4.106,1.322,6.393
			c-0.1,1.738-0.085,3.262-1.575,4.658c-1.045,0.98-1.47,2.349-3.231,1.162c-0.849-0.572-1.489,0.369-1.858,0.886
			c-0.881,1.231-1.969,1.035-2.95,0.513c-1.077-0.572-1.698-1.502-0.668-2.744c0.436-0.525,0.25-1.017-0.192-1.531
			c-2.441-2.837-2.504-5.866-1.699-9.505c0.384-1.734-0.082-4.395-1.334-6.377c-0.403-0.64-0.94-0.564-1.24-0.269
			c-1.607,1.591-3.873,2.744-3.599,5.612c0.175,1.833-1.186,2.875-2.687,2.843c-2.76-0.06-5.784-0.066-7.693-2.553
			c-2.264-2.948-3.646-6.401-4.782-9.918c-0.247-0.767-0.048-1.729,0.122-2.564c0.226-1.112,0.802-2.129-0.841-2.769
			c-1.63-0.636-2.506-0.354-3.459,1.221c-1.256,2.073-2.308,4.361-4.617,5.694c-1.654,0.954-3.137,0.436-4.709,0.07
			c-0.623-0.145-0.458-0.645-0.455-1.038c0.005-0.681,0.382-1.136,1.063-1.102c2.391,0.121,2.383-2.651,4.083-3.365
			c0.085-0.036,0.029-0.757-0.043-0.771c-1.271-0.268-2.148-0.401-0.87-2.021c0.614-0.778-0.066-2.269,0.901-3.364
			c0.77-0.874,1.42-1.632,2.592-1.994c3.268-1.012,6.419-2.269,9.931-2.533c2.422-0.183,3.831-2.329,4.92-4.394
			c0.193-0.364,0.267-0.827,0.619-1.072c3.311-2.299,2.271-5.526,1.52-8.435c-0.494-1.912-0.064-3.448,0.512-5.112
			c0.928-2.683,0.089-5.377-0.03-8.056c-0.098-2.196,0.735-4.195,1.146-6.255c0.54-2.698,3.379-3.38,5.965-3.066
			c2.063,0.251,2.233,2.201,2.52,3.922c0.469,2.815,0.435,5.722,1.532,8.576c2.031-2.012,3.046-4.61,4.511-6.9
			c1.175-1.838,2.121-3.823,3.317-5.646c1.087-1.656,4.032-1.962,5.496-0.374c1.075,1.168,2.404,2.449,2.112,4.415
			c-0.248,1.668,0.53,3.197,0.772,4.786c0.409,2.684,0.162,5.42-1.179,7.896c-0.469,0.867-0.289,1.843-0.614,2.672
			c-0.249,0.636,0.097,1.024,0.317,1.289c0.398,0.479,0.714-0.125,1.025-0.361c0.664-0.505,1.359-0.515,1.967,0.013
			c1.991,1.725,4.385,1.418,6.726,1.403c1.281-0.009,2.662,0.533,3.715-0.733c0.197-0.237,0.804-0.161,0.725-0.636
			c-0.536-3.24,1.554-5.962,1.753-9.046c0.063-0.983-0.047-1.864-0.651-2.831c-0.746-1.193-1.41-2.6-1.092-4.193
			c0.244-1.224-0.726-2.108-1.191-3.077c-0.814-1.695-0.795-3.247,0.461-4.491c1.014-1.005,0.317-2.644,1.625-3.438
			c0.337-0.206,0.587-0.548,0.989-0.758c2.491-1.305,3.153-3.471,1.864-6.01c-0.324-0.639-0.46-1.296,0.031-1.791
			c0.458-0.462,1.059-1.066,1.823-0.672C76.916,113.397,77.593,113.257,78.309,113.178z M78.016,146.616
			c0,0.76-0.06,1.276,0.017,1.771c0.076,0.492-0.399,1.265,0.491,1.412c0.871,0.145,1.303-0.565,1.587-1.195
			c0.192-0.426,0.078-0.995,0.079-1.5c0.004-2.534,0.046-5.069-0.013-7.602c-0.041-1.727,0.618-2.932,2.127-3.795
			c1.805-1.032,3.56-2.158,5.3-3.297c1.658-1.084,2.862-2.165,1.485-4.5c-1.673-2.837-0.38-6.92-3.664-9.182
			c-0.075-0.052-0.016-0.278-0.047-0.418c-0.482-2.163-1.841-3.274-4.025-3.644c-1.453-0.246-1.875,0.109-1.467,1.521
			c0.41,1.417,1.119,2.83,0.6,4.344c-0.734,2.142-1.221,4.439-3.449,5.721c-0.624,0.358-1.114,0.905-0.262,1.701
			c1.34,1.252,1.623,2.763,0.639,4.38c-0.213,0.35-0.352,0.635-0.056,0.945c2.619,2.746,0.873,6.203,1.409,9.291
			C78.989,143.849,77.634,145.294,78.016,146.616z M34.089,174.323c-1.185,0.409-1.511,1.181-1.274,2.199
			c0.033,0.142,0.535,0.34,0.694,0.26C34.671,176.203,33.788,175.187,34.089,174.323z"/>
		<path style="fill-rule:evenodd;clip-rule:evenodd;fill:#7B491E;" d="M358.667,113.852c-1.246,2.786-3.224,3.653-5.542,3.944
			c-1.242,0.154-2.298-0.168-2.185-1.678c0.296-3.982-0.75-8.028,0.784-11.969c0.642-1.65-0.878-3.275-2.975-3.483
			c-0.779-0.077-1.618,0.072-2.253-0.476c-1.688-1.453-2.33-1.008-2.1,1.103c0.082,0.745-0.147,1.394-0.446,2.05
			c-0.859,1.888-1.591,3.828-1.283,5.948c0.231,1.598-0.806,2.832-1.107,4.28c-0.227,1.093-1.828,1.509-2.479,0.858
			c-0.963-0.96-1.618-0.629-2.578-0.333c-0.962,0.297-1.965,0.022-2.395-0.964c-0.581-1.337-1.338-1.274-2.564-0.881
			c-1.328,0.428-2.742,0.811-4.2,0.588c-0.213-0.032-0.435-0.017-0.651-0.002c-1.307,0.089-2.537,1.875-3.942-0.051
			c-1.457-1.996-1.822-4.244-1.336-6.447c0.534-2.42,1.411-4.796,2.248-7.157c0.57-1.608,0.871-3.505,1.133-5.301
			c0.073-0.498-0.014-1.017,0.04-1.519c0.093-0.869,1.777-1.741-0.017-2.593c-0.925-0.439-1.444-1.683-2.778-1.321
			c-0.936,0.254-1.383-0.537-1.992-1.027c-1.429-1.148-2.943-1.708-4.565-0.299c-2.513,2.184-5.728,1.708-8.659,2.131
			c-1.9,0.273-4.176-3.9-3.403-5.704c1.092-2.553,2.673-4.768,4.084-7.104c0.22-0.363,0.534-0.814,0.896-0.922
			c3.381-1.013,3.47-4.005,4.335-6.676c0.4-1.237,1.097-2.661,2.332-3.481c1.652-1.098,3.535-1.681,4.297-4.039
			c0.317-0.985,2.59-1.224,4.157-0.727c1.976,0.626,2.645,2.322,2.234,3.925c-0.562,2.192-0.225,4.152,0.365,6.172
			c0.468,1.601,0.725,3.191,0.119,4.804c-0.245,0.654,0.156,1.083,0.622,1.123c3.494,0.296,6.903,1.285,10.477,1.031
			c2.118-0.151,3.675-1.346,5.444-2.171c0.316-0.148,0.591-0.504,0.901-0.527c3.354-0.241,3.138-2.662,2.843-4.888
			c-0.323-2.44,0.9-4.577,1.072-6.929c0.089-1.214,0.119-2.132-0.519-3.134c-1.063-1.669-0.604-2.434,1.265-3.382
			c2.204-1.118,4.156-2.461,4.398-5.439c0.16-1.975,1.106-3.883,1.676-5.83c0.152-0.519,0.769-0.692,0.968-0.676
			c2.469,0.199,4.66-1.355,7.139-1.063c1.654,0.195,2.731,1.535,4.422,1.852c3.607,0.675,7.389,5.938,6.98,9.571
			c-0.215,1.907-0.718,3.864-1.693,5.587c-2.763,4.875-4.379,10.196-6.033,15.496c-0.165,0.527-0.281,1.113-0.523,1.597
			c-0.795,1.589-0.59,2.506,1.196,3.383c2.555,1.255,4.792,3.157,7.782,3.447c2.747,0.267,5.368,1.078,7.989,1.896
			c2.188,0.683,3.806,1.833,3.955,4.329c0.113,1.897,1.026,3.509,2.412,4.562c2.295,1.743,1.705,3.948,1.478,6.147
			c-0.055,0.538-0.346,1.044-0.444,1.617c-0.167,0.982-0.682,2.272-1.666,2.204c-1.204-0.085-1.66-1.401-1.754-2.589
			c-0.069-0.865-0.074-1.744,0.001-2.608c0.09-1.032-0.409-1.773-1.265-2.003c-1.025-0.275-1.487,0.573-1.799,1.436
			c-0.587,1.622-1.144,3.278-2.655,4.319c-0.448,0.309-1.019,0.709-1.496,0.665c-3.309-0.302-5.495,1.93-8.006,3.426
			c-0.154,0.092-0.199,0.435-0.342,0.468c-1.525,0.368-3.253,0.242-3.241,2.711c0.008,1.511-1.303,2.869-0.839,4.597
			c0.218,0.812-0.018,1.735,0.053,2.6c0.135,1.651-0.813,1.975-2.026,1.479c-1.142-0.467-2.242-0.751-3.478-0.887
			C359.676,118.712,358.818,117.14,358.667,113.852z M358.765,110.282c-0.5,0.859-0.649,1.71,0.048,2.839
			C359.354,111.963,359.281,111.124,358.765,110.282z"/>
		<path style="fill-rule:evenodd;clip-rule:evenodd;fill:#7B491E;" d="M67.653,61.832c0.328,4.592-1.972,8.372-3.822,12.285
			c-0.214,0.454-5.019,1.884-5.5,1.69c-0.616-0.248-0.866-0.75-0.766-1.394c0.192-1.232-0.537-2.134-1.162-3.163
			c0.288,2.425-1.088,4.262-2.068,6.207c-0.263,0.522-0.71,1.358-1.56,1.17c-0.958-0.212-1.292-1.041-1.296-1.926
			c-0.011-2.568-1.651-4.772-1.56-7.384c0.04-1.141-0.836-1.81-1.94-2.185c-2.045-0.696-2.972-2.146-3.082-4.344
			c-0.105-2.109,0.503-4.128,0.475-6.209c-0.033-2.399-1.181-3.53-3.571-3.356c-1.783,0.129-3.172,0.661-4.36,2.396
			c-1.146,1.673-3.061,3.108-4.951,3.877c-1.184,0.481-3.022-0.269-4.429-0.818c-1.487-0.582-2.878-1.485-4.189-2.419
			c-2.578-1.836-1.674-4.618-1.458-7.004c0.2-2.209,0.603-4.398,0.322-6.613c-0.353-2.774,1.541-4.781,2.361-7.144
			c0.847-2.439,2.319-4.631,2.497-7.343c0.07-1.062,0.958-1.812,2.222-1.957c1.386-0.158,2.217,0.752,3.209,1.39
			c1.437,0.923,1.098,1.93,0.196,3.021c-0.119,0.145,0.052,0.53,0.101,0.889c1.02-0.546,1.915-1.093,2.864-1.517
			c1.252-0.559,2.527-0.52,3.49,0.542c0.975,1.076,0.641,2.246-0.054,3.378c-1.83,2.982-1.63,2.792,1.355,4.614
			c2.089,1.275,4.084,1.881,6.404,1.618c1.887-0.213,3.566-1.151,5.353-1.72c0.733-0.234,0.45-0.817,0.461-1.257
			c0.037-1.522-0.136-3.064,0.045-4.565c0.396-3.292-1.403-5.09-4.05-6.375c-1.295-0.629-2.288-1.317-2.121-3.048
			c0.096-0.994,0.342-1.581,1.298-1.934c0.716-0.264,1.072-0.801,1.455-1.6c1.828-3.805,3.744-7.784,7.363-10.111
			c4.305-2.768,11.579-2.713,13.984,4.069c1.047,2.952-0.473,4.859-1.582,6.941c-0.771,1.45-1.688,2.637-0.592,4.187
			c0.541,0.764,0.315,1.434-0.144,1.94c-1.496,1.653-1.979,3.419-1.33,5.619c0.295,1.001,0.008,2.163,0.059,3.249
			c0.103,2.176,1.091,2.928,3.231,3.362c2.872,0.583,5.739,0.232,8.603,0.395c6.239,0.354,11.663,2.491,15.519,7.62
			c1.259,1.674,2.114,3.85,2.11,5.843c-0.008,4.289,2.036,7.989,2.758,12.025c0.521,2.912,1.577,5.667,2.128,8.542
			c0.415,2.162-0.429,4.308-1.643,5.997c-0.894,1.243-2.145,0.328-2.638-0.859c-0.69-1.662-1.45-2.802-3.49-1.793
			c-0.399,0.197-1.203,0.21-1.462-0.049c-1.403-1.401-2.509-0.628-4.073-0.093c-2.948,1.009-3.687,0.316-4.063-2.755
			c-0.223-1.82,0.121-3.625-0.629-5.493c-0.526-1.31-1.069-1.919-2.335-2.172c-2.155-0.432-3.886-1.851-5.932-2.616
			c-2.647-0.99-5.261-1.611-8.058-1.6c-0.673-0.501-1.1-1.269-2.078-1.45c-0.671-0.124-1.13,0.125-1.351,0.513
			c-0.194,0.343-0.351,1.047,0.212,1.326c0.346,0.172,0.807,0.688,1.257,0.058C66.166,61.601,67.002,62.078,67.653,61.832z
			 M55.388,60.72c0,1.84,0.033,3.542-0.015,5.243c-0.021,0.738,0.518,0.766,0.955,0.913c0.512,0.172,0.346-0.312,0.34-0.489
			C56.608,64.475,57.165,62.422,55.388,60.72z"/>
		<path style="fill-rule:evenodd;clip-rule:evenodd;fill:#7B491E;" d="M71.275,187.796c1.199-4.586,0.926-9.062,2.971-13.001
			c0.457-0.88,1.471-1.691,2.463-1.58c1.188,0.133,2.167,0.902,2.187,2.389c0.038,2.776,1.04,5.302,1.994,7.866
			c1.511,4.06,2.592,8.294,1.381,12.58c-0.472,1.671-0.637,3.273-0.827,4.945c-0.147,1.293-1.002,2.778-2.297,2.679
			c-1.277-0.1-2.75-1.109-3.225-2.451c-0.621-1.752-0.918-3.557-2.893-4.395c-0.331-0.14-0.663-0.515-0.674-1.03
			C72.292,192.976,72.79,190.094,71.275,187.796z"/>
		<path style="fill-rule:evenodd;clip-rule:evenodd;fill:#7B491E;" d="M64.895,200.986c-0.394,1.934,0.855,4.805-0.729,7.476
			c-0.354,0.598-0.274,1.357-1.236,1.45c-0.881,0.084-1.343-0.46-1.766-1.036c-1.472-2.011-1.704-4.557-2.786-6.705
			c-1.505-2.989-0.421-6.158-1.005-9.051c-0.772-3.821-0.635-7.562-0.624-11.329c0.008-2.806,1.534-5.117,3.849-6.678
			c1.951-1.315,3.459-0.344,3.494,2.034c0.023,1.67-0.079,3.379-0.156,5.001C63.65,188.224,65.33,194.148,64.895,200.986z"/>
		<path style="fill-rule:evenodd;clip-rule:evenodd;fill:#7B491E;" d="M160.833,63.613c-0.027,1.956-0.463,3.229-1.395,4.362
			c-0.619,0.753-0.549,1.62-0.108,2.588c0.281,0.616,0.39,1.666-0.539,2.107c-0.799,0.379-1.539,0.111-2.08-0.615
			c-0.615-0.826-1.738-1.244-1.695-2.602c0.034-1.074,0.273-2.011,1.353-2.065c1.715-0.088,1.335-1.145,1.307-2.157
			c-0.033-1.158-0.013-2.317-0.006-3.477c0.005-0.757,2.543-4.064,3.268-4.181c1.793-0.288,3.036,0.456,3.856,2.068
			c1.755,3.447,2.344,7.08,2.076,10.925c-0.082,1.185,0.604,2.076,2.059,1.604c2.806-0.91,3.579-0.421,3.504,2.434
			c-0.025,0.961-0.073,1.833,0.346,2.752c0.335,0.735,0.223,1.47-0.689,1.977c-1.051,0.585-1.392-0.254-1.853-0.77
			c-0.365-0.408-0.689-0.938-0.805-1.465c-0.312-1.417-1.067-1.909-2.52-1.735c-0.926,0.111-4.745-2.951-4.826-3.854
			c-0.081-0.909-0.601-2.277,0.801-2.567c1.539-0.319,0.994-1.504,0.739-1.952C162.993,65.882,162.004,64.977,160.833,63.613z"/>
		<path style="fill-rule:evenodd;clip-rule:evenodd;fill:#7B491E;" d="M173.229,98.563c3.128-0.197,3.819,0.873,2.49,3.856
			c-0.535,1.202,0.336,2.73,1.618,3.034c1.342,0.319,2.648,0.785,3.973,1.177c0.771,0.228,1.092,0.669,1.205,1.528
			c0.219,1.648-0.021,3.891,2.913,3.161c0.184-0.045,1.049,0.107,0.924,0.659c-0.551,2.422,1.642,5.043-0.561,7.336
			c-0.508,0.529-0.259,1.252-0.251,1.881c0.01,0.798-0.556,1.368-1.059,1.459c-0.458,0.082-1.218-0.265-1.499-0.929
			c-0.171-0.404,0.104-1.061-0.732-1.058c-3.901,0.012-1.427-2.896-1.867-4.388c-0.485-1.648,0.892-2.183,2.396-2.227
			c-3.135-1.891-5.76-4.264-7.649-7.33c-0.649-1.054-1.788-1.639-2.219-2.9c-0.639-1.871-0.267-3.576,0.372-5.307L173.229,98.563z"
			/>
		<path style="fill-rule:evenodd;clip-rule:evenodd;fill:#7B491E;" d="M270.382,129.207c0.291,1.846-1.039,2.703-2.038,3.712
			c-0.536,0.542-1.045-0.043-1.424-0.334c-0.681-0.525-0.627-1.282-0.172-1.92c0.367-0.513,1.031-1.016,0.313-1.528
			c-0.224-0.159-1.031,0.363-1.105,1.229c-0.061,0.702-0.941,1.062-1.605,0.938c-0.646-0.121-1.456-0.425-1.339-1.388
			c0.067-0.558-0.24-0.956-0.438-1.404c-0.749-1.7-0.707-2.953,1.496-3.483c0.788-0.189,2.831-0.469,0.75-2.004
			c-0.115-0.085-0.136-0.441-0.065-0.616c1.259-3.127-1.733-3.062-3.154-3.799c-0.895-0.464-1.22-1.121-1.678-1.742
			c-0.761-1.03-0.272-4.26,0.545-5.215c0.646-0.754,1.458-0.646,2.195-0.496c0.765,0.157,0.771,0.903,0.79,1.589
			c0.017,0.556-0.343,1.239,0.761,1.43c3.093,0.533,4.295,2.805,3.184,5.845c-0.235,0.644-0.154,0.973,0.351,1.48
			c1.229,1.236,1.743,2.558-0.247,3.653c-0.394,0.216-0.686,0.574-0.564,1.068c0.251,1.02,0.719-0.001,1.106,0.063
			C269.824,126.581,270.718,127.435,270.382,129.207z"/>
		<path style="fill-rule:evenodd;clip-rule:evenodd;fill:#7B491E;" d="M186.03,88.403c-2.001,0.593-2.858-0.039-3.27-2.512
			c-1.206,1.265-1.896,1.074-2.542-0.567c-0.422-1.073-1.456-1.9-2.192-2.855c-1.017-1.32-1.061-2.737-0.284-4.173
			c0.313-0.58,0.492-1.385,1.494-1.154c0.783,0.181,1.419,0.664,1.441,1.38c0.031,1.001,0.72,1.691,0.895,2.571
			c0.165,0.83,0.482,1.585,1.365,1.392c0.833-0.183,2.012-0.024,2.206-1.468c0.15-1.119,0.89-2.161,1.968-2.434
			c0.967-0.245,1.095-0.656,1.03-1.449c-0.086-1.052,0.79-1.56,1.458-1.957c0.347-0.206,1.257,0.254,1.488,0.868
			c0.24,0.639,0.358,0.426,0.826,0.212c1.761-0.807,2.748-0.194,2.73,1.723c-0.015,1.657-0.315,3.295-0.112,4.981
			c0.055,0.458-0.871,1.035-1.42,1.637c-1.078-1.478-3.255-2.55-0.766-4.651c0.78-0.659-0.466-1.342-0.792-1.972
			c-0.276-0.532-1.043,0.048-1.097,0.245c-0.375,1.371-1.561,2.144-2.418,3.037c-2.026,2.111-2.706,4.414-2.06,7.195L186.03,88.403z
			 M183.425,84.594c-0.176-0.19-0.287-0.411-0.422-0.428c-0.152-0.018-0.435,0.118-0.469,0.24c-0.076,0.269,0.02,0.565,0.388,0.526
			C183.075,84.917,183.211,84.744,183.425,84.594z"/>
		<path style="fill-rule:evenodd;clip-rule:evenodd;fill:#7B491E;" d="M205.925,90.136c0.531,2.121-0.167,3.659-1.949,4.968
			c-1.676,1.23-2.554,3.189-3.581,4.955c-0.365,0.626-0.666,1.203-1.401,0.975c-0.675-0.21-1.442-0.753-1.242-1.537
			c0.57-2.243,0.217-4.227-0.844-6.289c-0.595-1.157,0.232-2.277,1.572-2.486c0.887-0.139,1.127-0.535,0.959-1.255
			c-0.455-1.951,1.659-3.593,0.543-5.719c-0.362-0.689,0.782-0.953,1.545-0.95c0.901,0.003,1.881-0.05,1.821,1.229
			c-0.062,1.342-0.207,2.691-0.448,4.014c-0.485,2.668-0.524,2.654,1.991,2.175c0.35-0.067,0.722-0.02,1.083-0.025L205.925,90.136z"
			/>
		<path style="fill-rule:evenodd;clip-rule:evenodd;fill:#7B491E;" d="M140.151,98.155c1.282-3.873,0.871-7.89,1.016-11.875
			c0.084-2.313,3.023-4.333,4.675-3.503c1.009,0.506,1.318,1.106,0.512,1.963c-1.286,1.366-1.399,2.994-1.324,4.741
			c0.107,2.489-1.013,4.799-1.159,7.283c-0.067,1.152-0.2,2.096,0.792,2.836c1.212,0.906,0.994,2.015,0.269,2.991
			c-0.813,1.093-1.656,0.343-2.487-0.188C140.884,101.406,139.782,100.217,140.151,98.155z"/>
		<path style="fill-rule:evenodd;clip-rule:evenodd;fill:#7B491E;" d="M203.24,40.973c0.237-0.336,0.554-0.25,0.586-0.107
			c0.667,2.938,4.868,0.44,5.415,3.529c1.226-0.227,1.953,1.026,3.166,1.009c1.636-0.023,1.831,1.104,1.079,2.162
			c-0.538,0.756-0.574,1.454-0.525,2.219c0.101,1.577,0.105,3.02-1.887,3.48c-0.506,0.117-0.826,0.492-0.28,1.085
			c0.842,0.915,0.316,2.069,0.379,3.112c0.05,0.828-0.772,1.001-1.336,1.176c-0.639,0.198-0.676-0.46-0.87-0.894
			c-0.542-1.21-1.511-2.405,0.132-3.532c0.256-0.175,0.332-0.375,0.055-0.666c-1.31-1.371-1.34-2.406,0.524-3.477
			c1.227-0.705,0.683-2.342-1.145-3.368c-1.165-0.654-2.436-0.998-3.124-2.375c-0.321-0.643-1.344-0.286-2.02-0.231
			c-1.309,0.104-2.338-0.694-2.412-1.623C200.88,41.262,202.104,40.823,203.24,40.973z"/>
		<path style="fill-rule:evenodd;clip-rule:evenodd;fill:#7B491E;" d="M238.189,131.642c2.808-2.266,4.773,0.157,6.67,0.993
			c1.451,0.641,0.731,3.021,0.642,4.633c-0.033,0.595-0.344,1.492-1.155,1.615c-0.627,0.095-1.055-0.546-1.27-1.027
			c-0.792-1.782-1.61-3.014-3.908-3.594c-2.085-0.525-2.939-3.408-4.821-4.822c-0.361-0.272-0.195-1.306,0.493-1.68
			c0.502-0.272,0.922-0.518,1.639,0.024C237.725,128.728,238.35,129.801,238.189,131.642z"/>
		<path style="fill-rule:evenodd;clip-rule:evenodd;fill:#7B491E;" d="M252.098,140.714c0.714-0.925,0.858-2.451,2.615-2.25
			c0.618,0.071,0.333-0.641,0.46-1.003c0.562-1.605,1.879-3.019,0.93-4.98c-0.239-0.496,0.518-1.021,1.166-0.904
			c0.611,0.109,1.341-0.481,1.837,0.53c1.39,2.831,1.134,3.858-1.531,5.626c-0.784,0.521-1.297,1.078-1.21,2.36
			c0.126,1.856-0.796,3.637-1.775,5.269c-0.298,0.495-0.785,0.693-1.305,0.504c-0.392-0.142-0.792-0.48-0.71-0.968
			c0.246-1.458-0.624-2.791-0.427-4.233L252.098,140.714z"/>
		<path style="fill-rule:evenodd;clip-rule:evenodd;fill:#7B491E;" d="M185.977,88.452c3.665-0.502,4.601,0.06,5.976,3.71
			c0.253,0.674,0.33,1.558-0.681,1.646c-2.899,0.253-3.327,2.849-4.337,4.717c-0.477,0.881-1.023,1.575-1.739,1.461
			c-0.814-0.129-0.53-1.191-0.536-1.881c-0.027-3.043,0.971-4.551,3.355-5.065c-1.577-1.168-3.695-2.101-1.986-4.638
			C186.03,88.403,185.977,88.452,185.977,88.452z"/>
		<path style="fill-rule:evenodd;clip-rule:evenodd;fill:#7B491E;" d="M246.594,95.722c0.642,0.309,1.825-0.167,1.943,0.886
			c0.165,1.478,0.444,3.053-0.184,4.459c-0.326,0.731-1.26,0.654-1.896,0.203c-1.933-1.369-2.134-3.819-0.516-5.642
			c-1.742-1.643-1.777-3.861-2.127-6.015c-0.29-1.792,1.193-2.264,2.086-2.3c1.087-0.044,2.164,1.072,1.818,2.387
			C247.199,91.683,247.502,93.807,246.594,95.722z"/>
		<path style="fill-rule:evenodd;clip-rule:evenodd;fill:#7B491E;" d="M202.548,71.223c-0.064,2.386-1.208,4.493-0.979,6.818
			c0.06,0.601-0.62,0.848-1.279,0.857c-0.67,0.01-0.617-0.515-0.9-0.854c-1.758-2.102-0.127-4.52-0.772-6.69
			c2.326-0.989,1.676-3.053,1.9-4.871c0.049-0.398,1.173-1.048,2.002-0.407c0.999,0.772,1.226,1.821,0.546,2.819
			C202.525,69.69,201.95,70.345,202.548,71.223z"/>
		<path style="fill-rule:evenodd;clip-rule:evenodd;fill:#7B491E;" d="M155.964,89.444c-0.119-1.518,0.456-2.391,1.148-3.513
			c1.05-1.701,1.673-3.476,3.831-4.062c0.148-0.041,0.174-0.648,0.199-0.997c0.042-0.557-0.105-1.335,0.813-1.071
			c0.599,0.172,1.071,0.754,0.563,1.425c-0.914,1.207-0.672,2.144,0.322,3.202c0.623,0.663,0.22,1.603-0.209,2.279
			c-0.528,0.834-1.238,0.396-1.871,0.018c-1.292-0.772-1.952-0.58-1.82,1.096c0.036,0.453-0.334,0.923-0.386,1.399
			c-0.134,1.229-0.639,2.514-1.871,2.431C155.226,91.554,156.268,90.029,155.964,89.444z"/>
		<path style="fill-rule:evenodd;clip-rule:evenodd;fill:#7B491E;" d="M179.006,113.972c-0.085,0.273-0.084,0.478-0.175,0.532
			c-1.427,0.863-1.438,2.501-2.123,3.77c-0.814,1.507-1.715,1.422-2.586-0.042c-0.482-0.811-0.92-1.598-0.786-2.582
			c0.154-1.141-0.132-2.081-1.085-2.836c-0.868-0.687-1.049-1.57-0.164-2.386c0.908-0.836,1.761-0.689,2.456,0.343
			c0.119,0.176,0.375,0.3,0.415,0.481c0.353,1.59,1.183,2.422,2.923,2.035C178.486,113.153,178.7,113.702,179.006,113.972z"/>
		<path style="fill-rule:evenodd;clip-rule:evenodd;fill:#7B491E;" d="M247.919,108.941c0.811-0.101,1.477-0.05,1.887,0.875
			c0.251,0.565,0.888,0.753,1.588,0.897c1.26,0.259,2.087,1.089,2.048,2.556c-0.016,0.575-0.283,0.924-0.638,1.291
			c-0.321,0.331-0.99,0.667-1.094,0.417c-1.048-2.523-4.21,1.946-4.915-1.518c-0.08-0.393-0.353-0.77-0.608-1.098
			c-0.482-0.62-1.405-0.961-0.645-2.097C246.165,109.335,246.763,108.726,247.919,108.941z"/>
		<path style="fill-rule:evenodd;clip-rule:evenodd;fill:#7B491E;" d="M154.529,85.488c-0.379-0.164-0.767-0.31-1.134-0.495
			c-1.515-0.763-3.014-1.632-3.66,0.996c-0.085,0.345-0.729,0.824-1.345,0.373c-0.947-0.695-1.452-1.615-1.125-2.773
			c0.248-0.877,1.211-1.084,1.744-0.691c0.704,0.519,0.658,0.768,0.886-0.297c0.323-1.513,2.521-2.433,4.275-1.943
			c1.715,0.479,1.856,2.136,2.095,3.471C156.396,84.859,155.72,85.751,154.529,85.488z"/>
		<path style="fill-rule:evenodd;clip-rule:evenodd;fill:#7B491E;" d="M215.122,80.914c0-1.219,0.051-2.308-0.012-3.391
			c-0.1-1.716,1.146-2.418,2.379-2.465c1.485-0.056,1.607,1.307,1.556,2.54c-0.097,2.312-1.285,3.711-3.414,3.918
			c-0.42,0.041-0.703,0.282-0.828,0.595c-0.545,1.367-1.418,1.524-2.497,0.676c-0.881-0.691-1.001-1.52-0.194-2.413
			c1.053-1.166,1.832-0.467,2.616,0.335C214.768,80.751,214.835,80.768,215.122,80.914z"/>
		<path style="fill-rule:evenodd;clip-rule:evenodd;fill:#7B491E;" d="M244.72,81.861c-0.056,1.055,0.104,2.104-0.373,3.154
			c-0.234,0.515-0.298,0.911-0.941,0.833c-0.519-0.063-1.07,0.199-1.395-0.604c-0.477-1.179-1.03-2.34-1.865-3.351
			c-0.669-0.81-1.011-1.883-0.156-2.673c0.924-0.854,2.156-1.57,3.466-1.137c1.029,0.34,1.283,1.419,1.265,2.478
			C244.712,80.995,244.719,81.428,244.72,81.861z"/>
		<path style="fill-rule:evenodd;clip-rule:evenodd;fill:#7B491E;" d="M210.892,128.095c0.822-0.205,1.548,0.193,1.993,0.631
			c1.406,1.38,2.865,2.349,4.964,1.978c1.132-0.201,1.103,1.213,1.88,1.561c-0.59,0.691-1.144,1.854-2.161,1.411
			c-2.453-1.065-5.386-0.763-7.52-2.674c-0.526-0.472-1.319-0.922-0.959-1.739C209.395,128.568,209.938,127.876,210.892,128.095z"/>
		<path style="fill-rule:evenodd;clip-rule:evenodd;fill:#7B491E;" d="M188.136,60.123c-0.104-0.862-0.079-1.945,1.033-2.416
			c0.894-0.377,1.926-0.961,2.079,0.983c0.147,1.872,1.255,3.541,2.679,4.739c0.615,0.518,0.893,0.95,0.68,1.527
			c-0.22,0.597-0.899,0.875-1.548,0.851C191.065,65.732,188.13,62.425,188.136,60.123z"/>
		<path style="fill-rule:evenodd;clip-rule:evenodd;fill:#7B491E;" d="M151.436,67.939c1.708,0.116,2.275,1.049,2.849,2.074
			c0.442,0.789,0.518,1.432-0.102,2.134c-0.676,0.766-1.395,0.826-2.292,0.371c-1.018-0.516-1.123,0.104-1.237,0.974
			c-0.088,0.668-0.228,1.77-1.146,1.682c-1.236-0.119-1.864-1.234-2.245-2.316c-0.296-0.841,0.488-1.621,1.024-1.639
			c1.337-0.045,1.52-0.734,1.742-1.803C150.189,68.647,150.625,67.716,151.436,67.939z"/>
		<path style="fill-rule:evenodd;clip-rule:evenodd;fill:#7B491E;" d="M172.03,87.523c0.275,1.135-0.467,2.181-1.281,2.564
			c-1.007,0.473-1.408-0.78-1.952-1.519c-0.557-0.756-0.603-2.371-2.398-1.496c-0.602,0.293-0.771-0.743-0.98-1.361
			c-0.271-0.8,0.013-1.348,0.532-1.803c0.512-0.45,1.01-0.243,1.524,0.184c0.417,0.346,0.584,0.962,1.549,0.705
			C171.338,84.18,172.052,84.923,172.03,87.523z"/>
		<path style="fill-rule:evenodd;clip-rule:evenodd;fill:#7B491E;" d="M211.219,95.074c-0.033,1.124-0.325,2.316-2.039,1.933
			c-0.584-0.131-0.535,0.028-0.588,0.392c-0.173,1.205-1.082,1.622-2.057,2.097c-0.855,0.416-1.848,0.532-2.44,0.123
			c-0.712-0.492-0.328-1.62-0.238-2.436c0.1-0.911,1.085-1.003,1.773-1.289c0.31-0.128,0.739-0.119,1.067-0.017
			c1.237,0.382,1.95,0.306,1.982-1.325c0.013-0.66,0.356-1.829,1.523-1.709C211.466,92.973,211.16,94.034,211.219,95.074z"/>
		<path style="fill-rule:evenodd;clip-rule:evenodd;fill:#7B491E;" d="M198.608,138.488c-1.747,0.688-2.494,0.265-2.625-1.558
			c-0.054-0.749,0.187-1.577-1.12-1.064c-0.507,0.198-0.95-0.301-1.042-0.84c-0.16-0.942,0.183-1.909,0.752-2.501
			c0.386-0.4,1.564-0.619,2.051,0.023c0.61,0.806,1.33,0.949,2.206,1.158c1.501,0.358,1.416,1.756,0.779,2.518
			c-0.622,0.745-0.805,1.498-1.051,2.313L198.608,138.488z"/>
		<path style="fill-rule:evenodd;clip-rule:evenodd;fill:#7B491E;" d="M173.283,98.518c-2.12-2.003-2.284-4.597-2.087-7.247
			c0.051-0.681,0.233-1.702,1.346-1.477c0.938,0.19,1.982,0.59,2.063,1.691c0.133,1.794-0.007,3.607,0.05,5.41
			c0.033,1.056-1.135,0.955-1.424,1.666C173.229,98.563,173.283,98.518,173.283,98.518z"/>
		<path style="fill-rule:evenodd;clip-rule:evenodd;fill:#7B491E;" d="M208.766,141.448c-1.711-1.211-2.243-3.168-2.686-5.025
			c-0.246-1.034,0.241-2.318,1.84-2.255c1.168,0.046,2.798-0.568,2.422,1.717C210.026,137.802,211.248,140.136,208.766,141.448z"/>
		<path style="fill-rule:evenodd;clip-rule:evenodd;fill:#7B491E;" d="M197.712,151.912c-0.101-0.971,0.042-2.054,0.723-3.059
			c0.685-1.01,1.586-2.267,2.719-1.688c1.013,0.517,0.665,2.097,0.204,3.116c-0.425,0.941-0.681,1.843-0.599,2.854
			c0.098,1.207-0.259,2.313-1.582,2.287c-1.214-0.023-1.307-1.273-1.456-2.245C197.667,152.825,197.712,152.458,197.712,151.912z"/>
		<path style="fill-rule:evenodd;clip-rule:evenodd;fill:#7B491E;" d="M222.913,70.181c0.657-0.012,1.937-0.262,2.446,0.946
			c0.4,0.95,0.606,2.189-0.178,3.062c-0.712,0.792-1.549,0.38-2.242-0.295c-0.583-0.567-0.89,0.049-1.219,0.37
			c-0.475,0.463-0.939,0.975-1.665,0.591c-0.701-0.371-0.575-1.083-0.584-1.73C219.439,70.696,219.962,70.182,222.913,70.181z"/>
		<path style="fill-rule:evenodd;clip-rule:evenodd;fill:#7B491E;" d="M231.631,73.29c0,0.573,0.112,1.176-0.03,1.71
			c-0.164,0.616-0.64,1.087-1.309,1.26c-0.705,0.182-0.719-0.456-1.007-0.815c-0.619-0.773-1.356-1.453-1.965-2.233
			c-0.533-0.681-1.247-1.421-0.415-2.344c0.807-0.893,1.97-1.3,3.023-1.031c0.874,0.223,1.751,0.963,1.732,2.163
			c-0.007,0.43-0.001,0.86-0.001,1.291C231.651,73.29,231.641,73.29,231.631,73.29z"/>
		<path style="fill-rule:evenodd;clip-rule:evenodd;fill:#7B491E;" d="M182.915,137.047c-0.002-2.778,0.68-3.688,2.603-3.776
			c1.566-0.071,1.927,0.975,1.681,2.019c-0.341,1.446-1.316,2.696-1.65,4.206c-0.094,0.426-0.782,0.719-1.198,1.072
			c-0.484-0.591-1.345-0.899-1.423-1.791C182.876,138.205,182.917,137.625,182.915,137.047z"/>
		<path style="fill-rule:evenodd;clip-rule:evenodd;fill:#7B491E;" d="M185.089,156.057c0.266,1.158-0.248,2.333-0.909,3.421
			c-0.255,0.42-0.219,1.354-0.963,1.152c-0.551-0.148-1.193-0.663-1.146-1.396c0.062-0.985-0.4-1.751-0.756-2.599
			c-0.614-1.467,0.208-2.548,1.375-3.196C184.235,152.582,185.087,153.496,185.089,156.057z"/>
		<path style="fill-rule:evenodd;clip-rule:evenodd;fill:#7B491E;" d="M242.586,159.643c-0.421,0.869-0.58,2.148-1.494,2.571
			c-0.615,0.284-1.408-0.489-1.775-1.375c-0.229-0.554-0.975-0.876-1.284-1.419c-0.336-0.589-0.929-1.089-0.367-2.061
			c0.55-0.952,1.324-1.381,2.158-1.354c0.732,0.023,1.634,0.348,1.87,1.409C241.858,158.15,242.251,158.833,242.586,159.643z"/>
		<path style="fill-rule:evenodd;clip-rule:evenodd;fill:#7B491E;" d="M155.059,95.615c0.007-2.133,1.382-3.015,3.183-1.958
			c0.457,0.268,0.845,0.454,1.366,0.477c0.956,0.042,1.138,0.693,1.106,1.504c-0.041,1.002-0.804,0.564-1.286,0.652
			c-0.567,0.104-1.466-0.27-1.309,0.843c0.166,1.166-0.429,1.912-1.417,1.993c-0.924,0.076-0.81-1.122-1.261-1.675
			C154.984,96.887,155.053,96.253,155.059,95.615z"/>
		<path style="fill-rule:evenodd;clip-rule:evenodd;fill:#7B491E;" d="M182.622,128.652c0.837-1.307-0.516-3.179,1.099-4.18
			c0.714-0.442,1.464-1.292,2.445-0.345c0.852,0.821,0.995,1.809,0.337,2.677c-0.545,0.721-0.672,1.534-0.954,2.307
			c-0.319,0.876-0.707,1.655-1.744,1.531C182.634,130.501,183.075,129.254,182.622,128.652z"/>
		<path style="fill-rule:evenodd;clip-rule:evenodd;fill:#7B491E;" d="M193.783,141.141c0.372,1.727-1.034,3.383-2.638,3.396
			c-1.854,0.015-1.516-1.797-1.649-2.893c-0.23-1.899,0.711-2.637,2.613-2.718C193.923,138.85,193.862,139.973,193.783,141.141z"/>
		<path style="fill-rule:evenodd;clip-rule:evenodd;fill:#7B491E;" d="M237.721,76.787c0,0.578,0.188,1.247-0.04,1.713
			c-0.438,0.894-1.056,1.917-2.153,0.544c-0.502-0.628-1.08-1.218-1.46-1.914c-0.49-0.896-1.269-1.869-0.157-2.875
			c0.68-0.615,1.418-0.998,2.396-0.639c1.214,0.447,1.574,1.329,1.451,2.52c-0.021,0.215-0.003,0.434-0.003,0.65
			C237.744,76.787,237.732,76.787,237.721,76.787z"/>
		<path style="fill-rule:evenodd;clip-rule:evenodd;fill:#7B491E;" d="M183.648,74.98c0.286-1.261-0.096-2.681,1.573-2.598
			c1.293,0.064,1.606,1.218,1.55,2.164c-0.066,1.127-0.64,2.104-2.127,1.523c-0.594-0.232-0.758,0.27-0.828,0.621
			c-0.224,1.125-0.859,2.195-1.954,1.612c-1.212-0.646-1.044-2.248-0.63-3.377C181.775,73.445,182.772,74.108,183.648,74.98z"/>
		<path style="fill-rule:evenodd;clip-rule:evenodd;fill:#7B491E;" d="M263.492,156.829c0.001,1.426-1.522,3.027-0.961,5.012
			c0.164,0.58-0.419,0.667-0.86,0.602c-0.438-0.064-1.059,0.316-1.257-0.427c-0.174-0.655-0.526-1.636,0.082-1.899
			c1.527-0.661,0.784-1.381,0.28-2.151c-0.648-0.992-0.501-2.089-0.261-3.101c0.214-0.903,1.15-0.729,1.841-0.657
			C263.793,154.357,263.348,155.516,263.492,156.829z"/>
		<path style="fill-rule:evenodd;clip-rule:evenodd;fill:#7B491E;" d="M266.047,140.674c0.12,1.396-0.696,2.572-0.978,3.878
			c-0.193,0.896-1.687,0.659-1.774,0.021c-0.196-1.418-1.195-2.544-1.177-3.992c0.018-1.299,0.556-2.036,1.909-2.064
			C265.505,138.486,266.106,139.272,266.047,140.674z"/>
		<path style="fill-rule:evenodd;clip-rule:evenodd;fill:#7B491E;" d="M250.553,130.689c0.919,0.564,1.973,0.468,3.219,0.106
			c0.732-0.213,1.57,0.856,1.806,1.81c0.236,0.955-0.387,1.365-1.19,1.734c-1.281,0.589-1.36-0.54-1.825-1.138
			c-0.145-0.186,0.22-0.856-0.477-0.505c-0.348,0.176-0.831,0.159-0.851,0.783c-0.034,1.123-0.923,1.344-1.683,1.05
			c-0.697-0.269-0.739-1.122-0.575-1.858C249.165,131.828,248.862,130.644,250.553,130.689z"/>
		<path style="fill-rule:evenodd;clip-rule:evenodd;fill:#7B491E;" d="M252.148,140.665c-1.647,0.149-0.682,1.41-0.876,2.151
			c-0.2,0.768,0.338,2.04-0.829,2.108c-1.016,0.061-1.517-0.952-1.36-2.02c0.113-0.77-0.195-1.418-0.553-2.003
			c-0.668-1.094-0.373-1.953,0.565-2.59c0.684-0.464,1.521-1.037,2.361-0.559c1.214,0.691,0.482,1.954,0.642,2.961L252.148,140.665z
			"/>
		<path style="fill-rule:evenodd;clip-rule:evenodd;fill:#7B491E;" d="M191.45,101c0.844,0.388,1.564,1.019,1.14,1.863
			c-0.938,1.864-2.881,3.078-3.314,5.375c-0.105,0.556-1.599,0.46-1.97-0.624c-0.156-0.453-0.002-1.003-0.049-1.504
			c-0.059-0.627,0.108-1.425,0.623-1.458C190.182,104.501,189.458,101.452,191.45,101z"/>
		<path style="fill-rule:evenodd;clip-rule:evenodd;fill:#7B491E;" d="M258.204,157.673c0.497,1.016-0.722,2.022-0.244,3.308
			c0.204,0.55-1.082,1.066-1.61,0.928c-0.531-0.14-1.572-0.628-0.907-1.706c0.596-0.966,0.883-1.88-0.171-2.803
			c-0.226-0.197-0.043-0.826-0.113-1.247c-0.163-0.972,0.196-1.816,1.134-1.864c0.982-0.051,1.562,0.871,1.884,1.736
			C258.339,156.465,258.204,157.019,258.204,157.673z"/>
		<path style="fill-rule:evenodd;clip-rule:evenodd;fill:#7B491E;" d="M204.669,147.489c0.117-0.717-0.154-1.48,0.353-2.24
			c0.593-0.89,1.473-1.474,2.3-1.129c0.797,0.333,1.529,1.237,0.947,2.41c-0.216,0.435-0.429,0.911-0.467,1.383
			c-0.1,1.24-0.371,2.484-1.878,2.298C204.423,150.025,204.711,148.613,204.669,147.489z"/>
		<path style="fill-rule:evenodd;clip-rule:evenodd;fill:#7B491E;" d="M182.042,147.099c-0.079-0.98-0.134-2.139,1.388-2.886
			c0.852-0.418,1.348-0.646,2.021,0.1c0.72,0.798,0.746,1.585,0.154,2.462c-0.486,0.721-1.093,1.428-1.326,2.233
			c-0.238,0.821-0.511,1.394-1.398,1.217c-0.926-0.186-0.858-1.001-0.84-1.729C182.049,148.136,182.042,147.775,182.042,147.099z"/>
		<path style="fill-rule:evenodd;clip-rule:evenodd;fill:#7B491E;" d="M212.176,85.946c0.062,0.852-0.505,1.841-1.725,2.358
			c-0.303,0.128-3.683-2.639-3.574-2.833c0.418-0.752,0.429-1.886,1.767-1.788C211.937,83.924,212.341,84.106,212.176,85.946z"/>
		<path style="fill-rule:evenodd;clip-rule:evenodd;fill:#7B491E;" d="M261.267,148.781c0.062-1.06-0.338-2.366,1.084-2.837
			c1.005-0.332,1.794,0.23,2.347,1.061c0.396,0.596-0.363,4.531-1.001,4.829c-0.606,0.284-1.145,0.356-1.743-0.473
			C261.333,150.5,261.23,149.714,261.267,148.781z"/>
		<path style="fill-rule:evenodd;clip-rule:evenodd;fill:#7B491E;" d="M193.145,145.918c0.927-0.064,1.271,0.333,1.587,1.272
			c0.416,1.233-0.022,2.318-0.125,3.438c-0.106,1.146-1.523,1.479-2.257,0.552c-0.968-1.225-1.607-2.538-0.799-4.215
			C191.931,146.176,192.334,145.849,193.145,145.918z"/>
		<path style="fill-rule:evenodd;clip-rule:evenodd;fill:#7B491E;" d="M211.639,91.339c-0.044-1.948,1.279-4.161,2.539-4.171
			c1.097-0.009,1.732,0.594,1.804,1.688c0.084,1.288-1.942,3.917-2.991,3.959C211.945,92.857,211.586,92.291,211.639,91.339z"/>
		<path style="fill-rule:evenodd;clip-rule:evenodd;fill:#7B491E;" d="M252.089,150.098c0,0.506,0.081,1.028-0.021,1.514
			c-0.122,0.583-0.611,1.042-1.125,1.192c-0.55,0.161-0.795-0.379-1.033-0.862c-0.307-0.626-0.697-1.238-1.168-1.748
			c-0.756-0.817-0.803-1.756-0.245-2.535c0.416-0.582,1.287-1.18,2.035-0.763c0.829,0.462,1.748,1.087,1.591,2.334
			c-0.036,0.285-0.006,0.578-0.006,0.868C252.108,150.098,252.099,150.098,252.089,150.098z"/>
		<path style="fill-rule:evenodd;clip-rule:evenodd;fill:#7B491E;" d="M198.558,138.538c2.531-0.024,4.212,1.497,3.928,3.602
			c-0.093,0.682-0.301,1.283-1.033,1.685c-0.947,0.52-1.082-0.388-1.506-0.709c-1.573-1.194-2.279-2.684-1.338-4.627
			L198.558,138.538z"/>
		<path style="fill-rule:evenodd;clip-rule:evenodd;fill:#7B491E;" d="M257.261,148.872c0.45,1.427-0.289,2.524-1.321,2.859
			c-0.956,0.312-1.171-1.117-1.675-1.779c-0.688-0.906-0.661-1.964,0.025-2.915c0.396-0.548,0.868-0.858,1.643-0.56
			C257.122,146.936,257.679,147.661,257.261,148.872z"/>
		<path style="fill-rule:evenodd;clip-rule:evenodd;fill:#7B491E;" d="M191.13,160.853c0.388,1.328-0.396,2.383-1.449,2.261
			c-1.248-0.146-2.972-0.924-3.074-2.255c-0.139-1.791,2.076-1.483,3.181-2.097C190.359,158.446,191.532,159.562,191.13,160.853z"/>
		<path style="fill-rule:evenodd;clip-rule:evenodd;fill:#7B491E;" d="M170.309,118.667c-0.075,0.973,0.282,2.102-0.637,2.254
			c-0.712,0.119-1.669-0.335-1.806-1.532c-0.062-0.544-0.623-1.077-1.054-1.524c-0.756-0.784-0.415-1.323,0.197-1.99
			c0.771-0.841,1.605-0.386,2.052,0.077C169.798,116.717,170.685,117.585,170.309,118.667z"/>
		<path style="fill-rule:evenodd;clip-rule:evenodd;fill:#7B491E;" d="M207.682,154.525c-0.001,0.501,0.065,1.015-0.018,1.502
			c-0.113,0.669-0.786,0.77-1.281,0.977c-0.541,0.226-0.659-0.293-0.839-0.649c-0.369-0.733-0.755-1.458-1.114-2.196
			c-0.556-1.146-0.073-2.091,0.936-2.463c1.231-0.454,1.916,0.503,2.295,1.549C207.798,153.624,207.683,154.095,207.682,154.525z"/>
		<path style="fill-rule:evenodd;clip-rule:evenodd;fill:#7B491E;" d="M223.457,79.977c-0.077,0.487-0.008,1.287-0.258,1.403
			c-0.764,0.355-0.378,1.758-1.582,1.599c-1.211-0.16-1.397-1.222-1.497-2.029c-0.1-0.82,0.202-1.753,0.546-2.542
			c0.243-0.558,0.867-1.113,1.584-0.759C223.159,78.098,223.613,78.897,223.457,79.977z"/>
		<path style="fill-rule:evenodd;clip-rule:evenodd;fill:#7B491E;" d="M222.757,129.305c-0.714-0.263-1.869-0.542-2.863-1.104
			c-0.695-0.395-0.597-1.25-0.158-1.896c0.535-0.788,1.337-1.179,2.212-0.699c0.785,0.432,1.45,1.086,2.16,1.651
			c0.48,0.384,0.789,0.884,0.507,1.482C224.338,129.327,223.769,129.458,222.757,129.305z"/>
		<path style="fill-rule:evenodd;clip-rule:evenodd;fill:#7B491E;" d="M195.117,53.409c0-0.505-0.13-1.056,0.027-1.506
			c0.344-0.982,1.096-1.383,2.183-1.326c1.291,0.068,0.661,1.001,0.818,1.581c0.244,0.899-0.283,1.674-0.534,2.449
			c-0.204,0.628-0.368,1.835-1.394,1.543c-0.804-0.229-1.308-1.084-1.123-2.092c0.039-0.209,0.005-0.432,0.005-0.649
			C195.106,53.409,195.111,53.409,195.117,53.409z"/>
		<path style="fill-rule:evenodd;clip-rule:evenodd;fill:#7B491E;" d="M194.794,69.459c0.825,0.808,1.649,1.403,1.556,2.333
			c-0.102,1.009-0.553,1.991-0.917,2.959c-0.091,0.242-0.237,0.61-0.747,0.454c-1.678-0.513-1.608-1.976-1.733-3.245
			C192.825,70.655,194.067,70.338,194.794,69.459z"/>
		<path style="fill-rule:evenodd;clip-rule:evenodd;fill:#7B491E;" d="M216.862,84.62c-0.306-1.413,0.29-2.535,1.956-2.636
			c1.172-0.071,1.538,1.198,1.445,1.962c-0.171,1.403-0.837,2.728-2.531,2.951C216.964,86.999,216.866,86.72,216.862,84.62z"/>
		<path style="fill-rule:evenodd;clip-rule:evenodd;fill:#7B491E;" d="M178.573,90.427c-0.302-1.252,0.356-1.897,1.649-1.953
			c1.489-0.064,1.848,1.221,1.723,2.139c-0.124,0.915,0.15,2.682-1.477,2.548C179.245,93.06,178.407,91.997,178.573,90.427z"/>
		<path style="fill-rule:evenodd;clip-rule:evenodd;fill:#7B491E;" d="M245.164,143.892c-0.109,1.236-0.529,2.747-1.757,2.735
			c-1.189-0.013-1.743-1.477-1.723-2.77c0.018-1.188,0.397-1.954,1.876-1.899C244.98,142.01,245.281,142.689,245.164,143.892z"/>
		<path style="fill-rule:evenodd;clip-rule:evenodd;fill:#7B491E;" d="M241.25,151.837c0.165-0.865-0.519-2.379,1.005-2.351
			c1.249,0.024,2.136,1.066,2.024,2.535c-0.087,1.14-0.145,2.594-1.625,2.512C241.21,154.455,241.097,153.088,241.25,151.837z"/>
		<path style="fill-rule:evenodd;clip-rule:evenodd;fill:#7B491E;" d="M223.145,131.113c1.816-0.026,2.726,0.638,2.848,2.161
			c0.082,1.034-0.601,1.576-1.46,1.278c-1.249-0.433-3.181-0.275-3.247-2.184C221.244,131.185,222.485,131.099,223.145,131.113z"/>
		<path style="fill-rule:evenodd;clip-rule:evenodd;fill:#7B491E;" d="M182.034,103.041c-0.072-1.088,0.081-2.279,1.761-2.38
			c1.249-0.075,1.349,0.802,1.292,1.738c-0.089,1.45-0.49,3.129-1.92,3.333C181.934,105.908,182.064,104.292,182.034,103.041z"/>
		<path style="fill-rule:evenodd;clip-rule:evenodd;fill:#7B491E;" d="M191.618,98.393c0-0.447,0.009-0.733-0.001-1.02
			c-0.034-0.874-0.053-1.654,1.041-2.044c0.732-0.261,1.25,0.02,1.605,0.42c0.687,0.771,0.643,1.668-0.031,2.492
			c-0.136,0.167-0.374,0.329-0.384,0.503c-0.063,1.07-0.64,1.998-1.63,1.82C190.868,100.322,192.006,98.987,191.618,98.393z"/>
		<path style="fill-rule:evenodd;clip-rule:evenodd;fill:#7B491E;" d="M187.708,70.204c0.258-0.812,0.172-2.1,1.759-2.202
			c1.487-0.097,2.179,0.829,1.522,2.133c-0.182,0.36-0.616,0.556-0.682,1.041c-0.13,0.947-0.709,1.771-1.647,1.542
			C187.637,72.467,187.683,71.351,187.708,70.204z"/>
		<path style="fill-rule:evenodd;clip-rule:evenodd;fill:#7B491E;" d="M193.355,48.647c0.027,1.285,0.007,3.029-1.106,2.949
			c-1.319-0.095-1.798-1.841-1.912-3.218c-0.09-1.101,0.938-2.013,1.621-2.003C193.249,46.395,193.502,47.614,193.355,48.647z"/>
		<path style="fill-rule:evenodd;clip-rule:evenodd;fill:#7B491E;" d="M192.919,155.841c-0.12-1.185,0.429-2.198,1.645-2.44
			c0.854-0.17,1.93,0.974,1.673,1.41c-0.704,1.196-0.399,3.302-2.169,3.48C193.224,158.376,192.901,156.954,192.919,155.841z"/>
		<path style="fill-rule:evenodd;clip-rule:evenodd;fill:#7B491E;" d="M233.213,128.862c-0.413,0.471-0.022,1.772-1.172,1.35
			c-1.276-0.471-3.033-0.394-3.395-2.218c-0.159-0.803,0.459-1.366,1.164-1.495C230.854,126.306,233.2,128.058,233.213,128.862z"/>
		<path style="fill-rule:evenodd;clip-rule:evenodd;fill:#7B491E;" d="M244.694,106.046c0.018-1.526,0.544-2.313,1.874-2.344
			c1.748-0.042,0.803,1.723,1.556,2.354c-0.587,0.597-0.104,2.149-1.499,1.944C245.492,107.835,244.376,107.34,244.694,106.046z"/>
		<path style="fill-rule:evenodd;clip-rule:evenodd;fill:#7B491E;" d="M201.627,159.167c0.061,0.928-0.219,1.635-1.293,1.531
			c-1.612-0.155-2.044-1.403-2.158-2.723c-0.096-1.114,0.771-1.228,1.635-1.176C201.323,156.889,201.718,157.843,201.627,159.167z"
			/>
		<path style="fill-rule:evenodd;clip-rule:evenodd;fill:#7B491E;" d="M256.124,111.521c1.546,0.159,1.87,1.49,1.874,2.345
			c0.003,0.708-0.312,2.218-1.438,2.228c-1.439,0.012-1.607-1.52-1.743-2.528C254.711,112.776,255.101,111.731,256.124,111.521z"/>
		<path style="fill-rule:evenodd;clip-rule:evenodd;fill:#7B491E;" d="M193.792,54.361c0.036,0.98,0.051,1.978-1.354,1.88
			c-1.222-0.084-1.71-0.843-1.694-2.016c0.018-1.217,0.654-1.865,1.831-1.873C194.015,52.343,193.769,53.458,193.792,54.361z"/>
		<path style="fill-rule:evenodd;clip-rule:evenodd;fill:#7B491E;" d="M231.346,131.542c1.405-0.019,2.229,0.854,2.363,1.729
			c0.125,0.807-0.812,1.353-1.827,1.343c-1.29-0.012-2.165-0.822-2.265-1.837C229.547,132.056,230.496,131.345,231.346,131.542z"/>
		<path style="fill-rule:evenodd;clip-rule:evenodd;fill:#7B491E;" d="M147.645,77.016c0.067,1.078-0.05,1.936-1.304,1.858
			c-1.226-0.076-1.735-0.812-1.739-2.008c-0.004-1.013,0.599-1.952,1.389-1.756C146.671,75.279,148.061,75.7,147.645,77.016z"/>
		<path style="fill-rule:evenodd;clip-rule:evenodd;fill:#7B491E;" d="M149.486,102.82c-1.191,0.117-2.138-0.332-2.214-1.499
			c-0.104-1.594,1.49-0.972,2.283-1.289c0.327-0.131,1.714-0.22,1.623,1.219C151.1,102.492,150.618,102.951,149.486,102.82z"/>
		<path style="fill-rule:evenodd;clip-rule:evenodd;fill:#7B491E;" d="M169.538,121.907c1.845,0.114,2.655,0.868,2.918,2.205
			c0.17,0.86-0.539,1.232-1.06,1.694c-0.724-0.965-2.228-1.231-2.408-2.677C168.897,122.397,169.008,121.805,169.538,121.907z"/>
		<path style="fill-rule:evenodd;clip-rule:evenodd;fill:#7B491E;" d="M209.453,60.77c-0.329,0.778-0.396,2.154-1.595,2.355
			c-0.792,0.133-1.639-0.746-1.397-1.732c0.25-1.022,0.572-2.146,2.095-2.12C209.604,59.291,209.471,59.905,209.453,60.77z"/>
		<path style="fill-rule:evenodd;clip-rule:evenodd;fill:#7B491E;" d="M199.488,42.798c-0.119,0.849-0.547,1.584-1.257,1.476
			c-0.985-0.15-2.142-0.432-2.255-1.809c-0.081-0.976,0.368-1.366,1.364-1.475C198.847,40.827,199.002,41.972,199.488,42.798z"/>
		<path style="fill-rule:evenodd;clip-rule:evenodd;fill:#7B491E;" d="M224.802,78.28c-0.407-1.583,0.137-2.556,1.466-2.722
			c0.552-0.069,1.246,0.547,1.051,1.481c-0.253,1.212-0.564,2.518-1.969,2.65C224.047,79.813,225.153,78.524,224.802,78.28z"/>
		<path style="fill-rule:evenodd;clip-rule:evenodd;fill:#7B491E;" d="M249.882,154.64c1.21,0.209,1.801,1.192,2.132,2.08
			c0.219,0.588-0.409,1.542-1.259,1.593c-1.205,0.07-1.912-0.866-2.021-1.882C248.667,155.814,249.055,154.932,249.882,154.64z"/>
		<path style="fill-rule:evenodd;clip-rule:evenodd;fill:#7B491E;" d="M197.38,104.019c-0.621,0.575-0.646,1.926-1.704,1.761
			c-0.788-0.123-1.348-1.083-1.44-2.035c-0.091-0.937,0.578-1.725,1.256-1.675C196.363,102.133,197.001,102.989,197.38,104.019z"/>
		<path style="fill-rule:evenodd;clip-rule:evenodd;fill:#7B491E;" d="M165.094,114.178c-0.064,0.917,0.034,1.613-0.984,1.423
			c-1.105-0.207-2.085-0.723-2.292-1.817c-0.086-0.458,0.37-1.548,1.319-1.345C164.165,112.659,165.323,112.958,165.094,114.178z"/>
		<path style="fill-rule:evenodd;clip-rule:evenodd;fill:#7B491E;" d="M206.856,65.007c-0.098,0.961-0.643,1.704-1.599,1.633
			c-0.903-0.065-1.523-0.771-1.442-1.799c0.068-0.885,0.654-1.661,1.441-1.516C205.929,63.449,207.042,63.756,206.856,65.007z"/>
		<path style="fill-rule:evenodd;clip-rule:evenodd;fill:#7B491E;" d="M215.127,127.034c-0.065-1.021,0.27-1.612,1.323-1.574
			c1.023,0.037,1.688,0.646,1.66,1.572c-0.025,0.864-0.813,1.684-1.595,1.672C215.765,128.692,214.858,128.122,215.127,127.034z"/>
		<path style="fill-rule:evenodd;clip-rule:evenodd;fill:#7B491E;" d="M205.974,90.189c-0.462-1.159-0.532-2.217,0.979-2.572
			c1.215-0.285,1.499,0.513,1.788,1.533c0.198,0.702-0.187,0.877-0.5,1.156c-0.805,0.717-1.568,0.272-2.314-0.169
			C205.925,90.136,205.974,90.189,205.974,90.189z"/>
		<path style="fill-rule:evenodd;clip-rule:evenodd;fill:#7B491E;" d="M152.451,101.938c-0.065-1.011,0.124-1.712,1.338-1.741
			c1.191-0.029,1.571,1.004,1.588,1.636c0.027,1.005-0.873,1.413-1.939,1.454C152.255,103.331,152.44,102.592,152.451,101.938z"/>
		<path style="fill-rule:evenodd;clip-rule:evenodd;fill:#7B491E;" d="M165.924,108.877c0.566,0.447,1.529,0.697,1.69,1.489
			c0.171,0.841-0.579,1.515-1.376,1.546c-1.021,0.041-2.142-0.601-2.301-1.48C163.817,109.765,165.087,109.374,165.924,108.877z"/>
		<path style="fill-rule:evenodd;clip-rule:evenodd;fill:#7B491E;" d="M192.445,42.766c0.99-0.036,1.849,0.058,1.742,1.152
			c-0.079,0.812-0.706,1.545-1.556,1.393c-0.809-0.145-1.968-0.342-1.848-1.599C190.886,42.632,191.81,42.744,192.445,42.766z"/>
		<path style="fill-rule:evenodd;clip-rule:evenodd;fill:#7B491E;" d="M190.612,113.644c-1.22-0.678-1.75-1.696-1.025-2.755
			c0.356-0.521,1.573-0.556,2.103,0.126C192.829,112.484,191.017,112.785,190.612,113.644z"/>
		<path style="fill-rule:evenodd;clip-rule:evenodd;fill:#7B491E;" d="M247.329,160.037c-0.019-0.96,0.296-1.572,1.229-1.468
			c0.958,0.107,0.958,0.881,0.955,1.634c-0.004,0.849-0.304,1.454-1.233,1.351C247.324,161.447,247.287,160.676,247.329,160.037z"/>
		<path style="fill-rule:evenodd;clip-rule:evenodd;fill:#7B491E;" d="M173.036,120.238c0.899-0.062,1.588,0.133,1.609,1.234
			c0.014,0.741-0.214,1.325-1.029,1.356c-1.235,0.046-1.387-1.191-1.752-1.895C171.562,120.351,172.475,120.239,173.036,120.238z"/>
		<path style="fill-rule:evenodd;clip-rule:evenodd;fill:#7B491E;" d="M168.224,110.413c0.934-0.461,1.878-1.244,2.783-0.047
			c0.416,0.551,0.161,1.163-0.416,1.448C169.158,112.524,168.872,111.16,168.224,110.413z"/>
		<path style="fill-rule:evenodd;clip-rule:evenodd;fill:#7B491E;" d="M203.026,162.053c-0.919-0.327-0.97-0.933-0.974-1.612
			c-0.005-0.663,0.073-1.115,0.92-1.044c0.745,0.062,1.262,0.312,1.252,1.129C204.214,161.395,203.418,161.589,203.026,162.053z"/>
		<path style="fill-rule:evenodd;clip-rule:evenodd;fill:#7B491E;" d="M374.984,205.502c-0.463-0.88-2.062-1.158-1.146-2.612
			c0.254-0.402,0.613-0.487,1.082-0.132C376.048,203.613,375.85,204.477,374.984,205.502z"/>
		<path style="fill-rule:evenodd;clip-rule:evenodd;fill:#7B491E;" d="M177.256,126.499c0.085,0.66-0.373,0.724-0.943,0.704
			c-0.771-0.026-1.256-0.36-1.213-1.166c0.036-0.675,0.469-1.053,1.148-0.994C177.063,125.113,177.284,125.688,177.256,126.499z"/>
		<path style="fill-rule:evenodd;clip-rule:evenodd;fill:#7B491E;" d="M3.503,181.117c0.203-0.843,0.492-1.143,0.947-1.211
			c0.42-0.063,0.396,0.299,0.438,0.573c0.081,0.521-0.264,0.896-0.633,1.01C4.018,181.562,3.644,181.193,3.503,181.117z"/>
		<path style="fill-rule:evenodd;clip-rule:evenodd;fill:#7B491E;" d="M207.72,133.162c-0.349,0.051-0.587,0.123-0.819,0.105
			c-0.129-0.009-0.531,0.041-0.288-0.312c0.124-0.181,0.223-0.564,0.58-0.364C207.364,132.686,207.474,132.887,207.72,133.162z"/>
		<path style="fill-rule:evenodd;clip-rule:evenodd;fill:none;" d="M78.016,146.616c-0.382-1.321,0.973-2.767,0.751-4.046
			c-0.536-3.088,1.21-6.545-1.409-9.291c-0.296-0.311-0.157-0.596,0.056-0.945c0.984-1.617,0.702-3.128-0.639-4.38
			c-0.852-0.796-0.361-1.343,0.262-1.701c2.229-1.281,2.715-3.579,3.449-5.721c0.519-1.514-0.19-2.927-0.6-4.344
			c-0.408-1.411,0.015-1.767,1.467-1.521c2.184,0.369,3.542,1.48,4.025,3.644c0.031,0.14-0.028,0.366,0.047,0.418
			c3.283,2.262,1.991,6.345,3.664,9.182c1.377,2.335,0.173,3.416-1.485,4.5c-1.741,1.139-3.495,2.265-5.3,3.297
			c-1.51,0.863-2.168,2.068-2.127,3.795c0.06,2.532,0.018,5.067,0.013,7.602c-0.001,0.505,0.113,1.074-0.079,1.5
			c-0.284,0.63-0.716,1.34-1.587,1.195c-0.891-0.147-0.415-0.92-0.491-1.412C77.957,147.892,78.016,147.375,78.016,146.616z"/>
		<path style="fill-rule:evenodd;clip-rule:evenodd;fill:none;" d="M34.089,174.323c-0.301,0.864,0.582,1.88-0.58,2.459
			c-0.159,0.08-0.661-0.118-0.694-0.26C32.578,175.503,32.904,174.732,34.089,174.323z"/>
		<path style="fill-rule:evenodd;clip-rule:evenodd;fill:none;" d="M358.765,110.282c0.516,0.842,0.589,1.682,0.048,2.839
			C358.116,111.992,358.265,111.141,358.765,110.282z"/>
		<path style="fill-rule:evenodd;clip-rule:evenodd;fill:none;" d="M55.388,60.72c1.776,1.702,1.22,3.754,1.28,5.667
			c0.005,0.176,0.171,0.661-0.34,0.489c-0.437-0.146-0.976-0.174-0.955-0.913C55.421,64.263,55.388,62.56,55.388,60.72z"/>
		<path style="fill-rule:evenodd;clip-rule:evenodd;fill:none;" d="M67.653,61.832c-0.65,0.246-1.487-0.231-2.008,0.499
			c-0.45,0.63-0.911,0.114-1.257-0.058c-0.562-0.279-0.406-0.983-0.212-1.326c0.22-0.388,0.679-0.637,1.351-0.513
			c0.978,0.181,1.404,0.949,2.078,1.45C67.606,61.881,67.653,61.832,67.653,61.832z"/>
		<path style="fill-rule:evenodd;clip-rule:evenodd;fill:none;" d="M183.425,84.594c-0.214,0.15-0.35,0.322-0.503,0.338
			c-0.368,0.04-0.463-0.257-0.388-0.526c0.035-0.123,0.317-0.258,0.469-0.24C183.138,84.183,183.249,84.404,183.425,84.594z"/>
	</g>
</g>
</svg>
