<?xml version="1.0" encoding="iso-8859-1"?>
<!-- Generator: Adobe Illustrator 16.0.0, SVG Export Plug-In . SVG Version: 6.00 Build 0)  -->
<!DOCTYPE svg PUBLIC "-//W3C//DTD SVG 1.1//EN" "http://www.w3.org/Graphics/SVG/1.1/DTD/svg11.dtd">
<svg version="1.1" id="Layer_1" xmlns="http://www.w3.org/2000/svg" xmlns:xlink="http://www.w3.org/1999/xlink" x="0px" y="0px"
	 width="401.089px" height="146.163px" viewBox="0 0 401.089 146.163" style="enable-background:new 0 0 401.089 146.163;"
	 xml:space="preserve">
<g>
	<g>
		<path style="fill:none;" d="M200.544,145.619c-65.971,0-131.943-0.009-197.914,0.043c-1.738,0.002-2.132-0.391-2.13-2.129
			c0.055-47.045,0.054-94.09,0-141.136C0.499,0.811,0.812,0.499,2.398,0.5c132.098,0.047,264.194,0.047,396.292,0
			c1.587-0.001,1.9,0.311,1.898,1.897c-0.055,47.123-0.055,94.245,0,141.367c0.002,1.587-0.312,1.899-1.898,1.898
			C332.642,145.611,266.593,145.619,200.544,145.619z M183.254,109.372c1.408,0.693,2.636-0.23,3.578-1.108
			c2.291-2.137,4.677-4.069,6.595-6.741c4.233-5.898,9.236-11.233,13.37-17.249c1.298-1.889,2.927-3.385,2.91-6.03
			c-0.008-1.304,1.004-2.851,1.983-3.878c2.76-2.896,6.017-5.263,9.035-7.883c1.802-1.563,3.828-3.531,4.01-5.864
			c0.308-3.947,2.585-6.401,5.178-8.725c2.513-2.252,4.409-8.187,2.732-11.028c-1.104-1.872-1.313-3.648-1.282-5.633
			c0.051-3.165-1.635-5.836-2.591-8.706c-0.301-0.904-1.242-1.506-2.249-2.002c-2.389-1.179-4.617-2.676-6.959-3.956
			c-0.847-0.462-1.234-1.075-1.712-1.913c-3.646-6.394-9.367-9.01-16.718-6.754c-1.724,0.529-2.77,2.38-4.845,2.113
			c-1.347-0.174-2.726-0.145-3.963,0.705c-0.583,0.4-1.342,0.28-2.008,0.074c-5.254-1.624-9.475,1.149-9.379,6.55
			c0.044,2.458,0.235,4.232-2.981,3.834c-0.215-0.027-0.459,0.372-0.723,0.509c-4.532,2.352-6.516,6.499-7.46,11.158
			c-0.761,3.757-1.905,8.025,1.308,11.007c2.645,2.454,3.902,4.967,4.182,8.479c0.307,3.849,2.43,7.201,4.135,10.581
			c1.134,2.246,2.954,4.122,5.291,5.342c3.207,1.673,6.758,1.886,10.229,2.448c0.48,0.078,1.27-0.22,1.184,0.646
			c-0.147,1.474,0.295,2.897-0.523,4.448c-1.958,3.705-3.64,7.567-6.42,10.759c-2.199,2.524-3.441,5.651-5.417,8.285
			c-1.692,2.255-4.168,3.838-5.73,6.262c-0.536,0.832-0.758,1.733,0.072,2.204C179.662,108.199,180.896,110.014,183.254,109.372z
			 M259.188,130.173c-0.011,3.396-0.011,3.396,3.345,3.396c1.39,0,2.781-0.049,4.168,0.008c4.981,0.203,9.972-0.377,14.959,0.391
			c1.851,0.284,3.847,0.363,5.727-0.139c1.744-0.467,3.44-1.518,5.168-1.541c2.105-0.029,3.376-1.152,4.713-2.315
			c1.453-1.263,2.349-2.982,1.638-4.854c-0.422-1.111-0.802-2.259-1.148-3.38c-0.656-2.124-2.01-3.34-3.854-4.504
			c-1.495-0.944-2.918-2.304-2.803-4.642c0.222-4.501-4.722-7.358-8.754-5.726c-1.475,0.598-3.201,0.668-4.671-0.059
			c-2.822-1.396-5.184-1.086-7.453,1.074c-0.968,0.921-1.495,2.074-2.162,3.166c-0.746,1.221-1.397,2.578-3.146,2.588
			c-2.75,0.017-5.045,1.273-7.158,2.828c-0.89,0.654-1.592,1.54-0.557,2.905c1.941,2.56,4.802,4.997,2.035,8.752
			C258.901,128.572,259.188,129.479,259.188,130.173z M318.473,36.878c-0.297,0.326-0.458,0.666-0.705,0.75
			c-3.073,1.041-3.313,3.126-2.582,5.944c0.427,1.645,0.447,3.667-1.552,4.614c-1.721,0.815-2.226,2.056-2.114,3.854
			c0.079,1.279,0.315,2.506-1.229,3.571c-1.025,0.707-1.729,2.561-0.46,4.055c1.384,1.63,3.301,1.479,5.866-0.235
			c1.584-1.059,1.093-2.264,0.456-3.513c-0.598-1.172-0.823-2.013,0.834-2.587c1.824-0.632,2.465-2.794,1.492-4.252
			c-0.912-1.368-0.912-1.368,0.83-2.026c0.525,5.626,1.196,6.146,5.78,4.482c1.74-0.632,3.028-3.1,2.681-5.198
			c-0.376-2.267-2.165-1.685-3.619-1.759c-0.309-0.016-0.618-0.006-0.927-0.001c-1.429,0.019-3.134,0.414-2.185-2.136
			c0.184-0.494-0.621-1.138-0.988-1.704c-0.776-1.201-1.605-3.07-0.507-3.871c1.012-0.736,0.97-1.516,0.735-1.986
			c-1.02-2.043,0.221-1.846,1.569-1.922c1.688-0.094,3.221-0.611,3.132-2.762c-0.041-0.973,0.533-0.924,1.175-0.917
			c0.926,0.009,1.854,0.045,2.778-0.009c1.491-0.085,2.318-0.916,2.554-2.392c0.283-1.776-0.418-2.964-2.102-3.529
			c-1.738-0.583-5.382,0.583-5.623,2.137c-0.256,1.648-1.062,1.446-2.129,1.491c-2.144,0.09-4.369,2.643-3.474,4.244
			c1.124,2.009,0.126,2.166-1.387,2.222c-0.77,0.029-1.646-0.117-1.929,0.826c-0.311,1.033,0.688,1.432,1.211,2.05
			C316.662,37.037,317.536,36.489,318.473,36.878z M86.454,27.171c1.504,0.416,1.914,3.251,4.183,1.68
			c1.325-0.918,3.132-1.666,2.838-3.615c-0.158-1.051-1.305-2.278-2.386-2.239c-2.112,0.075-4.03,0.914-4.536,3.413
			c-2.246-2.056-2.278-2.141,0.061-3.555c0.539-0.326,0.955-0.729,1.42-1.105c0.954-0.772,0.702-1.888,0.472-2.776
			c-0.236-0.916-1.1-1.255-2.162-1.323c-1.797-0.115-3.427,0.287-4.966,1.1c-1.673,0.884-2.381,4.143-1.108,5.606
			c0.882,1.015,0.268,1.757-0.165,2.443c-0.819,1.298-0.498,2.432,0.408,3.345c0.983,0.991,2.205,0.633,3.359,0.099
			C85.257,29.603,85.879,28.337,86.454,27.171z M374.104,31.906c0.217-0.602-0.058-1.201-0.641-1.677
			c-2.307-1.884-4.633-3.75-7.715-4.174c-0.685-0.094-0.992-0.412-1.388-0.948c-1.672-2.268-3.128-2.389-5.497-0.764
			c-0.82,0.562-1.638,1.22-2.814,0.178c-0.984-0.873-4.926,0.43-5.401,1.652c-0.498,1.278-0.257,2.68,1.166,3.018
			c2.303,0.547,4.814,1.701,6.844-0.785c0.215-0.262,0.779-0.559,0.991-0.454c2.318,1.145,5.292,0.459,7.24,2.652
			c1.021,1.149,2.118,2.246,3.284,3.246c0.609,0.522,1.224,1.255,2.334,0.647C373.545,33.929,374.271,33.339,374.104,31.906z
			 M82.633,43.652c-0.07-1.874-1.298-2.723-2.549-3.063c-2.094-0.57-3.508,0.932-4.829,2.291c-0.924,0.951-0.905,2.235-0.185,3.112
			c1.202,1.464,1.342,2.19-0.828,2.328c-0.425,0.027-0.842,0.271-1.253,0.438c-1.771,0.717-2.336,2.075-1.918,3.851
			c0.331,1.407,3.139,3.312,4.314,3.017c1.488-0.375,4.46-3.909,4.391-5.446c-0.083-1.839,0.037-3.419,1.795-4.604
			C82.034,45.261,82.935,44.466,82.633,43.652z M314.271,71.212c-0.109,0.816,0.378,2.022,1.516,2.79
			c1.089,0.733,2.127,1.346,2.403,2.808c0.095,0.502,0.697,0.933,1.327,1.168c1.504,0.562,2.552,1.588,3.345,3.048
			c0.528,0.973,1.493,1.764,2.394,2.469c1.515,1.185,3.061,0.34,4.432-0.337c1.271-0.627,1.159-2.084,0.724-3.07
			c-0.583-1.32-2.142-1.026-3.294-1.435c-2.115-0.747-3.9-2.432-5.817-3.733c-0.037-0.025-0.019-0.148-0.01-0.224
			c0.304-2.68-0.866-4.515-3.195-5.757c-0.863-0.46-1.37-1.463-2.729-0.815C314.067,68.742,314.417,69.688,314.271,71.212z
			 M330.556,72.355c-0.001,3.933,1.494,4.912,5.004,3.293c0.979-0.451,2.011-1.172,2.021,0.896c0.003,0.744,0.586,1.532,1.032,2.218
			c0.87,1.341,3.313,2.026,4.461,1.244c1.665-1.137,1.773-2.745,1.071-4.452c-0.757-1.838-2.2-2.098-3.926-1.501
			c-0.565,0.195-1.108,0.478-1.687,0.609c-0.414,0.095-1.082,0.156-0.988-0.539c0.351-2.583-1.562-3.704-3.134-5.073
			c-1.369-1.194-2.484-0.958-3.44,0.646C330.453,70.562,330.596,71.455,330.556,72.355z M343.063,49.284
			c0.116-0.922-0.086-1.633-1.184-2.071c-1.188-0.474-2.225-1.255-3.577-0.42c-2.32,1.433-2.823,4.012-1.013,6.468
			c0.295,0.4,0.713,0.621,0.166,0.828c-2.52,0.956-2.449,2.718-1.842,4.877c0.347,1.231,0.213,2.67,1.998,2.749
			c1.924,0.085,3.361-0.775,4.049-2.571c0.844-2.205-0.794-3.165-2.298-4.141c-0.405-0.264-1.062-0.283-0.927-1.063
			c0.151-0.87,0.821-0.424,1.265-0.56C341.859,52.716,343.307,51.67,343.063,49.284z M65.896,27.339
			c0.347-1.326-0.73-1.854-1.438-2.455c-0.833-0.708-1.84-0.177-2.5,0.36c-1.134,0.922-2.134,1.265-3.117-0.026
			c-1.002-1.317-2.15-1.277-3.368-0.475c-1.337,0.881-2.233,2.206-1.965,3.781c0.224,1.314,1.579,2.701,2.733,2.017
			c2.645-1.567,2.757,0.224,3.36,1.88c0.542,1.491,2.136,1.942,3.234,1.062C64.814,31.897,65.139,29.491,65.896,27.339z
			 M353.255,76.559c-1.196,0-1.97-0.038-2.737,0.008c-1.404,0.083-2.097,1.213-2.698,2.203c-0.327,0.537-0.304,1.422,0.285,2.138
			c1.841,2.24,5.618,2.833,7.569,0.754c1.354-1.443,1.728-1.019,2.787,0.202c0.812,0.934,2.255,1.786,3.618,0.874
			c1.137-0.76,2.201-1.935,1.778-3.435c-0.498-1.764-2.16-1.384-3.5-1.331c-0.654,0.025-1.293,0.342-1.951,0.425
			c-0.306,0.038-0.63,0.708-1.017-0.118C356.465,76.3,354.614,76.441,353.255,76.559z M43.032,17.23
			c-2.24-0.053-4.896,2.559-4.944,4.864c-0.067,3.252,0.693,4.748,2.471,4.858c2.808,0.175,6.875-3.048,6.792-5.381
			C47.305,20.279,44.301,17.261,43.032,17.23z M75.158,22.485c0.057-3.226-1.363-4.235-3.714-3.14
			c-0.777,0.362-1.527,0.261-1.702-0.5c-0.339-1.47-1.347-1.837-2.491-1.553c-1.465,0.364-2.605,1.404-2.692,2.996
			c-0.06,1.099,0.246,2.608,1.706,2.425c1.689-0.212,2.315,0.317,2.43,1.864c0.038,0.516,0.403,0.825,0.852,0.978
			c1.035,0.353,2.023,1.53,3.141,0.776C74.169,25.333,74.991,23.779,75.158,22.485z M354.818,46.364
			c0.992-2.439,0.632-3.951-0.977-4.521c-2.125-0.754-4.89,0.217-5.173,1.871c-0.099,0.576-0.294,1.327,0.213,1.769
			c1.354,1.181,3.044,1.523,4.825,1.526c-0.795,2.605,0.066,3.773,3.172,4.487c1.699,0.391,3.601-0.631,3.799-2.04
			C360.971,47.371,359.436,46.543,354.818,46.364z M62.169,57.981c1.518-0.302,3.56-0.681,4.739-2.974
			c1.007-1.956,1.028-3.428-0.448-4.531c-1.717-1.283-4.258-1.045-5.418,0.656c-0.473,0.693-0.901,1.419-1.556,1.911
			c-1.366,1.023-1.258,2.494-0.858,3.726C59.004,57.93,60.338,58.084,62.169,57.981z M42.827,29.282
			c-0.54-0.162-0.972,0.214-1.434,0.451c-2.682,1.375-4.24,4.31-3.743,7.208c0.19,1.105,0.938,1.733,2.13,1.596
			c1.783-0.205,5.297-3.312,5.696-5.007C45.946,31.536,44.546,29.249,42.827,29.282z M361.72,74.24
			c3.04,0.002,4.068-0.824,4.062-3.261c-0.006-2.11-2.305-4.228-4.512-4.155c-1.926,0.064-3.797,2.058-3.831,4.083
			C357.397,73.372,358.51,74.238,361.72,74.24z M383.692,57.09c2.542-0.005,4.34-1.353,4.338-3.25
			c-0.003-2.27-1.924-3.709-4.94-3.703c-2.142,0.004-3.874,1.465-3.864,3.257C379.238,55.736,380.883,57.097,383.692,57.09z
			 M93.275,101.593c0.039-0.002-0.42-0.111-0.552,0.049c-1.7,2.072-4.129,3.583-5.018,6.271c-0.41,1.24,0.542,1.979,1.357,2.682
			c0.763,0.657,1.491,0.499,2.367,0.036c2.599-1.376,3.37-3.874,4.15-6.387C96.129,102.472,95.436,101.553,93.275,101.593z
			 M44.128,54.56c0.359-1.207-0.468-1.687-1.241-2.154c-1.052-0.636-2.131-0.691-3.169,0.057c-1.678,1.208-3.868,1.948-4.327,4.303
			c-0.085,0.434,0.451,1.268,0.903,1.477c1.669,0.77,3.321,1.775,5.325,0.771C43.537,58.051,43.762,56.272,44.128,54.56z
			 M356.993,31.639c-1.207,0.348-2.808,0.996-3.971,2.652c-0.706,1.007-0.951,1.894-0.387,2.904
			c0.642,1.147,1.848,1.061,2.866,0.844c1.66-0.354,3.299-0.854,4.896-1.434c1.588-0.577,1.891-1.966,0.851-3.345
			C360.338,32.05,359.114,31.52,356.993,31.639z M63.593,129.86c2.592-0.003,4.66-1.785,4.621-3.992
			c-0.028-1.571-0.851-2.742-2.343-2.874c-3.165-0.28-6.052,1.838-5.997,4.13C59.917,128.885,61.245,129.862,63.593,129.86z
			 M71.923,45.816c0.05-1.976-1.329-3.923-2.845-4.02c-1.943-0.124-4.501,2.387-4.57,4.486c-0.054,1.609,1.75,3.603,3.326,3.679
			C69.321,50.033,71.882,47.436,71.923,45.816z M323.6,59.546c-0.18-0.844-0.085-2.226-1.161-2.746
			c-1.09-0.527-2.202-0.074-3.351,0.648c-1.404,0.884-2.127,2.117-2.725,3.461c-0.721,1.623,0.523,3.457,2.275,3.596
			C321.193,64.709,323.642,62.385,323.6,59.546z M73.383,32.988c-1.588-0.008-1.588-0.008-3.746,2.31
			c-1.618,1.739-1.294,3.139,1.361,5.313c1.736,1.423,1.969-0.545,2.727-1.305c0.544-0.545,1.104-1.077,1.63-1.639
			c0.852-0.911,1.562-1.875,1.014-3.237C75.807,33.039,74.64,32.927,73.383,32.988z M58.945,48.05
			c-0.001-1.777-1.171-2.973-2.945-3.01c-1.689-0.035-4.921,2.847-4.928,4.395c-0.007,1.527,1.9,3.007,3.893,3.021
			C56.817,52.468,58.947,50.11,58.945,48.05z M376.442,44.812c0.001-1.687-1.929-3.554-3.587-3.471
			c-1.823,0.092-4.724,2.354-4.73,3.691c-0.008,1.335,2.446,3.256,4.154,3.252C374.776,48.278,376.441,46.889,376.442,44.812z
			 M373.48,67.258c1.827,0.255,3.399-0.102,3.863-2.157c0.405-1.795-0.869-3.889-2.595-4.208c-1.541-0.285-2.885,0.53-4.174,1.28
			c-1.425,0.829-1.926,1.653-0.877,3.41C370.702,67.265,371.916,67.398,373.48,67.258z M355.264,59.872
			c-2.096,0.023-4.714,2.016-4.775,3.634c-0.054,1.425,2.108,2.784,4.54,2.853c1.868,0.052,3.763-1.643,3.801-3.4
			C358.872,60.949,357.598,59.845,355.264,59.872z M39.109,43.728c0.047-1.829-0.883-2.505-2.668-1.999
			c-3.246,0.92-3.603,3.592-2.474,6.284c0.809,1.929,2.472,1.859,4.003,1.594c1.325-0.23,1.348-1.557,1.542-2.7
			C39.7,45.794,38.817,44.891,39.109,43.728z M102.515,102.465c-0.008,1.982,1.632,3.927,3.426,4.061
			c1.305,0.098,3.071-2.634,3.063-4.734c-0.009-2.246-1.038-3.434-2.988-3.448C104.004,98.326,102.524,100.069,102.515,102.465z
			 M57.092,13.498c-0.002,1.667,0.132,1.777,1.85,1.888c1.043,0.067,2.059-0.031,3.141,0.326c0.855,0.282,2.188-0.035,2.763-1.05
			c0.502-0.888-0.018-1.833-0.654-2.449c-0.349-0.337-0.662-0.348-0.417-0.967c0.376-0.949-0.47-2.213-1.441-2.357
			C60.011,8.544,57.095,11.107,57.092,13.498z M362.229,44.112c2.785,0.028,4.395-1.23,4.392-3.436
			c-0.001-1.599-1.396-3.052-2.928-3.053c-2.767-0.001-4.867,1.506-4.862,3.491C358.834,43.089,359.969,44.09,362.229,44.112z
			 M381.541,36.763c0.021-1.661-2.683-3.756-4.85-3.777c-1.391-0.014-2.355,0.647-2.524,1.991c-0.238,1.899,2.722,5.438,4.377,5.427
			C380.074,40.395,381.517,38.643,381.541,36.763z M50.139,38.641c0.036,1.695,1.865,3.2,3.156,2.509
			c1.769-0.946,3.108-2.367,3.722-4.308c0.653-2.067-1.037-3.875-3.071-3.38C52.133,33.902,50.098,36.672,50.139,38.641z
			 M49.195,16.754c2.555,0.278,3.723-1.564,5.048-3.076c0.803-0.916,0.592-1.95-0.123-2.854c-0.702-0.887-1.679-0.689-2.511-0.356
			c-1.101,0.439-2.063,1.318-3.186,1.585c-1.732,0.412-2.561,1.572-2.336,3.027C46.327,16.644,47.833,16.928,49.195,16.754z
			 M89.666,46.888c3.176,0.029,4.908-1.716,4.921-4.669c0.007-1.657-1.095-2.627-2.736-2.717c-1.768-0.097-4.279,2.606-4.147,4.455
			C87.813,45.494,88.451,46.716,89.666,46.888z M347.082,57.077c1.986,0.398,2.978-0.821,3.658-2.344
			c0.714-1.599-0.86-4.426-2.237-4.077c-1.28,0.325-2.568,0.773-3.723,1.405c-2.349,1.288-2.275,3.125-0.077,4.624
			C345.533,57.251,346.312,56.929,347.082,57.077z M327.653,68.214c2.644,0.004,3.344-0.519,3.366-2.514
			c0.021-1.907-2.007-3.963-3.919-3.974c-1.653-0.01-3.562,1.585-3.495,2.919C323.717,66.825,325.288,68.211,327.653,68.214z
			 M347.649,41.982c0.132-1.154-0.051-1.733-1.001-2.062c-1.646-0.57-5.756,0.379-6.859,1.676c-0.589,0.692-0.591,1.371-0.148,2.089
			c1.066,1.732,3.204,2.238,6.373,1.323C347.623,44.543,347.2,42.819,347.649,41.982z M374.54,76.094
			c2.112,0.455,2.947-1.126,2.799-2.818c-0.134-1.526-0.129-3.398-2.232-3.634c-2.494-0.28-5.147,1.49-5.151,3.204
			C369.953,74.28,372.504,76.088,374.54,76.094z M104.75,114.101c1.993,0.015,4.512-2.196,4.69-4.116
			c0.081-0.863-2.066-2.788-3.16-2.834c-1.863-0.077-4.143,2.38-4.238,4.496C101.955,113.597,102.964,114.257,104.75,114.101z
			 M336.362,31.598c-2.653-0.001-3.501,0.803-3.488,3.311c0.01,2.146,1.325,3.576,3.341,3.632c1.161,0.033,3.437-2.421,3.397-3.663
			C339.54,32.592,338.556,31.599,336.362,31.598z M73.778,11.783c0.05,2.179,1.421,4.535,2.625,4.512
			c1.331-0.026,4.297-3.023,4.321-4.365c0.025-1.432-1.622-3.125-2.958-3.041C75.232,9.05,73.739,10.133,73.778,11.783z
			 M65.896,40.749c-0.06-1.477-1.915-3.509-3.132-3.433c-1.894,0.119-4.309,2.278-4.275,3.821c0.03,1.388,1.69,3.294,2.774,3.187
			C63.412,44.11,65.953,42.15,65.896,40.749z M67.898,13.508c2.194,0.197,3.425-1.15,4.334-2.597
			c0.449-0.713,1.178-1.878,0.161-2.896c-0.773-0.773-1.739-1.062-2.777-0.959c-0.727,0.072-1.563,0.176-2.12,0.583
			c-1.229,0.896-2.426,2.025-1.965,3.751C65.841,12.551,66.119,14.113,67.898,13.508z M104.331,125.831
			c-0.125,1.354,0.866,2.355,1.712,2.467c2.028,0.264,3.951-0.503,5.6-1.778c0.889-0.687,0.873-1.752,0.435-2.498
			c-0.858-1.461-2.41-1.906-3.979-1.523C106.327,122.931,104.741,123.789,104.331,125.831z M80.396,111.32
			c2.57,0.007,3.109-0.511,3.115-2.993c0.005-1.789-1.273-3.408-2.733-3.464c-1.873-0.071-4.204,1.825-4.214,3.428
			C76.553,109.836,78.424,111.314,80.396,111.32z M101.124,120.712c0.017-2.222-0.599-2.878-2.725-2.903
			c-2.152-0.025-4.301,1.938-4.18,4.111c0.093,1.662,1.258,2.421,2.956,2.39C99.518,124.267,101.107,122.857,101.124,120.712z
			 M345.451,22.315c0.075,0.413,0.279,1.088,1.481,1.532c1.828,0.674,3.214-0.341,4.698-0.75c2.315-0.638,2.543-2.336,0.635-3.843
			c-1.436-1.134-3.208-1.348-4.757-0.48C346.483,19.349,345.211,20.143,345.451,22.315z M28.231,70.532
			c1.668,0.041,3.555-1.82,3.316-3.553c-0.224-1.622-1.109-2.875-3.014-2.939c-1.637-0.055-3.861,1.896-3.887,3.432
			C24.621,69.009,26.351,70.485,28.231,70.532z M44.425,44.484c-0.202,2.243,1.273,3.923,2.498,3.266
			c1.484-0.797,3.053-1.678,3.733-3.432c0.532-1.371-0.132-2.341-1.022-3.283c-0.848-0.897-1.852-0.943-2.595-0.149
			C45.918,42.083,44.221,42.988,44.425,44.484z M89.073,115.771c0.012-2.186-1.095-2.933-3.15-2.125
			c-2.393,0.94-2.963,2.145-2.912,5.214c0.029,1.745,1.009,1.924,2.249,1.698C87.184,120.207,89.062,117.754,89.073,115.771z
			 M75.168,112.028c0-2.412-0.886-3.507-2.822-3.489c-1.772,0.017-2.707,1.257-2.74,3.639c-0.025,1.755,1.452,3.665,2.913,3.769
			C73.74,116.033,75.167,113.921,75.168,112.028z M114.608,109.932c-3.252-0.012-4.652,1.237-4.688,3.492
			c-0.034,2.066,1.297,2.474,2.931,2.523c1.826,0.056,3.46-2,3.583-4.297C116.541,109.642,115.177,109.928,114.608,109.932z
			 M358.947,51.992c-1.498-0.036-2.876,1.054-2.896,2.29c-0.022,1.358,2.924,3.708,4.628,3.744c1.498,0.031,2.239-0.569,2.35-2.146
			C363.183,53.665,361.499,52.303,358.947,51.992z M52.415,59.408c2.282,0.006,2.82-0.438,2.822-2.328
			c0.002-1.918-1.754-3.75-3.537-3.69c-1.16,0.039-3.289,1.926-3.293,2.92C48.398,58.059,50.136,59.402,52.415,59.408z
			 M87.18,38.559c2.219-0.034,4.215-1.714,4.204-3.071c-0.01-1.266-1.998-3.389-3.177-3.393c-1.406-0.005-3.307,2.099-3.304,3.666
			C84.907,37.651,85.958,38.48,87.18,38.559z M342.608,28.819c1.687,0.083,2.472-0.907,2.525-2.271
			c0.067-1.712-2.297-4.017-3.814-3.69c-1.437,0.309-3.014,0.804-2.893,2.876C338.533,27.549,340.318,28.866,342.608,28.819z
			 M386.261,44.685c-0.201-1.491-1.62-2.098-2.421-3.154c-0.537-0.707-1.286-0.864-2.044-0.564
			c-0.782,0.309-1.188,1.249-1.104,1.846c0.274,1.978,0.547,3.973,2.341,5.41c1.185,0.949,1.937,0.441,2.417-0.452
			C385.928,46.883,385.994,45.774,386.261,44.685z M334.212,42.001c-0.113-1.911-2.004-4.104-3.534-3.867
			c-1.521,0.235-2.931,0.843-2.898,2.797c0.021,1.261,1.915,3.629,2.876,3.616C332.201,44.527,334.274,43.042,334.212,42.001z
			 M387.562,65.135c0.019-1.863-1.578-3.931-2.695-3.862c-1.522,0.094-3.831,2.212-3.784,3.472c0.04,1.057,2.635,3.143,3.933,2.971
			C386.642,67.5,387.494,66.427,387.562,65.135z M371.957,51.992c-1.889,0.021-2.997,1.135-2.931,2.944
			c0.056,1.489,1.659,3.201,3.056,3.052c1.572-0.167,2.99-0.658,2.979-2.7C375.05,53.131,373.989,51.969,371.957,51.992z
			 M366.26,82.777c-0.114,0.673,0.155,1.147,0.623,1.622c1.688,1.716,3.324,0.979,5.13,0.158c1.081-0.491,1.526-1.297,1.591-2.214
			c0.083-1.175-1.085-1.649-1.947-1.903c-1.543-0.454-3.056,0.301-4.545,0.656C366.505,81.241,366.075,81.984,366.26,82.777z
			 M94.381,36.696c2.029,0.011,4.316-1.562,4.417-2.908c0.086-1.16-2.034-2.645-3.734-2.659c-2.194-0.018-2.745,1.245-2.78,3.19
			C92.253,36.008,92.568,37.088,94.381,36.696z M349.098,86.431c-0.01-2.095-1.067-3.403-2.404-3.382
			c-2.013,0.032-3.673,1.447-3.622,3.087c0.047,1.517,1.823,2.888,3.681,2.947C349.015,89.155,348.994,87.56,349.098,86.431z
			 M33.651,64.507c1.878,0.104,3.025-0.614,3.051-2.655c0.019-1.518-1.63-3.373-3.026-3.366c-1.306,0.007-2.977,1.762-3.003,3.155
			C30.638,63.465,31.712,64.498,33.651,64.507z M331.947,83.799c0.03,1.547,2.864,3.888,4.762,3.863
			c1.337-0.017,1.853-1.177,2.041-2.125c0.289-1.452-2.627-3.958-4.438-3.839C333.127,81.776,331.818,82.074,331.947,83.799z
			 M53.385,20.099c-0.216,2.177,1.689,2.121,2.893,2.458c1.292,0.361,3.533-1.819,3.597-3.133c0.088-1.814-1.24-2.433-2.586-2.599
			C55.47,16.601,53.454,18.465,53.385,20.099z M334.928,25.633c0.844,0.086,4.319-2.74,4.408-3.572
			c0.048-0.447-0.238-0.694-0.512-0.963c-2.072-2.041-4.415-1.436-5.867,0.605C331.641,23.555,332.638,25.399,334.928,25.633z
			 M344.571,61.722c-1.911,0.037-3.338,1.08-3.353,2.303c-0.017,1.395,2.076,3.254,3.671,3.263c1.073,0.005,2.979-1.889,2.752-2.926
			C347.273,62.683,346.328,61.521,344.571,61.722z M358.966,89.535c1.829,0.024,3.092-0.989,3.106-2.509
			c0.016-1.689-1.071-2.589-2.498-2.9c-1.237-0.271-3.956,1.68-3.987,2.591C355.538,88.175,357.139,89.512,358.966,89.535z
			 M14.812,79.84c1.8,0.394,2.192-1.298,3.059-2.641c0.869-1.345,0.381-2.188-0.515-3.043c-1.028-0.982-1.594,0.014-2.27,0.595
			c-0.625,0.539-1.29,1.034-1.965,1.509c-0.937,0.659-1.208,1.584-0.951,2.616C12.488,80.148,13.603,79.725,14.812,79.84z
			 M89.082,130.323c2.389,0.009,3.291-0.572,3.203-2.26c-0.082-1.563-0.586-2.909-2.611-2.854c-1.486,0.04-3.373,1.645-3.361,3.126
			C86.327,130.272,87.71,130.403,89.082,130.323z M71.003,124.186c-0.083,1.545,0.066,2.886,2.061,2.894
			c1.302,0.006,2.69-1.928,2.513-3.898c-0.097-1.083-0.495-2.35-2.102-2.12C71.661,121.32,70.845,122.403,71.003,124.186z
			 M80.178,129.856c0.837,0.017,1.786,0.124,1.91-1.032c0.104-0.969-0.532-1.308-1.433-1.284c-1.07,0.027-1.805,0.833-1.963,1.58
			C78.51,129.979,79.55,129.824,80.178,129.856z M318.506,24.765c-0.042-0.681-0.649-1.364-1.343-1.41
			c-0.735-0.048-1.359,0.653-1.42,1.507c-0.059,0.811,0.718,1.524,1.162,1.454C317.484,26.224,318.463,25.986,318.506,24.765z
			 M377.077,24.984c0.426-0.135,0.883-0.469,0.695-0.899c-0.378-0.872-0.709-1.941-1.793-2.15c-0.555-0.106-0.956,0.475-0.909,1.07
			C375.164,24.186,376.209,24.486,377.077,24.984z M320.809,20.788c0.17-0.7-0.319-0.766-0.933-0.785
			c-0.678-0.021-1.113,0.238-0.86,0.908c0.188,0.496,0.229,1.347,0.932,1.331C320.642,22.226,320.876,21.572,320.809,20.788z
			 M323.487,24.231c0.137-0.126,0.254-0.234,0.371-0.342c-0.195-0.053-0.395-0.155-0.585-0.144
			c-0.136,0.009-0.261,0.172-0.391,0.266C323.072,24.081,323.263,24.149,323.487,24.231z"/>
		<path style="fill-rule:evenodd;clip-rule:evenodd;fill:#7B491E;" d="M183.254,109.372c-2.358,0.642-3.592-1.173-5.169-2.066
			c-0.831-0.471-0.608-1.372-0.072-2.204c1.562-2.424,4.038-4.007,5.73-6.262c1.976-2.634,3.217-5.761,5.417-8.285
			c2.78-3.191,4.462-7.054,6.42-10.759c0.819-1.551,0.376-2.975,0.523-4.448c0.086-0.865-0.704-0.567-1.184-0.646
			c-3.47-0.562-7.021-0.774-10.229-2.448c-2.336-1.22-4.157-3.096-5.291-5.342c-1.706-3.38-3.829-6.732-4.135-10.581
			c-0.279-3.513-1.537-6.025-4.182-8.479c-3.213-2.982-2.069-7.25-1.308-11.007c0.944-4.659,2.928-8.806,7.46-11.158
			c0.264-0.137,0.508-0.536,0.723-0.509c3.216,0.397,3.025-1.376,2.981-3.834c-0.096-5.401,4.125-8.174,9.379-6.55
			c0.666,0.206,1.425,0.326,2.008-0.074c1.237-0.849,2.616-0.878,3.963-0.705c2.075,0.267,3.121-1.584,4.845-2.113
			c7.351-2.256,13.071,0.36,16.718,6.754c0.478,0.838,0.865,1.451,1.712,1.913c2.342,1.28,4.57,2.777,6.959,3.956
			c1.007,0.496,1.948,1.098,2.249,2.002c0.956,2.87,2.642,5.541,2.591,8.706c-0.031,1.984,0.178,3.761,1.282,5.633
			c1.677,2.841-0.22,8.775-2.732,11.028c-2.593,2.324-4.87,4.778-5.178,8.725c-0.182,2.333-2.208,4.3-4.01,5.864
			c-3.019,2.62-6.275,4.986-9.035,7.883c-0.979,1.027-1.991,2.574-1.983,3.878c0.017,2.646-1.612,4.142-2.91,6.03
			c-4.134,6.016-9.137,11.351-13.37,17.249c-1.918,2.672-4.305,4.604-6.595,6.741C185.89,109.142,184.662,110.065,183.254,109.372z
			 M202.097,35.845c-0.925,0-1.93-0.055-2.92,0.039c-0.248,0.023-0.476,0.509-0.651,0.819c-0.031,0.054,0.226,0.376,0.39,0.419
			c2.371,0.614,4.447,2.306,7.102,1.911c0.604-0.09,1.101,0.015,1.387-0.794c0.319-0.898-0.388-1.073-0.759-1.393
			C205.359,35.737,203.808,35.531,202.097,35.845z M211.011,17.413c-1.107-2.626-3.26-2.033-5.181-1.974
			c-0.288,0.009-0.593,0.431-0.821,0.716c-0.057,0.07,0.165,0.521,0.241,0.516C207.183,16.551,208.813,18.515,211.011,17.413z
			 M196.17,52.088c-1.011-1.72-1.011-1.72-2.396-0.823C194.492,51.512,195.149,51.738,196.17,52.088z"/>
		<path style="fill-rule:evenodd;clip-rule:evenodd;fill:#7B491E;" d="M259.188,130.173c0-0.694-0.286-1.601,0.046-2.051
			c2.767-3.755-0.094-6.192-2.035-8.752c-1.035-1.365-0.333-2.251,0.557-2.905c2.113-1.555,4.408-2.812,7.158-2.828
			c1.748-0.01,2.399-1.367,3.146-2.588c0.667-1.092,1.194-2.245,2.162-3.166c2.27-2.16,4.631-2.471,7.453-1.074
			c1.47,0.727,3.196,0.656,4.671,0.059c4.032-1.633,8.976,1.225,8.754,5.726c-0.115,2.338,1.308,3.697,2.803,4.642
			c1.845,1.164,3.198,2.38,3.854,4.504c0.347,1.121,0.727,2.269,1.148,3.38c0.711,1.871-0.185,3.591-1.638,4.854
			c-1.337,1.163-2.607,2.286-4.713,2.315c-1.728,0.023-3.424,1.074-5.168,1.541c-1.88,0.502-3.876,0.423-5.727,0.139
			c-4.987-0.768-9.978-0.188-14.959-0.391c-1.387-0.057-2.778-0.008-4.168-0.008C259.177,133.568,259.177,133.568,259.188,130.173z"
			/>
		<path style="fill-rule:evenodd;clip-rule:evenodd;fill:#7B491E;" d="M318.473,36.878c-0.937-0.389-1.811,0.159-2.417-0.56
			c-0.522-0.618-1.521-1.017-1.211-2.05c0.283-0.942,1.159-0.797,1.929-0.826c1.513-0.056,2.511-0.212,1.387-2.222
			c-0.896-1.601,1.33-4.154,3.474-4.244c1.066-0.045,1.873,0.158,2.129-1.491c0.241-1.554,3.885-2.72,5.623-2.137
			c1.684,0.565,2.385,1.753,2.102,3.529c-0.235,1.476-1.062,2.306-2.554,2.392c-0.924,0.054-1.853,0.018-2.778,0.009
			c-0.642-0.006-1.216-0.055-1.175,0.917c0.089,2.151-1.443,2.668-3.132,2.762c-1.349,0.076-2.589-0.121-1.569,1.922
			c0.234,0.47,0.276,1.25-0.735,1.986c-1.099,0.8-0.27,2.67,0.507,3.871c0.367,0.566,1.172,1.209,0.988,1.704
			c-0.949,2.55,0.756,2.155,2.185,2.136c0.309-0.004,0.618-0.014,0.927,0.001c1.454,0.074,3.243-0.508,3.619,1.759
			c0.348,2.098-0.94,4.566-2.681,5.198c-4.584,1.665-5.255,1.144-5.78-4.482c-1.742,0.658-1.742,0.658-0.83,2.026
			c0.973,1.458,0.332,3.62-1.492,4.252c-1.657,0.574-1.432,1.415-0.834,2.587c0.637,1.25,1.128,2.454-0.456,3.513
			c-2.565,1.715-4.482,1.865-5.866,0.235c-1.27-1.495-0.565-3.349,0.46-4.055c1.545-1.065,1.309-2.292,1.229-3.571
			c-0.111-1.798,0.394-3.039,2.114-3.854c1.999-0.947,1.979-2.97,1.552-4.614c-0.731-2.818-0.491-4.903,2.582-5.944
			C318.015,37.544,318.176,37.204,318.473,36.878z"/>
		<path style="fill-rule:evenodd;clip-rule:evenodd;fill:#7B491E;" d="M86.454,27.171c-0.575,1.167-1.197,2.432-2.582,3.072
			c-1.154,0.534-2.376,0.892-3.359-0.099c-0.906-0.913-1.228-2.047-0.408-3.345c0.433-0.686,1.047-1.428,0.165-2.443
			c-1.273-1.464-0.565-4.722,1.108-5.606c1.539-0.813,3.168-1.215,4.966-1.1c1.062,0.068,1.926,0.408,2.162,1.323
			c0.229,0.889,0.482,2.004-0.472,2.776c-0.465,0.376-0.881,0.779-1.42,1.105c-2.339,1.414-2.307,1.499-0.061,3.555
			c0.506-2.499,2.424-3.337,4.536-3.413c1.081-0.039,2.228,1.188,2.386,2.239c0.294,1.95-1.513,2.697-2.838,3.615
			C88.368,30.422,87.958,27.586,86.454,27.171z"/>
		<path style="fill-rule:evenodd;clip-rule:evenodd;fill:#7B491E;" d="M374.104,31.906c0.168,1.433-0.559,2.022-1.597,2.591
			c-1.11,0.608-1.725-0.125-2.334-0.647c-1.166-1-2.264-2.096-3.284-3.246c-1.948-2.193-4.922-1.507-7.24-2.652
			c-0.212-0.104-0.776,0.192-0.991,0.454c-2.029,2.486-4.541,1.332-6.844,0.785c-1.423-0.338-1.664-1.74-1.166-3.018
			c0.476-1.222,4.417-2.525,5.401-1.652c1.177,1.042,1.994,0.385,2.814-0.178c2.369-1.625,3.825-1.504,5.497,0.764
			c0.396,0.537,0.703,0.854,1.388,0.948c3.082,0.424,5.408,2.291,7.715,4.174C374.046,30.706,374.32,31.304,374.104,31.906z"/>
		<path style="fill-rule:evenodd;clip-rule:evenodd;fill:#7B491E;" d="M82.633,43.652c0.302,0.814-0.599,1.609-1.062,1.922
			c-1.758,1.186-1.878,2.766-1.795,4.604c0.069,1.537-2.902,5.071-4.391,5.446c-1.175,0.295-3.983-1.61-4.314-3.017
			c-0.418-1.776,0.147-3.133,1.918-3.851c0.412-0.167,0.828-0.411,1.253-0.438c2.17-0.138,2.03-0.864,0.828-2.328
			c-0.72-0.877-0.739-2.161,0.185-3.112c1.321-1.359,2.735-2.861,4.829-2.291C81.334,40.929,82.562,41.778,82.633,43.652z"/>
		<path style="fill-rule:evenodd;clip-rule:evenodd;fill:#7B491E;" d="M314.271,71.212c0.146-1.523-0.203-2.47,1.094-3.088
			c1.359-0.648,1.866,0.355,2.729,0.815c2.329,1.242,3.499,3.077,3.195,5.757c-0.009,0.075-0.027,0.198,0.01,0.224
			c1.917,1.302,3.702,2.986,5.817,3.733c1.152,0.408,2.711,0.114,3.294,1.435c0.436,0.986,0.547,2.443-0.724,3.07
			c-1.371,0.677-2.917,1.521-4.432,0.337c-0.9-0.705-1.865-1.496-2.394-2.469c-0.793-1.46-1.841-2.485-3.345-3.048
			c-0.63-0.235-1.232-0.666-1.327-1.168c-0.276-1.462-1.314-2.074-2.403-2.808C314.648,73.234,314.161,72.028,314.271,71.212z"/>
		<path style="fill-rule:evenodd;clip-rule:evenodd;fill:#7B491E;" d="M330.556,72.355c0.04-0.9-0.103-1.793,0.414-2.66
			c0.956-1.604,2.071-1.84,3.44-0.646c1.571,1.37,3.484,2.49,3.134,5.073c-0.094,0.695,0.574,0.634,0.988,0.539
			c0.578-0.132,1.121-0.414,1.687-0.609c1.726-0.597,3.169-0.337,3.926,1.501c0.702,1.707,0.594,3.315-1.071,4.452
			c-1.147,0.782-3.591,0.097-4.461-1.244c-0.446-0.686-1.029-1.474-1.032-2.218c-0.01-2.067-1.042-1.347-2.021-0.896
			C332.05,77.268,330.555,76.288,330.556,72.355z"/>
		<path style="fill-rule:evenodd;clip-rule:evenodd;fill:#7B491E;" d="M343.063,49.284c0.243,2.387-1.204,3.432-3.362,4.096
			c-0.443,0.136-1.113-0.31-1.265,0.56c-0.135,0.78,0.521,0.799,0.927,1.063c1.504,0.977,3.142,1.936,2.298,4.141
			c-0.688,1.795-2.125,2.656-4.049,2.571c-1.785-0.079-1.651-1.518-1.998-2.749c-0.607-2.159-0.678-3.921,1.842-4.877
			c0.547-0.207,0.129-0.427-0.166-0.828c-1.811-2.457-1.308-5.035,1.013-6.468c1.353-0.835,2.389-0.054,3.577,0.42
			C342.978,47.651,343.18,48.362,343.063,49.284z"/>
		<path style="fill-rule:evenodd;clip-rule:evenodd;fill:#7B491E;" d="M65.896,27.339c-0.757,2.152-1.082,4.558-3.06,6.143
			c-1.099,0.88-2.692,0.43-3.234-1.062c-0.603-1.657-0.716-3.447-3.36-1.88c-1.155,0.684-2.51-0.703-2.733-2.017
			c-0.268-1.575,0.627-2.9,1.965-3.781c1.218-0.802,2.366-0.842,3.368,0.475c0.983,1.291,1.983,0.949,3.117,0.026
			c0.66-0.537,1.667-1.067,2.5-0.36C65.166,25.485,66.243,26.014,65.896,27.339z"/>
		<path style="fill-rule:evenodd;clip-rule:evenodd;fill:#7B491E;" d="M353.255,76.559c1.359-0.117,3.21-0.259,4.135,1.72
			c0.387,0.826,0.711,0.156,1.017,0.118c0.658-0.083,1.297-0.399,1.951-0.425c1.34-0.053,3.002-0.433,3.5,1.331
			c0.423,1.5-0.642,2.675-1.778,3.435c-1.363,0.912-2.807,0.06-3.618-0.874c-1.06-1.221-1.433-1.646-2.787-0.202
			c-1.951,2.079-5.729,1.486-7.569-0.754c-0.589-0.716-0.612-1.601-0.285-2.138c0.602-0.99,1.294-2.12,2.698-2.203
			C351.285,76.521,352.059,76.559,353.255,76.559z"/>
		<path style="fill-rule:evenodd;clip-rule:evenodd;fill:#7B491E;" d="M43.032,17.23c1.269,0.031,4.272,3.049,4.319,4.341
			c0.083,2.333-3.984,5.556-6.792,5.381c-1.778-0.11-2.538-1.605-2.471-4.858C38.136,19.789,40.792,17.177,43.032,17.23z"/>
		<path style="fill-rule:evenodd;clip-rule:evenodd;fill:#7B491E;" d="M75.158,22.485c-0.167,1.294-0.989,2.848-2.471,3.846
			c-1.118,0.753-2.106-0.424-3.141-0.776c-0.448-0.153-0.813-0.462-0.852-0.978c-0.114-1.547-0.74-2.076-2.43-1.864
			c-1.46,0.183-1.766-1.326-1.706-2.425c0.086-1.592,1.227-2.632,2.692-2.996c1.144-0.284,2.152,0.083,2.491,1.553
			c0.175,0.762,0.925,0.862,1.702,0.5C73.795,18.25,75.215,19.26,75.158,22.485z"/>
		<path style="fill-rule:evenodd;clip-rule:evenodd;fill:#7B491E;" d="M354.818,46.364c4.617,0.179,6.152,1.007,5.859,3.093
			c-0.198,1.409-2.1,2.43-3.799,2.04c-3.105-0.714-3.967-1.882-3.172-4.487c-1.781-0.003-3.471-0.345-4.825-1.526
			c-0.507-0.442-0.312-1.193-0.213-1.769c0.283-1.654,3.048-2.625,5.173-1.871C355.45,42.413,355.811,43.925,354.818,46.364z"/>
		<path style="fill-rule:evenodd;clip-rule:evenodd;fill:#7B491E;" d="M62.169,57.981c-1.831,0.103-3.165-0.051-3.542-1.212
			c-0.399-1.232-0.507-2.702,0.858-3.726c0.655-0.491,1.083-1.218,1.556-1.911c1.16-1.701,3.701-1.939,5.418-0.656
			c1.477,1.103,1.455,2.575,0.448,4.531C65.729,57.3,63.687,57.679,62.169,57.981z"/>
		<path style="fill-rule:evenodd;clip-rule:evenodd;fill:#7B491E;" d="M42.827,29.282c1.719-0.033,3.119,2.254,2.649,4.249
			c-0.399,1.695-3.913,4.802-5.696,5.007c-1.192,0.137-1.94-0.491-2.13-1.596c-0.497-2.898,1.061-5.833,3.743-7.208
			C41.855,29.496,42.288,29.121,42.827,29.282z"/>
		<path style="fill-rule:evenodd;clip-rule:evenodd;fill:#7B491E;" d="M361.72,74.24c-3.21-0.002-4.322-0.868-4.28-3.332
			c0.034-2.026,1.905-4.02,3.831-4.083c2.207-0.073,4.506,2.044,4.512,4.155C365.788,73.416,364.76,74.242,361.72,74.24z"/>
		<path style="fill-rule:evenodd;clip-rule:evenodd;fill:#7B491E;" d="M383.692,57.09c-2.81,0.006-4.454-1.354-4.467-3.695
			c-0.01-1.792,1.723-3.252,3.864-3.257c3.017-0.006,4.938,1.433,4.94,3.703C388.032,55.738,386.234,57.085,383.692,57.09z"/>
		<path style="fill-rule:evenodd;clip-rule:evenodd;fill:#7B491E;" d="M93.275,101.593c2.161-0.04,2.854,0.879,2.304,2.651
			c-0.78,2.513-1.551,5.011-4.15,6.387c-0.876,0.463-1.604,0.621-2.367-0.036c-0.815-0.702-1.767-1.441-1.357-2.682
			c0.889-2.688,3.318-4.199,5.018-6.271C92.854,101.481,93.314,101.591,93.275,101.593z"/>
		<path style="fill-rule:evenodd;clip-rule:evenodd;fill:#7B491E;" d="M44.128,54.56c-0.366,1.713-0.591,3.491-2.509,4.453
			c-2.003,1.004-3.655,0-5.325-0.771c-0.453-0.209-0.988-1.043-0.903-1.477c0.459-2.355,2.649-3.095,4.327-4.303
			c1.038-0.748,2.117-0.692,3.169-0.057C43.66,52.873,44.487,53.353,44.128,54.56z"/>
		<path style="fill-rule:evenodd;clip-rule:evenodd;fill:#7B491E;" d="M356.993,31.639c2.121-0.12,3.345,0.411,4.256,1.621
			c1.04,1.379,0.737,2.769-0.851,3.345c-1.598,0.58-3.236,1.08-4.896,1.434c-1.019,0.217-2.225,0.304-2.866-0.844
			c-0.564-1.01-0.319-1.896,0.387-2.904C354.186,32.635,355.786,31.987,356.993,31.639z"/>
		<path style="fill-rule:evenodd;clip-rule:evenodd;fill:#7B491E;" d="M63.593,129.86c-2.348,0.002-3.676-0.976-3.718-2.736
			c-0.055-2.292,2.832-4.41,5.997-4.13c1.492,0.132,2.315,1.303,2.343,2.874C68.253,128.075,66.185,129.857,63.593,129.86z"/>
		<path style="fill-rule:evenodd;clip-rule:evenodd;fill:#7B491E;" d="M71.923,45.816c-0.041,1.62-2.602,4.217-4.089,4.145
			c-1.577-0.076-3.38-2.069-3.326-3.679c0.069-2.099,2.627-4.61,4.57-4.486C70.594,41.893,71.973,43.84,71.923,45.816z"/>
		<path style="fill-rule:evenodd;clip-rule:evenodd;fill:#7B491E;" d="M323.6,59.546c0.042,2.839-2.406,5.163-4.961,4.96
			c-1.752-0.139-2.996-1.973-2.275-3.596c0.598-1.344,1.32-2.578,2.725-3.461c1.148-0.723,2.261-1.175,3.351-0.648
			C323.515,57.32,323.42,58.702,323.6,59.546z"/>
		<path style="fill-rule:evenodd;clip-rule:evenodd;fill:#7B491E;" d="M73.382,32.991c1.258-0.064,2.425,0.048,2.986,1.44
			c0.548,1.361-0.162,2.326-1.014,3.237c-0.526,0.562-1.085,1.093-1.63,1.639c-0.757,0.76-0.99,2.728-2.727,1.305
			c-2.655-2.175-2.979-3.574-1.361-5.313C71.794,32.98,71.794,32.98,73.382,32.991z"/>
		<path style="fill-rule:evenodd;clip-rule:evenodd;fill:#7B491E;" d="M58.945,48.05c0.002,2.061-2.127,4.418-3.98,4.405
			c-1.993-0.013-3.9-1.493-3.893-3.021c0.007-1.547,3.239-4.43,4.928-4.395C57.773,45.077,58.943,46.272,58.945,48.05z"/>
		<path style="fill-rule:evenodd;clip-rule:evenodd;fill:#7B491E;" d="M376.442,44.812c-0.001,2.077-1.666,3.466-4.163,3.472
			c-1.708,0.004-4.162-1.917-4.154-3.252c0.007-1.337,2.907-3.599,4.73-3.691C374.514,41.258,376.443,43.125,376.442,44.812z"/>
		<path style="fill-rule:evenodd;clip-rule:evenodd;fill:#7B491E;" d="M373.48,67.258c-1.564,0.14-2.778,0.007-3.782-1.674
			c-1.049-1.757-0.548-2.581,0.877-3.41c1.289-0.75,2.633-1.565,4.174-1.28c1.726,0.319,3,2.412,2.595,4.208
			C376.88,67.156,375.308,67.513,373.48,67.258z"/>
		<path style="fill-rule:evenodd;clip-rule:evenodd;fill:#7B491E;" d="M355.264,59.872c2.334-0.026,3.608,1.077,3.565,3.086
			c-0.038,1.758-1.933,3.453-3.801,3.4c-2.432-0.069-4.594-1.428-4.54-2.853C350.55,61.887,353.168,59.895,355.264,59.872z"/>
		<path style="fill-rule:evenodd;clip-rule:evenodd;fill:#7B491E;" d="M39.109,43.728c-0.292,1.164,0.591,2.067,0.403,3.179
			c-0.193,1.143-0.217,2.47-1.542,2.7c-1.531,0.266-3.195,0.335-4.003-1.594c-1.128-2.692-0.772-5.363,2.474-6.284
			C38.226,41.223,39.156,41.898,39.109,43.728z"/>
		<path style="fill-rule:evenodd;clip-rule:evenodd;fill:#7B491E;" d="M102.515,102.465c0.01-2.396,1.49-4.139,3.501-4.122
			c1.95,0.015,2.979,1.202,2.988,3.448c0.008,2.101-1.758,4.832-3.063,4.734C104.146,106.392,102.506,104.447,102.515,102.465z"/>
		<path style="fill-rule:evenodd;clip-rule:evenodd;fill:#7B491E;" d="M57.092,13.498c0.003-2.39,2.919-4.954,5.241-4.609
			c0.972,0.144,1.817,1.409,1.441,2.357c-0.245,0.619,0.069,0.629,0.417,0.967c0.636,0.616,1.156,1.561,0.654,2.449
			c-0.575,1.015-1.907,1.332-2.763,1.05c-1.083-0.357-2.098-0.259-3.141-0.326C57.224,15.274,57.089,15.165,57.092,13.498z"/>
		<path style="fill-rule:evenodd;clip-rule:evenodd;fill:#7B491E;" d="M362.229,44.112c-2.26-0.022-3.395-1.023-3.398-2.997
			c-0.005-1.985,2.096-3.492,4.862-3.491c1.532,0,2.927,1.454,2.928,3.053C366.623,42.882,365.014,44.141,362.229,44.112z"/>
		<path style="fill-rule:evenodd;clip-rule:evenodd;fill:#7B491E;" d="M381.541,36.763c-0.024,1.88-1.467,3.631-2.997,3.641
			c-1.655,0.01-4.615-3.528-4.377-5.427c0.169-1.344,1.134-2.005,2.524-1.991C378.858,33.007,381.562,35.103,381.541,36.763z"/>
		<path style="fill-rule:evenodd;clip-rule:evenodd;fill:#7B491E;" d="M50.139,38.641c-0.042-1.969,1.994-4.739,3.807-5.18
			c2.034-0.495,3.725,1.313,3.071,3.38c-0.613,1.941-1.953,3.362-3.722,4.308C52.004,41.841,50.175,40.336,50.139,38.641z"/>
		<path style="fill-rule:evenodd;clip-rule:evenodd;fill:#7B491E;" d="M49.195,16.754c-1.362,0.173-2.868-0.11-3.108-1.674
			c-0.225-1.455,0.604-2.616,2.336-3.027c1.122-0.267,2.085-1.146,3.186-1.585c0.832-0.333,1.809-0.531,2.511,0.356
			c0.715,0.904,0.926,1.938,0.123,2.854C52.917,15.19,51.75,17.033,49.195,16.754z"/>
		<path style="fill-rule:evenodd;clip-rule:evenodd;fill:#7B491E;" d="M89.666,46.888c-1.214-0.172-1.853-1.394-1.962-2.931
			c-0.132-1.849,2.379-4.552,4.147-4.455c1.641,0.09,2.743,1.06,2.736,2.717C94.574,45.172,92.842,46.917,89.666,46.888z"/>
		<path style="fill-rule:evenodd;clip-rule:evenodd;fill:#7B491E;" d="M347.082,57.077c-0.771-0.148-1.549,0.174-2.379-0.392
			c-2.198-1.499-2.271-3.336,0.077-4.624c1.154-0.632,2.442-1.081,3.723-1.405c1.377-0.35,2.951,2.478,2.237,4.077
			C350.06,56.256,349.068,57.475,347.082,57.077z"/>
		<path style="fill-rule:evenodd;clip-rule:evenodd;fill:#7B491E;" d="M327.653,68.214c-2.365-0.003-3.937-1.389-4.048-3.569
			c-0.067-1.334,1.842-2.93,3.495-2.919c1.912,0.011,3.939,2.067,3.919,3.974C330.997,67.695,330.297,68.218,327.653,68.214z"/>
		<path style="fill-rule:evenodd;clip-rule:evenodd;fill:#7B491E;" d="M347.649,41.982c-0.449,0.837-0.026,2.561-1.636,3.026
			c-3.169,0.916-5.307,0.409-6.373-1.323c-0.442-0.719-0.44-1.397,0.148-2.089c1.104-1.297,5.214-2.247,6.859-1.676
			C347.599,40.249,347.781,40.828,347.649,41.982z"/>
		<path style="fill-rule:evenodd;clip-rule:evenodd;fill:#7B491E;" d="M374.54,76.094c-2.036-0.006-4.587-1.813-4.585-3.249
			c0.004-1.714,2.657-3.484,5.151-3.204c2.104,0.236,2.099,2.108,2.232,3.634C377.487,74.968,376.652,76.549,374.54,76.094z"/>
		<path style="fill-rule:evenodd;clip-rule:evenodd;fill:#7B491E;" d="M104.751,114.1c-1.787,0.157-2.796-0.503-2.708-2.453
			c0.095-2.116,2.375-4.573,4.238-4.496c1.094,0.046,3.24,1.971,3.16,2.834C109.261,111.904,106.742,114.115,104.751,114.1z"/>
		<path style="fill-rule:evenodd;clip-rule:evenodd;fill:#7B491E;" d="M336.362,31.598c2.193,0.001,3.178,0.994,3.25,3.28
			c0.039,1.242-2.236,3.696-3.397,3.663c-2.016-0.056-3.331-1.486-3.341-3.632C332.861,32.401,333.709,31.597,336.362,31.598z"/>
		<path style="fill-rule:evenodd;clip-rule:evenodd;fill:#7B491E;" d="M73.778,11.783c-0.039-1.65,1.455-2.733,3.988-2.894
			c1.336-0.084,2.983,1.608,2.958,3.041c-0.024,1.342-2.99,4.339-4.321,4.365C75.199,16.318,73.828,13.962,73.778,11.783z"/>
		<path style="fill-rule:evenodd;clip-rule:evenodd;fill:#7B491E;" d="M65.896,40.749c0.057,1.401-2.484,3.361-4.633,3.575
			c-1.084,0.108-2.744-1.798-2.774-3.187c-0.034-1.543,2.381-3.702,4.275-3.821C63.981,37.24,65.836,39.272,65.896,40.749z"/>
		<path style="fill-rule:evenodd;clip-rule:evenodd;fill:#7B491E;" d="M67.898,13.508c-1.779,0.605-2.057-0.957-2.366-2.117
			c-0.461-1.726,0.736-2.855,1.965-3.751c0.557-0.407,1.393-0.511,2.12-0.583c1.038-0.104,2.004,0.186,2.777,0.959
			c1.017,1.018,0.288,2.183-0.161,2.896C71.323,12.358,70.092,13.705,67.898,13.508z"/>
		<path style="fill-rule:evenodd;clip-rule:evenodd;fill:#7B491E;" d="M104.331,125.831c0.411-2.042,1.996-2.9,3.768-3.333
			c1.568-0.383,3.12,0.062,3.979,1.523c0.438,0.746,0.454,1.812-0.435,2.498c-1.649,1.275-3.572,2.042-5.6,1.778
			C105.196,128.187,104.206,127.186,104.331,125.831z"/>
		<path style="fill-rule:evenodd;clip-rule:evenodd;fill:#7B491E;" d="M80.396,111.32c-1.971-0.006-3.842-1.484-3.833-3.029
			c0.011-1.603,2.342-3.499,4.214-3.428c1.46,0.056,2.738,1.675,2.733,3.464C83.504,110.81,82.966,111.327,80.396,111.32z"/>
		<path style="fill-rule:evenodd;clip-rule:evenodd;fill:#7B491E;" d="M101.124,120.712c-0.017,2.146-1.606,3.555-3.949,3.598
			c-1.698,0.031-2.863-0.728-2.956-2.39c-0.122-2.173,2.027-4.137,4.18-4.111C100.525,117.834,101.141,118.49,101.124,120.712z"/>
		<path style="fill-rule:evenodd;clip-rule:evenodd;fill:#7B491E;" d="M345.451,22.315c-0.24-2.172,1.032-2.966,2.058-3.541
			c1.549-0.867,3.321-0.654,4.757,0.48c1.908,1.507,1.681,3.205-0.635,3.843c-1.484,0.408-2.87,1.423-4.698,0.75
			C345.73,23.403,345.526,22.728,345.451,22.315z"/>
		<path style="fill-rule:evenodd;clip-rule:evenodd;fill:#7B491E;" d="M28.231,70.532c-1.881-0.047-3.61-1.523-3.584-3.061
			c0.026-1.535,2.25-3.487,3.887-3.432c1.905,0.064,2.79,1.317,3.014,2.939C31.787,68.712,29.899,70.573,28.231,70.532z"/>
		<path style="fill-rule:evenodd;clip-rule:evenodd;fill:#7B491E;" d="M44.425,44.484c-0.205-1.497,1.493-2.401,2.614-3.598
			c0.743-0.794,1.747-0.748,2.595,0.149c0.891,0.942,1.554,1.912,1.022,3.283c-0.68,1.754-2.249,2.634-3.733,3.432
			C45.699,48.408,44.223,46.728,44.425,44.484z"/>
		<path style="fill-rule:evenodd;clip-rule:evenodd;fill:#7B491E;" d="M89.073,115.771c-0.011,1.983-1.889,4.437-3.813,4.787
			c-1.24,0.226-2.22,0.047-2.249-1.698c-0.051-3.069,0.519-4.273,2.912-5.214C87.978,112.838,89.085,113.585,89.073,115.771z"/>
		<path style="fill-rule:evenodd;clip-rule:evenodd;fill:#7B491E;" d="M75.168,112.028c0,1.893-1.428,4.005-2.648,3.918
			c-1.461-0.104-2.938-2.014-2.913-3.769c0.033-2.382,0.967-3.622,2.74-3.639C74.282,108.521,75.168,109.616,75.168,112.028z"/>
		<path style="fill-rule:evenodd;clip-rule:evenodd;fill:#7B491E;" d="M114.608,109.932c0.569-0.004,1.933-0.29,1.825,1.719
			c-0.123,2.297-1.757,4.353-3.583,4.297c-1.633-0.05-2.965-0.457-2.931-2.523C109.956,111.169,111.355,109.92,114.608,109.932z"/>
		<path style="fill-rule:evenodd;clip-rule:evenodd;fill:#7B491E;" d="M358.947,51.992c2.552,0.311,4.235,1.673,4.081,3.888
			c-0.11,1.577-0.852,2.177-2.35,2.146c-1.704-0.036-4.65-2.385-4.628-3.744C356.071,53.046,357.449,51.956,358.947,51.992z"/>
		<path style="fill-rule:evenodd;clip-rule:evenodd;fill:#7B491E;" d="M52.415,59.408c-2.279-0.006-4.017-1.349-4.008-3.099
			c0.004-0.994,2.133-2.881,3.293-2.92c1.783-0.06,3.539,1.772,3.537,3.69C55.235,58.97,54.697,59.414,52.415,59.408z"/>
		<path style="fill-rule:evenodd;clip-rule:evenodd;fill:#7B491E;" d="M87.18,38.559c-1.222-0.079-2.273-0.908-2.277-2.798
			c-0.003-1.567,1.897-3.671,3.304-3.666c1.18,0.004,3.167,2.126,3.177,3.393C91.395,36.845,89.399,38.525,87.18,38.559z"/>
		<path style="fill-rule:evenodd;clip-rule:evenodd;fill:#7B491E;" d="M342.608,28.819c-2.29,0.047-4.075-1.27-4.182-3.085
			c-0.121-2.072,1.456-2.568,2.893-2.876c1.518-0.327,3.882,1.978,3.814,3.69C345.08,27.912,344.295,28.902,342.608,28.819z"/>
		<path style="fill-rule:evenodd;clip-rule:evenodd;fill:#7B491E;" d="M386.261,44.685c-0.267,1.089-0.333,2.198-0.812,3.085
			c-0.48,0.893-1.232,1.401-2.417,0.452c-1.794-1.437-2.066-3.433-2.341-5.41c-0.083-0.597,0.322-1.537,1.104-1.846
			c0.758-0.3,1.507-0.142,2.044,0.564C384.641,42.587,386.06,43.194,386.261,44.685z"/>
		<path style="fill-rule:evenodd;clip-rule:evenodd;fill:#7B491E;" d="M334.212,42.001c0.062,1.041-2.011,2.526-3.557,2.546
			c-0.961,0.013-2.855-2.355-2.876-3.616c-0.032-1.954,1.378-2.562,2.898-2.797C332.208,37.897,334.099,40.09,334.212,42.001z"/>
		<path style="fill-rule:evenodd;clip-rule:evenodd;fill:#7B491E;" d="M387.562,65.135c-0.068,1.292-0.921,2.365-2.547,2.581
			c-1.298,0.172-3.893-1.915-3.933-2.971c-0.047-1.26,2.262-3.378,3.784-3.472C385.984,61.204,387.581,63.271,387.562,65.135z"/>
		<path style="fill-rule:evenodd;clip-rule:evenodd;fill:#7B491E;" d="M371.957,51.992c2.032-0.023,3.093,1.139,3.104,3.296
			c0.011,2.042-1.407,2.533-2.979,2.7c-1.396,0.149-3-1.563-3.056-3.052C368.96,53.127,370.068,52.013,371.957,51.992z"/>
		<path style="fill-rule:evenodd;clip-rule:evenodd;fill:#7B491E;" d="M366.26,82.777c-0.185-0.793,0.245-1.536,0.852-1.681
			c1.489-0.355,3.002-1.11,4.545-0.656c0.862,0.254,2.03,0.729,1.947,1.903c-0.064,0.917-0.51,1.723-1.591,2.214
			c-1.806,0.821-3.441,1.558-5.13-0.158C366.415,83.925,366.146,83.45,366.26,82.777z"/>
		<path style="fill-rule:evenodd;clip-rule:evenodd;fill:#7B491E;" d="M94.381,36.696c-1.813,0.393-2.128-0.688-2.098-2.377
			c0.035-1.945,0.586-3.208,2.78-3.19c1.7,0.014,3.821,1.499,3.734,2.659C98.697,35.134,96.411,36.707,94.381,36.696z"/>
		<path style="fill-rule:evenodd;clip-rule:evenodd;fill:#7B491E;" d="M349.098,86.431c-0.104,1.129-0.083,2.725-2.346,2.652
			c-1.857-0.06-3.634-1.431-3.681-2.947c-0.051-1.64,1.609-3.055,3.622-3.087C348.03,83.027,349.088,84.336,349.098,86.431z"/>
		<path style="fill-rule:evenodd;clip-rule:evenodd;fill:#7B491E;" d="M33.651,64.506c-1.939-0.008-3.013-1.042-2.979-2.866
			c0.026-1.393,1.697-3.148,3.003-3.155c1.396-0.007,3.045,1.849,3.026,3.366C36.676,63.893,35.529,64.611,33.651,64.506z"/>
		<path style="fill-rule:evenodd;clip-rule:evenodd;fill:#7B491E;" d="M331.946,83.798c-0.128-1.724,1.181-2.021,2.365-2.1
			c1.812-0.119,4.728,2.387,4.438,3.839c-0.188,0.948-0.704,2.108-2.041,2.125C334.812,87.687,331.978,85.346,331.946,83.798z"/>
		<path style="fill-rule:evenodd;clip-rule:evenodd;fill:#7B491E;" d="M53.385,20.099c0.069-1.633,2.085-3.498,3.903-3.273
			c1.346,0.166,2.674,0.784,2.586,2.599c-0.064,1.313-2.306,3.494-3.597,3.133C55.074,22.22,53.168,22.275,53.385,20.099z"/>
		<path style="fill-rule:evenodd;clip-rule:evenodd;fill:#7B491E;" d="M334.928,25.633c-2.29-0.234-3.287-2.079-1.971-3.93
			c1.452-2.042,3.795-2.646,5.867-0.605c0.273,0.269,0.56,0.516,0.512,0.963C339.247,22.893,335.771,25.719,334.928,25.633z"/>
		<path style="fill-rule:evenodd;clip-rule:evenodd;fill:#7B491E;" d="M344.571,61.722c1.757-0.2,2.702,0.961,3.07,2.64
			c0.228,1.038-1.679,2.932-2.752,2.926c-1.595-0.009-3.688-1.868-3.671-3.263C341.233,62.801,342.66,61.759,344.571,61.722z"/>
		<path style="fill-rule:evenodd;clip-rule:evenodd;fill:#7B491E;" d="M358.966,89.535c-1.827-0.023-3.428-1.36-3.379-2.818
			c0.031-0.911,2.75-2.861,3.987-2.591c1.427,0.312,2.514,1.211,2.498,2.9C362.058,88.546,360.795,89.56,358.966,89.535z"/>
		<path style="fill-rule:evenodd;clip-rule:evenodd;fill:#7B491E;" d="M14.812,79.84c-1.209-0.115-2.324,0.309-2.642-0.964
			c-0.258-1.032,0.014-1.957,0.951-2.616c0.675-0.475,1.341-0.97,1.965-1.509c0.676-0.581,1.242-1.577,2.27-0.595
			c0.896,0.855,1.384,1.698,0.515,3.043C17.004,78.542,16.612,80.233,14.812,79.84z"/>
		<path style="fill-rule:evenodd;clip-rule:evenodd;fill:#7B491E;" d="M89.082,130.323c-1.371,0.08-2.754-0.051-2.77-1.988
			c-0.012-1.481,1.875-3.086,3.361-3.126c2.025-0.055,2.529,1.291,2.611,2.854C92.373,129.751,91.47,130.332,89.082,130.323z"/>
		<path style="fill-rule:evenodd;clip-rule:evenodd;fill:#7B491E;" d="M71.003,124.186c-0.159-1.782,0.657-2.865,2.472-3.125
			c1.607-0.229,2.005,1.037,2.102,2.12c0.177,1.971-1.211,3.904-2.513,3.898C71.069,127.071,70.921,125.73,71.003,124.186z"/>
		<path style="fill-rule:evenodd;clip-rule:evenodd;fill:#7B491E;" d="M80.178,129.858c-0.628-0.034-1.668,0.12-1.486-0.738
			c0.158-0.747,0.893-1.553,1.963-1.58c0.901-0.023,1.537,0.315,1.433,1.284C81.963,129.98,81.015,129.873,80.178,129.858z"/>
		<path style="fill-rule:evenodd;clip-rule:evenodd;fill:#7B491E;" d="M318.506,24.765c-0.043,1.221-1.021,1.458-1.601,1.551
			c-0.444,0.07-1.221-0.643-1.162-1.454c0.061-0.854,0.685-1.555,1.42-1.507C317.856,23.401,318.464,24.084,318.506,24.765z"/>
		<path style="fill-rule:evenodd;clip-rule:evenodd;fill:#7B491E;" d="M377.077,24.984c-0.868-0.499-1.913-0.798-2.007-1.979
			c-0.047-0.596,0.354-1.177,0.909-1.07c1.084,0.209,1.415,1.279,1.793,2.15C377.96,24.516,377.503,24.85,377.077,24.984z"/>
		<path style="fill-rule:evenodd;clip-rule:evenodd;fill:#7B491E;" d="M320.809,20.788c0.067,0.785-0.167,1.438-0.861,1.455
			c-0.702,0.016-0.744-0.835-0.932-1.331c-0.253-0.67,0.183-0.929,0.86-0.908C320.489,20.022,320.979,20.088,320.809,20.788z"/>
		<path style="fill-rule:evenodd;clip-rule:evenodd;fill:#7B491E;" d="M323.487,24.231c-0.225-0.082-0.415-0.151-0.604-0.22
			c0.13-0.093,0.255-0.257,0.391-0.266c0.19-0.012,0.39,0.09,0.585,0.144C323.741,23.997,323.624,24.105,323.487,24.231z"/>
		<path style="fill-rule:evenodd;clip-rule:evenodd;fill:none;" d="M202.097,35.845c1.711-0.313,3.263-0.108,4.549,1
			c0.371,0.32,1.078,0.494,0.759,1.393c-0.286,0.809-0.782,0.704-1.387,0.794c-2.655,0.395-4.731-1.296-7.102-1.911
			c-0.165-0.043-0.421-0.365-0.39-0.419c0.175-0.31,0.403-0.795,0.651-0.819C200.167,35.79,201.172,35.845,202.097,35.845z"/>
		<path style="fill-rule:evenodd;clip-rule:evenodd;fill:none;" d="M211.011,17.413c-2.197,1.103-3.828-0.862-5.761-0.742
			c-0.076,0.005-0.298-0.446-0.241-0.516c0.229-0.285,0.533-0.707,0.821-0.716C207.751,15.38,209.903,14.786,211.011,17.413z"/>
		<path style="fill-rule:evenodd;clip-rule:evenodd;fill:none;" d="M196.17,52.088c-1.021-0.351-1.678-0.577-2.396-0.823
			C195.159,50.368,195.159,50.368,196.17,52.088z"/>
	</g>
</g>
</svg>
