<?xml version="1.0" encoding="iso-8859-1"?>
<!-- Generator: Adobe Illustrator 16.0.0, SVG Export Plug-In . SVG Version: 6.00 Build 0)  -->
<!DOCTYPE svg PUBLIC "-//W3C//DTD SVG 1.1//EN" "http://www.w3.org/Graphics/SVG/1.1/DTD/svg11.dtd">
<svg version="1.1" id="Layer_1" xmlns="http://www.w3.org/2000/svg" xmlns:xlink="http://www.w3.org/1999/xlink" x="0px" y="0px"
	 width="401.625px" height="281.625px" viewBox="0 0 401.625 281.625" style="enable-background:new 0 0 401.625 281.625;"
	 xml:space="preserve">
<g>
	<g>
		<path style="fill:none;" d="M200.812,281.075c-65.965,0-131.93-0.01-197.895,0.05c-1.973,0.002-2.419-0.444-2.417-2.418
			c0.057-91.93,0.057-183.859,0-275.79C0.499,0.944,0.944,0.5,2.917,0.5c131.93,0.054,263.859,0.054,395.79,0
			c1.973,0,2.418,0.444,2.417,2.417c-0.056,91.93-0.056,183.86,0,275.79c0.001,1.973-0.443,2.42-2.417,2.418
			C332.743,281.065,266.778,281.075,200.812,281.075z M41.567,144.271c0.053-0.499-0.039-1.068,0.753-1.086
			c1.93-0.044,2.235-1.53,2.42-2.949c0.589-4.534-3.23-5.829-6.858-4.615c-1.984,0.664-3.508,1.845-3.149,4.388
			c0.239,1.69,1.276,2.858,2.309,4.004c1.394,1.546,3.062-0.109,4.59,0.191c0.624,0.819-0.387,0.93-0.605,1.381
			c-0.883,1.824-2.315,3.596-1.524,5.747c0.864,2.347,4.125,3.39,6.646,2.368c1.648-0.668,3.228-4.59,2.548-6.329
			C47.366,143.96,45.409,143.107,41.567,144.271z M82.762,214.696c-0.541-5.758,2.717-9.443,4.843-13.472
			c1.671-3.168,5.185-4.629,7.794-6.942c1.501-1.331,2.302-2.589,1.124-4.261c-1.564-2.219-7.884-2.165-9.373,0.095
			c-0.766,1.163-1.554,1.896-2.882,2.287c-0.963,0.283-1.738,0.921-2.198,2.003c-1.351,3.178-4.047,5.426-6.326,7.808
			c-2.48,2.592-4.986,5.084-7.262,7.907c-3.148,3.904-7.277,6.946-11.737,9.247c-1.587,0.818-3.728,2.347-5.748,0.758
			c-1.418-1.114-2.365-0.592-3.399,0.366c-1.487,1.377-2.91,1.633-4.642,0.232c-1.099-0.889-2.299-1.042-3.671,0.205
			c-2.629,2.39-5.722,3.882-9.464,3.865c-3.87-0.016-6.652,2.64-9.766,4.436c-0.616,0.355-0.815,1.11-0.439,1.596
			c0.91,1.173,0.204,2.157-0.192,3.156c-1.048,2.645-0.26,4.742,2.326,4.659c2.237-0.071,1.46,0.973,1.186,1.822
			c-0.721,2.24,0.345,3.042,2.28,2.662c2.043-0.401,3.989-1.283,6.004-1.859c1.138-0.326,2.37-0.343,3.285-1.256
			c0.521-0.519,0.963-1.251,1.891-0.51c0.903,0.721,0.257,1.279-0.021,1.961c-0.632,1.552,0.357,3.229,1.608,2.673
			c1.662-0.741,3.597-0.556,5.06-1.989c0.46,2.062-1.734,2.337-1.931,3.68c-0.47,3.205-3.233,4.768-5.383,6.087
			c-2.121,1.301-4.214,2.325-5.72,4.409c-2.115,2.925-4.915,4.853-8.47,5.883c-2.622,0.761-2.679,3.165-2.591,5.504
			c0.08,2.104,1.805,1.896,3.041,2.495c1.366,0.662,2.754,0.158,4.115,0.346c0.663,0.092,1.296-0.081,1.973,0.403
			c3.832,2.739,6.531,2.19,10.22-0.885c2.259-1.884,3.59-4.391,5.595-6.42c3.616-3.661,7.538-7.028,10.775-11.081
			c1.78-2.229,3.748-4.439,5.887-6.226c1.777-1.483,2.761-2.973,3.139-5.053c0.127-0.701,0.555-1.121,1.023-1.44
			c2.296-1.569,3.367-3.912,4.268-6.401c0.599-1.655,1.893-2.772,3.264-3.755c1.103-0.79,1.639,0.589,2.486,0.809
			c0.413,0.106,0.872,0.025,1.309,0.052c3.124,0.189,5.737-1.321,8.391-2.606c1.169-0.566,2.429-1.479,3.577-1.002
			c2.102,0.876,3.658-0.275,5.223-1.053c0.753-0.373,1.607-0.835,2.316-0.948c3.75-0.596,6.298-2.917,8.567-5.635
			c1.236-1.48,2.498-2.842,4.252-3.72c1.369-0.687,2.444-1.781,3.372-2.976c1.351-1.738,0.812-5.572-1.935-5.696
			c-1.533-0.069-3.066-0.145-4.655,0.245c-4.165,1.021-7.767,3.191-11.391,5.28c-2.069,1.192-4.247,2.613-6.412,1.6
			C85.601,213.226,84.419,212.944,82.762,214.696z M103.144,236.266c0.773,2.805-0.516,5.052-2.088,7.141
			c-0.736,0.978-1.322,1.905-1.637,3.128c-1.041,4.037-3.959,6.319-7.721,7.634c-2.83,0.988-4.88-0.121-5.887-3.125
			c-0.303-0.906-1.201-1.356-1.744-1.336c-2.524,0.093-2.949-1.756-2.346-3.195c0.823-1.965,0.616-4.105,1.69-6.018
			c1.692-3.013,0.037-5.331-3.422-5.229c-0.829,0.025-1.413,0.336-2.109,0.757c-2.394,1.447-4.521,3.212-6.625,5.026
			c-2.259,1.946-3.952,4.131-3.888,7.352c0.064,3.238,0.244,6.399-1.634,9.479c-1.709,2.802,0.24,5.906,3.573,6.307
			c1.132,0.137,1.978,0.63,2.218,1.505c0.666,2.424,2.315,2.52,4.203,1.98c1.521-0.434,2.713-0.342,4.094,0.648
			c1.327,0.952,2.973,1.106,4.639,0.135c1.817-1.06,3.709-2.126,5.931-2.109c2.512,0.018,4.693-0.869,6.557-2.476
			c3.424-2.951,6.155-6.649,9.434-9.644c3.979-3.633,7.035-7.758,9.751-12.246c1.045-1.729,1.765-3.615,1.831-5.778
			c0.116-3.828,1.642-7.254,4.52-9.726c1.445-1.241,2.527-2.401,3.001-4.231c0.332-1.282,0.832-2.579-0.335-3.592
			c-1.438-1.247-3.296-1.906-5.016-1.026c-3.52,1.8-7.424,3.099-9.649,6.843c-0.582,0.98-1.697,1.692-2.636,2.473
			C104.974,229.328,102.259,231.923,103.144,236.266z M158.226,234.931c-0.948,2.018,0.162,3.332,1.894,3.947
			c0.958,0.341,1.177,0.84,0.908,1.431c-0.691,1.518-1.584,2.943-2.396,4.406c-1.381-0.768-3.057,0.726-4.456-0.71
			c-0.7-0.718-1.968-0.56-2.443,0.482c-0.39,0.855-1.103,0.973-1.728,1.318c-1.618,0.895-2.48,2.183-2.055,4.051
			c0.323,1.421,1.375,1.842,2.765,1.759c1.938-0.116,3.835-0.358,4.525-2.519c0.248-0.776,0.958-1.913,1.113-1.602
			c0.815,1.634,3.219-0.134,3.705,2.021c0.716,3.175,0.212,6.438,0.943,9.622c0.285,1.241,0.249,2.674,1.62,2.877
			c1.35,0.2,3.144,0.833,4.124-0.666c0.838-1.28,1.978-2.984,0.376-4.374c-1.449-1.256-1.488-2.738-1.258-4.251
			c0.243-1.604,0.032-3.154-0.063-4.721c-0.226-3.72,0.185-7.567-2.091-10.9c-1.385-2.029-1.728-3.936-0.709-6.484
			c0.752-1.882-1.62-3.235-2.986-4.473c-0.995-0.901-1.873,0.403-2.671,0.813c-0.628,0.322-0.727,1.631-1.356,2.01
			c-1.931,1.164-2.268,2.853-1.69,4.718C154.937,235.758,156.934,234.24,158.226,234.931z M36.685,71.354
			c0.102-1.047-1.552-0.503-1.4-1.613c0.255-1.86-1.322-2.862-2.033-4.274c-0.678-1.349-0.748-3.394-3.111-1.942
			c-0.082-0.248-0.212-0.492-0.239-0.746c-0.343-3.295-3.807-5.427-3.151-9.237c0.337-1.956-1.613-3.104-3.288-2.337
			c-1.372,0.628-2.662,1.449-3.945,2.253c-0.886,0.554-1.609,1.688-0.983,2.414c1.552,1.799,1.436,5.245,4.907,5.208
			c0.541-0.006,0.861,0.268,0.772,0.779c-0.476,2.715,1.464,3.673,3.397,4.415c0.821,0.314,0.9,0.697,0.819,1.292
			c-0.299,2.193,1.17,3.378,2.806,3.788c1.689,0.423,1.767,1.526,1.321,2.404c-0.903,1.78,0.044,2.816,1.112,3.796
			c0.753,0.691,1.921,0.68,2.649,0.042c1.073-0.938,2.132-1.985,1.182-3.773c-0.307-0.577-0.884-2.032,1.275-1.806
			c2.071,0.217,3.856-2.773,3.43-4.94c-0.204-1.035-0.414-2.386-1.333-2.592c-0.847-0.191-1.655,0.912-2.414,1.627
			C36.935,67.548,36.668,69.258,36.685,71.354z M309.975,238.422c0.635-1.717-0.998-2.529-1.229-3.908
			c-0.03-0.183-0.986-1.512-2.206-0.912c-0.801,0.393-1.657,1.042-1.185,1.653c1.164,1.508-0.131,2.748-0.065,4.095
			c0.024,0.518-0.063,1.395,0.166,1.492c1.491,0.642,2.076,1.421,1.58,3.186c-0.283,1.006-1.521,3.073-2.653,2.853
			c-2.677-0.521-3.909,0.417-4.202,3.192c-0.161,1.535-0.311,2.958,1.246,3.486c1.479,0.501,3.123,0.422,3.882-1.517
			c0.37-0.944,0.532-1.892,2.195-1.658c0.944,0.133,2.523-0.779,2.511-2.448c-0.019-2.213,1.114-2.224,2.863-1.778
			c1.471,0.373,3.154,0.694,4.272-0.911c0.543-0.778-0.297-5.88-1.036-6.688C314.814,237.135,312.237,237.007,309.975,238.422z
			 M294.75,221.279c-0.346,2.671,0.658,4.929,2.739,6.343c1.52,1.031,2.166,2.169,1.98,3.801c-0.287,2.53,1.678,2.714,3.14,2.703
			c1.982-0.015,2.723-1.762,2.072-3.36c-1.295-3.179-2.933-6.223-4.53-9.268c-0.704-1.344-1.449-2.221,0.114-3.779
			c3.485-3.475,3.212-4.297-1.057-6.084c-2.792-1.17-4.646-0.002-4.383,3.091C295.015,216.942,294.903,219.105,294.75,221.279z
			 M223.308,237.021c-2.187,1.117-2.539,2.79-2.197,4.614c0.233,1.243,0.757,2.575,2.028,3.052c1.091,0.409,2.106-0.055,3.016-0.988
			c1.132-1.159,0.562-2.143,0.188-3.305c-0.527-1.641-1.175-3.108-0.698-5.12c0.596-2.51,0.637-5.373-1.068-7.743
			c-1.011-1.405-1.987-2.775-1.943-4.626c0.02-0.822-0.517-1.189-1.328-1.312c-1.545-0.234-2.817,0.242-3.575,1.564
			c-0.805,1.403-0.658,3.193,0.481,4.055c2.133,1.61,2.006,3.696,1.751,5.761C219.655,235.462,220.361,236.898,223.308,237.021z
			 M108.966,61.637c0.05-3.32-0.008-3.278-2.427-4.864c-1.018-0.667-2.086-0.582-2.97-0.301c-0.812,0.259-0.366,1.397-0.369,2.133
			c-0.013,3.885,2.707,7.051,2.942,10.897c0.022,0.364,0.686,0.893,1.131,0.993c2.258,0.51,2.393,2.111,2.234,3.954
			c-0.074,0.857-0.133,1.725,0.718,2.355c1.817,1.345,4.213,1.062,5.575-0.74c1.479-1.958,0.247-3.408-1.243-4.295
			c-1.973-1.174-3.514-2.302-3.029-4.918c0.062-0.334-0.501-0.891-0.894-1.183C109.143,64.563,108.653,63.116,108.966,61.637z
			 M34.767,162.078c4.464,1.445,7.802-1.056,7.347-5.172c-0.158-1.428-0.706-2.402-2.375-2.876
			c-1.539-0.438-2.091-0.078-3.174,1.025c-1.447,1.475-2.127,3.196-2.766,5.156c-1.175-0.861-1.957-3.014-3.359-1.248
			c-1.168,1.472-1.908,3.385-2.455,5.217c-0.417,1.397,0.601,2.456,1.821,3.225c1.377,0.867,2.906,0.474,3.79-0.323
			C34.863,165.938,35.529,164.21,34.767,162.078z M266.86,166.792c0.025,2.131,2.423,5.686,3.551,5.706
			c1.67,0.03,4.163-2.783,4.365-4.794c0.187-1.862,0.302-3.77,0.812-5.552c0.698-2.442,0.505-3.011-1.93-3.162
			c-0.705-0.045-1.33-0.134-1.946-0.518c-1.875-1.168-2.99-0.235-3.779,1.459C266.848,162.26,267.851,164.896,266.86,166.792z
			 M161.671,166.247c-0.259-2.366-1.151-4.605-1.333-7.021c-0.119-1.582-1.298-2.419-3.222-1.399
			c-2.587,1.37-5.52,9.155-4.166,11.69c0.039,0.072,0.15,0.108,0.185,0.181c1.015,2.173,3.147,2.469,4.782,1.747
			C159.905,170.567,161.963,169.105,161.671,166.247z M12.531,188.442c2.468,0.261,5.685-1.702,5.911-3.604
			c0.315-2.651-2.972-7.635-5.246-7.954c-1.715-0.241-5.6,2.923-5.804,4.727C7.098,184.209,10.089,188.185,12.531,188.442z
			 M132.322,132.127c-2.067,0.385-4.495,1.694-5.669,3.909c-0.637,1.2-1.928,2.991-0.763,4.911c1.031,1.699,2.687,2.148,4.294,2.164
			c3.143,0.031,6.46-3.525,6.68-6.769C137.029,133.894,135.385,132.132,132.322,132.127z M293.76,92.654
			c2.94,0.557,4.877-2.389,5.166-5.417c0.282-2.955-3.963-5.85-8.247-5.508c-1.371,0.109-2.427,1.341-2.225,2.999
			C288.958,88.863,289.841,93.117,293.76,92.654z M140.028,162.105c0.487-0.856-0.633-1.671-0.547-2.742
			c0.2-2.478-1.966-2.333-3.413-3.048c-1.552-0.768-2.777-0.388-3.883,0.762c-3.099,3.221-2.808,5.788,0.629,8.712
			c1.524,1.297,3.157,2.203,4.888,1.391C139.507,166.334,140.061,164.372,140.028,162.105z M345.009,145.279
			c1.045,0,1.877,0.161,2.614-0.034c1.421-0.375,2.349-1.438,1.397-2.783c-1.187-1.679-1.591-3.586-2.344-5.396
			c-0.616-1.48-1.496-3.258-3.531-2.767c-1.717,0.415-3.622,1.374-4.059,3.154c-0.469,1.912-1.358,4.153,0.815,5.922
			C341.504,144.677,343.088,145.731,345.009,145.279z M110.49,40.891c-1.031-0.238-1.659-0.791-2.32-1.367
			c-4.1-3.576-3.262,1.943-4.957,2.841c-1.78,0.942-1.164,2.579,0.141,3.817c0.11,0.104,0.329,0.084,0.486,0.15
			c2.804,1.174,4.178,0.641,5.675-2.257c0.438-0.848,0.898-1.763,1.898-0.736c1.503,1.543,2.548,0.006,3.409-0.63
			c1.036-0.765,1.463-2.283,0.795-3.503c-0.475-0.867-1.798-1.27-2.274-2.136c-0.627-1.143-1.532-0.8-2.221-0.654
			c-0.977,0.207-0.872,1.341-0.748,2.011C110.521,39.216,110.522,39.962,110.49,40.891z M241.044,163.169
			c0.769,0,1.394,0.086,1.986-0.014c3.331-0.562,5.151-3.078,3.511-5.142c-1.18-1.482-2.106-3.275-3.99-4.253
			c-1.124-0.585-2.028-0.737-3.118-0.268c-1.75,0.755-3.216,3.748-2.496,5.89C237.587,161.319,238.165,163.749,241.044,163.169z
			 M347.391,248.277c0,0.346,0.031,0.694-0.006,1.035c-0.147,1.378,0.285,2.523,1.715,2.765c1.751,0.296,3.054-0.883,3.815-2.18
			c0.612-1.045,0.845-2.865-0.563-3.457c-1.441-0.605-3.386-2.292-4.607-1.027c-2.216,2.293-3.144-1.929-4.873-0.537
			c-0.066,0.053-0.153,0.085-0.209,0.146c-1.239,1.362-2.488,2.715-3.709,4.094c-1.089,1.23-0.333,2.386,0.515,3.141
			c0.873,0.777,2.129,0.721,3.012-0.243c0.774-0.845,1.652-1.778,2.69-1.884C346.547,249.989,346.763,249.11,347.391,248.277z
			 M148.968,170.751c0.136-1.953-0.931-3.873-0.971-5.883c-0.034-1.697-0.879-2.408-2.18-2.675
			c-1.338-0.275-2.311,0.994-2.471,1.878c-0.262,1.443-1.208,1.881-2.191,2.21c-1.427,0.479-1.48,1.895-1.482,2.7
			c-0.003,0.937,0.206,2.331,1.736,2.793c1.59,0.479,3.21,1.115,4.569,2.044c2.304,1.575,2.435-0.34,2.967-1.63
			C149.098,171.815,148.968,171.325,148.968,170.751z M134.107,37.827c1.515,0.607,2.613-0.375,3.15-1.354
			c0.607-1.107-0.246-2.293-1.094-3.208c-0.475-0.512-1.028-0.955-1.471-1.492c-1.949-2.362-2.288-2.37-3.787,0.265
			c-0.568,1-0.914,1.636-1.895,0.321c-1.502-2.015-2.292-1.836-3.314,0.566c-0.231,0.544-0.542,1.074-0.91,1.536
			c-1.187,1.493-0.472,2.693,0.486,3.918c0.963,1.233,2.231,0.543,3.318,0.478c1.471-0.088,0.638-2.733,2.168-2.522
			C131.894,36.492,132.368,38.626,134.107,37.827z M375.286,144.395c-0.039-3.157-1.995-4.377-4.803-3.019
			c-0.909,0.439-1.892,0.735-2.781,1.21c-2.094,1.116-2.414,2.92-1.9,5.068c0.572,2.393,2.206,3.167,4.414,2.868
			C373.061,150.136,375.322,147.309,375.286,144.395z M134.233,151.795c-0.019-2.167-3.31-6.605-5.216-7.014
			c-0.683-0.146-1.25,0.128-1.506,0.75c-0.907,2.197-1.848,4.428-1.66,6.854c0.162,2.098,2.125,4.008,3.763,3.95
			C132.029,156.251,134.254,154.063,134.233,151.795z M17.918,79.7c0.407,3.455,1.765,7.186,6.363,6.653
			c0.591-0.069,1.279-0.096,1.794,0.138c0.939,0.426,2.061,0.801,2.513-0.176c0.437-0.943,1.208-1.875,0.638-3.328
			c-0.563-1.436-1.317-2.371-2.638-2.842c-2.212-0.79-4.615-0.867-6.777-2.001C18.946,77.69,17.798,78.251,17.918,79.7z
			 M264.761,137.315c0.283-2.478-1.073-4.177-3.504-4.72c-2.114-0.472-2.561,1.645-3.234,2.993
			c-0.413,0.825-1.054,1.352-1.583,2.009c-1.296,1.604-0.202,2.951,0.508,4.2c0.757,1.33,2.253,1.669,3.645,1.328
			C263.218,142.482,264.738,140.296,264.761,137.315z M170.549,146.898c0,0.964-0.003,1.486,0,2.008
			c0.02,2.817,1.484,4.097,4.193,3.761c1.523-0.189,1.729-1.711,2.665-2.503c1.389-1.179,1.602-3.233,0.837-4.511
			c-0.972-1.622-2.789-2.757-4.32-4.006c-0.241-0.196-0.821,0.088-1.305,0.397C170.568,143.354,170.242,145.189,170.549,146.898z
			 M32.626,86.585c1.655-0.689,2.877-1.367,3.466-2.865c0.679-1.726-0.903-2.789-1.163-4.246c-0.116-0.651-1.016-0.583-1.608-0.479
			c-1.877,0.328-3.847,4.347-2.51,5.599c2.067,1.935,0.366,1.763-0.826,2.327c-1.651,0.782-2.434,2.36-1.991,4.06
			c0.515,1.979,2.22,2.409,4.127,2.208c2.04-0.215,2.038-1.625,2.158-3.193C34.393,88.501,33.786,87.52,32.626,86.585z
			 M242.25,34.759c0.756,0,1.524-0.028,2.29,0.006c1.171,0.052,1.808-0.393,1.807-1.649c-0.001-1.488-0.236-2.881-1.232-4.057
			c-0.643-0.758-1.372-1.465-2.442-1.097c-0.933,0.32-1.312,1.085-1.676,2.077c-0.558,1.521,0.318,3.668-1.184,4.534
			c-1.831,1.056-1.789,2.41-1.827,4.093c-0.034,1.478,0.583,2.545,1.657,3.252c1.014,0.668,1.987,0.121,2.706-0.799
			c0.83-1.064,1.879-1.974,0.902-3.608C242.808,36.771,242.085,36.005,242.25,34.759z M273.708,149.966
			c-0.01,2.78,1.738,4.323,4.22,3.726c2.216-0.535,4.575-6.588,3.303-8.491c-1.307-1.954-5.704-2.77-6.264-0.665
			C274.495,146.308,273.433,148.007,273.708,149.966z M158.472,114.229c-2.598-0.025-3.895,1.537-4.803,3.754
			c-1.005,2.454-0.26,5,2.26,6.042c1.95,0.806,3.15-0.527,4.083-2.129c0.64-1.1,1.265-2.17,1.629-3.418
			C162.404,115.864,161.256,114.255,158.472,114.229z M85.281,138.305c-0.396-1.481-0.875-3.09-3.342-3.054
			c-3.55,0.052-6.332,3.987-5.255,7.549c0.396,1.312,0.736,2.55,2.425,2.474C81.079,145.186,85.313,140.608,85.281,138.305z
			 M59.596,142.649c-0.886,0.31-1.731,1.148-3.087,1.133c-2.36-0.027-3.648,1.604-3.853,4.24c-0.2,2.565,0.81,3.659,3.842,4.496
			c2.566,0.709,2.738-1.339,3.491-2.796c0.501-0.971,0.656-2.044,1.364-2.994C62.231,145.551,61.006,142.743,59.596,142.649z
			 M170.184,163.182c0.847-0.042,1.671,0.121,2.407-0.657c1.343-1.422,2.908-2.899,1.959-4.938c-0.874-1.876-2.124-4.222-4.129-4.55
			c-1.979-0.324-2.694,2.048-3.285,3.808c-0.05,0.148-0.272,0.231-0.356,0.378C165.19,160.02,166.976,163.14,170.184,163.182z
			 M168.444,127.489c0.05-3.165-0.918-4.748-2.955-4.834c-3.26-0.139-5.528,2.317-5.356,6.209c0.072,1.626,1.163,3.059,2.984,3.193
			C166.694,132.322,168.392,130.78,168.444,127.489z M227.39,60.358c0.027-4.068-1.035-4.762-4.392-3.126
			c-0.909,0.444-1.84,0.931-2.816,1.133c-2.103,0.437-2.074,2.095-1.602,3.36c0.835,2.241,3.375,2.945,4.955,4.566
			c0.064,0.066,0.425,0.001,0.461-0.083C224.921,64.072,228.002,63.137,227.39,60.358z M136.339,125.042
			c0.001-2.595-1.036-4.112-2.941-3.937c-3.634,0.335-5.953,1.389-5.968,3.924c-0.016,2.627,1.767,4.27,5.606,4.443
			C135.289,129.574,136.336,128.059,136.339,125.042z M307.917,127.661c0.013-1.882-0.61-2.536-4.532-3.817
			c-1.593-0.521-3.261-0.243-4.397,1.311c-1.722,2.352-0.281,5.282,3.186,6.467C304.764,132.505,307.899,130.344,307.917,127.661z
			 M321.256,229.568c4.411-0.147,4.814-0.582,4.563-4.466c-0.123-1.896-1.5-2.261-2.95-2.428c-1.854-0.214-1.768,1.108-1.813,2.397
			c-0.067,1.899-0.061,3.913-2.575,4.42c-0.774,0.155-0.976,1.215-0.893,1.371c0.644,1.22,0.169,2.263-0.13,3.436
			c-0.312,1.223,1.477,2.806,2.458,2.38C322.051,235.754,322.911,231.513,321.256,229.568z M56.338,168.408
			c-0.016-1.859-1.917-3.634-3.902-3.643c-1.738-0.009-4.91,3.554-5.011,5.626c-0.081,1.652,2.159,3.924,3.786,3.839
			C53.53,174.111,56.36,170.897,56.338,168.408z M384.875,106.868c-1.406-0.073-2.668,1.363-2.746,3.125
			c-0.184,4.124,0.622,6.185,2.478,6.344c2.352,0.201,5.813-3.096,5.904-5.623C390.565,109.192,387.346,106.997,384.875,106.868z
			 M39.497,128.358c-0.046-1.981-2.739-4.253-4.885-4.123c-1.786,0.109-3.561,2.045-3.492,3.808
			c0.104,2.684,2.183,5.965,3.704,5.849C36.733,133.745,39.544,130.417,39.497,128.358z M293.708,103.808
			c0.045-2.482-1.976-4.817-4.188-4.835c-1.709-0.014-4.615,3.391-4.593,5.382c0.016,1.433,2.451,3.507,4.185,3.562
			C291.292,107.987,293.669,105.862,293.708,103.808z M281.324,131.076c-2.993,0-4.508,0.933-4.456,2.745
			c0.087,3.03,1.635,5.116,3.822,5.149c2.601,0.041,5.082-2.214,5.122-4.654C285.851,131.946,284.645,131.076,281.324,131.076z
			 M287.228,114.233c-2.479-0.033-5.597,2.724-5.626,4.975c-0.025,1.992,1.793,3.97,3.65,3.97c2.199,0,4.671-3.12,4.788-5.89
			C290.126,115.253,289.429,114.091,287.228,114.233z M355.601,152.654c1.894-0.03,4.356-2.311,4.316-3.995
			c-0.032-1.33-3.446-4.446-4.81-4.389c-2.318,0.099-4.604,2.244-4.559,4.282C350.594,150.552,353.229,152.691,355.601,152.654z
			 M71.076,182.134c0-2.533-1.165-3.653-3.835-3.689c-2.586-0.035-4.051,1.596-4.063,4.487c-0.008,1.981,0.149,4.165,2.551,4.359
			C68.428,187.509,71.076,184.644,71.076,182.134z M52.128,159.003c0.004-2.626-1.183-3.468-4.06-3.778
			c-2.93-0.316-4.143,2.178-4.324,4.33c-0.137,1.618,2.941,4.684,4.37,4.575C49.055,164.059,52.126,160.136,52.128,159.003z
			 M56.341,175.326c0.027,2.121,2.172,4.688,3.917,4.697c2.077,0.012,3.735-3.203,3.929-6.147c0.101-1.533-2.087-3.353-3.687-3.324
			C58.508,170.587,56.312,173.106,56.341,175.326z M181.529,238.272c1.333-2.23-2.015-2.666-2.104-4.7
			c-0.086-1.956-1.547-1.781-2.767-0.92c-2.678,1.892-3.011,4.611-1.446,7.62c0.897,1.725,2.247,2.388,3.73,1.742
			C180.241,241.449,182.035,240.678,181.529,238.272z M22.7,177.918c2.324,0.265,4.717-1.403,4.42-3.988
			c-0.134-1.168,0.781-3.701-1.835-3.881c-3.355-0.229-6.822,1.752-6.809,3.738C18.49,176.07,20.387,177.925,22.7,177.918z
			 M220.569,27.902c-0.149-2.491-1.525-3.536-3.068-4.822c-1.268-1.056-2.368-2.12-3.688-1.174
			c-1.373,0.985-1.622,2.805-0.851,4.443c0.462,0.981,1.416,1.767,1.736,2.772c0.487,1.526,1.382,2.259,2.851,1.885
			C219.263,30.568,220.531,29.528,220.569,27.902z M168.444,136.438c0.016,2.424,1.601,4.157,3.733,4.081
			c1.854-0.067,4.235-2.5,4.159-4.25c-0.082-1.901-2.869-4.468-4.907-4.518C169.417,131.702,168.424,133.261,168.444,136.438z
			 M387.4,124.936c-0.008-2.206-0.719-3.58-3.331-3.37c-2.414,0.193-3.525,1.298-3.52,4c0.008,3.727,0.942,5.03,3.57,4.983
			C386.258,130.51,387.423,128.515,387.4,124.936z M345.286,113.636c-0.001,4.071,0.169,4.275,3.369,4.281
			c2.907,0.006,3.992-0.944,4.004-3.454c0.015-2.985-1.671-4.71-4.82-4.829C345.468,109.546,345.081,111.793,345.286,113.636z
			 M215.305,251.544c1.105,0.396,2.019-0.18,3.006-1.067c2.362-2.123,0.903-4.112,0.248-6.338c-0.347-1.177-0.812-2.019-1.797-1.885
			c-0.827,0.112-2.132,0.481-2,1.927c0.108,1.18-0.912,2.406-1.41,2.487c-2.358,0.386-1.934,2.098-1.655,3.369
			C212.062,251.714,213.632,251.749,215.305,251.544z M382.658,135.29c0.675-2.267-1.264-2.728-2.866-3.095
			c-1.406-0.32-5.516,2.886-5.556,4.022c-0.048,1.402,2.729,4.29,4.133,4.299C380.114,140.527,382.625,137.602,382.658,135.29z
			 M216.479,42.093c0.537,0.217,0.862-0.239,1.267-0.578c1.909-1.594,1.253-7.536-0.996-8.678c-1.183-0.601-2.359-0.046-3.044,0.734
			c-0.634,0.721-2.349,0.829-1.928,2c0.708,1.967,1.833,3.794,2.876,5.626C214.983,41.778,215.552,42.3,216.479,42.093z
			 M251.05,58.055c0.099-1.213,0.008-2.163-1.487-2.287c-0.548-0.045-1.327-0.346-1.547-0.767c-0.979-1.88-2.034-2-3.778-0.82
			c-1.863,1.262-1.836,2.938-0.929,4.34c0.941,1.459,1.933,3.52,4.337,2.982C249.497,61.09,251.379,60.545,251.05,58.055z
			 M361.831,56.92c3.55-0.107,5.316-2.959,3.884-6.055c-0.431-0.93-1.411-1.353-2.33-1.308c-1.014,0.05-1.604,0.814-1.792,1.886
			c-0.359,2.056,0.537,4.489-2.446,5.679c-1.348,0.537-1.017,2.402-0.175,3.651c0.901,1.336,2.1,0.947,3.182,0.284
			C364.61,59.55,362.036,58.365,361.831,56.92z M69.106,140.548c-2.675,0.015-4.756,1.962-4.862,4.34
			c-0.062,1.399,2.134,4.098,3.293,4.048c1.585-0.068,4.674-3.814,4.557-5.758C71.98,141.274,71.036,140.099,69.106,140.548z
			 M288.444,130.72c0,0.351,0.037,0.706-0.006,1.051c-0.221,1.747,0.157,3.001,2.196,3.347c1.728,0.293,3.066,0.4,4.104-1.537
			c0.737-1.376,0.719-2.497-0.018-3.587c-1.06-1.568-2.29-3.204-4.261-3.516c-0.7-0.111-2.08,0.439-2.02,1.877
			C288.474,129.142,288.447,129.932,288.444,130.72z M343.507,129.497c3.526-0.002,5.482-2.563,3.849-5.218
			c-0.798-1.297-2.007-2.365-3.136-3.423c-0.485-0.456-1.188-0.688-1.599,0.339c-0.625,1.565-1.536,3.032-2.018,4.633
			C339.891,128.201,341.015,129.499,343.507,129.497z M233.357,35.813c1.223,0.096,3.115,0.288,3.301-1.809
			c0.166-1.881,0.01-4.009-1.887-5.231c-0.737-0.475-1.376-0.702-1.868-1.667c-0.625-1.226-2.301-0.643-3.099-0.027
			c-0.843,0.649-0.14,1.499,0.779,1.9c1.293,0.564,0.868,1.092,0.288,2.144C229.054,34.418,229.783,35.805,233.357,35.813z
			 M43.815,84.982c-0.134-2.36-0.607-3.891-1.098-5.438c-0.2-0.631-0.179-1.173-1.038-1.105c-0.739,0.058-1.428-0.156-1.873,0.882
			c-0.36,0.841-0.637,1.772-1.606,2.438c-1.641,1.128-1.675,2.764-0.623,4.512c0.95,1.577,2.602,1.751,3.903,1.521
			C43.067,87.511,44.047,86.126,43.815,84.982z M235.536,66.685c2.858-1.616,3.213-4.287,2.898-7.191
			c-0.191-1.777-1.552-2.462-3.034-2.564c-1.619-0.11-4.312,2.482-3.709,3.498C232.955,62.555,232.957,65.494,235.536,66.685z
			 M130.544,75.822c0.728-0.032,1.19-0.104,1.698-0.321c2-0.852,2.543-2.755,1.851-4.214c-0.807-1.7-1.054-4.347-3.908-4.433
			c-0.782-0.023-1.486,0.171-1.687,0.912c-0.512,1.893-1.145,3.718-0.68,5.822C128.222,75.412,129.446,75.523,130.544,75.822z
			 M119.925,72.566c0.43,1.533-1.376,2.999,0.039,4.469c1.017,1.056,1.624,2.642,3.558,2.481c1.807-0.149,3.044-2.022,2.812-4.478
			c-0.171-1.804-3.133-4.604-4.722-4.494C120.271,70.638,119.607,71.211,119.925,72.566z M173.18,239.693
			c0-0.737,0.064-1.268-0.013-1.777c-0.182-1.198-0.799-2.176-1.944-2.605c-1.425-0.533-2.132,0.734-2.442,1.605
			c-0.427,1.201-1.205,2.005-1.944,2.932c-1.173,1.471-0.531,2.734,0.739,3.762c1.158,0.937,2.318,1.902,3.7,0.195
			C172.32,242.516,173.701,241.433,173.18,239.693z M214.413,44.243c-0.877,0.028-1.968,0.457-1.775,2.374
			c0.277,2.744,2.25,4.642,3.489,6.875c0.312,0.562,2.367,0.768,3.21-0.525c1.157-1.773-1.672-8.282-3.726-8.718
			C215.444,44.212,215.263,44.243,214.413,44.243z M138.774,61.602c-2.589-0.003-3.522,0.858-3.455,3.188
			c0.055,1.919,1.879,3.642,3.866,3.653c2.485,0.014,3.666-1.156,3.745-3.713C142.983,63.064,141.044,61.605,138.774,61.602z
			 M347.017,100.547c-1.313-0.329-2.144,0.389-2.228,1.84c-0.123,2.086,2.054,4.97,3.645,5.002c1.658,0.033,4.762-2.082,4.717-3.212
			C353.081,102.447,350.027,100.577,347.017,100.547z M260.025,40.499c0.754,1.08,0.173,3.565,2.872,3.721
			c1.534,0.088,4.555-2.996,3.802-4.12c-0.955-1.425-0.405-4.116-3.018-4.266C261.762,35.724,260.014,37.819,260.025,40.499z
			 M138.414,52.332c-0.373,0.909,0.347,1.913,0.611,2.96c0.408,1.618,1.518,2.802,3.295,2.571c1.462-0.191,2.67-1.162,2.922-2.717
			c0.286-1.763-0.403-3.134-2.15-3.9c-0.542-0.237-1.182-0.035-1.667-0.578c-0.596-0.667-1.185-1.661-2.345-0.971
			C138.14,50.255,138.519,51.236,138.414,52.332z M218.126,20.019c0.349,0,0.72,0.081,1.041-0.014
			c1.745-0.512,2.828-1.857,2.867-3.506c0.04-1.667-1.158-2.481-2.986-2.306c-0.978,0.094-1.962,0.064-3.015-0.355
			c-1.478-0.589-3.123,1.196-2.436,2.601C214.495,18.271,215.685,20.013,218.126,20.019z M368.356,233.592
			c0.797-1.364,1.441-2.814,2.37-4.132c0.725-1.026,0.783-2.488-0.35-3.542c-1.14-1.06-2.613-1.761-3.96-0.855
			c-1.226,0.823-2.839,2.36-2.035,3.782C365.349,230.556,366.268,232.605,368.356,233.592z M55.171,60.167
			c1.81,0.126,3.436-1.541,3.461-3.8c0.022-2.076-1.53-3.077-3.254-3.1c-1.882-0.025-3.456,1.066-3.751,3.151
			C51.296,58.752,52.536,59.982,55.171,60.167z M260.118,49.651c-0.513-1.817-0.818-3.746-2.833-4.273
			c-1.318-0.345-3.574,2.151-3.575,3.639c-0.001,2.344,1.72,4.801,3.412,4.666C259.649,53.481,259.202,51.047,260.118,49.651z
			 M270.407,135.812c1.881-0.022,3.26-1.2,3.3-2.819c0.034-1.383-3.458-5.148-4.648-4.808c-1.12,0.32-2.236,0.94-2.196,2.475
			C266.954,134.218,268.055,135.84,270.407,135.812z M44.229,84.336c-0.099,1.652,0.928,2.551,2.144,2.962
			c1.083,0.367,3.948-1.95,3.572-2.802c-0.716-1.625-0.237-3.354-0.866-5.004c-0.49-1.285-1.344-1.669-2.238-1.475
			c-0.952,0.208-2.076,1.106-1.369,2.294c0.652,1.095-0.164,1.625-0.485,2.281C44.693,83.195,44.06,83.627,44.229,84.336z
			 M121.602,22.416c0.007-1.988-1.699-4.057-3.273-3.97c-1.284,0.071-3.692,2.884-3.544,4.307c0.193,1.858,1.293,2.991,3.193,3.036
			C120.312,25.844,121.594,24.577,121.602,22.416z M194.76,235.529c-0.002,1.731,1.864,3.471,4.072,3.384
			c1.699-0.067,2.805-1.122,2.778-3.032c-0.02-1.466-2.368-4.375-3.694-4.503C196.83,231.273,194.762,233.994,194.76,235.529z
			 M345.119,56.233c-0.794,0.304-1.847-0.355-1.867,0.758c-0.017,0.829-0.615,1.833,0.527,2.552
			c1.334,0.838,2.656,1.782,3.054,3.462c0.232,0.985,1.185,1.17,1.758,1.102c0.531-0.062,1.114-0.603,1.573-1.338
			c0.648-1.04-0.573-1.868,0.246-2.763c0.674-0.737,0.202-2.448-0.633-2.437C347.994,57.594,346.529,56.703,345.119,56.233z
			 M278.452,22.252c-0.035-2.239,0.387-4.338-2.465-4.327c-1.635,0.007-3.332,2.049-3.332,3.94c0,1.845,1.784,4.024,3.391,3.911
			C278.603,25.598,278.641,23.738,278.452,22.252z M241.617,21.884c-0.07,2.085,1.688,4.386,3.073,4.452
			c1.593,0.077,4.511-2.394,4.212-3.863c-0.405-1.983-2.175-2.703-3.981-2.946C242.931,19.26,242,20.52,241.617,21.884z
			 M368.981,46.971c0.034-2.255-2.185-4.184-4.685-4.351c-1.89-0.126-2.502,1.022-2.637,2.433c-0.145,1.518,3.286,4.419,5.07,4.425
			C368.35,49.484,369.001,48.494,368.981,46.971z M341.384,39.496c1.268,0.099,2.479-0.189,3.189-1.249
			c0.804-1.196-0.305-2.074-0.89-2.966c-0.425-0.648-0.954-1.095-1.136-2.017c-0.286-1.458-1.776-1.849-3.067-1.583
			c-1.038,0.214-2.052,1.29-1.476,2.312c0.771,1.368,0.842,2.876,1.418,4.262C339.843,39.264,340.417,39.575,341.384,39.496z
			 M272.024,28.971c-2.492-0.009-4.093,1.513-4.096,3.853c-0.002,1.864,1.096,2.825,2.852,2.967
			c1.533,0.123,4.016-2.401,3.946-4.079C274.657,30.017,274.022,28.657,272.024,28.971z M201.06,245.285
			c3.168,0.008,3.616-0.412,3.722-2.835c0.074-1.708-0.676-3.449-1.972-3.742c-2.304-0.522-5.126,1.725-4.831,3.461
			C198.265,243.857,198.663,245.862,201.06,245.285z M323.658,249.186c-0.23-1.107-1.003-2.851-3.116-2.752
			c-1.517,0.071-3.605,0.06-4.053,2.249c-0.217,1.06,3.623,4.615,4.725,4.48C323.071,252.937,323.807,251.758,323.658,249.186z
			 M351.486,62.766c-0.214,0.756,0.675,1.892,0.751,3.181c0.037,0.635,0.724,1.276,1.397,1.363c0.851,0.109,1.03-0.741,1.274-1.371
			c0.539-1.395,1.04-2.804,1.602-4.189c0.693-1.714,0.079-3.017-1.467-3.672c-1.854-0.786-2.631,0.726-3.248,2.062
			C351.521,60.732,351.619,61.495,351.486,62.766z M208.954,249.079c0.173-2.05-0.388-3.344-2.652-3.277
			c-2.058,0.062-3.643,1.498-3.646,3.406c-0.003,1.493,2.522,3.766,4.132,3.342C208.393,252.127,209.314,250.815,208.954,249.079z
			 M354.231,238.469c0.291-2.329-1.63-2.646-3.061-2.912c-1.573-0.293-4.088,2.204-3.689,3.654c0.421,1.531,1.45,2.913,3.441,2.927
			C352.909,242.151,354.223,240.732,354.231,238.469z M119.57,27.926c-2.325-0.139-3.596,0.769-3.767,3.053
			c-0.152,2.026,1.229,3.217,2.71,3.64c1.62,0.462,3.538-2.405,3.644-4.64C122.261,27.79,120.923,27.821,119.57,27.926z
			 M116.866,38.364c-0.014,3.09,0.421,3.709,2.506,3.764c2.059,0.053,3.267-1.184,3.283-3.358c0.014-1.913-1.773-3.627-3.762-3.462
			C116.864,35.476,116.759,36.98,116.866,38.364z M31.076,99.122c-0.023-1.868-2.269-5.093-3.498-4.844
			c-1.43,0.29-2.191,1.522-2.185,2.827c0.015,2.794,1.805,5.134,3.632,5.003C30.874,101.977,31.196,100.671,31.076,99.122z
			 M354.234,220.816c0.001-1.772-1.19-3.433-2.451-3.417c-1.634,0.021-3.304,1.78-3.349,3.436c-0.054,1.948,0.895,3.421,2.743,3.282
			C352.762,223.999,354.571,223.162,354.234,220.816z M324.209,217.506c0.238,1.535-0.821,3.573,2.254,3.665
			c2.239,0.066,2.733-1.218,2.939-2.697c0.279-2.014-1.536-4.157-3.207-4.243C323.445,214.091,324.458,216.17,324.209,217.506z
			 M327.393,208.896c-0.033,1.836,0.097,3.726,2.423,3.701c2.587-0.027,2.465-2.429,2.783-4.117
			c0.334-1.773-0.671-2.672-2.544-2.689C327.806,205.771,327.236,207.016,327.393,208.896z M46.891,66.902
			c1.899-0.159,2.254-2.01,3.071-3.302c0.366-0.579-2.195-3.483-2.893-3.451c-1.146,0.054-3.458,2.904-3.207,4.276
			C44.13,65.881,45.248,66.691,46.891,66.902z M346.58,54.759c1.569,0.008,2.399-0.814,2.391-2.369
			c-0.008-1.219-3.092-3.471-4.771-3.403c-1.316,0.053-2.05,0.823-2.058,2.149C342.133,52.486,344.952,54.75,346.58,54.759z
			 M363.171,32.659c-1.477-0.098-2.393,0.515-2.584,1.792c-0.253,1.695,1.675,3.96,3.269,3.986c1.752,0.027,2.757-0.971,2.974-2.603
			C367.009,34.478,364.748,32.695,363.171,32.659z M333.058,262.138c0.909-0.055,4.553-3.182,4.287-3.541
			c-0.75-1.012-0.774-2.833-2.591-2.744c-1.547,0.075-3.756,2.7-3.672,4.22C331.158,261.435,332.012,262.004,333.058,262.138z
			 M352.111,231.057c0.334-2.464-2.356-2.083-3.022-3.458c-0.58-1.198-1.433-0.858-2.114-0.49c-0.919,0.496-0.843,1.498-0.419,2.29
			c0.523,0.978,1.478,1.775,1.806,2.794c0.357,1.103,0.833,1.935,1.893,1.345C351.141,233.043,352.659,232.617,352.111,231.057z
			 M353.721,42.129c1.828,0.208,2.56-0.947,2.788-2.569c0.156-1.107-2.367-3.143-3.672-3.252c-1.448-0.121-1.93,0.935-2.105,1.849
			C350.439,39.682,352.393,42.11,353.721,42.129z M353.703,258.442c-0.505-1.109-1.061-2.915-2.534-2.816
			c-1.799,0.121-2.978,1.909-3.044,3.621c-0.037,0.977,0.408,2.633,2.059,2.862C351.015,262.227,353.697,259.554,353.703,258.442z
			 M356.338,23.531c0.125-1.858-0.487-2.917-2.599-3.025c-2.44-0.125-2.265,1.987-2.468,3.137c-0.156,0.891,0.052,3.03,2.205,2.68
			C355.034,26.069,356.553,25.656,356.338,23.531z M118.031,50.486c3.018,0.313,2.809-1.794,2.957-3.074
			c0.209-1.815-1.648-2.3-2.91-2.564c-1.536-0.323-2.231,0.823-2.283,2.382C115.729,49.231,116.837,50.136,118.031,50.486z
			 M359.385,236.914c2.021,0.32,2.743-1.171,2.629-2.436c-0.155-1.738-1.792-2.255-3.436-2.355
			c-1.479-0.091-2.747,0.389-2.707,1.983C355.925,236.273,357.892,236.419,359.385,236.914z M252.634,31.643
			c0.079-1.109-2.416-3.627-3.61-3.716c-1.104-0.082-2.135-0.021-2.163,1.51c-0.026,1.443,2.367,4.212,3.671,4.28
			C252.12,33.799,252.078,32.39,252.634,31.643z M355.261,31.538c0.485-1.884-0.614-2.969-2.367-3.007
			c-1.386-0.031-1.914,1.202-1.828,2.601c0.102,1.648,0.583,3.362,2.31,3.515C355.137,34.802,355.407,33.162,355.261,31.538z
			 M343.385,43.707c-1.15-0.07-1.812,0.372-1.786,1.623c0.03,1.512,2.009,3,3.92,3.144c1.502,0.113,2.02-0.871,2.209-1.917
			C347.926,45.457,345.039,43.667,343.385,43.707z M183.724,265.022c-0.059-0.543-0.263-1.221-0.941-1.065
			c-0.405,0.092-1.274,0.12-1.188,1.048c0.063,0.688,0.38,1.221,1.017,1.264C183.287,266.314,183.621,265.753,183.724,265.022z"/>
		<path style="fill-rule:evenodd;clip-rule:evenodd;fill:#7B491E;" d="M82.762,214.696c1.658-1.752,2.839-1.471,4.582-0.655
			c2.165,1.014,4.343-0.407,6.412-1.6c3.624-2.089,7.226-4.259,11.391-5.28c1.589-0.39,3.122-0.314,4.655-0.245
			c2.747,0.124,3.286,3.958,1.935,5.696c-0.928,1.194-2.003,2.289-3.372,2.976c-1.754,0.878-3.016,2.239-4.252,3.72
			c-2.269,2.718-4.817,5.039-8.567,5.635c-0.709,0.113-1.562,0.575-2.316,0.948c-1.565,0.777-3.121,1.929-5.223,1.053
			c-1.147-0.478-2.407,0.436-3.577,1.002c-2.653,1.285-5.267,2.796-8.391,2.606c-0.437-0.026-0.896,0.055-1.309-0.052
			c-0.848-0.22-1.384-1.599-2.486-0.809c-1.371,0.982-2.665,2.1-3.264,3.755c-0.9,2.489-1.972,4.832-4.268,6.401
			c-0.469,0.319-0.896,0.739-1.023,1.44c-0.378,2.08-1.362,3.569-3.139,5.053c-2.139,1.786-4.107,3.997-5.887,6.226
			c-3.238,4.053-7.159,7.42-10.775,11.081c-2.005,2.029-3.336,4.536-5.595,6.42c-3.688,3.075-6.388,3.624-10.22,0.885
			c-0.677-0.484-1.31-0.312-1.973-0.403c-1.361-0.188-2.749,0.316-4.115-0.346c-1.235-0.599-2.96-0.391-3.041-2.495
			c-0.088-2.339-0.031-4.743,2.591-5.504c3.555-1.03,6.355-2.958,8.47-5.883c1.506-2.084,3.599-3.108,5.72-4.409
			c2.15-1.319,4.914-2.882,5.383-6.087c0.197-1.343,2.392-1.618,1.931-3.68c-1.463,1.434-3.398,1.248-5.06,1.989
			c-1.25,0.557-2.24-1.121-1.608-2.673c0.278-0.682,0.924-1.24,0.021-1.961c-0.928-0.741-1.37-0.009-1.891,0.51
			c-0.916,0.913-2.147,0.93-3.285,1.256c-2.015,0.576-3.96,1.458-6.004,1.859c-1.935,0.38-3.001-0.422-2.28-2.662
			c0.274-0.85,1.051-1.894-1.186-1.822c-2.586,0.083-3.374-2.015-2.326-4.659c0.396-0.999,1.102-1.983,0.192-3.156
			c-0.376-0.485-0.177-1.24,0.439-1.596c3.113-1.796,5.896-4.451,9.766-4.436c3.743,0.017,6.835-1.476,9.464-3.865
			c1.372-1.247,2.573-1.094,3.671-0.205c1.732,1.4,3.155,1.145,4.642-0.232c1.034-0.958,1.98-1.48,3.399-0.366
			c2.021,1.589,4.161,0.061,5.748-0.758c4.46-2.301,8.589-5.343,11.737-9.247c2.276-2.823,4.782-5.315,7.262-7.907
			c2.279-2.382,4.975-4.63,6.326-7.808c0.46-1.082,1.235-1.72,2.198-2.003c1.328-0.391,2.116-1.124,2.882-2.287
			c1.489-2.26,7.808-2.313,9.373-0.095c1.179,1.672,0.377,2.93-1.124,4.261c-2.61,2.313-6.123,3.774-7.794,6.942
			C85.479,205.253,82.221,208.938,82.762,214.696z"/>
		<path style="fill-rule:evenodd;clip-rule:evenodd;fill:#7B491E;" d="M103.144,236.266c-0.885-4.343,1.83-6.938,4.704-9.324
			c0.939-0.78,2.054-1.492,2.636-2.473c2.225-3.744,6.129-5.043,9.649-6.843c1.72-0.88,3.579-0.221,5.016,1.026
			c1.167,1.013,0.667,2.31,0.335,3.592c-0.474,1.83-1.556,2.99-3.001,4.231c-2.877,2.472-4.404,5.897-4.52,9.726
			c-0.066,2.163-0.785,4.05-1.831,5.778c-2.716,4.488-5.772,8.613-9.751,12.246c-3.279,2.994-6.01,6.692-9.434,9.644
			c-1.864,1.606-4.045,2.493-6.557,2.476c-2.222-0.017-4.114,1.05-5.931,2.109c-1.666,0.972-3.312,0.817-4.639-0.135
			c-1.381-0.99-2.574-1.082-4.094-0.648c-1.888,0.539-3.537,0.443-4.203-1.98c-0.24-0.875-1.086-1.368-2.218-1.505
			c-3.333-0.4-5.282-3.505-3.573-6.307c1.878-3.079,1.698-6.24,1.634-9.479c-0.064-3.221,1.628-5.405,3.888-7.352
			c2.104-1.814,4.232-3.579,6.625-5.026c0.697-0.421,1.28-0.731,2.109-0.757c3.459-0.103,5.114,2.216,3.422,5.229
			c-1.074,1.912-0.867,4.053-1.69,6.018c-0.603,1.439-0.178,3.288,2.346,3.195c0.543-0.021,1.441,0.43,1.744,1.336
			c1.006,3.004,3.057,4.113,5.887,3.125c3.762-1.314,6.68-3.597,7.721-7.634c0.315-1.223,0.901-2.15,1.637-3.128
			C102.628,241.317,103.917,239.07,103.144,236.266z"/>
		<path style="fill-rule:evenodd;clip-rule:evenodd;fill:#7B491E;" d="M158.226,234.931c-1.292-0.69-3.289,0.827-3.931-1.243
			c-0.578-1.865-0.241-3.554,1.69-4.718c0.629-0.379,0.728-1.688,1.356-2.01c0.799-0.41,1.677-1.715,2.671-0.813
			c1.366,1.237,3.738,2.591,2.986,4.473c-1.019,2.549-0.676,4.455,0.709,6.484c2.275,3.333,1.865,7.181,2.091,10.9
			c0.095,1.566,0.306,3.116,0.063,4.721c-0.229,1.513-0.191,2.995,1.258,4.251c1.602,1.39,0.462,3.094-0.376,4.374
			c-0.98,1.499-2.774,0.866-4.124,0.666c-1.372-0.203-1.335-1.636-1.62-2.877c-0.73-3.185-0.227-6.447-0.943-9.622
			c-0.486-2.155-2.89-0.388-3.705-2.021c-0.156-0.312-0.865,0.825-1.113,1.602c-0.69,2.16-2.587,2.402-4.525,2.519
			c-1.39,0.083-2.442-0.338-2.765-1.759c-0.425-1.868,0.437-3.156,2.055-4.051c0.625-0.346,1.338-0.463,1.728-1.318
			c0.476-1.042,1.744-1.2,2.443-0.482c1.399,1.436,3.075-0.058,4.456,0.71c0.812-1.463,1.706-2.889,2.396-4.406
			c0.269-0.591,0.05-1.09-0.908-1.431C158.387,238.263,157.277,236.948,158.226,234.931z"/>
		<path style="fill-rule:evenodd;clip-rule:evenodd;fill:#7B491E;" d="M36.685,71.354c-0.017-2.095,0.25-3.805,1.775-5.244
			c0.758-0.715,1.566-1.818,2.414-1.627c0.918,0.207,1.129,1.558,1.333,2.592c0.426,2.167-1.359,5.157-3.43,4.94
			c-2.159-0.226-1.582,1.229-1.275,1.806c0.951,1.788-0.108,2.835-1.182,3.773c-0.729,0.637-1.896,0.648-2.649-0.042
			c-1.067-0.98-2.015-2.016-1.112-3.796c0.445-0.878,0.368-1.981-1.321-2.404c-1.636-0.41-3.105-1.594-2.806-3.788
			c0.081-0.595,0.001-0.978-0.819-1.292c-1.934-0.741-3.874-1.7-3.397-4.415c0.089-0.512-0.231-0.785-0.772-0.779
			c-3.472,0.037-3.355-3.409-4.907-5.208c-0.626-0.726,0.097-1.86,0.983-2.414c1.284-0.804,2.573-1.625,3.945-2.253
			c1.674-0.766,3.625,0.382,3.288,2.337c-0.656,3.81,2.808,5.942,3.151,9.237c0.026,0.254,0.157,0.498,0.239,0.746
			c2.364-1.452,2.433,0.593,3.111,1.942c0.71,1.413,2.288,2.414,2.033,4.274C35.132,70.85,36.787,70.306,36.685,71.354z"/>
		<path style="fill-rule:evenodd;clip-rule:evenodd;fill:#7B491E;" d="M309.975,238.422c2.262-1.415,4.839-1.287,6.14,0.136
			c0.739,0.809,1.579,5.91,1.036,6.688c-1.118,1.605-2.802,1.284-4.272,0.911c-1.749-0.445-2.882-0.435-2.863,1.778
			c0.013,1.669-1.566,2.581-2.511,2.448c-1.663-0.233-1.825,0.714-2.195,1.658c-0.759,1.938-2.403,2.018-3.882,1.517
			c-1.557-0.528-1.407-1.951-1.246-3.486c0.293-2.775,1.525-3.714,4.202-3.192c1.133,0.221,2.37-1.847,2.653-2.853
			c0.496-1.765-0.089-2.544-1.58-3.186c-0.229-0.098-0.142-0.975-0.166-1.492c-0.065-1.347,1.229-2.587,0.065-4.095
			c-0.473-0.611,0.384-1.261,1.185-1.653c1.22-0.6,2.176,0.729,2.206,0.912C308.977,235.893,310.61,236.705,309.975,238.422z
			 M311.608,241.685c0.347-1.003-0.93-1.57-1.172-1.436c-0.724,0.398-2.001,0.546-1.938,1.656c0.071,1.244,1.433,0.931,2.184,1.195
			C311.759,243.481,311.561,242.438,311.608,241.685z"/>
		<path style="fill-rule:evenodd;clip-rule:evenodd;fill:#7B491E;" d="M294.75,221.279c0.152-2.174,0.265-4.337,0.076-6.554
			c-0.263-3.093,1.591-4.261,4.383-3.091c4.269,1.787,4.542,2.609,1.057,6.084c-1.563,1.559-0.818,2.436-0.114,3.779
			c1.598,3.045,3.235,6.089,4.53,9.268c0.65,1.599-0.09,3.346-2.072,3.36c-1.462,0.011-3.427-0.173-3.14-2.703
			c0.186-1.632-0.461-2.77-1.98-3.801C295.409,226.208,294.405,223.95,294.75,221.279z"/>
		<path style="fill-rule:evenodd;clip-rule:evenodd;fill:#7B491E;" d="M223.308,237.021c-2.947-0.123-3.653-1.56-3.346-4.048
			c0.255-2.064,0.382-4.15-1.751-5.761c-1.14-0.861-1.286-2.651-0.481-4.055c0.758-1.322,2.03-1.799,3.575-1.564
			c0.812,0.122,1.348,0.489,1.328,1.312c-0.044,1.851,0.933,3.221,1.943,4.626c1.705,2.37,1.664,5.233,1.068,7.743
			c-0.477,2.012,0.171,3.479,0.698,5.12c0.373,1.162,0.943,2.146-0.188,3.305c-0.909,0.934-1.925,1.397-3.016,0.988
			c-1.271-0.477-1.795-1.809-2.028-3.052C220.769,239.812,221.122,238.139,223.308,237.021z"/>
		<path style="fill-rule:evenodd;clip-rule:evenodd;fill:#7B491E;" d="M108.966,61.637c-0.312,1.479,0.177,2.927,1.669,4.032
			c0.393,0.292,0.956,0.849,0.894,1.183c-0.485,2.617,1.056,3.744,3.029,4.918c1.49,0.887,2.722,2.337,1.243,4.295
			c-1.362,1.802-3.758,2.085-5.575,0.74c-0.851-0.63-0.792-1.498-0.718-2.355c0.159-1.843,0.024-3.443-2.234-3.954
			c-0.445-0.101-1.109-0.629-1.131-0.993c-0.236-3.846-2.956-7.012-2.942-10.897c0.003-0.736-0.443-1.875,0.369-2.133
			c0.884-0.281,1.953-0.366,2.97,0.301C108.958,58.358,109.016,58.316,108.966,61.637z"/>
		<path style="fill-rule:evenodd;clip-rule:evenodd;fill:#7B491E;" d="M34.767,162.078c0.762,2.132,0.096,3.86-1.171,5.004
			c-0.883,0.797-2.413,1.19-3.79,0.323c-1.22-0.769-2.238-1.827-1.821-3.225c0.546-1.832,1.286-3.745,2.455-5.217
			c1.402-1.766,2.184,0.387,3.359,1.248c0.639-1.96,1.319-3.682,2.766-5.156c1.083-1.104,1.635-1.463,3.174-1.025
			c1.669,0.474,2.217,1.448,2.375,2.876C42.569,161.022,39.231,163.523,34.767,162.078z"/>
		<path style="fill-rule:evenodd;clip-rule:evenodd;fill:#7B491E;" d="M266.86,166.792c0.991-1.896-0.012-4.532,1.073-6.86
			c0.789-1.694,1.904-2.627,3.779-1.459c0.616,0.384,1.241,0.473,1.946,0.518c2.435,0.151,2.628,0.72,1.93,3.162
			c-0.511,1.782-0.626,3.689-0.812,5.552c-0.202,2.011-2.695,4.824-4.365,4.794C269.283,172.478,266.885,168.923,266.86,166.792z"/>
		<path style="fill-rule:evenodd;clip-rule:evenodd;fill:#7B491E;" d="M161.671,166.247c0.292,2.858-1.766,4.32-3.754,5.197
			c-1.635,0.722-3.767,0.426-4.782-1.747c-0.034-0.072-0.146-0.108-0.185-0.181c-1.354-2.535,1.579-10.32,4.166-11.69
			c1.924-1.02,3.104-0.183,3.222,1.399C160.521,161.642,161.412,163.881,161.671,166.247z"/>
		<path style="fill-rule:evenodd;clip-rule:evenodd;fill:#7B491E;" d="M12.531,188.442c-2.442-0.258-5.433-4.233-5.139-6.832
			c0.204-1.804,4.089-4.968,5.804-4.727c2.274,0.319,5.561,5.303,5.246,7.954C18.216,186.74,14.999,188.703,12.531,188.442z"/>
		<path style="fill-rule:evenodd;clip-rule:evenodd;fill:#7B491E;" d="M132.322,132.127c3.063,0.005,4.708,1.767,4.542,4.215
			c-0.22,3.243-3.537,6.8-6.68,6.769c-1.607-0.016-3.263-0.465-4.294-2.164c-1.165-1.92,0.126-3.71,0.763-4.911
			C127.827,133.821,130.254,132.512,132.322,132.127z"/>
		<path style="fill-rule:evenodd;clip-rule:evenodd;fill:#7B491E;" d="M293.76,92.654c-3.919,0.463-4.803-3.792-5.306-7.927
			c-0.202-1.657,0.854-2.889,2.225-2.999c4.284-0.341,8.529,2.553,8.247,5.508C298.637,90.265,296.701,93.211,293.76,92.654z"/>
		<path style="fill-rule:evenodd;clip-rule:evenodd;fill:#7B491E;" d="M140.028,162.105c0.033,2.267-0.521,4.229-2.325,5.074
			c-1.73,0.812-3.364-0.094-4.888-1.391c-3.438-2.924-3.728-5.491-0.629-8.712c1.106-1.149,2.331-1.529,3.883-0.762
			c1.447,0.715,3.612,0.57,3.413,3.048C139.395,160.435,140.515,161.249,140.028,162.105z"/>
		<path style="fill-rule:evenodd;clip-rule:evenodd;fill:#7B491E;" d="M345.009,145.279c-1.921,0.452-3.505-0.603-5.106-1.904
			c-2.174-1.769-1.284-4.01-0.815-5.922c0.437-1.78,2.342-2.739,4.059-3.154c2.035-0.492,2.915,1.287,3.531,2.767
			c0.753,1.81,1.157,3.717,2.344,5.396c0.951,1.345,0.023,2.408-1.397,2.783C346.886,145.44,346.054,145.279,345.009,145.279z"/>
		<path style="fill-rule:evenodd;clip-rule:evenodd;fill:#7B491E;" d="M110.49,40.891c0.032-0.929,0.03-1.675-0.115-2.464
			c-0.124-0.67-0.229-1.804,0.748-2.011c0.689-0.146,1.594-0.489,2.221,0.654c0.476,0.867,1.799,1.269,2.274,2.136
			c0.668,1.22,0.241,2.738-0.795,3.503c-0.861,0.636-1.906,2.173-3.409,0.63c-1-1.027-1.46-0.112-1.898,0.736
			c-1.497,2.898-2.871,3.431-5.675,2.257c-0.157-0.066-0.376-0.046-0.486-0.15c-1.305-1.238-1.921-2.875-0.141-3.817
			c1.694-0.898,0.857-6.417,4.957-2.841C108.831,40.101,109.459,40.653,110.49,40.891z"/>
		<path style="fill-rule:evenodd;clip-rule:evenodd;fill:#7B491E;" d="M241.044,163.169c-2.88,0.58-3.457-1.85-4.107-3.786
			c-0.72-2.142,0.746-5.135,2.496-5.89c1.09-0.47,1.994-0.317,3.118,0.268c1.884,0.978,2.811,2.771,3.99,4.253
			c1.641,2.063-0.18,4.579-3.511,5.142C242.438,163.255,241.813,163.169,241.044,163.169z"/>
		<path style="fill-rule:evenodd;clip-rule:evenodd;fill:#7B491E;" d="M41.567,144.271c3.841-1.164,5.799-0.312,7.131,3.101
			c0.679,1.739-0.9,5.661-2.548,6.329c-2.522,1.021-5.783-0.021-6.646-2.368c-0.791-2.151,0.641-3.923,1.524-5.747
			c0.219-0.451,1.229-0.562,0.605-1.381L41.567,144.271z"/>
		<path style="fill-rule:evenodd;clip-rule:evenodd;fill:#7B491E;" d="M347.391,248.277c-0.628,0.833-0.844,1.712-2.221,1.852
			c-1.038,0.105-1.916,1.039-2.69,1.884c-0.883,0.964-2.139,1.021-3.012,0.243c-0.848-0.755-1.604-1.91-0.515-3.141
			c1.221-1.379,2.47-2.731,3.709-4.094c0.056-0.061,0.143-0.093,0.209-0.146c1.729-1.392,2.657,2.83,4.873,0.537
			c1.222-1.265,3.166,0.422,4.607,1.027c1.408,0.592,1.176,2.412,0.563,3.457c-0.762,1.297-2.064,2.476-3.815,2.18
			c-1.43-0.241-1.862-1.387-1.715-2.765C347.422,248.972,347.391,248.623,347.391,248.277z"/>
		<path style="fill-rule:evenodd;clip-rule:evenodd;fill:#7B491E;" d="M148.968,170.751c0,0.574,0.13,1.064-0.023,1.438
			c-0.532,1.29-0.663,3.205-2.967,1.63c-1.359-0.929-2.979-1.564-4.569-2.044c-1.53-0.462-1.739-1.856-1.736-2.793
			c0.002-0.806,0.056-2.221,1.482-2.7c0.983-0.329,1.929-0.767,2.191-2.21c0.161-0.884,1.133-2.153,2.471-1.878
			c1.3,0.267,2.146,0.978,2.18,2.675C148.037,166.878,149.104,168.798,148.968,170.751z"/>
		<path style="fill-rule:evenodd;clip-rule:evenodd;fill:#7B491E;" d="M134.107,37.827c-1.739,0.799-2.213-1.335-3.348-1.492
			c-1.53-0.211-0.697,2.434-2.168,2.522c-1.086,0.065-2.355,0.755-3.318-0.478c-0.958-1.225-1.672-2.426-0.486-3.918
			c0.368-0.462,0.678-0.992,0.91-1.536c1.021-2.402,1.812-2.582,3.314-0.566c0.98,1.315,1.326,0.679,1.895-0.321
			c1.5-2.635,1.838-2.627,3.787-0.265c0.442,0.537,0.996,0.979,1.471,1.492c0.848,0.915,1.701,2.101,1.094,3.208
			C136.72,37.452,135.622,38.434,134.107,37.827z"/>
		<path style="fill-rule:evenodd;clip-rule:evenodd;fill:#7B491E;" d="M41.633,144.205c-1.529-0.301-3.197,1.354-4.59-0.191
			c-1.033-1.146-2.07-2.313-2.309-4.004c-0.359-2.543,1.165-3.725,3.149-4.388c3.627-1.214,7.447,0.081,6.858,4.615
			c-0.185,1.419-0.49,2.905-2.42,2.949c-0.792,0.018-0.701,0.587-0.753,1.086L41.633,144.205z"/>
		<path style="fill-rule:evenodd;clip-rule:evenodd;fill:#7B491E;" d="M375.286,144.395c0.036,2.914-2.225,5.741-5.07,6.128
			c-2.208,0.299-3.842-0.476-4.414-2.868c-0.514-2.148-0.193-3.952,1.9-5.068c0.89-0.475,1.872-0.771,2.781-1.21
			C373.291,140.017,375.247,141.237,375.286,144.395z"/>
		<path style="fill-rule:evenodd;clip-rule:evenodd;fill:#7B491E;" d="M134.233,151.795c0.021,2.269-2.205,4.456-4.619,4.541
			c-1.638,0.058-3.601-1.853-3.763-3.95c-0.188-2.427,0.753-4.657,1.66-6.854c0.256-0.622,0.823-0.896,1.506-0.75
			C130.924,145.189,134.214,149.628,134.233,151.795z"/>
		<path style="fill-rule:evenodd;clip-rule:evenodd;fill:#7B491E;" d="M17.92,79.702c-0.122-1.451,1.026-2.011,1.892-1.557
			c2.162,1.134,4.564,1.211,6.777,2.001c1.32,0.471,2.074,1.406,2.638,2.842c0.57,1.453-0.201,2.385-0.638,3.328
			c-0.453,0.977-1.574,0.602-2.513,0.176c-0.515-0.234-1.203-0.207-1.794-0.138C19.684,86.886,18.326,83.155,17.92,79.702z"/>
		<path style="fill-rule:evenodd;clip-rule:evenodd;fill:#7B491E;" d="M264.761,137.315c-0.023,2.98-1.543,5.167-4.169,5.81
			c-1.392,0.341-2.888,0.002-3.645-1.328c-0.71-1.249-1.804-2.596-0.508-4.2c0.529-0.657,1.17-1.184,1.583-2.009
			c0.674-1.348,1.12-3.465,3.234-2.993C263.688,133.139,265.044,134.837,264.761,137.315z"/>
		<path style="fill-rule:evenodd;clip-rule:evenodd;fill:#7B491E;" d="M170.549,146.898c-0.307-1.709,0.019-3.544,2.07-4.854
			c0.484-0.31,1.064-0.594,1.305-0.397c1.531,1.249,3.349,2.384,4.32,4.006c0.764,1.277,0.552,3.332-0.837,4.511
			c-0.935,0.792-1.141,2.313-2.665,2.503c-2.708,0.336-4.173-0.943-4.193-3.761C170.546,148.385,170.549,147.862,170.549,146.898z"
			/>
		<path style="fill-rule:evenodd;clip-rule:evenodd;fill:#7B491E;" d="M32.626,86.585c1.16,0.934,1.767,1.916,1.653,3.41
			c-0.12,1.569-0.118,2.979-2.158,3.193c-1.907,0.201-3.612-0.229-4.127-2.208c-0.443-1.7,0.34-3.278,1.991-4.06
			c1.191-0.564,2.893-0.392,0.826-2.327c-1.337-1.251,0.633-5.271,2.51-5.599c0.592-0.104,1.493-0.172,1.608,0.479
			c0.259,1.458,1.841,2.52,1.163,4.246C35.503,85.218,34.281,85.896,32.626,86.585z"/>
		<path style="fill-rule:evenodd;clip-rule:evenodd;fill:#7B491E;" d="M242.25,34.759c-0.165,1.246,0.558,2.011,1.001,2.751
			c0.977,1.634-0.072,2.543-0.902,3.608c-0.719,0.92-1.692,1.467-2.706,0.799c-1.074-0.707-1.691-1.774-1.657-3.252
			c0.038-1.683-0.004-3.037,1.827-4.093c1.502-0.866,0.626-3.012,1.184-4.534c0.363-0.992,0.743-1.756,1.676-2.077
			c1.07-0.368,1.8,0.339,2.442,1.097c0.996,1.176,1.231,2.569,1.232,4.057c0.001,1.256-0.636,1.701-1.807,1.649
			C243.775,34.731,243.006,34.759,242.25,34.759z"/>
		<path style="fill-rule:evenodd;clip-rule:evenodd;fill:#7B491E;" d="M273.71,149.966c-0.277-1.959,0.784-3.658,1.256-5.431
			c0.56-2.104,4.957-1.289,6.264,0.665c1.272,1.903-1.087,7.956-3.303,8.491C275.446,154.289,273.698,152.746,273.71,149.966z"/>
		<path style="fill-rule:evenodd;clip-rule:evenodd;fill:#7B491E;" d="M158.472,114.229c2.785,0.027,3.932,1.635,3.169,4.249
			c-0.365,1.248-0.99,2.318-1.629,3.418c-0.932,1.602-2.133,2.936-4.083,2.129c-2.52-1.042-3.266-3.589-2.26-6.042
			C154.577,115.765,155.874,114.203,158.472,114.229z"/>
		<path style="fill-rule:evenodd;clip-rule:evenodd;fill:#7B491E;" d="M85.281,138.305c0.032,2.303-4.202,6.88-6.172,6.969
			c-1.689,0.076-2.029-1.161-2.425-2.474c-1.076-3.562,1.705-7.497,5.255-7.549C84.406,135.215,84.884,136.824,85.281,138.305z"/>
		<path style="fill-rule:evenodd;clip-rule:evenodd;fill:#7B491E;" d="M59.596,142.649c1.411,0.094,2.635,2.901,1.757,4.079
			c-0.708,0.95-0.863,2.023-1.364,2.994c-0.753,1.457-0.924,3.505-3.491,2.796c-3.032-0.837-4.042-1.931-3.842-4.496
			c0.204-2.636,1.492-4.268,3.853-4.24C57.864,143.798,58.709,142.959,59.596,142.649z"/>
		<path style="fill-rule:evenodd;clip-rule:evenodd;fill:#7B491E;" d="M170.184,163.182c-3.208-0.042-4.993-3.162-3.404-5.96
			c0.083-0.146,0.306-0.229,0.356-0.378c0.591-1.76,1.306-4.132,3.285-3.808c2.005,0.328,3.256,2.674,4.129,4.55
			c0.949,2.039-0.616,3.517-1.959,4.938C171.855,163.303,171.031,163.14,170.184,163.182z"/>
		<path style="fill-rule:evenodd;clip-rule:evenodd;fill:#7B491E;" d="M168.444,127.489c-0.052,3.291-1.75,4.833-5.327,4.568
			c-1.821-0.134-2.912-1.567-2.984-3.193c-0.172-3.893,2.096-6.349,5.356-6.209C167.526,122.741,168.494,124.324,168.444,127.489z"
			/>
		<path style="fill-rule:evenodd;clip-rule:evenodd;fill:#7B491E;" d="M227.39,60.358c0.612,2.778-2.469,3.714-3.394,5.852
			c-0.036,0.084-0.396,0.149-0.461,0.083c-1.58-1.622-4.12-2.326-4.955-4.566c-0.473-1.266-0.501-2.923,1.602-3.36
			c0.977-0.203,1.907-0.689,2.816-1.133C226.355,55.596,227.417,56.291,227.39,60.358z"/>
		<path style="fill-rule:evenodd;clip-rule:evenodd;fill:#7B491E;" d="M136.339,125.042c-0.002,3.018-1.05,4.532-3.303,4.431
			c-3.84-0.173-5.622-1.815-5.606-4.443c0.015-2.536,2.334-3.589,5.968-3.924C135.303,120.93,136.34,122.446,136.339,125.042z"/>
		<path style="fill-rule:evenodd;clip-rule:evenodd;fill:#7B491E;" d="M307.917,127.661c-0.019,2.683-3.153,4.844-5.744,3.96
			c-3.467-1.185-4.907-4.115-3.186-6.467c1.137-1.553,2.805-1.832,4.397-1.311C307.307,125.125,307.93,125.779,307.917,127.661z"/>
		<path style="fill-rule:evenodd;clip-rule:evenodd;fill:#7B491E;" d="M321.256,229.568c1.654,1.944,0.795,6.186-1.34,7.11
			c-0.981,0.426-2.771-1.157-2.458-2.38c0.299-1.173,0.773-2.216,0.13-3.436c-0.083-0.156,0.118-1.216,0.893-1.371
			c2.515-0.507,2.508-2.521,2.575-4.42c0.046-1.289-0.04-2.611,1.813-2.397c1.45,0.167,2.827,0.532,2.95,2.428
			C326.071,228.986,325.667,229.421,321.256,229.568z"/>
		<path style="fill-rule:evenodd;clip-rule:evenodd;fill:#7B491E;" d="M56.338,168.408c0.021,2.489-2.808,5.703-5.127,5.822
			c-1.627,0.085-3.867-2.187-3.786-3.839c0.101-2.072,3.273-5.635,5.011-5.626C54.422,164.774,56.323,166.549,56.338,168.408z"/>
		<path style="fill-rule:evenodd;clip-rule:evenodd;fill:#7B491E;" d="M384.875,106.868c2.472,0.129,5.69,2.324,5.636,3.845
			c-0.091,2.527-3.553,5.824-5.904,5.623c-1.855-0.159-2.661-2.22-2.478-6.344C382.207,108.23,383.468,106.794,384.875,106.868z"/>
		<path style="fill-rule:evenodd;clip-rule:evenodd;fill:#7B491E;" d="M39.497,128.358c0.048,2.058-2.763,5.387-4.673,5.533
			c-1.521,0.117-3.6-3.165-3.704-5.849c-0.069-1.762,1.707-3.698,3.492-3.808C36.758,124.105,39.45,126.377,39.497,128.358z"/>
		<path style="fill-rule:evenodd;clip-rule:evenodd;fill:#7B491E;" d="M293.708,103.808c-0.038,2.054-2.416,4.179-4.596,4.108
			c-1.733-0.055-4.169-2.129-4.185-3.562c-0.022-1.991,2.884-5.396,4.593-5.382C291.732,98.991,293.752,101.326,293.708,103.808z"/>
		<path style="fill-rule:evenodd;clip-rule:evenodd;fill:#7B491E;" d="M281.324,131.076c3.321,0,4.527,0.871,4.488,3.241
			c-0.04,2.439-2.521,4.694-5.122,4.654c-2.188-0.034-3.735-2.12-3.822-5.149C276.816,132.009,278.331,131.076,281.324,131.076z"/>
		<path style="fill-rule:evenodd;clip-rule:evenodd;fill:#7B491E;" d="M287.231,114.231c2.198-0.141,2.896,1.021,2.81,3.057
			c-0.117,2.77-2.589,5.891-4.788,5.89c-1.857,0-3.676-1.978-3.65-3.97C281.631,116.957,284.749,114.201,287.231,114.231z"/>
		<path style="fill-rule:evenodd;clip-rule:evenodd;fill:#7B491E;" d="M355.601,152.654c-2.372,0.037-5.007-2.103-5.052-4.102
			c-0.045-2.038,2.24-4.184,4.559-4.282c1.363-0.058,4.777,3.059,4.81,4.389C359.958,150.344,357.495,152.624,355.601,152.654z"/>
		<path style="fill-rule:evenodd;clip-rule:evenodd;fill:#7B491E;" d="M71.076,182.134c0,2.51-2.648,5.375-5.348,5.157
			c-2.401-0.194-2.559-2.378-2.551-4.359c0.012-2.892,1.477-4.522,4.063-4.487C69.911,178.48,71.076,179.601,71.076,182.134z"/>
		<path style="fill-rule:evenodd;clip-rule:evenodd;fill:#7B491E;" d="M52.128,159.003c-0.002,1.133-3.074,5.056-4.015,5.127
			c-1.429,0.108-4.506-2.957-4.37-4.575c0.182-2.152,1.395-4.646,4.324-4.33C50.945,155.535,52.132,156.377,52.128,159.003z"/>
		<path style="fill-rule:evenodd;clip-rule:evenodd;fill:#7B491E;" d="M56.341,175.326c-0.029-2.22,2.167-4.739,4.159-4.774
			c1.599-0.028,3.788,1.791,3.687,3.324c-0.194,2.944-1.852,6.159-3.929,6.147C58.513,180.015,56.369,177.447,56.341,175.326z"/>
		<path style="fill-rule:evenodd;clip-rule:evenodd;fill:#7B491E;" d="M181.529,238.272c0.506,2.405-1.288,3.177-2.587,3.742
			c-1.483,0.646-2.833-0.018-3.73-1.742c-1.565-3.009-1.232-5.729,1.446-7.62c1.22-0.861,2.681-1.036,2.767,0.92
			C179.514,235.606,182.862,236.042,181.529,238.272z"/>
		<path style="fill-rule:evenodd;clip-rule:evenodd;fill:#7B491E;" d="M22.7,177.918c-2.313,0.007-4.21-1.848-4.225-4.131
			c-0.013-1.986,3.454-3.968,6.809-3.738c2.617,0.18,1.702,2.713,1.835,3.881C27.417,176.515,25.024,178.183,22.7,177.918z"/>
		<path style="fill-rule:evenodd;clip-rule:evenodd;fill:#7B491E;" d="M220.569,27.902c-0.038,1.626-1.306,2.667-3.021,3.104
			c-1.469,0.375-2.363-0.358-2.851-1.885c-0.32-1.005-1.274-1.791-1.736-2.772c-0.771-1.638-0.522-3.458,0.851-4.443
			c1.32-0.946,2.421,0.118,3.688,1.174C219.043,24.366,220.419,25.411,220.569,27.902z"/>
		<path style="fill-rule:evenodd;clip-rule:evenodd;fill:#7B491E;" d="M168.444,136.438c-0.02-3.177,0.973-4.736,2.985-4.687
			c2.038,0.05,4.825,2.616,4.907,4.518c0.076,1.75-2.306,4.182-4.159,4.25C170.045,140.595,168.459,138.862,168.444,136.438z"/>
		<path style="fill-rule:evenodd;clip-rule:evenodd;fill:#7B491E;" d="M387.4,124.936c0.023,3.579-1.142,5.574-3.28,5.613
			c-2.628,0.047-3.562-1.256-3.57-4.983c-0.006-2.703,1.105-3.807,3.52-4C386.681,121.356,387.392,122.73,387.4,124.936z"/>
		<path style="fill-rule:evenodd;clip-rule:evenodd;fill:#7B491E;" d="M345.286,113.636c-0.205-1.843,0.183-4.09,2.553-4.001
			c3.149,0.118,4.835,1.843,4.82,4.829c-0.012,2.51-1.097,3.459-4.004,3.454C345.455,117.912,345.285,117.708,345.286,113.636z"/>
		<path style="fill-rule:evenodd;clip-rule:evenodd;fill:#7B491E;" d="M215.305,251.544c-1.673,0.205-3.243,0.17-3.608-1.507
			c-0.278-1.271-0.703-2.983,1.655-3.369c0.498-0.081,1.519-1.308,1.41-2.487c-0.132-1.445,1.173-1.814,2-1.927
			c0.984-0.134,1.45,0.708,1.797,1.885c0.655,2.226,2.114,4.215-0.248,6.338C217.324,251.364,216.411,251.939,215.305,251.544z"/>
		<path style="fill-rule:evenodd;clip-rule:evenodd;fill:#7B491E;" d="M382.658,135.29c-0.033,2.312-2.544,5.237-4.289,5.227
			c-1.404-0.009-4.181-2.897-4.133-4.299c0.04-1.137,4.149-4.343,5.556-4.022C381.394,132.562,383.333,133.023,382.658,135.29z"/>
		<path style="fill-rule:evenodd;clip-rule:evenodd;fill:#7B491E;" d="M216.479,42.093c-0.927,0.208-1.496-0.315-1.825-0.895
			c-1.043-1.833-2.168-3.659-2.876-5.626c-0.421-1.171,1.294-1.279,1.928-2c0.685-0.78,1.861-1.335,3.044-0.734
			c2.249,1.143,2.905,7.084,0.996,8.678C217.341,41.854,217.016,42.31,216.479,42.093z"/>
		<path style="fill-rule:evenodd;clip-rule:evenodd;fill:#7B491E;" d="M251.05,58.055c0.329,2.49-1.554,3.035-3.404,3.448
			c-2.404,0.537-3.396-1.523-4.337-2.982c-0.907-1.402-0.935-3.078,0.929-4.34c1.744-1.18,2.8-1.061,3.778,0.82
			c0.22,0.421,0.999,0.722,1.547,0.767C251.058,55.892,251.149,56.842,251.05,58.055z"/>
		<path style="fill-rule:evenodd;clip-rule:evenodd;fill:#7B491E;" d="M361.831,56.92c0.205,1.445,2.779,2.63,0.322,4.136
			c-1.082,0.663-2.28,1.053-3.182-0.284c-0.842-1.249-1.173-3.114,0.175-3.651c2.983-1.19,2.087-3.623,2.446-5.679
			c0.188-1.072,0.778-1.836,1.792-1.886c0.919-0.045,1.899,0.378,2.33,1.308C367.147,53.961,365.38,56.813,361.831,56.92z"/>
		<path style="fill-rule:evenodd;clip-rule:evenodd;fill:#7B491E;" d="M69.106,140.548c1.929-0.449,2.874,0.727,2.988,2.63
			c0.117,1.943-2.972,5.689-4.557,5.758c-1.16,0.05-3.355-2.648-3.293-4.048C64.35,142.51,66.431,140.562,69.106,140.548z"/>
		<path style="fill-rule:evenodd;clip-rule:evenodd;fill:#7B491E;" d="M288.446,130.72c0.001-0.789,0.028-1.579-0.005-2.366
			c-0.061-1.438,1.319-1.988,2.02-1.877c1.971,0.312,3.201,1.948,4.261,3.516c0.736,1.09,0.755,2.211,0.018,3.587
			c-1.038,1.937-2.377,1.83-4.104,1.537c-2.039-0.345-2.417-1.6-2.196-3.347C288.481,131.426,288.444,131.071,288.446,130.72z"/>
		<path style="fill-rule:evenodd;clip-rule:evenodd;fill:#7B491E;" d="M343.507,129.497c-2.492,0.002-3.616-1.295-2.903-3.669
			c0.481-1.602,1.393-3.068,2.018-4.633c0.41-1.027,1.113-0.794,1.599-0.339c1.129,1.059,2.338,2.126,3.136,3.423
			C348.99,126.933,347.034,129.494,343.507,129.497z"/>
		<path style="fill-rule:evenodd;clip-rule:evenodd;fill:#7B491E;" d="M233.357,35.813c-3.574-0.009-4.303-1.395-2.485-4.69
			c0.58-1.052,1.005-1.579-0.288-2.144c-0.919-0.401-1.622-1.251-0.779-1.9c0.798-0.615,2.474-1.198,3.099,0.027
			c0.492,0.965,1.131,1.191,1.868,1.667c1.896,1.223,2.053,3.351,1.887,5.231C236.472,36.101,234.58,35.909,233.357,35.813z"/>
		<path style="fill-rule:evenodd;clip-rule:evenodd;fill:#7B491E;" d="M43.815,84.982c0.232,1.144-0.749,2.529-2.335,2.811
			c-1.301,0.23-2.953,0.056-3.903-1.521c-1.052-1.748-1.018-3.383,0.623-4.512c0.969-0.667,1.246-1.598,1.606-2.438
			c0.445-1.039,1.134-0.824,1.873-0.882c0.859-0.068,0.838,0.475,1.038,1.105C43.208,81.092,43.681,82.623,43.815,84.982z"/>
		<path style="fill-rule:evenodd;clip-rule:evenodd;fill:#7B491E;" d="M235.536,66.685c-2.579-1.191-2.581-4.13-3.845-6.257
			c-0.603-1.016,2.09-3.608,3.709-3.498c1.482,0.102,2.843,0.787,3.034,2.564C238.749,62.398,238.394,65.069,235.536,66.685z"/>
		<path style="fill-rule:evenodd;clip-rule:evenodd;fill:#7B491E;" d="M130.544,75.822c-1.098-0.299-2.322-0.41-2.725-2.235
			c-0.465-2.104,0.168-3.929,0.68-5.822c0.2-0.74,0.904-0.935,1.687-0.912c2.854,0.085,3.101,2.732,3.908,4.433
			c0.692,1.459,0.148,3.362-1.851,4.214C131.734,75.717,131.271,75.79,130.544,75.822z"/>
		<path style="fill-rule:evenodd;clip-rule:evenodd;fill:#7B491E;" d="M119.925,72.566c-0.318-1.355,0.346-1.929,1.686-2.021
			c1.589-0.109,4.551,2.69,4.722,4.494c0.232,2.455-1.005,4.329-2.812,4.478c-1.935,0.161-2.542-1.425-3.558-2.481
			C118.549,75.565,120.355,74.1,119.925,72.566z"/>
		<path style="fill-rule:evenodd;clip-rule:evenodd;fill:#7B491E;" d="M173.18,239.693c0.521,1.739-0.86,2.822-1.903,4.111
			c-1.382,1.707-2.542,0.741-3.7-0.195c-1.271-1.027-1.913-2.291-0.739-3.762c0.739-0.927,1.517-1.73,1.944-2.932
			c0.31-0.871,1.017-2.139,2.442-1.605c1.145,0.43,1.762,1.407,1.944,2.605C173.244,238.426,173.18,238.956,173.18,239.693z"/>
		<path style="fill-rule:evenodd;clip-rule:evenodd;fill:#7B491E;" d="M214.413,44.243c0.851,0,1.031-0.031,1.198,0.005
			c2.054,0.437,4.883,6.945,3.726,8.718c-0.843,1.292-2.898,1.086-3.21,0.525c-1.239-2.232-3.212-4.13-3.489-6.875
			C212.445,44.7,213.536,44.271,214.413,44.243z"/>
		<path style="fill-rule:evenodd;clip-rule:evenodd;fill:#7B491E;" d="M138.774,61.602c2.271,0.003,4.209,1.462,4.157,3.128
			c-0.08,2.558-1.26,3.728-3.745,3.713c-1.987-0.011-3.811-1.734-3.866-3.653C135.252,62.46,136.185,61.599,138.774,61.602z"/>
		<path style="fill-rule:evenodd;clip-rule:evenodd;fill:#7B491E;" d="M347.017,100.547c3.01,0.029,6.063,1.899,6.134,3.629
			c0.045,1.131-3.059,3.245-4.717,3.212c-1.591-0.032-3.768-2.916-3.645-5.002C344.874,100.937,345.704,100.218,347.017,100.547z"/>
		<path style="fill-rule:evenodd;clip-rule:evenodd;fill:#7B491E;" d="M260.025,40.499c-0.011-2.679,1.737-4.774,3.656-4.664
			c2.612,0.15,2.062,2.84,3.018,4.266c0.753,1.124-2.268,4.208-3.802,4.12C260.198,44.064,260.779,41.579,260.025,40.499z"/>
		<path style="fill-rule:evenodd;clip-rule:evenodd;fill:#7B491E;" d="M138.414,52.332c0.104-1.096-0.274-2.077,0.666-2.635
			c1.161-0.689,1.749,0.304,2.345,0.971c0.484,0.542,1.125,0.34,1.667,0.578c1.748,0.766,2.436,2.137,2.15,3.9
			c-0.252,1.556-1.459,2.526-2.922,2.717c-1.777,0.231-2.887-0.953-3.295-2.571C138.761,54.245,138.041,53.241,138.414,52.332z"/>
		<path style="fill-rule:evenodd;clip-rule:evenodd;fill:#7B491E;" d="M218.126,20.019c-2.441-0.005-3.632-1.748-4.528-3.58
			c-0.688-1.404,0.958-3.19,2.436-2.601c1.053,0.419,2.037,0.449,3.015,0.355c1.828-0.176,3.026,0.639,2.986,2.306
			c-0.039,1.649-1.122,2.994-2.867,3.506C218.846,20.099,218.475,20.019,218.126,20.019z"/>
		<path style="fill-rule:evenodd;clip-rule:evenodd;fill:#7B491E;" d="M368.356,233.592c-2.088-0.986-3.007-3.036-3.975-4.747
			c-0.804-1.422,0.81-2.959,2.035-3.782c1.347-0.905,2.82-0.204,3.96,0.855c1.133,1.054,1.074,2.516,0.35,3.542
			C369.797,230.777,369.153,232.228,368.356,233.592z"/>
		<path style="fill-rule:evenodd;clip-rule:evenodd;fill:#7B491E;" d="M55.171,60.167c-2.635-0.185-3.875-1.415-3.544-3.749
			c0.295-2.085,1.87-3.177,3.751-3.151c1.724,0.023,3.276,1.024,3.254,3.1C58.607,58.626,56.98,60.293,55.171,60.167z"/>
		<path style="fill-rule:evenodd;clip-rule:evenodd;fill:#7B491E;" d="M260.118,49.651c-0.916,1.396-0.469,3.83-2.996,4.032
			c-1.692,0.135-3.413-2.322-3.412-4.666c0.001-1.488,2.257-3.983,3.575-3.639C259.299,45.905,259.605,47.834,260.118,49.651z"/>
		<path style="fill-rule:evenodd;clip-rule:evenodd;fill:#7B491E;" d="M270.407,135.812c-2.352,0.028-3.453-1.595-3.545-5.152
			c-0.04-1.535,1.076-2.154,2.196-2.475c1.19-0.34,4.683,3.425,4.648,4.808C273.667,134.612,272.288,135.79,270.407,135.812z"/>
		<path style="fill-rule:evenodd;clip-rule:evenodd;fill:#7B491E;" d="M44.229,84.336c-0.169-0.709,0.463-1.141,0.758-1.743
			c0.321-0.656,1.137-1.186,0.485-2.281c-0.708-1.188,0.417-2.087,1.369-2.294c0.895-0.195,1.749,0.19,2.238,1.475
			c0.629,1.65,0.15,3.379,0.866,5.004c0.375,0.852-2.489,3.169-3.572,2.802C45.158,86.888,44.13,85.989,44.229,84.336z"/>
		<path style="fill-rule:evenodd;clip-rule:evenodd;fill:#7B491E;" d="M121.602,22.416c-0.008,2.161-1.291,3.428-3.625,3.373
			c-1.9-0.045-3-1.177-3.193-3.036c-0.147-1.423,2.261-4.236,3.544-4.307C119.903,18.359,121.609,20.428,121.602,22.416z"/>
		<path style="fill-rule:evenodd;clip-rule:evenodd;fill:#7B491E;" d="M194.76,235.529c0.002-1.535,2.07-4.256,3.156-4.151
			c1.327,0.128,3.675,3.037,3.694,4.503c0.026,1.91-1.08,2.965-2.778,3.032C196.624,239,194.758,237.261,194.76,235.529z"/>
		<path style="fill-rule:evenodd;clip-rule:evenodd;fill:#7B491E;" d="M345.119,56.233c1.41,0.47,2.875,1.361,4.658,1.336
			c0.835-0.011,1.307,1.7,0.633,2.437c-0.819,0.896,0.402,1.724-0.246,2.763c-0.459,0.735-1.042,1.276-1.573,1.338
			c-0.573,0.068-1.525-0.117-1.758-1.102c-0.397-1.68-1.72-2.624-3.054-3.462c-1.143-0.719-0.544-1.724-0.527-2.552
			C343.272,55.878,344.325,56.537,345.119,56.233z"/>
		<path style="fill-rule:evenodd;clip-rule:evenodd;fill:#7B491E;" d="M278.452,22.252c0.189,1.486,0.151,3.346-2.406,3.525
			c-1.606,0.113-3.391-2.066-3.391-3.911c0-1.891,1.697-3.934,3.332-3.94C278.838,17.914,278.417,20.013,278.452,22.252z"/>
		<path style="fill-rule:evenodd;clip-rule:evenodd;fill:#7B491E;" d="M241.617,21.884c0.383-1.364,1.314-2.624,3.304-2.357
			c1.807,0.243,3.576,0.963,3.981,2.946c0.299,1.469-2.619,3.94-4.212,3.863C243.304,26.27,241.546,23.969,241.617,21.884z"/>
		<path style="fill-rule:evenodd;clip-rule:evenodd;fill:#7B491E;" d="M368.981,46.971c0.021,1.523-0.631,2.513-2.251,2.507
			c-1.784-0.006-5.215-2.908-5.07-4.425c0.135-1.411,0.747-2.56,2.637-2.433C366.796,42.787,369.015,44.716,368.981,46.971z"/>
		<path style="fill-rule:evenodd;clip-rule:evenodd;fill:#7B491E;" d="M341.386,39.493c-0.969,0.082-1.543-0.229-1.963-1.238
			c-0.576-1.386-0.647-2.895-1.418-4.262c-0.576-1.022,0.438-2.098,1.476-2.312c1.291-0.266,2.781,0.125,3.067,1.583
			c0.182,0.922,0.711,1.369,1.136,2.017c0.585,0.892,1.693,1.77,0.89,2.966C343.863,39.306,342.652,39.595,341.386,39.493z"/>
		<path style="fill-rule:evenodd;clip-rule:evenodd;fill:#7B491E;" d="M272.024,28.971c1.998-0.313,2.633,1.046,2.702,2.741
			c0.069,1.677-2.413,4.201-3.946,4.079c-1.756-0.142-2.854-1.103-2.852-2.967C267.931,30.484,269.532,28.962,272.024,28.971z"/>
		<path style="fill-rule:evenodd;clip-rule:evenodd;fill:#7B491E;" d="M201.06,245.285c-2.397,0.577-2.795-1.428-3.081-3.116
			c-0.295-1.736,2.527-3.983,4.831-3.461c1.296,0.293,2.046,2.034,1.972,3.742C204.676,244.873,204.228,245.293,201.06,245.285z"/>
		<path style="fill-rule:evenodd;clip-rule:evenodd;fill:#7B491E;" d="M323.658,249.186c0.149,2.572-0.587,3.751-2.444,3.978
			c-1.102,0.135-4.941-3.421-4.725-4.48c0.447-2.189,2.536-2.178,4.053-2.249C322.655,246.335,323.427,248.078,323.658,249.186z"/>
		<path style="fill-rule:evenodd;clip-rule:evenodd;fill:#7B491E;" d="M351.486,62.766c0.133-1.271,0.035-2.034,0.31-2.626
			c0.617-1.336,1.395-2.848,3.248-2.062c1.546,0.655,2.16,1.958,1.467,3.672c-0.562,1.386-1.062,2.795-1.602,4.189
			c-0.244,0.63-0.424,1.48-1.274,1.371c-0.674-0.086-1.36-0.728-1.397-1.363C352.161,64.658,351.272,63.522,351.486,62.766z"/>
		<path style="fill-rule:evenodd;clip-rule:evenodd;fill:#7B491E;" d="M208.954,249.079c0.36,1.736-0.561,3.048-2.167,3.471
			c-1.609,0.424-4.135-1.849-4.132-3.342c0.004-1.908,1.589-3.345,3.646-3.406C208.566,245.735,209.126,247.029,208.954,249.079z"/>
		<path style="fill-rule:evenodd;clip-rule:evenodd;fill:#7B491E;" d="M354.233,238.468c-0.01,2.265-1.324,3.684-3.311,3.67
			c-1.991-0.014-3.021-1.396-3.441-2.927c-0.398-1.45,2.116-3.947,3.689-3.654C352.601,235.822,354.522,236.14,354.233,238.468z"/>
		<path style="fill-rule:evenodd;clip-rule:evenodd;fill:#7B491E;" d="M119.57,27.926c1.353-0.104,2.69-0.136,2.587,2.053
			c-0.105,2.235-2.023,5.103-3.644,4.64c-1.482-0.423-2.862-1.614-2.71-3.64C115.975,28.695,117.245,27.787,119.57,27.926z"/>
		<path style="fill-rule:evenodd;clip-rule:evenodd;fill:#7B491E;" d="M116.866,38.364c-0.106-1.384-0.002-2.888,2.026-3.057
			c1.989-0.165,3.776,1.549,3.762,3.462c-0.016,2.175-1.224,3.412-3.283,3.358C117.287,42.074,116.852,41.454,116.866,38.364z"/>
		<path style="fill-rule:evenodd;clip-rule:evenodd;fill:#7B491E;" d="M31.073,99.12c0.123,1.551-0.2,2.856-2.048,2.988
			c-1.827,0.13-3.617-2.209-3.632-5.003c-0.006-1.305,0.754-2.538,2.185-2.827C28.807,94.029,31.052,97.253,31.073,99.12z"/>
		<path style="fill-rule:evenodd;clip-rule:evenodd;fill:#7B491E;" d="M354.234,220.815c0.337,2.347-1.472,3.184-3.057,3.302
			c-1.849,0.139-2.797-1.334-2.743-3.282c0.045-1.655,1.715-3.415,3.349-3.436C353.043,217.384,354.235,219.044,354.234,220.815z"/>
		<path style="fill-rule:evenodd;clip-rule:evenodd;fill:#7B491E;" d="M324.209,217.506c0.248-1.336-0.765-3.415,1.986-3.275
			c1.671,0.086,3.486,2.229,3.207,4.243c-0.206,1.479-0.7,2.764-2.939,2.697C323.388,221.079,324.448,219.041,324.209,217.506z"/>
		<path style="fill-rule:evenodd;clip-rule:evenodd;fill:#7B491E;" d="M327.393,208.896c-0.157-1.881,0.413-3.126,2.662-3.105
			c1.873,0.018,2.878,0.916,2.544,2.689c-0.318,1.688-0.196,4.09-2.783,4.117C327.49,212.622,327.36,210.732,327.393,208.896z"/>
		<path style="fill-rule:evenodd;clip-rule:evenodd;fill:#7B491E;" d="M46.891,66.902c-1.644-0.211-2.761-1.021-3.028-2.477
			c-0.251-1.373,2.061-4.223,3.207-4.276c0.698-0.033,3.258,2.872,2.893,3.451C49.146,64.892,48.791,66.743,46.891,66.902z"/>
		<path style="fill-rule:evenodd;clip-rule:evenodd;fill:#7B491E;" d="M346.58,54.759c-1.628-0.009-4.446-2.273-4.438-3.622
			c0.008-1.327,0.741-2.097,2.058-2.149c1.68-0.068,4.764,2.184,4.771,3.403C348.979,53.945,348.149,54.768,346.58,54.759z"/>
		<path style="fill-rule:evenodd;clip-rule:evenodd;fill:#7B491E;" d="M363.171,32.659c1.576,0.037,3.838,1.819,3.658,3.175
			c-0.217,1.632-1.222,2.63-2.974,2.603c-1.594-0.025-3.521-2.291-3.269-3.986C360.779,33.174,361.695,32.561,363.171,32.659z"/>
		<path style="fill-rule:evenodd;clip-rule:evenodd;fill:#7B491E;" d="M333.058,262.138c-1.046-0.134-1.9-0.703-1.976-2.065
			c-0.084-1.52,2.125-4.145,3.672-4.22c1.816-0.089,1.841,1.732,2.591,2.744C337.611,258.956,333.967,262.083,333.058,262.138z"/>
		<path style="fill-rule:evenodd;clip-rule:evenodd;fill:#7B491E;" d="M352.111,231.057c0.548,1.561-0.97,1.986-1.857,2.48
			c-1.06,0.59-1.535-0.242-1.893-1.345c-0.328-1.019-1.282-1.816-1.806-2.794c-0.424-0.792-0.5-1.794,0.419-2.29
			c0.682-0.368,1.534-0.708,2.114,0.49C349.754,228.974,352.445,228.593,352.111,231.057z"/>
		<path style="fill-rule:evenodd;clip-rule:evenodd;fill:#7B491E;" d="M353.721,42.129c-1.328-0.019-3.282-2.447-2.989-3.972
			c0.176-0.915,0.657-1.97,2.105-1.849c1.305,0.109,3.828,2.145,3.672,3.252C356.281,41.182,355.549,42.337,353.721,42.129z"/>
		<path style="fill-rule:evenodd;clip-rule:evenodd;fill:#7B491E;" d="M353.703,258.442c-0.006,1.111-2.688,3.784-3.52,3.667
			c-1.65-0.229-2.096-1.886-2.059-2.862c0.066-1.712,1.245-3.5,3.044-3.621C352.642,255.527,353.198,257.333,353.703,258.442z"/>
		<path style="fill-rule:evenodd;clip-rule:evenodd;fill:#7B491E;" d="M356.338,23.531c0.215,2.125-1.305,2.539-2.861,2.792
			c-2.153,0.35-2.361-1.789-2.205-2.68c0.203-1.15,0.027-3.261,2.468-3.137C355.851,20.614,356.463,21.672,356.338,23.531z"/>
		<path style="fill-rule:evenodd;clip-rule:evenodd;fill:#7B491E;" d="M118.031,50.486c-1.194-0.35-2.302-1.255-2.236-3.256
			c0.052-1.56,0.748-2.705,2.283-2.382c1.261,0.265,3.119,0.75,2.91,2.564C120.839,48.692,121.048,50.8,118.031,50.486z"/>
		<path style="fill-rule:evenodd;clip-rule:evenodd;fill:#7B491E;" d="M359.385,236.914c-1.493-0.495-3.46-0.641-3.514-2.808
			c-0.04-1.595,1.229-2.074,2.707-1.983c1.644,0.101,3.28,0.617,3.436,2.355C362.128,235.743,361.406,237.234,359.385,236.914z"/>
		<path style="fill-rule:evenodd;clip-rule:evenodd;fill:#7B491E;" d="M252.634,31.643c-0.557,0.747-0.515,2.156-2.103,2.073
			c-1.304-0.068-3.697-2.837-3.671-4.28c0.028-1.531,1.059-1.591,2.163-1.51C250.218,28.015,252.713,30.534,252.634,31.643z"/>
		<path style="fill-rule:evenodd;clip-rule:evenodd;fill:#7B491E;" d="M355.261,31.538c0.146,1.624-0.124,3.264-1.886,3.108
			c-1.727-0.153-2.208-1.867-2.31-3.515c-0.086-1.399,0.442-2.632,1.828-2.601C354.647,28.569,355.747,29.654,355.261,31.538z"/>
		<path style="fill-rule:evenodd;clip-rule:evenodd;fill:#7B491E;" d="M343.385,43.708c1.653-0.04,4.541,1.75,4.343,2.85
			c-0.189,1.046-0.707,2.029-2.209,1.917c-1.911-0.143-3.89-1.631-3.92-3.144C341.574,44.079,342.235,43.637,343.385,43.708z"/>
		<path style="fill-rule:evenodd;clip-rule:evenodd;fill:#7B491E;" d="M183.724,265.022c-0.104,0.73-0.438,1.292-1.113,1.246
			c-0.637-0.043-0.954-0.575-1.017-1.264c-0.085-0.928,0.783-0.956,1.188-1.048C183.461,263.802,183.665,264.479,183.724,265.022z"
			/>
		<path style="fill-rule:evenodd;clip-rule:evenodd;fill:none;" d="M311.608,241.685c-0.047,0.753,0.151,1.797-0.926,1.416
			c-0.751-0.265-2.112,0.049-2.184-1.195c-0.063-1.11,1.214-1.258,1.938-1.656C310.678,240.114,311.955,240.682,311.608,241.685z"/>
	</g>
</g>
</svg>
