<?xml version="1.0" encoding="iso-8859-1"?>
<!-- Generator: Adobe Illustrator 16.0.0, SVG Export Plug-In . SVG Version: 6.00 Build 0)  -->
<!DOCTYPE svg PUBLIC "-//W3C//DTD SVG 1.1//EN" "http://www.w3.org/Graphics/SVG/1.1/DTD/svg11.dtd">
<svg version="1.1" id="Layer_1" xmlns="http://www.w3.org/2000/svg" xmlns:xlink="http://www.w3.org/1999/xlink" x="0px" y="0px"
	 width="401.558px" height="237.708px" viewBox="0 0 401.558 237.708" style="enable-background:new 0 0 401.558 237.708;"
	 xml:space="preserve">
<g>
	<g>
		<path style="fill:none;" d="M200.779,237.164c-66.041,0-132.082-0.008-198.122,0.044c-1.76,0.002-2.158-0.396-2.157-2.156
			c0.051-77.465,0.051-154.93,0-232.395C0.499,0.897,0.896,0.5,2.657,0.5c132.082,0.048,264.162,0.048,396.244,0
			c1.76-0.001,2.158,0.396,2.157,2.156c-0.052,77.465-0.052,154.93,0,232.395c0.001,1.76-0.396,2.158-2.157,2.156
			C332.861,237.156,266.82,237.164,200.779,237.164z M43.708,67.65c1.345,0.723,2.947,0.592,4.308,1.38
			c0.727,0.421,1.703-0.071,1.943-0.84c0.525-1.678,0.878-3.479-0.247-5.065c-1.087-1.534-2.701-1.455-4.141-0.72
			c-1.609,0.82-2.454,3.677-1.809,5.299c-0.986,0.35-1.778-0.93-2.842-0.281c-1.572,0.959-1.992,4.654-0.623,5.957
			c1.184,1.127,3.69,0.197,4.449-1.186C45.847,70.187,43.897,69.181,43.708,67.65z M36.666,65.771
			c4.725-0.094,6.445-2.113,5.117-6.499c-0.5-1.654-0.929-2.939-0.019-4.608c0.394-0.722,0.553-2.154-0.66-2.928
			c-0.959-0.611-1.888-0.568-2.76,0.069c-0.947,0.692-1.607,1.878-1.087,2.811c1.029,1.846-0.325,2.215-1.376,2.688
			c-2.084,0.937-2.869,2.388-2.399,4.505c0.424,1.909,2.241,2.614,3.238,4.015c-0.543-0.007-1.095,0.041-1.629-0.032
			c-1.572-0.213-2.678,0.64-3.009,1.931c-0.415,1.621-0.355,3.562,1.278,4.504c0.806,0.465,2.592,0.736,3.185-0.236
			c0.772-1.267,2.813-2.65,0.721-4.548C36.877,67.093,36.856,66.339,36.666,65.771z M353.572,180.329
			c0.171-0.096,0.389-0.421,0.534-0.088c0.844,1.921,1.573,3.681,0.03,5.818c-1.72,2.385-0.434,5.556-1.443,8.239
			c-0.261,0.693-0.175,1.682,0.771,1.96c0.991,0.29,1.593-0.159,2.193-1.135c0.707-1.148,1.256-2.675,2.958-3.041
			c0.273,1.125,0.477,2.17,0.791,3.179c0.207,0.665,0.561,1.243,1.479,1.065c0.718-0.138,1.087-0.479,1.16-1.213
			c0.26-2.576,0.792-5.073,1.753-7.505c0.787-1.991-0.642-4.383-2.687-4.892c-2.479-0.618-4.331-3.513-3.112-5.78
			c1.206-2.242,1.171-4.836,2.613-6.954c1.499-2.199,1.651-4.61,0.479-7.059c-0.707-1.477-1.912-2.529-3.395-1.658
			c-1.194,0.701-2.292,0.716-3.507,0.79c-1.589,0.098-2.042,0.917-1.3,2.322c0.321,0.608,0.321,1.171,0.037,1.766
			c-0.587-0.31-1.162-0.535-1.477-1.27c-1.057-2.464-0.872-5.065-0.578-7.548c0.413-3.497,0.436-4.001-2.451-5.851
			c-1.073-0.688-2.214-1.265-3.311-1.916c-1.664-0.988-3.388-0.852-5.066-0.156c-1.188,0.492-1.573,1.311-1.074,2.72
			c0.608,1.718,2.09,2.109,3.367,2.902c0.793,0.491,2.201,0.445,2.276,1.574c0.16,2.398,1.539,4.254,2.379,6.352
			c0.814,2.036,2.216,3.889,1.682,6.386c-0.169,0.788,0.652,1.874,1.825,2.092c1.029,0.19,1.91-0.44,2.001-1.199
			c0.136-1.126,1.189-1.703,1.187-2.94c-0.003-1.438,1.67-0.979,2.552-1.446c0.424-0.226,0.693,0.266,0.626,0.689
			c-0.32,2.03-0.601,4.071-1.05,6.073c-0.236,1.055-1.688,0.518-2.276,1.384c-0.211,0.311-1.092,0.086-1.502,0.356
			c-0.752,0.495-1.675,1.014-1.695,2.056c-0.021,1.052,0.934,0.905,1.628,1.208c1.074,0.469,2.047,1.296,1.659,2.777
			c-1.02,0.132-1.643-0.909-1.764-1.337c-0.526-1.864-1.973-1.15-2.738-0.858c-1.059,0.402-1.231,1.543-0.487,2.607
			c0.649,0.927,1.212,1.918,1.902,2.812c0.625,0.81,1.485,0.763,2.425,0.515c1.118-0.296,0.518-1.125,0.603-1.704
			C353.671,181.739,353.58,181.028,353.572,180.329z M355.446,139.01l0.053,0.053c0.054-0.45-0.005-0.954,0.179-1.344
			c1.247-2.655,1.188-5.11-0.746-7.482c-0.795-0.976-1.305-2.091-1.468-3.496c-0.146-1.262-0.588-2.968-2.72-2.741
			c-2.599,0.276-4.305,1.375-4.087,3.362c0.181,1.643,0.419,3.396,1.676,4.846c1.732,1.995,2.633,4.354,1.712,7.127
			c-0.413-0.204-0.803-0.482-1.233-0.591c-0.896-0.225-1.982-0.587-2.522,0.438c-0.544,1.032-0.181,2.032,0.867,2.703
			c0.324,0.208,0.567,0.649,0.902,0.717c2.197,0.443,2.352,1.959,2.189,3.904c-0.346-0.239-0.541-0.348-0.705-0.493
			c-0.83-0.734-1.693-0.919-2.561-0.099c-1.074,1.018,0.099,1.575,0.452,2.356c0.449,0.994,1.451,1.025,2.179,1.475
			c2.097,1.295,3.311,4.267,2.669,6.512c-0.416,1.456,0.114,2.911,0.896,4.122c0.709,1.098,1.73,1.142,2.272-0.219
			c0.635-1.594,1.308-3.247-0.233-4.812c-0.143-0.145-1.198-0.688-0.076-1.347c1.107-0.649,1.027,0.491,1.158,0.728
			c0.754,1.36,1.013,2.926,1.867,4.293c0.678,1.084,1.504,0.88,1.71,0.158c0.709-2.489,3.415-3.991,3.181-6.902
			c0.929,0.469,1.338,1.056,1.372,2.063c0.049,1.449,0.565,2.86,1.312,4.067c1.196,1.938-0.262,3.991,0.482,5.924
			c0.178,0.463-0.43,0.451-0.802,0.54c-2.133,0.513-2.985,1.738-2.108,3.9c0.242,0.597,0.36,1.308-0.153,1.743
			c-0.971,0.823-0.863,1.989-0.573,2.812c0.646,1.839,0.059,3.134-0.929,4.643c-0.716,1.094-1.523,2.633,0.872,3.381
			c3.643,1.138,4.593,3.9,3.015,7.562c-0.44,1.021-0.445,2.227-0.684,3.34c-0.939,4.387-0.395,9.015-2.221,13.273
			c-0.325,0.758-0.592,2.108,0.294,2.568c1.01,0.523,1.411-0.771,1.906-1.425c0.535-0.708,1.045-1.458,1.221-2.379
			c0.796-4.182,2.899-7.897,4.251-11.875c1.85-5.44,1.882-10.686-2.909-14.901c-0.851-0.75-0.814-1.609-0.434-2.631
			c0.436,0.647,0.838,1.19,1.183,1.77c0.758,1.272,1.672,1.205,2.663,0.325c1.038-0.921,1.792-2.425,3.663-1.433
			c0.19,0.102,1.574-0.36,1.62-1.344c0.034-0.737,0.45-0.702,0.983-0.931c4.301-1.835,7.929-4.312,8.458-9.537
			c0.129-1.277,0.99-2.373,0.939-3.744c-0.071-1.972-2.062-1.372-2.948-2.32c-1.213-1.298-2.861-1.163-3.616,0.471
			c-0.688,1.485-1.957,2.224-2.951,3.308c-0.417,0.456-1.108,0.876-1.184,1.385c-0.132,0.898-0.827,2.152-1.125,1.813
			c-1.029-1.171-3.14-0.019-3.438-1.346c-0.57-2.546-2.789-4.52-1.86-7.725c0.5-1.729,1.546-1.648,2.286-1.769
			c1.024-0.166,1.312,0.918,1.219,1.946c-0.078,0.854,0.032,1.723-0.028,2.579c-0.083,1.171,0.009,2.289,1.412,2.48
			c1.41,0.19,1.953-0.826,2.096-2.029c0.282-2.37,1.896-3.475,3.853-4.398c1.298-0.612,2.6-1.332,3.677-2.263
			c0.978-0.846,1.591-1.936,0.828-3.467c-0.753-1.511-1.566-1.22-2.808-0.783c-1.393,0.49-1.826-0.305-1.412-1.616
			c1.016-3.219,0.742-3.716-2.331-4.12c0.602-0.913,1.135-1.637,2.426-0.89c0.829,0.479,1.688-0.072,2.083-0.828
			c0.604-1.156,0.191-2.36-0.482-3.336c-0.396-0.574-1.427-1.31-1.928-0.751c-1.3,1.449-2.929,1.798-4.669,2.075
			c-0.809,0.128-1.031,0.865-1.26,1.463c-0.604,1.582-0.564,1.598-2.542,1.139c1.476-2.236,2.746-4.563,4.739-6.288
			c2.614-2.261,2.989-3.514,1.663-6.634c-0.351-0.825-0.574-1.76-0.604-2.652c-0.05-1.503-0.628-2.631-2.178-2.283
			c-1.535,0.345-3.803,0.188-3.516,2.959c0.12,1.16,0.666,1.976,1.374,2.819c0.489,0.583,1.387,1.301,0.706,2.141
			c-1.289,1.591-2.289,3.452-3.908,4.751c-0.746-0.501-0.303-1.148-0.528-1.588c-1.765-3.425-3.673-6.748-2.879-10.922
			c0.194-1.023-0.973-2.195-2.318-2.062c-5.168,0.515-6.234,2.199-4.708,7.168c0.066,0.218,0.004,0.485,0.099,0.684
			c0.349,0.729,0.354,1.206-0.581,1.523c-1.973,0.67-2.182,2.369-1.632,3.937C358.315,136.881,357.726,138.263,355.446,139.01z
			 M166.032,114.119c-2.289-0.544-4.092,0.59-5.981,1.454c-2.792,1.277-4.216,0.501-4.595-2.368c-0.104-0.78-0.112-1.73-1.262-1.861
			c-0.963-0.11-1.353,0.447-1.669,1.252c-0.758,1.932-1.299,3.927-1.236,5.99c0.043,1.399,0.633,3.048,2.381,2.543
			c3.108-0.898,3.93,1.302,5.034,3.206c0.18,0.312,0.805,0.877,0.046,1.341c-0.522,0.318-1.021,0.35-1.481-0.104
			c-0.39-0.383-0.883-0.716-1.133-1.178c-0.955-1.768-2.383-2.513-4.378-2.82c-1.376-0.212-2.932-0.587-3.694-2.295
			c-0.51-1.142-1.651-1.204-2.772-0.455c-1.319,0.882-2.422,3.745-1.453,4.869c1.959,2.272,4.147,4.364,6.374,6.383
			c1.106,1.003,2.356,2.087,3.859,2.332c2.716,0.443,3.837,2.496,4.105,4.611c0.374,2.955,1.956,4.599,4.414,5.535
			c1.643,0.626,2.608,1.705,3.497,3.091c2.073,3.229,3.473,6.932,6.831,9.264c1.476,1.025,2.949,1.88,4.734,1.955
			c2.386,0.101,4.815-0.215,7.124,0.585c0.919,0.318,1.54-0.061,1.935-0.644c0.433-0.641,0.508-1.63-0.013-2.201
			c-1.275-1.397-2.609-2.547-4.706-2.998c-2.437-0.525-5.333,0.524-7.354-1.96c-0.444-0.547-1.06-0.905-0.802-1.603
			c0.334-0.905,0.936,0.152,1.48-0.041c0.482-0.171,1.009-0.161,1.533-0.405c1.851-0.865,3.344-0.426,4.962,0.962
			c1.154,0.989,1.794,3.033,3.212,3.025c3.284-0.018,5.034,2.329,7.327,3.883c0.557,0.378,1.165,0.769,1.805,0.921
			c3.595,0.854,7.22,1.182,10.899,0.508c0.88-0.16,1.165-0.783,1.297-1.421c0.155-0.751-0.186-1.513-0.938-1.801
			c-4.231-1.618-8.465-3.237-12.736-4.747c-1.843-0.651-3.565-1.784-5.792-1.04c-1.248,0.416-0.959-0.904-0.776-1.56
			c0.477-1.706,0.035-3.266-0.679-4.748c-0.481-1.002-0.733-1.935,0.119-2.75c0.879-0.842,1.806-1.686,3.212-0.749
			c1.828,1.218,3.635,0.812,5.545-0.064c2.002-0.919,3.106-2.94,5.125-3.788c2.32-0.973,4.136-2.591,5.617-4.602
			c0.496-0.673,1.117-0.932,1.989-0.94c1.81-0.019,3.66,0.397,5.373-0.825c0.486-0.347,1.557-0.239,2.411,0.288
			c1.307,0.809,2.48-0.084,2.516-1.271c0.053-1.765-0.69-3.611-2.33-4.47c-1.158-0.606-2.732-0.748-3.816,0.587
			c-0.671,0.826-1.888,0.869-2.315,0.424c-1.476-1.537-2.482-0.247-3.58,0.351c-0.907,0.494-1.719,1.163-2.661,1.816
			c-0.449-1.246,0.205-2.975-2.12-2.585c-2.053,0.344-2.215,1.682-1.78,2.946c0.942,2.734,2.295-0.547,3.582,0.108
			c-1.122,1.452-2.459,2.797-4.198,3.022c-1.54,0.2-2.449,0.9-3.193,2.012c-0.97,1.446-2.134,1.726-3.382,0.552
			c-1.395-1.312-2.6-0.934-4.107-0.181c-1.007,0.504-1.283,2.668-2.748,1.681c-1.6-1.079-0.14-2.767,0.046-4.054
			c0.395-2.733,3.993-4.888,6.557-4.027c1.422,0.478,2.772,0.374,4.123,0.302c0.966-0.052,2.611-0.107,2.66-1.274
			c0.077-1.836,1.455-1.908,2.427-2.691c1.138-0.917,2.396-1.632,3.537-2.521c1.12-0.875,1.06-2.23,0.493-3.164
			c-0.63-1.037-1.84-0.876-2.832-0.118c-0.605,0.462-1.19,0.964-1.844,1.347c-1.803,1.057-3.392,2.941-5.818,0.868
			c-1.343-1.148-1.933,0.338-2.532,1.328c-0.279,0.461-0.426,1.411-1.357,0.648c-0.643-0.526-0.494-1.03-0.011-1.53
			c0.76-0.787,1.643-1.479,2.289-2.349c1.478-1.987,3.764-3.54,3.857-6.315c0.039-1.152,0.529-1.767,1.334-2.491
			c2.028-1.821,4.593-3.211,5.7-5.854c1.373-3.282,3.552-5.669,6.562-7.575c1.565-0.991,3.072-2.432,3.784-4.313
			c0.741-1.957,1.402-1.406,2.173-0.06c0.263,0.459,0.533,0.927,0.879,1.321c0.676,0.773,1.786,0.922,2.189,0.132
			c0.66-1.292,1.315-3.27,0.105-4.19c-2.532-1.924,0.027-2.114,0.747-2.867c0.233-0.244,0.78-0.042,1.056-0.634
			c0.243-0.522,1.283-0.694,0.723-1.585c-0.434-0.686-1.024-0.472-1.766-0.457c-3.045,0.065-5.568,1.878-8.511,2.311
			c-0.947,0.14-2.627,0.841-2.279,2.687c0.064,0.341,0.08,0.95-0.46,0.867c-1.602-0.248-1.992,1.169-2.835,1.944
			c-1.383,1.271-3.24,1.238-4.866,1.833c-0.606,0.222-1.032-0.382-1.311-0.807c-1.074-1.639-1.988-3.41-0.975-5.366
			c1.808-3.486,1.125-7.495,2.455-11.074c0.179-0.481,0.036-1.086,0.021-1.633c-0.029-1.101-0.923-1.633-1.658-2.097
			c-0.857-0.541-1.395,0.341-1.916,0.886c-1.65,1.73-2.396,3.819-2.546,6.191c-0.076,1.186,0.022,2.311-0.494,3.578
			c-0.912,2.242-2.347,4.197-3.156,6.427c-0.332,0.914-1.207,1.971-1.414,1.899c-1.358-0.47-2.524-1.437-2.826-2.893
			c-0.156-0.748-0.556-1.705,1.009-2.299c2.887-1.097,3.823-4.447,2.798-7.647c-0.242-0.757-0.511-1.748,0.368-2.534
			c0.881-0.788,0.642-1.903,0.189-2.736c-0.549-1.008-1.618-0.738-2.577-0.517c-2.719,0.626-3.422,4.428-2.095,7.342
			c0.771,1.693-0.085,2.591-0.951,2.79c-1.516,0.349-3.378,0.869-4.485-1.211c-0.493-0.927-1.277-1.913-2.183-2.364
			c-1.955-0.974-3.031-2.048-2.048-4.371c0.303-0.715,0.228-1.79-0.94-1.958c-1.139-0.164-1.627,0.774-1.754,1.608
			c-0.199,1.302,0.017,2.665-0.163,3.972c-0.159,1.162,0.052,1.917,1.122,2.529c1.769,1.012,2.214,2.878,2.73,4.67
			c0.329,1.14,0.129,1.939-1.07,2.52c-1.888,0.916-3.697,1.997-5.528,3.027c-0.649,0.366-1.145,0.242-1.655-0.277
			c-1.533-1.56-2.346-3.562-1.393-5.45c1.779-3.523,0.15-7.604-3.158-9.922c-2.072-1.453-4.525-2.733-3.268-6.267
			c0.665-1.867-1.166-2.875-3.229-2.009c-1.985,0.834-3.784,4.266-3.217,6.323c1.203,4.373,4.249,7.453,7.479,10.423
			c-0.143,0.178-0.288,0.356-0.432,0.537c-2.145,2.69-4.357,5.278-2.458,9.159c0.762,1.557-1.029,1.983-1.958,2.167
			c-2.368,0.467-7.246-3.121-7.812-5.568c-0.377-1.631-1.407-2.824-2.756-3.539c-3.667-1.943-4.21-2.996-2.65-6.59
			c0.389-0.897,0.659-1.64-0.049-2.387c-0.762-0.803-1.682-0.543-2.573-0.209c-3.093,1.159-5.421,6.464-1.922,9.791
			c2.104,2,4.676,3.674,5.435,6.791c0.215,0.882,0.562,1.729,1.355,2.324c0.568,0.426,1.11,0.994,0.69,1.773
			c-0.52,0.965-1.692,0.939-2.289,0.583c-4.089-2.447-7.932-0.359-11.856,0.429c-1.658,0.333-3.16,0.881-2.593,2.938
			c0.404,1.468,1.879,1.431,3.135,1.392c2.021-0.063,3.959,0.006,5.767,1.175c1.255,0.811,2.896,1.134,4.223,0.604
			c1.634-0.652,2.112,0.051,2.873,1.219c0.965,1.484,1.675,3.079,3.382,4.175c2.849,1.831,6.122,2.064,9.166,3.073
			C161.868,111.983,164.075,112.576,166.032,114.119z M321.616,76.05c-1.129,1.815-1.493,3.229-1.431,4.792
			c0.018,0.425-0.374,1.011-0.913,1.439c-2.059,1.638-4.43,2.66-6.823,3.596c-1.257,0.492-2.695,0.14-2.92-1.402
			c-0.352-2.416-1.34-4.74-1.02-7.264c0.236-1.866-0.462-3.322-2.512-3.386c-2.361-0.073-4.527,2.072-3.978,3.985
			c0.492,1.707,0.166,3.393,0.435,5.051c0.358,2.216,0.655,4.449,1.656,6.537c1.776,3.703,3.72,7.358,3.063,11.756
			c-0.183,1.23-0.61,1.497-1.579,1.201c-2.251-0.689-3.777-2.148-4.597-4.399c-0.91-2.5-2.13-4.939-4.835-5.81
			c-3.562-1.146-6.901-2.656-10.038-4.683c-1.57-1.015-5.094-0.639-6.565,0.548c-0.883,0.712-0.883,1.944,0.042,1.985
			c2.955,0.132,4.361,2.399,6.263,3.972c3.162,2.616,6.437,5.025,7.382,9.559c0.375,1.793,2.03,4.007,4.517,3.508
			c2.51-0.504,5.068-0.009,7.548-0.789c1.142-0.359,3.047-0.419,3.44,0.615c0.995,2.61,3.362,3.509,5.292,4.818
			c1.588,1.076,1.704,2.217,1.382,3.706c-0.257,1.184-1.071,2.369-0.745,3.536c0.813,2.911,0.012,5.53-0.882,8.233
			c-0.395,1.19-0.402,2.616,1.618,2.509c0.419-0.022,1.008-0.179,1.065,0.535c0.044,0.534,0.124,1.081-0.392,1.506
			c-0.504,0.417-1.056,0.463-1.46,0.031c-2.388-2.545-2.349,0.021-2.809,1.344c-1.337,3.837-1.573,7.992-3.523,11.679
			c-0.565,1.069-0.89,2.455-0.71,3.798c0.214,1.584,1.382,2.269,2.754,1.571c2.69-1.37,4.31-3.65,5.731-6.265
			c1.549-2.85,1.787-6.024,2.662-9.02c1.812-6.195,5.321-11.214,9.594-15.836c0.952-1.03,1.726-2.306,1.725-3.571
			c-0.005-5.042,2.724-8.423,6.656-10.817c4.085-2.487,4.978-9.225,2.522-12.535c-1.688-2.276-1.979-4.146-0.025-6.662
			c2.074-2.671,2.364-5.924,0.365-9.064c-0.805-1.264,0.122-1.896,1.137-2.561c3.125-2.046,6.476-3.744,9.221-6.38
			c1.609-1.546,2.203-3.702,3.657-5.293c1.484-1.624,2.024-3.456,1.957-5.684c-0.049-1.624-0.963-3.484,0.74-4.951
			c0.493-0.426-0.233-1.025-0.458-1.408c-1.201-2.049-5.152-2.008-6.738,0c-0.743-0.978-0.877-2.759-2.572-2.544
			c-2.534,0.322-5.082,1.058-6.393,3.468c-1.35,2.485-4.868,4.248-2.969,7.963c0.031,0.06,0.02,0.165-0.011,0.231
			c-1.649,3.533-1.112,7.911-4.356,10.882c-0.641,0.586-1.211,2.328,0.997,2.308c0.398-0.004,1.077-0.199,0.948,0.581
			c-0.074,0.453-0.487,0.932-0.984,0.753c-1.216-0.438-1.943,0.098-2.17,1.154c-0.227,1.053-0.249,2.238,0.923,2.895
			c0.784,0.439,1.212,1.259,1.898,1.727c1.037,0.705,1.217,1.71,0.729,2.527c-0.613,1.027-2.441,2.546-2.621,2.287
			c-1.529-2.207-4.369-2.011-6.008-3.531c-0.945-0.878-1.556-2.643-1.614-4.36c-0.061-1.789-1.158-2.753-3.08-1.874
			c-0.301-1.042-0.135-1.931,0.356-2.756c1.173-1.968,1.616-4.068,1.412-6.362c-0.123-1.376-0.284-2.669-0.715-4.029
			c-0.514-1.622-1.316-3.19-1.271-5.07c0.053-2.216-1.621-2.918-3.46-1.677c-1.055,0.712-1.734,1.595-1.675,3.076
			c0.062,1.569,0.128,3.091,1.019,4.408c1.286,1.901,1.256,3.712-0.211,5.451c-1.658,1.966-1.923,4.267-1.683,6.68
			c0.297,2.979,2.061,3.847,4.637,2.347C320.472,76.463,320.771,76.386,321.616,76.05z M302.433,56.882
			c-2.943-0.001-4.522,1.131-4.188,3c0.324,1.811,2.817,4.228,4.727,4.501c1.928,0.276,2.864,1.326,3.254,3.257
			c0.431,2.135,0.938,4.291,2.702,5.911c0.826,0.757,1.688,0.862,2.562,0.627c0.937-0.252,0.788-1.199,0.797-1.982
			c0.018-1.605-0.193-3.208,0.752-4.726c0.354-0.567,0.427-1.729,0.076-2.244c-1.743-2.562,0.151-5.418-0.812-8.01
			c-0.181-0.485,0.178-1.002,0.631-1.129c1.489-0.415,1.265-1.583,1.208-2.634c-0.048-0.886,0.114-1.698,0.577-2.421
			c1.229-1.917,1.842-4.106,2.8-6.141c0.743-1.581,0.912-3.601,0.152-4.693c-1.439-2.073-0.464-3.599-0.019-5.473
			c0.353-1.486,2.066-2.042,2.096-3.437c0.09-4.285-0.994-8.24-4.058-11.406c-0.354-0.367-0.636-0.583-0.558-1.066
			c0.09-0.56,0.575-0.364,0.922-0.436c1.855-0.386,3.776-0.555,4.994-2.384c0.6-0.902,1.757-1.512,1.243-2.857
			c-0.515-1.351-1.911-0.89-2.88-1.295c-0.691-0.289-1.336,0.304-1.892,0.656c-1.573,0.997-3.297,0.903-4.946,0.601
			c-2.844-0.521-4.965,0.83-4.408,3.635c0.717,3.616,1.607,7.2,2.31,10.835c0.439,2.279,2.178,4.252,2.534,6.739
			c0.181,1.263,1.616,2.625,1.329,3.605c-0.368,1.258-2.391,0.816-3.622,1.43c-2.037,1.015-3.263,0.208-3.099-2.059
			c0.47-6.492-4.672-8.444-9.303-9.034c-0.694-0.088-1.328-0.006-1.915,0.569c-1.956,1.918-3.489,1.855-5.854,0.011
			c-1.17-0.913-2.215-1.137-3.206,0.49c-1.532,2.513-0.906,4.808,2.302,6.011c1.991,0.748,2.706,1.699,2.5,3.79
			c-0.197,2.002,1.777,3.937,3.764,4.156c1.35,0.149,1.905-0.166,1.895-1.718c-0.009-1.245-1.188-2.39-0.14-3.765
			c0.764-1.001,0.872-2.303,0.063-3.448c-0.766-1.084,0.577-1.326,0.756-1.253c1.364,0.56,3.053,0.873,3.011,2.928
			c-0.033,1.564-0.07,3.133,0.012,4.692c0.088,1.671,0.924,3.081,2.56,3.398c0.957,0.185,1.885,0.676,2.912,0.572
			c0.766-0.079,1.575,0.157,1.464,1.031c-0.104,0.807-0.637,1.365-1.747,1.347c-3.145-0.051-6.212,0.024-9.116-1.698
			c-1.578-0.936-3.19-0.079-4.041,1.589c-0.743,1.459,0.53,2.019,1.427,2.705c2.193,1.68,4.771,2.179,7.429,2.568
			c1.369,0.2,3.301-0.32,3.738,1.725c0.218,1.021,0.257,2.332-0.216,3.18c-0.461,0.827-1.446-0.51-2.31-0.266
			C303.239,56.968,302.824,56.883,302.433,56.882z M329.369,43.322c0.774,1.55,1.573,1.801,2.727,0.586
			c1.003-1.057,1.86-2.476,3.331-2.805c3.224-0.719,4.34-2.723,4.099-5.805c-0.035-0.451,0.025-0.944,0.178-1.369
			c1.793-4.981,1.299-10.279,2.149-15.39c0.113-0.682-0.137-1.24-0.81-1.521c-2.188-0.916-6.562,1.795-6.117,4.112
			c0.529,2.763,0.236,5.261-0.564,7.845c-0.818,2.644-1.165,5.473-3.053,7.672c-0.343,0.399-0.932,1.52-1.501,0.381
			c-0.961-1.925-2.801-3.571-2.472-5.966c0.302-2.199-1.067-2.113-2.375-1.824c-2.093,0.462-3.1,3.03-2.209,5.008
			c0.804,1.782,2.553,3.39,2.136,5.425c-0.818,4.002,0.138,8.076-1.082,12.153c-0.552,1.846-0.738,5.086,1.212,6.913
			c2.018,1.889,1.832,4.083,1.819,6.379c-0.005,0.938-0.032,1.879,0.012,2.816c0.047,0.987,0.952,1.378,1.575,1.895
			c0.161,0.134,1.147-0.282,1.28-0.627c1.377-3.579,4.912-6.683,2.45-11.157c-0.352-0.641-0.689-1.799,0.682-2.285
			c0.434-0.153,0.689-0.794,1.039-1.199c2.218-2.566,3.38-5.929,6.041-8.139c1.389-1.154,2.945-2.115,4.021-3.603
			c0.94-1.302,1.271-2.934,0.067-3.982c-1.131-0.985-2.653-0.598-3.758,0.644c-1.027,1.155-2.191,2.16-3.598,2.835
			c-4.253,2.043-6.809,5.268-7.115,10.083c-2.184-0.931-2.659-2.068-1.844-4.18C328.287,46.672,328.77,45.083,329.369,43.322z
			 M81.655,73.314c0.312,0,0.625,0.001,0.938,0c1.455-0.007,3.285,0.111,3.754-1.449c0.562-1.867,0.311-3.887-2.137-4.649
			c-0.859-0.267-0.747-0.766-0.78-1.667c-0.068-1.862-0.207-3.518,1.106-5.059c0.388-0.456-0.089-1.188-0.428-1.705
			c-0.668-1.021-0.579-1.622,0.591-2.351c1.356-0.845,2.741-1.97,1.844-4.015c-0.238-0.544,0.244-1.027,0.633-1.047
			c1.647-0.085,3.105-1.231,4.969-0.408c1.613,0.711,3.459,0.71,4.81-1.022c1.107-1.42,2.329-1.491,3.756-0.224
			c1.361,1.208,3.864,0.827,4.958-0.556c0.911-1.152,0.706-4.779-0.373-5.566c-0.474-0.346-1.22-0.845-1.606-0.69
			c-1.366,0.551-3.209,0.023-4.044,1.908c-0.486,1.095-1.677,0.907-2.688,0.689c-2.027-0.437-4.04-0.942-5.952,0.432
			c-0.486,0.349-0.963,0.099-1.457-0.268c-2.939-2.179-2.963-2.173-5.699,0.44c-1.148,1.097-1.971,1.541-3.371,0.006
			c-1.454-1.593-3.306-2.962-5.799-1.077c-0.695,0.524-1.69,1.481-3.116,0.949c-3.155-1.177-4.689-0.427-5.609,2.599
			c-0.33,1.084-0.447,2.241,0.597,3.229c0.988,0.937,1.912,1.007,3.142,0.547c2.268-0.849,4.497-2.066,7.052-1.563
			c1.435,0.283,2.822-0.132,4.234-0.105c0.391,0.007,0.839-0.712,1.177-0.11c0.276,0.491,0.026,1.041-0.459,1.438
			c-1.159,0.948-1.174,2.081-0.44,3.288c0.698,1.149-0.066,1.916-0.935,1.971c-2.868,0.179-2.436,2.191-2.201,3.891
			c0.101,0.727,0.281,1.141-0.274,1.783c-1.244,1.44-1.348,3.008,0.398,4.117c0.842,0.536,0.789,0.879,0.411,1.618
			C77.006,71.917,77.927,73.313,81.655,73.314z M298.197,81.015c-0.148-0.548-0.323-1.143-0.539-1.717
			c-1.325-3.519-4.4-5.521-6.663-8.195c-2.601-3.074-4.525-6.221-4.123-10.518c0.291-3.099-1.936-4.928-4.737-6.167
			c-3.253-1.439-6.121-0.018-9.146,0.172c-1.115,0.07-1.567,1.023-1.575,2.207c-0.011,1.564,1.13,1.046,1.803,0.989
			c2.488-0.208,4.624,0.588,6.678,1.896c1.765,1.125,2.233,2.686,1.696,4.561c-0.354,1.234-0.314,2.345,0.012,3.593
			c0.638,2.442,1.878,4.587,2.975,6.808c2.199,4.454,6.2,6.715,10.571,8.389C297.278,83.85,298.197,83.107,298.197,81.015z
			 M348.32,232.363c0.498-0.707,1.269-1.333,1.409-2.078c1.012-5.353,5.055-9.424,6.095-14.779c0.597-3.067,2.052-5.921,0.961-9.25
			c-0.708-2.164-1.27-4.631,1.351-6.308c0.938-0.602,1.731-1.641,0.748-2.708c-0.793-0.861-2.056-0.74-2.981-0.107
			c-1.381,0.944-2.81,1.816-4.066,2.972c-1.097,1.007-1.415,2.233-0.973,3.344c1.042,2.611,1.247,5.052,0.453,7.842
			c-1.63,5.73-2.81,11.588-4.312,17.358C346.587,230.247,346.576,231.456,348.32,232.363z M365.193,59.172
			c-4.86,0.49-7.932,1.689-7.427,6.785c0.135,1.362,0.111,2.731-0.593,4.233c-1.271,2.708-2.635,5.395-3.762,8.18
			c-0.285,0.707-0.442,1.329-0.045,1.971c0.399,0.645,1.109,0.58,1.7,0.452c4.118-0.895,7.769-5.412,8.479-9.515
			c0.479-2.771-0.617-6.209,2.731-8.125c0.909-0.52,1.854-1.422,1.325-2.686C367.067,59.185,365.859,59.067,365.193,59.172z
			 M295.008,53.947c-1.169-4.465-3.476-8.756-7.952-11.502c-1.237-0.759-2.783-0.999-4.111-1.822
			c-1.755-1.087-3.646-0.521-3.96,0.914c-0.304,1.384-0.319,2.686,0.886,3.909c1.279,1.298,2.924,1.892,4.378,2.818
			c3.3,2.1,3.897,6.088,6.399,8.737c0.737,0.78,0.984,2.115,2.368,1.963c1.398-0.153,1.248-1.438,1.619-2.41
			C294.907,55.845,294.816,55.19,295.008,53.947z M37.396,85.009c-2.939-1.571-5.225-0.458-6.581,3.208
			c-1.509-1.314-4.33-1.826-5.479-0.925c-1.789,1.401-1.421,3.209-0.841,5.027c0.431,1.35,1.772,1.382,2.712,1.405
			c2.157,0.052,4.079-1.963,4.485-4.451c0.846,1.112,2.151,1.085,3.208,1.648c1.148,0.611,4.787-1.485,4.395-2.451
			c-0.953-2.354,0.545-2.005,1.867-2.01c0.703-0.002,1.425,0.104,2.104-0.023c1.529-0.286,2.75-1.205,3.234-2.636
			c0.494-1.459-0.713-2.109-1.821-2.788C41.991,79.364,38.147,81.436,37.396,85.009z M41.196,47.492
			c1.594-0.031,3.401-2.032,3.479-3.851c0.079-1.868-1.371-3.449-3.368-3.657c-0.74-0.077-2.159,0.078-1.966-0.551
			c0.241-0.785,0.923-1.86,1.979-2.222c0.351-0.121,0.789,0.031,1.158-0.062c1.47-0.368,2.927-1.05,3.067-2.661
			c0.143-1.645-1.154-2.935-2.412-3.668c-1.222-0.712-2.635-0.31-3.441,1.197c-0.449,0.838-1.283,0.966-2.208,0.941
			c-1.433-0.038-3.109-0.237-3.572,1.64c-0.694,2.817-0.045,4.72,2.008,5.688c1.015,0.479,1.058,0.921,0.795,1.849
			C35.964,44.787,38.311,47.547,41.196,47.492z M76.463,28.777c1.806-0.206,2.487-1.458,3.472-2.376
			c0.543-0.507,0.543-1.228,0.356-1.384c-0.932-0.781-1.179-2.267-2.737-2.438c-1.667-0.182-2.793,0.467-3.805,1.695
			c-1.021,1.24-0.105,2.284,0.434,3.097c1.02,1.541,0.219,1.733-1.002,1.802c-1.409,0.081-2.686,0.559-3.09,1.945
			c-0.429,1.471,0.302,2.892,1.552,3.582c1.73,0.955,0.994,1.584,0.054,2.449c-0.959,0.883-1.526,1.909-0.592,3.157
			c1.098,1.466,3.784,2.122,4.951,1.059c1.366-1.244,1.395-2.833,0.229-4.222c-0.841-1.002-0.331-1.489,0.467-1.833
			C79.895,33.955,80.208,31.427,76.463,28.777z M354.534,97.229c-0.225-0.955,0.26-2.053-0.548-3.197
			c-2.021-2.861-3.833-5.846-4.247-9.497c-0.095-0.837-0.979-1.749-2.161-1.832c-1.039-0.074-1.623,0.577-1.927,1.388
			c-2.413,6.456,0.402,12.982,6.778,16.062c1.461,0.706,1.999,0.324,2.099-1.14C354.565,98.469,354.534,97.919,354.534,97.229z
			 M61.999,90.686c-1.749,0.033-3.815-0.441-3.713,2.439c0.071,2.002,1.097,2.886,3.925,2.685c3.814-0.272,7.544-1.538,11.443-0.913
			c1.568,0.252,2.602-0.7,2.882-2.058c0.319-1.546-0.46-2.527-2.049-3.263c-1.399-0.648-2.621,0.119-3.934-0.225
			c-1.5-0.393-2.957-0.125-3.509,1.713c-0.234,0.78-0.797,1.129-1.378,0.498C64.598,90.401,63.272,90.746,61.999,90.686z
			 M348.006,174.645c0.194-1.78-0.696-2.74-2.314-3.23c-0.552-0.168-1.506-0.396-1.409-0.907c0.425-2.25-1.316-3.893-1.474-5.933
			c-0.297-3.854-1.599-4.694-5.174-3.243c-1.997,0.811-2.467,2.256-1.389,4.034c0.721,1.188,0.864,3.671,3.383,2.01
			c0.662-0.438,1.047,0.143,1.221,0.631c0.991,2.782,1.981,5.567,2.857,8.387c0.338,1.089,0.28,2.378,1.797,2.541
			c1.781,0.192,1.611-1.584,2.284-2.471C348.107,176.043,347.949,175.262,348.006,174.645z M62.046,71.642
			c0.002,3.095,1.881,5.163,3.428,4.377c1.228-0.624,2.625-1.548,2.623-3.128c-0.003-2.114,0.968-4.749-1.472-6.049
			c-1.455-0.775-0.839-1.268-0.237-1.811c1.441-1.298,0.863-2.954,0.703-4.384c-0.099-0.879-0.945-1.934-1.939-2.303
			c-0.992-0.369-2.054,0.083-2.748,0.814c-1.971,2.075-0.783,5.57,2.04,6.171c0.358,0.076,0.831-0.063,0.863,0.511
			c0.02,0.368,0.029,0.659-0.449,0.909C62.584,67.942,62.202,70.131,62.046,71.642z M43.266,56.287
			c0.007,1.639,1.234,2.953,2.418,2.941c1.971-0.02,4.091-1.712,3.588-3.314c-0.675-2.146,0.411-2.079,1.851-2.544
			c1.395-0.45,2.803-1.417,2.92-3.188c0.117-1.762-1.061-2.663-2.446-3.523c-1.933-1.201-3.278,0.279-4.811,0.822
			c-1.89,0.67-2.248,2.014-1.079,3.596c0.915,1.237,0.705,1.909-0.659,2.568C43.88,54.208,43.332,55.325,43.266,56.287z
			 M73.059,69.557c-2.603,0.027-5.572,4.097-4.302,6.22c1.31,2.19,3.117,4.148,4.981,5.918c1.299,1.233,3.018,0.559,4.068-0.59
			c0.859-0.94,1.351-2.454,0.015-3.488c-1.853-1.435-2.365-3.186-2.224-5.459C75.69,70.651,74.935,69.34,73.059,69.557z
			 M48.901,28.65c0,0.391-0.027,0.785,0.005,1.173c0.123,1.48,0.306,3.043,1.978,3.537c1.638,0.484,2.984-0.139,3.634-1.808
			c0.467-1.198,1.661-1.436,2.574-1.726C59.06,29.202,59.96,28,59.543,26.09c-0.426-1.948-2.865-3.069-4.828-2.421
			c-0.492,0.162-0.924,0.661-1.403,0.688C49.65,24.571,48.903,25.266,48.901,28.65z M83.863,93.506
			c-1.677-0.151-3.063,0.82-4.517,1.35c-1.812,0.661-1.741,1.897-0.284,3.266c0.688,0.647,1.414,0.506,2.161,0.551
			c0.672,0.04,0.664,0.667,0.744,1.018c0.133,0.583-0.463,0.338-0.748,0.373c-0.964,0.119-1.831,0.487-2.03,1.477
			c-0.225,1.121,0.809,1.462,1.579,1.784c0.623,0.261,0.921,0.817,1.426,1.157c1.614,1.089,3.292,0.766,4.531-0.407
			c0.934-0.886,1.285-2.565,0.269-3.562c-1.141-1.12-0.915-2.083-0.524-3.276C87.206,94.986,86.152,93.497,83.863,93.506z
			 M93.126,34.823c1.647,3.185,5.139,3.737,7.256,1.338c1.201-1.361,0.748-3.798-0.828-4.455c-1.626-0.677-5.093-0.043-5.84,1.47
			c-0.648,1.313-0.834,1.363-2.063,0.614c-1.418-0.864-3.123-0.622-4.597,0.262c-0.938,0.562-0.734,1.57-0.493,2.324
			c0.396,1.238,0.948,2.747,2.601,2.474C92,38.381,93.027,38.157,93.126,34.823z M102.891,66.919
			c-0.035-2.146-1.924-3.779-4.209-3.424c-1.213,0.188-2.26,0.114-3.421-0.31c-1.958-0.715-4.48,0.747-4.573,2.474
			c-0.141,2.62,3.076,5.194,5.462,4.178c1.271-0.541,2.281-0.753,3.665-0.351C101.771,70.054,102.924,68.932,102.891,66.919z
			 M49.2,104.383c1.779,2.493,5.83,3.447,7.855,2.206c1.472-0.901,1.724-2.628,0.536-3.682c-1.519-1.348-5.932-1.342-7.572,0.047
			c-0.667,0.565-1.346,0.625-1.802-0.08c-1.129-1.747-2.844-1-4.136-0.739c-0.962,0.195-1.44,1.663-1.356,2.854
			c0.083,1.178,0.625,1.917,1.96,2.163C46.9,107.562,48.584,107.242,49.2,104.383z M5.708,114.026c0.03,2.19,2.16,4.436,4.132,4.357
			c2.011-0.08,5.867-3.484,5.717-5.048c-0.09-0.946-4.157-3.866-5.392-3.871C7.838,109.454,5.676,111.667,5.708,114.026z
			 M339.57,137.823c0.396,0.886,0.261,2.233,0.615,3.465c0.18,0.626,0.443,1.674,1.479,1.481c1.54-0.285,1.928,0.921,1.97,1.804
			c0.06,1.249,0.977,0.998,1.554,1.256c0.626,0.279,0.978-0.434,1.184-0.804c0.334-0.601,0.41-1.372-0.233-1.915
			c-0.46-0.389-0.969-0.73-1.489-1.036c-0.575-0.339-1.521-0.097-1.429-1.341c0.073-1.002,0.189-1.77,1.234-2.115
			c1.651-0.545,2.277-2.025,2.82-3.416c0.65-1.667-0.562-2.645-1.907-3.047c-0.987-0.296-2.761-0.781-2.909,0.785
			c-0.162,1.718-0.847,2.43-2.289,2.93C339.51,136.098,339.434,136.812,339.57,137.823z M58.447,88.329
			c1.555,0.095,4.98-3.408,5.006-5.12c0.024-1.639-2.003-3.636-3.837-3.781c-1.59-0.125-4.831,2.762-5.045,4.494
			C54.432,85.044,57.258,88.256,58.447,88.329z M18.86,110.172c0,0.625-0.14,1.292,0.03,1.867c0.32,1.082,0.902,2.206,2.281,1.398
			c1.635-0.957,3.168-2.1,4.682-3.247c1.457-1.103,1.35-2.307,0.48-3.912c-1-1.843-2.333-1.98-3.925-1.407
			C20.144,105.688,18.854,107.745,18.86,110.172z M58.735,71.133c0.365-0.701-0.292-1.419-0.434-2.235
			c-0.244-1.399-1.951-2.197-2.386-1.99c-1.375,0.655-3.371,0.292-4.125,2.053c-0.665,1.552,0.676,5.675,2.089,6.732
			c0.918,0.688,1.863,0.745,2.724-0.023C57.885,74.525,58.98,73.251,58.735,71.133z M63.444,56.357
			c0.043-1.248-2.312-3.26-4.22-3.686c-1.744-0.388-4.094,0.896-4.692,2.519c-0.688,1.866,0.47,2.939,1.643,4.036
			c0.617,0.577,1.092,1.328,2.16,0.705c1.233-0.721,2.513-1.386,3.834-1.925C63.019,57.657,63.13,56.932,63.444,56.357z
			 M112.68,64.646c0.567-2.321-0.806-3.509-2.767-4.259c-1.71-0.654-3.019,0.358-4.052,1.415c-1.092,1.118-0.591,2.418,0.451,3.407
			c0.742,0.704,1.257,1.527,1.749,2.405c1.176,2.101,2.362,2.078,3.769,0.049C112.46,66.755,113.02,65.876,112.68,64.646z
			 M49.371,17.33c-0.044,1.904,1.619,3.931,3.169,3.862c1.678-0.074,4.216-3.134,4.341-5.232c0.097-1.624-1.193-3.201-2.62-3.203
			C51.881,12.752,49.423,15.051,49.371,17.33z M95.104,22.61c-2.495,0.033-3.508,1.261-3.479,4.219
			c0.022,2.307,0.988,3.2,3.448,3.192c2.15-0.007,4.093-2.009,4.063-4.188C99.105,23.537,97.9,22.574,95.104,22.61z M39.407,97.727
			c-2.734,0.058-4.644,1.976-4.591,4.61c0.038,1.846,1.341,2.971,3.361,2.9c1.807-0.063,4.487-2.735,4.527-4.512
			C42.742,99.074,41.219,97.69,39.407,97.727z M108.53,53.272c0.005-1.317-0.657-2.264-1.913-2.442
			c-1.782-0.254-3.676-0.324-4.612,1.707c-0.349,0.757-0.761,1.148-1.552,1.05c-1.105-0.138-2.133,0.478-2.114,1.314
			c0.02,0.864,0.673,1.811,1.961,2.089c1.692,0.366,6.988-1.082,7.941-2.387C108.563,54.163,108.479,53.728,108.53,53.272z
			 M101.885,101.01c1.207-0.166,2.673-0.249,4.073-0.601c1.062-0.267,1.76-1.266,2.021-2.238c0.243-0.902-0.562-1.495-1.293-2.131
			c-2.265-1.971-4.255-0.364-6.254,0.344c-1.169,0.414-2.727,1.072-2.16,2.761C98.754,100.582,100.143,101.07,101.885,101.01z
			 M114.578,80.112c0.265-1.24-0.295-1.822-1.319-2.373c-1.55-0.833-2.968-0.619-4.585-0.267c-1.489,0.324-2.507,1.284-2.818,2.375
			c-0.293,1.028,0.915,2.059,1.846,2.688c1.764,1.193,3.696,0.749,5.429-0.069C113.96,82.075,115.21,81.507,114.578,80.112z
			 M82.235,29.128c-0.194,1.957,1.2,2.681,2.662,2.805c2.3,0.193,5.197-1.766,5.139-3.139c-0.066-1.563-2.303-3.748-3.925-3.835
			C84.284,24.861,82.26,27.039,82.235,29.128z M62.006,47.493c2.219,0.024,3.782-1.503,3.796-3.712
			c0.013-1.979-1.142-2.887-4.331-2.784c-1.46,0.047-3.008,0.746-3.164,2.638C58.164,45.377,60.229,47.473,62.006,47.493z
			 M50.779,37.948c0.021,2.009,2.249,3.911,4.501,3.919c2.406,0.009,2.017-1.962,2.248-3.308c0.224-1.301-2.507-4.263-3.581-4.184
			C52.283,34.498,50.761,36.214,50.779,37.948z M20.716,98.519c-0.023,2.637,1.354,3.3,2.842,3.385
			c3.047,0.172,4.537-1.195,4.517-3.787c-0.009-1.206-2.004-2.781-3.466-2.737C22.752,95.438,20.692,97.484,20.716,98.519z
			 M49.234,96.777c2.851,0.213,4.25-1.29,4.246-3.718c-0.001-1.236,0.149-3.445-2.359-3.32c-1.572,0.078-4.625,3.179-4.521,4.881
			C46.699,96.217,47.6,97.163,49.234,96.777z M84.582,19.755c0.378-1.344-0.38-2.548-1.603-3.067
			c-1.451-0.617-2.988-0.092-4.304,0.812c-0.909,0.625-1.396,1.496-1.108,2.59c0.267,1.013,1.017,1.681,1.999,2.031
			c0.351,0.125,0.787,0.035,1.121,0.184C83.725,23.659,84.59,23.145,84.582,19.755z M87.398,80.547
			c0.001-2.603-1.376-3.958-3.818-3.947c-2.076,0.01-3.287,1.019-3.224,2.688c0.063,1.664,2.657,3.917,4.625,3.858
			C86.692,83.096,87.736,82.275,87.398,80.547z M35.074,76.601c-2.559-0.004-4.425,1.141-4.48,2.749
			c-0.053,1.568,1.712,3.297,3.424,3.354c2.239,0.075,4.075-1.563,4.094-3.579C38.132,76.998,36.894,76.469,35.074,76.601z
			 M100.808,84.582c1.235-0.197,3.305,0.47,3.478-2.129c0.079-1.185-3.107-4.431-4.235-4.416c-1.128,0.015-3.287,2.374-3.254,3.554
			C96.853,83.643,98.009,84.58,100.808,84.582z M64.557,106.66c1.273-0.3,2.729-0.712,3.441-2.083
			c0.532-1.026,0.136-2.073-0.732-2.919c-0.98-0.955-1.963-1.358-3.322-0.696c-0.721,0.352-1.603,0.417-2.423,0.51
			c-1.871,0.21-1.641,1.71-1.182,2.59C61.125,105.566,62.594,106.481,64.557,106.66z M94.91,18.5
			c0.044-1.701-1.509-3.292-3.322-3.401c-1.921-0.116-4.154,1.363-4.188,2.774c-0.029,1.209,2.77,3.73,4.18,3.768
			C93.141,21.682,94.87,20.05,94.91,18.5z M26.485,78.479c-2.579-0.004-3.885,1.022-3.874,3.047c0.008,1.625,2.021,3.099,4.25,3.048
			c2.014-0.046,2.819-1.189,2.803-3.132C29.642,78.785,29.357,78.483,26.485,78.479z M73.784,15.356
			c0.006-2.014-1.01-3.1-2.877-3.075c-1.866,0.025-4.071,1.937-4.163,3.609c-0.069,1.258,1.847,2.971,3.313,2.961
			C72.185,18.838,73.778,17.343,73.784,15.356z M94.451,92.005c-0.006-1.886-0.954-2.772-2.847-2.735
			c-2.063,0.041-4.745,1.833-4.664,3.164c0.092,1.531,2.203,3.042,4.101,2.934C92.897,95.263,94.466,93.715,94.451,92.005z
			 M22.208,78.01c1.75,0.057,3.263-0.472,3.638-2.328c0.29-1.435-2.119-4.274-3.318-4.246c-1.487,0.035-3.82,2.573-3.636,4.208
			C19.103,77.519,20.428,78.162,22.208,78.01z M65.845,39.981c1.897-0.016,4.15-1.283,4.18-2.35c0.045-1.608-2.33-3.805-4.051-3.747
			c-1.404,0.048-3.484,1.937-3.45,3.134C62.577,38.871,63.84,39.998,65.845,39.981z M95.849,55.052
			c0.202-1.325-0.332-2.062-1.917-1.946c-0.751,0.055-1.542-0.257-2.273-0.14c-1.372,0.221-3.209-0.33-3.747,1.636
			c-0.358,1.309,2.016,3.529,3.763,3.674C93.462,58.426,95.857,56.658,95.849,55.052z M73.935,102.387
			c1.772,0.307,3.178-0.294,3.549-2.079c0.324-1.556-1.126-2.402-2.205-2.926c-1.139-0.553-2.479-0.105-3.784,0.281
			c-2.216,0.656-2.504,1.121-1.167,3.001C71.227,101.926,72.317,102.695,73.935,102.387z M37.179,49.348
			c-0.005-1.988-1.431-2.806-3.002-3.205c-1.244-0.315-3.06,2.084-3.115,3.842c-0.054,1.688,1.462,3.202,3.144,3.141
			C35.735,53.07,37.17,51.245,37.179,49.348z M25.812,66.741c1.935,0.037,2.836-0.788,2.901-2.652
			c0.055-1.563-1.91-4.364-3.074-4.385c-1.253-0.022-3.019,2.025-3.028,3.513C22.598,65.013,24.139,66.709,25.812,66.741z
			 M66.286,20.872c-0.058-1.125-1.272-2.052-2.729-2.281c-1.84-0.289-3.855,1.637-3.857,3.31c-0.002,1.69,1.443,3.045,3.259,3.057
			C64.651,24.967,66.231,23.328,66.286,20.872z M93.356,104.77c2.113,0,3.392-0.903,3.416-2.427
			c0.021-1.352-0.332-2.768-1.876-2.906c-2.892-0.258-4.915,0.812-5.15,2.368c-0.14,0.933,0.131,1.705,0.92,2.229
			C91.515,104.6,92.439,104.96,93.356,104.77z M45.625,24.988c-0.054-1.767-1.855-3.449-3.254-3.308
			c-2.043,0.206-2.468,1.923-2.795,3.434c-0.302,1.396,1.9,3.393,3.349,3.092C44.748,27.827,45.378,26.336,45.625,24.988z
			 M94.903,81.566c0.154-1.926-0.456-3.493-2.444-3.476c-1.739,0.015-2.883,1.093-2.746,3.184c0.144,2.195,0.991,3.28,2.878,3.317
			C94.869,84.638,95.014,83.167,94.903,81.566z M27.305,42.036c-0.002,2.732,0.251,3.088,2.077,3.108
			c1.609,0.018,3.051-1.495,3.085-3.238c0.028-1.433-1.713-3.538-2.903-3.3C27.63,38.994,27.046,40.393,27.305,42.036z
			 M86.001,38.685c-0.016-1.996-0.894-3.044-2.5-3.363c-1.035-0.206-4.015,1.957-4.027,2.771c-0.01,0.708,2.972,2.854,4.053,2.808
			C85.085,40.833,85.731,39.772,86.001,38.685z M51.917,81.765c2.38,0.004,4.157-1.039,4.009-2.434
			c-0.27-2.539-2.616-1.867-3.994-2.133c-1.726-0.333-2.479,1.183-2.569,2.88C49.255,82.136,50.721,81.728,51.917,81.765z
			 M341.516,173.366c-0.684-1.199-1.333-2.453-2.094-3.637c-0.592-0.92-1.385-0.745-2.181-0.185
			c-0.745,0.523-0.935,1.328-0.632,2.022c0.506,1.16,1.168,2.278,1.934,3.286c0.328,0.433,0.952,0.798,1.737,0.425
			C341.114,174.882,341.122,174.136,341.516,173.366z M342.154,181.301c0.731-0.001,1.281-0.634,1.514-1.325
			c0.315-0.936-2.482-3.749-3.61-3.856c-1.137-0.109-1.476,0.695-1.719,1.478C338.083,178.416,340.895,181.193,342.154,181.301z
			 M199.669,114.896c-0.36-0.968-0.908-1.898-1.937-1.617c-1.209,0.331-2.774,0.623-2.796,2.387
			c-0.013,1.052,0.787,1.964,1.703,1.688C197.856,116.987,199.14,116.313,199.669,114.896z M345.665,184.564
			c0.802-0.185,2.156-0.193,2.249-1.671c0.074-1.177-0.978-1.095-1.842-1.141c-1.256-0.068-2.16,0.426-2.29,1.675
			C343.678,184.427,344.519,184.627,345.665,184.564z M124.485,230.166c0.02-0.762-0.318-1.199-0.997-1.245
			c-0.703-0.048-0.867,0.443-0.862,0.989c0.007,0.729,0.444,1.085,1.155,1.145C124.472,231.113,124.495,230.655,124.485,230.166z
			 M11.222,80.688c0.162-0.19,0.31-0.364,0.457-0.538c-0.173-0.078-0.346-0.156-0.519-0.234c-0.083,0.19-0.182,0.376-0.235,0.574
			C10.916,80.525,11.101,80.61,11.222,80.688z"/>
		<path style="fill-rule:evenodd;clip-rule:evenodd;fill:#7B491E;" d="M166.032,114.119c-1.958-1.542-4.165-2.135-6.377-2.869
			c-3.044-1.008-6.317-1.242-9.166-3.073c-1.707-1.096-2.417-2.69-3.382-4.175c-0.761-1.168-1.238-1.872-2.873-1.219
			c-1.327,0.53-2.968,0.208-4.223-0.604c-1.808-1.169-3.746-1.238-5.767-1.175c-1.255,0.039-2.73,0.076-3.135-1.392
			c-0.566-2.058,0.935-2.605,2.593-2.938c3.924-0.789,7.767-2.876,11.856-0.429c0.596,0.356,1.769,0.382,2.289-0.583
			c0.42-0.779-0.123-1.348-0.69-1.773c-0.793-0.595-1.14-1.442-1.355-2.324c-0.759-3.117-3.331-4.791-5.435-6.791
			c-3.499-3.327-1.171-8.632,1.922-9.791c0.892-0.334,1.812-0.594,2.573,0.209c0.708,0.747,0.438,1.49,0.049,2.387
			c-1.561,3.594-1.017,4.647,2.65,6.59c1.349,0.715,2.378,1.908,2.756,3.539c0.567,2.447,5.445,6.035,7.812,5.568
			c0.929-0.184,2.72-0.61,1.958-2.167c-1.899-3.88,0.313-6.468,2.458-9.159c0.144-0.18,0.289-0.359,0.432-0.537
			c-3.23-2.97-6.275-6.05-7.479-10.423c-0.567-2.058,1.232-5.489,3.217-6.323c2.063-0.867,3.894,0.142,3.229,2.009
			c-1.258,3.534,1.196,4.814,3.268,6.267c3.308,2.318,4.937,6.398,3.158,9.922c-0.954,1.888-0.141,3.89,1.393,5.45
			c0.51,0.519,1.006,0.643,1.655,0.277c1.831-1.031,3.64-2.112,5.528-3.027c1.199-0.581,1.398-1.38,1.07-2.52
			c-0.517-1.792-0.961-3.658-2.73-4.67c-1.07-0.612-1.281-1.368-1.122-2.529c0.18-1.307-0.036-2.67,0.163-3.972
			c0.127-0.834,0.616-1.772,1.754-1.608c1.168,0.168,1.243,1.243,0.94,1.958c-0.982,2.323,0.094,3.396,2.048,4.371
			c0.905,0.451,1.689,1.437,2.183,2.364c1.107,2.081,2.969,1.56,4.485,1.211c0.866-0.199,1.722-1.097,0.951-2.79
			c-1.328-2.914-0.625-6.716,2.095-7.342c0.959-0.221,2.028-0.491,2.577,0.517c0.453,0.833,0.692,1.948-0.189,2.736
			c-0.879,0.787-0.61,1.777-0.368,2.534c1.024,3.201,0.088,6.551-2.798,7.647c-1.565,0.595-1.165,1.551-1.009,2.299
			c0.302,1.456,1.468,2.423,2.826,2.893c0.208,0.072,1.083-0.985,1.414-1.899c0.809-2.23,2.244-4.185,3.156-6.427
			c0.516-1.268,0.417-2.393,0.494-3.578c0.15-2.372,0.896-4.461,2.546-6.191c0.521-0.545,1.059-1.427,1.916-0.886
			c0.735,0.464,1.629,0.996,1.658,2.097c0.014,0.547,0.157,1.152-0.021,1.633c-1.33,3.579-0.647,7.588-2.455,11.074
			c-1.014,1.956-0.099,3.727,0.975,5.366c0.279,0.425,0.704,1.028,1.311,0.807c1.626-0.595,3.483-0.563,4.866-1.833
			c0.843-0.775,1.233-2.192,2.835-1.944c0.54,0.083,0.524-0.525,0.46-0.867c-0.348-1.846,1.332-2.547,2.279-2.687
			c2.942-0.433,5.466-2.246,8.511-2.311c0.741-0.016,1.332-0.229,1.766,0.457c0.561,0.891-0.479,1.063-0.723,1.585
			c-0.275,0.592-0.822,0.39-1.056,0.634c-0.72,0.752-3.279,0.942-0.747,2.867c1.21,0.92,0.555,2.898-0.105,4.19
			c-0.403,0.79-1.514,0.641-2.189-0.132c-0.346-0.395-0.616-0.862-0.879-1.321c-0.771-1.347-1.432-1.897-2.173,0.06
			c-0.712,1.882-2.219,3.323-3.784,4.313c-3.011,1.906-5.189,4.292-6.562,7.575c-1.106,2.644-3.671,4.033-5.7,5.854
			c-0.805,0.724-1.296,1.338-1.334,2.491c-0.093,2.775-2.379,4.328-3.857,6.315c-0.646,0.87-1.529,1.562-2.289,2.349
			c-0.483,0.5-0.632,1.004,0.011,1.53c0.931,0.763,1.078-0.188,1.357-0.648c0.599-0.989,1.189-2.476,2.532-1.328
			c2.427,2.074,4.015,0.189,5.818-0.868c0.654-0.383,1.239-0.885,1.844-1.347c0.992-0.758,2.202-0.918,2.832,0.118
			c0.566,0.933,0.627,2.289-0.493,3.164c-1.141,0.89-2.399,1.604-3.537,2.521c-0.972,0.783-2.35,0.855-2.427,2.691
			c-0.049,1.167-1.694,1.223-2.66,1.274c-1.35,0.072-2.701,0.176-4.123-0.302c-2.564-0.86-6.162,1.294-6.557,4.027
			c-0.186,1.287-1.646,2.975-0.046,4.054c1.465,0.987,1.74-1.177,2.748-1.681c1.507-0.753,2.712-1.132,4.107,0.181
			c1.249,1.174,2.413,0.895,3.382-0.552c0.745-1.111,1.653-1.812,3.193-2.012c1.739-0.226,3.076-1.57,4.198-3.022
			c-1.287-0.655-2.64,2.626-3.582-0.108c-0.436-1.265-0.273-2.603,1.78-2.946c2.325-0.39,1.67,1.339,2.12,2.585
			c0.942-0.653,1.754-1.322,2.661-1.816c1.098-0.598,2.104-1.888,3.58-0.351c0.428,0.445,1.645,0.402,2.315-0.424
			c1.084-1.335,2.658-1.193,3.816-0.587c1.64,0.858,2.383,2.705,2.33,4.47c-0.035,1.188-1.209,2.08-2.516,1.271
			c-0.854-0.527-1.925-0.635-2.411-0.288c-1.713,1.223-3.563,0.807-5.373,0.825c-0.872,0.009-1.493,0.268-1.989,0.94
			c-1.48,2.011-3.297,3.629-5.617,4.602c-2.018,0.848-3.123,2.869-5.125,3.788c-1.91,0.876-3.717,1.282-5.545,0.064
			c-1.406-0.937-2.333-0.093-3.212,0.749c-0.852,0.815-0.601,1.748-0.119,2.75c0.714,1.482,1.155,3.042,0.679,4.748
			c-0.183,0.655-0.472,1.976,0.776,1.56c2.227-0.744,3.949,0.389,5.792,1.04c4.271,1.51,8.504,3.129,12.736,4.747
			c0.753,0.288,1.094,1.05,0.938,1.801c-0.132,0.638-0.417,1.261-1.297,1.421c-3.68,0.674-7.305,0.346-10.899-0.508
			c-0.64-0.152-1.248-0.543-1.805-0.921c-2.292-1.554-4.042-3.9-7.327-3.883c-1.418,0.008-2.059-2.036-3.212-3.025
			c-1.619-1.388-3.112-1.827-4.962-0.962c-0.523,0.244-1.05,0.234-1.533,0.405c-0.545,0.193-1.146-0.864-1.48,0.041
			c-0.258,0.697,0.358,1.056,0.802,1.603c2.02,2.484,4.917,1.435,7.354,1.96c2.097,0.451,3.43,1.601,4.706,2.998
			c0.521,0.571,0.446,1.561,0.013,2.201c-0.395,0.583-1.016,0.962-1.935,0.644c-2.309-0.8-4.738-0.484-7.124-0.585
			c-1.786-0.075-3.258-0.93-4.734-1.955c-3.358-2.332-4.758-6.034-6.831-9.264c-0.889-1.386-1.854-2.465-3.497-3.091
			c-2.458-0.937-4.04-2.58-4.414-5.535c-0.268-2.115-1.389-4.168-4.105-4.611c-1.502-0.245-2.753-1.329-3.859-2.332
			c-2.227-2.019-4.414-4.11-6.374-6.383c-0.97-1.124,0.133-3.986,1.453-4.869c1.121-0.749,2.262-0.687,2.772,0.455
			c0.762,1.708,2.318,2.083,3.694,2.295c1.995,0.308,3.423,1.053,4.378,2.82c0.25,0.462,0.743,0.795,1.133,1.178
			c0.46,0.454,0.959,0.423,1.481,0.104c0.759-0.464,0.134-1.029-0.046-1.341c-1.104-1.904-1.925-4.104-5.034-3.206
			c-1.748,0.505-2.337-1.144-2.381-2.543c-0.063-2.063,0.478-4.058,1.236-5.99c0.316-0.805,0.706-1.362,1.669-1.252
			c1.149,0.13,1.158,1.081,1.262,1.861c0.379,2.869,1.804,3.645,4.595,2.368C161.94,114.708,163.744,113.575,166.032,114.119z
			 M180.582,89.415c-2.053,0.978-3.715,3.91-2.955,6.525c0.87,2.991,1.111,5.762-0.036,8.694c-0.316,0.81-0.264,2.059,1.37,1.317
			c1.781-0.809,3.01,1.174,4.707,1.007c0.304-0.03,0.495,0.572,0.437,0.98c-0.316,2.206,1.169,4.033,1.069,6.301
			c4.166-3.127,4.16-6.445,0.153-9.03c-2.096-1.352-3.31-3.051-3.125-5.717C182.44,96.033,182.158,92.6,180.582,89.415z
			 M171.389,131.091c0.612-1.533-0.649-2.712-0.979-4.108c-0.796-3.368-2.906-5.989-5.728-7.987
			c-0.271-0.191-0.781-0.672-1.115-0.272c-0.253,0.304,0.171,0.735,0.314,1.105c1.04,2.685,3.262,4.988,3.249,7.962
			c-0.011,2.36,0.319,4.037,2.933,4.477c0.454,0.076,0.892,0.763,1.305,0.305C171.632,132.278,172,131.665,171.389,131.091z
			 M178.367,122.124c-1.583,0.195-0.731,1.531-0.772,2.311c-0.051,0.962-0.626,2.626,0.81,2.718
			c1.631,0.104,1.618-1.955,2.165-3.042C180.819,123.615,179.844,122.161,178.367,122.124z M174.25,144.637
			c0.027-0.853,0.024-1.765-1.014-1.759c-0.669,0.005-0.989,0.724-0.841,1.401c0.165,0.757,0.091,1.84,1.286,1.765
			C174.683,145.982,174.064,145.077,174.25,144.637z"/>
		<path style="fill-rule:evenodd;clip-rule:evenodd;fill:#7B491E;" d="M321.616,76.05c-0.845,0.335-1.144,0.413-1.4,0.562
			c-2.576,1.5-4.34,0.632-4.637-2.347c-0.24-2.414,0.024-4.714,1.683-6.68c1.467-1.739,1.497-3.55,0.211-5.451
			c-0.891-1.316-0.956-2.838-1.019-4.408c-0.06-1.481,0.62-2.364,1.675-3.076c1.839-1.241,3.513-0.539,3.46,1.677
			c-0.045,1.88,0.758,3.448,1.271,5.07c0.431,1.36,0.592,2.653,0.715,4.029c0.204,2.294-0.239,4.394-1.412,6.362
			c-0.491,0.825-0.657,1.713-0.356,2.756c1.922-0.879,3.02,0.085,3.08,1.874c0.059,1.718,0.669,3.482,1.614,4.36
			c1.639,1.521,4.479,1.325,6.008,3.531c0.18,0.259,2.008-1.26,2.621-2.287c0.487-0.816,0.308-1.822-0.729-2.527
			c-0.687-0.467-1.114-1.288-1.898-1.727c-1.172-0.657-1.149-1.842-0.923-2.895c0.227-1.056,0.954-1.593,2.17-1.154
			c0.497,0.179,0.91-0.301,0.984-0.753c0.129-0.779-0.55-0.584-0.948-0.581c-2.208,0.02-1.638-1.722-0.997-2.308
			c3.244-2.971,2.707-7.349,4.356-10.882c0.03-0.066,0.042-0.171,0.011-0.231c-1.899-3.715,1.619-5.478,2.969-7.963
			c1.311-2.411,3.858-3.146,6.393-3.468c1.695-0.215,1.829,1.567,2.571,2.544c1.587-2.007,5.538-2.048,6.739,0
			c0.225,0.383,0.951,0.982,0.458,1.408c-1.703,1.467-0.789,3.327-0.74,4.951c0.067,2.228-0.473,4.061-1.957,5.684
			c-1.454,1.591-2.048,3.747-3.657,5.293c-2.745,2.636-6.096,4.334-9.221,6.38c-1.015,0.665-1.941,1.297-1.137,2.561
			c1.999,3.14,1.709,6.393-0.365,9.064c-1.954,2.516-1.663,4.385,0.025,6.662c2.455,3.311,1.562,10.048-2.522,12.535
			c-3.933,2.394-6.661,5.775-6.656,10.817c0.001,1.266-0.772,2.541-1.725,3.571c-4.272,4.622-7.782,9.641-9.594,15.836
			c-0.875,2.995-1.113,6.17-2.662,9.02c-1.422,2.614-3.041,4.895-5.731,6.265c-1.372,0.697-2.54,0.013-2.754-1.571
			c-0.18-1.343,0.145-2.729,0.71-3.798c1.95-3.687,2.187-7.842,3.523-11.679c0.46-1.322,0.421-3.889,2.809-1.344
			c0.404,0.432,0.956,0.386,1.46-0.031c0.516-0.425,0.436-0.972,0.392-1.506c-0.058-0.714-0.646-0.558-1.065-0.535
			c-2.021,0.107-2.013-1.318-1.618-2.509c0.894-2.703,1.695-5.322,0.882-8.233c-0.326-1.167,0.488-2.352,0.745-3.536
			c0.322-1.489,0.206-2.63-1.382-3.706c-1.93-1.309-4.297-2.208-5.292-4.818c-0.394-1.034-2.299-0.974-3.44-0.615
			c-2.479,0.78-5.038,0.285-7.548,0.789c-2.486,0.5-4.142-1.714-4.517-3.508c-0.945-4.534-4.22-6.943-7.382-9.559
			c-1.901-1.573-3.308-3.84-6.263-3.972c-0.925-0.042-0.925-1.273-0.042-1.985c1.472-1.187,4.995-1.563,6.565-0.548
			c3.137,2.027,6.476,3.538,10.038,4.683c2.705,0.871,3.925,3.309,4.835,5.81c0.819,2.251,2.346,3.71,4.597,4.399
			c0.969,0.296,1.396,0.029,1.579-1.201c0.656-4.398-1.287-8.053-3.063-11.756c-1.001-2.087-1.298-4.321-1.656-6.537
			c-0.269-1.658,0.058-3.344-0.435-5.051c-0.55-1.913,1.616-4.058,3.978-3.985c2.05,0.064,2.748,1.521,2.512,3.386
			c-0.32,2.523,0.668,4.848,1.02,7.264c0.225,1.542,1.663,1.894,2.92,1.402c2.394-0.937,4.765-1.958,6.823-3.596
			c0.539-0.428,0.931-1.014,0.913-1.439C320.123,79.28,320.487,77.865,321.616,76.05z M324.055,104.041
			c-0.047-0.461,0.004-0.959-0.155-1.377c-1.636-4.295-1.597-8.304,2.237-11.459c1.95-1.605,2.021-3.183,0.708-5.155
			c-0.581-0.873-1.434-1.135-1.968-0.469c-1.315,1.643-3.254,2.356-4.866,3.518c-1.359,0.98-1.821,2.093-1.59,3.482
			c0.527,3.161-0.439,5.75-2.635,7.957c-0.948,0.954-0.925,1.786-0.044,2.812c1.552,1.81,3.668,3.016,5.121,4.943
			c0.31,0.41,1.409,0.654,1.709-0.254C323.019,106.692,324.234,105.622,324.055,104.041z M340.652,66.803
			c2.288-1.226,4.3-2.393,5.518-4.578c0.803-1.442,1.845-2.72,3.202-3.729c0.883-0.656,1.202-1.28,0.41-2.507
			c-0.915-1.416-1.725-3.08-1.322-4.979c-3.191,1.135-6.125,4.854-6.073,8.128c0.033,2.087-0.701,3.828-1.587,5.554
			C340.437,65.398,340.403,65.976,340.652,66.803z M330.185,96.886c0.438,0.542-1.069,2.522,1.166,2.179
			c1.279-0.196,3.07-0.267,3.021-2.465c-0.04-1.764-0.91-3.696-2.247-3.692C330.549,92.914,329.895,94.876,330.185,96.886z"/>
		<path style="fill-rule:evenodd;clip-rule:evenodd;fill:#7B491E;" d="M355.446,139.01c2.28-0.747,2.869-2.129,2.058-4.447
			c-0.55-1.567-0.341-3.267,1.632-3.937c0.936-0.317,0.93-0.794,0.581-1.523c-0.095-0.198-0.032-0.466-0.099-0.684
			c-1.526-4.969-0.46-6.653,4.708-7.168c1.346-0.134,2.513,1.038,2.318,2.062c-0.794,4.174,1.114,7.497,2.879,10.922
			c0.226,0.439-0.218,1.087,0.528,1.588c1.619-1.299,2.619-3.16,3.908-4.751c0.681-0.84-0.217-1.558-0.706-2.141
			c-0.708-0.844-1.254-1.659-1.374-2.819c-0.287-2.771,1.98-2.614,3.516-2.959c1.55-0.348,2.128,0.78,2.178,2.283
			c0.03,0.893,0.254,1.827,0.604,2.652c1.326,3.12,0.951,4.373-1.663,6.634c-1.993,1.725-3.264,4.052-4.739,6.288
			c1.978,0.459,1.938,0.443,2.542-1.139c0.229-0.598,0.451-1.335,1.26-1.463c1.74-0.277,3.369-0.626,4.669-2.075
			c0.501-0.559,1.532,0.177,1.928,0.751c0.674,0.976,1.087,2.18,0.482,3.336c-0.396,0.756-1.254,1.308-2.083,0.828
			c-1.291-0.747-1.824-0.023-2.426,0.89c3.073,0.404,3.347,0.901,2.331,4.12c-0.414,1.312,0.02,2.106,1.412,1.616
			c1.241-0.437,2.055-0.728,2.808,0.783c0.763,1.531,0.149,2.621-0.828,3.467c-1.077,0.931-2.379,1.65-3.677,2.263
			c-1.956,0.924-3.57,2.028-3.853,4.398c-0.143,1.203-0.686,2.22-2.096,2.029c-1.403-0.191-1.495-1.31-1.412-2.48
			c0.061-0.856-0.05-1.726,0.028-2.579c0.094-1.028-0.194-2.112-1.219-1.946c-0.74,0.12-1.786,0.039-2.286,1.769
			c-0.929,3.205,1.29,5.179,1.86,7.725c0.298,1.327,2.408,0.175,3.438,1.346c0.298,0.339,0.993-0.915,1.125-1.813
			c0.075-0.509,0.767-0.929,1.184-1.385c0.994-1.084,2.264-1.822,2.951-3.308c0.755-1.634,2.403-1.769,3.616-0.471
			c0.886,0.948,2.877,0.349,2.948,2.32c0.051,1.371-0.811,2.467-0.939,3.744c-0.529,5.226-4.157,7.702-8.458,9.537
			c-0.533,0.229-0.949,0.193-0.983,0.931c-0.046,0.983-1.43,1.445-1.62,1.344c-1.871-0.992-2.625,0.512-3.663,1.433
			c-0.991,0.88-1.905,0.947-2.663-0.325c-0.345-0.579-0.747-1.122-1.183-1.77c-0.381,1.021-0.417,1.881,0.434,2.631
			c4.791,4.216,4.759,9.461,2.909,14.901c-1.352,3.978-3.455,7.693-4.251,11.875c-0.176,0.921-0.686,1.671-1.221,2.379
			c-0.495,0.654-0.896,1.948-1.906,1.425c-0.886-0.46-0.619-1.811-0.294-2.568c1.826-4.259,1.281-8.887,2.221-13.273
			c0.238-1.113,0.243-2.318,0.684-3.34c1.578-3.661,0.628-6.424-3.015-7.562c-2.396-0.748-1.588-2.287-0.872-3.381
			c0.987-1.509,1.574-2.804,0.929-4.643c-0.29-0.823-0.397-1.989,0.573-2.812c0.514-0.436,0.396-1.146,0.153-1.743
			c-0.877-2.162-0.024-3.388,2.108-3.9c0.372-0.089,0.979-0.077,0.802-0.54c-0.744-1.933,0.714-3.986-0.482-5.924
			c-0.746-1.207-1.263-2.618-1.312-4.067c-0.034-1.008-0.443-1.595-1.372-2.063c0.234,2.911-2.472,4.413-3.181,6.902
			c-0.206,0.722-1.032,0.926-1.71-0.158c-0.854-1.367-1.113-2.933-1.867-4.293c-0.131-0.236-0.051-1.377-1.158-0.728
			c-1.122,0.658-0.066,1.202,0.076,1.347c1.541,1.564,0.868,3.218,0.233,4.812c-0.542,1.36-1.563,1.316-2.272,0.219
			c-0.781-1.211-1.312-2.666-0.896-4.122c0.642-2.245-0.572-5.217-2.669-6.512c-0.728-0.449-1.729-0.48-2.179-1.475
			c-0.354-0.781-1.526-1.339-0.452-2.356c0.867-0.82,1.73-0.636,2.561,0.099c0.164,0.146,0.359,0.254,0.705,0.493
			c0.162-1.945,0.008-3.461-2.189-3.904c-0.335-0.067-0.578-0.509-0.902-0.717c-1.048-0.671-1.411-1.671-0.867-2.703
			c0.54-1.025,1.627-0.663,2.522-0.438c0.431,0.108,0.82,0.387,1.233,0.591c0.921-2.773,0.021-5.132-1.712-7.127
			c-1.257-1.449-1.495-3.203-1.676-4.846c-0.218-1.987,1.488-3.086,4.087-3.362c2.132-0.227,2.573,1.479,2.72,2.741
			c0.163,1.405,0.673,2.521,1.468,3.496c1.934,2.372,1.993,4.827,0.746,7.482c-0.184,0.39-0.125,0.894-0.178,1.344
			c-1.926,0.657-0.695,1.764-0.532,2.717C355.694,140.928,355.402,139.949,355.446,139.01z M362.01,134.311
			c-0.745,0.58-1.765,3.435-1.549,4.337c0.572,2.395-1.746,5.506-4.063,5.239c-0.865-0.1-0.898,0.115-0.929,0.751
			c-0.03,0.653,0.242,1.275,0.869,0.913c0.888-0.515,1.599,0.129,2.351,0.031c1.623-0.213,3.586,0.289,4.696-1.224
			c0.574-0.781,0.917-1.673,1.9-2.016c0.477-0.166,0.911-0.43,0.927-0.913c0.023-0.71-0.768-0.704-1.17-0.88
			c-2.768-1.206-3.628-3.036-2.648-5.91c0.371-0.251,0.779-0.758,1.108-0.711c2.442,0.35,1.843-1.38,1.799-2.621
			c-0.029-0.844-0.502-1.614-1.174-2.122c-0.426-0.321-0.755-1.323-0.997-1.03c-0.483,0.584-1.633,0.852-1.272,2.037
			C362.267,131.538,361.998,132.935,362.01,134.311z M382.063,162.139c-0.528,0.434-1,1.116-1.595,1.248
			c-1.334,0.298,0.156,1.146-0.445,1.595c-1.041,0.776-2.121,1.558-2.967,2.527c-2.448,2.805-3.627,2.823-6.054-0.116
			c-0.899-1.089-2.732-0.937-2.741,0.304c-0.014,1.67-0.857,3.242-0.428,5.354c2.406-3.534,4.979-3.05,7.755-0.159
			c-0.104-1.867,0.743-2.838,1.651-3.145C380.951,168.495,380.849,164.937,382.063,162.139z M375.661,150.083
			c0-0.852-0.044-1.707,0.014-2.555c0.046-0.678-0.329-0.852-0.84-1.147c-0.574-0.333-0.892,0.106-1.2,0.252
			c-0.592,0.28-0.47,1.092-0.235,1.428C373.963,148.873,374.261,150.076,375.661,150.083z M368.667,146.815
			c-0.092,0.553,0.232,0.648,0.658,0.676c0.889,0.059,0.791-0.812,1.087-1.248c0.274-0.403-0.195-0.598-0.621-0.627
			C368.894,145.553,369.151,146.534,368.667,146.815z M376.156,141.859c-0.347,0.032-0.821-0.094-0.902,0.39
			c-0.089,0.53,0.362,0.569,0.735,0.536c0.39-0.034,1.003,0.211,1.012-0.485C377.007,141.771,376.494,141.913,376.156,141.859z"/>
		<path style="fill-rule:evenodd;clip-rule:evenodd;fill:#7B491E;" d="M302.433,56.883c0.391,0,0.806,0.085,1.168-0.017
			c0.863-0.244,1.849,1.093,2.31,0.266c0.473-0.849,0.434-2.159,0.216-3.18c-0.438-2.045-2.369-1.525-3.738-1.725
			c-2.658-0.389-5.235-0.888-7.429-2.568c-0.896-0.686-2.17-1.246-1.427-2.705c0.851-1.668,2.463-2.525,4.041-1.589
			c2.904,1.722,5.972,1.647,9.116,1.698c1.11,0.018,1.644-0.541,1.747-1.347c0.111-0.874-0.698-1.109-1.464-1.031
			c-1.027,0.104-1.955-0.387-2.912-0.572c-1.636-0.317-2.472-1.727-2.56-3.398c-0.082-1.56-0.045-3.128-0.012-4.692
			c0.042-2.055-1.646-2.368-3.011-2.928c-0.179-0.073-1.521,0.169-0.756,1.253c0.809,1.146,0.7,2.447-0.063,3.448
			c-1.048,1.375,0.131,2.52,0.14,3.765c0.011,1.552-0.545,1.868-1.895,1.718c-1.986-0.22-3.961-2.154-3.764-4.156
			c0.206-2.091-0.509-3.042-2.5-3.79c-3.208-1.204-3.834-3.498-2.302-6.011c0.991-1.626,2.036-1.402,3.206-0.49
			c2.365,1.844,3.898,1.907,5.854-0.011c0.587-0.575,1.221-0.657,1.915-0.569c4.631,0.59,9.772,2.542,9.303,9.034
			c-0.164,2.267,1.062,3.074,3.099,2.059c1.231-0.613,3.254-0.172,3.622-1.43c0.287-0.979-1.148-2.342-1.329-3.605
			c-0.356-2.487-2.095-4.46-2.534-6.739c-0.702-3.635-1.593-7.219-2.31-10.835c-0.557-2.805,1.564-4.156,4.408-3.635
			c1.649,0.302,3.373,0.396,4.946-0.601c0.556-0.352,1.2-0.945,1.892-0.656c0.969,0.405,2.365-0.056,2.88,1.295
			c0.514,1.345-0.644,1.955-1.243,2.857c-1.218,1.83-3.139,1.999-4.994,2.384c-0.347,0.072-0.832-0.124-0.922,0.436
			c-0.078,0.483,0.203,0.7,0.558,1.066c3.063,3.166,4.147,7.121,4.058,11.406c-0.029,1.395-1.743,1.951-2.096,3.437
			c-0.445,1.874-1.421,3.399,0.019,5.473c0.76,1.092,0.591,3.112-0.152,4.693c-0.958,2.035-1.571,4.224-2.8,6.141
			c-0.463,0.723-0.625,1.536-0.577,2.421c0.057,1.051,0.281,2.219-1.208,2.634c-0.453,0.126-0.812,0.644-0.631,1.129
			c0.964,2.591-0.931,5.448,0.812,8.01c0.351,0.515,0.277,1.677-0.076,2.244c-0.945,1.518-0.734,3.121-0.752,4.726
			c-0.009,0.783,0.14,1.73-0.797,1.982c-0.873,0.235-1.735,0.13-2.562-0.627c-1.765-1.62-2.271-3.776-2.702-5.911
			c-0.39-1.931-1.326-2.981-3.254-3.257c-1.909-0.273-4.402-2.691-4.727-4.501C297.911,58.013,299.49,56.881,302.433,56.883z"/>
		<path style="fill-rule:evenodd;clip-rule:evenodd;fill:#7B491E;" d="M329.369,43.322c-0.599,1.761-1.082,3.35-1.679,4.895
			c-0.815,2.112-0.34,3.25,1.844,4.18c0.307-4.814,2.862-8.039,7.115-10.083c1.406-0.675,2.57-1.68,3.598-2.835
			c1.104-1.242,2.627-1.628,3.758-0.644c1.203,1.048,0.873,2.68-0.067,3.982c-1.076,1.488-2.633,2.449-4.021,3.603
			c-2.661,2.21-3.823,5.573-6.041,8.139c-0.35,0.405-0.605,1.046-1.039,1.199c-1.371,0.486-1.033,1.645-0.682,2.285
			c2.462,4.474-1.073,7.579-2.45,11.157c-0.133,0.346-1.119,0.761-1.28,0.627c-0.623-0.517-1.528-0.908-1.575-1.895
			c-0.044-0.937-0.017-1.877-0.012-2.816c0.013-2.296,0.198-4.49-1.819-6.379c-1.95-1.827-1.764-5.067-1.212-6.913
			c1.22-4.077,0.264-8.15,1.082-12.153c0.417-2.036-1.332-3.643-2.136-5.425c-0.891-1.978,0.116-4.545,2.209-5.008
			c1.308-0.289,2.677-0.375,2.375,1.824c-0.329,2.395,1.511,4.041,2.472,5.966c0.569,1.138,1.158,0.018,1.501-0.381
			c1.888-2.199,2.234-5.029,3.053-7.672c0.801-2.584,1.094-5.083,0.564-7.845c-0.444-2.317,3.929-5.028,6.117-4.112
			c0.673,0.282,0.923,0.839,0.81,1.521c-0.851,5.111-0.356,10.408-2.149,15.39c-0.152,0.425-0.213,0.918-0.178,1.369
			c0.241,3.082-0.875,5.085-4.099,5.805c-1.471,0.329-2.328,1.748-3.331,2.805C330.942,45.123,330.143,44.872,329.369,43.322z
			 M329.57,42.781c0.385-0.98,1.818-1.469,1.232-2.791c-0.178-0.399-0.543-0.312-0.938-0.087
			C328.54,40.655,329.469,41.762,329.57,42.781z"/>
		<path style="fill-rule:evenodd;clip-rule:evenodd;fill:#7B491E;" d="M353.629,180.387c0.388-1.481-0.585-2.309-1.659-2.777
			c-0.694-0.303-1.648-0.156-1.628-1.208c0.021-1.042,0.943-1.561,1.695-2.056c0.41-0.271,1.291-0.046,1.502-0.356
			c0.589-0.866,2.04-0.329,2.276-1.384c0.449-2.002,0.729-4.043,1.05-6.073c0.067-0.424-0.202-0.915-0.626-0.689
			c-0.882,0.468-2.555,0.009-2.552,1.446c0.003,1.237-1.051,1.814-1.187,2.94c-0.091,0.759-0.972,1.39-2.001,1.199
			c-1.173-0.218-1.994-1.304-1.825-2.092c0.534-2.497-0.867-4.35-1.682-6.386c-0.84-2.098-2.219-3.953-2.379-6.352
			c-0.075-1.129-1.483-1.083-2.276-1.574c-1.277-0.793-2.759-1.185-3.367-2.902c-0.499-1.409-0.114-2.228,1.074-2.72
			c1.679-0.695,3.402-0.832,5.066,0.156c1.097,0.651,2.237,1.229,3.311,1.916c2.887,1.85,2.864,2.354,2.451,5.851
			c-0.294,2.482-0.479,5.084,0.578,7.548c0.314,0.734,0.89,0.96,1.477,1.27c0.284-0.595,0.284-1.157-0.037-1.766
			c-0.742-1.405-0.289-2.225,1.3-2.322c1.215-0.074,2.312-0.089,3.507-0.79c1.482-0.871,2.688,0.182,3.395,1.658
			c1.173,2.448,1.021,4.859-0.479,7.059c-1.442,2.118-1.407,4.712-2.613,6.954c-1.219,2.268,0.633,5.162,3.112,5.78
			c2.045,0.509,3.474,2.9,2.687,4.892c-0.961,2.432-1.493,4.929-1.753,7.505c-0.073,0.734-0.442,1.075-1.16,1.213
			c-0.919,0.178-1.272-0.4-1.479-1.065c-0.314-1.009-0.518-2.054-0.791-3.179c-1.702,0.366-2.251,1.893-2.958,3.041
			c-0.601,0.976-1.202,1.425-2.193,1.135c-0.946-0.278-1.032-1.267-0.771-1.96c1.01-2.684-0.276-5.854,1.443-8.239
			c1.543-2.138,0.813-3.897-0.03-5.818c-0.146-0.333-0.363-0.008-0.534,0.088L353.629,180.387z"/>
		<path style="fill-rule:evenodd;clip-rule:evenodd;fill:#7B491E;" d="M81.655,73.314c-3.728,0-4.649-1.397-2.999-4.624
			c0.378-0.739,0.432-1.082-0.411-1.618c-1.747-1.109-1.643-2.677-0.398-4.117c0.556-0.643,0.375-1.057,0.274-1.783
			c-0.235-1.699-0.667-3.711,2.201-3.891c0.868-0.055,1.633-0.822,0.935-1.971c-0.734-1.208-0.718-2.34,0.44-3.288
			c0.485-0.397,0.735-0.947,0.459-1.438c-0.338-0.602-0.787,0.117-1.177,0.11c-1.413-0.027-2.8,0.388-4.234,0.105
			c-2.555-0.503-4.784,0.714-7.052,1.563c-1.23,0.46-2.154,0.39-3.142-0.547c-1.043-0.988-0.926-2.145-0.597-3.229
			c0.919-3.026,2.454-3.776,5.609-2.599c1.426,0.532,2.421-0.425,3.116-0.949c2.494-1.885,4.345-0.516,5.799,1.077
			c1.4,1.535,2.223,1.091,3.371-0.006c2.735-2.614,2.759-2.619,5.699-0.44c0.494,0.366,0.971,0.617,1.457,0.268
			c1.912-1.374,3.925-0.869,5.952-0.432c1.012,0.218,2.203,0.406,2.688-0.689c0.835-1.885,2.678-1.356,4.044-1.908
			c0.386-0.155,1.132,0.344,1.606,0.69c1.079,0.787,1.284,4.414,0.373,5.566c-1.094,1.383-3.596,1.764-4.958,0.556
			c-1.428-1.267-2.649-1.196-3.756,0.224c-1.351,1.732-3.197,1.733-4.81,1.022c-1.864-0.823-3.322,0.323-4.969,0.408
			c-0.389,0.021-0.872,0.503-0.633,1.047c0.897,2.044-0.488,3.17-1.844,4.015c-1.17,0.729-1.26,1.33-0.591,2.351
			c0.339,0.517,0.816,1.249,0.428,1.705c-1.313,1.541-1.174,3.197-1.106,5.059c0.033,0.9-0.08,1.399,0.78,1.667
			c2.448,0.762,2.699,2.783,2.137,4.649c-0.469,1.561-2.299,1.442-3.754,1.449C82.28,73.315,81.967,73.314,81.655,73.314z
			 M84.665,50.833c-0.192-0.207-0.311-0.445-0.455-0.461c-0.166-0.019-0.469,0.127-0.506,0.259c-0.082,0.29,0.021,0.61,0.418,0.567
			C84.287,51.18,84.435,50.995,84.665,50.833z"/>
		<path style="fill-rule:evenodd;clip-rule:evenodd;fill:#7B491E;" d="M298.197,81.015c0,2.093-0.919,2.835-3.049,2.019
			c-4.371-1.674-8.372-3.935-10.571-8.389c-1.097-2.22-2.337-4.365-2.975-6.808c-0.326-1.248-0.365-2.358-0.012-3.593
			c0.537-1.875,0.068-3.437-1.696-4.561c-2.054-1.309-4.189-2.104-6.678-1.896c-0.673,0.057-1.813,0.575-1.803-0.989
			c0.008-1.183,0.46-2.137,1.575-2.207c3.024-0.19,5.893-1.611,9.146-0.172c2.802,1.239,5.028,3.068,4.737,6.167
			c-0.402,4.297,1.522,7.443,4.123,10.518c2.263,2.674,5.338,4.676,6.663,8.195C297.874,79.872,298.048,80.466,298.197,81.015z"/>
		<path style="fill-rule:evenodd;clip-rule:evenodd;fill:#7B491E;" d="M348.32,232.363c-1.744-0.907-1.732-2.116-1.316-3.715
			c1.503-5.771,2.683-11.628,4.312-17.358c0.794-2.79,0.589-5.23-0.453-7.842c-0.442-1.11-0.124-2.337,0.973-3.344
			c1.257-1.155,2.686-2.027,4.066-2.972c0.926-0.633,2.188-0.754,2.981,0.107c0.983,1.067,0.19,2.106-0.748,2.708
			c-2.62,1.677-2.059,4.144-1.351,6.308c1.091,3.329-0.364,6.183-0.961,9.25c-1.04,5.355-5.083,9.427-6.095,14.779
			C349.588,231.03,348.818,231.656,348.32,232.363z"/>
		<path style="fill-rule:evenodd;clip-rule:evenodd;fill:#7B491E;" d="M365.193,59.172c0.666-0.105,1.874,0.012,2.41,1.295
			c0.528,1.264-0.416,2.166-1.325,2.686c-3.349,1.916-2.252,5.354-2.731,8.125c-0.711,4.103-4.361,8.62-8.479,9.515
			c-0.591,0.128-1.301,0.193-1.7-0.452c-0.397-0.642-0.24-1.264,0.045-1.971c1.127-2.785,2.49-5.472,3.762-8.18
			c0.704-1.502,0.728-2.871,0.593-4.233C357.261,60.861,360.333,59.662,365.193,59.172z"/>
		<path style="fill-rule:evenodd;clip-rule:evenodd;fill:#7B491E;" d="M295.008,53.947c-0.192,1.243-0.102,1.898-0.373,2.607
			c-0.371,0.971-0.221,2.256-1.619,2.41c-1.384,0.151-1.631-1.184-2.368-1.963c-2.502-2.649-3.1-6.637-6.399-8.737
			c-1.454-0.926-3.099-1.52-4.378-2.818c-1.205-1.223-1.189-2.525-0.886-3.909c0.313-1.435,2.205-2.001,3.96-0.914
			c1.328,0.823,2.874,1.062,4.111,1.822C291.533,45.191,293.839,49.482,295.008,53.947z"/>
		<path style="fill-rule:evenodd;clip-rule:evenodd;fill:#7B491E;" d="M37.396,85.009c0.751-3.574,4.595-5.646,7.284-3.996
			c1.107,0.679,2.315,1.329,1.821,2.788c-0.484,1.431-1.705,2.35-3.234,2.636c-0.679,0.127-1.401,0.021-2.104,0.023
			c-1.321,0.004-2.819-0.344-1.867,2.01c0.392,0.966-3.247,3.062-4.395,2.451c-1.056-0.563-2.361-0.536-3.208-1.648
			c-0.406,2.488-2.328,4.503-4.485,4.451c-0.94-0.022-2.282-0.055-2.712-1.405c-0.58-1.818-0.948-3.626,0.841-5.027
			c1.148-0.9,3.969-0.389,5.479,0.925C32.171,84.551,34.457,83.438,37.396,85.009z"/>
		<path style="fill-rule:evenodd;clip-rule:evenodd;fill:#7B491E;" d="M41.196,47.492c-2.885,0.055-5.232-2.705-4.481-5.356
			c0.263-0.928,0.22-1.371-0.795-1.849c-2.053-0.968-2.702-2.871-2.008-5.688c0.462-1.877,2.139-1.678,3.572-1.64
			c0.924,0.025,1.759-0.103,2.208-0.941c0.806-1.506,2.219-1.909,3.441-1.197c1.258,0.733,2.555,2.023,2.412,3.668
			c-0.141,1.611-1.598,2.292-3.067,2.661c-0.369,0.092-0.807-0.059-1.158,0.062c-1.056,0.362-1.738,1.437-1.979,2.222
			c-0.193,0.629,1.226,0.474,1.966,0.551c1.997,0.208,3.447,1.789,3.368,3.657C44.598,45.46,42.79,47.461,41.196,47.492z"/>
		<path style="fill-rule:evenodd;clip-rule:evenodd;fill:#7B491E;" d="M76.463,28.777c3.744,2.65,3.431,5.178,0.289,6.533
			c-0.798,0.344-1.308,0.831-0.467,1.833c1.166,1.388,1.137,2.978-0.229,4.222c-1.167,1.062-3.854,0.407-4.951-1.059
			c-0.935-1.248-0.368-2.273,0.592-3.157c0.94-0.865,1.677-1.494-0.054-2.449c-1.25-0.69-1.981-2.11-1.552-3.582
			c0.404-1.386,1.681-1.864,3.09-1.945c1.222-0.069,2.022-0.261,1.002-1.802c-0.539-0.813-1.456-1.857-0.434-3.097
			c1.011-1.228,2.138-1.877,3.805-1.695c1.559,0.17,1.805,1.657,2.737,2.438c0.187,0.156,0.188,0.877-0.356,1.384
			C78.951,27.319,78.269,28.572,76.463,28.777z"/>
		<path style="fill-rule:evenodd;clip-rule:evenodd;fill:#7B491E;" d="M354.534,97.229c0,0.69,0.031,1.24-0.006,1.785
			c-0.1,1.463-0.638,1.845-2.099,1.14c-6.376-3.08-9.191-9.607-6.778-16.062c0.304-0.812,0.888-1.462,1.927-1.388
			c1.183,0.083,2.066,0.995,2.161,1.832c0.414,3.651,2.227,6.636,4.247,9.497C354.793,95.176,354.309,96.274,354.534,97.229z"/>
		<path style="fill-rule:evenodd;clip-rule:evenodd;fill:#7B491E;" d="M61.999,90.682c1.273,0.064,2.599-0.281,3.667,0.88
			c0.581,0.631,1.144,0.282,1.378-0.498c0.552-1.837,2.009-2.105,3.509-1.713c1.313,0.344,2.534-0.423,3.934,0.225
			c1.589,0.736,2.369,1.716,2.049,3.263c-0.28,1.358-1.314,2.31-2.882,2.058c-3.899-0.625-7.629,0.641-11.443,0.913
			c-2.829,0.202-3.854-0.683-3.925-2.685C58.183,90.244,60.25,90.718,61.999,90.682z"/>
		<path style="fill-rule:evenodd;clip-rule:evenodd;fill:#7B491E;" d="M36.719,65.824c-0.997-1.4-2.814-2.106-3.238-4.015
			c-0.47-2.117,0.315-3.568,2.399-4.505c1.052-0.473,2.406-0.842,1.376-2.688c-0.52-0.932,0.14-2.119,1.087-2.811
			c0.872-0.637,1.801-0.68,2.76-0.069c1.212,0.773,1.053,2.206,0.66,2.928c-0.91,1.668-0.482,2.954,0.019,4.608
			c1.328,4.386-0.392,6.405-5.117,6.499L36.719,65.824z"/>
		<path style="fill-rule:evenodd;clip-rule:evenodd;fill:#7B491E;" d="M348.006,174.645c-0.058,0.617,0.101,1.398-0.218,1.818
			c-0.673,0.887-0.503,2.663-2.284,2.471c-1.517-0.163-1.459-1.452-1.797-2.541c-0.876-2.819-1.866-5.604-2.857-8.387
			c-0.174-0.488-0.559-1.068-1.221-0.631c-2.519,1.661-2.662-0.822-3.383-2.01c-1.078-1.778-0.608-3.224,1.389-4.034
			c3.575-1.451,4.877-0.61,5.174,3.243c0.157,2.04,1.898,3.683,1.474,5.933c-0.097,0.512,0.857,0.739,1.409,0.907
			C347.31,171.905,348.201,172.865,348.006,174.645z"/>
		<path style="fill-rule:evenodd;clip-rule:evenodd;fill:#7B491E;" d="M62.046,71.642c0.156-1.51,0.539-3.7,2.812-4.892
			c0.478-0.25,0.469-0.541,0.449-0.909c-0.032-0.574-0.504-0.435-0.863-0.511c-2.823-0.601-4.011-4.096-2.04-6.171
			c0.694-0.731,1.756-1.183,2.748-0.814c0.994,0.369,1.84,1.423,1.939,2.303c0.16,1.43,0.738,3.086-0.703,4.384
			c-0.602,0.542-1.218,1.035,0.237,1.811c2.44,1.3,1.469,3.936,1.472,6.049c0.002,1.58-1.395,2.504-2.623,3.128
			C63.927,76.805,62.048,74.736,62.046,71.642z"/>
		<path style="fill-rule:evenodd;clip-rule:evenodd;fill:#7B491E;" d="M43.266,56.287c0.066-0.962,0.614-2.079,1.783-2.644
			c1.364-0.659,1.574-1.331,0.659-2.568c-1.169-1.583-0.812-2.926,1.079-3.596c1.532-0.543,2.877-2.023,4.811-0.822
			c1.385,0.861,2.563,1.761,2.446,3.523c-0.118,1.771-1.526,2.738-2.92,3.188c-1.44,0.466-2.526,0.398-1.851,2.544
			c0.503,1.602-1.617,3.294-3.588,3.314C44.5,59.239,43.273,57.925,43.266,56.287z"/>
		<path style="fill-rule:evenodd;clip-rule:evenodd;fill:#7B491E;" d="M73.059,69.557c1.876-0.217,2.631,1.094,2.537,2.602
			c-0.141,2.273,0.371,4.024,2.224,5.459c1.336,1.035,0.844,2.548-0.015,3.488c-1.05,1.149-2.769,1.823-4.068,0.59
			c-1.864-1.771-3.671-3.728-4.981-5.918C67.487,73.654,70.456,69.584,73.059,69.557z"/>
		<path style="fill-rule:evenodd;clip-rule:evenodd;fill:#7B491E;" d="M48.901,28.65c0.002-3.384,0.749-4.08,4.411-4.292
			c0.479-0.027,0.911-0.526,1.403-0.688c1.963-0.648,4.402,0.473,4.828,2.421c0.417,1.91-0.483,3.112-2.451,3.737
			c-0.913,0.29-2.106,0.528-2.574,1.726c-0.65,1.668-1.996,2.292-3.634,1.808c-1.672-0.494-1.855-2.057-1.978-3.537
			C48.874,29.435,48.901,29.042,48.901,28.65z"/>
		<path style="fill-rule:evenodd;clip-rule:evenodd;fill:#7B491E;" d="M83.862,93.504c2.29-0.007,3.343,1.481,2.606,3.731
			c-0.391,1.194-0.617,2.157,0.524,3.276c1.017,0.997,0.666,2.677-0.269,3.562c-1.239,1.173-2.917,1.496-4.531,0.407
			c-0.504-0.34-0.803-0.896-1.426-1.157c-0.77-0.322-1.803-0.663-1.579-1.784c0.199-0.99,1.065-1.358,2.03-1.477
			c0.285-0.035,0.881,0.21,0.748-0.373c-0.08-0.35-0.072-0.978-0.744-1.018c-0.748-0.045-1.473,0.096-2.161-0.551
			c-1.457-1.369-1.527-2.605,0.284-3.266C80.799,94.326,82.186,93.355,83.862,93.504z"/>
		<path style="fill-rule:evenodd;clip-rule:evenodd;fill:#7B491E;" d="M93.126,34.823c-0.099,3.333-1.126,3.558-3.964,4.028
			c-1.653,0.273-2.205-1.235-2.601-2.474c-0.241-0.754-0.445-1.762,0.493-2.324c1.474-0.884,3.179-1.126,4.597-0.262
			c1.229,0.749,1.415,0.699,2.063-0.614c0.747-1.513,4.214-2.147,5.84-1.47c1.576,0.656,2.029,3.093,0.828,4.455
			C98.265,38.561,94.773,38.008,93.126,34.823z"/>
		<path style="fill-rule:evenodd;clip-rule:evenodd;fill:#7B491E;" d="M102.891,66.919c0.033,2.013-1.121,3.135-3.077,2.567
			c-1.384-0.402-2.394-0.19-3.665,0.351c-2.386,1.016-5.603-1.558-5.462-4.178c0.093-1.727,2.616-3.189,4.573-2.474
			c1.162,0.424,2.208,0.498,3.421,0.31C100.967,63.14,102.856,64.773,102.891,66.919z"/>
		<path style="fill-rule:evenodd;clip-rule:evenodd;fill:#7B491E;" d="M49.2,104.383c-0.616,2.859-2.3,3.178-4.514,2.77
			c-1.335-0.247-1.878-0.985-1.96-2.163c-0.084-1.191,0.394-2.659,1.356-2.854c1.292-0.262,3.007-1.008,4.136,0.739
			c0.456,0.705,1.134,0.646,1.802,0.08c1.64-1.389,6.054-1.396,7.572-0.047c1.188,1.054,0.936,2.78-0.536,3.682
			C55.03,107.83,50.979,106.876,49.2,104.383z"/>
		<path style="fill-rule:evenodd;clip-rule:evenodd;fill:#7B491E;" d="M5.708,114.026c-0.032-2.36,2.129-4.573,4.457-4.562
			c1.234,0.005,5.301,2.925,5.392,3.871c0.15,1.564-3.706,4.968-5.717,5.048C7.868,118.462,5.738,116.216,5.708,114.026z"/>
		<path style="fill-rule:evenodd;clip-rule:evenodd;fill:#7B491E;" d="M339.57,137.823c-0.136-1.011-0.06-1.725,0.6-1.953
			c1.442-0.5,2.127-1.212,2.289-2.93c0.148-1.566,1.922-1.081,2.909-0.785c1.345,0.402,2.558,1.38,1.907,3.047
			c-0.543,1.391-1.169,2.871-2.82,3.416c-1.045,0.346-1.161,1.113-1.234,2.115c-0.092,1.244,0.854,1.002,1.429,1.341
			c0.521,0.306,1.029,0.647,1.489,1.036c0.644,0.543,0.567,1.314,0.233,1.915c-0.206,0.37-0.558,1.083-1.184,0.804
			c-0.577-0.258-1.494-0.007-1.554-1.256c-0.042-0.883-0.43-2.089-1.97-1.804c-1.036,0.192-1.3-0.855-1.479-1.481
			C339.831,140.056,339.965,138.708,339.57,137.823z"/>
		<path style="fill-rule:evenodd;clip-rule:evenodd;fill:#7B491E;" d="M58.447,88.329c-1.189-0.073-4.015-3.285-3.876-4.406
			c0.214-1.732,3.455-4.619,5.045-4.494c1.834,0.145,3.862,2.142,3.837,3.781C63.427,84.921,60.002,88.424,58.447,88.329z"/>
		<path style="fill-rule:evenodd;clip-rule:evenodd;fill:#7B491E;" d="M18.857,110.172c-0.003-2.428,1.287-4.485,3.551-5.301
			c1.593-0.573,2.925-0.436,3.925,1.407c0.87,1.604,0.977,2.809-0.48,3.912c-1.514,1.147-3.047,2.29-4.682,3.247
			c-1.379,0.808-1.961-0.316-2.281-1.398C18.72,111.464,18.86,110.798,18.857,110.172z"/>
		<path style="fill-rule:evenodd;clip-rule:evenodd;fill:#7B491E;" d="M58.735,71.133c0.245,2.118-0.851,3.392-2.132,4.537
			c-0.861,0.769-1.805,0.711-2.724,0.023c-1.413-1.058-2.753-5.181-2.089-6.732c0.754-1.761,2.75-1.398,4.125-2.053
			c0.436-0.207,2.143,0.591,2.386,1.99C58.444,69.714,59.1,70.432,58.735,71.133z"/>
		<path style="fill-rule:evenodd;clip-rule:evenodd;fill:#7B491E;" d="M63.444,56.357c-0.313,0.575-0.425,1.3-1.276,1.648
			c-1.321,0.54-2.601,1.204-3.834,1.925c-1.067,0.624-1.542-0.127-2.16-0.705c-1.172-1.097-2.331-2.17-1.643-4.036
			c0.598-1.623,2.949-2.907,4.692-2.519C61.132,53.097,63.487,55.109,63.444,56.357z"/>
		<path style="fill-rule:evenodd;clip-rule:evenodd;fill:#7B491E;" d="M112.68,64.646c0.34,1.23-0.22,2.109-0.85,3.017
			c-1.407,2.029-2.593,2.052-3.769-0.049c-0.492-0.878-1.007-1.701-1.749-2.405c-1.042-0.988-1.543-2.289-0.451-3.407
			c1.033-1.057,2.342-2.069,4.052-1.415C111.874,61.137,113.247,62.325,112.68,64.646z"/>
		<path style="fill-rule:evenodd;clip-rule:evenodd;fill:#7B491E;" d="M49.371,17.33c0.053-2.279,2.51-4.577,4.891-4.574
			c1.426,0.002,2.716,1.579,2.62,3.203c-0.125,2.098-2.664,5.158-4.341,5.232C50.989,21.26,49.327,19.234,49.371,17.33z"/>
		<path style="fill-rule:evenodd;clip-rule:evenodd;fill:#7B491E;" d="M95.104,22.61c2.797-0.036,4.001,0.926,4.032,3.223
			c0.03,2.179-1.913,4.181-4.063,4.188c-2.46,0.008-3.426-0.885-3.448-3.192C91.596,23.872,92.609,22.643,95.104,22.61z"/>
		<path style="fill-rule:evenodd;clip-rule:evenodd;fill:#7B491E;" d="M39.407,97.727c1.812-0.037,3.334,1.347,3.298,2.998
			c-0.04,1.776-2.721,4.448-4.527,4.512c-2.02,0.071-3.324-1.054-3.361-2.9C34.763,99.703,36.673,97.785,39.407,97.727z"/>
		<path style="fill-rule:evenodd;clip-rule:evenodd;fill:#7B491E;" d="M108.529,53.275c-0.049,0.453,0.034,0.888-0.288,1.328
			c-0.953,1.305-6.249,2.753-7.941,2.387c-1.288-0.278-1.941-1.225-1.961-2.089c-0.019-0.837,1.009-1.453,2.114-1.314
			c0.791,0.099,1.203-0.293,1.552-1.05c0.936-2.03,2.83-1.96,4.612-1.707C107.873,51.009,108.535,51.955,108.529,53.275z"/>
		<path style="fill-rule:evenodd;clip-rule:evenodd;fill:#7B491E;" d="M101.885,101.01c-1.742,0.06-3.131-0.428-3.613-1.865
			c-0.567-1.689,0.99-2.348,2.16-2.761c1.999-0.708,3.989-2.314,6.254-0.344c0.732,0.637,1.537,1.229,1.293,2.131
			c-0.261,0.972-0.959,1.971-2.021,2.238C104.558,100.761,103.091,100.844,101.885,101.01z"/>
		<path style="fill-rule:evenodd;clip-rule:evenodd;fill:#7B491E;" d="M114.578,80.112c0.632,1.395-0.618,1.963-1.448,2.354
			c-1.733,0.818-3.665,1.262-5.429,0.069c-0.931-0.629-2.139-1.66-1.846-2.688c0.311-1.091,1.329-2.052,2.818-2.375
			c1.618-0.352,3.035-0.566,4.585,0.267C114.282,78.29,114.843,78.872,114.578,80.112z"/>
		<path style="fill-rule:evenodd;clip-rule:evenodd;fill:#7B491E;" d="M82.235,29.128c0.025-2.089,2.049-4.267,3.875-4.169
			c1.623,0.087,3.859,2.272,3.925,3.835c0.058,1.373-2.839,3.332-5.139,3.139C83.435,31.81,82.041,31.085,82.235,29.128z"/>
		<path style="fill-rule:evenodd;clip-rule:evenodd;fill:#7B491E;" d="M43.762,67.703c-0.645-1.622,0.2-4.478,1.809-5.298
			c1.44-0.735,3.054-0.813,4.141,0.72c1.125,1.586,0.771,3.387,0.247,5.065c-0.24,0.769-1.216,1.261-1.943,0.84
			c-1.361-0.788-2.963-0.657-4.308-1.38L43.762,67.703z"/>
		<path style="fill-rule:evenodd;clip-rule:evenodd;fill:#7B491E;" d="M62.006,47.493c-1.777-0.02-3.842-2.115-3.698-3.858
			c0.156-1.893,1.704-2.591,3.164-2.638c3.189-0.103,4.344,0.806,4.331,2.784C65.788,45.989,64.225,47.517,62.006,47.493z"/>
		<path style="fill-rule:evenodd;clip-rule:evenodd;fill:#7B491E;" d="M50.779,37.948c-0.018-1.734,1.504-3.451,3.168-3.573
			c1.074-0.079,3.804,2.883,3.581,4.184c-0.23,1.346,0.158,3.317-2.248,3.308C53.028,41.859,50.8,39.958,50.779,37.948z"/>
		<path style="fill-rule:evenodd;clip-rule:evenodd;fill:#7B491E;" d="M20.716,98.519c-0.024-1.035,2.037-3.082,3.894-3.139
			c1.461-0.044,3.457,1.531,3.466,2.737c0.02,2.592-1.47,3.959-4.517,3.787C22.07,101.819,20.692,101.156,20.716,98.519z"/>
		<path style="fill-rule:evenodd;clip-rule:evenodd;fill:#7B491E;" d="M49.234,96.777c-1.634,0.386-2.535-0.56-2.634-2.157
			c-0.105-1.702,2.948-4.803,4.521-4.881c2.509-0.125,2.358,2.084,2.359,3.32C53.483,95.487,52.085,96.99,49.234,96.777z"/>
		<path style="fill-rule:evenodd;clip-rule:evenodd;fill:#7B491E;" d="M84.582,19.755c0.008,3.39-0.856,3.904-3.896,2.549
			c-0.334-0.149-0.77-0.059-1.121-0.184c-0.982-0.35-1.732-1.018-1.999-2.031c-0.288-1.094,0.199-1.965,1.108-2.59
			c1.316-0.903,2.854-1.428,4.304-0.812C84.202,17.207,84.96,18.411,84.582,19.755z"/>
		<path style="fill-rule:evenodd;clip-rule:evenodd;fill:#7B491E;" d="M87.398,80.547c0.337,1.728-0.707,2.548-2.416,2.6
			c-1.969,0.06-4.562-2.194-4.625-3.858c-0.063-1.669,1.148-2.679,3.224-2.688C86.022,76.589,87.399,77.944,87.398,80.547z"/>
		<path style="fill-rule:evenodd;clip-rule:evenodd;fill:#7B491E;" d="M35.073,76.602c1.821-0.133,3.059,0.396,3.039,2.521
			c-0.019,2.016-1.855,3.654-4.094,3.579c-1.712-0.057-3.478-1.785-3.424-3.354C30.648,77.742,32.515,76.596,35.073,76.602z"/>
		<path style="fill-rule:evenodd;clip-rule:evenodd;fill:#7B491E;" d="M100.808,84.582c-2.799-0.001-3.955-0.938-4.012-2.991
			c-0.033-1.181,2.126-3.54,3.254-3.554c1.127-0.015,4.314,3.231,4.235,4.416C104.112,85.052,102.042,84.385,100.808,84.582z"/>
		<path style="fill-rule:evenodd;clip-rule:evenodd;fill:#7B491E;" d="M64.557,106.66c-1.963-0.179-3.432-1.094-4.218-2.599
			c-0.459-0.879-0.689-2.379,1.182-2.59c0.821-0.092,1.702-0.158,2.423-0.51c1.359-0.663,2.342-0.259,3.322,0.696
			c0.868,0.846,1.265,1.893,0.732,2.919C67.286,105.948,65.83,106.36,64.557,106.66z"/>
		<path style="fill-rule:evenodd;clip-rule:evenodd;fill:#7B491E;" d="M94.91,18.5c-0.041,1.55-1.77,3.182-3.33,3.141
			c-1.411-0.037-4.209-2.559-4.18-3.768c0.034-1.411,2.267-2.89,4.188-2.774C93.401,15.208,94.955,16.799,94.91,18.5z"/>
		<path style="fill-rule:evenodd;clip-rule:evenodd;fill:#7B491E;" d="M26.485,78.479c2.872,0.005,3.157,0.306,3.179,2.963
			c0.016,1.943-0.789,3.086-2.803,3.132c-2.23,0.051-4.242-1.423-4.25-3.048C22.6,79.501,23.906,78.474,26.485,78.479z"/>
		<path style="fill-rule:evenodd;clip-rule:evenodd;fill:#7B491E;" d="M73.784,15.356c-0.006,1.987-1.599,3.482-3.727,3.496
			c-1.466,0.01-3.382-1.703-3.313-2.961c0.091-1.672,2.296-3.583,4.163-3.609C72.774,12.256,73.79,13.342,73.784,15.356z"/>
		<path style="fill-rule:evenodd;clip-rule:evenodd;fill:#7B491E;" d="M94.451,92.005c0.016,1.71-1.554,3.257-3.41,3.363
			c-1.898,0.107-4.009-1.403-4.101-2.934c-0.081-1.332,2.601-3.124,4.664-3.164C93.497,89.233,94.445,90.119,94.451,92.005z"/>
		<path style="fill-rule:evenodd;clip-rule:evenodd;fill:#7B491E;" d="M22.208,78.009c-1.78,0.153-3.105-0.49-3.316-2.365
			c-0.184-1.634,2.149-4.173,3.636-4.208c1.2-0.028,3.608,2.811,3.318,4.246C25.471,77.539,23.958,78.067,22.208,78.009z"/>
		<path style="fill-rule:evenodd;clip-rule:evenodd;fill:#7B491E;" d="M65.845,39.981c-2.005,0.017-3.269-1.11-3.321-2.962
			c-0.034-1.197,2.046-3.086,3.45-3.134c1.721-0.058,4.096,2.138,4.051,3.747C69.996,38.698,67.742,39.965,65.845,39.981z"/>
		<path style="fill-rule:evenodd;clip-rule:evenodd;fill:#7B491E;" d="M95.849,55.052c0.008,1.606-2.387,3.374-4.174,3.225
			c-1.747-0.146-4.121-2.366-3.763-3.674c0.538-1.966,2.375-1.416,3.747-1.636c0.731-0.117,1.522,0.195,2.273,0.14
			C95.517,52.99,96.051,53.727,95.849,55.052z"/>
		<path style="fill-rule:evenodd;clip-rule:evenodd;fill:#7B491E;" d="M73.935,102.387c-1.618,0.308-2.708-0.46-3.606-1.723
			c-1.337-1.881-1.05-2.346,1.167-3.001c1.305-0.386,2.645-0.834,3.784-0.281c1.078,0.524,2.528,1.371,2.205,2.926
			C77.113,102.092,75.707,102.694,73.935,102.387z"/>
		<path style="fill-rule:evenodd;clip-rule:evenodd;fill:#7B491E;" d="M37.179,49.348c-0.009,1.896-1.443,3.722-2.974,3.778
			c-1.682,0.061-3.197-1.453-3.144-3.141c0.055-1.758,1.871-4.157,3.115-3.842C35.748,46.542,37.174,47.36,37.179,49.348z"/>
		<path style="fill-rule:evenodd;clip-rule:evenodd;fill:#7B491E;" d="M25.812,66.741c-1.672-0.032-3.213-1.728-3.201-3.524
			c0.01-1.487,1.775-3.535,3.028-3.513c1.165,0.021,3.129,2.822,3.074,4.385C28.648,65.954,27.746,66.778,25.812,66.741z"/>
		<path style="fill-rule:evenodd;clip-rule:evenodd;fill:#7B491E;" d="M36.666,65.771c0.19,0.568,0.212,1.322,0.599,1.672
			c2.093,1.898,0.051,3.282-0.721,4.548c-0.592,0.972-2.378,0.701-3.185,0.236c-1.633-0.943-1.692-2.883-1.278-4.504
			c0.331-1.292,1.437-2.145,3.009-1.931c0.535,0.073,1.086,0.025,1.629,0.032C36.719,65.824,36.666,65.771,36.666,65.771z"/>
		<path style="fill-rule:evenodd;clip-rule:evenodd;fill:#7B491E;" d="M66.286,20.872c-0.054,2.456-1.635,4.095-3.327,4.085
			c-1.815-0.011-3.261-1.366-3.259-3.057c0.001-1.673,2.017-3.599,3.857-3.31C65.014,18.82,66.228,19.747,66.286,20.872z"/>
		<path style="fill-rule:evenodd;clip-rule:evenodd;fill:#7B491E;" d="M93.356,104.77c-0.917,0.191-1.841-0.17-2.691-0.736
			c-0.789-0.524-1.06-1.296-0.92-2.229c0.235-1.556,2.258-2.626,5.15-2.368c1.545,0.138,1.897,1.554,1.876,2.906
			C96.748,103.866,95.469,104.77,93.356,104.77z"/>
		<path style="fill-rule:evenodd;clip-rule:evenodd;fill:#7B491E;" d="M45.625,24.988c-0.247,1.349-0.877,2.839-2.7,3.218
			c-1.449,0.301-3.651-1.696-3.349-3.092c0.327-1.511,0.752-3.228,2.795-3.434C43.77,21.539,45.57,23.221,45.625,24.988z"/>
		<path style="fill-rule:evenodd;clip-rule:evenodd;fill:#7B491E;" d="M43.708,67.65c0.189,1.531,2.138,2.537,1.038,4.543
			c-0.759,1.383-3.265,2.313-4.449,1.186c-1.369-1.303-0.949-4.998,0.623-5.957c1.063-0.649,1.856,0.631,2.842,0.281L43.708,67.65z"
			/>
		<path style="fill-rule:evenodd;clip-rule:evenodd;fill:#7B491E;" d="M94.903,81.566c0.111,1.601-0.034,3.071-2.312,3.025
			c-1.887-0.038-2.734-1.123-2.878-3.317c-0.137-2.091,1.007-3.169,2.746-3.184C94.447,78.074,95.057,79.641,94.903,81.566z"/>
		<path style="fill-rule:evenodd;clip-rule:evenodd;fill:#7B491E;" d="M27.305,42.036c-0.259-1.643,0.325-3.042,2.259-3.429
			c1.189-0.238,2.931,1.867,2.903,3.3c-0.034,1.743-1.476,3.256-3.085,3.238C27.557,45.125,27.303,44.769,27.305,42.036z"/>
		<path style="fill-rule:evenodd;clip-rule:evenodd;fill:#7B491E;" d="M86.001,38.685c-0.27,1.087-0.917,2.149-2.475,2.216
			c-1.081,0.046-4.063-2.101-4.053-2.808c0.012-0.814,2.993-2.978,4.027-2.771C85.108,35.641,85.986,36.688,86.001,38.685z"/>
		<path style="fill-rule:evenodd;clip-rule:evenodd;fill:#7B491E;" d="M51.918,81.764c-1.197-0.037-2.663,0.372-2.555-1.687
			c0.089-1.697,0.843-3.212,2.569-2.88c1.378,0.267,3.725-0.406,3.994,2.133C56.075,80.726,54.298,81.769,51.918,81.764z"/>
		<path style="fill-rule:evenodd;clip-rule:evenodd;fill:#7B491E;" d="M353.572,180.329c0.008,0.699,0.1,1.41-0.002,2.094
			c-0.085,0.579,0.516,1.408-0.603,1.704c-0.939,0.248-1.8,0.295-2.425-0.515c-0.69-0.895-1.253-1.886-1.902-2.812
			c-0.744-1.064-0.571-2.205,0.487-2.607c0.766-0.292,2.212-1.006,2.738,0.858c0.121,0.428,0.744,1.469,1.764,1.337L353.572,180.329
			z"/>
		<path style="fill-rule:evenodd;clip-rule:evenodd;fill:#7B491E;" d="M341.516,173.366c-0.395,0.771-0.402,1.517-1.235,1.912
			c-0.785,0.373-1.409,0.008-1.737-0.425c-0.766-1.008-1.428-2.126-1.934-3.286c-0.303-0.694-0.113-1.499,0.632-2.022
			c0.796-0.561,1.589-0.735,2.181,0.185C340.183,170.913,340.833,172.167,341.516,173.366z"/>
		<path style="fill-rule:evenodd;clip-rule:evenodd;fill:#7B491E;" d="M342.154,181.301c-1.259-0.108-4.071-2.886-3.815-3.704
			c0.243-0.782,0.582-1.587,1.719-1.478c1.128,0.107,3.926,2.921,3.61,3.856C343.435,180.667,342.885,181.3,342.154,181.301z"/>
		<path style="fill-rule:evenodd;clip-rule:evenodd;fill:#7B491E;" d="M199.669,114.896c-0.529,1.417-1.813,2.09-3.031,2.458
			c-0.916,0.276-1.715-0.636-1.703-1.688c0.022-1.764,1.587-2.056,2.796-2.387C198.762,112.999,199.309,113.929,199.669,114.896z"/>
		<path style="fill-rule:evenodd;clip-rule:evenodd;fill:#7B491E;" d="M345.665,184.564c-1.146,0.063-1.986-0.137-1.883-1.137
			c0.13-1.249,1.034-1.743,2.29-1.675c0.864,0.046,1.916-0.036,1.842,1.141C347.821,184.371,346.466,184.379,345.665,184.564z"/>
		<path style="fill-rule:evenodd;clip-rule:evenodd;fill:#7B491E;" d="M124.484,230.165c0.01,0.49-0.012,0.948-0.704,0.89
			c-0.711-0.06-1.147-0.415-1.155-1.145c-0.004-0.546,0.16-1.037,0.862-0.989C124.167,228.966,124.505,229.404,124.484,230.165z"/>
		<path style="fill-rule:evenodd;clip-rule:evenodd;fill:#7B491E;" d="M11.222,80.688c-0.121-0.078-0.306-0.164-0.297-0.197
			c0.053-0.198,0.151-0.384,0.235-0.574c0.173,0.078,0.346,0.156,0.519,0.234C11.531,80.324,11.384,80.498,11.222,80.688z"/>
		<path style="fill-rule:evenodd;clip-rule:evenodd;fill:none;" d="M180.582,89.415c1.576,3.186,1.858,6.618,1.619,10.078
			c-0.185,2.666,1.029,4.365,3.125,5.717c4.007,2.585,4.012,5.903-0.153,9.03c0.101-2.268-1.385-4.095-1.069-6.301
			c0.059-0.408-0.132-1.01-0.437-0.98c-1.696,0.167-2.925-1.816-4.707-1.007c-1.634,0.742-1.686-0.508-1.37-1.317
			c1.147-2.932,0.906-5.703,0.036-8.694C176.867,93.324,178.529,90.393,180.582,89.415z"/>
		<path style="fill-rule:evenodd;clip-rule:evenodd;fill:none;" d="M171.389,131.091c0.611,0.573,0.243,1.187-0.021,1.48
			c-0.413,0.458-0.851-0.229-1.305-0.305c-2.614-0.439-2.943-2.116-2.933-4.477c0.014-2.974-2.209-5.277-3.249-7.962
			c-0.143-0.37-0.568-0.801-0.314-1.105c0.334-0.4,0.845,0.081,1.115,0.272c2.821,1.998,4.932,4.619,5.728,7.987
			C170.74,128.379,172,129.558,171.389,131.091z"/>
		<path style="fill-rule:evenodd;clip-rule:evenodd;fill:none;" d="M178.367,122.124c1.477,0.037,2.452,1.491,2.203,1.986
			c-0.546,1.087-0.533,3.146-2.165,3.042c-1.436-0.092-0.861-1.756-0.81-2.718C177.636,123.655,176.784,122.319,178.367,122.124z"/>
		<path style="fill-rule:evenodd;clip-rule:evenodd;fill:none;" d="M174.25,144.637c-0.186,0.439,0.434,1.345-0.569,1.407
			c-1.195,0.075-1.121-1.008-1.286-1.765c-0.148-0.678,0.172-1.396,0.841-1.401C174.274,142.873,174.276,143.785,174.25,144.637z"/>
		<path style="fill-rule:evenodd;clip-rule:evenodd;fill:none;" d="M324.055,104.041c0.179,1.581-1.036,2.651-1.482,3.998
			c-0.3,0.908-1.399,0.664-1.709,0.254c-1.453-1.927-3.569-3.133-5.121-4.943c-0.881-1.027-0.904-1.859,0.044-2.812
			c2.195-2.206,3.162-4.795,2.635-7.957c-0.231-1.389,0.23-2.502,1.59-3.482c1.612-1.162,3.551-1.875,4.866-3.518
			c0.534-0.666,1.387-0.404,1.968,0.469c1.312,1.972,1.242,3.549-0.708,5.155c-3.834,3.155-3.873,7.164-2.237,11.459
			C324.059,103.082,324.008,103.58,324.055,104.041z"/>
		<path style="fill-rule:evenodd;clip-rule:evenodd;fill:none;" d="M340.652,66.803c-0.249-0.827-0.215-1.404,0.147-2.11
			c0.886-1.726,1.62-3.467,1.587-5.554c-0.052-3.273,2.882-6.993,6.073-8.128c-0.402,1.899,0.407,3.563,1.322,4.979
			c0.792,1.227,0.473,1.851-0.41,2.507c-1.357,1.009-2.399,2.287-3.202,3.729C344.952,64.41,342.94,65.577,340.652,66.803z"/>
		<path style="fill-rule:evenodd;clip-rule:evenodd;fill:none;" d="M330.185,96.886c-0.29-2.01,0.364-3.973,1.939-3.978
			c1.337-0.004,2.207,1.928,2.247,3.692c0.05,2.198-1.741,2.269-3.021,2.465C329.116,99.409,330.623,97.429,330.185,96.886z"/>
		<path style="fill-rule:evenodd;clip-rule:evenodd;fill:none;" d="M362.394,134.64c-0.979,2.874-0.119,4.704,2.648,5.91
			c0.402,0.176,1.193,0.17,1.17,0.88c-0.016,0.483-0.45,0.747-0.927,0.913c-0.983,0.343-1.326,1.234-1.9,2.016
			c-1.11,1.513-3.073,1.011-4.696,1.224c-0.752,0.098-1.463-0.546-2.351-0.031c-0.627,0.362-0.899-0.26-0.869-0.913
			c0.03-0.636,0.063-0.851,0.929-0.751c2.317,0.267,4.636-2.845,4.063-5.239c-0.216-0.902,0.804-3.757,1.549-4.337
			C362.138,134.42,362.266,134.53,362.394,134.64z"/>
		<path style="fill-rule:evenodd;clip-rule:evenodd;fill:none;" d="M382.063,162.139c-1.214,2.798-1.112,6.355-4.823,7.608
			c-0.908,0.307-1.756,1.277-1.651,3.145c-2.775-2.891-5.349-3.375-7.755,0.159c-0.43-2.112,0.414-3.685,0.428-5.354
			c0.009-1.24,1.842-1.393,2.741-0.304c2.427,2.939,3.605,2.921,6.054,0.116c0.846-0.97,1.926-1.751,2.967-2.527
			c0.602-0.448-0.889-1.297,0.445-1.595C381.063,163.255,381.535,162.573,382.063,162.139z"/>
		<path style="fill-rule:evenodd;clip-rule:evenodd;fill:none;" d="M362.01,134.311c-0.013-1.376,0.257-2.773-0.152-4.118
			c-0.36-1.186,0.789-1.453,1.272-2.037c0.242-0.293,0.571,0.709,0.997,1.03c0.672,0.508,1.145,1.278,1.174,2.122
			c0.044,1.241,0.644,2.971-1.799,2.621c-0.329-0.047-0.737,0.46-1.108,0.711C362.266,134.53,362.138,134.42,362.01,134.311z"/>
		<path style="fill-rule:evenodd;clip-rule:evenodd;fill:none;" d="M375.661,150.083c-1.399-0.008-1.697-1.211-2.262-2.022
			c-0.234-0.336-0.356-1.147,0.235-1.428c0.309-0.146,0.626-0.585,1.2-0.252c0.511,0.296,0.886,0.47,0.84,1.147
			C375.617,148.376,375.661,149.232,375.661,150.083z"/>
		<path style="fill-rule:evenodd;clip-rule:evenodd;fill:none;" d="M368.667,146.815c0.483-0.281,0.227-1.262,1.124-1.199
			c0.426,0.029,0.896,0.224,0.621,0.627c-0.296,0.437-0.198,1.307-1.087,1.248C368.9,147.463,368.576,147.368,368.667,146.815z"/>
		<path style="fill-rule:evenodd;clip-rule:evenodd;fill:none;" d="M355.446,139.01c-0.044,0.938,0.248,1.918-0.479,2.77
			c-0.163-0.953-1.394-2.06,0.532-2.717C355.499,139.063,355.446,139.01,355.446,139.01z"/>
		<path style="fill-rule:evenodd;clip-rule:evenodd;fill:none;" d="M376.158,141.858c0.336,0.055,0.85-0.087,0.843,0.441
			c-0.009,0.696-0.622,0.451-1.012,0.485c-0.373,0.033-0.824-0.006-0.735-0.536C375.334,141.765,375.809,141.891,376.158,141.858z"
			/>
		<path style="fill-rule:evenodd;clip-rule:evenodd;fill:none;" d="M329.57,42.781c-0.101-1.019-1.03-2.126,0.295-2.878
			c0.395-0.224,0.76-0.312,0.938,0.087C331.388,41.312,329.955,41.801,329.57,42.781z"/>
		<path style="fill-rule:evenodd;clip-rule:evenodd;fill:none;" d="M84.665,50.833c-0.23,0.162-0.377,0.348-0.542,0.365
			c-0.397,0.042-0.5-0.278-0.418-0.567c0.037-0.132,0.341-0.277,0.506-0.259C84.354,50.387,84.473,50.626,84.665,50.833z"/>
	</g>
</g>
</svg>
