<?xml version="1.0" encoding="iso-8859-1"?>
<!-- Generator: Adobe Illustrator 16.0.0, SVG Export Plug-In . SVG Version: 6.00 Build 0)  -->
<!DOCTYPE svg PUBLIC "-//W3C//DTD SVG 1.1//EN" "http://www.w3.org/Graphics/SVG/1.1/DTD/svg11.dtd">
<svg version="1.1" id="Layer_1" xmlns="http://www.w3.org/2000/svg" xmlns:xlink="http://www.w3.org/1999/xlink" x="0px" y="0px"
	 width="401.193px" height="210.987px" viewBox="0 0 401.193 210.987" style="enable-background:new 0 0 401.193 210.987;"
	 xml:space="preserve">
<g>
	<g>
		<path style="fill:none;" d="M200.632,210.427c-65.824,0-131.648-0.014-197.473,0.061c-2.164,0.002-2.59-0.425-2.588-2.588
			c0.073-68.247,0.073-136.493,0-204.74C0.569,0.996,0.996,0.571,3.16,0.572c131.648,0.066,263.296,0.066,394.945,0
			c2.163-0.001,2.591,0.423,2.588,2.587c-0.073,68.247-0.073,136.493,0,204.74c0.002,2.163-0.424,2.59-2.588,2.588
			C332.281,210.413,266.457,210.427,200.632,210.427z M52.487,78.398c-1.285-0.396-2.417-0.388-3.606,0.525
			c-2.598,1.994-3.999,4.721-5.351,7.591c-0.818,1.736-0.505,3.132,0.763,4.117c1.267,0.984,2.788,0.33,4.079-0.405
			c1.6-0.912,2.213-2.703,3.419-3.983c3.055-3.243,3.112-4.486,0.624-7.916c3.354-0.974,4.144-3.331,4.452-7.162
			c0.092-1.138-0.119-2.123-1.523-2.276c-1.183-0.129-2.1,0.007-2.703,1.346C51.408,72.977,49.256,75.606,52.487,78.398z
			 M315.209,25.149c1.159-4.105-1.163-6.484-4.704-8.01c-1.05-0.452-1.792-1.166-2.371-1.96c-2.313-3.172-5.748-4.236-9.272-5.016
			c-4.873-1.08-6.643,0.337-6.93,5.181c-0.037,0.608-0.208,1.212-0.359,1.808c-1.185,4.661,0.727,10.239,4.52,12.383
			c1.224,0.691,1.028,1.537,0.799,2.31c-1.271,4.287-0.687,8.28,1.267,12.266c0.619,1.263,1.03,2.947-1.536,3.492
			c-5.669,1.206-9.017,4.932-10.415,10.528c-0.27,1.078-0.79,2.555-1.836,2.738c-3.151,0.549-4.085,3.61-6.316,5.074
			c-4.095,2.686-7.744,5.848-11.28,9.203c-1.472,1.396-3.888,7.696-3.273,9.491c1.323,3.871,0.801,5.333-3.05,6.938
			c-7.578,3.159-10.434,9.289-10.787,16.926c-0.11,2.384-0.871,3.65-3.104,4.702c-4.728,2.227-9.128,5.464-10.617,10.533
			c-1.116,3.807-3.102,6.028-6.27,7.756c-0.62,0.338-1.19,0.854-1.698,1.29c-3.207,2.754-6.938,5.591-7.268,9.983
			c-0.351,4.673-2.767,7.623-6.275,9.523c-5.41,2.93-9.998,7.037-13.919,11.347c-3.653,4.015-7.112,8.738-9.49,13.79
			c-2.387,5.071-0.378,7.679,5.462,8.373c1.42,0.169,2.882,0.347,4.212,0.832c2.004,0.731,3.915,0.652,5.675-0.383
			c1.032-0.607,2.022-0.41,3.038-0.454c4.582-0.198,8.924,1.814,13.591,1.332c2.646-0.274,5.355-0.163,8.084,0.433
			c2.458,0.538,5.142,0.364,7.352-1.531c0.73-0.627,1.847-1.302,2.874-0.844c4.604,2.056,9.132-0.158,12.146-2.348
			c3.532-2.565,6.595-4.039,10.846-3.876c2.109,0.081,4.307-0.39,6.442-0.624c2.014-0.222,4.152,0.315,4.941,3.141
			c0.368,1.317,1.489,2.785,4.097,2.01c3.481-1.035,6.785-2.605,10.541-3.145c2.949-0.423,5.702-1.949,8.86-0.919
			c0.628,0.204,1.572,0.117,2.116-0.231c1.443-0.925,2.549-0.698,3.764,0.407c2.821,2.564,5.92,3.906,9.859,2.473
			c1.038-0.378,2.423,0.009,3.68,0.221c4.094,0.688,8.677,1.319,12.066-1.081c4.687-3.319,9.361-4.724,14.995-4.093
			c1.851,0.207,4.057,0.146,5.806-1.221c2.649-2.071,5.889-2.658,9.027-3.518c5.045-1.383,6.519-0.506,7.237,4.658
			c0.136,0.972,0.59,1.707,1.282,2.004c1.971,0.847,3.491,2.437,5.649,3.021c2.33,0.631,4.434,2.007,5.634,4.127
			c1.185,2.093,2.916,2.995,5.055,3.645c2.282,0.693,4.523,0.771,5.695-1.502c1.24-2.402-0.159-4.813-3.198-5.657
			c-4.816-1.335-6.617-5.298-7.944-9.311c-0.883-2.672-1.87-5.175-3.716-7.185c-1.842-2.005-2.006-3.873-0.712-6.152
			c1.302-2.292,0.736-7.023-1.156-8.403c-5.047-3.677-8.269-8.772-11.464-13.955c-0.965-1.565-1.119-2.738,0.01-4.208
			c1.203-1.564,1.469-3.227,0.543-5.181c-1.531-3.23-2.616-6.683-5.592-9.022c-2.993-2.355-5.094-5.553-7.633-8.336
			c-1.057-1.158-1.852-2.507-2.144-4.294c-0.471-2.884-1.12-5.882-3.737-7.864c-0.685-0.519-0.941-1.141,0.292-1.494
			c3.129-0.894,2.778-3.636,2.172-5.619c-0.862-2.821-1.937-5.684-4.517-7.729c-1.931-1.531-3.358-3.601-1.335-6.245
			c0.329-0.43,0.416-1.246,0.278-1.8c-0.728-2.95-1.196-5.995-2.652-8.711c-0.657-1.225-0.65-2.302-0.01-3.515
			c1.926-3.644,0.53-7.4-3.319-8.524c-4.285-1.251-8.119-3.158-11.639-5.973c-1.979-1.583-4.028-3.587-7.12-3.074
			c-1.294,0.215-1.96-0.907-2.428-2.026c-0.548-1.312-1.578-2.578-1.646-3.903c-0.14-2.682-1.523-5.82,0.547-7.986
			C314.927,30.076,315.68,28.016,315.209,25.149z M171.643,110.393c-1.388-0.649-2.576-2.567-4.123-1.32
			c-1.692,1.363-3.492,2.404-5.285,3.545c-2.384,1.517-4.469,1.047-6.785,0.829c-0.814-0.075-2.102-1.909-2.541-3.721
			c-0.142-0.585-0.312-1.209-0.645-1.694c-1.418-2.066-3.603-3.297-5.818-2.289c-2.081,0.947-2.374,3.258-1.116,5.339
			c1.08,1.785,0.143,2.559-1.322,3.295c-3.226,1.621-3.409,4.694-0.417,6.725c0.995,0.675,2.486,0.707,2.963,2.022
			c0.315,0.868,0.909,0.806,1.474,0.654c0.646-0.175,0.433-0.842,0.465-1.33c0.047-0.719,0.068-1.439,0.101-2.195
			c1.361,0.442,2.953,1.857,3.844,0.977c2.31-2.282,5.75,0.093,7.91-2.327c0.378-0.424,1.359-0.217,1.447,0.93
			c0.111,1.433,0.333,3.039,2.105,3.342c1.778,0.303,1.911-1.726,2.954-2.403c0.92-0.597,0.278-1.595,1.035-2.122
			c0.668-0.466,1.112-1.356,2.114-1.072c0.844,0.239,1.598,0.89,1.734,1.648c0.257,1.433-0.238,3.121,0.338,4.348
			c0.871,1.854,2.562-0.844,3.901,0.239c2.345,1.895,2.55-0.36,2.807-1.698c0.702-3.653-0.498-7.388,0.105-11.016
			c0.812-4.883-3.52-7.055-5.045-10.653c-1.239-2.923-5.625-4.345-4.013-8.722c0.302-0.821-0.505-2.667-2.361-2.629
			c-1.517,0.031-2.767-1.094-2.426-2.228c0.778-2.587-1.188-3.127-2.532-4c-0.812-0.528-1.416-1.2-2.122-1.796
			c-0.735-0.62-0.697-2.415-2.024-1.938c-1.156,0.415-1.63,1.786-1.647,3.105c-0.019,1.389-0.316,2.876,0.078,4.144
			c0.58,1.864-0.227,2.4-1.659,2.031c-2.801-0.722-3.417,0.844-3.453,2.999c-0.039,2.228,0.382,4.288,3.375,3.999
			c2.15-0.208,4.361,0.559,6.475-0.527c0.585-0.3,1.077-0.049,1.577,0.848c2.357,4.221,4.98,8.293,7.524,12.41
			C171.055,108.814,172.425,108.978,171.643,110.393z M66.043,85.333c-2.251-1.112-2.902,1.233-3.845,2.674
			c-1.038,1.586,0.496,2.539,1.329,3.729c0.998,1.426,2.385,2.941-0.207,4.63c-3.504,2.283-3.451,3.415-0.706,7.024
			c1.212,1.595,2.063,2.904-0.721,4.122c-3.349,1.465-3.249,4.741-1.792,6.414c1.608,1.845,0.892,2.926,0.014,4.606
			c-0.773,1.479-2.167,3.212-0.749,5.035c1.608,2.067,0.591,3.351-0.961,4.781c-1.942,1.79-2.62,3.771-0.412,5.999
			c0.584,0.59,0.89,1.508-0.407,2.166c-3.013,1.53-3.084,4.062-1.959,6.836c0.769,1.894,3.112,2.427,3.973,0.688
			c1.234-2.492,4.584-4.643,2.087-8.12c-0.271-0.376-0.111-0.482,0.133-0.66c5.714-4.158,3.383-11.144,5.761-16.479
			c0.135-0.302-0.067-0.823-0.238-1.184c-1.88-3.948-1.165-7.193,2.157-9.897c0.626-0.51,1.381-1.004,1.27-2.017
			c-0.275-2.513,0.14-4.994,0.681-7.405c0.72-3.208-0.875-6.146-0.721-9.291C70.866,86.236,69.071,85.15,66.043,85.333z
			 M25.81,146.181c0.809-2.158-1.09-3.512-2.444-3.187c-3.175,0.763-2.757-1.362-3.146-3c-0.342-1.445-1.359-2.349-2.618-2.81
			c-1.442-0.528-2.392,0.583-3.08,1.609c-1.003,1.493-1.678,3.61-1.618,4.984c0.086,1.959,1.87,3.881,3.063,5.731
			c0.344,0.533,1.28,0.435,1.675-0.064c0.871-1.099,1.415-0.617,2.102,0.164c1.166,1.326,2.846,1.114,4.035,0.519
			C25.088,149.473,26.398,148.275,25.81,146.181z M61.928,51.337c-0.342,1.772,0.427,3.109,2.367,3.902
			c0.477,0.195,1.117,0.276,1.455,0.985c0.975,2.046,2.606,2.654,4.551,1.37c1.926-1.271,2.476-4.254,1.077-6.055
			c-0.941-1.211-0.938-2.146-0.35-3.526c1.175-2.757-0.157-4.712-2.766-4.409c-0.583,0.067-6.29,5.941-6.33,6.531
			C61.911,50.449,61.928,50.764,61.928,51.337z M42.354,143.841c0.359-1.363-0.559-2.097-1.401-2.638
			c-0.922-0.592-1.934-0.46-2.822,0.414c-0.869,0.855-1.634,1.293-2.645-0.185c-1.494-2.183-3.508-1.239-5.178-0.121
			c-1.914,1.282-2.295,4.165-0.875,5.943c1.443,1.807,3.053,3.024,5.048,0.575c0.976-1.198,1.619-0.245,2.228,0.441
			c0.896,1.011,2.071,1.313,3.046,0.522C41.289,147.55,41.773,145.609,42.354,143.841z M63.836,78.066
			c-0.141,2.007,0.455,3.933,2.802,3.22c1.654-0.502,2.738-0.121,4.033,0.473c1.178,0.54,2.363,0.749,3.465-0.171
			c1.288-1.075,0.631-2.4,0.278-3.556c-0.649-2.131-2.639-3.344-3.877-5.101c-0.911-1.293-2.849-0.587-3.887-0.011
			C64.831,73.933,63.556,75.663,63.836,78.066z M41.023,105.161c0.188-2.076-0.625-3.108-1.914-3.346
			c-1.777-0.328-3.539,0.006-4.359,1.977c-0.578,1.388-1.003,2.839-1.556,4.238c-0.472,1.194-1.15,2.594-0.111,3.536
			c1.137,1.032,2.646,1.154,4.317,0.584C41.305,110.816,39.245,106.786,41.023,105.161z M45.505,145.889
			c0,1.272-0.113,2.13,0.029,2.942c0.17,0.973,0.539,1.793,1.583,2.375c1.307,0.729,1.975-0.603,2.239-0.917
			c1.891-2.239,3.836-4.556,3.097-7.896c-0.501-2.27-1.88-2.886-3.858-1.751C46.357,141.924,44.687,143.423,45.505,145.889z
			 M46.161,95.374c-0.097-2.128-1.183-3.501-3.323-3.703c-1.459-0.138-5.038,3.863-4.824,5.534c0.234,1.83,1.5,3.269,3.313,3.688
			C42.952,101.268,46.135,97.436,46.161,95.374z M73.934,65.643c-0.039-3.19-3.775-5.722-6.581-4.165
			c-1.399,0.776-3.156,1.953-2.308,4.342c0.705,1.985,1.538,3.067,3.808,1.871c0.656-0.346,1.781-0.334,2.462-0.007
			C73.739,68.844,73.964,67.473,73.934,65.643z M31.123,114.349c-2.496-0.037-3.327,1.508-4.178,3.068
			c-0.922,1.689-1.223,3.541-0.008,5c0.382,0.458,1.227,1.704,2.53,1.297c2.293-0.718,4.656-4.869,3.993-7.282
			C33.101,115.123,32.231,114.31,31.123,114.349z M157.221,103.069c0.049,0.131-0.076-0.712-0.311-0.745
			c-1.934-0.262-1.9-1.914-2.568-3.165c-0.56-1.048-1.741-1.958-3.028-1.674c-2.211,0.489-2.799,2.584-3.37,4.376
			c-0.482,1.512,1.248,1.608,2.078,2.256c1.652,1.29,3.824,0.389,5.619,1.276C155.873,105.509,157.578,105.106,157.221,103.069z
			 M19.592,130.052c-0.114,3.062,2.104,5.035,4.376,3.893c1.438-0.723,3.198-6.001,2.356-7.388
			c-0.686-1.131-1.748-1.812-3.165-1.354C20.824,125.958,19.885,127.776,19.592,130.052z M59.713,64.448
			c2.389-0.273,3.152-2.043,3.43-4.021c0.222-1.578-2.953-5.423-4.288-5.442c-2.177-0.033-2.438,1.747-2.551,3.178
			C56.095,60.815,58.213,64.395,59.713,64.448z"/>
		<path style="fill-rule:evenodd;clip-rule:evenodd;fill:#7B491E;" d="M315.209,25.149c0.471,2.866-0.282,4.926-2.279,7.015
			c-2.07,2.167-0.687,5.305-0.547,7.986c0.068,1.325,1.099,2.591,1.646,3.903c0.468,1.12,1.134,2.241,2.428,2.026
			c3.092-0.513,5.142,1.492,7.12,3.074c3.52,2.815,7.354,4.722,11.639,5.973c3.85,1.124,5.245,4.88,3.319,8.524
			c-0.641,1.213-0.647,2.291,0.01,3.515c1.456,2.716,1.925,5.762,2.652,8.711c0.138,0.554,0.051,1.37-0.278,1.8
			c-2.023,2.644-0.596,4.714,1.335,6.245c2.58,2.045,3.654,4.908,4.517,7.729c0.606,1.982,0.957,4.725-2.172,5.619
			c-1.233,0.353-0.977,0.975-0.292,1.494c2.617,1.982,3.267,4.98,3.737,7.864c0.292,1.787,1.087,3.136,2.144,4.294
			c2.539,2.783,4.64,5.98,7.633,8.336c2.976,2.34,4.061,5.792,5.592,9.022c0.926,1.954,0.66,3.616-0.543,5.181
			c-1.129,1.47-0.975,2.643-0.01,4.208c3.195,5.183,6.417,10.278,11.464,13.955c1.893,1.38,2.458,6.111,1.156,8.403
			c-1.294,2.279-1.13,4.147,0.712,6.152c1.846,2.01,2.833,4.513,3.716,7.185c1.327,4.013,3.128,7.976,7.944,9.311
			c3.039,0.844,4.438,3.255,3.198,5.657c-1.172,2.272-3.413,2.195-5.695,1.502c-2.139-0.649-3.87-1.552-5.055-3.645
			c-1.2-2.12-3.304-3.496-5.634-4.127c-2.158-0.584-3.679-2.174-5.649-3.021c-0.692-0.297-1.146-1.032-1.282-2.004
			c-0.719-5.164-2.192-6.041-7.237-4.658c-3.139,0.859-6.378,1.446-9.027,3.518c-1.749,1.367-3.955,1.428-5.806,1.221
			c-5.634-0.631-10.309,0.773-14.995,4.093c-3.39,2.4-7.973,1.769-12.066,1.081c-1.257-0.212-2.642-0.599-3.68-0.221
			c-3.939,1.434-7.038,0.092-9.859-2.473c-1.215-1.105-2.32-1.332-3.764-0.407c-0.544,0.349-1.488,0.436-2.116,0.231
			c-3.158-1.03-5.911,0.496-8.86,0.919c-3.756,0.539-7.06,2.109-10.541,3.145c-2.607,0.775-3.729-0.692-4.097-2.01
			c-0.789-2.825-2.928-3.362-4.941-3.141c-2.136,0.234-4.333,0.705-6.442,0.624c-4.251-0.163-7.313,1.311-10.846,3.876
			c-3.014,2.189-7.541,4.403-12.146,2.348c-1.027-0.458-2.144,0.217-2.874,0.844c-2.21,1.896-4.894,2.069-7.352,1.531
			c-2.729-0.596-5.438-0.707-8.084-0.433c-4.667,0.482-9.009-1.53-13.591-1.332c-1.016,0.044-2.006-0.153-3.038,0.454
			c-1.76,1.035-3.671,1.114-5.675,0.383c-1.33-0.485-2.792-0.663-4.212-0.832c-5.841-0.694-7.849-3.302-5.462-8.373
			c2.378-5.052,5.836-9.775,9.49-13.79c3.921-4.31,8.509-8.417,13.919-11.347c3.509-1.9,5.925-4.851,6.275-9.523
			c0.33-4.393,4.061-7.229,7.268-9.983c0.508-0.437,1.078-0.952,1.698-1.29c3.168-1.728,5.153-3.949,6.27-7.756
			c1.489-5.069,5.89-8.307,10.617-10.533c2.232-1.052,2.993-2.318,3.104-4.702c0.354-7.637,3.209-13.767,10.787-16.926
			c3.851-1.605,4.373-3.068,3.05-6.938c-0.614-1.795,1.802-8.095,3.273-9.491c3.536-3.354,7.186-6.517,11.28-9.203
			c2.231-1.464,3.165-4.525,6.316-5.074c1.046-0.183,1.566-1.661,1.836-2.738c1.398-5.597,4.746-9.323,10.415-10.528
			c2.566-0.545,2.155-2.229,1.536-3.492c-1.953-3.985-2.537-7.979-1.267-12.266c0.229-0.772,0.425-1.619-0.799-2.31
			c-3.793-2.145-5.704-7.722-4.52-12.383c0.151-0.595,0.322-1.2,0.359-1.808c0.287-4.844,2.057-6.261,6.93-5.181
			c3.524,0.78,6.959,1.844,9.272,5.016c0.579,0.794,1.321,1.509,2.371,1.96C314.046,18.665,316.369,21.044,315.209,25.149z
			 M304.03,51.471c-0.238,0.771-0.563,1.528-0.698,2.317c-0.667,3.907-2.192,7.248-5.88,9.213c-1.337,0.712-2.347,1.944-2.254,3.29
			c0.132,1.93-0.902,3.368-1.413,5c-1.607,5.131-5.075,8.616-10.391,9.475c-2.994,0.483-3.421,2.471-4.038,4.54
			c-0.289,0.967-0.02,2.092-0.057,3.145c-0.136,3.879-3.599,9.039-6.725,10.052c-4.085,1.324-5.677,3.98-4.115,7.861
			c1.897,4.718-0.844,8.409-4.643,9.726c-1.979,0.687-2.693,1.963-2.825,3.78c-0.409,5.661-3.076,8.581-8.73,10.423
			c-1.844,0.601-4.652,0.616-5.124,3.3c-0.604,3.437-2.737,5.988-4.783,8.456c-3.503,4.227-8.182,7.214-11.553,11.83
			c-2.434,3.333-6.257,5.594-8.896,9.385c-2.277,3.272-5.41,7.492-10.498,8.136c-0.508,0.063-0.968,0.761-1.38,1.225
			c-0.287,0.322-1.024,0.591-0.432,1.198c0.264,0.271,0.771,0.625,1.027,0.536c4.532-1.569,9.348-0.266,13.862-1.359
			c1.847-0.446,3.396-0.544,5.076,0.134c3.712,1.495,6.82,0.616,9.455-2.334c1.175-1.316,2.596-2.132,4.314-2.829
			c6.446-2.61,12.94-2.304,19.579-1.233c1.456,0.235,3.133,0.61,4.564-0.41c2.447-1.747,5.135-2.648,8.145-3.115
			c5.387-0.833,10.62-2.36,16.203-2.162c5.302,0.188,10.492,1.496,15.787,1.296c2.011-0.075,3.85,0.348,5.105,1.654
			c3.241,3.375,7.154,2.435,10.824,1.74c2.069-0.392,3.777-0.241,5.796,0.094c3.121,0.519,6.552,1.523,9.291-1.651
			c1.159-1.345,2.94-1.991,5.02-1.845c3.354,0.236,6.736,0.073,10.106,0.061c2.741-0.011,3.655-1.508,2.19-3.825
			c-0.496-0.784-0.982-1.619-1.976-2.197c-2.047-1.191-3.35-3.055-3.965-5.494c-0.938-3.716-2.802-6.705-6.126-9.118
			c-3.025-2.196-5.875-4.939-7.208-8.821c-1.084-3.155-0.807-4.861,2.128-5.83c1.927-0.636,1.384-1.775,0.818-2.554
			c-0.995-1.373-2.277-2.595-3.633-3.625c-0.624-0.475-0.987-0.737-1.106-1.583c-0.47-3.344-1.968-6.229-4.464-8.513
			c-1.937-1.771-2.676-3.52-0.953-5.946c0.78-1.098,0.998-2.935-0.503-3.579c-3.544-1.521-6.335-4.391-10.216-5.327
			c-2.278-0.55-3.365-2.714-3.973-4.75c-0.679-2.272,0.909-3.809,3.699-4.028c1.883-0.148,3.966-0.325,4.821-2.166
			c0.832-1.791-1.496-2.156-2.182-3.296c-0.784-1.304-1.913-2.385-0.851-4.448c2.511-4.878,2.318-4.986-2.339-8.024
			c-0.597-0.39-1.352-0.575-1.872-1.036c-2.314-2.053-6.015-2.979-6.33-6.693c-0.196-2.317-1.104-4.23-2.724-5.456
			C305.329,54.833,304.607,53.413,304.03,51.471z"/>
		<path style="fill-rule:evenodd;clip-rule:evenodd;fill:#7B491E;" d="M171.643,110.393c0.782-1.415-0.588-1.578-1.006-2.255
			c-2.544-4.117-5.167-8.189-7.524-12.41c-0.5-0.896-0.992-1.148-1.577-0.848c-2.114,1.086-4.325,0.32-6.475,0.527
			c-2.993,0.289-3.414-1.771-3.375-3.999c0.037-2.155,0.652-3.721,3.453-2.999c1.432,0.369,2.238-0.167,1.659-2.031
			c-0.394-1.267-0.096-2.755-0.078-4.144c0.017-1.319,0.491-2.69,1.647-3.105c1.328-0.477,1.29,1.317,2.024,1.938
			c0.706,0.596,1.31,1.269,2.122,1.796c1.344,0.873,3.31,1.413,2.532,4c-0.341,1.134,0.909,2.259,2.426,2.228
			c1.856-0.038,2.663,1.808,2.361,2.629c-1.612,4.377,2.774,5.799,4.013,8.722c1.525,3.598,5.857,5.771,5.045,10.653
			c-0.603,3.628,0.597,7.362-0.105,11.016c-0.257,1.338-0.462,3.593-2.807,1.698c-1.339-1.083-3.03,1.615-3.901-0.239
			c-0.576-1.227-0.082-2.915-0.338-4.348c-0.136-0.759-0.891-1.409-1.734-1.648c-1.002-0.284-1.446,0.606-2.114,1.072
			c-0.757,0.527-0.115,1.525-1.035,2.122c-1.043,0.678-1.176,2.706-2.954,2.403c-1.772-0.303-1.995-1.909-2.105-3.342
			c-0.088-1.146-1.069-1.354-1.447-0.93c-2.16,2.42-5.601,0.045-7.91,2.327c-0.892,0.881-2.483-0.534-3.844-0.977
			c-0.033,0.756-0.054,1.477-0.101,2.195c-0.032,0.488,0.181,1.155-0.465,1.33c-0.565,0.151-1.159,0.214-1.474-0.654
			c-0.477-1.315-1.968-1.348-2.963-2.022c-2.992-2.03-2.809-5.104,0.417-6.725c1.465-0.736,2.402-1.51,1.322-3.295
			c-1.258-2.081-0.965-4.392,1.116-5.339c2.215-1.008,4.4,0.223,5.818,2.289c0.333,0.485,0.502,1.109,0.645,1.694
			c0.439,1.812,1.727,3.646,2.541,3.721c2.315,0.218,4.4,0.688,6.785-0.829c1.793-1.141,3.593-2.182,5.285-3.545
			C169.067,107.825,170.255,109.743,171.643,110.393z"/>
		<path style="fill-rule:evenodd;clip-rule:evenodd;fill:#7B491E;" d="M66.043,85.333c3.028-0.183,4.823,0.903,4.688,3.654
			c-0.154,3.146,1.441,6.083,0.721,9.291c-0.541,2.411-0.956,4.892-0.681,7.405c0.111,1.013-0.644,1.507-1.27,2.017
			c-3.322,2.704-4.037,5.949-2.157,9.897c0.171,0.36,0.373,0.882,0.238,1.184c-2.377,5.335-0.047,12.32-5.761,16.479
			c-0.245,0.178-0.404,0.284-0.133,0.66c2.497,3.478-0.853,5.628-2.087,8.12c-0.861,1.738-3.205,1.205-3.973-0.688
			c-1.125-2.774-1.054-5.306,1.959-6.836c1.296-0.658,0.991-1.576,0.407-2.166c-2.208-2.228-1.53-4.209,0.412-5.999
			c1.552-1.431,2.569-2.714,0.961-4.781c-1.418-1.823-0.024-3.556,0.749-5.035c0.878-1.681,1.594-2.762-0.014-4.606
			c-1.458-1.673-1.557-4.949,1.792-6.414c2.785-1.218,1.934-2.527,0.721-4.122c-2.746-3.61-2.799-4.741,0.706-7.024
			c2.592-1.688,1.204-3.204,0.207-4.63c-0.833-1.19-2.367-2.144-1.329-3.729C63.141,86.566,63.792,84.222,66.043,85.333z"/>
		<path style="fill-rule:evenodd;clip-rule:evenodd;fill:#7B491E;" d="M25.81,146.181c0.588,2.095-0.722,3.292-2.03,3.947
			c-1.189,0.596-2.869,0.808-4.035-0.519c-0.687-0.781-1.231-1.263-2.102-0.164c-0.395,0.499-1.331,0.598-1.675,0.064
			c-1.194-1.851-2.977-3.772-3.063-5.731c-0.06-1.374,0.615-3.491,1.618-4.984c0.688-1.026,1.638-2.138,3.08-1.609
			c1.259,0.461,2.275,1.364,2.618,2.81c0.388,1.638-0.029,3.763,3.146,3C24.72,142.669,26.619,144.022,25.81,146.181z"/>
		<path style="fill-rule:evenodd;clip-rule:evenodd;fill:#7B491E;" d="M61.928,51.337c0-0.573-0.018-0.889,0.004-1.202
			c0.041-0.59,5.747-6.464,6.33-6.531c2.609-0.303,3.941,1.652,2.766,4.409c-0.588,1.38-0.591,2.315,0.35,3.526
			c1.399,1.8,0.849,4.783-1.077,6.055c-1.945,1.284-3.576,0.677-4.551-1.37c-0.338-0.709-0.978-0.791-1.455-0.985
			C62.355,54.447,61.586,53.109,61.928,51.337z"/>
		<path style="fill-rule:evenodd;clip-rule:evenodd;fill:#7B491E;" d="M42.354,143.841c-0.581,1.769-1.065,3.709-2.599,4.953
			c-0.976,0.791-2.15,0.488-3.046-0.522c-0.609-0.687-1.251-1.64-2.228-0.441c-1.996,2.449-3.605,1.231-5.048-0.575
			c-1.42-1.778-1.039-4.661,0.875-5.943c1.67-1.118,3.684-2.062,5.178,0.121c1.011,1.478,1.776,1.04,2.645,0.185
			c0.889-0.874,1.9-1.006,2.822-0.414C41.795,141.744,42.713,142.478,42.354,143.841z"/>
		<path style="fill-rule:evenodd;clip-rule:evenodd;fill:#7B491E;" d="M52.416,78.327c2.488,3.43,2.43,4.673-0.625,7.916
			c-1.206,1.28-1.82,3.072-3.419,3.983c-1.291,0.735-2.812,1.39-4.079,0.405c-1.268-0.985-1.581-2.381-0.763-4.117
			c1.353-2.87,2.753-5.597,5.351-7.591c1.188-0.913,2.321-0.921,3.606-0.525L52.416,78.327z"/>
		<path style="fill-rule:evenodd;clip-rule:evenodd;fill:#7B491E;" d="M63.836,78.066c-0.281-2.403,0.995-4.133,2.814-5.145
			c1.039-0.577,2.977-1.282,3.887,0.011c1.238,1.757,3.228,2.97,3.877,5.101c0.353,1.156,1.009,2.48-0.278,3.556
			c-1.103,0.92-2.288,0.711-3.465,0.171c-1.295-0.594-2.379-0.976-4.033-0.473C64.291,81.999,63.695,80.073,63.836,78.066z"/>
		<path style="fill-rule:evenodd;clip-rule:evenodd;fill:#7B491E;" d="M41.023,105.161c-1.778,1.625,0.282,5.655-3.624,6.989
			c-1.671,0.57-3.181,0.448-4.317-0.584c-1.039-0.942-0.36-2.342,0.111-3.536c0.553-1.399,0.979-2.851,1.556-4.238
			c0.821-1.971,2.583-2.304,4.359-1.977C40.398,102.053,41.21,103.085,41.023,105.161z"/>
		<path style="fill-rule:evenodd;clip-rule:evenodd;fill:#7B491E;" d="M45.505,145.889c-0.818-2.466,0.853-3.965,3.09-5.247
			c1.979-1.135,3.357-0.519,3.858,1.751c0.739,3.341-1.206,5.657-3.097,7.896c-0.265,0.314-0.932,1.646-2.239,0.917
			c-1.044-0.582-1.412-1.402-1.583-2.375C45.392,148.019,45.505,147.161,45.505,145.889z"/>
		<path style="fill-rule:evenodd;clip-rule:evenodd;fill:#7B491E;" d="M46.161,95.374c-0.025,2.062-3.209,5.894-4.833,5.518
			c-1.813-0.419-3.079-1.858-3.313-3.688c-0.213-1.67,3.365-5.671,4.824-5.534C44.978,91.872,46.064,93.245,46.161,95.374z"/>
		<path style="fill-rule:evenodd;clip-rule:evenodd;fill:#7B491E;" d="M73.935,65.645c0.029,1.828-0.196,3.199-2.62,2.038
			c-0.681-0.327-1.806-0.339-2.462,0.007c-2.27,1.197-3.103,0.115-3.808-1.871c-0.849-2.389,0.909-3.565,2.308-4.342
			C70.159,59.92,73.895,62.452,73.935,65.645z"/>
		<path style="fill-rule:evenodd;clip-rule:evenodd;fill:#7B491E;" d="M31.123,114.349c1.109-0.039,1.978,0.774,2.337,2.083
			c0.663,2.413-1.7,6.564-3.993,7.282c-1.304,0.407-2.148-0.839-2.53-1.297c-1.214-1.459-0.914-3.311,0.008-5
			C27.795,115.856,28.627,114.312,31.123,114.349z"/>
		<path style="fill-rule:evenodd;clip-rule:evenodd;fill:#7B491E;" d="M157.221,103.069c0.356,2.037-1.348,2.439-1.581,2.325
			c-1.795-0.887-3.967,0.014-5.619-1.276c-0.83-0.648-2.56-0.744-2.078-2.256c0.571-1.792,1.159-3.887,3.37-4.376
			c1.288-0.284,2.468,0.626,3.028,1.674c0.668,1.251,0.635,2.903,2.568,3.165C157.146,102.357,157.271,103.2,157.221,103.069z"/>
		<path style="fill-rule:evenodd;clip-rule:evenodd;fill:#7B491E;" d="M19.592,130.052c0.293-2.275,1.231-4.094,3.567-4.849
			c1.417-0.458,2.479,0.223,3.165,1.354c0.842,1.387-0.918,6.665-2.356,7.388C21.696,135.087,19.478,133.114,19.592,130.052z"/>
		<path style="fill-rule:evenodd;clip-rule:evenodd;fill:#7B491E;" d="M59.713,64.448c-1.5-0.053-3.619-3.632-3.41-6.286
			c0.113-1.431,0.375-3.21,2.551-3.178c1.335,0.02,4.51,3.865,4.288,5.442C62.865,62.404,62.103,64.174,59.713,64.448z"/>
		<path style="fill-rule:evenodd;clip-rule:evenodd;fill:#7B491E;" d="M52.487,78.398c-3.231-2.792-1.08-5.422,0.153-8.163
			c0.603-1.339,1.52-1.475,2.703-1.346c1.405,0.153,1.615,1.138,1.523,2.276c-0.308,3.831-1.097,6.188-4.452,7.162
			C52.416,78.327,52.487,78.398,52.487,78.398z"/>
		<path style="fill-rule:evenodd;clip-rule:evenodd;fill:none;" d="M304.03,51.471c0.577,1.941,1.299,3.361,2.961,4.617
			c1.619,1.225,2.527,3.139,2.724,5.456c0.315,3.714,4.016,4.64,6.33,6.693c0.521,0.461,1.275,0.646,1.872,1.036
			c4.657,3.039,4.85,3.146,2.339,8.024c-1.062,2.063,0.066,3.145,0.851,4.448c0.686,1.14,3.014,1.505,2.182,3.296
			c-0.855,1.841-2.938,2.018-4.821,2.166c-2.79,0.219-4.378,1.756-3.699,4.028c0.607,2.037,1.694,4.201,3.973,4.75
			c3.881,0.936,6.672,3.806,10.216,5.327c1.501,0.644,1.283,2.481,0.503,3.579c-1.723,2.427-0.983,4.175,0.953,5.946
			c2.496,2.284,3.994,5.169,4.464,8.513c0.119,0.846,0.482,1.108,1.106,1.583c1.355,1.03,2.638,2.252,3.633,3.625
			c0.565,0.778,1.108,1.918-0.818,2.554c-2.935,0.969-3.212,2.675-2.128,5.83c1.333,3.882,4.183,6.625,7.208,8.821
			c3.324,2.413,5.188,5.402,6.126,9.118c0.615,2.439,1.918,4.303,3.965,5.494c0.993,0.578,1.479,1.413,1.976,2.197
			c1.465,2.317,0.551,3.814-2.19,3.825c-3.37,0.013-6.752,0.176-10.106-0.061c-2.079-0.146-3.86,0.5-5.02,1.845
			c-2.739,3.175-6.17,2.17-9.291,1.651c-2.019-0.335-3.727-0.485-5.796-0.094c-3.67,0.694-7.583,1.635-10.824-1.74
			c-1.256-1.307-3.095-1.729-5.105-1.654c-5.295,0.2-10.485-1.108-15.787-1.296c-5.583-0.198-10.816,1.329-16.203,2.162
			c-3.01,0.467-5.697,1.368-8.145,3.115c-1.432,1.021-3.108,0.646-4.564,0.41c-6.639-1.07-13.133-1.377-19.579,1.233
			c-1.719,0.697-3.14,1.513-4.314,2.829c-2.635,2.95-5.743,3.829-9.455,2.334c-1.681-0.678-3.229-0.58-5.076-0.134
			c-4.515,1.094-9.33-0.21-13.862,1.359c-0.256,0.089-0.764-0.266-1.027-0.536c-0.593-0.607,0.145-0.876,0.432-1.198
			c0.412-0.464,0.872-1.161,1.38-1.225c5.088-0.644,8.221-4.863,10.498-8.136c2.639-3.791,6.462-6.052,8.896-9.385
			c3.371-4.616,8.05-7.604,11.553-11.83c2.046-2.468,4.18-5.02,4.783-8.456c0.472-2.684,3.28-2.699,5.124-3.3
			c5.654-1.842,8.321-4.762,8.73-10.423c0.132-1.817,0.846-3.094,2.825-3.78c3.799-1.316,6.54-5.008,4.643-9.726
			c-1.562-3.881,0.03-6.537,4.115-7.861c3.126-1.014,6.589-6.173,6.725-10.052c0.037-1.052-0.232-2.177,0.057-3.145
			c0.617-2.069,1.044-4.057,4.038-4.54c5.315-0.858,8.783-4.344,10.391-9.475c0.511-1.632,1.545-3.071,1.413-5
			c-0.093-1.346,0.917-2.578,2.254-3.29c3.688-1.966,5.213-5.306,5.88-9.213C303.466,52.999,303.792,52.243,304.03,51.471z"/>
	</g>
</g>
</svg>
