<?xml version="1.0" encoding="iso-8859-1"?>
<!-- Generator: Adobe Illustrator 16.0.0, SVG Export Plug-In . SVG Version: 6.00 Build 0)  -->
<!DOCTYPE svg PUBLIC "-//W3C//DTD SVG 1.1//EN" "http://www.w3.org/Graphics/SVG/1.1/DTD/svg11.dtd">
<svg version="1.1" id="Layer_1" xmlns="http://www.w3.org/2000/svg" xmlns:xlink="http://www.w3.org/1999/xlink" x="0px" y="0px"
	 width="401.092px" height="222.494px" viewBox="0 0 401.092 222.494" style="enable-background:new 0 0 401.092 222.494;"
	 xml:space="preserve">
<g>
	<g>
		<path style="fill:none;" d="M200.546,221.948c-65.929,0-131.857-0.009-197.786,0.046c-1.845,0.002-2.262-0.415-2.26-2.26
			C0.554,147.409,0.554,75.085,0.5,2.76C0.499,0.916,0.916,0.5,2.76,0.5c131.857,0.051,263.715,0.051,395.572,0
			c1.844,0,2.262,0.416,2.26,2.26c-0.055,72.325-0.055,144.649,0,216.974c0.002,1.845-0.416,2.262-2.26,2.26
			C332.404,221.939,266.475,221.948,200.546,221.948z M358.633,148.14c1.723,0.278,3.104-0.459,3.5-2.302
			c0.79-3.681,0.793-7.468,0.435-11.165c-0.261-2.697-0.424-5.951-4.33-6.474c-0.468-0.062-0.921-0.42-1.153-1.046
			c-0.689-1.855-1.759-3.605-2.193-5.508c-0.347-1.517-1.364-3.068-0.527-4.748c1.493-2.996,2.169-6.084-0.12-8.912
			c-1.309-1.617-0.778-4.179-2.806-5.227c-1.182-0.611-1.593-1.291-1.622-2.614c-0.036-1.621-0.987-2.8-2.777-2.639
			c-3.146,0.284-4.278-1.25-4.231-4.342c0.038-2.506,0.403-5.34-1.577-7.546c-0.989-1.102-1.964-2.221-2.891-3.375
			c-0.989-1.231-1.903-1.354-2.968-0.072c-0.617,0.744-1.42,1.296-1.271,2.475c0.151,1.184-0.606,1.601-1.679,1.502
			c-0.957-0.087-1.906,0.167-2.883-0.29c-0.865-0.405-2.023-0.57-2.634,0.445c-1.274,2.119-2.628,4.24-3.497,6.532
			c-0.387,1.019-0.674,1.317-1.568,1.183c-1.726-0.258-2.502,0.84-3.506,2.004c-4.123,4.78-5.446,10.861-7.764,16.451
			c-2.938,7.087-5.901,14.135-9.844,20.736c-1.197,2.005-1.261,3.76,0.328,5.878c1.733,2.312,4.942,3.805,4.268,7.775
			c-0.28,1.652,1.576,2.199,3.424,1.443c1.813-0.742,3.754-1.275,5.689-1.599c4.271-0.716,8.583-1.146,12.896-1.581
			c7.609-0.768,14.613-4.493,22.458-4.528c2.197-0.011,2.623,0.251,3.122,2.206C354.081,147.37,355.49,148.305,358.633,148.14z
			 M194.382,141.704c-0.767-1.154,0.177-1.835,1.121-1.839c1.396-0.007,2.478-0.648,3.607-1.192
			c0.814-0.392,1.465-0.506,2.266-0.042c2.251,1.304,4.445,0.798,6.564-0.358c1.594-0.869,3.312-1.659,4.755-2.606
			c1.83-1.202,3.763-0.132,5.335-1.091c1.525-0.929,3.155-0.467,4.717-0.732c2.198-0.374,2.877,1.243,3.945,2.527
			c1.414,1.698,4.072,2.035,5.03,0.633c1.3-1.901,0.206-3.172-1.351-4.354c-1.149-0.874-2.118-1.743-2.146-3.631
			c-0.035-2.49-1.724-4.671-2.434-7.11c-0.558-1.915-2.188-3.521-3.355-5.255c-0.933-1.386-2.101-2.656-1.027-4.559
			c0.383-0.679-0.446-1.283-0.694-1.921c-0.978-2.521-3.088-4.445-3.316-7.43c-0.143-1.872-0.798-3.77-2.789-5.217
			c-1.928-1.401-4.089-1.955-5.994-3.053c-2.542-1.466-4.409-3.985-5.353-6.951c-0.446-1.4-0.823-2.75-2.723-2.874
			c-1.923-0.125-3.223,0.451-3.884,2.359c-0.143,0.413-0.169,1.184-1.039,1.118c-1.137-0.086-0.579-0.945-0.743-1.473
			c-0.577-1.858-1.886-2.339-3.719-1.547c-1.839,0.794-2.495,2.452-3.088,4.084c-0.24,0.66-0.519,1.446-1.017,1.538
			c-2.691,0.493-3.74,2.845-5.427,4.485c-2.406,2.339-4.892,4.597-7.349,6.882c-0.604,0.562-1.386,1.17-1.002,2.047
			c1.438,3.294-0.848,5.185-2.758,7.013c-1.48,1.417-2.479,2.972-3.197,4.835c-1.491,3.873-1.771,8.327-5.608,11.098
			c-0.727,0.525-1.281,1.803-1.27,3.013c0.014,1.529,0.014,3.031-0.416,4.563c-0.345,1.229,0.021,2.796,1.153,3.43
			c1.092,0.611,2.294,0.213,3.349-0.93c0.712-0.77,2.119-1.104,3.253-1.21c0.938-0.087,1.304,1.009,1.741,1.786
			c0.444,0.79,1.287,0.497,1.995,0.572c1.718,0.184,3.523-1.204,4.993-0.392c1.877,1.037,3.756,0.983,5.625,0.854
			c3.072-0.213,5.156,1.478,7.307,3.185c0.688,0.545,1.339,1.17,2.102,1.58C192.843,144.242,194.426,143.256,194.382,141.704z
			 M246.682,87.155c-0.927-0.193-2.125,0.074-2.224,0.931c-0.333,2.868-2.851,2.294-4.432,2.897
			c-2.464,0.94-3.101,2.127-1.699,4.447c0.464,0.769,1.312,1.501-0.323,2.124c-1.343,0.512-1.335,1.512-0.356,2.604
			c2.193,2.446,3.914,5.144,5.145,8.261c0.447,1.134,0.728,2.48,1.704,3.59c3.275,3.726,7.173,6.979,9.302,11.635
			c0.907,1.985,3.646,2.79,4.17,4.462c0.705,2.247,2.113,3.756,3.412,5.381c1.891,2.365,4.04,4.776,7.402,4.726
			c1.173-0.019,2.163,0.136,3.077,0.646c2.701,1.506,3.517,1.211,4.715-1.556c0.907-2.095,1.329-4.505,2.417-6.328
			c1.589-2.658,3.271-5.584,3.163-8.28c-0.141-3.531,3.172-7.884-1.573-10.776c-0.089-0.055-0.091-0.313-0.072-0.471
			c0.438-3.744-0.745-7.611,0.982-11.271c0.83-1.757,1.143-3.499-1.106-4.724c-1.447-0.788-1.17-1.633,0.223-2.466
			c1.134-0.678,2.346-1.701,1.351-3.251c-1.127-1.753-2.331-3.523-3.985-4.814c-1.71-1.336-3.71-0.859-5.501-0.128
			c-1.246,0.508-1.783,1.567-1.039,3.01c0.106,0.207-0.138,1.618-0.976,1.194c-2.284-1.155-4.849-0.335-7.051-1.131
			c-1.754-0.634-2.656-0.024-4.005,0.784c-1.169,0.7-2.616-1.354-4.174-0.154c-1.332,1.026-2.75,0.937-4.225-0.034
			C249.749,87.634,248.332,87.016,246.682,87.155z M166.848,95.011c3.623,0.471,4.945-2.083,5.361-4.538
			c0.147-0.869,0.528-2.129-0.625-2.654c-1.167-0.53-2.329-0.225-3.258,0.748c-1.396,1.462-3.273,2.018-5.024,1.392
			c-2.095-0.75-4.693-0.538-6.141-2.839c-0.506-0.804-1.496-0.713-2.178-0.167c-2.905,2.324-6.458,1.147-9.062,0.434
			c-3.922-1.074-7.526-0.19-11.208-0.022c-1.758,0.081-2.772,0.038-3.722-1.416c-1.885-2.885-6.208-3.709-9.09-1.899
			c-1.585,0.996-2.915,2.46-5.173,2.213c-0.875-0.096-1.749,0.994-2.043,2.118c-0.548,2.092-0.067,4.088,1.004,5.793
			c0.815,1.297,1.227,2.452,0.439,3.734c-0.788,1.283-0.397,2.167,0.674,2.878c2.127,1.413,4.608,2.335,6.17,4.526
			c0.06,0.083,0.331-0.014,0.475,0.044c1.292,0.516,2.114,1.572,2.452,2.806c0.23,0.841,0.336,1.727,0.778,2.489
			c1.635,2.818,3.342,5.594,4.945,8.43c1.286,2.273,2.292,2.539,4.2,0.762c0.876-0.817,1.286-0.879,2.035,0.191
			c0.788,1.127,0.974,2.786,2.497,3.307c2.533,0.864,4.189,2.958,6.272,4.44c2.239,1.593,3.048,1.59,4.496-0.886
			c0.616-1.055,1.105-2.41,2.046-3.007c2.89-1.83,2.915-3.867,1.065-6.389c-0.316-0.431-0.489-1.086,0.379-1.325
			c3.052-0.842,3.164-3.771,2.693-5.656c-0.733-2.933,0.665-5.145,1.233-7.623c0.336-1.465,0.712-2.626-0.302-4.054
			c-1.451-2.041-0.117-4.172,2.33-4.365C162.716,94.309,164.735,95.107,166.848,95.011z M191.462,21.916
			c-0.068,0.724-0.16,1.275-0.253,1.823c-0.32,1.871-0.557,3.781-0.566,5.677c-0.016,3.036,2.074,5.493,2.199,8.755
			c0.084,2.186,1.012,4.898,1.733,7.303c1.444,4.812,3.546,9.422,5.206,14.175c0.905,2.59,3.185,3.621,4.994,5.262
			c2.409,2.186,3.83,2.102,5.518-0.736c1.83-3.077,3.985-5.953,6.004-8.902c3.136-4.581,6.776-8.8,10.647-12.82
			c2.15-2.234,1.716-4.25-0.861-6.095c-4.062-2.911-8.13-5.76-12.742-7.84c-6.876-3.102-10.634-9.618-15.516-14.89
			c-0.809-0.873-1.576-1.819-1.938-2.983c-0.653-2.101-3.037-3.754-4.61-3.146c-1.676,0.648-2.803,4.112-2.019,5.889
			C190.478,16.153,190.854,19.149,191.462,21.916z M345.891,188.017c0.45,0.051,0.464,0.37,0.534,0.689
			c1.095,4.942,2.735,9.699,5.443,13.985c1.678,2.655,4.153,4.699,5.808,7.466c1.297,2.169,5.361,1.873,6.459,0.046
			c2.307-3.844,3.448-8.2,5.61-12.155c1.904-3.481,3.065-7.425,5.211-10.872c2.007-3.224,3.783-6.602,5.971-9.693
			c0.815-1.153,1.143-2.197,0.828-3.337c-0.317-1.151-1.497-1.591-2.618-1.884c-2.058-0.535-4.157-0.526-6.261-0.501
			c-5.848,0.071-11.665-0.223-17.483-0.923c-3.779-0.456-7.621-0.497-11.436-0.517c-3.438-0.018-5.417,2.499-4.131,4.95
			c1.243,2.371,2.423,4.777,3.72,7.119c0.829,1.496,1.504,3.056,1.345,4.741c-0.099,1.051-1.493,0.537-2.246,1.182
			c-1.081,0.926-0.723,1.8-0.409,2.545c0.467,1.109,1.688,1.412,2.716,0.997c0.791-0.319,1.252-1.241,0.83-2.204
			C345.52,189.056,345.107,188.525,345.891,188.017z M300.177,26.488c-0.002-2.208-1.834-4.855-2.838-4.187
			c-1.63,1.086-3.795,0.555-5.191,2.194c-1.227,1.438-3.121,1.706-4.899,2.148c-3.84,0.955-7.814,0.291-11.723,1.262
			c-1.979,0.492-4.133,1.213-6.267,1.146c-4.467-0.14-8.578,1.751-12.957,2.158c-0.943,0.088-2.097,0.572-3.1,0.93
			c-1.218,0.436-2.183,1.613-1.566,3.211c1.936,5.015,4.222,9.819,7.596,14.089c3.416,4.324,7.902,8.314,4.678,14.927
			c-0.822,1.688,1.358,3.185,3.466,2.746c0.787-0.164,1.633-0.209,2.433-0.125c1.72,0.183,2.308-0.662,2.331-2.226
			c0.04-2.616,1.162-4.695,3.022-6.53c2.019-1.991,3.922-4.111,5.743-6.286c3.764-4.495,7.244-9.22,11.182-13.577
			c2.16-2.391,4.22-4.892,6.095-7.509C299.116,29.556,300.519,28.306,300.177,26.488z M161.889,42.264
			c0.528-1.017-0.401-1.837-0.905-2.839c-0.317-0.632-1.171-0.953-1.029-1.846c0.483-3.035-1.152-5.805-1.051-8.843
			c0.091-2.721-3.118-5.115-5.191-3.863c-3.628,2.191-7.416,4.355-9.706,8.157c-0.45,0.748-0.884,1.215-1.636,0.935
			c-1.414-0.527-1.753,0.377-2.212,1.351c-1.06,2.249-2.996,3.996-5.047,4.846c-4.28,1.774-7.167,5.052-10.307,8.108
			c-1.323,1.288-1.208,2.755,0.099,4.033c0.682,0.667,1.474,1.231,2.257,1.784c2.613,1.843,4.737,4.891,8.67,3.554
			c0.265-0.09,0.695,0.002,0.929,0.174c1.747,1.285,3.928,1.673,5.733,2.792c1.238,0.768,3.021,0.086,3.926,1.472
			c1.933,2.955,5.309,3,8.14,4.109c1.301,0.51,3.865-0.973,3.851-2.294c-0.032-2.762,1.516-5.079,1.794-7.845
			c0.295-2.932-0.5-6.003,0.746-8.855C161.594,45.723,162.041,44.181,161.889,42.264z M287.484,211.157
			c2.059-0.024,3.029-1.609,2.735-3.009c-0.566-2.694-0.523-5.445-1.059-8.083c-0.928-4.572-1.346-9.178-1.774-13.796
			c-0.384-4.132-0.648-8.291-2.485-12.118c-0.286-0.597-0.73-1.234-0.438-1.815c1.265-2.519-0.864-4.33-1.329-6.468
			c-0.368-1.693-2.271-1.979-3.602-0.762c-0.941,0.863-1.652,1.811-3.239,1.789c-5.236-0.073-10.092,2.052-15.177,2.909
			c-1.195,0.202-1.912,0.964-1.752,2.209c0.166,1.299-0.543,1.734-1.555,2.261c-1.788,0.93-1.677,2.263-0.684,4.062
			c1.075,1.945,2.751,3.193,4.325,4.493c3.956,3.265,6.5,7.687,9.562,11.623c3.436,4.416,7.142,8.565,10.804,12.762
			C283.339,208.959,284.971,210.782,287.484,211.157z M306.805,167.55c-2.412-0.182-3.648,2.109-2.028,4.44
			c2.612,3.759,4.014,8.003,5.779,12.121c1.3,3.034,2.277,6.295,4.321,8.904c2.586,3.3,3.897,7.153,5.46,10.912
			c1.259,3.028,2.207,6.183,3.896,9.034c0.361,0.61,0.669,0.938,1.369,1.154c1.775,0.546,4.938-1.558,4.963-4.015
			c0.037-3.829,0.758-7.609,0.584-11.431c-0.041-0.896-0.753-1.642-0.034-2.697c1.648-2.421,1.825-5.433,2.363-8.157
			c0.828-4.192,1.119-8.434,3.383-12.246c0.83-1.396-0.19-2.7-1.312-3.544c-0.797-0.601-1.833-0.954-2.815-1.225
			c-2.712-0.746-5.568-0.689-8.294-1.23C318.612,168.415,312.768,167.559,306.805,167.55z M22.467,32.697
			c-0.977,0.436-2.798,0.458-1.91,2.323c0.926,1.946-0.289,2.15-1.592,2.414c-1.092,0.221-2.269,0.197-3.28,0.603
			c-1.215,0.487-2.917,1.102-2.657,2.66c0.29,1.742,0.98,3.629,2.076,4.983c2.503,3.091,5.306,5.963,7.989,8.887
			c3.521,3.837,6.084,8.168,8.769,12.496c1.205,1.943,2.407,3.775,5.229,2.895c0.721-0.225,1.525-0.089,2.256,0.561
			c0.844,0.751,2.027,0.59,2.982,0.126c1.03-0.501,1.572-1.839,1.215-2.608c-1.324-2.856,0.007-5.822-0.66-8.667
			c-0.155-0.663-0.055-1.144,0.921-1.294c3.706-0.572,4.789-3.037,2.834-6.226c-1.19-1.943-1.028-4.737-3.661-5.805
			c-0.169-0.068-0.178-0.784-0.102-1.168c0.402-2.021,0.486-4.219,1.383-6.001c1.15-2.284,0.048-4.006-0.967-5.503
			c-0.927-1.366-2.852-1.269-4.547-1.002c-1.9,0.298-3.812,0.537-5.732,0.732C29.471,33.462,26.003,33.587,22.467,32.697z
			 M225.87,172.596c0.941,3.378,1.743,7.543,3.278,11.416c1.786,4.503,2.378,9.245,3.604,13.851
			c0.874,3.282,1.517,6.625,2.354,9.917c0.366,1.438,1.183,2.652,2.684,3.173c0.988,0.342,2.08,0.446,2.318-0.893
			c0.283-1.593,1.444-2.465,2.411-3.531c0.536-0.592,1.641-1.059,1.496-1.818c-0.747-3.916,2.07-6.594,3.33-9.766
			c1.177-2.962,1.711-6.054,2.599-9.064c1.194-4.049,0.571-8.616,3.885-12.077c0.817-0.854,0.739-2.299-0.555-3.573
			c-1.805-1.778-4.168-1.887-6.229-2.835c-1.187-0.545-1.872,0.64-2.662,1.31c-0.155,0.133-0.473,0.1-0.716,0.102
			c-3.869,0.02-7.834,0.438-11.444-1.303C227.98,165.456,225.965,168.083,225.87,172.596z M94.01,21.62
			c0.25-1.026-0.303-1.809-1.129-2.185c-0.879-0.401-1.922-0.481-2.679,0.425c-0.83,0.994-1.858,1.778-2.612,2.875
			c-1.466,2.136-3.257,4.258-5.235,5.675c-6.194,4.439-11.953,9.313-17.368,14.652c-1.428,1.407-1.141,2.663-0.111,3.788
			c3.429,3.748,6.944,7.419,10.515,11.034c1.332,1.349,3.482,2.177,4.245,3.738c1.43,2.93,4.103,3.779,6.551,5.104
			c0.936,0.507,2.311,0.505,2.335-0.731c0.069-3.477,2.249-6.514,1.658-10.167c-0.44-2.717-0.274-5.578-0.041-8.345
			c0.309-3.663,0.846-7.316,1.496-10.936c0.23-1.283,0.53-2.4,0.105-3.741c-1.042-3.29-0.291-6.385,1.646-9.16
			C93.843,22.989,94.105,22.413,94.01,21.62z M45.682,197.845c0.89,0.199,1.442-0.451,1.913-1.115
			c0.466-0.657-0.039-1.13-0.383-1.717c-1.336-2.276-3.286-4.033-4.949-6.026c-2.812-3.371-5.928-6.506-8.561-10.007
			c-1.759-2.34-2.6-5.164-5.064-7.271c-1.564-1.339-3.124-2.255-4.877-3.086c-1.623-0.769-2.282,0.092-2.004,1.496
			c0.359,1.813,1.329,3.711,3.226,3.981c1.529,0.218,2.141,1.067,2.552,2.054c0.75,1.803,1.817,3.362,3.101,4.757
			c4.3,4.673,8.286,9.584,11.92,14.795C43.237,196.685,43.984,197.982,45.682,197.845z M62.539,166.258
			c-0.043-2.12-1.305-3.135-3.553-2.875c-0.322,0.037-0.772,0.13-0.96-0.035c-2.077-1.815-5.03-1.433-7.217-2.903
			c-1.24-0.834-2.259-0.553-2.829,0.641c-0.595,1.245,0.263,2.158,1.353,2.582c2,0.775,3.274,2.752,5.507,3.187
			c0.409,0.08,1.284,0.384,1.349,1.431c0.201,3.204,0.707,6.391,0.902,9.596c0.117,1.919,0.802,3.137,2.795,3.213
			c2.405,0.094,1.472-1.799,1.667-3.001c0.599-3.675-2.49-7.672,0.967-11.112C62.643,166.857,62.536,166.504,62.539,166.258z
			 M78.229,163.179c0.288,1.51,0.73,3.16,2.455,3.102c3.191-0.108,6.402,0.659,9.62-0.642c1.239-0.502,2.931-1.312,4.574-0.321
			c1.444,0.87,3.166,0.855,4.772,1.215c1.914,0.43,2.115-0.559,2.227-1.816c0.14-1.579-1.651-3.231-3.447-3.279
			c-2.241-0.061-4.514,0.271-6.634-0.875c-0.65-0.352-1.353-0.01-2.059,0.322c-2.956,1.389-6.067,1.415-9.116,0.452
			C78.639,160.71,78.526,161.921,78.229,163.179z M188.703,206.72c1.695-0.075,2.951,0.19,4.055-0.914
			c0.607-0.607,1.508-1.627,2.568,0.018c0.912,1.414,2.365,0.965,3.871,0.354c1.688-0.687,3.2-2.23,5.366-1.487
			c0.73,0.252,1.84,0.213,2.035-0.804c0.186-0.969,0.5-2.121-0.508-2.958c-0.807-0.67-1.725-1.065-2.775-0.91
			c-2.1,0.312-4.012,1.292-6,1.843c-1.541,0.427-3.255,2.148-4.666,1.142c-2.241-1.599-4.204,0.196-6.283-0.103
			c-0.61-0.088-1.316,0.713-0.872,1.926C186.194,206.735,187.514,206.877,188.703,206.72z M107.878,165.514
			c0.28-0.046,0.585-0.148,0.886-0.135c1.712,0.078,3.816,0.798,3.935-2.028c0.104-2.487-1.295-3.531-4.104-3.412
			c-1.135,0.048-2.237,0.386-3.281,0.643c-1.347,0.332-2.231,1.659-0.952,2.983c1.35,1.397,1.037,2.279-0.051,3.713
			c-1.17,1.543-0.121,3.274,1.034,4.425c1.152,1.146,2.715,0.665,3.621-0.459c0.98-1.217,1.47-2.722-0.077-4.08
			C108.437,166.766,107.746,166.434,107.878,165.514z M35.318,166.433c1.755-0.24,3.552-0.003,3.617-2.431
			c0.069-2.565-1.729-2.515-3.458-2.564c-2.482-0.072-4.937,0.148-7.373-0.895c-1.643-0.703-2.302,0.893-2.403,2.188
			c-0.116,1.479,2.45,3.873,3.899,3.562C31.614,165.863,33.541,165.915,35.318,166.433z M185.701,171.427
			c-0.052,1.714,1.43,3.346,3.035,2.689c2.098-0.857,3.445-0.166,4.939,0.982c0.289,0.222,0.753,0.273,1.143,0.295
			c1.097,0.062,2.304,0.268,3.004-0.868c0.815-1.321,0.293-2.499-0.822-3.302c-1.156-0.834-2.393-1.59-3.972-1.452
			c-0.852,0.074-1.839,0.308-2.471-0.617c-1.038-1.52-2.299-0.549-3.494-0.328C185.527,169.109,186.387,170.662,185.701,171.427z
			 M177.046,203.604c-0.101,2.015,0.387,3.52,1.292,3.956c1.631,0.786,3.521-0.049,4.28-2.111c0.629-1.712,0.199-3.248-1.82-3.595
			c-1.259-0.216-1.512-0.516-1.219-1.792c0.387-1.685-0.658-2.95-2.229-3.127c-1.63-0.184-3.178,0.522-3.587,2.412
			c-0.397,1.832,0.599,2.776,2.315,2.888C177.126,202.303,177.373,202.659,177.046,203.604z M128.469,168.942
			c-0.087,1.033,0.338,1.892,1.026,2.59c1.399,1.42,3.126,2.368,3.611,4.754c0.249,1.221,1.792,2.723,3.475,3.24
			c0.704,0.217,1.56,0.355,1.953-0.441c0.307-0.622,0.803-1.319,0.303-2.128c-0.946-1.527-1.596-3.208-3.707-3.728
			c-1.551-0.381-1.62-0.707-1.448-0.968c1.938-2.93-0.847-3.489-2.303-4.776c-0.622-0.55-1.316-0.897-1.958-0.565
			C128.73,167.276,128.406,168.086,128.469,168.942z M144.774,160.948c-0.751,0-1.335-0.08-1.888,0.014
			c-2.145,0.367-4.323,2.41-4.077,3.764c0.294,1.621,2.296,2.285,4.986,1.637c1.294-0.312,2.638-1.046,3.854-0.869
			c1.211,0.176,1.695-0.344,1.892-1.079c0.233-0.872,0.37-1.931-0.835-2.499C147.391,161.296,146.118,160.62,144.774,160.948z
			 M201.768,184.919c0-0.491,0.123-0.889-0.019-1.132c-1.084-1.86-1.98-3.709-2.189-5.964c-0.07-0.76-1.312-2.253-2.902-1.719
			c-1.205,0.405-1.592,1.569-1.204,2.511c0.902,2.191,1.069,4.603,2.074,6.706c0.432,0.903,1.341,2.276,2.45,2.024
			C200.858,187.146,202.355,186.423,201.768,184.919z M105.845,196.929c0,0.573-0.068,1.157,0.017,1.718
			c0.106,0.699,0.377,1.369,0.538,2.063c0.298,1.287,1.519,1.607,2.678,1.521c1.161-0.087,1.88-0.697,1.701-2.074
			c-0.126-0.967-0.081-1.968-0.01-2.945c0.236-3.267-0.442-4.683-2.356-4.781C106.595,192.337,105.832,193.668,105.845,196.929z
			 M156.532,160.449c-0.326,0-0.66-0.047-0.977,0.007c-1.695,0.29-3.587,0.685-3.384,2.854c0.183,1.955,1.774,2.57,3.699,2.603
			c1.002,0.017,1.931-0.502,2.996-0.114c1.407,0.511,2.094-0.521,2.443-1.662c0.354-1.158,0.085-2.173-1.13-2.773
			C159.024,160.791,157.851,160.344,156.532,160.449z M102.833,201.312c0.097-0.779-0.223-1.057-0.52-1.329
			c-1.907-1.751-3.779-3.543-5.749-5.22c-1.054-0.897-1.728,0.229-2.419,0.773c-0.83,0.653-0.906,1.55-0.277,2.362
			c1.724,2.225,3.984,3.753,6.544,4.88C102.278,203.601,102.414,202.094,102.833,201.312z M53.191,184.544
			c0,3.338,0.817,4.472,3.001,4.439c1.462-0.021,2.945-2.43,2.902-4.714c-0.026-1.403-2.505-3.917-3.899-3.545
			C53.238,181.246,52.936,182.992,53.191,184.544z M82.691,176.424c-0.482-0.098-0.736,0.239-0.95,0.648
			c-0.415,0.796-0.778,1.521-0.054,2.419c1.402,1.736,2.584,3.663,4.087,5.299c0.751,0.818,2.223,0.73,3.052,0.113
			c0.602-0.447,0.498-1.604-0.1-2.442c-1.212-1.698-2.311-3.468-3.87-4.913C84.215,176.953,83.547,176.66,82.691,176.424z
			 M154.983,201.118c0.366-0.883-0.307-1.406-0.884-2.009c-1.278-1.334-3.462-1.009-4.635-2.542
			c-0.026-0.034-0.389,0.153-0.566,0.278c-1.693,1.192-1.633,3.8,0.15,4.904c0.809,0.501,1.814,0.729,2.531,1.32
			c0.795,0.656,1.552,0.961,2.418,0.44C154.811,203.021,155.259,202.239,154.983,201.118z M164.384,171.959
			c-0.001,2.646,1.388,4.778,3.104,4.675c2.119-0.128,2.364-1.74,2.318-3.479c-0.052-1.976-1.862-4.249-3.583-4.128
			C164.224,169.169,164.233,170.714,164.384,171.959z M113.708,186.41c0.355-1.849-0.562-3.252-2.25-4.357
			c-1.619-1.061-2.839-0.414-3.7,0.905c-0.825,1.264-0.874,2.476,0.903,3.297c0.97,0.447,1.787,1.271,2.8,1.755
			C113.715,189.084,113.703,189.11,113.708,186.41z M56.634,197.418c0.011-2.835-0.889-3.96-2.934-4.017
			c-2.165-0.06-2.535,1.217-2.495,3.007c0.054,2.394,1.047,3.942,2.739,3.877C55.867,200.211,57.045,199.382,56.634,197.418z
			 M77.989,167.837c-0.621,0.217-1.585,0.33-2.015,1.18c-0.387,0.767-0.209,1.529,0.483,2.18c1.261,1.184,2.442,2.452,3.691,3.648
			c1.12,1.073,1.868,0.728,2.371-0.657C83.284,172.087,80.38,167.771,77.989,167.837z M142.106,184.065
			c-1.067-0.237-1.845,0.412-2.245,1.324c-0.394,0.898,0.078,1.694,0.852,2.316c1.146,0.921,2.2,1.961,3.379,2.834
			c0.968,0.716,2.06,0.799,2.536-0.558C147.403,187.769,144.553,184.04,142.106,184.065z M111.739,178.614
			c0.002-1.95-1.743-4.203-3.388-4.578c-1.917-0.436-2.824,1.249-1.957,4.369c0.461,1.661,1.695,2.916,3.768,2.713
			C111.979,180.94,111.6,179.537,111.739,178.614z M199.316,191.522c0.001,1.191,0.81,3.727,1.319,4.443
			c0.595,0.841,1.423,0.973,2.373,0.895c1.104-0.092,0.508-0.979,0.758-1.466c0.646-1.256,0.017-2.458,0.01-3.684
			c-0.014-2.031-1.521-2.415-2.898-2.479C199.332,189.159,199.025,190.386,199.316,191.522z M155.927,201.042
			c0.085,2.345,1.736,4.835,3.287,4.628c2.656-0.355,1.777-2.92,1.97-4.324c0.158-1.151-1.363-2.551-3.238-2.553
			C156.243,198.792,155.787,199.603,155.927,201.042z M131.912,165.193c0.02,2.02,1.042,2.65,4.371,2.623
			c1.248-0.009,1.961-0.701,2.014-1.948c0.072-1.709-2.118-3.474-4.197-3.455C132.199,162.432,131.819,163.62,131.912,165.193z
			 M167.828,185.379c0.005-2.026-1.57-3.804-3.253-3.779c-1.805,0.026-1.817,1.635-2.078,2.681c-0.351,1.408,2.1,3.844,3.571,3.681
			C167.561,187.796,167.966,186.68,167.828,185.379z M181.103,185.236c-0.07,1.309,0.074,2.785,2.188,2.752
			c2.562-0.041,2.457-2.163,2.705-3.812c0.292-1.938-1.25-2.567-2.686-2.503C181.42,181.759,181.097,183.349,181.103,185.236z
			 M93.048,193.537c0.051-0.846-2.122-4.124-2.816-3.859c-1.367,0.522-2.565,1.462-3.04,2.889c-0.342,1.026,1.929,3.659,3.087,3.595
			C91.713,196.081,92.777,195.329,93.048,193.537z M162.069,193.411c-0.852,0.033-1.648,0.71-1.624,2.233
			c0.023,1.468,1.849,3.234,3.311,3.179c1.356-0.051,2.059-0.749,2.104-2.109C165.909,195.25,164.143,193.417,162.069,193.411z
			 M180.199,192.318c-1.555-0.144-1.812,1.435-1.84,2.261c-0.056,1.646,1.499,2.477,2.858,2.664c1.094,0.15,2.487-0.362,2.346-2.055
			C183.4,193.226,182.437,192.11,180.199,192.318z"/>
		<path style="fill-rule:evenodd;clip-rule:evenodd;fill:#7B491E;" d="M358.633,148.14c-3.144,0.165-4.553-0.77-5.721-5.336
			c-0.499-1.955-0.925-2.217-3.122-2.206c-7.845,0.035-14.849,3.761-22.458,4.528c-4.313,0.436-8.625,0.865-12.896,1.581
			c-1.936,0.323-3.876,0.856-5.689,1.599c-1.848,0.756-3.704,0.209-3.424-1.443c0.675-3.971-2.534-5.464-4.268-7.775
			c-1.589-2.118-1.525-3.873-0.328-5.878c3.942-6.602,6.905-13.649,9.844-20.736c2.317-5.59,3.641-11.67,7.764-16.451
			c1.004-1.164,1.78-2.262,3.506-2.004c0.895,0.134,1.182-0.164,1.568-1.183c0.869-2.292,2.223-4.413,3.497-6.532
			c0.61-1.015,1.769-0.85,2.634-0.445c0.977,0.457,1.926,0.202,2.883,0.29c1.072,0.098,1.83-0.319,1.679-1.502
			c-0.149-1.179,0.653-1.73,1.271-2.475c1.064-1.281,1.979-1.159,2.968,0.072c0.927,1.154,1.901,2.273,2.891,3.375
			c1.98,2.206,1.615,5.04,1.577,7.546c-0.047,3.091,1.086,4.625,4.231,4.342c1.79-0.162,2.741,1.018,2.777,2.639
			c0.029,1.323,0.44,2.002,1.622,2.614c2.027,1.048,1.497,3.61,2.806,5.227c2.289,2.828,1.613,5.916,0.12,8.912
			c-0.837,1.68,0.181,3.231,0.527,4.748c0.435,1.902,1.504,3.652,2.193,5.508c0.232,0.626,0.686,0.983,1.153,1.046
			c3.906,0.522,4.069,3.776,4.33,6.474c0.358,3.697,0.355,7.484-0.435,11.165C361.738,147.681,360.356,148.418,358.633,148.14z
			 M345,127.556c0.052-0.175-0.404-0.463-0.454-0.817c-0.323-2.284-2.306-3.986-2.121-6.491c0.091-1.231-1.107-1.238-2.015-1.084
			c-2.622,0.445-3.774-0.343-3.79-2.933c-0.01-1.571-0.291-3.057-1.656-3.786c-1.854-0.991-2.522-2.488-2.831-4.396
			c-0.214-1.323-0.669-2.605-0.953-3.92c-0.238-1.097-1.24-1.161-1.982-1.421c-0.846-0.296-1.229,0.57-1.432,1.171
			c-1.788,5.294-4.943,9.917-7.255,14.947c-1.415,3.076-2.823,6.178-3.768,9.462c-0.367,1.275-0.121,2.093,1.204,2.113
			c2.085,0.032,4.251,0.435,6.226-0.499c0.931-0.439,1.673-0.321,2.395,0.183c1.259,0.878,1.959,0.674,2.707-0.755
			c0.97-1.851,2.309-2.375,4.266-0.811c1.709,1.367,3.929,1.937,5.952,0.644c1.298-0.83,2.188-0.938,3.475-0.044
			C344.254,130.013,344.859,129.173,345,127.556z M309.125,141.755c0.352-0.059,0.868,0.069,0.831-0.521
			c-0.033-0.551-0.528-0.452-0.89-0.455c-0.363-0.004-0.891-0.112-0.942,0.393C308.044,141.94,308.711,141.678,309.125,141.755z"/>
		<path style="fill-rule:evenodd;clip-rule:evenodd;fill:#7B491E;" d="M194.382,141.704c0.044,1.552-1.539,2.538-2.841,1.838
			c-0.763-0.41-1.414-1.035-2.102-1.58c-2.151-1.707-4.235-3.397-7.307-3.185c-1.87,0.129-3.749,0.183-5.625-0.854
			c-1.469-0.812-3.274,0.575-4.993,0.392c-0.708-0.075-1.551,0.218-1.995-0.572c-0.437-0.777-0.803-1.873-1.741-1.786
			c-1.135,0.106-2.542,0.44-3.253,1.21c-1.055,1.143-2.257,1.541-3.349,0.93c-1.132-0.634-1.498-2.201-1.153-3.43
			c0.43-1.532,0.43-3.034,0.416-4.563c-0.011-1.21,0.543-2.487,1.27-3.013c3.838-2.771,4.117-7.225,5.608-11.098
			c0.718-1.863,1.716-3.418,3.197-4.835c1.91-1.829,4.196-3.719,2.758-7.013c-0.383-0.877,0.398-1.485,1.002-2.047
			c2.458-2.286,4.943-4.543,7.349-6.882c1.688-1.64,2.736-3.992,5.427-4.485c0.499-0.091,0.777-0.877,1.017-1.538
			c0.593-1.632,1.249-3.29,3.088-4.084c1.833-0.792,3.142-0.311,3.719,1.547c0.164,0.527-0.394,1.386,0.743,1.473
			c0.87,0.066,0.896-0.705,1.039-1.118c0.661-1.909,1.961-2.485,3.884-2.359c1.9,0.124,2.277,1.473,2.723,2.874
			c0.943,2.965,2.811,5.485,5.353,6.951c1.905,1.098,4.066,1.651,5.994,3.053c1.991,1.447,2.646,3.345,2.789,5.217
			c0.229,2.984,2.339,4.909,3.316,7.43c0.248,0.638,1.077,1.242,0.694,1.921c-1.073,1.902,0.095,3.173,1.027,4.559
			c1.167,1.734,2.798,3.34,3.355,5.255c0.71,2.439,2.398,4.62,2.434,7.11c0.027,1.888,0.996,2.757,2.146,3.631
			c1.557,1.182,2.65,2.452,1.351,4.354c-0.958,1.402-3.616,1.065-5.03-0.633c-1.068-1.284-1.747-2.901-3.945-2.527
			c-1.562,0.266-3.191-0.196-4.717,0.732c-1.572,0.959-3.505-0.111-5.335,1.091c-1.443,0.947-3.161,1.737-4.755,2.606
			c-2.119,1.156-4.313,1.662-6.564,0.358c-0.801-0.464-1.451-0.35-2.266,0.042c-1.129,0.544-2.21,1.186-3.607,1.192
			C194.559,139.869,193.615,140.55,194.382,141.704z M194.307,101.415c-0.688,0.164-1.617-0.452-1.999,0.757
			c-1.33,4.221-4.576,7.277-6.814,10.95c-1.017,1.667-2.212,3.274-3.85,4.553c-2.303,1.797-4.3,3.992-5.772,6.532
			c-0.668,1.151-0.134,1.901,1.415,1.836c1.678-0.07,3.344,0.034,5.049,0.359c2.198,0.42,4.536,1.714,6.786,0.065
			c1.513-1.108,3.013-0.47,3.883,0.595c2.038,2.495,3.543,1.391,4.928-0.453c1.266-1.685,2.589-1.56,4.359-0.891
			c3.709,1.402,7.382,2.542,11.512,0.911c1.886-0.744,1.491-1.344,0.739-2.3c-0.694-0.884-1.55-1.645-1.935-2.733
			c-0.482-1.363-1.085-1.789-2.675-1.183c-2.502,0.953-3.379,0.129-3.746-2.696c-0.266-2.039-0.633-4.01-3.007-4.87
			c-1.591-0.577-2.54-2.059-2.808-3.611c-0.476-2.76-2.348-4.637-3.757-6.815C196.092,101.613,195.324,101.197,194.307,101.415z"/>
		<path style="fill-rule:evenodd;clip-rule:evenodd;fill:#7B491E;" d="M246.682,87.155c1.649-0.139,3.066,0.479,4.321,1.306
			c1.475,0.971,2.893,1.061,4.225,0.034c1.558-1.2,3.005,0.854,4.174,0.154c1.349-0.808,2.251-1.417,4.005-0.784
			c2.202,0.795,4.767-0.024,7.051,1.131c0.838,0.423,1.082-0.987,0.976-1.194c-0.744-1.443-0.207-2.502,1.039-3.01
			c1.791-0.731,3.791-1.208,5.501,0.128c1.654,1.291,2.858,3.061,3.985,4.814c0.995,1.55-0.217,2.573-1.351,3.251
			c-1.393,0.833-1.67,1.678-0.223,2.466c2.249,1.225,1.937,2.967,1.106,4.724c-1.728,3.66-0.545,7.527-0.982,11.271
			c-0.019,0.157-0.017,0.416,0.072,0.471c4.745,2.893,1.433,7.245,1.573,10.776c0.107,2.696-1.574,5.622-3.163,8.28
			c-1.088,1.823-1.51,4.233-2.417,6.328c-1.198,2.767-2.014,3.062-4.715,1.556c-0.914-0.51-1.904-0.664-3.077-0.646
			c-3.362,0.051-5.512-2.36-7.402-4.726c-1.299-1.625-2.707-3.134-3.412-5.381c-0.524-1.672-3.263-2.477-4.17-4.462
			c-2.129-4.656-6.026-7.909-9.302-11.635c-0.977-1.11-1.257-2.456-1.704-3.59c-1.23-3.117-2.951-5.815-5.145-8.261
			c-0.979-1.092-0.986-2.091,0.356-2.604c1.636-0.623,0.787-1.355,0.323-2.124c-1.401-2.319-0.765-3.507,1.699-4.447
			c1.581-0.603,4.099-0.029,4.432-2.897C244.557,87.229,245.755,86.962,246.682,87.155z M251.315,98.812
			c1.299,0.564,2.012,2.01,3.604,2.501c1.064,0.329,2.056,1.546,1.187,3.182c-0.478,0.898-0.395,1.794,0.678,2.644
			c2.861,2.266,2.323,6.895,5.885,8.767c0.092,0.048,0.107,0.301,0.105,0.457c-0.016,1.35,0.64,1.996,1.966,2.328
			c0.921,0.23,1.744,1.023,1.927,2.004c0.145,0.781,0.455,0.888,1.104,0.896c0.667,0.009,1.25-0.269,1.341-0.843
			c0.498-3.129,2.679-5.835,2.098-9.271c-0.286-1.688,0.484-3.723-2.484-3.464c-0.554,0.049-1.166-0.553-1.586-1.287
			c-0.857-1.5-1.165-3.016-0.778-4.632c0.2-0.839,0.026-1.497-0.71-1.624C260.886,99.645,256.375,96.889,251.315,98.812z"/>
		<path style="fill-rule:evenodd;clip-rule:evenodd;fill:#7B491E;" d="M166.848,95.015c-2.113,0.093-4.132-0.706-6.282-0.536
			c-2.447,0.193-3.781,2.324-2.33,4.365c1.015,1.428,0.638,2.589,0.302,4.054c-0.568,2.478-1.967,4.69-1.233,7.623
			c0.471,1.885,0.358,4.814-2.693,5.656c-0.868,0.239-0.695,0.895-0.379,1.325c1.849,2.521,1.824,4.559-1.065,6.389
			c-0.941,0.597-1.43,1.952-2.046,3.007c-1.448,2.476-2.256,2.479-4.496,0.886c-2.083-1.482-3.739-3.576-6.272-4.44
			c-1.523-0.521-1.709-2.18-2.497-3.307c-0.749-1.07-1.159-1.009-2.035-0.191c-1.908,1.777-2.914,1.512-4.2-0.762
			c-1.603-2.836-3.31-5.612-4.945-8.43c-0.442-0.763-0.548-1.648-0.778-2.489c-0.338-1.234-1.16-2.29-2.452-2.806
			c-0.144-0.058-0.416,0.04-0.475-0.044c-1.562-2.191-4.042-3.114-6.17-4.526c-1.071-0.711-1.462-1.596-0.674-2.878
			c0.788-1.282,0.376-2.437-0.439-3.734c-1.071-1.705-1.552-3.701-1.004-5.793c0.294-1.124,1.168-2.214,2.043-2.118
			c2.258,0.247,3.588-1.218,5.173-2.213c2.882-1.811,7.205-0.986,9.09,1.899c0.95,1.454,1.964,1.497,3.722,1.416
			c3.682-0.168,7.286-1.052,11.208,0.022c2.604,0.714,6.158,1.891,9.062-0.434c0.683-0.547,1.672-0.637,2.178,0.167
			c1.448,2.301,4.046,2.089,6.141,2.839c1.751,0.626,3.628,0.07,5.024-1.392c0.93-0.973,2.091-1.278,3.258-0.748
			c1.153,0.524,0.771,1.785,0.625,2.654C171.793,92.928,170.471,95.482,166.848,95.015z M123.13,92.736
			c1.732,2.137,4.184,3.515,5.708,5.793c0.424,0.634,1.033,0.345,1.719,0.137c1.938-0.587,4.048,0.278,4.451,1.86
			c0.538,2.11,2.185,3.727,2.268,5.887c0.052,1.372,0.775,1.947,1.845,2.535c2.13,1.17,4.17,2.505,6.278,3.721
			c0.444,0.256,0.58,1.379,1.464,0.601c0.576-0.507,1.077-1.054,0.667-1.878c-1.721-3.463-0.473-6.913,0.112-10.331
			c0.523-3.054-0.554-5.754-3.136-6.369c-1.958-0.466-4.013-0.621-5.983,0.393c-1.606,0.827-3.054,2.052-4.876,2.366
			c-3.11,0.535-5.25-1.239-7.104-3.364C125.622,93.03,124.806,92.115,123.13,92.736z"/>
		<path style="fill-rule:evenodd;clip-rule:evenodd;fill:#7B491E;" d="M191.462,21.916c-0.608-2.767-0.985-5.763-2.206-8.529
			c-0.784-1.776,0.343-5.241,2.019-5.889c1.573-0.608,3.957,1.045,4.61,3.146c0.362,1.164,1.129,2.11,1.938,2.983
			c4.882,5.271,8.64,11.788,15.516,14.89c4.612,2.08,8.681,4.93,12.742,7.84c2.577,1.846,3.012,3.861,0.861,6.095
			c-3.871,4.02-7.512,8.239-10.647,12.82c-2.019,2.949-4.174,5.825-6.004,8.902c-1.688,2.838-3.108,2.922-5.518,0.736
			c-1.809-1.641-4.089-2.671-4.994-5.262c-1.659-4.753-3.761-9.363-5.206-14.175c-0.722-2.405-1.649-5.117-1.733-7.303
			c-0.125-3.262-2.214-5.719-2.199-8.755c0.01-1.896,0.247-3.806,0.566-5.677C191.303,23.191,191.395,22.64,191.462,21.916z"/>
		<path style="fill-rule:evenodd;clip-rule:evenodd;fill:#7B491E;" d="M345.891,188.017c-0.784,0.509-0.371,1.039-0.109,1.635
			c0.422,0.963-0.039,1.885-0.83,2.204c-1.027,0.415-2.249,0.112-2.716-0.997c-0.313-0.745-0.672-1.619,0.409-2.545
			c0.753-0.645,2.147-0.131,2.246-1.182c0.159-1.686-0.516-3.245-1.345-4.741c-1.297-2.342-2.477-4.748-3.72-7.119
			c-1.286-2.451,0.693-4.968,4.131-4.95c3.814,0.02,7.656,0.061,11.436,0.517c5.818,0.7,11.636,0.994,17.483,0.923
			c2.104-0.025,4.203-0.034,6.261,0.501c1.121,0.293,2.301,0.732,2.618,1.884c0.314,1.14-0.013,2.184-0.828,3.337
			c-2.188,3.092-3.964,6.47-5.971,9.693c-2.146,3.447-3.307,7.391-5.211,10.872c-2.162,3.955-3.304,8.312-5.61,12.155
			c-1.098,1.827-5.162,2.123-6.459-0.046c-1.654-2.767-4.13-4.811-5.808-7.466c-2.708-4.286-4.349-9.043-5.443-13.985
			C346.355,188.387,346.341,188.067,345.891,188.017z"/>
		<path style="fill-rule:evenodd;clip-rule:evenodd;fill:#7B491E;" d="M300.177,26.488c0.342,1.817-1.062,3.068-1.996,4.372
			c-1.875,2.617-3.935,5.118-6.095,7.509c-3.938,4.357-7.418,9.083-11.182,13.577c-1.821,2.175-3.725,4.295-5.743,6.286
			c-1.86,1.835-2.982,3.915-3.022,6.53c-0.023,1.564-0.611,2.408-2.331,2.226c-0.8-0.085-1.646-0.039-2.433,0.125
			c-2.107,0.439-4.288-1.058-3.466-2.746c3.225-6.612-1.262-10.603-4.678-14.927c-3.374-4.27-5.66-9.074-7.596-14.089
			c-0.616-1.598,0.349-2.775,1.566-3.211c1.003-0.358,2.156-0.842,3.1-0.93c4.379-0.407,8.49-2.298,12.957-2.158
			c2.134,0.067,4.288-0.654,6.267-1.146c3.908-0.971,7.883-0.307,11.723-1.262c1.778-0.442,3.673-0.71,4.899-2.148
			c1.396-1.639,3.562-1.108,5.191-2.194C298.343,21.633,300.175,24.281,300.177,26.488z"/>
		<path style="fill-rule:evenodd;clip-rule:evenodd;fill:#7B491E;" d="M161.889,42.264c0.152,1.917-0.295,3.458-0.937,4.929
			c-1.246,2.852-0.451,5.923-0.746,8.855c-0.278,2.766-1.826,5.083-1.794,7.845c0.015,1.322-2.549,2.804-3.851,2.294
			c-2.832-1.11-6.208-1.155-8.14-4.109c-0.905-1.385-2.688-0.704-3.926-1.472c-1.806-1.119-3.987-1.507-5.733-2.792
			c-0.233-0.172-0.664-0.264-0.929-0.174c-3.934,1.337-6.058-1.711-8.67-3.554c-0.784-0.553-1.575-1.117-2.257-1.784
			c-1.307-1.278-1.422-2.745-0.099-4.033c3.14-3.056,6.027-6.333,10.307-8.108c2.052-0.85,3.987-2.597,5.047-4.846
			c0.459-0.973,0.798-1.877,2.212-1.351c0.752,0.28,1.186-0.187,1.636-0.935c2.29-3.802,6.077-5.966,9.706-8.157
			c2.073-1.252,5.282,1.143,5.191,3.863c-0.101,3.038,1.534,5.808,1.051,8.843c-0.143,0.893,0.711,1.213,1.029,1.846
			C161.488,40.427,162.417,41.248,161.889,42.264z"/>
		<path style="fill-rule:evenodd;clip-rule:evenodd;fill:#7B491E;" d="M287.484,211.157c-2.513-0.375-4.145-2.198-5.668-3.942
			c-3.662-4.196-7.368-8.346-10.804-12.762c-3.062-3.937-5.605-8.358-9.562-11.623c-1.574-1.3-3.25-2.548-4.325-4.493
			c-0.993-1.8-1.104-3.133,0.684-4.062c1.012-0.526,1.721-0.962,1.555-2.261c-0.16-1.245,0.557-2.007,1.752-2.209
			c5.085-0.857,9.94-2.982,15.177-2.909c1.587,0.021,2.298-0.926,3.239-1.789c1.33-1.218,3.233-0.932,3.602,0.762
			c0.465,2.138,2.594,3.949,1.329,6.468c-0.292,0.581,0.152,1.219,0.438,1.815c1.837,3.827,2.102,7.986,2.485,12.118
			c0.429,4.618,0.847,9.224,1.774,13.796c0.535,2.638,0.492,5.389,1.059,8.083C290.513,209.548,289.542,211.133,287.484,211.157z"/>
		<path style="fill-rule:evenodd;clip-rule:evenodd;fill:#7B491E;" d="M306.805,167.55c5.963,0.009,11.807,0.865,17.635,2.021
			c2.726,0.541,5.582,0.484,8.294,1.23c0.982,0.271,2.019,0.624,2.815,1.225c1.122,0.844,2.143,2.147,1.312,3.544
			c-2.264,3.812-2.555,8.054-3.383,12.246c-0.538,2.725-0.715,5.736-2.363,8.157c-0.719,1.056-0.007,1.802,0.034,2.697
			c0.174,3.821-0.547,7.602-0.584,11.431c-0.024,2.457-3.188,4.561-4.963,4.015c-0.7-0.216-1.008-0.544-1.369-1.154
			c-1.689-2.852-2.638-6.006-3.896-9.034c-1.562-3.759-2.874-7.612-5.46-10.912c-2.044-2.609-3.021-5.87-4.321-8.904
			c-1.766-4.118-3.167-8.362-5.779-12.121C303.157,169.659,304.393,167.368,306.805,167.55z"/>
		<path style="fill-rule:evenodd;clip-rule:evenodd;fill:#7B491E;" d="M22.467,32.697c3.537,0.89,7.004,0.765,10.546,0.403
			c1.919-0.195,3.832-0.434,5.732-0.732c1.695-0.266,3.62-0.363,4.547,1.002c1.015,1.497,2.117,3.219,0.967,5.503
			c-0.897,1.783-0.981,3.98-1.383,6.001c-0.076,0.384-0.068,1.1,0.102,1.168c2.633,1.068,2.471,3.862,3.661,5.805
			c1.955,3.189,0.872,5.653-2.834,6.226c-0.976,0.15-1.076,0.631-0.921,1.294c0.667,2.844-0.664,5.81,0.66,8.667
			c0.356,0.77-0.186,2.107-1.215,2.608c-0.955,0.464-2.138,0.625-2.982-0.126c-0.73-0.65-1.535-0.786-2.256-0.561
			c-2.822,0.88-4.024-0.952-5.229-2.895c-2.684-4.328-5.248-8.659-8.769-12.496c-2.683-2.924-5.486-5.796-7.989-8.887
			c-1.096-1.354-1.786-3.241-2.076-4.983c-0.26-1.558,1.442-2.173,2.657-2.66c1.011-0.406,2.188-0.381,3.28-0.603
			c1.303-0.264,2.519-0.468,1.592-2.414C19.668,33.155,21.49,33.133,22.467,32.697z"/>
		<path style="fill-rule:evenodd;clip-rule:evenodd;fill:#7B491E;" d="M225.87,172.596c0.096-4.513,2.11-7.14,6.354-5.093
			c3.61,1.741,7.575,1.322,11.444,1.303c0.243-0.002,0.561,0.031,0.716-0.102c0.79-0.67,1.476-1.854,2.662-1.31
			c2.061,0.948,4.424,1.057,6.229,2.835c1.294,1.274,1.372,2.72,0.555,3.573c-3.313,3.461-2.69,8.028-3.885,12.077
			c-0.888,3.011-1.422,6.103-2.599,9.064c-1.26,3.172-4.077,5.85-3.33,9.766c0.145,0.76-0.96,1.227-1.496,1.818
			c-0.967,1.066-2.128,1.938-2.411,3.531c-0.238,1.339-1.33,1.234-2.318,0.893c-1.501-0.521-2.317-1.734-2.684-3.173
			c-0.837-3.292-1.479-6.635-2.354-9.917c-1.227-4.605-1.818-9.348-3.604-13.851C227.613,180.139,226.811,175.974,225.87,172.596z"
			/>
		<path style="fill-rule:evenodd;clip-rule:evenodd;fill:#7B491E;" d="M94.01,21.62c0.095,0.792-0.167,1.369-0.625,2.027
			c-1.936,2.775-2.688,5.87-1.646,9.16c0.425,1.34,0.125,2.458-0.105,3.741c-0.65,3.62-1.188,7.272-1.496,10.936
			c-0.233,2.768-0.399,5.628,0.041,8.345c0.591,3.652-1.589,6.69-1.658,10.167c-0.024,1.236-1.4,1.238-2.335,0.731
			c-2.448-1.325-5.122-2.174-6.551-5.104c-0.762-1.561-2.913-2.389-4.245-3.738c-3.57-3.614-7.085-7.286-10.515-11.034
			c-1.029-1.125-1.316-2.381,0.111-3.788c5.416-5.338,11.174-10.212,17.368-14.652c1.978-1.417,3.77-3.54,5.235-5.675
			c0.754-1.098,1.783-1.882,2.612-2.875c0.757-0.906,1.8-0.826,2.679-0.425C93.707,19.812,94.26,20.594,94.01,21.62z"/>
		<path style="fill-rule:evenodd;clip-rule:evenodd;fill:#7B491E;" d="M45.682,197.845c-1.698,0.138-2.444-1.16-3.127-2.14
			c-3.634-5.211-7.621-10.122-11.92-14.795c-1.283-1.395-2.351-2.954-3.101-4.757c-0.411-0.986-1.022-1.836-2.552-2.054
			c-1.897-0.271-2.867-2.168-3.226-3.981c-0.278-1.404,0.381-2.265,2.004-1.496c1.754,0.831,3.313,1.747,4.877,3.086
			c2.464,2.107,3.305,4.932,5.064,7.271c2.633,3.501,5.748,6.636,8.561,10.007c1.663,1.993,3.613,3.75,4.949,6.026
			c0.344,0.587,0.849,1.06,0.383,1.717C47.124,197.394,46.571,198.044,45.682,197.845z"/>
		<path style="fill-rule:evenodd;clip-rule:evenodd;fill:#7B491E;" d="M62.537,166.258c-0.001,0.246,0.106,0.6-0.017,0.722
			c-3.458,3.44-0.369,7.438-0.967,11.112c-0.196,1.202,0.737,3.095-1.667,3.001c-1.993-0.076-2.678-1.294-2.795-3.213
			c-0.195-3.205-0.702-6.392-0.902-9.596c-0.065-1.047-0.94-1.351-1.349-1.431c-2.232-0.435-3.506-2.411-5.507-3.187
			c-1.09-0.424-1.948-1.337-1.353-2.582c0.57-1.193,1.589-1.475,2.829-0.641c2.188,1.471,5.14,1.088,7.217,2.903
			c0.188,0.165,0.639,0.072,0.96,0.035C61.233,163.123,62.495,164.138,62.537,166.258z"/>
		<path style="fill-rule:evenodd;clip-rule:evenodd;fill:#7B491E;" d="M78.229,163.179c0.297-1.258,0.41-2.469,2.392-1.843
			c3.048,0.963,6.16,0.937,9.116-0.452c0.706-0.332,1.409-0.674,2.059-0.322c2.121,1.146,4.394,0.814,6.634,0.875
			c1.796,0.048,3.587,1.7,3.447,3.279c-0.111,1.258-0.312,2.246-2.227,1.816c-1.606-0.359-3.328-0.345-4.772-1.215
			c-1.643-0.99-3.335-0.181-4.574,0.321c-3.218,1.301-6.429,0.533-9.62,0.642C78.959,166.339,78.517,164.688,78.229,163.179z"/>
		<path style="fill-rule:evenodd;clip-rule:evenodd;fill:#7B491E;" d="M188.703,206.72c-1.188,0.157-2.508,0.016-3.208-1.895
			c-0.444-1.213,0.262-2.014,0.872-1.926c2.08,0.299,4.042-1.496,6.283,0.103c1.411,1.007,3.125-0.715,4.666-1.142
			c1.988-0.551,3.9-1.531,6-1.843c1.051-0.155,1.969,0.24,2.775,0.91c1.008,0.837,0.693,1.989,0.508,2.958
			c-0.195,1.017-1.305,1.056-2.035,0.804c-2.166-0.743-3.678,0.801-5.366,1.487c-1.506,0.611-2.958,1.061-3.871-0.354
			c-1.06-1.645-1.961-0.625-2.568-0.018C191.654,206.91,190.397,206.645,188.703,206.72z"/>
		<path style="fill-rule:evenodd;clip-rule:evenodd;fill:#7B491E;" d="M107.878,165.514c-0.133,0.92,0.558,1.252,1.01,1.649
			c1.547,1.358,1.058,2.863,0.077,4.08c-0.905,1.124-2.469,1.605-3.621,0.459c-1.155-1.15-2.204-2.882-1.034-4.425
			c1.088-1.434,1.401-2.315,0.051-3.713c-1.279-1.324-0.395-2.651,0.952-2.983c1.044-0.257,2.146-0.595,3.281-0.643
			c2.809-0.119,4.207,0.925,4.104,3.412c-0.118,2.826-2.222,2.106-3.935,2.028C108.464,165.365,108.158,165.468,107.878,165.514z"/>
		<path style="fill-rule:evenodd;clip-rule:evenodd;fill:#7B491E;" d="M35.318,166.433c-1.777-0.518-3.704-0.569-5.718-0.14
			c-1.45,0.311-4.015-2.083-3.899-3.562c0.101-1.295,0.761-2.891,2.403-2.188c2.436,1.043,4.891,0.822,7.373,0.895
			c1.729,0.05,3.527-0.001,3.458,2.564C38.87,166.43,37.073,166.192,35.318,166.433z"/>
		<path style="fill-rule:evenodd;clip-rule:evenodd;fill:#7B491E;" d="M185.701,171.427c0.686-0.765-0.173-2.317,1.362-2.601
			c1.195-0.221,2.456-1.191,3.494,0.328c0.631,0.925,1.619,0.691,2.471,0.617c1.579-0.138,2.816,0.618,3.972,1.452
			c1.115,0.803,1.637,1.98,0.822,3.302c-0.7,1.136-1.908,0.931-3.004,0.868c-0.39-0.021-0.854-0.073-1.143-0.295
			c-1.494-1.148-2.841-1.84-4.939-0.982C187.13,174.772,185.648,173.141,185.701,171.427z"/>
		<path style="fill-rule:evenodd;clip-rule:evenodd;fill:#7B491E;" d="M177.046,203.604c0.327-0.944,0.081-1.301-0.968-1.369
			c-1.716-0.111-2.712-1.056-2.315-2.888c0.41-1.89,1.958-2.596,3.587-2.412c1.571,0.177,2.615,1.442,2.229,3.127
			c-0.292,1.276-0.04,1.576,1.219,1.792c2.019,0.347,2.449,1.883,1.82,3.595c-0.759,2.062-2.649,2.897-4.28,2.111
			C177.433,207.123,176.945,205.618,177.046,203.604z"/>
		<path style="fill-rule:evenodd;clip-rule:evenodd;fill:#7B491E;" d="M128.472,168.943c-0.066-0.857,0.258-1.667,0.949-2.023
			c0.642-0.332,1.336,0.016,1.958,0.565c1.456,1.287,4.241,1.847,2.303,4.776c-0.172,0.261-0.104,0.587,1.448,0.968
			c2.111,0.52,2.761,2.2,3.707,3.728c0.5,0.809,0.004,1.506-0.303,2.128c-0.393,0.797-1.249,0.658-1.953,0.441
			c-1.684-0.518-3.227-2.02-3.475-3.24c-0.485-2.386-2.212-3.334-3.611-4.754C128.808,170.834,128.382,169.976,128.472,168.943z"/>
		<path style="fill-rule:evenodd;clip-rule:evenodd;fill:#7B491E;" d="M144.774,160.948c1.344-0.328,2.617,0.348,3.932,0.967
			c1.206,0.568,1.068,1.627,0.835,2.499c-0.196,0.735-0.681,1.255-1.892,1.079c-1.216-0.177-2.56,0.558-3.854,0.869
			c-2.69,0.648-4.692-0.016-4.986-1.637c-0.246-1.354,1.932-3.396,4.077-3.764C143.439,160.868,144.023,160.948,144.774,160.948z"/>
		<path style="fill-rule:evenodd;clip-rule:evenodd;fill:#7B491E;" d="M201.768,184.919c0.587,1.504-0.91,2.227-1.791,2.427
			c-1.109,0.252-2.018-1.121-2.45-2.024c-1.004-2.104-1.171-4.515-2.074-6.706c-0.388-0.941,0-2.105,1.204-2.511
			c1.591-0.534,2.832,0.959,2.902,1.719c0.209,2.255,1.105,4.104,2.189,5.964C201.891,184.03,201.768,184.428,201.768,184.919z"/>
		<path style="fill-rule:evenodd;clip-rule:evenodd;fill:#7B491E;" d="M105.845,196.929c-0.013-3.261,0.75-4.592,2.568-4.498
			c1.914,0.099,2.592,1.515,2.356,4.781c-0.071,0.978-0.116,1.979,0.01,2.945c0.179,1.377-0.54,1.987-1.701,2.074
			c-1.159,0.086-2.38-0.234-2.678-1.521c-0.161-0.694-0.432-1.364-0.538-2.063C105.777,198.086,105.845,197.502,105.845,196.929z"/>
		<path style="fill-rule:evenodd;clip-rule:evenodd;fill:#7B491E;" d="M156.532,160.449c1.319-0.105,2.492,0.342,3.646,0.913
			c1.216,0.601,1.485,1.615,1.13,2.773c-0.349,1.142-1.036,2.173-2.443,1.662c-1.065-0.388-1.994,0.131-2.996,0.114
			c-1.925-0.032-3.516-0.647-3.699-2.603c-0.203-2.169,1.689-2.563,3.384-2.854C155.872,160.402,156.206,160.449,156.532,160.449z"
			/>
		<path style="fill-rule:evenodd;clip-rule:evenodd;fill:#7B491E;" d="M102.833,201.312c-0.419,0.782-0.554,2.289-2.42,1.467
			c-2.56-1.127-4.821-2.655-6.544-4.88c-0.629-0.812-0.553-1.709,0.277-2.362c0.692-0.544,1.366-1.671,2.419-0.773
			c1.97,1.677,3.842,3.469,5.749,5.22C102.609,200.255,102.93,200.532,102.833,201.312z"/>
		<path style="fill-rule:evenodd;clip-rule:evenodd;fill:#7B491E;" d="M53.191,184.544c-0.255-1.552,0.047-3.298,2.004-3.819
			c1.395-0.372,3.873,2.142,3.899,3.545c0.043,2.284-1.44,4.693-2.902,4.714C54.008,189.016,53.191,187.882,53.191,184.544z"/>
		<path style="fill-rule:evenodd;clip-rule:evenodd;fill:#7B491E;" d="M82.691,176.424c0.856,0.236,1.524,0.529,2.166,1.124
			c1.559,1.445,2.658,3.215,3.87,4.913c0.598,0.838,0.702,1.995,0.1,2.442c-0.83,0.617-2.301,0.705-3.052-0.113
			c-1.503-1.636-2.685-3.562-4.087-5.299c-0.724-0.897-0.361-1.623,0.054-2.419C81.956,176.663,82.209,176.326,82.691,176.424z"/>
		<path style="fill-rule:evenodd;clip-rule:evenodd;fill:#7B491E;" d="M154.983,201.118c0.276,1.121-0.172,1.903-0.986,2.393
			c-0.866,0.521-1.623,0.216-2.418-0.44c-0.717-0.592-1.722-0.819-2.531-1.32c-1.783-1.104-1.843-3.712-0.15-4.904
			c0.178-0.125,0.541-0.312,0.566-0.278c1.173,1.533,3.357,1.208,4.635,2.542C154.676,199.712,155.349,200.235,154.983,201.118z"/>
		<path style="fill-rule:evenodd;clip-rule:evenodd;fill:#7B491E;" d="M164.384,171.959c-0.151-1.245-0.16-2.79,1.838-2.932
			c1.721-0.121,3.531,2.152,3.583,4.128c0.046,1.738-0.199,3.351-2.318,3.479C165.772,176.737,164.383,174.605,164.384,171.959z"/>
		<path style="fill-rule:evenodd;clip-rule:evenodd;fill:#7B491E;" d="M113.708,186.41c-0.005,2.7,0.007,2.674-2.247,1.6
			c-1.013-0.483-1.83-1.308-2.8-1.755c-1.777-0.821-1.728-2.033-0.903-3.297c0.861-1.319,2.082-1.966,3.7-0.905
			C113.146,183.158,114.063,184.562,113.708,186.41z"/>
		<path style="fill-rule:evenodd;clip-rule:evenodd;fill:#7B491E;" d="M56.634,197.418c0.411,1.964-0.768,2.793-2.689,2.867
			c-1.692,0.065-2.686-1.483-2.739-3.877c-0.04-1.79,0.331-3.066,2.495-3.007C55.745,193.458,56.646,194.583,56.634,197.418z"/>
		<path style="fill-rule:evenodd;clip-rule:evenodd;fill:#7B491E;" d="M77.989,167.837c2.391-0.066,5.295,4.25,4.531,6.351
			c-0.503,1.385-1.251,1.73-2.371,0.657c-1.249-1.196-2.431-2.465-3.691-3.648c-0.692-0.65-0.87-1.413-0.483-2.18
			C76.404,168.167,77.369,168.054,77.989,167.837z"/>
		<path style="fill-rule:evenodd;clip-rule:evenodd;fill:#7B491E;" d="M142.106,184.065c2.447-0.025,5.297,3.703,4.522,5.917
			c-0.476,1.356-1.568,1.273-2.536,0.558c-1.179-0.873-2.233-1.913-3.379-2.834c-0.774-0.622-1.245-1.418-0.852-2.316
			C140.262,184.478,141.04,183.828,142.106,184.065z"/>
		<path style="fill-rule:evenodd;clip-rule:evenodd;fill:#7B491E;" d="M111.739,178.614c-0.139,0.923,0.24,2.326-1.577,2.504
			c-2.073,0.203-3.306-1.052-3.768-2.713c-0.867-3.12,0.04-4.805,1.957-4.369C109.997,174.411,111.741,176.664,111.739,178.614z"/>
		<path style="fill-rule:evenodd;clip-rule:evenodd;fill:#7B491E;" d="M199.316,191.522c-0.291-1.137,0.016-2.363,1.561-2.291
			c1.377,0.064,2.885,0.448,2.898,2.479c0.007,1.226,0.636,2.428-0.01,3.684c-0.25,0.486,0.347,1.374-0.758,1.466
			c-0.949,0.078-1.777-0.054-2.373-0.895C200.126,195.249,199.317,192.714,199.316,191.522z"/>
		<path style="fill-rule:evenodd;clip-rule:evenodd;fill:#7B491E;" d="M155.927,201.042c-0.14-1.439,0.315-2.25,2.019-2.249
			c1.875,0.002,3.396,1.401,3.238,2.553c-0.193,1.404,0.687,3.969-1.97,4.324C157.664,205.877,156.012,203.387,155.927,201.042z"/>
		<path style="fill-rule:evenodd;clip-rule:evenodd;fill:#7B491E;" d="M131.912,165.193c-0.093-1.573,0.288-2.762,2.187-2.78
			c2.08-0.019,4.269,1.746,4.197,3.455c-0.052,1.247-0.766,1.939-2.014,1.948C132.954,167.844,131.931,167.213,131.912,165.193z"/>
		<path style="fill-rule:evenodd;clip-rule:evenodd;fill:#7B491E;" d="M167.828,185.379c0.139,1.301-0.267,2.417-1.759,2.582
			c-1.472,0.163-3.922-2.272-3.571-3.681c0.26-1.046,0.272-2.654,2.078-2.681C166.258,181.575,167.833,183.353,167.828,185.379z"/>
		<path style="fill-rule:evenodd;clip-rule:evenodd;fill:#7B491E;" d="M181.103,185.236c-0.005-1.888,0.318-3.478,2.206-3.562
			c1.436-0.064,2.978,0.565,2.686,2.503c-0.248,1.648-0.143,3.771-2.705,3.812C181.177,188.021,181.032,186.545,181.103,185.236z"/>
		<path style="fill-rule:evenodd;clip-rule:evenodd;fill:#7B491E;" d="M93.048,193.537c-0.271,1.792-1.334,2.544-2.768,2.624
			c-1.158,0.064-3.429-2.568-3.087-3.595c0.474-1.427,1.672-2.366,3.04-2.889C90.926,189.413,93.099,192.691,93.048,193.537z"/>
		<path style="fill-rule:evenodd;clip-rule:evenodd;fill:#7B491E;" d="M162.069,193.411c2.074,0.006,3.84,1.839,3.791,3.303
			c-0.046,1.36-0.749,2.059-2.104,2.109c-1.461,0.056-3.288-1.711-3.311-3.179C160.42,194.121,161.217,193.444,162.069,193.411z"/>
		<path style="fill-rule:evenodd;clip-rule:evenodd;fill:#7B491E;" d="M180.199,192.318c2.237-0.208,3.201,0.907,3.364,2.87
			c0.141,1.692-1.252,2.205-2.346,2.055c-1.359-0.188-2.914-1.019-2.858-2.664C178.387,193.753,178.644,192.175,180.199,192.318z"/>
		<path style="fill-rule:evenodd;clip-rule:evenodd;fill:none;" d="M345,127.556c-0.141,1.617-0.745,2.457-2.033,1.562
			c-1.286-0.895-2.177-0.786-3.475,0.044c-2.023,1.293-4.243,0.724-5.952-0.644c-1.957-1.564-3.296-1.04-4.266,0.811
			c-0.748,1.429-1.448,1.633-2.707,0.755c-0.722-0.504-1.464-0.622-2.395-0.183c-1.975,0.934-4.141,0.531-6.226,0.499
			c-1.325-0.021-1.571-0.838-1.204-2.113c0.944-3.284,2.353-6.386,3.768-9.462c2.312-5.03,5.467-9.653,7.255-14.947
			c0.203-0.601,0.586-1.467,1.432-1.171c0.742,0.26,1.744,0.324,1.982,1.421c0.284,1.315,0.739,2.597,0.953,3.92
			c0.309,1.908,0.977,3.405,2.831,4.396c1.365,0.729,1.646,2.215,1.656,3.786c0.016,2.59,1.168,3.378,3.79,2.933
			c0.907-0.154,2.105-0.147,2.015,1.084c-0.185,2.505,1.798,4.207,2.121,6.491C344.595,127.093,345.051,127.381,345,127.556z"/>
		<path style="fill-rule:evenodd;clip-rule:evenodd;fill:none;" d="M309.122,141.754c-0.41-0.076-1.077,0.187-0.998-0.582
			c0.052-0.505,0.579-0.396,0.942-0.393c0.361,0.003,0.856-0.096,0.89,0.455C309.993,141.824,309.476,141.696,309.122,141.754z"/>
		<path style="fill-rule:evenodd;clip-rule:evenodd;fill:none;" d="M194.307,101.415c1.018-0.218,1.786,0.198,2.309,1.006
			c1.409,2.178,3.281,4.056,3.757,6.815c0.268,1.552,1.217,3.034,2.808,3.611c2.374,0.86,2.741,2.831,3.007,4.87
			c0.367,2.825,1.244,3.649,3.746,2.696c1.59-0.606,2.192-0.181,2.675,1.183c0.385,1.089,1.24,1.85,1.935,2.733
			c0.752,0.956,1.146,1.556-0.739,2.3c-4.13,1.631-7.803,0.491-11.512-0.911c-1.771-0.669-3.094-0.794-4.359,0.891
			c-1.385,1.844-2.89,2.948-4.928,0.453c-0.87-1.064-2.37-1.703-3.883-0.595c-2.25,1.648-4.588,0.354-6.786-0.065
			c-1.705-0.325-3.371-0.43-5.049-0.359c-1.548,0.065-2.083-0.685-1.415-1.836c1.473-2.54,3.469-4.735,5.772-6.532
			c1.638-1.278,2.833-2.886,3.85-4.553c2.239-3.673,5.484-6.729,6.814-10.95C192.689,100.963,193.619,101.579,194.307,101.415z"/>
		<path style="fill-rule:evenodd;clip-rule:evenodd;fill:none;" d="M251.315,98.812c5.061-1.922,9.571,0.833,14.334,1.659
			c0.736,0.127,0.91,0.785,0.71,1.624c-0.387,1.616-0.079,3.132,0.778,4.632c0.42,0.734,1.032,1.336,1.586,1.287
			c2.969-0.259,2.198,1.776,2.484,3.464c0.581,3.436-1.6,6.142-2.098,9.271c-0.091,0.574-0.674,0.852-1.341,0.843
			c-0.648-0.009-0.959-0.115-1.104-0.896c-0.183-0.98-1.006-1.773-1.927-2.004c-1.326-0.332-1.981-0.979-1.966-2.328
			c0.002-0.156-0.014-0.409-0.105-0.457c-3.562-1.872-3.023-6.501-5.885-8.767c-1.072-0.849-1.155-1.745-0.678-2.644
			c0.869-1.636-0.122-2.853-1.187-3.182C253.327,100.822,252.614,99.375,251.315,98.812z"/>
		<path style="fill-rule:evenodd;clip-rule:evenodd;fill:none;" d="M123.13,92.736c1.676-0.621,2.492,0.294,3.413,1.351
			c1.853,2.125,3.994,3.899,7.104,3.364c1.822-0.313,3.271-1.539,4.876-2.366c1.97-1.014,4.024-0.859,5.983-0.393
			c2.582,0.615,3.659,3.315,3.136,6.369c-0.585,3.418-1.833,6.868-0.112,10.331c0.409,0.824-0.091,1.371-0.667,1.878
			c-0.884,0.778-1.02-0.345-1.464-0.601c-2.107-1.216-4.147-2.55-6.278-3.721c-1.07-0.587-1.792-1.163-1.845-2.535
			c-0.083-2.16-1.73-3.776-2.268-5.887c-0.403-1.583-2.514-2.448-4.451-1.86c-0.686,0.208-1.295,0.497-1.719-0.137
			C127.314,96.25,124.862,94.873,123.13,92.736z"/>
	</g>
</g>
</svg>
